<svg width="42" height="42" viewBox="0 0 42 42" fill="none" xmlns="http://www.w3.org/2000/svg">
<g clip-path="url(#clip0_3_601)">
<g clip-path="url(#clip1_3_601)">
<mask id="mask0_3_601" style="mask-type:luminance" maskUnits="userSpaceOnUse" x="0" y="0" width="42" height="42">
<path d="M0 0H42V42H0V0Z" fill="white"/>
</mask>
<g mask="url(#mask0_3_601)">
<path fill-rule="evenodd" clip-rule="evenodd" d="M21 9.22693C27.5022 9.22693 32.7731 14.4978 32.7731 21C32.7731 27.5022 27.5022 32.7731 21 32.7731C14.4978 32.7731 9.22693 27.5022 9.22693 21C9.22693 14.4978 14.4978 9.22693 21 9.22693ZM28.3907 28.3423C30.262 26.459 31.4182 23.8646 31.4182 21C31.4182 15.2455 26.7545 10.5818 21 10.5818C15.2455 10.5818 10.5818 15.2455 10.5818 21C10.5818 23.8646 11.7381 26.459 13.6093 28.3423C14.596 25.1987 17.5327 22.9182 21 22.9182C24.4673 22.9182 27.404 25.1987 28.3907 28.3423ZM21 22.0715C18.8444 22.0715 17.0819 20.3088 17.0819 18.1525C17.0819 15.9971 18.8444 14.2344 21 14.2344C23.1556 14.2344 24.9181 15.9971 24.9181 18.1525C24.9181 20.3088 23.1556 22.0715 21 22.0715ZM40.6339 21.677H36.7433L37.285 22.32C37.526 22.6064 37.4896 23.0342 37.2038 23.2746C36.9181 23.5157 36.4903 23.4792 36.2492 23.1935L34.7686 21.4368C34.5558 21.1846 34.5558 20.8154 34.7686 20.5632L36.2492 18.8065C36.4903 18.5208 36.9181 18.4843 37.2038 18.7254C37.4896 18.9658 37.526 19.3936 37.285 19.6801L36.7433 20.323H41.323C41.6964 20.323 42 20.6264 42 21C42 31.2001 34.7113 39.7121 25.0625 41.6064C24.6956 41.6785 24.3392 41.439 24.2671 41.0722C24.195 40.7053 24.4345 40.3489 24.8014 40.2768C33.6131 38.5469 40.32 30.9174 40.6339 21.677ZM20.323 5.2567V0.677083C20.323 0.303571 20.6264 0 21 0C31.2001 0 39.7121 7.28869 41.6064 16.9375C41.6785 17.3044 41.439 17.6608 41.0722 17.7329C40.7053 17.8051 40.3489 17.5655 40.2768 17.1986C38.5469 8.38691 30.9174 1.68006 21.677 1.36607V5.2567L22.32 4.71503C22.6064 4.47396 23.0342 4.51042 23.2746 4.79614C23.5157 5.08184 23.4792 5.50967 23.1935 5.75075L21.4368 7.2314C21.1846 7.4442 20.8154 7.4442 20.5632 7.2314L18.8065 5.75075C18.5208 5.50967 18.4843 5.08184 18.7254 4.79614C18.9658 4.51042 19.3936 4.47396 19.6801 4.71503L20.323 5.2567ZM1.36607 20.323H5.2567L4.71503 19.6801C4.47396 19.3936 4.51042 18.9658 4.79614 18.7254C5.08184 18.4843 5.50967 18.5208 5.75075 18.8065L7.2314 20.5632C7.4442 20.8154 7.4442 21.1846 7.2314 21.4368L5.75075 23.1935C5.50967 23.4792 5.08184 23.5157 4.79614 23.2746C4.51042 23.0342 4.47396 22.6064 4.71503 22.32L5.2567 21.677H0.677083C0.303571 21.677 0 21.3736 0 21C0 10.7999 7.28869 2.28794 16.9375 0.393601C17.3044 0.321428 17.6608 0.561012 17.7329 0.927827C17.8051 1.29464 17.5655 1.65104 17.1986 1.72321C8.38691 3.45312 1.68006 11.0826 1.36607 20.323ZM20.323 40.6339V36.7433L19.6801 37.285C19.3936 37.526 18.9658 37.4896 18.7254 37.2038C18.4843 36.9181 18.5208 36.4903 18.8065 36.2492L20.5632 34.7686C20.8154 34.5558 21.1846 34.5558 21.4368 34.7686L23.1935 36.2492C23.4792 36.4903 23.5157 36.9181 23.2746 37.2038C23.0342 37.4896 22.6064 37.526 22.32 37.285L21.677 36.7433V41.323C21.677 41.6964 21.3736 42 21 42C10.7999 42 2.28794 34.7113 0.393601 25.0625C0.321428 24.6956 0.561012 24.3392 0.927827 24.2671C1.29464 24.195 1.65104 24.4345 1.72321 24.8014C3.45312 33.6131 11.0826 40.32 20.323 40.6339Z" fill="#00D280"/>
</g>
</g>
</g>
<defs>
<clipPath id="clip0_3_601">
<rect width="42" height="42" fill="white"/>
</clipPath>
<clipPath id="clip1_3_601">
<rect width="42" height="42" fill="white"/>
</clipPath>
</defs>
</svg>
