<svg width="42" height="42" viewBox="0 0 42 42" fill="none" xmlns="http://www.w3.org/2000/svg">
<g clip-path="url(#clip0_3_558)">
<g clip-path="url(#clip1_3_558)">
<mask id="mask0_3_558" style="mask-type:luminance" maskUnits="userSpaceOnUse" x="0" y="6" width="35" height="38">
<path d="M0.583374 6.12263H34.9037V43.6906H0.583374V6.12263Z" fill="white"/>
</mask>
<g mask="url(#mask0_3_558)">
<path d="M33.752 25.0533C34.1202 24.4729 34.4403 23.8916 34.7145 23.3032C34.5734 23.2651 34.4383 23.2163 34.3093 23.1534C33.9271 23.5283 33.3728 23.7568 32.7675 23.7568L32.5235 23.7551L31.0077 23.444C30.4664 23.336 30.0052 23.0462 29.712 22.6306C29.609 22.4826 29.529 22.3285 29.477 22.1654C29.442 22.1689 29.4079 22.1689 29.377 22.1689C28.6526 22.1689 27.9933 21.8455 27.6111 21.3023L26.9108 20.3098C26.4966 19.7267 26.5036 19.0161 26.8517 18.4498C26.7087 18.3354 26.5856 18.206 26.4826 18.0616C26.3105 17.8153 26.2034 17.5406 26.1754 17.2544C25.8643 17.4041 25.5142 17.4856 25.1619 17.4856C24.5136 17.4856 23.9044 17.218 23.5082 16.7776C23.167 17.4236 22.4236 17.856 21.5952 17.856L21.2881 17.8525L19.2502 17.3429C18.7079 17.2083 18.2567 16.8937 17.9816 16.4604C17.7625 16.1121 17.6734 15.7205 17.7254 15.3323C17.4953 15.4085 17.2492 15.4476 17.002 15.4476C16.2407 15.4476 15.5354 15.0816 15.1611 14.4931L14.2657 13.0709C13.7516 12.2636 13.9956 11.2596 14.796 10.6978C14.3958 10.5365 14.0627 10.2636 13.8436 9.91889C13.5675 9.48291 13.5024 8.97958 13.6545 8.50018L14.1568 6.93171C14.2397 6.67207 14.3829 6.43902 14.574 6.24141C13.3364 6.54093 12.0927 6.94855 10.8462 7.46782C10.433 7.63708 9.68261 8.08901 9.31944 8.35219C8.06984 9.25605 6.62916 10.7793 5.2475 14.3762C5.04941 15.0381 4.88033 15.6071 4.71126 16.1759C4.34909 17.389 4.33208 18.6252 4.45613 19.8614C4.53017 20.6075 4.27805 21.2288 3.78681 21.8206C2.97043 22.8034 2.14704 23.7826 1.40069 24.8052C0.313171 26.2975 0.693352 27.0896 2.63527 27.5159C4.10797 27.8411 4.165 27.9022 3.53069 29.118C3.24056 29.6737 3.16352 30.1228 3.80382 30.5004C4.00392 30.6226 4.02793 30.7848 3.95789 30.9851C3.78381 31.4805 3.94689 31.8996 4.3951 32.2248C4.68224 32.4321 4.75427 32.6768 4.71725 33.0011C4.63322 33.7366 4.58219 34.4765 4.75928 35.2094C5.12645 36.7318 6.15294 37.6028 7.90077 37.8031C9.18437 37.9484 10.479 38.0139 11.7646 38.1354C12.9651 38.247 13.6825 38.8541 13.6195 39.9218C13.5655 40.8257 13.5214 41.5701 13.4904 42.4102C13.4503 43.4858 13.5845 43.6516 14.794 43.6534C20.0825 43.6746 32.1192 43.6897 32.8476 43.6844C33.5629 43.679 33.9962 43.2502 33.72 42.6663C33.3128 41.7943 31.3319 37.5045 30.4734 35.7189C29.7811 33.7224 29.8012 31.7746 30.9297 29.8659C31.8781 28.2647 32.7566 26.6297 33.752 25.0533Z" fill="#00D280"/>
</g>
<path d="M18.9612 8.98069C19.0573 8.67941 19.1973 8.39938 19.3744 8.14595C19.5325 7.91822 19.7186 7.71174 19.9287 7.52742C20.4189 7.09587 21.0362 6.79015 21.7086 6.64748C21.9957 6.58456 22.2938 6.55267 22.594 6.55533C22.9322 6.55444 23.2753 6.59432 23.6155 6.6785C23.9556 6.76445 24.2717 6.88763 24.5579 7.04448C24.8151 7.1836 25.0501 7.34843 25.2572 7.53451C25.7464 7.96695 26.0927 8.51369 26.2547 9.10741C26.3247 9.36262 26.3608 9.62403 26.3608 9.89076C26.3608 10.1885 26.3157 10.4925 26.2187 10.7937C26.1227 11.0941 25.9825 11.3733 25.8054 11.6267C25.6484 11.8544 25.4623 12.0627 25.2513 12.2461C24.762 12.6777 24.1447 12.9825 23.4714 13.1269C23.1843 13.189 22.8861 13.2209 22.5839 13.22C22.2478 13.2209 21.9036 13.1801 21.5645 13.095C21.2234 13.01 20.9092 12.8859 20.6201 12.7291C20.3629 12.5908 20.1288 12.4269 19.9207 12.2399C19.4324 11.8057 19.0863 11.2599 18.9262 10.6652C18.8542 10.4118 18.8182 10.1486 18.8201 9.8819C18.8201 9.58327 18.8652 9.28109 18.9612 8.98069ZM15.6567 9.09235L17.0794 9.44769C17.0094 10.1345 17.1074 10.8141 17.3485 11.4451L16.0569 12.084C16.0079 12.1088 15.9918 12.1611 16.0178 12.2036L16.9163 13.6258C16.9433 13.6675 17.0043 13.6825 17.0514 13.6586L18.343 13.0197C18.8262 13.5328 19.4284 13.9608 20.1288 14.2683L19.7266 15.5257C19.7116 15.5718 19.7426 15.6206 19.7947 15.633L21.5685 16.0761C21.6215 16.0894 21.6756 16.0636 21.6905 16.0157L22.0928 14.7583C22.871 14.8204 23.6394 14.7353 24.3528 14.5209L25.0751 15.6631C25.1022 15.7056 25.1621 15.7207 25.2102 15.6968L26.8189 14.901C26.8659 14.8771 26.883 14.8248 26.856 14.7822L26.1336 13.64C26.7139 13.2138 27.1981 12.6794 27.5453 12.0627L28.969 12.4172C29.021 12.4304 29.075 12.4039 29.0901 12.3569L29.5913 10.7893C29.6063 10.7432 29.5762 10.6954 29.5233 10.6803L28.0996 10.3259C28.1706 9.63821 28.0736 8.96031 27.8315 8.32761L29.1231 7.6887C29.171 7.66566 29.1891 7.61249 29.1621 7.57084L28.2616 6.14948C28.2347 6.10694 28.1737 6.09099 28.1265 6.1158L26.835 6.75471C26.3538 6.24252 25.7494 5.81363 25.0491 5.50702L25.4514 4.2487C25.4663 4.20174 25.4363 4.15389 25.3832 4.1406L23.6105 3.69752C23.5574 3.68423 23.5024 3.71171 23.4874 3.75778L23.0852 5.0161C22.3068 4.95407 21.5415 5.04003 20.8261 5.25358L20.1028 4.11135C20.0768 4.06881 20.0168 4.05286 19.9698 4.07768L18.362 4.87255C18.3139 4.89558 18.2979 4.94965 18.324 4.99128L19.0462 6.13263C18.4661 6.55976 17.9818 7.09233 17.6356 7.71174L16.2119 7.3564C16.1589 7.34311 16.1048 7.37057 16.0899 7.41665L15.5886 8.98512C15.5737 9.0312 15.6047 9.07905 15.6567 9.09235Z" fill="#00D280"/>
<mask id="mask1_3_558" style="mask-type:luminance" maskUnits="userSpaceOnUse" x="29" y="2" width="13" height="12">
<path d="M29.2687 2.85735H41.4165V13.6089H29.2687V2.85735Z" fill="white"/>
</mask>
<g mask="url(#mask1_3_558)">
<path d="M38.604 8.37341C38.585 8.59317 38.5349 8.81116 38.4549 9.02649C38.3659 9.26487 38.2369 9.49703 38.0698 9.71591C37.9027 9.93479 37.7075 10.1262 37.4884 10.2875C37.2944 10.4328 37.0823 10.556 36.8582 10.6543C36.3359 10.8847 35.7487 10.9849 35.1654 10.9432C34.9163 10.9255 34.6681 10.8821 34.427 10.8094C34.1559 10.7305 33.8928 10.618 33.6457 10.4691C33.3986 10.322 33.1824 10.1483 32.9984 9.95429C32.8343 9.78325 32.6952 9.59628 32.5841 9.39867C32.3241 8.93523 32.209 8.41683 32.259 7.90198C32.278 7.68221 32.3291 7.46335 32.4091 7.24889C32.4981 7.00876 32.6262 6.77835 32.7933 6.55948C32.9613 6.34061 33.1585 6.14919 33.3745 5.98704C33.5707 5.84082 33.7808 5.71941 34.0058 5.62105C34.5281 5.38977 35.1144 5.28964 35.6967 5.33306C35.9468 5.35078 36.1939 5.39421 36.4349 5.46687C36.7071 5.54396 36.9682 5.65827 37.2164 5.80537C37.4635 5.95335 37.6815 6.12705 37.8636 6.32022C38.0278 6.49125 38.1669 6.67822 38.2778 6.87671C38.54 7.3384 38.653 7.85767 38.604 8.37341ZM41.3974 7.82223L41.1032 6.47086C41.0941 6.4301 41.0502 6.4044 41.0051 6.41149L39.7766 6.62062C39.5445 6.0978 39.1883 5.6122 38.719 5.20192L39.4204 4.28741C39.4465 4.25286 39.4364 4.20766 39.3973 4.18462L38.1078 3.4128C38.0698 3.38976 38.0178 3.39861 37.9917 3.43229L37.2914 4.34767C36.6861 4.11462 36.0448 4.00385 35.4075 4.00739L35.1714 2.92187C35.1634 2.88111 35.1184 2.85541 35.0733 2.8625L33.5456 3.12303C33.5005 3.131 33.4716 3.16999 33.4795 3.20987L33.7167 4.29628C33.1235 4.50186 32.5751 4.81555 32.1109 5.23027L31.0754 4.61086C31.0384 4.58782 30.9864 4.59667 30.9604 4.63035L30.0879 5.7717C30.062 5.80537 30.0719 5.85057 30.11 5.8736L31.1445 6.49302C30.8823 7.02648 30.7563 7.59449 30.7603 8.15807L29.5307 8.36632C29.4867 8.37429 29.4566 8.41328 29.4657 8.45316L29.7599 9.80541C29.7688 9.8444 29.8119 9.87099 29.8569 9.86301L31.0854 9.65388C31.3176 10.1785 31.6727 10.6632 32.142 11.0735L31.4416 11.988C31.4166 12.0217 31.4266 12.0677 31.4656 12.0908L32.7553 12.8617C32.7923 12.8848 32.8443 12.8759 32.8703 12.8422L33.5707 11.9277C34.1749 12.1608 34.8172 12.2724 35.4535 12.268L35.6917 13.3535C35.6996 13.3934 35.7437 13.42 35.7877 13.412L37.3174 13.1506C37.3634 13.1435 37.3924 13.1045 37.3845 13.0655L37.1464 11.9791C37.7406 11.7735 38.2889 11.4581 38.7531 11.0451L39.7876 11.6637C39.8256 11.6867 39.8777 11.6769 39.9026 11.6442L40.776 10.5028C40.802 10.4691 40.7921 10.4248 40.7541 10.4018L39.7196 9.78238C39.9827 9.24715 40.1077 8.6809 40.1047 8.11731L41.3323 7.90819C41.3773 7.89932 41.4063 7.86122 41.3974 7.82223Z" fill="#00D280"/>
</g>
<path d="M35.8778 18.0424C35.8218 18.2621 35.7328 18.4668 35.6148 18.6538C35.5117 18.8222 35.3856 18.9763 35.2426 19.1155C34.9085 19.4406 34.4762 19.6782 34 19.8022C33.7959 19.8563 33.5838 19.8882 33.3667 19.8961C33.1245 19.9076 32.8774 19.8891 32.6283 19.8386C32.3812 19.7881 32.1512 19.7083 31.938 19.6047C31.748 19.5133 31.5728 19.4034 31.4158 19.275C31.0485 18.979 30.7785 18.5979 30.6404 18.177C30.5793 17.9963 30.5434 17.8083 30.5323 17.6178C30.5213 17.4034 30.5423 17.1845 30.5994 16.9657C30.6564 16.7468 30.7454 16.5412 30.8625 16.3542C30.9665 16.1859 31.0916 16.0316 31.2357 15.8935C31.5709 15.5692 32.001 15.3299 32.4772 15.2067C32.6823 15.1527 32.8935 15.1216 33.1105 15.1137C33.3527 15.1012 33.5998 15.1199 33.848 15.1704C34.0951 15.2209 34.3282 15.3006 34.5392 15.4034C34.7283 15.4955 34.9034 15.6064 35.0605 15.7339C35.4276 16.0281 35.6978 16.4101 35.8378 16.8318C35.8999 17.0127 35.9349 17.1988 35.9449 17.391C35.9579 17.6045 35.9349 17.8235 35.8778 18.0424ZM38.2459 17.8607L37.2115 17.6498C37.2346 17.1527 37.1364 16.6697 36.9394 16.224L37.8408 15.725C37.8748 15.7065 37.8849 15.6683 37.8639 15.6392L37.1615 14.6467C37.1404 14.6165 37.0975 14.6085 37.0634 14.6272L36.162 15.1243C35.7969 14.7724 35.3467 14.4836 34.8313 14.2842L35.0705 13.3697C35.0784 13.336 35.0555 13.3024 35.0174 13.2944L33.7258 13.0321C33.6878 13.0232 33.6499 13.0445 33.6408 13.0773L33.4017 13.9936C32.8415 13.9723 32.2942 14.0582 31.79 14.2329L31.2256 13.4353C31.2057 13.4069 31.1607 13.3972 31.1276 13.4158L30.0061 14.036C29.9731 14.0547 29.9631 14.0929 29.983 14.122L30.5473 14.9196C30.1472 15.2439 29.821 15.6409 29.5969 16.0964L28.5614 15.8846C28.5234 15.8775 28.4854 15.8979 28.4764 15.9315L28.1782 17.0729C28.1703 17.1066 28.1932 17.1411 28.2322 17.1482L29.2677 17.36C29.2437 17.8554 29.3408 18.3384 29.5389 18.785L28.6365 19.2838C28.6034 19.3016 28.5934 19.3396 28.6144 19.3706L29.3158 20.3623C29.3358 20.3924 29.3797 20.4013 29.4128 20.3826L30.3142 19.8847C30.6805 20.2364 31.1316 20.5253 31.6448 20.7247L31.4058 21.6392C31.3988 21.6728 31.4218 21.7075 31.4587 21.7145L32.7504 21.9777C32.7884 21.9865 32.8264 21.9644 32.8354 21.9316L33.0746 21.0154C33.6359 21.0366 34.183 20.9516 34.6863 20.7761L35.2505 21.5736C35.2715 21.602 35.3156 21.6117 35.3486 21.5931L36.4721 20.9719C36.5062 20.9541 36.5141 20.9152 36.4942 20.8868L35.9299 20.0893C36.33 19.7641 36.6573 19.3671 36.8804 18.9117L37.9168 19.1234C37.9549 19.1323 37.9918 19.1101 38.0019 19.0765L38.299 17.9352C38.308 17.9024 38.284 17.8687 38.2459 17.8607Z" fill="#00D280"/>
</g>
</g>
<defs>
<clipPath id="clip0_3_558">
<rect width="42" height="42" fill="white"/>
</clipPath>
<clipPath id="clip1_3_558">
<rect width="42" height="42" fill="white" transform="translate(0 2)"/>
</clipPath>
</defs>
</svg>
