<svg width="42" height="45" viewBox="0 0 42 45" fill="none" xmlns="http://www.w3.org/2000/svg">
<g clip-path="url(#clip0_3_1176)">
<path d="M20.5022 29.0081V25.1637C19.5906 25.2275 18.7087 25.4699 17.9033 25.8683C18.4598 27.2187 19.3481 28.3041 20.5022 29.0081Z" fill="#00D280"/>
<path d="M17.5796 24.9196C18.4898 24.4879 19.4809 24.2292 20.5024 24.1653V22.7716H17.2471C17.2818 23.5294 17.3945 24.2497 17.5796 24.9196Z" fill="#00D280"/>
<path d="M17.2477 21.7757H20.5023V20.3827C19.4808 20.3202 18.4897 20.0615 17.5795 19.6291C17.3944 20.299 17.2817 21.0178 17.2477 21.7757Z" fill="#00D280"/>
<path d="M17.9033 18.6792C18.7094 19.0783 19.5913 19.32 20.5022 19.3846V15.5395C19.3481 16.2434 18.4598 17.3295 17.9033 18.6792Z" fill="#00D280"/>
<path d="M16.0634 27.191C16.7985 27.929 17.6981 28.5024 18.7012 28.8541C18.0085 28.1671 17.4471 27.3313 17.0374 26.3778C16.6907 26.6174 16.3646 26.8889 16.0634 27.191Z" fill="#00D280"/>
<path d="M18.7019 15.6932C17.6988 16.0449 16.7992 16.6184 16.0634 17.3564C16.3646 17.6584 16.6907 17.9299 17.0374 18.1695C17.4471 17.216 18.0085 16.3802 18.7019 15.6932Z" fill="#00D280"/>
<path d="M16.6856 19.1322C16.2298 18.8387 15.8023 18.4977 15.411 18.1121C14.6361 19.1493 14.1456 20.4089 14.0485 21.7758H16.251C16.2894 20.8386 16.4374 19.9517 16.6856 19.1322Z" fill="#00D280"/>
<path d="M25.9384 17.3578C25.2033 16.6191 24.303 16.0449 23.2992 15.6932C23.9939 16.3817 24.556 17.2203 24.9666 18.1759C25.3125 17.9349 25.6386 17.662 25.9384 17.3578Z" fill="#00D280"/>
<path d="M16.251 22.7716H14.0485C14.1456 24.1384 14.6361 25.3982 15.411 26.436C15.8023 26.0503 16.2298 25.7093 16.6863 25.4166C16.4374 24.5963 16.2894 23.7095 16.251 22.7716Z" fill="#00D280"/>
<path d="M23.2997 28.854C24.3028 28.5017 25.2031 27.9282 25.9382 27.1896C25.6384 26.8854 25.3123 26.6124 24.9664 26.3722C24.5558 27.327 23.9937 28.1657 23.2997 28.854Z" fill="#00D280"/>
<path d="M25.3169 25.4088C25.7734 25.703 26.2009 26.0461 26.5915 26.4338C27.365 25.3968 27.8556 24.1377 27.9526 22.7716H25.7501C25.711 23.7067 25.5643 24.5914 25.3169 25.4088Z" fill="#00D280"/>
<path d="M25.3169 19.1391C25.5643 19.9565 25.711 20.8413 25.7501 21.7755H27.9526C27.8556 20.4095 27.365 19.1505 26.5915 18.1141C26.2009 18.5019 25.7734 18.8443 25.3169 19.1391Z" fill="#00D280"/>
<path d="M21.4984 15.5395V19.3868C22.4116 19.3265 23.2941 19.0861 24.1002 18.687C23.5437 17.333 22.6547 16.2448 21.4984 15.5395Z" fill="#00D280"/>
<path d="M24.7531 22.7716H21.4984V24.1632C22.5208 24.2227 23.5124 24.4794 24.4228 24.9111C24.607 24.2433 24.719 23.5266 24.7531 22.7716Z" fill="#00D280"/>
<path d="M24.4235 19.637C23.5132 20.0695 22.5215 20.3261 21.4984 20.385V21.7759H24.7531C24.719 21.0215 24.607 20.3048 24.4235 19.637Z" fill="#00D280"/>
<mask id="mask0_3_1176" style="mask-type:luminance" maskUnits="userSpaceOnUse" x="0" y="1" width="42" height="42">
<path d="M0.583374 1.85735H41.4167V42.6907H0.583374V1.85735Z" fill="white"/>
</mask>
<g mask="url(#mask0_3_1176)">
<path d="M38.7271 19.5836C37.4071 19.5836 36.3075 20.5392 36.0807 21.7941H32.1958C32.0753 19.0591 30.9708 16.5764 29.2277 14.6914L31.9833 11.9359C32.4461 12.2634 32.9906 12.4279 33.5351 12.4279C34.2234 12.4279 34.9124 12.1656 35.4371 11.641C35.9453 11.1334 36.2247 10.4578 36.2247 9.73901C36.2247 9.02088 35.9453 8.34529 35.4371 7.83699C34.3886 6.78781 32.6815 6.78781 31.633 7.83699C30.715 8.75504 30.6001 10.1771 31.2892 11.2206L28.5201 13.9897C26.6259 12.2719 24.1427 11.193 21.4141 11.0937V7.20536C22.7014 7.00544 23.6904 5.88961 23.6904 4.54693C23.6904 3.06389 22.4838 1.85661 21 1.85661C19.517 1.85661 18.3104 3.06389 18.3104 4.54693C18.3104 5.83007 19.2143 6.90619 20.418 7.17274V11.1001C17.7191 11.2391 15.27 12.3372 13.4048 14.0598L10.6513 11.3064C11.4056 10.2558 11.3113 8.78056 10.3678 7.83699C9.31859 6.78781 7.61224 6.78781 6.56375 7.83699C6.05546 8.34529 5.77545 9.02017 5.77545 9.73901C5.77545 10.4578 6.05546 11.1334 6.56375 11.641C7.08765 12.1656 7.7767 12.4279 8.46577 12.4279C8.97689 12.4279 9.4873 12.2833 9.93179 11.9948L12.7029 14.7666C10.9824 16.6616 9.90132 19.1469 9.80136 21.8784H5.93424C5.74213 20.5818 4.62276 19.5836 3.2737 19.5836C1.78994 19.5836 0.583374 20.7903 0.583374 22.2732C0.583374 23.757 1.78994 24.9636 3.2737 24.9636C4.55045 24.9636 5.62161 24.069 5.89525 22.8737H9.80845C9.94668 25.5662 11.0398 28.0106 12.7547 29.8742L10.0176 32.6113C8.96768 31.8691 7.50236 31.967 6.56304 32.9062C6.05546 33.4139 5.77545 34.0895 5.77545 34.8083C5.77545 35.5263 6.05546 36.202 6.56304 36.7103C7.08765 37.2349 7.7767 37.4972 8.46577 37.4972C9.15412 37.4972 9.84318 37.2349 10.3678 36.7103C11.2858 35.7922 11.3999 34.3702 10.7109 33.3266L13.4608 30.5768C15.338 32.2866 17.7972 33.3685 20.5023 33.4876V37.3575C19.2561 37.5915 18.3104 38.6874 18.3104 40.0003C18.3104 41.4833 19.517 42.6899 21 42.6899C22.4831 42.6899 23.6904 41.4833 23.6904 40.0003C23.6904 38.6874 22.744 37.5915 21.4984 37.3575V33.4876C24.2263 33.3678 26.704 32.2675 28.5876 30.5321L31.3275 33.272C30.5973 34.3198 30.698 35.7759 31.6323 36.7103C32.1569 37.2349 32.8459 37.4972 33.5351 37.4972C34.2234 37.4972 34.9124 37.2349 35.4371 36.7103C35.9446 36.202 36.2247 35.527 36.2247 34.8083C36.2247 34.0895 35.9446 33.4139 35.4371 32.9062C34.514 31.9833 33.0827 31.8727 32.0378 32.5737L29.29 29.826C30.9971 27.9488 32.0768 25.4924 32.1951 22.7901H36.0871C36.3289 24.0271 37.4198 24.9636 38.7271 24.9636C40.2101 24.9636 41.4167 23.757 41.4167 22.2732C41.4167 20.7903 40.2101 19.5836 38.7271 19.5836ZM27.035 27.4703C27.0109 27.5064 26.9819 27.5405 26.9471 27.5703L26.9457 27.571C25.5378 29.1497 23.5125 30.1663 21.2524 30.2364C21.2319 30.2394 21.2106 30.2415 21.1893 30.2415C21.1787 30.2415 21.1687 30.2401 21.1588 30.2394C21.1056 30.2401 21.0532 30.2415 21 30.2415C20.9475 30.2415 20.8945 30.2401 20.842 30.2394C20.8313 30.2401 20.8214 30.2415 20.8115 30.2415C20.7902 30.2415 20.7689 30.2394 20.7477 30.2364C18.4876 30.1663 16.4623 29.1497 15.0544 27.571L15.0516 27.5689C15.0175 27.5391 14.9891 27.5057 14.9658 27.4703C13.762 26.0745 13.0325 24.2575 13.0325 22.2739C13.0325 20.2898 13.762 18.4728 14.9658 17.0769C14.9891 17.0416 15.0175 17.0082 15.0516 16.9791L15.0544 16.9763C16.4637 15.3961 18.4919 14.3796 20.7541 14.31C20.7853 14.3065 20.8157 14.3058 20.8462 14.3079C20.8973 14.3072 20.9482 14.3065 21 14.3065C21.0518 14.3065 21.1028 14.3072 21.1546 14.3079C21.1851 14.3058 21.2155 14.3072 21.2461 14.31C23.5088 14.3796 25.5364 15.3961 26.9457 16.9763L26.9471 16.977C26.9819 17.0068 27.0109 17.0407 27.035 17.0769C28.2387 18.4735 28.9676 20.2898 28.9676 22.2739C28.9676 24.2575 28.2387 26.0745 27.035 27.4703Z" fill="#00D280"/>
</g>
<path d="M21.4984 25.1607V29.0081C22.6547 28.3027 23.5437 27.2145 24.1002 25.8605C23.2941 25.4607 22.4109 25.2211 21.4984 25.1607Z" fill="#00D280"/>
</g>
<defs>
<clipPath id="clip0_3_1176">
<rect width="42" height="42" fill="white" transform="translate(0 1)"/>
</clipPath>
</defs>
</svg>
