<svg width="42" height="42" viewBox="0 0 42 42" fill="none" xmlns="http://www.w3.org/2000/svg">
<g clip-path="url(#clip0_3_578)">
<mask id="mask0_3_578" style="mask-type:luminance" maskUnits="userSpaceOnUse" x="19" y="13" width="23" height="22">
<path d="M19.4243 13.1226H41.417V34.8325H19.4243V13.1226Z" fill="white"/>
</mask>
<g mask="url(#mask0_3_578)">
<path d="M25.017 27.6182L22.266 24.6989L19.5281 27.6042L24.1944 32.556L26.1921 34.6747L27.334 31.9332C30.2971 24.8228 34.9042 19.9313 41.4172 16.9778L39.8955 13.2C36.2893 14.8352 33.1217 17.0626 30.4811 19.822C28.3544 22.0436 26.5232 24.6579 25.017 27.6182Z" fill="#00D280"/>
</g>
<mask id="mask1_3_578" style="mask-type:luminance" maskUnits="userSpaceOnUse" x="12" y="20" width="27" height="21">
<path d="M12.3992 20.9248H38.9029V40.8333H12.3992V20.9248Z" fill="white"/>
</mask>
<g mask="url(#mask1_3_578)">
<path d="M38.2785 21.0913C37.9193 20.9971 37.5562 21.2298 37.4684 21.6114C35.7919 28.8309 31.6807 34.7693 25.248 39.2673C19.7278 35.4073 15.9048 30.4635 13.8741 24.5583C13.7736 24.6218 13.6558 24.6589 13.5292 24.6589H12.4863C14.6268 31.1624 18.7954 36.5607 24.8857 40.7115C24.996 40.7871 25.1214 40.8242 25.248 40.8242C25.3734 40.8242 25.4987 40.7871 25.6091 40.7115C29.368 38.1502 32.4272 35.074 34.7023 31.5692C36.5946 28.6534 37.9629 25.4176 38.7681 21.9505C38.8566 21.5696 38.6377 21.1853 38.2785 21.0913Z" fill="#00D280"/>
</g>
<path d="M22.4973 8.79239C23.8065 7.93573 24.712 6.84388 25.2478 6.06407C26.0249 7.19634 27.5778 8.98386 30.0164 9.75837C32.3752 10.5077 34.979 10.1314 37.7662 8.63868C37.8791 9.22502 38.0194 10.0857 38.1254 11.155C38.161 11.5194 38.4516 11.791 38.7896 11.791C38.8127 11.791 38.8364 11.7904 38.8595 11.7877C39.2282 11.7467 39.4951 11.3968 39.4564 11.0072C39.2381 8.79041 38.8801 7.43684 38.8651 7.38053C38.809 7.1705 38.6649 6.99957 38.474 6.91742C38.2839 6.83461 38.0693 6.84984 37.8903 6.95716C35.1424 8.61284 32.6277 9.09981 30.4162 8.40282C27.3402 7.43419 25.8577 4.45213 25.8433 4.42298C25.7287 4.1858 25.4985 4.0354 25.2478 4.0354C24.9958 4.0354 24.7657 4.1858 24.6509 4.42298C24.6391 4.44749 23.5339 6.69812 21.2119 7.92712C21.3092 8.21069 21.3934 8.49954 21.4683 8.79239H22.4973Z" fill="#00D280"/>
<mask id="mask2_3_578" style="mask-type:luminance" maskUnits="userSpaceOnUse" x="0" y="0" width="23" height="24">
<path d="M0.583252 0H22.6172V23.2993H0.583252V0Z" fill="white"/>
</mask>
<g mask="url(#mask2_3_578)">
<path d="M12.8597 23.2383V21.6065C12.8597 21.2713 13.0811 20.981 13.391 20.9115C14.4669 20.6703 15.481 20.2244 16.4047 19.5864C16.6704 19.4036 17.0196 19.4414 17.2435 19.6791L18.3319 20.8333L20.211 18.8384L19.1233 17.6843C18.9 17.4478 18.8632 17.0761 19.0354 16.7951C19.6373 15.814 20.0582 14.738 20.2845 13.5971C20.3507 13.2685 20.6239 13.0333 20.9401 13.0333H22.4781V10.2129H20.9401C20.6239 10.2129 20.3507 9.97769 20.2845 9.64973C20.2472 9.45959 20.2047 9.27276 20.1549 9.08724C20.1549 9.08327 20.1542 9.08062 20.1536 9.07797C19.911 8.14777 19.5361 7.26727 19.0354 6.45102C18.8632 6.16945 18.9 5.79842 19.1233 5.5619L20.211 4.4071L18.3319 2.41222L17.2429 3.56767C17.0196 3.80486 16.6697 3.84395 16.4047 3.65977C15.481 3.02174 14.4669 2.57587 13.3905 2.33471C13.0811 2.26514 12.859 1.97494 12.859 1.63903V0.00854492H10.201V1.63903C10.201 1.97494 9.98019 2.26514 9.67084 2.33471C8.59438 2.57587 7.58028 3.02174 6.65599 3.65977C6.39155 3.84395 6.04166 3.80486 5.81714 3.56767L4.72946 2.41288L2.85032 4.40777L3.93801 5.5619C4.16128 5.79842 4.19809 6.17011 4.02595 6.45102C3.42348 7.43223 3.00312 8.50819 2.7761 9.64973C2.71061 9.97769 2.43807 10.2129 2.12123 10.2129H0.583252V13.0333H2.12123C2.43807 13.0333 2.71061 13.2685 2.7761 13.5971C3.00312 14.738 3.42348 15.814 4.02595 16.7951C4.19809 17.0768 4.16128 17.4478 3.93801 17.6843L2.85032 18.8384L4.72946 20.8339L5.81714 19.6791C6.04166 19.4414 6.39155 19.4036 6.65599 19.5864C7.58028 20.2244 8.59438 20.6703 9.67084 20.9115C9.98019 20.981 10.201 21.2713 10.201 21.6072V23.239L12.8597 23.2383ZM5.13297 11.6234C5.13297 7.87414 7.99689 4.83576 11.5306 4.83576C14.0952 4.83576 16.3086 6.43711 17.3277 8.75002C17.516 9.17403 17.6633 9.62323 17.7643 10.0903C17.8716 10.5832 17.9283 11.0961 17.9283 11.6234C17.9283 15.372 15.0631 18.4111 11.5306 18.4111C7.99689 18.4104 5.13297 15.372 5.13297 11.6234Z" fill="#00D280"/>
</g>
</g>
<defs>
<clipPath id="clip0_3_578">
<rect width="42" height="42" fill="white"/>
</clipPath>
</defs>
</svg>
