<svg width="48" height="43" viewBox="0 0 48 43" fill="none" xmlns="http://www.w3.org/2000/svg">
<g clip-path="url(#clip0_31_1975)">
<g clip-path="url(#clip1_31_1975)">
<path fill-rule="evenodd" clip-rule="evenodd" d="M29.6797 15.2023H18.3338C18.0595 15.2023 17.8362 14.9789 17.8362 14.7046C17.8362 14.4294 18.0595 14.2061 18.3338 14.2061H29.6797C29.955 14.2061 30.1782 14.4294 30.1782 14.7046C30.1782 14.9789 29.955 15.2023 29.6797 15.2023ZM24.0067 9.63696C17.508 9.63696 12.2207 14.9243 12.2207 21.423C12.2207 27.9226 17.508 33.21 24.0067 33.21C30.5063 33.21 35.7937 27.9226 35.7937 21.423C35.7937 14.9243 30.5063 9.63696 24.0067 9.63696ZM27.9142 17.9904C28.1421 18.0396 28.3052 18.2429 28.3052 18.4763V24.3697C28.3052 24.645 28.0837 24.8683 27.8075 24.8683C27.5322 24.8683 27.3099 24.645 27.3099 24.3697V20.7449L25.5434 24.5785C25.4615 24.7544 25.2855 24.8683 25.0914 24.8683C24.8963 24.8683 24.7204 24.7553 24.6393 24.5785L22.872 20.7449V24.3697C22.872 24.645 22.6486 24.8683 22.3734 24.8683C22.099 24.8683 21.8757 24.645 21.8757 24.3697V18.4763C21.8757 18.242 22.038 18.0406 22.2668 17.9904C22.4955 17.9412 22.7279 18.056 22.8246 18.2685L25.0904 23.1821L27.3546 18.2685C27.4539 18.0552 27.6872 17.9394 27.9142 17.9904ZM20.1686 22.7464C20.1686 23.9159 19.2171 24.8683 18.0476 24.8683H17.1134C15.4281 24.8683 14.0573 23.4975 14.0573 21.8122V21.0356C14.0573 19.3503 15.4281 17.9795 17.1134 17.9795H18.0476C19.2171 17.9795 20.1686 18.9311 20.1686 20.1013C20.1686 20.3766 19.9462 20.599 19.6709 20.599C19.3956 20.599 19.1733 20.3766 19.1733 20.1013C19.1733 19.4807 18.6683 18.9748 18.0476 18.9748H17.1134C15.9768 18.9748 15.0526 19.8999 15.0526 21.0356V21.8113C15.0526 22.9479 15.9777 23.8712 17.1134 23.8712H18.0476C18.6683 23.8712 19.1733 23.3671 19.1733 22.7455C19.1733 22.4702 19.3956 22.2479 19.6709 22.2479C19.9453 22.2488 20.1686 22.4721 20.1686 22.7464ZM18.3338 27.6437H29.6797C29.955 27.6437 30.1782 27.8661 30.1782 28.1413C30.1782 28.4166 29.955 28.639 29.6797 28.639H18.3338C18.0595 28.639 17.8362 28.4166 17.8362 28.1413C17.8362 27.8661 18.0595 27.6437 18.3338 27.6437ZM30.016 19.9491C30.016 18.8627 30.9001 17.9786 31.9875 17.9786C32.7312 17.9786 33.403 18.3897 33.742 19.0523C33.8678 19.2975 33.7712 19.5964 33.526 19.7222C33.2808 19.8471 32.9819 19.7514 32.8561 19.5062C32.6884 19.1781 32.3547 18.9739 31.9875 18.9739C31.4488 18.9739 31.0122 19.4114 31.0122 19.9491C31.0122 20.4869 31.4497 20.9245 31.9875 20.9245C33.074 20.9245 33.9581 21.8086 33.9581 22.895C33.9581 23.9824 33.073 24.8665 31.9866 24.8665C31.1872 24.8665 30.4726 24.3907 30.1664 23.6524C30.0597 23.399 30.181 23.1074 30.4343 23.0016C30.6886 22.895 30.9803 23.0144 31.086 23.2696C31.2382 23.6351 31.591 23.8703 31.9875 23.8703C32.5261 23.8703 32.9618 23.4328 32.9618 22.8941C32.9618 22.3554 32.5243 21.9189 31.9875 21.9189C30.9001 21.9198 30.016 21.0365 30.016 19.9491Z" fill="#00D280"/>
<path fill-rule="evenodd" clip-rule="evenodd" d="M24.0068 8.64354C31.0551 8.64354 36.7891 14.3775 36.7891 21.4249C36.7891 28.4732 31.0551 34.2072 24.0068 34.2072C16.9594 34.2072 11.2254 28.4732 11.2254 21.4249C11.2254 14.3775 16.9594 8.64354 24.0068 8.64354ZM24.0068 7.55981C16.3624 7.55981 10.1426 13.7787 10.1426 21.424C10.1426 29.0702 16.3615 35.2891 24.0068 35.2891C31.6521 35.2891 37.8719 29.0702 37.8719 21.424C37.8719 13.7787 31.653 7.55981 24.0068 7.55981Z" fill="#00D280"/>
<mask id="mask0_31_1975" style="mask-type:luminance" maskUnits="userSpaceOnUse" x="3" y="0" width="42" height="43">
<path d="M3 0.419922H45V42.4199H3V0.419922Z" fill="white"/>
</mask>
<g mask="url(#mask0_31_1975)">
<path fill-rule="evenodd" clip-rule="evenodd" d="M24.0067 6.56268C32.2007 6.56268 38.8671 13.2291 38.8671 21.4231C38.8671 29.6171 32.2007 36.2835 24.0067 36.2835C15.8136 36.2835 9.14629 29.6171 9.14629 21.4231C9.14629 13.2291 15.8136 6.56268 24.0067 6.56268ZM7.91765 7.8132C7.56491 8.16593 7.81192 8.71098 7.99056 9.00361L9.98665 12.2757C10.0842 12.4361 10.0833 12.6375 9.98574 12.7961C9.06426 14.2901 8.39342 15.9087 7.98874 17.6105C7.9459 17.7919 7.80371 17.9349 7.62142 17.9796L3.89902 18.8828C3.56543 18.964 3.00488 19.1737 3.00488 19.6731V23.1777C3.00488 23.6771 3.56452 23.8867 3.89902 23.9679L7.62142 24.8711C7.8028 24.9149 7.94499 25.0571 7.98874 25.2403C8.39342 26.9438 9.06517 28.5634 9.98574 30.0555C10.0842 30.215 10.0842 30.4165 9.98665 30.576L7.99147 33.8472C7.81282 34.1407 7.56582 34.6858 7.91855 35.0376L10.3959 37.5149C10.7486 37.8667 11.2937 37.6206 11.5863 37.442L14.8584 35.4459C14.9395 35.3957 15.0288 35.3711 15.1181 35.3711C15.2084 35.3711 15.2986 35.3957 15.3789 35.445C16.8727 36.3655 18.4915 37.0373 20.1932 37.441C20.3745 37.4839 20.5176 37.6252 20.5623 37.8084L21.4656 41.5308C21.5466 41.8644 21.7563 42.424 22.2558 42.424H25.7603C26.2598 42.424 26.4695 41.8652 26.5506 41.5308L27.4539 37.8084C27.4976 37.6261 27.6407 37.4848 27.823 37.441C29.5256 37.0363 31.1452 36.3655 32.6382 35.444C32.7977 35.3456 32.9991 35.3456 33.1586 35.4431L36.4299 37.4374C36.7233 37.6169 37.2684 37.864 37.6202 37.5103L40.0976 35.0339C40.4503 34.6802 40.2033 34.1362 40.0246 33.8435L38.0285 30.5714C37.931 30.411 37.9319 30.2096 38.0295 30.051C38.9501 28.5562 39.6218 26.9365 40.0256 25.2366C40.0684 25.0543 40.2097 24.9113 40.3929 24.8666L44.1153 23.9633C44.4489 23.8831 45.0094 23.6735 45.0094 23.1731V19.6694C45.0094 19.17 44.4489 18.9595 44.1153 18.8792L40.3929 17.976C40.2115 17.9322 40.0693 17.7891 40.0256 17.6068C39.6209 15.9042 38.9501 14.2845 38.0285 12.7907C37.9302 12.6311 37.9302 12.4306 38.0277 12.2711L40.0229 8.99899C40.2015 8.70551 40.4485 8.16138 40.0958 7.80955L37.6194 5.33586C37.2666 4.98312 36.7216 5.23012 36.429 5.40878L33.1569 7.40487C32.9964 7.50239 32.795 7.50239 32.6364 7.40395C31.1425 6.48338 29.5238 5.81164 27.822 5.40695C27.6407 5.36411 27.4976 5.22193 27.4529 5.03963L26.5497 1.31724C26.4685 0.983643 26.2589 0.423096 25.7594 0.423096H22.2558C21.7563 0.423096 21.5466 0.982731 21.4656 1.31724L20.5623 5.03963C20.5186 5.22101 20.3754 5.3632 20.1932 5.40695C18.4915 5.81072 16.8727 6.48247 15.3789 7.40395C15.2193 7.50239 15.0179 7.50239 14.8584 7.40487L11.5853 5.40878C11.291 5.23012 10.7468 4.98312 10.395 5.33586L7.91765 7.8132Z" fill="#00D280"/>
</g>
</g>
</g>
<defs>
<clipPath id="clip0_31_1975">
<rect width="48" height="42" fill="white" transform="translate(0 0.419922)"/>
</clipPath>
<clipPath id="clip1_31_1975">
<rect width="42" height="42" fill="white" transform="translate(3 0.419922)"/>
</clipPath>
</defs>
</svg>
