<svg width="31" height="33" viewBox="0 0 31 33" fill="none" xmlns="http://www.w3.org/2000/svg">
<g clip-path="url(#clip0_31_2066)">
<g clip-path="url(#clip1_31_2066)">
<mask id="mask0_31_2066" style="mask-type:luminance" maskUnits="userSpaceOnUse" x="0" y="1" width="29" height="32">
<path d="M0.980469 1.55371H28.6459V32.0443H0.980469V1.55371Z" fill="white"/>
</mask>
<g mask="url(#mask0_31_2066)">
<path d="M20.5567 25.3179C19.9744 25.3179 19.4064 25.1963 18.8684 24.9561C18.5498 24.8131 18.2506 24.6329 17.9725 24.4161C17.0018 24.9098 15.9213 25.1853 14.7816 25.1853C10.5701 25.1853 7.15545 21.4182 7.15545 16.7714C7.15545 12.1253 10.5701 8.35816 14.7816 8.35816C18.7069 8.35816 21.9383 11.6282 22.361 15.8337C22.871 16.0809 23.3311 16.4275 23.7295 16.8667C24.338 17.5385 24.757 18.3829 24.9403 19.3067C25.0861 20.0421 25.0774 20.8016 24.9191 21.5279L25.295 21.9422L27.979 21.9919C28.3001 20.6718 28.2564 20.8506 28.5769 19.5311L25.9484 17.9196C25.9484 16.8895 25.9484 16.654 25.9484 15.6238L28.5769 14.0123C28.2564 12.6922 28.3001 12.8717 27.979 11.5515L24.9727 11.6068C24.5057 10.7147 24.3985 10.5103 23.9315 9.61757L25.4783 6.77357C24.6023 5.80762 24.7214 5.93812 23.8455 4.97216L21.2662 6.67828C20.4582 6.1632 20.273 6.04513 19.4638 5.53005L19.5137 2.21309C18.3166 1.85889 18.4794 1.90722 17.2829 1.55371L15.8228 4.45363C14.8889 4.45363 14.675 4.45363 13.7411 4.45363L12.2809 1.55371C11.0845 1.90722 11.2466 1.85889 10.0502 2.21309L10.1 5.53005C9.29142 6.04513 9.10625 6.1632 8.297 6.67828L5.71838 4.97216C4.84242 5.93812 4.96088 5.80762 4.08554 6.77357L5.63172 9.61825C5.16475 10.5103 5.05814 10.7147 4.59117 11.6075L1.58422 11.5522C1.26314 12.8724 1.30741 12.6935 0.986328 14.0137L3.61545 15.6245C3.61545 16.6547 3.61545 16.8908 3.61545 17.921L0.986328 19.5318C1.30741 20.852 1.26314 20.6725 1.58422 21.9926L4.59117 21.9381C5.05814 22.8295 5.16475 23.0338 5.63172 23.9266L4.08554 26.772C4.96088 27.7379 4.84242 27.6067 5.71838 28.5734L8.297 26.8666C9.10563 27.3816 9.2908 27.4997 10.1 28.0148L10.0502 31.3324C11.2466 31.686 11.0845 31.6376 12.2809 31.9918L13.7411 29.0919C14.675 29.0919 14.8889 29.0919 15.8228 29.0919L17.2829 31.9918C18.4794 31.6376 18.3166 31.686 19.5137 31.3324L19.4638 28.0148C20.2724 27.4997 20.457 27.3816 21.2662 26.8666L23.8455 28.5734C24.0194 28.3807 24.1541 28.233 24.2651 28.1101L21.6097 25.1812C21.2656 25.2723 20.9133 25.3179 20.5567 25.3179Z" fill="#00D280"/>
</g>
<path d="M30.5005 28.7787L24.13 21.7512C24.5963 20.2833 24.2977 18.5862 23.2347 17.4138C22.105 16.1675 20.441 15.874 19.0581 16.5307L21.4809 19.2034L19.502 21.386L17.0799 18.7139C16.4845 20.2384 16.7513 22.075 17.8798 23.3206C18.9434 24.4937 20.4815 24.8231 21.8113 24.3087L28.1818 31.3368C28.8221 32.0432 29.8602 32.0432 30.5005 31.3368C31.1408 30.6305 31.1408 29.485 30.5005 28.7787Z" fill="#00D280"/>
<path d="M10.0335 20.1661V15.0898H11.0803V13.6309H10.0335V12.2217H9.26162V13.6309H8.21484V15.0898H9.26162V20.1661H10.0335Z" fill="#00D280"/>
<path d="M12.6624 20.1661V18.9688H13.7092V17.5099H12.6624V12.2217H11.8912V17.5099H10.8438V18.9688H11.8912V20.1661H12.6624Z" fill="#00D280"/>
<path d="M15.303 20.1661V16.0627H16.3492V14.6031H15.303V12.2217H14.5318V14.6031H13.4844V16.0627H14.5318V20.1661H15.303Z" fill="#00D280"/>
</g>
</g>
<defs>
<clipPath id="clip0_31_2066">
<rect width="30" height="32" fill="white" transform="translate(0.980469 0.799805)"/>
</clipPath>
<clipPath id="clip1_31_2066">
<rect width="30" height="32" fill="white" transform="translate(0.980469 0.799805)"/>
</clipPath>
</defs>
</svg>
