<svg width="48" height="43" viewBox="0 0 48 43" fill="none" xmlns="http://www.w3.org/2000/svg">
<g clip-path="url(#clip0_31_1881)">
<g clip-path="url(#clip1_31_1881)">
<g clip-path="url(#clip2_31_1881)">
<mask id="mask0_31_1881" style="mask-type:luminance" maskUnits="userSpaceOnUse" x="0" y="0" width="48" height="43">
<path d="M0.841797 0.419922H47.1595V42.4199H0.841797V0.419922Z" fill="white"/>
</mask>
<g mask="url(#mask0_31_1881)">
<path d="M44.4815 28.627H3.51907V3.04549H44.4815V28.627ZM28.5036 32.8425H19.4981C19.0166 32.8425 18.6262 32.4531 18.6262 31.9716C18.6262 31.4891 19.0166 31.0987 19.4981 31.0987H28.5036C28.985 31.0987 29.3756 31.4891 29.3756 31.9716C29.3756 32.4531 28.985 32.8425 28.5036 32.8425ZM45.6018 0.429688H2.39875C1.57486 0.429688 0.904297 1.10127 0.904297 1.92618V33.8177C0.904297 34.6426 1.57486 35.3142 2.39875 35.3142H22.5473V39.3304H20.1134C20.0459 39.3304 19.9805 39.3508 19.9253 39.3907L16.4325 41.8358C16.1697 42.0208 16.2996 42.4358 16.6226 42.4358H31.378C31.702 42.4358 31.8319 42.0208 31.5681 41.8358L28.0763 39.3907C28.0211 39.3508 27.9547 39.3304 27.8872 39.3304H25.4533V35.3142H45.6018C46.4258 35.3142 47.0974 34.6426 47.0974 33.8177V1.92618C47.0974 1.10127 46.4258 0.429688 45.6018 0.429688Z" fill="#00D280"/>
</g>
<path d="M13.3485 9.70042C15.1947 9.70042 16.6963 11.204 16.6963 13.0501C16.6963 14.8983 15.1947 16.4009 13.3485 16.4009C11.5035 16.4009 10.0019 14.8983 10.0019 13.0501C10.0019 11.204 11.5035 9.70042 13.3485 9.70042ZM8.48292 15.9041L7.43108 17.28L9.12284 18.9728L10.4977 17.9209C10.9393 18.1816 11.4176 18.3829 11.9257 18.5158L12.1536 20.229H14.5445L14.7725 18.5158C15.2805 18.3829 15.7589 18.1816 16.2005 17.9209L17.5753 18.9728L19.2671 17.28L18.2152 15.9041C18.4769 15.4625 18.6773 14.9841 18.8112 14.4761L20.5224 14.2471V11.8542L18.8112 11.6262C18.6773 11.1182 18.4769 10.6398 18.2152 10.1962L19.2671 8.82229L17.5753 7.12957L16.2005 8.18141C15.7589 7.92075 15.2805 7.71938 14.7725 7.58547L14.5445 5.87329H12.1536L11.9257 7.58547C11.4176 7.71938 10.9393 7.92075 10.4977 8.18141L9.12284 7.12957L7.43108 8.82229L8.48292 10.1962C8.22125 10.6398 8.02089 11.1182 7.88698 11.6262L6.1748 11.8542V14.2471L7.88698 14.4761C8.02089 14.9841 8.22125 15.4625 8.48292 15.9041Z" fill="#00D280"/>
<path d="M37.0088 17.7741L40.0018 20.7691L37.6978 23.0742L38.1383 24.4583L41.8254 20.7691L37.9206 16.8623L37.0088 17.7741Z" fill="#00D280"/>
<path d="M33.0114 18.4639L32.5718 17.0789L28.8848 20.769L32.7875 24.6758L33.6993 23.762L30.7083 20.769L33.0114 18.4639Z" fill="#00D280"/>
<path d="M33.1924 15.7576L36.4797 26.1104L37.5183 25.7802L34.2299 15.4285L33.1924 15.7576Z" fill="#00D280"/>
<path d="M41.8251 5.25977H22.4238V6.80022H41.8251V5.25977Z" fill="#00D280"/>
<path d="M25.5761 21.8989H6.1748V23.4404H25.5761V21.8989Z" fill="#00D280"/>
<path d="M14.1816 26.2131H25.5761V24.6716H14.1816V26.2131Z" fill="#00D280"/>
<path d="M27.0439 9.87915H41.8259V8.33765H27.0439V9.87915Z" fill="#00D280"/>
<path d="M29.1992 12.9623H41.8254V11.4219H29.1992V12.9623Z" fill="#00D280"/>
</g>
</g>
</g>
<defs>
<clipPath id="clip0_31_1881">
<rect width="48" height="42" fill="white" transform="translate(0 0.419922)"/>
</clipPath>
<clipPath id="clip1_31_1881">
<rect width="48" height="42" fill="white" transform="translate(0 0.419922)"/>
</clipPath>
<clipPath id="clip2_31_1881">
<rect width="47.04" height="42" fill="white" transform="translate(0.480469 0.419922)"/>
</clipPath>
</defs>
</svg>
