<svg width="31" height="25" viewBox="0 0 31 25" fill="none" xmlns="http://www.w3.org/2000/svg">
<g clip-path="url(#clip0_31_2099)">
<g clip-path="url(#clip1_31_2099)">
<g clip-path="url(#clip2_31_2099)">
<path d="M4.52718 11.0405H18.3695C18.5984 11.0405 18.7838 10.8497 18.7838 10.6139C18.7838 10.3783 18.5984 10.1875 18.3695 10.1875H4.52718C4.29864 10.1875 4.11328 10.3783 4.11328 10.6139C4.11328 10.8497 4.29864 11.0405 4.52718 11.0405Z" fill="#00D280"/>
<path d="M4.52718 6.35637H18.3695C18.5984 6.35637 18.7838 6.16562 18.7838 5.93008C18.7838 5.69417 18.5984 5.50342 18.3695 5.50342H4.52718C4.29864 5.50342 4.11328 5.69417 4.11328 5.93008C4.11328 6.16562 4.29864 6.35637 4.52718 6.35637Z" fill="#00D280"/>
<mask id="mask0_31_2099" style="mask-type:luminance" maskUnits="userSpaceOnUse" x="1" y="0" width="30" height="25">
<path d="M1.10156 0.137207H30.2192V24.6225H1.10156V0.137207Z" fill="white"/>
</mask>
<g mask="url(#mask0_31_2099)">
<path d="M27.3759 7.11129L18.866 15.8839C18.8014 15.9511 18.7164 15.9844 18.6315 15.9844C18.5465 15.9844 18.4613 15.9511 18.3967 15.8844C18.2672 15.7507 18.2668 15.5339 18.3967 15.4006L26.9062 6.62755C27.0357 6.49388 27.246 6.49424 27.3755 6.62719C27.5054 6.76086 27.5054 6.97762 27.3759 7.11129ZM18.0997 17.8539C18.6266 18.393 19.031 19.2177 19.2343 19.686L16.5227 20.5566C16.4174 20.3951 16.2654 20.1895 16.0527 19.9684C15.8522 19.7622 15.6732 19.6282 15.5299 19.5389L16.3788 16.7365C16.8162 16.9309 17.5801 17.3185 18.0997 17.8539ZM20.8372 23.6415H2.06677V1.1287H20.8372V10.9111L16.9869 14.8767H4.5301C4.30157 14.8767 4.11621 15.0675 4.11621 15.3031C4.11621 15.5389 4.30157 15.7297 4.5301 15.7297H16.1583L15.9035 15.9924C15.9 15.996 15.8975 16.0003 15.894 16.0039C15.8863 16.0129 15.8792 16.0224 15.8726 16.0317C15.8652 16.0415 15.8582 16.0512 15.8522 16.0617C15.8459 16.0714 15.841 16.0819 15.8361 16.0928C15.8308 16.104 15.8259 16.1152 15.8221 16.1267C15.8199 16.1318 15.8175 16.1364 15.8157 16.1416L14.7794 19.5613H4.5301C4.30157 19.5613 4.11621 19.7524 4.11621 19.988C4.11621 20.2235 4.30157 20.4146 4.5301 20.4146H14.521L14.2026 21.4666C14.163 21.5967 14.197 21.738 14.29 21.8341C14.3578 21.9038 14.4483 21.941 14.5411 21.941C14.5765 21.941 14.6119 21.9359 14.647 21.9243L19.8174 20.2647C19.8216 20.2629 19.8254 20.2607 19.83 20.2592C19.8419 20.2546 19.8535 20.2492 19.8654 20.2434C19.8756 20.2383 19.8851 20.2333 19.8946 20.2278C19.9048 20.2213 19.9146 20.2141 19.924 20.2066C19.9339 20.199 19.9434 20.1914 19.9522 20.183C19.9557 20.1798 19.9592 20.1776 19.9627 20.1744L20.8372 19.2734V23.6415ZM30.1748 9.35115C30.152 9.28833 29.6086 7.80348 28.7319 6.8985C27.8529 5.99388 26.4582 5.49317 26.3993 5.47222C26.2714 5.4267 26.1289 5.46065 26.0331 5.55964L21.7959 9.9238V0.634479C21.7959 0.362082 21.581 0.140625 21.316 0.140625H1.58758C1.32289 0.140625 1.1084 0.362082 1.1084 0.634479V24.1357C1.1084 24.4084 1.32289 24.6295 1.58758 24.6295H21.316C21.581 24.6295 21.7959 24.4084 21.7959 24.1357V18.2857L30.093 9.73735C30.1913 9.63615 30.2229 9.48518 30.1748 9.35115Z" fill="#00D280"/>
</g>
</g>
</g>
</g>
<defs>
<clipPath id="clip0_31_2099">
<rect width="30" height="24.7" fill="white" transform="translate(0.660156 0.0297852)"/>
</clipPath>
<clipPath id="clip1_31_2099">
<rect width="30" height="24.7" fill="white" transform="translate(0.660156 0.0297852)"/>
</clipPath>
<clipPath id="clip2_31_2099">
<rect width="30" height="24.7059" fill="white" transform="translate(0.660156 0.0268555)"/>
</clipPath>
</defs>
</svg>
