<svg width="48" height="43" viewBox="0 0 48 43" fill="none" xmlns="http://www.w3.org/2000/svg">
<g clip-path="url(#clip0_31_1902)">
<g clip-path="url(#clip1_31_1902)">
<mask id="mask0_31_1902" style="mask-type:luminance" maskUnits="userSpaceOnUse" x="3" y="0" width="42" height="43">
<path d="M3 0.419922H45V42.4199H3V0.419922Z" fill="white"/>
</mask>
<g mask="url(#mask0_31_1902)">
<path fill-rule="evenodd" clip-rule="evenodd" d="M31.35 24.1498H38.0702C38.4183 24.1498 38.7 24.4323 38.7 24.7796V27.2998C38.7 27.6479 38.4183 27.9296 38.0702 27.9296H31.35C31.0018 27.9296 30.7202 27.6479 30.7202 27.2998V24.7796C30.7202 24.4323 31.0018 24.1498 31.35 24.1498ZM36.363 26.8139C36.2554 26.926 36.2554 27.0882 36.363 27.2004C36.4168 27.2569 36.4833 27.2897 36.5526 27.2897C36.6228 27.2897 36.6975 27.2551 36.7504 27.2004L37.7831 26.1212C37.8368 26.0656 37.8597 26.0055 37.8597 25.928C37.8597 25.8505 37.8368 25.7894 37.7831 25.7347L36.7504 24.6556C36.641 24.5417 36.4724 24.5417 36.363 24.6556C36.2554 24.7677 36.2554 24.9299 36.363 25.0421L36.9399 25.6445H34.7661C34.6131 25.6445 34.5 25.7703 34.5 25.928C34.5 26.0848 34.6131 26.2024 34.7661 26.2024H36.9418L36.363 26.8139ZM10 0.419922H38C41.8664 0.419922 45 3.55352 45 7.41992V35.4199C45 39.2854 41.8664 42.4199 38 42.4199H10C6.13359 42.4199 3 39.2854 3 35.4199V7.41992C3 3.55352 6.13359 0.419922 10 0.419922ZM31.875 4.04753C31.0054 4.04753 30.3 4.75209 30.3 5.62253C30.3 6.49205 31.0054 7.19753 31.875 7.19753C32.7446 7.19753 33.45 6.49205 33.45 5.62253C33.45 4.75209 32.7446 4.04753 31.875 4.04753ZM37.0083 4.04753C36.1388 4.04753 35.4333 4.75209 35.4333 5.62253C35.4333 6.49205 36.1388 7.19753 37.0083 7.19753C37.8779 7.19753 38.5833 6.49205 38.5833 5.62253C38.5833 4.75209 37.8779 4.04753 37.0083 4.04753ZM6.35964 36.0998C6.35964 37.488 7.48529 38.6137 8.87344 38.6137H39.0336C40.4217 38.6137 41.5465 37.488 41.5465 36.0998V9.86992H6.35964V36.0998ZM18.9296 13.6498H22.044L27.7798 19.577L23.9763 23.3722L22.4432 21.7709V29.1053H12.3269V21.7709L10.7939 23.3722L6.99036 19.577L12.7262 13.6498H15.8407V13.8093C15.8407 14.6596 16.5333 14.7125 17.3847 14.7125C18.2368 14.7125 18.9296 14.6596 18.9296 13.8093V13.6498ZM30.9298 14.2796H37.8597C38.2078 14.2796 38.4903 14.5621 38.4903 14.9103C38.4903 15.2575 38.2078 15.5401 37.8597 15.5401H30.9298C30.5826 15.5401 30.3 15.2575 30.3 14.9103C30.3 14.5621 30.5826 14.2796 30.9298 14.2796ZM30.9298 16.3796H37.8597C38.2078 16.3796 38.4903 16.6621 38.4903 17.0103C38.4903 17.3575 38.2078 17.6401 37.8597 17.6401H30.9298C30.5826 17.6401 30.3 17.3575 30.3 17.0103C30.3 16.6621 30.5826 16.3796 30.9298 16.3796ZM30.9298 18.4796H37.8597C38.2078 18.4796 38.4903 18.7621 38.4903 19.1103C38.4903 19.4575 38.2078 19.7401 37.8597 19.7401H30.9298C30.5826 19.7401 30.3 19.4575 30.3 19.1103C30.3 18.7621 30.5826 18.4796 30.9298 18.4796ZM30.9298 20.5796H34.9202C35.2683 20.5796 35.55 20.8621 35.55 21.2103C35.55 21.5575 35.2683 21.8401 34.9202 21.8401H30.9298C30.5826 21.8401 30.3 21.5575 30.3 21.2103C30.3 20.8621 30.5826 20.5796 30.9298 20.5796ZM10.9798 32.3401H17.9097C18.2578 32.3401 18.5403 32.6217 18.5403 32.9699C18.5403 33.3181 18.2578 33.5998 17.9097 33.5998H10.9798C10.6326 33.5998 10.35 33.3181 10.35 32.9699C10.35 32.6217 10.6326 32.3401 10.9798 32.3401ZM10.9798 34.4401H17.9097C18.2578 34.4401 18.5403 34.7217 18.5403 35.0699C18.5403 35.4181 18.2578 35.6998 17.9097 35.6998H10.9798C10.6326 35.6998 10.35 35.4181 10.35 35.0699C10.35 34.7217 10.6326 34.4401 10.9798 34.4401ZM21.4798 32.3401H28.4097C28.7578 32.3401 29.0403 32.6217 29.0403 32.9699C29.0403 33.3181 28.7578 33.5998 28.4097 33.5998H21.4798C21.1326 33.5998 20.85 33.3181 20.85 32.9699C20.85 32.6217 21.1326 32.3401 21.4798 32.3401ZM21.4798 34.4401H28.4097C28.7578 34.4401 29.0403 34.7217 29.0403 35.0699C29.0403 35.4181 28.7578 35.6998 28.4097 35.6998H21.4798C21.1326 35.6998 20.85 35.4181 20.85 35.0699C20.85 34.7217 21.1326 34.4401 21.4798 34.4401ZM31.5597 32.3401H38.4903C38.8376 32.3401 39.1202 32.6217 39.1202 32.9699C39.1202 33.3181 38.8376 33.5998 38.4903 33.5998H31.5597C31.2124 33.5998 30.9298 33.3181 30.9298 32.9699C30.9298 32.6217 31.2124 32.3401 31.5597 32.3401ZM31.5597 34.4401H38.4903C38.8376 34.4401 39.1202 34.7217 39.1202 35.0699C39.1202 35.4181 38.8376 35.6998 38.4903 35.6998H31.5597C31.2124 35.6998 30.9298 35.4181 30.9298 35.0699C30.9298 34.7217 31.2124 34.4401 31.5597 34.4401Z" fill="#00D280"/>
</g>
</g>
</g>
<defs>
<clipPath id="clip0_31_1902">
<rect width="48" height="42" fill="white" transform="translate(0 0.419922)"/>
</clipPath>
<clipPath id="clip1_31_1902">
<rect width="42" height="42" fill="white" transform="translate(3 0.419922)"/>
</clipPath>
</defs>
</svg>
