<svg width="31" height="27" viewBox="0 0 31 27" fill="none" xmlns="http://www.w3.org/2000/svg">
<g clip-path="url(#clip0_31_2057)">
<g clip-path="url(#clip1_31_2057)">
<g clip-path="url(#clip2_31_2057)">
<path fill-rule="evenodd" clip-rule="evenodd" d="M11.5638 2.83989C11.5221 2.83989 11.4803 2.8638 11.4379 2.88772C11.3335 2.93555 11.2494 3.00731 11.1659 3.07974C11.1026 3.1754 11.04 3.27175 10.9982 3.39132C10.9773 3.43917 10.9564 3.48768 10.9564 3.53551C10.9355 3.58334 10.9355 3.60726 10.9355 3.65509V4.59124H20.3644V3.65509C20.3644 3.60726 20.3644 3.58334 20.3436 3.53551C20.3436 3.48768 20.3227 3.43917 20.3013 3.39132C20.2594 3.29566 20.1968 3.1754 20.1127 3.10365C20.0291 3.00731 19.945 2.93555 19.8406 2.88772C19.7988 2.8638 19.7565 2.83989 19.7147 2.83989C19.6729 2.81529 19.652 2.81529 19.6102 2.81529H11.6688C11.6265 2.81529 11.6057 2.81529 11.5638 2.83989ZM9.34297 3.65509C9.34297 3.46376 9.36386 3.29566 9.40562 3.12757C9.42651 2.95947 9.48976 2.79137 9.55241 2.62396C9.65684 2.31168 9.84599 2.04792 10.0554 1.80808C10.2648 1.56754 10.4952 1.35161 10.7679 1.23203C10.9141 1.1596 11.0609 1.08785 11.2076 1.06394C11.3544 1.0161 11.5012 0.992188 11.6688 0.992188H19.6102C19.7774 0.992188 19.9241 1.0161 20.0709 1.06394C20.2177 1.08785 20.3644 1.1596 20.5112 1.23203C20.7833 1.35161 21.0137 1.56754 21.2237 1.80808C21.454 2.024 21.6217 2.31168 21.7471 2.62396C21.8103 2.76746 21.8729 2.93555 21.8938 3.10365C21.9356 3.29566 21.9571 3.46376 21.9571 3.65509V4.59124H27.7402C28.955 4.59124 30.1914 5.98317 30.1914 7.37441V9.8945L17.4729 14.6695C17.3888 14.6217 17.3053 14.5971 17.242 14.5732C17.1585 14.5493 17.0535 14.5493 16.9699 14.5493H14.3296C14.246 14.5493 14.1409 14.5493 14.0574 14.5732C13.9942 14.5971 13.9107 14.6217 13.848 14.6456L1.12891 9.8945V7.37441C1.12891 5.98317 2.34437 4.59124 3.55983 4.59124H9.34297V3.65509ZM14.3087 15.7731H16.9908C17.0117 15.7731 17.0326 15.7731 17.0535 15.7731C17.0749 15.797 17.1167 15.821 17.1376 15.8694C17.1794 15.8933 17.2002 15.9412 17.2211 15.9651C17.2211 15.989 17.2211 15.989 17.2211 16.013L17.242 16.0369V17.0687L17.2211 17.0926C17.2211 17.1172 17.2211 17.1411 17.2211 17.1411C17.2002 17.189 17.1794 17.2368 17.1376 17.2607C17.1167 17.3092 17.0749 17.3331 17.0326 17.357C17.0326 17.357 17.0117 17.357 16.9908 17.357L16.9699 17.381H14.3296L14.3087 17.357C14.2878 17.357 14.2668 17.357 14.2668 17.357C14.2251 17.3331 14.1833 17.3092 14.1618 17.2607C14.1201 17.2368 14.0992 17.189 14.0783 17.1411C14.0783 17.1411 14.0783 17.1172 14.0783 17.0926V16.013C14.0783 15.989 14.0783 15.989 14.0783 15.9651C14.0992 15.9412 14.1201 15.8933 14.1618 15.8694C14.1833 15.821 14.2251 15.797 14.246 15.7731C14.2668 15.7731 14.2878 15.7731 14.3087 15.7731ZM18.2689 15.7252C18.2689 15.7013 18.248 15.6774 18.248 15.6529L30.1914 11.1662V23.7878C30.1914 25.1797 28.955 26.5949 27.7402 26.5949H3.55983C2.34437 26.5949 1.12891 25.1797 1.12891 23.7878V11.1662L13.0514 15.6529C13.0514 15.6774 13.0306 15.7013 13.0306 15.7252C13.0097 15.821 13.0097 15.9412 13.0097 16.0369V17.0687C13.0097 17.165 13.0097 17.2846 13.0306 17.381C13.0514 17.4767 13.0723 17.573 13.1147 17.6687C13.1773 17.8368 13.2824 17.981 13.4076 18.1244C13.5335 18.2686 13.6594 18.3889 13.8056 18.4606C13.8898 18.5085 13.9733 18.5324 14.0574 18.557C14.1409 18.5809 14.246 18.6048 14.3296 18.6048H16.9699C17.0535 18.6048 17.1585 18.5809 17.242 18.557C17.3261 18.5324 17.4096 18.5085 17.4938 18.4606C17.6405 18.3889 17.7659 18.2686 17.8918 18.1244C18.0177 17.981 18.1221 17.8368 18.1854 17.6687C18.2271 17.573 18.248 17.4767 18.2689 17.381C18.2897 17.2846 18.3107 17.165 18.3107 17.0687V16.0369C18.3107 15.9412 18.2897 15.821 18.2689 15.7252Z" fill="#00D280"/>
</g>
</g>
</g>
<defs>
<clipPath id="clip0_31_2057">
<rect width="30" height="26.25" fill="white" transform="translate(0.660156 0.669922)"/>
</clipPath>
<clipPath id="clip1_31_2057">
<rect width="30" height="26.25" fill="white" transform="translate(0.660156 0.669922)"/>
</clipPath>
<clipPath id="clip2_31_2057">
<rect width="30" height="26.25" fill="white" transform="translate(0.660156 0.669922)"/>
</clipPath>
</defs>
</svg>
