<svg width="48" height="43" viewBox="0 0 48 43" fill="none" xmlns="http://www.w3.org/2000/svg">
<g clip-path="url(#clip0_31_1913)">
<mask id="mask0_31_1913" style="mask-type:luminance" maskUnits="userSpaceOnUse" x="0" y="4" width="41" height="33">
<path d="M0.339844 4.2771H40.2706V36.4944H0.339844V4.2771Z" fill="white"/>
</mask>
<g mask="url(#mask0_31_1913)">
<path d="M34.7145 30.7777L32.6061 28.6661H3.0889C2.73505 28.6661 2.44821 28.3776 2.44821 28.0229V7.07566C2.44821 6.72182 2.73505 6.43334 3.0889 6.43334H37.3156C37.6679 6.43334 37.9564 6.72182 37.9564 7.07566V23.6493L40.0647 25.7617V7.07566C40.0647 5.55649 38.8315 4.32007 37.3156 4.32007H3.0889C1.573 4.32007 0.339844 5.55649 0.339844 7.07566V28.0229C0.339844 29.5429 1.573 30.7777 3.0889 30.7777H15.6974V32.7954H14.5958C12.6109 32.7954 11.001 34.4069 11.001 36.3968H29.4027C29.4027 34.4069 27.7937 32.7954 25.8086 32.7954H24.707V30.7777H34.7145Z" fill="#00D280"/>
</g>
<path d="M6.53819 9.35016C6.53819 8.76913 6.06749 8.29761 5.48646 8.29761C4.90625 8.29761 4.43555 8.76913 4.43555 9.35016C4.43555 9.93201 4.90625 10.4035 5.48646 10.4035C6.06749 10.4035 6.53819 9.93201 6.53819 9.35016Z" fill="#00D280"/>
<path d="M10.3558 9.35016C10.3558 8.76913 9.88502 8.29761 9.30483 8.29761C8.72458 8.29761 8.25391 8.76913 8.25391 9.35016C8.25391 9.93201 8.72458 10.4035 9.30483 10.4035C9.88502 10.4035 10.3558 9.93201 10.3558 9.35016Z" fill="#00D280"/>
<path d="M13.123 10.4035C13.7033 10.4035 14.174 9.93201 14.174 9.35016C14.174 8.76913 13.7033 8.29761 13.123 8.29761C12.542 8.29761 12.0713 8.76913 12.0713 9.35016C12.0713 9.93201 12.542 10.4035 13.123 10.4035Z" fill="#00D280"/>
<path d="M32.7984 10.1862L33.9564 8.80591C33.3802 8.4823 32.7159 8.29761 32.0074 8.29761C30.4555 8.29761 29.1079 9.18753 28.4443 10.4852L30.1957 10.956C30.6075 10.4011 31.2662 10.0423 32.0074 10.0423C32.2861 10.0423 32.5516 10.0938 32.7984 10.1862Z" fill="#00D280"/>
<path d="M36.0075 12.3055C36.0075 11.3526 35.6733 10.4749 35.1152 9.78687L33.958 11.1663C34.1541 11.5006 34.2661 11.8895 34.2661 12.3055C34.2661 12.3986 34.2612 12.4902 34.2498 12.5801L35.8147 13.5345C35.9405 13.1463 36.0075 12.7353 36.0075 12.3055Z" fill="#00D280"/>
<path d="M30.8384 16.1407L31.1187 14.3887C30.3432 14.0552 29.79 13.2993 29.7507 12.411L28.0232 11.9485C28.0134 12.067 28.0068 12.1863 28.0068 12.3073C28.0068 14.1108 29.2007 15.6389 30.8384 16.1407Z" fill="#00D280"/>
<path d="M35.0817 14.8675L33.5658 13.9441C33.1751 14.3167 32.6513 14.552 32.0728 14.5692L31.7949 16.3099C31.8652 16.3123 31.9355 16.3147 32.0074 16.3147C33.2422 16.3147 34.347 15.7517 35.0817 14.8675Z" fill="#00D280"/>
<path d="M7.60352 26.7875H9.19293V16.5022H7.60352V26.7875Z" fill="#00D280"/>
<path d="M10.7705 26.7868H12.3592V13.9307H10.7705V26.7868Z" fill="#00D280"/>
<path d="M15.5279 20.3433H13.9385V26.7885H15.5279V20.3433Z" fill="#00D280"/>
<path d="M4.43555 26.7888H6.025V19.8745H4.43555V26.7888Z" fill="#00D280"/>
<path d="M28.5997 18.4172H18.5244V20.3573H26.1105C26.4659 19.8089 27.083 19.4518 27.7628 19.4518C28.2867 19.4518 28.5384 19.0015 28.5997 18.4172Z" fill="#00D280"/>
<path d="M18.5244 21.9636V22.6852H25.737C25.715 22.4466 25.7092 22.2063 25.7198 21.9636H18.5244Z" fill="#00D280"/>
<path d="M18.5244 24.7372H26.3278C26.2077 24.5034 26.1055 24.2632 26.0206 24.0156H18.5244V24.7372Z" fill="#00D280"/>
<path d="M18.5244 26.7871H28.1134C27.8454 26.5992 27.592 26.3867 27.355 26.1497C27.3281 26.1211 27.3011 26.0942 27.2741 26.0671H18.5244V26.7871Z" fill="#00D280"/>
<path d="M45.3603 36.2596C44.8438 36.7776 44.1533 37.0146 43.4759 36.9722C42.9014 36.937 42.3375 36.6992 41.8987 36.2596C40.945 35.3042 40.945 33.7466 41.8987 32.7914C42.8523 31.8345 44.4066 31.8345 45.3603 32.7914C45.7992 33.2294 46.0353 33.7941 46.0713 34.3694C46.1146 35.0485 45.8776 35.7423 45.3603 36.2596ZM46.4799 31.6685C45.3759 30.562 43.7856 30.2327 42.3906 30.6805L34.9435 23.2187C35.3047 21.943 34.9844 20.5154 33.9825 19.5119C33.0435 18.5713 31.7335 18.2289 30.5257 18.4871C30.4179 18.51 30.377 18.644 30.4554 18.7217L32.983 21.2542C33.1318 21.4037 33.1318 21.6456 32.983 21.7951L30.9262 23.8561C30.7774 24.0057 30.5355 24.0057 30.3868 23.8561L27.8592 21.3236C27.7816 21.2444 27.6484 21.286 27.6255 21.3939C27.3673 22.6042 27.7081 23.9174 28.647 24.8572C29.6473 25.8615 31.0733 26.1827 32.3456 25.8207L39.7936 33.2825C39.3458 34.6791 39.6734 36.2751 40.7783 37.3824C42.3506 38.9579 44.9076 38.9579 46.4799 37.3824C48.053 35.8076 48.053 33.2441 46.4799 31.6685Z" fill="#00D280"/>
</g>
<defs>
<clipPath id="clip0_31_1913">
<rect width="48" height="34.2857" fill="white" transform="translate(0 4.2771)"/>
</clipPath>
</defs>
</svg>
