<svg width="48" height="43" viewBox="0 0 48 43" fill="none" xmlns="http://www.w3.org/2000/svg">
<g clip-path="url(#clip0_31_1952)">
<g clip-path="url(#clip1_31_1952)">
<g clip-path="url(#clip2_31_1952)">
<mask id="mask0_31_1952" style="mask-type:luminance" maskUnits="userSpaceOnUse" x="0" y="32" width="10" height="11">
<path d="M0.0859375 32.2754H9.74922V42.1068H0.0859375V32.2754Z" fill="white"/>
</mask>
<g mask="url(#mask0_31_1952)">
<path d="M9.58722 37.6908L8.60529 37.0494L8.50151 36.3944L9.23848 35.481C9.29037 35.4156 9.29658 35.3233 9.25305 35.2506L8.69666 34.3414C8.65304 34.2698 8.56797 34.2334 8.48703 34.2511L7.34007 34.4929L6.80553 34.1027L6.68201 32.936C6.67267 32.852 6.61143 32.7824 6.53047 32.7627L5.49564 32.5136C5.41364 32.4939 5.32749 32.5281 5.28286 32.5997L4.64245 33.5826L3.98854 33.6875L3.07722 32.9495C3.01183 32.8966 2.92049 32.8904 2.84783 32.9339L1.93963 33.4913C1.86801 33.536 1.83168 33.62 1.84934 33.702L2.09117 34.851L1.70194 35.3866L0.536328 35.5112C0.453292 35.5194 0.38375 35.5807 0.364029 35.6627L0.11596 36.6996C0.0962383 36.7806 0.129453 36.8677 0.201071 36.9123L1.18297 37.5538L1.28677 38.2088L0.55086 39.1222C0.497925 39.1875 0.491696 39.2799 0.53529 39.3526L1.09163 40.2618C1.13523 40.3334 1.21929 40.3697 1.30233 40.3521L2.44823 40.1103L2.98277 40.5006L3.10732 41.6672C3.11562 41.7512 3.17687 41.8208 3.25886 41.8405L4.29474 42.0896C4.37569 42.1093 4.46184 42.0752 4.50751 42.0035L5.14688 41.0206L5.80079 40.9157L6.71315 41.6537C6.75778 41.6901 6.81487 41.7036 6.86988 41.6952C6.89479 41.6911 6.9197 41.6828 6.94253 41.6693L7.8497 41.1119C7.92132 41.0672 7.95765 40.9832 7.94001 40.9012L7.69816 39.7522L8.08843 39.2166L9.25305 39.092C9.33705 39.0838 9.40557 39.0225 9.42634 38.9405L9.67338 37.9036C9.691 37.8227 9.65782 37.7375 9.58722 37.6908ZM5.13132 38.8015C4.30407 38.9322 3.52873 38.3676 3.39898 37.5403C3.26821 36.7121 3.83181 35.9346 4.65801 35.8049C5.48422 35.6741 6.25957 36.2388 6.38931 37.066C6.52009 37.8922 5.95649 38.6706 5.13132 38.8015Z" fill="#00D280"/>
</g>
<mask id="mask1_31_1952" style="mask-type:luminance" maskUnits="userSpaceOnUse" x="35" y="12" width="13" height="14">
<path d="M35.5234 12.6172H47.9144V25.3714H35.5234V12.6172Z" fill="white"/>
</mask>
<g mask="url(#mask1_31_1952)">
<path d="M47.7701 19.4622L46.5049 18.637L46.3721 17.7921L47.3217 16.615C47.3893 16.531 47.3985 16.4116 47.3404 16.3193L46.6242 15.1464C46.5682 15.054 46.4592 15.0073 46.3523 15.0301L44.8743 15.3425L44.184 14.8402L44.0252 13.3362C44.0138 13.2282 43.9349 13.139 43.8301 13.1141L42.4963 12.7923C42.3905 12.7674 42.2805 12.811 42.2213 12.9013L41.3971 14.1697L40.5543 14.3025L39.3794 13.3507C39.2953 13.2833 39.177 13.2739 39.0836 13.3321L37.9138 14.0503C37.8215 14.1064 37.7747 14.2154 37.7975 14.3223L38.1099 15.8034L37.6087 16.4947L36.1068 16.6545C35.9988 16.6649 35.9106 16.7448 35.8856 16.8497L35.565 18.1865C35.539 18.2914 35.5836 18.4025 35.6739 18.4615L36.9382 19.2867L37.071 20.1316L36.1203 21.3097C36.0527 21.3938 36.0445 21.5132 36.1016 21.6065L36.8187 22.7784C36.8749 22.8708 36.9838 22.9175 37.0897 22.8947L38.5677 22.5823L39.258 23.0846L39.4168 24.5897C39.4282 24.6976 39.5071 24.7858 39.6129 24.8118L40.9467 25.1325C41.0515 25.1574 41.1615 25.1138 41.2207 25.0235L42.0449 23.7561L42.8877 23.6233L44.0626 24.574C44.1207 24.6208 44.1944 24.6395 44.264 24.6281C44.2971 24.6228 44.3283 24.6114 44.3584 24.5927L45.5282 23.8755C45.6205 23.8184 45.6673 23.7094 45.6445 23.6025L45.333 22.1225L45.8344 21.4301L47.3352 21.2713C47.4432 21.2599 47.5324 21.181 47.5573 21.0751L47.8781 19.7383C47.904 19.6324 47.8605 19.5213 47.7701 19.4622ZM42.0251 20.8946C40.9602 21.0637 39.9607 20.335 39.7914 19.268C39.6223 18.201 40.3499 17.1995 41.4148 17.0302C42.4798 16.8611 43.4792 17.5908 43.6485 18.6567C43.8176 19.7237 43.0911 20.7264 42.0251 20.8946Z" fill="#00D280"/>
</g>
<path d="M15.2016 23.7637C14.9691 23.7637 14.7812 23.9526 14.7812 24.1841V36.4017C14.7812 36.6342 14.9691 36.8221 15.2016 36.8221H20.8376C21.0691 36.8221 21.2569 36.6342 21.2569 36.4017V24.1841C21.2569 23.9526 21.0691 23.7637 20.8376 23.7637H15.2016Z" fill="#00D280"/>
<path d="M23.6108 18.9597C23.3783 18.9597 23.1904 19.1487 23.1904 19.3801V36.4003C23.1904 36.6329 23.3783 36.8208 23.6108 36.8208H29.2468C29.4783 36.8208 29.6661 36.6329 29.6661 36.4003V19.3801C29.6661 19.1487 29.4783 18.9597 29.2468 18.9597H23.6108Z" fill="#00D280"/>
<path d="M9.41969 22.6642C10.8115 22.4505 12.1972 22.1359 13.559 21.7259C14.9197 21.3159 16.2608 20.8074 17.5634 20.2054C18.866 19.6023 20.1334 18.9058 21.3508 18.1222C23.7859 16.5528 26.0226 14.6295 27.9667 12.4104C28.9382 11.3008 29.8372 10.1196 30.653 8.87514C31.0609 8.25237 31.447 7.61507 31.8124 6.96427C31.8403 6.91653 31.8663 6.86879 31.8933 6.82104L33.3267 7.54034C33.6028 7.67838 33.9162 7.44173 33.8623 7.13969L32.7777 1.03968C32.733 0.791608 32.4642 0.657713 32.241 0.770849L26.7202 3.56396C26.4461 3.70305 26.4472 4.09643 26.7212 4.23344L28.193 4.96934C28.1671 5.03785 28.1401 5.10635 28.1131 5.17382C27.8712 5.77998 27.6086 6.37887 27.3243 6.96843C26.7555 8.14962 26.1016 9.29549 25.3677 10.3958C23.8991 12.5962 22.1086 14.6119 20.0514 16.3546C19.0248 17.2275 17.9308 18.0298 16.7829 18.7564C15.6328 19.4829 14.4277 20.1327 13.1781 20.6973C11.9284 21.262 10.632 21.7416 9.30242 22.1287C8.63812 22.3239 7.96552 22.494 7.28566 22.6425C6.60684 22.7899 5.92076 22.9133 5.22949 23.0151C5.92699 23.0047 6.6276 22.9725 7.32614 22.9133C8.02364 22.8552 8.7232 22.7722 9.41969 22.6642Z" fill="#00D280"/>
<path d="M37.0382 24.025C36.8037 24.025 36.5711 23.9648 36.3667 23.8506C36.159 23.7354 35.9816 23.5661 35.8581 23.3627L35.1419 22.1909C34.8357 21.6906 34.8783 21.0502 35.2456 20.5956L35.8103 19.895L35.0578 19.404C34.5679 19.0844 34.3312 18.4886 34.4683 17.9187L34.788 16.5818C34.925 16.012 35.4076 15.5885 35.9878 15.5262L36.8805 15.4318L36.6947 14.5506C36.5742 13.9776 36.8275 13.387 37.3257 13.0819L37.7866 12.7985C37.7471 12.7861 37.7025 12.7788 37.6589 12.7788H32.0229C31.7914 12.7788 31.6035 12.9667 31.6035 13.1991V36.3962C31.6035 36.6288 31.7914 36.8176 32.0229 36.8176H37.6589C37.8904 36.8176 38.0782 36.6288 38.0782 36.3962V23.835L37.3236 23.9938C37.2281 24.0167 37.1327 24.025 37.0382 24.025Z" fill="#00D280"/>
<path d="M12.8478 36.4006V28.2766C12.8478 28.0451 12.6599 27.8562 12.4284 27.8562H6.79238C6.56091 27.8562 6.37305 28.0451 6.37305 28.2766V31.5648L6.79341 31.6666C7.33834 31.7973 7.74313 32.2603 7.80333 32.8187L7.84693 33.2339L8.2538 33.1477C8.34411 33.129 8.43547 33.1187 8.52783 33.1187C8.98656 33.1187 9.42047 33.3625 9.65914 33.7538L10.2155 34.6641C10.5082 35.1416 10.4688 35.7571 10.1159 36.1931L9.85429 36.519L10.2041 36.7473C10.2404 36.7711 10.2757 36.796 10.309 36.8231H12.4295C12.6599 36.8209 12.8478 36.6331 12.8478 36.4006Z" fill="#00D280"/>
<path d="M10.3428 38.1914H38.0767V39.4474H10.3428V38.1914Z" fill="#00D280"/>
</g>
</g>
</g>
<defs>
<clipPath id="clip0_31_1952">
<rect width="48" height="42" fill="white" transform="translate(0 0.419922)"/>
</clipPath>
<clipPath id="clip1_31_1952">
<rect width="48" height="42" fill="white" transform="translate(0 0.419922)"/>
</clipPath>
<clipPath id="clip2_31_1952">
<rect width="48" height="41.3793" fill="white" transform="translate(0 0.730225)"/>
</clipPath>
</defs>
</svg>
