<svg width="48" height="43" viewBox="0 0 48 43" fill="none" xmlns="http://www.w3.org/2000/svg">
<g clip-path="url(#clip0_31_1939)">
<g clip-path="url(#clip1_31_1939)">
<g clip-path="url(#clip2_31_1939)">
<mask id="mask0_31_1939" style="mask-type:luminance" maskUnits="userSpaceOnUse" x="3" y="0" width="42" height="43">
<path d="M3 0.419922H45V42.4199H3V0.419922Z" fill="white"/>
</mask>
<g mask="url(#mask0_31_1939)">
<path d="M3.79414 34.482H19.6699V39.5333H11.732V42.4198H36.2685V39.5333H28.3297V34.482H44.2064C44.3021 34.482 44.3941 34.4638 44.4826 34.4264C44.571 34.3899 44.6484 34.3379 44.7168 34.2705C44.7842 34.203 44.8362 34.1247 44.8727 34.0363C44.9091 33.9478 44.9283 33.8558 44.9283 33.7601V6.33705C44.9283 6.24135 44.9091 6.14929 44.8727 6.06088C44.8362 5.97247 44.7842 5.895 44.7168 5.82754C44.6484 5.75918 44.571 5.70723 44.4826 5.67077C44.3941 5.63432 44.3021 5.61609 44.2064 5.61609H28.3297V3.45046H34.9551C34.9824 3.53067 35.0152 3.60815 35.0526 3.6838C35.09 3.75945 35.131 3.83237 35.1766 3.90346C35.223 3.97455 35.2722 4.042 35.326 4.10763C35.3798 4.17234 35.4372 4.23432 35.4983 4.29265C35.5594 4.35098 35.6232 4.40568 35.6906 4.4558C35.7572 4.50685 35.8273 4.55424 35.9002 4.59616C35.9731 4.639 36.0479 4.67729 36.1254 4.71101C36.2029 4.74565 36.2813 4.77481 36.3624 4.79943C36.4426 4.82403 36.5246 4.84408 36.6076 4.85866C36.6905 4.87416 36.7743 4.88419 36.8582 4.88966C36.9421 4.89513 37.0268 4.89513 37.1107 4.89148C37.1954 4.88692 37.2784 4.8769 37.3622 4.86322C37.4452 4.84864 37.5272 4.8295 37.6084 4.8058C37.6885 4.7821 37.7678 4.75385 37.8453 4.72012C37.9228 4.68731 37.9985 4.64994 38.0714 4.60802C38.1452 4.56609 38.2154 4.51961 38.2828 4.46947C38.3512 4.41934 38.4159 4.36557 38.4769 4.30814C38.5389 4.24981 38.5964 4.18875 38.6511 4.12494C38.7057 4.06023 38.7559 3.99278 38.8023 3.9226C38.8488 3.8515 38.8908 3.7795 38.929 3.70385C38.9673 3.6282 39.0002 3.55072 39.0293 3.47234C39.0585 3.39304 39.0821 3.31192 39.1022 3.22989C39.1214 3.14786 39.1359 3.06492 39.146 2.98106C39.156 2.89721 39.1605 2.81336 39.1605 2.7295C39.1605 2.64473 39.156 2.56088 39.146 2.47703C39.1359 2.39317 39.1214 2.31023 39.1022 2.22819C39.0821 2.14617 39.0585 2.06596 39.0293 1.98666C39.0002 1.90736 38.9673 1.82989 38.929 1.75424C38.8908 1.6795 38.8488 1.60659 38.8023 1.5364C38.7559 1.46531 38.7057 1.39786 38.6511 1.33406C38.5964 1.26934 38.5389 1.20828 38.4769 1.15085C38.4159 1.09252 38.3512 1.03875 38.2828 0.988615C38.2154 0.938484 38.1452 0.892 38.0714 0.850073C37.9985 0.808146 37.9228 0.770776 37.8453 0.737964C37.7678 0.705151 37.6885 0.675985 37.6084 0.652286C37.5272 0.628588 37.4452 0.609448 37.3622 0.595776C37.2784 0.581193 37.1954 0.572078 37.1107 0.567521C37.0268 0.562963 36.9421 0.562963 36.8582 0.568433C36.7743 0.573901 36.6905 0.583927 36.6076 0.599422C36.5246 0.614005 36.4426 0.634058 36.3624 0.658667C36.2813 0.683276 36.2029 0.713354 36.1254 0.747078C36.0479 0.780802 35.9731 0.819084 35.9002 0.861922C35.8273 0.90476 35.7572 0.951245 35.6906 1.00229C35.6232 1.05333 35.5594 1.1071 35.4983 1.16544C35.4372 1.22468 35.3798 1.28575 35.326 1.35138C35.2722 1.41609 35.223 1.48353 35.1766 1.55463C35.131 1.62572 35.09 1.69864 35.0526 1.77429C35.0152 1.84994 34.9824 1.92833 34.9551 2.00763H27.6078C27.5121 2.00763 27.4201 2.02586 27.3316 2.06231C27.2433 2.09877 27.1657 2.15164 27.0983 2.21908C27.0299 2.28653 26.978 2.36491 26.9415 2.45333C26.9051 2.54174 26.8869 2.6338 26.8869 2.7295V5.61609H21.1137V2.7295C21.1137 2.6338 21.0955 2.54174 21.0581 2.45333C21.0216 2.36491 20.9696 2.28653 20.9022 2.21908C20.8347 2.15164 20.7564 2.09877 20.668 2.06231C20.5796 2.02586 20.4875 2.00763 20.3918 2.00763H13.0454C13.0172 1.92833 12.9844 1.84994 12.947 1.77429C12.9105 1.69864 12.8686 1.62572 12.8231 1.55463C12.7775 1.48353 12.7273 1.41609 12.6736 1.35138C12.6198 1.28575 12.5633 1.22468 12.5022 1.16544C12.4411 1.1071 12.3774 1.05333 12.3099 1.00229C12.2425 0.951245 12.1722 0.90476 12.0993 0.861922C12.0273 0.819084 11.9517 0.780802 11.8751 0.747078C11.7977 0.713354 11.7184 0.683276 11.6382 0.658667C11.557 0.634058 11.475 0.614005 11.3921 0.599422C11.3091 0.583927 11.2262 0.573901 11.1414 0.568433C11.0576 0.562963 10.9737 0.562963 10.8889 0.567521C10.8051 0.572078 10.7212 0.581193 10.6383 0.595776C10.5553 0.609448 10.4733 0.628588 10.3922 0.652286C10.3111 0.675985 10.2318 0.705151 10.1543 0.737964C10.0768 0.770776 10.0012 0.808146 9.92826 0.850073C9.85534 0.892 9.78425 0.938484 9.7168 0.988615C9.64935 1.03875 9.58463 1.09252 9.52266 1.15085C9.46159 1.20828 9.40326 1.26934 9.34857 1.33406C9.29479 1.39786 9.24466 1.46531 9.19818 1.5364C9.1517 1.60659 9.10886 1.6795 9.07148 1.75424C9.03321 1.82989 8.99948 1.90736 8.97031 1.98666C8.94206 2.06596 8.91745 2.14617 8.89831 2.22819C8.87826 2.31023 8.86367 2.39317 8.85365 2.47703C8.84453 2.56088 8.83906 2.64473 8.83906 2.7295C8.83906 2.81336 8.84453 2.89721 8.85365 2.98106C8.86367 3.06492 8.87826 3.14786 8.89831 3.22989C8.91745 3.31192 8.94206 3.39304 8.97031 3.47234C8.99948 3.55072 9.03321 3.6282 9.07148 3.70385C9.10886 3.7795 9.1517 3.8515 9.19818 3.9226C9.24466 3.99278 9.29479 4.06023 9.34857 4.12494C9.40326 4.18875 9.46159 4.24981 9.52266 4.30814C9.58463 4.36557 9.64935 4.41934 9.7168 4.46947C9.78425 4.51961 9.85534 4.56609 9.92826 4.60802C10.0012 4.64994 10.0768 4.68731 10.1543 4.72012C10.2318 4.75385 10.3111 4.7821 10.3922 4.8058C10.4733 4.8295 10.5553 4.84864 10.6383 4.86322C10.7212 4.8769 10.8051 4.88692 10.8889 4.89148C10.9737 4.89513 11.0576 4.89513 11.1414 4.88966C11.2262 4.88419 11.3091 4.87416 11.3921 4.85866C11.475 4.84408 11.557 4.82403 11.6382 4.79943C11.7184 4.77481 11.7977 4.74565 11.8751 4.71101C11.9517 4.67729 12.0273 4.639 12.0993 4.59616C12.1722 4.55424 12.2425 4.50685 12.3099 4.4558C12.3774 4.40568 12.4411 4.35098 12.5022 4.29265C12.5633 4.23432 12.6198 4.17234 12.6736 4.10763C12.7273 4.042 12.7775 3.97455 12.8231 3.90346C12.8686 3.83237 12.9105 3.75945 12.947 3.6838C12.9844 3.60815 13.0172 3.53067 13.0454 3.45046H19.6699V5.61609H3.79414C3.69844 5.61609 3.60638 5.63432 3.51797 5.67077C3.42956 5.70723 3.35117 5.75918 3.28372 5.82754C3.21628 5.895 3.16341 5.97247 3.12695 6.06088C3.09049 6.14929 3.07227 6.24135 3.07227 6.33705V33.7601C3.07227 33.8558 3.09049 33.9478 3.12695 34.0363C3.16341 34.1247 3.21628 34.203 3.28372 34.2705C3.35117 34.3379 3.42956 34.3899 3.51797 34.4264C3.60638 34.4638 3.69844 34.482 3.79414 34.482ZM21.1137 7.05892H26.8869V15.1198L26.4029 15.6029C26.0975 15.437 25.7776 15.3049 25.4431 15.2064V13.554H22.5565V15.2064C22.2229 15.3049 21.903 15.437 21.5967 15.6029L21.1137 15.1198V7.05892ZM24.0003 17.1625C24.1899 17.1625 24.3776 17.1807 24.5635 17.2181C24.7495 17.2545 24.9299 17.3092 25.105 17.3821C25.2799 17.4541 25.4458 17.5434 25.6035 17.6482C25.7612 17.754 25.907 17.8734 26.041 18.0073C26.175 18.1413 26.2944 18.2872 26.4002 18.4449C26.5058 18.6026 26.5943 18.7694 26.6672 18.9444C26.7392 19.1193 26.7939 19.2998 26.8313 19.4857C26.8677 19.6717 26.8869 19.8594 26.8869 20.049C26.8869 20.2386 26.8677 20.4264 26.8313 20.6123C26.7939 20.7973 26.7392 20.9788 26.6672 21.1537C26.5943 21.3287 26.5058 21.4946 26.4002 21.6523C26.2944 21.8099 26.175 21.9558 26.041 22.0898C25.907 22.2238 25.7612 22.3432 25.6035 22.4489C25.4458 22.5537 25.2799 22.643 25.105 22.716C24.9299 22.7879 24.7495 22.8426 24.5635 22.88C24.3776 22.9165 24.1899 22.9356 24.0003 22.9356C23.8107 22.9356 23.623 22.9165 23.437 22.88C23.251 22.8426 23.0706 22.7879 22.8956 22.716C22.7205 22.643 22.5538 22.5537 22.3961 22.4489C22.2384 22.3432 22.0926 22.2238 21.9586 22.0898C21.8246 21.9558 21.7052 21.8099 21.5995 21.6523C21.4946 21.4946 21.4054 21.3287 21.3334 21.1537C21.2605 20.9788 21.2058 20.7973 21.1692 20.6123C21.1319 20.4264 21.1137 20.2386 21.1137 20.049C21.1137 19.8594 21.1319 19.6717 21.1692 19.4857C21.2058 19.2998 21.2605 19.1193 21.3334 18.9444C21.4054 18.7694 21.4946 18.6026 21.5995 18.4449C21.7052 18.2872 21.8246 18.1413 21.9586 18.0073C22.0926 17.8734 22.2384 17.754 22.3961 17.6482C22.5538 17.5434 22.7205 17.4541 22.8956 17.3821C23.0706 17.3092 23.251 17.2545 23.437 17.2181C23.623 17.1807 23.8107 17.1625 24.0003 17.1625ZM4.51511 7.05892H19.6699V15.1919L18.3856 16.4761L19.5551 17.6455C19.3883 17.9517 19.2561 18.2717 19.1577 18.6052H17.5052V19.3271H10.1589C10.1306 19.2478 10.0978 19.1704 10.0604 19.0938C10.024 19.0182 9.98204 18.9453 9.93646 18.8741C9.89089 18.804 9.84076 18.7356 9.78698 18.6709C9.7332 18.6052 9.6767 18.5442 9.61563 18.4859C9.55456 18.4276 9.49075 18.3728 9.42331 18.3218C9.35586 18.2708 9.28568 18.2243 9.21276 18.1815C9.14076 18.1386 9.06511 18.1003 8.98854 18.0666C8.91107 18.0329 8.83177 18.0037 8.75156 17.9782C8.67044 17.9536 8.58841 17.9344 8.50547 17.919C8.42253 17.9034 8.33958 17.8934 8.25482 17.888C8.17096 17.8825 8.08711 17.8825 8.00234 17.887C7.91849 17.8916 7.83463 17.9007 7.75169 17.9153C7.66875 17.929 7.58672 17.9481 7.5056 17.9718C7.42448 17.9955 7.34518 18.0247 7.26771 18.0575C7.19024 18.0903 7.11459 18.1285 7.04167 18.1705C6.96875 18.2125 6.89766 18.258 6.8302 18.3081C6.76276 18.3583 6.69805 18.412 6.63607 18.4704C6.575 18.5278 6.51667 18.5889 6.46198 18.6535C6.40821 18.7174 6.35716 18.7848 6.31068 18.8559C6.2651 18.9261 6.22226 18.999 6.1849 19.0738C6.14661 19.1494 6.11289 19.2269 6.08372 19.3062C6.05547 19.3855 6.03086 19.4657 6.01172 19.5477C5.99167 19.6298 5.97708 19.7127 5.96705 19.7965C5.95794 19.8804 5.95247 19.9643 5.95247 20.049C5.95247 20.1329 5.95794 20.2167 5.96705 20.3006C5.97708 20.3844 5.99167 20.4674 6.01172 20.5494C6.03086 20.6314 6.05547 20.7126 6.08372 20.7918C6.11289 20.8711 6.14661 20.9478 6.1849 21.0234C6.22226 21.099 6.2651 21.171 6.31068 21.2421C6.35716 21.3123 6.40821 21.3798 6.46198 21.4444C6.51667 21.5083 6.575 21.5694 6.63607 21.6276C6.69805 21.6851 6.76276 21.7389 6.8302 21.789C6.89766 21.8392 6.96875 21.8856 7.04167 21.9275C7.11459 21.9694 7.19024 22.0068 7.26771 22.0397C7.34518 22.0734 7.42448 22.1017 7.5056 22.1253C7.58672 22.149 7.66875 22.1682 7.75169 22.1827C7.83463 22.1964 7.91849 22.2064 8.00234 22.211C8.08711 22.2146 8.17096 22.2146 8.25482 22.2092C8.33958 22.2037 8.42253 22.1937 8.50547 22.1782C8.58841 22.1637 8.67044 22.1436 8.75156 22.119C8.83177 22.0944 8.91107 22.0652 8.98854 22.0305C9.06511 21.9968 9.14076 21.9585 9.21276 21.9157C9.28568 21.8738 9.35586 21.8264 9.42331 21.7753C9.49075 21.7252 9.55456 21.6705 9.61563 21.6122C9.6767 21.5538 9.7332 21.4919 9.78698 21.4271C9.84076 21.3615 9.89089 21.2941 9.93646 21.223C9.98204 21.1519 10.024 21.079 10.0604 21.0034C10.0978 20.9277 10.1306 20.8502 10.1589 20.77H17.5052V21.4919H19.1577C19.2561 21.8264 19.3883 22.1463 19.5551 22.4516L18.3856 23.6566L20.4283 25.6991L21.5967 24.5298C21.903 24.6966 22.2229 24.8287 22.5565 24.9272V26.5432H25.4431V24.8907C25.7776 24.7932 26.0975 24.661 26.4029 24.4942L27.6078 25.6627L29.6148 23.6566L28.4455 22.4881C28.6141 22.1709 28.7462 21.8382 28.842 21.4919H30.4944V20.77H37.8416C37.869 20.8502 37.9019 20.9277 37.9392 21.0034C37.9765 21.079 38.0176 21.1519 38.0631 21.223C38.1096 21.2941 38.1588 21.3615 38.2127 21.4271C38.2664 21.4919 38.3238 21.5538 38.3849 21.6122C38.4459 21.6705 38.5098 21.7252 38.5772 21.7753C38.6438 21.8264 38.714 21.8738 38.7869 21.9157C38.8598 21.9585 38.9345 21.9968 39.012 22.0305C39.0895 22.0652 39.1678 22.0944 39.249 22.119C39.3292 22.1436 39.4112 22.1637 39.4942 22.1782C39.5771 22.1937 39.6609 22.2037 39.7448 22.2092C39.8287 22.2146 39.9134 22.2146 39.9972 22.211C40.082 22.2064 40.165 22.1964 40.2488 22.1827C40.3317 22.1682 40.4138 22.149 40.4949 22.1253C40.5752 22.1017 40.6545 22.0734 40.7319 22.0397C40.8094 22.0068 40.885 21.9694 40.958 21.9275C41.0318 21.8856 41.1019 21.8392 41.1694 21.789C41.2378 21.7389 41.3024 21.6851 41.3635 21.6276C41.4255 21.5694 41.483 21.5083 41.5376 21.4444C41.5923 21.3798 41.6425 21.3123 41.6889 21.2421C41.7355 21.171 41.7774 21.099 41.8156 21.0234C41.8539 20.9478 41.8867 20.8711 41.9159 20.7918C41.945 20.7126 41.9687 20.6314 41.9888 20.5494C42.008 20.4674 42.0226 20.3844 42.0326 20.3006C42.0426 20.2167 42.0471 20.1329 42.0471 20.049C42.0471 19.9643 42.0426 19.8804 42.0326 19.7965C42.0226 19.7127 42.008 19.6298 41.9888 19.5477C41.9687 19.4657 41.945 19.3855 41.9159 19.3062C41.8867 19.2269 41.8539 19.1494 41.8156 19.0738C41.7774 18.999 41.7355 18.9261 41.6889 18.8559C41.6425 18.7848 41.5923 18.7174 41.5376 18.6535C41.483 18.5889 41.4255 18.5278 41.3635 18.4704C41.3024 18.412 41.2378 18.3583 41.1694 18.3081C41.1019 18.258 41.0318 18.2125 40.958 18.1705C40.885 18.1285 40.8094 18.0903 40.7319 18.0575C40.6545 18.0247 40.5752 17.9955 40.4949 17.9718C40.4138 17.9481 40.3317 17.929 40.2488 17.9153C40.165 17.9007 40.082 17.8916 39.9972 17.887C39.9134 17.8825 39.8287 17.8825 39.7448 17.888C39.6609 17.8934 39.5771 17.9034 39.4942 17.919C39.4112 17.9344 39.3292 17.9536 39.249 17.9782C39.1678 18.0037 39.0895 18.0329 39.012 18.0666C38.9345 18.1003 38.8598 18.1386 38.7869 18.1815C38.714 18.2243 38.6438 18.2708 38.5772 18.3218C38.5098 18.3728 38.4459 18.4276 38.3849 18.4859C38.3238 18.5442 38.2664 18.6052 38.2127 18.6709C38.1588 18.7356 38.1096 18.804 38.0631 18.8741C38.0176 18.9453 37.9765 19.0182 37.9392 19.0938C37.9019 19.1704 37.869 19.2478 37.8416 19.3271H30.4944V18.6052H28.842C28.7444 18.2717 28.6122 17.9517 28.4455 17.6455L29.6148 16.4761L28.3297 15.1919V7.05892H43.4845V30.1516H4.51511V7.05892Z" fill="#00D280"/>
</g>
<path d="M6.68086 10.6673H10.2884V16.4405C10.2884 16.5363 10.3076 16.6283 10.344 16.7167C10.3805 16.8051 10.4324 16.8835 10.4999 16.951C10.5682 17.0184 10.6457 17.0703 10.7341 17.1068C10.8225 17.1442 10.9146 17.1624 11.0103 17.1624H15.3406C15.4363 17.1624 15.5284 17.1442 15.6168 17.1068C15.7052 17.0703 15.7827 17.0184 15.8511 16.951C15.9185 16.8835 15.9704 16.8051 16.0069 16.7167C16.0434 16.6283 16.0616 16.5363 16.0616 16.4405C16.0616 16.3448 16.0434 16.2528 16.0069 16.1644C15.9704 16.0759 15.9185 15.9976 15.8511 15.9301C15.7827 15.8627 15.7052 15.8107 15.6168 15.7734C15.5284 15.7369 15.4363 15.7187 15.3406 15.7187H11.7321V9.94544C11.7321 9.84977 11.7139 9.7577 11.6775 9.66934C11.6401 9.58088 11.5882 9.50344 11.5207 9.43506C11.4533 9.36761 11.3749 9.3157 11.2865 9.27924C11.198 9.24186 11.106 9.22363 11.0103 9.22363H6.68086C6.58516 9.22363 6.49311 9.24186 6.40469 9.27924C6.31628 9.3157 6.2379 9.36761 6.17045 9.43506C6.103 9.50344 6.05013 9.58088 6.01368 9.66934C5.97722 9.7577 5.95898 9.84977 5.95898 9.94544C5.95898 10.0412 5.97722 10.1333 6.01368 10.2216C6.05013 10.3101 6.103 10.3885 6.17045 10.4559C6.2379 10.5234 6.31628 10.5753 6.40469 10.6127C6.49311 10.6491 6.58516 10.6673 6.68086 10.6673Z" fill="#00D280"/>
<path d="M40.5974 9.22363H36.268C36.1723 9.22363 36.0803 9.24186 35.9918 9.27924C35.9034 9.3157 35.8251 9.36761 35.7576 9.43506C35.6892 9.50344 35.6372 9.58088 35.6008 9.66934C35.5643 9.7577 35.5461 9.84977 35.5461 9.94544V15.7187H31.9376C31.842 15.7187 31.7499 15.7369 31.6615 15.7734C31.5731 15.8107 31.4947 15.8627 31.4272 15.9301C31.3598 15.9976 31.3078 16.0759 31.2713 16.1644C31.234 16.2528 31.2158 16.3448 31.2158 16.4405C31.2158 16.5363 31.234 16.6283 31.2713 16.7167C31.3078 16.8051 31.3598 16.8835 31.4272 16.951C31.4947 17.0184 31.5731 17.0703 31.6615 17.1068C31.7499 17.1442 31.842 17.1624 31.9376 17.1624H36.268C36.3628 17.1624 36.4548 17.1442 36.5433 17.1068C36.6316 17.0703 36.7101 17.0184 36.7775 16.951C36.8458 16.8835 36.8978 16.8051 36.9343 16.7167C36.9707 16.6283 36.989 16.5363 36.989 16.4405V10.6673H40.5974C40.6931 10.6673 40.7852 10.6491 40.8736 10.6127C40.962 10.5753 41.0404 10.5234 41.1078 10.4559C41.1753 10.3885 41.2273 10.3101 41.2637 10.2216C41.301 10.1333 41.3193 10.0412 41.3193 9.94544C41.3193 9.84977 41.301 9.7577 41.2637 9.66934C41.2273 9.58088 41.1753 9.50344 41.1078 9.43506C41.0404 9.36761 40.962 9.3157 40.8736 9.27924C40.7852 9.24186 40.6931 9.22363 40.5974 9.22363Z" fill="#00D280"/>
</g>
</g>
</g>
<defs>
<clipPath id="clip0_31_1939">
<rect width="48" height="42" fill="white" transform="translate(0 0.419922)"/>
</clipPath>
<clipPath id="clip1_31_1939">
<rect width="48" height="42" fill="white" transform="translate(0 0.419922)"/>
</clipPath>
<clipPath id="clip2_31_1939">
<rect width="42" height="42" fill="white" transform="translate(3 0.419922)"/>
</clipPath>
</defs>
</svg>
