<svg width="31" height="25" viewBox="0 0 31 25" fill="none" xmlns="http://www.w3.org/2000/svg">
<g clip-path="url(#clip0_31_2134)">
<g clip-path="url(#clip1_31_2134)">
<g clip-path="url(#clip2_31_2134)">
<mask id="mask0_31_2134" style="mask-type:luminance" maskUnits="userSpaceOnUse" x="0" y="0" width="26" height="23">
<path d="M0.771484 0.712891H25.2325V22.6125H0.771484V0.712891Z" fill="white"/>
</mask>
<g mask="url(#mask0_31_2134)">
<path d="M21.9234 18.7564L20.6262 17.3221H2.46343C2.24557 17.3221 2.06878 17.1257 2.06878 16.8849V2.65605C2.06878 2.4165 2.24557 2.22014 2.46343 2.22014H23.5245C23.7412 2.22014 23.9185 2.4165 23.9185 2.65605V13.9142L25.2164 15.3492V2.65605C25.2164 1.62473 24.4572 0.785156 23.5245 0.785156H2.46343C1.53063 0.785156 0.771484 1.62473 0.771484 2.65605V16.8849C0.771484 17.9175 1.53063 18.7564 2.46343 18.7564H10.2217V20.1269H9.54428C8.32234 20.1269 7.33234 21.221 7.33234 22.5725H18.6555C18.6555 21.221 17.665 20.1269 16.4436 20.1269H15.7656V18.7564H21.9234Z" fill="#00D280"/>
</g>
<path d="M4.58663 4.20306C4.58663 3.80804 4.29702 3.4873 3.9398 3.4873C3.58259 3.4873 3.29297 3.80804 3.29297 4.20306C3.29297 4.59809 3.58259 4.91825 3.9398 4.91825C4.29702 4.91825 4.58663 4.59809 4.58663 4.20306Z" fill="#00D280"/>
<path d="M6.93331 4.20306C6.93331 3.80804 6.64369 3.4873 6.28647 3.4873C5.92926 3.4873 5.63965 3.80804 5.63965 4.20306C5.63965 4.59809 5.92926 4.91825 6.28647 4.91825C6.64369 4.91825 6.93331 4.59809 6.93331 4.20306Z" fill="#00D280"/>
<path d="M8.63511 4.91825C8.9918 4.91825 9.28191 4.59809 9.28191 4.20306C9.28191 3.80804 8.9918 3.4873 8.63511 3.4873C8.2779 3.4873 7.98828 3.80804 7.98828 4.20306C7.98828 4.59809 8.2779 4.91825 8.63511 4.91825Z" fill="#00D280"/>
<path d="M20.7477 4.77084L21.4606 3.83338C21.1054 3.61341 20.6968 3.4873 20.261 3.4873C19.3059 3.4873 18.4765 4.0925 18.0684 4.97411L19.1462 5.29312C19.3995 4.91652 19.805 4.67295 20.261 4.67295C20.4321 4.67295 20.5959 4.70808 20.7477 4.77084Z" fill="#00D280"/>
<path d="M22.7179 6.20504C22.7179 5.55722 22.5125 4.96066 22.1688 4.49365L21.457 5.43053C21.5776 5.658 21.6467 5.92231 21.6467 6.20504C21.6467 6.26781 21.6437 6.33 21.6369 6.39104L22.5999 7.03943C22.6773 6.77569 22.7179 6.49641 22.7179 6.20504Z" fill="#00D280"/>
<path d="M19.5383 8.81284L19.7104 7.62259C19.2336 7.39629 18.893 6.88263 18.8686 6.27974L17.8058 5.96533C17.7995 6.04537 17.7959 6.12714 17.7959 6.20949C17.7959 7.43372 18.5306 8.47195 19.5383 8.81284Z" fill="#00D280"/>
<path d="M22.15 7.95082L21.2173 7.32373C20.977 7.5771 20.6546 7.73661 20.2985 7.74812L20.1279 8.93091C20.1711 8.93259 20.2142 8.93435 20.2584 8.93435C21.0181 8.93435 21.6982 8.55142 22.15 7.95082Z" fill="#00D280"/>
<path d="M5.23633 16.0432H6.21437V9.05713H5.23633V16.0432Z" fill="#00D280"/>
<path d="M7.1875 16.0489H8.16503V7.31641H7.1875V16.0489Z" fill="#00D280"/>
<path d="M10.1197 11.6665H9.1416V16.044H10.1197V11.6665Z" fill="#00D280"/>
<path d="M3.29297 16.0457H4.27101V11.3491H3.29297V16.0457Z" fill="#00D280"/>
<path d="M18.1585 10.3564H11.959V11.674H16.6266C16.845 11.3014 17.2251 11.059 17.6437 11.059C17.966 11.059 18.1205 10.7532 18.1585 10.3564Z" fill="#00D280"/>
<path d="M11.959 12.7656V13.2557H16.3974C16.3833 13.0939 16.3797 12.9303 16.3865 12.7656H11.959Z" fill="#00D280"/>
<path d="M11.959 14.6512H16.7603C16.687 14.4928 16.6241 14.3292 16.5716 14.1616H11.959V14.6512Z" fill="#00D280"/>
<path d="M11.959 16.0464H17.8589C17.6946 15.9187 17.5381 15.7747 17.3925 15.6135C17.3759 15.5944 17.3592 15.576 17.3427 15.5576H11.959V16.0464Z" fill="#00D280"/>
<path d="M28.474 22.4819C28.1563 22.8332 27.7315 22.9944 27.3145 22.9656C26.9615 22.9415 26.6141 22.7802 26.3443 22.4819C25.7572 21.8323 25.7572 20.7751 26.3443 20.1256C26.9308 19.4755 27.887 19.4755 28.474 20.1256C28.7439 20.4233 28.8895 20.8068 28.9113 21.1977C28.9383 21.659 28.7927 22.1307 28.474 22.4819ZM29.1635 19.3632C28.4839 18.6117 27.5048 18.3877 26.6464 18.6923L22.0645 13.6238C22.2865 12.7572 22.0894 11.7875 21.4728 11.1057C20.8951 10.4665 20.0892 10.2344 19.3461 10.4095C19.279 10.4256 19.2541 10.516 19.3025 10.569L20.8581 12.289C20.9496 12.391 20.9496 12.555 20.8581 12.6564L19.5926 14.0562C19.5005 14.1582 19.3518 14.1582 19.2603 14.0562L17.7051 12.3363C17.6573 12.2827 17.5751 12.3109 17.561 12.384C17.4025 13.2064 17.6115 14.0983 18.1897 14.7369C18.8053 15.4187 19.6825 15.6369 20.4661 15.3911L25.049 20.4596C24.773 21.4079 24.9747 22.4917 25.6548 23.2443C26.6225 24.3147 28.1958 24.3147 29.1635 23.2443C30.1306 22.175 30.1306 20.4336 29.1635 19.3632Z" fill="#00D280"/>
</g>
</g>
</g>
<defs>
<clipPath id="clip0_31_2134">
<rect width="30" height="24.7" fill="white" transform="translate(0.330078 0.0297852)"/>
</clipPath>
<clipPath id="clip1_31_2134">
<rect width="30" height="24.7" fill="white" transform="translate(0.330078 0.0297852)"/>
</clipPath>
<clipPath id="clip2_31_2134">
<rect width="30" height="24.7059" fill="white" transform="translate(0.330078 0.0268555)"/>
</clipPath>
</defs>
</svg>
