<svg width="31" height="31" viewBox="0 0 31 31" fill="none" xmlns="http://www.w3.org/2000/svg">
<g clip-path="url(#clip0_31_2081)">
<g clip-path="url(#clip1_31_2081)">
<g clip-path="url(#clip2_31_2081)">
<mask id="mask0_31_2081" style="mask-type:luminance" maskUnits="userSpaceOnUse" x="14" y="1" width="16" height="17">
<path d="M14.5645 1.61328H29.8881V17.7327H14.5645V1.61328Z" fill="white"/>
</mask>
<g mask="url(#mask0_31_2081)">
<path d="M29.4715 7.81709L28.0525 7.47199C27.9652 7.22589 27.8634 6.98012 27.7427 6.74365L28.4933 5.51862C28.6095 5.33404 28.5754 5.0931 28.4204 4.94152L26.43 2.99777C26.2751 2.84653 26.0279 2.8132 25.8392 2.92697L24.585 3.66459C24.3427 3.54635 24.091 3.44702 23.8389 3.36212L23.4853 1.97623C23.4322 1.76793 23.2385 1.6167 23.0157 1.6167H20.1971C19.9742 1.6167 19.7805 1.76347 19.7273 1.97623L19.3738 3.36212C19.1221 3.44702 18.8699 3.54635 18.6281 3.66459L17.3735 2.92697C17.1848 2.8132 16.9376 2.84653 16.7827 2.99777L14.7922 4.94152C14.6373 5.0931 14.6035 5.33404 14.7197 5.51862L15.4704 6.74365C15.4317 6.82407 15.3929 6.90451 15.3588 6.98941C15.257 7.2307 15.3781 7.5098 15.6253 7.60432C15.8721 7.70365 16.158 7.58542 16.2549 7.34412C16.313 7.20698 16.3805 7.07465 16.4534 6.9516C16.5358 6.80517 16.5309 6.63022 16.4436 6.48345L15.7465 5.34848L17.2041 3.92478L18.3665 4.6057C18.5115 4.69094 18.6957 4.69576 18.846 4.61532C19.1897 4.43074 19.553 4.28432 19.921 4.18017C20.0858 4.13274 20.2115 4.00522 20.2551 3.83955L20.5843 2.55781H22.6477L22.9769 3.83955C23.0206 4.00041 23.1466 4.12827 23.3111 4.18017C23.6794 4.28913 24.0424 4.43556 24.3864 4.61532C24.5364 4.69576 24.7205 4.69094 24.8656 4.6057L26.0279 3.92478L27.4859 5.34848L26.7884 6.48345C26.7012 6.6254 26.6966 6.80517 26.7785 6.9516C26.9676 7.28741 27.1176 7.64213 27.2243 8.00167C27.2726 8.16252 27.4036 8.28557 27.5729 8.3282L28.8856 8.64958V10.6645L27.5729 10.9862C27.4085 11.0288 27.2775 11.1515 27.2243 11.3124C27.1127 11.6719 26.9628 12.0266 26.7785 12.3625C26.6966 12.5089 26.7012 12.6887 26.7884 12.8306L27.4859 13.9656L26.0279 15.3893L24.8656 14.7084C24.7205 14.6231 24.5364 14.6183 24.3864 14.6987C24.0424 14.8833 23.6794 15.0297 23.3111 15.1339C23.1466 15.1813 23.0206 15.3088 22.9769 15.4745L22.6477 16.7562H20.5843L20.2551 15.4745C20.2115 15.3137 20.0904 15.1862 19.9259 15.1387C19.5432 15.0253 19.1847 14.8833 18.8605 14.7084C18.6281 14.5853 18.3327 14.6657 18.2016 14.8974C18.071 15.1246 18.158 15.413 18.3953 15.5409C18.7006 15.7062 19.0298 15.8481 19.3834 15.9616L19.7368 17.3475C19.7904 17.5554 19.984 17.707 20.2069 17.707H23.0255C23.2481 17.707 23.442 17.5602 23.4952 17.3475L23.8487 15.9616C24.1005 15.8767 24.3522 15.7773 24.5945 15.6591L25.8491 16.3967C26.0377 16.5101 26.2846 16.4771 26.4399 16.3259L28.4303 14.3818C28.5852 14.2306 28.619 13.9892 28.5028 13.805L27.7521 12.58C27.8683 12.3436 27.975 12.0975 28.062 11.8517L29.481 11.5062C29.6944 11.4543 29.8493 11.2653 29.8493 11.0477V8.29486C29.8493 8.07729 29.699 7.88823 29.481 7.83633L29.4715 7.81709Z" fill="#00D280"/>
</g>
<path d="M24.9927 9.65318C24.9927 9.7618 24.9871 9.87006 24.9762 9.97762C24.9653 10.0856 24.949 10.1928 24.9276 10.2991C24.9058 10.4056 24.879 10.5108 24.8466 10.6142C24.8146 10.7181 24.7772 10.8202 24.7346 10.9202C24.692 11.0206 24.6448 11.1185 24.5924 11.2141C24.5399 11.3096 24.4829 11.4024 24.4212 11.4929C24.3596 11.5829 24.2934 11.6699 24.223 11.7537C24.1525 11.8376 24.0782 11.9177 23.9997 11.9943C23.9213 12.071 23.8389 12.1439 23.7533 12.2126C23.6673 12.2814 23.5783 12.346 23.486 12.4061C23.3937 12.4663 23.2983 12.522 23.2005 12.5732C23.1025 12.6244 23.0022 12.6705 22.8998 12.7121C22.7972 12.7537 22.6927 12.7901 22.5867 12.8217C22.4804 12.853 22.3726 12.8795 22.2638 12.9004C22.155 12.9218 22.0451 12.9376 21.9346 12.9482C21.8244 12.9589 21.7134 12.964 21.6025 12.964C21.4913 12.964 21.3807 12.9589 21.2701 12.9482C21.1595 12.9376 21.05 12.9218 20.9409 12.9004C20.8321 12.8795 20.7243 12.853 20.6184 12.8217C20.512 12.7901 20.4074 12.7537 20.3049 12.7121C20.2025 12.6705 20.1021 12.6244 20.0042 12.5732C19.9064 12.522 19.8113 12.4663 19.7186 12.4061C19.6264 12.346 19.5373 12.2814 19.4518 12.2126C19.3659 12.1439 19.2834 12.071 19.2049 11.9943C19.1267 11.9177 19.0521 11.8376 18.9817 11.7537C18.9113 11.6699 18.8451 11.5829 18.7834 11.4929C18.7218 11.4024 18.6647 11.3096 18.6123 11.2141C18.5602 11.1185 18.5126 11.0206 18.47 10.9202C18.4278 10.8202 18.3905 10.7181 18.358 10.6142C18.326 10.5108 18.2989 10.4056 18.2771 10.2991C18.2556 10.1928 18.2394 10.0856 18.2285 9.97762C18.2176 9.87006 18.2119 9.7618 18.2119 9.65318C18.2119 9.54488 18.2176 9.43661 18.2285 9.32868C18.2394 9.22074 18.2556 9.11384 18.2771 9.00728C18.2989 8.90106 18.326 8.79588 18.358 8.69207C18.3905 8.58826 18.4278 8.48652 18.47 8.38615C18.5126 8.28612 18.5602 8.18816 18.6123 8.0926C18.6647 7.99704 18.7218 7.90388 18.7834 7.81382C18.8451 7.72377 18.9113 7.6368 18.9817 7.55293C19.0521 7.46906 19.1267 7.38897 19.2049 7.31231C19.2834 7.23531 19.3659 7.16279 19.4518 7.09404C19.5373 7.02529 19.6264 6.96066 19.7186 6.90051C19.8113 6.84002 19.9064 6.78433 20.0042 6.73346C20.1021 6.68224 20.2025 6.63584 20.3049 6.59459C20.4074 6.553 20.512 6.51656 20.6184 6.48494C20.7243 6.45366 20.8321 6.42719 20.9409 6.40588C21.05 6.38491 21.1595 6.3691 21.2701 6.35844C21.3807 6.34778 21.4913 6.34229 21.6025 6.34229C21.7134 6.34229 21.8244 6.34778 21.9346 6.35844C22.0451 6.3691 22.155 6.38491 22.2638 6.40588C22.3726 6.42719 22.4804 6.45366 22.5867 6.48494C22.6927 6.51656 22.7972 6.553 22.8998 6.59459C23.0022 6.63584 23.1025 6.68224 23.2005 6.73346C23.2983 6.78433 23.3937 6.84002 23.486 6.90051C23.5783 6.96066 23.6673 7.02529 23.7533 7.09404C23.8389 7.16279 23.9213 7.23531 23.9997 7.31231C24.0782 7.38897 24.1525 7.46906 24.223 7.55293C24.2934 7.6368 24.3596 7.72377 24.4212 7.81382C24.4829 7.90388 24.5399 7.99704 24.5924 8.0926C24.6448 8.18816 24.692 8.28612 24.7346 8.38615C24.7772 8.48652 24.8146 8.58826 24.8466 8.69207C24.879 8.79588 24.9058 8.90106 24.9276 9.00728C24.949 9.11384 24.9653 9.22074 24.9762 9.32868C24.9871 9.43661 24.9927 9.54488 24.9927 9.65318Z" fill="#00D280"/>
<mask id="mask1_31_2081" style="mask-type:luminance" maskUnits="userSpaceOnUse" x="0" y="5" width="18" height="25">
<path d="M0.772461 5.85254H17.2678V29.9896H0.772461V5.85254Z" fill="white"/>
</mask>
<g mask="url(#mask1_31_2081)">
<path d="M8.61712 5.87881C4.45207 6.06786 1.01343 9.40711 0.790897 13.4744C0.659914 15.8962 1.64334 18.2228 3.47886 19.8548C4.12778 20.4271 4.5394 21.2122 4.6313 22.0447C4.08412 22.2478 3.68695 22.7634 3.68695 23.3687C3.68695 24.1493 4.34081 24.7875 5.13974 24.7875V26.2065C5.13974 26.987 5.79359 27.6253 6.59286 27.6253C6.59286 28.9308 7.6777 29.9901 9.01429 29.9901C10.3509 29.9901 11.4357 28.9308 11.4357 27.6253C12.235 27.6253 12.8888 26.987 12.8888 26.2065V24.7875C13.6878 24.7875 14.3416 24.1493 14.3416 23.3687C14.3416 22.7586 13.9445 22.243 13.3924 22.0447C13.4842 21.2074 13.8765 20.4364 14.5015 19.8975C16.2447 18.3744 17.2475 16.1894 17.2475 13.9095C17.2475 11.6299 16.3415 9.62467 14.6952 8.09237C13.0533 6.55972 10.8885 5.77466 8.61712 5.87881ZM9.01429 29.0442C8.21501 29.0442 7.5615 28.4059 7.5615 27.6253H10.4671C10.4671 28.4059 9.81319 29.0442 9.01429 29.0442ZM12.8888 23.8417H5.13974C4.87354 23.8417 4.65559 23.6288 4.65559 23.3687C4.65559 23.1089 4.87354 22.8957 5.13974 22.8957H12.8888C13.155 22.8957 13.373 23.1089 13.373 23.3687C13.373 23.6288 13.155 23.8417 12.8888 23.8417ZM13.8525 19.188C13.0483 19.8926 12.5449 20.8763 12.4287 21.9498H11.4357V16.7473H12.0072C12.2107 17.2962 12.7434 17.6932 13.373 17.6932C14.1719 17.6932 14.8257 17.0549 14.8257 16.2743C14.8257 15.4941 14.1719 14.8554 13.373 14.8554C12.7434 14.8554 12.2107 15.2528 12.0072 15.8013H10.9516C10.685 15.8013 10.4671 16.0144 10.4671 16.2743V21.9498H9.49845V11.9327C10.0604 11.7341 10.4671 11.2137 10.4671 10.5988C10.4671 9.81852 9.81319 9.1799 9.01429 9.1799C8.21501 9.1799 7.5615 9.81852 7.5615 10.5988C7.5615 11.2137 7.96819 11.7341 8.52979 11.9327V21.9498H7.5615V13.9095C7.5615 13.6496 7.34355 13.4365 7.07701 13.4365H6.0214C5.81789 12.888 5.28516 12.4906 4.65559 12.4906C3.85632 12.4906 3.20281 13.1293 3.20281 13.9095C3.20281 14.6901 3.85632 15.3284 4.65559 15.3284C5.28516 15.3284 5.81789 14.9314 6.0214 14.3825H6.59286V21.9498H5.59994C5.47881 20.8856 4.96051 19.883 4.13236 19.1498C2.51022 17.712 1.64334 15.6642 1.75954 13.5266C1.95319 9.93676 4.9848 6.99006 8.66571 6.82473C10.6755 6.73021 12.5787 7.42521 14.0269 8.77809C15.4797 10.1258 16.2789 11.9517 16.2789 13.9095C16.2789 15.8677 15.3972 17.8448 13.8525 19.188Z" fill="#00D280"/>
</g>
</g>
</g>
</g>
<defs>
<clipPath id="clip0_31_2081">
<rect width="30" height="30" fill="white" transform="translate(0.330078 0.799805)"/>
</clipPath>
<clipPath id="clip1_31_2081">
<rect width="30" height="30" fill="white" transform="translate(0.330078 0.799805)"/>
</clipPath>
<clipPath id="clip2_31_2081">
<rect width="30" height="30" fill="white" transform="translate(0.330078 0.799805)"/>
</clipPath>
</defs>
</svg>
