<svg width="31" height="27" viewBox="0 0 31 27" fill="none" xmlns="http://www.w3.org/2000/svg">
<g clip-path="url(#clip0_31_2113)">
<g clip-path="url(#clip1_31_2113)">
<g clip-path="url(#clip2_31_2113)">
<path fill-rule="evenodd" clip-rule="evenodd" d="M20.3194 6.82105C16.0906 6.82105 12.5556 9.72486 11.6976 13.6009C11.6132 13.9821 11.2285 14.2234 10.8384 14.1412C10.4481 14.0595 10.1995 13.6838 10.2841 13.3033C11.2828 8.79163 15.3961 5.41064 20.3194 5.41064C25.99 5.41064 30.5864 9.89484 30.5864 15.4275C30.5864 20.9594 25.99 25.4443 20.3194 25.4443C19.4622 25.4443 18.629 25.3414 17.831 25.1481C17.2943 25.0171 16.7745 24.8457 16.2751 24.6366C15.9074 24.483 15.7377 24.0682 15.8955 23.7103C16.0525 23.3524 16.478 23.1864 16.8449 23.34C17.2738 23.5197 17.7197 23.6671 18.1803 23.7788C18.865 23.9448 19.5812 24.0332 20.3194 24.0332C25.1912 24.0332 29.1404 20.1805 29.1404 15.4275C29.1404 10.6744 25.1912 6.82105 20.3194 6.82105Z" fill="#00D280"/>
<path fill-rule="evenodd" clip-rule="evenodd" d="M20.319 10.1493C17.3298 10.1493 14.9069 12.5135 14.9069 15.4296C14.9069 18.3458 17.3298 20.7099 20.319 20.7099C23.3082 20.7099 25.7311 18.3458 25.7311 15.4296C25.7311 12.5135 23.3082 10.1493 20.319 10.1493ZM13.4609 15.4296C13.4609 11.7339 16.5311 8.73828 20.319 8.73828C24.1069 8.73828 27.1778 11.7339 27.1778 15.4296C27.1778 19.1254 24.1069 22.121 20.319 22.121C16.5311 22.121 13.4609 19.1254 13.4609 15.4296Z" fill="#00D280"/>
<path fill-rule="evenodd" clip-rule="evenodd" d="M19.8056 15.4948C20.088 15.2192 20.5458 15.2192 20.8283 15.4948L22.1777 16.8112C22.4602 17.0869 22.4602 17.5333 22.1777 17.8089C21.8953 18.0845 21.4375 18.0845 21.1558 17.8089L19.8056 16.4924C19.5231 16.2168 19.5231 15.7704 19.8056 15.4948Z" fill="#00D280"/>
<path fill-rule="evenodd" clip-rule="evenodd" d="M20.3164 11.3379C20.7157 11.3379 21.0398 11.6533 21.0398 12.0428V15.9936C21.0398 16.383 20.7157 16.6984 20.3164 16.6984C19.917 16.6984 19.5938 16.383 19.5938 15.9936V12.0428C19.5938 11.6533 19.917 11.3379 20.3164 11.3379Z" fill="#00D280"/>
<mask id="mask0_31_2113" style="mask-type:luminance" maskUnits="userSpaceOnUse" x="16" y="1" width="9" height="6">
<path d="M16.7031 1.34277H24.0958V6.42902H16.7031V1.34277Z" fill="white"/>
</mask>
<g mask="url(#mask0_31_2113)">
<path fill-rule="evenodd" clip-rule="evenodd" d="M16.8496 2.16844C16.8496 1.77898 17.1736 1.46289 17.5722 1.46289H23.3569C23.7562 1.46289 24.0795 1.77898 24.0795 2.16844V4.28439C24.0795 4.67453 23.7562 4.98994 23.3569 4.98994H22.6335V5.69548C22.6335 6.08494 22.3102 6.40103 21.9109 6.40103C21.5115 6.40103 21.1876 6.08494 21.1876 5.69548V4.28439C21.1876 3.89494 21.5115 3.57953 21.9109 3.57953H22.6335V2.87398H18.2956V3.57953H19.0182C19.4176 3.57953 19.7416 3.89494 19.7416 4.28439V5.69548C19.7416 6.08494 19.4176 6.40103 19.0182 6.40103C18.6196 6.40103 18.2956 6.08494 18.2956 5.69548V4.98994H17.5722C17.1736 4.98994 16.8496 4.67453 16.8496 4.28439V2.16844Z" fill="#00D280"/>
</g>
<path fill-rule="evenodd" clip-rule="evenodd" d="M27.5427 5.19794C27.8252 4.9223 28.283 4.9223 28.5654 5.19794L30.3727 6.96146C30.6551 7.23641 30.6551 7.68347 30.3727 7.95911L28.5654 9.72263C28.283 9.99761 27.8252 9.99761 27.5427 9.72263C27.2603 9.44703 27.2603 8.99995 27.5427 8.72498L28.8394 7.45994L28.054 6.69405L26.7581 7.95911L25.7354 6.96146L27.5427 5.19794Z" fill="#00D280"/>
<path fill-rule="evenodd" clip-rule="evenodd" d="M13.3836 5.19794C13.1012 4.9223 12.6434 4.9223 12.3609 5.19794L10.5536 6.96146C10.2712 7.23641 10.2712 7.68347 10.5536 7.95911L12.3609 9.72263C12.6434 9.99761 13.1012 9.99761 13.3836 9.72263C13.6661 9.44703 13.6661 8.99995 13.3836 8.72498L12.087 7.45994L12.8723 6.69405L14.1683 7.95911L15.191 6.96146L13.3836 5.19794Z" fill="#00D280"/>
<path fill-rule="evenodd" clip-rule="evenodd" d="M2.82324 21.9209C2.82324 21.5308 3.14723 21.2153 3.5466 21.2153H15.1145C15.5139 21.2153 15.8379 21.5308 15.8379 21.9209C15.8379 22.3104 15.5139 22.6258 15.1145 22.6258H3.5466C3.14723 22.6258 2.82324 22.3104 2.82324 21.9209Z" fill="#00D280"/>
<path fill-rule="evenodd" clip-rule="evenodd" d="M4.26465 19.0955C4.26465 18.706 4.58864 18.3906 4.988 18.3906H12.2179C12.6173 18.3906 12.9413 18.706 12.9413 19.0955C12.9413 19.485 12.6173 19.801 12.2179 19.801H4.988C4.58864 19.801 4.26465 19.485 4.26465 19.0955Z" fill="#00D280"/>
<path fill-rule="evenodd" clip-rule="evenodd" d="M1.375 16.2744C1.375 15.885 1.69899 15.5688 2.09835 15.5688H11.4969C11.8963 15.5688 12.2203 15.885 12.2203 16.2744C12.2203 16.6638 11.8963 16.98 11.4969 16.98H2.09835C1.69899 16.98 1.375 16.6638 1.375 16.2744Z" fill="#00D280"/>
</g>
</g>
</g>
<defs>
<clipPath id="clip0_31_2113">
<rect width="30" height="25.25" fill="white" transform="translate(0.980469 0.769531)"/>
</clipPath>
<clipPath id="clip1_31_2113">
<rect width="30" height="25.25" fill="white" transform="translate(0.980469 0.769531)"/>
</clipPath>
<clipPath id="clip2_31_2113">
<rect width="30" height="25.2632" fill="white" transform="translate(0.980469 0.763184)"/>
</clipPath>
</defs>
</svg>
