<svg width="66" height="66" viewBox="0 0 66 66" fill="none" xmlns="http://www.w3.org/2000/svg">
<rect x="0.5" y="0.5" width="65" height="65" rx="8" fill="#00D280" fill-opacity="0.2"/>
<g clip-path="url(#clip0_1_4285)">
<g clip-path="url(#clip1_1_4285)">
<g clip-path="url(#clip2_1_4285)">
<path d="M27.3848 35.7392C27.3848 35.2956 27.0252 34.936 26.5822 34.936H20.9671C20.5242 34.936 20.1653 35.2956 20.1653 35.7392V38.9509C20.1653 39.3945 20.5242 39.7541 20.9671 39.7541C21.41 39.7541 21.7689 39.3945 21.7689 38.9509V36.5423H26.5822C27.0252 36.5423 27.3848 36.1828 27.3848 35.7392Z" fill="#00D280"/>
<path d="M45.0319 34.936H39.4168C38.9739 34.936 38.615 35.2956 38.615 35.7392C38.615 36.1828 38.9739 36.5423 39.4168 36.5423H44.2301V38.9509C44.2301 39.3945 44.589 39.7541 45.0319 39.7541C45.4749 39.7541 45.8346 39.3945 45.8346 38.9509V35.7392C45.8346 35.2956 45.4749 34.936 45.0319 34.936Z" fill="#00D280"/>
<path d="M25.7804 38.1479C24.0111 38.1479 22.5715 39.5886 22.5715 41.3598C22.5715 43.1309 24.0111 44.5715 25.7804 44.5715C27.549 44.5715 28.9885 43.1309 28.9885 41.3598C28.9885 39.5886 27.549 38.1479 25.7804 38.1479ZM25.7804 42.9652C24.8953 42.9652 24.176 42.2453 24.176 41.3598C24.176 40.4742 24.8953 39.7543 25.7804 39.7543C26.6647 39.7543 27.3848 40.4742 27.3848 41.3598C27.3848 42.2453 26.6647 42.9652 25.7804 42.9652Z" fill="#00D280"/>
<path d="M40.2196 38.1479C38.4502 38.1479 37.0107 39.5886 37.0107 41.3598C37.0107 43.1309 38.4502 44.5715 40.2196 44.5715C41.9881 44.5715 43.4277 43.1309 43.4277 41.3598C43.4277 39.5886 41.9881 38.1479 40.2196 38.1479ZM40.2196 42.9652C39.3346 42.9652 38.6152 42.2453 38.6152 41.3598C38.6152 40.4742 39.3346 39.7543 40.2196 39.7543C41.1039 39.7543 41.8233 40.4742 41.8233 41.3598C41.8233 42.2453 41.1039 42.9652 40.2196 42.9652Z" fill="#00D280"/>
<path d="M34.9249 43.928C34.1804 44.4862 33.399 44.5703 33 44.5703C32.0694 44.5703 31.394 44.1675 31.0744 43.928C30.7203 43.6611 30.2169 43.735 29.9513 44.0882C29.6859 44.4431 29.7574 44.9463 30.1116 45.2125C30.5914 45.572 31.6037 46.1757 33 46.1757C33.5993 46.1757 34.771 46.0509 35.8877 45.2125C36.2419 44.9463 36.3142 44.4431 36.0479 44.0882C35.7833 43.735 35.2807 43.6611 34.9249 43.928Z" fill="#00D280"/>
<mask id="mask0_1_4285" style="mask-type:luminance" maskUnits="userSpaceOnUse" x="12" y="25" width="42" height="28">
<path d="M12.9456 25.2153H53.0543V52.5988H12.9456V25.2153Z" fill="white"/>
</mask>
<g mask="url(#mask0_1_4285)">
<path d="M52.4119 36.5587L49.0428 35.8843V32.5281C49.0428 32.0869 48.6823 31.7258 48.2409 31.7258H46.163C45.7059 30.3283 44.9519 29.0518 43.9169 28.032C42.1687 26.2734 39.8425 25.3022 37.3554 25.3022C36.4813 25.3022 35.6064 25.5111 34.8203 25.9044C33.6816 26.4666 32.3174 26.4666 31.1787 25.9044C30.3926 25.5111 29.5185 25.3022 28.6437 25.3022C24.585 25.3022 21.0471 27.9119 19.8118 31.7258H17.7581C17.3167 31.7258 16.9563 32.0869 16.9563 32.5281V35.8843L13.5872 36.5587C13.2181 36.6309 12.9456 36.9607 12.9456 37.3462V43.7688C12.9456 44.1543 13.2181 44.4833 13.5872 44.5555L16.9563 45.2299V48.5861C16.9563 49.0281 17.3167 49.3892 17.7581 49.3892H19.3625C19.3625 51.1635 20.7981 52.601 22.5715 52.601H43.4276C45.2009 52.601 46.6365 51.1635 46.6365 49.3892H48.2409C48.6823 49.3892 49.0428 49.0281 49.0428 48.5861V45.2299L52.4119 44.5555C52.781 44.4833 53.0543 44.1543 53.0543 43.7688V37.3462C53.0543 36.9607 52.781 36.6309 52.4119 36.5587ZM16.9563 43.5923L14.5492 43.111V38.004L16.9563 37.5228V43.5923ZM28.6437 26.9078C29.2695 26.9078 29.8955 27.0609 30.457 27.3333C32.0292 28.1207 33.9706 28.1207 35.5428 27.3333C36.1043 27.0609 36.7295 26.9078 37.3554 26.9078C39.409 26.9078 41.3339 27.7109 42.786 29.1641C43.5163 29.895 44.0935 30.7617 44.4784 31.7258H21.5206C22.6758 28.843 25.467 26.9078 28.6437 26.9078ZM43.4276 50.9947H22.5715C21.6887 50.9947 20.967 50.2725 20.967 49.3892H45.0321C45.0321 50.2725 44.3103 50.9947 43.4276 50.9947ZM47.4391 47.7838H18.5607V33.3313H47.4391V47.7838ZM51.4498 43.111L49.0428 43.5923V37.5228L51.4498 38.004V43.111Z" fill="#00D280"/>
</g>
<path d="M29.6184 19.6591C29.6184 19.6591 29.0969 22.7028 29.0953 22.713C28.9846 23.3576 29.6811 23.8624 30.2592 23.5593L33 22.1179L35.7401 23.5593C36.2898 23.849 37.0162 23.3725 36.9039 22.713L36.3809 19.6591C36.3809 19.6591 38.5924 17.5017 38.5971 17.4962C39.066 17.0393 38.7981 16.2204 38.1526 16.1262L35.089 15.6811L33.7194 12.9027C33.4492 12.3547 32.5508 12.3547 32.2798 12.9027L30.9103 15.6811C30.9103 15.6811 27.8576 16.1246 27.8475 16.1262C27.1995 16.2204 26.9349 17.0393 27.4022 17.4962L29.6184 19.6591ZM31.5581 17.2096C31.8197 17.1719 32.0459 17.0079 32.1628 16.77L33 15.0726L33.8364 16.77C33.9542 17.0079 34.1796 17.1719 34.4411 17.2096L36.3133 17.482L34.9586 18.8033C34.7694 18.9878 34.6838 19.254 34.7278 19.5138L35.0481 21.3807C35.0481 21.3807 33.3746 20.5007 33.373 20.4999C33.1587 20.3868 32.8634 20.3751 32.6262 20.4999L30.9519 21.3807L31.2715 19.5138C31.3154 19.254 31.2299 18.9878 31.0406 18.8033L29.6859 17.482L31.5581 17.2096Z" fill="#00D280"/>
<path d="M15.9818 22.0665C15.9818 22.0665 15.4596 25.1158 15.4588 25.1205C15.348 25.7658 16.0415 26.2715 16.6226 25.9668L19.3627 24.5254L22.1027 25.9668C22.6784 26.2682 23.3773 25.765 23.2674 25.1205L22.7435 22.0665L24.9606 19.9036C25.1788 19.6901 25.2575 19.3714 25.1632 19.0809C25.0689 18.7904 24.8176 18.5777 24.5153 18.5345L21.4517 18.0885L20.082 15.3102C19.8119 14.7622 18.9135 14.7622 18.6433 15.3102L17.2737 18.0885C17.2737 18.0885 14.2227 18.5321 14.2101 18.5345C13.5638 18.6279 13.2975 19.4467 13.7648 19.9036L15.9818 22.0665ZM17.9216 19.6171C18.1831 19.5794 18.4085 19.4153 18.5255 19.1774L19.3627 17.4801L20.1999 19.1774C20.3169 19.4153 20.5423 19.5794 20.8046 19.6171L22.6768 19.8895L21.3213 21.2108C21.1328 21.3953 21.0464 21.6614 21.0912 21.9221L21.4108 23.789L19.7357 22.9073C19.5001 22.7825 19.2252 22.7833 18.9896 22.9073L17.3145 23.789L17.6349 21.9221C17.6789 21.6614 17.5925 21.3953 17.4041 21.2108L16.0493 19.8895L17.9216 19.6171Z" fill="#00D280"/>
<path d="M43.2558 22.0665C43.2558 22.0665 42.7343 25.1071 42.7328 25.1205C42.6236 25.7564 43.3257 26.2659 43.8966 25.9668L46.6366 24.5254L49.3766 25.9668C49.9507 26.2674 50.6505 25.7627 50.5413 25.1205L50.0175 22.0665C50.0175 22.0665 52.2267 19.9115 52.2345 19.9036C52.701 19.4483 52.4332 18.6279 51.7892 18.5345L48.7256 18.0885L47.356 15.3102C47.0858 14.7622 46.1874 14.7622 45.9172 15.3102L44.5476 18.0885C44.5476 18.0885 41.4919 18.5329 41.484 18.5345C40.8377 18.6279 40.5714 19.4467 41.0388 19.9036L43.2558 22.0665ZM45.1955 19.6171C45.457 19.5794 45.6824 19.4153 45.7995 19.1774L46.6366 17.4801L47.4738 19.1774C47.5908 19.4153 47.8162 19.5794 48.0777 19.6171L49.9507 19.8895L48.5952 21.2108C48.4068 21.3953 48.3204 21.6614 48.3652 21.9221L48.6848 23.789L47.0097 22.9073C46.7764 22.7841 46.4968 22.7841 46.2636 22.9073L44.5885 23.789L44.9089 21.9221C44.9528 21.6614 44.8665 21.3953 44.678 21.2108L43.3233 19.8895L45.1955 19.6171Z" fill="#00D280"/>
</g>
</g>
</g>
<defs>
<clipPath id="clip0_1_4285">
<rect width="41" height="40.09" fill="white" transform="translate(12.5 12.5)"/>
</clipPath>
<clipPath id="clip1_1_4285">
<rect width="41" height="40.09" fill="white" transform="translate(12.5 12.5)"/>
</clipPath>
<clipPath id="clip2_1_4285">
<rect width="41" height="40.1087" fill="white" transform="translate(12.5 12.4907)"/>
</clipPath>
</defs>
</svg>
