<svg width="66" height="65" viewBox="0 0 66 65" fill="none" xmlns="http://www.w3.org/2000/svg">
<rect x="0.5" width="65" height="65" rx="8" fill="#00D280" fill-opacity="0.2"/>
<g clip-path="url(#clip0_1_4285)">
<g clip-path="url(#clip1_1_4285)">
<g clip-path="url(#clip2_1_4285)">
<path d="M27.3848 35.2392C27.3848 34.7956 27.0252 34.436 26.5822 34.436H20.9671C20.5242 34.436 20.1653 34.7956 20.1653 35.2392V38.4509C20.1653 38.8945 20.5242 39.2541 20.9671 39.2541C21.41 39.2541 21.7689 38.8945 21.7689 38.4509V36.0423H26.5822C27.0252 36.0423 27.3848 35.6828 27.3848 35.2392Z" fill="#00D280"/>
<path d="M45.0319 34.436H39.4168C38.9739 34.436 38.615 34.7956 38.615 35.2392C38.615 35.6828 38.9739 36.0423 39.4168 36.0423H44.2301V38.4509C44.2301 38.8945 44.589 39.2541 45.0319 39.2541C45.4749 39.2541 45.8346 38.8945 45.8346 38.4509V35.2392C45.8346 34.7956 45.4749 34.436 45.0319 34.436Z" fill="#00D280"/>
<path d="M25.7804 37.6479C24.0111 37.6479 22.5715 39.0886 22.5715 40.8598C22.5715 42.6309 24.0111 44.0715 25.7804 44.0715C27.549 44.0715 28.9885 42.6309 28.9885 40.8598C28.9885 39.0886 27.549 37.6479 25.7804 37.6479ZM25.7804 42.4652C24.8953 42.4652 24.176 41.7453 24.176 40.8598C24.176 39.9742 24.8953 39.2543 25.7804 39.2543C26.6647 39.2543 27.3848 39.9742 27.3848 40.8598C27.3848 41.7453 26.6647 42.4652 25.7804 42.4652Z" fill="#00D280"/>
<path d="M40.2196 37.6479C38.4502 37.6479 37.0107 39.0886 37.0107 40.8598C37.0107 42.6309 38.4502 44.0715 40.2196 44.0715C41.9881 44.0715 43.4277 42.6309 43.4277 40.8598C43.4277 39.0886 41.9881 37.6479 40.2196 37.6479ZM40.2196 42.4652C39.3346 42.4652 38.6152 41.7453 38.6152 40.8598C38.6152 39.9742 39.3346 39.2543 40.2196 39.2543C41.1039 39.2543 41.8233 39.9742 41.8233 40.8598C41.8233 41.7453 41.1039 42.4652 40.2196 42.4652Z" fill="#00D280"/>
<path d="M34.9249 43.428C34.1804 43.9862 33.399 44.0703 33 44.0703C32.0694 44.0703 31.394 43.6675 31.0744 43.428C30.7203 43.1611 30.2169 43.235 29.9513 43.5882C29.6859 43.9431 29.7574 44.4463 30.1116 44.7125C30.5914 45.072 31.6037 45.6757 33 45.6757C33.5993 45.6757 34.771 45.5509 35.8877 44.7125C36.2419 44.4463 36.3142 43.9431 36.0479 43.5882C35.7833 43.235 35.2807 43.1611 34.9249 43.428Z" fill="#00D280"/>
<mask id="mask0_1_4285" style="mask-type:luminance" maskUnits="userSpaceOnUse" x="12" y="24" width="42" height="29">
<path d="M12.9456 24.7153H53.0543V52.0988H12.9456V24.7153Z" fill="white"/>
</mask>
<g mask="url(#mask0_1_4285)">
<path d="M52.4119 36.0587L49.0428 35.3843V32.0281C49.0428 31.5869 48.6823 31.2258 48.2409 31.2258H46.163C45.7059 29.8283 44.9519 28.5518 43.9169 27.532C42.1687 25.7734 39.8425 24.8022 37.3554 24.8022C36.4813 24.8022 35.6064 25.0111 34.8203 25.4044C33.6816 25.9666 32.3174 25.9666 31.1787 25.4044C30.3926 25.0111 29.5185 24.8022 28.6437 24.8022C24.585 24.8022 21.0471 27.4119 19.8118 31.2258H17.7581C17.3167 31.2258 16.9563 31.5869 16.9563 32.0281V35.3843L13.5872 36.0587C13.2181 36.1309 12.9456 36.4607 12.9456 36.8462V43.2688C12.9456 43.6543 13.2181 43.9833 13.5872 44.0555L16.9563 44.7299V48.0861C16.9563 48.5281 17.3167 48.8892 17.7581 48.8892H19.3625C19.3625 50.6635 20.7981 52.101 22.5715 52.101H43.4276C45.2009 52.101 46.6365 50.6635 46.6365 48.8892H48.2409C48.6823 48.8892 49.0428 48.5281 49.0428 48.0861V44.7299L52.4119 44.0555C52.781 43.9833 53.0543 43.6543 53.0543 43.2688V36.8462C53.0543 36.4607 52.781 36.1309 52.4119 36.0587ZM16.9563 43.0923L14.5492 42.611V37.504L16.9563 37.0228V43.0923ZM28.6437 26.4078C29.2695 26.4078 29.8955 26.5609 30.457 26.8333C32.0292 27.6207 33.9706 27.6207 35.5428 26.8333C36.1043 26.5609 36.7295 26.4078 37.3554 26.4078C39.409 26.4078 41.3339 27.2109 42.786 28.6641C43.5163 29.395 44.0935 30.2617 44.4784 31.2258H21.5206C22.6758 28.343 25.467 26.4078 28.6437 26.4078ZM43.4276 50.4947H22.5715C21.6887 50.4947 20.967 49.7725 20.967 48.8892H45.0321C45.0321 49.7725 44.3103 50.4947 43.4276 50.4947ZM47.4391 47.2838H18.5607V32.8313H47.4391V47.2838ZM51.4498 42.611L49.0428 43.0923V37.0228L51.4498 37.504V42.611Z" fill="#00D280"/>
</g>
<path d="M29.6184 19.1591C29.6184 19.1591 29.0969 22.2028 29.0953 22.213C28.9846 22.8576 29.6811 23.3624 30.2592 23.0593L33 21.6179L35.7401 23.0593C36.2898 23.349 37.0162 22.8725 36.9039 22.213L36.3809 19.1591C36.3809 19.1591 38.5924 17.0017 38.5971 16.9962C39.066 16.5393 38.7981 15.7204 38.1526 15.6262L35.089 15.1811L33.7194 12.4027C33.4492 11.8547 32.5508 11.8547 32.2798 12.4027L30.9103 15.1811C30.9103 15.1811 27.8576 15.6246 27.8475 15.6262C27.1995 15.7204 26.9349 16.5393 27.4022 16.9962L29.6184 19.1591ZM31.5581 16.7096C31.8197 16.6719 32.0459 16.5079 32.1628 16.27L33 14.5726L33.8364 16.27C33.9542 16.5079 34.1796 16.6719 34.4411 16.7096L36.3133 16.982L34.9586 18.3033C34.7694 18.4878 34.6838 18.754 34.7278 19.0138L35.0481 20.8807C35.0481 20.8807 33.3746 20.0007 33.373 19.9999C33.1587 19.8868 32.8634 19.8751 32.6262 19.9999L30.9519 20.8807L31.2715 19.0138C31.3154 18.754 31.2299 18.4878 31.0406 18.3033L29.6859 16.982L31.5581 16.7096Z" fill="#00D280"/>
<path d="M15.9818 21.5665C15.9818 21.5665 15.4596 24.6158 15.4588 24.6205C15.348 25.2658 16.0415 25.7715 16.6226 25.4668L19.3627 24.0254L22.1027 25.4668C22.6784 25.7682 23.3773 25.265 23.2674 24.6205L22.7435 21.5665L24.9606 19.4036C25.1788 19.1901 25.2575 18.8714 25.1632 18.5809C25.0689 18.2904 24.8176 18.0777 24.5153 18.0345L21.4517 17.5885L20.082 14.8102C19.8119 14.2622 18.9135 14.2622 18.6433 14.8102L17.2737 17.5885C17.2737 17.5885 14.2227 18.0321 14.2101 18.0345C13.5638 18.1279 13.2975 18.9467 13.7648 19.4036L15.9818 21.5665ZM17.9216 19.1171C18.1831 19.0794 18.4085 18.9153 18.5255 18.6774L19.3627 16.9801L20.1999 18.6774C20.3169 18.9153 20.5423 19.0794 20.8046 19.1171L22.6768 19.3895L21.3213 20.7108C21.1328 20.8953 21.0464 21.1614 21.0912 21.4221L21.4108 23.289L19.7357 22.4073C19.5001 22.2825 19.2252 22.2833 18.9896 22.4073L17.3145 23.289L17.6349 21.4221C17.6789 21.1614 17.5925 20.8953 17.4041 20.7108L16.0493 19.3895L17.9216 19.1171Z" fill="#00D280"/>
<path d="M43.2558 21.5665C43.2558 21.5665 42.7343 24.6071 42.7328 24.6205C42.6236 25.2564 43.3257 25.7659 43.8966 25.4668L46.6366 24.0254L49.3766 25.4668C49.9507 25.7674 50.6505 25.2627 50.5413 24.6205L50.0175 21.5665C50.0175 21.5665 52.2267 19.4115 52.2345 19.4036C52.701 18.9483 52.4332 18.1279 51.7892 18.0345L48.7256 17.5885L47.356 14.8102C47.0858 14.2622 46.1874 14.2622 45.9172 14.8102L44.5476 17.5885C44.5476 17.5885 41.4919 18.0329 41.484 18.0345C40.8377 18.1279 40.5714 18.9467 41.0388 19.4036L43.2558 21.5665ZM45.1955 19.1171C45.457 19.0794 45.6824 18.9153 45.7995 18.6774L46.6366 16.9801L47.4738 18.6774C47.5908 18.9153 47.8162 19.0794 48.0777 19.1171L49.9507 19.3895L48.5952 20.7108C48.4068 20.8953 48.3204 21.1614 48.3652 21.4221L48.6848 23.289L47.0097 22.4073C46.7764 22.2841 46.4968 22.2841 46.2636 22.4073L44.5885 23.289L44.9089 21.4221C44.9528 21.1614 44.8665 20.8953 44.678 20.7108L43.3233 19.3895L45.1955 19.1171Z" fill="#00D280"/>
</g>
</g>
</g>
<defs>
<clipPath id="clip0_1_4285">
<rect width="41" height="40.09" fill="white" transform="translate(12.5 12)"/>
</clipPath>
<clipPath id="clip1_1_4285">
<rect width="41" height="40.09" fill="white" transform="translate(12.5 12)"/>
</clipPath>
<clipPath id="clip2_1_4285">
<rect width="41" height="40.1087" fill="white" transform="translate(12.5 11.9907)"/>
</clipPath>
</defs>
</svg>
