<svg width="56" height="55" viewBox="0 0 56 55" fill="none" xmlns="http://www.w3.org/2000/svg">
<g clip-path="url(#clip0_1_4465)">
<g clip-path="url(#clip1_1_4465)">
<g clip-path="url(#clip2_1_4465)">
<path d="M48.0554 15.5532C47.9045 15.1051 47.5347 14.7355 47.0123 14.5101C47.1268 13.4997 46.9585 12.2597 46.6704 11.2394C46.4273 10.4002 46.0421 9.46271 45.4571 8.48522C44.8358 7.51771 44.0721 6.49027 42.9994 5.54273C41.9805 4.56237 40.6683 3.67049 39.1878 2.88421C26.2672 -3.8527 8.42765 4.11429 9.81274 14.5129C9.29551 14.7384 8.92927 15.1051 8.77827 15.5503C5.71996 15.5946 3.26221 17.4625 3.26221 19.77C3.26221 22.0775 5.71996 23.9483 8.77827 23.994C9.02127 24.7203 9.85788 25.2726 10.9027 25.2726C12.1403 25.2726 13.1384 24.5205 13.1384 23.5901V15.9556C13.1384 15.4262 12.7947 14.9724 12.2914 14.6656C12.8502 12.0371 14.513 9.25867 16.8441 7.53483C20.2652 4.79355 26.2012 3.21099 32.7292 4.40541C35.2408 5.01902 37.7124 6.0536 39.7727 7.71036C42.0673 9.40275 43.928 11.9414 44.5354 14.6656C43.2146 15.4719 43.6884 16.1669 43.6884 23.5901C43.6884 24.1709 44.1068 24.6589 44.6986 24.9601V25.6079C44.6986 26.016 44.5581 26.4185 44.2873 26.7653C41.3678 30.5068 41.1751 30.8878 36.763 32.048C35.3744 32.4119 33.8088 32.5688 32.2242 32.8871C30.7644 31.7013 28.1903 32.4818 28.1903 34.0672C28.1903 36.0707 31.9951 36.5303 32.7327 34.5268C33.8019 34.3127 34.9023 34.1857 35.9368 33.9273C41.6282 32.5046 43.4888 31.6585 46.502 26.935C46.7866 26.4869 46.9377 25.9904 46.9377 25.4866V25.0699C47.5 24.8502 47.8975 24.4635 48.0554 23.9911C51.1086 23.9455 53.5646 22.0775 53.5646 19.77C53.5646 17.4654 51.1086 15.6003 48.0554 15.5532Z" fill="white"/>
<mask id="mask0_1_4465" style="mask-type:luminance" maskUnits="userSpaceOnUse" x="1" y="34" width="55" height="21">
<path d="M1.43091 34.4612H55.5293V54.4935H1.43091V34.4612Z" fill="white"/>
</mask>
<g mask="url(#mask0_1_4465)">
<path d="M28.4196 42.8462C30.2473 40.7386 31.8372 38.9277 33.3975 37.0996C35.2252 34.9549 37.0651 34.2628 39.9515 35.0619C43.6191 36.0794 47.2502 37.2181 50.8014 38.4882C53.8476 39.5784 55.559 41.5277 55.3699 44.4188C55.2744 45.8416 55.3699 47.27 55.3472 48.6955C55.2847 52.6227 53.1082 54.4507 48.3732 54.4706C42.2618 54.5007 36.1504 54.4821 30.0372 54.4821C22.9347 54.4821 15.8288 54.4963 8.72976 54.4735C3.64936 54.4536 1.5075 52.6698 1.47973 48.5172C1.46932 47.1601 1.56131 45.7988 1.4589 44.4459C1.23326 41.4378 3.11823 39.5056 6.22688 38.4011C9.78159 37.1382 13.43 36.0423 17.1045 35.0434C20.2375 34.1857 21.2077 34.5696 23.1482 36.8028C24.818 38.7279 26.4999 40.6458 28.4196 42.8462Z" fill="white"/>
</g>
<path d="M41.3677 17.7782C41.0311 21.3229 39.6702 25.8509 35.1488 29.3384C31.3163 32.2938 25.4688 32.3666 21.697 29.3413C16.4726 25.1459 14.8255 19.8132 15.6342 14.0552C16.056 11.0428 18.2899 8.67109 22.0442 7.66219C27.6245 6.16098 33.0312 6.01115 37.9432 9.22051C40.8123 11.0913 41.4667 13.6599 41.3677 17.7782Z" fill="white"/>
</g>
</g>
</g>
<defs>
<clipPath id="clip0_1_4465">
<rect width="55" height="55" fill="white" transform="translate(0.97998)"/>
</clipPath>
<clipPath id="clip1_1_4465">
<rect width="55" height="55" fill="white" transform="translate(0.97998)"/>
</clipPath>
<clipPath id="clip2_1_4465">
<rect width="55" height="55" fill="white" transform="translate(0.97998)"/>
</clipPath>
</defs>
</svg>
