<svg width="56" height="56" viewBox="0 0 56 56" fill="none" xmlns="http://www.w3.org/2000/svg">
<g clip-path="url(#clip0_1_4533)">
<g clip-path="url(#clip1_1_4533)">
<g clip-path="url(#clip2_1_4533)">
<mask id="mask0_1_4533" style="mask-type:luminance" maskUnits="userSpaceOnUse" x="0" y="0" width="56" height="56">
<path d="M0.97998 0.5H55.98V55.5H0.97998V0.5Z" fill="white"/>
</mask>
<g mask="url(#mask0_1_4533)">
<path d="M55.5996 8.43193C55.2728 7.90527 54.7536 7.58298 54.1919 7.47181C53.9502 7.25957 53.7096 7.04509 53.4254 6.88226L43.6277 1.20461C42.0857 0.312982 40.1756 0.312982 38.6337 1.20461L28.8381 6.88114C28.705 6.95749 28.6031 7.06979 28.4789 7.15738C28.3558 7.06979 28.254 6.95862 28.122 6.88226L18.3242 1.20461C16.7823 0.312982 14.8721 0.312982 13.3302 1.20461L3.53691 6.88002C3.25157 7.04509 3.00987 7.26069 2.76593 7.47405C2.20532 7.58411 1.68724 7.90639 1.36049 8.43193C1.01361 8.99341 0.980041 9.64247 1.17027 10.2264C1.10425 10.5521 1.03711 10.8811 1.03711 11.2202V22.5755C1.03711 24.361 1.99496 26.0241 3.53354 26.9158L13.3336 32.5945C13.4746 32.6754 13.63 32.7102 13.7767 32.7765C13.7465 32.9988 13.6882 33.2133 13.6882 33.4401V44.7942C13.6882 46.5798 14.6461 48.2428 16.1847 49.1345L25.9847 54.8133C26.7546 55.258 27.6162 55.4803 28.4778 55.4803C29.3405 55.4803 30.2055 55.258 30.9765 54.8121L40.7743 49.1345C42.314 48.2428 43.2707 46.5798 43.2707 44.7942V33.4401C43.2707 33.2133 43.2125 32.9988 43.1823 32.7765C43.3288 32.7102 43.4855 32.6743 43.6277 32.5934L53.4254 26.9158C54.9651 26.0241 55.9218 24.361 55.9218 22.5755V11.2202C55.9218 10.8811 55.8569 10.5532 55.7898 10.2264C55.9789 9.64247 55.9465 8.99341 55.5984 8.43193H55.5996ZM40.7743 4.92159C40.8839 4.85869 41.007 4.82725 41.1312 4.82725C41.2565 4.82725 41.3785 4.85869 41.4882 4.92159L49.6231 9.63574L41.1312 14.9417L32.6404 9.63574L40.7743 4.92159ZM28.48 37.1616L19.9892 31.8556L28.1231 27.1414C28.2327 27.0786 28.3558 27.046 28.48 27.046C28.6053 27.046 28.7274 27.0786 28.837 27.1414L36.972 31.8556L28.48 37.1616ZM38.9917 27.8388L30.9776 23.1954C30.7571 23.0674 30.6206 22.8304 30.6206 22.5744V13.4347L38.9917 18.6643V27.8388ZM26.3405 13.4347V22.5744C26.3405 22.8304 26.2051 23.0674 25.9836 23.1954L17.9694 27.8399V18.6654L26.3405 13.4358V13.4347ZM15.4719 4.92159C15.5816 4.85869 15.7046 4.82725 15.8288 4.82725C15.9542 4.82725 16.0762 4.85869 16.1858 4.92159L24.3208 9.63574L15.8288 14.9417L7.33808 9.63574L15.4719 4.92159ZM5.67415 23.1954C5.45371 23.0674 5.3172 22.8304 5.3172 22.5744V13.4347L13.6882 18.6643V27.8388L5.67415 23.1954ZM18.3253 45.413C18.1048 45.2861 17.9683 45.0481 17.9683 44.792V35.6523L26.3394 40.883V50.0576L18.3253 45.413ZM38.6348 45.413L30.6206 50.0587V40.8842L38.9917 35.6534V44.7931C38.9917 45.0492 38.8563 45.2872 38.6348 45.4142V45.413ZM51.286 23.1954L43.2718 27.8399V18.6654L51.6429 13.4358V22.5755C51.6429 22.8315 51.5074 23.0685 51.286 23.1966V23.1954Z" fill="white"/>
</g>
</g>
</g>
</g>
<defs>
<clipPath id="clip0_1_4533">
<rect width="55" height="55" fill="white" transform="translate(0.97998 0.5)"/>
</clipPath>
<clipPath id="clip1_1_4533">
<rect width="55" height="55" fill="white" transform="translate(0.97998 0.5)"/>
</clipPath>
<clipPath id="clip2_1_4533">
<rect width="55" height="55" fill="white" transform="translate(0.97998 0.5)"/>
</clipPath>
</defs>
</svg>
