<svg width="46" height="46" viewBox="0 0 46 46" fill="none" xmlns="http://www.w3.org/2000/svg">
<g clip-path="url(#clip0_1_4670)">
<g clip-path="url(#clip1_1_4670)">
<g clip-path="url(#clip2_1_4670)">
<mask id="mask0_1_4670" style="mask-type:luminance" maskUnits="userSpaceOnUse" x="22" y="21" width="24" height="25">
<path d="M22.1763 21.3481H45.7198V45.6911H22.1763V21.3481Z" fill="white"/>
</mask>
<g mask="url(#mask0_1_4670)">
<path d="M45.0867 34.3404C44.8052 33.1138 44.5266 31.895 44.2156 30.6811C43.9945 29.8411 43.9267 28.9583 43.4815 28.1929C43.0805 27.5193 42.0708 27.0312 41.3382 27.1405C40.7943 27.2293 40.3447 27.4718 39.9276 27.8664C39.5443 27.1009 38.996 26.6223 38.2118 26.4892C37.4394 26.3592 36.7687 26.5954 36.2012 27.177C35.6189 26.0724 34.4957 25.5145 33.3887 25.9012C33.0703 26.0106 32.7504 26.1992 32.4482 26.4765C32.3628 26.1865 32.2773 25.8965 32.1903 25.6064C32.0193 25.0121 31.8468 24.4178 31.6876 23.8251C31.4474 22.8884 31.0258 22.1499 30.106 21.8187C28.6393 21.2909 27.1063 22.4304 27.1092 24.0089C27.1092 24.5414 27.2404 25.0787 27.3878 25.6064C27.4498 25.8426 27.5235 26.0724 27.5839 26.2958C28.1411 28.2943 28.713 30.2864 29.2849 32.2786C29.5296 33.1455 29.7758 34.006 30.0205 34.8698C30.193 35.4625 30.3551 36.0568 30.5526 36.7509C29.0152 36.1757 27.5647 35.6685 26.1364 35.1027C26.0229 35.0584 25.9094 35.0187 25.79 34.9886H25.7856C24.7758 34.724 23.6777 35.0013 22.9524 35.9253C22.8345 36.0742 22.7402 36.2327 22.6665 36.3944C22.2184 37.3627 22.5073 38.4927 23.4389 39.0379C24.2614 39.5212 25.0957 39.984 25.9212 40.4547C26.8528 40.9824 27.7844 41.5149 28.7174 42.0379C30.5143 43.0459 32.3053 44.0887 34.1287 45.0507C35.243 45.6403 36.4577 45.7068 37.6605 45.4295C38.4771 45.2361 39.2746 44.9667 40.0764 44.7211C41.4208 44.3122 42.7002 43.767 43.7011 42.6576C44.9157 41.3263 45.5643 39.7336 45.6424 37.8587C45.6926 36.6368 45.3565 35.4973 45.0867 34.3404Z" fill="#00D280"/>
</g>
<mask id="mask1_1_4670" style="mask-type:luminance" maskUnits="userSpaceOnUse" x="0" y="0" width="36" height="38">
<path d="M0.720215 0.689941H35.0066V37.5752H0.720215V0.689941Z" fill="white"/>
</mask>
<g mask="url(#mask1_1_4670)">
<path d="M21.7592 26.8373C21.7592 26.075 22.0997 25.3903 22.6245 24.945H15.9352C16.4615 25.3903 16.8049 26.0813 16.802 26.8468C16.7975 28.1622 15.7908 29.2399 14.5629 29.2399C13.3262 29.2414 12.3341 28.1796 12.3297 26.8499C12.3253 25.6993 13.0756 24.7278 14.075 24.487C13.59 24.1209 13.2554 23.5487 13.1331 22.8245C13.0387 22.2619 13.1375 21.7167 13.3792 21.2095C13.4868 20.9861 13.4839 20.788 13.4117 20.5518C12.4005 17.2902 11.3966 14.0255 10.3928 10.7608C10.1776 10.0635 9.73241 9.72431 9.0455 9.72273C8.59297 9.71956 8.14044 9.71322 7.68791 9.72431C7.38278 9.73224 7.14251 9.63398 7.00542 9.32652C6.97152 9.14902 7.00542 9.05552 7.00542 9.05552C7.11892 8.7544 7.32676 8.63078 7.62894 8.64188C8.17139 8.65455 8.71532 8.62603 9.25777 8.65772C10.1717 8.71002 10.8409 9.20449 11.2153 10.0936C11.4129 10.5627 11.5367 11.065 11.6841 11.5579C11.7268 11.7006 11.7814 11.7655 11.9406 11.7671C13.5694 11.7925 15.1967 11.8147 16.8256 11.8384L23.2937 11.9335C23.4868 11.9383 23.6784 11.9399 23.8715 11.943C25.1672 11.9605 26.4629 11.9842 27.7571 12.0017C28.0431 12.0048 28.2715 12.1063 28.4145 12.3852V12.7006C28.304 13.1586 28.1846 13.6166 28.0814 14.0762C27.7954 15.3583 27.5198 16.6389 27.2323 17.9163C26.8977 19.3981 25.9381 20.2206 24.4641 20.3506C23.4381 20.4393 22.4151 20.574 21.3922 20.6897C20.3957 20.8006 19.3992 20.91 18.4028 21.0225C17.399 21.135 16.3951 21.2507 15.3913 21.3664C15.0935 21.3997 14.7943 21.4314 14.498 21.4694C14.4523 21.4758 14.3831 21.5011 14.3654 21.5408C14.1148 22.0431 13.9969 22.5582 14.2533 23.1034C14.4789 23.5757 14.8415 23.8261 15.3323 23.8609C15.4768 23.872 15.6257 23.8673 15.7701 23.8673C18.7816 23.8673 21.7916 23.8657 24.8016 23.8673C24.9122 23.8673 25.0227 23.8784 25.1318 23.9037C25.3647 23.9624 25.5151 24.1779 25.5047 24.4267C25.5003 24.609 25.406 24.7706 25.2674 24.8626C25.8526 25.3 26.2403 26.029 26.2403 26.8373C26.2388 28.1638 25.2247 29.2462 23.9879 29.2399C22.7586 29.2335 21.7592 28.1574 21.7592 26.8373ZM25.0522 34.0118C25.5151 34.0118 25.9779 34.1005 26.4187 34.2764C26.5204 34.3161 26.6221 34.3557 26.7253 34.3937C27.3842 33.9547 28.0121 33.4618 28.6061 32.9262C28.5162 32.6044 28.4219 32.2843 28.332 31.9626C27.8205 30.1591 27.3016 28.3603 26.799 26.5536C26.7739 26.4617 26.7503 26.3713 26.7208 26.2794C26.681 26.1399 26.6398 25.9894 26.5985 25.8404C26.4437 25.2825 26.2919 24.6581 26.2919 24.0099C26.2919 23.1842 26.5955 22.3966 27.1498 21.7975C27.7306 21.1683 28.5354 20.8086 29.3653 20.8086C29.7014 20.8086 30.0404 20.8656 30.3632 20.9845C31.4348 21.3664 32.1247 22.2207 32.477 23.5931C32.6111 24.1034 32.7629 24.6264 32.9148 25.1494C33.1801 25.0306 33.4528 24.9561 33.7314 24.9244C34.3402 23.0511 34.6674 21.0368 34.6674 18.9385C34.6674 8.859 27.0731 0.686035 17.7041 0.686035C8.33649 0.686035 0.740723 8.859 0.740723 18.9385C0.740723 29.0196 8.33649 37.1925 17.7041 37.1925C19.0853 37.1925 20.4266 37.0166 21.7105 36.6775C21.8078 36.2068 22.0171 35.7583 22.3282 35.362C23.0062 34.492 23.9747 34.0118 25.0522 34.0118Z" fill="#00D280"/>
</g>
</g>
</g>
</g>
<defs>
<clipPath id="clip0_1_4670">
<rect width="45" height="45" fill="white" transform="translate(0.719971 0.689941)"/>
</clipPath>
<clipPath id="clip1_1_4670">
<rect width="45" height="45" fill="white" transform="translate(0.719971 0.689941)"/>
</clipPath>
<clipPath id="clip2_1_4670">
<rect width="45" height="45" fill="white" transform="translate(0.719971 0.689941)"/>
</clipPath>
</defs>
</svg>
