<svg width="40" height="46" viewBox="0 0 40 46" fill="none" xmlns="http://www.w3.org/2000/svg">
<g clip-path="url(#clip0_1_4560)">
<g clip-path="url(#clip1_1_4560)">
<g clip-path="url(#clip2_1_4560)">
<mask id="mask0_1_4560" style="mask-type:luminance" maskUnits="userSpaceOnUse" x="1" y="0" width="39" height="46">
<path d="M1.63989 0.689941H39.1399V45.6899H1.63989V0.689941Z" fill="white"/>
</mask>
<g mask="url(#mask0_1_4560)">
<path fill-rule="evenodd" clip-rule="evenodd" d="M35.5607 16.1259L39.0411 43.0699C39.126 43.7316 38.9114 44.3965 38.4488 44.8959C37.9861 45.3952 37.3217 45.6802 36.6237 45.6802H4.15701C3.45901 45.6802 2.79463 45.3952 2.33196 44.8959C1.86929 44.3965 1.65477 43.7316 1.73962 43.0699C1.73962 43.0699 5.22162 16.1122 5.22162 16.1045L5.44575 14.375C5.59624 13.2093 6.63364 12.3331 7.86315 12.3331H10.6504V10.0077C10.6504 4.87139 15.0145 0.70166 20.3904 0.70166C25.7663 0.70166 30.1304 4.87139 30.1304 10.0077V12.3331H32.9176C34.1471 12.3331 35.1845 13.2093 35.335 14.375C35.335 14.375 35.5607 16.1183 35.5607 16.1259ZM6.7441 16.9869L3.35175 43.2598C3.32293 43.4804 3.39497 43.701 3.54866 43.868C3.70235 44.035 3.92328 44.1299 4.15701 44.1299H36.6237C36.8559 44.1299 37.0784 44.035 37.2321 43.868C37.3858 43.701 37.4578 43.4804 37.429 43.2598L34.0366 16.9869H6.7441ZM16.332 34.3153C15.5268 34.1253 14.7247 33.7194 14.0763 33.1005C13.1958 32.258 12.7268 31.1459 12.6787 30.121C11.9551 29.3628 11.462 28.2583 11.462 27.068C11.462 25.8778 11.9551 24.7733 12.6787 24.0166C12.7268 22.9918 13.1958 21.8781 14.0763 21.0371C14.9584 20.1946 16.1223 19.7473 17.1949 19.6998H17.1965C17.9906 19.0089 19.1449 18.5371 20.3904 18.5371C21.6359 18.5371 22.7918 19.0089 23.5842 19.6998C24.6568 19.7473 25.8223 20.1946 26.7044 21.0371C27.5849 21.8781 28.054 22.9918 28.102 24.0166C28.8256 24.7748 29.3187 25.8778 29.3187 27.068C29.3187 28.2583 28.8256 29.3628 28.102 30.1195C28.054 31.1459 27.5849 32.2595 26.7044 33.1005C26.056 33.7194 25.254 34.1253 24.4487 34.3153V41.0279C24.4487 41.5656 24.1573 42.065 23.6787 42.3468C23.2 42.6302 22.6028 42.6547 22.1002 42.4158L20.3904 41.5978L18.6806 42.4158C18.1779 42.6547 17.5808 42.6302 17.1021 42.3468C16.6234 42.065 16.332 41.5656 16.332 41.0279V34.3153ZM23.605 32.883C24.2822 32.8324 25.0026 32.5322 25.5565 32.0037C26.1969 31.391 26.5171 30.5638 26.4803 29.8361C26.4691 29.6048 26.5667 29.3812 26.746 29.2264C27.3096 28.7362 27.6954 27.9351 27.6954 27.068C27.6954 26.2025 27.3096 25.4014 26.746 24.9112C26.5667 24.7549 26.4691 24.5313 26.4803 24.3C26.5171 23.5739 26.1969 22.7451 25.5565 22.1324C24.9146 21.5212 24.0485 21.2148 23.288 21.25C23.0447 21.2608 22.811 21.1673 22.6493 20.9957C22.1354 20.4581 21.2965 20.0889 20.3904 20.0889C19.4842 20.0889 18.6454 20.4581 18.1315 20.9957C17.9698 21.1673 17.736 21.2608 17.4927 21.25C16.7323 21.2148 15.8662 21.5212 15.2242 22.1324C14.5838 22.7451 14.2636 23.5739 14.3005 24.3C14.3117 24.5313 14.214 24.7549 14.0347 24.9112C13.4712 25.4014 13.0854 26.2025 13.0854 27.068C13.0854 27.9351 13.4712 28.7362 14.0347 29.2264C14.214 29.3812 14.3117 29.6048 14.3005 29.8361C14.2636 30.5638 14.5838 31.391 15.2242 32.0037C15.7781 32.5322 16.4985 32.8324 17.1757 32.883C17.1917 32.883 17.2077 32.8845 17.2237 32.8861C17.315 32.8907 17.4047 32.8922 17.4927 32.8876C17.736 32.8769 17.9698 32.9688 18.1315 33.1403C18.6454 33.6796 19.4842 34.0487 20.3904 34.0487C21.2965 34.0487 22.1354 33.6796 22.6493 33.1403C22.811 32.9688 23.0447 32.8769 23.288 32.8876C23.3761 32.8922 23.4657 32.8907 23.557 32.8861C23.573 32.8845 23.589 32.883 23.605 32.883ZM19.132 23.7623C19.4394 23.4008 19.9021 23.1909 20.3904 23.1909C20.8787 23.1909 21.3413 23.4008 21.6487 23.7623L22.3611 24.5956L23.4113 24.9847C23.8676 25.1547 24.2182 25.5101 24.3687 25.9528C24.5207 26.3956 24.4551 26.8812 24.1894 27.2733L23.5794 28.1786L23.517 29.2525C23.4898 29.7182 23.2448 30.1486 22.8494 30.4213C22.454 30.697 21.9513 30.7859 21.479 30.6664L20.3904 30.3922L19.3017 30.6664C18.8295 30.7859 18.3268 30.697 17.9314 30.4213C17.5359 30.1486 17.291 29.7182 17.2638 29.2525L17.2013 28.1786L16.5914 27.2733C16.3256 26.8812 16.26 26.3956 16.4121 25.9528C16.5626 25.5101 16.9132 25.1547 17.3694 24.9847L18.4196 24.5956L19.132 23.7623ZM17.9554 34.9679V41.0279L19.6652 40.2114C20.1214 39.9939 20.6593 39.9939 21.1156 40.2114L22.8254 41.0279V34.9679C22.1258 35.36 21.2821 35.599 20.3904 35.599C19.4987 35.599 18.6534 35.36 17.9554 34.9679ZM28.507 12.3331V10.0077C28.507 5.7277 24.8698 2.2519 20.3904 2.2519C15.911 2.2519 12.2737 5.7277 12.2737 10.0077V12.3331H28.507Z" fill="#00D280"/>
</g>
</g>
</g>
</g>
<defs>
<clipPath id="clip0_1_4560">
<rect width="39" height="45" fill="white" transform="translate(0.889893 0.689941)"/>
</clipPath>
<clipPath id="clip1_1_4560">
<rect width="39" height="45" fill="white" transform="translate(0.889893 0.689941)"/>
</clipPath>
<clipPath id="clip2_1_4560">
<rect width="39" height="45" fill="white" transform="translate(0.889893 0.689941)"/>
</clipPath>
</defs>
</svg>
