<svg width="58" height="46" viewBox="0 0 58 46" fill="none" xmlns="http://www.w3.org/2000/svg">
<g clip-path="url(#clip0_1_4571)">
<g clip-path="url(#clip1_1_4571)">
<g clip-path="url(#clip2_1_4571)">
<mask id="mask0_1_4571" style="mask-type:luminance" maskUnits="userSpaceOnUse" x="0" y="17" width="8" height="11">
<path d="M0.485596 17.272H7.49219V27.4415H0.485596V17.272Z" fill="white"/>
</mask>
<g mask="url(#mask0_1_4571)">
<path d="M6.85072 17.7993C6.48682 17.4842 5.89625 17.4842 5.53081 17.7993L0.860262 21.8168C0.494821 22.1306 0.494821 22.6391 0.860262 22.9529L5.53081 26.9704C5.71276 27.128 5.95176 27.2061 6.19076 27.2061C6.42976 27.2061 6.66877 27.128 6.85072 26.9704C7.21616 26.6566 7.21616 26.1494 6.85072 25.8343L2.84166 22.3848L6.85072 18.9354C7.21616 18.6203 7.21616 18.1131 6.85072 17.7993Z" fill="#00D280"/>
</g>
<mask id="mask1_1_4571" style="mask-type:luminance" maskUnits="userSpaceOnUse" x="49" y="17" width="8" height="11">
<path d="M49.7283 17.272H56.7349V27.4415H49.7283V17.272Z" fill="white"/>
</mask>
<g mask="url(#mask1_1_4571)">
<path d="M56.3595 21.8168L51.6889 17.7993C51.3235 17.4842 50.7329 17.4842 50.3675 17.7993C50.002 18.1131 50.0036 18.6203 50.3675 18.9354L54.3781 22.3848L50.3675 25.8343C50.0036 26.1481 50.0036 26.6566 50.3675 26.9704C50.551 27.128 50.79 27.2061 51.029 27.2061C51.268 27.2061 51.507 27.128 51.6889 26.9704L56.3595 22.9529C56.7249 22.6391 56.7249 22.1306 56.3595 21.8168Z" fill="#00D280"/>
</g>
<mask id="mask2_1_4571" style="mask-type:luminance" maskUnits="userSpaceOnUse" x="13" y="0" width="31" height="46">
<path d="M13.4141 0.689941H43.8088V45.6899H13.4141V0.689941Z" fill="white"/>
</mask>
<g mask="url(#mask2_1_4571)">
<path d="M40.7549 0.689941H39.8205C38.7905 0.689941 37.9517 1.41028 37.9517 2.29746C37.9517 3.62559 36.6951 4.70742 35.1501 4.70742H22.0712C20.5262 4.70742 19.2696 3.62559 19.2696 2.29746C19.2696 1.41028 18.4307 0.689941 17.4008 0.689941H16.4663C14.9212 0.689941 13.6646 1.77177 13.6646 3.0999V43.2786C13.6646 44.6081 14.9212 45.6899 16.4663 45.6899H40.7549C42.3 45.6899 43.5568 44.6081 43.5568 43.2786V3.0999C43.5568 1.77177 42.3 0.689941 40.7549 0.689941ZM34.2156 44.0824H23.0057C22.4907 44.0824 22.0712 43.7235 22.0712 43.2786C22.0712 42.835 22.4907 42.4749 23.0057 42.4749H34.2156C34.7321 42.4749 35.1501 42.835 35.1501 43.2786C35.1501 43.7235 34.7321 44.0824 34.2156 44.0824ZM37.0173 21.5824V25.5999C37.0173 27.2445 35.5709 28.5885 33.716 28.7765L35.0374 36.1653C36.18 36.4698 37.0173 37.3755 37.0173 38.4574V39.2611C37.0173 40.147 36.1801 40.8687 35.1501 40.8687H32.3467C30.8017 40.8687 29.5451 39.7868 29.5451 38.4574V37.6536C29.5451 37.4855 29.5836 37.3266 29.6391 37.1756C29.6159 37.1319 29.5868 37.0922 29.5729 37.0445L28.6107 33.7355L27.6484 37.0445C27.6347 37.0922 27.6038 37.1319 27.5822 37.1756C27.6377 37.3266 27.6762 37.4855 27.6762 37.6536V38.4574C27.6762 39.7868 26.4196 40.8687 24.8746 40.8687H22.0712C21.0413 40.8687 20.2025 40.147 20.2025 39.2611V38.4574C20.2025 37.3755 21.0413 36.4698 22.1839 36.1653L23.5038 28.7765C21.6519 28.5885 20.2025 27.2458 20.2025 25.5999V19.9749C20.2025 17.316 22.7174 15.1536 25.8074 15.1536V14.1843C25.0211 13.5434 24.523 12.6417 24.523 11.638V9.83056C24.523 7.89201 26.3563 6.31494 28.6107 6.31494C30.865 6.31494 32.6968 7.89201 32.6968 9.83056V11.638C32.6968 12.6417 32.1987 13.5434 31.4123 14.1843V15.1536C34.504 15.1536 37.0173 17.316 37.0173 19.9749V21.5824Z" fill="#00D280"/>
</g>
<path d="M22.0715 38.4586V39.2624H24.8748C25.3882 39.2624 25.8077 38.9022 25.8077 38.4586V37.6548H23.0059C22.4909 37.6548 22.0715 38.015 22.0715 38.4586Z" fill="#00D280"/>
<path d="M23.9404 26.3437V22.3872H22.0715V25.6009C22.0715 26.443 22.8286 27.1276 23.7877 27.1952L23.9404 26.3437Z" fill="#00D280"/>
<mask id="mask3_1_4571" style="mask-type:luminance" maskUnits="userSpaceOnUse" x="20" y="0" width="17" height="4">
<path d="M20.5186 0.689941H36.7029V3.37532H20.5186V0.689941Z" fill="white"/>
</mask>
<g mask="url(#mask3_1_4571)">
<path d="M22.0713 3.0999H35.15C35.6651 3.0999 36.0845 2.74105 36.0845 2.29746C36.0845 1.71219 36.2664 1.16266 36.5856 0.689941H20.6357C20.9549 1.16266 21.1369 1.71219 21.1369 2.29746C21.1369 2.74105 21.5563 3.0999 22.0713 3.0999Z" fill="#00D280"/>
</g>
<path d="M31.4128 38.4586C31.4128 38.9022 31.8322 39.2624 32.3473 39.2624H35.1505V38.4586C35.1505 38.015 34.7311 37.6548 34.2161 37.6548H31.4128V38.4586Z" fill="#00D280"/>
<path d="M33.1272 36.0457L31.5467 27.2056H25.675L24.0945 36.0457H26.0142L27.7057 30.226C27.809 29.8685 28.1822 29.6169 28.6124 29.6169C29.041 29.6169 29.4142 29.8672 29.5175 30.226L31.209 36.0457H33.1287H33.1272Z" fill="#00D280"/>
<path d="M33.2812 26.3437L33.4339 27.1952C34.3914 27.1276 35.1502 26.443 35.1502 25.6009V22.3872H33.2812V26.3437Z" fill="#00D280"/>
<path d="M28.6109 13.5493C29.8352 13.5493 30.8298 12.6925 30.8298 11.6398V9.83242C30.8298 8.77972 29.8352 7.92432 28.6109 7.92432C27.3866 7.92432 26.3921 8.77972 26.3921 9.83242V11.6398C26.3921 12.6925 27.3866 13.5493 28.6109 13.5493Z" fill="#00D280"/>
<path d="M31.4126 16.7622H31.2538C30.8683 17.697 29.829 18.3697 28.6109 18.3697C27.3928 18.3697 26.3535 17.697 25.968 16.7622H25.8077C23.7476 16.7622 22.0715 18.2042 22.0715 19.9759V20.7796H23.9404V19.9759C23.9404 19.5323 24.3582 19.1734 24.8748 19.1734C25.3898 19.1734 25.8077 19.5323 25.8077 19.9759V25.6009H31.4126V19.9759C31.4126 19.5323 31.8305 19.1734 32.347 19.1734C32.8636 19.1734 33.2815 19.5323 33.2815 19.9759V20.7796H35.1503V19.9759C35.1503 18.2042 33.4742 16.7622 31.4126 16.7622Z" fill="#00D280"/>
<path d="M27.676 15.0532V15.9576C27.676 16.4012 28.0954 16.7613 28.6104 16.7613C29.1254 16.7613 29.5449 16.4012 29.5449 15.9576V15.0532C29.2426 15.1141 28.9327 15.1538 28.6104 15.1538C28.2882 15.1538 27.9782 15.1141 27.676 15.0532Z" fill="#00D280"/>
</g>
</g>
</g>
<defs>
<clipPath id="clip0_1_4571">
<rect width="57" height="45" fill="white" transform="translate(0.110107 0.689941)"/>
</clipPath>
<clipPath id="clip1_1_4571">
<rect width="57" height="45" fill="white" transform="translate(0.110107 0.689941)"/>
</clipPath>
<clipPath id="clip2_1_4571">
<rect width="57" height="45" fill="white" transform="translate(0.110107 0.689941)"/>
</clipPath>
</defs>
</svg>
