<svg width="54" height="46" viewBox="0 0 54 46" fill="none" xmlns="http://www.w3.org/2000/svg">
<g clip-path="url(#clip0_1_4659)">
<g clip-path="url(#clip1_1_4659)">
<g clip-path="url(#clip2_1_4659)">
<mask id="mask0_1_4659" style="mask-type:luminance" maskUnits="userSpaceOnUse" x="0" y="0" width="54" height="46">
<path d="M0.750244 0.687988H53.2502V45.6879H0.750244V0.687988Z" fill="white"/>
</mask>
<g mask="url(#mask0_1_4659)">
<path d="M18.999 38.5099H0.748291V42.6926C0.748291 43.4844 1.2114 44.2175 1.95268 44.7569C2.7398 45.3278 3.83671 45.6839 5.04742 45.6839H48.9539C50.1677 45.6839 51.2599 45.3278 52.0486 44.7569C52.7899 44.2175 53.253 43.4829 53.253 42.6926V38.5099H34.7509L32.2062 41.7145C32.1019 41.8798 31.9122 41.985 31.6957 41.985H22.0527C21.8741 41.985 21.697 41.9083 21.5785 41.7596L18.999 38.5099ZM36.4895 33.3086V5.2317C36.4864 3.69474 36.5812 2.30652 37.1123 1.28188C37.2166 1.08056 37.3351 0.897263 37.4695 0.72599H21.0869C20.4026 0.686928 19.7292 0.780077 19.1049 0.990413C18.479 1.19624 17.9005 1.52377 17.4074 1.95345C16.9158 2.37863 16.5302 2.88945 16.271 3.44834C16.0102 4.00574 15.8727 4.6097 15.8742 5.2317V33.3071H36.4895V33.3086ZM37.6797 13.9937V33.3086H46.3254V13.9937H37.6797ZM40.6148 0.727492C40.6085 0.727492 40.599 0.727492 40.5911 0.727492H40.0063C39.3709 0.778574 38.8809 1.01746 38.5427 1.44714C38.157 1.92491 37.931 2.65507 37.863 3.62713V3.63614C37.8314 4.09137 37.8346 4.60219 37.8725 5.15658C37.8757 5.18362 37.8757 5.20616 37.8757 5.2317V9.04931H43.3049V5.2317C43.3081 3.84648 43.2401 2.67761 42.8339 1.88284C42.483 1.19474 41.8224 0.775569 40.6148 0.727492ZM14.6841 33.3086V13.9937H7.6759V33.3086H14.6841ZM37.0854 34.4489H7.0816C6.74969 34.4489 6.48257 34.1935 6.48257 33.881V13.4213C6.48257 13.1073 6.74969 12.8518 7.0816 12.8518H14.6841V10.1911H5.23709C4.66176 10.1911 4.1386 10.427 3.75926 10.8041C3.3736 11.1917 3.13336 11.7281 3.13336 12.3185V37.3696H19.2946C19.508 37.3696 19.696 37.4777 19.8019 37.64L22.3482 40.8476H31.4049L33.9859 37.5949C34.1045 37.4492 34.2799 37.3726 34.4601 37.3726V37.3696H50.8711V12.32C50.8711 11.7281 50.6308 11.1932 50.242 10.8056C49.8643 10.427 49.3379 10.1911 48.7642 10.1911H37.6797V12.8534H46.9197C47.2516 12.8534 47.5187 13.1088 47.5187 13.4228V33.8825C47.5187 34.195 47.2516 34.4504 46.9197 34.4504H37.0854V34.4489ZM18.5628 21.6995C18.272 21.5538 18.1613 21.2112 18.3083 20.9333C18.4616 20.6553 18.8188 20.5457 19.1112 20.6914L20.8182 21.5463L23.1591 18.0291C23.3345 17.7647 23.7028 17.6836 23.9809 17.8518C24.2575 18.0216 24.3429 18.3717 24.1675 18.6406L21.5327 22.5964C21.3667 22.8413 21.0316 22.933 20.755 22.7963L18.5628 21.6995ZM18.5628 29.0643C18.272 28.9186 18.1613 28.576 18.3083 28.2981C18.4616 28.0201 18.8188 27.9149 19.1112 28.0562L20.8182 28.911L23.1591 25.3939C23.3345 25.1295 23.7028 25.0514 23.9809 25.2196C24.2591 25.3864 24.3429 25.7395 24.1675 26.0039L21.5327 29.9642V29.9612C21.3667 30.2091 21.0316 30.3008 20.755 30.161L18.5628 29.0643ZM25.9124 21.6604C25.5852 21.6604 25.3181 21.405 25.3181 21.0925C25.3181 20.7755 25.5852 20.5201 25.9124 20.5201H32.968C33.2968 20.5201 33.5639 20.7755 33.5639 21.0925C33.5639 21.405 33.2968 21.6604 32.968 21.6604H25.9124ZM25.9124 29.2521C25.5852 29.2521 25.3181 28.9967 25.3181 28.6797C25.3181 28.3672 25.5852 28.1118 25.9124 28.1118H32.968C33.2968 28.1118 33.5639 28.3672 33.5639 28.6797C33.5639 28.9967 33.2968 29.2521 32.968 29.2521H25.9124ZM31.4128 4.89366C30.2526 3.78638 28.6531 3.10429 26.886 3.10429C25.1205 3.10429 23.521 3.78638 22.3609 4.89366C21.2039 5.99792 20.4879 7.52587 20.4879 9.21307C20.4879 10.9032 21.2039 12.4297 22.3609 13.5354C23.521 14.6427 25.1205 15.3233 26.886 15.3233C28.6531 15.3233 30.251 14.6427 31.4128 13.5354C32.5682 12.4312 33.2857 10.9032 33.2857 9.21307C33.2873 7.52587 32.5697 5.99792 31.4128 4.89366ZM26.886 1.96397C28.9834 1.96397 30.8817 2.77377 32.2552 4.08536C33.6287 5.39696 34.4806 7.21337 34.4806 9.21307C34.4806 11.2142 33.6287 13.0276 32.2552 14.3422C30.8817 15.6538 28.9834 16.4636 26.886 16.4636C24.7886 16.4636 22.8919 15.6538 21.5184 14.3422C20.1449 13.0261 19.293 11.2142 19.293 9.21307C19.293 7.21337 20.1449 5.39696 21.5184 4.08536C22.8935 2.77377 24.7902 1.96397 26.886 1.96397ZM25.168 12.3035C24.9087 12.1097 24.8645 11.7506 25.0636 11.5057C25.2659 11.2563 25.6421 11.2142 25.8982 11.408C26.023 11.4982 26.1732 11.5733 26.3407 11.6289C26.5067 11.68 26.69 11.71 26.886 11.71C27.2843 11.71 27.6431 11.5868 27.8928 11.3885C28.1125 11.2187 28.2516 10.9874 28.2516 10.747C28.2516 10.0454 27.5103 9.91018 26.7738 9.77046C25.5489 9.5451 24.3287 9.31824 24.3287 7.68062C24.3287 7.08116 24.629 6.54029 25.119 6.15718C25.4366 5.91229 25.8365 5.72749 26.2759 5.63885V5.12803C26.2759 4.81553 26.543 4.56012 26.875 4.56012H26.8955V4.56313H26.9082C27.2353 4.57064 27.4961 4.82755 27.4898 5.14155L27.4772 5.63584C27.6589 5.6704 27.8328 5.72298 27.9987 5.78759C28.3559 5.93032 28.6721 6.13915 28.9107 6.39456C29.1304 6.62743 29.1099 6.98951 28.8665 7.19985C28.6199 7.40868 28.2437 7.38915 28.024 7.15778C27.8992 7.02557 27.7332 6.91439 27.5435 6.83626C27.3507 6.76265 27.1247 6.71757 26.8844 6.71757C26.4861 6.71757 26.1258 6.84077 25.8729 7.03759C25.6532 7.20886 25.5173 7.43873 25.5173 7.68062C25.5173 8.37773 26.257 8.51595 26.9951 8.65568C28.22 8.88104 29.4402 9.1079 29.4402 10.7455C29.4402 11.3464 29.1399 11.8858 28.6484 12.2659C28.3275 12.5183 27.9245 12.7031 27.4787 12.7903L27.4693 13.2094V13.2981C27.4693 13.6106 27.2021 13.866 26.8734 13.866C26.5415 13.866 26.2743 13.6106 26.2743 13.2981V12.7872C26.1732 12.7647 26.0673 12.7377 25.9709 12.7091C25.6769 12.616 25.4019 12.4793 25.168 12.3035Z" fill="#00D280"/>
</g>
</g>
</g>
</g>
<defs>
<clipPath id="clip0_1_4659">
<rect width="53" height="45" fill="white" transform="translate(0.500244 0.689941)"/>
</clipPath>
<clipPath id="clip1_1_4659">
<rect width="53" height="45" fill="white" transform="translate(0.500244 0.689941)"/>
</clipPath>
<clipPath id="clip2_1_4659">
<rect width="53" height="45" fill="white" transform="translate(0.500244 0.689941)"/>
</clipPath>
</defs>
</svg>
