<svg width="46" height="46" viewBox="0 0 46 46" fill="none" xmlns="http://www.w3.org/2000/svg">
<g clip-path="url(#clip0_1_4605)">
<g clip-path="url(#clip1_1_4605)">
<g clip-path="url(#clip2_1_4605)">
<path d="M31.7516 19.3056C31.4782 18.9881 31.4555 18.5282 31.6987 18.188L31.7101 18.1716C31.8827 17.9322 32.1612 17.791 32.456 17.7935C32.7156 17.7948 32.9626 17.9095 33.1314 18.106C34.1836 19.322 35.0153 20.6968 35.6062 22.1887C36.2892 23.9163 36.6282 25.7371 36.613 27.6033C36.5967 29.4682 36.2275 31.284 35.5142 32.9989C34.9119 34.4493 34.0803 35.7825 33.0407 36.9619C32.8643 37.1622 32.611 37.2757 32.3451 37.2731C32.0868 37.2706 31.8411 37.1597 31.6697 36.9657C31.3635 36.6217 31.361 36.1013 31.6647 35.7573C35.7738 31.0899 35.8104 24.0171 31.7516 19.3056Z" fill="#00D280"/>
<path d="M28.627 32.9859L28.6321 32.9784L28.6346 32.9758C31.214 30.0058 31.3664 25.5754 28.9987 22.439C28.7707 22.1366 28.753 21.7183 28.9546 21.3982C29.1248 21.126 29.4184 20.9648 29.7409 20.9673C30.0308 20.9698 30.2966 21.1046 30.4718 21.3365C31.0149 22.0623 31.4597 22.8574 31.7936 23.7016C32.2813 24.934 32.5232 26.2344 32.5119 27.5688C32.5005 28.9033 32.2372 30.2011 31.7281 31.4247C31.3123 32.4277 30.7402 33.3539 30.0282 34.178C29.8518 34.3833 29.5935 34.5005 29.3226 34.498C29.1764 34.4968 29.0315 34.4602 28.9017 34.3922C28.656 34.2624 28.4846 34.0318 28.4292 33.7596C28.3737 33.4874 28.4443 33.2077 28.6207 32.9935L28.627 32.9859Z" fill="#00D280"/>
<path d="M25.8704 25.1018C25.6246 24.725 25.6939 24.216 26.0329 23.9173C26.2018 23.7674 26.4198 23.6855 26.6453 23.688C26.9515 23.6905 27.2363 23.8455 27.4051 24.1026C27.666 24.4982 27.8802 24.9267 28.0427 25.3727C28.2935 26.0633 28.4182 26.7903 28.4119 27.5338C28.4044 28.2772 28.2683 29.003 28.0049 29.6898C27.8348 30.1346 27.613 30.5592 27.3434 30.9511C27.1708 31.2056 26.8835 31.3543 26.5773 31.3518C26.3517 31.3506 26.135 31.2649 25.9686 31.1124C25.6347 30.8075 25.5742 30.2971 25.8275 29.9254C26.8028 28.4914 26.8205 26.5522 25.8704 25.1018Z" fill="#00D280"/>
<mask id="mask0_1_4605" style="mask-type:luminance" maskUnits="userSpaceOnUse" x="0" y="0" width="46" height="46">
<path d="M0.719971 0.689941H45.72V45.6899H0.719971V0.689941Z" fill="white"/>
</mask>
<g mask="url(#mask0_1_4605)">
<path d="M11.253 39.7146L11.0161 36.7534C10.9909 36.4245 11.1635 36.1108 11.4571 35.9545C11.5605 35.8991 11.6789 35.8676 11.81 35.86L18.3914 35.4089C18.8198 35.3837 19.3138 34.8393 19.3188 34.4109C19.3188 34.3996 19.3188 34.3895 19.3188 34.3782C19.32 33.0891 19.6578 31.8215 20.3193 30.7151C20.3193 30.7126 20.3218 30.7113 20.3231 30.7088C20.4453 30.5021 20.3584 30.2337 20.1391 30.1342C19.339 29.7738 17.5358 28.9573 17.5219 28.9182C17.4577 28.7544 19.1525 28.3512 20.0837 28.142C20.3886 28.074 20.5625 27.7514 20.4503 27.4591C20.1366 26.645 19.8531 25.7 19.3793 23.9321C19.3553 23.8439 19.31 23.7733 19.2495 23.7191L20.405 23.607C21.0489 23.5717 21.6021 23.3285 21.9183 22.7993C21.9284 22.7829 21.9372 22.7665 21.9461 22.7501C22.2762 22.1604 22.2371 21.4333 21.8667 20.8676L19.5922 16.4636C19.3805 15.9621 19.1966 13.3562 19.1814 12.8056C19.0932 9.47018 17.5055 6.24438 15.2399 4.40718C15.2538 4.40214 15.2664 4.39584 15.2802 4.3908C15.308 4.3782 15.3369 4.3656 15.3659 4.35425C17.8558 3.31469 20.497 2.78797 23.22 2.78797C25.9758 2.78797 28.6472 3.32729 31.161 4.3908C32.3694 4.90113 33.535 5.53369 34.6262 6.27084C35.7074 7.00168 36.723 7.83964 37.6467 8.76328C38.5703 9.68692 39.4095 10.7038 40.1391 11.7849C40.8762 12.8749 41.5088 14.0405 42.0204 15.2489C43.0839 17.7627 43.6232 20.4354 43.6232 23.1899C43.6232 25.9457 43.0839 28.6171 42.0204 31.1309C41.5088 32.3393 40.8762 33.5049 40.1391 34.5949C39.4095 35.676 38.5703 36.6929 37.6467 37.6166C36.723 38.5402 35.7074 39.3782 34.6262 40.109C33.535 40.8461 32.3694 41.4787 31.161 41.989C28.6472 43.0526 25.9758 43.5919 23.22 43.5919C20.4655 43.5919 17.7941 43.0526 15.2802 41.989C14.0718 41.4787 12.9062 40.8461 11.815 40.109C11.626 39.9805 11.4382 39.8494 11.253 39.7146ZM0.719971 23.1899C0.719971 31.2217 4.92864 38.2705 11.2618 42.2511C11.3286 42.294 11.3979 42.3368 11.466 42.3784C14.8858 44.479 18.9118 45.6899 23.22 45.6899C35.6469 45.6899 45.72 35.6168 45.72 23.1899C45.72 10.7642 35.6469 0.689941 23.22 0.689941C19.7019 0.689941 16.3715 1.49765 13.4052 2.93792C11.4735 3.87542 9.69678 5.08258 8.12168 6.50899C3.57531 10.6257 0.719971 16.5745 0.719971 23.1899Z" fill="#00D280"/>
</g>
</g>
</g>
</g>
<defs>
<clipPath id="clip0_1_4605">
<rect width="45" height="45" fill="white" transform="translate(0.719971 0.689941)"/>
</clipPath>
<clipPath id="clip1_1_4605">
<rect width="45" height="45" fill="white" transform="translate(0.719971 0.689941)"/>
</clipPath>
<clipPath id="clip2_1_4605">
<rect width="45" height="45" fill="white" transform="translate(0.719971 0.689941)"/>
</clipPath>
</defs>
</svg>
