<svg width="46" height="46" viewBox="0 0 46 46" fill="none" xmlns="http://www.w3.org/2000/svg">
<g clip-path="url(#clip0_1_4619)">
<g clip-path="url(#clip1_1_4619)">
<g clip-path="url(#clip2_1_4619)">
<path d="M37.0798 31.1591H30.9999C30.696 31.1591 30.4589 30.7792 30.4904 30.3434L30.8878 24.8906C30.8999 24.724 31.0036 24.5907 31.1185 24.5907H33.516C33.8337 24.5907 34.1246 24.772 34.3256 25.0959L37.4522 30.1261C37.6884 30.5073 37.454 31.1591 37.0798 31.1591ZM39.9868 31.8868L35.2307 24.2309C34.812 23.5591 34.2061 23.1806 33.5456 23.1806H30.1763C29.891 23.1806 29.6177 23.3205 29.3908 23.5538L29.5631 21.1999C29.6409 20.123 29.0554 19.186 28.3041 19.186H4.56553C4.10975 19.186 3.73919 19.7191 3.73919 20.3776C3.73919 21.0347 4.10975 21.5678 4.56553 21.5678H16.4612C16.9179 21.5678 17.2876 22.101 17.2876 22.7581C17.2876 23.4152 16.9179 23.9483 16.4612 23.9483H6.24136C5.78465 23.9483 5.4141 24.4814 5.4141 25.1385C5.4141 25.797 5.78465 26.3301 6.24136 26.3301H15.6423C16.099 26.3301 16.4696 26.8619 16.4696 27.5204C16.4696 28.1775 16.099 28.7106 15.6423 28.7106H2.41446C1.95868 28.7106 1.58813 29.2437 1.58813 29.9008C1.58813 30.5579 1.95868 31.0911 2.41446 31.0911H11.7802C12.2369 31.0911 12.6075 31.6242 12.6075 32.2827C12.6075 32.9398 12.2369 33.4729 11.7802 33.4729H5.98938C5.53267 33.4729 5.16212 34.006 5.16212 34.6631C5.16212 35.3202 5.53267 35.8534 5.98938 35.8534H8.36926L8.13581 39.0496C8.058 40.1252 8.64347 41.0622 9.39477 41.0622H13.6654C13.6654 37.9926 15.4005 35.4935 17.5321 35.4935C19.6647 35.4935 21.3989 37.9926 21.3989 41.0622H29.526C29.526 37.9926 31.2611 35.4935 33.3928 35.4935C35.5253 35.4935 37.2595 37.9926 37.2595 41.0622H38.2637C39.2484 41.0622 40.1304 39.9133 40.2341 38.4951L40.5315 34.4219C40.601 33.4716 40.4046 32.5586 39.9868 31.8868Z" fill="#00D280"/>
<mask id="mask0_1_4619" style="mask-type:luminance" maskUnits="userSpaceOnUse" x="30" y="36" width="7" height="10">
<path d="M30.1367 36.4087H36.6316V45.692H30.1367V36.4087Z" fill="white"/>
</mask>
<g mask="url(#mask0_1_4619)">
<path d="M33.3923 43.0551C32.629 43.0551 32.0083 42.1607 32.0083 41.0611C32.0083 39.9628 32.629 39.0685 33.3923 39.0685C34.1557 39.0685 34.7763 39.9628 34.7763 41.0611C34.7763 42.1607 34.1557 43.0551 33.3923 43.0551ZM33.3923 36.4321C31.6201 36.4321 30.1787 38.5087 30.1787 41.0611C30.1787 43.6135 31.6201 45.6901 33.3923 45.6901C35.1645 45.6901 36.6069 43.6135 36.6069 41.0611C36.6069 38.5087 35.1645 36.4321 33.3923 36.4321Z" fill="#00D280"/>
</g>
<mask id="mask1_1_4619" style="mask-type:luminance" maskUnits="userSpaceOnUse" x="14" y="36" width="7" height="10">
<path d="M14.3147 36.4087H20.766V45.692H14.3147V36.4087Z" fill="white"/>
</mask>
<g mask="url(#mask1_1_4619)">
<path d="M17.5322 43.0551C16.7688 43.0551 16.1481 42.1607 16.1481 41.0611C16.1481 39.9628 16.7688 39.0685 17.5322 39.0685C18.2955 39.0685 18.9162 39.9628 18.9162 41.0611C18.9162 42.1607 18.2955 43.0551 17.5322 43.0551ZM17.5322 36.4321C15.76 36.4321 14.3176 38.5087 14.3176 41.0611C14.3176 43.6135 15.76 45.6901 17.5322 45.6901C19.3043 45.6901 20.7467 43.6135 20.7467 41.0611C20.7467 38.5087 19.3043 36.4321 17.5322 36.4321Z" fill="#00D280"/>
</g>
<mask id="mask2_1_4619" style="mask-type:luminance" maskUnits="userSpaceOnUse" x="0" y="18" width="4" height="4">
<path d="M0.280029 18.8892H3.02491V21.6189H0.280029V18.8892Z" fill="white"/>
</mask>
<g mask="url(#mask2_1_4619)">
<path d="M2.89614 20.3737C2.89614 19.7152 2.52651 19.1821 2.06981 19.1821H1.10636C0.649657 19.1821 0.280029 19.7152 0.280029 20.3737C0.280029 21.0308 0.649657 21.5639 1.10636 21.5639H2.06981C2.52651 21.5639 2.89614 21.0308 2.89614 20.3737Z" fill="#00D280"/>
</g>
<path d="M2.01685 25.1381C2.01685 25.7965 2.3874 26.3296 2.84411 26.3296H3.80662C4.26333 26.3296 4.63388 25.7965 4.63388 25.1381C4.63388 24.481 4.26333 23.9478 3.80662 23.9478H2.84411C2.3874 23.9478 2.01685 24.481 2.01685 25.1381Z" fill="#00D280"/>
<mask id="mask3_1_4619" style="mask-type:luminance" maskUnits="userSpaceOnUse" x="22" y="0" width="24" height="32">
<path d="M22.5095 0.689941H45.28V31.8241H22.5095V0.689941Z" fill="white"/>
</mask>
<g mask="url(#mask3_1_4619)">
<path d="M32.6968 0.689941C28.5179 0.689941 24.8142 3.62489 22.5251 8.14062C24.7948 4.94309 27.9009 2.97179 31.3267 2.97179C38.2764 2.97179 43.9107 11.0849 43.9107 21.0946C43.9107 25.0839 43.0158 28.7732 41.4984 31.7655C43.8329 28.476 45.2818 23.8883 45.2818 18.8141C45.2818 8.80438 39.6475 0.689941 32.6968 0.689941Z" fill="#00D280"/>
</g>
<path d="M32.7591 20.4895C32.7591 21.1466 32.3886 21.6798 31.9328 21.6798C31.4761 21.6798 31.1055 21.1466 31.1055 20.4895C31.1055 19.8324 31.4761 19.2993 31.9328 19.2993C32.3886 19.2993 32.7591 19.8324 32.7591 20.4895Z" fill="#00D280"/>
<path d="M39.402 14.8626C39.2668 14.492 38.949 14.3481 38.6915 14.5427L32.5366 19.1784C32.8303 19.4609 33.0239 19.9421 33.0239 20.4886C33.0239 20.4992 33.0239 20.5099 33.0239 20.5206L39.1797 15.8849C39.4363 15.6903 39.5364 15.2331 39.402 14.8626ZM30.8219 12.9526C30.5384 13.0392 30.3568 13.4417 30.417 13.8509L31.2193 19.2983C31.411 19.0597 31.6593 18.9158 31.9326 18.9158C32.0419 18.9158 32.1475 18.9398 32.2476 18.9824L31.4453 13.5364C31.3851 13.1272 31.1063 12.8659 30.8219 12.9526Z" fill="#00D280"/>
<mask id="mask4_1_4619" style="mask-type:luminance" maskUnits="userSpaceOnUse" x="13" y="44" width="5" height="2">
<path d="M13.2688 44.8228H17.7145V45.6878H13.2688V44.8228Z" fill="white"/>
</mask>
<g mask="url(#mask4_1_4619)">
<path d="M17.6738 44.8462V45.686H13.2966L17.6738 44.8462Z" fill="#00D280"/>
</g>
<mask id="mask5_1_4619" style="mask-type:luminance" maskUnits="userSpaceOnUse" x="29" y="44" width="5" height="2">
<path d="M29.3967 44.8228H33.1893V45.6878H29.3967V44.8228Z" fill="white"/>
</mask>
<g mask="url(#mask5_1_4619)">
<path d="M33.1754 44.8462V45.686H29.3967L33.1754 44.8462Z" fill="#00D280"/>
</g>
</g>
</g>
</g>
<defs>
<clipPath id="clip0_1_4619">
<rect width="45" height="45" fill="white" transform="translate(0.280029 0.689941)"/>
</clipPath>
<clipPath id="clip1_1_4619">
<rect width="45" height="45" fill="white" transform="translate(0.280029 0.689941)"/>
</clipPath>
<clipPath id="clip2_1_4619">
<rect width="45" height="45" fill="white" transform="translate(0.280029 0.689941)"/>
</clipPath>
</defs>
</svg>
