<svg width="57" height="56" viewBox="0 0 57 56" fill="none" xmlns="http://www.w3.org/2000/svg">
<g clip-path="url(#clip0_1_4491)">
<g clip-path="url(#clip1_1_4491)">
<g clip-path="url(#clip2_1_4491)">
<path d="M8.60348 4.23873C8.60348 4.35986 8.57888 4.47673 8.53258 4.58932C8.48484 4.70048 8.41829 4.80024 8.33148 4.88576C8.24323 4.97126 8.1434 5.03682 8.02911 5.08385C7.91481 5.12946 7.79763 5.15369 7.67321 5.15369C7.55023 5.15369 7.4316 5.12946 7.31875 5.08385C7.20445 5.03682 7.10463 4.97126 7.01638 4.88576C6.92957 4.80024 6.86302 4.70048 6.81528 4.58932C6.76898 4.47673 6.74438 4.35986 6.74438 4.23873C6.74438 4.11759 6.76898 4.00072 6.81528 3.88956C6.86302 3.77697 6.92957 3.67863 7.01638 3.59313C7.10463 3.50762 7.20445 3.44063 7.31875 3.39503C7.4316 3.348 7.55023 3.3252 7.67321 3.3252C7.79763 3.3252 7.91481 3.348 8.02911 3.39503C8.1434 3.44063 8.24323 3.50762 8.33148 3.59313C8.41829 3.67863 8.48484 3.77697 8.53258 3.88956C8.57888 4.00072 8.60348 4.11759 8.60348 4.23873Z" fill="white"/>
<path d="M3.95797 13.3767C3.95797 13.4978 3.93337 13.6147 3.88707 13.7258C3.83933 13.8384 3.77278 13.9368 3.68598 14.0223C3.59772 14.1092 3.49789 14.1747 3.3836 14.2204C3.27075 14.2674 3.15212 14.2901 3.02915 14.2901C2.90472 14.2901 2.78753 14.2674 2.67324 14.2204C2.55894 14.1747 2.45912 14.1092 2.37231 14.0223C2.28406 13.9368 2.21751 13.8384 2.16976 13.7258C2.12347 13.6147 2.09888 13.4978 2.09888 13.3767C2.09888 13.2555 2.12347 13.1386 2.16976 13.0275C2.21751 12.9149 2.28406 12.8166 2.37231 12.7311C2.45912 12.6441 2.55894 12.5785 2.67324 12.533C2.78753 12.486 2.90472 12.4631 3.02915 12.4631C3.15212 12.4631 3.27075 12.486 3.3836 12.533C3.49789 12.5785 3.59772 12.6441 3.68598 12.7311C3.77278 12.8166 3.83933 12.9149 3.88707 13.0275C3.93337 13.1386 3.95797 13.2555 3.95797 13.3767Z" fill="white"/>
<path d="M48.5529 19.7754C48.5529 19.8965 48.5283 20.0134 48.482 20.1245C48.4342 20.2372 48.3677 20.3354 48.2795 20.421C48.1927 20.5065 48.0929 20.5735 47.9786 20.6191C47.8642 20.6661 47.7471 20.6889 47.6226 20.6889C47.4997 20.6889 47.381 20.6661 47.2681 20.6191C47.1539 20.5735 47.0541 20.5065 46.9658 20.421C46.879 20.3354 46.8125 20.2372 46.7647 20.1245C46.7184 20.0134 46.6938 19.8965 46.6938 19.7754C46.6938 19.6543 46.7184 19.5374 46.7647 19.4248C46.8125 19.3136 46.879 19.2153 46.9658 19.1284C47.0541 19.0429 47.1539 18.9773 47.2681 18.9303C47.381 18.8846 47.4997 18.8618 47.6226 18.8618C47.7471 18.8618 47.8642 18.8846 47.9786 18.9303C48.0929 18.9773 48.1927 19.0429 48.2795 19.1284C48.3677 19.2153 48.4342 19.3136 48.482 19.4248C48.5283 19.5374 48.5529 19.6543 48.5529 19.7754Z" fill="white"/>
<path d="M55.0561 10.6357C55.0561 10.7569 55.0315 10.8738 54.9853 10.9863C54.9375 11.0975 54.8709 11.1958 54.7841 11.2828C54.6959 11.3683 54.596 11.4339 54.4818 11.4809C54.369 11.5264 54.2503 11.5493 54.1273 11.5493C54.0029 11.5493 53.8842 11.5264 53.7714 11.4809C53.6571 11.4339 53.5573 11.3683 53.4691 11.2828C53.3823 11.1958 53.3157 11.0975 53.268 10.9863C53.2217 10.8738 53.197 10.7569 53.197 10.6357C53.197 10.5146 53.2217 10.3978 53.268 10.2866C53.3157 10.174 53.3823 10.0756 53.4691 9.99011C53.5573 9.90468 53.6571 9.83767 53.7714 9.79202C53.8842 9.74499 54.0029 9.72217 54.1273 9.72217C54.2503 9.72217 54.369 9.74499 54.4818 9.79202C54.596 9.83767 54.6959 9.90468 54.7841 9.99011C54.8709 10.0756 54.9375 10.174 54.9853 10.2866C55.0315 10.3978 55.0561 10.5146 55.0561 10.6357Z" fill="white"/>
<path d="M50.4105 3.32509C50.4105 3.09136 50.3194 2.85764 50.1385 2.67949L49.2097 1.76453C48.8451 1.40824 48.2592 1.40824 47.896 1.76453C47.5314 2.12225 47.5314 2.69944 47.896 3.05716L48.8248 3.97069C49.0057 4.14884 49.2429 4.23862 49.4816 4.23862C49.719 4.23862 49.9577 4.14884 50.1385 3.97069C50.3194 3.79255 50.4105 3.55882 50.4105 3.32509Z" fill="white"/>
<path d="M51.3393 4.23862C51.5765 4.23862 51.8152 4.14884 51.996 3.97069L52.9249 3.05716C53.288 2.69944 53.288 2.12225 52.9249 1.76453C52.5617 1.40824 51.9743 1.40824 51.6112 1.76453L50.6824 2.67949C50.5015 2.85764 50.4104 3.09136 50.4104 3.32509C50.4104 3.55882 50.5015 3.79255 50.6824 3.97069C50.8632 4.14884 51.1019 4.23862 51.3393 4.23862Z" fill="white"/>
<path d="M49.4816 4.23828C49.2429 4.23828 49.0057 4.32807 48.8248 4.50621L47.896 5.41975C47.5314 5.77747 47.5314 6.35465 47.896 6.71237C48.0768 6.89052 48.3142 6.98031 48.5529 6.98031C48.7901 6.98031 49.0274 6.89052 49.2097 6.71237L50.1385 5.79884C50.3194 5.6207 50.4105 5.38697 50.4105 5.15324C50.4105 4.91809 50.3194 4.68436 50.1385 4.50621C49.9577 4.32807 49.719 4.23828 49.4816 4.23828Z" fill="white"/>
<path d="M52.9249 6.71237C53.288 6.35465 53.288 5.77747 52.9249 5.41975L51.996 4.50621C51.8152 4.32807 51.5765 4.23828 51.3393 4.23828C51.1019 4.23828 50.8632 4.32807 50.6824 4.50621C50.5015 4.68436 50.4104 4.91809 50.4104 5.15324C50.4104 5.38697 50.5015 5.6207 50.6824 5.79884L51.6112 6.71237C51.7921 6.89052 52.0308 6.98031 52.268 6.98031C52.5067 6.98031 52.744 6.89052 52.9249 6.71237Z" fill="white"/>
<path d="M7.94702 12.7315C7.58244 13.0877 7.58244 13.6664 7.94702 14.0226L8.87584 14.9376C9.05668 15.1157 9.29396 15.2055 9.53267 15.2055C9.76997 15.2055 10.0087 15.1157 10.1895 14.9376C10.3704 14.7594 10.4615 14.5243 10.4615 14.2905C10.4615 14.0569 10.3704 13.8231 10.1895 13.6449L9.26068 12.7315C8.89754 12.3737 8.31016 12.3737 7.94702 12.7315Z" fill="white"/>
<path d="M11.3903 15.2055C11.6275 15.2055 11.8662 15.1157 12.0471 14.9376L12.9759 14.0226C13.339 13.6664 13.339 13.0877 12.9759 12.7315C12.6128 12.3737 12.0254 12.3737 11.6623 12.7315L10.7334 13.6449C10.5525 13.8231 10.4614 14.0569 10.4614 14.2905C10.4614 14.5243 10.5525 14.7594 10.7334 14.9376C10.9143 15.1157 11.153 15.2055 11.3903 15.2055Z" fill="white"/>
<path d="M9.53267 15.2061C9.29396 15.2061 9.05668 15.2944 8.87584 15.4725L7.94702 16.3875C7.58244 16.7438 7.58244 17.3224 7.94702 17.6787C8.12786 17.8569 8.36513 17.9466 8.60385 17.9466C8.84112 17.9466 9.07839 17.8569 9.26068 17.6787L10.1895 16.7651C10.3704 16.587 10.4615 16.3533 10.4615 16.1195C10.4615 15.8859 10.3704 15.6506 10.1895 15.4725C10.0087 15.2944 9.76997 15.2061 9.53267 15.2061Z" fill="white"/>
<path d="M10.4614 16.1195C10.4614 16.3533 10.5525 16.587 10.7334 16.7651L11.6623 17.6787C11.8431 17.8569 12.0818 17.9466 12.3191 17.9466C12.5578 17.9466 12.7951 17.8569 12.9759 17.6787C13.339 17.3224 13.339 16.7438 12.9759 16.3875L12.0471 15.4725C11.8662 15.2944 11.6275 15.2061 11.3903 15.2061C11.153 15.2061 10.9143 15.2944 10.7334 15.4725C10.5525 15.6506 10.4614 15.8859 10.4614 16.1195Z" fill="white"/>
<path d="M44.8363 14.2901H45.7651C46.2787 14.2901 46.694 13.8811 46.694 13.3767C46.694 12.8722 46.2787 12.4631 45.7651 12.4631H44.8363C44.3227 12.4631 43.9075 12.8722 43.9075 13.3767C43.9075 13.8811 44.3227 14.2901 44.8363 14.2901Z" fill="white"/>
<path d="M12.3189 5.15369H13.2478C13.7614 5.15369 14.178 4.74323 14.178 4.23873C14.178 3.73422 13.7614 3.3252 13.2478 3.3252H12.3189C11.8068 3.3252 11.3901 3.73422 11.3901 4.23873C11.3901 4.74323 11.8068 5.15369 12.3189 5.15369Z" fill="white"/>
<mask id="mask0_1_4491" style="mask-type:luminance" maskUnits="userSpaceOnUse" x="0" y="22" width="5" height="3">
<path d="M0.984863 22.1687H4.91138V24.3577H0.984863V22.1687Z" fill="white"/>
</mask>
<g mask="url(#mask0_1_4491)">
<path d="M2.09874 24.3431H3.95783C4.46999 24.3431 4.88665 23.9341 4.88665 23.4297C4.88665 22.9251 4.46999 22.5161 3.95783 22.5161H2.09874C1.58659 22.5161 1.16992 22.9251 1.16992 23.4297C1.16992 23.9341 1.58659 24.3431 2.09874 24.3431Z" fill="white"/>
</g>
<mask id="mask1_1_4491" style="mask-type:luminance" maskUnits="userSpaceOnUse" x="51" y="18" width="5" height="3">
<path d="M51.9485 18.52H55.9849V20.7091H51.9485V18.52Z" fill="white"/>
</mask>
<g mask="url(#mask1_1_4491)">
<path d="M55.0565 18.8601H53.1974C52.6852 18.8601 52.2686 19.2691 52.2686 19.7737C52.2686 20.2781 52.6852 20.6872 53.1974 20.6872H55.0565C55.5686 20.6872 55.9853 20.2781 55.9853 19.7737C55.9853 19.2691 55.5686 18.8601 55.0565 18.8601Z" fill="white"/>
</g>
<mask id="mask2_1_4491" style="mask-type:luminance" maskUnits="userSpaceOnUse" x="0" y="0" width="5" height="3">
<path d="M0.984863 0.5H4.17064V2.46816H0.984863V0.5Z" fill="white"/>
</mask>
<g mask="url(#mask2_1_4491)">
<path d="M2.09874 2.41272H3.02901C3.54117 2.41272 3.95783 2.00227 3.95783 1.49776C3.95783 0.993251 3.54117 0.584229 3.02901 0.584229H2.09874C1.58659 0.584229 1.16992 0.993251 1.16992 1.49776C1.16992 2.00227 1.58659 2.41272 2.09874 2.41272Z" fill="white"/>
</g>
<path d="M39.262 18.8618C38.7484 18.8618 38.3333 19.2709 38.3333 19.7754C38.3333 20.2799 38.7484 20.6889 39.262 20.6889H40.1909C40.7045 20.6889 41.1196 20.2799 41.1196 19.7754C41.1196 19.2709 40.7045 18.8618 40.1909 18.8618H39.262Z" fill="white"/>
<path d="M18.8222 25.2594C19.3358 25.2594 19.7525 24.849 19.7525 24.3445C19.7525 23.8399 19.3358 23.4309 18.8222 23.4309H17.8934C17.3812 23.4309 16.9646 23.8399 16.9646 24.3445C16.9646 24.849 17.3812 25.2594 17.8934 25.2594H18.8222Z" fill="white"/>
<mask id="mask3_1_4491" style="mask-type:luminance" maskUnits="userSpaceOnUse" x="0" y="0" width="47" height="56">
<path d="M0.984863 0.5H46.7633V55.5H0.984863V0.5Z" fill="white"/>
</mask>
<g mask="url(#mask3_1_4491)">
<path d="M42.0379 24.3603L33.6873 24.3731V22.5617C33.6873 22.0572 33.2706 21.6482 32.7584 21.6482V20.5907C32.7584 20.0862 32.3418 19.6757 31.8297 19.6757C31.5895 19.6757 30.9731 19.194 30.8993 18.5271V16.395C31.9816 15.9418 32.9625 15.1152 33.8117 14.0193C34.1039 14.186 34.4411 14.2801 34.7984 14.2801C35.3105 14.2801 35.7272 13.8697 35.7272 13.3651C35.7272 12.872 35.3265 12.4758 34.8302 12.4587C34.8852 12.3589 34.946 12.2677 34.9995 12.168C35.7475 11.2801 37.5284 9.65684 38.6815 8.60649C40.5348 6.9191 41.3161 6.18371 41.5851 5.7077C42.1985 4.62458 42.1783 3.27921 41.5316 2.19609C40.9298 1.18707 39.8721 0.584229 38.7017 0.584229C37.8611 0.584229 36.9787 1.03316 36.3652 1.54194H21.7009C21.0889 1.03173 20.2063 0.584229 19.3643 0.584229C18.1954 0.584229 17.1363 1.18707 16.5344 2.19609C15.8877 3.27921 15.866 4.62458 16.4794 5.70912C16.75 6.18513 17.5312 6.91909 19.3832 8.60506C20.5593 9.67683 22.3837 11.3414 23.1027 12.2165C23.1476 12.3005 23.1982 12.376 23.2445 12.4573C22.7425 12.4701 22.3374 12.8691 22.3374 13.3665C22.3374 13.871 22.7541 14.2801 23.2663 14.2801C23.6265 14.2801 23.965 14.1846 24.2602 14.015C25.1123 15.1152 26.0961 15.9461 27.1826 16.3993V18.4729C27.0828 19.2112 26.4867 19.6757 26.2538 19.6757C25.7416 19.6757 25.325 20.0862 25.325 20.5907V21.6482C24.8114 21.6482 24.3961 22.0572 24.3961 22.5617V24.3888L23.4674 24.3902C22.9538 24.3902 22.5371 24.7993 22.5371 25.3037C22.5371 25.8082 22.9538 26.2187 23.4674 26.2187L42.0438 26.1887C42.0481 26.1887 42.051 26.1887 42.0554 26.1887C42.7961 26.1887 43.492 26.4724 44.0171 26.9854C44.5437 27.5028 44.8346 28.1897 44.8346 28.9236C44.836 30.4314 43.5889 31.6571 42.0568 31.6571H26.248C23.6901 31.6571 21.6097 33.7037 21.6097 36.2205V37.1412H10.7474C5.70254 37.1412 1.50403 40.8893 1.19009 45.6736C1.02226 48.2332 1.90623 50.6674 3.68141 52.5287C5.432 54.3657 7.90306 55.419 10.461 55.419C14.0156 55.419 17.3055 53.3781 18.8406 50.2171C19.1979 49.4802 19.9199 49.0227 20.7257 49.0227H23.4225C24.2269 49.0227 24.9503 49.4817 25.3105 50.2214C26.8369 53.361 30.1065 55.4018 33.6395 55.419C33.654 55.419 33.6699 55.419 33.6844 55.419C38.6714 55.419 42.8322 51.4469 42.9726 46.543C43.0449 44.0504 42.1117 41.6945 40.3482 39.9102C38.5846 38.1245 36.2177 37.1412 33.6873 37.1412H23.4674V36.2205C23.4674 34.7127 24.7144 33.4856 26.248 33.4856H42.0568C44.6132 33.4856 46.6937 31.439 46.6937 28.9236C46.6937 27.7009 46.2104 26.5536 45.3293 25.6914C44.4483 24.8291 43.2923 24.3389 42.0379 24.3603ZM33.3689 6.7894C33.1765 8.27727 32.9176 9.76227 32.5443 11.2202C32.3302 12.0582 32.0524 12.8249 31.7197 13.5803C31.193 14.1218 30.6375 14.521 30.0689 14.7432C30.3915 14.1945 30.6766 13.6174 30.8863 13.0416C31.1337 12.3647 31.3291 11.6677 31.5012 10.968C32.1074 8.4996 32.4734 5.92005 32.5487 3.37043H33.6496C33.6077 4.51341 33.5165 5.6564 33.3689 6.7894ZM37.4098 3.07827C37.7585 2.7234 38.3617 2.41272 38.7017 2.41272C39.402 2.41272 39.7709 2.85594 39.9301 3.12102C40.2396 3.64121 40.2526 4.30534 39.9677 4.81128C39.7665 5.12908 38.466 6.3134 37.4199 7.26398C37.1175 7.53904 36.8412 7.79414 36.575 8.03785C36.8369 7.03595 37.0395 6.00271 37.1624 4.95949C37.2492 4.96946 37.3317 4.99227 37.4213 4.99227C37.9349 4.99227 38.3517 4.58324 38.3517 4.07874C38.3517 3.57422 37.9349 3.16378 37.4213 3.16378C37.391 3.16378 37.365 3.16093 37.3475 3.16378C37.3577 3.13955 37.378 3.11105 37.4098 3.07827ZM20.6462 7.26398C19.6016 6.31197 18.301 5.12908 18.1041 4.8184C17.8148 4.30676 17.8279 3.64121 18.1374 3.12102C18.2952 2.85594 18.6655 2.41272 19.3643 2.41272C19.7043 2.41272 20.3076 2.7234 20.6577 3.07827C20.6924 3.1139 20.7127 3.14525 20.7287 3.15808C20.7084 3.16236 20.6809 3.16378 20.6447 3.16378C20.1325 3.16378 19.7159 3.57422 19.7159 4.07874C19.7159 4.58324 20.1325 4.99227 20.6447 4.99227C20.7402 4.99227 20.8241 4.96804 20.9153 4.95806C21.0382 6.00556 21.2423 7.0445 21.5055 8.05067C21.235 7.80127 20.9529 7.54332 20.6462 7.26398ZM13.2474 47.1943H12.3186C11.8065 47.1943 11.3897 47.6033 11.3897 48.1078V49.0227H9.53212V48.1078C9.53212 47.6033 9.11546 47.1943 8.6033 47.1943H7.67303V45.3658H8.6033C9.11546 45.3658 9.53212 44.9568 9.53212 44.4522V43.5388H11.3897V44.4522C11.3897 44.9568 11.8065 45.3658 12.3186 45.3658H13.2474V47.1943ZM30.8993 47.1943C30.8993 47.6988 30.4841 48.1078 29.9706 48.1078C29.4583 48.1078 29.0417 47.6988 29.0417 47.1943V45.3658C29.0417 44.8612 29.4583 44.4522 29.9706 44.4522C30.4841 44.4522 30.8993 44.8612 30.8993 45.3658V47.1943ZM34.6161 50.8498H32.7584C32.2448 50.8498 31.8297 50.4408 31.8297 49.9363C31.8297 49.4318 32.2448 49.0227 32.7584 49.0227H34.6161C35.1297 49.0227 35.5449 49.4318 35.5449 49.9363C35.5449 50.4408 35.1297 50.8498 34.6161 50.8498ZM34.6161 43.5388H32.7584C32.2448 43.5388 31.8297 43.1297 31.8297 42.6252C31.8297 42.1207 32.2448 41.7102 32.7584 41.7102H34.6161C35.1297 41.7102 35.5449 42.1207 35.5449 42.6252C35.5449 43.1297 35.1297 43.5388 34.6161 43.5388ZM38.3328 47.1943C38.3328 47.6988 37.9162 48.1078 37.404 48.1078C36.8904 48.1078 36.4737 47.6988 36.4737 47.1943V45.3658C36.4737 44.8612 36.8904 44.4522 37.404 44.4522C37.9162 44.4522 38.3328 44.8612 38.3328 45.3658V47.1943ZM33.6873 38.9697C35.7113 38.9697 37.6051 39.7563 39.0157 41.1829C39.6509 41.8257 40.1427 42.5625 40.4957 43.3577C38.9824 41.2585 36.5027 39.8832 33.6873 39.8832H10.7474C7.84954 39.8832 5.20196 41.287 3.62065 43.4703C4.78674 40.8223 7.5515 38.9697 10.7474 38.9697H33.6873Z" fill="white"/>
</g>
</g>
</g>
</g>
<defs>
<clipPath id="clip0_1_4491">
<rect width="55.91" height="55" fill="white" transform="translate(0.530029 0.5)"/>
</clipPath>
<clipPath id="clip1_1_4491">
<rect width="55.91" height="55" fill="white" transform="translate(0.530029 0.5)"/>
</clipPath>
<clipPath id="clip2_1_4491">
<rect width="55.9167" height="55" fill="white" transform="translate(0.526611 0.5)"/>
</clipPath>
</defs>
</svg>
