<svg width="66" height="66" viewBox="0 0 66 66" fill="none" xmlns="http://www.w3.org/2000/svg">
<rect x="0.5" y="0.5" width="65" height="65" rx="8" fill="#00D280" fill-opacity="0.2"/>
<g clip-path="url(#clip0_1_4305)">
<g clip-path="url(#clip1_1_4305)">
<g clip-path="url(#clip2_1_4305)">
<mask id="mask0_1_4305" style="mask-type:luminance" maskUnits="userSpaceOnUse" x="30" y="12" width="6" height="9">
<path d="M30.0066 12.4907H35.5982V20.6185H30.0066V12.4907Z" fill="white"/>
</mask>
<g mask="url(#mask0_1_4305)">
<path d="M31.5674 13.8277H33.7152V15.8331H31.5674V13.8277ZM30.0066 18.6391L30.2653 19.9547C30.6916 19.8816 31.1301 19.844 31.5674 19.844C32.7139 19.844 33.8088 20.0894 34.8213 20.5725L35.4732 19.3823C34.6864 19.0068 33.8586 18.7514 32.9995 18.6177V17.1701H34.4316C34.8264 17.1701 35.1473 16.8708 35.1473 16.5016V13.1592C35.1473 12.79 34.8264 12.4907 34.4316 12.4907H30.8517C30.4563 12.4907 30.136 12.79 30.136 13.1592V16.5016C30.136 16.8708 30.4563 17.1701 30.8517 17.1701H31.5674V18.507C31.0433 18.507 30.5185 18.5514 30.0066 18.6391Z" fill="#00D280"/>
</g>
<mask id="mask1_1_4305" style="mask-type:luminance" maskUnits="userSpaceOnUse" x="15" y="12" width="14" height="16">
<path d="M15.8142 12.4907H28.4311V27.9717H15.8142V12.4907Z" fill="white"/>
</mask>
<g mask="url(#mask1_1_4305)">
<path d="M22.2623 17.8385H17.9667V13.8277H22.2623V17.8385ZM19.3987 26.5288H17.2509V24.5233H19.3987V26.5288ZM20.1144 23.1864H16.5346C16.1392 23.1864 15.8188 23.4856 15.8188 23.8549V27.1972C15.8188 27.5664 16.1392 27.8657 16.5346 27.8657H20.1144C20.5098 27.8657 20.8302 27.5664 20.8302 27.1972V25.8603H23.0082C22.9892 26.0812 22.978 26.3042 22.978 26.5288C22.978 26.7721 22.9898 27.017 23.0128 27.2572L24.4392 27.1372C24.4196 26.9366 24.4101 26.7319 24.4101 26.5288C24.4101 24.0047 25.9065 21.7225 28.3153 20.5725L27.6634 19.3823C27.0664 19.6674 26.5175 20.0111 26.0197 20.4022L23.6937 18.2302V13.1592C23.6937 12.79 23.3734 12.4907 22.978 12.4907H17.2509C16.8555 12.4907 16.5346 12.79 16.5346 13.1592V18.507C16.5346 18.8762 16.8555 19.1755 17.2509 19.1755H22.6817L25.006 21.3465C24.1731 22.2635 23.5711 23.3477 23.2485 24.5233H20.8302V23.8549C20.8302 23.4856 20.5098 23.1864 20.1144 23.1864Z" fill="#00D280"/>
</g>
<mask id="mask2_1_4305" style="mask-type:luminance" maskUnits="userSpaceOnUse" x="12" y="14" width="42" height="39">
<path d="M12.9456 14.4683H53.0543V52.5991H12.9456V14.4683Z" fill="white"/>
</mask>
<g mask="url(#mask2_1_4305)">
<path d="M45.1705 15.8331H51.6133V21.8494H45.1705V15.8331ZM45.8862 27.8657H48.7498V30.5395H45.8862V27.8657ZM41.5906 33.9305V39.072L39.5184 42.9418C39.4692 43.0343 39.4434 43.1372 39.4434 43.2406V51.2623H31.5679V43.2406C31.5679 43.0844 31.5097 42.933 31.4021 42.8128L27.9886 38.9879V35.4957L29.4207 34.1587V37.8927H30.8522V26.3349C30.8522 26.0732 31.0801 25.8602 31.3607 25.8602C31.5864 25.8602 31.7874 26.0022 31.8497 26.2049L33 29.965V34.5504H34.432V30.7991L35.8636 31.2446V34.5504H37.2956V31.6901L38.7271 32.1361V34.5504H40.1591V32.5816L40.6727 32.7414C41.2221 32.9121 41.5906 33.39 41.5906 33.9305ZM18.6817 37.8927H14.3866V33.8819H18.6817V37.8927ZM44.4548 23.1863H52.3296C52.725 23.1863 53.0454 22.887 53.0454 22.5178V15.1646C53.0454 14.7953 52.725 14.4961 52.3296 14.4961H44.4548C44.0594 14.4961 43.7384 14.7953 43.7384 15.1646V19.4736L38.8771 22.3105C38.3893 21.5741 37.7705 20.9077 37.0352 20.3411L36.1239 21.3715C37.7783 22.6479 38.7271 24.5275 38.7271 26.5287C38.7271 27.9079 38.2885 29.2125 37.4563 30.3307L36.0248 29.8852C36.8408 28.9425 37.2956 27.7638 37.2956 26.5287C37.2956 23.5801 34.7261 21.1809 31.5679 21.1809C28.4104 21.1809 25.8408 23.5801 25.8408 26.5287C25.8408 26.7841 25.8605 27.041 25.899 27.2922L27.316 27.1026C27.2874 26.9141 27.2729 26.7209 27.2729 26.5287C27.2729 24.3169 29.1995 22.5178 31.5679 22.5178C33.9369 22.5178 35.8636 24.3169 35.8636 26.5287C35.8636 27.628 35.3841 28.6683 34.5407 29.4235L34.3004 29.3488L33.2263 25.8372C32.9894 25.0638 32.222 24.5233 31.3607 24.5233C30.291 24.5233 29.4207 25.3364 29.4207 26.3349V30.0043C28.7951 29.6668 28.2664 29.1853 27.8856 28.5952L26.6596 29.2851C27.306 30.2872 28.2737 31.0555 29.4207 31.4879V32.2682L28.9155 32.7392C27.0752 32.0556 25.6235 30.6972 24.8966 28.9597L23.5631 29.4459C23.6247 29.5927 23.6902 29.7369 23.7603 29.8794L19.1925 32.5449H13.6703C13.2749 32.5449 12.9546 32.8442 12.9546 33.2134V38.5612C12.9546 38.9305 13.2749 39.2297 13.6703 39.2297H19.398C19.7928 39.2297 20.1137 38.9305 20.1137 38.5612V33.5843L24.4642 31.045C25.3088 32.2066 26.4664 33.1403 27.8296 33.7534L26.7666 34.7463C26.6321 34.8716 26.5566 35.0418 26.5566 35.2188V39.2297C26.5566 39.3864 26.6154 39.5378 26.7229 39.658L30.1364 43.4824V51.9308C30.1364 52.3 30.4568 52.5993 30.8522 52.5993H40.1591C40.5545 52.5993 40.8748 52.3 40.8748 51.9308V43.3988L42.947 39.529C42.9969 39.436 43.0227 39.3336 43.0227 39.2297V33.9305C43.0227 32.8139 42.2605 31.8258 41.1257 31.4728L38.8598 30.7677C39.4204 29.9259 39.8091 28.991 40.0068 28.0181L44.4548 29.0564V31.208C44.4548 31.5772 44.7751 31.8764 45.1705 31.8764H49.4661C49.8615 31.8764 50.1818 31.5772 50.1818 31.208V27.1972C50.1818 26.8279 49.8615 26.5287 49.4661 26.5287H45.1705C44.7751 26.5287 44.4548 26.8279 44.4548 27.1972V27.6781L40.1557 26.6749C40.1563 26.6263 40.1591 26.5773 40.1591 26.5287C40.1591 25.4774 39.9407 24.4537 39.5285 23.5069L43.7384 21.0503V22.5178C43.7384 22.887 44.0594 23.1863 44.4548 23.1863Z" fill="#00D280"/>
</g>
</g>
</g>
</g>
<defs>
<clipPath id="clip0_1_4305">
<rect width="41" height="40.09" fill="white" transform="translate(12.5 12.5)"/>
</clipPath>
<clipPath id="clip1_1_4305">
<rect width="41" height="40.09" fill="white" transform="translate(12.5 12.5)"/>
</clipPath>
<clipPath id="clip2_1_4305">
<rect width="41" height="40.1087" fill="white" transform="translate(12.5 12.4907)"/>
</clipPath>
</defs>
</svg>
