<svg width="66" height="65" viewBox="0 0 66 65" fill="none" xmlns="http://www.w3.org/2000/svg">
<rect x="0.5" width="65" height="65" rx="8" fill="#00D280" fill-opacity="0.2"/>
<g clip-path="url(#clip0_1_4305)">
<g clip-path="url(#clip1_1_4305)">
<g clip-path="url(#clip2_1_4305)">
<mask id="mask0_1_4305" style="mask-type:luminance" maskUnits="userSpaceOnUse" x="30" y="11" width="6" height="10">
<path d="M30.0066 11.9907H35.5982V20.1185H30.0066V11.9907Z" fill="white"/>
</mask>
<g mask="url(#mask0_1_4305)">
<path d="M31.5674 13.3277H33.7152V15.3331H31.5674V13.3277ZM30.0066 18.1391L30.2653 19.4547C30.6916 19.3816 31.1301 19.344 31.5674 19.344C32.7139 19.344 33.8088 19.5894 34.8213 20.0725L35.4732 18.8823C34.6864 18.5068 33.8586 18.2514 32.9995 18.1177V16.6701H34.4316C34.8264 16.6701 35.1473 16.3708 35.1473 16.0016V12.6592C35.1473 12.29 34.8264 11.9907 34.4316 11.9907H30.8517C30.4563 11.9907 30.136 12.29 30.136 12.6592V16.0016C30.136 16.3708 30.4563 16.6701 30.8517 16.6701H31.5674V18.007C31.0433 18.007 30.5185 18.0514 30.0066 18.1391Z" fill="#00D280"/>
</g>
<mask id="mask1_1_4305" style="mask-type:luminance" maskUnits="userSpaceOnUse" x="15" y="11" width="14" height="17">
<path d="M15.8142 11.9907H28.4311V27.4717H15.8142V11.9907Z" fill="white"/>
</mask>
<g mask="url(#mask1_1_4305)">
<path d="M22.2623 17.3385H17.9667V13.3277H22.2623V17.3385ZM19.3987 26.0288H17.2509V24.0233H19.3987V26.0288ZM20.1144 22.6864H16.5346C16.1392 22.6864 15.8188 22.9856 15.8188 23.3549V26.6972C15.8188 27.0664 16.1392 27.3657 16.5346 27.3657H20.1144C20.5098 27.3657 20.8302 27.0664 20.8302 26.6972V25.3603H23.0082C22.9892 25.5812 22.978 25.8042 22.978 26.0288C22.978 26.2721 22.9898 26.517 23.0128 26.7572L24.4392 26.6372C24.4196 26.4366 24.4101 26.2319 24.4101 26.0288C24.4101 23.5047 25.9065 21.2225 28.3153 20.0725L27.6634 18.8823C27.0664 19.1674 26.5175 19.5111 26.0197 19.9022L23.6937 17.7302V12.6592C23.6937 12.29 23.3734 11.9907 22.978 11.9907H17.2509C16.8555 11.9907 16.5346 12.29 16.5346 12.6592V18.007C16.5346 18.3762 16.8555 18.6755 17.2509 18.6755H22.6817L25.006 20.8465C24.1731 21.7635 23.5711 22.8477 23.2485 24.0233H20.8302V23.3549C20.8302 22.9856 20.5098 22.6864 20.1144 22.6864Z" fill="#00D280"/>
</g>
<mask id="mask2_1_4305" style="mask-type:luminance" maskUnits="userSpaceOnUse" x="12" y="13" width="42" height="40">
<path d="M12.9456 13.9683H53.0543V52.0991H12.9456V13.9683Z" fill="white"/>
</mask>
<g mask="url(#mask2_1_4305)">
<path d="M45.1705 15.3331H51.6133V21.3494H45.1705V15.3331ZM45.8862 27.3657H48.7498V30.0395H45.8862V27.3657ZM41.5906 33.4305V38.572L39.5184 42.4418C39.4692 42.5343 39.4434 42.6372 39.4434 42.7406V50.7623H31.5679V42.7406C31.5679 42.5844 31.5097 42.433 31.4021 42.3128L27.9886 38.4879V34.9957L29.4207 33.6587V37.3927H30.8522V25.8349C30.8522 25.5732 31.0801 25.3602 31.3607 25.3602C31.5864 25.3602 31.7874 25.5022 31.8497 25.7049L33 29.465V34.0504H34.432V30.2991L35.8636 30.7446V34.0504H37.2956V31.1901L38.7271 31.6361V34.0504H40.1591V32.0816L40.6727 32.2414C41.2221 32.4121 41.5906 32.89 41.5906 33.4305ZM18.6817 37.3927H14.3866V33.3819H18.6817V37.3927ZM44.4548 22.6863H52.3296C52.725 22.6863 53.0454 22.387 53.0454 22.0178V14.6646C53.0454 14.2953 52.725 13.9961 52.3296 13.9961H44.4548C44.0594 13.9961 43.7384 14.2953 43.7384 14.6646V18.9736L38.8771 21.8105C38.3893 21.0741 37.7705 20.4077 37.0352 19.8411L36.1239 20.8715C37.7783 22.1479 38.7271 24.0275 38.7271 26.0287C38.7271 27.4079 38.2885 28.7125 37.4563 29.8307L36.0248 29.3852C36.8408 28.4425 37.2956 27.2638 37.2956 26.0287C37.2956 23.0801 34.7261 20.6809 31.5679 20.6809C28.4104 20.6809 25.8408 23.0801 25.8408 26.0287C25.8408 26.2841 25.8605 26.541 25.899 26.7922L27.316 26.6026C27.2874 26.4141 27.2729 26.2209 27.2729 26.0287C27.2729 23.8169 29.1995 22.0178 31.5679 22.0178C33.9369 22.0178 35.8636 23.8169 35.8636 26.0287C35.8636 27.128 35.3841 28.1683 34.5407 28.9235L34.3004 28.8488L33.2263 25.3372C32.9894 24.5638 32.222 24.0233 31.3607 24.0233C30.291 24.0233 29.4207 24.8364 29.4207 25.8349V29.5043C28.7951 29.1668 28.2664 28.6853 27.8856 28.0952L26.6596 28.7851C27.306 29.7872 28.2737 30.5555 29.4207 30.9879V31.7682L28.9155 32.2392C27.0752 31.5556 25.6235 30.1972 24.8966 28.4597L23.5631 28.9459C23.6247 29.0927 23.6902 29.2369 23.7603 29.3794L19.1925 32.0449H13.6703C13.2749 32.0449 12.9546 32.3442 12.9546 32.7134V38.0612C12.9546 38.4305 13.2749 38.7297 13.6703 38.7297H19.398C19.7928 38.7297 20.1137 38.4305 20.1137 38.0612V33.0843L24.4642 30.545C25.3088 31.7066 26.4664 32.6403 27.8296 33.2534L26.7666 34.2463C26.6321 34.3716 26.5566 34.5418 26.5566 34.7188V38.7297C26.5566 38.8864 26.6154 39.0378 26.7229 39.158L30.1364 42.9824V51.4308C30.1364 51.8 30.4568 52.0993 30.8522 52.0993H40.1591C40.5545 52.0993 40.8748 51.8 40.8748 51.4308V42.8988L42.947 39.029C42.9969 38.936 43.0227 38.8336 43.0227 38.7297V33.4305C43.0227 32.3139 42.2605 31.3258 41.1257 30.9728L38.8598 30.2677C39.4204 29.4259 39.8091 28.491 40.0068 27.5181L44.4548 28.5564V30.708C44.4548 31.0772 44.7751 31.3764 45.1705 31.3764H49.4661C49.8615 31.3764 50.1818 31.0772 50.1818 30.708V26.6972C50.1818 26.3279 49.8615 26.0287 49.4661 26.0287H45.1705C44.7751 26.0287 44.4548 26.3279 44.4548 26.6972V27.1781L40.1557 26.1749C40.1563 26.1263 40.1591 26.0773 40.1591 26.0287C40.1591 24.9774 39.9407 23.9537 39.5285 23.0069L43.7384 20.5503V22.0178C43.7384 22.387 44.0594 22.6863 44.4548 22.6863Z" fill="#00D280"/>
</g>
</g>
</g>
</g>
<defs>
<clipPath id="clip0_1_4305">
<rect width="41" height="40.09" fill="white" transform="translate(12.5 12)"/>
</clipPath>
<clipPath id="clip1_1_4305">
<rect width="41" height="40.09" fill="white" transform="translate(12.5 12)"/>
</clipPath>
<clipPath id="clip2_1_4305">
<rect width="41" height="40.1087" fill="white" transform="translate(12.5 11.9907)"/>
</clipPath>
</defs>
</svg>
