<svg width="47" height="42" viewBox="0 0 47 42" fill="none" xmlns="http://www.w3.org/2000/svg">
<g clip-path="url(#clip0_1_4339)">
<g clip-path="url(#clip1_1_4339)">
<mask id="mask0_1_4339" style="mask-type:luminance" maskUnits="userSpaceOnUse" x="0" y="0" width="47" height="55">
<path d="M0.568359 0H46.4017V55H0.568359V0Z" fill="white"/>
</mask>
<g mask="url(#mask0_1_4339)">
<path fill-rule="evenodd" clip-rule="evenodd" d="M42.0268 18.8654L46.2807 51.7969C46.3844 52.6057 46.1222 53.4183 45.5567 54.0286C44.9912 54.639 44.1791 54.9873 43.3261 54.9873H3.64455C2.79143 54.9873 1.9794 54.639 1.41392 54.0286C0.848441 53.4183 0.586245 52.6057 0.689951 51.7969C0.689951 51.7969 4.94574 18.8485 4.94574 18.8391L5.21967 16.7254C5.4036 15.3005 6.67153 14.2296 8.17426 14.2296H11.5808V11.3875C11.5808 5.10977 16.9147 0.0134277 23.4853 0.0134277C30.0559 0.0134277 35.3898 5.10977 35.3898 11.3875V14.2296H38.7964C40.2991 14.2296 41.567 15.3005 41.751 16.7254C41.751 16.7254 42.0268 18.856 42.0268 18.8654ZM6.80654 19.9176L2.66033 52.029C2.62511 52.2987 2.71316 52.5683 2.901 52.7723C3.08884 52.9764 3.35887 53.0925 3.64455 53.0925H43.3261C43.6098 53.0925 43.8818 52.9764 44.0696 52.7723C44.2574 52.5683 44.3455 52.2987 44.3103 52.029L40.1641 19.9176H6.80654ZM18.5251 41.0968C17.5409 40.8646 16.5606 40.3684 15.7682 39.6121C14.692 38.5823 14.1187 37.2231 14.06 35.9706C13.1756 35.0437 12.5728 33.6938 12.5728 32.2391C12.5728 30.7843 13.1756 29.4344 14.06 28.5095C14.1187 27.2569 14.692 25.8957 15.7682 24.8679C16.8463 23.8382 18.2688 23.2914 19.5798 23.2334H19.5818C20.5522 22.389 21.963 21.8124 23.4853 21.8124C25.0076 21.8124 26.4203 22.389 27.3889 23.2334C28.6999 23.2914 30.1243 23.8382 31.2024 24.8679C32.2786 25.8957 32.852 27.2569 32.9107 28.5095C33.7951 29.4363 34.3978 30.7843 34.3978 32.2391C34.3978 33.6938 33.7951 35.0437 32.9107 35.9686C32.852 37.2231 32.2786 38.5842 31.2024 39.6121C30.41 40.3684 29.4297 40.8646 28.4455 41.0968V49.3011C28.4455 49.9582 28.0894 50.5686 27.5043 50.9131C26.9193 51.2595 26.1895 51.2895 25.575 50.9974L23.4853 49.9976L21.3956 50.9974C20.7811 51.2895 20.0513 51.2595 19.4663 50.9131C18.8813 50.5686 18.5251 49.9582 18.5251 49.3011V41.0968ZM27.4143 39.3462C28.242 39.2844 29.1225 38.9174 29.7995 38.2716C30.5822 37.5227 30.9736 36.5116 30.9285 35.6222C30.9148 35.3395 31.0342 35.0662 31.2533 34.8771C31.9421 34.2779 32.4136 33.2987 32.4136 32.2391C32.4136 31.1812 31.9421 30.2021 31.2533 29.6029C31.0342 29.4119 30.9148 29.1385 30.9285 28.8558C30.9736 27.9684 30.5822 26.9555 29.7995 26.2066C29.0149 25.4595 27.9563 25.085 27.0269 25.1281C26.7295 25.1412 26.4438 25.027 26.2462 24.8174C25.6181 24.1602 24.5928 23.7089 23.4853 23.7089C22.3778 23.7089 21.3525 24.1602 20.7244 24.8174C20.5268 25.027 20.2411 25.1412 19.9437 25.1281C19.0143 25.085 17.9557 25.4595 17.1711 26.2066C16.3884 26.9555 15.9971 27.9684 16.0421 28.8558C16.0558 29.1385 15.9365 29.4119 15.7173 29.6029C15.0285 30.2021 14.557 31.1812 14.557 32.2391C14.557 33.2987 15.0285 34.2779 15.7173 34.8771C15.9365 35.0662 16.0558 35.3395 16.0421 35.6222C15.9971 36.5116 16.3884 37.5227 17.1711 38.2716C17.8481 38.9174 18.7286 39.2844 19.5563 39.3462C19.5758 39.3462 19.5954 39.3481 19.615 39.3499C19.7265 39.3556 19.8361 39.3574 19.9437 39.3519C20.2411 39.3387 20.5268 39.451 20.7244 39.6608C21.3525 40.3198 22.3778 40.771 23.4853 40.771C24.5928 40.771 25.6181 40.3198 26.2462 39.6608C26.4438 39.451 26.7295 39.3387 27.0269 39.3519C27.1346 39.3574 27.2441 39.3556 27.3557 39.3499C27.3752 39.3481 27.3948 39.3462 27.4143 39.3462ZM21.9473 28.1987C22.3231 27.7568 22.8886 27.5004 23.4853 27.5004C24.0821 27.5004 24.6475 27.7568 25.0233 28.1987L25.894 29.2172L27.1775 29.6928C27.7352 29.9006 28.1637 30.335 28.3477 30.876C28.5336 31.4171 28.4534 32.0106 28.1285 32.49L27.3831 33.5965L27.3067 34.909C27.2734 35.4781 26.974 36.0042 26.4908 36.3375C26.0075 36.6745 25.3931 36.7831 24.8158 36.6371L23.4853 36.3019L22.1548 36.6371C21.5775 36.7831 20.9632 36.6745 20.4798 36.3375C19.9966 36.0042 19.6972 35.4781 19.6639 34.909L19.5876 33.5965L18.8421 32.49C18.5172 32.0106 18.437 31.4171 18.6229 30.876C18.8069 30.335 19.2354 29.9006 19.7931 29.6928L21.0767 29.2172L21.9473 28.1987ZM20.5092 41.8944V49.3011L22.5989 48.3032C23.1566 48.0374 23.814 48.0374 24.3717 48.3032L26.4614 49.3011V41.8944C25.6064 42.3736 24.5752 42.6658 23.4853 42.6658C22.3955 42.6658 21.3623 42.3736 20.5092 41.8944ZM33.4057 14.2296V11.3875C33.4057 6.15637 28.9601 1.90817 23.4853 1.90817C18.0105 1.90817 13.565 6.15637 13.565 11.3875V14.2296H33.4057Z" fill="white"/>
</g>
</g>
</g>
<defs>
<clipPath id="clip0_1_4339">
<rect width="46.75" height="55" fill="white" transform="translate(0.110107)"/>
</clipPath>
<clipPath id="clip1_1_4339">
<rect width="46.75" height="55" fill="white" transform="translate(0.110107)"/>
</clipPath>
</defs>
</svg>
