<svg width="47" height="55" viewBox="0 0 47 55" fill="none" xmlns="http://www.w3.org/2000/svg">
<g clip-path="url(#clip0_1_4338)">
<g clip-path="url(#clip1_1_4338)">
<g clip-path="url(#clip2_1_4338)">
<mask id="mask0_1_4338" style="mask-type:luminance" maskUnits="userSpaceOnUse" x="0" y="0" width="47" height="55">
<path d="M0.568359 0H46.4017V55H0.568359V0Z" fill="white"/>
</mask>
<g mask="url(#mask0_1_4338)">
<path fill-rule="evenodd" clip-rule="evenodd" d="M42.0268 18.8651L46.2807 51.7966C46.3844 52.6054 46.1222 53.418 45.5567 54.0284C44.9912 54.6388 44.1791 54.987 43.3261 54.987H3.64455C2.79143 54.987 1.9794 54.6388 1.41392 54.0284C0.848441 53.418 0.586245 52.6054 0.689951 51.7966C0.689951 51.7966 4.94574 18.8483 4.94574 18.8389L5.21967 16.7252C5.4036 15.3003 6.67153 14.2294 8.17426 14.2294H11.5808V11.3872C11.5808 5.10952 16.9147 0.0131836 23.4853 0.0131836C30.0559 0.0131836 35.3898 5.10952 35.3898 11.3872V14.2294H38.7964C40.2991 14.2294 41.567 15.3003 41.751 16.7252C41.751 16.7252 42.0268 18.8558 42.0268 18.8651ZM6.80654 19.9174L2.66033 52.0287C2.62511 52.2984 2.71316 52.568 2.901 52.7721C3.08884 52.9761 3.35887 53.0923 3.64455 53.0923H43.3261C43.6098 53.0923 43.8818 52.9761 44.0696 52.7721C44.2574 52.568 44.3455 52.2984 44.3103 52.0287L40.1641 19.9174H6.80654ZM18.5251 41.0966C17.5409 40.8644 16.5606 40.3682 15.7682 39.6119C14.692 38.5821 14.1187 37.2228 14.06 35.9703C13.1756 35.0435 12.5728 33.6936 12.5728 32.2388C12.5728 30.7841 13.1756 29.4341 14.06 28.5093C14.1187 27.2567 14.692 25.8955 15.7682 24.8676C16.8463 23.8379 18.2688 23.2912 19.5798 23.2331H19.5818C20.5522 22.3888 21.963 21.8121 23.4853 21.8121C25.0076 21.8121 26.4203 22.3888 27.3889 23.2331C28.6999 23.2912 30.1243 23.8379 31.2024 24.8676C32.2786 25.8955 32.852 27.2567 32.9107 28.5093C33.7951 29.436 34.3978 30.7841 34.3978 32.2388C34.3978 33.6936 33.7951 35.0435 32.9107 35.9684C32.852 37.2228 32.2786 38.584 31.2024 39.6119C30.41 40.3682 29.4297 40.8644 28.4455 41.0966V49.3008C28.4455 49.958 28.0894 50.5684 27.5043 50.9129C26.9193 51.2593 26.1895 51.2893 25.575 50.9971L23.4853 49.9973L21.3956 50.9971C20.7811 51.2893 20.0513 51.2593 19.4663 50.9129C18.8813 50.5684 18.5251 49.958 18.5251 49.3008V41.0966ZM27.4143 39.3459C28.242 39.2841 29.1225 38.9172 29.7995 38.2713C30.5822 37.5224 30.9736 36.5113 30.9285 35.622C30.9148 35.3393 31.0342 35.0659 31.2533 34.8768C31.9421 34.2777 32.4136 33.2985 32.4136 32.2388C32.4136 31.181 31.9421 30.2018 31.2533 29.6027C31.0342 29.4116 30.9148 29.1383 30.9285 28.8556C30.9736 27.9682 30.5822 26.9553 29.7995 26.2063C29.0149 25.4593 27.9563 25.0848 27.0269 25.1279C26.7295 25.141 26.4438 25.0268 26.2462 24.8171C25.6181 24.16 24.5928 23.7087 23.4853 23.7087C22.3778 23.7087 21.3525 24.16 20.7244 24.8171C20.5268 25.0268 20.2411 25.141 19.9437 25.1279C19.0143 25.0848 17.9557 25.4593 17.1711 26.2063C16.3884 26.9553 15.9971 27.9682 16.0421 28.8556C16.0558 29.1383 15.9365 29.4116 15.7173 29.6027C15.0285 30.2018 14.557 31.181 14.557 32.2388C14.557 33.2985 15.0285 34.2777 15.7173 34.8768C15.9365 35.0659 16.0558 35.3393 16.0421 35.622C15.9971 36.5113 16.3884 37.5224 17.1711 38.2713C17.8481 38.9172 18.7286 39.2841 19.5563 39.3459C19.5758 39.3459 19.5954 39.3479 19.615 39.3497C19.7265 39.3554 19.8361 39.3572 19.9437 39.3516C20.2411 39.3385 20.5268 39.4508 20.7244 39.6605C21.3525 40.3195 22.3778 40.7708 23.4853 40.7708C24.5928 40.7708 25.6181 40.3195 26.2462 39.6605C26.4438 39.4508 26.7295 39.3385 27.0269 39.3516C27.1346 39.3572 27.2441 39.3554 27.3557 39.3497C27.3752 39.3479 27.3948 39.3459 27.4143 39.3459ZM21.9473 28.1984C22.3231 27.7566 22.8886 27.5001 23.4853 27.5001C24.0821 27.5001 24.6475 27.7566 25.0233 28.1984L25.894 29.2169L27.1775 29.6925C27.7352 29.9003 28.1637 30.3347 28.3477 30.8757C28.5336 31.4169 28.4534 32.0104 28.1285 32.4897L27.3831 33.5962L27.3067 34.9087C27.2734 35.4779 26.974 36.0039 26.4908 36.3372C26.0075 36.6742 25.3931 36.7828 24.8158 36.6368L23.4853 36.3017L22.1548 36.6368C21.5775 36.7828 20.9632 36.6742 20.4798 36.3372C19.9966 36.0039 19.6972 35.4779 19.6639 34.9087L19.5876 33.5962L18.8421 32.4897C18.5172 32.0104 18.437 31.4169 18.6229 30.8757C18.8069 30.3347 19.2354 29.9003 19.7931 29.6925L21.0767 29.2169L21.9473 28.1984ZM20.5092 41.8942V49.3008L22.5989 48.303C23.1566 48.0371 23.814 48.0371 24.3717 48.303L26.4614 49.3008V41.8942C25.6064 42.3734 24.5752 42.6655 23.4853 42.6655C22.3955 42.6655 21.3623 42.3734 20.5092 41.8942ZM33.4057 14.2294V11.3872C33.4057 6.15613 28.9601 1.90793 23.4853 1.90793C18.0105 1.90793 13.565 6.15613 13.565 11.3872V14.2294H33.4057Z" fill="#0575AD"/>
</g>
</g>
</g>
</g>
<defs>
<clipPath id="clip0_1_4338">
<rect width="46.75" height="55" fill="white" transform="translate(0.110107)"/>
</clipPath>
<clipPath id="clip1_1_4338">
<rect width="46.75" height="55" fill="white" transform="translate(0.110107)"/>
</clipPath>
<clipPath id="clip2_1_4338">
<rect width="46.75" height="55" fill="white" transform="translate(0.110107)"/>
</clipPath>
</defs>
</svg>
