<svg width="66" height="65" viewBox="0 0 66 65" fill="none" xmlns="http://www.w3.org/2000/svg">
<rect x="0.5" width="65" height="65" rx="8" fill="#00D280" fill-opacity="0.2"/>
<g clip-path="url(#clip0_1_4266)">
<g clip-path="url(#clip1_1_4266)">
<g clip-path="url(#clip2_1_4266)">
<mask id="mask0_1_4266" style="mask-type:luminance" maskUnits="userSpaceOnUse" x="12" y="17" width="36" height="36">
<path d="M12.9456 17.5232H47.8309V52.0996H12.9456V17.5232Z" fill="white"/>
</mask>
<g mask="url(#mask0_1_4266)">
<path d="M47.038 36.3405C46.6704 36.3405 46.3694 36.6622 46.3694 37.056V39.2043H14.2828V20.5906C14.2828 19.803 14.8841 19.1587 15.6193 19.1587H37.6795C38.0472 19.1587 38.3474 18.8361 38.3474 18.4423C38.3474 18.0486 38.0472 17.7268 37.6795 17.7268H15.6193C14.142 17.7268 12.9456 19.0082 12.9456 20.5906V42.0672C12.9456 43.6495 14.142 44.931 15.6193 44.931H26.7232L25.8336 47.7947H25.6465C23.434 47.7947 21.6354 49.3986 21.6354 51.3748C21.6354 51.7678 21.9364 52.0904 22.3041 52.0904H38.3474C38.715 52.0904 39.016 51.7678 39.016 51.3748C39.016 49.3986 37.2183 47.7947 35.005 47.7947H34.8178L33.9291 44.931H45.0322C46.5094 44.931 47.7067 43.6495 47.7067 42.0672V37.056C47.7067 36.6622 47.4057 36.3405 47.038 36.3405ZM37.5252 50.6585H23.1262C23.4939 49.8276 24.4837 49.2266 25.6465 49.2266H35.005C36.1686 49.2266 37.1577 49.8276 37.5252 50.6585ZM33.4079 47.7947H27.2443L28.133 44.931H32.5184L33.4079 47.7947ZM46.3694 42.0672C46.3694 42.8548 45.7674 43.4991 45.0322 43.4991H15.6193C14.8841 43.4991 14.2828 42.8548 14.2828 42.0672V40.6361H46.3694V42.0672Z" fill="#00D280"/>
</g>
<mask id="mask1_1_4266" style="mask-type:luminance" maskUnits="userSpaceOnUse" x="39" y="11" width="15" height="24">
<path d="M39.5891 11.9907H53.0545V34.9392H39.5891V11.9907Z" fill="white"/>
</mask>
<g mask="url(#mask1_1_4266)">
<path d="M51.0495 11.9995H41.6902C40.5873 11.9995 39.6851 12.9664 39.6851 14.1469V32.7606C39.6851 33.9419 40.5873 34.9088 41.6902 34.9088H51.0495C52.1524 34.9088 53.0546 33.9419 53.0546 32.7606V14.1469C53.0546 12.9664 52.1524 11.9995 51.0495 11.9995ZM51.7174 32.7606C51.7174 33.1544 51.4171 33.4769 51.0495 33.4769H41.6902C41.3226 33.4769 41.0224 33.1544 41.0224 32.7606V14.1469C41.0224 13.7531 41.3226 13.4314 41.6902 13.4314H51.0495C51.4171 13.4314 51.7174 13.7531 51.7174 14.1469V32.7606Z" fill="#00D280"/>
</g>
<path d="M47.0384 31.3296H45.701C45.3335 31.3296 45.0325 31.6514 45.0325 32.0451C45.0325 32.4389 45.3335 32.7607 45.701 32.7607H47.0384C47.4059 32.7607 47.7069 32.4389 47.7069 32.0451C47.7069 31.6514 47.4059 31.3296 47.0384 31.3296Z" fill="#00D280"/>
<path d="M22.9729 29.1817C22.9729 33.5277 26.2689 37.0566 30.3263 37.0566C34.3837 37.0566 37.6797 33.5277 37.6797 29.1817C37.6797 24.8364 34.3837 21.3066 30.3263 21.3066C26.2689 21.3066 22.9729 24.8364 22.9729 29.1817ZM32.318 28.4661H28.3339C28.468 24.9436 29.5574 22.7385 30.3263 22.7385C31.0953 22.7385 32.1847 24.9436 32.318 28.4661ZM30.3263 35.6247C29.5574 35.6247 28.468 33.4196 28.3339 29.898H32.318C32.1847 33.4196 31.0953 35.6247 30.3263 35.6247ZM28.1071 23.1964C27.4519 24.5643 27.0708 26.5116 26.9974 28.4661H24.3499C24.5977 26.0674 26.0817 24.0632 28.1071 23.1964ZM24.3499 29.898H26.9974C27.0708 31.8517 27.4519 33.7919 28.1071 35.1669C26.0877 34.3009 24.5977 32.3031 24.3499 29.898ZM32.5456 35.1669C33.2008 33.799 33.5818 31.8517 33.6553 29.898H36.3021C36.0549 32.2959 34.571 34.3009 32.5456 35.1669ZM36.3021 28.4661H33.6553C33.5818 26.5116 33.2008 24.5714 32.5456 23.1964C34.5642 24.0632 36.0549 26.0601 36.3021 28.4661Z" fill="#00D280"/>
</g>
</g>
</g>
<defs>
<clipPath id="clip0_1_4266">
<rect width="41" height="40.09" fill="white" transform="translate(12.5 12)"/>
</clipPath>
<clipPath id="clip1_1_4266">
<rect width="41" height="40.09" fill="white" transform="translate(12.5 12)"/>
</clipPath>
<clipPath id="clip2_1_4266">
<rect width="41" height="40.1087" fill="white" transform="translate(12.5 11.9907)"/>
</clipPath>
</defs>
</svg>
