<svg width="66" height="66" viewBox="0 0 66 66" fill="none" xmlns="http://www.w3.org/2000/svg">
<rect x="0.5" y="0.5" width="65" height="65" rx="8" fill="#00D280" fill-opacity="0.2"/>
<g clip-path="url(#clip0_1_4266)">
<g clip-path="url(#clip1_1_4266)">
<g clip-path="url(#clip2_1_4266)">
<mask id="mask0_1_4266" style="mask-type:luminance" maskUnits="userSpaceOnUse" x="12" y="18" width="36" height="35">
<path d="M12.9456 18.0232H47.8309V52.5996H12.9456V18.0232Z" fill="white"/>
</mask>
<g mask="url(#mask0_1_4266)">
<path d="M47.038 36.8405C46.6704 36.8405 46.3694 37.1622 46.3694 37.556V39.7043H14.2828V21.0906C14.2828 20.303 14.8841 19.6587 15.6193 19.6587H37.6795C38.0472 19.6587 38.3474 19.3361 38.3474 18.9423C38.3474 18.5486 38.0472 18.2268 37.6795 18.2268H15.6193C14.142 18.2268 12.9456 19.5082 12.9456 21.0906V42.5672C12.9456 44.1495 14.142 45.431 15.6193 45.431H26.7232L25.8336 48.2947H25.6465C23.434 48.2947 21.6354 49.8986 21.6354 51.8748C21.6354 52.2678 21.9364 52.5904 22.3041 52.5904H38.3474C38.715 52.5904 39.016 52.2678 39.016 51.8748C39.016 49.8986 37.2183 48.2947 35.005 48.2947H34.8178L33.9291 45.431H45.0322C46.5094 45.431 47.7067 44.1495 47.7067 42.5672V37.556C47.7067 37.1622 47.4057 36.8405 47.038 36.8405ZM37.5252 51.1585H23.1262C23.4939 50.3276 24.4837 49.7266 25.6465 49.7266H35.005C36.1686 49.7266 37.1577 50.3276 37.5252 51.1585ZM33.4079 48.2947H27.2443L28.133 45.431H32.5184L33.4079 48.2947ZM46.3694 42.5672C46.3694 43.3548 45.7674 43.9991 45.0322 43.9991H15.6193C14.8841 43.9991 14.2828 43.3548 14.2828 42.5672V41.1361H46.3694V42.5672Z" fill="#00D280"/>
</g>
<mask id="mask1_1_4266" style="mask-type:luminance" maskUnits="userSpaceOnUse" x="39" y="12" width="15" height="24">
<path d="M39.5891 12.4907H53.0545V35.4392H39.5891V12.4907Z" fill="white"/>
</mask>
<g mask="url(#mask1_1_4266)">
<path d="M51.0495 12.4995H41.6902C40.5873 12.4995 39.6851 13.4664 39.6851 14.6469V33.2606C39.6851 34.4419 40.5873 35.4088 41.6902 35.4088H51.0495C52.1524 35.4088 53.0546 34.4419 53.0546 33.2606V14.6469C53.0546 13.4664 52.1524 12.4995 51.0495 12.4995ZM51.7174 33.2606C51.7174 33.6544 51.4171 33.9769 51.0495 33.9769H41.6902C41.3226 33.9769 41.0224 33.6544 41.0224 33.2606V14.6469C41.0224 14.2531 41.3226 13.9314 41.6902 13.9314H51.0495C51.4171 13.9314 51.7174 14.2531 51.7174 14.6469V33.2606Z" fill="#00D280"/>
</g>
<path d="M47.0384 31.8296H45.701C45.3335 31.8296 45.0325 32.1514 45.0325 32.5451C45.0325 32.9389 45.3335 33.2607 45.701 33.2607H47.0384C47.4059 33.2607 47.7069 32.9389 47.7069 32.5451C47.7069 32.1514 47.4059 31.8296 47.0384 31.8296Z" fill="#00D280"/>
<path d="M22.9729 29.6817C22.9729 34.0277 26.2689 37.5566 30.3263 37.5566C34.3837 37.5566 37.6797 34.0277 37.6797 29.6817C37.6797 25.3364 34.3837 21.8066 30.3263 21.8066C26.2689 21.8066 22.9729 25.3364 22.9729 29.6817ZM32.318 28.9661H28.3339C28.468 25.4436 29.5574 23.2385 30.3263 23.2385C31.0953 23.2385 32.1847 25.4436 32.318 28.9661ZM30.3263 36.1247C29.5574 36.1247 28.468 33.9196 28.3339 30.398H32.318C32.1847 33.9196 31.0953 36.1247 30.3263 36.1247ZM28.1071 23.6964C27.4519 25.0643 27.0708 27.0116 26.9974 28.9661H24.3499C24.5977 26.5674 26.0817 24.5632 28.1071 23.6964ZM24.3499 30.398H26.9974C27.0708 32.3517 27.4519 34.2919 28.1071 35.6669C26.0877 34.8009 24.5977 32.8031 24.3499 30.398ZM32.5456 35.6669C33.2008 34.299 33.5818 32.3517 33.6553 30.398H36.3021C36.0549 32.7959 34.571 34.8009 32.5456 35.6669ZM36.3021 28.9661H33.6553C33.5818 27.0116 33.2008 25.0714 32.5456 23.6964C34.5642 24.5632 36.0549 26.5601 36.3021 28.9661Z" fill="#00D280"/>
</g>
</g>
</g>
<defs>
<clipPath id="clip0_1_4266">
<rect width="41" height="40.09" fill="white" transform="translate(12.5 12.5)"/>
</clipPath>
<clipPath id="clip1_1_4266">
<rect width="41" height="40.09" fill="white" transform="translate(12.5 12.5)"/>
</clipPath>
<clipPath id="clip2_1_4266">
<rect width="41" height="40.1087" fill="white" transform="translate(12.5 12.4907)"/>
</clipPath>
</defs>
</svg>
