<svg width="55" height="55" viewBox="0 0 55 55" fill="none" xmlns="http://www.w3.org/2000/svg">
<g clip-path="url(#clip0_1_4425)">
<g clip-path="url(#clip1_1_4425)">
<g clip-path="url(#clip2_1_4425)">
<path d="M44.6759 37.0247H37.3668C37.0014 37.0247 36.7163 36.568 36.7542 36.0441L37.232 29.4889C37.2465 29.2886 37.3712 29.1283 37.5093 29.1283H40.3915C40.7735 29.1283 41.1232 29.3463 41.3649 29.7357L45.1236 35.7829C45.4076 36.2412 45.1258 37.0247 44.6759 37.0247ZM48.1707 37.8996L42.4529 28.6957C41.9495 27.8881 41.2212 27.4331 40.4271 27.4331H36.3767C36.0337 27.4331 35.7051 27.6013 35.4323 27.8817L35.6394 25.052C35.733 23.7573 35.0291 22.6309 34.1259 22.6309H5.58769C5.03976 22.6309 4.59428 23.2718 4.59428 24.0634C4.59428 24.8533 5.03976 25.4943 5.58769 25.4943H19.8886C20.4376 25.4943 20.8819 26.1352 20.8819 26.9252C20.8819 27.7151 20.4376 28.356 19.8886 28.356H7.60235C7.05331 28.356 6.60782 28.997 6.60782 29.7869C6.60782 30.5785 7.05331 31.2194 7.60235 31.2194H18.9041C19.4531 31.2194 19.8986 31.8588 19.8986 32.6503C19.8986 33.4403 19.4531 34.0812 18.9041 34.0812H3.00171C2.45377 34.0812 2.0083 34.7221 2.0083 35.5121C2.0083 36.3021 2.45377 36.943 3.00171 36.943H14.2611C14.8101 36.943 15.2556 37.5839 15.2556 38.3755C15.2556 39.1655 14.8101 39.8064 14.2611 39.8064H7.29943C6.75038 39.8064 6.30491 40.4473 6.30491 41.2373C6.30491 42.0272 6.75038 42.6682 7.29943 42.6682H10.1605L9.87985 46.5106C9.78626 47.8037 10.4902 48.9301 11.3933 48.9301H16.5275C16.5275 45.2399 18.6134 42.2356 21.1759 42.2356C23.7397 42.2356 25.8245 45.2399 25.8245 48.9301H35.5949C35.5949 45.2399 37.6808 42.2356 40.2434 42.2356C42.8071 42.2356 44.8919 45.2399 44.8919 48.9301H46.0992C47.283 48.9301 48.3432 47.5489 48.4679 45.844L48.8254 40.9473C48.909 39.8047 48.6729 38.7072 48.1707 37.8996Z" fill="#0575AD"/>
<mask id="mask0_1_4425" style="mask-type:luminance" maskUnits="userSpaceOnUse" x="36" y="43" width="9" height="12">
<path d="M36.3296 43.334H44.1376V54.4943H36.3296V43.334Z" fill="white"/>
</mask>
<g mask="url(#mask0_1_4425)">
<path d="M40.2431 51.3259C39.3254 51.3259 38.5792 50.2507 38.5792 48.9288C38.5792 47.6084 39.3254 46.5332 40.2431 46.5332C41.1608 46.5332 41.9069 47.6084 41.9069 48.9288C41.9069 50.2507 41.1608 51.3259 40.2431 51.3259ZM40.2431 43.3638C38.1126 43.3638 36.3796 45.8602 36.3796 48.9288C36.3796 51.9972 38.1126 54.4937 40.2431 54.4937C42.3736 54.4937 44.1075 51.9972 44.1075 48.9288C44.1075 45.8602 42.3736 43.3638 40.2431 43.3638Z" fill="#0575AD"/>
</g>
<mask id="mask1_1_4425" style="mask-type:luminance" maskUnits="userSpaceOnUse" x="17" y="43" width="9" height="12">
<path d="M17.3081 43.334H25.0638V54.4943H17.3081V43.334Z" fill="white"/>
</mask>
<g mask="url(#mask1_1_4425)">
<path d="M21.176 51.3259C20.2583 51.3259 19.5122 50.2507 19.5122 48.9288C19.5122 47.6084 20.2583 46.5332 21.176 46.5332C22.0937 46.5332 22.8398 47.6084 22.8398 48.9288C22.8398 50.2507 22.0937 51.3259 21.176 51.3259ZM21.176 43.3638C19.0456 43.3638 17.3115 45.8602 17.3115 48.9288C17.3115 51.9972 19.0456 54.4937 21.176 54.4937C23.3065 54.4937 25.0405 51.9972 25.0405 48.9288C25.0405 45.8602 23.3065 43.3638 21.176 43.3638Z" fill="#0575AD"/>
</g>
<mask id="mask2_1_4425" style="mask-type:luminance" maskUnits="userSpaceOnUse" x="0" y="22" width="4" height="4">
<path d="M0.435791 22.2793H3.73565V25.5609H0.435791V22.2793Z" fill="white"/>
</mask>
<g mask="url(#mask2_1_4425)">
<path d="M3.58084 24.0624C3.58084 23.2709 3.13648 22.6299 2.58744 22.6299H1.4292C0.880152 22.6299 0.435791 23.2709 0.435791 24.0624C0.435791 24.8523 0.880152 25.4933 1.4292 25.4933H2.58744C3.13648 25.4933 3.58084 24.8523 3.58084 24.0624Z" fill="#0575AD"/>
</g>
<path d="M2.52393 29.7869C2.52393 30.5784 2.9694 31.2194 3.51844 31.2194H4.67557C5.22462 31.2194 5.67009 30.5784 5.67009 29.7869C5.67009 28.9969 5.22462 28.356 4.67557 28.356H3.51844C2.9694 28.356 2.52393 28.9969 2.52393 29.7869Z" fill="#0575AD"/>
<mask id="mask3_1_4425" style="mask-type:luminance" maskUnits="userSpaceOnUse" x="27" y="0" width="28" height="38">
<path d="M27.1597 0.395996H54.5341V37.8252H27.1597V0.395996Z" fill="white"/>
</mask>
<g mask="url(#mask3_1_4425)">
<path d="M39.4069 0.39502C34.3831 0.39502 29.9306 3.92338 27.1787 9.35211C29.9072 5.5081 33.6414 3.13823 37.7598 3.13823C46.1147 3.13823 52.8881 12.8917 52.8881 24.9253C52.8881 29.7211 51.8123 34.1564 49.9881 37.7537C52.7946 33.7991 54.5364 28.2838 54.5364 22.1837C54.5364 10.1501 47.763 0.39502 39.4069 0.39502Z" fill="#0575AD"/>
</g>
<path d="M39.4816 24.1989C39.4816 24.9889 39.0361 25.6298 38.4882 25.6298C37.9392 25.6298 37.4937 24.9889 37.4937 24.1989C37.4937 23.409 37.9392 22.7681 38.4882 22.7681C39.0361 22.7681 39.4816 23.409 39.4816 24.1989Z" fill="#0575AD"/>
<path d="M47.4679 17.4352C47.3052 16.9898 46.9233 16.8167 46.6136 17.0506L39.2142 22.6236C39.5673 22.9633 39.8001 23.5417 39.8001 24.1988C39.8001 24.2116 39.8001 24.2244 39.8001 24.2372L47.2005 18.6642C47.5091 18.4302 47.6293 17.8807 47.4679 17.4352ZM37.1528 15.1391C36.8121 15.2432 36.5938 15.7271 36.6662 16.2191L37.6306 22.7679C37.8612 22.481 38.1596 22.3079 38.4882 22.3079C38.6196 22.3079 38.7466 22.3368 38.8668 22.3881L37.9024 15.8409C37.83 15.349 37.4947 15.0349 37.1528 15.1391Z" fill="#0575AD"/>
<mask id="mask4_1_4425" style="mask-type:luminance" maskUnits="userSpaceOnUse" x="16" y="53" width="6" height="2">
<path d="M16.0508 53.4541H21.3953V54.494H16.0508V53.4541Z" fill="white"/>
</mask>
<g mask="url(#mask4_1_4425)">
<path d="M21.3464 53.4849V54.4943H16.0842L21.3464 53.4849Z" fill="#0575AD"/>
</g>
<mask id="mask5_1_4425" style="mask-type:luminance" maskUnits="userSpaceOnUse" x="35" y="53" width="5" height="2">
<path d="M35.439 53.4541H39.9984V54.494H35.439V53.4541Z" fill="white"/>
</mask>
<g mask="url(#mask5_1_4425)">
<path d="M39.9817 53.4849V54.4943H35.439L39.9817 53.4849Z" fill="#0575AD"/>
</g>
</g>
</g>
</g>
<defs>
<clipPath id="clip0_1_4425">
<rect width="54.09" height="55" fill="white" transform="translate(0.439941)"/>
</clipPath>
<clipPath id="clip1_1_4425">
<rect width="54.09" height="55" fill="white" transform="translate(0.439941)"/>
</clipPath>
<clipPath id="clip2_1_4425">
<rect width="54.0984" height="55" fill="white" transform="translate(0.435791)"/>
</clipPath>
</defs>
</svg>
