<svg width="46" height="46" viewBox="0 0 46 46" fill="none" xmlns="http://www.w3.org/2000/svg">
<g clip-path="url(#clip0_1_4670)">
<g clip-path="url(#clip1_1_4670)">
<g clip-path="url(#clip2_1_4670)">
<mask id="mask0_1_4670" style="mask-type:luminance" maskUnits="userSpaceOnUse" x="22" y="20" width="24" height="26">
<path d="M22.1763 20.8481H45.7198V45.1911H22.1763V20.8481Z" fill="white"/>
</mask>
<g mask="url(#mask0_1_4670)">
<path d="M45.0867 33.8404C44.8052 32.6138 44.5266 31.395 44.2156 30.1811C43.9945 29.3411 43.9267 28.4583 43.4815 27.6929C43.0805 27.0193 42.0708 26.5312 41.3382 26.6405C40.7943 26.7293 40.3447 26.9718 39.9276 27.3664C39.5443 26.6009 38.996 26.1223 38.2118 25.9892C37.4394 25.8592 36.7687 26.0954 36.2012 26.677C35.6189 25.5724 34.4957 25.0145 33.3887 25.4012C33.0703 25.5106 32.7504 25.6992 32.4482 25.9765C32.3628 25.6865 32.2773 25.3965 32.1903 25.1064C32.0193 24.5121 31.8468 23.9178 31.6876 23.3251C31.4474 22.3884 31.0258 21.6499 30.106 21.3187C28.6393 20.7909 27.1063 21.9304 27.1092 23.5089C27.1092 24.0414 27.2404 24.5787 27.3878 25.1064C27.4498 25.3426 27.5235 25.5724 27.5839 25.7958C28.1411 27.7943 28.713 29.7864 29.2849 31.7786C29.5296 32.6455 29.7758 33.506 30.0205 34.3698C30.193 34.9625 30.3551 35.5568 30.5526 36.2509C29.0152 35.6757 27.5647 35.1685 26.1364 34.6027C26.0229 34.5584 25.9094 34.5187 25.79 34.4886H25.7856C24.7758 34.224 23.6777 34.5013 22.9524 35.4253C22.8345 35.5742 22.7402 35.7327 22.6665 35.8944C22.2184 36.8627 22.5073 37.9927 23.4389 38.5379C24.2614 39.0212 25.0957 39.484 25.9212 39.9547C26.8528 40.4824 27.7844 41.0149 28.7174 41.5379C30.5143 42.5459 32.3053 43.5887 34.1287 44.5507C35.243 45.1403 36.4577 45.2068 37.6605 44.9295C38.4771 44.7361 39.2746 44.4667 40.0764 44.2211C41.4208 43.8122 42.7002 43.267 43.7011 42.1576C44.9157 40.8263 45.5643 39.2336 45.6424 37.3587C45.6926 36.1368 45.3565 34.9973 45.0867 33.8404Z" fill="#00D280"/>
</g>
<mask id="mask1_1_4670" style="mask-type:luminance" maskUnits="userSpaceOnUse" x="0" y="0" width="36" height="38">
<path d="M0.720215 0.189941H35.0066V37.0752H0.720215V0.189941Z" fill="white"/>
</mask>
<g mask="url(#mask1_1_4670)">
<path d="M21.7592 26.3373C21.7592 25.575 22.0997 24.8903 22.6245 24.445H15.9352C16.4615 24.8903 16.8049 25.5813 16.802 26.3468C16.7975 27.6622 15.7908 28.7399 14.5629 28.7399C13.3262 28.7414 12.3341 27.6796 12.3297 26.3499C12.3253 25.1993 13.0756 24.2278 14.075 23.987C13.59 23.6209 13.2554 23.0487 13.1331 22.3245C13.0387 21.7619 13.1375 21.2167 13.3792 20.7095C13.4868 20.4861 13.4839 20.288 13.4117 20.0518C12.4005 16.7902 11.3966 13.5255 10.3928 10.2608C10.1776 9.56347 9.73241 9.22431 9.0455 9.22273C8.59297 9.21956 8.14044 9.21322 7.68791 9.22431C7.38278 9.23224 7.14251 9.13398 7.00542 8.82652C6.97152 8.64902 7.00542 8.55552 7.00542 8.55552C7.11892 8.2544 7.32676 8.13078 7.62894 8.14188C8.17139 8.15455 8.71532 8.12603 9.25777 8.15772C10.1717 8.21002 10.8409 8.70449 11.2153 9.59358C11.4129 10.0627 11.5367 10.565 11.6841 11.0579C11.7268 11.2006 11.7814 11.2655 11.9406 11.2671C13.5694 11.2925 15.1967 11.3147 16.8256 11.3384L23.2937 11.4335C23.4868 11.4383 23.6784 11.4399 23.8715 11.443C25.1672 11.4605 26.4629 11.4842 27.7571 11.5017C28.0431 11.5048 28.2715 11.6063 28.4145 11.8852V12.2006C28.304 12.6586 28.1846 13.1166 28.0814 13.5762C27.7954 14.8583 27.5198 16.1389 27.2323 17.4163C26.8977 18.8981 25.9381 19.7206 24.4641 19.8506C23.4381 19.9393 22.4151 20.074 21.3922 20.1897C20.3957 20.3006 19.3992 20.41 18.4028 20.5225C17.399 20.635 16.3951 20.7507 15.3913 20.8664C15.0935 20.8997 14.7943 20.9314 14.498 20.9694C14.4523 20.9758 14.3831 21.0011 14.3654 21.0408C14.1148 21.5431 13.9969 22.0582 14.2533 22.6034C14.4789 23.0757 14.8415 23.3261 15.3323 23.3609C15.4768 23.372 15.6257 23.3673 15.7701 23.3673C18.7816 23.3673 21.7916 23.3657 24.8016 23.3673C24.9122 23.3673 25.0227 23.3784 25.1318 23.4037C25.3647 23.4624 25.5151 23.6779 25.5047 23.9267C25.5003 24.109 25.406 24.2706 25.2674 24.3626C25.8526 24.8 26.2403 25.529 26.2403 26.3373C26.2388 27.6638 25.2247 28.7462 23.9879 28.7399C22.7586 28.7335 21.7592 27.6574 21.7592 26.3373ZM25.0522 33.5118C25.5151 33.5118 25.9779 33.6005 26.4187 33.7764C26.5204 33.8161 26.6221 33.8557 26.7253 33.8937C27.3842 33.4547 28.0121 32.9618 28.6061 32.4262C28.5162 32.1044 28.4219 31.7843 28.332 31.4626C27.8205 29.6591 27.3016 27.8603 26.799 26.0536C26.7739 25.9617 26.7503 25.8713 26.7208 25.7794C26.681 25.6399 26.6398 25.4894 26.5985 25.3404C26.4437 24.7825 26.2919 24.1581 26.2919 23.5099C26.2919 22.6842 26.5955 21.8966 27.1498 21.2975C27.7306 20.6683 28.5354 20.3086 29.3653 20.3086C29.7014 20.3086 30.0404 20.3656 30.3632 20.4845C31.4348 20.8664 32.1247 21.7207 32.477 23.0931C32.6111 23.6034 32.7629 24.1264 32.9148 24.6494C33.1801 24.5306 33.4528 24.4561 33.7314 24.4244C34.3402 22.5511 34.6674 20.5368 34.6674 18.4385C34.6674 8.359 27.0731 0.186035 17.7041 0.186035C8.33649 0.186035 0.740723 8.359 0.740723 18.4385C0.740723 28.5196 8.33649 36.6925 17.7041 36.6925C19.0853 36.6925 20.4266 36.5166 21.7105 36.1775C21.8078 35.7068 22.0171 35.2583 22.3282 34.862C23.0062 33.992 23.9747 33.5118 25.0522 33.5118Z" fill="#00D280"/>
</g>
</g>
</g>
</g>
<defs>
<clipPath id="clip0_1_4670">
<rect width="45" height="45" fill="white" transform="translate(0.719971 0.189941)"/>
</clipPath>
<clipPath id="clip1_1_4670">
<rect width="45" height="45" fill="white" transform="translate(0.719971 0.189941)"/>
</clipPath>
<clipPath id="clip2_1_4670">
<rect width="45" height="45" fill="white" transform="translate(0.719971 0.189941)"/>
</clipPath>
</defs>
</svg>
