<svg width="56" height="56" viewBox="0 0 56 56" fill="none" xmlns="http://www.w3.org/2000/svg">
<g clip-path="url(#clip0_1_4466)">
<g clip-path="url(#clip1_1_4466)">
<path d="M48.0554 16.0532C47.9045 15.6051 47.5347 15.2355 47.0123 15.0101C47.1268 13.9997 46.9585 12.7597 46.6704 11.7394C46.4273 10.9002 46.0421 9.96271 45.4571 8.98522C44.8358 8.01771 44.0721 6.99027 42.9994 6.04273C41.9805 5.06237 40.6683 4.17049 39.1878 3.38421C26.2672 -3.3527 8.42765 4.61429 9.81274 15.0129C9.29551 15.2384 8.92927 15.6051 8.77827 16.0503C5.71996 16.0946 3.26221 17.9625 3.26221 20.27C3.26221 22.5775 5.71996 24.4483 8.77827 24.494C9.02127 25.2203 9.85788 25.7726 10.9027 25.7726C12.1403 25.7726 13.1384 25.0205 13.1384 24.0901V16.4556C13.1384 15.9262 12.7947 15.4724 12.2914 15.1656C12.8502 12.5371 14.513 9.75867 16.8441 8.03483C20.2652 5.29355 26.2012 3.71099 32.7292 4.90541C35.2408 5.51902 37.7124 6.5536 39.7727 8.21036C42.0673 9.90275 43.928 12.4414 44.5354 15.1656C43.2146 15.9719 43.6884 16.6669 43.6884 24.0901C43.6884 24.6709 44.1068 25.1589 44.6986 25.4601V26.1079C44.6986 26.516 44.5581 26.9185 44.2873 27.2653C41.3678 31.0068 41.1751 31.3878 36.763 32.548C35.3744 32.9119 33.8088 33.0688 32.2242 33.3871C30.7644 32.2013 28.1903 32.9818 28.1903 34.5672C28.1903 36.5707 31.9951 37.0303 32.7327 35.0268C33.8019 34.8127 34.9023 34.6857 35.9368 34.4273C41.6282 33.0046 43.4888 32.1585 46.502 27.435C46.7866 26.9869 46.9377 26.4904 46.9377 25.9866V25.5699C47.5 25.3502 47.8975 24.9635 48.0554 24.4911C51.1086 24.4455 53.5646 22.5775 53.5646 20.27C53.5646 17.9654 51.1086 16.1003 48.0554 16.0532Z" fill="#0575AD"/>
<mask id="mask0_1_4466" style="mask-type:luminance" maskUnits="userSpaceOnUse" x="1" y="34" width="55" height="21">
<path d="M1.43091 34.9612H55.5293V54.9935H1.43091V34.9612Z" fill="white"/>
</mask>
<g mask="url(#mask0_1_4466)">
<path d="M28.4196 43.3462C30.2473 41.2386 31.8372 39.4277 33.3975 37.5996C35.2252 35.4549 37.0651 34.7628 39.9515 35.5619C43.6191 36.5794 47.2502 37.7181 50.8014 38.9882C53.8476 40.0784 55.559 42.0277 55.3699 44.9188C55.2744 46.3416 55.3699 47.77 55.3472 49.1955C55.2847 53.1227 53.1082 54.9507 48.3732 54.9706C42.2618 55.0007 36.1504 54.9821 30.0372 54.9821C22.9347 54.9821 15.8288 54.9963 8.72976 54.9735C3.64936 54.9536 1.5075 53.1698 1.47973 49.0172C1.46932 47.6601 1.56131 46.2988 1.4589 44.9459C1.23326 41.9378 3.11823 40.0056 6.22688 38.9011C9.78159 37.6382 13.43 36.5423 17.1045 35.5434C20.2375 34.6857 21.2077 35.0696 23.1482 37.3028C24.818 39.2279 26.4999 41.1458 28.4196 43.3462Z" fill="#0575AD"/>
</g>
<path d="M41.3677 18.2782C41.0311 21.8229 39.6702 26.3509 35.1488 29.8384C31.3163 32.7938 25.4688 32.8666 21.697 29.8413C16.4726 25.6459 14.8255 20.3132 15.6342 14.5552C16.056 11.5428 18.2899 9.17109 22.0442 8.16219C27.6245 6.66098 33.0312 6.51115 37.9432 9.72051C40.8123 11.5913 41.4667 14.1599 41.3677 18.2782Z" fill="#0575AD"/>
</g>
</g>
<defs>
<clipPath id="clip0_1_4466">
<rect width="55" height="55" fill="white" transform="translate(0.97998 0.5)"/>
</clipPath>
<clipPath id="clip1_1_4466">
<rect width="55" height="55" fill="white" transform="translate(0.97998 0.5)"/>
</clipPath>
</defs>
</svg>
