<svg width="56" height="56" viewBox="0 0 56 56" fill="none" xmlns="http://www.w3.org/2000/svg">
<g clip-path="url(#clip0_1_4479)">
<g clip-path="url(#clip1_1_4479)">
<g clip-path="url(#clip2_1_4479)">
<mask id="mask0_1_4479" style="mask-type:luminance" maskUnits="userSpaceOnUse" x="1" y="1" width="55" height="55">
<path d="M1.43091 1.30127H55.5293V55.3997H1.43091V1.30127Z" fill="white"/>
</mask>
<g mask="url(#mask0_1_4479)">
<path d="M55.5134 48.1512H21.4404V52.03C21.4404 53.8846 23.0067 55.4 24.914 55.4H52.0383C53.95 55.4 55.5134 53.8846 55.5134 52.03V48.1512ZM29.8658 1.30298L32.1142 6.49666H44.8383L47.0865 1.30298H29.8658ZM34.6486 19.2965V15.6195C34.6486 10.8633 42.0639 10.8633 42.0639 15.6195V19.2965H44.8383C45.1691 19.2965 45.4379 19.5404 45.4711 19.8517L48.6615 38.4339C48.7223 38.8026 48.4202 39.1447 48.0358 39.1488H28.6767C28.2851 39.1488 27.9758 38.811 28.0611 38.3932L31.2486 19.8123C31.3035 19.5082 31.5679 19.2965 31.8728 19.2965H34.6486ZM40.7953 19.2965V15.6195C40.7953 12.4893 35.9172 12.4893 35.9172 15.6195V19.2965H40.7953ZM42.0639 23.3645C42.0639 24.1734 40.7953 24.1734 40.7953 23.3645V20.5273H35.9172V23.3645C35.9172 24.1734 34.6486 24.1734 34.6486 23.3645V20.5273H32.4089L29.4237 37.9181H47.2888L44.3036 20.5273H42.0639V23.3645ZM23.4026 28.54L14.6636 28.2008L1.45117 41.016L10.784 50.0703L23.9922 37.262L23.4026 28.54ZM21.4404 27.2364L24.0239 27.3372C24.3505 27.3499 24.6092 27.6008 24.6265 27.912L25.2695 37.4625C25.2811 37.6461 25.2088 37.8129 25.086 37.9348L21.4389 41.4731V46.9204H55.512V4.67291C55.512 2.82253 53.9485 1.30298 52.0383 1.30298H48.4636L45.8439 7.35036C45.7442 7.58726 45.5072 7.72604 45.263 7.72604H31.6951C31.4249 7.72604 31.1908 7.56203 31.1013 7.33213L28.4932 1.30298H24.914C23.0067 1.30298 21.4404 2.82253 21.4404 4.67291V27.2364ZM12.6653 36.0299C12.9543 37.0686 12.317 38.1339 11.2463 38.4129C9.53558 38.8559 8.09498 37.0644 8.9894 35.5588H8.99374C9.55003 34.6238 10.7724 34.307 11.7319 34.8481C12.2131 35.12 12.5324 35.549 12.6653 36.0299ZM11.3721 36.8906C11.5729 36.5485 11.4544 36.1097 11.099 35.9079C10.7465 35.7116 10.2942 35.828 10.0861 36.1728C9.76244 36.7195 10.2725 37.3952 10.9199 37.2242C11.1033 37.1793 11.271 37.0615 11.3721 36.8906ZM13.8588 43.3697C14.1825 42.823 13.6652 42.1501 13.0222 42.3141C12.8358 42.366 12.6769 42.4768 12.5728 42.6477V42.652C12.372 42.9939 12.4905 43.4328 12.8459 43.6347C13.197 43.8295 13.6536 43.7103 13.8588 43.3697ZM14.9873 43.9206C14.7821 44.3748 14.2172 44.7645 13.7332 44.8892C13.2419 45.0182 12.6913 44.9635 12.2131 44.6943C11.2492 44.1547 10.9227 42.9688 11.4776 42.0338H11.4805C12.3793 40.5324 14.6969 40.8436 15.1535 42.5047C15.2821 42.9646 15.2358 43.4706 14.9873 43.9206ZM16.8369 38.8208C17.672 38.769 17.7544 39.9913 16.9235 40.0474L7.16444 40.695C6.81621 40.7203 6.51856 40.4623 6.49255 40.1231C6.47088 39.7853 6.73386 39.4937 7.08208 39.4727L16.8369 38.8208ZM20.8147 31.3142C19.9536 30.4815 18.4769 31.0731 18.4769 32.2548C18.4769 33.4365 19.9536 34.0323 20.8147 33.1954C21.3494 32.6768 21.3494 31.8328 20.8147 31.3142ZM19.8452 29.6965C22.1875 29.6965 23.3709 32.4567 21.7135 34.0673C20.0533 35.6738 17.2082 34.5271 17.2082 32.2548C17.2082 30.8432 18.3901 29.6965 19.8452 29.6965Z" fill="#0575AD"/>
</g>
</g>
</g>
</g>
<defs>
<clipPath id="clip0_1_4479">
<rect width="55" height="55" fill="white" transform="translate(0.97998 0.5)"/>
</clipPath>
<clipPath id="clip1_1_4479">
<rect width="55" height="55" fill="white" transform="translate(0.97998 0.5)"/>
</clipPath>
<clipPath id="clip2_1_4479">
<rect width="55" height="55" fill="white" transform="translate(0.97998 0.5)"/>
</clipPath>
</defs>
</svg>
