<svg width="40" height="46" viewBox="0 0 40 46" fill="none" xmlns="http://www.w3.org/2000/svg">
<g clip-path="url(#clip0_1_4560)">
<g clip-path="url(#clip1_1_4560)">
<g clip-path="url(#clip2_1_4560)">
<mask id="mask0_1_4560" style="mask-type:luminance" maskUnits="userSpaceOnUse" x="1" y="0" width="38" height="46">
<path d="M1.03003 0.189941H38.53V45.1899H1.03003V0.189941Z" fill="white"/>
</mask>
<g mask="url(#mask0_1_4560)">
<path fill-rule="evenodd" clip-rule="evenodd" d="M34.9508 15.6259L38.4312 42.5699C38.5161 43.2316 38.3015 43.8965 37.8389 44.3959C37.3762 44.8952 36.7118 45.1802 36.0138 45.1802H3.54715C2.84915 45.1802 2.18477 44.8952 1.7221 44.3959C1.25943 43.8965 1.04491 43.2316 1.12976 42.5699C1.12976 42.5699 4.61176 15.6122 4.61176 15.6045L4.83589 13.875C4.98638 12.7093 6.02378 11.8331 7.25329 11.8331H10.0405V9.50773C10.0405 4.37139 14.4046 0.20166 19.7805 0.20166C25.1564 0.20166 29.5205 4.37139 29.5205 9.50773V11.8331H32.3077C33.5372 11.8331 34.5746 12.7093 34.7251 13.875C34.7251 13.875 34.9508 15.6183 34.9508 15.6259ZM6.13424 16.4869L2.74189 42.7598C2.71307 42.9804 2.78511 43.201 2.9388 43.368C3.09249 43.535 3.31342 43.6299 3.54715 43.6299H36.0138C36.246 43.6299 36.4685 43.535 36.6222 43.368C36.7759 43.201 36.8479 42.9804 36.8191 42.7598L33.4267 16.4869H6.13424ZM15.7221 33.8153C14.9169 33.6253 14.1148 33.2194 13.4664 32.6005C12.5859 31.758 12.1169 30.6459 12.0688 29.621C11.3452 28.8628 10.8521 27.7583 10.8521 26.568C10.8521 25.3778 11.3452 24.2733 12.0688 23.5166C12.1169 22.4918 12.5859 21.3781 13.4664 20.5371C14.3485 19.6946 15.5124 19.2473 16.585 19.1998H16.5866C17.3807 18.5089 18.535 18.0371 19.7805 18.0371C21.026 18.0371 22.1819 18.5089 22.9743 19.1998C24.0469 19.2473 25.2124 19.6946 26.0945 20.5371C26.975 21.3781 27.4441 22.4918 27.4921 23.5166C28.2157 24.2748 28.7088 25.3778 28.7088 26.568C28.7088 27.7583 28.2157 28.8628 27.4921 29.6195C27.4441 30.6459 26.975 31.7595 26.0945 32.6005C25.4461 33.2194 24.6441 33.6253 23.8388 33.8153V40.5279C23.8388 41.0656 23.5474 41.565 23.0688 41.8468C22.5901 42.1302 21.9929 42.1547 21.4903 41.9158L19.7805 41.0978L18.0707 41.9158C17.568 42.1547 16.9709 42.1302 16.4922 41.8468C16.0135 41.565 15.7221 41.0656 15.7221 40.5279V33.8153ZM22.9951 32.383C23.6723 32.3324 24.3927 32.0322 24.9466 31.5037C25.587 30.891 25.9072 30.0638 25.8704 29.3361C25.8592 29.1048 25.9568 28.8812 26.1361 28.7264C26.6997 28.2362 27.0855 27.4351 27.0855 26.568C27.0855 25.7025 26.6997 24.9014 26.1361 24.4112C25.9568 24.2549 25.8592 24.0313 25.8704 23.8C25.9072 23.0739 25.587 22.2451 24.9466 21.6324C24.3047 21.0212 23.4386 20.7148 22.6781 20.75C22.4348 20.7608 22.2011 20.6673 22.0394 20.4957C21.5255 19.9581 20.6866 19.5889 19.7805 19.5889C18.8743 19.5889 18.0355 19.9581 17.5216 20.4957C17.3599 20.6673 17.1261 20.7608 16.8828 20.75C16.1224 20.7148 15.2563 21.0212 14.6143 21.6324C13.9739 22.2451 13.6537 23.0739 13.6906 23.8C13.7018 24.0313 13.6041 24.2549 13.4248 24.4112C12.8613 24.9014 12.4755 25.7025 12.4755 26.568C12.4755 27.4351 12.8613 28.2362 13.4248 28.7264C13.6041 28.8812 13.7018 29.1048 13.6906 29.3361C13.6537 30.0638 13.9739 30.891 14.6143 31.5037C15.1682 32.0322 15.8886 32.3324 16.5658 32.383C16.5818 32.383 16.5978 32.3845 16.6138 32.3861C16.7051 32.3907 16.7948 32.3922 16.8828 32.3876C17.1261 32.3769 17.3599 32.4688 17.5216 32.6403C18.0355 33.1796 18.8743 33.5487 19.7805 33.5487C20.6866 33.5487 21.5255 33.1796 22.0394 32.6403C22.2011 32.4688 22.4348 32.3769 22.6781 32.3876C22.7662 32.3922 22.8558 32.3907 22.9471 32.3861C22.9631 32.3845 22.9791 32.383 22.9951 32.383ZM18.5221 23.2623C18.8295 22.9008 19.2922 22.6909 19.7805 22.6909C20.2688 22.6909 20.7314 22.9008 21.0388 23.2623L21.7512 24.0956L22.8014 24.4847C23.2577 24.6547 23.6083 25.0101 23.7588 25.4528C23.9108 25.8956 23.8452 26.3812 23.5795 26.7733L22.9695 27.6786L22.9071 28.7525C22.8799 29.2182 22.6349 29.6486 22.2395 29.9213C21.8441 30.197 21.3414 30.2859 20.8691 30.1664L19.7805 29.8922L18.6918 30.1664C18.2196 30.2859 17.7169 30.197 17.3215 29.9213C16.926 29.6486 16.6811 29.2182 16.6539 28.7525L16.5914 27.6786L15.9815 26.7733C15.7157 26.3812 15.6501 25.8956 15.8022 25.4528C15.9527 25.0101 16.3033 24.6547 16.7595 24.4847L17.8097 24.0956L18.5221 23.2623ZM17.3455 34.4679V40.5279L19.0553 39.7114C19.5115 39.4939 20.0494 39.4939 20.5057 39.7114L22.2155 40.5279V34.4679C21.5159 34.86 20.6722 35.099 19.7805 35.099C18.8888 35.099 18.0435 34.86 17.3455 34.4679ZM27.8971 11.8331V9.50773C27.8971 5.2277 24.2599 1.7519 19.7805 1.7519C15.3011 1.7519 11.6638 5.2277 11.6638 9.50773V11.8331H27.8971Z" fill="#00D280"/>
</g>
</g>
</g>
</g>
<defs>
<clipPath id="clip0_1_4560">
<rect width="39" height="45" fill="white" transform="translate(0.280029 0.189941)"/>
</clipPath>
<clipPath id="clip1_1_4560">
<rect width="39" height="45" fill="white" transform="translate(0.280029 0.189941)"/>
</clipPath>
<clipPath id="clip2_1_4560">
<rect width="39" height="45" fill="white" transform="translate(0.280029 0.189941)"/>
</clipPath>
</defs>
</svg>
