<svg width="54" height="46" viewBox="0 0 54 46" fill="none" xmlns="http://www.w3.org/2000/svg">
<g clip-path="url(#clip0_1_4659)">
<g clip-path="url(#clip1_1_4659)">
<g clip-path="url(#clip2_1_4659)">
<mask id="mask0_1_4659" style="mask-type:luminance" maskUnits="userSpaceOnUse" x="0" y="0" width="54" height="46">
<path d="M0.750244 0.187988H53.2502V45.1879H0.750244V0.187988Z" fill="white"/>
</mask>
<g mask="url(#mask0_1_4659)">
<path d="M18.999 38.0099H0.748291V42.1926C0.748291 42.9844 1.2114 43.7175 1.95268 44.2569C2.7398 44.8278 3.83671 45.1839 5.04742 45.1839H48.9539C50.1677 45.1839 51.2599 44.8278 52.0486 44.2569C52.7899 43.7175 53.253 42.9829 53.253 42.1926V38.0099H34.7509L32.2062 41.2145C32.1019 41.3798 31.9122 41.485 31.6957 41.485H22.0527C21.8741 41.485 21.697 41.4083 21.5785 41.2596L18.999 38.0099ZM36.4895 32.8086V4.7317C36.4864 3.19474 36.5812 1.80652 37.1123 0.781879C37.2166 0.580557 37.3351 0.397263 37.4695 0.22599H21.0869C20.4026 0.186928 19.7292 0.280077 19.1049 0.490413C18.479 0.696242 17.9005 1.02377 17.4074 1.45345C16.9158 1.87863 16.5302 2.38945 16.271 2.94834C16.0102 3.50574 15.8727 4.1097 15.8742 4.7317V32.8071H36.4895V32.8086ZM37.6797 13.4937V32.8086H46.3254V13.4937H37.6797ZM40.6148 0.227492C40.6085 0.227492 40.599 0.227492 40.5911 0.227492H40.0063C39.3709 0.278574 38.8809 0.517456 38.5427 0.947143C38.157 1.42491 37.931 2.15507 37.863 3.12713V3.13614C37.8314 3.59137 37.8346 4.10219 37.8725 4.65658C37.8757 4.68362 37.8757 4.70616 37.8757 4.7317V8.54931H43.3049V4.7317C43.3081 3.34648 43.2401 2.17761 42.8339 1.38284C42.483 0.69474 41.8224 0.275569 40.6148 0.227492ZM14.6841 32.8086V13.4937H7.6759V32.8086H14.6841ZM37.0854 33.9489H7.0816C6.74969 33.9489 6.48257 33.6935 6.48257 33.381V12.9213C6.48257 12.6073 6.74969 12.3518 7.0816 12.3518H14.6841V9.69113H5.23709C4.66176 9.69113 4.1386 9.92701 3.75926 10.3041C3.3736 10.6917 3.13336 11.2281 3.13336 11.8185V36.8696H19.2946C19.508 36.8696 19.696 36.9777 19.8019 37.14L22.3482 40.3476H31.4049L33.9859 37.0949C34.1045 36.9492 34.2799 36.8726 34.4601 36.8726V36.8696H50.8711V11.82C50.8711 11.2281 50.6308 10.6932 50.242 10.3056C49.8643 9.92701 49.3379 9.69113 48.7642 9.69113H37.6797V12.3534H46.9197C47.2516 12.3534 47.5187 12.6088 47.5187 12.9228V33.3825C47.5187 33.695 47.2516 33.9504 46.9197 33.9504H37.0854V33.9489ZM18.5628 21.1995C18.272 21.0538 18.1613 20.7112 18.3083 20.4333C18.4616 20.1553 18.8188 20.0457 19.1112 20.1914L20.8182 21.0463L23.1591 17.5291C23.3345 17.2647 23.7028 17.1836 23.9809 17.3518C24.2575 17.5216 24.3429 17.8717 24.1675 18.1406L21.5327 22.0964C21.3667 22.3413 21.0316 22.433 20.755 22.2963L18.5628 21.1995ZM18.5628 28.5643C18.272 28.4186 18.1613 28.076 18.3083 27.7981C18.4616 27.5201 18.8188 27.4149 19.1112 27.5562L20.8182 28.411L23.1591 24.8939C23.3345 24.6295 23.7028 24.5514 23.9809 24.7196C24.2591 24.8864 24.3429 25.2395 24.1675 25.5039L21.5327 29.4642V29.4612C21.3667 29.7091 21.0316 29.8008 20.755 29.661L18.5628 28.5643ZM25.9124 21.1604C25.5852 21.1604 25.3181 20.905 25.3181 20.5925C25.3181 20.2755 25.5852 20.0201 25.9124 20.0201H32.968C33.2968 20.0201 33.5639 20.2755 33.5639 20.5925C33.5639 20.905 33.2968 21.1604 32.968 21.1604H25.9124ZM25.9124 28.7521C25.5852 28.7521 25.3181 28.4967 25.3181 28.1797C25.3181 27.8672 25.5852 27.6118 25.9124 27.6118H32.968C33.2968 27.6118 33.5639 27.8672 33.5639 28.1797C33.5639 28.4967 33.2968 28.7521 32.968 28.7521H25.9124ZM31.4128 4.39366C30.2526 3.28638 28.6531 2.60429 26.886 2.60429C25.1205 2.60429 23.521 3.28638 22.3609 4.39366C21.2039 5.49792 20.4879 7.02587 20.4879 8.71307C20.4879 10.4032 21.2039 11.9297 22.3609 13.0354C23.521 14.1427 25.1205 14.8233 26.886 14.8233C28.6531 14.8233 30.251 14.1427 31.4128 13.0354C32.5682 11.9312 33.2857 10.4032 33.2857 8.71307C33.2873 7.02587 32.5697 5.49792 31.4128 4.39366ZM26.886 1.46397C28.9834 1.46397 30.8817 2.27377 32.2552 3.58536C33.6287 4.89696 34.4806 6.71337 34.4806 8.71307C34.4806 10.7142 33.6287 12.5276 32.2552 13.8422C30.8817 15.1538 28.9834 15.9636 26.886 15.9636C24.7886 15.9636 22.8919 15.1538 21.5184 13.8422C20.1449 12.5261 19.293 10.7142 19.293 8.71307C19.293 6.71337 20.1449 4.89696 21.5184 3.58536C22.8935 2.27377 24.7902 1.46397 26.886 1.46397ZM25.168 11.8035C24.9087 11.6097 24.8645 11.2506 25.0636 11.0057C25.2659 10.7563 25.6421 10.7142 25.8982 10.908C26.023 10.9982 26.1732 11.0733 26.3407 11.1289C26.5067 11.18 26.69 11.21 26.886 11.21C27.2843 11.21 27.6431 11.0868 27.8928 10.8885C28.1125 10.7187 28.2516 10.4874 28.2516 10.247C28.2516 9.5454 27.5103 9.41018 26.7738 9.27046C25.5489 9.0451 24.3287 8.81824 24.3287 7.18062C24.3287 6.58116 24.629 6.04029 25.119 5.65718C25.4366 5.41229 25.8365 5.22749 26.2759 5.13885V4.62803C26.2759 4.31553 26.543 4.06012 26.875 4.06012H26.8955V4.06313H26.9082C27.2353 4.07064 27.4961 4.32755 27.4898 4.64155L27.4772 5.13584C27.6589 5.1704 27.8328 5.22298 27.9987 5.28759C28.3559 5.43032 28.6721 5.63915 28.9107 5.89456C29.1304 6.12743 29.1099 6.48951 28.8665 6.69985C28.6199 6.90868 28.2437 6.88915 28.024 6.65778C27.8992 6.52557 27.7332 6.41439 27.5435 6.33626C27.3507 6.26265 27.1247 6.21757 26.8844 6.21757C26.4861 6.21757 26.1258 6.34077 25.8729 6.53759C25.6532 6.70886 25.5173 6.93873 25.5173 7.18062C25.5173 7.87773 26.257 8.01595 26.9951 8.15568C28.22 8.38104 29.4402 8.6079 29.4402 10.2455C29.4402 10.8464 29.1399 11.3858 28.6484 11.7659C28.3275 12.0183 27.9245 12.2031 27.4787 12.2903L27.4693 12.7094V12.7981C27.4693 13.1106 27.2021 13.366 26.8734 13.366C26.5415 13.366 26.2743 13.1106 26.2743 12.7981V12.2872C26.1732 12.2647 26.0673 12.2377 25.9709 12.2091C25.6769 12.116 25.4019 11.9793 25.168 11.8035Z" fill="#00D280"/>
</g>
</g>
</g>
</g>
<defs>
<clipPath id="clip0_1_4659">
<rect width="53" height="45" fill="white" transform="translate(0.500244 0.189941)"/>
</clipPath>
<clipPath id="clip1_1_4659">
<rect width="53" height="45" fill="white" transform="translate(0.500244 0.189941)"/>
</clipPath>
<clipPath id="clip2_1_4659">
<rect width="53" height="45" fill="white" transform="translate(0.500244 0.189941)"/>
</clipPath>
</defs>
</svg>
