<svg width="56" height="56" viewBox="0 0 56 56" fill="none" xmlns="http://www.w3.org/2000/svg">
<g clip-path="url(#clip0_1_4409)">
<g clip-path="url(#clip1_1_4409)">
<g clip-path="url(#clip2_1_4409)">
<mask id="mask0_1_4409" style="mask-type:luminance" maskUnits="userSpaceOnUse" x="27" y="25" width="29" height="31">
<path d="M27.2043 25.7478H55.9801V55.5006H27.2043V25.7478Z" fill="white"/>
</mask>
<g mask="url(#mask0_1_4409)">
<path d="M55.2055 41.6293C54.8614 40.13 54.5208 38.6404 54.1407 37.1567C53.8705 36.13 53.7876 35.0511 53.2435 34.1154C52.7534 33.2923 51.5193 32.6956 50.6239 32.8293C49.9591 32.9378 49.4096 33.2342 48.8997 33.7164C48.4313 32.7809 47.7612 32.1959 46.8027 32.0331C45.8586 31.8744 45.0388 32.1629 44.3452 32.8738C43.6336 31.5237 42.2607 30.8419 40.9077 31.3146C40.5186 31.4482 40.1276 31.6787 39.7583 32.0177C39.6538 31.6632 39.5493 31.3087 39.443 30.9542C39.234 30.2279 39.0232 29.5015 38.8286 28.777C38.535 27.6322 38.0196 26.7296 36.8954 26.3247C35.1028 25.6797 33.2291 27.0724 33.2327 29.0017C33.2327 29.6526 33.3931 30.3092 33.5733 30.9542C33.6489 31.2429 33.739 31.5237 33.8129 31.7968C34.4939 34.2395 35.1929 36.6743 35.892 39.1092C36.191 40.1687 36.4919 41.2205 36.7909 42.2762C37.0018 43.0007 37.2 43.7271 37.4413 44.5754C35.5622 43.8723 33.7894 43.2525 32.0437 42.561C31.9049 42.5067 31.7662 42.4583 31.6203 42.4214H31.6149C30.3808 42.098 29.0385 42.437 28.1521 43.5663C28.008 43.7483 27.8927 43.9421 27.8027 44.1397C27.255 45.3232 27.6081 46.7043 28.7466 47.3706C29.752 47.9614 30.7717 48.527 31.7806 49.1023C32.9192 49.7474 34.0579 50.3982 35.1983 51.0374C37.3945 52.2694 39.5835 53.5439 41.8122 54.7197C43.1742 55.4403 44.6587 55.5216 46.1288 55.1826C47.1269 54.9463 48.1016 54.6171 49.0817 54.3168C50.7248 53.8171 52.2887 53.1508 53.512 51.7948C54.9965 50.1677 55.7892 48.221 55.8847 45.9294C55.946 44.436 55.5351 43.0433 55.2055 41.6293Z" fill="white"/>
</g>
<mask id="mask1_1_4409" style="mask-type:luminance" maskUnits="userSpaceOnUse" x="0" y="0" width="43" height="46">
<path d="M0.97998 0.5H42.8859V45.5826H0.97998V0.5Z" fill="white"/>
</mask>
<g mask="url(#mask1_1_4409)">
<path d="M26.6946 32.4577C26.6946 31.526 27.1108 30.6891 27.7521 30.1448H19.5764C20.2195 30.6891 20.6394 31.5337 20.6357 32.4693C20.6303 34.077 19.3998 35.3942 17.8991 35.3942C16.3875 35.3961 15.175 34.0983 15.1696 32.4731C15.1642 31.0669 16.0812 29.8794 17.3027 29.585C16.71 29.1376 16.301 28.4383 16.1514 27.553C16.0361 26.8654 16.1569 26.1991 16.4523 25.5793C16.5838 25.3061 16.5803 25.064 16.492 24.7753C15.256 20.7889 14.0292 16.7987 12.8022 12.8084C12.5392 11.956 11.9951 11.5415 11.1555 11.5396C10.6024 11.5357 10.0493 11.528 9.49623 11.5415C9.12329 11.5512 8.82963 11.4312 8.66207 11.0553C8.62063 10.8384 8.66207 10.7241 8.66207 10.7241C8.8008 10.3561 9.05482 10.205 9.42416 10.2186C10.0872 10.2341 10.752 10.1992 11.4149 10.2379C12.532 10.3018 13.3499 10.9062 13.8075 11.9929C14.049 12.5663 14.2003 13.1802 14.3804 13.7827C14.4327 13.957 14.4993 14.0364 14.6939 14.0383C16.6848 14.0694 18.6737 14.0965 20.6646 14.1255L28.5701 14.2417C28.8061 14.2476 29.0403 14.2495 29.2764 14.2534C30.86 14.2747 32.4436 14.3037 34.0254 14.3251C34.375 14.3289 34.6543 14.4529 34.829 14.7939V15.1793C34.6939 15.7391 34.5479 16.2989 34.4218 16.8607C34.0723 18.4277 33.7354 19.9928 33.384 21.5541C32.9751 23.3652 31.8022 24.3705 30.0006 24.5294C28.7467 24.6378 27.4964 24.8025 26.2461 24.9439C25.0281 25.0795 23.8102 25.2132 22.5923 25.3506C21.3654 25.4881 20.1385 25.6296 18.9115 25.771C18.5476 25.8116 18.1819 25.8504 17.8198 25.8969C17.764 25.9047 17.6793 25.9357 17.6576 25.9841C17.3514 26.5981 17.2073 27.2276 17.5207 27.894C17.7963 28.4713 18.2395 28.7772 18.8395 28.8199C19.016 28.8334 19.198 28.8277 19.3745 28.8277C23.0553 28.8277 26.7343 28.8257 30.4132 28.8277C30.5483 28.8277 30.6835 28.8412 30.8167 28.8722C31.1015 28.9439 31.2852 29.2073 31.2726 29.5114C31.2672 29.7341 31.1519 29.9318 30.9825 30.0441C31.6977 30.5788 32.1716 31.4698 32.1716 32.4577C32.1698 34.079 30.9302 35.4019 29.4187 35.3942C27.9161 35.3864 26.6946 34.0712 26.6946 32.4577ZM30.7195 41.2266C31.2852 41.2266 31.8509 41.3351 32.3896 41.5501C32.5139 41.5985 32.6382 41.647 32.7643 41.6934C33.5697 41.1569 34.3371 40.5545 35.0632 39.8997C34.9533 39.5065 34.838 39.1152 34.7281 38.7221C34.1029 36.5177 33.4687 34.3191 32.8544 32.1109C32.8238 31.9986 32.795 31.8881 32.7589 31.7758C32.7103 31.6053 32.6598 31.4214 32.6094 31.2392C32.4202 30.5574 32.2346 29.7942 32.2346 29.002C32.2346 27.9928 32.6058 27.0301 33.2832 26.2978C33.9931 25.5288 34.9768 25.0891 35.991 25.0891C36.4018 25.0891 36.8162 25.1589 37.2108 25.3042C38.5206 25.771 39.3637 26.815 39.7943 28.4925C39.9583 29.1162 40.1438 29.7555 40.3293 30.3947C40.6537 30.2494 40.987 30.1584 41.3275 30.1196C42.0716 27.83 42.4715 25.3681 42.4715 22.8035C42.4715 10.4839 33.1895 0.494629 21.7383 0.494629C10.2889 0.494629 1.00513 10.4839 1.00513 22.8035C1.00513 35.125 10.2889 45.1143 21.7383 45.1143C23.4265 45.1143 25.0659 44.8992 26.6352 44.4847C26.7541 43.9094 27.0099 43.3612 27.3901 42.8769C28.2188 41.8135 29.4025 41.2266 30.7195 41.2266Z" fill="white"/>
</g>
</g>
</g>
</g>
<defs>
<clipPath id="clip0_1_4409">
<rect width="55" height="55" fill="white" transform="translate(0.97998 0.5)"/>
</clipPath>
<clipPath id="clip1_1_4409">
<rect width="55" height="55" fill="white" transform="translate(0.97998 0.5)"/>
</clipPath>
<clipPath id="clip2_1_4409">
<rect width="55" height="55" fill="white" transform="translate(0.97998 0.5)"/>
</clipPath>
</defs>
</svg>
