<svg width="47" height="56" viewBox="0 0 47 56" fill="none" xmlns="http://www.w3.org/2000/svg">
<g clip-path="url(#clip0_1_4338)">
<g clip-path="url(#clip1_1_4338)">
<g clip-path="url(#clip2_1_4338)">
<mask id="mask0_1_4338" style="mask-type:luminance" maskUnits="userSpaceOnUse" x="0" y="0" width="47" height="56">
<path d="M0.568359 0.5H46.4017V55.5H0.568359V0.5Z" fill="white"/>
</mask>
<g mask="url(#mask0_1_4338)">
<path fill-rule="evenodd" clip-rule="evenodd" d="M42.0268 19.3654L46.2807 52.2969C46.3844 53.1057 46.1222 53.9183 45.5567 54.5286C44.9912 55.139 44.1791 55.4873 43.3261 55.4873H3.64455C2.79143 55.4873 1.9794 55.139 1.41392 54.5286C0.848441 53.9183 0.586245 53.1057 0.689951 52.2969C0.689951 52.2969 4.94574 19.3485 4.94574 19.3391L5.21967 17.2254C5.4036 15.8005 6.67153 14.7296 8.17426 14.7296H11.5808V11.8875C11.5808 5.60977 16.9147 0.513428 23.4853 0.513428C30.0559 0.513428 35.3898 5.60977 35.3898 11.8875V14.7296H38.7964C40.2991 14.7296 41.567 15.8005 41.751 17.2254C41.751 17.2254 42.0268 19.356 42.0268 19.3654ZM6.80654 20.4176L2.66033 52.529C2.62511 52.7987 2.71316 53.0683 2.901 53.2723C3.08884 53.4764 3.35887 53.5925 3.64455 53.5925H43.3261C43.6098 53.5925 43.8818 53.4764 44.0696 53.2723C44.2574 53.0683 44.3455 52.7987 44.3103 52.529L40.1641 20.4176H6.80654ZM18.5251 41.5968C17.5409 41.3646 16.5606 40.8684 15.7682 40.1121C14.692 39.0823 14.1187 37.7231 14.06 36.4706C13.1756 35.5437 12.5728 34.1938 12.5728 32.7391C12.5728 31.2843 13.1756 29.9344 14.06 29.0095C14.1187 27.7569 14.692 26.3957 15.7682 25.3679C16.8463 24.3382 18.2688 23.7914 19.5798 23.7334H19.5818C20.5522 22.889 21.963 22.3124 23.4853 22.3124C25.0076 22.3124 26.4203 22.889 27.3889 23.7334C28.6999 23.7914 30.1243 24.3382 31.2024 25.3679C32.2786 26.3957 32.852 27.7569 32.9107 29.0095C33.7951 29.9363 34.3978 31.2843 34.3978 32.7391C34.3978 34.1938 33.7951 35.5437 32.9107 36.4686C32.852 37.7231 32.2786 39.0842 31.2024 40.1121C30.41 40.8684 29.4297 41.3646 28.4455 41.5968V49.8011C28.4455 50.4582 28.0894 51.0686 27.5043 51.4131C26.9193 51.7595 26.1895 51.7895 25.575 51.4974L23.4853 50.4976L21.3956 51.4974C20.7811 51.7895 20.0513 51.7595 19.4663 51.4131C18.8813 51.0686 18.5251 50.4582 18.5251 49.8011V41.5968ZM27.4143 39.8462C28.242 39.7844 29.1225 39.4174 29.7995 38.7716C30.5822 38.0227 30.9736 37.0116 30.9285 36.1222C30.9148 35.8395 31.0342 35.5662 31.2533 35.3771C31.9421 34.7779 32.4136 33.7987 32.4136 32.7391C32.4136 31.6812 31.9421 30.7021 31.2533 30.1029C31.0342 29.9119 30.9148 29.6385 30.9285 29.3558C30.9736 28.4684 30.5822 27.4555 29.7995 26.7066C29.0149 25.9595 27.9563 25.585 27.0269 25.6281C26.7295 25.6412 26.4438 25.527 26.2462 25.3174C25.6181 24.6602 24.5928 24.2089 23.4853 24.2089C22.3778 24.2089 21.3525 24.6602 20.7244 25.3174C20.5268 25.527 20.2411 25.6412 19.9437 25.6281C19.0143 25.585 17.9557 25.9595 17.1711 26.7066C16.3884 27.4555 15.9971 28.4684 16.0421 29.3558C16.0558 29.6385 15.9365 29.9119 15.7173 30.1029C15.0285 30.7021 14.557 31.6812 14.557 32.7391C14.557 33.7987 15.0285 34.7779 15.7173 35.3771C15.9365 35.5662 16.0558 35.8395 16.0421 36.1222C15.9971 37.0116 16.3884 38.0227 17.1711 38.7716C17.8481 39.4174 18.7286 39.7844 19.5563 39.8462C19.5758 39.8462 19.5954 39.8481 19.615 39.8499C19.7265 39.8556 19.8361 39.8574 19.9437 39.8519C20.2411 39.8387 20.5268 39.951 20.7244 40.1608C21.3525 40.8198 22.3778 41.271 23.4853 41.271C24.5928 41.271 25.6181 40.8198 26.2462 40.1608C26.4438 39.951 26.7295 39.8387 27.0269 39.8519C27.1346 39.8574 27.2441 39.8556 27.3557 39.8499C27.3752 39.8481 27.3948 39.8462 27.4143 39.8462ZM21.9473 28.6987C22.3231 28.2568 22.8886 28.0004 23.4853 28.0004C24.0821 28.0004 24.6475 28.2568 25.0233 28.6987L25.894 29.7172L27.1775 30.1928C27.7352 30.4006 28.1637 30.835 28.3477 31.376C28.5336 31.9171 28.4534 32.5106 28.1285 32.99L27.3831 34.0965L27.3067 35.409C27.2734 35.9781 26.974 36.5042 26.4908 36.8375C26.0075 37.1745 25.3931 37.2831 24.8158 37.1371L23.4853 36.8019L22.1548 37.1371C21.5775 37.2831 20.9632 37.1745 20.4798 36.8375C19.9966 36.5042 19.6972 35.9781 19.6639 35.409L19.5876 34.0965L18.8421 32.99C18.5172 32.5106 18.437 31.9171 18.6229 31.376C18.8069 30.835 19.2354 30.4006 19.7931 30.1928L21.0767 29.7172L21.9473 28.6987ZM20.5092 42.3944V49.8011L22.5989 48.8032C23.1566 48.5374 23.814 48.5374 24.3717 48.8032L26.4614 49.8011V42.3944C25.6064 42.8736 24.5752 43.1658 23.4853 43.1658C22.3955 43.1658 21.3623 42.8736 20.5092 42.3944ZM33.4057 14.7296V11.8875C33.4057 6.65637 28.9601 2.40817 23.4853 2.40817C18.0105 2.40817 13.565 6.65637 13.565 11.8875V14.7296H33.4057Z" fill="#0575AD"/>
</g>
</g>
</g>
</g>
<defs>
<clipPath id="clip0_1_4338">
<rect width="46.75" height="55" fill="white" transform="translate(0.110107 0.5)"/>
</clipPath>
<clipPath id="clip1_1_4338">
<rect width="46.75" height="55" fill="white" transform="translate(0.110107 0.5)"/>
</clipPath>
<clipPath id="clip2_1_4338">
<rect width="46.75" height="55" fill="white" transform="translate(0.110107 0.5)"/>
</clipPath>
</defs>
</svg>
