<svg width="55" height="56" viewBox="0 0 55 56" fill="none" xmlns="http://www.w3.org/2000/svg">
<g clip-path="url(#clip0_1_4425)">
<g clip-path="url(#clip1_1_4425)">
<g clip-path="url(#clip2_1_4425)">
<path d="M44.6759 37.5247H37.3668C37.0014 37.5247 36.7163 37.068 36.7542 36.5441L37.232 29.9889C37.2465 29.7886 37.3712 29.6283 37.5093 29.6283H40.3915C40.7735 29.6283 41.1232 29.8463 41.3649 30.2357L45.1236 36.2829C45.4076 36.7412 45.1258 37.5247 44.6759 37.5247ZM48.1707 38.3996L42.4529 29.1957C41.9495 28.3881 41.2212 27.9331 40.4271 27.9331H36.3767C36.0337 27.9331 35.7051 28.1013 35.4323 28.3817L35.6394 25.552C35.733 24.2573 35.0291 23.1309 34.1259 23.1309H5.58769C5.03976 23.1309 4.59428 23.7718 4.59428 24.5634C4.59428 25.3533 5.03976 25.9943 5.58769 25.9943H19.8886C20.4376 25.9943 20.8819 26.6352 20.8819 27.4252C20.8819 28.2151 20.4376 28.856 19.8886 28.856H7.60235C7.05331 28.856 6.60782 29.497 6.60782 30.2869C6.60782 31.0785 7.05331 31.7194 7.60235 31.7194H18.9041C19.4531 31.7194 19.8986 32.3588 19.8986 33.1503C19.8986 33.9403 19.4531 34.5812 18.9041 34.5812H3.00171C2.45377 34.5812 2.0083 35.2221 2.0083 36.0121C2.0083 36.8021 2.45377 37.443 3.00171 37.443H14.2611C14.8101 37.443 15.2556 38.0839 15.2556 38.8755C15.2556 39.6655 14.8101 40.3064 14.2611 40.3064H7.29943C6.75038 40.3064 6.30491 40.9473 6.30491 41.7373C6.30491 42.5272 6.75038 43.1682 7.29943 43.1682H10.1605L9.87985 47.0106C9.78626 48.3037 10.4902 49.4301 11.3933 49.4301H16.5275C16.5275 45.7399 18.6134 42.7356 21.1759 42.7356C23.7397 42.7356 25.8245 45.7399 25.8245 49.4301H35.5949C35.5949 45.7399 37.6808 42.7356 40.2434 42.7356C42.8071 42.7356 44.8919 45.7399 44.8919 49.4301H46.0992C47.283 49.4301 48.3432 48.0489 48.4679 46.344L48.8254 41.4473C48.909 40.3047 48.6729 39.2072 48.1707 38.3996Z" fill="#0575AD"/>
<mask id="mask0_1_4425" style="mask-type:luminance" maskUnits="userSpaceOnUse" x="36" y="43" width="9" height="12">
<path d="M36.3296 43.8342H44.1376V54.9945H36.3296V43.8342Z" fill="white"/>
</mask>
<g mask="url(#mask0_1_4425)">
<path d="M40.2431 51.8264C39.3254 51.8264 38.5792 50.7512 38.5792 49.4293C38.5792 48.1089 39.3254 47.0337 40.2431 47.0337C41.1608 47.0337 41.9069 48.1089 41.9069 49.4293C41.9069 50.7512 41.1608 51.8264 40.2431 51.8264ZM40.2431 43.8643C38.1126 43.8643 36.3796 46.3607 36.3796 49.4293C36.3796 52.4977 38.1126 54.9942 40.2431 54.9942C42.3736 54.9942 44.1075 52.4977 44.1075 49.4293C44.1075 46.3607 42.3736 43.8643 40.2431 43.8643Z" fill="#0575AD"/>
</g>
<mask id="mask1_1_4425" style="mask-type:luminance" maskUnits="userSpaceOnUse" x="17" y="43" width="9" height="12">
<path d="M17.3081 43.8342H25.0638V54.9945H17.3081V43.8342Z" fill="white"/>
</mask>
<g mask="url(#mask1_1_4425)">
<path d="M21.176 51.8264C20.2583 51.8264 19.5122 50.7512 19.5122 49.4293C19.5122 48.1089 20.2583 47.0337 21.176 47.0337C22.0937 47.0337 22.8398 48.1089 22.8398 49.4293C22.8398 50.7512 22.0937 51.8264 21.176 51.8264ZM21.176 43.8643C19.0456 43.8643 17.3115 46.3607 17.3115 49.4293C17.3115 52.4977 19.0456 54.9942 21.176 54.9942C23.3065 54.9942 25.0405 52.4977 25.0405 49.4293C25.0405 46.3607 23.3065 43.8643 21.176 43.8643Z" fill="#0575AD"/>
</g>
<mask id="mask2_1_4425" style="mask-type:luminance" maskUnits="userSpaceOnUse" x="0" y="22" width="4" height="5">
<path d="M0.435791 22.7795H3.73565V26.0611H0.435791V22.7795Z" fill="white"/>
</mask>
<g mask="url(#mask2_1_4425)">
<path d="M3.58084 24.5624C3.58084 23.7709 3.13648 23.1299 2.58744 23.1299H1.4292C0.880152 23.1299 0.435791 23.7709 0.435791 24.5624C0.435791 25.3523 0.880152 25.9933 1.4292 25.9933H2.58744C3.13648 25.9933 3.58084 25.3523 3.58084 24.5624Z" fill="#0575AD"/>
</g>
<path d="M2.52393 30.2869C2.52393 31.0784 2.9694 31.7194 3.51844 31.7194H4.67557C5.22462 31.7194 5.67009 31.0784 5.67009 30.2869C5.67009 29.4969 5.22462 28.856 4.67557 28.856H3.51844C2.9694 28.856 2.52393 29.4969 2.52393 30.2869Z" fill="#0575AD"/>
<mask id="mask3_1_4425" style="mask-type:luminance" maskUnits="userSpaceOnUse" x="27" y="0" width="28" height="39">
<path d="M27.1597 0.89624H54.5341V38.3254H27.1597V0.89624Z" fill="white"/>
</mask>
<g mask="url(#mask3_1_4425)">
<path d="M39.4069 0.895264C34.3831 0.895264 29.9306 4.42362 27.1787 9.85235C29.9072 6.00835 33.6414 3.63848 37.7598 3.63848C46.1147 3.63848 52.8881 13.3919 52.8881 25.4256C52.8881 30.2214 51.8123 34.6566 49.9881 38.2539C52.7946 34.2993 54.5364 28.7841 54.5364 22.6839C54.5364 10.6503 47.763 0.895264 39.4069 0.895264Z" fill="#0575AD"/>
</g>
<path d="M39.4816 24.6991C39.4816 25.4891 39.0361 26.13 38.4882 26.13C37.9392 26.13 37.4937 25.4891 37.4937 24.6991C37.4937 23.9092 37.9392 23.2683 38.4882 23.2683C39.0361 23.2683 39.4816 23.9092 39.4816 24.6991Z" fill="#0575AD"/>
<path d="M47.4679 17.9352C47.3052 17.4898 46.9233 17.3167 46.6136 17.5506L39.2142 23.1236C39.5673 23.4633 39.8001 24.0417 39.8001 24.6988C39.8001 24.7116 39.8001 24.7244 39.8001 24.7372L47.2005 19.1642C47.5091 18.9302 47.6293 18.3807 47.4679 17.9352ZM37.1528 15.6391C36.8121 15.7432 36.5938 16.2271 36.6662 16.7191L37.6306 23.2679C37.8612 22.981 38.1596 22.8079 38.4882 22.8079C38.6196 22.8079 38.7466 22.8368 38.8668 22.8881L37.9024 16.3409C37.83 15.849 37.4947 15.5349 37.1528 15.6391Z" fill="#0575AD"/>
<mask id="mask4_1_4425" style="mask-type:luminance" maskUnits="userSpaceOnUse" x="16" y="53" width="6" height="2">
<path d="M16.0508 53.9539H21.3953V54.9937H16.0508V53.9539Z" fill="white"/>
</mask>
<g mask="url(#mask4_1_4425)">
<path d="M21.3464 53.9846V54.9941H16.0842L21.3464 53.9846Z" fill="#0575AD"/>
</g>
<mask id="mask5_1_4425" style="mask-type:luminance" maskUnits="userSpaceOnUse" x="35" y="53" width="5" height="2">
<path d="M35.439 53.9539H39.9984V54.9937H35.439V53.9539Z" fill="white"/>
</mask>
<g mask="url(#mask5_1_4425)">
<path d="M39.9817 53.9846V54.9941H35.439L39.9817 53.9846Z" fill="#0575AD"/>
</g>
</g>
</g>
</g>
<defs>
<clipPath id="clip0_1_4425">
<rect width="54.09" height="55" fill="white" transform="translate(0.439941 0.5)"/>
</clipPath>
<clipPath id="clip1_1_4425">
<rect width="54.09" height="55" fill="white" transform="translate(0.439941 0.5)"/>
</clipPath>
<clipPath id="clip2_1_4425">
<rect width="54.0984" height="55" fill="white" transform="translate(0.435791 0.5)"/>
</clipPath>
</defs>
</svg>
