<svg width="46" height="46" viewBox="0 0 46 46" fill="none" xmlns="http://www.w3.org/2000/svg">
<g clip-path="url(#clip0_1_4619)">
<g clip-path="url(#clip1_1_4619)">
<g clip-path="url(#clip2_1_4619)">
<path d="M37.0798 30.6591H30.9999C30.696 30.6591 30.4589 30.2792 30.4904 29.8434L30.8878 24.3906C30.8999 24.224 31.0036 24.0907 31.1185 24.0907H33.516C33.8337 24.0907 34.1246 24.272 34.3256 24.5959L37.4522 29.6261C37.6884 30.0073 37.454 30.6591 37.0798 30.6591ZM39.9868 31.3868L35.2307 23.7309C34.812 23.0591 34.2061 22.6806 33.5456 22.6806H30.1763C29.891 22.6806 29.6177 22.8205 29.3908 23.0538L29.5631 20.6999C29.6409 19.623 29.0554 18.686 28.3041 18.686H4.56553C4.10975 18.686 3.73919 19.2191 3.73919 19.8776C3.73919 20.5347 4.10975 21.0678 4.56553 21.0678H16.4612C16.9179 21.0678 17.2876 21.601 17.2876 22.2581C17.2876 22.9152 16.9179 23.4483 16.4612 23.4483H6.24136C5.78465 23.4483 5.4141 23.9814 5.4141 24.6385C5.4141 25.297 5.78465 25.8301 6.24136 25.8301H15.6423C16.099 25.8301 16.4696 26.3619 16.4696 27.0204C16.4696 27.6775 16.099 28.2106 15.6423 28.2106H2.41446C1.95868 28.2106 1.58813 28.7437 1.58813 29.4008C1.58813 30.0579 1.95868 30.5911 2.41446 30.5911H11.7802C12.2369 30.5911 12.6075 31.1242 12.6075 31.7827C12.6075 32.4398 12.2369 32.9729 11.7802 32.9729H5.98938C5.53267 32.9729 5.16212 33.506 5.16212 34.1631C5.16212 34.8202 5.53267 35.3534 5.98938 35.3534H8.36926L8.13581 38.5496C8.058 39.6252 8.64347 40.5622 9.39477 40.5622H13.6654C13.6654 37.4926 15.4005 34.9935 17.5321 34.9935C19.6647 34.9935 21.3989 37.4926 21.3989 40.5622H29.526C29.526 37.4926 31.2611 34.9935 33.3928 34.9935C35.5253 34.9935 37.2595 37.4926 37.2595 40.5622H38.2637C39.2484 40.5622 40.1304 39.4133 40.2341 37.9951L40.5315 33.9219C40.601 32.9716 40.4046 32.0586 39.9868 31.3868Z" fill="#00D280"/>
<mask id="mask0_1_4619" style="mask-type:luminance" maskUnits="userSpaceOnUse" x="30" y="35" width="7" height="11">
<path d="M30.1367 35.9087H36.6316V45.192H30.1367V35.9087Z" fill="white"/>
</mask>
<g mask="url(#mask0_1_4619)">
<path d="M33.3923 42.5551C32.629 42.5551 32.0083 41.6607 32.0083 40.5611C32.0083 39.4628 32.629 38.5685 33.3923 38.5685C34.1557 38.5685 34.7763 39.4628 34.7763 40.5611C34.7763 41.6607 34.1557 42.5551 33.3923 42.5551ZM33.3923 35.9321C31.6201 35.9321 30.1787 38.0087 30.1787 40.5611C30.1787 43.1135 31.6201 45.1901 33.3923 45.1901C35.1645 45.1901 36.6069 43.1135 36.6069 40.5611C36.6069 38.0087 35.1645 35.9321 33.3923 35.9321Z" fill="#00D280"/>
</g>
<mask id="mask1_1_4619" style="mask-type:luminance" maskUnits="userSpaceOnUse" x="14" y="35" width="7" height="11">
<path d="M14.3147 35.9087H20.766V45.192H14.3147V35.9087Z" fill="white"/>
</mask>
<g mask="url(#mask1_1_4619)">
<path d="M17.5322 42.5551C16.7688 42.5551 16.1481 41.6607 16.1481 40.5611C16.1481 39.4628 16.7688 38.5685 17.5322 38.5685C18.2955 38.5685 18.9162 39.4628 18.9162 40.5611C18.9162 41.6607 18.2955 42.5551 17.5322 42.5551ZM17.5322 35.9321C15.76 35.9321 14.3176 38.0087 14.3176 40.5611C14.3176 43.1135 15.76 45.1901 17.5322 45.1901C19.3043 45.1901 20.7467 43.1135 20.7467 40.5611C20.7467 38.0087 19.3043 35.9321 17.5322 35.9321Z" fill="#00D280"/>
</g>
<mask id="mask2_1_4619" style="mask-type:luminance" maskUnits="userSpaceOnUse" x="0" y="18" width="4" height="4">
<path d="M0.280029 18.3892H3.02491V21.1189H0.280029V18.3892Z" fill="white"/>
</mask>
<g mask="url(#mask2_1_4619)">
<path d="M2.89614 19.8737C2.89614 19.2152 2.52651 18.6821 2.06981 18.6821H1.10636C0.649657 18.6821 0.280029 19.2152 0.280029 19.8737C0.280029 20.5308 0.649657 21.0639 1.10636 21.0639H2.06981C2.52651 21.0639 2.89614 20.5308 2.89614 19.8737Z" fill="#00D280"/>
</g>
<path d="M2.01685 24.6381C2.01685 25.2965 2.3874 25.8296 2.84411 25.8296H3.80662C4.26333 25.8296 4.63388 25.2965 4.63388 24.6381C4.63388 23.981 4.26333 23.4478 3.80662 23.4478H2.84411C2.3874 23.4478 2.01685 23.981 2.01685 24.6381Z" fill="#00D280"/>
<mask id="mask3_1_4619" style="mask-type:luminance" maskUnits="userSpaceOnUse" x="22" y="0" width="24" height="32">
<path d="M22.5095 0.189941H45.28V31.3241H22.5095V0.189941Z" fill="white"/>
</mask>
<g mask="url(#mask3_1_4619)">
<path d="M32.6968 0.189941C28.5179 0.189941 24.8142 3.12489 22.5251 7.64062C24.7948 4.44309 27.9009 2.47179 31.3267 2.47179C38.2764 2.47179 43.9107 10.5849 43.9107 20.5946C43.9107 24.5839 43.0158 28.2732 41.4984 31.2655C43.8329 27.976 45.2818 23.3883 45.2818 18.3141C45.2818 8.30438 39.6475 0.189941 32.6968 0.189941Z" fill="#00D280"/>
</g>
<path d="M32.7591 19.9895C32.7591 20.6466 32.3886 21.1798 31.9328 21.1798C31.4761 21.1798 31.1055 20.6466 31.1055 19.9895C31.1055 19.3324 31.4761 18.7993 31.9328 18.7993C32.3886 18.7993 32.7591 19.3324 32.7591 19.9895Z" fill="#00D280"/>
<path d="M39.402 14.3626C39.2668 13.992 38.949 13.8481 38.6915 14.0427L32.5366 18.6784C32.8303 18.9609 33.0239 19.4421 33.0239 19.9886C33.0239 19.9992 33.0239 20.0099 33.0239 20.0206L39.1797 15.3849C39.4363 15.1903 39.5364 14.7331 39.402 14.3626ZM30.8219 12.4526C30.5384 12.5392 30.3568 12.9417 30.417 13.3509L31.2193 18.7983C31.411 18.5597 31.6593 18.4158 31.9326 18.4158C32.0419 18.4158 32.1475 18.4398 32.2476 18.4824L31.4453 13.0364C31.3851 12.6272 31.1063 12.3659 30.8219 12.4526Z" fill="#00D280"/>
<mask id="mask4_1_4619" style="mask-type:luminance" maskUnits="userSpaceOnUse" x="13" y="44" width="5" height="2">
<path d="M13.2688 44.3228H17.7145V45.1878H13.2688V44.3228Z" fill="white"/>
</mask>
<g mask="url(#mask4_1_4619)">
<path d="M17.6738 44.3462V45.186H13.2966L17.6738 44.3462Z" fill="#00D280"/>
</g>
<mask id="mask5_1_4619" style="mask-type:luminance" maskUnits="userSpaceOnUse" x="29" y="44" width="5" height="2">
<path d="M29.3967 44.3228H33.1893V45.1878H29.3967V44.3228Z" fill="white"/>
</mask>
<g mask="url(#mask5_1_4619)">
<path d="M33.1754 44.3462V45.186H29.3967L33.1754 44.3462Z" fill="#00D280"/>
</g>
</g>
</g>
</g>
<defs>
<clipPath id="clip0_1_4619">
<rect width="45" height="45" fill="white" transform="translate(0.280029 0.189941)"/>
</clipPath>
<clipPath id="clip1_1_4619">
<rect width="45" height="45" fill="white" transform="translate(0.280029 0.189941)"/>
</clipPath>
<clipPath id="clip2_1_4619">
<rect width="45" height="45" fill="white" transform="translate(0.280029 0.189941)"/>
</clipPath>
</defs>
</svg>
