<svg width="67" height="56" viewBox="0 0 67 56" fill="none" xmlns="http://www.w3.org/2000/svg">
<g clip-path="url(#clip0_1_4398)">
<g clip-path="url(#clip1_1_4398)">
<g clip-path="url(#clip2_1_4398)">
<mask id="mask0_1_4398" style="mask-type:luminance" maskUnits="userSpaceOnUse" x="1" y="0" width="65" height="56">
<path d="M1.39648 0.5H65.5631V55.5H1.39648V0.5Z" fill="white"/>
</mask>
<g mask="url(#mask0_1_4398)">
<path d="M23.7006 46.7269H1.39404V51.8391C1.39404 52.8068 1.96006 53.7029 2.86608 54.3621C3.82811 55.0599 5.16878 55.4951 6.64854 55.4951H60.312C61.7957 55.4951 63.1305 55.0599 64.0945 54.3621C65.0005 53.7029 65.5665 52.805 65.5665 51.8391V46.7269H42.9529L39.8427 50.6437C39.7152 50.8457 39.4834 50.9742 39.2187 50.9742H27.4328C27.2145 50.9742 26.9981 50.8805 26.8533 50.6988L23.7006 46.7269ZM45.0779 40.3698V6.0535C45.0739 4.175 45.1899 2.47828 45.839 1.22595C45.9665 0.979889 46.1113 0.755863 46.2756 0.546528H26.2525C25.416 0.498785 24.593 0.612633 23.83 0.869712C23.0649 1.12128 22.3579 1.52159 21.7552 2.04676C21.1544 2.56642 20.6831 3.19075 20.3663 3.87385C20.0475 4.55511 19.8794 5.29329 19.8814 6.0535V40.3679H45.0779V40.3698ZM46.5324 16.7627V40.3698H57.0994V16.7627H46.5324ZM50.1198 0.548364C50.1121 0.548364 50.1005 0.548364 50.0908 0.548364H49.3761C48.5995 0.610797 48.0007 0.902765 47.5872 1.42794C47.1159 2.01188 46.8396 2.9043 46.7566 4.09237V4.10339C46.718 4.65978 46.7218 5.28411 46.7681 5.96169C46.7721 5.99475 46.7721 6.02229 46.7721 6.0535V10.7194H53.4077V6.0535C53.4117 4.36047 53.3285 2.93184 52.832 1.96046C52.4032 1.11944 51.5957 0.607125 50.1198 0.548364ZM18.4267 40.3698V16.7627H9.86112V40.3698H18.4267ZM45.8062 41.7635H9.13477C8.72909 41.7635 8.40262 41.4513 8.40262 41.0694V16.0631C8.40262 15.6793 8.72909 15.367 9.13477 15.367H18.4267V12.1151H6.88035C6.17718 12.1151 5.53776 12.4034 5.07413 12.8643C4.60277 13.338 4.30913 13.9935 4.30913 14.7152V45.3331H24.0618C24.3226 45.3331 24.5524 45.4654 24.6819 45.6637L27.794 49.5842H38.8632L42.0179 45.6086C42.1628 45.4305 42.3772 45.3368 42.5974 45.3368V45.3331H62.6553V14.717C62.6553 13.9935 62.3616 13.3398 61.8864 12.8661C61.4247 12.4034 60.7815 12.1151 60.0802 12.1151H46.5324V15.3689H57.8258C58.2315 15.3689 58.5579 15.6811 58.5579 16.0649V41.0712C58.5579 41.4532 58.2315 41.7653 57.8258 41.7653H45.8062V41.7635ZM23.1673 26.1809C22.8119 26.0028 22.6766 25.5841 22.8563 25.2444C23.0437 24.9047 23.4803 24.7706 23.8377 24.9488L25.924 25.9936L28.785 21.6949C28.9994 21.3717 29.4495 21.2725 29.7896 21.4782C30.1276 21.6857 30.2319 22.1135 30.0175 22.4422L26.7972 27.2771C26.5944 27.5764 26.1848 27.6884 25.8468 27.5214L23.1673 26.1809ZM23.1673 35.1823C22.8119 35.0041 22.6766 34.5855 22.8563 34.2458C23.0437 33.9061 23.4803 33.7776 23.8377 33.9502L25.924 34.995L28.785 30.6963C28.9994 30.3731 29.4495 30.2776 29.7896 30.4832C30.1296 30.6871 30.2319 31.1186 30.0175 31.4418L26.7972 36.2822V36.2785C26.5944 36.5815 26.1848 36.6936 25.8468 36.5228L23.1673 35.1823ZM32.1502 26.1331C31.7504 26.1331 31.4238 25.821 31.4238 25.439C31.4238 25.0515 31.7504 24.7394 32.1502 24.7394H40.7738C41.1756 24.7394 41.502 25.0515 41.502 25.439C41.502 25.821 41.1756 26.1331 40.7738 26.1331H32.1502ZM32.1502 35.4118C31.7504 35.4118 31.4238 35.0997 31.4238 34.7122C31.4238 34.3302 31.7504 34.0181 32.1502 34.0181H40.7738C41.1756 34.0181 41.502 34.3302 41.502 34.7122C41.502 35.0997 41.1756 35.4118 40.7738 35.4118H32.1502ZM38.8729 5.64034C37.455 4.28701 35.5 3.45334 33.3402 3.45334C31.1824 3.45334 29.2274 4.28701 27.8094 5.64034C26.3954 6.99001 25.5203 8.8575 25.5203 10.9196C25.5203 12.9854 26.3954 14.851 27.8094 16.2026C29.2274 17.5559 31.1824 18.3877 33.3402 18.3877C35.5 18.3877 37.453 17.5559 38.8729 16.2026C40.2851 14.8529 41.1621 12.9854 41.1621 10.9196C41.164 8.8575 40.287 6.99001 38.8729 5.64034ZM33.3402 2.05962C35.9037 2.05962 38.2238 3.04937 39.9026 4.65243C41.5812 6.25549 42.6225 8.47555 42.6225 10.9196C42.6225 13.3655 41.5812 15.5819 39.9026 17.1886C38.2238 18.7917 35.9037 19.7814 33.3402 19.7814C30.7767 19.7814 28.4585 18.7917 26.7798 17.1886C25.101 15.5801 24.0598 13.3655 24.0598 10.9196C24.0598 8.47555 25.101 6.25549 26.7798 4.65243C28.4604 3.04937 30.7786 2.05962 33.3402 2.05962ZM31.2403 14.6969C30.9235 14.46 30.8694 14.0211 31.1128 13.7218C31.3601 13.4169 31.8198 13.3655 32.1328 13.6025C32.2854 13.7125 32.4689 13.8044 32.6737 13.8723C32.8766 13.9347 33.1007 13.9715 33.3402 13.9715C33.8271 13.9715 34.2655 13.8209 34.5708 13.5785C34.8393 13.3711 35.0093 13.0883 35.0093 12.7944C35.0093 11.9369 34.1033 11.7717 33.2031 11.6009C31.7059 11.3255 30.2146 11.0482 30.2146 9.04663C30.2146 8.31396 30.5816 7.6529 31.1805 7.18464C31.5688 6.88533 32.0575 6.65948 32.5945 6.55114V5.9268C32.5945 5.54486 32.921 5.23269 33.3267 5.23269H33.3518V5.23636H33.3673C33.7671 5.24555 34.0858 5.55955 34.0781 5.94333L34.0627 6.54746C34.2849 6.5897 34.4973 6.65397 34.7002 6.73293C35.1368 6.90737 35.5232 7.16262 35.8149 7.47478C36.0834 7.7594 36.0582 8.20194 35.7608 8.45902C35.4594 8.71427 34.9997 8.69039 34.7311 8.40761C34.5785 8.24602 34.3757 8.11013 34.1439 8.01464C33.9082 7.92467 33.6319 7.86958 33.3383 7.86958C32.8515 7.86958 32.411 8.02015 32.1019 8.2607C31.8334 8.47004 31.6673 8.75099 31.6673 9.04663C31.6673 9.89866 32.5713 10.0676 33.4735 10.2384C34.9706 10.5138 36.462 10.7911 36.462 12.7926C36.462 13.5271 36.095 14.1864 35.4942 14.6509C35.102 14.9594 34.6094 15.1853 34.0647 15.2918L34.053 15.8041V15.9125C34.053 16.2944 33.7266 16.6066 33.3247 16.6066C32.9191 16.6066 32.5926 16.2944 32.5926 15.9125V15.2881C32.4689 15.2606 32.3395 15.2275 32.2217 15.1926C31.8624 15.0787 31.5262 14.9116 31.2403 14.6969Z" fill="white"/>
</g>
</g>
</g>
</g>
<defs>
<clipPath id="clip0_1_4398">
<rect width="65.08" height="55" fill="white" transform="translate(0.939941 0.5)"/>
</clipPath>
<clipPath id="clip1_1_4398">
<rect width="65.08" height="55" fill="white" transform="translate(0.939941 0.5)"/>
</clipPath>
<clipPath id="clip2_1_4398">
<rect width="65.0833" height="55" fill="white" transform="translate(0.938232 0.5)"/>
</clipPath>
</defs>
</svg>
