<svg width="69" height="56" viewBox="0 0 69 56" fill="none" xmlns="http://www.w3.org/2000/svg">
<g clip-path="url(#clip0_1_4351)">
<g clip-path="url(#clip1_1_4351)">
<mask id="mask0_1_4351" style="mask-type:luminance" maskUnits="userSpaceOnUse" x="0" y="20" width="9" height="14">
<path d="M0.110107 20.7695H8.67372V33.1989H0.110107V20.7695Z" fill="white"/>
</mask>
<g mask="url(#mask0_1_4351)">
<path d="M7.89029 21.4138C7.44552 21.0287 6.72373 21.0287 6.27707 21.4138L0.56863 26.3241C0.12198 26.7077 0.12198 27.3292 0.56863 27.7127L6.27707 32.623C6.49946 32.8156 6.79157 32.911 7.08369 32.911C7.3758 32.911 7.6679 32.8156 7.89029 32.623C8.33694 32.2394 8.33694 31.6195 7.89029 31.2343L2.99034 27.0184L7.89029 22.8025C8.33694 22.4173 8.33694 21.7974 7.89029 21.4138Z" fill="#0575AD"/>
</g>
<mask id="mask1_1_4351" style="mask-type:luminance" maskUnits="userSpaceOnUse" x="60" y="20" width="9" height="14">
<path d="M60.2969 20.7695H68.8605V33.1989H60.2969V20.7695Z" fill="white"/>
</mask>
<g mask="url(#mask1_1_4351)">
<path d="M68.402 26.3241L62.6935 21.4138C62.2468 21.0287 61.525 21.0287 61.0784 21.4138C60.6317 21.7974 60.6337 22.4173 61.0784 22.8025L65.9802 27.0184L61.0784 31.2343C60.6337 31.618 60.6337 32.2394 61.0784 32.623C61.3027 32.8156 61.5948 32.911 61.8869 32.911C62.179 32.911 62.4711 32.8156 62.6935 32.623L68.402 27.7127C68.8486 27.3292 68.8486 26.7077 68.402 26.3241Z" fill="#0575AD"/>
</g>
<mask id="mask2_1_4351" style="mask-type:luminance" maskUnits="userSpaceOnUse" x="15" y="0" width="39" height="56">
<path d="M15.9109 0.5H53.0601V55.5H15.9109V0.5Z" fill="white"/>
</mask>
<g mask="url(#mask2_1_4351)">
<path d="M49.3285 0.5H48.1864C46.9275 0.5 45.9023 1.38041 45.9023 2.46475C45.9023 4.08802 44.3664 5.41025 42.478 5.41025H26.4928C24.6044 5.41025 23.0685 4.08802 23.0685 2.46475C23.0685 1.38041 22.0433 0.5 20.7844 0.5H19.6423C17.7539 0.5 16.218 1.82224 16.218 3.44551V52.5529C16.218 54.1778 17.7539 55.5 19.6423 55.5H49.3285C51.2168 55.5 52.7528 54.1778 52.7528 52.5529V3.44551C52.7528 1.82224 51.2168 0.5 49.3285 0.5ZM41.3359 53.5352H27.6349C27.0054 53.5352 26.4928 53.0967 26.4928 52.5529C26.4928 52.0107 27.0054 51.5705 27.6349 51.5705H41.3359C41.9673 51.5705 42.478 52.0107 42.478 52.5529C42.478 53.0967 41.9673 53.5352 41.3359 53.5352ZM44.7602 26.0352V30.9455C44.7602 32.9556 42.9925 34.5983 40.7253 34.8281L42.3404 43.8588C43.7369 44.231 44.7602 45.338 44.7602 46.6602V47.6426C44.7602 48.7254 43.7369 49.6074 42.478 49.6074H39.0517C37.1634 49.6074 35.6274 48.2851 35.6274 46.6602V45.6779C35.6274 45.4723 35.6745 45.2782 35.7424 45.0936C35.7141 45.0402 35.6783 44.9917 35.6613 44.9334L34.4854 40.889L33.3094 44.9334C33.2924 44.9917 33.2547 45.0402 33.2283 45.0936C33.2963 45.2782 33.3433 45.4723 33.3433 45.6779V46.6602C33.3433 48.2851 31.8074 49.6074 29.919 49.6074H26.4928C25.2339 49.6074 24.2087 48.7254 24.2087 47.6426V46.6602C24.2087 45.338 25.2339 44.231 26.6303 43.8588L28.2436 34.8281C25.9802 34.5983 24.2087 32.9571 24.2087 30.9455V24.0705C24.2087 20.8208 27.2825 18.1779 31.0592 18.1779V16.9932C30.098 16.2099 29.4893 15.1077 29.4893 13.881V11.6719C29.4893 9.30252 31.7301 7.375 34.4854 7.375C37.2407 7.375 39.4795 9.30252 39.4795 11.6719V13.881C39.4795 15.1077 38.8709 16.2099 37.9097 16.9932V18.1779C41.6883 18.1779 44.7602 20.8208 44.7602 24.0705V26.0352Z" fill="#0575AD"/>
</g>
<path d="M26.4929 46.6603V47.6427H29.9191C30.5467 47.6427 31.0594 47.2025 31.0594 46.6603V45.678H27.635C27.0056 45.678 26.4929 46.1182 26.4929 46.6603Z" fill="#0575AD"/>
<path d="M28.7771 31.8539V27.0181H26.4929V30.946C26.4929 31.9753 27.4183 32.812 28.5905 32.8945L28.7771 31.8539Z" fill="#0575AD"/>
<mask id="mask3_1_4351" style="mask-type:luminance" maskUnits="userSpaceOnUse" x="24" y="0" width="21" height="4">
<path d="M24.5942 0.5H44.3749V3.78213H24.5942V0.5Z" fill="white"/>
</mask>
<g mask="url(#mask3_1_4351)">
<path d="M26.4924 3.44551H42.4775C43.107 3.44551 43.6196 3.00692 43.6196 2.46475C43.6196 1.74941 43.842 1.07777 44.2321 0.5H24.7378C25.1279 1.07777 25.3503 1.74941 25.3503 2.46475C25.3503 3.00692 25.8629 3.44551 26.4924 3.44551Z" fill="#0575AD"/>
</g>
<path d="M37.9097 46.6603C37.9097 47.2025 38.4224 47.6427 39.0517 47.6427H42.478V46.6603C42.478 46.1182 41.9654 45.678 41.3359 45.678H37.9097V46.6603Z" fill="#0575AD"/>
<path d="M40.0053 43.7147L38.0736 32.9102H30.897L28.9653 43.7147H31.3116L33.3791 36.6018C33.5053 36.1648 33.9614 35.8573 34.4872 35.8573C35.0111 35.8573 35.4673 36.1632 35.5935 36.6018L37.6609 43.7147H40.0072H40.0053Z" fill="#0575AD"/>
<path d="M40.1936 31.8539L40.3802 32.8945C41.5505 32.812 42.4778 31.9753 42.4778 30.946V27.0181H40.1936V31.8539Z" fill="#0575AD"/>
<path d="M34.4852 16.2149C35.9815 16.2149 37.1971 15.1678 37.1971 13.8811V11.672C37.1971 10.3853 35.9815 9.33984 34.4852 9.33984C32.9888 9.33984 31.7732 10.3853 31.7732 11.672V13.8811C31.7732 15.1678 32.9888 16.2149 34.4852 16.2149Z" fill="#0575AD"/>
<path d="M37.9098 20.1431H37.7158C37.2446 21.2857 35.9744 22.1078 34.4855 22.1078C32.9967 22.1078 31.7265 21.2857 31.2554 20.1431H31.0594C28.5415 20.1431 26.4929 21.9055 26.4929 24.071V25.0533H28.7771V24.071C28.7771 23.5288 29.2878 23.0902 29.9191 23.0902C30.5486 23.0902 31.0594 23.5288 31.0594 24.071V30.946H37.9098V24.071C37.9098 23.5288 38.4206 23.0902 39.0519 23.0902C39.6833 23.0902 40.194 23.5288 40.194 24.071V25.0533H42.4781V24.071C42.4781 21.9055 40.4296 20.1431 37.9098 20.1431Z" fill="#0575AD"/>
<path d="M33.3433 18.0554V19.1607C33.3433 19.7029 33.8559 20.1431 34.4853 20.1431C35.1148 20.1431 35.6274 19.7029 35.6274 19.1607V18.0554C35.258 18.1299 34.8792 18.1783 34.4853 18.1783C34.0914 18.1783 33.7127 18.1299 33.3433 18.0554Z" fill="#0575AD"/>
</g>
</g>
<defs>
<clipPath id="clip0_1_4351">
<rect width="68.75" height="55" fill="white" transform="translate(0.110107 0.5)"/>
</clipPath>
<clipPath id="clip1_1_4351">
<rect width="68.75" height="55" fill="white" transform="translate(0.110107 0.5)"/>
</clipPath>
</defs>
</svg>
