<svg width="69" height="42" viewBox="0 0 69 42" fill="none" xmlns="http://www.w3.org/2000/svg">
<g clip-path="url(#clip0_1_4351)">
<g clip-path="url(#clip1_1_4351)">
<mask id="mask0_1_4351" style="mask-type:luminance" maskUnits="userSpaceOnUse" x="0" y="20" width="9" height="13">
<path d="M0.110107 20.2695H8.67372V32.6989H0.110107V20.2695Z" fill="white"/>
</mask>
<g mask="url(#mask0_1_4351)">
<path d="M7.89029 20.9138C7.44552 20.5287 6.72373 20.5287 6.27707 20.9138L0.56863 25.8241C0.12198 26.2077 0.12198 26.8292 0.56863 27.2127L6.27707 32.123C6.49946 32.3156 6.79157 32.411 7.08369 32.411C7.3758 32.411 7.6679 32.3156 7.89029 32.123C8.33694 31.7394 8.33694 31.1195 7.89029 30.7343L2.99034 26.5184L7.89029 22.3025C8.33694 21.9173 8.33694 21.2974 7.89029 20.9138Z" fill="white"/>
</g>
<mask id="mask1_1_4351" style="mask-type:luminance" maskUnits="userSpaceOnUse" x="60" y="20" width="9" height="13">
<path d="M60.2969 20.2695H68.8605V32.6989H60.2969V20.2695Z" fill="white"/>
</mask>
<g mask="url(#mask1_1_4351)">
<path d="M68.402 25.8241L62.6935 20.9138C62.2468 20.5287 61.525 20.5287 61.0784 20.9138C60.6317 21.2974 60.6337 21.9173 61.0784 22.3025L65.9802 26.5184L61.0784 30.7343C60.6337 31.118 60.6337 31.7394 61.0784 32.123C61.3027 32.3156 61.5948 32.411 61.8869 32.411C62.179 32.411 62.4711 32.3156 62.6935 32.123L68.402 27.2127C68.8486 26.8292 68.8486 26.2077 68.402 25.8241Z" fill="white"/>
</g>
<mask id="mask2_1_4351" style="mask-type:luminance" maskUnits="userSpaceOnUse" x="15" y="0" width="39" height="55">
<path d="M15.9109 0H53.0601V55H15.9109V0Z" fill="white"/>
</mask>
<g mask="url(#mask2_1_4351)">
<path d="M49.3285 0H48.1864C46.9275 0 45.9023 0.880414 45.9023 1.96475C45.9023 3.58802 44.3664 4.91025 42.478 4.91025H26.4928C24.6044 4.91025 23.0685 3.58802 23.0685 1.96475C23.0685 0.880414 22.0433 0 20.7844 0H19.6423C17.7539 0 16.218 1.32224 16.218 2.94551V52.0529C16.218 53.6778 17.7539 55 19.6423 55H49.3285C51.2168 55 52.7528 53.6778 52.7528 52.0529V2.94551C52.7528 1.32224 51.2168 0 49.3285 0ZM41.3359 53.0352H27.6349C27.0054 53.0352 26.4928 52.5967 26.4928 52.0529C26.4928 51.5107 27.0054 51.0705 27.6349 51.0705H41.3359C41.9673 51.0705 42.478 51.5107 42.478 52.0529C42.478 52.5967 41.9673 53.0352 41.3359 53.0352ZM44.7602 25.5352V30.4455C44.7602 32.4556 42.9925 34.0983 40.7253 34.3281L42.3404 43.3588C43.7369 43.731 44.7602 44.838 44.7602 46.1602V47.1426C44.7602 48.2254 43.7369 49.1074 42.478 49.1074H39.0517C37.1634 49.1074 35.6274 47.7851 35.6274 46.1602V45.1779C35.6274 44.9723 35.6745 44.7782 35.7424 44.5936C35.7141 44.5402 35.6783 44.4917 35.6613 44.4334L34.4854 40.389L33.3094 44.4334C33.2924 44.4917 33.2547 44.5402 33.2283 44.5936C33.2963 44.7782 33.3433 44.9723 33.3433 45.1779V46.1602C33.3433 47.7851 31.8074 49.1074 29.919 49.1074H26.4928C25.2339 49.1074 24.2087 48.2254 24.2087 47.1426V46.1602C24.2087 44.838 25.2339 43.731 26.6303 43.3588L28.2436 34.3281C25.9802 34.0983 24.2087 32.4571 24.2087 30.4455V23.5705C24.2087 20.3208 27.2825 17.6779 31.0592 17.6779V16.4932C30.098 15.7099 29.4893 14.6077 29.4893 13.381V11.1719C29.4893 8.80252 31.7301 6.875 34.4854 6.875C37.2407 6.875 39.4795 8.80252 39.4795 11.1719V13.381C39.4795 14.6077 38.8709 15.7099 37.9097 16.4932V17.6779C41.6883 17.6779 44.7602 20.3208 44.7602 23.5705V25.5352Z" fill="white"/>
</g>
<path d="M28.7771 31.3539V26.5181H26.4929V30.446C26.4929 31.4753 27.4183 32.312 28.5905 32.3945L28.7771 31.3539Z" fill="white"/>
<mask id="mask3_1_4351" style="mask-type:luminance" maskUnits="userSpaceOnUse" x="24" y="0" width="21" height="4">
<path d="M24.5942 0H44.3749V3.28213H24.5942V0Z" fill="white"/>
</mask>
<g mask="url(#mask3_1_4351)">
<path d="M26.4924 2.94551H42.4775C43.107 2.94551 43.6196 2.50692 43.6196 1.96475C43.6196 1.24941 43.842 0.577772 44.2321 0H24.7378C25.1279 0.577772 25.3503 1.24941 25.3503 1.96475C25.3503 2.50692 25.8629 2.94551 26.4924 2.94551Z" fill="white"/>
</g>
<path d="M40.0053 43.2147L38.0736 32.4102H30.897L28.9653 43.2147H31.3116L33.3791 36.1018C33.5053 35.6648 33.9614 35.3573 34.4872 35.3573C35.0111 35.3573 35.4673 35.6632 35.5935 36.1018L37.6609 43.2147H40.0072H40.0053Z" fill="white"/>
<path d="M40.1936 31.3539L40.3802 32.3945C41.5505 32.312 42.4778 31.4753 42.4778 30.446V26.5181H40.1936V31.3539Z" fill="white"/>
<path d="M34.4852 15.7149C35.9815 15.7149 37.1971 14.6678 37.1971 13.3811V11.172C37.1971 9.88535 35.9815 8.83984 34.4852 8.83984C32.9888 8.83984 31.7732 9.88535 31.7732 11.172V13.3811C31.7732 14.6678 32.9888 15.7149 34.4852 15.7149Z" fill="white"/>
<path d="M37.9098 19.6431H37.7158C37.2446 20.7857 35.9744 21.6078 34.4855 21.6078C32.9967 21.6078 31.7265 20.7857 31.2554 19.6431H31.0594C28.5415 19.6431 26.4929 21.4055 26.4929 23.571V24.5533H28.7771V23.571C28.7771 23.0288 29.2878 22.5902 29.9191 22.5902C30.5486 22.5902 31.0594 23.0288 31.0594 23.571V30.446H37.9098V23.571C37.9098 23.0288 38.4206 22.5902 39.0519 22.5902C39.6833 22.5902 40.194 23.0288 40.194 23.571V24.5533H42.4781V23.571C42.4781 21.4055 40.4296 19.6431 37.9098 19.6431Z" fill="white"/>
<path d="M33.3433 17.5554V18.6607C33.3433 19.2029 33.8559 19.6431 34.4853 19.6431C35.1148 19.6431 35.6274 19.2029 35.6274 18.6607V17.5554C35.258 17.6299 34.8792 17.6783 34.4853 17.6783C34.0914 17.6783 33.7127 17.6299 33.3433 17.5554Z" fill="white"/>
</g>
</g>
<defs>
<clipPath id="clip0_1_4351">
<rect width="68.75" height="55" fill="white" transform="translate(0.110107)"/>
</clipPath>
<clipPath id="clip1_1_4351">
<rect width="68.75" height="55" fill="white" transform="translate(0.110107)"/>
</clipPath>
</defs>
</svg>
