<svg width="57" height="56" viewBox="0 0 57 56" fill="none" xmlns="http://www.w3.org/2000/svg">
<g clip-path="url(#clip0_1_4385)">
<g clip-path="url(#clip1_1_4385)">
<path d="M38.913 23.2515C38.5788 22.8633 38.5511 22.3012 38.8483 21.8853L38.8622 21.8654C39.0731 21.5728 39.4135 21.4002 39.7739 21.4034C40.0912 21.4048 40.393 21.545 40.5994 21.7852C41.8854 23.2714 42.9019 24.9517 43.6242 26.7752C44.4589 28.8867 44.8732 31.1121 44.8547 33.393C44.8347 35.6724 44.3835 37.8916 43.5117 39.9877C42.7755 41.7603 41.7591 43.3898 40.4886 44.8313C40.2729 45.0762 39.9633 45.2148 39.6384 45.2117C39.3227 45.2086 39.0224 45.0731 38.8129 44.8359C38.4386 44.4155 38.4356 43.7794 38.8068 43.359C43.829 37.6544 43.8736 29.0099 38.913 23.2515Z" fill="white"/>
<path d="M35.0935 39.9708L35.0997 39.9615L35.1027 39.9584C38.2553 36.3284 38.4417 30.9135 35.5478 27.0801C35.2691 26.7105 35.2475 26.1992 35.4939 25.808C35.7018 25.4753 36.0607 25.2783 36.455 25.2813C36.8092 25.2844 37.1341 25.4492 37.3482 25.7326C38.012 26.6196 38.5556 27.5915 38.9638 28.6234C39.5598 30.1295 39.8555 31.7189 39.8416 33.3499C39.8278 34.9808 39.5059 36.5671 38.8837 38.0626C38.3755 39.2885 37.6763 40.4205 36.8061 41.4277C36.5905 41.6787 36.2748 41.822 35.9437 41.8189C35.765 41.8173 35.5879 41.7727 35.4292 41.6895C35.1289 41.5309 34.9195 41.2491 34.8517 40.9164C34.784 40.5837 34.8702 40.2418 35.0858 39.98L35.0935 39.9708Z" fill="white"/>
<path d="M31.7239 30.3367C31.4236 29.8763 31.5083 29.254 31.9226 28.889C32.1289 28.7058 32.3953 28.6057 32.671 28.6087C33.0453 28.6118 33.3934 28.8013 33.5997 29.1154C33.9185 29.599 34.1803 30.1227 34.379 30.6678C34.6855 31.5118 34.838 32.4005 34.8303 33.3091C34.821 34.2178 34.6547 35.1049 34.3328 35.9442C34.1249 36.4879 33.8538 37.0069 33.5243 37.4859C33.3133 37.797 32.9621 37.9787 32.5879 37.9757C32.3122 37.9741 32.0473 37.8693 31.844 37.683C31.4358 37.3103 31.362 36.6866 31.6715 36.2323C32.8635 34.4796 32.8851 32.1094 31.7239 30.3367Z" fill="white"/>
<mask id="mask0_1_4385" style="mask-type:luminance" maskUnits="userSpaceOnUse" x="0" y="0" width="56" height="56">
<path d="M0.984863 0.5H55.9849V55.5H0.984863V0.5Z" fill="white"/>
</mask>
<g mask="url(#mask0_1_4385)">
<path d="M13.8585 48.1968L13.569 44.5776C13.5382 44.1757 13.7492 43.7922 14.108 43.6012C14.2344 43.5335 14.3791 43.495 14.5392 43.4857L22.5832 42.9343C23.1069 42.9035 23.7106 42.2382 23.7167 41.7146C23.7167 41.7007 23.7167 41.6884 23.7167 41.6746C23.7183 40.099 24.131 38.5496 24.9396 37.1975C24.9396 37.1944 24.9427 37.1929 24.9441 37.1898C25.0936 36.9372 24.9873 36.6092 24.7193 36.4875C23.7414 36.0471 21.5374 35.0491 21.5206 35.0013C21.442 34.8011 23.5134 34.3082 24.6515 34.0526C25.0243 33.9694 25.2368 33.5752 25.0997 33.2178C24.7163 32.223 24.3698 31.0679 23.7906 28.9071C23.7614 28.7993 23.7059 28.7131 23.632 28.6468L25.0442 28.5098C25.8313 28.4667 26.5073 28.1694 26.894 27.5226C26.9063 27.5025 26.917 27.4825 26.9278 27.4625C27.3313 26.7418 27.2836 25.8531 26.8308 25.1616L24.0509 19.779C23.7922 19.166 23.5673 15.981 23.5489 15.308C23.441 11.2314 21.5005 7.28875 18.7314 5.04329C18.7484 5.03713 18.7638 5.02943 18.7807 5.02327C18.8146 5.00787 18.85 4.99246 18.8854 4.9786C21.9287 3.70802 25.1567 3.06427 28.4849 3.06427C31.8531 3.06427 35.118 3.72343 38.1905 5.02327C39.6676 5.64701 41.0921 6.42014 42.4258 7.3211C43.7473 8.21435 44.9885 9.23852 46.1175 10.3674C47.2464 11.4963 48.272 12.7392 49.1638 14.0605C50.0648 15.3927 50.8379 16.8173 51.4631 18.2943C52.763 21.3668 53.4221 24.6334 53.4221 28C53.4221 31.3682 52.763 34.6332 51.4631 37.7057C50.8379 39.1827 50.0648 40.6073 49.1638 41.9395C48.272 43.2608 47.2464 44.5037 46.1175 45.6326C44.9885 46.7615 43.7473 47.7856 42.4258 48.6789C41.0921 49.5799 39.6676 50.353 38.1905 50.9767C35.118 52.2765 31.8531 52.9357 28.4849 52.9357C25.1182 52.9357 21.8532 52.2765 18.7807 50.9767C17.3037 50.353 15.8791 49.5799 14.5454 48.6789C14.3144 48.5218 14.0849 48.3616 13.8585 48.1968ZM0.984863 28C0.984863 37.8166 6.12879 46.4319 13.8693 51.2971C13.9509 51.3494 14.0356 51.4018 14.1189 51.4526C18.2987 54.02 23.2193 55.5 28.4849 55.5C43.6733 55.5 55.9849 43.1884 55.9849 28C55.9849 12.8131 43.6733 0.5 28.4849 0.5C24.1849 0.5 20.1144 1.4872 16.489 3.24753C14.128 4.39337 11.9565 5.86879 10.0314 7.61218C4.47472 12.6436 0.984863 19.9145 0.984863 28Z" fill="white"/>
</g>
</g>
</g>
<defs>
<clipPath id="clip0_1_4385">
<rect width="55.91" height="55" fill="white" transform="translate(0.530029 0.5)"/>
</clipPath>
<clipPath id="clip1_1_4385">
<rect width="55.9167" height="55" fill="white" transform="translate(0.526611 0.5)"/>
</clipPath>
</defs>
</svg>
