<svg width="46" height="46" viewBox="0 0 46 46" fill="none" xmlns="http://www.w3.org/2000/svg">
<g clip-path="url(#clip0_1_4605)">
<g clip-path="url(#clip1_1_4605)">
<g clip-path="url(#clip2_1_4605)">
<path d="M31.7516 18.8056C31.4782 18.4881 31.4555 18.0282 31.6987 17.688L31.7101 17.6716C31.8827 17.4322 32.1612 17.291 32.456 17.2935C32.7156 17.2948 32.9626 17.4095 33.1314 17.606C34.1836 18.822 35.0153 20.1968 35.6062 21.6887C36.2892 23.4163 36.6282 25.2371 36.613 27.1033C36.5967 28.9682 36.2275 30.784 35.5142 32.4989C34.9119 33.9493 34.0803 35.2825 33.0407 36.4619C32.8643 36.6622 32.611 36.7757 32.3451 36.7731C32.0868 36.7706 31.8411 36.6597 31.6697 36.4657C31.3635 36.1217 31.361 35.6013 31.6647 35.2573C35.7738 30.5899 35.8104 23.5171 31.7516 18.8056Z" fill="#00D280"/>
<path d="M28.627 32.4859L28.6321 32.4784L28.6346 32.4758C31.214 29.5058 31.3664 25.0754 28.9987 21.939C28.7707 21.6366 28.753 21.2183 28.9546 20.8982C29.1248 20.626 29.4184 20.4648 29.7409 20.4673C30.0308 20.4698 30.2966 20.6046 30.4718 20.8365C31.0149 21.5623 31.4597 22.3574 31.7936 23.2016C32.2813 24.434 32.5232 25.7344 32.5119 27.0688C32.5005 28.4033 32.2372 29.7011 31.7281 30.9247C31.3123 31.9277 30.7402 32.8539 30.0282 33.678C29.8518 33.8833 29.5935 34.0005 29.3226 33.998C29.1764 33.9968 29.0315 33.9602 28.9017 33.8922C28.656 33.7624 28.4846 33.5318 28.4292 33.2596C28.3737 32.9874 28.4443 32.7077 28.6207 32.4935L28.627 32.4859Z" fill="#00D280"/>
<path d="M25.8704 24.6018C25.6246 24.225 25.6939 23.716 26.0329 23.4173C26.2018 23.2674 26.4198 23.1855 26.6453 23.188C26.9515 23.1905 27.2363 23.3455 27.4051 23.6026C27.666 23.9982 27.8802 24.4267 28.0427 24.8727C28.2935 25.5633 28.4182 26.2903 28.4119 27.0338C28.4044 27.7772 28.2683 28.503 28.0049 29.1898C27.8348 29.6346 27.613 30.0592 27.3434 30.4511C27.1708 30.7056 26.8835 30.8543 26.5773 30.8518C26.3517 30.8506 26.135 30.7649 25.9686 30.6124C25.6347 30.3075 25.5742 29.7971 25.8275 29.4254C26.8028 27.9914 26.8205 26.0522 25.8704 24.6018Z" fill="#00D280"/>
<mask id="mask0_1_4605" style="mask-type:luminance" maskUnits="userSpaceOnUse" x="0" y="0" width="46" height="46">
<path d="M0.719971 0.189941H45.72V45.1899H0.719971V0.189941Z" fill="white"/>
</mask>
<g mask="url(#mask0_1_4605)">
<path d="M11.253 39.2146L11.0161 36.2534C10.9909 35.9245 11.1635 35.6108 11.4571 35.4545C11.5605 35.3991 11.6789 35.3676 11.81 35.36L18.3914 34.9089C18.8198 34.8837 19.3138 34.3393 19.3188 33.9109C19.3188 33.8996 19.3188 33.8895 19.3188 33.8782C19.32 32.5891 19.6578 31.3215 20.3193 30.2151C20.3193 30.2126 20.3218 30.2113 20.3231 30.2088C20.4453 30.0021 20.3584 29.7337 20.1391 29.6342C19.339 29.2738 17.5358 28.4573 17.5219 28.4182C17.4577 28.2544 19.1525 27.8512 20.0837 27.642C20.3886 27.574 20.5625 27.2514 20.4503 26.9591C20.1366 26.145 19.8531 25.2 19.3793 23.4321C19.3553 23.3439 19.31 23.2733 19.2495 23.2191L20.405 23.107C21.0489 23.0717 21.6021 22.8285 21.9183 22.2993C21.9284 22.2829 21.9372 22.2665 21.9461 22.2501C22.2762 21.6604 22.2371 20.9333 21.8667 20.3676L19.5922 15.9636C19.3805 15.4621 19.1966 12.8562 19.1814 12.3056C19.0932 8.97018 17.5055 5.74438 15.2399 3.90718C15.2538 3.90214 15.2664 3.89584 15.2802 3.8908C15.308 3.8782 15.3369 3.8656 15.3659 3.85425C17.8558 2.81469 20.497 2.28797 23.22 2.28797C25.9758 2.28797 28.6472 2.82729 31.161 3.8908C32.3694 4.40113 33.535 5.03369 34.6262 5.77084C35.7074 6.50168 36.723 7.33964 37.6467 8.26328C38.5703 9.18692 39.4095 10.2038 40.1391 11.2849C40.8762 12.3749 41.5088 13.5405 42.0204 14.7489C43.0839 17.2627 43.6232 19.9354 43.6232 22.6899C43.6232 25.4457 43.0839 28.1171 42.0204 30.6309C41.5088 31.8393 40.8762 33.0049 40.1391 34.0949C39.4095 35.176 38.5703 36.1929 37.6467 37.1166C36.723 38.0402 35.7074 38.8782 34.6262 39.609C33.535 40.3461 32.3694 40.9787 31.161 41.489C28.6472 42.5526 25.9758 43.0919 23.22 43.0919C20.4655 43.0919 17.7941 42.5526 15.2802 41.489C14.0718 40.9787 12.9062 40.3461 11.815 39.609C11.626 39.4805 11.4382 39.3494 11.253 39.2146ZM0.719971 22.6899C0.719971 30.7217 4.92864 37.7705 11.2618 41.7511C11.3286 41.794 11.3979 41.8368 11.466 41.8784C14.8858 43.979 18.9118 45.1899 23.22 45.1899C35.6469 45.1899 45.72 35.1168 45.72 22.6899C45.72 10.2642 35.6469 0.189941 23.22 0.189941C19.7019 0.189941 16.3715 0.997653 13.4052 2.43792C11.4735 3.37542 9.69678 4.58258 8.12168 6.00899C3.57531 10.1257 0.719971 16.0745 0.719971 22.6899Z" fill="#00D280"/>
</g>
</g>
</g>
</g>
<defs>
<clipPath id="clip0_1_4605">
<rect width="45" height="45" fill="white" transform="translate(0.719971 0.189941)"/>
</clipPath>
<clipPath id="clip1_1_4605">
<rect width="45" height="45" fill="white" transform="translate(0.719971 0.189941)"/>
</clipPath>
<clipPath id="clip2_1_4605">
<rect width="45" height="45" fill="white" transform="translate(0.719971 0.189941)"/>
</clipPath>
</defs>
</svg>
