<svg width="58" height="46" viewBox="0 0 58 46" fill="none" xmlns="http://www.w3.org/2000/svg">
<g clip-path="url(#clip0_1_4572)">
<g clip-path="url(#clip1_1_4572)">
<mask id="mask0_1_4572" style="mask-type:luminance" maskUnits="userSpaceOnUse" x="0" y="16" width="8" height="11">
<path d="M0.875732 16.772H7.88232V26.9415H0.875732V16.772Z" fill="white"/>
</mask>
<g mask="url(#mask0_1_4572)">
<path d="M7.24085 17.2993C6.87695 16.9842 6.28638 16.9842 5.92094 17.2993L1.2504 21.3168C0.884958 21.6306 0.884958 22.1391 1.2504 22.4529L5.92094 26.4704C6.10289 26.628 6.34189 26.7061 6.58089 26.7061C6.81989 26.7061 7.0589 26.628 7.24085 26.4704C7.60629 26.1566 7.60629 25.6494 7.24085 25.3343L3.23179 21.8848L7.24085 18.4354C7.60629 18.1203 7.60629 17.6131 7.24085 17.2993Z" fill="#00D280"/>
</g>
<mask id="mask1_1_4572" style="mask-type:luminance" maskUnits="userSpaceOnUse" x="50" y="16" width="8" height="11">
<path d="M50.1184 16.772H57.125V26.9415H50.1184V16.772Z" fill="white"/>
</mask>
<g mask="url(#mask1_1_4572)">
<path d="M56.7497 21.3168L52.0791 17.2993C51.7137 16.9842 51.1231 16.9842 50.7577 17.2993C50.3922 17.6131 50.3938 18.1203 50.7577 18.4354L54.7683 21.8848L50.7577 25.3343C50.3938 25.6481 50.3938 26.1566 50.7577 26.4704C50.9412 26.628 51.1802 26.7061 51.4192 26.7061C51.6582 26.7061 51.8972 26.628 52.0791 26.4704L56.7497 22.4529C57.1151 22.1391 57.1151 21.6306 56.7497 21.3168Z" fill="#00D280"/>
</g>
<mask id="mask2_1_4572" style="mask-type:luminance" maskUnits="userSpaceOnUse" x="13" y="0" width="32" height="46">
<path d="M13.8042 0.189941H44.1989V45.1899H13.8042V0.189941Z" fill="white"/>
</mask>
<g mask="url(#mask2_1_4572)">
<path d="M41.1451 0.189941H40.2107C39.1807 0.189941 38.3419 0.91028 38.3419 1.79746C38.3419 3.12559 37.0852 4.20742 35.5402 4.20742H22.4614C20.9164 4.20742 19.6597 3.12559 19.6597 1.79746C19.6597 0.91028 18.8209 0.189941 17.7909 0.189941H16.8565C15.3114 0.189941 14.0547 1.27177 14.0547 2.5999V42.7786C14.0547 44.1081 15.3114 45.1899 16.8565 45.1899H41.1451C42.6902 45.1899 43.9469 44.1081 43.9469 42.7786V2.5999C43.9469 1.27177 42.6902 0.189941 41.1451 0.189941ZM34.6058 43.5824H23.3958C22.8808 43.5824 22.4614 43.2235 22.4614 42.7786C22.4614 42.335 22.8808 41.9749 23.3958 41.9749H34.6058C35.1223 41.9749 35.5402 42.335 35.5402 42.7786C35.5402 43.2235 35.1223 43.5824 34.6058 43.5824ZM37.4075 21.0824V25.0999C37.4075 26.7445 35.9611 28.0885 34.1062 28.2765L35.4276 35.6653C36.5702 35.9698 37.4075 36.8755 37.4075 37.9574V38.7611C37.4075 39.647 36.5702 40.3687 35.5402 40.3687H32.7369C31.1919 40.3687 29.9352 39.2868 29.9352 37.9574V37.1536C29.9352 36.9855 29.9738 36.8266 30.0293 36.6756C30.0061 36.6319 29.9769 36.5922 29.963 36.5445L29.0008 33.2355L28.0386 36.5445C28.0248 36.5922 27.9939 36.6319 27.9723 36.6756C28.0278 36.8266 28.0664 36.9855 28.0664 37.1536V37.9574C28.0664 39.2868 26.8097 40.3687 25.2647 40.3687H22.4614C21.4314 40.3687 20.5926 39.647 20.5926 38.7611V37.9574C20.5926 36.8755 21.4314 35.9698 22.574 35.6653L23.8939 28.2765C22.042 28.0885 20.5926 26.7458 20.5926 25.0999V19.4749C20.5926 16.816 23.1075 14.6536 26.1975 14.6536V13.6843C25.4112 13.0434 24.9131 12.1417 24.9131 11.138V9.33056C24.9131 7.39201 26.7465 5.81494 29.0008 5.81494C31.2551 5.81494 33.087 7.39201 33.087 9.33056V11.138C33.087 12.1417 32.5889 13.0434 31.8025 13.6843V14.6536C34.8941 14.6536 37.4075 16.816 37.4075 19.4749V21.0824Z" fill="#00D280"/>
</g>
<path d="M22.4617 37.9586V38.7624H25.265C25.7784 38.7624 26.1979 38.4022 26.1979 37.9586V37.1548H23.3961C22.8811 37.1548 22.4617 37.515 22.4617 37.9586Z" fill="#00D280"/>
<path d="M24.3306 25.8437V21.8872H22.4617V25.1009C22.4617 25.943 23.2188 26.6276 24.1779 26.6952L24.3306 25.8437Z" fill="#00D280"/>
<mask id="mask3_1_4572" style="mask-type:luminance" maskUnits="userSpaceOnUse" x="20" y="0" width="18" height="3">
<path d="M20.9087 0.189941H37.093V2.87532H20.9087V0.189941Z" fill="white"/>
</mask>
<g mask="url(#mask3_1_4572)">
<path d="M22.4615 2.5999H35.5402C36.0553 2.5999 36.4747 2.24105 36.4747 1.79746C36.4747 1.21219 36.6566 0.662663 36.9758 0.189941H21.0259C21.3451 0.662663 21.5271 1.21219 21.5271 1.79746C21.5271 2.24105 21.9465 2.5999 22.4615 2.5999Z" fill="#00D280"/>
</g>
<path d="M31.803 37.9586C31.803 38.4022 32.2224 38.7624 32.7375 38.7624H35.5407V37.9586C35.5407 37.515 35.1213 37.1548 34.6063 37.1548H31.803V37.9586Z" fill="#00D280"/>
<path d="M33.5173 35.5457L31.9368 26.7056H26.0651L24.4846 35.5457H26.4043L28.0958 29.726C28.1991 29.3685 28.5723 29.1169 29.0025 29.1169C29.4311 29.1169 29.8043 29.3672 29.9076 29.726L31.5991 35.5457H33.5188H33.5173Z" fill="#00D280"/>
<path d="M33.6714 25.8437L33.8241 26.6952C34.7816 26.6276 35.5403 25.943 35.5403 25.1009V21.8872H33.6714V25.8437Z" fill="#00D280"/>
<path d="M29.001 13.0493C30.2253 13.0493 31.2199 12.1925 31.2199 11.1398V9.33242C31.2199 8.27972 30.2253 7.42432 29.001 7.42432C27.7767 7.42432 26.7822 8.27972 26.7822 9.33242V11.1398C26.7822 12.1925 27.7767 13.0493 29.001 13.0493Z" fill="#00D280"/>
<path d="M31.8028 16.2622H31.644C31.2585 17.197 30.2192 17.8697 29.0011 17.8697C27.783 17.8697 26.7437 17.197 26.3582 16.2622H26.1979C24.1378 16.2622 22.4617 17.7042 22.4617 19.4759V20.2796H24.3306V19.4759C24.3306 19.0323 24.7484 18.6734 25.265 18.6734C25.78 18.6734 26.1979 19.0323 26.1979 19.4759V25.1009H31.8028V19.4759C31.8028 19.0323 32.2207 18.6734 32.7372 18.6734C33.2538 18.6734 33.6717 19.0323 33.6717 19.4759V20.2796H35.5405V19.4759C35.5405 17.7042 33.8644 16.2622 31.8028 16.2622Z" fill="#00D280"/>
<path d="M28.0662 14.5532V15.4576C28.0662 15.9012 28.4856 16.2613 29.0006 16.2613C29.5156 16.2613 29.9351 15.9012 29.9351 15.4576V14.5532C29.6328 14.6141 29.3229 14.6538 29.0006 14.6538C28.6784 14.6538 28.3684 14.6141 28.0662 14.5532Z" fill="#00D280"/>
</g>
</g>
<defs>
<clipPath id="clip0_1_4572">
<rect width="57" height="45" fill="white" transform="translate(0.500244 0.189941)"/>
</clipPath>
<clipPath id="clip1_1_4572">
<rect width="57" height="45" fill="white" transform="translate(0.500244 0.189941)"/>
</clipPath>
</defs>
</svg>
