<svg width="42" height="43" viewBox="0 0 42 43" fill="none" xmlns="http://www.w3.org/2000/svg">
<path d="M39.2608 0.419922H2.73926C2.55957 0.419922 2.38184 0.4375 2.20508 0.472656C2.0293 0.507812 1.85742 0.560547 1.69141 0.628906C1.52539 0.698242 1.36817 0.782226 1.21875 0.882812C1.06836 0.982422 0.930661 1.0957 0.803711 1.22266C0.675781 1.35058 0.5625 1.48828 0.46289 1.6377C0.363282 1.78711 0.278321 1.94531 0.209961 2.11133C0.140625 2.27735 0.088867 2.44824 0.0537109 2.625C0.0185547 2.80078 0 2.97949 0 3.15918V7.72461H42V3.15918C42 2.97949 41.9824 2.80078 41.9472 2.625C41.9121 2.44824 41.8594 2.27735 41.791 2.11133C41.7217 1.94531 41.6377 1.78711 41.5381 1.6377C41.4375 1.48828 41.3242 1.35058 41.1973 1.22266C41.0703 1.0957 40.9316 0.982422 40.7822 0.882812C40.6328 0.782226 40.4746 0.698242 40.3086 0.628906C40.1426 0.560547 39.9717 0.507812 39.7949 0.472656C39.6191 0.4375 39.4404 0.419922 39.2608 0.419922ZM5.47851 6.81152C5.3584 6.81152 5.24023 6.79981 5.12207 6.77637C5.00488 6.75293 4.89062 6.71777 4.7793 6.67187C4.66895 6.62598 4.56348 6.57031 4.46387 6.50391C4.36425 6.43652 4.27246 6.36133 4.1875 6.27637C4.10254 6.1914 4.02636 6.09961 3.95996 6C3.89355 5.90039 3.83691 5.79492 3.79101 5.6836C3.74511 5.57324 3.71094 5.45898 3.6875 5.3418C3.66406 5.22363 3.65235 5.10547 3.65235 4.98536C3.65235 4.86524 3.66406 4.74609 3.6875 4.62891C3.71094 4.51172 3.74511 4.39746 3.79101 4.28613C3.83691 4.17578 3.89355 4.07031 3.95996 3.9707C4.02636 3.8711 4.10254 3.77832 4.1875 3.69433C4.27246 3.60938 4.36425 3.53321 4.46387 3.46679C4.56348 3.40039 4.66895 3.34375 4.7793 3.29785C4.89062 3.25196 5.00488 3.21778 5.12207 3.19433C5.24023 3.1709 5.3584 3.15918 5.47851 3.15918C5.59863 3.15918 5.7168 3.1709 5.83496 3.19433C5.95215 3.21778 6.0664 3.25196 6.17774 3.29785C6.28809 3.34375 6.39355 3.40039 6.49317 3.46679C6.59277 3.53321 6.68457 3.60938 6.76954 3.69433C6.85449 3.77832 6.93066 3.8711 6.99707 3.9707C7.06348 4.07031 7.12012 4.17578 7.16601 4.28613C7.21191 4.39746 7.24609 4.51172 7.26953 4.62891C7.29297 4.74609 7.30469 4.86524 7.30469 4.98536C7.30469 5.10547 7.29297 5.22363 7.26953 5.34082C7.24609 5.45898 7.21094 5.57324 7.16504 5.6836C7.11914 5.79395 7.0625 5.89942 6.99609 5.99903C6.92969 6.09863 6.85352 6.1914 6.76954 6.27539C6.68457 6.36035 6.5918 6.43652 6.49218 6.50293C6.39258 6.56933 6.28809 6.62598 6.17675 6.67187C6.0664 6.71777 5.95215 6.75195 5.83496 6.77539C5.7168 6.79883 5.59863 6.81152 5.47851 6.81152ZM10.044 6.81152C9.92384 6.81152 9.80465 6.79981 9.68747 6.77637C9.57029 6.75293 9.45605 6.71777 9.34475 6.67187C9.23437 6.62598 9.12887 6.57031 9.02933 6.50391C8.9297 6.43652 8.83688 6.36133 8.75297 6.27637C8.66796 6.1914 8.59177 6.09961 8.52541 6C8.45897 5.90039 8.40235 5.79492 8.35645 5.6836C8.31055 5.57324 8.27637 5.45898 8.25293 5.3418C8.22949 5.22363 8.21777 5.10547 8.21777 4.98536C8.21777 4.86524 8.22949 4.74609 8.25293 4.62891C8.27637 4.51172 8.31055 4.39746 8.35645 4.28613C8.40235 4.17578 8.45897 4.07031 8.52541 3.9707C8.59177 3.8711 8.66796 3.77832 8.75297 3.69433C8.83688 3.60938 8.9297 3.53321 9.02933 3.46679C9.12887 3.40039 9.23437 3.34375 9.34475 3.29785C9.45605 3.25196 9.57029 3.21778 9.68747 3.19433C9.80465 3.1709 9.92384 3.15918 10.044 3.15918C10.1641 3.15918 10.2822 3.1709 10.4004 3.19433C10.5176 3.21778 10.6318 3.25196 10.7422 3.29785C10.8536 3.34375 10.959 3.40039 11.0586 3.46679C11.1582 3.53321 11.25 3.60938 11.335 3.69433C11.4199 3.77832 11.4951 3.8711 11.5625 3.9707C11.6289 4.07031 11.6846 4.17578 11.7304 4.28613C11.7764 4.39746 11.8115 4.51172 11.8349 4.62891C11.8584 4.74609 11.8701 4.86524 11.8701 4.98536C11.8701 5.10547 11.8574 5.22363 11.834 5.34082C11.8106 5.45898 11.7764 5.57324 11.7304 5.6836C11.6846 5.79395 11.628 5.89942 11.5615 5.99903C11.4951 6.09863 11.419 6.1914 11.334 6.27539C11.25 6.36035 11.1572 6.43652 11.0576 6.50293C10.958 6.56933 10.8525 6.62598 10.7422 6.67187C10.6318 6.71777 10.5176 6.75195 10.3995 6.77539C10.2822 6.79883 10.1631 6.81152 10.044 6.81152ZM37.4346 5.89844H21C20.8789 5.89844 20.7627 5.875 20.6504 5.8291C20.5391 5.78223 20.4404 5.71679 20.3545 5.63086C20.2685 5.54492 20.2031 5.44629 20.1562 5.33496C20.1104 5.22266 20.0869 5.10644 20.0869 4.98536C20.0869 4.86426 20.1104 4.74805 20.1562 4.63574C20.2031 4.52344 20.2685 4.42481 20.3545 4.33984C20.4404 4.25391 20.5391 4.1875 20.6504 4.1416C20.7627 4.0957 20.8789 4.07227 21 4.07227H37.4346C37.5556 4.07227 37.6728 4.0957 37.7842 4.1416C37.8965 4.1875 37.9951 4.25391 38.0811 4.33984C38.166 4.42481 38.2324 4.52344 38.2783 4.63574C38.3252 4.74805 38.3477 4.86426 38.3477 4.98536C38.3477 5.10644 38.3252 5.22266 38.2783 5.33496C38.2324 5.44629 38.166 5.54492 38.0811 5.63086C37.9951 5.71679 37.8965 5.78223 37.7842 5.8291C37.6728 5.875 37.5556 5.89844 37.4346 5.89844ZM8.21777 30.5508C8.21777 30.3106 8.24121 30.0733 8.28809 29.8379C8.33496 29.6025 8.40428 29.374 8.49509 29.1524C8.5869 28.9316 8.70022 28.7207 8.83302 28.5215C8.96683 28.3223 9.1182 28.1377 9.28712 27.9678C9.45706 27.7979 9.6416 27.6465 9.84085 27.5137C10.04 27.3809 10.2509 27.2676 10.4717 27.1758C10.6934 27.084 10.9218 27.0157 11.1572 26.9687C11.3926 26.9218 11.6299 26.8984 11.8701 26.8984C12.1094 26.8984 12.3467 26.9218 12.582 26.9687C12.8174 27.0157 13.0459 27.084 13.2675 27.1758C13.4892 27.2676 13.6992 27.3809 13.8985 27.5137C14.0986 27.6465 14.2823 27.7979 14.4521 27.9678C14.622 28.1377 14.7734 28.3223 14.9062 28.5215C15.04 28.7207 15.1523 28.9316 15.2442 29.1524C15.336 29.374 15.4053 29.6025 15.4521 29.8379C15.499 30.0733 15.5215 30.3106 15.5215 30.5508C15.5215 30.79 15.499 31.0273 15.4521 31.2627C15.4053 31.4981 15.336 31.7266 15.2442 31.9482C15.1523 32.1699 15.04 32.3799 14.9062 32.5791C14.7734 32.7783 14.622 32.9629 14.4521 33.1328C14.2823 33.3027 14.0986 33.4541 13.8985 33.5869C13.6992 33.7207 13.4892 33.833 13.2675 33.9248C13.0459 34.0166 12.8174 34.0859 12.582 34.1328C12.3467 34.1787 12.1094 34.2021 11.8701 34.2021C11.6299 34.2021 11.3926 34.1787 11.1572 34.1318C10.9229 34.0849 10.6944 34.0156 10.4726 33.9238C10.2509 33.832 10.041 33.7188 9.84178 33.586C9.64261 33.4522 9.45798 33.3008 9.28805 33.1319C9.11912 32.9619 8.96776 32.7773 8.83394 32.5781C8.70114 32.3789 8.58883 32.169 8.4971 31.9473C8.40529 31.7255 8.33496 31.4981 8.28809 31.2627C8.24121 31.0273 8.21777 30.79 8.21777 30.5508ZM0 39.6807C0 39.8604 0.0185547 40.039 0.0537109 40.2148C0.088867 40.3916 0.140625 40.5625 0.209961 40.7285C0.278321 40.8946 0.363282 41.0527 0.46289 41.2022C0.5625 41.3515 0.675781 41.4893 0.803711 41.6172C0.930661 41.7441 1.06836 41.8575 1.21875 41.957C1.36817 42.0576 1.52539 42.1416 1.69141 42.2109C1.85742 42.2793 2.0293 42.3321 2.20508 42.3672C2.38184 42.4024 2.55957 42.4199 2.73926 42.4199H39.2608C39.4404 42.4199 39.6191 42.4024 39.7949 42.3672C39.9717 42.3321 40.1426 42.2793 40.3086 42.2109C40.4746 42.1416 40.6328 42.0576 40.7822 41.957C40.9316 41.8575 41.0703 41.7441 41.1973 41.6172C41.3242 41.4893 41.4375 41.3515 41.5381 41.2022C41.6377 41.0527 41.7217 40.8946 41.791 40.7285C41.8594 40.5625 41.9121 40.3916 41.9472 40.2148C41.9824 40.039 42 39.8604 42 39.6807V9.55081H0V39.6807ZM33.7832 25.0722C33.7832 24.9512 33.8056 24.8349 33.8525 24.7226C33.8984 24.6103 33.9648 24.5117 34.0498 24.4268C34.1357 24.3409 34.2344 24.2744 34.3467 24.2285C34.458 24.1826 34.5752 24.1592 34.6963 24.1592V16.8545C34.6182 16.8545 34.541 16.8447 34.4658 16.8252C34.3906 16.8056 34.3194 16.7773 34.251 16.7393C34.1836 16.7011 34.121 16.6553 34.0644 16.6016C34.0088 16.5478 33.9599 16.4883 33.9189 16.4218C33.878 16.3555 33.8467 16.2852 33.8233 16.2109C33.8008 16.1367 33.7871 16.0606 33.7832 15.9824C33.7803 15.9052 33.7861 15.8281 33.8027 15.7519C33.8184 15.6757 33.8447 15.6025 33.8789 15.5332L34.792 13.707C34.834 13.6367 34.8848 13.5723 34.9433 13.5147C35.002 13.4571 35.0674 13.4082 35.1396 13.3672C35.211 13.3262 35.2861 13.2959 35.3662 13.2744C35.4453 13.2539 35.5264 13.2432 35.6094 13.2432C35.6914 13.2432 35.7725 13.2539 35.8515 13.2744C35.9317 13.2959 36.0069 13.3262 36.0781 13.3672C36.1504 13.4082 36.2158 13.4571 36.2744 13.5147C36.333 13.5723 36.3838 13.6367 36.4258 13.707L37.3388 15.5332C37.373 15.6025 37.3994 15.6757 37.415 15.7519C37.4317 15.8281 37.4375 15.9052 37.4346 15.9824C37.4306 16.0606 37.417 16.1367 37.3945 16.2109C37.3711 16.2852 37.3398 16.3555 37.2989 16.4218C37.2578 16.4883 37.209 16.5478 37.1533 16.6016C37.0967 16.6553 37.0342 16.7011 36.9668 16.7393C36.8984 16.7773 36.8271 16.8056 36.7519 16.8252C36.6768 16.8447 36.5996 16.8545 36.5215 16.8545V24.1592C36.6426 24.1592 36.7597 24.1826 36.8711 24.2285C36.9834 24.2744 37.0821 24.3409 37.168 24.4268C37.2529 24.5117 37.3194 24.6103 37.3652 24.7226C37.4121 24.8349 37.4346 24.9512 37.4346 25.0722V26.6973C37.7246 26.9551 37.9483 27.2608 38.1074 27.6132C38.2666 27.9668 38.3467 28.3369 38.3477 28.7246V36.0283C38.3477 36.208 38.33 36.3867 38.2949 36.5634C38.2607 36.7393 38.208 36.9111 38.1396 37.0772C38.0703 37.2432 37.9863 37.4004 37.8867 37.5508C37.7861 37.7002 37.6728 37.8379 37.5459 37.9658C37.419 38.0927 37.2803 38.2061 37.1309 38.3057C36.9814 38.4062 36.8232 38.4902 36.6573 38.5595C36.4912 38.6279 36.3193 38.6797 36.1435 38.7148C35.9668 38.75 35.789 38.7676 35.6094 38.7676C35.4287 38.7676 35.2509 38.75 35.0742 38.7148C34.8985 38.6797 34.7265 38.6279 34.5605 38.5595C34.3946 38.4902 34.2363 38.4062 34.0869 38.3057C33.9375 38.2061 33.7988 38.0927 33.6719 37.9658C33.5449 37.8379 33.4317 37.7002 33.331 37.5508C33.2314 37.4004 33.1475 37.2432 33.0781 37.0772C33.0097 36.9111 32.9571 36.7393 32.9229 36.5634C32.8877 36.3867 32.8701 36.208 32.8701 36.0283V28.7246C32.8711 28.3369 32.9512 27.9668 33.1104 27.6132C33.2695 27.2608 33.4932 26.9551 33.7832 26.6973V25.0722ZM25.1856 13.2852C25.2559 13.2529 25.3281 13.2305 25.4033 13.2168C25.4785 13.2031 25.5546 13.1992 25.6308 13.2051C25.707 13.2099 25.7813 13.2246 25.8535 13.249C25.9258 13.2734 25.9951 13.3057 26.0586 13.3477C26.1231 13.3887 26.1816 13.4375 26.2334 13.4932C26.2861 13.5498 26.3301 13.6114 26.3672 13.6777C26.4033 13.7451 26.4316 13.8154 26.4502 13.8897C26.4687 13.9638 26.4785 14.0391 26.4785 14.1152V17.2031L27.3916 17.6602L28.3047 17.2031V14.1152C28.3047 14.0391 28.3145 13.9638 28.333 13.8897C28.3516 13.8154 28.3799 13.7451 28.416 13.6777C28.4532 13.6114 28.4971 13.5498 28.5498 13.4932C28.6016 13.4375 28.6601 13.3887 28.7236 13.3477C28.7881 13.3057 28.8564 13.2734 28.9297 13.249C29.0019 13.2246 29.0762 13.2099 29.1524 13.2051C29.2286 13.1992 29.3047 13.2031 29.3799 13.2168C29.4551 13.2305 29.5273 13.2529 29.5966 13.2852C29.8291 13.3965 30.0528 13.5225 30.2686 13.664C30.4844 13.8057 30.6885 13.961 30.8838 14.1299C31.0781 14.2988 31.2608 14.4804 31.4307 14.6738C31.6016 14.8672 31.7578 15.0703 31.9004 15.2851C32.044 15.5 32.1719 15.7226 32.2851 15.9541C32.3975 16.1855 32.4951 16.4239 32.5762 16.668C32.6573 16.9131 32.7217 17.1621 32.7695 17.4151C32.8174 17.668 32.8486 17.9238 32.8613 18.1806C32.875 18.4385 32.8721 18.6953 32.8506 18.9522C32.8301 19.209 32.792 19.4629 32.7373 19.7148C32.6816 19.9668 32.6103 20.2139 32.5224 20.456C32.4346 20.6983 32.331 20.9336 32.211 21.1611C32.0918 21.3897 31.957 21.6093 31.8086 21.8193C31.6592 22.0293 31.4971 22.2285 31.3212 22.417C31.1455 22.6055 30.958 22.7822 30.7588 22.9453C30.5595 23.1084 30.3496 23.2578 30.1309 23.3936V35.8008C30.1455 35.9892 30.1416 36.1777 30.1172 36.3662C30.0938 36.5547 30.0507 36.7382 29.9882 36.917C29.9268 37.0967 29.8467 37.2676 29.75 37.4307C29.6523 37.5938 29.5391 37.7441 29.4112 37.8838C29.2822 38.0234 29.1406 38.1474 28.9863 38.2578C28.8311 38.3682 28.667 38.4609 28.4931 38.5371C28.3203 38.6133 28.1406 38.6709 27.9541 38.71C27.7686 38.748 27.5811 38.7676 27.3916 38.7676C27.2021 38.7676 27.0147 38.748 26.8281 38.71C26.6426 38.6709 26.4629 38.6133 26.2891 38.5371C26.1153 38.4609 25.9512 38.3682 25.7969 38.2578C25.6426 38.1474 25.501 38.0234 25.372 37.8838C25.2441 37.7441 25.1309 37.5938 25.0332 37.4307C24.9356 37.2676 24.8564 37.0967 24.7939 36.917C24.7325 36.7382 24.6894 36.5547 24.665 36.3662C24.6416 36.1777 24.6377 35.9892 24.6523 35.8008V23.3936C24.4326 23.2578 24.2237 23.1084 24.0244 22.9453C23.8252 22.7822 23.6377 22.6055 23.4619 22.417C23.2861 22.2285 23.124 22.0293 22.9746 21.8193C22.8262 21.6093 22.6914 21.3897 22.5722 21.1611C22.4521 20.9336 22.3486 20.6983 22.2608 20.456C22.1729 20.2139 22.1006 19.9668 22.0459 19.7148C21.9912 19.4629 21.9531 19.209 21.9327 18.9522C21.9111 18.6953 21.9072 18.4385 21.9209 18.1806C21.9346 17.9238 21.9658 17.668 22.0137 17.4151C22.0615 17.1621 22.1259 16.9131 22.207 16.668C22.2881 16.4239 22.3847 16.1855 22.4981 15.9541C22.6113 15.7226 22.7392 15.5 22.8819 15.2851C23.0254 15.0703 23.1816 14.8672 23.3525 14.6738C23.5224 14.4804 23.7051 14.2988 23.8994 14.1299C24.0937 13.961 24.2988 13.8057 24.5146 13.664C24.7295 13.5225 24.9541 13.3965 25.1856 13.2852ZM4.56543 11.376H19.1738C19.2949 11.376 19.4121 11.3994 19.5234 11.4463C19.6358 11.4922 19.7344 11.5586 19.8193 11.6436C19.9053 11.7295 19.9717 11.8281 20.0176 11.9404C20.0645 12.0517 20.0869 12.168 20.0869 12.289C20.0869 12.4102 20.0645 12.5273 20.0176 12.6386C19.9717 12.751 19.9053 12.8496 19.8193 12.9356C19.7344 13.0205 19.6358 13.087 19.5234 13.1328C19.4121 13.1797 19.2949 13.2021 19.1738 13.2021H4.56543C4.44434 13.2021 4.32812 13.1797 4.21582 13.1328C4.10449 13.087 4.00586 13.0205 3.91992 12.9356C3.83399 12.8496 3.76855 12.751 3.72168 12.6386C3.67578 12.5273 3.65235 12.4102 3.65235 12.289C3.65235 12.168 3.67578 12.0517 3.72168 11.9404C3.76855 11.8281 3.83399 11.7295 3.91992 11.6436C4.00586 11.5586 4.10449 11.4922 4.21582 11.4463C4.32812 11.3994 4.44434 11.376 4.56543 11.376ZM4.56543 15.0284H19.1738C19.2949 15.0284 19.4121 15.0518 19.5234 15.0977C19.6358 15.1445 19.7344 15.21 19.8193 15.2959C19.9053 15.3818 19.9717 15.4804 20.0176 15.5918C20.0645 15.7041 20.0869 15.8203 20.0869 15.9414C20.0869 16.0625 20.0645 16.1797 20.0176 16.291C19.9717 16.4034 19.9053 16.502 19.8193 16.5869C19.7344 16.6728 19.6358 16.7393 19.5234 16.7851C19.4121 16.8311 19.2949 16.8545 19.1738 16.8545H4.56543C4.44434 16.8545 4.32812 16.8311 4.21582 16.7851C4.10449 16.7393 4.00586 16.6728 3.91992 16.5869C3.83399 16.502 3.76855 16.4034 3.72168 16.291C3.67578 16.1797 3.65235 16.0625 3.65235 15.9414C3.65235 15.8203 3.67578 15.7041 3.72168 15.5918C3.76855 15.4804 3.83399 15.3818 3.91992 15.2959C4.00586 15.21 4.10449 15.1445 4.21582 15.0977C4.32812 15.0518 4.44434 15.0284 4.56543 15.0284ZM4.56543 18.6807H19.1738C19.2949 18.6807 19.4121 18.7041 19.5234 18.75C19.6358 18.7969 19.7344 18.8623 19.8193 18.9482C19.9053 19.0342 19.9717 19.1329 20.0176 19.2442C20.0645 19.3565 20.0869 19.4726 20.0869 19.5938C20.0869 19.7148 20.0645 19.8311 20.0176 19.9434C19.9717 20.0547 19.9053 20.1543 19.8193 20.2392C19.7344 20.3252 19.6358 20.3906 19.5234 20.4375C19.4121 20.4834 19.2949 20.5068 19.1738 20.5068H4.56543C4.44434 20.5068 4.32812 20.4834 4.21582 20.4375C4.10449 20.3906 4.00586 20.3252 3.91992 20.2392C3.83399 20.1543 3.76855 20.0547 3.72168 19.9434C3.67578 19.8311 3.65235 19.7148 3.65235 19.5938C3.65235 19.4726 3.67578 19.3565 3.72168 19.2442C3.76855 19.1329 3.83399 19.0342 3.91992 18.9482C4.00586 18.8623 4.10449 18.7969 4.21582 18.75C4.32812 18.7041 4.44434 18.6807 4.56543 18.6807ZM3.65235 29.0899C3.65235 28.9688 3.67578 28.8516 3.72168 28.7403C3.76855 28.628 3.83399 28.5293 3.91992 28.4433C4.00586 28.3584 4.10449 28.292 4.21582 28.2461C4.32812 28.1992 4.44434 28.1768 4.56543 28.1768H5.5498C5.60254 28.0352 5.66015 27.8965 5.72266 27.7597L5.02637 27.0645C4.94043 26.9785 4.875 26.8799 4.82813 26.7676C4.78223 26.6562 4.75879 26.5401 4.75879 26.4189C4.75879 26.2979 4.78223 26.1806 4.82813 26.0693C4.875 25.957 4.94043 25.8584 5.02637 25.7735L7.09277 23.707C7.17773 23.6211 7.27636 23.5556 7.38867 23.5087C7.5 23.4629 7.61719 23.4394 7.73828 23.4394C7.85938 23.4394 7.97559 23.4629 8.08692 23.5087C8.19921 23.5556 8.29786 23.6211 8.38379 23.707L9.07914 24.4033C9.21581 24.3409 9.35449 24.2832 9.49612 24.2305V23.2461C9.49612 23.125 9.51854 23.0088 9.56542 22.8965C9.61136 22.7852 9.67772 22.6855 9.76366 22.6006C9.84866 22.5146 9.94728 22.4493 10.0596 22.4023C10.1709 22.3564 10.2881 22.333 10.4092 22.333H13.3311C13.4522 22.333 13.5684 22.3564 13.6797 22.4023C13.792 22.4493 13.8907 22.5146 13.9766 22.6006C14.0615 22.6855 14.128 22.7852 14.1738 22.8965C14.2207 23.0088 14.2441 23.125 14.2441 23.2461V24.2305C14.3847 24.2832 14.5234 24.3409 14.6602 24.4033L15.3565 23.707C15.4414 23.6211 15.54 23.5556 15.6523 23.5087C15.7637 23.4629 15.8809 23.4394 16.0019 23.4394C16.123 23.4394 16.2392 23.4629 16.3506 23.5087C16.4629 23.5556 16.5615 23.6211 16.6475 23.707L18.7129 25.7735C18.7989 25.8584 18.8652 25.957 18.9112 26.0693C18.957 26.1806 18.9805 26.2979 18.9805 26.4189C18.9805 26.5401 18.957 26.6562 18.9112 26.7676C18.8652 26.8799 18.7989 26.9785 18.7129 27.0645L18.0176 27.7597C18.0801 27.8965 18.1367 28.0352 18.1894 28.1768H19.1738C19.2949 28.1768 19.4121 28.1992 19.5234 28.2461C19.6358 28.292 19.7344 28.3584 19.8193 28.4433C19.9053 28.5293 19.9717 28.628 20.0176 28.7403C20.0645 28.8516 20.0869 28.9688 20.0869 29.0899V32.0117C20.0869 32.1328 20.0645 32.249 20.0176 32.3603C19.9717 32.4726 19.9053 32.5713 19.8193 32.6572C19.7344 32.7422 19.6358 32.8086 19.5234 32.8545C19.4121 32.9014 19.2949 32.9248 19.1738 32.9248H18.1894C18.1367 33.0654 18.0801 33.2041 18.0176 33.3408L18.7129 34.0371C18.7989 34.1221 18.8642 34.2207 18.9112 34.333C18.957 34.4444 18.9805 34.5616 18.9805 34.6826C18.9805 34.8037 18.957 34.9199 18.9112 35.0313C18.8642 35.1436 18.7989 35.2422 18.7129 35.3281L16.6475 37.3935C16.5615 37.4795 16.4629 37.5449 16.3506 37.5918C16.2392 37.6377 16.123 37.6612 16.0019 37.6612C15.8809 37.6612 15.7637 37.6377 15.6523 37.5918C15.54 37.5449 15.4414 37.4795 15.3565 37.3935L14.6602 36.6983C14.5234 36.7597 14.3847 36.8174 14.2441 36.8701V37.8545C14.2441 37.9756 14.2207 38.0918 14.1738 38.2041C14.128 38.3164 14.0615 38.4151 13.9766 38.5C13.8907 38.5859 13.792 38.6524 13.6797 38.6982C13.5684 38.7442 13.4522 38.7676 13.3311 38.7676H10.4092C10.2881 38.7676 10.1709 38.7442 10.0596 38.6982C9.94728 38.6524 9.84866 38.5859 9.76366 38.5C9.67772 38.4151 9.61136 38.3164 9.56542 38.2041C9.51854 38.0918 9.49612 37.9756 9.49612 37.8545V36.8701C9.35449 36.8174 9.21581 36.7597 9.07914 36.6983L8.38379 37.3935C8.29786 37.4795 8.19921 37.5449 8.08692 37.5918C7.97559 37.6377 7.85938 37.6612 7.73828 37.6612C7.61719 37.6612 7.5 37.6377 7.38867 37.5918C7.27636 37.5449 7.17773 37.4795 7.09277 37.3935L5.02637 35.3281C4.94043 35.2422 4.875 35.1436 4.82813 35.0313C4.78223 34.9199 4.75879 34.8037 4.75879 34.6826C4.75879 34.5616 4.78223 34.4444 4.82813 34.333C4.875 34.2207 4.94043 34.1221 5.02637 34.0371L5.72266 33.3408C5.66015 33.2041 5.60254 33.0654 5.5498 32.9248H4.56543C4.44434 32.9248 4.32812 32.9014 4.21582 32.8545C4.10449 32.8086 4.00586 32.7422 3.91992 32.6572C3.83399 32.5713 3.76855 32.4726 3.72168 32.3603C3.67578 32.249 3.65235 32.1328 3.65235 32.0117V29.0899Z" fill="#00D280"/>
</svg>
