<svg width="48" height="43" viewBox="0 0 48 43" fill="none" xmlns="http://www.w3.org/2000/svg">
<g clip-path="url(#clip0_31_1335)">
<g clip-path="url(#clip1_31_1335)">
<g clip-path="url(#clip2_31_1335)">
<path d="M11.9551 18.4209H20.9882V19.9205H11.9551V18.4209Z" fill="#00D280"/>
<path d="M8.94434 16.1687V35.6683C8.94434 36.081 9.28385 36.4185 9.69759 36.4185H38.3015C38.7153 36.4185 39.0548 36.081 39.0548 35.6683V16.1687C39.0548 15.756 38.7153 15.4185 38.3015 15.4185H27.0106V16.918H36.796C37.2098 16.918 37.5493 17.2555 37.5493 17.6683V34.1687C37.5493 34.5805 37.2098 34.918 36.796 34.918H11.2031C10.7894 34.918 10.4499 34.5805 10.4499 34.1687V17.6683C10.4499 17.2555 10.7894 16.918 11.2031 16.918H20.9886V15.4185H9.69759C9.28385 15.4185 8.94434 15.756 8.94434 16.1687Z" fill="#00D280"/>
<path d="M27.0107 18.4209H36.0438V19.9205H27.0107V18.4209Z" fill="#00D280"/>
<path d="M25.5055 21.4209V11.6701C25.5055 11.2574 25.844 10.9208 26.2578 10.9208H26.7002L24 8.22949L21.2998 10.9208H21.7422C22.1559 10.9208 22.4945 11.2574 22.4945 11.6701V21.4209H25.5055Z" fill="#00D280"/>
<path d="M20.9882 22.1692V21.4199H11.9551V33.4196H36.0435V21.4199H27.0103V22.1692C27.0103 22.582 26.6718 22.9195 26.2571 22.9195H21.7415C21.3268 22.9195 20.9882 22.582 20.9882 22.1692ZM27.7626 27.4193H33.7846C34.1984 27.4193 34.538 27.7568 34.538 28.1696C34.538 28.5823 34.1984 28.9199 33.7846 28.9199H27.7626C27.3488 28.9199 27.0103 28.5823 27.0103 28.1696C27.0103 27.7568 27.3488 27.4193 27.7626 27.4193ZM17.2249 24.4191H18.7304C19.1442 24.4191 19.4827 24.7567 19.4827 25.1693C19.4827 25.5821 19.1442 25.9196 18.7304 25.9196H17.2249C16.8102 25.9196 16.4716 25.5821 16.4716 25.1693C16.4716 24.7567 16.8102 24.4191 17.2249 24.4191ZM14.2139 31.92C13.8001 31.92 13.4606 31.5825 13.4606 31.1697C13.4606 30.7569 13.8001 30.4194 14.2139 30.4194C14.6276 30.4194 14.9661 30.7569 14.9661 31.1697C14.9661 31.5825 14.6276 31.92 14.2139 31.92ZM14.2139 28.9199C13.8001 28.9199 13.4606 28.5823 13.4606 28.1696C13.4606 27.7568 13.8001 27.4193 14.2139 27.4193C14.6276 27.4193 14.9661 27.7568 14.9661 28.1696C14.9661 28.5823 14.6276 28.9199 14.2139 28.9199ZM14.2139 25.9196C13.8001 25.9196 13.4606 25.5821 13.4606 25.1693C13.4606 24.7567 13.8001 24.4191 14.2139 24.4191C14.6276 24.4191 14.9661 24.7567 14.9661 25.1693C14.9661 25.5821 14.6276 25.9196 14.2139 25.9196ZM24.7515 31.92H17.2249C16.8102 31.92 16.4716 31.5825 16.4716 31.1697C16.4716 30.7569 16.8102 30.4194 17.2249 30.4194H24.7515C25.1662 30.4194 25.5048 30.7569 25.5048 31.1697C25.5048 31.5825 25.1662 31.92 24.7515 31.92ZM24.7515 27.4193C25.1662 27.4193 25.5048 27.7568 25.5048 28.1696C25.5048 28.5823 25.1662 28.9199 24.7515 28.9199H17.2249C16.8102 28.9199 16.4716 28.5823 16.4716 28.1696C16.4716 27.7568 16.8102 27.4193 17.2249 27.4193H24.7515Z" fill="#00D280"/>
<path d="M20.4148 39.4185H27.5851C27.8672 39.4185 28.1305 39.2592 28.2621 39.0058L28.8086 37.918H19.1914L19.7377 39.0058C19.8695 39.2592 20.1238 39.4185 20.4148 39.4185Z" fill="#00D280"/>
<mask id="mask0_31_1335" style="mask-type:luminance" maskUnits="userSpaceOnUse" x="4" y="0" width="40" height="22">
<path d="M4.4248 0.419922H43.5744V21.2112H4.4248V0.419922Z" fill="white"/>
</mask>
<g mask="url(#mask0_31_1335)">
<path d="M43.5704 16.9193C43.5704 14.4348 41.5482 12.4196 39.0548 12.4196H36.7495C36.5327 12.4196 36.3347 12.3255 36.1843 12.1661C36.0338 12.0068 35.9774 11.791 35.9962 11.5851C36.0249 11.3506 36.0338 11.1348 36.0338 10.92C36.0338 7.61001 33.3336 4.91967 30.0117 4.91967C29.4664 4.91967 28.921 4.99489 28.3933 5.14436C28.0548 5.23839 27.6975 5.08794 27.5282 4.77911C26.0881 2.08778 23.2938 0.419922 20.2362 0.419922C15.6721 0.419922 11.9553 4.12286 11.9553 8.66913C11.9553 9.61641 12.1157 10.5349 12.4265 11.4159C12.5106 11.6416 12.473 11.9039 12.3325 12.1009C12.1909 12.2979 11.9652 12.4196 11.7207 12.4196H8.94429C6.45093 12.4196 4.42871 14.4348 4.42871 16.9193C4.42871 18.8415 5.66995 20.5381 7.43976 21.1567V16.17C7.43976 14.9318 8.45532 13.9191 9.69755 13.9191H20.9885V12.4196H19.483C19.1821 12.4196 18.8999 12.2414 18.7871 11.9603C18.6743 11.6792 18.7307 11.3604 18.9465 11.1447L23.4631 6.64493C23.755 6.35393 24.2351 6.35393 24.5262 6.64493L29.0427 11.1447C29.2595 11.3604 29.3248 11.6792 29.203 11.9603C29.0803 12.2414 28.8081 12.4196 28.5062 12.4196H27.0007V13.9191H38.2926C39.5338 13.9191 40.5504 14.9318 40.5504 16.17V21.1567C42.3291 20.5381 43.5704 18.8415 43.5704 16.9193Z" fill="#00D280"/>
</g>
<mask id="mask1_31_1335" style="mask-type:luminance" maskUnits="userSpaceOnUse" x="5" y="37" width="38" height="6">
<path d="M5.94531 37.6816H42.1808V42.4199H5.94531V37.6816Z" fill="white"/>
</mask>
<g mask="url(#mask1_31_1335)">
<path d="M42.008 37.9209H30.4825L29.5976 39.6739C29.2115 40.443 28.4405 40.921 27.5743 40.921H20.405C19.5489 40.921 18.7679 40.443 18.3819 39.6739L17.4969 37.9209H5.99023C6.35647 40.4618 8.55883 42.4216 11.2027 42.4216H36.7956C39.4492 42.4216 41.6417 40.4618 42.008 37.9209Z" fill="#00D280"/>
</g>
</g>
</g>
</g>
<defs>
<clipPath id="clip0_31_1335">
<rect width="48" height="42" fill="white" transform="translate(0 0.419922)"/>
</clipPath>
<clipPath id="clip1_31_1335">
<rect width="48" height="42" fill="white" transform="translate(0 0.419922)"/>
</clipPath>
<clipPath id="clip2_31_1335">
<rect width="40.32" height="42" fill="white" transform="translate(3.83984 0.419922)"/>
</clipPath>
</defs>
</svg>
