<svg width="40" height="43" viewBox="0 0 40 43" fill="none" xmlns="http://www.w3.org/2000/svg">
<path fill-rule="evenodd" clip-rule="evenodd" d="M29.0301 19.1032C30.1478 19.3709 31.2152 19.8156 32.193 20.4205L33.9717 19.6279C34.1426 19.5514 34.3327 19.5873 34.4642 19.72L36.4568 21.7209C36.5896 21.8537 36.6254 22.0438 36.5489 22.2159L35.76 24.0005C36.3624 24.9831 36.8059 26.0553 37.0713 27.1778L38.8846 27.8782C39.0592 27.9464 39.1691 28.1054 39.1691 28.293V31.1237C39.1691 31.3113 39.0592 31.4703 38.8846 31.5384L37.0713 32.2389C36.8047 33.3613 36.3612 34.4336 35.76 35.4161L36.5489 37.2008C36.6254 37.3717 36.5896 37.563 36.4568 37.6957L34.4642 39.6967C34.3327 39.8294 34.1426 39.8653 33.9717 39.7888L32.1943 38.9962C31.2152 39.6011 30.1478 40.047 29.0289 40.3135L28.332 42.134C28.2639 42.3098 28.1049 42.4197 27.9184 42.4197H25.0998C24.9133 42.4197 24.7531 42.3098 24.6862 42.134L23.9881 40.3123C22.8704 40.0458 21.803 39.6011 20.824 38.9962L19.0465 39.7888C18.8756 39.8653 18.6855 39.8294 18.5528 39.6967L16.5602 37.6957C16.4287 37.563 16.3929 37.373 16.4693 37.2008L17.2583 35.4161C16.6558 34.4336 16.2123 33.3613 15.9458 32.2389L14.1324 31.5384C13.9579 31.4715 13.8491 31.3113 13.8491 31.1237V28.2943C13.8491 28.1054 13.9579 27.9464 14.1324 27.8782L15.947 27.1778C16.2123 26.0553 16.6558 24.9831 17.2583 24.0005L16.4693 22.2159C16.3929 22.0449 16.4287 21.8537 16.5602 21.7209L18.5528 19.72C18.6855 19.5873 18.8756 19.5514 19.0465 19.6279L20.824 20.4205C21.803 19.8156 22.8704 19.3709 23.9881 19.1043L24.6862 17.2826C24.7531 17.1069 24.9133 16.997 25.0998 16.997H27.9184C28.1049 16.997 28.2639 17.1069 28.332 17.2826L29.0301 19.1032ZM13.3195 7.42931C16.8949 7.42931 20.1151 6.9715 22.4318 6.23037C24.5129 5.56576 25.8003 4.74575 25.8003 3.92573C25.8003 3.10692 24.5129 2.2869 22.4318 1.62108C20.1151 0.881161 16.8949 0.42334 13.3195 0.42334C9.74308 0.42334 6.52278 0.881161 4.20618 1.62108C2.12507 2.2869 0.838867 3.10692 0.838867 3.92573C0.838867 4.74575 2.12507 5.56576 4.20618 6.23157C6.52278 6.9715 9.74308 7.42931 13.3195 7.42931ZM13.3195 25.9848C9.61036 25.9848 6.2359 25.4983 3.77944 24.7141C2.57452 24.3281 1.57521 23.8582 0.838867 23.3204V29.6235C0.838867 30.4423 2.12507 31.2635 4.20618 31.9281C6.52278 32.6681 9.74308 33.1271 13.3195 33.1271C13.6376 33.1271 13.9543 33.1234 14.2663 33.1163L13.6232 32.8665C12.9012 32.5879 12.4302 31.8994 12.4302 31.1237V28.2943C12.4302 27.5173 12.9012 26.8287 13.6232 26.5502L14.7671 26.1079C14.7827 26.0577 14.7982 26.0076 14.8137 25.9585C14.3225 25.9752 13.824 25.9848 13.3195 25.9848ZM4.24085 26.763C5.18279 26.763 5.94543 27.5292 5.94543 28.4747C5.94543 29.4203 5.18279 30.1865 4.24085 30.1865C3.29891 30.1865 2.53627 29.4203 2.53627 28.4747C2.53627 27.5292 3.29891 26.763 4.24085 26.763ZM22.8585 16.1482C20.4021 16.9336 17.0276 17.4189 13.3195 17.4189C9.61036 17.4189 6.2359 16.9336 3.77944 16.1482C2.57452 15.7633 1.57521 15.2923 0.838867 14.7545V21.0576C0.838867 21.8763 2.12507 22.6976 4.20618 23.3622C6.52278 24.1034 9.74308 24.5612 13.3195 24.5612C14.02 24.5612 14.7074 24.5432 15.378 24.5097C15.47 24.3102 15.5681 24.1141 15.6709 23.9192L15.1723 22.7944C14.8604 22.0879 15.0134 21.2608 15.5573 20.7145L17.5499 18.7135C18.095 18.1672 18.9186 18.013 19.6215 18.3273L20.7427 18.8271C21.4384 18.4553 22.1688 18.1504 22.9231 17.9198L23.3629 16.771C23.6403 16.0467 24.3264 15.5732 25.0998 15.5732H25.8003V14.7545C25.0627 15.2923 24.0647 15.7633 22.8585 16.1482ZM4.24085 18.1086C5.18279 18.1086 5.94543 18.876 5.94543 19.8204C5.94543 20.7659 5.18279 21.5321 4.24085 21.5321C3.29891 21.5321 2.53627 20.7659 2.53627 19.8204C2.53627 18.876 3.29891 18.1086 4.24085 18.1086ZM25.8003 12.4916C25.8003 13.3104 24.5129 14.1317 22.4318 14.7963C20.1151 15.5374 16.8949 15.9953 13.3195 15.9953C9.74308 15.9953 6.52278 15.5374 4.20618 14.7963C2.12507 14.1317 0.838867 13.3104 0.838867 12.4916V6.18854C1.57521 6.72645 2.57452 7.19741 3.77944 7.58232C6.2359 8.36767 9.61036 8.85299 13.3195 8.85299C17.0276 8.85299 20.4021 8.36767 22.8585 7.58232C24.0647 7.19741 25.0627 6.72645 25.8003 6.18854V12.4916ZM4.24085 9.45543C3.29891 9.45543 2.53627 10.2217 2.53627 11.1672C2.53627 12.1127 3.29891 12.8789 4.24085 12.8789C5.18279 12.8789 5.94543 12.1127 5.94543 11.1672C5.94543 10.2217 5.18279 9.45543 4.24085 9.45543ZM24.532 31.432L22.4939 29.7083L24.532 27.9847C24.8296 27.7324 24.8691 27.2854 24.618 26.9865C24.3671 26.6865 23.9224 26.6482 23.6236 26.9005L20.9531 29.1597C20.9196 29.1872 20.8885 29.2183 20.8599 29.2517C20.6088 29.5518 20.6471 29.9988 20.9447 30.2511L23.6236 32.5162C23.9224 32.7685 24.3671 32.7302 24.618 32.4302C24.8691 32.1313 24.8296 31.6843 24.532 31.432ZM29.3935 32.5162L32.0723 30.2511C32.3699 29.9988 32.4094 29.5518 32.1584 29.2517C32.1297 29.2183 32.0986 29.1872 32.0652 29.1597L29.3935 26.9005C29.0958 26.6482 28.65 26.6865 28.4001 26.9865C28.1492 27.2854 28.1874 27.7324 28.4851 27.9847L30.5232 29.7083L28.4851 31.432C28.1874 31.6843 28.1492 32.1313 28.4001 32.4302C28.65 32.7302 29.0958 32.7685 29.3935 32.5162ZM28.0141 32.6047L26.3705 26.445C26.2701 26.0661 25.8816 25.8401 25.5038 25.9418C25.1261 26.0434 24.9014 26.4331 25.0029 26.812L26.6466 32.9717C26.747 33.3506 27.1354 33.5765 27.5132 33.4749C27.8909 33.3733 28.1156 32.9836 28.0141 32.6047ZM26.5091 22.5147C22.5513 22.5147 19.3442 25.735 19.3442 29.7083C19.3442 33.6817 22.5513 36.902 26.5091 36.902C30.4657 36.902 33.6741 33.6817 33.6741 29.7083C33.6741 25.735 30.4657 22.5147 26.5091 22.5147Z" fill="#00D280"/>
</svg>
