<svg width="31" height="32" viewBox="0 0 31 32" fill="none" xmlns="http://www.w3.org/2000/svg">
<g clip-path="url(#clip0_31_1473)">
<g clip-path="url(#clip1_31_1473)">
<g clip-path="url(#clip2_31_1473)">
<mask id="mask0_31_1473" style="mask-type:luminance" maskUnits="userSpaceOnUse" x="0" y="0" width="29" height="32">
<path d="M0.980469 0.703125H28.6459V31.1937H0.980469V0.703125Z" fill="white"/>
</mask>
<g mask="url(#mask0_31_1473)">
<path d="M20.5567 24.4673C19.9744 24.4673 19.4064 24.3458 18.8684 24.1055C18.5498 23.9626 18.2506 23.7823 17.9725 23.5655C17.0018 24.0592 15.9213 24.3347 14.7816 24.3347C10.5701 24.3347 7.15545 20.5676 7.15545 15.9208C7.15545 11.2747 10.5701 7.50758 14.7816 7.50758C18.7069 7.50758 21.9383 10.7776 22.361 14.9832C22.871 15.2303 23.3311 15.577 23.7295 16.0161C24.338 16.6879 24.757 17.5323 24.9403 18.4562C25.0861 19.1915 25.0774 19.951 24.9191 20.6774L25.295 21.0916L27.979 21.1413C28.3001 19.8212 28.2564 20 28.5769 18.6806L25.9484 17.069C25.9484 16.0389 25.9484 15.8034 25.9484 14.7733L28.5769 13.1617C28.2564 11.8416 28.3001 12.0211 27.979 10.7009L24.9727 10.7562C24.5057 9.86411 24.3985 9.65974 23.9315 8.76698L25.4783 5.92298C24.6023 4.95703 24.7214 5.08753 23.8455 4.12158L21.2662 5.8277C20.4582 5.31262 20.273 5.19455 19.4638 4.67947L19.5137 1.36251C18.3166 1.00831 18.4794 1.05664 17.2829 0.703125L15.8228 3.60305C14.8889 3.60305 14.675 3.60305 13.7411 3.60305L12.2809 0.703125C11.0845 1.05664 11.2466 1.00831 10.0502 1.36251L10.1 4.67947C9.29142 5.19455 9.10625 5.31262 8.297 5.8277L5.71838 4.12158C4.84242 5.08753 4.96088 4.95703 4.08554 5.92298L5.63172 8.76767C5.16475 9.65974 5.05814 9.86411 4.59117 10.7569L1.58422 10.7016C1.26314 12.0218 1.30741 11.843 0.986328 13.1631L3.61545 14.774C3.61545 15.8041 3.61545 16.0403 3.61545 17.0704L0.986328 18.6812C1.30741 20.0014 1.26314 19.8219 1.58422 21.142L4.59117 21.0875C5.05814 21.9789 5.16475 22.1833 5.63172 23.076L4.08554 25.9214C4.96088 26.8873 4.84242 26.7561 5.71838 27.7228L8.297 26.016C9.10563 26.5311 9.2908 26.6491 10.1 27.1642L10.0502 30.4819C11.2466 30.8354 11.0845 30.787 12.2809 31.1412L13.7411 28.2413C14.675 28.2413 14.8889 28.2413 15.8228 28.2413L17.2829 31.1412C18.4794 30.787 18.3166 30.8354 19.5137 30.4819L19.4638 27.1642C20.2724 26.6491 20.457 26.5311 21.2662 26.016L23.8455 27.7228C24.0194 27.5302 24.1541 27.3824 24.2651 27.2595L21.6097 24.3306C21.2656 24.4217 20.9133 24.4673 20.5567 24.4673Z" fill="#00D280"/>
</g>
<path d="M30.5005 27.9281L24.13 20.9006C24.5963 19.4327 24.2977 17.7356 23.2347 16.5632C22.105 15.3169 20.441 15.0235 19.0581 15.6801L21.4809 18.3529L19.502 20.5354L17.0799 17.8633C16.4845 19.3878 16.7513 21.2245 17.8798 22.47C18.9434 23.6431 20.4815 23.9725 21.8113 23.4581L28.1818 30.4863C28.8221 31.1926 29.8602 31.1926 30.5005 30.4863C31.1408 29.7799 31.1408 28.6344 30.5005 27.9281Z" fill="#00D280"/>
<path d="M10.0335 19.3155V14.2393H11.0803V12.7803H10.0335V11.3711H9.26162V12.7803H8.21484V14.2393H9.26162V19.3155H10.0335Z" fill="#00D280"/>
<path d="M12.6624 19.3155V18.1182H13.7092V16.6593H12.6624V11.3711H11.8912V16.6593H10.8438V18.1182H11.8912V19.3155H12.6624Z" fill="#00D280"/>
<path d="M15.303 19.3155V15.2121H16.3492V13.7525H15.303V11.3711H14.5318V13.7525H13.4844V15.2121H14.5318V19.3155H15.303Z" fill="#00D280"/>
</g>
</g>
</g>
<defs>
<clipPath id="clip0_31_1473">
<rect width="30" height="31" fill="white" transform="translate(0.980469 0.5)"/>
</clipPath>
<clipPath id="clip1_31_1473">
<rect width="30" height="31" fill="white" transform="translate(0.980469 0.5)"/>
</clipPath>
<clipPath id="clip2_31_1473">
<rect width="30" height="31" fill="white" transform="translate(0.980469 0.5)"/>
</clipPath>
</defs>
</svg>
