<svg width="31" height="26" viewBox="0 0 31 26" fill="none" xmlns="http://www.w3.org/2000/svg">
<g clip-path="url(#clip0_31_1450)">
<g clip-path="url(#clip1_31_1450)">
<mask id="mask0_31_1450" style="mask-type:luminance" maskUnits="userSpaceOnUse" x="19" y="10" width="12" height="16">
<path d="M19.8369 10.0444H30.6597V25.4517H19.8369V10.0444Z" fill="white"/>
</mask>
<g mask="url(#mask0_31_1450)">
<path d="M28.2951 10.0771H22.2073C21.5985 10.0771 21.0436 10.2966 20.6271 10.6546C21.2195 11.3961 21.6059 12.2935 21.711 13.2811C21.7131 13.3098 21.7179 13.3386 21.7205 13.3692H24.0806C24.9843 13.3692 25.7194 14.0582 25.7194 14.9051V16.496C26.5274 16.6936 27.1245 17.3806 27.1245 18.1967C27.1245 19.1646 26.2838 19.9526 25.2512 19.9526C24.2185 19.9526 23.3783 19.1646 23.3783 18.1967C23.3783 17.3806 23.9755 16.6936 24.783 16.496V14.9051C24.783 14.5431 24.467 14.2469 24.0806 14.2469H21.7205C21.7179 14.2776 21.7131 14.3083 21.711 14.3391C21.5657 15.6996 20.8819 16.8932 19.8662 17.7406V23.2441C19.8662 24.4531 20.9173 25.4387 22.2073 25.4387H28.2951C29.5855 25.4387 30.6367 24.4531 30.6367 23.2441V12.2717C30.6367 11.0627 29.5855 10.0771 28.2951 10.0771ZM28.061 23.683H22.4414C22.184 23.683 21.9731 23.4854 21.9731 23.2441C21.9731 23.003 22.184 22.8054 22.4414 22.8054H28.061C28.3189 22.8054 28.5292 23.003 28.5292 23.2441C28.5292 23.4854 28.3189 23.683 28.061 23.683ZM24.3147 18.1967C24.3147 18.6816 24.7338 19.0749 25.2512 19.0749C25.769 19.0749 26.1881 18.6816 26.1881 18.1967C26.1881 17.7119 25.769 17.3191 25.2512 17.3191C24.7338 17.3191 24.3147 17.7119 24.3147 18.1967Z" fill="#00D280"/>
</g>
<mask id="mask1_31_1450" style="mask-type:luminance" maskUnits="userSpaceOnUse" x="0" y="1" width="31" height="20">
<path d="M0.660156 1.29736H30.6602V20.1873H0.660156V1.29736Z" fill="white"/>
</mask>
<g mask="url(#mask1_31_1450)">
<path d="M18.234 20.17H4.65372C2.45851 20.17 0.672852 18.4965 0.672852 16.4396V5.02831C0.672852 2.97092 2.45851 1.29736 4.65372 1.29736H26.6634C28.8582 1.29736 30.6438 2.97092 30.6438 5.02831V8.75877C30.6438 9.00092 30.4345 9.19759 30.1756 9.19759C29.9167 9.19759 29.7073 9.00092 29.7073 8.75877V5.02831C29.7073 3.4553 28.3418 2.1755 26.6634 2.1755H4.65372C2.97534 2.1755 1.60981 3.4553 1.60981 5.02831V16.4396C1.60981 18.0126 2.97534 19.2924 4.65372 19.2924H18.234C18.493 19.2924 18.7022 19.489 18.7022 19.7313C18.7022 19.9734 18.493 20.17 18.234 20.17Z" fill="#00D280"/>
</g>
<mask id="mask2_31_1450" style="mask-type:luminance" maskUnits="userSpaceOnUse" x="10" y="20" width="10" height="6">
<path d="M10.25 20.8188H19.3147V25.449H10.25V20.8188Z" fill="white"/>
</mask>
<g mask="url(#mask2_31_1450)">
<path d="M18.7865 25.4359H12.0895C11.4764 25.4359 10.9077 25.1501 10.5685 24.6721C10.2297 24.1952 10.1684 23.5938 10.4047 23.0653L11.2803 21.0975C11.3797 20.8736 11.654 20.7676 11.8928 20.8612C12.1317 20.9543 12.2443 21.2114 12.145 21.4352L11.2692 23.4037C11.1519 23.6657 11.181 23.9504 11.3485 24.1862C11.5161 24.4225 11.7861 24.5582 12.0895 24.5582H18.7865C19.0454 24.5582 19.2547 24.7548 19.2547 24.9971C19.2547 25.2392 19.0454 25.4359 18.7865 25.4359Z" fill="#00D280"/>
</g>
<path d="M20.7846 13.3681C20.5477 11.1511 18.548 9.41748 16.1243 9.41748C13.7007 9.41748 11.7014 11.1511 11.4647 13.3681C11.4482 13.5126 11.4414 13.6573 11.4414 13.8069C11.4414 13.956 11.4482 14.1006 11.4647 14.2457C11.7014 16.4622 13.7007 18.1958 16.1243 18.1958C18.548 18.1958 20.5477 16.4622 20.7846 14.2457C20.8009 14.1006 20.8078 13.956 20.8078 13.8069C20.8078 13.6573 20.8009 13.5126 20.7846 13.3681ZM18.5622 13.0188L15.8691 15.5425C15.7782 15.6281 15.6587 15.6722 15.5393 15.6722C15.4198 15.6722 15.3004 15.6281 15.209 15.5425L13.9211 14.3354C13.7361 14.1645 13.7361 13.8881 13.9211 13.7167C14.1039 13.5434 14.3988 13.5434 14.5812 13.7167L15.5393 14.6122L17.9017 12.4002C18.0845 12.2268 18.3794 12.2268 18.5622 12.4002C18.7472 12.5711 18.7472 12.8475 18.5622 13.0188Z" fill="#00D280"/>
<path d="M11.4448 13.8059C11.4448 13.955 11.4517 14.0997 11.4681 14.2447H8.1669C7.26272 14.2447 6.52766 13.5558 6.52766 12.7084V11.1176C5.72019 10.92 5.12305 10.2331 5.12305 9.41683C5.12305 8.4491 5.96327 7.66162 6.99586 7.66162C8.02845 7.66162 8.8692 8.4491 8.8692 9.41683C8.8692 10.2331 8.27206 10.92 7.46406 11.1176V12.7084C7.46406 13.0705 7.78061 13.3672 8.1669 13.3672H11.4681C11.4517 13.5117 11.4448 13.6564 11.4448 13.8059Z" fill="#00D280"/>
</g>
</g>
<defs>
<clipPath id="clip0_31_1450">
<rect width="30" height="25" fill="white" transform="translate(0.660156 0.5)"/>
</clipPath>
<clipPath id="clip1_31_1450">
<rect width="30" height="25" fill="white" transform="translate(0.660156 0.5)"/>
</clipPath>
</defs>
</svg>
