<svg width="48" height="43" viewBox="0 0 48 43" fill="none" xmlns="http://www.w3.org/2000/svg">
<g clip-path="url(#clip0_31_1314)">
<g clip-path="url(#clip1_31_1314)">
<mask id="mask0_31_1314" style="mask-type:luminance" maskUnits="userSpaceOnUse" x="4" y="0" width="40" height="43">
<path d="M4.05469 0.419922H43.9451V42.4199H4.05469V0.419922Z" fill="white"/>
</mask>
<g mask="url(#mask0_31_1314)">
<path d="M29.1634 5.96758C37.361 6.24626 43.9215 12.9546 43.9215 21.1892C43.9215 29.4238 37.361 36.1321 29.1634 36.4108V38.0519C29.1634 40.4641 27.2566 42.4199 24.9042 42.4199H8.33921C5.9869 42.4199 4.08008 40.4641 4.08008 38.0519V4.78793C4.08008 2.37569 5.9869 0.419922 8.33921 0.419922H24.9042C27.2566 0.419922 29.1634 2.37569 29.1634 4.78793V5.96758ZM16.8585 39.9937C18.4267 39.9937 19.6983 38.6891 19.6983 37.081C19.6983 35.4729 18.4267 34.1694 16.8585 34.1694C15.2903 34.1694 14.0187 35.4729 14.0187 37.081C14.0187 38.6891 15.2903 39.9937 16.8585 39.9937ZM28.633 35.0354C36.3093 35.0354 42.5311 28.8364 42.5311 21.1892C42.5311 13.5419 36.3093 7.34301 28.633 7.34301C20.9578 7.34301 14.7349 13.5419 14.7349 21.1892C14.7349 28.8364 20.9578 35.0354 28.633 35.0354ZM13.2816 4.5542C12.9 4.5542 12.5903 4.86284 12.5903 5.24341C12.5903 5.62397 12.9 5.93262 13.2816 5.93262H19.9619C20.3435 5.93262 20.6532 5.62397 20.6532 5.24341C20.6532 4.86284 20.3435 4.5542 19.9619 4.5542H13.2816ZM24.5427 16.112L20.3085 21.382L24.5427 26.9436H21.7489L17.5148 21.4119L21.7489 16.112H24.5427ZM31.6705 16.112L28.4243 26.9436H26.0529L29.2993 16.112H31.6705ZM32.9411 26.9436L37.1743 21.6736L32.9411 16.112H35.7349L39.9691 21.6447L35.7349 26.9436H32.9411Z" fill="#00D280"/>
</g>
</g>
</g>
<defs>
<clipPath id="clip0_31_1314">
<rect width="48" height="42" fill="white" transform="translate(0 0.419922)"/>
</clipPath>
<clipPath id="clip1_31_1314">
<rect width="40.32" height="42" fill="white" transform="translate(3.83984 0.419922)"/>
</clipPath>
</defs>
</svg>
