<svg width="31" height="32" viewBox="0 0 31 32" fill="none" xmlns="http://www.w3.org/2000/svg">
<g clip-path="url(#clip0_31_1489)">
<g clip-path="url(#clip1_31_1489)">
<g clip-path="url(#clip2_31_1489)">
<path fill-rule="evenodd" clip-rule="evenodd" d="M17.3783 3.15654C22.8945 4.03255 27.251 8.38874 28.127 13.9045L25.4191 14.3382C24.7286 9.98919 21.294 6.55498 16.945 5.86415L17.3783 3.15654ZM19.713 20.8674H10.9467C10.5337 20.8674 10.2361 20.4793 10.3431 20.0804C10.9345 17.8799 12.9429 16.2599 15.3301 16.2599C17.7172 16.2599 19.7257 17.8799 20.3167 20.0804C20.4241 20.4797 20.1264 20.8674 19.713 20.8674ZM15.3301 10.4139C13.888 10.4139 12.7194 11.5824 12.7194 13.0242C12.7194 14.4662 13.888 15.6349 15.3301 15.6349C16.7717 15.6349 17.9407 14.4659 17.9407 13.0242C17.9407 11.5824 16.7717 10.4139 15.3301 10.4139ZM8.23373 15.8298L0.69213 14.6229C0.481988 14.5892 0.330078 14.7578 0.330078 14.9314V16.9749C0.330078 17.1485 0.481988 17.317 0.69213 17.2834L8.23373 16.0764C8.37334 16.0544 8.37334 15.8519 8.23373 15.8298ZM15.2067 23.0494L13.9997 30.5911C13.9662 30.8012 14.1347 30.9531 14.3083 30.9531H16.3518C16.5255 30.9531 16.694 30.8012 16.6604 30.5911L15.4534 23.0494C15.4313 22.9099 15.2288 22.9099 15.2067 23.0494ZM22.4264 16.0764L29.9684 17.2834C30.1782 17.317 30.3301 17.1485 30.3301 16.9749V14.9314C30.3301 14.7578 30.1782 14.5892 29.9684 14.6229L22.4264 15.8298C22.2868 15.8519 22.2868 16.0544 22.4264 16.0764ZM15.4534 8.85677L16.6604 1.31518C16.694 1.10503 16.5255 0.953125 16.3518 0.953125H14.3083C14.1347 0.953125 13.9662 1.10503 13.9997 1.31518L15.2067 8.85677C15.2288 8.99636 15.4313 8.99636 15.4534 8.85677ZM25.4191 17.5681C24.7282 21.917 21.294 25.3513 16.945 26.0421L17.3787 28.7501C22.8945 27.874 27.2507 23.5175 28.1267 18.0014L25.4191 17.5681ZM13.7152 26.0421C9.36616 25.3513 5.93193 21.917 5.2411 17.5681L2.53313 18.0018C3.40914 23.5175 7.76569 27.8737 13.2818 28.7497L13.7152 26.0421ZM5.2411 14.3382L2.53313 13.9045C3.40914 8.38874 7.76569 4.03255 13.2818 3.15654L13.7152 5.86415C9.36616 6.55498 5.93157 9.98919 5.2411 14.3382Z" fill="#00D280"/>
</g>
</g>
</g>
<defs>
<clipPath id="clip0_31_1489">
<rect width="30" height="31" fill="white" transform="translate(0.330078 0.580078)"/>
</clipPath>
<clipPath id="clip1_31_1489">
<rect width="30" height="30.83" fill="white" transform="translate(0.330078 0.580078)"/>
</clipPath>
<clipPath id="clip2_31_1489">
<rect width="30" height="30.8333" fill="white" transform="translate(0.330078 0.578613)"/>
</clipPath>
</defs>
</svg>
