<svg width="48" height="43" viewBox="0 0 48 43" fill="none" xmlns="http://www.w3.org/2000/svg">
<g clip-path="url(#clip0_31_1304)">
<mask id="mask0_31_1304" style="mask-type:luminance" maskUnits="userSpaceOnUse" x="1" y="0" width="46" height="43">
<path d="M1.0625 0.419922H46.9394V42.4199H1.0625V0.419922Z" fill="white"/>
</mask>
<g mask="url(#mask0_31_1304)">
<path d="M40.243 30.9653C39.6697 30.9653 39.2872 31.3478 39.2872 31.9199V37.6467C39.2872 39.1746 37.95 40.5106 36.421 40.5106H5.84984C4.32196 40.5106 2.98366 39.1746 2.98366 37.6467V9.96526H39.2872V16.6467C39.2872 17.2199 39.6697 17.6014 40.243 17.6014C40.8151 17.6014 41.1976 17.2199 41.1976 16.6467V5.19316C41.1976 2.51992 39.0965 0.419922 36.421 0.419922H5.84984C3.17549 0.419922 1.07324 2.51992 1.07324 5.19316V37.6467C1.07324 40.3199 3.17549 42.4199 5.84984 42.4199H36.421C39.0965 42.4199 41.1976 40.3199 41.1976 37.6467V31.9199C41.1976 31.3478 40.8151 30.9653 40.243 30.9653ZM13.4927 4.23851C14.0659 4.23851 14.4484 4.61992 14.4484 5.19316C14.4484 5.76527 14.0659 6.14668 13.4927 6.14668C12.9194 6.14668 12.538 5.76527 12.538 5.19316C12.538 4.61992 12.9194 4.23851 13.4927 4.23851ZM9.67184 4.23851C10.2451 4.23851 10.6264 4.61992 10.6264 5.19316C10.6264 5.76527 10.2451 6.14668 9.67184 6.14668C9.09854 6.14668 8.71603 5.76527 8.71603 5.19316C8.71603 4.61992 9.09854 4.23851 9.67184 4.23851ZM5.84984 4.23851C6.42308 4.23851 6.80561 4.61992 6.80561 5.19316C6.80561 5.76527 6.42308 6.14668 5.84984 6.14668C5.2766 6.14668 4.89519 5.76527 4.89519 5.19316C4.89519 4.61992 5.2766 4.23851 5.84984 4.23851ZM44.0638 19.5106H42.1534C41.5802 19.5106 41.1976 19.8931 41.1976 20.4653V28.1014C41.1976 28.6746 41.5802 29.0559 42.1534 29.0559C42.7266 29.0559 43.108 28.6746 43.108 28.1014V25.2385H44.0638C45.5928 25.2385 46.93 23.9014 46.93 22.3746C46.93 20.8478 45.5928 19.5106 44.0638 19.5106ZM44.0638 23.3292H43.108V21.4199H44.0638C44.637 21.4199 45.0195 21.8014 45.0195 22.3746C45.0195 22.9467 44.637 23.3292 44.0638 23.3292ZM34.5106 19.5106C33.9373 19.5106 33.5548 19.8931 33.5548 20.4653V28.1014C33.5548 28.6746 33.9373 29.0559 34.5106 29.0559C35.0839 29.0559 35.4652 28.6746 35.4652 28.1014V25.2385H36.421C37.95 25.2385 39.2872 23.9014 39.2872 22.3746C39.2872 20.8478 37.95 19.5106 36.421 19.5106H34.5106ZM37.3768 22.3746C37.3768 22.9467 36.9943 23.3292 36.421 23.3292H35.4652V21.4199H36.421C36.9943 21.4199 37.3768 21.8014 37.3768 22.3746ZM26.8678 20.0839L24.0016 27.7199C23.8109 28.2931 24.0016 28.6746 24.5749 28.8653C25.1481 29.0559 25.5306 28.8653 25.7213 28.2931L26.2945 26.9559H29.3514L29.9247 28.2931C30.1154 28.6746 30.498 28.8653 30.8804 28.8653C31.0712 28.8653 31.0712 28.8653 31.2619 28.8653C31.8351 28.6746 32.0269 28.1014 31.8351 27.7199L28.9689 20.0839C28.3957 19.3199 27.2503 19.3199 26.8678 20.0839ZM27.0585 25.2385L27.8225 23.1385L28.5875 25.2385H27.0585Z" fill="#00D280"/>
</g>
</g>
<defs>
<clipPath id="clip0_31_1304">
<rect width="47.04" height="42" fill="white" transform="translate(0.480469 0.419922)"/>
</clipPath>
</defs>
</svg>
