<svg width="31" height="27" viewBox="0 0 31 27" fill="none" xmlns="http://www.w3.org/2000/svg">
<g clip-path="url(#clip0_31_1497)">
<g clip-path="url(#clip1_31_1497)">
<g clip-path="url(#clip2_31_1497)">
<path d="M4.52718 12.208H18.3695C18.5984 12.208 18.7838 12.0172 18.7838 11.7812C18.7838 11.5457 18.5984 11.355 18.3695 11.355H4.52718C4.29864 11.355 4.11328 11.5457 4.11328 11.7812C4.11328 12.0172 4.29864 12.208 4.52718 12.208Z" fill="#00D280"/>
<path d="M4.52718 7.5219H18.3695C18.5984 7.5219 18.7838 7.33115 18.7838 7.09561C18.7838 6.85969 18.5984 6.66895 18.3695 6.66895H4.52718C4.29864 6.66895 4.11328 6.85969 4.11328 7.09561C4.11328 7.33115 4.29864 7.5219 4.52718 7.5219Z" fill="#00D280"/>
<mask id="mask0_31_1497" style="mask-type:luminance" maskUnits="userSpaceOnUse" x="1" y="1" width="30" height="25">
<path d="M1.10156 1.30273H30.2192V25.788H1.10156V1.30273Z" fill="white"/>
</mask>
<g mask="url(#mask0_31_1497)">
<path d="M27.3759 8.27535L18.866 17.048C18.8014 17.1152 18.7164 17.1484 18.6315 17.1484C18.5465 17.1484 18.4613 17.1152 18.3967 17.0484C18.2672 16.9147 18.2668 16.698 18.3967 16.5647L26.9062 7.79161C27.0357 7.65794 27.246 7.65831 27.3755 7.79125C27.5054 7.92492 27.5054 8.14169 27.3759 8.27535ZM18.0997 19.018C18.6266 19.5571 19.031 20.3818 19.2343 20.85L16.5227 21.7207C16.4174 21.5592 16.2654 21.3536 16.0527 21.1325C15.8522 20.9262 15.6732 20.7922 15.5299 20.703L16.3788 17.9006C16.8162 18.095 17.5801 18.4826 18.0997 19.018ZM20.8372 24.8056H2.06677V2.29275H20.8372V12.0752L16.9869 16.0408H4.5301C4.30157 16.0408 4.11621 16.2316 4.11621 16.4671C4.11621 16.703 4.30157 16.8938 4.5301 16.8938H16.1583L15.9035 17.1564C15.9 17.16 15.8975 17.1644 15.894 17.1679C15.8863 17.177 15.8792 17.1864 15.8726 17.1958C15.8652 17.2055 15.8582 17.2153 15.8522 17.2258C15.8459 17.2355 15.841 17.246 15.8361 17.2569C15.8308 17.2681 15.8259 17.2793 15.8221 17.2908C15.8199 17.2959 15.8175 17.3005 15.8157 17.3056L14.7794 20.7254H4.5301C4.30157 20.7254 4.11621 20.9165 4.11621 21.152C4.11621 21.3876 4.30157 21.5787 4.5301 21.5787H14.521L14.2026 22.6307C14.163 22.7607 14.197 22.902 14.29 22.9981C14.3578 23.0679 14.4483 23.105 14.5411 23.105C14.5765 23.105 14.6119 23.1 14.647 23.0884L19.8174 21.4287C19.8216 21.4269 19.8254 21.4247 19.83 21.4233C19.8419 21.4187 19.8535 21.4132 19.8654 21.4074C19.8756 21.4024 19.8851 21.3973 19.8946 21.3919C19.9048 21.3854 19.9146 21.3782 19.924 21.3706C19.9339 21.363 19.9434 21.3554 19.9522 21.3471C19.9557 21.3438 19.9592 21.3417 19.9627 21.3384L20.8372 20.4375V24.8056ZM30.1748 10.5152C30.152 10.4523 29.6086 8.96754 28.7319 8.06257C27.8529 7.15795 26.4582 6.65723 26.3993 6.63628C26.2714 6.59076 26.1289 6.62472 26.0331 6.72371L21.7959 11.0878V1.79854C21.7959 1.52614 21.581 1.30469 21.316 1.30469H1.58758C1.32289 1.30469 1.1084 1.52614 1.1084 1.79854V25.2998C1.1084 25.5725 1.32289 25.7936 1.58758 25.7936H21.316C21.581 25.7936 21.7959 25.5725 21.7959 25.2998V19.4498L30.093 10.9014C30.1913 10.8002 30.2229 10.6493 30.1748 10.5152Z" fill="#00D280"/>
</g>
</g>
</g>
</g>
<defs>
<clipPath id="clip0_31_1497">
<rect width="30" height="26" fill="white" transform="translate(0.660156 0.799805)"/>
</clipPath>
<clipPath id="clip1_31_1497">
<rect width="30" height="25.58" fill="white" transform="translate(0.660156 0.799805)"/>
</clipPath>
<clipPath id="clip2_31_1497">
<rect width="30" height="25.5882" fill="white" transform="translate(0.660156 0.795898)"/>
</clipPath>
</defs>
</svg>
