<svg width="31" height="32" viewBox="0 0 31 32" fill="none" xmlns="http://www.w3.org/2000/svg">
<g clip-path="url(#clip0_31_1511)">
<g clip-path="url(#clip1_31_1511)">
<g clip-path="url(#clip2_31_1511)">
<path fill-rule="evenodd" clip-rule="evenodd" d="M28.432 30.5317H15.7783V17.8781L23.2826 10.3737L25.1106 12.2013C25.3389 12.4122 25.7081 12.2714 25.7081 11.9554V6.13793C25.7081 5.94479 25.55 5.78672 25.3565 5.78672H19.5568C19.2408 5.78672 19.0824 6.17338 19.3109 6.38424L21.1385 8.22958L13.6342 15.7162H0.980469V3.0802C0.980469 1.67395 2.12269 0.531738 3.52893 0.531738H28.432C29.8383 0.531738 30.9805 1.67395 30.9805 3.0802V27.9832C30.9805 29.3895 29.8383 30.5317 28.432 30.5317ZM15.0755 30.5317H3.52893C2.12269 30.5317 0.980469 29.3895 0.980469 27.9832V16.4194H13.7571C13.7749 16.4367 13.81 16.4367 13.8277 16.4194H15.0755V17.7022C15.0755 17.72 15.0755 17.72 15.0755 17.7373V30.5317ZM15.7783 16.8762L23.0367 9.61775C23.1597 9.49477 23.4056 9.49477 23.5289 9.61775L25.0227 11.1115V6.4895H20.4006L21.8767 7.98327C22.0174 8.10661 22.0174 8.33483 21.8767 8.47553L14.6361 15.7162H15.4267C15.6202 15.7162 15.7783 15.8746 15.7783 16.0678V16.8762Z" fill="#00D280"/>
</g>
</g>
</g>
<defs>
<clipPath id="clip0_31_1511">
<rect width="30" height="31" fill="white" transform="translate(0.980469 0.0200195)"/>
</clipPath>
<clipPath id="clip1_31_1511">
<rect width="30" height="31.14" fill="white" transform="translate(0.980469 0.0200195)"/>
</clipPath>
<clipPath id="clip2_31_1511">
<rect width="30" height="31.1538" fill="white" transform="translate(0.980469 0.0131836)"/>
</clipPath>
</defs>
</svg>
