<svg width="31" height="25" viewBox="0 0 31 25" fill="none" xmlns="http://www.w3.org/2000/svg">
<g clip-path="url(#clip0_31_1520)">
<g clip-path="url(#clip1_31_1520)">
<path fill-rule="evenodd" clip-rule="evenodd" d="M19.669 5.98268C15.4402 5.98268 11.9052 8.88643 11.0472 12.7625C10.9628 13.1437 10.5781 13.3851 10.188 13.3028C9.79775 13.2212 9.54914 12.8455 9.6337 12.465C10.6324 7.95327 14.7457 4.57227 19.669 4.57227C25.3396 4.57227 29.936 9.05648 29.936 14.5891C29.936 20.121 25.3396 24.606 19.669 24.606C18.8118 24.606 17.9786 24.5031 17.1806 24.3097C16.6439 24.1788 16.1241 24.0074 15.6247 23.7982C15.257 23.6446 15.0873 23.2298 15.2451 22.8719C15.4021 22.514 15.8276 22.3481 16.1945 22.5016C16.6235 22.6813 17.0693 22.8287 17.5299 22.9405C18.2146 23.1064 18.9309 23.1949 19.669 23.1949C24.5409 23.1949 28.49 19.3421 28.49 14.5891C28.49 9.83609 24.5409 5.98268 19.669 5.98268Z" fill="#00D280"/>
<path fill-rule="evenodd" clip-rule="evenodd" d="M19.6686 9.30907C16.6794 9.30907 14.2565 11.6732 14.2565 14.5893C14.2565 17.5055 16.6794 19.8696 19.6686 19.8696C22.6578 19.8696 25.0807 17.5055 25.0807 14.5893C25.0807 11.6732 22.6578 9.30907 19.6686 9.30907ZM12.8105 14.5893C12.8105 10.8936 15.8807 7.89795 19.6686 7.89795C23.4565 7.89795 26.5274 10.8936 26.5274 14.5893C26.5274 18.2851 23.4565 21.2807 19.6686 21.2807C15.8807 21.2807 12.8105 18.2851 12.8105 14.5893Z" fill="#00D280"/>
<path fill-rule="evenodd" clip-rule="evenodd" d="M19.1552 14.6549C19.4376 14.3793 19.8954 14.3793 20.1779 14.6549L21.5273 15.9714C21.8098 16.2471 21.8098 16.6934 21.5273 16.9691C21.245 17.2447 20.7871 17.2447 20.5054 16.9691L19.1552 15.6526C18.8727 15.3769 18.8727 14.9306 19.1552 14.6549Z" fill="#00D280"/>
<path fill-rule="evenodd" clip-rule="evenodd" d="M19.666 10.4976C20.0654 10.4976 20.3894 10.813 20.3894 11.2024V15.1532C20.3894 15.5426 20.0654 15.858 19.666 15.858C19.2666 15.858 18.9434 15.5426 18.9434 15.1532V11.2024C18.9434 10.813 19.2666 10.4976 19.666 10.4976Z" fill="#00D280"/>
<mask id="mask0_31_1520" style="mask-type:luminance" maskUnits="userSpaceOnUse" x="16" y="0" width="8" height="6">
<path d="M16.0527 0.50293H23.4454V5.58917H16.0527V0.50293Z" fill="white"/>
</mask>
<g mask="url(#mask0_31_1520)">
<path fill-rule="evenodd" clip-rule="evenodd" d="M16.1992 1.32859C16.1992 0.939137 16.5232 0.623047 16.9218 0.623047H22.7065C23.1059 0.623047 23.4291 0.939137 23.4291 1.32859V3.44455C23.4291 3.83469 23.1059 4.15009 22.7065 4.15009H21.9831V4.85564C21.9831 5.24509 21.6599 5.56119 21.2605 5.56119C20.8611 5.56119 20.5372 5.24509 20.5372 4.85564V3.44455C20.5372 3.05509 20.8611 2.73968 21.2605 2.73968H21.9831V2.03414H17.6452V2.73968H18.3678C18.7672 2.73968 19.0912 3.05509 19.0912 3.44455V4.85564C19.0912 5.24509 18.7672 5.56119 18.3678 5.56119C17.9692 5.56119 17.6452 5.24509 17.6452 4.85564V4.15009H16.9218C16.5232 4.15009 16.1992 3.83469 16.1992 3.44455V1.32859Z" fill="#00D280"/>
</g>
<path fill-rule="evenodd" clip-rule="evenodd" d="M26.8923 4.35761C27.1748 4.08197 27.6326 4.08197 27.915 4.35761L29.7223 6.12113C30.0047 6.39608 30.0047 6.84313 29.7223 7.11877L27.915 8.88229C27.6326 9.15726 27.1748 9.15726 26.8923 8.88229C26.6099 8.60668 26.6099 8.15961 26.8923 7.88465L28.189 6.61961L27.4036 5.85372L26.1077 7.11877L25.085 6.12113L26.8923 4.35761Z" fill="#00D280"/>
<path fill-rule="evenodd" clip-rule="evenodd" d="M12.7332 4.35614C12.4508 4.0805 11.993 4.0805 11.7105 4.35614L9.9032 6.11967C9.62081 6.39462 9.62081 6.84167 9.9032 7.1173L11.7105 8.88086C11.993 9.15576 12.4508 9.15576 12.7332 8.88086C13.0157 8.60518 13.0157 8.15814 12.7332 7.88319L11.4366 6.61814L12.2219 5.85226L13.5179 7.1173L14.5406 6.11967L12.7332 4.35614Z" fill="#00D280"/>
<path fill-rule="evenodd" clip-rule="evenodd" d="M2.17285 21.0796C2.17285 20.6894 2.49684 20.374 2.89621 20.374H14.4641C14.8635 20.374 15.1875 20.6894 15.1875 21.0796C15.1875 21.469 14.8635 21.7844 14.4641 21.7844H2.89621C2.49684 21.7844 2.17285 21.469 2.17285 21.0796Z" fill="#00D280"/>
<path fill-rule="evenodd" clip-rule="evenodd" d="M3.61426 18.2571C3.61426 17.8676 3.93825 17.5522 4.3376 17.5522H11.5675C11.9669 17.5522 12.2909 17.8676 12.2909 18.2571C12.2909 18.6465 11.9669 18.9626 11.5675 18.9626H4.3376C3.93825 18.9626 3.61426 18.6465 3.61426 18.2571Z" fill="#00D280"/>
<path fill-rule="evenodd" clip-rule="evenodd" d="M0.724609 15.436C0.724609 15.0466 1.0486 14.7305 1.44796 14.7305H10.8465C11.2459 14.7305 11.5699 15.0466 11.5699 15.436C11.5699 15.8255 11.2459 16.1416 10.8465 16.1416H1.44796C1.0486 16.1416 0.724609 15.8255 0.724609 15.436Z" fill="#00D280"/>
</g>
</g>
<defs>
<clipPath id="clip0_31_1520">
<rect width="30" height="24.47" fill="white" transform="translate(0.330078 0.359863)"/>
</clipPath>
<clipPath id="clip1_31_1520">
<rect width="30" height="24.4737" fill="white" transform="translate(0.330078 0.35791)"/>
</clipPath>
</defs>
</svg>
