<svg width="36" height="43" viewBox="0 0 36 43" fill="none" xmlns="http://www.w3.org/2000/svg">
<mask id="mask0_31_1375" style="mask-type:luminance" maskUnits="userSpaceOnUse" x="0" y="0" width="36" height="43">
<path d="M0.536133 0.419922H35.4639V42.4199H0.536133V0.419922Z" fill="white"/>
</mask>
<g mask="url(#mask0_31_1375)">
<path fill-rule="evenodd" clip-rule="evenodd" d="M17.9956 11.9033C17.8129 11.9033 17.6302 11.9115 17.4484 11.9295C17.2664 11.9476 17.0853 11.9747 16.9064 12.01C16.7267 12.0461 16.5493 12.0904 16.3742 12.143C16.1991 12.1964 16.0269 12.2581 15.8585 12.328C15.6893 12.3978 15.5239 12.476 15.3623 12.5625C15.2015 12.6482 15.0444 12.7422 14.8925 12.8436C14.7406 12.9451 14.5933 13.0541 14.452 13.1699C14.3107 13.2864 14.1754 13.409 14.0461 13.5382C13.9168 13.6675 13.7943 13.8028 13.6777 13.9441C13.562 14.0855 13.453 14.2321 13.3515 14.3839C13.25 14.5365 13.1561 14.6929 13.0696 14.8545C12.9832 15.0154 12.905 15.1808 12.8351 15.3499C12.7651 15.5183 12.7036 15.6904 12.6501 15.8655C12.5976 16.0407 12.5532 16.2173 12.5171 16.397C12.4818 16.5767 12.4547 16.7571 12.4367 16.939C12.4186 17.1209 12.4096 17.3036 12.4096 17.4862C12.4096 17.6689 12.4186 17.8515 12.4367 18.0335C12.4547 18.2154 12.4818 18.3959 12.5171 18.5755C12.5532 18.7551 12.5976 18.9318 12.6501 19.1069C12.7036 19.2821 12.7651 19.4543 12.8351 19.6226C12.905 19.7918 12.9832 19.9572 13.0696 20.118C13.1561 20.2796 13.25 20.436 13.3515 20.5878C13.453 20.7405 13.562 20.8871 13.6777 21.0283C13.7943 21.1696 13.9168 21.305 14.0461 21.4342C14.1754 21.5636 14.3107 21.6861 14.452 21.8019C14.5933 21.9184 14.7406 22.0274 14.8925 22.1288C15.0444 22.2303 15.2015 22.3243 15.3623 22.41C15.5239 22.4964 15.6893 22.5746 15.8585 22.6445C16.0269 22.7145 16.1991 22.776 16.3742 22.8295C16.5493 22.8821 16.7267 22.9264 16.9064 22.9625C17.0853 22.9978 17.2664 23.0249 17.4484 23.0429C17.6302 23.0602 17.8129 23.0693 17.9956 23.0693C18.179 23.0693 18.361 23.0602 18.5437 23.0429C18.7255 23.0249 18.906 22.9978 19.0856 22.9625C19.2653 22.9264 19.442 22.8821 19.6171 22.8295C19.7922 22.776 19.9644 22.7145 20.1335 22.6445C20.3026 22.5746 20.4673 22.4964 20.6289 22.41C20.7905 22.3243 20.9469 22.2303 21.0994 22.1288C21.2513 22.0274 21.3979 21.9184 21.5392 21.8019C21.6806 21.6861 21.8159 21.5636 21.9459 21.4342C22.0752 21.305 22.1977 21.1696 22.3135 21.0283C22.43 20.8871 22.5383 20.7405 22.6405 20.5878C22.742 20.436 22.8359 20.2796 22.9224 20.118C23.0081 19.9572 23.0862 19.7918 23.1562 19.6226C23.2261 19.4543 23.2877 19.2821 23.3411 19.1069C23.3945 18.9318 23.4388 18.7551 23.4741 18.5755C23.5102 18.3959 23.5365 18.2154 23.5546 18.0335C23.5726 17.8515 23.5816 17.6689 23.5816 17.4862C23.5816 17.3036 23.5726 17.1209 23.5546 16.939C23.5365 16.7571 23.5102 16.5767 23.4741 16.397C23.4388 16.2173 23.3945 16.0407 23.3411 15.8655C23.2877 15.6904 23.2261 15.5183 23.1562 15.3499C23.0862 15.1808 23.0081 15.0154 22.9217 14.8545C22.8359 14.6929 22.742 14.5365 22.6405 14.3839C22.5383 14.2321 22.43 14.0855 22.3135 13.9441C22.1977 13.8028 22.0752 13.6675 21.9452 13.5382C21.8159 13.409 21.6806 13.2864 21.5392 13.1699C21.3979 13.0541 21.2513 12.9451 21.0987 12.8436C20.9469 12.7422 20.7905 12.6482 20.6289 12.5625C20.4673 12.476 20.3026 12.3978 20.1335 12.328C19.9644 12.2581 19.7922 12.1964 19.6171 12.143C19.442 12.0904 19.2653 12.0461 19.0856 12.01C18.906 11.9747 18.7255 11.9476 18.5437 11.9295C18.361 11.9115 18.179 11.9033 17.9956 11.9033ZM21.4828 16.064L17.2371 19.915C17.1718 19.982 17.0958 20.033 17.0101 20.0691C16.9244 20.1053 16.8349 20.1232 16.741 20.124C16.6478 20.124 16.5583 20.1067 16.4719 20.0714C16.3862 20.036 16.3095 19.985 16.2441 19.9195L14.4844 18.1605C14.4204 18.0944 14.3723 18.0185 14.3385 17.9335C14.3047 17.8486 14.2881 17.7599 14.2889 17.6689C14.2896 17.5772 14.3077 17.4893 14.3437 17.4051C14.3791 17.3201 14.4294 17.2457 14.4941 17.1811C14.5588 17.1164 14.6332 17.0661 14.7181 17.0307C14.8023 16.9953 14.8903 16.9774 14.982 16.9766C15.0737 16.9751 15.1617 16.9916 15.2466 17.0254C15.3323 17.0593 15.4074 17.1081 15.4736 17.1713L16.7628 18.4597L20.5424 15.0319C20.6108 14.968 20.689 14.9206 20.7762 14.8883C20.8634 14.856 20.9536 14.8424 21.0469 14.8462C21.14 14.85 21.2287 14.8717 21.313 14.9116C21.3971 14.9507 21.4708 15.0048 21.534 15.074C21.5964 15.1424 21.6437 15.2213 21.6745 15.3085C21.7061 15.3965 21.7196 15.4867 21.7144 15.5798C21.7099 15.6723 21.6873 15.761 21.6475 15.8452C21.6069 15.9295 21.552 16.0024 21.4828 16.064ZM17.9956 4.18008L3.97683 10.1855V22.1672C3.97683 30.6346 9.8395 37.1542 17.9956 38.8922C26.1518 37.1542 32.0144 30.6346 32.0144 22.1672V10.1855L17.9956 4.18008ZM14.007 32.2688L12.3427 29.4062L9.08022 29.976L11.3271 25.1515L11.4752 25.2154C11.5895 25.2582 11.6774 25.3327 11.7398 25.4372L12.5622 26.6933C12.6501 26.8294 12.7472 26.9579 12.8531 27.0797C12.9598 27.2007 13.0741 27.3142 13.1974 27.4195C13.32 27.5246 13.4492 27.6209 13.5861 27.7073C13.7228 27.7938 13.8649 27.8705 14.0123 27.9367C14.1596 28.0028 14.3114 28.0576 14.4663 28.1027C14.6219 28.1471 14.7798 28.1802 14.9399 28.2013C15.1 28.223 15.2616 28.2335 15.4232 28.2321C15.5848 28.2306 15.7457 28.2177 15.9051 28.193L14.007 32.2688ZM23.6666 28.4373L21.9204 31.2502L20.6199 28.2321C20.8995 28.2298 21.1746 28.1937 21.4453 28.1238C21.7158 28.0539 21.9745 27.9517 22.2195 27.8171C22.4646 27.6826 22.6901 27.5202 22.8945 27.33C23.0998 27.1398 23.2779 26.9278 23.4305 26.6933L24.2529 25.4364C24.3153 25.3319 24.4033 25.2582 24.5167 25.2146L25.1257 24.9546L26.9117 29.1011L23.6666 28.4373ZM27.2418 17.3006L26.5645 18.6401C26.3773 18.998 26.3104 19.3768 26.3637 19.7767L26.5419 21.2674C26.5554 21.3742 26.5607 21.4808 26.5569 21.5884C26.5531 21.6951 26.5404 21.8019 26.5194 21.9071C26.4983 22.0116 26.469 22.1145 26.4314 22.2153C26.393 22.3153 26.3472 22.4122 26.2938 22.5047C26.2405 22.598 26.1796 22.6859 26.1111 22.7686C26.0435 22.852 25.9691 22.9287 25.8886 22.9993C25.8075 23.0707 25.7218 23.1339 25.6308 23.191C25.5399 23.2481 25.4452 23.297 25.3459 23.3383L23.965 23.9292C23.5921 24.0833 23.2975 24.3306 23.0803 24.6712L22.2586 25.9281C22.2008 26.0183 22.1353 26.1032 22.0639 26.1828C21.9918 26.2625 21.9143 26.3362 21.8302 26.4032C21.7467 26.47 21.658 26.5302 21.5641 26.5828C21.4708 26.6354 21.3731 26.6798 21.2723 26.7166C21.1716 26.7534 21.0686 26.7812 20.9626 26.8016C20.8574 26.8211 20.7514 26.8323 20.6439 26.8346C20.5364 26.8369 20.4297 26.8309 20.3237 26.8159C20.2169 26.8008 20.1124 26.7775 20.0102 26.7459L18.573 26.3114C18.1881 26.1896 17.8032 26.1896 17.4183 26.3114L15.9802 26.7451C15.878 26.7775 15.7735 26.8008 15.6676 26.8159C15.5608 26.8309 15.4541 26.8369 15.3473 26.8346C15.2399 26.8323 15.1331 26.8211 15.0278 26.8008C14.9226 26.7812 14.8188 26.7527 14.7181 26.7166C14.6174 26.6798 14.5204 26.6347 14.4265 26.5828C14.3332 26.5302 14.2445 26.47 14.1604 26.4032C14.0769 26.3362 13.9988 26.2625 13.9274 26.1828C13.8551 26.1032 13.7905 26.0183 13.7326 25.9281L12.9103 24.6712C12.6937 24.3306 12.3991 24.0833 12.0255 23.9292L10.6453 23.3383C10.5461 23.297 10.4514 23.2481 10.3596 23.191C10.2687 23.1339 10.183 23.07 10.1026 22.9993C10.0221 22.9287 9.94769 22.8512 9.88007 22.7686C9.81169 22.6859 9.75079 22.598 9.69737 22.5047C9.64403 22.4122 9.59817 22.3153 9.55986 22.2153C9.52223 22.1145 9.49291 22.0116 9.47191 21.9063C9.45083 21.8011 9.43806 21.6951 9.43504 21.5884C9.43126 21.4808 9.43579 21.3742 9.44932 21.2674L9.62824 19.7767C9.68082 19.3768 9.61396 18.998 9.42756 18.6401L8.75024 17.3006C8.70063 17.2051 8.65928 17.1066 8.6262 17.0044C8.59312 16.9022 8.56832 16.7984 8.55179 16.6924C8.53599 16.5864 8.52848 16.4797 8.52998 16.3722C8.53074 16.2655 8.5405 16.1587 8.5593 16.0527C8.57809 15.9475 8.60515 15.8438 8.64048 15.743C8.67657 15.6415 8.72016 15.5438 8.77127 15.4498C8.82318 15.3559 8.88181 15.2664 8.94792 15.1814C9.01411 15.0973 9.08627 15.0184 9.16515 14.9462L10.2604 13.9186C10.5581 13.6457 10.7506 13.3127 10.8378 12.9188L11.1806 11.4575C11.2038 11.3522 11.2354 11.2507 11.276 11.1508C11.3159 11.0516 11.3639 10.9561 11.4196 10.8643C11.476 10.7726 11.5384 10.6862 11.6083 10.605C11.6782 10.523 11.7541 10.4479 11.8368 10.3795C11.9187 10.3104 12.0059 10.2487 12.0984 10.1939C12.1908 10.1389 12.2871 10.0924 12.387 10.0532C12.487 10.0142 12.5892 9.98335 12.6945 9.96151C12.799 9.939 12.9058 9.92547 13.0125 9.92018L14.5122 9.83677C14.9159 9.81947 15.2774 9.68792 15.5976 9.44214L16.7997 8.5423C16.8853 8.47766 16.9748 8.41977 17.0702 8.36941C17.165 8.31904 17.2627 8.27695 17.3641 8.24236C17.4664 8.20778 17.5702 8.18223 17.6761 8.16494C17.7821 8.14765 17.8881 8.13862 17.9956 8.13862C18.1031 8.13862 18.2098 8.14765 18.3159 8.16494C18.4219 8.18223 18.5256 8.20778 18.6271 8.24236C18.7285 8.27695 18.827 8.31904 18.9217 8.36941C19.0164 8.41977 19.1066 8.47766 19.1916 8.5423L20.3944 9.44214C20.7146 9.68792 21.0762 9.81947 21.479 9.83677L22.9788 9.92018C23.0862 9.92547 23.1922 9.939 23.2975 9.96151C23.402 9.98335 23.505 10.0142 23.6049 10.0532C23.705 10.0924 23.8011 10.1389 23.8929 10.1939C23.9854 10.2487 24.0725 10.3104 24.1552 10.3795C24.2371 10.4486 24.313 10.5238 24.383 10.605C24.4529 10.6862 24.5161 10.7726 24.5717 10.8643C24.6273 10.9561 24.6754 11.0516 24.716 11.1508C24.7558 11.2507 24.7881 11.353 24.8114 11.4575L25.1542 12.9188C25.2406 13.3127 25.4331 13.6465 25.7315 13.9186L26.8268 14.9462C26.9057 15.0191 26.9779 15.0973 27.044 15.1822C27.1102 15.2664 27.1689 15.3559 27.2199 15.4498C27.2719 15.5438 27.3154 15.6415 27.3507 15.743C27.3861 15.8445 27.4131 15.9475 27.432 16.0534C27.4508 16.1587 27.4605 16.2655 27.462 16.3722C27.4628 16.4797 27.4552 16.5864 27.4394 16.6924C27.4229 16.7984 27.3989 16.9029 27.365 17.0044C27.332 17.1066 27.2906 17.2051 27.2418 17.3006ZM17.9956 0.436523L0.533203 7.91687V22.1672C0.533203 32.3289 7.62417 40.2716 17.4423 42.2914L17.9956 42.4049L18.5489 42.2914C28.3678 40.2716 35.4581 32.3289 35.4581 22.1672V7.91687L17.9956 0.436523ZM33.4141 22.1672C33.4141 31.3487 27.0147 38.4531 18.1535 40.2836C18.0543 40.3069 17.9557 40.3077 17.8565 40.2874C8.98631 38.463 2.57713 31.3555 2.57713 22.1672V9.72547H2.57863C2.57938 9.58569 2.61772 9.45717 2.69515 9.34066C2.77182 9.22407 2.87481 9.13839 3.0041 9.08354L17.7227 2.77888C17.9047 2.7007 18.0865 2.7007 18.2692 2.77888L32.9428 9.06472C33.0119 9.08808 33.0751 9.12185 33.1337 9.16544C33.1916 9.20904 33.242 9.26095 33.2841 9.31958C33.3261 9.37897 33.3585 9.44365 33.381 9.51278C33.4028 9.58191 33.4141 9.65331 33.4141 9.72547V22.1672Z" fill="#00D280"/>
</g>
</svg>
