<svg width="31" height="30" viewBox="0 0 31 30" fill="none" xmlns="http://www.w3.org/2000/svg">
<g clip-path="url(#clip0_31_2712)">
<g clip-path="url(#clip1_31_2712)">
<path fill-rule="evenodd" clip-rule="evenodd" d="M17.3228 2.80451C22.6899 3.65684 26.9287 7.8953 27.781 13.262L25.1463 13.684C24.4744 9.45251 21.1327 6.11109 16.9012 5.43894L17.3228 2.80451ZM19.5944 20.0367H11.0651C10.6632 20.0367 10.3736 19.6591 10.4777 19.2709C11.0532 17.1299 13.0073 15.5537 15.3299 15.5537C17.6526 15.5537 19.6067 17.1299 20.1818 19.2709C20.2863 19.6595 19.9966 20.0367 19.5944 20.0367ZM15.3299 9.8657C13.9268 9.8657 12.7898 11.0027 12.7898 12.4054C12.7898 13.8085 13.9268 14.9456 15.3299 14.9456C16.7326 14.9456 17.8701 13.8082 17.8701 12.4054C17.8701 11.0027 16.7326 9.8657 15.3299 9.8657ZM8.42539 15.1352L1.08762 13.9609C0.883156 13.9282 0.735352 14.0921 0.735352 14.2611V16.2494C0.735352 16.4183 0.883156 16.5823 1.08762 16.5496L8.42539 15.3752C8.56122 15.3538 8.56122 15.1567 8.42539 15.1352ZM15.2099 22.1598L14.0356 29.4975C14.0029 29.702 14.1668 29.8498 14.3358 29.8498H16.3241C16.4931 29.8498 16.657 29.702 16.6243 29.4975L15.4499 22.1598C15.4285 22.024 15.2314 22.024 15.2099 22.1598ZM22.2345 15.3752L29.5727 16.5496C29.7767 16.5823 29.9245 16.4183 29.9245 16.2494V14.2611C29.9245 14.0921 29.7767 13.9282 29.5727 13.9609L22.2345 15.1352C22.0987 15.1567 22.0987 15.3538 22.2345 15.3752ZM15.4499 8.35068L16.6243 1.01291C16.657 0.808449 16.4931 0.660645 16.3241 0.660645H14.3358C14.1668 0.660645 14.0029 0.808449 14.0356 1.01291L15.2099 8.35068C15.2314 8.48652 15.4285 8.48652 15.4499 8.35068ZM25.1463 16.8265C24.4741 21.058 21.1327 24.3994 16.9012 25.0716L17.3232 27.7063C22.6899 26.854 26.9284 22.6152 27.7807 17.2481L25.1463 16.8265ZM13.7587 25.0716C9.52722 24.3994 6.1858 21.058 5.51365 16.8265L2.87886 17.2485C3.7312 22.6152 7.97001 26.8536 13.3371 27.706L13.7587 25.0716ZM5.51365 13.684L2.87886 13.262C3.7312 7.8953 7.97001 3.65684 13.3371 2.80451L13.7587 5.43894C9.52722 6.11109 6.18545 9.45251 5.51365 13.684Z" fill="#00D280"/>
</g>
</g>
<defs>
<clipPath id="clip0_31_2712">
<rect width="30" height="29.19" fill="white" transform="translate(0.330078 0.660156)"/>
</clipPath>
<clipPath id="clip1_31_2712">
<rect width="30" height="29.1892" fill="white" transform="translate(0.330078 0.660645)"/>
</clipPath>
</defs>
</svg>
