<svg width="48" height="43" viewBox="0 0 48 43" fill="none" xmlns="http://www.w3.org/2000/svg">
<g clip-path="url(#clip0_31_2526)">
<g clip-path="url(#clip1_31_2526)">
<g clip-path="url(#clip2_31_2526)">
<path d="M17.9467 23.6055C16.255 23.6055 14.8799 22.2606 14.8799 20.6078C14.8799 18.955 16.255 17.6102 17.9467 17.6102C19.6384 17.6102 21.0156 18.955 21.0156 20.6078C21.0156 22.2606 19.6384 23.6055 17.9467 23.6055ZM23.145 20.6017C23.1429 20.2389 23.2795 19.8893 23.5495 19.641L24.7953 18.4867C24.9143 18.3773 24.9402 18.2009 24.8584 18.0622L23.6593 16.0323C23.5775 15.8925 23.4078 15.8266 23.2505 15.8722L21.5992 16.3525C21.2422 16.4559 20.8625 16.3971 20.5428 16.2147C20.5387 16.2117 20.5355 16.2107 20.5314 16.2076C20.2148 16.0282 19.9789 15.7394 19.8919 15.3908L19.4926 13.7522C19.4543 13.5971 19.3115 13.4856 19.1469 13.4856H16.7476C16.5831 13.4856 16.4403 13.5971 16.4019 13.7522L16.0026 15.3908C15.9178 15.7394 15.6798 16.0282 15.3632 16.2076C15.359 16.2107 15.3559 16.2117 15.3517 16.2147C15.032 16.3971 14.6512 16.4559 14.2964 16.3525L12.644 15.8722C12.4867 15.8266 12.3181 15.8925 12.2353 16.0323L11.0361 18.0622C10.9544 18.2009 10.9802 18.3773 11.1003 18.4867L12.345 19.641C12.614 19.8893 12.7516 20.2389 12.7495 20.6017C12.7495 20.6017 12.7495 20.6058 12.7495 20.6078C12.7495 20.6099 12.7495 20.6118 12.7495 20.6149C12.7516 20.9767 12.614 21.3263 12.345 21.5756L11.1003 22.7278C10.9802 22.8383 10.9544 23.0136 11.0361 23.1535L12.2353 25.1833C12.3181 25.3232 12.4867 25.388 12.644 25.3425L14.2964 24.8621C14.6512 24.7597 15.031 24.8185 15.3517 25.0019C15.3549 25.004 15.359 25.006 15.3632 25.007C15.6798 25.1874 15.9178 25.4772 16.0026 25.8258L16.4019 27.4625C16.4403 27.6196 16.5831 27.73 16.7476 27.73H19.1469C19.3115 27.73 19.4543 27.6196 19.4926 27.4625L19.8919 25.8258C19.9789 25.4772 20.2148 25.1874 20.5314 25.007C20.5355 25.006 20.5387 25.004 20.5428 25.0019C20.8625 24.8185 21.2433 24.7597 21.5992 24.8621L23.2505 25.3425C23.4078 25.388 23.5775 25.3232 23.6593 25.1833L24.8584 23.1535C24.9402 23.0136 24.9143 22.8383 24.7953 22.7278L23.5495 21.5756C23.2795 21.3263 23.1429 20.9757 23.145 20.6139C23.145 20.6118 23.145 20.6099 23.145 20.6078C23.145 20.6058 23.145 20.6017 23.145 20.6017Z" fill="#00D280"/>
<mask id="mask0_31_2526" style="mask-type:luminance" maskUnits="userSpaceOnUse" x="2" y="0" width="29" height="42">
<path d="M2.55371 0.419922H30.1354V41.6541H2.55371V0.419922Z" fill="white"/>
</mask>
<g mask="url(#mask0_31_2526)">
<path d="M18.5359 39.6989H14.1294C13.551 39.6989 13.0833 39.2399 13.0833 38.6754C13.0833 38.11 13.551 37.6519 14.1294 37.6519H18.5359C19.1144 37.6519 19.584 38.11 19.584 38.6754C19.584 39.2399 19.1144 39.6989 18.5359 39.6989ZM27.2963 32.2121V34.5479C27.2963 35.1813 26.7708 35.6941 26.1231 35.6941H6.54229C5.8946 35.6941 5.37003 35.1813 5.37003 34.5479V6.15326C5.37003 5.5199 5.8946 5.00714 6.54229 5.00714H26.1231C26.7708 5.00714 27.2963 5.5199 27.2963 6.15326V15.2108C27.943 14.8835 28.7097 14.7933 29.4505 15.0081L30.1106 15.1996V3.17395C30.1106 1.65389 28.8504 0.421631 27.2963 0.421631H5.37003C3.81495 0.421631 2.55371 1.65389 2.55371 3.17395V38.9044C2.55371 40.4235 3.81495 41.6547 5.37003 41.6547H27.2963C28.8504 41.6547 30.1106 40.4235 30.1106 38.9044V32.2263L29.4505 32.4178C28.7097 32.6337 27.943 32.5404 27.2963 32.2121Z" fill="#00D280"/>
</g>
<mask id="mask1_31_2526" style="mask-type:luminance" maskUnits="userSpaceOnUse" x="26" y="0" width="20" height="34">
<path d="M26.4541 0.419922H45.4466V33.4275H26.4541V0.419922Z" fill="white"/>
</mask>
<g mask="url(#mask1_31_2526)">
<path d="M35.9817 27.7907C33.6786 27.7907 31.808 25.9606 31.808 23.713C31.808 21.4623 33.6786 19.6343 35.9817 19.6343C38.2826 19.6343 40.1553 21.4623 40.1553 23.713C40.1553 25.9606 38.2826 27.7907 35.9817 27.7907ZM43.6409 25.0617C43.2633 24.7131 43.0502 24.2278 43.0512 23.7211V23.7029C43.0502 23.1962 43.2633 22.7108 43.6409 22.3612L45.2983 20.827C45.4608 20.677 45.497 20.4379 45.3853 20.2484L43.7526 17.485C43.6409 17.2955 43.4112 17.2074 43.1971 17.2692L41.0006 17.9076C40.5019 18.0525 39.9628 17.9896 39.5128 17.7333L39.4983 17.7251C39.0555 17.4739 38.7369 17.0554 38.6169 16.5679L38.0829 14.3852V6.1275H39.3379C39.727 6.1275 39.9556 5.70088 39.7363 5.38776L36.3779 0.626072C36.1876 0.353484 35.7758 0.353484 35.5833 0.626072L32.227 5.38776C32.0056 5.70088 32.2353 6.1275 32.6233 6.1275H33.8793V14.3852L33.3454 16.5659C33.2265 17.0543 32.9078 17.4729 32.4639 17.7251L32.4495 17.7333C32.0004 17.9896 31.4614 18.0525 30.9617 17.9076L28.7652 17.2692C28.5511 17.2074 28.3203 17.2955 28.2096 17.485L26.577 20.2484C26.4642 20.4379 26.5004 20.677 26.6639 20.827L28.3161 22.3571C28.6959 22.7078 28.91 23.1951 28.91 23.7029V23.7211C28.91 24.2308 28.6959 24.7172 28.3161 25.0678L26.6639 26.597C26.5004 26.7469 26.4642 26.9871 26.577 27.1766L28.2096 29.939C28.3203 30.1275 28.5511 30.2176 28.7652 30.1548L30.9648 29.5164C31.4634 29.3715 32.0004 29.4343 32.4495 29.6907L32.4639 29.6988C32.9078 29.9521 33.2265 30.3717 33.3454 30.8601L33.8793 33.0408C33.93 33.2526 34.1255 33.4026 34.349 33.4026H37.6132C37.8357 33.4026 38.0313 33.2526 38.0829 33.0408L38.6158 30.8591C38.7347 30.3706 39.0534 29.9521 39.4983 29.6988L39.5128 29.6907C39.9628 29.4343 40.5009 29.3715 40.9995 29.5164L43.1971 30.1548C43.4112 30.2176 43.6409 30.1275 43.7526 29.939L45.3853 27.1766C45.497 26.9871 45.4608 26.7469 45.2983 26.597L43.6409 25.0617Z" fill="#00D280"/>
</g>
</g>
</g>
</g>
<defs>
<clipPath id="clip0_31_2526">
<rect width="48" height="42" fill="white" transform="translate(0 0.419922)"/>
</clipPath>
<clipPath id="clip1_31_2526">
<rect width="48" height="42" fill="white" transform="translate(0 0.419922)"/>
</clipPath>
<clipPath id="clip2_31_2526">
<rect width="43.7872" height="42" fill="white" transform="translate(2.10645 0.419922)"/>
</clipPath>
</defs>
</svg>
