<svg width="48" height="43" viewBox="0 0 48 43" fill="none" xmlns="http://www.w3.org/2000/svg">
<g clip-path="url(#clip0_31_2543)">
<g clip-path="url(#clip1_31_2543)">
<g clip-path="url(#clip2_31_2543)">
<mask id="mask0_31_2543" style="mask-type:luminance" maskUnits="userSpaceOnUse" x="3" y="31" width="35" height="11">
<path d="M3 31.2627H37.9686V41.5462H3V31.2627Z" fill="white"/>
</mask>
<g mask="url(#mask0_31_2543)">
<path d="M36.1389 31.3218H4.67927C3.75191 31.3218 3 32.0597 3 32.9702V41.214C3 41.397 3.15038 41.5451 3.33646 41.5451H37.4818C37.6678 41.5451 37.8189 41.397 37.8189 41.214V32.9702C37.8189 32.0597 37.0663 31.3218 36.1389 31.3218ZM7.85402 38.1038C6.90388 38.1038 6.1345 37.3488 6.1345 36.4167C6.1345 35.4846 6.90464 34.7295 7.85402 34.7295C8.80265 34.7295 9.57279 35.4846 9.57279 36.4167C9.57279 37.3488 8.80265 38.1038 7.85402 38.1038ZM12.8425 38.1038C11.8923 38.1038 11.123 37.3488 11.123 36.4167C11.123 35.4846 11.8931 34.7295 12.8425 34.7295C13.7911 34.7295 14.5613 35.4846 14.5613 36.4167C14.5613 37.3488 13.7919 38.1038 12.8425 38.1038ZM35.5267 39.7582H23.2576C23.0716 39.7582 22.9205 39.6101 22.9205 39.4272V34.0013C22.9205 33.819 23.0716 33.6709 23.2576 33.6709H35.5267C35.7128 33.6709 35.864 33.819 35.864 34.0013V39.4272C35.864 39.6101 35.7128 39.7582 35.5267 39.7582Z" fill="#00D280"/>
</g>
<mask id="mask1_31_2543" style="mask-type:luminance" maskUnits="userSpaceOnUse" x="3" y="19" width="35" height="11">
<path d="M3 19.27H37.9686V29.5535H3V19.27Z" fill="white"/>
</mask>
<g mask="url(#mask1_31_2543)">
<path d="M35.864 24.0564V27.3852C35.864 27.5682 35.7128 27.7162 35.5267 27.7162H23.2576C23.0716 27.7162 22.9205 27.5682 22.9205 27.3852V21.9593C22.9205 21.777 23.0716 21.6283 23.2576 21.6283H25.6189C25.2065 21.3121 24.8116 20.9706 24.4371 20.6024C24.0126 20.1858 23.6222 19.744 23.2645 19.2798H4.67927C3.75191 19.2798 3 20.0177 3 20.9282V29.1721C3 29.355 3.15038 29.5031 3.33646 29.5031H37.4818C37.6678 29.5031 37.8189 29.355 37.8189 29.1721V23.5304C37.1802 23.7573 36.5278 23.9328 35.864 24.0564ZM7.85402 26.0618C6.90388 26.0618 6.1345 25.3068 6.1345 24.3747C6.1345 23.4426 6.90464 22.6875 7.85402 22.6875C8.80265 22.6875 9.57279 23.4426 9.57279 24.3747C9.57279 25.3068 8.80265 26.0618 7.85402 26.0618ZM12.8425 26.0618C11.8923 26.0618 11.123 25.3068 11.123 24.3747C11.123 23.4426 11.8931 22.6875 12.8425 22.6875C13.7911 22.6875 14.5613 23.4426 14.5613 24.3747C14.5613 25.3068 13.7919 26.0618 12.8425 26.0618Z" fill="#00D280"/>
</g>
<mask id="mask2_31_2543" style="mask-type:luminance" maskUnits="userSpaceOnUse" x="3" y="7" width="20" height="11">
<path d="M3 7.08325H22.2203V17.5577H3V7.08325Z" fill="white"/>
</mask>
<g mask="url(#mask2_31_2543)">
<path d="M21.7008 16.6116C21.0347 15.065 20.6966 13.4224 20.6966 11.73C20.6966 10.1759 20.9814 8.66427 21.5443 7.22998H4.67935C3.75195 7.22998 3 7.96869 3 8.87926V17.1235C3 17.3057 3.15039 17.4545 3.33648 17.4545H22.1019C21.9583 17.1792 21.8246 16.898 21.7008 16.6116ZM7.85425 14.0131C6.90406 14.0131 6.13464 13.2573 6.13464 12.3259C6.13464 11.3938 6.90482 10.6387 7.85425 10.6387C8.80292 10.6387 9.5731 11.3938 9.5731 12.3259C9.5731 13.258 8.80292 14.0131 7.85425 14.0131ZM12.8429 14.0131C11.8928 14.0131 11.1233 13.2573 11.1233 12.3259C11.1233 11.3938 11.8935 10.6387 12.8429 10.6387C13.7916 10.6387 14.5618 11.3938 14.5618 12.3259C14.5618 13.258 13.7924 14.0131 12.8429 14.0131Z" fill="#00D280"/>
</g>
<mask id="mask3_31_2543" style="mask-type:luminance" maskUnits="userSpaceOnUse" x="21" y="0" width="24" height="24">
<path d="M21.8315 0.419922H44.9999V23.0828H21.8315V0.419922Z" fill="white"/>
</mask>
<g mask="url(#mask3_31_2543)">
<path d="M33.4669 0.425537C27.0996 0.425537 21.9385 5.49167 21.9385 11.7414C21.9385 17.9911 27.0996 23.0572 33.4669 23.0572C39.8334 23.0572 44.9945 17.9911 44.9945 11.7414C44.9945 5.49167 39.8334 0.425537 33.4669 0.425537ZM29.7421 18.9046H27.7194V15.2981H29.7421V18.9046ZM33.1129 18.9046H31.0903V12.0561H33.1129V18.9046ZM36.4838 18.9046H34.4611V13.7433H36.4838V18.9046ZM39.8547 18.9046H37.832V10.6329H39.8547V18.9046ZM39.2827 8.53432L38.3766 7.64533L35.0004 10.9595L31.9835 7.99869L27.4141 12.4838C27.2888 12.6066 27.1247 12.6683 26.9614 12.6683C26.7973 12.6683 26.6333 12.6066 26.508 12.4838C26.258 12.2383 26.258 11.8403 26.508 11.5948L31.9835 6.22071L35.0004 9.18153L37.4712 6.75633L36.5651 5.86735L40.2769 4.89132L39.2827 8.53432Z" fill="#00D280"/>
</g>
</g>
</g>
</g>
<defs>
<clipPath id="clip0_31_2543">
<rect width="48" height="42" fill="white" transform="translate(0 0.419922)"/>
</clipPath>
<clipPath id="clip1_31_2543">
<rect width="48" height="42" fill="white" transform="translate(0 0.419922)"/>
</clipPath>
<clipPath id="clip2_31_2543">
<rect width="42" height="42" fill="white" transform="translate(3 0.419922)"/>
</clipPath>
</defs>
</svg>
