<svg width="31" height="32" viewBox="0 0 31 32" fill="none" xmlns="http://www.w3.org/2000/svg">
<g clip-path="url(#clip0_31_2695)">
<g clip-path="url(#clip1_31_2695)">
<g clip-path="url(#clip2_31_2695)">
<mask id="mask0_31_2695" style="mask-type:luminance" maskUnits="userSpaceOnUse" x="1" y="1" width="28" height="30">
<path d="M1.46387 1.4917H28.2368V30.9987H1.46387V1.4917Z" fill="white"/>
</mask>
<g mask="url(#mask0_31_2695)">
<path d="M20.4088 24.4893C19.8453 24.4893 19.2956 24.3717 18.775 24.1391C18.4666 24.0008 18.177 23.8264 17.9079 23.6166C16.9685 24.0944 15.9229 24.361 14.82 24.361C10.7444 24.361 7.43985 20.7153 7.43985 16.2184C7.43985 11.7223 10.7444 8.07666 14.82 8.07666C18.6187 8.07666 21.7458 11.2412 22.1549 15.3111C22.6485 15.5503 23.0937 15.8857 23.4793 16.3107C24.0681 16.9608 24.4735 17.7781 24.6509 18.6721C24.7921 19.3836 24.7837 20.1186 24.6304 20.8216L24.9943 21.2225L27.5917 21.2706C27.9023 19.993 27.8601 20.1662 28.1702 18.8892L25.6265 17.3297C25.6265 16.3327 25.6265 16.1049 25.6265 15.108L28.1702 13.5484C27.8601 12.2708 27.9023 12.4445 27.5917 11.167L24.6823 11.2204C24.2304 10.3572 24.1266 10.1594 23.6747 9.29542L25.1716 6.54318C24.3239 5.60839 24.4392 5.73467 23.5914 4.79988L21.0954 6.45096C20.3135 5.95249 20.1343 5.83823 19.3512 5.33977L19.3994 2.12982C18.241 1.78703 18.3984 1.8338 17.2406 1.4917L15.8276 4.29807C14.9237 4.29807 14.7168 4.29807 13.813 4.29807L12.4 1.4917C11.2422 1.8338 11.399 1.78703 10.2412 2.12982L10.2895 5.33977C9.50692 5.83823 9.32772 5.95249 8.54457 6.45096L6.04913 4.79988C5.20143 5.73467 5.31606 5.60839 4.46897 6.54318L5.96526 9.29609C5.51335 10.1594 5.41018 10.3572 4.95828 11.2211L2.04833 11.1677C1.73761 12.4452 1.78045 12.2722 1.46973 13.5498L4.01404 15.1086C4.01404 16.1056 4.01404 16.3341 4.01404 17.331L1.46973 18.8899C1.78045 20.1674 1.73761 19.9937 2.04833 21.2713L4.95828 21.2185C5.41018 22.0811 5.51335 22.2789 5.96526 23.1428L4.46897 25.8964C5.31606 26.8313 5.20143 26.7043 6.04913 27.6397L8.54457 25.988C9.32712 26.4865 9.50631 26.6008 10.2895 27.0992L10.2412 30.3098C11.399 30.6519 11.2422 30.6052 12.4 30.948L13.813 28.1416C14.7168 28.1416 14.9237 28.1416 15.8276 28.1416L17.2406 30.948C18.3984 30.6052 18.241 30.6519 19.3994 30.3098L19.3512 27.0992C20.1337 26.6008 20.3122 26.4865 21.0954 25.988L23.5914 27.6397C23.7598 27.4534 23.8901 27.3103 23.9975 27.1914L21.4278 24.357C21.0948 24.4451 20.7539 24.4893 20.4088 24.4893Z" fill="#00D280"/>
</g>
<path d="M30.0317 27.8385L23.8667 21.0377C24.318 19.6171 24.029 17.9747 23.0003 16.8401C21.907 15.6341 20.2967 15.3501 18.9584 15.9855L21.3031 18.5721L19.388 20.6842L17.044 18.0984C16.4679 19.5737 16.726 21.351 17.8181 22.5565C18.8474 23.6917 20.3359 24.0104 21.6228 23.5126L27.7878 30.3141C28.4075 30.9976 29.4121 30.9976 30.0317 30.3141C30.6514 29.6306 30.6514 28.522 30.0317 27.8385Z" fill="#00D280"/>
<path d="M10.2248 19.5036V14.5911H11.2379V13.1793H10.2248V11.8154H9.47787V13.1793H8.46484V14.5911H9.47787V19.5036H10.2248Z" fill="#00D280"/>
<path d="M12.7687 19.5036V18.345H13.7818V16.933H12.7687V11.8154H12.0224V16.933H11.0088V18.345H12.0224V19.5036H12.7687Z" fill="#00D280"/>
<path d="M15.3244 19.5036V15.5325H16.3368V14.12H15.3244V11.8154H14.5781V14.12H13.5645V15.5325H14.5781V19.5036H15.3244Z" fill="#00D280"/>
</g>
</g>
</g>
<defs>
<clipPath id="clip0_31_2695">
<rect width="30" height="30.95" fill="white" transform="translate(0.97998 0.77002)"/>
</clipPath>
<clipPath id="clip1_31_2695">
<rect width="30" height="30.95" fill="white" transform="translate(0.97998 0.77002)"/>
</clipPath>
<clipPath id="clip2_31_2695">
<rect width="30" height="30.9677" fill="white" transform="translate(0.97998 0.76123)"/>
</clipPath>
</defs>
</svg>
