<svg width="48" height="43" viewBox="0 0 48 43" fill="none" xmlns="http://www.w3.org/2000/svg">
<g clip-path="url(#clip0_31_2506)">
<g clip-path="url(#clip1_31_2506)">
<g clip-path="url(#clip2_31_2506)">
<mask id="mask0_31_2506" style="mask-type:luminance" maskUnits="userSpaceOnUse" x="0" y="0" width="48" height="30">
<path d="M0.310059 0.848389H47.6904V29.5838H0.310059V0.848389Z" fill="white"/>
</mask>
<g mask="url(#mask0_31_2506)">
<path fill-rule="evenodd" clip-rule="evenodd" d="M38.9461 29.4559H33.0347V21.8146C33.0347 21.3246 32.8956 21.6236 33.1729 21.1618C34.0056 19.7207 33.2008 18.5787 31.8966 17.8171C33.2008 17.028 34.0056 15.886 33.1729 14.4724L31.5353 11.6982C30.7034 10.2571 29.2601 10.3934 27.9279 11.1002V10.5836C27.9279 9.33272 26.901 8.32606 25.6246 8.32606H22.3497C21.0726 8.32606 20.0465 9.33272 20.0465 10.5836V11.1002C18.7142 10.366 17.2709 10.2571 16.4381 11.6982L14.8006 14.4724C14.1621 15.533 14.5513 16.9192 15.6334 17.5446L16.1049 17.7896C13.2741 19.4483 14.9677 21.2706 14.9948 21.4882C14.9677 21.597 14.9677 21.7058 14.9677 21.8146V29.4559H9.05615C4.22671 29.4559 0.313965 25.6211 0.313965 20.8894C0.313965 16.376 3.81033 12.7049 8.38962 12.3511C9.44454 7.75545 14.1069 4.89993 18.8253 5.93318C21.0174 2.72466 24.6529 0.848389 28.6216 0.848389C35.1156 0.848389 40.4166 6.0154 40.4166 12.4598C44.5796 13.1392 47.6884 16.675 47.6884 20.8894C47.6884 25.6211 43.7468 29.4559 38.9461 29.4559ZM29.149 29.4559H25.93V27.2532C27.0672 27.117 27.9279 26.1652 27.9279 25.0505V24.5065C28.3163 24.7241 28.7047 24.9143 29.149 24.9957V29.4559ZM22.0443 29.4559H18.8524V24.9957C19.2688 24.9143 19.6852 24.7241 20.0736 24.5065V25.0505C20.0736 26.1652 20.9343 27.117 22.0443 27.2532V29.4559Z" fill="#00D280"/>
</g>
<path fill-rule="evenodd" clip-rule="evenodd" d="M25.6283 26.3768H22.3532C21.6037 26.3768 20.9931 25.7788 20.9931 25.0446V23.0595C20.9379 23.032 20.882 23.0047 20.8549 22.9773C19.7719 23.6026 18.1073 24.9358 17.2465 23.4673L15.6091 20.6932C14.7492 19.2248 16.7751 18.4905 17.8571 17.8925V17.7297L16.1085 16.7504C15.4708 16.37 15.2206 15.5535 15.6091 14.9016L17.2465 12.1274C18.1073 10.659 19.7719 12.0187 20.8549 12.6166C20.882 12.5901 20.9379 12.5627 20.9931 12.5352V10.5776C20.9931 9.84337 21.6037 9.24536 22.3532 9.24536H25.6283C26.3771 9.24536 26.9877 9.84337 26.9877 10.5776V12.5352C27.0436 12.5627 27.0988 12.5901 27.1268 12.6166C28.2368 12.0187 29.8744 10.659 30.7342 12.1274L32.3717 14.9016C33.2325 16.3966 31.2337 17.1042 30.1517 17.7297V17.8925C31.2337 18.4905 33.2325 19.2248 32.3717 20.6932L30.7342 23.4673C29.8744 24.9623 28.2089 23.6026 27.1268 22.9773C27.0988 23.0047 27.0436 23.032 26.9877 23.0595V25.0446C26.9877 25.7788 26.3771 26.3768 25.6283 26.3768ZM23.9908 21.6998C21.7978 21.6998 20.0221 19.959 20.0221 17.8111C20.0221 15.6624 21.7978 13.8949 23.9908 13.8949C26.183 13.8949 27.9867 15.6624 27.9867 17.8111C27.9867 19.959 26.183 21.6998 23.9908 21.6998Z" fill="#00D280"/>
<path fill-rule="evenodd" clip-rule="evenodd" d="M32.0938 33.4884H38.5879C39.9481 33.4884 39.9481 35.5009 38.5879 35.5009H31.0948C30.5123 35.5009 30.0679 35.0383 30.0679 34.4951V20.3811C30.0679 19.0763 32.0938 19.0763 32.0938 20.3811V33.4884ZM15.8866 33.4884V20.0282C15.8866 18.695 17.9396 18.695 17.9396 20.0282V34.4951C17.9396 35.0383 17.4681 35.5009 16.9126 35.5009H9.3916C8.06022 35.5009 8.06022 33.4884 9.3916 33.4884H15.8866ZM23.9902 36.5615C23.4347 36.5615 22.9913 36.099 22.9913 35.5549V25.8471C22.9913 24.5423 25.0172 24.5423 25.0172 25.8471V35.5549C25.0172 36.099 24.5728 36.5615 23.9902 36.5615Z" fill="#00D280"/>
<path fill-rule="evenodd" clip-rule="evenodd" d="M41.6041 37.9888C39.6342 37.9888 38.0518 36.4115 38.0518 34.4812C38.0518 32.5502 39.6342 31.0002 41.6041 31.0002C43.5749 31.0002 45.1845 32.5502 45.1845 34.4812C45.1845 36.4115 43.5749 37.9888 41.6041 37.9888Z" fill="#00D280"/>
<mask id="mask1_31_2506" style="mask-type:luminance" maskUnits="userSpaceOnUse" x="20" y="34" width="8" height="8">
<path d="M20.231 34.8994H27.6121V41.9917H20.231V34.8994Z" fill="white"/>
</mask>
<g mask="url(#mask1_31_2506)">
<path fill-rule="evenodd" clip-rule="evenodd" d="M23.9806 41.9918C22.0098 41.9918 20.4282 40.4146 20.4282 38.5109C20.4282 36.5807 22.0098 35.0034 23.9806 35.0034C25.9505 35.0034 27.5609 36.5807 27.5609 38.5109C27.5609 40.4146 25.9505 41.9918 23.9806 41.9918Z" fill="#00D280"/>
</g>
<path fill-rule="evenodd" clip-rule="evenodd" d="M6.36679 37.9888C4.42398 37.9888 2.81445 36.4115 2.81445 34.4812C2.81445 32.5502 4.42398 31.0002 6.36679 31.0002C8.33758 31.0002 9.94711 32.5502 9.94711 34.4812C9.94711 36.4115 8.33758 37.9888 6.36679 37.9888Z" fill="#00D280"/>
</g>
</g>
</g>
<defs>
<clipPath id="clip0_31_2506">
<rect width="48" height="42" fill="white" transform="translate(0 0.419922)"/>
</clipPath>
<clipPath id="clip1_31_2506">
<rect width="48" height="42" fill="white" transform="translate(0 0.419922)"/>
</clipPath>
<clipPath id="clip2_31_2506">
<rect width="48" height="41.1429" fill="white" transform="translate(0 0.848389)"/>
</clipPath>
</defs>
</svg>
