<svg width="31" height="27" viewBox="0 0 31 27" fill="none" xmlns="http://www.w3.org/2000/svg">
<g clip-path="url(#clip0_31_2674)">
<g clip-path="url(#clip1_31_2674)">
<g clip-path="url(#clip2_31_2674)">
<mask id="mask0_31_2674" style="mask-type:luminance" maskUnits="userSpaceOnUse" x="0" y="0" width="31" height="19">
<path d="M0.854004 0.382812H30.4667V18.3425H0.854004V0.382812Z" fill="white"/>
</mask>
<g mask="url(#mask0_31_2674)">
<path fill-rule="evenodd" clip-rule="evenodd" d="M25.0015 18.2625H21.3069V13.4867C21.3069 13.1804 21.2199 13.3673 21.3933 13.0787C21.9137 12.178 21.4107 11.4643 20.5956 10.9882C21.4107 10.4951 21.9137 9.78132 21.3933 8.89779L20.3698 7.16391C19.8499 6.26328 18.9478 6.34842 18.1151 6.7902V6.4673C18.1151 5.68552 17.4733 5.05636 16.6756 5.05636H14.6288C13.8306 5.05636 13.1893 5.68552 13.1893 6.4673V6.7902C12.3566 6.33129 11.4545 6.26328 10.934 7.16391L9.91062 8.89779C9.5115 9.56067 9.75481 10.4271 10.4311 10.818L10.7258 10.9711C8.95656 12.0078 10.015 13.1467 10.032 13.2827C10.015 13.3507 10.015 13.4187 10.015 13.4867V18.2625H6.32031C3.30191 18.2625 0.856445 15.8658 0.856445 12.9084C0.856445 10.0876 3.04168 7.79312 5.90373 7.57198C6.56306 4.69973 9.47703 2.91503 12.426 3.5608C13.7961 1.55548 16.0683 0.382812 18.5487 0.382812C22.6075 0.382812 25.9206 3.6122 25.9206 7.63994C28.5224 8.06459 30.4655 10.2744 30.4655 12.9084C30.4655 15.8658 28.002 18.2625 25.0015 18.2625ZM18.8784 18.2625H16.8665V16.8858C17.5772 16.8007 18.1151 16.2058 18.1151 15.5091V15.1691C18.3579 15.3051 18.6006 15.424 18.8784 15.4749V18.2625ZM14.4379 18.2625H12.443V15.4749C12.7032 15.424 12.9635 15.3051 13.2062 15.1691V15.5091C13.2062 16.2058 13.7441 16.8007 14.4379 16.8858V18.2625Z" fill="#00D280"/>
</g>
<path fill-rule="evenodd" clip-rule="evenodd" d="M16.6777 16.338H14.6308C14.1623 16.338 13.7807 15.9643 13.7807 15.5054V14.2647C13.7462 14.2475 13.7112 14.2305 13.6943 14.2133C13.0174 14.6042 11.977 15.4374 11.4391 14.5196L10.4156 12.7857C9.8782 11.868 11.1444 11.409 11.8207 11.0353V10.9336L10.7278 10.3215C10.3292 10.0838 10.1729 9.57347 10.4156 9.16602L11.4391 7.43214C11.977 6.51439 13.0174 7.36419 13.6943 7.7379C13.7112 7.72131 13.7462 7.70417 13.7807 7.68702V6.46351C13.7807 6.00462 14.1623 5.63086 14.6308 5.63086H16.6777C17.1457 5.63086 17.5273 6.00462 17.5273 6.46351V7.68702C17.5622 7.70417 17.5967 7.72131 17.6142 7.7379C18.308 7.36419 19.3314 6.51439 19.8689 7.43214L20.8923 9.16602C21.4303 10.1004 20.1811 10.5427 19.5048 10.9336V11.0353C20.1811 11.409 21.4303 11.868 20.8923 12.7857L19.8689 14.5196C19.3314 15.454 18.2905 14.6042 17.6142 14.2133C17.5967 14.2305 17.5622 14.2475 17.5273 14.2647V15.5054C17.5273 15.9643 17.1457 16.338 16.6777 16.338ZM15.6542 13.4149C14.2836 13.4149 13.1738 12.3269 13.1738 10.9845C13.1738 9.64149 14.2836 8.53682 15.6542 8.53682C17.0243 8.53682 18.1517 9.64149 18.1517 10.9845C18.1517 12.3269 17.0243 13.4149 15.6542 13.4149Z" fill="#00D280"/>
<path fill-rule="evenodd" clip-rule="evenodd" d="M20.7187 20.7827H24.7776C25.6277 20.7827 25.6277 22.0405 24.7776 22.0405H20.0944C19.7303 22.0405 19.4526 21.7513 19.4526 21.4118V12.5906C19.4526 11.7751 20.7187 11.7751 20.7187 12.5906V20.7827ZM10.5892 20.7827V12.37C10.5892 11.5368 11.8724 11.5368 11.8724 12.37V21.4118C11.8724 21.7513 11.5777 22.0405 11.2305 22.0405H6.52985C5.69773 22.0405 5.69773 20.7827 6.52985 20.7827H10.5892ZM15.6539 22.7034C15.3068 22.7034 15.0296 22.4143 15.0296 22.0742V16.0069C15.0296 15.1914 16.2958 15.1914 16.2958 16.0069V22.0742C16.2958 22.4143 16.0181 22.7034 15.6539 22.7034Z" fill="#00D280"/>
<path fill-rule="evenodd" clip-rule="evenodd" d="M26.6626 23.5954C25.4314 23.5954 24.4424 22.6096 24.4424 21.4032C24.4424 20.1962 25.4314 19.2275 26.6626 19.2275C27.8943 19.2275 28.9003 20.1962 28.9003 21.4032C28.9003 22.6096 27.8943 23.5954 26.6626 23.5954Z" fill="#00D280"/>
<mask id="mask1_31_2674" style="mask-type:luminance" maskUnits="userSpaceOnUse" x="13" y="21" width="5" height="6">
<path d="M13.3042 21.6646H17.9174V26.0972H13.3042V21.6646Z" fill="white"/>
</mask>
<g mask="url(#mask1_31_2674)">
<path fill-rule="evenodd" clip-rule="evenodd" d="M15.6475 26.0972C14.4157 26.0972 13.4272 25.1115 13.4272 23.9217C13.4272 22.7153 14.4157 21.7295 15.6475 21.7295C16.8787 21.7295 17.8852 22.7153 17.8852 23.9217C17.8852 25.1115 16.8787 26.0972 15.6475 26.0972Z" fill="#00D280"/>
</g>
<path fill-rule="evenodd" clip-rule="evenodd" d="M4.63915 23.5954C3.4249 23.5954 2.41895 22.6096 2.41895 21.4032C2.41895 20.1962 3.4249 19.2275 4.63915 19.2275C5.8709 19.2275 6.87685 20.1962 6.87685 21.4032C6.87685 22.6096 5.8709 23.5954 4.63915 23.5954Z" fill="#00D280"/>
</g>
</g>
</g>
<defs>
<clipPath id="clip0_31_2674">
<rect width="30" height="25.7" fill="white" transform="translate(0.660156 0.390137)"/>
</clipPath>
<clipPath id="clip1_31_2674">
<rect width="30" height="25.7" fill="white" transform="translate(0.660156 0.390137)"/>
</clipPath>
<clipPath id="clip2_31_2674">
<rect width="30" height="25.7143" fill="white" transform="translate(0.660156 0.382812)"/>
</clipPath>
</defs>
</svg>
