<svg width="48" height="43" viewBox="0 0 48 43" fill="none" xmlns="http://www.w3.org/2000/svg">
<g clip-path="url(#clip0_31_2569)">
<g clip-path="url(#clip1_31_2569)">
<g clip-path="url(#clip2_31_2569)">
<mask id="mask0_31_2569" style="mask-type:luminance" maskUnits="userSpaceOnUse" x="3" y="0" width="42" height="42">
<path d="M3 0.419922H45V41.5562H3V0.419922Z" fill="white"/>
</mask>
<g mask="url(#mask0_31_2569)">
<path d="M23.9985 32.844C17.316 32.844 11.8966 27.5346 11.8966 20.9866C11.8966 14.4414 17.316 9.13355 23.9985 9.13355C30.684 9.13355 36.1042 14.4414 36.1042 20.9866C36.1042 27.5346 30.684 32.844 23.9985 32.844ZM43.2706 16.8734L39.7926 16.3563C39.4697 15.297 39.0375 14.283 38.5104 13.3271L40.5953 10.5515C41.1924 9.75845 41.108 8.65669 40.3972 7.96037L37.3027 4.92887C36.5903 4.23255 35.4669 4.14924 34.6557 4.73322L31.8234 6.77529C31.3349 6.5179 30.8322 6.28207 30.3149 6.07377C29.7999 5.86325 29.269 5.67726 28.7289 5.51881L28.1988 2.11385C28.0484 1.14004 27.1939 0.419922 26.1875 0.419922H21.8125C20.8061 0.419922 19.9508 1.14004 19.799 2.11385L19.2711 5.51881C19.2711 5.51881 17.1534 6.25975 16.1774 6.77529L13.3443 4.73322C12.5338 4.14924 11.4097 4.23255 10.6988 4.92887L7.60515 7.96037C6.89268 8.65669 6.80762 9.75845 7.40386 10.5515L9.48883 13.3256C9.22602 13.8039 8.986 14.2964 8.77105 14.803C8.55762 15.3074 8.36925 15.8259 8.2067 16.3563L4.72949 16.8734C3.736 17.0214 3 17.8598 3 18.8455V23.1306C3 24.1162 3.736 24.9532 4.72949 25.102L8.2067 25.6197C8.53027 26.6791 8.96245 27.6931 9.49035 28.649L7.40386 31.4246C6.80762 32.2191 6.89268 33.3194 7.60515 34.0172L10.6988 37.0473C11.4097 37.7435 12.5338 37.8268 13.3443 37.2414L16.1774 35.1993C17.1534 35.7163 18.188 36.1396 19.2711 36.4558L19.799 39.8622C19.9508 40.836 20.8061 41.5562 21.8125 41.5562H26.1875C27.1939 41.5562 28.0484 40.836 28.1988 39.8622L28.7289 36.4558C29.809 36.1396 30.8458 35.7163 31.8218 35.1993L34.6557 37.2414C35.4669 37.8268 36.5903 37.7435 37.3027 37.0473L40.3972 34.0172C41.108 33.3194 41.1924 32.2191 40.5953 31.4246L38.5104 28.649C38.774 28.1707 39.0133 27.6796 39.2281 27.1731C39.4408 26.6687 39.6315 26.1486 39.7926 25.6197L43.2706 25.102C44.2647 24.9532 45 24.1162 45 23.1306V18.8455C45 17.8598 44.2647 17.0214 43.2706 16.8734Z" fill="#00D280"/>
</g>
<path d="M19.8996 16.4727C19.5153 16.8492 19.5153 17.4592 19.8996 17.8371L22.198 20.0867C22.1691 20.2102 22.1539 20.3382 22.1539 20.4699C22.1539 21.4578 22.9727 22.2591 23.9806 22.2591C24.9893 22.2591 25.8073 21.4578 25.8073 20.4699C25.8073 19.4812 24.9893 18.6808 23.9806 18.6808C23.847 18.6808 23.7171 18.6957 23.5894 18.7224L21.2926 16.4727C20.9075 16.0963 20.2839 16.0963 19.8996 16.4727Z" fill="#00D280"/>
<path d="M25.547 13.0904C25.8493 13.2079 26.1911 13.0636 26.3111 12.7675C26.4311 12.4699 26.2838 12.1352 25.9815 12.0177C25.6792 11.9008 25.3374 12.0444 25.2174 12.3405C25.0959 12.6374 25.2432 12.9721 25.547 13.0904Z" fill="#00D280"/>
<path d="M28.2274 26.403L24.2922 25.9061C24.0993 25.8822 23.9534 26.0704 24.0271 26.246L24.4509 27.2384C24.4183 27.2384 24.3841 27.24 24.3499 27.24C22.4169 27.24 20.5529 26.4982 19.1614 25.2462C17.7722 23.9927 16.8547 22.237 16.6959 20.3489C16.5175 18.4675 17.0917 16.4842 18.3639 14.9309C19.2131 13.8827 20.385 13.0658 21.7067 12.589C21.7933 12.557 21.8601 12.4849 21.8738 12.3949C21.8958 12.2304 21.7424 12.0921 21.576 12.1337C20.1222 12.4916 18.7414 13.2146 17.6287 14.2695C15.9744 15.8132 14.9574 18.0829 14.9733 20.4189C14.99 21.5808 15.2308 22.7525 15.7146 23.8335C16.1985 24.9122 16.9208 25.8912 17.8034 26.6924C18.692 27.4877 19.7478 28.1125 20.8864 28.4941C22.0242 28.8818 23.238 29.0157 24.4221 28.9353C24.6628 28.9159 24.9006 28.8885 25.1383 28.849L25.5569 29.8325C25.6305 30.0073 25.8713 30.0371 25.9905 29.886L28.3953 26.7966C28.5145 26.6456 28.4195 26.4268 28.2274 26.403Z" fill="#00D280"/>
<path d="M30.0033 14.7055C30.1925 14.242 29.9601 13.7168 29.4868 13.5323C29.0152 13.3485 28.4774 13.5754 28.2906 14.0382C28.1014 14.5016 28.3331 15.0269 28.8056 15.2113C29.2787 15.3951 29.815 15.1697 30.0033 14.7055Z" fill="#00D280"/>
<path d="M30.7682 23.6042C30.0914 23.3393 29.3242 23.6629 29.0553 24.3258C28.7857 24.9886 29.1169 25.74 29.7921 26.0041C30.4689 26.2675 31.236 25.9446 31.5049 25.2817C31.7761 24.6189 31.4449 23.8682 30.7682 23.6042Z" fill="#00D280"/>
<path d="M30.8585 18.5984C31.4669 18.8357 32.1551 18.5449 32.3967 17.9489C32.6389 17.3546 32.342 16.6798 31.7351 16.4425C31.1266 16.2059 30.4377 16.496 30.1955 17.092C29.9539 17.6871 30.2502 18.3619 30.8585 18.5984Z" fill="#00D280"/>
<path d="M30.4669 20.8014C30.1966 21.4657 30.5269 22.2193 31.2068 22.4834C31.885 22.7483 32.6529 22.4231 32.9241 21.7588C33.193 21.093 32.864 20.3409 32.1843 20.0768C31.506 19.812 30.7365 20.1356 30.4669 20.8014Z" fill="#00D280"/>
</g>
</g>
</g>
<defs>
<clipPath id="clip0_31_2569">
<rect width="48" height="42" fill="white" transform="translate(0 0.419922)"/>
</clipPath>
<clipPath id="clip1_31_2569">
<rect width="48" height="42" fill="white" transform="translate(0 0.419922)"/>
</clipPath>
<clipPath id="clip2_31_2569">
<rect width="42.9545" height="42" fill="white" transform="translate(2.52295 0.419922)"/>
</clipPath>
</defs>
</svg>
