<svg width="31" height="34" viewBox="0 0 31 34" fill="none" xmlns="http://www.w3.org/2000/svg">
<g clip-path="url(#clip0_31_2728)">
<g clip-path="url(#clip1_31_2728)">
<mask id="mask0_31_2728" style="mask-type:luminance" maskUnits="userSpaceOnUse" x="0" y="0" width="31" height="34">
<path d="M0.97998 0.603516H30.98V33.0654H0.97998V0.603516Z" fill="white"/>
</mask>
<g mask="url(#mask0_31_2728)">
<path fill-rule="evenodd" clip-rule="evenodd" d="M29.3981 0.61084C29.502 0.61084 29.6045 0.621952 29.7063 0.644178C29.8081 0.666404 29.907 0.699741 30.003 0.743399C30.0991 0.78785 30.1901 0.841825 30.2768 0.905328C30.3629 0.968829 30.4432 1.04106 30.5162 1.12282C30.5901 1.20378 30.6553 1.29189 30.7134 1.38714C30.7707 1.4824 30.8194 1.58321 30.8596 1.68957C30.899 1.79514 30.9291 1.90468 30.9499 2.0166C30.9699 2.12931 30.98 2.24282 30.98 2.35792V19.1668H0.97998V2.98818C0.97998 2.83259 0.993599 2.67781 1.02155 2.52461C1.04879 2.37141 1.08964 2.22298 1.14411 2.07852C1.19787 1.93405 1.26453 1.79752 1.34265 1.66734C1.42149 1.53796 1.51037 1.41731 1.61071 1.30697C1.71106 1.19664 1.81929 1.09821 1.93683 1.01169C2.05438 0.924378 2.17909 0.851351 2.30954 0.791818C2.43998 0.732286 2.57473 0.687041 2.71378 0.656085C2.85212 0.625921 2.99188 0.61084 3.1338 0.61084H29.3981ZM11.4237 29.2031C11.7677 28.122 12.0207 26.7218 12.0802 25.3454H19.8175C19.8891 26.6678 20.1241 27.9537 20.5234 29.2031H11.4237ZM8.96808 30.1691H22.9926C23.0786 30.1691 23.1639 30.1786 23.2485 30.1969C23.3323 30.216 23.4148 30.243 23.4943 30.2794C23.5739 30.3159 23.6491 30.3604 23.7208 30.4128C23.7925 30.466 23.8585 30.5263 23.9193 30.593C23.9803 30.6604 24.0348 30.7335 24.0828 30.8129C24.1301 30.8914 24.1709 30.9748 24.2038 31.0629C24.2369 31.1502 24.2612 31.2407 24.2785 31.3344C24.2949 31.4273 24.3035 31.5217 24.3035 31.617C24.3035 31.7114 24.2949 31.8059 24.2785 31.8988C24.2612 31.9924 24.2369 32.0829 24.2038 32.1702C24.1709 32.2583 24.1301 32.3417 24.0828 32.4211C24.0348 32.4996 23.9803 32.5726 23.9193 32.6402C23.8585 32.7076 23.7925 32.7671 23.7208 32.8204C23.6491 32.8727 23.5739 32.9179 23.4943 32.9536C23.4148 32.9902 23.3323 33.018 23.2485 33.0363C23.1639 33.0544 23.0786 33.064 22.9926 33.064H8.96808C8.88135 33.064 8.79606 33.0544 8.71221 33.0363C8.62763 33.018 8.54592 32.9902 8.46636 32.9536C8.38681 32.9179 8.31083 32.8727 8.23916 32.8204C8.16748 32.7671 8.10154 32.7076 8.04062 32.6402C7.9797 32.5726 7.92522 32.4996 7.87792 32.4211C7.82989 32.3417 7.78976 32.2583 7.75679 32.1702C7.72382 32.0829 7.69873 31.9924 7.68224 31.8988C7.66504 31.8059 7.65644 31.7114 7.65644 31.617C7.65644 31.5217 7.66504 31.4273 7.68224 31.3344C7.69873 31.2407 7.72382 31.1502 7.75679 31.0629C7.78976 30.9748 7.82989 30.8914 7.87792 30.8129C7.92522 30.7335 7.9797 30.6604 8.04062 30.593C8.10154 30.5263 8.16748 30.466 8.23916 30.4128C8.31083 30.3604 8.38681 30.3159 8.46636 30.2794C8.54592 30.243 8.62763 30.216 8.71221 30.1969C8.79606 30.1786 8.88135 30.1691 8.96808 30.1691ZM14.7959 22.4981C14.7379 22.4981 14.6819 22.4854 14.6282 22.4609C14.5752 22.4371 14.5279 22.4021 14.4863 22.3568C14.4454 22.3116 14.4139 22.2593 14.3917 22.1997C14.3695 22.1409 14.3587 22.0791 14.3587 22.0147C14.3587 21.9513 14.3695 21.8893 14.3917 21.8298C14.4139 21.7711 14.4454 21.7187 14.4863 21.6734C14.5279 21.6282 14.5752 21.5933 14.6282 21.5687C14.6819 21.544 14.7379 21.5321 14.7959 21.5321H17.164C17.2221 21.5321 17.278 21.544 17.3317 21.5687C17.3848 21.5933 17.4321 21.6282 17.4737 21.6734C17.5145 21.7187 17.5461 21.7711 17.5682 21.8298C17.5905 21.8893 17.6012 21.9513 17.602 22.0147C17.6012 22.0791 17.5905 22.1409 17.5682 22.1997C17.5461 22.2593 17.5145 22.3116 17.4737 22.3568C17.4321 22.4021 17.3848 22.4371 17.3317 22.4609C17.278 22.4854 17.2221 22.4981 17.164 22.4981H14.7959ZM30.98 20.1328H0.97998V22.0021C0.97998 22.1584 0.993599 22.3124 1.02155 22.4656C1.04879 22.6188 1.08964 22.7673 1.14411 22.9117C1.19787 23.0562 1.26453 23.1935 1.34265 23.3229C1.42149 23.4531 1.51109 23.5729 1.61071 23.6832C1.71106 23.7935 1.81929 23.8921 1.93683 23.9794C2.05438 24.0659 2.17909 24.1388 2.30954 24.1984C2.43998 24.2587 2.57473 24.3032 2.71378 24.3341C2.85212 24.3643 2.99188 24.3794 3.1338 24.3794H28.8262C28.9674 24.3794 29.1079 24.3643 29.2462 24.3341C29.3852 24.3032 29.5199 24.2587 29.6504 24.1984C29.7809 24.1388 29.9048 24.0659 30.0224 23.9794C30.14 23.8921 30.2489 23.7935 30.3492 23.6832C30.4489 23.5729 30.5385 23.4531 30.6166 23.3229C30.6955 23.1935 30.762 23.0562 30.8159 22.9117C30.8703 22.7673 30.9112 22.6188 30.9384 22.4656C30.9663 22.3124 30.98 22.1584 30.98 22.0021V20.1328ZM28.1861 13.4944C28.2206 13.4944 28.2535 13.4865 28.2858 13.4723C28.3172 13.458 28.3452 13.4374 28.3696 13.4103C28.394 13.3834 28.4126 13.3524 28.4262 13.3174C28.4392 13.2817 28.4456 13.2453 28.4456 13.2071V12.3348C28.4456 12.2967 28.4392 12.2602 28.4262 12.2253C28.4126 12.1903 28.394 12.1594 28.3696 12.1323C28.3452 12.1054 28.3172 12.0847 28.2858 12.0704C28.2535 12.0554 28.2206 12.0483 28.1861 12.0483C28.0994 12.0483 28.0148 12.0347 27.9324 12.0069C27.8492 11.9792 27.7726 11.9387 27.7002 11.8855C27.6285 11.8323 27.5647 11.7688 27.5102 11.695C27.4551 11.6212 27.4113 11.5402 27.3783 11.4521C27.3453 11.364 27.3246 11.2719 27.316 11.1775C27.3074 11.0823 27.3117 10.9877 27.3282 10.8941C27.3453 10.8004 27.3741 10.7115 27.4149 10.6274C27.4551 10.5432 27.5067 10.4671 27.5675 10.3996C27.5919 10.3726 27.6106 10.3416 27.6235 10.3067C27.6371 10.2718 27.6435 10.2353 27.6435 10.1972C27.6435 10.159 27.6371 10.1225 27.6235 10.0876C27.6106 10.0519 27.5919 10.0209 27.5675 9.99396L27.0085 9.3772C26.9842 9.35021 26.9562 9.32958 26.924 9.31528C26.8924 9.3002 26.8594 9.29306 26.825 9.29306C26.7906 9.29306 26.7576 9.3002 26.7254 9.31528C26.6938 9.32958 26.6659 9.35021 26.6415 9.3772C26.5798 9.44467 26.511 9.50103 26.4351 9.54548C26.3584 9.59072 26.2781 9.62247 26.1935 9.64153C26.1083 9.65978 26.023 9.66454 25.937 9.65502C25.8509 9.64549 25.7678 9.62247 25.6883 9.58596C25.6079 9.54945 25.5349 9.50103 25.4682 9.4407C25.4009 9.37958 25.3435 9.30973 25.2955 9.23035C25.2475 9.15098 25.2109 9.06604 25.1858 8.97397C25.1608 8.88268 25.1479 8.78981 25.1479 8.69377C25.1479 8.65567 25.1414 8.61916 25.1285 8.58423C25.1149 8.5493 25.0962 8.51835 25.0718 8.49136C25.0475 8.46437 25.0196 8.44373 24.988 8.42944C24.9558 8.41436 24.9228 8.40722 24.8883 8.40722H24.0986C24.0634 8.40722 24.0304 8.41436 23.9989 8.42944C23.9673 8.44373 23.9387 8.46437 23.9143 8.49136C23.8899 8.51835 23.8713 8.5493 23.8585 8.58423C23.8448 8.61916 23.8383 8.65567 23.8383 8.69377C23.8383 8.78981 23.8261 8.88268 23.8011 8.97397C23.776 9.06604 23.7388 9.15098 23.6907 9.23035C23.6427 9.30973 23.5854 9.37958 23.5187 9.4407C23.452 9.50103 23.3782 9.54945 23.2986 9.58596C23.2184 9.62247 23.1359 9.64549 23.0492 9.65502C22.9632 9.66454 22.8779 9.65978 22.7934 9.64153C22.708 9.62247 22.6278 9.59072 22.5518 9.54548C22.4751 9.50103 22.4063 9.44467 22.3454 9.3772C22.321 9.35021 22.293 9.32958 22.2608 9.31528C22.2293 9.3002 22.1963 9.29306 22.1619 9.29306C22.1275 9.29306 22.0938 9.3002 22.0622 9.31528C22.0307 9.32958 22.0028 9.35021 21.9784 9.3772L21.4194 9.99396C21.395 10.0209 21.3763 10.0519 21.3628 10.0876C21.3498 10.1225 21.3434 10.159 21.3434 10.1972C21.3434 10.2353 21.3498 10.2718 21.3628 10.3067C21.3763 10.3416 21.395 10.3726 21.4194 10.3996C21.4802 10.4671 21.5311 10.5432 21.572 10.6274C21.6128 10.7115 21.6416 10.8004 21.658 10.8941C21.6752 10.9877 21.6795 11.0823 21.6709 11.1775C21.6624 11.2719 21.6416 11.364 21.6086 11.4521C21.5756 11.5402 21.5311 11.6212 21.4767 11.695C21.4215 11.7688 21.3584 11.8323 21.286 11.8855C21.2144 11.9387 21.137 11.9792 21.0545 12.0069C20.9714 12.0347 20.8868 12.0483 20.8001 12.0483C20.7657 12.0483 20.7327 12.0554 20.7012 12.0704C20.6697 12.0847 20.6409 12.1054 20.6166 12.1323C20.5922 12.1594 20.5736 12.1903 20.5607 12.2253C20.5478 12.2602 20.5407 12.2967 20.5407 12.3348V13.2079C20.5407 13.246 20.5478 13.2825 20.5607 13.3174C20.5736 13.3524 20.5922 13.3834 20.6166 13.4103C20.6409 13.4374 20.6697 13.458 20.7012 13.4723C20.7327 13.4873 20.7657 13.4944 20.8001 13.4944C20.8868 13.4944 20.9714 13.508 21.0545 13.5358C21.137 13.5635 21.2144 13.604 21.286 13.6572C21.3584 13.7104 21.4215 13.7738 21.4767 13.8477C21.5311 13.9215 21.5749 14.0025 21.6086 14.0906C21.6416 14.1787 21.6624 14.2708 21.6709 14.3652C21.6795 14.4604 21.6752 14.5549 21.658 14.6486C21.6416 14.7423 21.6128 14.8312 21.572 14.9153C21.5311 14.9995 21.4802 15.0756 21.4194 15.1431C21.395 15.1701 21.3763 15.2011 21.3628 15.236C21.3498 15.2709 21.3434 15.3074 21.3434 15.3455C21.3434 15.3837 21.3498 15.4202 21.3628 15.4551C21.3763 15.4908 21.395 15.5218 21.4194 15.5488L21.9784 16.1655C22.0028 16.1925 22.0307 16.2131 22.0622 16.2274C22.0938 16.2424 22.1275 16.2496 22.1619 16.2496C22.1963 16.2496 22.2293 16.2424 22.2608 16.2274C22.293 16.2131 22.321 16.1925 22.3454 16.1655C22.4063 16.0981 22.4751 16.0416 22.5518 15.9972C22.6278 15.9519 22.708 15.9202 22.7934 15.9011C22.8779 15.8829 22.9632 15.8782 23.0492 15.8877C23.1359 15.8972 23.2184 15.9202 23.2986 15.9568C23.3782 15.9933 23.452 16.0416 23.5187 16.102C23.5854 16.1631 23.6427 16.233 23.6907 16.3123C23.7388 16.3917 23.776 16.4766 23.8011 16.5688C23.8261 16.66 23.8383 16.7528 23.8383 16.8489C23.8383 16.8871 23.8448 16.9235 23.8585 16.9585C23.8713 16.9934 23.8899 17.0244 23.9143 17.0513C23.9387 17.0783 23.9667 17.099 23.9989 17.1132C24.0304 17.1283 24.0634 17.1355 24.0986 17.1355H24.8883C24.9228 17.1355 24.9558 17.1283 24.988 17.1132C25.0196 17.099 25.0475 17.0783 25.0718 17.0513C25.0962 17.0244 25.1156 16.9934 25.1285 16.9585C25.1414 16.9235 25.1479 16.8871 25.1479 16.8489C25.1486 16.7528 25.1608 16.66 25.1858 16.5688C25.2109 16.4766 25.2475 16.3917 25.2955 16.3123C25.3435 16.233 25.4015 16.1631 25.4682 16.102C25.5349 16.0416 25.6079 15.9933 25.6883 15.9568C25.7678 15.9202 25.8509 15.8972 25.937 15.8877C26.023 15.8782 26.1089 15.8829 26.1935 15.9011C26.2781 15.9202 26.3591 15.9519 26.4351 15.9972C26.5118 16.0416 26.5798 16.0981 26.6415 16.1655C26.6659 16.1925 26.6938 16.2131 26.7254 16.2274C26.7576 16.2424 26.7906 16.2496 26.825 16.2496C26.8594 16.2496 26.8924 16.2424 26.9247 16.2274C26.9562 16.2131 26.9842 16.1925 27.0085 16.1655L27.5675 15.5488C27.5919 15.5218 27.6106 15.4908 27.6235 15.4551C27.6371 15.4202 27.6435 15.3837 27.6435 15.3455C27.6435 15.3074 27.6371 15.2709 27.6235 15.236C27.6106 15.2011 27.5919 15.1701 27.5675 15.1431C27.5067 15.0756 27.4558 14.9995 27.4149 14.9153C27.3741 14.8312 27.3453 14.7423 27.3282 14.6486C27.3117 14.5549 27.3074 14.4604 27.316 14.3652C27.3246 14.2708 27.3453 14.1787 27.3783 14.0906C27.4113 14.0025 27.4558 13.9215 27.5102 13.8477C27.5654 13.7738 27.6285 13.7104 27.7002 13.6572C27.7726 13.604 27.8499 13.5635 27.9324 13.5358C28.0155 13.508 28.1001 13.4944 28.1861 13.4944ZM24.4935 10.6384C24.3666 10.6384 24.2412 10.652 24.1165 10.6798C23.9925 10.7068 23.8713 10.7472 23.7545 10.8012C23.6369 10.8544 23.5259 10.9203 23.4205 10.9981C23.3152 11.0759 23.2176 11.1639 23.128 11.2632C23.0385 11.3624 22.9582 11.4695 22.8879 11.5863C22.817 11.703 22.7575 11.826 22.7095 11.9546C22.6608 12.084 22.6242 12.2173 22.5991 12.3546C22.5748 12.492 22.5626 12.6308 22.5626 12.7706C22.5626 12.9111 22.5748 13.05 22.5991 13.1873C22.6242 13.3246 22.6608 13.458 22.7095 13.5866C22.7575 13.716 22.817 13.839 22.8879 13.9557C22.9582 14.0723 23.0385 14.1795 23.128 14.2787C23.2176 14.3779 23.3152 14.4661 23.4205 14.5439C23.5259 14.6216 23.6369 14.6875 23.7545 14.7407C23.8713 14.7946 23.9925 14.8352 24.1165 14.8622C24.2412 14.8899 24.3666 14.9034 24.4935 14.9034C24.6204 14.9034 24.7458 14.8899 24.8704 14.8622C24.9945 14.8352 25.1156 14.7946 25.2325 14.7407C25.3499 14.6875 25.461 14.6216 25.5664 14.5439C25.6718 14.4661 25.7693 14.3779 25.8589 14.2787C25.9484 14.1795 26.0287 14.0723 26.099 13.9557C26.1699 13.839 26.2294 13.716 26.2774 13.5866C26.3262 13.458 26.3627 13.3246 26.3879 13.1873C26.4121 13.05 26.4251 12.9111 26.4251 12.7706C26.4251 12.6308 26.4121 12.492 26.3879 12.3546C26.3627 12.2173 26.3262 12.084 26.2774 11.9546C26.2294 11.826 26.1699 11.703 26.099 11.5863C26.0287 11.4695 25.9484 11.3624 25.8589 11.2632C25.7693 11.1639 25.6718 11.0759 25.5664 10.9981C25.461 10.9203 25.3499 10.8544 25.2325 10.8012C25.1156 10.7472 24.9945 10.7068 24.8704 10.6798C24.7458 10.652 24.6204 10.6384 24.4935 10.6384ZM14.4713 5.5322C14.3042 5.63856 14.1494 5.76397 14.0068 5.90843C13.8649 6.05211 13.738 6.21166 13.6276 6.38629C13.5165 6.56091 13.4241 6.74665 13.3502 6.94351C13.2764 7.14037 13.2227 7.34357 13.189 7.55312L14.4698 6.73713C14.6863 6.59822 14.9199 6.51885 15.1701 6.49741C15.4202 6.47678 15.6618 6.51567 15.8954 6.61648L18.414 5.01069C18.4764 4.9718 18.5409 4.94084 18.6083 4.91623C18.6764 4.89163 18.7452 4.87416 18.8155 4.86464C18.8864 4.85432 18.9573 4.85272 19.0283 4.85829C19.0992 4.86384 19.1688 4.87654 19.2376 4.89798C19.3056 4.91861 19.3723 4.94639 19.4361 4.98132C19.4992 5.01624 19.5594 5.05752 19.616 5.10515C19.6719 5.15357 19.7235 5.20675 19.7708 5.26628C19.8175 5.32502 19.8583 5.38852 19.8941 5.45679C19.9299 5.52505 19.9593 5.5957 19.9823 5.67031C20.0052 5.74492 20.021 5.82033 20.0303 5.89812C20.0403 5.9767 20.0425 6.0545 20.0382 6.13308C20.0339 6.21086 20.0224 6.28865 20.0045 6.36406C19.9865 6.44027 19.9615 6.51329 19.9307 6.58394C19.8998 6.65458 19.8626 6.72126 19.8196 6.78396C19.7765 6.84667 19.7285 6.90462 19.6755 6.95621C19.6225 7.0086 19.5652 7.05464 19.5042 7.09512L16.9067 8.75091C16.8537 8.99381 16.7591 9.21606 16.6236 9.41609C16.4881 9.61692 16.3219 9.77963 16.1254 9.90426L14.7722 10.7671C14.9608 10.8544 15.1558 10.9163 15.3571 10.9536C15.5585 10.9917 15.7614 11.0028 15.9657 10.9894C16.1692 10.975 16.3692 10.9354 16.5649 10.8703C16.7606 10.8052 16.9469 10.7163 17.1239 10.6044L20.2855 8.5882C20.4381 8.49294 20.58 8.38261 20.7126 8.25561C20.8452 8.1294 20.9649 7.9897 21.0724 7.83729C21.1793 7.68489 21.2724 7.52216 21.3506 7.34912C21.4287 7.17609 21.491 6.99669 21.5368 6.81016C21.5827 6.62362 21.6115 6.43391 21.6237 6.24103C21.6358 6.04814 21.63 5.85605 21.6079 5.66476C21.5849 5.47266 21.5462 5.28533 21.4896 5.10277C21.4337 4.9194 21.362 4.74398 21.2746 4.5765C21.1871 4.40981 21.0853 4.25343 20.9699 4.10817C20.8546 3.96291 20.7269 3.83195 20.5879 3.71447C20.4489 3.59699 20.3005 3.49618 20.1435 3.41125C19.9865 3.32631 19.8232 3.25884 19.654 3.20963C19.4848 3.16041 19.3129 3.12947 19.1379 3.11835C18.963 3.10644 18.7889 3.11358 18.6154 3.13978C18.442 3.16677 18.2729 3.21122 18.1073 3.27472C17.9425 3.33822 17.784 3.41839 17.6335 3.51682L14.4713 5.5322ZM4.83893 11.672C4.68984 11.7688 4.55008 11.8807 4.42035 12.0086C4.29133 12.1355 4.17379 12.2753 4.06915 12.4276C3.9645 12.58 3.87419 12.7419 3.79822 12.9142C3.72296 13.0864 3.66275 13.2651 3.61832 13.45C3.57459 13.635 3.54664 13.8223 3.53588 14.0135C3.52513 14.2049 3.53087 14.3946 3.55381 14.5843C3.57746 14.774 3.61687 14.9598 3.67206 15.1408C3.72797 15.3217 3.79965 15.4948 3.88637 15.6606C3.9731 15.8265 4.07345 15.9813 4.18741 16.125C4.30137 16.2694 4.4268 16.3996 4.56441 16.5163C4.70131 16.633 4.84752 16.7339 5.00306 16.8187C5.15788 16.9045 5.31914 16.9719 5.48686 17.022C5.65386 17.072 5.82373 17.1045 5.99646 17.1172C6.1692 17.1307 6.34194 17.126 6.51395 17.1021C6.68597 17.0783 6.85369 17.0363 7.01854 16.9759C7.18267 16.9156 7.34036 16.8386 7.49087 16.7441L10.6531 14.7288C10.8301 14.6153 10.9929 14.4819 11.1413 14.3271C11.2903 14.1723 11.4215 14.0016 11.534 13.8136C11.6473 13.6255 11.7397 13.4262 11.8107 13.2143C11.8817 13.0031 11.9304 12.7857 11.9562 12.5618L10.7922 13.3031C10.5965 13.4285 10.3858 13.5056 10.1607 13.5358C9.93569 13.5651 9.71421 13.5445 9.49704 13.4731L6.70962 15.2503C6.64799 15.29 6.58276 15.3225 6.51539 15.3479C6.4473 15.3733 6.37849 15.3907 6.30754 15.4011C6.23657 15.4114 6.1649 15.4145 6.09395 15.409C6.02226 15.4043 5.95203 15.3907 5.8825 15.3709C5.8137 15.3503 5.74704 15.3225 5.68253 15.2876C5.61874 15.2526 5.55782 15.2114 5.50119 15.1629C5.44457 15.1153 5.39225 15.0613 5.34567 15.0018C5.29835 14.9423 5.25679 14.8788 5.22094 14.8097C5.18511 14.7415 5.15573 14.6701 5.13279 14.5954C5.10986 14.5201 5.09337 14.4438 5.08405 14.3652C5.07474 14.2874 5.07258 14.2088 5.0776 14.1295C5.0819 14.0509 5.09337 13.9731 5.11201 13.8969C5.13064 13.8207 5.15573 13.7469 5.18727 13.6763C5.2188 13.6056 5.25679 13.5381 5.30051 13.4754C5.34351 13.4127 5.39225 13.3556 5.44672 13.304C5.50048 13.2515 5.55782 13.2056 5.62018 13.1667L8.32875 11.4394C8.36673 11.1663 8.45704 10.9147 8.59824 10.6869C8.73944 10.4584 8.91934 10.275 9.13652 10.136L10.2274 9.4407C10.0454 9.36847 9.85899 9.31846 9.66762 9.29068C9.47625 9.26369 9.28416 9.25893 9.09208 9.27718C8.89999 9.29624 8.71148 9.33751 8.52728 9.40101C8.3438 9.46531 8.16748 9.55024 8.00048 9.6566L4.83893 11.672ZM10.355 12.4665L15.6883 9.06763C15.7327 9.03905 15.775 9.00651 15.8137 8.9692C15.8524 8.93189 15.8876 8.89062 15.919 8.84617C15.9506 8.80093 15.9779 8.7533 16.0015 8.7025C16.0244 8.6509 16.0423 8.59851 16.0559 8.54374C16.0696 8.48898 16.0782 8.43261 16.081 8.37626C16.0846 8.31911 16.0832 8.26275 16.0768 8.2064C16.0703 8.15003 16.0581 8.09448 16.0416 8.04129C16.0252 7.98732 16.0044 7.93572 15.9785 7.88651C15.9528 7.83729 15.9226 7.79125 15.8889 7.74839C15.8546 7.70553 15.8173 7.66663 15.7765 7.63249C15.7355 7.59757 15.6919 7.56821 15.646 7.5428C15.5994 7.5182 15.5514 7.49836 15.5019 7.48327C15.4518 7.46899 15.4009 7.46026 15.35 7.45628C15.2984 7.4531 15.2475 7.45549 15.1958 7.46264C15.145 7.47057 15.0956 7.48406 15.0468 7.50232C14.998 7.52058 14.9515 7.54439 14.907 7.57376L9.57373 10.9727C9.52858 11.0013 9.487 11.0338 9.4483 11.0711C9.40888 11.1084 9.37376 11.1489 9.34222 11.1941C9.31069 11.2394 9.28345 11.287 9.26051 11.3378C9.23758 11.3886 9.21966 11.4418 9.20604 11.4965C9.19242 11.5513 9.18382 11.6076 9.18024 11.6641C9.17666 11.7212 9.17809 11.7776 9.18525 11.8339C9.19171 11.8902 9.20317 11.945 9.21965 11.999C9.23615 12.053 9.25765 12.1046 9.28345 12.1538C9.30925 12.203 9.33864 12.2491 9.37304 12.2919C9.40673 12.3348 9.444 12.3737 9.48557 12.4078C9.52643 12.4427 9.56943 12.4721 9.61602 12.4975C9.66261 12.5221 9.71063 12.5419 9.76008 12.5562C9.81026 12.5713 9.86042 12.58 9.91203 12.5832C9.96363 12.5872 10.0145 12.5848 10.0654 12.5768C10.117 12.5698 10.1665 12.5562 10.2152 12.5379C10.264 12.519 10.3105 12.4959 10.355 12.4665Z" fill="#00D280"/>
</g>
</g>
</g>
<defs>
<clipPath id="clip0_31_2728">
<rect width="30" height="32.89" fill="white" transform="translate(0.97998 0.389648)"/>
</clipPath>
<clipPath id="clip1_31_2728">
<rect width="30" height="32.9032" fill="white" transform="translate(0.97998 0.382812)"/>
</clipPath>
</defs>
</svg>
