<svg width="31" height="34" viewBox="0 0 31 34" fill="none" xmlns="http://www.w3.org/2000/svg">
<g clip-path="url(#clip0_31_2719)">
<g clip-path="url(#clip1_31_2719)">
<g clip-path="url(#clip2_31_2719)">
<path fill-rule="evenodd" clip-rule="evenodd" d="M28.112 33.4568H15.458V19.4428L22.9619 11.1325L24.7899 13.1569C25.019 13.3907 25.3876 13.2341 25.3876 12.8843V6.4417C25.3876 6.22768 25.2292 6.05228 25.0359 6.05228H19.2363C18.9206 6.05228 18.7622 6.48142 18.9903 6.7142L20.8182 8.75842L13.3143 17.0489H0.660156V3.056C0.660156 1.49828 1.80274 0.23291 3.2093 0.23291H28.112C29.5175 0.23291 30.6602 1.49828 30.6602 3.056V30.6349C30.6602 32.1914 29.5175 33.4568 28.112 33.4568ZM14.7556 33.4568H3.2093C1.80274 33.4568 0.660156 32.1914 0.660156 30.6349V17.8277H13.4368C13.4547 17.8477 13.4896 17.8477 13.5075 17.8277H14.7556V19.2487C14.7556 19.2686 14.7556 19.2686 14.7556 19.2873V33.4568ZM15.458 18.3341L22.7159 10.2952C22.8394 10.1595 23.0854 10.1595 23.2079 10.2952L24.7022 11.95V6.83114H20.0801L21.5564 8.48592C21.6969 8.62162 21.6969 8.87536 21.5564 9.0309L14.3153 17.0489H15.1064C15.2996 17.0489 15.458 17.2244 15.458 17.4383V18.3341Z" fill="#00D280"/>
</g>
</g>
</g>
<defs>
<clipPath id="clip0_31_2719">
<rect width="30" height="33.59" fill="white" transform="translate(0.660156 0.0498047)"/>
</clipPath>
<clipPath id="clip1_31_2719">
<rect width="30" height="33.59" fill="white" transform="translate(0.660156 0.0498047)"/>
</clipPath>
<clipPath id="clip2_31_2719">
<rect width="30" height="33.6" fill="white" transform="translate(0.660156 0.0449219)"/>
</clipPath>
</defs>
</svg>
