<svg width="31" height="26" viewBox="0 0 31 26" fill="none" xmlns="http://www.w3.org/2000/svg">
<g clip-path="url(#clip0_31_2739)">
<g clip-path="url(#clip1_31_2739)">
<g clip-path="url(#clip2_31_2739)">
<mask id="mask0_31_2739" style="mask-type:luminance" maskUnits="userSpaceOnUse" x="0" y="0" width="26" height="24">
<path d="M0.330078 0.814941H25.5323V23.3782H0.330078V0.814941Z" fill="white"/>
</mask>
<g mask="url(#mask0_31_2739)">
<path d="M22.123 19.4036L20.7864 17.9256H2.0733C1.84884 17.9256 1.66669 17.7234 1.66669 17.4754V2.81528C1.66669 2.56847 1.84884 2.36616 2.0733 2.36616H23.7725C23.9958 2.36616 24.1786 2.56847 24.1786 2.81528V14.4146L25.5158 15.8931V2.81528C25.5158 1.75271 24.7336 0.887695 23.7725 0.887695H2.0733C1.11222 0.887695 0.330078 1.75271 0.330078 2.81528V17.4754C0.330078 18.5391 1.11222 19.4036 2.0733 19.4036H10.0668V20.8156H9.36868C8.10975 20.8156 7.08975 21.9428 7.08975 23.3353H18.756C18.756 21.9428 17.7355 20.8156 16.4771 20.8156H15.7786V19.4036H22.123Z" fill="#00D280"/>
</g>
<path d="M4.2606 4.40933C4.2606 4.00234 3.9622 3.67188 3.59416 3.67188C3.22613 3.67188 2.92773 4.00234 2.92773 4.40933C2.92773 4.81633 3.22613 5.14619 3.59416 5.14619C3.9622 5.14619 4.2606 4.81633 4.2606 4.40933Z" fill="#00D280"/>
<path d="M6.67905 4.40933C6.67905 4.00234 6.38065 3.67188 6.01262 3.67188C5.64458 3.67188 5.34619 4.00234 5.34619 4.40933C5.34619 4.81633 5.64458 5.14619 6.01262 5.14619C6.38065 5.14619 6.67905 4.81633 6.67905 4.40933Z" fill="#00D280"/>
<path d="M8.43254 5.14619C8.80004 5.14619 9.09897 4.81633 9.09897 4.40933C9.09897 4.00234 8.80004 3.67188 8.43254 3.67188C8.0645 3.67188 7.76611 4.00234 7.76611 4.40933C7.76611 4.81633 8.0645 5.14619 8.43254 5.14619Z" fill="#00D280"/>
<path d="M20.9119 4.99431L21.6464 4.02845C21.2805 3.80181 20.8595 3.67188 20.4105 3.67188C19.4264 3.67188 18.5719 4.29542 18.1514 5.20375L19.2619 5.53242C19.5228 5.14441 19.9406 4.89346 20.4105 4.89346C20.5867 4.89346 20.7555 4.92965 20.9119 4.99431Z" fill="#00D280"/>
<path d="M22.9417 6.47369C22.9417 5.80625 22.73 5.1916 22.3759 4.71045L21.6426 5.67573C21.7669 5.91008 21.8381 6.18239 21.8381 6.47369C21.8381 6.53837 21.8349 6.60244 21.8279 6.66533L22.82 7.33337C22.8999 7.06164 22.9417 6.7739 22.9417 6.47369Z" fill="#00D280"/>
<path d="M19.6663 9.16036L19.8436 7.93404C19.3524 7.70088 19.0015 7.17167 18.9763 6.5505L17.8813 6.22656C17.8748 6.30903 17.8711 6.39328 17.8711 6.47812C17.8711 7.73944 18.6281 8.80913 19.6663 9.16036Z" fill="#00D280"/>
<path d="M22.3569 8.27207L21.3958 7.62598C21.1483 7.88702 20.8162 8.05137 20.4492 8.06323L20.2734 9.28183C20.3179 9.28365 20.3623 9.28538 20.4079 9.28538C21.1906 9.28538 21.8913 8.89087 22.3569 8.27207Z" fill="#00D280"/>
<path d="M4.93066 16.6098H5.93835V9.41211H4.93066V16.6098Z" fill="#00D280"/>
<path d="M6.94043 16.6144H7.94758V7.61719H6.94043V16.6144Z" fill="#00D280"/>
<path d="M9.96182 12.1006H8.9541V16.6108H9.96182V12.1006Z" fill="#00D280"/>
<path d="M2.92773 16.6127H3.93542V11.7739H2.92773V16.6127Z" fill="#00D280"/>
<path d="M18.2443 10.751H11.8569V12.1084H16.666C16.891 11.7245 17.2827 11.4748 17.7139 11.4748C18.046 11.4748 18.2052 11.1598 18.2443 10.751Z" fill="#00D280"/>
<path d="M11.8574 13.2349V13.7398H16.4303C16.4159 13.573 16.4121 13.4045 16.4191 13.2349H11.8574Z" fill="#00D280"/>
<path d="M11.8569 15.1757H16.8038C16.7282 15.0126 16.6634 14.844 16.6093 14.6714H11.8569V15.1757Z" fill="#00D280"/>
<path d="M11.8569 16.6116H17.9357C17.7664 16.4799 17.6051 16.3315 17.4551 16.1655C17.438 16.1459 17.4208 16.1269 17.4038 16.1079H11.8569V16.6116Z" fill="#00D280"/>
<path d="M28.8726 23.242C28.5454 23.604 28.1076 23.77 27.678 23.7404C27.3143 23.7155 26.9564 23.5493 26.6784 23.242C26.0736 22.5728 26.0736 21.4835 26.6784 20.8143C27.2826 20.1445 28.2678 20.1445 28.8726 20.8143C29.1507 21.121 29.3007 21.5161 29.3232 21.919C29.351 22.3942 29.201 22.8801 28.8726 23.242ZM29.583 20.0288C28.8828 19.2546 27.8741 19.0238 26.9896 19.3376L22.2689 14.1155C22.4976 13.2226 22.2946 12.2235 21.6593 11.521C21.0641 10.8625 20.2337 10.6234 19.4682 10.8038C19.399 10.8204 19.3734 10.9136 19.4232 10.9681L21.026 12.7403C21.1203 12.8453 21.1203 13.0144 21.026 13.1188L19.7221 14.561C19.6273 14.666 19.474 14.666 19.3797 14.561L17.7775 12.789C17.7282 12.7338 17.6435 12.7629 17.629 12.8381C17.4656 13.6854 17.681 14.6044 18.2767 15.2623C18.911 15.9648 19.8147 16.1897 20.6221 15.9363L25.3439 21.1584C25.0595 22.1356 25.2673 23.2521 25.968 24.0276C26.965 25.1305 28.586 25.1305 29.583 24.0276C30.5795 22.9258 30.5795 21.1317 29.583 20.0288Z" fill="#00D280"/>
</g>
</g>
</g>
<defs>
<clipPath id="clip0_31_2739">
<rect width="30" height="25.45" fill="white" transform="translate(0.330078 0.109863)"/>
</clipPath>
<clipPath id="clip1_31_2739">
<rect width="30" height="25.45" fill="white" transform="translate(0.330078 0.109863)"/>
</clipPath>
<clipPath id="clip2_31_2739">
<rect width="30" height="25.4545" fill="white" transform="translate(0.330078 0.107422)"/>
</clipPath>
</defs>
</svg>
