<svg width="54" height="56" viewBox="0 0 54 56" fill="none" xmlns="http://www.w3.org/2000/svg">
<g clip-path="url(#clip0_1_3801)">
<g clip-path="url(#clip1_1_3801)">
<g clip-path="url(#clip2_1_3801)">
<path d="M38.7691 39.7344C38.7691 39.8741 38.754 40.0139 38.7268 40.1523C38.6994 40.2892 38.6598 40.4235 38.6052 40.5536C38.552 40.6838 38.4864 40.8071 38.4073 40.9235C38.3294 41.0399 38.2406 41.1481 38.1424 41.2482C38.0428 41.3467 37.9349 41.4358 37.8174 41.5138C37.7013 41.5919 37.5771 41.6578 37.4474 41.7125C37.3177 41.7659 37.184 41.807 37.0474 41.8345C36.9095 41.8619 36.7703 41.8756 36.6296 41.8756C36.489 41.8756 36.3497 41.8619 36.2119 41.8345C36.0739 41.807 35.9402 41.7659 35.8105 41.7125C35.6808 41.6578 35.5578 41.5919 35.4405 41.5138C35.3244 41.4358 35.2165 41.3467 35.1169 41.2482C35.0173 41.1481 34.9286 41.0399 34.8506 40.9235C34.7729 40.8071 34.7073 40.6838 34.6528 40.5536C34.5995 40.4235 34.5585 40.2892 34.5312 40.1523C34.504 40.0139 34.4902 39.8741 34.4902 39.7344C34.4902 39.5933 34.504 39.455 34.5312 39.3166C34.5585 39.1782 34.5995 39.0454 34.6528 38.9152C34.7073 38.7851 34.7729 38.6618 34.8506 38.5454C34.9286 38.4276 35.0173 38.3193 35.1169 38.2207C35.2165 38.1207 35.3244 38.0316 35.4405 37.9535C35.5578 37.8754 35.6808 37.8097 35.8105 37.7563C35.9402 37.7028 36.0739 37.6617 36.2119 37.6344C36.3497 37.607 36.489 37.5933 36.6296 37.5933C36.7703 37.5933 36.9095 37.607 37.0474 37.6344C37.184 37.6617 37.3177 37.7028 37.4474 37.7563C37.5771 37.8097 37.7013 37.8754 37.8174 37.9535C37.9349 38.0316 38.0428 38.1207 38.1424 38.2207C38.2406 38.3193 38.3294 38.4276 38.4073 38.5454C38.4864 38.6618 38.552 38.7851 38.6052 38.9152C38.6598 39.0454 38.6994 39.1782 38.7268 39.3166C38.754 39.455 38.7691 39.5933 38.7691 39.7344Z" fill="#0575AD"/>
<path d="M46.3074 27.9612H7.70015C7.13902 27.9612 6.68439 28.3981 6.68439 28.9351V48.3973C6.68439 48.9342 7.13902 49.3699 7.70015 49.3699H46.3074C46.8686 49.3699 47.3232 48.9342 47.3232 48.3973V28.9351C47.3232 28.3981 46.8686 27.9612 46.3074 27.9612ZM12.0322 36.5258C12.0322 37.1162 11.553 37.5957 10.9618 37.5957C10.372 37.5957 9.8928 37.1162 9.8928 36.5258V32.2435C9.8928 31.6531 10.372 31.1736 10.9618 31.1736H18.4476C19.0387 31.1736 19.518 31.6531 19.518 32.2435C19.518 32.8353 19.0387 33.3134 18.4476 33.3134H12.0322V36.5258ZM17.3786 44.0177C15.0194 44.0177 13.1012 42.0971 13.1012 39.7368C13.1012 37.375 15.0194 35.4545 17.3786 35.4545C19.7378 35.4545 21.656 37.375 21.656 39.7368C21.656 42.0971 19.7378 44.0177 17.3786 44.0177ZM30.854 44.874C29.3657 45.9931 27.8025 46.1588 27.0038 46.1588C25.143 46.1588 23.7927 45.3548 23.1538 44.874C22.6814 44.5205 22.5858 43.8493 22.9408 43.3766C23.293 42.9041 23.9647 42.8068 24.4371 43.1615C24.8631 43.482 25.7628 44.0177 27.0038 44.0177C27.5362 44.0177 28.578 43.9068 29.5706 43.1615C30.0442 42.8068 30.7146 42.9041 31.0669 43.3766C31.4218 43.8493 31.3263 44.5205 30.854 44.874ZM36.6291 44.0177C34.2698 44.0177 32.3516 42.0971 32.3516 39.7368C32.3516 37.375 34.2698 35.4545 36.6291 35.4545C38.9883 35.4545 40.9064 37.375 40.9064 39.7368C40.9064 42.0971 38.9883 44.0177 36.6291 44.0177ZM44.1149 36.5258C44.1149 37.1162 43.6356 37.5957 43.0458 37.5957C42.4547 37.5957 41.9754 37.1162 41.9754 36.5258V33.3134H35.56C34.9689 33.3134 34.4896 32.8353 34.4896 32.2435C34.4896 31.6531 34.9689 31.1736 35.56 31.1736H43.0458C43.6356 31.1736 44.1149 31.6531 44.1149 32.2435V36.5258Z" fill="#0575AD"/>
<path d="M19.5182 39.7344C19.5182 39.8741 19.5044 40.0139 19.4772 40.1523C19.4499 40.2892 19.4089 40.4235 19.3556 40.5536C19.3011 40.6838 19.2355 40.8071 19.1578 40.9235C19.0799 41.0399 18.9911 41.1481 18.8915 41.2482C18.7919 41.3467 18.684 41.4358 18.5665 41.5138C18.4506 41.5919 18.3276 41.6578 18.1979 41.7125C18.0682 41.7659 17.9345 41.807 17.7965 41.8345C17.6587 41.8619 17.5194 41.8756 17.3788 41.8756C17.2381 41.8756 17.0989 41.8619 16.961 41.8345C16.8244 41.807 16.6907 41.7659 16.561 41.7125C16.4313 41.6578 16.3071 41.5919 16.191 41.5138C16.0735 41.4358 15.9656 41.3467 15.866 41.2482C15.7678 41.1481 15.679 41.0399 15.6011 40.9235C15.522 40.8071 15.4565 40.6838 15.4032 40.5536C15.3486 40.4235 15.309 40.2892 15.2817 40.1523C15.2544 40.0139 15.2394 39.8741 15.2394 39.7344C15.2394 39.5933 15.2544 39.455 15.2817 39.3166C15.309 39.1782 15.3486 39.0454 15.4032 38.9152C15.4565 38.7851 15.522 38.6618 15.6011 38.5454C15.679 38.4276 15.7678 38.3193 15.866 38.2207C15.9656 38.1207 16.0735 38.0316 16.191 37.9535C16.3071 37.8754 16.4313 37.8097 16.561 37.7563C16.6907 37.7028 16.8244 37.6617 16.961 37.6344C17.0989 37.607 17.2381 37.5933 17.3788 37.5933C17.5194 37.5933 17.6587 37.607 17.7965 37.6344C17.9345 37.6617 18.0682 37.7028 18.1979 37.7563C18.3276 37.8097 18.4506 37.8754 18.5665 37.9535C18.684 38.0316 18.7919 38.1207 18.8915 38.2207C18.9911 38.3193 19.0799 38.4276 19.1578 38.5454C19.2355 38.6618 19.3011 38.7851 19.3556 38.9152C19.4089 39.0454 19.4499 39.1782 19.4772 39.3166C19.5044 39.455 19.5182 39.5933 19.5182 39.7344Z" fill="#0575AD"/>
<mask id="mask0_1_3801" style="mask-type:luminance" maskUnits="userSpaceOnUse" x="8" y="51" width="38" height="4">
<path d="M8.65826 51.3704H45.357V54.7211H8.65826V51.3704Z" fill="white"/>
</mask>
<g mask="url(#mask0_1_3801)">
<path d="M13.1036 54.7214H40.9089C42.898 54.7214 44.5774 53.3626 45.0484 51.5105H8.96411C9.43513 53.3626 11.1144 54.7214 13.1036 54.7214Z" fill="#0575AD"/>
</g>
<path d="M29.4311 19.1289C27.913 19.8782 26.0943 19.8782 24.5761 19.1289C23.5276 18.6042 22.3616 18.3262 21.1972 18.3262C16.181 18.3262 11.7426 21.3235 9.8175 25.8195H44.1679C43.5589 24.3742 42.6716 23.0673 41.5589 21.9659C39.2269 19.6207 36.1264 18.3262 32.8101 18.3262C31.6456 18.3262 30.4796 18.6042 29.4311 19.1289Z" fill="#0575AD"/>
<path d="M52.8865 33.3338L49.4652 32.6489V44.6806L52.8865 43.9957C53.3794 43.8998 53.7425 43.4601 53.7425 42.9463V34.3831C53.7425 33.8695 53.3794 33.4298 52.8865 33.3338Z" fill="#0575AD"/>
<path d="M0.268921 34.3831V42.9463C0.268921 43.4601 0.632084 43.8998 1.12495 43.9957L4.54633 44.6806V32.6489L1.12495 33.3338C0.632084 33.4298 0.268921 33.8695 0.268921 34.3831Z" fill="#0575AD"/>
<path d="M22.4953 10.8037C22.4953 10.8037 21.8003 14.8641 21.7977 14.875C21.6515 15.7271 22.5868 16.4051 23.35 16.0038L27.0035 14.0819C27.0035 14.0819 30.6529 16.0024 30.657 16.0038C31.3928 16.3915 32.358 15.7504 32.2092 14.8764L31.5116 10.8037C31.5116 10.8037 34.4552 7.9324 34.4661 7.92143C35.09 7.31183 34.7337 6.22002 33.8736 6.09537L29.7886 5.50084L27.9632 1.79664C27.6028 1.06649 26.4041 1.06649 26.0437 1.79664L24.2183 5.50084C24.2183 5.50084 20.1511 6.09262 20.1347 6.09537C19.2719 6.22002 18.9183 7.31321 19.5409 7.92143L22.4953 10.8037Z" fill="#0575AD"/>
<path d="M12.4784 19.2145C13.2444 19.6159 14.1782 18.9432 14.0307 18.087L13.3331 14.0158C13.3331 14.0158 16.2753 11.1445 16.2889 11.1321C16.9046 10.5307 16.5442 9.42935 15.695 9.30606L11.6115 8.71152L9.78473 5.00733C9.4243 4.27718 8.22695 4.27718 7.86651 5.00733L6.03978 8.71152C6.03978 8.71152 1.97125 9.30332 1.95623 9.30606C1.09337 9.43072 0.739767 10.5225 1.3637 11.1321L4.31816 14.0158C4.31816 14.0158 3.62323 18.0693 3.6205 18.087C3.47305 18.9487 4.40144 19.62 5.17283 19.2145L8.82631 17.294L12.4784 19.2145Z" fill="#0575AD"/>
<path d="M50.3897 18.087L49.6921 14.0158C49.6921 14.0158 52.6357 11.1431 52.6465 11.1321C52.9591 10.828 53.026 10.4033 52.9073 10.0376C52.7884 9.67318 52.4841 9.3677 52.054 9.30606L47.9704 8.71152L46.1437 5.00733C45.7833 4.27718 44.5859 4.27718 44.2254 5.00733L42.3988 8.71152C42.3988 8.71152 38.3288 9.30332 38.3152 9.30606C37.4605 9.42935 37.1027 10.528 37.7213 11.1321L40.6771 14.0158C40.6771 14.0158 39.9821 18.0721 39.9794 18.087C39.832 18.9446 40.7645 19.6173 41.5318 19.2145L45.1839 17.294L48.8374 19.2145C49.6019 19.6159 50.5357 18.9418 50.3897 18.087Z" fill="#0575AD"/>
</g>
</g>
</g>
<defs>
<clipPath id="clip0_1_3801">
<rect width="53.47" height="55" fill="white" transform="translate(0.27002 0.5)"/>
</clipPath>
<clipPath id="clip1_1_3801">
<rect width="53.47" height="55" fill="white" transform="translate(0.27002 0.5)"/>
</clipPath>
<clipPath id="clip2_1_3801">
<rect width="53.4722" height="55" fill="white" transform="translate(0.268921 0.5)"/>
</clipPath>
</defs>
</svg>
