<svg width="46" height="46" viewBox="0 0 46 46" fill="none" xmlns="http://www.w3.org/2000/svg">
<g clip-path="url(#clip0_1_3982)">
<g clip-path="url(#clip1_1_3982)">
<path d="M32.5598 32.6398C32.5598 32.7574 32.5471 32.875 32.5242 32.9914C32.5012 33.1067 32.4679 33.2197 32.4219 33.3292C32.3771 33.4387 32.3219 33.5425 32.2553 33.6405C32.1898 33.7385 32.1151 33.8295 32.0324 33.9137C31.9485 33.9967 31.8578 34.0716 31.7589 34.1373C31.6613 34.203 31.5567 34.2584 31.4476 34.3045C31.3384 34.3495 31.2258 34.384 31.1109 34.4071C30.9949 34.4302 30.8777 34.4417 30.7594 34.4417C30.641 34.4417 30.5238 34.4302 30.4078 34.4071C30.2917 34.384 30.1791 34.3495 30.07 34.3045C29.9608 34.2584 29.8574 34.203 29.7586 34.1373C29.6609 34.0716 29.5702 33.9967 29.4863 33.9137C29.4024 33.8295 29.3277 33.7385 29.2623 33.6405C29.1968 33.5425 29.1416 33.4387 29.0957 33.3292C29.0508 33.2197 29.0164 33.1067 28.9934 32.9914C28.9704 32.875 28.9589 32.7574 28.9589 32.6398C28.9589 32.521 28.9704 32.4046 28.9934 32.2882C29.0164 32.1717 29.0508 32.0599 29.0957 31.9504C29.1416 31.8409 29.1968 31.7371 29.2623 31.6391C29.3277 31.54 29.4024 31.4489 29.4863 31.3659C29.5702 31.2817 29.6609 31.2068 29.7586 31.1411C29.8574 31.0754 29.9608 31.02 30.07 30.9751C30.1791 30.9301 30.2917 30.8955 30.4078 30.8725C30.5238 30.8494 30.641 30.8379 30.7594 30.8379C30.8777 30.8379 30.9949 30.8494 31.1109 30.8725C31.2258 30.8955 31.3384 30.9301 31.4476 30.9751C31.5567 31.02 31.6613 31.0754 31.7589 31.1411C31.8578 31.2068 31.9485 31.2817 32.0324 31.3659C32.1151 31.4489 32.1898 31.54 32.2553 31.6391C32.3219 31.7371 32.3771 31.8409 32.4219 31.9504C32.4679 32.0599 32.5012 32.1717 32.5242 32.2882C32.5471 32.4046 32.5598 32.521 32.5598 32.6398Z" fill="#00D280"/>
<path d="M38.9046 22.7305H6.41428C5.94206 22.7305 5.55945 23.0982 5.55945 23.5501V39.9286C5.55945 40.3805 5.94206 40.7472 6.41428 40.7472H38.9046C39.3768 40.7472 39.7594 40.3805 39.7594 39.9286V23.5501C39.7594 23.0982 39.3768 22.7305 38.9046 22.7305ZM10.0599 29.9381C10.0599 30.4349 9.65665 30.8384 9.15915 30.8384C8.6628 30.8384 8.25951 30.4349 8.25951 29.9381V26.3343C8.25951 25.8374 8.6628 25.4339 9.15915 25.4339H15.4589C15.9564 25.4339 16.3597 25.8374 16.3597 26.3343C16.3597 26.8323 15.9564 27.2346 15.4589 27.2346H10.0599V29.9381ZM14.5592 36.243C12.5738 36.243 10.9595 34.6267 10.9595 32.6403C10.9595 30.6528 12.5738 29.0365 14.5592 29.0365C16.5446 29.0365 18.1589 30.6528 18.1589 32.6403C18.1589 34.6267 16.5446 36.243 14.5592 36.243ZM25.8995 36.9635C24.6471 37.9054 23.3316 38.0449 22.6594 38.0449C21.0934 38.0449 19.9571 37.3682 19.4193 36.9635C19.0218 36.6661 18.9414 36.1012 19.2401 35.7034C19.5365 35.3057 20.1018 35.2239 20.4994 35.5225C20.8578 35.7922 21.615 36.243 22.6594 36.243C23.1075 36.243 23.9842 36.1496 24.8195 35.5225C25.2181 35.2239 25.7823 35.3057 26.0787 35.7034C26.3774 36.1012 26.297 36.6661 25.8995 36.9635ZM30.7596 36.243C28.7742 36.243 27.1599 34.6267 27.1599 32.6403C27.1599 30.6528 28.7742 29.0365 30.7596 29.0365C32.745 29.0365 34.3593 30.6528 34.3593 32.6403C34.3593 34.6267 32.745 36.243 30.7596 36.243ZM37.0593 29.9381C37.0593 30.4349 36.6561 30.8384 36.1597 30.8384C35.6622 30.8384 35.2589 30.4349 35.2589 29.9381V27.2346H29.86C29.3625 27.2346 28.9592 26.8323 28.9592 26.3343C28.9592 25.8374 29.3625 25.4339 29.86 25.4339H36.1597C36.6561 25.4339 37.0593 25.8374 37.0593 26.3343V29.9381Z" fill="#00D280"/>
<path d="M16.3605 32.6398C16.3605 32.7574 16.349 32.875 16.326 32.9914C16.303 33.1067 16.2685 33.2197 16.2237 33.3292C16.1778 33.4387 16.1226 33.5425 16.0571 33.6405C15.9916 33.7385 15.917 33.8295 15.8331 33.9137C15.7492 33.9967 15.6584 34.0716 15.5596 34.1373C15.462 34.203 15.3586 34.2584 15.2494 34.3045C15.1403 34.3495 15.0277 34.384 14.9116 34.4071C14.7956 34.4302 14.6784 34.4417 14.56 34.4417C14.4417 34.4417 14.3245 34.4302 14.2084 34.4071C14.0936 34.384 13.981 34.3495 13.8718 34.3045C13.7627 34.2584 13.6581 34.203 13.5604 34.1373C13.4616 34.0716 13.3709 33.9967 13.287 33.9137C13.2043 33.8295 13.1296 33.7385 13.0641 33.6405C12.9974 33.5425 12.9423 33.4387 12.8975 33.3292C12.8515 33.2197 12.8182 33.1067 12.7952 32.9914C12.7722 32.875 12.7596 32.7574 12.7596 32.6398C12.7596 32.521 12.7722 32.4046 12.7952 32.2882C12.8182 32.1717 12.8515 32.0599 12.8975 31.9504C12.9423 31.8409 12.9974 31.7371 13.0641 31.6391C13.1296 31.54 13.2043 31.4489 13.287 31.3659C13.3709 31.2817 13.4616 31.2068 13.5604 31.1411C13.6581 31.0754 13.7627 31.02 13.8718 30.9751C13.981 30.9301 14.0936 30.8955 14.2084 30.8725C14.3245 30.8494 14.4417 30.8379 14.56 30.8379C14.6784 30.8379 14.7956 30.8494 14.9116 30.8725C15.0277 30.8955 15.1403 30.9301 15.2494 30.9751C15.3586 31.02 15.462 31.0754 15.5596 31.1411C15.6584 31.2068 15.7492 31.2817 15.8331 31.3659C15.917 31.4489 15.9916 31.54 16.0571 31.6391C16.1226 31.7371 16.1778 31.8409 16.2237 31.9504C16.2685 32.0599 16.303 32.1717 16.326 32.2882C16.349 32.4046 16.3605 32.521 16.3605 32.6398Z" fill="#00D280"/>
<mask id="mask0_1_3982" style="mask-type:luminance" maskUnits="userSpaceOnUse" x="7" y="42" width="32" height="4">
<path d="M7.2157 42.4336H38.0998V45.2535H7.2157V42.4336Z" fill="white"/>
</mask>
<g mask="url(#mask0_1_3982)">
<path d="M10.9601 45.2531H34.3598C36.0338 45.2531 37.4471 44.1094 37.8435 42.5508H7.47644C7.87283 44.1094 9.28605 45.2531 10.9601 45.2531Z" fill="#00D280"/>
</g>
<path d="M24.7021 15.3006C23.4245 15.9312 21.8941 15.9312 20.6164 15.3006C19.734 14.859 18.7528 14.625 17.7727 14.625C13.5514 14.625 9.81621 17.1474 8.19617 20.9311H37.104C36.5916 19.7148 35.8447 18.615 34.9083 17.6881C32.9459 15.7144 30.3366 14.625 27.5458 14.625C26.5657 14.625 25.5845 14.859 24.7021 15.3006Z" fill="#00D280"/>
<path d="M44.4397 27.2542L41.5604 26.6777V36.8032L44.4397 36.2268C44.8545 36.1461 45.1601 35.776 45.1601 35.3437V28.1372C45.1601 27.7049 44.8545 27.3349 44.4397 27.2542Z" fill="#00D280"/>
<path d="M0.160034 28.1372V35.3437C0.160034 35.776 0.465658 36.1461 0.880433 36.2268L3.75973 36.8032V26.6777L0.880433 27.2542C0.465658 27.3349 0.160034 27.7049 0.160034 28.1372Z" fill="#00D280"/>
<path d="M18.8646 8.29277C18.8646 8.29277 18.2797 11.7098 18.2774 11.719C18.1545 12.4361 18.9415 13.0068 19.5838 12.669L22.6584 11.0515C22.6584 11.0515 25.7296 12.6678 25.733 12.669C26.3523 12.9952 27.1647 12.4557 27.0394 11.7202L26.4523 8.29277C26.4523 8.29277 28.9295 5.8764 28.9386 5.86718C29.4637 5.35416 29.1638 4.43534 28.44 4.33044L25.0023 3.8301L23.4661 0.712803C23.1628 0.0983364 22.154 0.0983364 21.8507 0.712803L20.3145 3.8301C20.3145 3.8301 16.8918 4.32813 16.878 4.33044C16.1519 4.43534 15.8543 5.35532 16.3782 5.86718L18.8646 8.29277Z" fill="#00D280"/>
<path d="M10.4339 15.3701C11.0785 15.7079 11.8644 15.1419 11.7403 14.4214L11.1532 10.9951C11.1532 10.9951 13.6292 8.57873 13.6407 8.56835C14.1588 8.06225 13.8555 7.13536 13.1409 7.03161L9.70434 6.53127L8.16703 3.41398C7.8637 2.79951 6.85606 2.79951 6.55274 3.41398L5.01543 6.53127C5.01543 6.53127 1.59152 7.0293 1.57888 7.03161C0.852744 7.13652 0.555162 8.05534 1.08024 8.56835L3.56659 10.9951C3.56659 10.9951 2.98177 14.4064 2.97947 14.4214C2.85538 15.1465 3.63667 15.7114 4.28584 15.3701L7.36046 13.7539L10.4339 15.3701Z" fill="#00D280"/>
<path d="M42.34 14.4214L41.7529 10.9951C41.7529 10.9951 44.23 8.57757 44.2392 8.56835C44.5023 8.31242 44.5586 7.95504 44.4587 7.64723C44.3587 7.34057 44.1025 7.08349 43.7406 7.03161L40.304 6.53127L38.7667 3.41398C38.4634 2.79951 37.4557 2.79951 37.1524 3.41398L35.6151 6.53127C35.6151 6.53127 32.19 7.0293 32.1786 7.03161C31.4593 7.13536 31.1583 8.05995 31.6788 8.56835L34.1663 10.9951C34.1663 10.9951 33.5814 14.4087 33.5791 14.4214C33.4551 15.143 34.2398 15.7091 34.8855 15.3701L37.959 13.7539L41.0336 15.3701C41.677 15.7079 42.4629 15.1407 42.34 14.4214Z" fill="#00D280"/>
</g>
</g>
<defs>
<clipPath id="clip0_1_3982">
<rect width="45" height="45" fill="white" transform="translate(0.160034 0.25)"/>
</clipPath>
<clipPath id="clip1_1_3982">
<rect width="45" height="45" fill="white" transform="translate(0.160034 0.25)"/>
</clipPath>
</defs>
</svg>
