<svg width="66" height="66" viewBox="0 0 66 66" fill="none" xmlns="http://www.w3.org/2000/svg">
<rect x="0.5" y="0.5" width="65" height="65" rx="8" fill="#00D280" fill-opacity="0.2"/>
<g clip-path="url(#clip0_1_3733)">
<g clip-path="url(#clip1_1_3733)">
<g clip-path="url(#clip2_1_3733)">
<mask id="mask0_1_3733" style="mask-type:luminance" maskUnits="userSpaceOnUse" x="12" y="12" width="42" height="41">
<path d="M12.9457 12.4907H53.0544V52.5994H12.9457V12.4907Z" fill="white"/>
</mask>
<g mask="url(#mask0_1_3733)">
<path d="M43.7092 28.7848C43.3423 28.7848 43.0428 28.5037 43.0428 28.1582C43.0428 27.8126 43.3423 27.5315 43.7092 27.5315C44.0771 27.5315 44.3766 27.8126 44.3766 28.1582C44.3766 28.5037 44.0771 28.7848 43.7092 28.7848ZM39.7097 28.2635V13.7441H43.7092V26.2781C42.6065 26.2781 41.7089 27.1215 41.7089 28.1582C41.7089 28.448 41.7801 28.7222 41.9049 28.9676L41.6332 29.2235C41.0323 28.8449 40.3881 28.522 39.7097 28.2635ZM45.043 37.5587C45.043 42.3964 40.8558 46.3325 35.7091 46.3325C30.5624 46.3325 26.3752 42.3964 26.3752 37.5587C26.3752 32.7209 30.5624 28.7848 35.7091 28.7848C40.8558 28.7848 45.043 32.7209 45.043 37.5587ZM50.1814 50.2763C50.3071 50.3947 50.3764 50.5513 50.3764 50.7193C50.3764 50.8864 50.3071 51.044 50.1814 51.1624C50.0556 51.2807 49.8883 51.3461 49.71 51.3461C49.5316 51.3461 49.3643 51.2807 49.2386 51.1624L42.7617 45.0738C43.0954 44.7979 43.4106 44.5019 43.7046 44.1877L50.1814 50.2763ZM23.7075 36.3801V21.8912H27.7081V30.9339C26.5942 32.1212 25.7744 33.5573 25.3556 35.1406L23.7075 36.3801ZM22.3747 38.812C22.0067 38.812 21.7082 38.5309 21.7082 38.1853C21.7082 37.8398 22.0067 37.5587 22.3747 37.5587C22.7416 37.5587 23.0411 37.8398 23.0411 38.1853C23.0411 38.5309 22.7416 38.812 22.3747 38.812ZM17.8482 35.9205L15.7074 38.5075V26.2781H19.708V36.2312L18.6727 35.7447C18.388 35.6107 18.0432 35.6847 17.8482 35.9205ZM31.7086 16.8776H35.7091V27.5315C34.2949 27.5315 32.9444 27.7917 31.7086 28.2635V16.8776ZM52.3767 23.1446H49.71C49.3421 23.1446 49.0436 23.4249 49.0436 23.7712C49.0436 24.1168 49.3421 24.398 49.71 24.398H50.9079L47.4528 28.1094L45.679 27.8309C45.5995 27.4079 45.3702 27.0336 45.043 26.7585V13.1174C45.043 12.771 44.7445 12.4907 44.3766 12.4907H39.0422C38.6744 12.4907 38.3758 12.771 38.3758 13.1174V27.8483C37.9414 27.743 37.4958 27.663 37.042 27.6089V16.2509C37.042 15.9045 36.7434 15.6242 36.3755 15.6242H31.0422C30.6733 15.6242 30.3748 15.9045 30.3748 16.2509V28.8772C29.9071 29.1322 29.4615 29.4202 29.0419 29.7371V21.2645C29.0419 20.9181 28.7433 20.6378 28.3755 20.6378H23.0411C22.6732 20.6378 22.3747 20.9181 22.3747 21.2645V36.3053C21.8625 36.3053 21.3949 36.4872 21.0408 36.7857V25.6514C21.0408 25.305 20.7423 25.0247 20.3744 25.0247H15.041C14.6722 25.0247 14.3736 25.305 14.3736 25.6514V40.1186L13.1812 41.5608C12.9548 41.8333 13.0075 42.2276 13.2977 42.44C13.4197 42.5287 13.5639 42.5722 13.7072 42.5722C13.905 42.5722 14.1019 42.4886 14.234 42.3303L18.5646 37.0956L20.3901 37.953C20.3799 38.0295 20.3744 38.1062 20.3744 38.1853C20.3744 39.222 21.2719 40.0655 22.3747 40.0655C23.4774 40.0655 24.3749 39.222 24.3749 38.1853C24.3749 37.9687 24.3352 37.7606 24.2631 37.5674L25.0598 36.9685C25.0478 37.1635 25.0414 37.3602 25.0414 37.5587C25.0414 43.0875 29.8266 47.5858 35.7091 47.5858C37.9284 47.5858 39.9925 46.9444 41.7015 45.8502L48.2958 52.0484C48.6738 52.4036 49.1757 52.5994 49.71 52.5994C50.2442 52.5994 50.7461 52.4036 51.1242 52.0484C51.5022 51.6933 51.7103 51.2215 51.7103 50.7193C51.7103 50.217 51.5022 49.7445 51.1242 49.3893L44.53 43.1911C45.6947 41.5843 46.3769 39.645 46.3769 37.5587C46.3769 34.5418 44.9515 31.8322 42.7017 29.9921L42.8478 29.8546C43.1094 29.9721 43.4014 30.0383 43.7092 30.0383C44.4616 30.0383 45.1179 29.6457 45.459 29.0677L47.5997 29.4029C47.6367 29.4089 47.6736 29.4116 47.7097 29.4116C47.9001 29.4116 48.0841 29.3349 48.2116 29.1974L51.7103 25.439V26.2781C51.7103 26.6236 52.0088 26.9048 52.3767 26.9048C52.7455 26.9048 53.0441 26.6236 53.0441 26.2781V23.7712C53.0441 23.4249 52.7455 23.1446 52.3767 23.1446Z" fill="#00D280"/>
</g>
<path d="M35.7089 43.8257C32.032 43.8257 29.0417 41.0143 29.0417 37.5587C29.0417 34.1031 32.032 31.2918 35.7089 31.2918C39.385 31.2918 42.3762 34.1031 42.3762 37.5587C42.3762 41.0143 39.385 43.8257 35.7089 43.8257ZM35.7089 30.0383C31.2971 30.0383 27.7079 33.4121 27.7079 37.5587C27.7079 41.7053 31.2971 45.0791 35.7089 45.0791C40.1198 45.0791 43.709 41.7053 43.709 37.5587C43.709 33.4121 40.1198 30.0383 35.7089 30.0383Z" fill="#00D280"/>
<path d="M35.7083 41.3187C33.5018 41.3187 31.7077 39.6319 31.7077 37.5586C31.7077 37.2121 31.4092 36.9319 31.0413 36.9319C30.6725 36.9319 30.3739 37.2121 30.3739 37.5586C30.3739 40.323 32.7671 42.5721 35.7083 42.5721C36.0761 42.5721 36.3747 42.291 36.3747 41.9455C36.3747 41.599 36.0761 41.3187 35.7083 41.3187Z" fill="#00D280"/>
</g>
</g>
</g>
<defs>
<clipPath id="clip0_1_3733">
<rect width="41" height="40.09" fill="white" transform="translate(12.5 12.5)"/>
</clipPath>
<clipPath id="clip1_1_3733">
<rect width="41" height="40.09" fill="white" transform="translate(12.5 12.5)"/>
</clipPath>
<clipPath id="clip2_1_3733">
<rect width="41" height="40.1087" fill="white" transform="translate(12.5 12.4907)"/>
</clipPath>
</defs>
</svg>
