<svg width="46" height="46" viewBox="0 0 46 46" fill="none" xmlns="http://www.w3.org/2000/svg">
<g clip-path="url(#clip0_1_3948)">
<g clip-path="url(#clip1_1_3948)">
<path d="M29.0357 33.9861L39.4184 29.8536V16.334L29.0357 20.4677V33.9861Z" fill="#00D280"/>
<mask id="mask0_1_3948" style="mask-type:luminance" maskUnits="userSpaceOnUse" x="0" y="5" width="28" height="36">
<path d="M0.47998 5.35938H27.5919V40.1779H0.47998V5.35938Z" fill="white"/>
</mask>
<g mask="url(#mask0_1_3948)">
<path d="M27.3064 35.7349L15.7179 31.1227C15.4002 30.9952 15.1931 30.7049 15.1931 30.3844C15.1931 30.3844 15.1931 15.5301 15.1931 15.1221C15.1931 14.7141 15.6814 14.3922 15.7179 14.3777L27.3064 9.76426V5.47266H0.484863V40.0265H27.3064V35.7349ZM10.8676 7.48245C10.8676 7.03799 11.2557 6.67853 11.7322 6.67853H16.4913C16.9692 6.67853 17.3572 7.03799 17.3572 7.48245C17.3572 7.92569 16.9692 8.28515 16.4913 8.28515H12.5981V11.9016C12.5981 12.3448 12.2101 12.7055 11.7322 12.7055C11.2557 12.7055 10.8676 12.3448 10.8676 11.9016V7.48245ZM16.4913 38.8218H11.7322C11.2557 38.8218 10.8676 38.4612 10.8676 38.0179V33.5976C10.8676 33.1543 11.2557 32.7949 11.7322 32.7949C12.2101 32.7949 12.5981 33.1543 12.5981 33.5976V37.214H16.4913C16.9692 37.214 17.3572 37.5747 17.3572 38.0179C17.3572 38.4612 16.9692 38.8218 16.4913 38.8218Z" fill="#00D280"/>
</g>
<path d="M16.9214 29.8536L27.3042 33.9861V20.4677L16.9214 16.334V29.8536Z" fill="#00D280"/>
<mask id="mask1_1_3948" style="mask-type:luminance" maskUnits="userSpaceOnUse" x="0" y="41" width="28" height="5">
<path d="M0.47998 41.4238H27.5919V45.2491H0.47998V41.4238Z" fill="white"/>
</mask>
<g mask="url(#mask1_1_3948)">
<path d="M0.484863 41.6328V42.8375C0.484863 44.1672 1.64892 45.248 3.0812 45.248H24.7113C26.1423 45.248 27.3064 44.1672 27.3064 42.8375V41.6328H0.484863Z" fill="#00D280"/>
</g>
<path d="M28.171 11.168L18.2544 15.1147L28.171 19.0614L38.0877 15.1147L28.171 11.168Z" fill="#00D280"/>
<mask id="mask2_1_3948" style="mask-type:luminance" maskUnits="userSpaceOnUse" x="0" y="0" width="28" height="5">
<path d="M0.47998 0.25H27.5919V4.119H0.47998V0.25Z" fill="white"/>
</mask>
<g mask="url(#mask2_1_3948)">
<path d="M27.3064 3.86641V2.66054C27.3064 1.33201 26.1423 0.25 24.7113 0.25H3.0812C1.64892 0.25 0.484863 1.33201 0.484863 2.66054V3.86641H27.3064Z" fill="#00D280"/>
</g>
<mask id="mask3_1_3948" style="mask-type:luminance" maskUnits="userSpaceOnUse" x="38" y="6" width="8" height="7">
<path d="M38.9263 6.60742H45.4809V12.825H38.9263V6.60742Z" fill="white"/>
</mask>
<g mask="url(#mask3_1_3948)">
<path d="M45.477 7.4836C45.477 7.03914 45.0903 6.67969 44.6125 6.67969H39.8534C39.3755 6.67969 38.9888 7.03914 38.9888 7.4836C38.9888 7.92685 39.3755 8.28631 39.8534 8.28631H43.7466V11.9027C43.7466 12.346 44.1346 12.7066 44.6125 12.7066C45.0903 12.7066 45.477 12.346 45.477 11.9027V7.4836Z" fill="#00D280"/>
</g>
<mask id="mask4_1_3948" style="mask-type:luminance" maskUnits="userSpaceOnUse" x="38" y="32" width="8" height="7">
<path d="M38.9263 32.7227H45.4809V38.9403H38.9263V32.7227Z" fill="white"/>
</mask>
<g mask="url(#mask4_1_3948)">
<path d="M45.477 38.0199V33.5996C45.477 33.1563 45.0903 32.7969 44.6125 32.7969C44.1346 32.7969 43.7466 33.1563 43.7466 33.5996V37.216H39.8534C39.3755 37.216 38.9888 37.5767 38.9888 38.0199C38.9888 38.4632 39.3755 38.8238 39.8534 38.8238H44.6125C45.0903 38.8238 45.477 38.4632 45.477 38.0199Z" fill="#00D280"/>
</g>
</g>
</g>
<defs>
<clipPath id="clip0_1_3948">
<rect width="45" height="45" fill="white" transform="translate(0.47998 0.25)"/>
</clipPath>
<clipPath id="clip1_1_3948">
<rect width="45" height="45" fill="white" transform="translate(0.47998 0.25)"/>
</clipPath>
</defs>
</svg>
