<svg width="58" height="56" viewBox="0 0 58 56" fill="none" xmlns="http://www.w3.org/2000/svg">
<g clip-path="url(#clip0_1_3767)">
<g clip-path="url(#clip1_1_3767)">
<g clip-path="url(#clip2_1_3767)">
<path d="M36.3998 41.733L49.0899 36.6821V20.1582L36.3998 25.2105V41.733Z" fill="#0575AD"/>
<mask id="mask0_1_3767" style="mask-type:luminance" maskUnits="userSpaceOnUse" x="1" y="6" width="34" height="44">
<path d="M1.49841 6.74878H34.6351V49.3049H1.49841V6.74878Z" fill="white"/>
</mask>
<g mask="url(#mask0_1_3767)">
<path d="M34.2848 43.871L20.121 38.2338C19.7327 38.0781 19.4797 37.7232 19.4797 37.3315C19.4797 37.3315 19.4797 19.1763 19.4797 18.6775C19.4797 18.1789 20.0766 17.7856 20.121 17.7677L34.2848 12.1291V6.88379H1.50299V49.1162H34.2848V43.871ZM14.193 9.3402C14.193 8.79697 14.6673 8.35763 15.2497 8.35763H21.0664C21.6505 8.35763 22.1248 8.79697 22.1248 9.3402C22.1248 9.88195 21.6505 10.3213 21.0664 10.3213H16.308V14.7413C16.308 15.2831 15.8338 15.7239 15.2497 15.7239C14.6673 15.7239 14.193 15.2831 14.193 14.7413V9.3402ZM21.0664 47.6438H15.2497C14.6673 47.6438 14.193 47.203 14.193 46.6614V41.2586C14.193 40.717 14.6673 40.2776 15.2497 40.2776C15.8338 40.2776 16.308 40.717 16.308 41.2586V45.6787H21.0664C21.6505 45.6787 22.1248 46.1195 22.1248 46.6614C22.1248 47.203 21.6505 47.6438 21.0664 47.6438Z" fill="#0575AD"/>
</g>
<path d="M21.5939 36.6821L34.284 41.733V25.2105L21.5939 20.1582V36.6821Z" fill="#0575AD"/>
<mask id="mask1_1_3767" style="mask-type:luminance" maskUnits="userSpaceOnUse" x="1" y="50" width="34" height="6">
<path d="M1.49841 50.8257H34.6351V55.501H1.49841V50.8257Z" fill="white"/>
</mask>
<g mask="url(#mask1_1_3767)">
<path d="M1.50299 51.0803V52.5528C1.50299 54.1779 2.92573 55.4989 4.6763 55.4989H31.113C32.862 55.4989 34.2848 54.1779 34.2848 52.5528V51.0803H1.50299Z" fill="#0575AD"/>
</g>
<path d="M35.3425 13.845L23.2221 18.6688L35.3425 23.4925L47.4628 18.6688L35.3425 13.845Z" fill="#0575AD"/>
<mask id="mask2_1_3767" style="mask-type:luminance" maskUnits="userSpaceOnUse" x="1" y="0" width="34" height="6">
<path d="M1.49841 0.5H34.6351V5.22877H1.49841V0.5Z" fill="white"/>
</mask>
<g mask="url(#mask2_1_3767)">
<path d="M34.2848 4.92005V3.44621C34.2848 1.82245 32.862 0.5 31.113 0.5H4.6763C2.92573 0.5 1.50299 1.82245 1.50299 3.44621V4.92005H34.2848Z" fill="#0575AD"/>
</g>
<mask id="mask3_1_3767" style="mask-type:luminance" maskUnits="userSpaceOnUse" x="48" y="8" width="9" height="8">
<path d="M48.4893 8.26807H56.5006V15.8674H48.4893V8.26807Z" fill="white"/>
</mask>
<g mask="url(#mask3_1_3767)">
<path d="M56.493 9.33974C56.493 8.79652 56.0205 8.35718 55.4364 8.35718H49.6197C49.0356 8.35718 48.5629 8.79652 48.5629 9.33974C48.5629 9.88149 49.0356 10.3208 49.6197 10.3208H54.378V14.7409C54.378 15.2826 54.8523 15.7234 55.4364 15.7234C56.0205 15.7234 56.493 15.2826 56.493 14.7409V9.33974Z" fill="#0575AD"/>
</g>
<mask id="mask4_1_3767" style="mask-type:luminance" maskUnits="userSpaceOnUse" x="48" y="40" width="9" height="8">
<path d="M48.4893 40.1848H56.5006V47.7841H48.4893V40.1848Z" fill="white"/>
</mask>
<g mask="url(#mask4_1_3767)">
<path d="M56.493 46.6606V41.2579C56.493 40.7162 56.0205 40.2769 55.4364 40.2769C54.8523 40.2769 54.378 40.7162 54.378 41.2579V45.678H49.6197C49.0356 45.678 48.5629 46.1188 48.5629 46.6606C48.5629 47.2023 49.0356 47.6431 49.6197 47.6431H55.4364C56.0205 47.6431 56.493 47.2023 56.493 46.6606Z" fill="#0575AD"/>
</g>
</g>
</g>
</g>
<defs>
<clipPath id="clip0_1_3767">
<rect width="56.56" height="55" fill="white" transform="translate(0.719971 0.5)"/>
</clipPath>
<clipPath id="clip1_1_3767">
<rect width="56.56" height="55" fill="white" transform="translate(0.719971 0.5)"/>
</clipPath>
<clipPath id="clip2_1_3767">
<rect width="56.5714" height="55" fill="white" transform="translate(0.714233 0.5)"/>
</clipPath>
</defs>
</svg>
