<svg width="56" height="56" viewBox="0 0 56 56" fill="none" xmlns="http://www.w3.org/2000/svg">
<g clip-path="url(#clip0_1_3879)">
<g clip-path="url(#clip1_1_3879)">
<g clip-path="url(#clip2_1_3879)">
<mask id="mask0_1_3879" style="mask-type:luminance" maskUnits="userSpaceOnUse" x="1" y="1" width="54" height="55">
<path d="M1.26392 1.87549H54.7361V55.3477H1.26392V1.87549Z" fill="white"/>
</mask>
<g mask="url(#mask0_1_3879)">
<path d="M51.5107 41.4364C51.5107 44.1458 51.3194 45.8477 50.9355 46.5436L49.3645 49.5648C49.086 50.0869 48.2141 50.8607 46.7488 51.8848C45.2835 52.9105 43.7653 53.7696 42.1945 54.4636C40.6236 55.1597 39.5951 55.3681 39.1054 55.089L36.3842 53.3183C35.6178 52.867 35.1192 52.1801 34.8934 51.2594C34.6659 50.3388 34.7788 49.4615 35.2337 48.6278L43.1374 33.6177C43.5907 32.8204 44.235 32.2893 45.0742 32.0284C45.9115 31.7691 46.7142 31.8816 47.4806 32.3672L50.2037 34.0872C50.3766 34.1923 50.5349 34.4007 50.6733 34.7125C51.2322 32.6627 51.5107 30.6129 51.5107 28.5631C51.5107 25.5401 50.9537 22.6565 49.8359 19.9126C48.7202 17.1669 47.1675 14.7365 45.1779 12.616L41.461 13.5548C37.9715 10.2183 33.5063 8.55088 28.0619 8.55088C22.6193 8.55088 18.1524 10.2183 14.6629 13.5548L10.9459 12.616C8.95819 14.7365 7.40551 17.1669 6.28786 19.9126C5.17203 22.6565 4.61322 25.5401 4.61322 28.5631C4.61322 30.6129 4.89172 32.6627 5.45053 34.7125C5.59069 34.4007 5.74724 34.1923 5.92199 34.0872L8.64328 32.3672C9.41143 31.8816 10.2142 31.7691 11.0515 32.0284C11.8888 32.2893 12.535 32.8204 12.9883 33.6177L20.8919 48.6278C21.3452 49.4615 21.4579 50.3388 21.2323 51.2594C21.0048 52.1801 20.5078 52.867 19.7396 53.3183L17.0184 55.089C16.5305 55.3681 15.5002 55.1597 13.9293 54.4636C12.3603 53.7696 10.8422 52.9105 9.37686 51.8848C7.91154 50.8607 7.03782 50.0869 6.7593 49.5648L5.18841 46.5436C4.80434 45.8477 4.61322 44.1458 4.61322 41.4364C2.37974 37.4401 1.26392 33.1502 1.26392 28.5631C1.26392 24.9511 1.97018 21.493 3.38271 18.1927C4.79706 14.8924 6.69741 12.0524 9.08925 9.67273C11.4793 7.29127 14.3316 5.39917 17.6463 3.99095C20.9611 2.58454 24.4342 1.88135 28.0619 1.88135C31.6916 1.88135 35.1629 2.58454 38.4775 3.99095C41.794 5.39917 44.6464 7.29127 47.0364 9.67273C49.4263 12.0524 51.3286 14.8924 52.7412 18.1927C54.1554 21.493 54.8617 24.9511 54.8617 28.5631C54.8617 33.1502 53.7442 37.4401 51.5107 41.4364Z" fill="#0575AD"/>
</g>
</g>
</g>
</g>
<defs>
<clipPath id="clip0_1_3879">
<rect width="55" height="55" fill="white" transform="translate(0.5 0.5)"/>
</clipPath>
<clipPath id="clip1_1_3879">
<rect width="55" height="55" fill="white" transform="translate(0.5 0.5)"/>
</clipPath>
<clipPath id="clip2_1_3879">
<rect width="55" height="55" fill="white" transform="translate(0.5 0.5)"/>
</clipPath>
</defs>
</svg>
