<svg width="66" height="66" viewBox="0 0 66 66" fill="none" xmlns="http://www.w3.org/2000/svg">
<rect x="0.5" y="0.5" width="65" height="65" rx="8" fill="#00D280" fill-opacity="0.2"/>
<g clip-path="url(#clip0_1_3703)">
<g clip-path="url(#clip1_1_3703)">
<g clip-path="url(#clip2_1_3703)">
<path d="M38.4862 33.0139L37.431 33.6851L38.4915 34.3479L42.1345 36.6247C40.111 38.7541 40.0642 41.5243 40.5068 43.707C40.7275 44.7963 41.0753 45.7786 41.3921 46.5326L28.5724 43.3383C29.2603 41.0426 29.2256 39.3391 28.9396 38.1297C28.6205 36.78 28.0034 36.1085 27.8459 35.9544L27.6098 35.7232L27.2794 35.7294C26.8734 35.7371 26.5486 35.7348 26.3268 35.7307C26.2159 35.7287 26.1309 35.7263 26.0745 35.7244L26.0203 35.7223C22.3229 35.2639 20.5091 33.1412 19.5857 31.1074C19.1165 30.0741 18.8791 29.0621 18.76 28.3048C18.7007 27.9276 18.6713 27.6176 18.6568 27.4049C18.6495 27.2987 18.646 27.2171 18.6443 27.164C18.6434 27.1375 18.643 27.118 18.6428 27.1062L18.6427 27.0943L18.6427 27.0931V27.0766L18.6419 27.0589C18.6391 26.9976 18.6367 26.9601 18.6348 26.9316C18.6325 26.8964 18.6311 26.8747 18.6311 26.8386C18.6311 25.6256 19.2074 24.4072 20.3315 23.2661C21.4568 22.1237 23.0941 21.1009 25.0933 20.3121C29.0925 18.7342 34.3993 18.1479 39.5398 19.2917L39.5685 19.2981L39.5975 19.3023C41.2055 19.5361 42.0757 20.1672 42.5593 20.8907C43.0615 21.6419 43.2275 22.6132 43.1816 23.6535C43.1359 24.6873 42.884 25.7111 42.6353 26.4897C42.512 26.8757 42.3918 27.1941 42.3032 27.4144C42.259 27.5243 42.2228 27.6094 42.1983 27.6657C42.1925 27.6789 42.1875 27.6904 42.183 27.7003C42.178 27.7117 42.1739 27.7209 42.1707 27.728L42.1644 27.7418L42.1635 27.7438L42.1211 27.8349L42.1029 27.9336C41.6789 30.2334 40.3108 31.8534 38.4862 33.0139Z" stroke="#00D280" stroke-width="1.57692"/>
<path d="M38.9094 33.6789C40.8715 32.4309 42.4053 30.6411 42.8783 28.0763C42.8783 28.0763 46.8434 19.5588 39.7111 18.5217C29.1167 16.1644 17.8427 20.9244 17.8427 26.8382C17.8427 26.924 17.8504 27.0082 17.8542 27.094C17.8542 27.094 17.8565 35.5267 25.9557 36.5084C25.9557 36.5084 26.461 36.533 27.2943 36.5174C27.4401 36.6601 29.4015 38.6968 27.5597 43.8982L42.839 47.7053C42.839 47.7053 38.4812 40.3569 43.4369 36.5084L38.9094 33.6789Z" stroke="#00D280" stroke-width="1.57692" stroke-miterlimit="10" stroke-linecap="round" stroke-linejoin="round"/>
<path d="M37.5336 18.136C43.8527 19.0675 43.5194 19.3949 45.8843 22.7433C46.7778 24.0064 47.4359 25.1445 47.8641 26.2721C48.3602 27.3778 49.3061 28.8716 49.3061 28.8716C49.9218 29.6478 51.2999 30.3998 51.2999 30.3998L51.1996 30.8742L48.3193 31.0384C48.3193 31.0431 48.3178 31.0484 48.3169 31.0531L48.8749 36.0573C48.8749 36.663 47.3 36.5072 47.3 36.5072H39.1686C38.8592 36.343 38.5475 36.1787 38.2349 36.0128" stroke="#00D280" stroke-width="1.57692" stroke-miterlimit="10" stroke-linecap="round" stroke-linejoin="round"/>
<path d="M45.3145 26.4832C45.3145 26.9059 45.0506 27.2485 44.1672 27.2485C43.283 27.2485 42.5662 26.9059 42.5662 26.4832C42.5662 26.0617 43.283 25.7202 44.1672 25.7202C45.0506 25.7202 45.3145 26.0617 45.3145 26.4832Z" stroke="#00D280" stroke-width="1.57692" stroke-miterlimit="10" stroke-linecap="round" stroke-linejoin="round"/>
<path d="M41.3527 25.5074C41.3527 25.5074 42.9105 24.7092 45.0702 24.7092" stroke="#00D280" stroke-width="1.57692" stroke-miterlimit="10" stroke-linecap="round" stroke-linejoin="round"/>
<path d="M33.8388 30.9333C33.9175 31.8706 33.8936 32.5192 32.6869 32.5192C29.4895 32.5192 28.11 29.3653 29.3005 27.7074C29.5828 27.3129 30.2403 27.0081 30.9092 27.0081C31.7441 27.0081 32.4569 27.3129 32.9616 27.8088" stroke="#00D280" stroke-width="1.57692" stroke-miterlimit="10" stroke-linecap="round" stroke-linejoin="round"/>
<path d="M28.7301 42.2944L34.2456 43.2438L28.6378 42.5468L28.7301 42.2944Z" stroke="#00D280" stroke-width="1.57692"/>
<path d="M27.5568 43.2073L28.2156 41.406L42.1909 43.812L42.5667 45.073L27.5568 43.2073Z" stroke="#00D280" stroke-width="1.57692" stroke-miterlimit="10" stroke-linecap="round" stroke-linejoin="round"/>
<path d="M46.0441 47.6799C48.4343 48.8711 49.5772 50.6841 50.2277 52.717C50.5572 53.747 50.7585 54.8298 50.9261 55.9241C50.9777 56.26 51.0265 56.6017 51.0754 56.9435C51.1823 57.6906 51.2894 58.4388 51.424 59.1302C51.4655 59.3448 51.5017 59.5463 51.5369 59.7472H21.2452C21.2347 59.4147 21.2287 58.9783 21.2389 58.4615C21.2634 57.2126 21.3823 55.5048 21.7573 53.6635C22.4986 50.0247 24.2051 46.0205 27.9868 43.8694L42.3314 45.8373C43.5706 46.4506 44.8089 47.064 46.0441 47.6799Z" stroke="#00D280" stroke-width="1.57692"/>
<mask id="mask0_1_3703" style="mask-type:luminance" maskUnits="userSpaceOnUse" x="19" y="42" width="34" height="19">
<path d="M20.5797 43.4941H52.1861V60.0603H20.5797V43.4941Z" fill="white" stroke="white" stroke-width="1.57692"/>
</mask>
<g mask="url(#mask0_1_3703)">
<path d="M20.498 60.5363C20.498 60.5363 19.353 47.6187 27.8355 43.0532L42.567 45.0742C43.8446 45.7066 45.1223 46.3394 46.397 46.9748C51.6513 49.5937 51.4291 55.0273 52.1992 58.9809C52.2994 59.4986 52.382 60.0185 52.4785 60.5363H20.498Z" stroke="#00D280" stroke-width="1.57692" stroke-miterlimit="10" stroke-linecap="round" stroke-linejoin="round"/>
</g>
<path d="M28.0155 37.5838C19.9875 34.9526 16.9371 31.0178 15.9489 27.7381C15.4393 26.0465 15.4603 24.4763 15.6795 23.2627C15.7891 22.6556 15.9469 22.1461 16.1064 21.7635C16.2633 21.3871 16.3982 21.1903 16.4532 21.128C16.4576 21.1278 16.5259 21.0816 16.7204 20.996C16.9363 20.901 17.2356 20.7875 17.6155 20.6578C18.3732 20.3992 19.4029 20.0926 20.6243 19.7577C23.0641 19.0888 26.229 18.3179 29.4243 17.6064C32.6199 16.8949 35.8346 16.2454 38.3748 15.8179C39.6464 15.6038 40.7377 15.4474 41.5684 15.3658C41.9846 15.3249 42.3228 15.3041 42.5791 15.3026C42.8339 15.3011 42.9408 15.3201 42.957 15.3229C42.9588 15.3233 42.9596 15.3234 42.9591 15.3232C43.0817 15.3644 43.122 15.4106 43.1387 15.434C43.1602 15.4642 43.1916 15.5279 43.2019 15.6577C43.2245 15.9432 43.1326 16.3649 42.9347 16.8681C42.7446 17.3515 42.4908 17.8267 42.2787 18.1879C42.198 18.3255 42.1247 18.4441 42.0654 18.5375C41.9732 18.5697 41.8611 18.6119 41.7236 18.6675C41.249 18.8593 40.4377 19.2249 39.0524 19.9283C38.1527 20.3853 37.5847 21.159 37.2313 21.9796C36.88 22.7952 36.7199 23.7012 36.6535 24.5173C36.5867 25.3389 36.6119 26.107 36.6528 26.6665C36.6595 26.7576 36.6666 26.8436 36.6738 26.9236L35.2855 27.3534C35.1608 27.2326 35.0066 27.0883 34.8279 26.9312C34.3371 26.5 33.6394 25.953 32.8469 25.5393C32.0662 25.1319 31.104 24.8066 30.12 24.9484C29.0824 25.098 28.1776 25.7422 27.516 26.9526C26.1845 29.3899 27.0156 31.5458 28.0759 32.9868C28.6037 33.7041 29.2026 34.2711 29.6639 34.6562C29.7909 34.7622 29.9085 34.8554 30.0127 34.935C29.8059 35.4892 29.3711 36.1152 28.8703 36.6931C28.5686 37.0413 28.2724 37.339 28.0512 37.5498C28.039 37.5615 28.0271 37.5727 28.0155 37.5838Z" stroke="#00D280" stroke-width="1.57692"/>
<path d="M28.2079 38.4739C28.2079 38.4739 30.6629 36.3917 30.909 34.6061C30.909 34.6061 25.9479 31.4675 28.2079 27.3309C30.4693 23.1938 35.0601 28.2488 35.0601 28.2488L37.5329 27.4831C37.5329 27.4831 36.658 22.029 39.4094 20.6315C42.1608 19.2345 42.565 19.2136 42.565 19.2136C42.565 19.2136 45.2926 15.2747 43.2101 14.5759C41.1292 13.8772 17.1714 19.3114 15.9114 20.5541C14.6507 21.7957 11.1602 33.1035 28.2079 38.4739Z" stroke="#00D280" stroke-width="1.57692" stroke-miterlimit="10" stroke-linecap="round" stroke-linejoin="round"/>
<path d="M47.649 20.5364L42.3941 22.9237C40.8051 22.9427 38.3293 23.3555 35.5555 23.9418C32.6513 24.5555 29.3447 25.3766 26.2316 26.1969C23.1171 27.0176 20.1892 27.8394 18.0404 28.4559C16.9658 28.7642 16.0856 29.0213 15.4738 29.2013C15.3158 29.2478 15.1757 29.2892 15.0548 29.325C14.8745 28.929 14.8265 28.3617 14.8927 27.7046C14.9336 27.2981 15.012 26.9216 15.0812 26.6448C15.0868 26.6222 15.0924 26.6004 15.0979 26.5792L30.7021 21.2947L30.9342 21.2161L31.0808 21.0199M47.649 20.5364L31.0808 21.0199M47.649 20.5364C47.5965 20.4452 47.5389 20.347 47.4765 20.2426C47.1045 19.621 46.563 18.7891 45.8837 17.9435C44.4921 16.211 42.6633 14.598 40.6543 14.3556C39.7099 14.2417 38.6502 14.5329 37.5386 15.1218C36.4342 15.7069 35.3476 16.5494 34.379 17.432C33.4136 18.3114 32.5863 19.2113 31.9994 19.8932C31.7065 20.2335 31.4749 20.5178 31.3173 20.7159C31.2386 20.8149 31.1785 20.8922 31.1384 20.9442C31.1184 20.9701 31.1036 20.9897 31.0939 21.0025L31.0834 21.0164L31.0808 21.0199" stroke="#00D280" stroke-width="1.57692"/>
<path d="M14.744 30.2402C14.744 30.2402 36.6394 23.6679 42.5658 23.7119L48.746 20.9042C48.746 20.9042 45.4182 14.1363 40.7488 13.573C36.0793 13.0097 30.4491 20.5481 30.4491 20.5481L14.4554 25.9644C14.4554 25.9644 13.4331 28.9692 14.744 30.2402Z" stroke="#00D280" stroke-width="1.57692" stroke-miterlimit="10" stroke-linecap="round" stroke-linejoin="round"/>
<path d="M48.597 20.916C49.6624 20.916 50.6971 20.96 51.688 21.043V29.1725C50.6973 29.2554 49.6625 29.299 48.597 29.299C44.8081 29.299 42.1127 28.7482 40.3959 27.9196C38.6862 27.0943 38.0706 26.071 38.0706 25.1077C38.0706 24.1456 38.6861 23.1221 40.396 22.2964C42.1129 21.4674 44.8082 20.916 48.597 20.916Z" stroke="#00D280" stroke-width="1.57692"/>
<path d="M52.4765 20.3259V29.8909C51.2467 30.0196 49.945 30.0881 48.5971 30.0881C40.9 30.0881 37.2821 27.8606 37.2821 25.1084C37.2821 22.3583 40.9 20.1282 48.5971 20.1282C49.945 20.1282 51.2467 20.1972 52.4765 20.3259Z" stroke="#00D280" stroke-width="1.57692" stroke-miterlimit="10" stroke-linecap="round" stroke-linejoin="round"/>
<path d="M49.6039 22.2056C50.3208 22.2056 51.0187 22.2327 51.6895 22.2839V27.9306C51.0187 27.9819 50.3208 28.0091 49.6039 28.0091C46.811 28.0091 44.8483 27.6022 43.6151 27.0068C42.3889 26.4147 42.0078 25.7138 42.0078 25.107C42.0078 24.5009 42.3888 23.8 43.6151 23.208C44.8484 22.6125 46.811 22.2056 49.6039 22.2056Z" stroke="#00D280" stroke-width="1.57692"/>
<path d="M52.478 21.5647V28.6521C51.5676 28.7473 50.6031 28.7986 49.6039 28.7986C43.899 28.7986 41.2194 27.1469 41.2194 25.1082C41.2194 23.0705 43.899 21.4182 49.6039 21.4182C50.6031 21.4182 51.5676 21.4695 52.478 21.5647Z" stroke="#00D280" stroke-width="1.57692" stroke-miterlimit="10" stroke-linecap="round" stroke-linejoin="round"/>
<path d="M35.4188 18.3803C35.4188 18.3803 38.0868 15.0789 40.5335 14.6992" stroke="#00D280" stroke-width="1.57692" stroke-miterlimit="10" stroke-linecap="round" stroke-linejoin="round"/>
</g>
</g>
</g>
<defs>
<clipPath id="clip0_1_3703">
<rect width="41" height="48.34" fill="white" transform="translate(12.5 12.5)"/>
</clipPath>
<clipPath id="clip1_1_3703">
<rect width="41" height="48.34" fill="white" transform="translate(12.5 12.5)"/>
</clipPath>
<clipPath id="clip2_1_3703">
<rect width="41" height="48.359" fill="white" transform="translate(12.5 12.4905)"/>
</clipPath>
</defs>
</svg>
