<svg width="56" height="55" viewBox="0 0 56 55" fill="none" xmlns="http://www.w3.org/2000/svg">
<g clip-path="url(#clip0_1_3847)">
<mask id="mask0_1_3847" style="mask-type:luminance" maskUnits="userSpaceOnUse" x="0" y="0" width="56" height="55">
<path d="M0.5 0H55.5V55H0.5V0Z" fill="white"/>
</mask>
<g mask="url(#mask0_1_3847)">
<path fill-rule="evenodd" clip-rule="evenodd" d="M3.87384 24.1261C5.4605 24.1261 6.79095 25.2211 7.1522 26.6979H15.8287V28.3021H7.1522C6.79095 29.7773 5.4605 30.8739 3.87384 30.8739C2.01027 30.8739 0.5 29.3636 0.5 27.5C0.5 25.6364 2.01027 24.1261 3.87384 24.1261ZM19.037 32.2107V26.4926C19.0355 25.8879 19.6991 25.4916 20.237 25.8003L25.1243 28.622C25.4012 28.7493 25.5938 29.0277 25.5938 29.3524V35.0705C25.5938 35.6752 24.9301 36.0715 24.3939 35.7627L19.5049 32.9411C19.2295 32.8138 19.037 32.5353 19.037 32.2107ZM20.6412 27.8771V31.7523L23.9896 33.6859V29.8108L20.6412 27.8771ZM37.7715 20.9354L28 15.2937L18.227 20.9354L28 26.5769L37.7715 20.9354ZM22.6465 20.243L27.5894 17.3896C27.8314 17.2464 28.14 17.2337 28.401 17.3833L33.3535 20.243C33.8771 20.5471 33.8883 21.3189 33.3504 21.6276L28.409 24.481C28.1686 24.6243 27.8616 24.637 27.6021 24.4874L22.6909 21.653C22.1276 21.3746 22.0878 20.5661 22.6465 20.243ZM28 19.0001L31.3531 20.9369L28 22.8737L24.6453 20.9369L28 19.0001ZM38.5671 33.6047L28.8021 39.2416V27.9584L38.5671 22.3215V33.6047ZM30.8105 28.6602L35.6962 25.8385C36.2181 25.4677 36.963 25.8354 36.963 26.4926V32.2107C36.9614 32.4876 36.8149 32.7566 36.5588 32.9029L31.6715 35.7245C31.1495 36.0954 30.4062 35.7277 30.4062 35.0705V29.3524C30.4062 29.0755 30.5526 28.8066 30.8105 28.6602ZM35.3588 27.8771L32.0104 29.8108V33.6859L35.3588 31.7523V27.8771ZM17.4329 22.3215V33.6047L27.1979 39.2416V27.9584L17.4329 22.3215ZM27.1979 13.9123V6.6522C25.7211 6.29253 24.6246 4.9605 24.6246 3.37384C24.6246 1.51027 26.1364 0 28 0C29.8636 0 31.3739 1.51027 31.3739 3.37384C31.3739 4.9605 30.2773 6.29253 28.8021 6.6522V13.9123L28.409 13.6863C28.1686 13.5431 27.8616 13.5304 27.6021 13.68L27.1979 13.9123ZM40.1713 26.6979H48.8478C49.2075 25.2211 50.5379 24.1261 52.1261 24.1261C53.9881 24.1261 55.5 25.6364 55.5 27.5C55.5 29.3636 53.9881 30.8739 52.1261 30.8739C50.5379 30.8739 49.2075 29.7773 48.8478 28.3021H40.1713V26.6979ZM28.8021 41.0861V48.3478C30.2773 48.7075 31.3739 50.0379 31.3739 51.6261C31.3739 53.4897 29.8636 55 28 55C26.1364 55 24.6246 53.4897 24.6246 51.6261C24.6246 50.0379 25.7211 48.7075 27.1979 48.3478V41.0861L27.591 41.3136C27.8424 41.4648 28.1559 41.4632 28.409 41.3136L28.8021 41.0861Z" fill="#0575AD"/>
</g>
</g>
<defs>
<clipPath id="clip0_1_3847">
<rect width="55" height="55" fill="white" transform="translate(0.5)"/>
</clipPath>
</defs>
</svg>
