<svg width="56" height="56" viewBox="0 0 56 56" fill="none" xmlns="http://www.w3.org/2000/svg">
<g clip-path="url(#clip0_1_3845)">
<g clip-path="url(#clip1_1_3845)">
<g clip-path="url(#clip2_1_3845)">
<mask id="mask0_1_3845" style="mask-type:luminance" maskUnits="userSpaceOnUse" x="0" y="0" width="56" height="56">
<path d="M0.5 0.5H55.5V55.5H0.5V0.5Z" fill="white"/>
</mask>
<g mask="url(#mask0_1_3845)">
<path fill-rule="evenodd" clip-rule="evenodd" d="M3.87384 24.6261C5.4605 24.6261 6.79095 25.7211 7.1522 27.1979H15.8287V28.8021H7.1522C6.79095 30.2773 5.4605 31.3739 3.87384 31.3739C2.01027 31.3739 0.5 29.8636 0.5 28C0.5 26.1364 2.01027 24.6261 3.87384 24.6261ZM19.037 32.7107V26.9926C19.0355 26.3879 19.6991 25.9916 20.237 26.3003L25.1243 29.122C25.4012 29.2493 25.5938 29.5277 25.5938 29.8524V35.5705C25.5938 36.1752 24.9301 36.5715 24.3939 36.2627L19.5049 33.4411C19.2295 33.3138 19.037 33.0353 19.037 32.7107ZM20.6412 28.3771V32.2523L23.9896 34.1859V30.3108L20.6412 28.3771ZM37.7715 21.4354L28 15.7937L18.227 21.4354L28 27.0769L37.7715 21.4354ZM22.6465 20.743L27.5894 17.8896C27.8314 17.7464 28.14 17.7337 28.401 17.8833L33.3535 20.743C33.8771 21.0471 33.8883 21.8189 33.3504 22.1276L28.409 24.981C28.1686 25.1243 27.8616 25.137 27.6021 24.9874L22.6909 22.153C22.1276 21.8746 22.0878 21.0661 22.6465 20.743ZM28 19.5001L31.3531 21.4369L28 23.3737L24.6453 21.4369L28 19.5001ZM38.5671 34.1047L28.8021 39.7416V28.4584L38.5671 22.8215V34.1047ZM30.8105 29.1602L35.6962 26.3385C36.2181 25.9677 36.963 26.3354 36.963 26.9926V32.7107C36.9614 32.9876 36.8149 33.2566 36.5588 33.4029L31.6715 36.2245C31.1495 36.5954 30.4062 36.2277 30.4062 35.5705V29.8524C30.4062 29.5755 30.5526 29.3066 30.8105 29.1602ZM35.3588 28.3771L32.0104 30.3108V34.1859L35.3588 32.2523V28.3771ZM17.4329 22.8215V34.1047L27.1979 39.7416V28.4584L17.4329 22.8215ZM27.1979 14.4123V7.1522C25.7211 6.79253 24.6246 5.4605 24.6246 3.87384C24.6246 2.01027 26.1364 0.5 28 0.5C29.8636 0.5 31.3739 2.01027 31.3739 3.87384C31.3739 5.4605 30.2773 6.79253 28.8021 7.1522V14.4123L28.409 14.1863C28.1686 14.0431 27.8616 14.0304 27.6021 14.18L27.1979 14.4123ZM40.1713 27.1979H48.8478C49.2075 25.7211 50.5379 24.6261 52.1261 24.6261C53.9881 24.6261 55.5 26.1364 55.5 28C55.5 29.8636 53.9881 31.3739 52.1261 31.3739C50.5379 31.3739 49.2075 30.2773 48.8478 28.8021H40.1713V27.1979ZM28.8021 41.5861V48.8478C30.2773 49.2075 31.3739 50.5379 31.3739 52.1261C31.3739 53.9897 29.8636 55.5 28 55.5C26.1364 55.5 24.6246 53.9897 24.6246 52.1261C24.6246 50.5379 25.7211 49.2075 27.1979 48.8478V41.5861L27.591 41.8136C27.8424 41.9648 28.1559 41.9632 28.409 41.8136L28.8021 41.5861Z" fill="white"/>
</g>
</g>
</g>
</g>
<defs>
<clipPath id="clip0_1_3845">
<rect width="55" height="55" fill="white" transform="translate(0.5 0.5)"/>
</clipPath>
<clipPath id="clip1_1_3845">
<rect width="55" height="55" fill="white" transform="translate(0.5 0.5)"/>
</clipPath>
<clipPath id="clip2_1_3845">
<rect width="55" height="55" fill="white" transform="translate(0.5 0.5)"/>
</clipPath>
</defs>
</svg>
