<svg width="46" height="46" viewBox="0 0 46 46" fill="none" xmlns="http://www.w3.org/2000/svg">
<g clip-path="url(#clip0_1_4024)">
<g clip-path="url(#clip1_1_4024)">
<mask id="mask0_1_4024" style="mask-type:luminance" maskUnits="userSpaceOnUse" x="0" y="0" width="46" height="46">
<path d="M0.160034 0.25H45.16V45.25H0.160034V0.25Z" fill="white"/>
</mask>
<g mask="url(#mask0_1_4024)">
<path fill-rule="evenodd" clip-rule="evenodd" d="M2.92045 19.9896C4.21862 19.9896 5.30717 20.8854 5.60274 22.0938H12.7017V23.4062H5.60274C5.30717 24.6133 4.21862 25.5104 2.92045 25.5104C1.39571 25.5104 0.160034 24.2747 0.160034 22.75C0.160034 21.2253 1.39571 19.9896 2.92045 19.9896ZM15.3267 26.6042V21.9258C15.3254 21.431 15.8683 21.1068 16.3084 21.3594L20.3071 23.668C20.5337 23.7721 20.6912 24 20.6912 24.2656V28.944C20.6912 29.4388 20.1483 29.763 19.7095 29.5104L15.7095 27.2018C15.4842 27.0977 15.3267 26.8698 15.3267 26.6042ZM16.6392 23.0586V26.2292L19.3788 27.8112V24.6406L16.6392 23.0586ZM30.6548 17.3789L22.66 12.763L14.6639 17.3789L22.66 21.9948L30.6548 17.3789ZM18.2798 16.8125L22.3241 14.4779C22.522 14.3607 22.7746 14.3503 22.9881 14.4727L27.0402 16.8125C27.4686 17.0612 27.4777 17.6927 27.0376 17.9453L22.9946 20.2799C22.798 20.3971 22.5467 20.4076 22.3345 20.2852L18.3162 17.9661C17.8553 17.7383 17.8228 17.0768 18.2798 16.8125ZM22.66 15.7956L25.4035 17.3802L22.66 18.9648L19.9152 17.3802L22.66 15.7956ZM31.3058 27.7448L23.3162 32.3568V23.125L31.3058 18.513V27.7448ZM24.9595 23.6992L28.9569 21.3906C29.384 21.0872 29.9933 21.388 29.9933 21.9258V26.6042C29.992 26.8307 29.8722 27.0508 29.6626 27.1706L25.6639 29.4792C25.2368 29.7826 24.6288 29.4818 24.6288 28.944V24.2656C24.6288 24.0391 24.7485 23.819 24.9595 23.6992ZM28.6808 23.0586L25.9412 24.6406V27.8112L28.6808 26.2292V23.0586ZM14.0142 18.513V27.7448L22.0038 32.3568V23.125L14.0142 18.513ZM22.0038 11.6328V5.69271C20.7954 5.39844 19.8983 4.30859 19.8983 3.01042C19.8983 1.48568 21.1353 0.25 22.66 0.25C24.1847 0.25 25.4204 1.48568 25.4204 3.01042C25.4204 4.30859 24.5233 5.39844 23.3162 5.69271V11.6328L22.9946 11.4479C22.798 11.3307 22.5467 11.3203 22.3345 11.4427L22.0038 11.6328ZM32.6183 22.0938H39.7173C40.0116 20.8854 41.1001 19.9896 42.3996 19.9896C43.923 19.9896 45.16 21.2253 45.16 22.75C45.16 24.2747 43.923 25.5104 42.3996 25.5104C41.1001 25.5104 40.0116 24.6133 39.7173 23.4062H32.6183V22.0938ZM23.3162 33.8659V39.8073C24.5233 40.1016 25.4204 41.1901 25.4204 42.4896C25.4204 44.0143 24.1847 45.25 22.66 45.25C21.1353 45.25 19.8983 44.0143 19.8983 42.4896C19.8983 41.1901 20.7954 40.1016 22.0038 39.8073V33.8659L22.3254 34.0521C22.5311 34.1758 22.7876 34.1745 22.9946 34.0521L23.3162 33.8659Z" fill="#00D280"/>
</g>
</g>
</g>
<defs>
<clipPath id="clip0_1_4024">
<rect width="45" height="45" fill="white" transform="translate(0.160034 0.25)"/>
</clipPath>
<clipPath id="clip1_1_4024">
<rect width="45" height="45" fill="white" transform="translate(0.160034 0.25)"/>
</clipPath>
</defs>
</svg>
