<svg width="66" height="66" viewBox="0 0 66 66" fill="none" xmlns="http://www.w3.org/2000/svg">
<rect x="0.5" y="0.5" width="65" height="65" rx="8" fill="#00D280" fill-opacity="0.2"/>
<g clip-path="url(#clip0_1_3674)">
<g clip-path="url(#clip1_1_3674)">
<g clip-path="url(#clip2_1_3674)">
<path d="M38.0957 38.5442H30.6061C29.601 38.5442 28.7829 37.7261 28.7829 36.7211V25.6694C28.7829 24.6644 29.601 23.8462 30.6061 23.8462H38.0957C39.1016 23.8462 39.9189 24.6644 39.9189 25.6694V36.7211C39.9189 37.7261 39.1016 38.5442 38.0957 38.5442ZM30.6061 25.0617C30.2714 25.0617 29.9983 25.3338 29.9983 25.6694V36.7211C29.9983 37.0558 30.2714 37.3288 30.6061 37.3288H38.0957C38.4313 37.3288 38.7034 37.0558 38.7034 36.7211V25.6694C38.7034 25.3338 38.4313 25.0617 38.0957 25.0617H30.6061Z" fill="#00D280"/>
<path d="M35.3957 41.2433H27.9034C26.8984 41.2433 26.0802 40.4251 26.0802 39.4201V28.3694C26.0802 27.3644 26.8984 26.5461 27.9034 26.5461H29.3891C29.7248 26.5461 29.9969 26.8183 29.9969 27.1539C29.9969 27.4895 29.7248 27.7616 29.3891 27.7616H27.9034C27.5678 27.7616 27.2956 28.0337 27.2956 28.3694V39.4201C27.2956 39.7557 27.5678 40.0278 27.9034 40.0278H35.3957C35.7304 40.0278 36.0035 39.7557 36.0035 39.4201V37.9343C36.0035 37.5987 36.2746 37.3266 36.6112 37.3266C36.9469 37.3266 37.219 37.5987 37.219 37.9343V39.4201C37.219 40.4251 36.4008 41.2433 35.3957 41.2433Z" fill="#00D280"/>
<path d="M19.2492 46.9034C19.094 46.9034 18.938 46.8444 18.8192 46.7255C18.5825 46.4879 18.5825 46.1033 18.8192 45.8657L23.9704 40.7154C24.2072 40.4777 24.5918 40.4777 24.8294 40.7154C25.067 40.953 25.067 41.3376 24.8294 41.5743L19.6791 46.7255C19.5603 46.8444 19.4043 46.9034 19.2492 46.9034Z" fill="#00D280"/>
<path d="M21.3356 46.9045H19.2494C18.9138 46.9045 18.6416 46.6324 18.6416 46.2968V44.2106C18.6416 43.874 18.9138 43.6028 19.2494 43.6028C19.585 43.6028 19.8571 43.874 19.8571 44.2106V45.6891H21.3356C21.6721 45.6891 21.9434 45.9612 21.9434 46.2968C21.9434 46.6324 21.6721 46.9045 21.3356 46.9045Z" fill="#00D280"/>
<path d="M41.5997 24.553C41.4446 24.553 41.2885 24.4941 41.1697 24.3752C40.933 24.1375 40.933 23.7529 41.1697 23.5153L46.3209 18.365C46.5576 18.1274 46.9422 18.1274 47.1799 18.365C47.4176 18.6027 47.4176 18.9873 47.1799 19.224L42.0296 24.3752C41.9108 24.4941 41.7548 24.553 41.5997 24.553Z" fill="#00D280"/>
<path d="M46.75 21.4876C46.4144 21.4876 46.1423 21.2164 46.1423 20.8798V19.4022H44.6637C44.3281 19.4022 44.056 19.1301 44.056 18.7945C44.056 18.458 44.3281 18.1868 44.6637 18.1868H46.75C47.0865 18.1868 47.3577 18.458 47.3577 18.7945V20.8798C47.3577 21.2164 47.0865 21.4876 46.75 21.4876Z" fill="#00D280"/>
<path d="M20.8371 33.1529H13.5534C13.2178 33.1529 12.9456 32.8808 12.9456 32.5452C12.9456 32.2096 13.2178 31.9375 13.5534 31.9375H20.8371C21.1736 31.9375 21.4449 32.2096 21.4449 32.5452C21.4449 32.8808 21.1736 33.1529 20.8371 33.1529Z" fill="#00D280"/>
<path d="M15.028 34.6289C14.872 34.6289 14.7169 34.5699 14.5981 34.4511L13.1232 32.9761C12.8865 32.7385 12.8865 32.3539 13.1232 32.1163L14.5981 30.6414C14.8357 30.4037 15.2203 30.4037 15.458 30.6414C15.6947 30.8791 15.6947 31.2627 15.458 31.5004L14.4121 32.5462L15.458 33.592C15.6947 33.8297 15.6947 34.2134 15.458 34.4511C15.3392 34.5699 15.1832 34.6289 15.028 34.6289Z" fill="#00D280"/>
<path d="M52.4462 33.1529H45.1616C44.826 33.1529 44.5539 32.8808 44.5539 32.5452C44.5539 32.2096 44.826 31.9375 45.1616 31.9375H52.4462C52.7819 31.9375 53.054 32.2096 53.054 32.5452C53.054 32.8808 52.7819 33.1529 52.4462 33.1529Z" fill="#00D280"/>
<path d="M50.9712 34.6289C50.8152 34.6289 50.6601 34.5699 50.5412 34.4511C50.3036 34.2134 50.3036 33.8297 50.5412 33.592L51.5871 32.5462L50.5412 31.5004C50.3036 31.2627 50.3036 30.8791 50.5412 30.6414C50.7789 30.4037 51.1635 30.4037 51.4003 30.6414L52.8761 32.1163C53.1128 32.3539 53.1128 32.7385 52.8761 32.9761L51.4003 34.4511C51.2814 34.5699 51.1263 34.6289 50.9712 34.6289Z" fill="#00D280"/>
<path d="M24.3995 24.553C24.2444 24.553 24.0893 24.4941 23.9704 24.3752L18.8192 19.224C18.5825 18.9873 18.5825 18.6027 18.8192 18.365C19.0569 18.1274 19.4415 18.1274 19.6791 18.365L24.8294 23.5153C25.067 23.7529 25.067 24.1375 24.8294 24.3752C24.7106 24.4941 24.5555 24.553 24.3995 24.553Z" fill="#00D280"/>
<path d="M19.2494 21.4876C18.9138 21.4876 18.6416 21.2164 18.6416 20.8798V18.7945C18.6416 18.458 18.9138 18.1868 19.2494 18.1868H21.3356C21.6721 18.1868 21.9434 18.458 21.9434 18.7945C21.9434 19.1301 21.6721 19.4022 21.3356 19.4022H19.8571V20.8798C19.8571 21.2164 19.585 21.4876 19.2494 21.4876Z" fill="#00D280"/>
<path d="M46.75 46.9034C46.5949 46.9034 46.4397 46.8444 46.3209 46.7255L41.1697 41.5743C40.933 41.3376 40.933 40.953 41.1697 40.7154C41.4073 40.4777 41.7919 40.4777 42.0296 40.7154L47.1799 45.8657C47.4176 46.1033 47.4176 46.4879 47.1799 46.7255C47.061 46.8444 46.906 46.9034 46.75 46.9034Z" fill="#00D280"/>
<path d="M46.75 46.9045H44.6637C44.3281 46.9045 44.056 46.6324 44.056 46.2968C44.056 45.9612 44.3281 45.6891 44.6637 45.6891H46.1423V44.2106C46.1423 43.874 46.4144 43.6028 46.75 43.6028C47.0865 43.6028 47.3577 43.874 47.3577 44.2106V46.2968C47.3577 46.6324 47.0865 46.9045 46.75 46.9045Z" fill="#00D280"/>
<path d="M33.0002 20.9899C32.6646 20.9899 32.3925 20.7187 32.3925 20.3822V13.0985C32.3925 12.7628 32.6646 12.4907 33.0002 12.4907C33.3358 12.4907 33.608 12.7628 33.608 13.0985V20.3822C33.608 20.7187 33.3358 20.9899 33.0002 20.9899Z" fill="#00D280"/>
<path d="M31.5244 15.1811C31.3693 15.1811 31.2142 15.1221 31.0954 15.0033C30.8577 14.7656 30.8577 14.381 31.0954 14.1443L32.5702 12.6685C32.6845 12.5551 32.8387 12.4907 33.0002 12.4907C33.1616 12.4907 33.3158 12.5551 33.4301 12.6685L34.905 14.1443C35.1417 14.381 35.1417 14.7656 34.905 15.0033C34.6674 15.2409 34.2828 15.2409 34.0451 15.0033L33.0002 13.9574L31.9543 15.0033C31.8355 15.1221 31.6804 15.1811 31.5244 15.1811Z" fill="#00D280"/>
<path d="M32.9993 52.5998C32.6637 52.5998 32.3916 52.3277 32.3916 51.992V44.7084C32.3916 44.3718 32.6637 44.1006 32.9993 44.1006C33.3359 44.1006 33.6071 44.3718 33.6071 44.7084V51.992C33.6071 52.3277 33.3359 52.5998 32.9993 52.5998Z" fill="#00D280"/>
<path d="M32.9993 52.599C32.8378 52.599 32.6836 52.5347 32.5702 52.4212L31.0954 50.9455C30.8577 50.7087 30.8577 50.3241 31.0954 50.0864C31.333 49.8488 31.7167 49.8488 31.9543 50.0864L32.9993 51.1323L34.0451 50.0864C34.2828 49.8488 34.6674 49.8488 34.905 50.0864C35.1417 50.3241 35.1417 50.7087 34.905 50.9455L33.4292 52.4212C33.3149 52.5347 33.1607 52.599 32.9993 52.599Z" fill="#00D280"/>
<path d="M36.2724 33.0381H32.4292C32.0936 33.0381 31.8214 32.766 31.8214 32.4304C31.8214 32.0939 32.0936 31.8228 32.4292 31.8228H36.2724C36.608 31.8228 36.8801 32.0939 36.8801 32.4304C36.8801 32.766 36.608 33.0381 36.2724 33.0381Z" fill="#00D280"/>
<path d="M36.2724 30.5695H32.4292C32.0936 30.5695 31.8214 30.2974 31.8214 29.9618C31.8214 29.6261 32.0936 29.354 32.4292 29.354H36.2724C36.608 29.354 36.8801 29.6261 36.8801 29.9618C36.8801 30.2974 36.608 30.5695 36.2724 30.5695Z" fill="#00D280"/>
<path d="M36.2724 35.5065H32.4292C32.0936 35.5065 31.8214 35.2344 31.8214 34.8987C31.8214 34.5631 32.0936 34.291 32.4292 34.291H36.2724C36.608 34.291 36.8801 34.5631 36.8801 34.8987C36.8801 35.2344 36.608 35.5065 36.2724 35.5065Z" fill="#00D280"/>
<path d="M36.2724 28.1012H32.4292C32.0936 28.1012 31.8214 27.8291 31.8214 27.4934C31.8214 27.1579 32.0936 26.8857 32.4292 26.8857H36.2724C36.608 26.8857 36.8801 27.1579 36.8801 27.4934C36.8801 27.8291 36.608 28.1012 36.2724 28.1012Z" fill="#00D280"/>
</g>
</g>
</g>
<defs>
<clipPath id="clip0_1_3674">
<rect width="41" height="40.09" fill="white" transform="translate(12.5 12.5)"/>
</clipPath>
<clipPath id="clip1_1_3674">
<rect width="41" height="40.09" fill="white" transform="translate(12.5 12.5)"/>
</clipPath>
<clipPath id="clip2_1_3674">
<rect width="41" height="40.1087" fill="white" transform="translate(12.5 12.4907)"/>
</clipPath>
</defs>
</svg>
