<svg width="54" height="56" viewBox="0 0 54 56" fill="none" xmlns="http://www.w3.org/2000/svg">
<g clip-path="url(#clip0_1_3857)">
<g clip-path="url(#clip1_1_3857)">
<g clip-path="url(#clip2_1_3857)">
<mask id="mask0_1_3857" style="mask-type:luminance" maskUnits="userSpaceOnUse" x="7" y="0" width="40" height="29">
<path d="M7.42444 0.807373H46.5615V28.6278H7.42444V0.807373Z" fill="white"/>
</mask>
<g mask="url(#mask0_1_3857)">
<path d="M10.4675 28.4603H43.5428C45.0598 28.4603 46.2994 27.2194 46.2994 25.7037V3.65353C46.2994 2.13778 45.0598 0.896973 43.5428 0.896973H30.6808C29.1828 0.896973 27.8413 1.62344 27.0057 2.73508C26.1691 1.62344 24.8276 0.896973 23.3306 0.896973H10.4675C8.95175 0.896973 7.71094 2.13778 7.71094 3.65353V25.7037C7.71094 27.2194 8.95175 28.4603 10.4675 28.4603ZM35.2742 5.49163H40.7873C41.2923 5.49163 41.7058 5.90406 41.7058 6.41009C41.7058 6.91496 41.2923 7.32856 40.7873 7.32856H35.2742C34.7694 7.32856 34.3559 6.91496 34.3559 6.41009C34.3559 5.90406 34.7694 5.49163 35.2742 5.49163ZM31.5993 9.16666H40.7873C41.2923 9.16666 41.7058 9.58026 41.7058 10.0851C41.7058 10.59 41.2923 11.0036 40.7873 11.0036H31.5993C31.0944 11.0036 30.6808 10.59 30.6808 10.0851C30.6808 9.58026 31.0944 9.16666 31.5993 9.16666ZM31.5993 12.8417H40.7873C41.2923 12.8417 41.7058 13.2553 41.7058 13.7601C41.7058 14.265 41.2923 14.6786 40.7873 14.6786H31.5993C31.0944 14.6786 30.6808 14.265 30.6808 13.7601C30.6808 13.2553 31.0944 12.8417 31.5993 12.8417ZM31.5993 16.5167H40.7873C41.2923 16.5167 41.7058 16.9303 41.7058 17.4352C41.7058 17.94 41.2923 18.3536 40.7873 18.3536H31.5993C31.0944 18.3536 30.6808 17.94 30.6808 17.4352C30.6808 16.9303 31.0944 16.5167 31.5993 16.5167ZM27.9242 25.7037C27.9242 24.1878 29.1651 22.9482 30.6808 22.9482H44.4624V25.7037C44.4624 26.2097 44.0488 26.6233 43.5428 26.6233H27.9242V25.7037ZM13.2241 5.49163H22.4111C22.9171 5.49163 23.3306 5.90406 23.3306 6.41009C23.3306 6.91496 22.9171 7.32856 22.4111 7.32856H13.2241C12.718 7.32856 12.3056 6.91496 12.3056 6.41009C12.3056 5.90406 12.718 5.49163 13.2241 5.49163ZM13.2241 9.16666H22.4111C22.9171 9.16666 23.3306 9.58026 23.3306 10.0851C23.3306 10.59 22.9171 11.0036 22.4111 11.0036H13.2241C12.718 11.0036 12.3056 10.59 12.3056 10.0851C12.3056 9.58026 12.718 9.16666 13.2241 9.16666ZM13.2241 12.8417H22.4111C22.9171 12.8417 23.3306 13.2553 23.3306 13.7601C23.3306 14.265 22.9171 14.6786 22.4111 14.6786H13.2241C12.718 14.6786 12.3056 14.265 12.3056 13.7601C12.3056 13.2553 12.718 12.8417 13.2241 12.8417ZM13.2241 16.5167H22.4111C22.9171 16.5167 23.3306 16.9303 23.3306 17.4352C23.3306 17.94 22.9171 18.3536 22.4111 18.3536H13.2241C12.718 18.3536 12.3056 17.94 12.3056 17.4352C12.3056 16.9303 12.718 16.5167 13.2241 16.5167ZM9.54905 22.9482H23.3306C24.8465 22.9482 26.0861 24.1878 26.0861 25.7037V26.6233H10.4675C9.96265 26.6233 9.54905 26.2097 9.54905 25.7037V22.9482Z" fill="#0575AD"/>
</g>
<mask id="mask1_1_3857" style="mask-type:luminance" maskUnits="userSpaceOnUse" x="0" y="30" width="54" height="25">
<path d="M0.268921 30.1423H53.7411V54.2771H0.268921V30.1423Z" fill="white"/>
</mask>
<g mask="url(#mask1_1_3857)">
<path d="M50.1669 33.8342C48.1179 31.7674 45.3162 30.4448 42.2291 30.3061C39.6929 30.1959 37.2219 30.8856 35.1076 32.3006C34.3647 32.7961 33.4367 33.0532 32.4163 33.0532H21.5928C20.5734 33.0532 19.6456 32.7961 18.9013 32.3006C16.7882 30.8856 14.3256 30.1959 11.7812 30.3061C5.60671 30.5728 0.590137 35.6166 0.369707 41.791C0.25001 45.0714 1.43512 48.1763 3.70461 50.5288C5.9741 52.8895 9.03405 54.1848 12.305 54.1848C15.5759 54.1848 18.9107 52.7426 21.1803 50.2254C21.5382 49.8213 22.043 49.5914 22.5574 49.5914H31.4517C31.9659 49.5914 32.4708 49.8213 32.8299 50.2254C35.0994 52.7426 38.3335 54.1848 41.7052 54.1848C45.0768 54.1848 48.0349 52.8895 50.3044 50.5288C52.5738 48.1763 53.759 45.0714 53.6393 41.791C53.5291 38.7038 52.216 35.9022 50.1669 33.8342ZM48.9818 49.2513C47.0619 51.2446 44.47 52.3479 41.7052 52.3479C38.9391 52.3479 36.1186 51.126 34.1988 48.994C33.4912 48.2037 32.4898 47.7533 31.4517 47.7533H22.5574C21.5193 47.7533 20.5178 48.2037 19.8103 48.994C17.8903 51.126 15.1623 52.3479 12.305 52.3479C9.44765 52.3479 6.94825 51.2446 5.02837 49.2513C3.10731 47.2578 2.1059 44.6388 2.20782 41.8645C2.3998 36.637 6.6354 32.3741 11.8546 32.1442C14.0139 32.0517 16.0986 32.6314 17.8809 33.8259C18.9286 34.524 20.2156 34.8912 21.5928 34.8912H32.4163C33.7947 34.8912 35.0804 34.524 36.128 33.8259C37.7907 32.7143 39.7119 32.1347 41.7147 32.1347C41.8616 32.1347 42.0086 32.1347 42.1556 32.1442C47.3735 32.3741 51.6092 36.637 51.8024 41.8645C51.9031 44.6388 50.9016 47.2578 48.9818 49.2513Z" fill="#0575AD"/>
</g>
<path d="M16.8985 40.406H14.1419V37.6507C14.1419 37.1447 13.7283 36.731 13.2235 36.731H11.3854C10.8805 36.731 10.4669 37.1447 10.4669 37.6507V40.406H7.71034C7.20547 40.406 6.79187 40.8196 6.79187 41.3257V43.1626C6.79187 43.6686 7.20547 44.0811 7.71034 44.0811H10.4669V46.8377C10.4669 47.3437 10.8805 47.756 11.3854 47.756H13.2235C13.7283 47.756 14.1419 47.3437 14.1419 46.8377V44.0811H16.8985C17.4033 44.0811 17.817 43.6686 17.817 43.1626V41.3257C17.817 40.8196 17.4033 40.406 16.8985 40.406Z" fill="#0575AD"/>
<path d="M48.1361 42.2425C48.1361 42.3634 48.1242 42.483 48.1005 42.6003C48.0769 42.7189 48.0425 42.8338 47.9962 42.9453C47.95 43.0567 47.8931 43.1633 47.8255 43.2628C47.7592 43.3636 47.6822 43.456 47.5968 43.5413C47.5126 43.6267 47.4191 43.7037 47.3195 43.77C47.2189 43.8377 47.1133 43.8933 47.0007 43.9396C46.8893 43.9857 46.7744 44.0213 46.6571 44.045C46.5385 44.0687 46.4189 44.0794 46.2979 44.0794C46.1771 44.0794 46.0574 44.0687 45.9401 44.045C45.8215 44.0213 45.7067 43.9857 45.5951 43.9396C45.4838 43.8933 45.3771 43.8377 45.2775 43.77C45.1768 43.7037 45.0844 43.6267 44.9991 43.5413C44.9137 43.456 44.8367 43.3636 44.7703 43.2628C44.7028 43.1633 44.6471 43.0567 44.6009 42.9453C44.5547 42.8338 44.5191 42.7189 44.4954 42.6003C44.4728 42.483 44.4611 42.3634 44.4611 42.2425C44.4611 42.1215 44.4728 42.0019 44.4954 41.8833C44.5191 41.766 44.5547 41.6511 44.6009 41.5397C44.6471 41.4284 44.7028 41.3216 44.7703 41.2221C44.8367 41.1213 44.9137 41.0289 44.9991 40.9436C45.0844 40.8582 45.1768 40.7812 45.2775 40.7149C45.3771 40.6474 45.4838 40.5904 45.5951 40.5442C45.7067 40.4979 45.8215 40.4636 45.9401 40.4399C46.0574 40.4162 46.1771 40.4043 46.2979 40.4043C46.4189 40.4043 46.5385 40.4162 46.6571 40.4399C46.7744 40.4636 46.8893 40.4979 47.0007 40.5442C47.1133 40.5904 47.2189 40.6474 47.3195 40.7149C47.4191 40.7812 47.5126 40.8582 47.5968 40.9436C47.6822 41.0289 47.7592 41.1213 47.8255 41.2221C47.8931 41.3216 47.95 41.4284 47.9962 41.5397C48.0425 41.6511 48.0769 41.766 48.1005 41.8833C48.1242 42.0019 48.1361 42.1215 48.1361 42.2425Z" fill="#0575AD"/>
<path d="M38.9486 42.2425C38.9486 42.3634 38.9367 42.483 38.913 42.6003C38.8894 42.7189 38.855 42.8338 38.8088 42.9453C38.7625 43.0567 38.7057 43.1633 38.6393 43.2628C38.5717 43.3636 38.4959 43.456 38.4105 43.5413C38.3253 43.6267 38.2329 43.7037 38.132 43.77C38.0314 43.8377 37.9258 43.8933 37.8144 43.9396C37.703 43.9857 37.5881 44.0213 37.4696 44.045C37.351 44.0687 37.2314 44.0794 37.1116 44.0794C36.9908 44.0794 36.8712 44.0687 36.7526 44.045C36.634 44.0213 36.5192 43.9857 36.4078 43.9396C36.2963 43.8933 36.1908 43.8377 36.0902 43.77C35.9893 43.7037 35.8969 43.6267 35.8116 43.5413C35.7262 43.456 35.6505 43.3636 35.5829 43.2628C35.5165 43.1633 35.4596 43.0567 35.4134 42.9453C35.3672 42.8338 35.3328 42.7189 35.3092 42.6003C35.2855 42.483 35.2736 42.3634 35.2736 42.2425C35.2736 42.1215 35.2855 42.0019 35.3092 41.8833C35.3328 41.766 35.3672 41.6511 35.4134 41.5397C35.4596 41.4284 35.5165 41.3216 35.5829 41.2221C35.6505 41.1213 35.7262 41.0289 35.8116 40.9436C35.8969 40.8582 35.9893 40.7812 36.0902 40.7149C36.1908 40.6474 36.2963 40.5904 36.4078 40.5442C36.5192 40.4979 36.634 40.4636 36.7526 40.4399C36.8712 40.4162 36.9908 40.4043 37.1116 40.4043C37.2314 40.4043 37.351 40.4162 37.4696 40.4399C37.5881 40.4636 37.703 40.4979 37.8144 40.5442C37.9258 40.5904 38.0314 40.6474 38.132 40.7149C38.2329 40.7812 38.3253 40.8582 38.4105 40.9436C38.4959 41.0289 38.5717 41.1213 38.6393 41.2221C38.7057 41.3216 38.7625 41.4284 38.8088 41.5397C38.855 41.6511 38.8894 41.766 38.913 41.8833C38.9367 42.0019 38.9486 42.1215 38.9486 42.2425Z" fill="#0575AD"/>
<path d="M43.5408 37.6501C43.5408 37.7697 43.529 37.8895 43.5064 38.008C43.4827 38.1264 43.4473 38.2415 43.401 38.3529C43.3548 38.4642 43.2991 38.5698 43.2315 38.6705C43.164 38.7712 43.0881 38.8636 43.0028 38.949C42.9174 39.0342 42.825 39.1102 42.7243 39.1777C42.6247 39.244 42.5181 39.301 42.4067 39.3471C42.2953 39.3934 42.1803 39.4278 42.0619 39.4515C41.9433 39.4752 41.8248 39.4869 41.7039 39.4869C41.5831 39.4869 41.4633 39.4752 41.3449 39.4515C41.2263 39.4278 41.1125 39.3934 40.9999 39.3471C40.8885 39.301 40.7831 39.244 40.6823 39.1777C40.5828 39.1102 40.4892 39.0342 40.4038 38.949C40.3185 38.8636 40.2426 38.7712 40.1763 38.6705C40.1088 38.5698 40.0519 38.4642 40.0056 38.3529C39.9593 38.2415 39.9251 38.1264 39.9013 38.008C39.8776 37.8895 39.8658 37.7697 39.8658 37.6501C39.8658 37.5292 39.8776 37.4095 39.9013 37.2911C39.9251 37.1725 39.9593 37.0575 40.0056 36.9461C40.0519 36.8347 40.1088 36.7293 40.1763 36.6285C40.2426 36.529 40.3185 36.4353 40.4038 36.3501C40.4892 36.2647 40.5828 36.1889 40.6823 36.1212C40.7831 36.0549 40.8885 35.9981 40.9999 35.9518C41.1125 35.9057 41.2263 35.8713 41.3449 35.8476C41.4633 35.8238 41.5831 35.812 41.7039 35.812C41.8248 35.812 41.9433 35.8238 42.0619 35.8476C42.1803 35.8713 42.2953 35.9057 42.4067 35.9518C42.5181 35.9981 42.6247 36.0549 42.7243 36.1212C42.825 36.1889 42.9174 36.2647 43.0028 36.3501C43.0881 36.4353 43.164 36.529 43.2315 36.6285C43.2991 36.7293 43.3548 36.8347 43.401 36.9461C43.4473 37.0575 43.4827 37.1725 43.5064 37.2911C43.529 37.4095 43.5408 37.5292 43.5408 37.6501Z" fill="#0575AD"/>
<path d="M43.5408 46.8364C43.5408 46.9572 43.529 47.077 43.5064 47.1954C43.4827 47.3139 43.4473 47.429 43.401 47.5404C43.3548 47.6517 43.2991 47.7571 43.2315 47.858C43.164 47.9574 43.0881 48.0511 43.0028 48.1363C42.9174 48.2217 42.825 48.2975 42.7243 48.364C42.6247 48.4315 42.5181 48.4883 42.4067 48.5346C42.2953 48.5808 42.1803 48.6151 42.0619 48.6388C41.9433 48.6627 41.8248 48.6744 41.7039 48.6744C41.5831 48.6744 41.4633 48.6627 41.3449 48.6388C41.2263 48.6151 41.1125 48.5808 40.9999 48.5346C40.8885 48.4883 40.7831 48.4315 40.6823 48.364C40.5828 48.2975 40.4892 48.2217 40.4038 48.1363C40.3185 48.0511 40.2426 47.9574 40.1763 47.858C40.1088 47.7571 40.0519 47.6517 40.0056 47.5404C39.9593 47.429 39.9251 47.3139 39.9013 47.1954C39.8776 47.077 39.8658 46.9572 39.8658 46.8364C39.8658 46.7155 39.8776 46.597 39.9013 46.4784C39.9251 46.36 39.9593 46.245 40.0056 46.1336C40.0519 46.0222 40.1088 45.9156 40.1763 45.816C40.2426 45.7153 40.3185 45.6228 40.4038 45.5374C40.4892 45.4522 40.5828 45.3763 40.6823 45.3087C40.7831 45.2412 40.8885 45.1854 40.9999 45.1393C41.1125 45.093 41.2263 45.0576 41.3449 45.0337C41.4633 45.0113 41.5831 44.9995 41.7039 44.9995C41.8248 44.9995 41.9433 45.0113 42.0619 45.0337C42.1803 45.0576 42.2953 45.093 42.4067 45.1393C42.5181 45.1854 42.6247 45.2412 42.7243 45.3087C42.825 45.3763 42.9174 45.4522 43.0028 45.5374C43.0881 45.6228 43.164 45.7153 43.2315 45.816C43.2991 45.9156 43.3548 46.0222 43.401 46.1336C43.4473 46.245 43.4827 46.36 43.5064 46.4784C43.529 46.597 43.5408 46.7155 43.5408 46.8364Z" fill="#0575AD"/>
<path d="M29.7622 36.731H24.2503C23.7454 36.731 23.3318 37.1447 23.3318 37.6507C23.3318 38.1555 23.7454 38.5692 24.2503 38.5692H29.7622C30.2682 38.5692 30.6819 38.1555 30.6819 37.6507C30.6819 37.1447 30.2682 36.731 29.7622 36.731Z" fill="#0575AD"/>
</g>
</g>
</g>
<defs>
<clipPath id="clip0_1_3857">
<rect width="53.47" height="55" fill="white" transform="translate(0.27002 0.5)"/>
</clipPath>
<clipPath id="clip1_1_3857">
<rect width="53.47" height="55" fill="white" transform="translate(0.27002 0.5)"/>
</clipPath>
<clipPath id="clip2_1_3857">
<rect width="53.4722" height="55" fill="white" transform="translate(0.268921 0.5)"/>
</clipPath>
</defs>
</svg>
