<svg width="46" height="46" viewBox="0 0 46 46" fill="none" xmlns="http://www.w3.org/2000/svg">
<g clip-path="url(#clip0_1_4013)">
<g clip-path="url(#clip1_1_4013)">
<mask id="mask0_1_4013" style="mask-type:luminance" maskUnits="userSpaceOnUse" x="0" y="0" width="46" height="46">
<path d="M0.47998 0.248047H45.48V45.248H0.47998V0.248047Z" fill="white"/>
</mask>
<g mask="url(#mask0_1_4013)">
<path fill-rule="evenodd" clip-rule="evenodd" d="M5.31421 29.9954C5.31519 29.9977 5.31616 30.0011 5.31714 30.0033C6.65503 33.7267 7.99487 37.4501 9.33276 41.1734C9.33374 41.1768 9.33472 41.1802 9.33667 41.1836C9.52417 41.7063 9.71265 42.2302 9.90015 42.7529C9.96753 42.9414 9.96753 43.1311 9.90308 43.3196C9.83472 43.5093 9.71753 43.6425 9.55444 43.7227L9.55347 43.7238L6.52222 45.1791C6.198 45.336 5.823 45.1565 5.68921 44.7817C3.97729 40.0185 2.2644 35.2565 0.553467 30.4933L0.55249 30.491C0.484131 30.3036 0.485107 30.1162 0.551514 29.9299C0.618896 29.7414 0.735107 29.6059 0.89624 29.528L3.9314 28.0694C4.25561 27.9136 4.62964 28.0931 4.76538 28.4679C4.948 28.9771 5.13159 29.4862 5.31421 29.9954ZM10.2791 39.8514C9.10815 36.5954 7.93823 33.3406 6.76831 30.0846C8.29175 29.2514 9.81323 28.4115 11.3279 27.5534C13.0564 26.5735 14.4011 25.8453 15.989 26.0948C17.0476 26.2596 18.2029 26.8591 19.6492 28.0479C19.7127 28.0999 19.784 28.1382 19.8592 28.162L25.5799 29.9367C26.658 30.272 27.3045 31.567 27.0154 32.8156C26.7273 34.0631 25.6092 34.8116 24.532 34.4752L16.9275 32.1168C16.5779 32.0084 16.2175 32.2489 16.1238 32.6542C16.031 33.0595 16.239 33.4772 16.5886 33.5856L24.1912 35.944C25.9646 36.4972 27.8074 35.2644 28.283 33.2085C28.3816 32.7829 28.4138 32.3527 28.3875 31.935L36.2752 29.2548C37.6287 28.7942 38.6814 28.6779 39.4802 28.8201C40.1394 28.9376 40.5994 29.2322 40.8709 29.6567C41.1902 30.1569 41.24 30.8117 41.1199 31.4518C40.9226 32.5085 40.2634 33.5472 39.3465 33.957L27.5056 39.2429C26.5955 39.6482 25.5369 40.1528 24.4597 40.4723C23.4763 40.7648 22.4783 40.9093 21.5857 40.609L15.2771 38.4899C14.198 38.1241 13.1619 38.2257 12.1482 38.7981L10.2791 39.8514ZM28.1648 1.26176C32.9041 1.26176 36.7527 5.71897 36.7527 11.2081C36.7527 16.6983 32.9041 21.1555 28.1648 21.1555C23.4256 21.1555 19.5779 16.6983 19.5779 11.2081C19.5779 5.71897 23.4256 1.26176 28.1648 1.26176ZM32.5457 9.23461L26.7674 5.22786C26.1531 4.80224 25.3904 4.79208 24.7683 5.20077C24.1463 5.60946 23.7615 6.37378 23.7615 7.20132V15.2159C23.7615 16.0435 24.1463 16.8078 24.7683 17.2165C25.3904 17.6252 26.1531 17.6139 26.7674 17.1894L32.5457 13.1827C33.1453 12.7672 33.5115 12.0175 33.5115 11.2081C33.5115 10.3997 33.1453 9.65008 32.5457 9.23461ZM31.8718 10.5386C32.075 10.6797 32.2 10.9337 32.2 11.2081C32.2 11.4835 32.075 11.7376 31.8718 11.8787L26.0935 15.8854C25.8855 16.0299 25.6258 16.0333 25.4148 15.8945C25.2039 15.7556 25.073 15.4971 25.073 15.2159V7.20132C25.073 6.9202 25.2039 6.66167 25.4148 6.5228C25.6258 6.38394 25.8855 6.38732 26.0935 6.53183L31.8718 10.5386ZM37.9656 4.24678C37.7761 3.88889 37.8718 3.42037 38.1804 3.20134C38.489 2.98119 38.8933 3.09296 39.0828 3.44972C40.282 5.70768 40.9744 8.3653 40.9744 11.2081C40.9744 14.052 40.282 16.7085 39.0828 18.9675C38.8933 19.3243 38.489 19.4361 38.1804 19.2159C37.8718 18.9969 37.7761 18.5284 37.9656 18.1705C39.0418 16.1451 39.6619 13.7596 39.6619 11.2081C39.6619 8.6577 39.0418 6.27217 37.9656 4.24678ZM18.364 18.1705C18.5545 18.5284 18.4578 18.9969 18.1492 19.2159C17.8406 19.4361 17.4363 19.3243 17.2468 18.9675C16.0476 16.7085 15.3562 14.052 15.3562 11.2081C15.3562 8.3653 16.0476 5.70768 17.2468 3.44972C17.4363 3.09296 17.8406 2.98119 18.1492 3.20134C18.4578 3.42037 18.5545 3.88889 18.364 4.24678C17.2888 6.27217 16.6677 8.6577 16.6677 11.2081C16.6677 13.7596 17.2888 16.1451 18.364 18.1705ZM41.8064 1.51691C41.617 1.16015 41.7136 0.691622 42.0213 0.471471C42.3299 0.25245 42.7342 0.364218 42.9236 0.720976C44.5447 3.77374 45.4802 7.36502 45.4802 11.2081C45.4802 15.0522 44.5447 18.6435 42.9236 21.6963C42.7342 22.053 42.3299 22.1648 42.0213 21.9458C41.7136 21.7256 41.617 21.2571 41.8064 20.9004C43.3045 18.079 44.1677 14.7598 44.1677 11.2081C44.1677 7.65743 43.3045 4.33823 41.8064 1.51691ZM14.5232 20.9004C14.7127 21.2571 14.617 21.7256 14.3084 21.9458C13.9998 22.1648 13.5955 22.053 13.406 21.6963C11.7849 18.6435 10.8504 15.0522 10.8504 11.2081C10.8504 7.36502 11.7849 3.77374 13.406 0.720976C13.5955 0.364218 13.9998 0.25245 14.3084 0.471471C14.617 0.691622 14.7127 1.16015 14.5232 1.51691C13.0261 4.33823 12.1619 7.65743 12.1619 11.2081C12.1619 14.7598 13.0261 18.079 14.5232 20.9004Z" fill="#00D280"/>
</g>
</g>
</g>
<defs>
<clipPath id="clip0_1_4013">
<rect width="45" height="45" fill="white" transform="translate(0.47998 0.25)"/>
</clipPath>
<clipPath id="clip1_1_4013">
<rect width="45" height="45" fill="white" transform="translate(0.47998 0.25)"/>
</clipPath>
</defs>
</svg>
