<svg width="58" height="56" viewBox="0 0 58 56" fill="none" xmlns="http://www.w3.org/2000/svg">
<g clip-path="url(#clip0_1_3834)">
<g clip-path="url(#clip1_1_3834)">
<mask id="mask0_1_3834" style="mask-type:luminance" maskUnits="userSpaceOnUse" x="1" y="0" width="56" height="56">
<path d="M1.49994 0.5H56.4999V55.5H1.49994V0.5Z" fill="white"/>
</mask>
<g mask="url(#mask0_1_3834)">
<path fill-rule="evenodd" clip-rule="evenodd" d="M7.40825 36.8569C7.40944 36.8595 7.41064 36.8638 7.41183 36.8664C9.04703 41.4173 10.6846 45.9682 12.3198 50.5189C12.321 50.5229 12.3222 50.5272 12.3246 50.5313C12.5538 51.1702 12.7841 51.8104 13.0133 52.4494C13.0956 52.6797 13.0956 52.9115 13.0169 53.142C12.9333 53.3738 12.7901 53.5366 12.5908 53.6347L12.5896 53.6359L8.8847 55.4146C8.48843 55.6065 8.03009 55.387 7.86657 54.9289C5.77423 49.1072 3.68071 43.287 1.58956 37.4653L1.58837 37.4626C1.50482 37.2335 1.50601 37.0044 1.58717 36.7769C1.66953 36.5463 1.81156 36.3809 2.0085 36.2856L5.71815 34.5029C6.11441 34.3124 6.57154 34.5318 6.73745 34.9898C6.96066 35.6123 7.18504 36.2346 7.40825 36.8569ZM13.4764 48.9031C12.0453 44.9235 10.6154 40.9454 9.18547 36.9659C11.0475 35.9475 12.9071 34.9209 14.7583 33.8722C16.8708 32.6745 18.5144 31.7844 20.4553 32.0895C21.749 32.2909 23.1611 33.0235 24.9288 34.4766C25.0063 34.5401 25.0935 34.5869 25.1854 34.616L32.1773 36.785C33.495 37.1949 34.2853 38.7776 33.9318 40.3038C33.5798 41.8285 32.2132 42.7433 30.8966 42.3322L21.6023 39.4496C21.175 39.3171 20.7345 39.6111 20.62 40.1064C20.5065 40.6017 20.7608 41.1123 21.188 41.2448L30.48 44.1274C32.6477 44.8034 34.8998 43.2967 35.4811 40.784C35.6016 40.2637 35.6411 39.7381 35.6089 39.2275L45.2494 35.9517C46.9037 35.3887 48.1904 35.2466 49.1667 35.4204C49.9724 35.5639 50.5346 35.9241 50.8663 36.4429C51.2567 37.0542 51.3175 37.8546 51.1707 38.6368C50.9297 39.9284 50.124 41.1979 49.0033 41.6987L34.531 48.1594C33.4186 48.6547 32.1249 49.2715 30.8083 49.662C29.6063 50.0193 28.3866 50.1959 27.2955 49.829L19.5852 47.239C18.2663 46.7919 16.9999 46.916 15.7609 47.6156L13.4764 48.9031ZM35.3367 1.73792C41.1291 1.73792 45.8331 7.18562 45.8331 13.8945C45.8331 20.6048 41.1291 26.0525 35.3367 26.0525C29.5443 26.0525 24.8416 20.6048 24.8416 13.8945C24.8416 7.18562 29.5443 1.73792 35.3367 1.73792ZM40.6912 11.4825L33.6287 6.58538C32.878 6.06518 31.9457 6.05275 31.1855 6.55226C30.4252 7.05177 29.9549 7.98595 29.9549 8.99739V18.793C29.9549 19.8045 30.4252 20.7387 31.1855 21.2381C31.9457 21.7377 32.878 21.7238 33.6287 21.2051L40.6912 16.3079C41.4239 15.8001 41.8716 14.8839 41.8716 13.8945C41.8716 12.9065 41.4239 11.9903 40.6912 11.4825ZM39.8676 13.0763C40.1159 13.2487 40.2686 13.5592 40.2686 13.8945C40.2686 14.2312 40.1159 14.5417 39.8676 14.7142L32.8051 19.6114C32.5509 19.788 32.2334 19.7921 31.9756 19.6224C31.7179 19.4527 31.5579 19.1366 31.5579 18.793V8.99739C31.5579 8.65379 31.7179 8.33781 31.9756 8.16808C32.2334 7.99837 32.5509 8.0025 32.8051 8.17913L39.8676 13.0763ZM47.3155 5.38627C47.0839 4.94887 47.2008 4.37622 47.5781 4.10853C47.9553 3.83945 48.4493 3.97606 48.681 4.4121C50.1466 7.17183 50.9928 10.42 50.9928 13.8945C50.9928 17.3704 50.1466 20.6172 48.681 23.3784C48.4493 23.8143 47.9553 23.951 47.5781 23.6818C47.2008 23.4142 47.0839 22.8416 47.3155 22.4041C48.6308 19.9286 49.3887 17.013 49.3887 13.8945C49.3887 10.7774 48.6308 7.86176 47.3155 5.38627ZM23.358 22.4041C23.5907 22.8416 23.4726 23.4142 23.0954 23.6818C22.7183 23.951 22.2241 23.8143 21.9926 23.3784C20.5268 20.6172 19.6818 17.3704 19.6818 13.8945C19.6818 10.42 20.5268 7.17183 21.9926 4.4121C22.2241 3.97606 22.7183 3.83945 23.0954 4.10853C23.4726 4.37622 23.5907 4.94887 23.358 5.38627C22.0438 7.86176 21.2848 10.7774 21.2848 13.8945C21.2848 17.013 22.0438 19.9286 23.358 22.4041ZM52.0099 2.04977C51.7782 1.61373 51.8964 1.04109 52.2725 0.772017C52.6496 0.504323 53.1437 0.640929 53.3753 1.07697C55.3565 4.80812 56.5001 9.19746 56.5001 13.8945C56.5001 18.5929 55.3565 22.9822 53.3753 26.7134C53.1437 27.1495 52.6496 27.2861 52.2725 27.0185C51.8964 26.7493 51.7782 26.1766 52.0099 25.7407C53.8407 22.2924 54.8958 18.2356 54.8958 13.8945C54.8958 9.55485 53.8407 5.49805 52.0099 2.04977ZM18.6637 25.7407C18.8952 26.1766 18.7782 26.7493 18.4011 27.0185C18.024 27.2861 17.5297 27.1495 17.2983 26.7134C15.3169 22.9822 14.1746 18.5929 14.1746 13.8945C14.1746 9.19746 15.3169 4.80812 17.2983 1.07697C17.5297 0.640929 18.024 0.504323 18.4011 0.772017C18.7782 1.04109 18.8952 1.61373 18.6637 2.04977C16.8339 5.49805 15.7776 9.55485 15.7776 13.8945C15.7776 18.2356 16.8339 22.2924 18.6637 25.7407Z" fill="#0575AD"/>
</g>
</g>
</g>
<defs>
<clipPath id="clip0_1_3834">
<rect width="56.56" height="55" fill="white" transform="translate(0.719971 0.5)"/>
</clipPath>
<clipPath id="clip1_1_3834">
<rect width="56.5714" height="55" fill="white" transform="translate(0.714233 0.5)"/>
</clipPath>
</defs>
</svg>
