<svg width="44" height="56" viewBox="0 0 44 56" fill="none" xmlns="http://www.w3.org/2000/svg">
<g clip-path="url(#clip0_1_3903)">
<g clip-path="url(#clip1_1_3903)">
<path d="M13.3733 11.9644C13.3048 12.0315 13.233 12.0964 13.1666 12.1658C13.0348 12.3045 12.9074 12.4465 12.782 12.5907C12.6192 12.7811 12.4607 12.9727 12.3097 13.1631C12.1929 13.3128 12.0804 13.4658 11.9712 13.6199C11.8298 13.8236 11.6938 14.0317 11.5631 14.2419C11.4645 14.4026 11.366 14.5633 11.2739 14.7285C11.1517 14.9453 11.0403 15.1688 10.9322 15.3966C10.8507 15.5651 10.7683 15.7335 10.6933 15.9063C10.5937 16.1375 10.508 16.3752 10.4201 16.6141C10.3569 16.7869 10.2895 16.9586 10.2338 17.1348C10.1556 17.3858 10.0913 17.6423 10.027 17.8976C9.98525 18.0683 9.93383 18.2356 9.90063 18.4073C9.84172 18.6947 9.801 18.9874 9.76137 19.2792C9.74209 19.4255 9.7121 19.5653 9.6971 19.7174C9.60178 20.61 9.60178 21.5027 9.6971 22.3955C9.7121 22.5442 9.74209 22.6883 9.76137 22.8359C9.801 23.122 9.84172 23.4182 9.90063 23.7044C9.93597 23.8783 9.98525 24.0478 10.0292 24.2196C10.0924 24.4738 10.1556 24.7292 10.2327 24.9834C10.2895 25.1619 10.3569 25.3358 10.4191 25.5108C10.5048 25.7452 10.5905 25.9808 10.689 26.2098C10.765 26.3849 10.8497 26.5577 10.9332 26.7294C11.0403 26.9495 11.1485 27.1676 11.2674 27.3799C11.3606 27.5495 11.4634 27.7157 11.5663 27.882C11.6927 28.0867 11.8234 28.288 11.9615 28.4851C12.0751 28.6458 12.1918 28.8044 12.3129 28.9629C12.4596 29.1534 12.6128 29.3382 12.7703 29.5188C12.8999 29.6685 13.0316 29.8149 13.1687 29.958C13.233 30.0263 13.3037 30.089 13.3701 30.1562C13.6636 29.8601 13.9421 29.5507 14.2045 29.2259C14.468 28.9024 14.7155 28.5655 14.9458 28.2165C15.1771 27.8676 15.3903 27.5066 15.5863 27.1356C15.7813 26.7645 15.9591 26.3849 16.1186 25.9951C16.2772 25.6054 16.4176 25.2091 16.5375 24.8052C16.6585 24.4023 16.7592 23.9928 16.8407 23.579C16.9221 23.1649 16.9832 22.7479 17.0238 22.3283C17.0645 21.9079 17.0849 21.4862 17.0849 21.0647C17.0849 20.642 17.0645 20.2203 17.0238 19.8009C16.9832 19.3805 16.9221 18.9632 16.8407 18.5494C16.7592 18.1355 16.6585 17.727 16.5375 17.323C16.4176 16.9191 16.2772 16.5228 16.1186 16.1341C15.9591 15.7445 15.7813 15.3636 15.5863 14.9927C15.3903 14.6217 15.1771 14.2617 14.9458 13.9128C14.7155 13.5627 14.468 13.2259 14.2045 12.9022C13.9421 12.5786 13.6636 12.2682 13.3701 11.9732L13.3733 11.9644Z" fill="#0575AD"/>
<mask id="mask0_1_3903" style="mask-type:luminance" maskUnits="userSpaceOnUse" x="1" y="1" width="42" height="51">
<path d="M1.96289 1.87549H42.0671V51.5711H1.96289V1.87549Z" fill="white"/>
</mask>
<g mask="url(#mask0_1_3903)">
<path d="M22.0168 1.88135C21.689 1.88245 21.3602 1.89126 21.0323 1.90777C20.7046 1.92428 20.3778 1.9496 20.0512 1.98372C19.7246 2.01675 19.3988 2.05857 19.0743 2.1081C18.7497 2.15765 18.4263 2.216 18.1039 2.28204C17.7825 2.34809 17.4622 2.42293 17.144 2.5044C16.8259 2.58696 16.5089 2.67723 16.1951 2.77519C15.8812 2.87427 15.5695 2.97995 15.261 3.09332C14.9514 3.20781 14.6461 3.32891 14.343 3.4588C14.0388 3.58759 13.7389 3.72518 13.4432 3.86939C13.1465 4.0136 12.853 4.1655 12.5638 4.32512C12.2746 4.48473 11.9886 4.65095 11.7069 4.82489C11.4262 4.99771 11.1488 5.17824 10.8756 5.36647C10.6025 5.55361 10.3347 5.74846 10.0712 5.9499C9.80772 6.15025 9.54849 6.35831 9.29463 6.57186C9.04076 6.78651 8.79225 7.00666 8.5491 7.23343C8.30594 7.4602 8.06923 7.69357 7.83678 7.93134C7.60434 8.17022 7.37832 8.41459 7.15767 8.66447C6.93701 8.91546 6.72278 9.17084 6.51498 9.43174C6.3061 9.69262 6.10472 9.95792 5.90869 10.2298C5.71375 10.5006 5.52415 10.7758 5.34205 11.0565C5.15889 11.3372 4.98321 11.6223 4.81505 11.9118C4.6458 12.2013 4.48405 12.4953 4.32981 12.7925C4.1745 13.0897 4.02667 13.3913 3.88634 13.6962C3.74603 14.0012 3.61321 14.3105 3.48681 14.622C3.36147 14.9335 3.24258 15.2484 3.13225 15.5665C3.02086 15.8836 2.91802 16.2038 2.82269 16.5275C2.72735 16.8501 2.63952 17.1747 2.55918 17.5027C2.47992 17.8297 2.40709 18.1589 2.34281 18.4903C2.27854 18.8215 2.22177 19.1539 2.17357 19.4875C2.12536 19.8211 2.08466 20.1557 2.05253 20.4915C2.02039 20.8282 1.99575 21.164 1.97861 21.502C1.96255 21.8389 1.95398 22.1757 1.95398 22.5137C1.95398 32.7499 18.6223 48.2757 22.0168 51.3303C25.4123 48.2757 42.0807 32.7522 42.0807 22.5158C42.0796 22.1789 42.0711 21.841 42.0549 21.5041C42.0388 21.1674 42.0142 20.8305 41.9822 20.4947C41.9488 20.1591 41.9093 19.8243 41.861 19.4898C41.8118 19.1562 41.756 18.8238 41.6919 18.4924C41.6276 18.161 41.5547 17.832 41.4754 17.505C41.395 17.1781 41.3073 16.8522 41.212 16.5297C41.1167 16.2061 41.0137 15.8857 40.9023 15.5687C40.792 15.2506 40.6732 14.9357 40.5479 14.6242C40.4224 14.3116 40.2886 14.0034 40.1482 13.6984C40.008 13.3935 39.8601 13.0919 39.7059 12.7947C39.5505 12.4964 39.3888 12.2036 39.2196 11.914C39.0514 11.6245 38.8757 11.3394 38.6936 11.0587C38.5104 10.778 38.3219 10.5017 38.1259 10.2309C37.9309 9.96012 37.7285 9.69372 37.5207 9.43284C37.3119 9.17194 37.0975 8.91656 36.8769 8.66557C36.6563 8.41569 36.4302 8.17132 36.1978 7.93244C35.9665 7.69357 35.7287 7.4613 35.4856 7.23453C35.2424 7.00776 34.9938 6.78761 34.74 6.57296C34.4861 6.35941 34.2279 6.15135 33.9645 5.9499C33.6999 5.74846 33.4321 5.55471 33.1589 5.36647C32.8858 5.17935 32.6094 4.99881 32.3278 4.82489C32.0461 4.65095 31.7612 4.48473 31.4709 4.32512C31.1817 4.1666 30.8891 4.0147 30.5924 3.86939C30.2957 3.72518 29.9958 3.58869 29.6916 3.4588C29.3885 3.33001 29.0833 3.20781 28.7736 3.09442C28.4651 2.97995 28.1535 2.87427 27.8397 2.77629C27.5246 2.67723 27.2087 2.58696 26.8906 2.5055C26.5724 2.42293 26.2522 2.34809 25.9298 2.28204C25.6083 2.216 25.2849 2.15765 24.9603 2.1081C24.6358 2.05857 24.3102 2.01675 23.9834 1.98372C23.6568 1.9496 23.3289 1.92428 23.0012 1.90777C22.6733 1.89126 22.3456 1.88245 22.0168 1.88135ZM31.2856 32.1754C30.9663 32.456 30.6353 32.7225 30.2925 32.9735C29.9509 33.2245 29.5984 33.4588 29.2353 33.6779C28.8732 33.897 28.5015 34.0985 28.1212 34.2845C27.742 34.4695 27.3543 34.6368 26.9601 34.7865C26.566 34.9362 26.1664 35.0682 25.7605 35.1817C25.3544 35.2951 24.9442 35.3896 24.5308 35.4656C24.1174 35.5417 23.7006 35.5988 23.2818 35.6373C22.8629 35.6747 22.4431 35.6946 22.0233 35.6946C21.6022 35.6946 21.1834 35.6747 20.7645 35.6373C20.3458 35.5988 19.9291 35.5417 19.5156 35.4656C19.1011 35.3896 18.6919 35.2951 18.2859 35.1817C17.8799 35.0682 17.4804 34.9362 17.0863 34.7865C16.691 34.6368 16.3043 34.4695 15.9241 34.2845C15.5438 34.0985 15.1732 33.897 14.81 33.6779C14.448 33.4588 14.0956 33.2245 13.7528 32.9735C13.4111 32.7225 13.0801 32.456 12.7609 32.1754C12.0775 31.5777 11.4541 30.9183 10.8928 30.1995C10.3304 29.4794 9.83985 28.7122 9.41995 27.8965C9.00006 27.0808 8.65836 26.2321 8.39593 25.3505C8.13242 24.4676 7.95246 23.5682 7.85606 22.6512C7.80036 22.1206 7.77143 21.5879 7.77143 21.054C7.77143 20.7479 7.78108 20.4431 7.79929 20.1381C7.8175 19.8332 7.84535 19.5293 7.88284 19.2256C7.91926 18.9228 7.96639 18.6212 8.02101 18.3207C8.07672 18.0202 8.14099 17.7218 8.2149 17.4257C8.28882 17.1296 8.37129 16.8368 8.46234 16.5462C8.55338 16.2556 8.65408 15.9672 8.76226 15.6832C8.87153 15.3992 8.98935 15.1185 9.11467 14.8411C9.24107 14.5648 9.37496 14.2918 9.51743 14.0243C9.65989 13.7557 9.81093 13.4926 9.96946 13.2339C10.128 12.9763 10.294 12.7231 10.4686 12.4754C10.6421 12.2278 10.8242 11.9856 11.0128 11.7489C11.2013 11.5133 11.3973 11.2833 11.5998 11.0598C11.8022 10.8364 12.0111 10.6195 12.2275 10.4103C12.4438 10.2001 12.6656 9.99645 12.8937 9.8016C13.1219 9.60566 13.3554 9.41742 13.5953 9.23688C13.8353 9.05636 14.0806 8.88354 14.3301 8.71842C14.5808 8.5533 14.8357 8.39699 15.0949 8.24837C15.3552 8.09976 15.6187 7.95997 15.8876 7.82786C16.1554 7.69687 16.4275 7.57468 16.7038 7.4602C16.9792 7.34573 17.2577 7.24115 17.5405 7.14537C17.8222 7.0496 18.1071 6.96263 18.3942 6.88449C18.6823 6.80633 18.9715 6.73808 19.2629 6.67974C19.5542 6.62029 19.8477 6.57076 20.1423 6.53003C20.4368 6.4904 20.7324 6.45957 21.0291 6.43865C21.3248 6.41664 21.6225 6.40564 21.9194 6.40344C22.2161 6.40124 22.5138 6.40894 22.8105 6.42545C23.1072 6.44307 23.4028 6.46948 23.6974 6.50581C23.993 6.54103 24.2865 6.58726 24.5789 6.6423C24.8713 6.69625 25.1616 6.7612 25.4498 6.83494C25.7391 6.9087 26.0241 6.99127 26.3078 7.08373C26.5916 7.17509 26.8712 7.27636 27.1487 7.38644C27.4261 7.49653 27.6993 7.61541 27.9692 7.7431C28.2392 7.87081 28.5059 8.0073 28.7672 8.1515C29.0286 8.29681 29.2857 8.44982 29.5384 8.61164C29.7902 8.77235 30.0377 8.94187 30.2797 9.11911C30.5218 9.29633 30.7585 9.48127 30.9899 9.67391C31.2202 9.86654 31.4451 10.0658 31.6637 10.2727C31.8822 10.4797 32.0942 10.6933 32.2999 10.9145C32.5055 11.1347 32.7047 11.3614 32.8965 11.5948C33.0882 11.8282 33.2724 12.0681 33.4503 12.3125C33.627 12.558 33.7974 12.809 33.9592 13.0655C34.1208 13.3209 34.2751 13.5828 34.4207 13.8481C34.5675 14.1145 34.7057 14.3853 34.8354 14.6605C34.9649 14.9346 35.0859 15.2142 35.1985 15.4971C35.311 15.7789 35.4148 16.0651 35.5102 16.3546C35.6055 16.6441 35.6923 16.937 35.7694 17.232C35.8464 17.527 35.915 17.8242 35.9751 18.1236C36.0339 18.4231 36.0843 18.7236 36.126 19.0262C36.1668 19.329 36.1989 19.6329 36.2214 19.9377C36.244 20.2426 36.2568 20.5476 36.2611 20.8525C36.2654 21.1585 36.26 21.4635 36.245 21.7695C36.231 22.0744 36.2064 22.3794 36.1732 22.682C36.141 22.9859 36.0982 23.2886 36.0467 23.5891C35.9954 23.8907 35.9343 24.189 35.8648 24.4862C35.7951 24.7835 35.7169 25.0785 35.629 25.3702C35.5412 25.662 35.4448 25.9515 35.3398 26.2366C35.2349 26.5227 35.1214 26.8046 34.9981 27.0831C34.876 27.3616 34.7454 27.6357 34.606 27.9064C34.4669 28.1761 34.32 28.4415 34.1648 28.7024C34.0094 28.9621 33.8466 29.2176 33.6764 29.4684C33.505 29.7184 33.3271 29.9628 33.1408 30.2016C32.9554 30.4393 32.7626 30.6728 32.5634 30.8984C32.3631 31.1252 32.1564 31.3442 31.9443 31.5578C31.7311 31.7703 31.5115 31.9761 31.2856 32.1754Z" fill="#0575AD"/>
</g>
<path d="M29.249 10.7314C28.9877 10.5366 28.7199 10.3539 28.4435 10.181C28.1682 10.0082 27.8876 9.84749 27.5994 9.69778C27.3113 9.54808 27.0189 9.40937 26.7211 9.28278C26.4223 9.15729 26.1202 9.04281 25.8127 8.94043C25.5064 8.83916 25.1958 8.7489 24.8831 8.67183C24.5691 8.59477 24.2532 8.53093 23.934 8.4792C23.6158 8.42745 23.2955 8.38892 22.9742 8.36251C22.6528 8.33719 22.3304 8.32397 22.0079 8.32397C21.6856 8.32397 21.3643 8.33719 21.0418 8.36251C20.7205 8.38892 20.4013 8.42745 20.082 8.4792C19.7639 8.53093 19.448 8.59477 19.134 8.67183C18.8202 8.7489 18.5096 8.83916 18.2033 8.94043C17.8968 9.04281 17.5937 9.15729 17.296 9.28278C16.9971 9.40937 16.7047 9.54808 16.4166 9.69778C16.1295 9.84749 15.8478 10.0082 15.5725 10.181C15.2972 10.3539 15.0283 10.5366 14.767 10.7314C15.0969 11.0694 15.4086 11.4227 15.7042 11.7915C15.9999 12.1614 16.2772 12.5444 16.5365 12.9429C16.7947 13.3403 17.0346 13.7498 17.2543 14.1714C17.4738 14.593 17.6719 15.0245 17.8508 15.4671C18.0287 15.9085 18.186 16.3587 18.3211 16.8155C18.456 17.2734 18.5695 17.7369 18.6606 18.2058C18.7516 18.6759 18.8192 19.1481 18.8653 19.6237C18.9113 20.1004 18.9337 20.5781 18.9337 21.0559C18.9337 21.5347 18.9113 22.0114 18.8653 22.488C18.8192 22.9635 18.7516 23.4369 18.6606 23.9058C18.5695 24.3747 18.456 24.8382 18.3211 25.2961C18.186 25.7541 18.0287 26.2031 17.8508 26.6457C17.6719 27.0871 17.4738 27.5187 17.2543 27.9402C17.0346 28.3619 16.7947 28.7713 16.5365 29.1698C16.2772 29.5673 15.9999 29.9503 15.7042 30.3202C15.4086 30.689 15.0969 31.0434 14.767 31.3814C15.0283 31.5751 15.2972 31.7578 15.5725 31.9306C15.8478 32.1034 16.1295 32.2641 16.4166 32.4138C16.7047 32.5636 16.9971 32.7023 17.296 32.8289C17.5937 32.9544 17.8968 33.0688 18.2033 33.1713C18.5096 33.2724 18.8202 33.3627 19.134 33.4399C19.448 33.5169 19.7639 33.5808 20.082 33.6324C20.4013 33.6842 20.7205 33.7227 21.0418 33.748C21.3643 33.7745 21.6856 33.7876 22.0079 33.7876C22.3304 33.7876 22.6528 33.7745 22.9742 33.748C23.2955 33.7227 23.6158 33.6842 23.934 33.6324C24.2532 33.5808 24.5691 33.5169 24.882 33.4399C25.1958 33.3627 25.5064 33.2724 25.8127 33.1713C26.1202 33.0688 26.4223 32.9544 26.7211 32.8289C27.0189 32.7023 27.3113 32.5636 27.5994 32.4138C27.8865 32.2641 28.1682 32.1034 28.4435 31.9306C28.7199 31.7578 28.9877 31.5751 29.249 31.3814C28.9191 31.0434 28.6064 30.69 28.3106 30.3202C28.0139 29.9514 27.7365 29.5683 27.4774 29.171C27.2181 28.7736 26.9781 28.364 26.7586 27.9413C26.5379 27.5198 26.3387 27.0882 26.1609 26.6468C25.982 26.2043 25.8245 25.7552 25.6896 25.2971C25.5536 24.8393 25.4399 24.3759 25.3489 23.9058C25.2578 23.4369 25.1894 22.9635 25.1443 22.488C25.0983 22.0114 25.0759 21.5336 25.0759 21.0559C25.0759 20.5769 25.0983 20.0992 25.1443 19.6237C25.1894 19.1471 25.2578 18.6738 25.3489 18.2047C25.4399 17.7359 25.5536 17.2723 25.6896 16.8145C25.8245 16.3566 25.982 15.9064 26.1609 15.4649C26.3387 15.0223 26.5379 14.5908 26.7586 14.1692C26.9781 13.7476 27.2181 13.3381 27.4774 12.9407C27.7365 12.5433 28.0139 12.1592 28.3106 11.7904C28.6064 11.4205 28.9191 11.0683 29.249 10.7314Z" fill="#0575AD"/>
<path d="M34.266 19.2818C34.2263 18.9957 34.1867 18.7006 34.1278 18.4145C34.0914 18.2415 34.0421 18.0732 34.0003 17.9036C33.9371 17.6483 33.874 17.3929 33.7958 17.1397C33.74 16.9614 33.6726 16.7874 33.6094 16.6114C33.5248 16.378 33.439 16.1424 33.3405 15.9134C33.2644 15.7373 33.1798 15.5645 33.0953 15.3916C32.9902 15.1726 32.8809 14.9557 32.7632 14.7422C32.67 14.5715 32.5671 14.4053 32.4654 14.2391C32.338 14.0344 32.2072 13.8318 32.0702 13.6337C31.9577 13.473 31.8408 13.3155 31.7209 13.157C31.5732 12.9655 31.4199 12.775 31.2624 12.5967C31.1329 12.4481 31.0033 12.3006 30.8672 12.1575C30.8019 12.0892 30.7312 12.0243 30.6637 11.9583C30.3691 12.2533 30.0906 12.5626 29.8271 12.8862C29.5637 13.211 29.3162 13.5467 29.0849 13.8957C28.8534 14.2457 28.6392 14.6057 28.4432 14.9767C28.2472 15.3476 28.0694 15.7285 27.9097 16.117C27.7502 16.5068 27.6098 16.9031 27.4899 17.307C27.3689 17.7111 27.2671 18.1195 27.1857 18.5333C27.1043 18.9472 27.0432 19.3645 27.0025 19.7849C26.9617 20.2055 26.9414 20.627 26.9414 21.0498C26.9414 21.4725 26.9617 21.8929 27.0025 22.3135C27.0432 22.734 27.1043 23.1512 27.1857 23.5651C27.2671 23.979 27.3689 24.3886 27.4899 24.7925C27.6098 25.1954 27.7502 25.5928 27.9097 25.9813C28.0694 26.371 28.2472 26.7508 28.4432 27.1218C28.6392 27.4938 28.8534 27.8539 29.0849 28.2028C29.3162 28.5518 29.5637 28.8886 29.8271 29.2122C30.0906 29.5358 30.3691 29.8462 30.6637 30.1413C30.7312 30.073 30.803 30.0091 30.8672 29.9399C31.0044 29.7967 31.1339 29.6536 31.2635 29.5007C31.421 29.3179 31.5732 29.1329 31.7198 28.9426C31.843 28.785 31.9609 28.6266 32.0712 28.4647C32.2083 28.2677 32.338 28.0673 32.4643 27.8649C32.5671 27.6963 32.67 27.5291 32.7642 27.3573C32.882 27.146 32.9902 26.9302 33.0953 26.7112C33.1787 26.5372 33.2644 26.3644 33.3405 26.1861C33.439 25.9582 33.5258 25.7249 33.6094 25.4904C33.6726 25.3142 33.7411 25.1404 33.7947 24.9609C33.874 24.7121 33.936 24.4578 33.9993 24.2035C34.041 24.0329 34.0925 23.8635 34.1267 23.6905C34.1857 23.4044 34.2252 23.1182 34.265 22.8243C34.2853 22.6767 34.3142 22.5314 34.3302 22.384C34.4245 21.4945 34.4245 20.6061 34.3302 19.7166C34.3142 19.5736 34.2853 19.4283 34.266 19.2818Z" fill="#0575AD"/>
<mask id="mask1_1_3903" style="mask-type:luminance" maskUnits="userSpaceOnUse" x="11" y="49" width="22" height="7">
<path d="M11.2788 49.3145H32.9418V55.3457H11.2788V49.3145Z" fill="white"/>
</mask>
<g mask="url(#mask1_1_3903)">
<path d="M22.6144 53.3172C22.5308 53.3897 22.4376 53.4449 22.3348 53.4834C22.232 53.5219 22.1259 53.5418 22.0167 53.5418C21.9073 53.5418 21.8013 53.5219 21.6985 53.4834C21.5956 53.4449 21.5024 53.3897 21.4189 53.3172C21.1854 53.1146 19.5283 51.6682 17.2415 49.4368C13.1507 50.105 11.2997 51.4337 11.2997 52.1955C11.2943 53.447 15.5715 55.3383 22.0167 55.3383C28.4618 55.3383 32.7389 53.447 32.7389 52.1955C32.7389 51.4314 30.8825 50.1061 26.7983 49.4368C24.5061 51.6682 22.8521 53.1146 22.6144 53.3172Z" fill="#0575AD"/>
</g>
</g>
</g>
<defs>
<clipPath id="clip0_1_3903">
<rect width="42.77" height="55" fill="white" transform="translate(0.630005 0.5)"/>
</clipPath>
<clipPath id="clip1_1_3903">
<rect width="42.7778" height="55" fill="white" transform="translate(0.626099 0.5)"/>
</clipPath>
</defs>
</svg>
