<svg width="58" height="56" viewBox="0 0 58 56" fill="none" xmlns="http://www.w3.org/2000/svg">
<g clip-path="url(#clip0_1_3891)">
<g clip-path="url(#clip1_1_3891)">
<mask id="mask0_1_3891" style="mask-type:luminance" maskUnits="userSpaceOnUse" x="1" y="0" width="56" height="56">
<path d="M1.5 0.5H56.5V55.5H1.5V0.5Z" fill="white"/>
</mask>
<g mask="url(#mask0_1_3891)">
<path fill-rule="evenodd" clip-rule="evenodd" d="M12.049 2.3978L2.29291 6.29531C2.22308 6.32329 2.16185 6.36418 2.10707 6.41583C2.05336 6.46856 2.01146 6.52881 1.98138 6.59769C1.95131 6.66656 1.93519 6.73865 1.93412 6.81398C1.93197 6.8893 1.94379 6.9614 1.97064 7.03134L4.9516 14.8242C4.97845 14.8963 5.01819 14.9598 5.07084 15.0158C5.12348 15.0706 5.18579 15.1137 5.2556 15.1449C5.32542 15.1761 5.39955 15.1912 5.47582 15.1933C5.55209 15.1944 5.62621 15.1804 5.69711 15.1514L12.049 12.6129V2.3978ZM34.7708 30.9308C34.7161 30.9286 34.6688 30.9459 34.6279 30.9814C34.5872 31.0181 34.5646 31.0632 34.5592 31.1171L32.1315 53.5454C32.1176 53.6659 32.1154 53.7876 32.1271 53.9092C32.1389 54.0297 32.1638 54.1492 32.2002 54.2643C32.2378 54.3805 32.2862 54.4913 32.3464 54.5978C32.4065 54.7032 32.4774 54.8013 32.559 54.8917C32.6407 54.9831 32.7298 55.0637 32.8286 55.1359C32.9275 55.2069 33.0328 55.2672 33.1434 55.3167C33.2551 55.3662 33.37 55.4027 33.4893 55.4275C33.6085 55.4522 33.7289 55.4641 33.8513 55.463H54.7211C54.8426 55.4641 54.963 55.4522 55.0821 55.4275C55.2014 55.4038 55.3173 55.3662 55.4291 55.3167C55.5399 55.2682 55.645 55.208 55.7438 55.1359C55.8427 55.0648 55.9319 54.9831 56.0135 54.8928C56.0952 54.8023 56.1661 54.7043 56.2263 54.5978C56.2863 54.4924 56.3358 54.3816 56.3722 54.2653C56.4089 54.1492 56.4335 54.0308 56.4453 53.9092C56.4562 53.7876 56.4551 53.667 56.4411 53.5454L54.0123 31.1171C54.0079 31.0621 53.9843 31.017 53.9434 30.9814C53.9027 30.9459 53.8554 30.9286 53.8006 30.9308H50.5501V28.0319C50.549 27.6532 50.5135 27.2776 50.4448 26.9053C50.376 26.5318 50.274 26.1692 50.1396 25.8141C50.0054 25.4601 49.84 25.1211 49.6434 24.7972C49.4479 24.4723 49.2244 24.1688 48.973 23.8847C48.7228 23.6006 48.4478 23.3413 48.1502 23.1078C47.8527 22.8732 47.5358 22.6676 47.2006 22.4912C46.8665 22.3136 46.5184 22.1684 46.1565 22.0543C45.7956 21.9402 45.4271 21.8596 45.051 21.8121V23.4306C45.3207 23.4769 45.585 23.5457 45.8418 23.6383C46.0995 23.7298 46.3476 23.8438 46.5851 23.9795C46.8225 24.1151 47.0471 24.27 47.2575 24.4454C47.4681 24.6197 47.6615 24.8112 47.8388 25.021C48.0149 25.2298 48.1728 25.4514 48.3103 25.6882C48.4488 25.9249 48.5649 26.1713 48.6594 26.4285C48.754 26.6847 48.8259 26.9484 48.8743 27.2172C48.9226 27.4863 48.9472 27.7586 48.9483 28.0319V30.9297L34.7708 30.9308ZM43.0402 43.1248L44.2862 39.9601L45.5313 43.1248L48.9259 43.3326L46.3014 45.4955L47.1533 48.7892L44.2862 46.961L41.4181 48.7892L42.2699 45.4955L39.6456 43.3326L43.0402 43.1248ZM22.862 0.527588C22.9093 0.867626 22.9877 1.20121 23.0952 1.52726C23.2025 1.8533 23.338 2.16752 23.5024 2.46989C23.6666 2.7712 23.8558 3.05635 24.0706 3.32429C24.2854 3.59224 24.5228 3.83865 24.7817 4.06354C25.0416 4.28953 25.3188 4.48967 25.6142 4.66507C25.9085 4.84047 26.2168 4.98897 26.5391 5.10948C26.8603 5.23001 27.19 5.3204 27.5285 5.38173C27.8657 5.442 28.2074 5.47319 28.5501 5.47319C28.8938 5.47319 29.2343 5.442 29.5726 5.38173C29.91 5.3204 30.2397 5.23001 30.562 5.10948C30.8832 4.98897 31.1915 4.84047 31.4869 4.66507C31.7824 4.48967 32.0596 4.28953 32.3184 4.06354C32.5774 3.83865 32.8146 3.59224 33.0295 3.32429C33.2444 3.05635 33.4346 2.7712 33.5978 2.46989C33.7622 2.16752 33.8975 1.8533 34.0059 1.52726C34.1134 1.20121 34.1907 0.867626 34.2391 0.527588H22.862ZM22.0392 51.2686L15.9505 52.901L25.3123 55.4113C25.4134 55.4373 25.5143 55.4544 25.6173 55.4608C25.7206 55.4673 25.8237 55.4641 25.9257 55.4501C26.0289 55.4362 26.1287 55.4135 26.2264 55.3802C26.3243 55.3468 26.4188 55.3037 26.5079 55.2522C26.5971 55.2005 26.6809 55.1412 26.7593 55.0724C26.8366 55.0047 26.9075 54.9292 26.9699 54.8475C27.0332 54.7658 27.088 54.6786 27.1342 54.586C27.1793 54.4924 27.2158 54.3967 27.2438 54.2966L27.6509 52.7729L22.0392 51.2686ZM13.6506 41.7432V1.89742L21.2646 0.665325C21.2926 0.883766 21.3302 1.10113 21.3786 1.31742C21.4259 1.53264 21.4839 1.74677 21.5505 1.95661C21.6181 2.16752 21.6944 2.3752 21.7804 2.57857C21.8662 2.78195 21.9608 2.98103 22.065 3.17686C22.1681 3.37164 22.2809 3.5621 22.4013 3.74718C22.5226 3.93226 22.6514 4.11089 22.788 4.28414C22.9255 4.45739 23.0704 4.62418 23.2219 4.78451C23.3744 4.94485 23.5335 5.09872 23.6988 5.244C23.8654 5.39035 24.0373 5.52808 24.2156 5.65936C24.3938 5.78957 24.5775 5.91116 24.7677 6.02522C24.9567 6.13929 25.1513 6.24366 25.3499 6.34051C25.5487 6.43627 25.7517 6.52344 25.9579 6.60199C26.1642 6.67947 26.3748 6.74834 26.5874 6.80752C26.8002 6.8667 27.015 6.9162 27.2331 6.95602C27.4501 6.99476 27.6692 7.02488 27.8884 7.04533C28.1085 7.0647 28.3298 7.07438 28.5501 7.07438C28.7714 7.07438 28.9915 7.0647 29.2118 7.04533C29.432 7.02488 29.6501 6.99476 29.8681 6.95602C30.0851 6.9162 30.2999 6.8667 30.5127 6.80752C30.7264 6.74834 30.9358 6.67947 31.1422 6.60199C31.3494 6.52344 31.5525 6.43627 31.7513 6.34051C31.9499 6.24366 32.1444 6.13929 32.3335 6.02522C32.5225 5.91116 32.7062 5.78957 32.8846 5.65936C33.0628 5.52808 33.2358 5.39035 33.4013 5.244C33.5677 5.09872 33.7267 4.94485 33.8782 4.78451C34.0308 4.62418 34.1747 4.45739 34.3122 4.28414C34.4497 4.11089 34.5786 3.93226 34.6988 3.74718C34.8203 3.5621 34.932 3.37164 35.0362 3.17686C35.1393 2.98103 35.235 2.78195 35.3208 2.57857C35.4058 2.3752 35.4831 2.16752 35.5497 1.95661C35.6162 1.74677 35.6743 1.53264 35.7226 1.31742C35.7699 1.10113 35.8085 0.883766 35.8365 0.665325L43.4494 1.89742V21.8219C43.0778 21.8725 42.7126 21.9564 42.3559 22.0736C41.9982 22.1899 41.6544 22.3373 41.3236 22.516C40.9927 22.6947 40.6812 22.9011 40.3869 23.1358C40.0937 23.3704 39.8229 23.6286 39.5759 23.9116C39.3277 24.1946 39.1074 24.498 38.9152 24.8199C38.7218 25.1426 38.5596 25.4794 38.4264 25.8314C38.2942 26.1832 38.1933 26.5437 38.1256 26.9138C38.0579 27.284 38.0236 27.6563 38.0225 28.0319V29.3286H34.7708C34.6601 29.3286 34.5506 29.3382 34.4411 29.3586C34.3325 29.379 34.2263 29.4092 34.123 29.448C34.0188 29.4878 33.92 29.5373 33.8255 29.5954C33.7309 29.6525 33.6429 29.7191 33.5601 29.7934C33.4775 29.8676 33.4033 29.9484 33.3357 30.0365C33.268 30.1237 33.2089 30.2174 33.1585 30.3164C33.1079 30.4143 33.0672 30.5176 33.0359 30.623C33.0037 30.7295 32.9823 30.8383 32.9704 30.948L31.5687 43.8921H18.5984C17.868 43.3465 17.0859 42.8924 16.2502 42.5297C15.4145 42.1672 14.5465 41.9037 13.6506 41.7432ZM39.6241 29.3286V28.0319C39.6252 27.7617 39.6488 27.4927 39.6961 27.227C39.7445 26.9602 39.8143 26.6998 39.9067 26.4458C39.9991 26.1908 40.113 25.9464 40.2483 25.712C40.3836 25.4774 40.5373 25.2567 40.7112 25.0479C40.8842 24.8403 41.0744 24.6487 41.2806 24.4745C41.4869 24.2989 41.707 24.1431 41.9402 24.0063C42.1733 23.8696 42.4172 23.7546 42.6706 23.6598C42.9241 23.5651 43.1842 23.4931 43.4494 23.4436V29.3286H39.6241ZM13.468 51.9088C12.9685 47.3785 13.6152 44.7519 14.12 43.4811C13.9235 43.4305 13.7247 43.3852 13.5249 43.3476C13.3251 43.3088 13.1243 43.2755 12.9234 43.2496C12.7214 43.2227 12.5184 43.2023 12.3154 43.1883C12.1134 43.1743 11.9093 43.1668 11.7063 43.1646C11.5033 43.1625 11.2992 43.1668 11.0961 43.1776C10.8931 43.1883 10.6901 43.2045 10.4881 43.2271C10.2862 43.2496 10.0853 43.2786 9.8844 43.3142C9.68353 43.3486 9.48481 43.3896 9.28715 43.4369C9.08948 43.4842 8.89291 43.537 8.6974 43.5961C8.50296 43.6542 8.31068 43.7199 8.11947 43.7898C7.92933 43.8609 7.74027 43.9372 7.55443 44.0191C7.36751 44.1008 7.18489 44.189 7.00336 44.2815C6.82288 44.3752 6.64457 44.4742 6.46947 44.5776C6.29545 44.6819 6.12357 44.7905 5.95492 44.9057C5.78734 45.0198 5.6219 45.1392 5.46079 45.2629C5.29965 45.3878 5.14281 45.517 4.9892 45.6504C4.83666 45.7849 4.68734 45.9226 4.54232 46.0657C4.39731 46.2089 4.25765 46.3563 4.12122 46.5079C3.98587 46.6586 3.85375 46.8147 3.72807 46.9739C3.6013 47.1332 3.47992 47.2968 3.36283 47.4624C3.24575 47.6293 3.1351 47.8003 3.02875 47.9736C2.92239 48.1468 2.82143 48.3232 2.72582 48.503C2.63022 48.6828 2.53997 48.8657 2.45511 49.0507C2.37026 49.2358 2.29183 49.4231 2.21879 49.6124C2.14467 49.8029 2.07806 49.9945 2.01576 50.1892C1.95453 50.3829 1.89867 50.5787 1.84926 50.7756C1.79984 50.9725 1.7558 51.1716 1.7182 51.3718C1.6806 51.572 1.64838 51.7732 1.6226 51.9745C1.59789 52.1767 1.57855 52.3789 1.56459 52.5824C1.5517 52.7858 1.54418 52.9891 1.5431 53.1925C1.54203 53.3958 1.5474 53.5993 1.55922 53.8027C1.56996 54.006 1.58822 54.2084 1.61185 54.4107C1.62152 54.4935 1.6473 54.5698 1.69027 54.6409C1.73324 54.7119 1.7891 54.7711 1.85785 54.8173C1.9266 54.8648 2.00287 54.8948 2.08451 54.9077C2.16615 54.9218 2.24779 54.9174 2.32728 54.8959L13.468 51.9088ZM15.6143 43.9954C16.2481 44.2697 16.8475 44.6065 17.4115 45.0047C17.9764 45.4029 18.4942 45.8537 18.9658 46.3583C19.4374 46.8642 19.8521 47.4118 20.2108 48.0016C20.5696 48.5923 20.8639 49.2132 21.0949 49.8642L15.0278 51.4913C14.5755 47.1536 15.2125 44.9186 15.6143 43.9954ZM45.051 12.6129L51.4029 15.1514C51.4738 15.1804 51.548 15.1944 51.6242 15.1933C51.7016 15.1922 51.7747 15.1761 51.8445 15.1449C51.9154 15.1148 51.9766 15.0717 52.0293 15.0158C52.0819 14.9598 52.1226 14.8963 52.1495 14.8253L55.1294 7.03242C55.1563 6.96248 55.1692 6.8893 55.167 6.81398C55.1649 6.73973 55.1487 6.66763 55.1187 6.59876C55.0885 6.5299 55.0467 6.46963 54.993 6.41691C54.9393 6.36418 54.877 6.32437 54.8071 6.29638L45.051 2.3978V12.6129Z" fill="#0575AD"/>
</g>
</g>
</g>
<defs>
<clipPath id="clip0_1_3891">
<rect width="56.56" height="55" fill="white" transform="translate(0.719971 0.5)"/>
</clipPath>
<clipPath id="clip1_1_3891">
<rect width="56.5714" height="55" fill="white" transform="translate(0.714233 0.5)"/>
</clipPath>
</defs>
</svg>
