<svg width="46" height="46" viewBox="0 0 46 46" fill="none" xmlns="http://www.w3.org/2000/svg">
<g clip-path="url(#clip0_1_4002)">
<g clip-path="url(#clip1_1_4002)">
<mask id="mask0_1_4002" style="mask-type:luminance" maskUnits="userSpaceOnUse" x="0" y="0" width="46" height="46">
<path d="M0.830002 0.25H45.83V45.25H0.830002V0.25Z" fill="white"/>
</mask>
<g mask="url(#mask0_1_4002)">
<path d="M21.2531 27.957H18.098V26.9754H21.2531V27.957ZM0.830002 25.5049H24.7519V29.4464C19.6185 29.4376 7.8913 29.4464 2.61486 29.4464C1.63409 29.4464 0.830002 28.6047 0.830002 27.5677V25.5049ZM17.0992 28.1977C17.0992 28.6413 17.4442 29.0029 17.8685 29.0029H21.4826C21.9069 29.0029 22.2519 28.6413 22.2519 28.1977V26.7348C22.2519 26.2912 21.9069 25.9308 21.4826 25.9308H17.8685C17.4442 25.9308 17.0992 26.2912 17.0992 26.7348V28.1977ZM23.7014 35.2201H15.6497V35.2113H13.3432C12.7338 35.2113 12.2302 35.7393 12.2302 36.3769V37.6823H24.7519V35.2113L23.7014 35.2201ZM17.3024 30.4923L16.3132 34.1655H23.0463L22.0572 30.4923H17.3024ZM1.705 2.1405C1.705 1.6037 2.11125 1.1778 2.62327 1.1778H36.7362C37.2483 1.1778 37.6545 1.6037 37.6545 2.1405V10.6712H38.5211V2.1405C38.5211 1.10345 37.717 0.261719 36.7266 0.261719H2.61486C1.63409 0.270539 0.830002 1.10345 0.830002 2.1405V24.4502H1.69539V2.1405H1.705ZM27.3156 10.6712H36.6569V2.22366H2.7026V24.4502H24.7615V13.3363C24.7615 12.2627 25.3805 11.3378 26.2639 10.9207C26.5824 10.7645 26.9442 10.6712 27.3156 10.6712ZM45.83 13.3451V43.6224C45.83 44.5208 45.1317 45.2416 44.2747 45.2416H27.3156C26.4586 45.2416 25.7687 44.5107 25.7687 43.6224V13.3451C25.7687 12.6975 26.1317 12.143 26.6617 11.8834C26.8649 11.7814 27.086 11.7259 27.324 11.7259C30.8588 11.7259 40.8901 11.7259 44.2747 11.7259C45.1317 11.7171 45.83 12.448 45.83 13.3451ZM45.3 13.3451C45.3 12.7529 44.8396 12.2728 44.2831 12.2728H39.8204C39.6521 12.2728 39.4935 12.3648 39.3961 12.5223L38.592 13.8542H32.3348L31.5307 12.5223C31.4418 12.3736 31.2831 12.2728 31.1064 12.2728H27.3156C26.7495 12.2728 26.2903 12.7529 26.2903 13.3451V43.6224C26.2903 44.2146 26.7495 44.6959 27.3156 44.6959H44.2747C44.8312 44.6959 45.2903 44.2146 45.2903 43.6224V13.3451H45.3ZM44.2747 43.6501L27.2975 43.6224L27.324 13.3174H30.842L31.6461 14.6506C31.7338 14.798 31.8925 14.9001 32.0704 14.9001H38.8829C39.0512 14.9001 39.211 14.8081 39.3072 14.6506L40.1112 13.3174H44.2747C44.336 13.3174 44.2567 43.6224 44.2747 43.6501ZM42.4274 24.7552C42.4274 23.6539 41.5704 22.7567 40.5091 22.7567H31.0716C30.0199 22.7567 29.1533 23.6539 29.1533 24.7552V32.3887C29.1533 33.49 30.0103 34.3872 31.0716 34.3872H40.5091C41.5608 34.3872 42.4274 33.49 42.4274 32.3887V24.7552ZM37.5319 28.3829L34.2795 26.4109C34.1293 26.3378 33.979 26.4021 33.961 26.6062V30.5478C33.9694 30.733 34.1197 30.825 34.2795 30.7418L37.5319 28.771C37.6281 28.7156 37.6377 28.6224 37.6377 28.577C37.6377 28.5215 37.6197 28.4384 37.5319 28.3829ZM41.4286 24.7552V32.3887C41.4286 32.9167 41.0223 33.3426 40.5091 33.3426H31.0716C30.568 33.3426 30.1521 32.9167 30.1521 32.3887V24.7552C30.1521 24.2272 30.5584 23.8025 31.0716 23.8025H40.5091C41.0223 23.8025 41.4286 24.2272 41.4286 24.7552ZM38.0259 27.4757L34.7735 25.5049C34.3937 25.2731 33.943 25.2731 33.5548 25.5049C33.175 25.7355 32.9538 26.1425 32.9538 26.6062V30.5478C32.9177 31.5004 34.0055 32.1481 34.7735 31.6491L38.0259 29.6783C38.83 29.2247 38.83 27.9192 38.0259 27.4757Z" fill="#00D280"/>
</g>
</g>
</g>
<defs>
<clipPath id="clip0_1_4002">
<rect width="45" height="45" fill="white" transform="translate(0.830002 0.25)"/>
</clipPath>
<clipPath id="clip1_1_4002">
<rect width="45" height="45" fill="white" transform="translate(0.830002 0.25)"/>
</clipPath>
</defs>
</svg>
