<svg width="58" height="56" viewBox="0 0 58 56" fill="none" xmlns="http://www.w3.org/2000/svg">
<g clip-path="url(#clip0_1_3822)">
<g clip-path="url(#clip1_1_3822)">
<g clip-path="url(#clip2_1_3822)">
<mask id="mask0_1_3822" style="mask-type:luminance" maskUnits="userSpaceOnUse" x="1" y="0" width="56" height="56">
<path d="M1.49994 0.5H56.4999V55.5H1.49994V0.5Z" fill="white"/>
</mask>
<g mask="url(#mask0_1_3822)">
<path d="M26.4615 34.362H22.6053V33.1622H26.4615V34.362ZM1.49994 31.365H30.7378V36.1824C24.4635 36.1717 10.1304 36.1824 3.68143 36.1824C2.48271 36.1824 1.49994 35.1537 1.49994 33.8862V31.365ZM21.3845 34.6562C21.3845 35.1983 21.8061 35.6404 22.3247 35.6404H26.7421C27.2607 35.6404 27.6823 35.1983 27.6823 34.6562V32.8682C27.6823 32.3261 27.2607 31.8856 26.7421 31.8856H22.3247C21.8061 31.8856 21.3845 32.3261 21.3845 32.8682V34.6562ZM29.4539 43.2392H19.6129V43.2283H16.7939C16.0491 43.2283 15.4336 43.8737 15.4336 44.653V46.2485H30.7378V43.2283L29.4539 43.2392ZM21.6328 37.4607L20.4239 41.9501H28.6533L27.4442 37.4607H21.6328ZM2.56939 2.8085C2.56939 2.15241 3.06591 1.63186 3.69172 1.63186H45.3854C46.0111 1.63186 46.5077 2.15241 46.5077 2.8085V13.235H47.5668V2.8085C47.5668 1.54099 46.5841 0.512207 45.3736 0.512207H3.68143C2.48271 0.522988 1.49994 1.54099 1.49994 2.8085V30.0759H2.55764V2.8085H2.56939ZM33.8712 13.235H45.2884V2.91014H3.78866V30.0759H30.7496V16.4922C30.7496 15.1801 31.5061 14.0497 32.5858 13.5399C32.975 13.3489 33.4172 13.235 33.8712 13.235ZM56.4999 16.503V53.5086C56.4999 54.6066 55.6465 55.4875 54.599 55.4875H33.8712C32.8239 55.4875 31.9806 54.5943 31.9806 53.5086V16.503C31.9806 15.7114 32.4242 15.0338 33.072 14.7165C33.3203 14.5918 33.5906 14.524 33.8814 14.524C38.2019 14.524 50.4623 14.524 54.599 14.524C55.6465 14.5132 56.4999 15.4065 56.4999 16.503ZM55.852 16.503C55.852 15.7792 55.2895 15.1924 54.6094 15.1924H49.1549C48.9492 15.1924 48.7553 15.3049 48.6364 15.4974L47.6536 17.1252H40.0058L39.023 15.4974C38.9144 15.3156 38.7205 15.1924 38.5044 15.1924H33.8712C33.1793 15.1924 32.6182 15.7792 32.6182 16.503V53.5086C32.6182 54.2324 33.1793 54.8208 33.8712 54.8208H54.599C55.2793 54.8208 55.8404 54.2324 55.8404 53.5086V16.503H55.852ZM54.599 53.5424L33.8492 53.5086L33.8814 16.4691H38.1813L39.1641 18.0985C39.2713 18.2788 39.4652 18.4035 39.6827 18.4035H48.009C48.2147 18.4035 48.4101 18.2912 48.5276 18.0985L49.5104 16.4691H54.599C54.6739 16.4691 54.577 53.5086 54.599 53.5424ZM52.3412 30.4487C52.3412 29.1026 51.2938 28.0061 49.9966 28.0061H38.4618C37.1766 28.0061 36.1173 29.1026 36.1173 30.4487V39.7786C36.1173 41.1247 37.1648 42.2212 38.4618 42.2212H49.9966C51.282 42.2212 52.3412 41.1247 52.3412 39.7786V30.4487ZM46.3578 34.8826L42.3827 32.4724C42.199 32.383 42.0155 32.4615 41.9935 32.7111V37.5284C42.0037 37.7549 42.1874 37.8672 42.3827 37.7657L46.3578 35.3569C46.4753 35.2892 46.4871 35.1752 46.4871 35.1198C46.4871 35.052 46.4651 34.9504 46.3578 34.8826ZM51.1205 30.4487V39.7786C51.1205 40.4238 50.6239 40.9444 49.9966 40.9444H38.4618C37.8463 40.9444 37.3381 40.4238 37.3381 39.7786V30.4487C37.3381 29.8033 37.8347 29.2843 38.4618 29.2843H49.9966C50.6239 29.2843 51.1205 29.8033 51.1205 30.4487ZM46.9617 33.7737L42.9864 31.365C42.5222 31.0817 41.9713 31.0817 41.4969 31.365C41.0327 31.6469 40.7624 32.1443 40.7624 32.7111V37.5284C40.7182 38.6927 42.0478 39.4844 42.9864 38.8745L46.9617 36.4658C47.9445 35.9114 47.9445 34.3158 46.9617 33.7737Z" fill="#0575AD"/>
</g>
</g>
</g>
</g>
<defs>
<clipPath id="clip0_1_3822">
<rect width="56.56" height="55" fill="white" transform="translate(0.719971 0.5)"/>
</clipPath>
<clipPath id="clip1_1_3822">
<rect width="56.56" height="55" fill="white" transform="translate(0.719971 0.5)"/>
</clipPath>
<clipPath id="clip2_1_3822">
<rect width="56.5714" height="55" fill="white" transform="translate(0.714233 0.5)"/>
</clipPath>
</defs>
</svg>
