<svg width="46" height="46" viewBox="0 0 46 46" fill="none" xmlns="http://www.w3.org/2000/svg">
<g clip-path="url(#clip0_1_3940)">
<path d="M45.7686 32.408C45.0401 28.3486 42.0545 26.0057 38.4804 24.7461C38.4133 25.7749 38.3301 26.9742 38.2642 28.0412C39.5164 28.7012 40.5375 29.6174 41.1376 30.9002C42.4731 34.6152 38.2642 36.8224 34.8496 37.6935V37.1147C34.8496 36.3573 33.994 35.9142 33.3707 36.3411L28.1627 39.9366C27.6227 40.3124 27.6227 41.115 28.1627 41.4815L33.3707 45.084C33.994 45.5131 34.8496 45.0701 34.8496 44.3104V43.575C40.0426 42.1345 46.5259 38.6967 45.7686 32.408Z" fill="#00D280"/>
<path d="M18.4965 39.9318L13.2885 36.3375C12.6653 35.9083 11.8108 36.3514 11.8108 37.1111V37.6887C8.39623 36.8177 4.18614 34.6128 5.52167 30.8966C6.12179 29.6208 7.14396 28.7057 8.38929 28.0446C8.32917 27.0158 8.24591 25.8014 8.18694 24.7344C4.60588 26.0032 1.61916 28.3369 0.890688 32.4044C0.133312 38.692 6.61784 42.1297 11.8108 43.5703V44.3068C11.8108 45.0642 12.6653 45.5072 13.2885 45.0804L18.4965 41.4779C19.0377 41.1102 19.0377 40.3065 18.4965 39.9318Z" fill="#00D280"/>
<path d="M32.7143 19.6133L28.0764 18.5323C27.4173 18.4013 26.9305 17.8121 26.9305 17.1451V16.0073C27.2219 15.7522 27.4959 15.4912 27.7365 15.1723C28.4857 14.2281 29.0581 12.9941 29.4293 11.5501C29.7704 11.506 30.1323 10.9191 30.2641 10.149C30.4087 9.32083 30.2202 8.58201 29.8571 8.52401H29.7924C29.7924 8.49502 30.2711 6.36786 29.9438 4.65593C29.6813 3.22584 28.4996 1.66585 27.1641 1.04765C24.064 -0.338369 21.43 0.387695 19.7892 0.946741C18.8237 1.25874 18.1183 2.06367 17.9241 3.02171L17.8004 3.55059C15.4057 5.4307 16.6984 8.1459 16.8719 8.53097C16.5227 8.60288 16.3423 9.32315 16.4868 10.149C16.6094 10.9191 16.9725 11.506 17.3147 11.5501C17.6928 12.9941 18.2721 14.2281 18.9994 15.1723C19.2238 15.4553 19.4851 15.6942 19.7325 15.9204V17.1254C19.7325 17.8005 19.2469 18.3815 18.5728 18.5126L13.9638 19.5715C12.5114 19.8545 11.4673 21.2266 11.4384 22.8156C11.4384 22.8667 11.8732 29.871 11.924 30.6411C11.961 31.199 12.4178 31.627 12.9693 31.627H33.6914C34.2349 31.627 34.6997 31.199 34.7355 30.6411C34.7934 29.871 35.2293 23.0267 35.2293 22.9838C35.2512 21.3519 34.206 19.9125 32.7189 19.6168L32.7143 19.6133ZM19.3012 10.1919C18.9093 10.1919 18.589 9.87175 18.589 9.48669V7.1496C18.589 6.75757 18.9231 6.41657 19.3012 6.41657H27.3502C27.7573 6.41657 28.0625 6.75757 28.0625 7.1496V9.47277C28.0625 9.87175 27.7492 10.1919 27.3502 10.1919H19.3012Z" fill="#00D280"/>
</g>
<defs>
<clipPath id="clip0_1_3940">
<rect width="45" height="45" fill="white" transform="translate(0.830002 0.25)"/>
</clipPath>
</defs>
</svg>
