<svg width="56" height="55" viewBox="0 0 56 55" fill="none" xmlns="http://www.w3.org/2000/svg">
<g clip-path="url(#clip0_1_3758)">
<g clip-path="url(#clip1_1_3758)">
<path d="M54.664 39.5942C53.7984 34.7706 50.2507 31.9865 46.0037 30.4897C45.9239 31.7123 45.8251 33.1374 45.7467 34.4053C47.2347 35.1895 48.448 36.2783 49.1611 37.8026C50.748 42.217 45.7467 44.8397 41.6892 45.8748V45.1871C41.6892 44.2871 40.6725 43.7606 39.932 44.2677L33.7434 48.5403C33.1017 48.9867 33.1017 49.9405 33.7434 50.3761L39.932 54.6567C40.6725 55.1667 41.6892 54.6402 41.6892 53.7375V52.8637C47.8599 51.1519 55.5639 47.0669 54.664 39.5942Z" fill="#0575AD"/>
<path d="M22.2565 48.5368L16.0681 44.2658C15.3275 43.7558 14.3121 44.2823 14.3121 45.185V45.8713C10.2547 44.8362 5.25192 42.2162 6.8389 37.8005C7.552 36.2845 8.76662 35.197 10.2464 34.4114C10.175 33.1891 10.076 31.7461 10.006 30.478C5.75069 31.9858 2.20165 34.7587 1.33603 39.5921C0.436058 47.0634 8.14145 51.1486 14.3121 52.8603V53.7354C14.3121 54.6354 15.3275 55.1619 16.0681 54.6547L22.2565 50.374C22.8995 49.937 22.8995 48.9819 22.2565 48.5368Z" fill="#0575AD"/>
<path d="M39.1511 24.3934L33.64 23.1088C32.8568 22.9532 32.2784 22.253 32.2784 21.4605V20.1086C32.6246 19.8053 32.9503 19.4952 33.236 19.1161C34.1264 17.9943 34.8066 16.5279 35.2476 14.8121C35.653 14.7597 36.083 14.0623 36.2396 13.1472C36.4113 12.1631 36.1874 11.2852 35.7559 11.2163H35.6791C35.6791 11.1818 36.2479 8.65421 35.8591 6.61995C35.5471 4.92062 34.1429 3.06692 32.556 2.33234C28.8722 0.685379 25.7423 1.54815 23.7925 2.21244C22.6453 2.58318 21.8072 3.53965 21.5763 4.67806L21.4293 5.30652C18.5837 7.54061 20.1199 10.767 20.326 11.2246C19.911 11.31 19.6967 12.1659 19.8684 13.1472C20.014 14.0623 20.4455 14.7597 20.8522 14.8121C21.3015 16.5279 21.9899 17.9943 22.8542 19.1161C23.1208 19.4526 23.4312 19.7364 23.7253 20.0052V21.4371C23.7253 22.2392 23.1483 22.9298 22.3471 23.0855L16.8703 24.3437C15.1446 24.68 13.9039 26.3104 13.8696 28.1986C13.8696 28.2593 14.3862 36.5823 14.4466 37.4974C14.4906 38.1603 15.0333 38.6689 15.6887 38.6689H40.3122C40.958 38.6689 41.5103 38.1603 41.5529 37.4974C41.6215 36.5823 42.1396 28.4495 42.1396 28.3985C42.1657 26.4593 40.9236 24.7489 39.1566 24.3975L39.1511 24.3934ZM23.2127 13.1982C22.7469 13.1982 22.3663 12.8178 22.3663 12.3602V9.58311C22.3663 9.11728 22.7634 8.71208 23.2127 8.71208H32.7772C33.2608 8.71208 33.6236 9.11728 33.6236 9.58311V12.3437C33.6236 12.8178 33.2511 13.1982 32.7772 13.1982H23.2127Z" fill="#0575AD"/>
</g>
</g>
<defs>
<clipPath id="clip0_1_3758">
<rect width="55" height="55" fill="white" transform="translate(0.5)"/>
</clipPath>
<clipPath id="clip1_1_3758">
<rect width="55" height="55" fill="white" transform="translate(0.5)"/>
</clipPath>
</defs>
</svg>
