<svg width="56" height="56" viewBox="0 0 56 56" fill="none" xmlns="http://www.w3.org/2000/svg">
<g clip-path="url(#clip0_1_3758)">
<g clip-path="url(#clip1_1_3758)">
<g clip-path="url(#clip2_1_3758)">
<path d="M54.664 40.0942C53.7984 35.2706 50.2507 32.4865 46.0037 30.9897C45.9239 32.2123 45.8251 33.6374 45.7467 34.9053C47.2347 35.6895 48.448 36.7783 49.1611 38.3026C50.748 42.717 45.7467 45.3397 41.6892 46.3748V45.6871C41.6892 44.7871 40.6725 44.2606 39.932 44.7677L33.7434 49.0403C33.1017 49.4867 33.1017 50.4405 33.7434 50.8761L39.932 55.1567C40.6725 55.6667 41.6892 55.1402 41.6892 54.2375V53.3637C47.8599 51.6519 55.5639 47.5669 54.664 40.0942Z" fill="white"/>
<path d="M22.2565 49.0368L16.0681 44.7658C15.3275 44.2558 14.3121 44.7823 14.3121 45.685V46.3713C10.2547 45.3362 5.25192 42.7162 6.8389 38.3005C7.552 36.7845 8.76662 35.697 10.2464 34.9114C10.175 33.6891 10.076 32.2461 10.006 30.978C5.75069 32.4858 2.20165 35.2587 1.33603 40.0921C0.436058 47.5634 8.14145 51.6486 14.3121 53.3603V54.2354C14.3121 55.1354 15.3275 55.6619 16.0681 55.1547L22.2565 50.874C22.8995 50.437 22.8995 49.4819 22.2565 49.0368Z" fill="white"/>
<path d="M39.1511 24.8936L33.64 23.6091C32.8568 23.4534 32.2784 22.7532 32.2784 21.9608V20.6088C32.6246 20.3056 32.9503 19.9954 33.236 19.6164C34.1264 18.4945 34.8066 17.0282 35.2476 15.3123C35.653 15.2599 36.083 14.5626 36.2396 13.6474C36.4113 12.6634 36.1874 11.7855 35.7559 11.7165H35.6791C35.6791 11.6821 36.2479 9.15445 35.8591 7.1202C35.5471 5.42087 34.1429 3.56717 32.556 2.83258C28.8722 1.18562 25.7423 2.04839 23.7925 2.71268C22.6453 3.08343 21.8072 4.03989 21.5763 5.1783L21.4293 5.80677C18.5837 8.04085 20.1199 11.2672 20.326 11.7248C19.911 11.8103 19.6967 12.6661 19.8684 13.6474C20.014 14.5626 20.4455 15.2599 20.8522 15.3123C21.3015 17.0282 21.9899 18.4945 22.8542 19.6164C23.1208 19.9528 23.4312 20.2367 23.7253 20.5054V21.9374C23.7253 22.7395 23.1483 23.43 22.3471 23.5857L16.8703 24.844C15.1446 25.1802 13.9039 26.8107 13.8696 28.6989C13.8696 28.7595 14.3862 37.0826 14.4466 37.9977C14.4906 38.6606 15.0333 39.1692 15.6887 39.1692H40.3122C40.958 39.1692 41.5103 38.6606 41.5529 37.9977C41.6215 37.0826 42.1396 28.9497 42.1396 28.8987C42.1657 26.9595 40.9236 25.2491 39.1566 24.8978L39.1511 24.8936ZM23.2127 13.6984C22.7469 13.6984 22.3663 13.318 22.3663 12.8605V10.0834C22.3663 9.61752 22.7634 9.21232 23.2127 9.21232H32.7772C33.2608 9.21232 33.6236 9.61752 33.6236 10.0834V12.8439C33.6236 13.318 33.2511 13.6984 32.7772 13.6984H23.2127Z" fill="white"/>
</g>
</g>
</g>
<defs>
<clipPath id="clip0_1_3758">
<rect width="55" height="55" fill="white" transform="translate(0.5 0.5)"/>
</clipPath>
<clipPath id="clip1_1_3758">
<rect width="55" height="55" fill="white" transform="translate(0.5 0.5)"/>
</clipPath>
<clipPath id="clip2_1_3758">
<rect width="55" height="55" fill="white" transform="translate(0.5 0.5)"/>
</clipPath>
</defs>
</svg>
