<svg width="53" height="56" viewBox="0 0 53 56" fill="none" xmlns="http://www.w3.org/2000/svg">
<g clip-path="url(#clip0_1_773)">
<g clip-path="url(#clip1_1_773)">
<g clip-path="url(#clip2_1_773)">
<path d="M33.1683 42.6439C36.7238 41.777 40.4405 40.5761 44.6949 37.0525C44.7684 36.9916 44.8263 36.912 44.8596 36.8217C45.3103 35.6173 45.701 33.8948 45.2646 33.456C45.0365 33.2262 44.5279 33.3917 44.144 33.5681C43.6356 33.8022 42.7485 34.6776 41.6258 35.7872C39.5347 37.8517 36.6347 40.7132 33.1382 42.5654C33.0938 42.5883 33.1193 42.6558 33.1683 42.6439Z" fill="#0575AD"/>
<path d="M31.6936 42.5969C34.705 41.2717 37.3312 39.07 39.4278 37.0926C39.4901 37.0338 39.5369 36.9608 39.5647 36.8781C39.7338 36.375 40.4238 34.4477 39.7627 34.0678C39.7049 34.034 39.3766 33.8794 38.2459 34.8213C37.7207 35.2567 36.9684 36.2629 36.096 37.4258C35.5796 38.1139 35.0121 38.8685 34.4101 39.6167C34.4055 39.622 34.4011 39.6286 34.3967 39.6341C33.541 40.6934 32.6128 41.7345 31.6558 42.5402C31.6257 42.5653 31.6558 42.6131 31.6936 42.5969Z" fill="#0575AD"/>
<path d="M28.6387 43.4127C28.7511 43.4127 28.8625 43.404 28.9726 43.3789C30.6063 43.0054 32.3322 41.237 33.8534 39.3664C33.8903 39.3207 33.9168 39.2662 33.9314 39.2096C34.1139 38.4387 34.174 37.733 34.1327 37.3683C34.1139 37.2061 33.9436 37.1167 33.8067 37.1974C33.6186 37.3074 33.3004 37.5621 32.7974 38.1425C32.2532 38.7696 31.9784 39.2848 31.688 39.8291C31.1716 40.7961 30.6419 41.7923 28.6387 43.4127Z" fill="#0575AD"/>
<mask id="mask0_1_773" style="mask-type:luminance" maskUnits="userSpaceOnUse" x="0" y="32" width="53" height="24">
<path d="M0.49707 32.9746H52.2036V55.2747H0.49707V32.9746Z" fill="white"/>
</mask>
<g mask="url(#mask0_1_773)">
<path d="M52.1607 35.6642C52.1428 35.5378 52.1306 35.308 52.0126 35.1566C51.9503 35.074 51.8646 35.0043 51.7801 34.9466C51.6921 34.8867 51.5318 34.817 51.4251 34.7941C50.2109 34.5426 47.7816 35.2394 45.2354 37.3791C40.1354 41.6627 35.8176 42.6589 31.6423 43.6205L31.0246 43.7631C26.7024 44.7682 22.0674 42.5196 21.8716 42.4238C21.7648 42.3705 21.6991 42.2573 21.7058 42.1363C21.7092 42.0154 21.7859 41.9077 21.8949 41.8685C21.9851 41.8336 30.7153 38.4798 31.6901 35.4257C31.8382 34.9672 31.787 34.5524 31.5366 34.1561C30.5261 32.5652 28.9793 33.1423 25.8488 34.4914C22.0908 36.1116 20.9613 36.1433 18.9115 36.2009C18.1403 36.2227 17.2667 36.2456 16.0648 36.362C12.7353 36.681 7.33249 38.2382 5.55863 38.7695C5.16469 38.8872 4.75739 38.946 4.34787 38.946H0.835779C0.673306 38.946 0.541992 39.0745 0.541992 39.2333V51.664C0.541992 51.8262 0.677757 51.9558 0.843569 51.9515L4.44691 51.8545C4.79635 51.8458 5.14799 51.8653 5.49408 51.9231C8.21385 52.3663 10.9358 52.9902 13.6 53.7775C13.9394 53.8776 14.2788 53.9811 14.6182 54.0834C16.1562 54.5527 17.7464 55.0373 19.3355 55.231C21.7937 55.5338 25.1812 53.9277 27.902 52.6375C28.7533 52.2346 29.5557 51.8545 30.2812 51.5518C38.6542 48.0543 39.9406 47.5165 45.5572 42.5555C46.2492 41.9436 46.8859 41.3567 47.5034 40.7915C48.4115 39.9531 49.2729 39.1594 50.1018 38.4854C50.1543 38.4439 50.2054 38.4004 50.2577 38.3579C50.438 38.2088 50.6172 38.0553 50.793 37.8973C50.9409 37.7624 51.0902 37.6229 51.2315 37.4793C51.3516 37.3572 51.4695 37.231 51.5786 37.0992C51.6732 36.9871 51.7633 36.8706 51.8423 36.7475C51.9113 36.643 51.9737 36.5341 52.0272 36.4198C52.0727 36.3206 52.1095 36.2161 52.135 36.1106C52.1573 36.0159 52.1706 35.9178 52.1729 35.8198C52.175 35.7676 52.1685 35.7164 52.1607 35.6642Z" fill="#0575AD"/>
</g>
<path d="M24.4011 22.6903H28.315C28.847 22.6903 29.2787 22.2678 29.2787 21.7463V18.7061H32.3812C32.9132 18.7061 33.3449 18.2836 33.3449 17.7621V13.9314C33.3449 13.4098 32.9132 12.9874 32.3812 12.9874H29.2787V9.94723C29.2787 9.42675 28.847 9.00317 28.315 9.00317H24.4011C23.8692 9.00317 23.4374 9.42567 23.4374 9.94723V12.9874H20.3348C19.803 12.9874 19.3711 13.4098 19.3711 13.9314V17.7621C19.3711 18.2836 19.803 18.7061 20.3348 18.7061H23.4374V21.7463C23.4374 22.2678 23.8692 22.6903 24.4011 22.6903Z" fill="#0575AD"/>
<mask id="mask1_1_773" style="mask-type:luminance" maskUnits="userSpaceOnUse" x="26" y="1" width="15" height="15">
<path d="M26.9824 1.80249H40.9417V15.4134H26.9824V1.80249Z" fill="white"/>
</mask>
<g mask="url(#mask1_1_773)">
<path d="M37.1955 15.1848H40.6932C40.3493 7.96011 34.4101 2.14446 27.0332 1.80908V5.23358C32.4849 5.56023 36.8594 9.84494 37.1955 15.1848Z" fill="#0575AD"/>
</g>
<path d="M25.681 29.8846V26.4601C20.2293 26.1313 15.8548 21.8465 15.5209 16.5078H12.0244C12.3649 23.7324 18.303 29.5492 25.681 29.8846Z" fill="#0575AD"/>
<path d="M40.6932 16.5078H37.1955C36.8617 21.8465 32.4849 26.1334 27.0332 26.4601V29.8846C34.4124 29.5492 40.3515 23.7324 40.6932 16.5078Z" fill="#0575AD"/>
<mask id="mask2_1_773" style="mask-type:luminance" maskUnits="userSpaceOnUse" x="11" y="1" width="15" height="15">
<path d="M11.8838 1.80249H25.8432V15.4134H11.8838V1.80249Z" fill="white"/>
</mask>
<g mask="url(#mask2_1_773)">
<path d="M14.1666 15.1848H15.5209C15.8569 9.84494 20.2316 5.56242 25.681 5.23358V1.80908C18.3052 2.14446 12.3672 7.96011 12.0244 15.1848H14.1666Z" fill="#0575AD"/>
</g>
</g>
</g>
</g>
<defs>
<clipPath id="clip0_1_773">
<rect width="51.94" height="55" fill="white" transform="translate(0.379883 0.5)"/>
</clipPath>
<clipPath id="clip1_1_773">
<rect width="51.94" height="55" fill="white" transform="translate(0.379883 0.5)"/>
</clipPath>
<clipPath id="clip2_1_773">
<rect width="51.9444" height="55" fill="white" transform="translate(0.37793 0.5)"/>
</clipPath>
</defs>
</svg>
