<svg width="53" height="56" viewBox="0 0 53 56" fill="none" xmlns="http://www.w3.org/2000/svg">
<g clip-path="url(#clip0_34_171)">
<g clip-path="url(#clip1_34_171)">
<path d="M33.1683 42.6439C36.7238 41.777 40.4405 40.5761 44.6949 37.0525C44.7684 36.9916 44.8263 36.912 44.8596 36.8217C45.3103 35.6173 45.701 33.8948 45.2646 33.456C45.0365 33.2262 44.5279 33.3917 44.144 33.5681C43.6356 33.8022 42.7485 34.6776 41.6258 35.7872C39.5347 37.8517 36.6347 40.7132 33.1382 42.5654C33.0938 42.5883 33.1193 42.6558 33.1683 42.6439Z" fill="white"/>
<path d="M31.6945 42.5969C34.706 41.2717 37.3322 39.07 39.4288 37.0926C39.4911 37.0338 39.5379 36.9608 39.5657 36.8781C39.7348 36.375 40.4247 34.4477 39.7637 34.0678C39.7059 34.034 39.3776 33.8794 38.2469 34.8213C37.7216 35.2567 36.9694 36.2629 36.097 37.4258C35.5806 38.1139 35.013 38.8685 34.4111 39.6167C34.4065 39.622 34.4021 39.6286 34.3976 39.6341C33.5419 40.6934 32.6138 41.7345 31.6568 42.5402C31.6267 42.5653 31.6568 42.6131 31.6945 42.5969Z" fill="white"/>
<path d="M28.6406 43.4127C28.7531 43.4127 28.8644 43.404 28.9746 43.3789C30.6083 43.0054 32.3342 41.237 33.8554 39.3664C33.8922 39.3207 33.9188 39.2662 33.9333 39.2096C34.1159 38.4387 34.1759 37.733 34.1347 37.3683C34.1159 37.2061 33.9455 37.1167 33.8086 37.1974C33.6206 37.3074 33.3023 37.5621 32.7994 38.1425C32.2552 38.7696 31.9803 39.2848 31.6899 39.8291C31.1735 40.7961 30.6438 41.7923 28.6406 43.4127Z" fill="white"/>
<mask id="mask0_34_171" style="mask-type:luminance" maskUnits="userSpaceOnUse" x="0" y="32" width="53" height="24">
<path d="M0.498047 32.9746H52.2046V55.2747H0.498047V32.9746Z" fill="white"/>
</mask>
<g mask="url(#mask0_34_171)">
<path d="M52.1617 35.6642C52.1438 35.5378 52.1316 35.308 52.0136 35.1566C51.9513 35.074 51.8656 35.0043 51.7811 34.9466C51.6931 34.8867 51.5328 34.817 51.426 34.7941C50.2119 34.5426 47.7826 35.2394 45.2364 37.3791C40.1364 41.6627 35.8186 42.6589 31.6433 43.6205L31.0256 43.7631C26.7034 44.7682 22.0684 42.5196 21.8725 42.4238C21.7658 42.3705 21.7001 42.2573 21.7068 42.1363C21.7101 42.0154 21.7868 41.9077 21.8959 41.8685C21.9861 41.8336 30.7162 38.4798 31.6911 35.4257C31.8392 34.9672 31.788 34.5524 31.5376 34.1561C30.5271 32.5652 28.9802 33.1423 25.8498 34.4914C22.0918 36.1116 20.9623 36.1433 18.9125 36.2009C18.1413 36.2227 17.2677 36.2456 16.0658 36.362C12.7363 36.681 7.33346 38.2382 5.55961 38.7695C5.16567 38.8872 4.75836 38.946 4.34884 38.946H0.836756C0.674283 38.946 0.542969 39.0745 0.542969 39.2333V51.664C0.542969 51.8262 0.678733 51.9558 0.844546 51.9515L4.44789 51.8545C4.79732 51.8458 5.14897 51.8653 5.49506 51.9231C8.21482 52.3663 10.9368 52.9902 13.6009 53.7775C13.9403 53.8776 14.2798 53.9811 14.6192 54.0834C16.1571 54.5527 17.7474 55.0373 19.3364 55.231C21.7946 55.5338 25.1822 53.9277 27.903 52.6375C28.7543 52.2346 29.5567 51.8545 30.2822 51.5518C38.6552 48.0543 39.9416 47.5165 45.5581 42.5555C46.2502 41.9436 46.8869 41.3567 47.5044 40.7915C48.4125 39.9531 49.2739 39.1594 50.1028 38.4854C50.1552 38.4439 50.2064 38.4004 50.2587 38.3579C50.4389 38.2088 50.6181 38.0553 50.794 37.8973C50.9419 37.7624 51.0911 37.6229 51.2325 37.4793C51.3525 37.3572 51.4705 37.231 51.5796 37.0992C51.6741 36.9871 51.7643 36.8706 51.8433 36.7475C51.9123 36.643 51.9747 36.5341 52.0281 36.4198C52.0737 36.3206 52.1105 36.2161 52.136 36.1106C52.1583 36.0159 52.1716 35.9178 52.1739 35.8198C52.176 35.7676 52.1694 35.7164 52.1617 35.6642Z" fill="white"/>
</g>
<path d="M24.4011 22.6903H28.315C28.847 22.6903 29.2787 22.2678 29.2787 21.7463V18.7061H32.3812C32.9132 18.7061 33.3449 18.2836 33.3449 17.7621V13.9314C33.3449 13.4098 32.9132 12.9874 32.3812 12.9874H29.2787V9.94723C29.2787 9.42675 28.847 9.00317 28.315 9.00317H24.4011C23.8692 9.00317 23.4374 9.42567 23.4374 9.94723V12.9874H20.3348C19.803 12.9874 19.3711 13.4098 19.3711 13.9314V17.7621C19.3711 18.2836 19.803 18.7061 20.3348 18.7061H23.4374V21.7463C23.4374 22.2678 23.8692 22.6903 24.4011 22.6903Z" fill="white"/>
<mask id="mask1_34_171" style="mask-type:luminance" maskUnits="userSpaceOnUse" x="26" y="1" width="15" height="15">
<path d="M26.9844 1.80249H40.9437V15.4134H26.9844V1.80249Z" fill="white"/>
</mask>
<g mask="url(#mask1_34_171)">
<path d="M37.1975 15.1848H40.6952C40.3513 7.96011 34.412 2.14446 27.0352 1.80908V5.23358C32.4869 5.56023 36.8614 9.84494 37.1975 15.1848Z" fill="white"/>
</g>
<path d="M25.682 29.8846V26.4601C20.2302 26.1313 15.8558 21.8465 15.5219 16.5078H12.0254C12.3659 23.7324 18.304 29.5492 25.682 29.8846Z" fill="white"/>
<path d="M40.6952 16.5078H37.1975C36.8637 21.8465 32.4869 26.1334 27.0352 26.4601V29.8846C34.4143 29.5492 40.3534 23.7324 40.6952 16.5078Z" fill="white"/>
<mask id="mask2_34_171" style="mask-type:luminance" maskUnits="userSpaceOnUse" x="11" y="1" width="15" height="15">
<path d="M11.8848 1.80249H25.8441V15.4134H11.8848V1.80249Z" fill="white"/>
</mask>
<g mask="url(#mask2_34_171)">
<path d="M14.1676 15.1848H15.5219C15.8579 9.84494 20.2325 5.56242 25.682 5.23358V1.80908C18.3062 2.14446 12.3681 7.96011 12.0254 15.1848H14.1676Z" fill="white"/>
</g>
</g>
</g>
<defs>
<clipPath id="clip0_34_171">
<rect width="51.94" height="55" fill="white" transform="translate(0.380859 0.5)"/>
</clipPath>
<clipPath id="clip1_34_171">
<rect width="51.9444" height="55" fill="white" transform="translate(0.378906 0.5)"/>
</clipPath>
</defs>
</svg>
