<svg width="59" height="56" viewBox="0 0 59 56" fill="none" xmlns="http://www.w3.org/2000/svg">
<g clip-path="url(#clip0_1_888)">
<g clip-path="url(#clip1_1_888)">
<g clip-path="url(#clip2_1_888)">
<path d="M26.5601 3.49831C25.7408 3.68282 25.4549 2.46684 26.2741 2.28233C35.1215 0.284457 44.204 2.90695 50.4917 9.06845C60.6206 18.9928 60.6206 35.0832 50.4917 45.0044C42.8577 52.4893 31.2373 54.5749 21.3866 50.1587L22.8705 54.268C23.1488 55.0407 21.9478 55.4567 21.668 54.6823L19.6602 49.1288C19.5443 48.8022 19.7174 48.4436 20.0466 48.3303L25.7192 46.3611C26.5091 46.0889 26.9326 47.2655 26.1427 47.5393L21.8891 49.0139C31.2542 53.2213 42.3213 51.2446 49.5906 44.1228C59.2187 34.6869 59.2187 19.3891 49.5906 9.95321C43.6213 4.10175 34.9438 1.59419 26.5601 3.49831ZM21.988 28.9171H6.64248C3.33319 28.9171 0.62207 31.5744 0.62207 34.8171C0.62207 38.0627 3.33319 40.7184 6.64248 40.7184H21.988C25.2973 40.7184 28.0083 38.0627 28.0083 34.8171C28.0083 31.5744 25.2973 28.9171 21.988 28.9171ZM23.8196 27.8962C26.965 28.7009 29.2573 31.4958 29.2851 34.7566C34.6826 36.6863 40.5361 32.7874 40.5361 27.0372C40.5361 22.5001 36.7816 18.8264 32.1555 18.8264C27.1939 18.8264 23.3203 23.0127 23.8196 27.8962ZM12.6413 32.5575V34.1349H14.1328C14.9041 34.1349 15.3029 33.2986 14.7666 32.798C14.6058 32.6482 14.3832 32.556 14.1328 32.556H12.6413V32.5575ZM14.6213 35.3342L15.8888 37.3836C16.0742 37.6784 15.9752 38.0611 15.6755 38.2381C15.3755 38.4165 14.9845 38.3242 14.8037 38.0294L13.1668 35.3872H12.6428V37.7072C12.6428 38.5299 11.3645 38.5299 11.3645 37.7072V31.9283C11.3645 31.5835 11.6505 31.3036 12.0044 31.3036H14.1344C16.031 31.3036 17.0341 33.5027 15.6429 34.7974C15.3678 35.0575 15.0123 35.245 14.6213 35.3342ZM18.8997 37.7072C18.8997 38.5299 17.6214 38.5299 17.6214 37.7072V31.9283C17.6214 31.3854 18.3092 31.0618 18.7436 31.52L21.0528 33.7901L23.3992 31.4882C23.801 31.0934 24.4842 31.3779 24.4842 31.9268H24.4889V37.7056C24.4889 38.5285 23.2106 38.5285 23.2106 37.7056V33.4392L21.501 35.1165C21.2506 35.3585 20.8504 35.3585 20.603 35.1135L18.8982 33.4392V37.7072H18.8997ZM9.39069 37.0796C10.2346 37.0796 10.2346 38.3334 9.39069 38.3334H7.72754C4.57127 38.3334 2.92358 34.563 5.19418 32.3367C5.84646 31.6984 6.73986 31.3052 7.72754 31.3052H9.38915C10.2331 31.3052 10.2331 32.5575 9.38915 32.5575H7.72754C5.70117 32.5575 4.6331 34.9804 6.09841 36.4171C6.51573 36.8255 7.09536 37.0796 7.72754 37.0796H9.39069ZM21.0806 5.69128C16.5472 1.2539 9.2052 1.2539 4.6733 5.69128C0.144458 10.1286 0.144458 17.3261 4.6733 21.7636C9.2052 26.2009 16.5472 26.2009 21.0806 21.7636C25.6079 17.3261 25.6079 10.1286 21.0806 5.69128ZM25.6079 15.6186C24.8227 20.7412 20.8843 24.8744 15.762 26.0224V27.6649H21.9895C22.1673 27.6649 22.348 27.6724 22.5211 27.686C22.141 22.2127 26.5647 17.5727 32.1585 17.5727C37.4895 17.5727 41.8129 21.809 41.8129 27.0372C41.8129 33.4786 35.3905 38.0081 29.1784 36.0346C28.9574 37.2808 28.4072 38.4196 27.6189 39.3556C28.078 39.5176 28.9033 39.7625 29.3485 39.8412C29.6608 39.8835 29.8988 40.1421 29.8988 40.4613V42.391C29.8988 42.7768 30.2248 43.0958 30.619 43.0958H33.6933C34.0875 43.0958 34.4183 42.7768 34.4183 42.391V40.4613C34.4183 40.1709 34.6239 39.9122 34.9253 39.8488C35.7352 39.6809 36.5173 39.4435 37.27 39.1379C38.0197 38.8324 38.7368 38.4634 39.4061 38.0384C39.6565 37.8479 40.0166 37.8645 40.2455 38.0929L41.6398 39.4571C41.921 39.7307 42.3816 39.7307 42.6629 39.4571L44.8362 37.329C45.1144 37.0524 45.1144 36.6017 44.8362 36.3294L43.4419 34.9607C43.2364 34.7581 43.1915 34.4328 43.36 34.1788C43.8052 33.5088 44.1916 32.7964 44.51 32.0448C44.8145 31.3218 45.0572 30.5657 45.2271 29.7882C45.2705 29.4828 45.5348 29.2483 45.8563 29.2483H47.8286C48.2243 29.2483 48.5488 28.9293 48.5488 28.5391V25.5279C48.5488 25.1407 48.2243 24.8216 47.8286 24.8216H45.8563V24.8185C45.5626 24.8185 45.2953 24.6159 45.2334 24.3209C45.0634 23.53 44.8207 22.7601 44.5054 22.0267C44.1931 21.2886 43.8159 20.5899 43.3863 19.9305C43.1915 19.6855 43.2085 19.3301 43.4419 19.1062L44.8346 17.742C45.1129 17.4682 45.1129 17.0146 44.8346 16.7424L42.6629 14.6129C42.3801 14.3361 41.921 14.3361 41.6381 14.6129L40.2455 15.9786V15.9741C40.0383 16.1797 39.706 16.2206 39.4479 16.0558C38.7631 15.6186 38.0351 15.2436 37.2685 14.9305C36.5312 14.6295 35.76 14.3951 34.967 14.2287C34.6548 14.1864 34.4167 13.9233 34.4167 13.6087V11.6789C34.4167 11.2887 34.0875 10.9695 33.6918 10.9695H30.619C30.2233 10.9695 29.8988 11.2887 29.8988 11.6789V13.6087H29.8941C29.8941 13.8991 29.687 14.1577 29.3871 14.2197C28.0656 14.4949 26.7811 14.9728 25.6079 15.6186ZM14.9799 14.1229H10.7725C8.80334 14.1229 7.18501 15.7049 7.18501 17.6377V21.1525H18.5674V17.6377C18.5674 15.7049 16.949 14.1229 14.9799 14.1229ZM14.9536 7.14166C13.1065 5.33132 9.93632 6.61988 9.93632 9.17735C9.93632 11.7394 13.1065 13.0264 14.9536 11.2176C16.102 10.0939 16.102 8.26688 14.9536 7.14166ZM12.8762 5.04851C15.204 5.04851 17.0928 6.89665 17.0928 9.17886C17.0928 10.7714 16.1654 12.1825 14.7681 12.8706H14.9783C17.654 12.8706 19.8442 15.0167 19.8442 17.6392V21.7816C19.8442 22.1264 19.5582 22.4063 19.2027 22.4063H6.54664C6.19269 22.4063 5.90519 22.1264 5.90519 21.7816V17.6392C5.90519 15.0167 8.09541 12.8706 10.771 12.8706H10.9812C8.42156 11.6123 7.85274 8.2563 9.8915 6.25842C10.6582 5.50978 11.7108 5.04851 12.8762 5.04851Z" fill="#0575AD"/>
</g>
</g>
</g>
<defs>
<clipPath id="clip0_1_888">
<rect width="58.05" height="55" fill="white" transform="translate(0.330078 0.5)"/>
</clipPath>
<clipPath id="clip1_1_888">
<rect width="58.05" height="55" fill="white" transform="translate(0.330078 0.5)"/>
</clipPath>
<clipPath id="clip2_1_888">
<rect width="58.0556" height="55" fill="white" transform="translate(0.327148 0.5)"/>
</clipPath>
</defs>
</svg>
