<svg width="59" height="56" viewBox="0 0 59 56" fill="none" xmlns="http://www.w3.org/2000/svg">
<g clip-path="url(#clip0_34_285)">
<g clip-path="url(#clip1_34_285)">
<g clip-path="url(#clip2_34_285)">
<path d="M26.5611 3.49831C25.7418 3.68282 25.4559 2.46684 26.2751 2.28233C35.1225 0.284457 44.205 2.90695 50.4927 9.06845C60.6215 18.9928 60.6215 35.0832 50.4927 45.0044C42.8587 52.4893 31.2382 54.5749 21.3876 50.1587L22.8715 54.268C23.1497 55.0407 21.9487 55.4567 21.669 54.6823L19.6612 49.1288C19.5452 48.8022 19.7183 48.4436 20.0476 48.3303L25.7202 46.3611C26.5101 46.0889 26.9336 47.2655 26.1437 47.5393L21.8901 49.0139C31.2552 53.2213 42.3223 51.2446 49.5916 44.1228C59.2196 34.6869 59.2196 19.3891 49.5916 9.95321C43.6223 4.10175 34.9448 1.59419 26.5611 3.49831ZM21.9889 28.9171H6.64346C3.33417 28.9171 0.623047 31.5744 0.623047 34.8171C0.623047 38.0627 3.33417 40.7184 6.64346 40.7184H21.9889C25.2982 40.7184 28.0093 38.0627 28.0093 34.8171C28.0093 31.5744 25.2982 28.9171 21.9889 28.9171ZM23.8206 27.8962C26.966 28.7009 29.2582 31.4958 29.2861 34.7566C34.6835 36.6863 40.5371 32.7874 40.5371 27.0372C40.5371 22.5001 36.7826 18.8264 32.1564 18.8264C27.1948 18.8264 23.3213 23.0127 23.8206 27.8962ZM12.6422 32.5575V34.1349H14.1338C14.9051 34.1349 15.3039 33.2986 14.7675 32.798C14.6068 32.6482 14.3842 32.556 14.1338 32.556H12.6422V32.5575ZM14.6222 35.3342L15.8897 37.3836C16.0752 37.6784 15.9762 38.0611 15.6765 38.2381C15.3765 38.4165 14.9855 38.3242 14.8046 38.0294L13.1678 35.3872H12.6438V37.7072C12.6438 38.5299 11.3655 38.5299 11.3655 37.7072V31.9283C11.3655 31.5835 11.6515 31.3036 12.0054 31.3036H14.1354C16.032 31.3036 17.0351 33.5027 15.6439 34.7974C15.3688 35.0575 15.0133 35.245 14.6222 35.3342ZM18.9007 37.7072C18.9007 38.5299 17.6224 38.5299 17.6224 37.7072V31.9283C17.6224 31.3854 18.3102 31.0618 18.7445 31.52L21.0538 33.7901L23.4001 31.4882C23.8019 31.0934 24.4852 31.3779 24.4852 31.9268H24.4899V37.7056C24.4899 38.5285 23.2116 38.5285 23.2116 37.7056V33.4392L21.502 35.1165C21.2516 35.3585 20.8513 35.3585 20.604 35.1135L18.8992 33.4392V37.7072H18.9007ZM9.39167 37.0796C10.2356 37.0796 10.2356 38.3334 9.39167 38.3334H7.72851C4.57225 38.3334 2.92455 34.563 5.19515 32.3367C5.84744 31.6984 6.74084 31.3052 7.72851 31.3052H9.39012C10.2341 31.3052 10.2341 32.5575 9.39012 32.5575H7.72851C5.70215 32.5575 4.63408 34.9804 6.09938 36.4171C6.51671 36.8255 7.09633 37.0796 7.72851 37.0796H9.39167ZM21.0816 5.69128C16.5482 1.2539 9.20618 1.2539 4.67427 5.69128C0.145435 10.1286 0.145435 17.3261 4.67427 21.7636C9.20618 26.2009 16.5482 26.2009 21.0816 21.7636C25.6088 17.3261 25.6088 10.1286 21.0816 5.69128ZM25.6088 15.6186C24.8237 20.7412 20.8853 24.8744 15.7629 26.0224V27.6649H21.9905C22.1683 27.6649 22.349 27.6724 22.5221 27.686C22.142 22.2127 26.5657 17.5727 32.1595 17.5727C37.4905 17.5727 41.8138 21.809 41.8138 27.0372C41.8138 33.4786 35.3915 38.0081 29.1794 36.0346C28.9583 37.2808 28.4082 38.4196 27.6199 39.3556C28.079 39.5176 28.9043 39.7625 29.3495 39.8412C29.6617 39.8835 29.8998 40.1421 29.8998 40.4613V42.391C29.8998 42.7768 30.2258 43.0958 30.62 43.0958H33.6943C34.0885 43.0958 34.4192 42.7768 34.4192 42.391V40.4613C34.4192 40.1709 34.6249 39.9122 34.9263 39.8488C35.7362 39.6809 36.5182 39.4435 37.271 39.1379C38.0207 38.8324 38.7378 38.4634 39.4071 38.0384C39.6575 37.8479 40.0176 37.8645 40.2465 38.0929L41.6407 39.4571C41.922 39.7307 42.3826 39.7307 42.6639 39.4571L44.8371 37.329C45.1154 37.0524 45.1154 36.6017 44.8371 36.3294L43.4429 34.9607C43.2374 34.7581 43.1925 34.4328 43.361 34.1788C43.8062 33.5088 44.1926 32.7964 44.511 32.0448C44.8155 31.3218 45.0582 30.5657 45.2281 29.7882C45.2715 29.4828 45.5358 29.2483 45.8572 29.2483H47.8296C48.2253 29.2483 48.5498 28.9293 48.5498 28.5391V25.5279C48.5498 25.1407 48.2253 24.8216 47.8296 24.8216H45.8572V24.8185C45.5636 24.8185 45.2962 24.6159 45.2344 24.3209C45.0643 23.53 44.8217 22.7601 44.5064 22.0267C44.1941 21.2886 43.8169 20.5899 43.3873 19.9305C43.1925 19.6855 43.2095 19.3301 43.4429 19.1062L44.8356 17.742C45.1138 17.4682 45.1138 17.0146 44.8356 16.7424L42.6639 14.6129C42.3811 14.3361 41.922 14.3361 41.6391 14.6129L40.2465 15.9786V15.9741C40.0393 16.1797 39.707 16.2206 39.4488 16.0558C38.7641 15.6186 38.0361 15.2436 37.2695 14.9305C36.5322 14.6295 35.7609 14.3951 34.968 14.2287C34.6557 14.1864 34.4177 13.9233 34.4177 13.6087V11.6789C34.4177 11.2887 34.0885 10.9695 33.6928 10.9695H30.62C30.2243 10.9695 29.8998 11.2887 29.8998 11.6789V13.6087H29.895C29.895 13.8991 29.688 14.1577 29.3881 14.2197C28.0666 14.4949 26.782 14.9728 25.6088 15.6186ZM14.9808 14.1229H10.7735C8.80431 14.1229 7.18598 15.7049 7.18598 17.6377V21.1525H18.5684V17.6377C18.5684 15.7049 16.95 14.1229 14.9808 14.1229ZM14.9546 7.14166C13.1075 5.33132 9.9373 6.61988 9.9373 9.17735C9.9373 11.7394 13.1075 13.0264 14.9546 11.2176C16.103 10.0939 16.103 8.26688 14.9546 7.14166ZM12.8772 5.04851C15.205 5.04851 17.0938 6.89665 17.0938 9.17886C17.0938 10.7714 16.1664 12.1825 14.7691 12.8706H14.9793C17.6549 12.8706 19.8452 15.0167 19.8452 17.6392V21.7816C19.8452 22.1264 19.5592 22.4063 19.2036 22.4063H6.54762C6.19366 22.4063 5.90617 22.1264 5.90617 21.7816V17.6392C5.90617 15.0167 8.09639 12.8706 10.772 12.8706H10.9822C8.42254 11.6123 7.85372 8.2563 9.89247 6.25842C10.6591 5.50978 11.7117 5.04851 12.8772 5.04851Z" fill="white"/>
</g>
</g>
</g>
<defs>
<clipPath id="clip0_34_285">
<rect width="58.05" height="55" fill="white" transform="translate(0.330078 0.5)"/>
</clipPath>
<clipPath id="clip1_34_285">
<rect width="58.05" height="55" fill="white" transform="translate(0.330078 0.5)"/>
</clipPath>
<clipPath id="clip2_34_285">
<rect width="58.0556" height="55" fill="white" transform="translate(0.328125 0.5)"/>
</clipPath>
</defs>
</svg>
