<svg width="46" height="46" viewBox="0 0 46 46" fill="none" xmlns="http://www.w3.org/2000/svg">
<g clip-path="url(#clip0_1_963)">
<g clip-path="url(#clip1_1_963)">
<g clip-path="url(#clip2_1_963)">
<mask id="mask0_1_963" style="mask-type:luminance" maskUnits="userSpaceOnUse" x="0" y="0" width="46" height="46">
<path d="M0.830078 0.0200195H45.8301V45.02H0.830078V0.0200195Z" fill="white"/>
</mask>
<g mask="url(#mask0_1_963)">
<path d="M45.5012 6.58714C45.4071 5.81361 44.6864 5.23647 43.8251 5.23647C37.1185 5.25037 30.3013 3.53563 24.2058 0.230296C23.6733 -0.0503983 23.0147 -0.0503983 22.4821 0.230296C16.3867 3.53563 9.60149 5.26519 2.84736 5.23647C2.00154 5.23647 1.28083 5.81361 1.18674 6.58714C-0.56901 20.9303 4.44593 39.2116 23.3445 45.02C42.242 39.2116 47.257 20.9303 45.5012 6.58714ZM32.6516 30.0144C32.6516 30.8445 31.9154 31.5198 30.991 31.5198H15.697C14.7881 31.5198 14.0364 30.8445 14.0364 30.0144V16.782C14.0364 15.9519 14.7881 15.2775 15.697 15.2775C15.7125 15.2775 16.3867 15.2914 16.3556 15.2636C16.6524 6.98085 30.0201 6.98085 30.3168 15.2636V15.2775H30.991C31.9154 15.2775 32.6516 15.9519 32.6516 16.782V30.0144Z" fill="#00D280"/>
</g>
<path d="M17.373 28.5239H29.3137V18.2725H17.373V28.5239ZM21.6662 22.2245C21.6662 21.3945 22.4179 20.7191 23.3433 20.7191C24.2677 20.7191 25.0195 21.3945 25.0195 22.2245V25.7679C25.0195 26.5841 24.2677 27.2585 23.3433 27.2585C22.4179 27.2585 21.6662 26.5841 21.6662 25.7679V22.2245Z" fill="#00D280"/>
<path d="M26.9637 15.2636C26.8386 10.9606 19.8187 10.9606 19.6936 15.2636C19.646 15.3192 26.9637 15.2349 26.9637 15.2636Z" fill="#00D280"/>
</g>
</g>
</g>
<defs>
<clipPath id="clip0_1_963">
<rect width="45" height="45" fill="white" transform="translate(0.830078 0.0200195)"/>
</clipPath>
<clipPath id="clip1_1_963">
<rect width="45" height="45" fill="white" transform="translate(0.830078 0.0200195)"/>
</clipPath>
<clipPath id="clip2_1_963">
<rect width="45" height="45" fill="white" transform="translate(0.830078 0.0200195)"/>
</clipPath>
</defs>
</svg>
