<svg width="66" height="65" viewBox="0 0 66 65" fill="none" xmlns="http://www.w3.org/2000/svg">
<rect x="0.5" width="65" height="65" rx="8" fill="#00D280" fill-opacity="0.2"/>
<g clip-path="url(#clip0_34_616)">
<g clip-path="url(#clip1_34_616)">
<g clip-path="url(#clip2_34_616)">
<mask id="mask0_34_616" style="mask-type:luminance" maskUnits="userSpaceOnUse" x="13" y="12" width="40" height="40">
<path d="M13.103 12.0354H52.8971V51.7447H13.103V12.0354Z" fill="white"/>
</mask>
<g mask="url(#mask0_34_616)">
<path fill-rule="evenodd" clip-rule="evenodd" d="M30.004 42.9124C30.263 43.1709 30.263 43.5898 30.004 43.8482C29.745 44.1066 29.3252 44.1066 29.0663 43.8482L28.1653 42.9492C27.9058 42.6909 27.9058 42.2719 28.1653 42.0134C28.4244 41.7545 28.8441 41.7545 29.1032 42.0134L30.004 42.9124ZM25.4745 38.3927C25.7334 38.6511 25.7334 39.07 25.4745 39.3284C25.2156 39.5867 24.7957 39.5867 24.5368 39.3284L24.2446 39.0368L24.0398 39.3907C23.858 39.7065 23.4542 39.8149 23.1383 39.6342C22.8223 39.4529 22.7131 39.0499 22.8948 38.7341L23.5011 37.6857C23.6917 37.2708 24.2441 37.1648 24.573 37.4937L25.4745 38.3927ZM33.2685 42.7241C33.1741 43.0767 32.8112 43.2858 32.4579 43.1916C32.1045 43.0974 31.8943 42.7353 31.9887 42.3827L32.3189 41.1543C32.4133 40.8017 32.7762 40.5924 33.1296 40.6866C33.4829 40.7809 33.6931 41.1429 33.5987 41.4955L33.2685 42.7241ZM35.7556 33.4622C35.6612 33.8148 35.2984 34.0246 34.9445 33.9304C34.591 33.8361 34.3814 33.4741 34.4758 33.1209L34.8054 31.893C34.8998 31.5404 35.2633 31.3307 35.6167 31.4248C35.9701 31.519 36.1796 31.8817 36.0852 32.2343L35.7556 33.4622ZM34.9266 36.5497C34.8322 36.9023 34.4693 37.1115 34.116 37.0172C33.762 36.9231 33.5524 36.5609 33.6468 36.2083L33.9764 34.9799C34.0708 34.6273 34.4342 34.4181 34.7877 34.5123C35.141 34.6066 35.3506 34.9686 35.2562 35.3212L34.9266 36.5497ZM40.7703 29.4941C41.1236 29.5884 41.3333 29.9504 41.2389 30.303C41.1444 30.6556 40.7815 30.8654 40.4282 30.7712L39.1971 30.4423C38.8438 30.3481 38.6341 29.9854 38.7285 29.6328C38.8231 29.2802 39.1859 29.0711 39.5392 29.1653L40.7703 29.4941ZM37.6763 28.6669C38.0296 28.761 38.2398 29.1232 38.1453 29.4758C38.0509 29.829 37.6875 30.0382 37.3341 29.9439L36.7427 29.7857L36.5847 30.3754C36.4903 30.728 36.1268 30.9372 35.7735 30.8429C35.42 30.7487 35.2105 30.3866 35.3049 30.034L35.6345 28.8055C35.7289 28.4529 36.0923 28.2437 36.4452 28.338L37.6763 28.6669ZM45.8668 28.5205C45.6851 28.8358 45.2814 28.9448 44.9655 28.7635C44.6489 28.5821 44.5401 28.1792 44.7213 27.8639L45.3586 26.7622C45.5403 26.447 45.9441 26.3379 46.2601 26.5193C46.5766 26.7005 46.6853 27.1036 46.5042 27.4188L45.8668 28.5205ZM47.468 25.7554C47.2851 26.0706 46.88 26.1785 46.5641 25.9953C46.2481 25.8129 46.1401 25.4087 46.323 25.0935L46.9602 23.9924C47.1438 23.6765 47.5481 23.5687 47.8646 23.7518C48.1806 23.9343 48.2887 24.3385 48.1052 24.6537L47.468 25.7554ZM43.7575 29.5279C43.9403 29.212 44.3454 29.1048 44.6613 29.2873C44.9779 29.4699 45.0853 29.8739 44.9025 30.1899L44.2652 31.2909C44.1121 31.5546 43.8038 31.6731 43.5217 31.5979L42.2906 31.2696C41.9372 31.1753 41.7277 30.8127 41.8221 30.4601C41.9165 30.1075 42.2794 29.8983 42.6327 29.9925L43.3738 30.1905L43.7575 29.5279ZM49.1344 19.9004C50.0502 19.9004 50.7925 20.6412 50.7925 21.555C50.7925 22.4688 50.0502 23.2096 49.1344 23.2096C49.0488 23.2096 48.9651 23.203 48.8837 23.1912C48.6795 23.3376 48.4004 23.3607 48.1682 23.2279C47.9347 23.094 47.8142 22.8398 47.8398 22.5891C47.6122 22.3058 47.4763 21.9467 47.4763 21.555C47.4763 20.6412 48.2187 19.9004 49.1344 19.9004ZM20.5151 42.9622C20.4332 42.9504 20.3494 42.9439 20.2645 42.9439C19.3488 42.9439 18.6064 43.6847 18.6064 44.5985C18.6064 45.5122 19.3488 46.253 20.2645 46.253C21.1803 46.253 21.9226 45.5122 21.9226 44.5985C21.9226 44.4556 21.9048 44.3175 21.8709 44.186L26.1064 40.8946L26.8012 41.5886C27.0602 41.847 27.48 41.847 27.7389 41.5886C27.998 41.3296 27.998 40.9107 27.7389 40.6522L27.1606 40.0757L28.3994 39.1127C28.6358 39.2412 28.906 39.3148 29.194 39.3148C29.6246 39.3148 30.0165 39.1513 30.3111 38.8827L38.6424 42.6079C38.6424 42.6139 38.6424 42.6198 38.6424 42.6263C38.6424 43.5401 39.3848 44.2809 40.3005 44.2809C41.2162 44.2809 41.9586 43.5401 41.9586 42.6263C41.9586 42.3969 41.9117 42.1789 41.8274 41.9803L50.2663 33.1167C50.4433 33.1813 50.6345 33.2163 50.834 33.2163C51.7497 33.2163 52.4921 32.4755 52.4921 31.5617C52.4921 30.6479 51.7497 29.9072 50.834 29.9072C49.9183 29.9072 49.1759 30.6479 49.1759 31.5617C49.1759 31.7905 49.2228 32.0092 49.3072 32.2071L40.8682 41.0713C40.6913 41.0067 40.5001 40.9717 40.3005 40.9717C39.87 40.9717 39.4781 41.1353 39.1829 41.4038L34.2194 39.1844L34.4271 38.4087C34.5215 38.0555 34.312 37.6934 33.9586 37.5992C33.6052 37.505 33.2417 37.7147 33.1473 38.0673L32.9948 38.6369L30.852 37.6785C30.852 37.6726 30.852 37.6661 30.852 37.6602C30.852 36.7464 30.1097 36.0056 29.194 36.0056C28.2782 36.0056 27.5359 36.7464 27.5359 37.6602C27.5359 37.8025 27.5537 37.9406 27.5875 38.0721L22.5307 42.0016L23.0753 41.06C23.2588 40.7447 23.1507 40.3405 22.8348 40.1575C22.5183 39.9749 22.1138 40.0828 21.9303 40.398L21.2931 41.4991C21.1102 41.815 21.2183 42.2186 21.5342 42.4016C21.65 42.4687 21.7783 42.4965 21.9024 42.4894L21.2913 42.9646C21.2717 42.9504 21.2515 42.9374 21.2307 42.9256C20.9985 42.7928 20.7188 42.8158 20.5151 42.9622ZM32.7839 44.3087C32.7441 44.0586 32.5613 43.8429 32.3006 43.7736C32.0398 43.7042 31.7743 43.7996 31.6145 43.9964C31.4465 44.0147 31.2862 44.0586 31.1371 44.1231C30.9002 44.0325 30.621 44.0823 30.4299 44.2731C30.2386 44.4639 30.1887 44.7425 30.2796 44.979C30.1911 45.1815 30.1418 45.405 30.1418 45.6403C30.1418 46.5541 30.8841 47.2948 31.7999 47.2948C32.7156 47.2948 33.458 46.5541 33.458 45.6403C33.458 45.0945 33.1925 44.6097 32.7839 44.3087ZM31.9156 14.2837C28.7462 14.2837 26.1759 16.8485 26.1759 20.0119C26.1759 23.1746 28.7462 25.7393 31.9156 25.7393C35.0858 25.7393 37.656 23.1746 37.656 20.0119C37.6554 16.8485 35.0858 14.2837 31.9156 14.2837ZM31.9156 12.0354C27.5014 12.0354 23.9222 15.6064 23.9222 20.0119C23.9222 21.7132 24.4566 23.2902 25.3665 24.5849C24.5315 25.3939 23.6959 26.2028 22.8609 27.0117L22.7707 26.9187C22.4921 26.6324 22.0295 26.6253 21.7427 26.9033L17.3534 31.154C17.0665 31.4313 17.0594 31.893 17.3379 32.1792L18.9224 33.8089C19.2009 34.0951 19.6635 34.1023 19.9504 33.8243L24.3397 29.5742C24.6266 29.2962 24.6337 28.8346 24.3551 28.5483L24.2648 28.4558L26.7235 26.0754C28.1202 27.2677 29.9333 27.9883 31.9162 27.9883C36.3305 27.9883 39.9098 24.4167 39.9098 20.0119C39.9092 15.6064 36.3305 12.0354 31.9156 12.0354ZM15.2903 49.5621V12.0354H13.103V51.7447H52.8971V49.5621H15.2903Z" fill="#00D280"/>
</g>
</g>
</g>
</g>
<defs>
<clipPath id="clip0_34_616">
<rect width="41" height="39.78" fill="white" transform="translate(12.5 12)"/>
</clipPath>
<clipPath id="clip1_34_616">
<rect width="41" height="39.78" fill="white" transform="translate(12.5 12)"/>
</clipPath>
<clipPath id="clip2_34_616">
<rect width="41" height="39.7941" fill="white" transform="translate(12.5 11.9929)"/>
</clipPath>
</defs>
</svg>
