<svg width="66" height="65" viewBox="0 0 66 65" fill="none" xmlns="http://www.w3.org/2000/svg">
<rect x="0.5" width="65" height="65" rx="8" fill="#00D280" fill-opacity="0.2"/>
<g clip-path="url(#clip0_1_633)">
<g clip-path="url(#clip1_1_633)">
<mask id="mask0_1_633" style="mask-type:luminance" maskUnits="userSpaceOnUse" x="21" y="12" width="24" height="25">
<path d="M21.2988 12.7454H44.7433V36.2295H21.2988V12.7454Z" fill="white"/>
</mask>
<g mask="url(#mask0_1_633)">
<path d="M32.9838 36.1238C32.7799 36.1238 32.5854 36.043 32.4416 35.9C26.9687 30.4401 21.3086 24.7932 21.3086 19.0342C21.3086 15.6114 24.0982 12.8271 27.5271 12.8271C29.9255 12.8271 31.9438 13.8531 32.9916 15.45C34.0198 13.76 35.9115 12.8271 38.4353 12.8271C41.8659 12.8271 44.6574 15.6114 44.6574 19.0342C44.6574 24.7885 39.0055 30.4294 33.5405 35.8845L33.5244 35.9C33.3817 36.043 33.1867 36.1238 32.9838 36.1238ZM27.5271 14.3558C24.9439 14.3558 22.8417 16.4541 22.8417 19.0342C22.8417 23.9838 27.9059 29.2063 32.9826 34.2777C38.0576 29.2063 43.1242 23.9844 43.1242 19.0342C43.1242 16.4541 41.0203 14.3558 38.4353 14.3558C36.5627 14.3558 34.2273 14.9557 33.7379 17.8147C33.6731 18.1939 33.3354 18.4669 32.9512 18.4503C32.5664 18.4348 32.253 18.1358 32.2203 17.753C32.0235 15.523 29.7113 14.3558 27.5271 14.3558Z" fill="#00D280"/>
</g>
<path d="M35.6161 25.0639H30.283C29.7544 25.0639 29.3262 24.6366 29.3262 24.1091C29.3262 23.581 29.7544 23.1543 30.283 23.1543H35.6161C36.1453 23.1543 36.5735 23.581 36.5735 24.1091C36.5735 24.6366 36.1453 25.0639 35.6161 25.0639Z" fill="#00D280"/>
<path d="M32.9489 27.7247C32.4203 27.7247 31.9922 27.2968 31.9922 26.7693V21.4482C31.9922 20.92 32.4203 20.4922 32.9489 20.4922C33.4776 20.4922 33.907 20.92 33.907 21.4482V26.7693C33.907 27.2968 33.4776 27.7247 32.9489 27.7247Z" fill="#00D280"/>
<path d="M22.3743 43.9917C22.1507 43.9917 21.9313 43.895 21.7815 43.7128C21.5186 43.393 21.1779 42.9865 20.7824 42.5159C19.5229 41.0158 17.7971 38.9608 16.4359 37.1438C16.091 36.6863 15.1514 34.9488 14.3534 33.006C13.3067 30.4591 12.9143 28.5833 13.186 27.4303L14.7572 20.7806C14.9118 20.1284 15.4262 19.7065 16.0666 19.7065C17.3618 19.7065 18.7438 21.3794 18.814 24.1791C18.8146 24.236 18.8099 24.2929 18.7986 24.3494L18.7783 24.4532C18.3627 26.51 18.1539 27.5424 18.2984 28.3733C18.3359 28.5846 18.3977 28.7963 18.4887 29.0224C18.8033 28.5507 19.31 28.2831 19.8981 28.2831C20.8419 28.2831 21.9319 28.9464 23.1361 30.2555C23.6624 30.7653 24.3142 31.4127 25.3667 32.6233C25.6201 32.9152 25.8057 33.1182 25.9548 33.2807C26.4966 33.8748 26.5733 33.9952 26.7137 34.7619C26.7529 34.9761 26.8052 35.2692 26.901 35.6941L27.9672 40.4609C28.0422 40.7951 27.8846 41.1386 27.5825 41.3L22.7383 43.9015C22.6223 43.9621 22.4974 43.9917 22.3743 43.9917ZM16.2087 21.2986L14.6781 27.7805C14.2273 29.6942 17.0734 35.4454 17.6621 36.2263C19.0002 38.0108 20.7093 40.0473 21.9581 41.5344C22.1775 41.7961 22.3803 42.0376 22.5634 42.2566L26.3445 40.2271L25.4042 36.0264C25.3026 35.5713 25.2454 35.2603 25.2056 35.033C25.1752 34.8692 25.1444 34.6996 25.1253 34.664C25.1003 34.6159 24.9713 34.4741 24.822 34.3103C24.6752 34.1495 24.4741 33.9299 24.2083 33.6243C23.1843 32.4476 22.5581 31.8269 22.0526 31.3373C22.0413 31.3266 22.0306 31.3154 22.0205 31.3041C20.7176 29.8829 20.0236 29.8111 19.8975 29.8111C19.8012 29.8111 19.7839 29.8342 19.756 29.8829C19.6115 30.1345 19.602 30.9006 20.1782 31.8963C20.2151 31.9432 20.2579 31.996 20.3049 32.0535L20.3929 32.1575C20.6504 32.4606 21.1874 33.092 22.2394 34.3571C22.2453 34.3654 22.2512 34.3731 22.2578 34.3809C22.4855 34.6788 22.5302 34.9737 22.3892 35.2585C22.2602 35.5191 21.9943 35.6847 21.7018 35.6847C21.339 35.6847 21.1874 35.506 20.8847 35.15C20.7449 34.9856 20.5534 34.7577 20.3441 34.5068C19.9183 33.9958 19.4289 33.4036 19.1256 33.0315C18.993 32.8754 18.9395 32.8102 18.8931 32.7354L18.7361 32.4915C16.4103 28.8658 16.3693 28.6325 17.2732 24.1511L17.278 24.134C17.2149 22.3567 16.5525 21.5224 16.2087 21.2986Z" fill="#00D280"/>
<path d="M24.1551 48.2056C24.0814 48.2056 24.0076 48.1954 23.9351 48.1729C23.7406 48.1154 23.5771 47.9817 23.4807 47.8032L21.3185 43.7918C21.2222 43.6132 21.2002 43.4042 21.259 43.2096C21.3185 43.0156 21.4511 42.8524 21.6313 42.7563L27.9432 39.3709C28.3148 39.1708 28.7805 39.3104 28.9802 39.6818L31.1425 43.6896C31.2389 43.8684 31.2609 44.0778 31.202 44.2731C31.1437 44.4671 31.01 44.6296 30.8315 44.7263L24.519 48.1148C24.406 48.1747 24.2812 48.2056 24.1551 48.2056ZM23.0318 43.7419L24.4679 46.4057L29.4305 43.7419L27.9943 41.0793L23.0318 43.7419Z" fill="#00D280"/>
<path d="M43.6286 44.3406C43.5049 44.3406 43.3801 44.3115 43.2665 44.2498L38.4187 41.6483C38.1161 41.4862 37.9578 41.1427 38.0333 40.8087L39.102 36.0424C39.1983 35.6146 39.2507 35.3202 39.2893 35.1053C39.4284 34.3398 39.5057 34.2189 40.0505 33.6249C40.1991 33.4628 40.3841 33.261 40.6356 32.9721C41.6888 31.7615 42.3406 31.1141 42.8675 30.6044C44.0711 29.2954 45.1611 28.6313 46.1049 28.6313C46.6924 28.6313 47.1991 28.8995 47.513 29.3706C47.6041 29.1446 47.6671 28.9328 47.7039 28.7209C47.8485 27.8914 47.6404 26.8582 47.2247 24.802L47.2044 24.6982C47.1931 24.6419 47.1878 24.5854 47.189 24.5279C47.2592 21.7282 48.6405 20.0542 49.9358 20.0542C50.5762 20.0542 51.09 20.4755 51.2428 21.1271L52.814 27.7792C53.4693 30.5462 50.0565 36.8376 49.5682 37.4915C48.2047 39.3096 46.479 41.3652 45.2188 42.8654C44.8245 43.336 44.4832 43.7419 44.221 44.0611C44.0705 44.2433 43.8522 44.3406 43.6286 44.3406ZM39.655 40.5771L43.4389 42.6066C43.6203 42.3882 43.8243 42.1461 44.0437 41.8844C45.2919 40.3973 47.0022 38.3614 48.3396 36.577C48.9462 35.7647 51.7804 30.0686 51.3213 28.1305L49.7919 21.6469C49.4499 21.8712 48.788 22.7061 48.7232 24.4822L48.7273 24.5C49.6325 28.9808 49.5903 29.2146 47.2627 32.8374L47.1051 33.0825C47.0582 33.159 46.9987 33.2296 46.872 33.3797C46.5752 33.7464 46.0972 34.3256 45.6541 34.8573C45.4448 35.1083 45.2557 35.3356 45.1148 35.4994C44.8162 35.8531 44.6652 36.0293 44.3078 36.0335C44.3042 36.0335 44.2995 36.0335 44.2995 36.0335C44.0092 36.0335 43.7434 35.8703 43.6144 35.6103C43.4698 35.3249 43.5138 35.0289 43.7434 34.7292C43.7493 34.7215 43.7548 34.7138 43.7619 34.7061C44.7591 33.505 45.283 32.8872 45.5631 32.5549L45.6892 32.406C45.7373 32.3454 45.782 32.2914 45.8201 32.2434C46.3968 31.2482 46.3885 30.4827 46.2447 30.2311C46.2167 30.183 46.1988 30.1599 46.1037 30.1599C45.9782 30.1599 45.2842 30.2317 43.9807 31.6529C43.9706 31.6636 43.9605 31.6754 43.9491 31.6862C43.4426 32.1758 42.8163 32.797 41.7923 33.9737C41.527 34.2776 41.3272 34.4966 41.1803 34.6561C41.0359 34.8134 40.8997 34.9618 40.8748 35.0098C40.8563 35.0443 40.8265 35.2128 40.7962 35.3759C40.7557 35.6038 40.6987 35.9165 40.5964 36.3758L39.655 40.5771Z" fill="#00D280"/>
<mask id="mask1_1_633" style="mask-type:luminance" maskUnits="userSpaceOnUse" x="34" y="39" width="11" height="10">
<path d="M34.6982 39.5715H44.8981V48.6346H34.6982V39.5715Z" fill="white"/>
</mask>
<g mask="url(#mask1_1_633)">
<path d="M41.8505 48.552C41.725 48.552 41.6001 48.5213 41.4865 48.4614L35.1747 45.0748C34.9956 44.9791 34.8619 44.816 34.8041 44.6213C34.7453 44.4273 34.7667 44.2179 34.8625 44.0393L37.0252 40.0308C37.2257 39.6587 37.6908 39.5199 38.0624 39.7192L44.3732 43.1058C44.7454 43.3057 44.8846 43.7693 44.6848 44.1413L42.5254 48.1492C42.4292 48.3277 42.2655 48.4614 42.0711 48.5195C41.9985 48.5414 41.9243 48.552 41.8505 48.552ZM36.5757 44.0909L41.5377 46.7523L42.9714 44.0909L38.0113 41.4289L36.5757 44.0909Z" fill="#00D280"/>
</g>
</g>
</g>
<defs>
<clipPath id="clip0_1_633">
<rect width="41" height="37.38" fill="white" transform="translate(12.5 12)"/>
</clipPath>
<clipPath id="clip1_1_633">
<rect width="41" height="37.38" fill="white" transform="translate(12.5 12)"/>
</clipPath>
</defs>
</svg>
