<svg width="66" height="65" viewBox="0 0 66 65" fill="none" xmlns="http://www.w3.org/2000/svg">
<rect x="0.5" width="65" height="65" rx="8" fill="#00D280" fill-opacity="0.2"/>
<g clip-path="url(#clip0_34_594)">
<g clip-path="url(#clip1_34_594)">
<mask id="mask0_34_594" style="mask-type:luminance" maskUnits="userSpaceOnUse" x="21" y="12" width="24" height="25">
<path d="M21.2993 12.7454H44.7437V36.2295H21.2993V12.7454Z" fill="white"/>
</mask>
<g mask="url(#mask0_34_594)">
<path d="M32.9838 36.1238C32.7799 36.1238 32.5854 36.043 32.4416 35.9C26.9687 30.4401 21.3086 24.7932 21.3086 19.0342C21.3086 15.6114 24.0982 12.8271 27.5271 12.8271C29.9255 12.8271 31.9438 13.8531 32.9916 15.45C34.0198 13.76 35.9115 12.8271 38.4353 12.8271C41.8659 12.8271 44.6574 15.6114 44.6574 19.0342C44.6574 24.7885 39.0055 30.4294 33.5405 35.8845L33.5244 35.9C33.3817 36.043 33.1867 36.1238 32.9838 36.1238ZM27.5271 14.3558C24.9439 14.3558 22.8417 16.4541 22.8417 19.0342C22.8417 23.9838 27.9059 29.2063 32.9826 34.2777C38.0576 29.2063 43.1242 23.9844 43.1242 19.0342C43.1242 16.4541 41.0203 14.3558 38.4353 14.3558C36.5627 14.3558 34.2273 14.9557 33.7379 17.8147C33.6731 18.1939 33.3354 18.4669 32.9512 18.4503C32.5664 18.4349 32.253 18.1358 32.2203 17.753C32.0235 15.523 29.7113 14.3558 27.5271 14.3558Z" fill="#00D280"/>
</g>
<path d="M35.6156 25.0639H30.2826C29.7539 25.0639 29.3257 24.6366 29.3257 24.1091C29.3257 23.581 29.7539 23.1543 30.2826 23.1543H35.6156C36.1448 23.1543 36.573 23.581 36.573 24.1091C36.573 24.6366 36.1448 25.0639 35.6156 25.0639Z" fill="#00D280"/>
<path d="M32.9489 27.7247C32.4203 27.7247 31.9922 27.2968 31.9922 26.7693V21.4482C31.9922 20.92 32.4203 20.4922 32.9489 20.4922C33.4776 20.4922 33.907 20.92 33.907 21.4482V26.7693C33.907 27.2968 33.4776 27.7247 32.9489 27.7247Z" fill="#00D280"/>
<path d="M22.3748 43.9917C22.1512 43.9917 21.9318 43.895 21.7819 43.7128C21.5191 43.393 21.1784 42.9865 20.7829 42.5159C19.5234 41.0158 17.7976 38.9608 16.4364 37.1438C16.0915 36.6863 15.1519 34.9488 14.3539 33.006C13.3072 30.4591 12.9147 28.5833 13.1865 27.4303L14.7576 20.7806C14.9122 20.1284 15.4266 19.7065 16.0671 19.7065C17.3623 19.7065 18.7443 21.3794 18.8145 24.1791C18.8151 24.236 18.8103 24.2929 18.799 24.3494L18.7788 24.4532C18.3632 26.51 18.1544 27.5424 18.2989 28.3733C18.3364 28.5846 18.3982 28.7963 18.4892 29.0224C18.8038 28.5507 19.3105 28.2831 19.8986 28.2831C20.8424 28.2831 21.9324 28.9464 23.1366 30.2555C23.6629 30.7653 24.3147 31.4127 25.3672 32.6233C25.6206 32.9152 25.8062 33.1182 25.9553 33.2807C26.4971 33.8748 26.5738 33.9952 26.7142 34.7619C26.7534 34.9761 26.8057 35.2692 26.9015 35.6941L27.9677 40.4609C28.0427 40.7951 27.8851 41.1386 27.583 41.3L22.7388 43.9015C22.6228 43.9621 22.4979 43.9917 22.3748 43.9917ZM16.2092 21.2986L14.6785 27.7805C14.2278 29.6942 17.0739 35.4454 17.6626 36.2263C19.0006 38.0108 20.7097 40.0473 21.9586 41.5344C22.178 41.7961 22.3808 42.0376 22.5639 42.2566L26.3449 40.2271L25.4047 36.0264C25.3031 35.5713 25.2459 35.2603 25.2061 35.033C25.1757 34.8692 25.1448 34.6996 25.1258 34.664C25.1008 34.6159 24.9718 34.4741 24.8225 34.3103C24.6756 34.1495 24.4746 33.9299 24.2088 33.6243C23.1848 32.4476 22.5586 31.8269 22.0531 31.3373C22.0418 31.3266 22.0311 31.3154 22.021 31.3041C20.7181 29.8829 20.0241 29.8111 19.898 29.8111C19.8017 29.8111 19.7844 29.8342 19.7565 29.8829C19.612 30.1345 19.6025 30.9006 20.1787 31.8963C20.2156 31.9432 20.2584 31.996 20.3054 32.0535L20.3934 32.1575C20.6509 32.4606 21.1879 33.092 22.2398 34.3571C22.2458 34.3654 22.2517 34.3731 22.2583 34.3809C22.486 34.6788 22.5306 34.9737 22.3897 35.2585C22.2607 35.5191 21.9948 35.6847 21.7023 35.6847C21.3395 35.6847 21.1879 35.506 20.8852 35.15C20.7454 34.9856 20.5539 34.7577 20.3446 34.5068C19.9188 33.9958 19.4294 33.4036 19.1261 33.0315C18.9935 32.8754 18.94 32.8102 18.8936 32.7354L18.7366 32.4915C16.4108 28.8658 16.3698 28.6325 17.2737 24.1511L17.2785 24.134C17.2154 22.3567 16.553 21.5224 16.2092 21.2986Z" fill="#00D280"/>
<path d="M24.1546 48.2056C24.0809 48.2056 24.0071 48.1954 23.9346 48.1729C23.7401 48.1154 23.5766 47.9817 23.4802 47.8032L21.318 43.7918C21.2217 43.6132 21.1997 43.4042 21.2585 43.2096C21.318 43.0156 21.4506 42.8524 21.6308 42.7563L27.9427 39.3709C28.3143 39.1708 28.78 39.3104 28.9797 39.6818L31.142 43.6896C31.2384 43.8684 31.2604 44.0778 31.2015 44.2731C31.1432 44.4671 31.0095 44.6296 30.831 44.7263L24.5185 48.1148C24.4056 48.1747 24.2807 48.2056 24.1546 48.2056ZM23.0313 43.7419L24.4674 46.4057L29.43 43.7419L27.9938 41.0793L23.0313 43.7419Z" fill="#00D280"/>
<path d="M43.6281 44.3406C43.5044 44.3406 43.3796 44.3115 43.266 44.2498L38.4182 41.6483C38.1156 41.4862 37.9574 41.1427 38.0328 40.8087L39.1015 36.0424C39.1978 35.6146 39.2502 35.3202 39.2888 35.1053C39.4279 34.3398 39.5052 34.2189 40.05 33.6249C40.1986 33.4628 40.3836 33.261 40.6351 32.9721C41.6884 31.7615 42.3401 31.1141 42.867 30.6044C44.0706 29.2954 45.1606 28.6313 46.1044 28.6313C46.6919 28.6313 47.1986 28.8995 47.5125 29.3706C47.6036 29.1446 47.6666 28.9328 47.7034 28.7209C47.848 27.8914 47.6399 26.8582 47.2242 24.802L47.2039 24.6982C47.1926 24.6419 47.1873 24.5854 47.1885 24.5279C47.2587 21.7282 48.64 20.0542 49.9353 20.0542C50.5757 20.0542 51.0895 20.4755 51.2423 21.1271L52.8135 27.7792C53.4689 30.5462 50.056 36.8376 49.5677 37.4915C48.2042 39.3096 46.4785 41.3652 45.2183 42.8654C44.824 43.336 44.4827 43.7419 44.2205 44.0611C44.07 44.2433 43.8517 44.3406 43.6281 44.3406ZM39.6545 40.5771L43.4385 42.6066C43.6198 42.3883 43.8239 42.1461 44.0432 41.8844C45.2914 40.3973 47.0017 38.3614 48.3392 36.577C48.9457 35.7647 51.7799 30.0686 51.3208 28.1305L49.7914 21.6469C49.4494 21.8712 48.7875 22.7061 48.7227 24.4822L48.7268 24.4999C49.632 28.9808 49.5898 29.2146 47.2622 32.8374L47.1046 33.0825C47.0577 33.159 46.9982 33.2296 46.8715 33.3797C46.5747 33.7464 46.0967 34.3256 45.6537 34.8573C45.4443 35.1083 45.2552 35.3356 45.1143 35.4994C44.8157 35.8531 44.6647 36.0293 44.3073 36.0335C44.3037 36.0335 44.299 36.0335 44.299 36.0335C44.0087 36.0335 43.7429 35.8703 43.6139 35.6103C43.4693 35.3249 43.5133 35.0289 43.7429 34.7292C43.7488 34.7215 43.7543 34.7138 43.7614 34.7061C44.7587 33.505 45.2825 32.8872 45.5626 32.5549L45.6887 32.406C45.7369 32.3454 45.7815 32.2914 45.8196 32.2434C46.3964 31.2482 46.388 30.4827 46.2442 30.2311C46.2162 30.183 46.1984 30.1599 46.1032 30.1599C45.9777 30.1599 45.2837 30.2317 43.9803 31.6529C43.9701 31.6636 43.96 31.6754 43.9487 31.6862C43.4421 32.1758 42.8159 32.797 41.7918 33.9737C41.5265 34.2776 41.3267 34.4966 41.1798 34.6561C41.0354 34.8134 40.8992 34.9618 40.8743 35.0098C40.8558 35.0443 40.826 35.2128 40.7958 35.3759C40.7552 35.6038 40.6982 35.9165 40.5959 36.3758L39.6545 40.5771Z" fill="#00D280"/>
<mask id="mask1_34_594" style="mask-type:luminance" maskUnits="userSpaceOnUse" x="34" y="39" width="11" height="10">
<path d="M34.6982 39.5715H44.8981V48.6346H34.6982V39.5715Z" fill="white"/>
</mask>
<g mask="url(#mask1_34_594)">
<path d="M41.85 48.552C41.7246 48.552 41.5996 48.5213 41.486 48.4614L35.1742 45.0748C34.9951 44.9791 34.8614 44.816 34.8036 44.6213C34.7448 44.4273 34.7663 44.2179 34.862 44.0393L37.0248 40.0308C37.2252 39.6587 37.6903 39.5199 38.0619 39.7192L44.3727 43.1058C44.7449 43.3057 44.8841 43.7693 44.6843 44.1413L42.5249 48.1492C42.4287 48.3277 42.265 48.4614 42.0706 48.5195C41.9981 48.5414 41.9238 48.552 41.85 48.552ZM36.5752 44.0909L41.5372 46.7523L42.971 44.0909L38.0108 41.4289L36.5752 44.0909Z" fill="#00D280"/>
</g>
</g>
</g>
<defs>
<clipPath id="clip0_34_594">
<rect width="41" height="37.38" fill="white" transform="translate(12.5 12)"/>
</clipPath>
<clipPath id="clip1_34_594">
<rect width="41" height="37.38" fill="white" transform="translate(12.5 12)"/>
</clipPath>
</defs>
</svg>
