<svg width="59" height="56" viewBox="0 0 59 56" fill="none" xmlns="http://www.w3.org/2000/svg">
<mask id="mask0_1_802" style="mask-type:luminance" maskUnits="userSpaceOnUse" x="1" y="1" width="57" height="54">
<path d="M1.70898 1.39502H57.0034V54.8673H1.70898V1.39502Z" fill="white"/>
</mask>
<g mask="url(#mask0_1_802)">
<path d="M13.9466 54.8643H40.6065C41.0211 54.8643 41.3652 54.5276 41.3652 54.1209V50.8018C41.3652 50.393 41.0211 50.0563 40.6065 50.0563H13.9466C13.5286 50.0563 13.1857 50.393 13.1857 50.8018V54.1209C13.1857 54.5276 13.5286 54.8643 13.9466 54.8643ZM35.0888 45.5521H19.4654V49.0782H35.0888V45.5521ZM24.8768 42.9283C24.2179 42.9283 24.2179 41.9491 24.8768 41.9491H28.6981C29.3569 41.9491 29.3569 42.9283 28.6981 42.9283H24.8768ZM27.2065 26.8123L28.2688 30.6764L30.5201 22.5087C30.6512 22.0264 31.3561 22.0264 31.4872 22.5165L32.1035 24.7576L32.7591 22.374C32.8902 21.8915 33.5961 21.8915 33.7272 22.3772L34.7021 25.921H37.6269C37.8678 25.921 38.065 26.0877 38.1155 26.3091L38.6937 28.4023L39.3033 26.1731C39.3638 25.9539 39.5655 25.8124 39.7885 25.8124H44.7784C45.4373 25.8124 45.4373 26.7905 44.7784 26.7905H40.1673L39.1744 30.4C39.0433 30.8869 38.3419 30.8869 38.2073 30.4045L37.2425 26.8979H34.32C34.0992 26.8979 33.8986 26.7532 33.8371 26.534L33.242 24.3783L32.5864 26.7564C32.4553 27.2465 31.7538 27.2465 31.6227 26.7642L31.002 24.5143L28.7552 32.6773C28.624 33.1642 27.9192 33.1642 27.7881 32.6818L26.523 28.0821C26.3604 28.3036 26.1745 28.5163 25.9739 28.7147L19.2123 35.3341C19.0173 35.5282 18.7012 35.5282 18.5063 35.3341L11.4286 28.4023C9.23227 26.251 9.39475 22.7171 11.7973 20.7622C13.8816 19.0659 16.9542 19.2074 18.876 21.0746C20.9694 19.3817 24.1204 19.5232 25.9672 21.3981C27.4441 22.8455 27.89 24.9517 27.2065 26.8123ZM21.2483 27.0383C20.5894 27.0383 20.5894 26.0592 21.2483 26.0592H24.0767L25.0549 22.5011C25.0976 22.3488 25.2074 22.2302 25.3452 22.1755L25.2601 22.0921V22.0889C23.569 20.4409 20.8438 20.4748 19.2032 22.1063C19.1102 22.1963 18.9837 22.2556 18.8413 22.2556V22.2512C18.5365 22.2512 18.43 22.0264 18.1868 21.7829C16.5139 20.1482 13.8054 20.1482 12.1324 21.7829C10.4638 23.4211 10.4638 26.0734 12.1324 27.7114L18.8592 34.2957L25.2635 28.024C25.65 27.6457 25.947 27.2116 26.152 26.7499L25.5357 24.5088L24.9474 26.6501C24.897 26.8716 24.6953 27.0383 24.4577 27.0383H21.2483ZM39.551 11.7514C39.6115 16.7787 39.644 17.5562 47.525 23.216C47.9576 23.5285 48.5146 23.5209 48.9358 23.216C56.8853 17.5068 56.8506 16.7535 56.9145 11.6681C56.9525 8.34252 56.985 8.3842 56.9951 5.30313C56.9951 4.68145 56.5032 4.16391 55.8711 4.12992C53.3734 3.98738 50.9697 3.1442 48.9324 1.69687C48.5033 1.39206 47.9565 1.39206 47.5284 1.69687C45.49 3.1442 43.0864 3.98738 40.5886 4.12992C39.9577 4.16391 39.4646 4.68145 39.4646 5.30313C39.4758 8.38858 39.5083 8.41271 39.551 11.7514ZM38.6824 14.8106C38.6141 14.2525 38.5862 13.6417 38.5715 12.951H6.31985C3.7963 12.951 1.72656 14.975 1.72656 17.4454V40.0796C1.72656 42.5511 3.79516 44.5751 6.31985 44.5751C20.2913 44.5751 34.2595 44.5751 48.231 44.5751C50.7534 44.5751 52.8243 42.5511 52.8243 40.0796V21.5658C51.9032 22.2808 50.8151 23.0833 49.5286 24.0098C49.4939 24.0339 49.4536 24.0591 49.4189 24.0833V39.7572C49.4189 40.0281 49.1925 40.2473 48.9179 40.2473H5.63629C5.35952 40.2473 5.13539 40.0281 5.13539 39.7572V15.2996C5.13539 15.0287 5.35952 14.8095 5.63629 14.8095L38.6824 14.8106ZM46.9323 24.0077C41.2127 19.8949 39.43 18.2151 38.8517 15.7887H6.13607V39.2671H48.4148V24.4211C47.8971 24.4671 47.3771 24.3234 46.9323 24.0077ZM49.3819 7.70548H47.0812V10.8436C47.0812 11.1144 46.855 11.3326 46.5781 11.3326H43.3733V13.5858H46.5781C46.8537 13.5858 47.0812 13.8051 47.0812 14.0759V17.2162H49.3819V14.0759C49.3819 13.8051 49.606 13.5858 49.8827 13.5858H53.0865V11.3326H49.8827C49.606 11.3326 49.3819 11.1144 49.3819 10.8436V7.70548ZM46.5792 6.72305H49.8827C50.1585 6.72305 50.3826 6.94454 50.3826 7.21317V10.3534H53.5874C53.863 10.3534 54.0872 10.5727 54.0872 10.8436V14.0748C54.0872 14.3456 53.863 14.5649 53.5874 14.5649H50.3826V17.7053C50.3826 17.976 50.1585 18.1954 49.8827 18.1954H46.5792C46.3059 18.1954 46.0784 17.976 46.0784 17.7053V14.5649H42.8746C42.5978 14.5649 42.3737 14.3456 42.3737 14.0748V10.8436C42.3737 10.5727 42.5978 10.3534 42.8746 10.3534H46.0784V7.21317C46.0784 6.94454 46.3059 6.72305 46.5792 6.72305Z" fill="#0575AD"/>
</g>
</svg>
