<svg width="56" height="46" viewBox="0 0 56 46" fill="none" xmlns="http://www.w3.org/2000/svg">
<g clip-path="url(#clip0_1_952)">
<g clip-path="url(#clip1_1_952)">
<g clip-path="url(#clip2_1_952)">
<mask id="mask0_1_952" style="mask-type:luminance" maskUnits="userSpaceOnUse" x="0" y="0" width="56" height="46">
<path d="M0.160156 0.0200195H55.1602V45.02H0.160156V0.0200195Z" fill="white"/>
</mask>
<g mask="url(#mask0_1_952)">
<path fill-rule="evenodd" clip-rule="evenodd" d="M8.34767 16.6099H7.11238C6.82699 16.6099 6.59484 16.3848 6.59484 16.1059V14.599C6.59484 14.3211 6.82699 14.095 7.11238 14.095H12.1973C12.4827 14.095 12.7138 14.3211 12.7138 14.599V16.1059C12.7138 16.3848 12.4827 16.6099 12.1973 16.6099H10.961V18.3366C10.5329 18.2827 10.0973 18.2557 9.6543 18.2557C9.21237 18.2557 8.77576 18.2827 8.34767 18.3366V16.6099ZM37.9626 19.7013C38.9689 16.4917 39.5312 13.088 39.5791 9.56102H34.7115L44.9345 0.0356445L55.1576 9.56102H50.7574C50.6882 29.1406 34.7455 45.0149 15.1173 45.0149C12.816 45.0149 10.5659 44.7971 8.38601 44.3802C12.2665 43.898 15.9554 42.7904 19.3471 41.1633C19.5388 41.2068 19.739 41.2286 19.9445 41.2286H23.2276C24.6971 41.2286 25.8888 40.0733 25.8888 38.638C25.8888 36.8584 28.1016 35.9655 29.3933 37.2235C30.4316 38.2346 32.1195 38.2346 33.1567 37.2235L35.4793 34.9617C36.5165 33.9505 36.5165 32.3068 35.4793 31.2957C34.1875 30.0377 35.1044 27.8817 36.9307 27.8817C38.4045 27.8817 39.5908 26.7212 39.5908 25.2901V22.0907C39.5908 21.0163 38.921 20.0934 37.9626 19.7013ZM9.79381 12.5539L11.1356 11.2473C11.5563 10.8376 12.2389 10.8376 12.6606 11.2473C14.9469 13.4749 18.8657 11.8954 18.8657 8.74382C18.8657 8.16307 19.3481 7.69328 19.9445 7.69328H23.2276C23.8239 7.69328 24.3063 8.16307 24.3063 8.74382C24.3063 11.8954 28.2251 13.4749 30.5126 11.2473C30.9332 10.8376 31.6179 10.8376 32.0386 11.2473L34.3611 13.5112C34.7817 13.9208 34.7817 14.5866 34.3611 14.9962C32.0737 17.2238 33.6977 21.0402 36.9307 21.0402C37.5281 21.0402 38.0095 21.511 38.0095 22.0907V25.2901C38.0095 25.8698 37.5281 26.3406 36.9307 26.3406C33.6977 26.3406 32.0737 30.158 34.3611 32.3856C34.7817 32.7952 34.7817 33.4621 34.3611 33.8727L32.0386 36.1335C31.6179 36.5442 30.9332 36.5442 30.5126 36.1335C28.2251 33.9059 24.3063 35.4874 24.3063 38.638C24.3063 39.2198 23.8239 39.6886 23.2276 39.6886H19.9445C19.3481 39.6886 18.8657 39.2198 18.8657 38.638C18.8657 37.1011 17.935 35.9375 16.7168 35.4076C17.8189 34.3799 18.6868 33.1167 19.2321 31.7011C19.9807 31.9117 20.7708 32.0237 21.5866 32.0237C26.2966 32.0237 30.1409 28.2799 30.1409 23.6919C30.1409 19.1019 26.2966 15.3592 21.5866 15.3592C18.509 15.3592 15.802 16.9563 14.2952 19.3436C13.7276 19.0615 13.1312 18.8281 12.5093 18.6518C12.5317 18.5492 12.5434 18.4434 12.5434 18.3366V18.1229C13.5348 17.9622 14.2962 17.1211 14.2962 16.1059V14.599C14.2962 13.4686 13.3527 12.5539 12.1973 12.5539H9.79381ZM15.8968 20.336L17.1406 19.1247C17.3419 18.9277 17.6699 18.9277 17.8722 19.1247L18.9882 20.2116C19.1895 20.4076 19.1895 20.727 18.9882 20.924L17.7444 22.1353C17.2098 21.4623 16.5879 20.8566 15.8968 20.336ZM1.56532 22.1353L0.358779 20.9614C0.156449 20.7643 0.156449 20.4449 0.358779 20.2479L1.4748 19.161C1.67607 18.965 2.00406 18.965 2.20639 19.161L3.41292 20.336C2.7218 20.8566 2.0999 21.4623 1.56532 22.1353ZM9.6543 36.6344C4.8942 36.6344 1.01156 32.8523 1.01156 28.2156C1.01156 23.5779 4.8942 19.7968 9.6543 19.7968C14.4155 19.7968 18.2981 23.5779 18.2981 28.2156C18.2981 32.8523 14.4155 36.6344 9.6543 36.6344ZM11.1622 27.8371L13.9576 25.1138C14.2664 24.813 14.2664 24.3246 13.9576 24.0238C13.6488 23.7241 13.1483 23.7241 12.8395 24.0238L10.0441 26.7471C9.91946 26.716 9.78955 26.6994 9.65537 26.6994C8.79599 26.6994 8.09955 27.3787 8.09955 28.2156C8.09955 29.0525 8.79599 29.7307 9.65537 29.7307C10.5137 29.7307 11.2112 29.0525 11.2112 28.2156C11.2112 28.0849 11.1942 27.9574 11.1622 27.8371Z" fill="#00D280"/>
</g>
</g>
</g>
</g>
<defs>
<clipPath id="clip0_1_952">
<rect width="55" height="45" fill="white" transform="translate(0.160156 0.0200195)"/>
</clipPath>
<clipPath id="clip1_1_952">
<rect width="55" height="45" fill="white" transform="translate(0.160156 0.0200195)"/>
</clipPath>
<clipPath id="clip2_1_952">
<rect width="55" height="45" fill="white" transform="translate(0.160156 0.0200195)"/>
</clipPath>
</defs>
</svg>
