<svg width="46" height="46" viewBox="0 0 46 46" fill="none" xmlns="http://www.w3.org/2000/svg">
<g clip-path="url(#clip0_34_884)">
<g clip-path="url(#clip1_34_884)">
<g clip-path="url(#clip2_34_884)">
<mask id="mask0_34_884" style="mask-type:luminance" maskUnits="userSpaceOnUse" x="0" y="2" width="26" height="44">
<path d="M0.830078 2.65747H25.8983V45.0201H0.830078V2.65747Z" fill="white"/>
</mask>
<g mask="url(#mask0_34_884)">
<path d="M19.7215 34.5984C19.5306 34.4413 19.2152 34.5589 19.2152 34.7873V36.8434C19.2152 37.016 19.0243 37.1405 18.8324 37.0933C11.459 35.2861 6.03972 29.3924 6.03972 22.4212C6.03972 15.1281 11.9723 9.01465 19.8678 7.52513C20.1042 7.48049 20.1873 7.22551 20.0122 7.08128L18.3973 5.75659C18.2717 5.65442 18.2717 5.481 18.3973 5.37798L20.9843 3.25745C21.194 3.08488 21.0288 2.77839 20.7421 2.8093C18.6762 3.03337 16.6657 3.50126 14.7363 4.20954C12.0247 5.20542 9.58995 6.63055 7.49937 8.4446C5.40879 10.2595 3.76718 12.3731 2.62003 14.7272C1.43233 17.1654 0.830078 19.7538 0.830078 22.4212C0.830078 25.0886 1.43233 27.6779 2.62003 30.1161C3.76718 32.4701 5.40879 34.5838 7.49937 36.3979C9.58995 38.2128 12.0247 39.637 14.7363 40.6329C16.1119 41.1377 17.5281 41.5206 18.9768 41.7799C19.1163 41.8048 19.2161 41.9112 19.2161 42.0349V44.674C19.2161 44.9023 19.5306 45.0199 19.7215 44.8628L25.7509 39.9203C25.8756 39.8173 25.8756 39.6439 25.7509 39.5417L19.7215 34.5984Z" fill="#00D280"/>
</g>
<mask id="mask1_34_884" style="mask-type:luminance" maskUnits="userSpaceOnUse" x="20" y="0" width="26" height="42">
<path d="M20.582 0.0200195H45.8301V41.998H20.582V0.0200195Z" fill="white"/>
</mask>
<g mask="url(#mask1_34_884)">
<path d="M44.0406 14.7272C42.8934 12.3732 41.2518 10.2595 39.1612 8.44464C37.0706 6.63059 34.6359 5.20546 31.9243 4.21044C30.4785 3.67902 28.9872 3.2841 27.4623 3.02397C27.3218 3.00079 27.22 2.89347 27.22 2.76899V0.0200195L20.6852 5.37802C20.5606 5.48104 20.5606 5.65446 20.6852 5.75748L26.7146 10.6999C26.9055 10.857 27.22 10.7394 27.22 10.5111V7.9467C27.22 7.77499 27.4079 7.65051 27.5987 7.69515C35.0888 9.43622 40.6209 15.3789 40.6209 22.4213C40.6209 29.9101 34.3679 36.1541 26.1559 37.4273C25.9136 37.465 25.8256 37.7269 26.0046 37.8737L28.0388 39.5418C28.1644 39.6448 28.1644 39.8174 28.0388 39.9204L26.0629 41.5413C25.8493 41.7155 26.0214 42.0238 26.3112 41.9877C28.2396 41.749 30.1175 41.2966 31.9243 40.633C34.6359 39.6379 37.0706 38.2128 39.1612 36.3979C41.2518 34.5839 42.8934 32.4702 44.0406 30.1161C45.2282 27.6779 45.8305 25.0887 45.8305 22.4213C45.8305 19.7547 45.2282 17.1654 44.0406 14.7272Z" fill="#00D280"/>
</g>
<path d="M32.7806 14.2791L30.3687 12.6376C30.1303 12.4753 29.7981 12.465 29.5479 12.6127L27.66 13.7185L25.8928 13.2171L25.1224 11.3567C25.0196 11.1094 24.7447 10.948 24.4421 10.9566L21.3784 11.045C21.0758 11.0536 20.8147 11.2313 20.7306 11.4837L20.1046 13.3836L18.379 13.9863L16.411 12.9913C16.1499 12.8591 15.8196 12.8883 15.5942 13.0643L13.3127 14.8414C13.0872 15.0165 13.018 15.2981 13.1416 15.5385L14.0683 17.344L13.1931 18.7674L10.9482 19.1031C10.6505 19.1486 10.4191 19.3546 10.3766 19.6147L9.94443 22.2495C9.90191 22.5097 10.0582 22.7638 10.3301 22.8788L12.3772 23.7451L12.7609 25.3247L11.2904 26.834C11.0946 27.034 11.0708 27.3216 11.231 27.5449L12.8509 29.8036C13.0111 30.0268 13.3187 30.135 13.6124 30.0715L15.8216 29.5924L17.2852 30.5883L17.2763 32.5646C17.2753 32.8273 17.4692 33.0608 17.7569 33.1424L20.6713 33.9691C20.7425 33.9897 20.8157 33.9992 20.8879 33.9992C21.1064 33.9992 21.319 33.909 21.4525 33.7493L22.7896 32.1499L24.6487 32.0958L26.1054 33.6146C26.2992 33.8172 26.6216 33.8876 26.9025 33.7897L29.7456 32.7964C30.0275 32.6985 30.2035 32.4547 30.1818 32.192L30.0216 30.2208L31.406 29.1425L33.6469 29.4928C33.9446 29.54 34.2433 29.4138 34.3867 29.182L35.8295 26.8349C35.9729 26.6031 35.9264 26.318 35.7158 26.1292L34.1335 24.7075L34.3956 23.1098L36.3714 22.1276C36.6345 21.9971 36.7709 21.7344 36.7077 21.4777L36.0757 18.8738C36.0134 18.6163 35.7672 18.424 35.4656 18.3965L33.2009 18.1905L32.2179 16.8203L33.0051 14.9659C33.11 14.7186 33.019 14.4413 32.7806 14.2791ZM32.7164 19.3641L34.8149 19.5546L35.2381 21.2957L33.4066 22.2049C33.2197 22.2976 33.0922 22.4607 33.0625 22.6453L32.7045 24.8302C32.6738 25.0148 32.7441 25.202 32.8934 25.3359L34.36 26.6537L33.3948 28.2222L31.318 27.8977C31.1064 27.8642 30.8888 27.9183 30.7286 28.0428L28.8368 29.5169C28.6756 29.6413 28.5916 29.8234 28.6064 30.0097L28.7547 31.8374L26.853 32.5011L25.5032 31.0931C25.3647 30.9497 25.158 30.869 24.9434 30.875L22.4029 30.9489C22.1873 30.9549 21.9875 31.0467 21.861 31.1978L20.6218 32.6805L18.6737 32.1285L18.6816 30.2964C18.6826 30.1092 18.5837 29.9332 18.4146 29.8173L16.414 28.4557C16.2439 28.3407 16.0234 28.2995 15.8137 28.345L13.7666 28.7888L12.6838 27.2787L14.0465 25.8802C14.1849 25.7377 14.2413 25.5471 14.1968 25.3642L13.6717 23.2051C13.6272 23.0222 13.4887 22.8677 13.2949 22.7852L11.3982 21.9834L11.6859 20.2226L13.7656 19.9109C13.9783 19.8792 14.1612 19.7641 14.2631 19.5993L15.4597 17.653C15.5615 17.4882 15.5694 17.2916 15.4814 17.1208L14.623 15.4484L16.148 14.2602L17.9715 15.1822C18.1575 15.2758 18.3829 15.2904 18.5827 15.2209L20.9413 14.3975C21.141 14.328 21.2923 14.1821 21.3517 14.0018L21.9322 12.2409L23.9802 12.1817L24.6942 13.9056C24.7674 14.0816 24.9296 14.2181 25.1343 14.2765L27.5512 14.9616C27.7559 15.02 27.9794 14.9925 28.1584 14.8878L29.9068 13.8627L31.5198 14.9607L30.7899 16.6795C30.7158 16.8546 30.7385 17.0495 30.8522 17.2083L32.1962 19.0816C32.3109 19.2404 32.5028 19.3452 32.7164 19.3641Z" fill="#00D280"/>
<path d="M28.2766 18.5589C27.6723 17.9837 26.9494 17.5252 26.1286 17.1981C25.3078 16.8702 24.4366 16.6916 23.5406 16.6676C22.6753 16.6444 21.8229 16.7654 21.008 17.0264C20.1921 17.2883 19.4544 17.678 18.8146 18.1846C18.152 18.7091 17.6249 19.3358 17.2471 20.0484C16.8693 20.761 16.6636 21.5173 16.636 22.2951C16.6093 23.0463 16.7487 23.7855 17.0503 24.4938C17.3519 25.2012 17.8009 25.8417 18.3834 26.3971C18.9876 26.9723 19.7105 27.4299 20.5313 27.7579C21.3521 28.085 22.2234 28.2635 23.1193 28.2884C23.1895 28.2902 23.2598 28.291 23.329 28.291C24.1221 28.291 24.9033 28.1691 25.652 27.9287C26.4678 27.6669 27.2056 27.2771 27.8454 26.7714C28.508 26.2469 29.0351 25.6193 29.4128 24.9067C29.7906 24.1942 29.9963 23.4387 30.024 22.66C30.0507 21.9097 29.9113 21.1696 29.6096 20.4622C29.308 19.7539 28.859 19.1135 28.2766 18.5589ZM25.1684 26.7929C23.8403 27.2187 22.4014 27.1707 21.1148 26.6573C19.8292 26.1439 18.8502 25.2261 18.3587 24.0731C17.8682 22.921 17.9235 21.6719 18.5149 20.5549C19.1063 19.4389 20.1634 18.5889 21.4916 18.1631C22.0909 17.9708 22.7129 17.8746 23.3329 17.8746C24.0875 17.8746 24.8391 18.0163 25.5452 18.2979C26.8308 18.8121 27.8098 19.729 28.3013 20.882C28.7918 22.035 28.7364 23.2842 28.145 24.4002C27.5537 25.5172 26.4965 26.3662 25.1684 26.7929Z" fill="#00D280"/>
</g>
</g>
</g>
<defs>
<clipPath id="clip0_34_884">
<rect width="45" height="45" fill="white" transform="translate(0.830078 0.0200195)"/>
</clipPath>
<clipPath id="clip1_34_884">
<rect width="45" height="45" fill="white" transform="translate(0.830078 0.0200195)"/>
</clipPath>
<clipPath id="clip2_34_884">
<rect width="45" height="45" fill="white" transform="translate(0.830078 0.0200195)"/>
</clipPath>
</defs>
</svg>
