<svg width="61" height="56" viewBox="0 0 61 56" fill="none" xmlns="http://www.w3.org/2000/svg">
<g clip-path="url(#clip0_34_136)">
<g clip-path="url(#clip1_34_136)">
<g clip-path="url(#clip2_34_136)">
<mask id="mask0_34_136" style="mask-type:luminance" maskUnits="userSpaceOnUse" x="1" y="0" width="30" height="56">
<path d="M1.39844 0.5H30.3981V55.5H1.39844V0.5Z" fill="white"/>
</mask>
<g mask="url(#mask0_34_136)">
<path d="M29.3099 6.34432C28.4962 6.34432 27.5929 6.43212 26.7808 6.52138L23.7989 1.20678C23.5281 0.852664 23.0765 0.675606 22.6249 0.852664L14.4952 4.04113C14.0435 4.2182 13.8626 4.66156 13.9523 5.10348L15.6692 10.9492C14.3142 12.013 13.049 13.2524 11.9648 14.5811L6.00362 12.8983C5.55196 12.8091 5.10031 12.9861 4.91936 13.4295L1.57688 21.3121C1.39592 21.7555 1.57688 22.1974 1.93731 22.4638L7.35855 25.4751C7.1776 27.1579 7.1776 28.9299 7.35855 30.6127L1.93731 33.5348C1.57688 33.8012 1.39592 34.2445 1.57688 34.6863L4.91936 42.5691C5.10031 43.0124 5.55196 43.1895 6.00362 43.1017L11.9648 41.5067C13.049 42.8353 14.3142 44.0748 15.6692 45.1385L13.9523 50.9843C13.8626 51.4263 14.0435 51.8696 14.4952 52.0467L22.5351 55.3244C22.6249 55.3244 22.8057 55.4122 22.8955 55.4122C23.1662 55.4122 23.5281 55.2351 23.7092 54.9702L26.7808 49.6556C27.6842 49.7435 28.5875 49.8327 29.3996 49.8327C29.9424 49.8327 30.3029 49.3894 30.3029 48.9474V7.2296C30.2131 6.69843 29.8512 6.34432 29.3099 6.34432ZM28.4065 41.9501C20.9992 41.4174 15.0366 35.3946 15.0366 27.9554C15.0366 20.5146 20.9079 14.4918 28.4065 14.0499V41.9501Z" fill="white"/>
</g>
<mask id="mask1_34_136" style="mask-type:luminance" maskUnits="userSpaceOnUse" x="31" y="19" width="29" height="9">
<path d="M31.9023 19.9966H59.3013V27.3667H31.9023V19.9966Z" fill="white"/>
</mask>
<g mask="url(#mask1_34_136)">
<path d="M55.8686 27.2472C57.7649 27.2472 59.3008 25.7415 59.3008 23.7924C59.3008 21.8434 57.7649 20.3376 55.8686 20.3376C54.1517 20.3376 52.7071 21.5784 52.4349 23.2613H32.0195V25.0318H52.6158C53.1587 26.3605 54.4224 27.2472 55.8686 27.2472Z" fill="white"/>
</g>
<mask id="mask2_34_136" style="mask-type:luminance" maskUnits="userSpaceOnUse" x="31" y="0" width="18" height="13">
<path d="M31.9023 0.5H48.4735V12.9948H31.9023V0.5Z" fill="white"/>
</mask>
<g mask="url(#mask2_34_136)">
<path d="M45.5704 11.9238V7.31748C47.015 6.96336 48.0993 5.63472 48.0993 4.04119C48.0993 2.18138 46.5634 0.586426 44.6672 0.586426C42.7694 0.586426 41.2334 2.18138 41.2334 4.04119C41.2334 5.63472 42.3177 6.96336 43.7639 7.31748V11.0386H32.0195V12.8091H44.6672C45.2085 12.8091 45.5704 12.455 45.5704 11.9238Z" fill="white"/>
</g>
<mask id="mask3_34_136" style="mask-type:luminance" maskUnits="userSpaceOnUse" x="31" y="42" width="18" height="14">
<path d="M31.9023 42.844H48.4735V55.5H31.9023V42.844Z" fill="white"/>
</mask>
<g mask="url(#mask3_34_136)">
<path d="M45.5704 48.5918V43.9869C45.5704 43.5434 45.2085 43.1016 44.6672 43.1016H32.0195V44.8721H43.7639V48.5918C42.3177 49.0351 41.2334 50.3638 41.2334 51.9588C41.2334 53.8185 42.7694 55.4121 44.6672 55.4121C46.5634 55.4121 48.0993 53.9064 48.0993 51.9588C48.0993 50.2745 47.015 48.9473 45.5704 48.5918Z" fill="white"/>
</g>
<path d="M48.732 18.6549L53.1587 13.3403C53.5192 13.5188 53.9708 13.6066 54.4224 13.6066C56.3203 13.6066 57.8562 12.1009 57.8562 10.1518C57.8562 8.20418 56.3203 6.69849 54.4224 6.69849C52.526 6.69849 50.9901 8.29199 50.9901 10.1518C50.9901 10.9493 51.2609 11.6575 51.7125 12.2779L47.5566 17.2384H32.0195V19.009H48.0082C48.2804 19.009 48.551 18.8319 48.732 18.6549Z" fill="white"/>
<path d="M54.4224 42.3922C53.9708 42.3922 53.5192 42.4814 53.1587 42.6585L48.732 37.3438C48.551 37.1668 48.2804 36.9897 48.0082 36.9897H32.0195V38.7617H47.5566L51.6228 43.7208C51.1712 44.3412 50.899 45.0494 50.899 45.8469C50.899 47.7067 52.4349 49.3017 54.3327 49.3017C56.229 49.3017 57.7649 47.796 57.7649 45.8469C57.8562 43.8979 56.3203 42.3922 54.4224 42.3922Z" fill="white"/>
<mask id="mask4_34_136" style="mask-type:luminance" maskUnits="userSpaceOnUse" x="31" y="28" width="29" height="8">
<path d="M31.9023 28.4722H59.3013V35.8423H31.9023V28.4722Z" fill="white"/>
</mask>
<g mask="url(#mask4_34_136)">
<path d="M55.8686 28.6638C54.4224 28.6638 53.1587 29.549 52.7071 30.79H32.0195V32.5605H52.4349C52.7071 34.2446 54.1517 35.4841 55.8686 35.4841C57.7649 35.4841 59.3008 33.9784 59.3008 32.0293C59.3008 30.0817 57.7649 28.6638 55.8686 28.6638Z" fill="white"/>
</g>
</g>
</g>
</g>
<defs>
<clipPath id="clip0_34_136">
<rect width="59.7" height="55" fill="white" transform="translate(0.5 0.5)"/>
</clipPath>
<clipPath id="clip1_34_136">
<rect width="59.7" height="55" fill="white" transform="translate(0.5 0.5)"/>
</clipPath>
<clipPath id="clip2_34_136">
<rect width="59.7143" height="55" fill="white" transform="translate(0.492188 0.5)"/>
</clipPath>
</defs>
</svg>
