<svg width="62" height="56" viewBox="0 0 62 56" fill="none" xmlns="http://www.w3.org/2000/svg">
<g clip-path="url(#clip0_1_812)">
<g clip-path="url(#clip1_1_812)">
<mask id="mask0_1_812" style="mask-type:luminance" maskUnits="userSpaceOnUse" x="1" y="1" width="61" height="55">
<path d="M1.23828 1.875H61.4695V55.3472H1.23828V1.875Z" fill="white"/>
</mask>
<g mask="url(#mask0_1_812)">
<path d="M57.9882 37.7898H4.71958V5.22018H57.9882V37.7898ZM37.2086 43.1562H25.4991C24.8732 43.1562 24.3652 42.6606 24.3652 42.0468C24.3652 41.4343 24.8732 40.9358 25.4991 40.9358H37.2086C37.8361 40.9358 38.3427 41.4343 38.3427 42.0468C38.3427 42.6606 37.8361 43.1562 37.2086 43.1562ZM59.445 1.89014H3.26277C2.19159 1.89014 1.31934 2.7451 1.31934 3.79473V44.3975C1.31934 45.4487 2.19159 46.3036 3.26277 46.3036H29.464V51.4169H26.2994C26.2121 51.4169 26.1264 51.4424 26.0546 51.4933L21.5127 54.6062C21.17 54.8413 21.3399 55.3713 21.7591 55.3713H40.9486C41.368 55.3713 41.5379 54.8413 41.195 54.6062L36.6533 51.4933C36.5813 51.4424 36.4956 51.4169 36.4084 51.4169H33.2437V46.3036H59.445C60.5162 46.3036 61.3884 45.4487 61.3884 44.3975V3.79473C61.3884 2.7451 60.5162 1.89014 59.445 1.89014Z" fill="#0575AD"/>
</g>
<path d="M17.5014 13.6916C19.9024 13.6916 21.8549 15.6052 21.8549 17.9561C21.8549 20.3082 19.9024 22.2219 17.5014 22.2219C15.1019 22.2219 13.1493 20.3082 13.1493 17.9561C13.1493 15.6052 15.1019 13.6916 17.5014 13.6916ZM11.1737 21.59L9.80565 23.3418L12.0062 25.4966L13.7935 24.1564C14.3674 24.4888 14.9902 24.7449 15.6513 24.914L15.9481 27.0957H19.0562L19.353 24.914C20.0141 24.7449 20.6368 24.4888 21.2108 24.1564L22.9981 25.4966L25.1971 23.3418L23.8305 21.59C24.1703 21.027 24.432 20.4176 24.6049 19.7708L26.8313 19.4803V16.4332L24.6049 16.1443C24.432 15.4974 24.1703 14.8865 23.8305 14.3235L25.1971 12.5731L22.9981 10.4185L21.2108 11.7571C20.6368 11.4247 20.0141 11.1686 19.353 10.9995L19.0562 8.81787H15.9481L15.6513 10.9995C14.9902 11.1686 14.3674 11.4247 13.7935 11.7571L12.0062 10.4185L9.80565 12.5731L11.1737 14.3235C10.834 14.8865 10.5723 15.4974 10.3994 16.1443L8.17285 16.4332V19.4803L10.3994 19.7708C10.5723 20.4176 10.834 21.027 11.1737 21.59Z" fill="#0575AD"/>
<path d="M48.2715 23.9659L52.1629 27.7797L49.1666 30.7144L49.7404 32.4767L54.5348 27.7797L49.4573 22.8071L48.2715 23.9659Z" fill="#0575AD"/>
<path d="M43.0734 24.8453L42.5011 23.083L37.7051 27.7802L42.7826 32.7541L43.967 31.5907L40.0771 27.7802L43.0734 24.8453Z" fill="#0575AD"/>
<path d="M43.3086 21.3997L47.5842 34.5806L48.9339 34.1598L44.6584 20.9805L43.3086 21.3997Z" fill="#0575AD"/>
<path d="M54.5352 8.0332H29.3057V9.99469H54.5352V8.0332Z" fill="#0575AD"/>
<path d="M33.4023 29.2192H8.17285V31.1806H33.4023V29.2192Z" fill="#0575AD"/>
<path d="M18.584 34.711H33.4016V32.7495H18.584V34.711Z" fill="#0575AD"/>
<path d="M35.3115 13.9175H54.5348V11.9561H35.3115V13.9175Z" fill="#0575AD"/>
<path d="M38.1143 17.8424H54.534V15.8809H38.1143V17.8424Z" fill="#0575AD"/>
</g>
</g>
<defs>
<clipPath id="clip0_1_812">
<rect width="61.11" height="55" fill="white" transform="translate(0.800781 0.5)"/>
</clipPath>
<clipPath id="clip1_1_812">
<rect width="61.1111" height="55" fill="white" transform="translate(0.799805 0.5)"/>
</clipPath>
</defs>
</svg>
