<svg width="62" height="56" viewBox="0 0 62 56" fill="none" xmlns="http://www.w3.org/2000/svg">
<g clip-path="url(#clip0_34_208)">
<g clip-path="url(#clip1_34_208)">
<g clip-path="url(#clip2_34_208)">
<mask id="mask0_34_208" style="mask-type:luminance" maskUnits="userSpaceOnUse" x="1" y="1" width="61" height="55">
<path d="M1.23828 1.875H61.4695V55.3472H1.23828V1.875Z" fill="white"/>
</mask>
<g mask="url(#mask0_34_208)">
<path d="M57.9872 37.7898H4.71861V5.22018H57.9872V37.7898ZM37.2076 43.1562H25.4981C24.8722 43.1562 24.3642 42.6606 24.3642 42.0468C24.3642 41.4343 24.8722 40.9358 25.4981 40.9358H37.2076C37.8351 40.9358 38.3417 41.4343 38.3417 42.0468C38.3417 42.6606 37.8351 43.1562 37.2076 43.1562ZM59.444 1.89014H3.26179C2.19061 1.89014 1.31836 2.7451 1.31836 3.79473V44.3975C1.31836 45.4487 2.19061 46.3036 3.26179 46.3036H29.463V51.4169H26.2984C26.2111 51.4169 26.1254 51.4424 26.0536 51.4933L21.5117 54.6062C21.169 54.8413 21.3389 55.3713 21.7581 55.3713H40.9476C41.367 55.3713 41.5369 54.8413 41.1941 54.6062L36.6523 51.4933C36.5803 51.4424 36.4946 51.4169 36.4074 51.4169H33.2427V46.3036H59.444C60.5153 46.3036 61.3875 45.4487 61.3875 44.3975V3.79473C61.3875 2.7451 60.5153 1.89014 59.444 1.89014Z" fill="white"/>
</g>
<path d="M17.5004 13.6916C19.9014 13.6916 21.8539 15.6052 21.8539 17.9561C21.8539 20.3082 19.9014 22.2219 17.5004 22.2219C15.1009 22.2219 13.1483 20.3082 13.1483 17.9561C13.1483 15.6052 15.1009 13.6916 17.5004 13.6916ZM11.1727 21.59L9.80467 23.3418L12.0052 25.4966L13.7925 24.1564C14.3664 24.4888 14.9892 24.7449 15.6503 24.914L15.9472 27.0957H19.0552L19.352 24.914C20.0131 24.7449 20.6358 24.4888 21.2098 24.1564L22.9972 25.4966L25.1961 23.3418L23.8295 21.59C24.1693 21.027 24.431 20.4176 24.6039 19.7708L26.8304 19.4803V16.4332L24.6039 16.1443C24.431 15.4974 24.1693 14.8865 23.8295 14.3235L25.1961 12.5731L22.9972 10.4185L21.2098 11.7571C20.6358 11.4247 20.0131 11.1686 19.352 10.9995L19.0552 8.81787H15.9472L15.6503 10.9995C14.9892 11.1686 14.3664 11.4247 13.7925 11.7571L12.0052 10.4185L9.80467 12.5731L11.1727 14.3235C10.833 14.8865 10.5713 15.4974 10.3984 16.1443L8.17188 16.4332V19.4803L10.3984 19.7708C10.5713 20.4176 10.833 21.027 11.1727 21.59Z" fill="white"/>
<path d="M48.2695 23.9659L52.1609 27.7797L49.1647 30.7144L49.7385 32.4767L54.5328 27.7797L49.4554 22.8071L48.2695 23.9659Z" fill="white"/>
<path d="M43.0734 24.8453L42.5011 23.083L37.7051 27.7802L42.7826 32.7541L43.967 31.5907L40.0771 27.7802L43.0734 24.8453Z" fill="white"/>
<path d="M43.3086 21.3997L47.5842 34.5806L48.9339 34.1598L44.6584 20.9805L43.3086 21.3997Z" fill="white"/>
<path d="M54.5343 8.0332H29.3047V9.99469H54.5343V8.0332Z" fill="white"/>
<path d="M33.4013 29.2192H8.17188V31.1806H33.4013V29.2192Z" fill="white"/>
<path d="M18.584 34.711H33.4016V32.7495H18.584V34.711Z" fill="white"/>
<path d="M35.3105 13.9175H54.5338V11.9561H35.3105V13.9175Z" fill="white"/>
<path d="M38.1133 17.8424H54.5331V15.8809H38.1133V17.8424Z" fill="white"/>
</g>
</g>
</g>
<defs>
<clipPath id="clip0_34_208">
<rect width="61.11" height="55" fill="white" transform="translate(0.798828 0.5)"/>
</clipPath>
<clipPath id="clip1_34_208">
<rect width="61.11" height="55" fill="white" transform="translate(0.798828 0.5)"/>
</clipPath>
<clipPath id="clip2_34_208">
<rect width="61.1111" height="55" fill="white" transform="translate(0.798828 0.5)"/>
</clipPath>
</defs>
</svg>
