<svg width="77" height="56" viewBox="0 0 77 56" fill="none" xmlns="http://www.w3.org/2000/svg">
<g clip-path="url(#clip0_34_111)">
<g clip-path="url(#clip1_34_111)">
<g clip-path="url(#clip2_34_111)">
<mask id="mask0_34_111" style="mask-type:luminance" maskUnits="userSpaceOnUse" x="0" y="0" width="76" height="56">
<path d="M0.96875 0.5H75.7338V55.5H0.96875V0.5Z" fill="white"/>
</mask>
<g mask="url(#mask0_34_111)">
<path d="M71.9891 51.7468V19.6496C71.9891 17.8211 70.4656 16.3262 68.6009 16.3262H57.523V51.7468H56.0392V3.79565C56.0392 1.96843 54.5129 0.472168 52.6541 0.472168H24.0443C22.1841 0.472168 20.6592 1.96843 20.6592 3.79565V51.7482H19.1754V16.3262H8.09594C6.23136 16.3262 4.70927 17.8211 4.70927 19.6496V51.7468H0.96875V55.5278H75.7296V51.7468H71.9891ZM61.9868 25.7681C61.9868 25.4789 62.2285 25.2424 62.5226 25.2424H66.9923C67.2864 25.2424 67.5265 25.4789 67.5265 25.7681V32.8142C67.5265 33.1034 67.2864 33.3399 66.9923 33.3399H62.5226C62.2285 33.3399 61.9868 33.1034 61.9868 32.8142V25.7681ZM61.9868 39.2399C61.9868 38.9522 62.2285 38.7157 62.5226 38.7157H66.9923C67.2864 38.7157 67.5265 38.9522 67.5265 39.2399V46.2875C67.5265 46.5766 67.2864 46.8103 66.9923 46.8103H62.5226C62.2285 46.8103 61.9868 46.5766 61.9868 46.2875V39.2399ZM9.17177 25.7681C9.17177 25.4789 9.41194 25.2424 9.70613 25.2424H14.1757C14.4699 25.2424 14.7101 25.4789 14.7101 25.7681V32.8142C14.7101 33.1034 14.4699 33.3399 14.1757 33.3399H9.70613C9.41194 33.3399 9.17177 33.1034 9.17177 32.8142V25.7681ZM9.17177 39.2399C9.17177 38.9522 9.41194 38.7157 9.70613 38.7157H14.1757C14.4699 38.7157 14.7101 38.9522 14.7101 39.2399V46.2875C14.7101 46.5766 14.4699 46.8103 14.1757 46.8103H9.70613C9.41194 46.8103 9.17177 46.5766 9.17177 46.2875V39.2399ZM31.1488 46.2875C31.1488 46.5766 30.9072 46.8103 30.6131 46.8103H26.1449C25.8493 46.8103 25.609 46.5766 25.609 46.2875V39.2399C25.609 38.9522 25.8493 38.7157 26.1449 38.7157H30.6131C30.9072 38.7157 31.1488 38.9522 31.1488 39.2399V46.2875ZM31.1488 32.8142C31.1488 33.1034 30.9072 33.3399 30.6131 33.3399H26.1449C25.8493 33.3399 25.609 33.1034 25.609 32.8142V25.7681C25.609 25.4789 25.8493 25.2424 26.1449 25.2424H30.6131C30.9072 25.2424 31.1488 25.4789 31.1488 25.7681V32.8142ZM41.9981 51.7468H34.6989V39.4082C34.6989 39.0259 35.0143 38.7157 35.4053 38.7157H41.2931C41.6825 38.7157 41.9981 39.0259 41.9981 39.4082V51.7468ZM35.5786 32.8142V25.7681C35.5786 25.4789 35.8187 25.2424 36.1129 25.2424H40.5839C40.8795 25.2424 41.1198 25.4789 41.1198 25.7681V32.8142C41.1198 33.1034 40.8795 33.3399 40.5839 33.3399H36.1129C35.8187 33.3399 35.5786 33.1034 35.5786 32.8142ZM42.3292 15.1441C41.7991 15.1441 41.3698 15.5682 41.3698 16.0828V19.0642C41.3698 19.5828 40.9378 20.0069 40.4092 20.0069H36.2878C35.7604 20.0069 35.3284 19.5828 35.3284 19.0642V16.0828C35.3284 15.5682 34.8979 15.1441 34.3678 15.1441H31.2753C30.7438 15.1441 30.3145 14.72 30.3145 14.2013V10.3884C30.3145 9.87106 30.7438 9.44832 31.2753 9.44832H34.3678C34.8979 9.44832 35.3284 9.02281 35.3284 8.50691V5.55472C35.3284 5.03742 35.7604 4.61331 36.2878 4.61331H40.4092C40.9378 4.61331 41.3698 5.03742 41.3698 5.55472V8.50691C41.3698 9.0256 41.7991 9.44832 42.3292 9.44832H45.423C45.9532 9.44832 46.3838 9.87106 46.3838 10.3884V14.2013C46.3838 14.72 45.9532 15.1441 45.423 15.1441H42.3292ZM51.0878 46.2875C51.0878 46.5766 50.8477 46.8103 50.5535 46.8103H46.0839C45.7898 46.8103 45.5495 46.5766 45.5495 46.2875V39.2399C45.5495 38.9522 45.7898 38.7157 46.0839 38.7157H50.5535C50.8477 38.7157 51.0878 38.9522 51.0878 39.2399V46.2875ZM51.0878 32.8142C51.0878 33.1034 50.8477 33.3399 50.5535 33.3399H46.0839C45.7898 33.3399 45.5495 33.1034 45.5495 32.8142V25.7681C45.5495 25.4789 45.7898 25.2424 46.0839 25.2424H50.5535C50.8477 25.2424 51.0878 25.4789 51.0878 25.7681V32.8142Z" fill="white"/>
</g>
</g>
</g>
</g>
<defs>
<clipPath id="clip0_34_111">
<rect width="75.42" height="55" fill="white" transform="translate(0.640625 0.5)"/>
</clipPath>
<clipPath id="clip1_34_111">
<rect width="75.42" height="55" fill="white" transform="translate(0.640625 0.5)"/>
</clipPath>
<clipPath id="clip2_34_111">
<rect width="75.4286" height="55" fill="white" transform="translate(0.636719 0.5)"/>
</clipPath>
</defs>
</svg>
