<svg width="56" height="56" viewBox="0 0 56 56" fill="none" xmlns="http://www.w3.org/2000/svg">
<g clip-path="url(#clip0_1_697)">
<g clip-path="url(#clip1_1_697)">
<g clip-path="url(#clip2_1_697)">
<mask id="mask0_1_697" style="mask-type:luminance" maskUnits="userSpaceOnUse" x="0" y="0" width="41" height="35">
<path d="M0.841797 0.5H40.4187V34.0953H0.841797V0.5Z" fill="white"/>
</mask>
<g mask="url(#mask0_1_697)">
<path d="M38.183 10.7561H28.2888V2.37051C28.2888 1.35186 27.3158 0.525879 26.1123 0.525879H15.0874C13.8856 0.525879 12.9125 1.35186 12.9125 2.37051V10.7561H3.01828C1.81485 10.7561 0.841797 11.5809 0.841797 12.6008V21.9447C0.841797 22.9634 1.81485 23.7894 3.01828 23.7894H12.9125V32.1737C12.9125 33.1937 13.8856 34.0183 15.0874 34.0183H26.1123C27.3158 34.0183 28.2888 33.1937 28.2888 32.1737V23.7894H38.183C39.3849 23.7894 40.3595 22.9634 40.3595 21.9447V12.6008C40.3595 11.5809 39.3849 10.7561 38.183 10.7561Z" fill="#0575AD"/>
</g>
<mask id="mask1_1_697" style="mask-type:luminance" maskUnits="userSpaceOnUse" x="17" y="25" width="39" height="31">
<path d="M17.1367 25.2163H55.8405V55.4999H17.1367V25.2163Z" fill="white"/>
</mask>
<g mask="url(#mask1_1_697)">
<path d="M37.1385 44.8546V49.5265C37.1385 50.0365 36.652 50.4488 36.0503 50.4488H31.097V54.6469C31.097 55.1568 30.6106 55.5692 30.0088 55.5692H24.4964C23.8947 55.5692 23.4081 55.1568 23.4081 54.6469V50.4488H18.4535C17.8533 50.4488 17.3652 50.0365 17.3652 49.5265V44.8546C17.3652 44.3446 17.8533 43.9323 18.4535 43.9323H23.4081V39.7343C23.4081 39.2244 23.8947 38.8119 24.4964 38.8119H30.0088C30.6106 38.8119 31.097 39.2244 31.097 39.7343V43.9323H36.0503C36.6383 43.9323 37.1385 44.3446 37.1385 44.8546ZM54.9505 29.6864H50.8976V26.2515C50.8976 25.8391 50.4975 25.5 50.0109 25.5H45.5004C45.0138 25.5 44.6121 25.8391 44.6121 26.2515V29.6864H40.5608C40.0743 29.6864 39.6726 30.0256 39.6726 30.4379V34.2607C39.6726 34.6731 40.0743 35.0135 40.5608 35.0135H44.6121V38.4472C44.6121 38.8595 45.0138 39.1999 45.5004 39.1999H50.0109C50.4975 39.1999 50.8976 38.8595 50.8976 38.4472V35.0135H54.9505C55.437 35.0135 55.8387 34.6731 55.8387 34.2607V30.4379C55.8523 30.0256 55.4506 29.6864 54.9505 29.6864Z" fill="#0575AD"/>
</g>
</g>
</g>
</g>
<defs>
<clipPath id="clip0_1_697">
<rect width="55" height="55" fill="white" transform="translate(0.839844 0.5)"/>
</clipPath>
<clipPath id="clip1_1_697">
<rect width="55" height="55" fill="white" transform="translate(0.839844 0.5)"/>
</clipPath>
<clipPath id="clip2_1_697">
<rect width="55" height="55" fill="white" transform="translate(0.839844 0.5)"/>
</clipPath>
</defs>
</svg>
