<svg width="77" height="56" viewBox="0 0 77 56" fill="none" xmlns="http://www.w3.org/2000/svg">
<g clip-path="url(#clip0_1_714)">
<g clip-path="url(#clip1_1_714)">
<g clip-path="url(#clip2_1_714)">
<mask id="mask0_1_714" style="mask-type:luminance" maskUnits="userSpaceOnUse" x="0" y="0" width="76" height="56">
<path d="M0.966797 0.5H75.7319V55.5H0.966797V0.5Z" fill="white"/>
</mask>
<g mask="url(#mask0_1_714)">
<path d="M71.9871 51.7468V19.6496C71.9871 17.8211 70.4636 16.3262 68.599 16.3262H57.521V51.7468H56.0373V3.79565C56.0373 1.96843 54.511 0.472168 52.6521 0.472168H24.0424C22.1821 0.472168 20.6572 1.96843 20.6572 3.79565V51.7482H19.1735V16.3262H8.09398C6.2294 16.3262 4.70732 17.8211 4.70732 19.6496V51.7468H0.966797V55.5278H75.7276V51.7468H71.9871ZM61.9848 25.7681C61.9848 25.4789 62.2265 25.2424 62.5207 25.2424H66.9903C67.2845 25.2424 67.5246 25.4789 67.5246 25.7681V32.8142C67.5246 33.1034 67.2845 33.3399 66.9903 33.3399H62.5207C62.2265 33.3399 61.9848 33.1034 61.9848 32.8142V25.7681ZM61.9848 39.2399C61.9848 38.9522 62.2265 38.7157 62.5207 38.7157H66.9903C67.2845 38.7157 67.5246 38.9522 67.5246 39.2399V46.2875C67.5246 46.5766 67.2845 46.8103 66.9903 46.8103H62.5207C62.2265 46.8103 61.9848 46.5766 61.9848 46.2875V39.2399ZM9.16981 25.7681C9.16981 25.4789 9.40999 25.2424 9.70418 25.2424H14.1738C14.4679 25.2424 14.7081 25.4789 14.7081 25.7681V32.8142C14.7081 33.1034 14.4679 33.3399 14.1738 33.3399H9.70418C9.40999 33.3399 9.16981 33.1034 9.16981 32.8142V25.7681ZM9.16981 39.2399C9.16981 38.9522 9.40999 38.7157 9.70418 38.7157H14.1738C14.4679 38.7157 14.7081 38.9522 14.7081 39.2399V46.2875C14.7081 46.5766 14.4679 46.8103 14.1738 46.8103H9.70418C9.40999 46.8103 9.16981 46.5766 9.16981 46.2875V39.2399ZM31.1468 46.2875C31.1468 46.5766 30.9053 46.8103 30.6111 46.8103H26.1429C25.8473 46.8103 25.6071 46.5766 25.6071 46.2875V39.2399C25.6071 38.9522 25.8473 38.7157 26.1429 38.7157H30.6111C30.9053 38.7157 31.1468 38.9522 31.1468 39.2399V46.2875ZM31.1468 32.8142C31.1468 33.1034 30.9053 33.3399 30.6111 33.3399H26.1429C25.8473 33.3399 25.6071 33.1034 25.6071 32.8142V25.7681C25.6071 25.4789 25.8473 25.2424 26.1429 25.2424H30.6111C30.9053 25.2424 31.1468 25.4789 31.1468 25.7681V32.8142ZM41.9961 51.7468H34.697V39.4082C34.697 39.0259 35.0124 38.7157 35.4033 38.7157H41.2912C41.6806 38.7157 41.9961 39.0259 41.9961 39.4082V51.7468ZM35.5767 32.8142V25.7681C35.5767 25.4789 35.8168 25.2424 36.111 25.2424H40.582C40.8776 25.2424 41.1178 25.4789 41.1178 25.7681V32.8142C41.1178 33.1034 40.8776 33.3399 40.582 33.3399H36.111C35.8168 33.3399 35.5767 33.1034 35.5767 32.8142ZM42.3272 15.1441C41.7972 15.1441 41.3679 15.5682 41.3679 16.0828V19.0642C41.3679 19.5828 40.9359 20.0069 40.4072 20.0069H36.2859C35.7585 20.0069 35.3265 19.5828 35.3265 19.0642V16.0828C35.3265 15.5682 34.8959 15.1441 34.3659 15.1441H31.2733C30.7419 15.1441 30.3125 14.72 30.3125 14.2013V10.3884C30.3125 9.87106 30.7419 9.44832 31.2733 9.44832H34.3659C34.8959 9.44832 35.3265 9.02281 35.3265 8.50691V5.55472C35.3265 5.03742 35.7585 4.61331 36.2859 4.61331H40.4072C40.9359 4.61331 41.3679 5.03742 41.3679 5.55472V8.50691C41.3679 9.0256 41.7972 9.44832 42.3272 9.44832H45.421C45.9512 9.44832 46.3818 9.87106 46.3818 10.3884V14.2013C46.3818 14.72 45.9512 15.1441 45.421 15.1441H42.3272ZM51.0859 46.2875C51.0859 46.5766 50.8458 46.8103 50.5516 46.8103H46.082C45.7878 46.8103 45.5475 46.5766 45.5475 46.2875V39.2399C45.5475 38.9522 45.7878 38.7157 46.082 38.7157H50.5516C50.8458 38.7157 51.0859 38.9522 51.0859 39.2399V46.2875ZM51.0859 32.8142C51.0859 33.1034 50.8458 33.3399 50.5516 33.3399H46.082C45.7878 33.3399 45.5475 33.1034 45.5475 32.8142V25.7681C45.5475 25.4789 45.7878 25.2424 46.082 25.2424H50.5516C50.8458 25.2424 51.0859 25.4789 51.0859 25.7681V32.8142Z" fill="#0575AD"/>
</g>
</g>
</g>
</g>
<defs>
<clipPath id="clip0_1_714">
<rect width="75.42" height="55" fill="white" transform="translate(0.639648 0.5)"/>
</clipPath>
<clipPath id="clip1_1_714">
<rect width="75.42" height="55" fill="white" transform="translate(0.639648 0.5)"/>
</clipPath>
<clipPath id="clip2_1_714">
<rect width="75.4286" height="55" fill="white" transform="translate(0.635742 0.5)"/>
</clipPath>
</defs>
</svg>
