<svg width="60" height="46" viewBox="0 0 60 46" fill="none" xmlns="http://www.w3.org/2000/svg">
<g clip-path="url(#clip0_34_902)">
<g clip-path="url(#clip1_34_902)">
<g clip-path="url(#clip2_34_902)">
<mask id="mask0_34_902" style="mask-type:luminance" maskUnits="userSpaceOnUse" x="0" y="0" width="60" height="46">
<path d="M0.57959 0.0200195H59.3816V45.02H0.57959V0.0200195Z" fill="white"/>
</mask>
<g mask="url(#mask0_34_902)">
<path fill-rule="evenodd" clip-rule="evenodd" d="M15.8438 28.6166H20.9934C21.4407 28.6166 21.8019 28.9756 21.8019 29.4181V44.2194C21.8019 44.6619 21.4407 45.02 20.9934 45.02H15.8438C15.3984 45.02 15.0363 44.6619 15.0363 44.2194V29.4181C15.0363 28.9756 15.3984 28.6166 15.8438 28.6166ZM31.0941 16.9662C32.2203 16.8491 33.0345 18.3369 33.1612 19.5359C33.181 19.7834 33.2009 20.0309 33.2207 20.2784L33.2084 20.7125C33.2519 21.2844 33.1262 22.6981 33.1063 23.7481C33.0865 24.7981 32.9408 26.2072 33.0884 27.0106L33.1375 27.3097H41.3187C41.3187 27.3097 41.3187 27.3144 41.3187 27.3172L41.4237 27.3097C43.3564 27.3097 44.9242 28.4309 44.9242 29.8147C44.9242 30.6791 44.3115 31.4412 43.381 31.8913L42.878 32.0862L42.9858 32.1106C44.1025 32.4603 44.8864 33.2769 44.8864 34.2294C44.8864 35.1809 44.1025 35.9984 42.9858 36.3472L42.652 36.4231L42.8269 36.4897C43.6552 36.8787 44.1999 37.5387 44.1999 38.2869C44.1999 39.185 43.416 39.9556 42.2983 40.2847L41.9173 40.3672L42.0487 40.4169C42.877 40.8059 43.4217 41.4659 43.4217 42.2141C43.4217 43.4113 42.0279 44.3816 40.3079 44.3816L39.9486 44.3572C39.9486 44.3656 39.9486 44.3731 39.9486 44.3816H26.9449C24.9942 44.3816 23.4141 42.8169 23.4141 40.8856V30.8066C23.4141 30.5647 23.4255 30.47 23.4718 30.2431L23.5626 29.8578L23.6061 29.6187C24.0127 27.8262 25.2136 26.1134 25.9142 25.0484L27.1993 22.5172C27.6541 21.4306 27.9434 20.7481 28.0285 20.3928C28.0248 20.3506 28.8966 18.4597 28.8909 18.4166C29.4242 17.4959 30.2081 17.0581 31.0941 16.9662ZM6.26029 12.4138L6.28298 12.4156L6.30662 12.4138L6.34823 12.4231L6.46643 12.4362L6.55153 12.4719L6.58557 12.4794L6.60826 12.4953L6.65743 12.5159L6.7709 12.6069L6.79265 12.6228L6.79833 12.6294L6.82102 12.6481C6.8683 12.6997 6.90801 12.7597 6.94111 12.8272L8.11552 15.3312C8.16658 15.4409 8.24412 15.5337 8.33773 15.6031L8.44269 15.6622L8.48903 15.6884C8.54387 15.7109 8.6025 15.7278 8.66207 15.7362L11.3702 16.1338C11.7655 16.1909 12.0388 16.5547 11.9792 16.9466C11.9565 17.0966 11.8865 17.2353 11.7797 17.3441L11.3097 17.8175V17.8194L9.7684 19.37C9.60576 19.5331 9.53389 19.7637 9.57172 19.9897L10.0483 22.82C10.0625 22.9006 10.0625 22.9822 10.0483 23.0609L10.0398 23.0853L10.0388 23.1041L10.0105 23.1659L9.96697 23.2878L9.93955 23.3187L9.92442 23.3544L9.84783 23.4256L9.77974 23.5034L9.7476 23.5203L9.72301 23.5428L9.63696 23.5756L9.53389 23.6272L9.48945 23.6309L9.45446 23.6441H9.33438L9.25778 23.6506L9.23604 23.6441H9.2124C9.13297 23.63 9.05543 23.6028 8.98262 23.5634L6.63474 22.265C6.5799 22.235 6.52316 22.2125 6.46359 22.1966L6.28298 22.1741L6.10332 22.1966C6.04375 22.2125 5.98607 22.235 5.93217 22.265L3.5824 23.5634C3.51148 23.6028 3.43395 23.63 3.35452 23.6441H3.33088L3.30913 23.6506L3.23348 23.6441H3.1115L3.07746 23.6309L3.03396 23.6272L2.92995 23.5756L2.8439 23.5428L2.82026 23.5203L2.78622 23.5034L2.71909 23.4256L2.64249 23.3544L2.62547 23.3187L2.599 23.2878L2.5555 23.1659L2.52808 23.1041L2.52713 23.0853L2.51862 23.0609C2.50444 22.9822 2.50444 22.9006 2.51862 22.82L2.9952 19.9897C3.03396 19.7637 2.96021 19.5331 2.79851 19.37L1.58155 18.1466L1.5825 18.1447L0.787262 17.3441C0.680411 17.2353 0.609492 17.0966 0.587744 16.9466C0.528172 16.5547 0.801445 16.1909 1.1967 16.1338L3.90485 15.7362C3.96442 15.7278 4.02304 15.7109 4.07789 15.6884L4.12327 15.6622L4.22823 15.6031C4.32279 15.5337 4.40033 15.4409 4.45139 15.3312L5.6258 12.8272C5.65701 12.7597 5.69861 12.6997 5.74684 12.6481L5.76953 12.6294L5.77331 12.6228L5.79601 12.6069L5.90948 12.5159L5.95865 12.4953L5.9804 12.4794L6.01538 12.4719L6.10049 12.4362L6.21868 12.4231L6.26029 12.4138ZM53.6538 12.4138L53.6775 12.4156L53.7001 12.4138L53.7418 12.4231L53.86 12.4362L53.9451 12.4719L53.98 12.4794L54.0018 12.4953L54.0529 12.5159L54.1644 12.6069L54.1871 12.6228L54.1909 12.6294L54.2136 12.6481C54.2618 12.6997 54.3034 12.7597 54.3346 12.8272L55.509 15.3312C55.5601 15.4409 55.6376 15.5337 55.7322 15.6031L55.8372 15.6622L55.8826 15.6884C55.9374 15.7109 55.996 15.7278 56.0556 15.7362L58.7637 16.1338C59.159 16.1909 59.4313 16.5547 59.3727 16.9466C59.3509 17.0966 59.28 17.2353 59.1732 17.3441L58.7032 17.8175L58.7042 17.8194L57.1619 19.37C57.0002 19.5331 56.9265 19.7637 56.9652 19.9897L57.4418 22.82C57.456 22.9006 57.456 22.9822 57.4418 23.0609L57.4333 23.0853V23.1041L57.4049 23.1659L57.3614 23.2878L57.334 23.3187L57.3179 23.3544L57.2414 23.4256L57.1742 23.5034L57.1402 23.5203L57.1165 23.5428L57.0305 23.5756L56.9265 23.6272L56.883 23.6309L56.8489 23.6441H56.727L56.6513 23.6506L56.6296 23.6441H56.6059C56.5265 23.63 56.449 23.6028 56.378 23.5634L54.0283 22.265C53.9744 22.235 53.9167 22.2125 53.8571 22.1966L53.6775 22.1741L53.4968 22.1966C53.4373 22.2125 53.3805 22.235 53.3248 22.265L50.9778 23.5634C50.905 23.6028 50.8275 23.63 50.748 23.6441H50.7244L50.7027 23.6506L50.6261 23.6441H50.506L50.471 23.6309L50.4265 23.6272L50.3235 23.5756L50.2374 23.5428L50.2128 23.5203L50.1807 23.5034L50.1126 23.4256L50.036 23.3544L50.0209 23.3187L49.9935 23.2878L49.95 23.1659L49.9216 23.1041L49.9207 23.0853L49.9121 23.0609C49.898 22.9822 49.898 22.9006 49.9121 22.82L50.3887 19.9897C50.4265 19.7637 50.3547 19.5331 50.192 19.37L48.9751 18.1466L48.976 18.1447L48.1808 17.3441C48.073 17.2353 48.004 17.0966 47.9813 16.9466C47.9217 16.5547 48.195 16.1909 48.5902 16.1338L51.2984 15.7362C51.3579 15.7278 51.4166 15.7109 51.4714 15.6884L51.5177 15.6622L51.6227 15.6031C51.7163 15.5337 51.7939 15.4409 51.8449 15.3312L53.0193 12.8272C53.0524 12.7597 53.0921 12.6997 53.1394 12.6481L53.1621 12.6294L53.1678 12.6228L53.1895 12.6069L53.303 12.5159L53.3522 12.4953L53.3749 12.4794L53.4089 12.4719L53.494 12.4362L53.6122 12.4231L53.6538 12.4138ZM42.9621 3.87408L42.9858 3.87689L43.0103 3.87408L43.051 3.88346L43.1702 3.89658L43.2534 3.93221L43.2883 3.93971L43.311 3.95564L43.3612 3.97627L43.4727 4.06814L43.4954 4.08315L43.4992 4.08971L43.5219 4.10846C43.5701 4.16096 43.6117 4.22096 43.6429 4.28752L44.8174 6.79158C44.8684 6.90127 44.946 6.99408 45.0405 7.06346L45.1455 7.12346L45.1909 7.14971C45.2457 7.17221 45.3043 7.18814 45.3648 7.19658L48.072 7.59408C48.4673 7.65221 48.7396 8.01596 48.6819 8.4069C48.6593 8.55689 48.5883 8.69658 48.4815 8.8044L48.0115 9.27783L48.0125 9.28064L46.4712 10.8303C46.3085 10.9934 46.2348 11.2241 46.2736 11.4509L46.752 14.2803C46.7643 14.3609 46.7643 14.4425 46.7501 14.5212L46.7416 14.5456V14.5653L46.7132 14.6262L46.6698 14.7491L46.6423 14.78L46.6272 14.8147L46.5506 14.8859L46.4825 14.9647L46.4485 14.9806L46.4248 15.0031L46.3397 15.0359L46.2348 15.0884L46.1922 15.0912L46.1572 15.1053L46.0353 15.1044L45.9596 15.1109L45.9379 15.1044H45.9142C45.8348 15.0903 45.7582 15.0641 45.6863 15.0237L43.3385 13.7253C43.2827 13.6953 43.225 13.6728 43.1654 13.6578L42.9858 13.6353L42.8042 13.6578C42.7465 13.6728 42.6889 13.6953 42.6331 13.7253L40.2852 15.0237C40.2133 15.0641 40.1367 15.0903 40.0564 15.1044H40.0337L40.0129 15.1109L39.9344 15.1044L39.8143 15.1053L39.7793 15.0912L39.7367 15.0884L39.6318 15.0359L39.5457 15.0031L39.5211 14.9806L39.489 14.9647L39.4209 14.8859L39.3443 14.8147L39.3292 14.78L39.3018 14.7491L39.2583 14.6262L39.2299 14.5653V14.5456L39.2205 14.5212C39.2072 14.4425 39.2063 14.3609 39.2205 14.2803L39.698 11.4509C39.7367 11.2241 39.663 10.9934 39.5003 10.8303L38.2843 9.60689V9.60502L37.4891 8.8044C37.3813 8.69658 37.3123 8.55689 37.2896 8.4069C37.2319 8.01596 37.5052 7.65221 37.8995 7.59408L40.6067 7.19658C40.6681 7.18814 40.7258 7.17221 40.7797 7.14971L40.8261 7.12346L40.931 7.06346C41.0256 6.99408 41.1022 6.90127 41.1542 6.79158L42.3295 4.28752C42.3607 4.22096 42.4014 4.16096 42.4477 4.10846L42.4723 4.08971L42.4761 4.08315L42.4988 4.06814L42.6104 3.97627L42.6605 3.95564L42.6832 3.93971L42.7172 3.93221L42.8023 3.89658L42.9205 3.88346L42.9621 3.87408ZM17.0172 3.87408L17.0409 3.87689L17.0636 3.87408L17.1052 3.88346L17.2234 3.89658L17.3085 3.93221L17.3425 3.93971L17.3652 3.95564L17.4144 3.97627L17.5279 4.06814L17.5506 4.08315L17.5553 4.08971L17.577 4.10846C17.6253 4.16096 17.6669 4.22096 17.6981 4.28752L18.8725 6.79158C18.9235 6.90127 19.0011 6.99408 19.0956 7.06346L19.2006 7.12346L19.246 7.14971C19.3008 7.17221 19.3595 7.18814 19.419 7.19658L22.1272 7.59408C22.5224 7.65221 22.7957 8.01596 22.7361 8.4069C22.7144 8.55689 22.6435 8.69658 22.5366 8.8044L22.0667 9.27783L22.0676 9.28064L20.5254 10.8303C20.3637 10.9934 20.2909 11.2241 20.3287 11.4509L20.8052 14.2803C20.8194 14.3609 20.8194 14.4425 20.8052 14.5212L20.7967 14.5456L20.7958 14.5653L20.7684 14.6262L20.7249 14.7491L20.6984 14.78L20.6814 14.8147L20.6048 14.8859L20.5376 14.9647L20.5046 14.9806L20.48 15.0031L20.3939 15.0359L20.2909 15.0884L20.2464 15.0912L20.2114 15.1053L20.0904 15.1044L20.0147 15.1109L19.993 15.1044H19.9694C19.8899 15.0903 19.8124 15.0641 19.7415 15.0237L17.3917 13.7253C17.3387 13.6953 17.2801 13.6728 17.2205 13.6578L17.0409 13.6353L16.8603 13.6578C16.8007 13.6728 16.7421 13.6953 16.6891 13.7253L14.3413 15.0237C14.2684 15.0641 14.1909 15.0903 14.1115 15.1044H14.0878L14.0661 15.1109L13.9895 15.1044L13.8694 15.1053L13.8344 15.0912L13.79 15.0884L13.6869 15.0359L13.6009 15.0031L13.5763 14.9806L13.5441 14.9647L13.476 14.8859L13.3995 14.8147L13.3843 14.78L13.3569 14.7491L13.3134 14.6262L13.285 14.5653L13.2841 14.5456L13.2756 14.5212C13.2614 14.4425 13.2614 14.3609 13.2756 14.2803L13.7522 11.4509C13.79 11.2241 13.7181 10.9934 13.5555 10.8303L12.3385 9.60689L12.3395 9.60502L11.5442 8.8044C11.4374 8.69658 11.3674 8.55689 11.3447 8.4069C11.2851 8.01596 11.5584 7.65221 11.9537 7.59408L14.6618 7.19658C14.7214 7.18814 14.78 7.17221 14.8348 7.14971L14.8812 7.12346L14.9861 7.06346C15.0798 6.99408 15.1573 6.90127 15.2084 6.79158L16.3828 4.28752C16.4159 4.22096 16.4556 4.16096 16.5038 4.10846L16.5255 4.08971L16.5312 4.08315L16.553 4.06814L16.6664 3.97627L16.7156 3.95564L16.7383 3.93971L16.7723 3.93221L16.8574 3.89658L16.9756 3.88346L17.0172 3.87408ZM29.9566 0.0200195L29.9802 0.022832L30.0039 0.0200195L30.0455 0.0293945L30.1646 0.0425195L30.2488 0.0781445L30.2828 0.086582L30.3055 0.101582L30.3556 0.122207L30.4672 0.214083L30.4899 0.229083L30.4937 0.235645L30.5164 0.254395C30.5646 0.306895 30.6053 0.366895 30.6365 0.434395L31.8118 2.93846C31.8638 3.04721 31.9404 3.14002 32.035 3.21033L32.1399 3.26939L32.1863 3.29564C32.2402 3.31815 32.2979 3.33408 32.3593 3.34346L35.0665 3.74002C35.4608 3.79815 35.7341 4.16189 35.6764 4.55283C35.6537 4.70283 35.5847 4.84252 35.475 4.95033L35.006 5.42377L35.0069 5.42658L33.4656 6.97627C33.303 7.14033 33.2292 7.37096 33.268 7.59689L33.7465 10.4272C33.7607 10.5069 33.7588 10.5884 33.7446 10.6681L33.7361 10.6916V10.7112L33.7077 10.7722L33.6642 10.895L33.6368 10.9259L33.6217 10.9606L33.5451 11.0328L33.477 11.1106L33.443 11.1275L33.4193 11.15L33.3342 11.1819L33.2292 11.2344L33.1867 11.2381L33.1517 11.2512H33.0297L32.9531 11.2569L32.9323 11.2503H32.9096C32.8293 11.2362 32.7527 11.21 32.6808 11.1706L30.3329 9.87221C30.2771 9.84127 30.2195 9.81877 30.1599 9.80377L29.9802 9.78127L29.8006 9.80377C29.741 9.81877 29.6833 9.84127 29.6275 9.87221L27.2796 11.1706C27.2078 11.21 27.1312 11.2362 27.0508 11.2503H27.0281L27.0073 11.2569L26.9307 11.2512H26.8087L26.7738 11.2381L26.7312 11.2344L26.6262 11.1819L26.5411 11.15L26.5175 11.1275L26.4835 11.1106L26.4154 11.0328L26.3388 10.9606L26.3237 10.9259L26.2962 10.895L26.2527 10.7722L26.2244 10.7112V10.6916L26.2159 10.6681C26.2017 10.5884 26.2017 10.5069 26.214 10.4272L26.6924 7.59689C26.7312 7.37096 26.6575 7.14033 26.4948 6.97627L25.2788 5.75283V5.75096L24.4855 4.95033C24.3758 4.84252 24.3067 4.70283 24.284 4.55283C24.2264 4.16189 24.4987 3.79815 24.8939 3.74002L27.6011 3.34346C27.6617 3.33408 27.7203 3.31815 27.7742 3.29564L27.8205 3.26939L27.9255 3.21033C28.02 3.14002 28.0966 3.04721 28.1486 2.93846L29.324 0.434395C29.3543 0.366895 29.3959 0.306895 29.4441 0.254395L29.4668 0.235645L29.4706 0.229083L29.4933 0.214083L29.6048 0.122207L29.6549 0.101582L29.6776 0.086582L29.7117 0.0781445L29.7958 0.0425195L29.915 0.0293945L29.9566 0.0200195Z" fill="#00D280"/>
</g>
</g>
</g>
</g>
<defs>
<clipPath id="clip0_34_902">
<rect width="59" height="45" fill="white" transform="translate(0.47998 0.0200195)"/>
</clipPath>
<clipPath id="clip1_34_902">
<rect width="59" height="45" fill="white" transform="translate(0.47998 0.0200195)"/>
</clipPath>
<clipPath id="clip2_34_902">
<rect width="59" height="45" fill="white" transform="translate(0.47998 0.0200195)"/>
</clipPath>
</defs>
</svg>
