<svg width="60" height="45" viewBox="0 0 60 45" fill="none" xmlns="http://www.w3.org/2000/svg">
<g clip-path="url(#clip0_1_941)">
<g clip-path="url(#clip1_1_941)">
<g clip-path="url(#clip2_1_941)">
<mask id="mask0_1_941" style="mask-type:luminance" maskUnits="userSpaceOnUse" x="0" y="0" width="60" height="45">
<path d="M0.919922 0H59.7219V45H0.919922V0Z" fill="white"/>
</mask>
<g mask="url(#mask0_1_941)">
<path fill-rule="evenodd" clip-rule="evenodd" d="M16.1841 28.5966H21.3337C21.781 28.5966 22.1422 28.9556 22.1422 29.3981V44.1994C22.1422 44.6419 21.781 45 21.3337 45H16.1841C15.7387 45 15.3766 44.6419 15.3766 44.1994V29.3981C15.3766 28.9556 15.7387 28.5966 16.1841 28.5966ZM31.4344 16.9462C32.5606 16.8291 33.3748 18.3169 33.5015 19.5159C33.5213 19.7634 33.5412 20.0109 33.561 20.2584L33.5487 20.6925C33.5922 21.2644 33.4665 22.6781 33.4466 23.7281C33.4268 24.7781 33.2811 26.1872 33.4287 26.9906L33.4778 27.2897H41.659C41.659 27.2897 41.659 27.2944 41.659 27.2972L41.764 27.2897C43.6967 27.2897 45.2645 28.4109 45.2645 29.7947C45.2645 30.6591 44.6518 31.4212 43.7213 31.8713L43.2183 32.0662L43.3261 32.0906C44.4428 32.4403 45.2267 33.2569 45.2267 34.2094C45.2267 35.1609 44.4428 35.9784 43.3261 36.3272L42.9923 36.4031L43.1672 36.4697C43.9955 36.8587 44.5402 37.5187 44.5402 38.2669C44.5402 39.165 43.7563 39.9356 42.6386 40.2647L42.2576 40.3472L42.389 40.3969C43.2173 40.7859 43.762 41.4459 43.762 42.1941C43.762 43.3913 42.3682 44.3616 40.6482 44.3616L40.2889 44.3372C40.2889 44.3456 40.2889 44.3531 40.2889 44.3616H27.2852C25.3345 44.3616 23.7544 42.7969 23.7544 40.8656V30.7866C23.7544 30.5447 23.7658 30.45 23.8121 30.2231L23.9029 29.8378L23.9464 29.5987C24.353 27.8062 25.5539 26.0934 26.2545 25.0284L27.5396 22.4972C27.9944 21.4106 28.2837 20.7281 28.3688 20.3728C28.3651 20.3306 29.2369 18.4397 29.2312 18.3966C29.7645 17.4759 30.5484 17.0381 31.4344 16.9462ZM6.60062 12.3938L6.62331 12.3956L6.64695 12.3938L6.68856 12.4031L6.80676 12.4162L6.89186 12.4519L6.9259 12.4594L6.94859 12.4753L6.99776 12.4959L7.11123 12.5869L7.13298 12.6028L7.13866 12.6094L7.16135 12.6281C7.20863 12.6797 7.24834 12.7397 7.28144 12.8072L8.45585 15.3112C8.50691 15.4209 8.58445 15.5137 8.67806 15.5831L8.78302 15.6422L8.82936 15.6684C8.8842 15.6909 8.94283 15.7078 9.0024 15.7162L11.7105 16.1138C12.1058 16.1709 12.3791 16.5347 12.3195 16.9266C12.2968 17.0766 12.2268 17.2153 12.12 17.3241L11.65 17.7975V17.7994L10.1087 19.35C9.94609 19.5131 9.87422 19.7437 9.91205 19.9697L10.3886 22.8C10.4028 22.8806 10.4028 22.9622 10.3886 23.0409L10.3801 23.0653L10.3792 23.0841L10.3508 23.1459L10.3073 23.2678L10.2799 23.2987L10.2648 23.3344L10.1882 23.4056L10.1201 23.4834L10.0879 23.5003L10.0633 23.5228L9.97729 23.5556L9.87422 23.6072L9.82978 23.6109L9.79479 23.6241H9.67471L9.59811 23.6306L9.57637 23.6241H9.55273C9.4733 23.61 9.39576 23.5828 9.32295 23.5434L6.97507 22.245C6.92023 22.215 6.86349 22.1925 6.80392 22.1766L6.62331 22.1541L6.44365 22.1766C6.38408 22.1925 6.3264 22.215 6.2725 22.245L3.92273 23.5434C3.85181 23.5828 3.77428 23.61 3.69485 23.6241H3.67121L3.64946 23.6306L3.57381 23.6241H3.45183L3.41779 23.6109L3.37429 23.6072L3.27028 23.5556L3.18423 23.5228L3.16059 23.5003L3.12655 23.4834L3.05942 23.4056L2.98282 23.3344L2.9658 23.2987L2.93933 23.2678L2.89583 23.1459L2.86841 23.0841L2.86746 23.0653L2.85895 23.0409C2.84477 22.9622 2.84477 22.8806 2.85895 22.8L3.33553 19.9697C3.37429 19.7437 3.30054 19.5131 3.13884 19.35L1.92188 18.1266L1.92283 18.1247L1.12759 17.3241C1.02074 17.2153 0.949824 17.0766 0.928076 16.9266C0.868504 16.5347 1.14178 16.1709 1.53703 16.1138L4.24518 15.7162C4.30475 15.7078 4.36337 15.6909 4.41822 15.6684L4.4636 15.6422L4.56856 15.5831C4.66312 15.5137 4.74066 15.4209 4.79172 15.3112L5.96613 12.8072C5.99734 12.7397 6.03894 12.6797 6.08717 12.6281L6.10986 12.6094L6.11364 12.6028L6.13634 12.5869L6.24981 12.4959L6.29898 12.4753L6.32073 12.4594L6.35571 12.4519L6.44082 12.4162L6.55901 12.4031L6.60062 12.3938ZM53.9941 12.3938L54.0178 12.3956L54.0404 12.3938L54.0821 12.4031L54.2003 12.4162L54.2854 12.4519L54.3203 12.4594L54.3421 12.4753L54.3932 12.4959L54.5047 12.5869L54.5274 12.6028L54.5312 12.6094L54.5539 12.6281C54.6021 12.6797 54.6437 12.7397 54.6749 12.8072L55.8493 15.3112C55.9004 15.4209 55.9779 15.5137 56.0725 15.5831L56.1775 15.6422L56.2229 15.6684C56.2777 15.6909 56.3363 15.7078 56.3959 15.7162L59.104 16.1138C59.4993 16.1709 59.7716 16.5347 59.713 16.9266C59.6912 17.0766 59.6203 17.2153 59.5135 17.3241L59.0435 17.7975L59.0445 17.7994L57.5022 19.35C57.3405 19.5131 57.2668 19.7437 57.3055 19.9697L57.7821 22.8C57.7963 22.8806 57.7963 22.9622 57.7821 23.0409L57.7736 23.0653V23.0841L57.7452 23.1459L57.7017 23.2678L57.6743 23.2987L57.6582 23.3344L57.5817 23.4056L57.5145 23.4834L57.4805 23.5003L57.4568 23.5228L57.3708 23.5556L57.2668 23.6072L57.2233 23.6109L57.1892 23.6241H57.0673L56.9916 23.6306L56.9699 23.6241H56.9462C56.8668 23.61 56.7893 23.5828 56.7183 23.5434L54.3686 22.245C54.3147 22.215 54.257 22.1925 54.1974 22.1766L54.0178 22.1541L53.8371 22.1766C53.7776 22.1925 53.7208 22.215 53.6651 22.245L51.3181 23.5434C51.2453 23.5828 51.1678 23.61 51.0883 23.6241H51.0647L51.043 23.6306L50.9664 23.6241H50.8463L50.8113 23.6109L50.7668 23.6072L50.6638 23.5556L50.5777 23.5228L50.5531 23.5003L50.521 23.4834L50.4529 23.4056L50.3763 23.3344L50.3612 23.2987L50.3338 23.2678L50.2903 23.1459L50.2619 23.0841L50.261 23.0653L50.2524 23.0409C50.2383 22.9622 50.2383 22.8806 50.2524 22.8L50.729 19.9697C50.7668 19.7437 50.695 19.5131 50.5323 19.35L49.3154 18.1266L49.3163 18.1247L48.5211 17.3241C48.4133 17.2153 48.3443 17.0766 48.3216 16.9266C48.262 16.5347 48.5353 16.1709 48.9305 16.1138L51.6387 15.7162C51.6982 15.7078 51.7569 15.6909 51.8117 15.6684L51.858 15.6422L51.963 15.5831C52.0566 15.5137 52.1342 15.4209 52.1852 15.3112L53.3596 12.8072C53.3927 12.7397 53.4324 12.6797 53.4797 12.6281L53.5024 12.6094L53.5081 12.6028L53.5298 12.5869L53.6433 12.4959L53.6925 12.4753L53.7152 12.4594L53.7492 12.4519L53.8343 12.4162L53.9525 12.4031L53.9941 12.3938ZM43.3024 3.85406L43.3261 3.85687L43.3506 3.85406L43.3913 3.86344L43.5105 3.87656L43.5937 3.91219L43.6286 3.91969L43.6513 3.93562L43.7015 3.95625L43.813 4.04812L43.8357 4.06313L43.8395 4.06969L43.8622 4.08844C43.9104 4.14094 43.952 4.20094 43.9832 4.2675L45.1577 6.77156C45.2087 6.88125 45.2863 6.97406 45.3808 7.04344L45.4858 7.10344L45.5312 7.12969C45.586 7.15219 45.6446 7.16812 45.7051 7.17656L48.4123 7.57406C48.8076 7.63219 49.0799 7.99594 49.0222 8.38688C48.9996 8.53687 48.9286 8.67656 48.8218 8.78438L48.3518 9.25781L48.3528 9.26062L46.8115 10.8103C46.6488 10.9734 46.5751 11.2041 46.6139 11.4309L47.0923 14.2603C47.1046 14.3409 47.1046 14.4225 47.0904 14.5012L47.0819 14.5256V14.5453L47.0535 14.6062L47.0101 14.7291L46.9826 14.76L46.9675 14.7947L46.8909 14.8659L46.8228 14.9447L46.7888 14.9606L46.7651 14.9831L46.68 15.0159L46.5751 15.0684L46.5325 15.0712L46.4975 15.0853L46.3756 15.0844L46.2999 15.0909L46.2782 15.0844H46.2545C46.1751 15.0703 46.0985 15.0441 46.0266 15.0037L43.6788 13.7053C43.623 13.6753 43.5653 13.6528 43.5057 13.6378L43.3261 13.6153L43.1445 13.6378C43.0868 13.6528 43.0292 13.6753 42.9734 13.7053L40.6255 15.0037C40.5536 15.0441 40.477 15.0703 40.3967 15.0844H40.374L40.3532 15.0909L40.2747 15.0844L40.1546 15.0853L40.1196 15.0712L40.077 15.0684L39.9721 15.0159L39.886 14.9831L39.8614 14.9606L39.8293 14.9447L39.7612 14.8659L39.6846 14.7947L39.6695 14.76L39.6421 14.7291L39.5986 14.6062L39.5702 14.5453V14.5256L39.5608 14.5012C39.5475 14.4225 39.5466 14.3409 39.5608 14.2603L40.0383 11.4309C40.077 11.2041 40.0033 10.9734 39.8406 10.8103L38.6246 9.58687V9.585L37.8294 8.78438C37.7216 8.67656 37.6526 8.53687 37.6299 8.38688C37.5722 7.99594 37.8455 7.63219 38.2398 7.57406L40.947 7.17656C41.0084 7.16812 41.0661 7.15219 41.12 7.12969L41.1664 7.10344L41.2713 7.04344C41.3659 6.97406 41.4425 6.88125 41.4945 6.77156L42.6698 4.2675C42.701 4.20094 42.7417 4.14094 42.788 4.08844L42.8126 4.06969L42.8164 4.06313L42.8391 4.04812L42.9507 3.95625L43.0008 3.93562L43.0235 3.91969L43.0575 3.91219L43.1426 3.87656L43.2608 3.86344L43.3024 3.85406ZM17.3575 3.85406L17.3812 3.85687L17.4039 3.85406L17.4455 3.86344L17.5637 3.87656L17.6488 3.91219L17.6828 3.91969L17.7055 3.93562L17.7547 3.95625L17.8682 4.04812L17.8909 4.06313L17.8956 4.06969L17.9173 4.08844C17.9656 4.14094 18.0072 4.20094 18.0384 4.2675L19.2128 6.77156C19.2638 6.88125 19.3414 6.97406 19.4359 7.04344L19.5409 7.10344L19.5863 7.12969C19.6411 7.15219 19.6998 7.16812 19.7593 7.17656L22.4675 7.57406C22.8627 7.63219 23.136 7.99594 23.0764 8.38688C23.0547 8.53687 22.9838 8.67656 22.8769 8.78438L22.407 9.25781L22.4079 9.26062L20.8657 10.8103C20.704 10.9734 20.6312 11.2041 20.669 11.4309L21.1455 14.2603C21.1597 14.3409 21.1597 14.4225 21.1455 14.5012L21.137 14.5256L21.1361 14.5453L21.1087 14.6062L21.0652 14.7291L21.0387 14.76L21.0217 14.7947L20.9451 14.8659L20.8779 14.9447L20.8449 14.9606L20.8203 14.9831L20.7342 15.0159L20.6312 15.0684L20.5867 15.0712L20.5517 15.0853L20.4307 15.0844L20.355 15.0909L20.3333 15.0844H20.3097C20.2302 15.0703 20.1527 15.0441 20.0818 15.0037L17.732 13.7053C17.679 13.6753 17.6204 13.6528 17.5608 13.6378L17.3812 13.6153L17.2006 13.6378C17.141 13.6528 17.0824 13.6753 17.0294 13.7053L14.6816 15.0037C14.6087 15.0441 14.5312 15.0703 14.4518 15.0844H14.4281L14.4064 15.0909L14.3298 15.0844L14.2097 15.0853L14.1747 15.0712L14.1303 15.0684L14.0272 15.0159L13.9412 14.9831L13.9166 14.9606L13.8844 14.9447L13.8163 14.8659L13.7398 14.7947L13.7246 14.76L13.6972 14.7291L13.6537 14.6062L13.6253 14.5453L13.6244 14.5256L13.6159 14.5012C13.6017 14.4225 13.6017 14.3409 13.6159 14.2603L14.0925 11.4309C14.1303 11.2041 14.0584 10.9734 13.8958 10.8103L12.6788 9.58687L12.6798 9.585L11.8845 8.78438C11.7777 8.67656 11.7077 8.53687 11.685 8.38688C11.6254 7.99594 11.8987 7.63219 12.294 7.57406L15.0021 7.17656C15.0617 7.16812 15.1203 7.15219 15.1751 7.12969L15.2215 7.10344L15.3264 7.04344C15.4201 6.97406 15.4976 6.88125 15.5487 6.77156L16.7231 4.2675C16.7562 4.20094 16.7959 4.14094 16.8441 4.08844L16.8658 4.06969L16.8715 4.06313L16.8933 4.04812L17.0067 3.95625L17.0559 3.93562L17.0786 3.91969L17.1126 3.91219L17.1977 3.87656L17.3159 3.86344L17.3575 3.85406ZM30.2969 0L30.3205 0.0028125L30.3442 0L30.3858 0.009375L30.5049 0.0225L30.5891 0.058125L30.6231 0.0665625L30.6458 0.0815625L30.6959 0.102187L30.8075 0.194063L30.8302 0.209063L30.834 0.215625L30.8567 0.234375C30.9049 0.286875 30.9456 0.346875 30.9768 0.414375L32.1521 2.91844C32.2041 3.02719 32.2807 3.12 32.3753 3.19031L32.4802 3.24937L32.5266 3.27562C32.5805 3.29813 32.6382 3.31406 32.6996 3.32344L35.4068 3.72C35.8011 3.77813 36.0744 4.14187 36.0167 4.53281C35.994 4.68281 35.925 4.8225 35.8153 4.93031L35.3463 5.40375L35.3472 5.40656L33.8059 6.95625C33.6433 7.12031 33.5695 7.35094 33.6083 7.57687L34.0868 10.4072C34.101 10.4869 34.0991 10.5684 34.0849 10.6481L34.0764 10.6716V10.6912L34.048 10.7522L34.0045 10.875L33.9771 10.9059L33.962 10.9406L33.8854 11.0128L33.8173 11.0906L33.7833 11.1075L33.7596 11.13L33.6745 11.1619L33.5695 11.2144L33.527 11.2181L33.492 11.2312H33.37L33.2934 11.2369L33.2726 11.2303H33.2499C33.1696 11.2162 33.093 11.19 33.0211 11.1506L30.6732 9.85219C30.6174 9.82125 30.5598 9.79875 30.5002 9.78375L30.3205 9.76125L30.1409 9.78375C30.0813 9.79875 30.0236 9.82125 29.9678 9.85219L27.6199 11.1506C27.5481 11.19 27.4715 11.2162 27.3911 11.2303H27.3684L27.3476 11.2369L27.271 11.2312H27.149L27.1141 11.2181L27.0715 11.2144L26.9665 11.1619L26.8814 11.13L26.8578 11.1075L26.8238 11.0906L26.7557 11.0128L26.6791 10.9406L26.664 10.9059L26.6365 10.875L26.593 10.7522L26.5647 10.6912V10.6716L26.5562 10.6481C26.542 10.5684 26.542 10.4869 26.5543 10.4072L27.0327 7.57687C27.0715 7.35094 26.9978 7.12031 26.8351 6.95625L25.6191 5.73281V5.73094L24.8258 4.93031C24.7161 4.8225 24.647 4.68281 24.6243 4.53281C24.5667 4.14187 24.839 3.77813 25.2342 3.72L27.9414 3.32344C28.002 3.31406 28.0606 3.29813 28.1145 3.27562L28.1608 3.24937L28.2658 3.19031C28.3603 3.12 28.4369 3.02719 28.4889 2.91844L29.6643 0.414375C29.6946 0.346875 29.7362 0.286875 29.7844 0.234375L29.8071 0.215625L29.8109 0.209063L29.8336 0.194063L29.9451 0.102187L29.9952 0.0815625L30.0179 0.0665625L30.052 0.058125L30.1361 0.0225L30.2553 0.009375L30.2969 0Z" fill="#00D280"/>
</g>
</g>
</g>
</g>
<defs>
<clipPath id="clip0_1_941">
<rect width="59" height="45" fill="white" transform="translate(0.820312)"/>
</clipPath>
<clipPath id="clip1_1_941">
<rect width="59" height="45" fill="white" transform="translate(0.820312)"/>
</clipPath>
<clipPath id="clip2_1_941">
<rect width="59" height="45" fill="white" transform="translate(0.820312)"/>
</clipPath>
</defs>
</svg>
