<svg width="51" height="56" viewBox="0 0 51 56" fill="none" xmlns="http://www.w3.org/2000/svg">
<g clip-path="url(#clip0_1_896)">
<g clip-path="url(#clip1_1_896)">
<mask id="mask0_1_896" style="mask-type:luminance" maskUnits="userSpaceOnUse" x="0" y="0" width="50" height="56">
<path d="M0.833008 0.5H49.8457V55.5H0.833008V0.5Z" fill="white"/>
</mask>
<g mask="url(#mask0_1_896)">
<path fill-rule="evenodd" clip-rule="evenodd" d="M25.5398 8.76271C29.7974 11.539 33.5061 13.5774 34.0123 18.6448H0.911712C1.41639 13.5774 5.12521 11.539 9.38271 8.76271C9.59545 8.81152 9.81844 8.83737 10.0458 8.83737H24.8766C25.1042 8.83737 25.3272 8.81152 25.5398 8.76271ZM21.8809 43.9183L29.1137 39.8256C31.2351 43.4288 33.0176 46.4549 35.4104 50.5187L28.1792 54.6114C25.1834 56.3068 21.3057 55.2875 19.5761 52.3518C17.845 49.4106 18.8821 45.6151 21.8809 43.9183ZM31.7955 38.3068L44.5827 45.3135C45.0464 45.0121 45.4586 44.6576 45.8151 44.2629L33.3448 37.4298L31.7955 38.3068ZM35.2168 36.3704L46.8259 42.731C47.0431 42.2617 47.2 41.7679 47.2939 41.2611L36.7675 35.4934L35.2168 36.3704ZM38.6953 34.4627C41.5971 33.2855 44.9876 34.4138 46.5589 37.081C46.9535 37.7513 47.2044 38.4662 47.3203 39.1897L38.6953 34.4627ZM42.721 46.3816L31.5021 40.2333L33.003 42.7813L41.1717 47.2586L42.721 46.3816ZM39.2983 48.3181L34.8162 45.862L37.0228 49.6057L39.2983 48.3181ZM35.2476 52.7208V55.4338H43.5969C47.0607 55.4338 49.8936 52.6548 49.8936 49.2599C49.8936 47.4568 49.0941 45.8275 47.8264 44.6963C47.1604 45.6537 46.2727 46.482 45.1856 47.0965L35.2476 52.7208ZM30.456 55.4338H33.3844V53.7758L30.456 55.4338ZM10.0458 0.604736H24.8766C25.4504 0.604736 25.9213 1.06553 25.9213 1.62825V5.98645C25.9213 6.54917 25.4504 7.00997 24.8766 7.00997H10.0458C9.47074 7.00997 9.00128 6.54917 9.00128 5.98645V1.62825C9.00128 1.06553 9.47074 0.604736 10.0458 0.604736ZM0.851562 20.4721V44.5226H18.4625C19.1095 43.6541 19.9444 42.9034 20.9493 42.3349L34.0711 34.9075V20.4721C21.9953 20.4721 28.4564 20.4721 0.851562 20.4721ZM16.3691 25.9487H18.5549C19.1961 25.9487 19.7198 26.4625 19.7198 27.0912V30.2838H22.9768C23.6179 30.2838 24.1417 30.7978 24.1417 31.4265V33.5698C24.1417 34.1985 23.6179 34.7124 22.9768 34.7124H19.7198V37.9049C19.7198 38.5338 19.1961 39.0476 18.5549 39.0476H16.3691C15.7264 39.0476 15.2027 38.5338 15.2027 37.9049V34.7109H11.9457C11.3046 34.7109 10.7809 34.1985 10.7809 33.5698V31.4265C10.7809 30.7978 11.3046 30.2838 11.9457 30.2838H15.2027V27.0912C15.2027 26.4625 15.7264 25.9487 16.3691 25.9487ZM17.8522 53.0725C16.6727 50.935 16.5965 48.476 17.4414 46.35H0.851562V46.5682C0.851562 50.1455 3.83709 53.071 7.48576 53.071L17.8522 53.0725Z" fill="#0575AD"/>
</g>
</g>
</g>
<defs>
<clipPath id="clip0_1_896">
<rect width="50.28" height="55" fill="white" transform="translate(0.200195 0.5)"/>
</clipPath>
<clipPath id="clip1_1_896">
<rect width="50.2857" height="55" fill="white" transform="translate(0.197266 0.5)"/>
</clipPath>
</defs>
</svg>
