<svg width="50" height="56" viewBox="0 0 50 56" fill="none" xmlns="http://www.w3.org/2000/svg">
<g clip-path="url(#clip0_34_228)">
<g clip-path="url(#clip1_34_228)">
<g clip-path="url(#clip2_34_228)">
<path d="M37.0817 41.8422C36.7938 41.8422 36.5579 41.6176 36.5515 41.335L36.379 33.5337C36.3728 33.2468 36.6045 33.0097 36.8965 33.0035C37.1927 32.9973 37.432 33.2251 37.4382 33.5108L37.6118 41.3121C37.6182 41.599 37.3854 41.8359 37.0933 41.8422C37.0891 41.8422 37.0859 41.8422 37.0817 41.8422Z" fill="white"/>
<path d="M14.6727 35.038C14.3807 35.038 14.1426 34.805 14.1426 34.5193V20.9543C14.1426 20.6684 14.3807 20.4365 14.6727 20.4365C14.9658 20.4365 15.2028 20.6684 15.2028 20.9543V34.5193C15.2028 34.805 14.9658 35.038 14.6727 35.038Z" fill="white"/>
<path d="M39.0684 10.4733L45.1176 5.52023C46.1081 4.70956 47.5831 4.8369 48.4116 5.80702C49.2402 6.77609 49.1089 8.21833 48.1185 9.03002L39.9731 15.6986C39.7012 15.9222 39.3912 16.0744 39.0684 16.1574V10.4733Z" fill="white"/>
<mask id="mask0_34_228" style="mask-type:luminance" maskUnits="userSpaceOnUse" x="38" y="4" width="12" height="13">
<path d="M38.5215 4.45996H49.4825V16.6904H38.5215V4.45996Z" fill="white"/>
</mask>
<g mask="url(#mask0_34_228)">
<path d="M39.0667 16.6758C38.8317 16.6758 38.6169 16.5215 38.5545 16.2887C38.4805 16.0111 38.6498 15.7285 38.9333 15.655C39.1905 15.5887 39.4264 15.4696 39.6328 15.3009L47.7781 8.63226C48.5421 8.00589 48.6448 6.88772 48.0047 6.13917C47.6945 5.7768 47.2587 5.5542 46.7773 5.51279C46.2968 5.47034 45.827 5.61425 45.4566 5.9176L39.4074 10.8707C39.183 11.055 38.8487 11.026 38.6614 10.8065C38.473 10.586 38.5027 10.2598 38.7269 10.0755L44.7763 5.12247C45.3645 4.64104 46.1084 4.41326 46.8714 4.47952C47.6343 4.54578 48.3252 4.89883 48.8173 5.47345C49.3092 6.0491 49.5421 6.77694 49.4744 7.52342C49.4066 8.2699 49.0459 8.94598 48.4586 9.42741L40.3131 16.096C39.9861 16.3641 39.6115 16.5536 39.2021 16.6582C39.1565 16.6695 39.1121 16.6758 39.0667 16.6758Z" fill="white"/>
</g>
<path d="M14.6738 14.566V5.98714C14.6738 3.99825 16.3214 2.38623 18.3539 2.38623H35.3856C37.4181 2.38623 39.0657 3.99825 39.0657 5.98714V43.6011C39.0657 45.5899 37.4181 47.2019 35.3856 47.2019H18.3539C17.8641 47.2019 17.3965 47.1078 16.9688 46.9379L14.6738 14.566Z" fill="white"/>
<mask id="mask1_34_228" style="mask-type:luminance" maskUnits="userSpaceOnUse" x="14" y="1" width="26" height="47">
<path d="M14.0566 1.86548H39.7902V47.877H14.0566V1.86548Z" fill="white"/>
</mask>
<g mask="url(#mask1_34_228)">
<path d="M35.3844 47.7195H18.3529C17.8047 47.7195 17.2714 47.6181 16.7678 47.4182C16.4969 47.3105 16.3668 47.0082 16.4768 46.7422C16.5868 46.4771 16.8958 46.3488 17.1678 46.4574C17.5433 46.6065 17.9424 46.6831 18.3529 46.6831H35.3844C37.1207 46.6831 38.5344 45.3 38.5344 43.6009V5.98705C38.5344 4.28702 37.1207 2.90484 35.3844 2.90484H18.3529C16.6164 2.90484 15.2028 4.28702 15.2028 5.98705V14.5659C15.2028 14.8527 14.9658 15.0846 14.6727 15.0846C14.3807 15.0846 14.1426 14.8527 14.1426 14.5659V5.98705C14.1426 3.71551 16.0313 1.86743 18.3529 1.86743H35.3844C37.7059 1.86743 39.5936 3.71551 39.5936 5.98705V43.6009C39.5936 45.8724 37.7059 47.7195 35.3844 47.7195Z" fill="white"/>
</g>
<path d="M34.4736 45.2485H19.2641C18.3733 45.2485 17.5056 44.945 16.8221 44.3932C16.5955 44.2111 16.5639 43.8849 16.7502 43.6634C16.9362 43.4428 17.2707 43.4107 17.496 43.593C17.9903 43.9916 18.6188 44.2111 19.2641 44.2111H34.4736C35.1202 44.2111 35.7476 43.9916 36.2417 43.593C36.4683 43.4107 36.8015 43.4419 36.9877 43.6634C37.174 43.8839 37.1422 44.2111 36.9168 44.3932C36.2322 44.945 35.3657 45.2485 34.4736 45.2485Z" fill="white"/>
<path d="M30.1018 5.98336H23.6345C22.6271 5.98336 21.7288 5.73176 21.2304 5.31039L20.4262 4.63016C20.2041 4.44276 20.1798 4.1156 20.3712 3.89819C20.5628 3.68179 20.8971 3.65797 21.1183 3.84537L21.9236 4.5256C22.1711 4.73474 22.7964 4.94594 23.6345 4.94594H30.1018C30.9398 4.94594 31.5651 4.73474 31.8127 4.5256L32.6169 3.84537C32.8391 3.65797 33.1735 3.68179 33.365 3.89819C33.5565 4.1156 33.5322 4.44276 33.3099 4.63016L32.5047 5.31039C32.0074 5.73176 31.109 5.98336 30.1018 5.98336Z" fill="white"/>
<path d="M30.7825 48.0581C30.7825 48.0581 28.9815 50.2086 27.0727 51.2429C25.7024 51.9851 23.3969 52.7224 20.7421 54.7826L1.81641 46.8623C1.81641 46.8623 3.12742 45.127 4.29136 42.9259C5.45422 40.7238 3.50729 31.0258 4.19824 27.6754C4.88919 24.3249 12.3595 13.8018 13.8441 14.0596C15.3286 14.3164 15.6863 17.0414 15.2927 19.2208C14.898 21.3991 11.6823 25.8241 11.5204 27.254C11.4411 27.9549 12.5066 29.8476 14.5075 34.1576C17.3486 40.2795 17.5634 43.8774 16.737 48.4463L30.7825 48.0581Z" fill="white"/>
<mask id="mask2_34_228" style="mask-type:luminance" maskUnits="userSpaceOnUse" x="1" y="13" width="17" height="36">
<path d="M1.2168 13.4209H17.8494V48.9372H1.2168V13.4209Z" fill="white"/>
</mask>
<g mask="url(#mask2_34_228)">
<path d="M16.7372 48.9209C16.7065 48.9209 16.6747 48.9177 16.6441 48.9125C16.3552 48.8628 16.1637 48.5936 16.2145 48.311C16.9922 44.0092 16.8738 40.5138 14.0242 34.3722C13.4676 33.1733 12.983 32.1618 12.5767 31.3106C11.4043 28.8612 10.9186 27.8475 10.9926 27.1963C11.0805 26.426 11.8243 25.1028 12.6856 23.5696C13.5713 21.9927 14.5755 20.2057 14.7691 19.13C14.9617 18.0697 14.9564 16.9112 14.7553 16.0332C14.6421 15.5404 14.367 14.7049 13.7829 14.5765C12.31 14.9047 5.38142 24.5592 4.71692 27.7781C4.41429 29.2442 4.65449 32.1297 4.88516 34.9209C5.18144 38.4794 5.45972 41.8412 4.76031 43.1644C3.59108 45.3769 2.29594 47.0985 2.24091 47.1711C2.06738 47.402 1.73619 47.4507 1.50023 47.2797C1.26533 47.11 1.21454 46.7849 1.38913 46.5551C1.40182 46.5374 2.68956 44.8229 3.81964 42.6871C4.37938 41.629 4.08733 38.1099 3.82916 35.0048C3.58049 32.0107 3.3456 29.182 3.67784 27.5731C4.29473 24.5841 11.7831 13.1767 13.9363 13.5484C14.8336 13.7048 15.4918 14.5061 15.7891 15.8065C16.023 16.8262 16.0314 18.1039 15.8135 19.3112C15.5881 20.5556 14.585 22.3415 13.6136 24.0685C12.8751 25.3844 12.11 26.7449 12.0465 27.3112C12.0053 27.6715 12.6476 29.0144 13.5364 30.8717C13.9448 31.7248 14.4305 32.7405 14.9892 33.9436C17.9541 40.3306 18.0735 43.9843 17.2578 48.4922C17.2123 48.7438 16.989 48.9209 16.7372 48.9209Z" fill="white"/>
</g>
<path d="M20.7441 54.7826C23.399 52.7222 25.7045 51.9851 27.0748 51.2427C28.9838 50.2084 31.2216 47.6294 31.2216 47.6294L20.7441 54.7826Z" fill="white"/>
<mask id="mask3_34_228" style="mask-type:luminance" maskUnits="userSpaceOnUse" x="20" y="47" width="12" height="9">
<path d="M20.0156 47.082H31.9343V55.3378H20.0156V47.082Z" fill="white"/>
</mask>
<g mask="url(#mask3_34_228)">
<path d="M20.7457 55.3015C20.5891 55.3015 20.4346 55.2341 20.3298 55.1047C20.1479 54.8801 20.1859 54.5539 20.4155 54.3758C22.4006 52.8353 24.2185 52.0059 25.5453 51.4003C26.0384 51.1756 26.4638 50.9809 26.8183 50.7895C28.6224 49.812 30.7968 47.319 30.8191 47.2941C31.0084 47.0756 31.3428 47.0487 31.5649 47.2351C31.7883 47.4204 31.8158 47.7477 31.6264 47.9651C31.5322 48.0737 29.3028 50.6289 27.3325 51.6964C26.9452 51.9066 26.504 52.1074 25.993 52.3403C24.6427 52.9563 22.9614 53.7236 21.0748 55.1886C20.9764 55.2642 20.861 55.3015 20.7457 55.3015Z" fill="white"/>
</g>
<path d="M36.6756 33.2922C35.8471 32.3231 35.9784 30.8798 36.9688 30.0692L40.0427 27.5523C41.033 26.7406 42.5081 26.87 43.3366 27.8391C44.1651 28.8081 44.035 30.2504 43.0445 31.061L39.9697 33.5779C38.9792 34.3896 37.5052 34.2612 36.6756 33.2922Z" fill="white"/>
<path d="M41.5426 27.5368C41.1194 27.5368 40.7141 27.6807 40.3861 27.9499L37.3123 30.4667C36.942 30.7701 36.7134 31.1956 36.671 31.6668C36.6287 32.1378 36.7758 32.5965 37.0858 32.9588C37.725 33.7075 38.8678 33.8068 39.6327 33.1804L42.7066 30.6635C43.0769 30.3601 43.3044 29.9346 43.3478 29.4636C43.3901 28.9924 43.243 28.5338 42.933 28.1714C42.623 27.809 42.1881 27.5864 41.7067 27.5441C41.6517 27.5389 41.5967 27.5368 41.5426 27.5368ZM38.4751 34.6289C37.6541 34.6289 36.8393 34.2872 36.2721 33.6245C35.7812 33.0499 35.5473 32.3221 35.615 31.5745C35.6828 30.8281 36.0446 30.152 36.6319 29.6706L39.7058 27.1547C40.293 26.6733 41.0369 26.4455 41.8008 26.5107C42.5638 26.577 43.2546 26.9311 43.7457 27.5057C44.2378 28.0803 44.4715 28.8082 44.4027 29.5557C44.3361 30.3022 43.9742 30.9782 43.3869 31.4596L40.313 33.9756C39.7777 34.4145 39.1238 34.6289 38.4751 34.6289Z" fill="white"/>
<path d="M36.6756 27.3318C35.8471 26.3628 35.9784 24.9205 36.9688 24.1088L40.0427 21.593C41.033 20.7813 42.5081 20.9097 43.3366 21.8787C44.1651 22.8478 44.035 24.2911 43.0445 25.1017L39.9697 27.6186C38.9792 28.4294 37.5052 28.3009 36.6756 27.3318Z" fill="white"/>
<path d="M41.5426 21.5775C41.1205 21.5775 40.7141 21.7214 40.3861 21.9895L37.3123 24.5065C36.942 24.8098 36.7134 25.2363 36.671 25.7075C36.6277 26.1776 36.7758 26.6372 37.0858 26.9995C37.725 27.7471 38.8678 27.8465 39.6327 27.2212L42.7066 24.7042C43.4716 24.0778 43.5732 22.9596 42.933 22.2112C42.623 21.8488 42.1881 21.6262 41.7067 21.5848C41.6517 21.5796 41.5976 21.5775 41.5426 21.5775ZM38.4751 28.6696C37.6541 28.6696 36.8393 28.3269 36.2721 27.6643C35.7812 27.0897 35.5473 26.3618 35.615 25.6154C35.6828 24.8689 36.0435 24.1918 36.6319 23.7113L39.7058 21.1944C40.293 20.713 41.0369 20.4852 41.7997 20.5516C42.5638 20.6177 43.2546 20.9708 43.7467 21.5454C44.7615 22.7329 44.5995 24.5065 43.3869 25.4994L40.313 28.0163C39.7777 28.4552 39.1238 28.6685 38.4751 28.6696Z" fill="white"/>
<path d="M36.6756 21.3724C35.8471 20.4033 35.9784 18.9601 36.9688 18.1494L40.0427 15.6324C41.033 14.8218 42.5081 14.9502 43.3366 15.9192C44.1651 16.8884 44.035 18.3306 43.0445 19.1423L39.9697 21.6581C38.9792 22.4698 37.5052 22.3415 36.6756 21.3724Z" fill="white"/>
<path d="M41.5426 15.6171C41.1205 15.6171 40.7141 15.761 40.3861 16.0301L37.3123 18.547C36.942 18.8504 36.7134 19.2759 36.671 19.7471C36.6277 20.2181 36.7758 20.6767 37.0858 21.0391C37.725 21.7877 38.8678 21.887 39.6327 21.2606L42.7066 18.7438C43.4716 18.1185 43.5732 17.0003 42.933 16.2517C42.623 15.8893 42.1881 15.6667 41.7067 15.6243C41.6517 15.6202 41.5976 15.6171 41.5426 15.6171ZM38.4751 22.7091C37.6541 22.7091 36.8393 22.3675 36.2721 21.7048C35.7812 21.1302 35.5473 20.4023 35.615 19.6559C35.6828 18.9083 36.0435 18.2323 36.6319 17.7509L39.7058 15.235C40.293 14.7536 41.0369 14.5258 41.7997 14.591C42.5638 14.6583 43.2546 15.0114 43.7467 15.586C44.7615 16.7725 44.5995 18.5461 43.3869 19.5399L40.313 22.0559C39.7777 22.4948 39.1238 22.7091 38.4751 22.7091Z" fill="white"/>
<path d="M21.5438 18.1233C21.5438 18.1233 20.7164 17.2111 20.8889 15.1001C20.9651 14.1766 21.3047 13.2323 21.8645 12.4631C22.8623 11.0902 24.7447 10.6471 26.2939 11.3822L26.3012 11.3863C26.6621 11.5572 27.0842 11.5572 27.445 11.3863C28.9392 10.6771 30.7623 11.0529 31.776 12.3409C32.4077 13.1443 32.7897 14.1527 32.8573 15.1011C33.0013 17.1283 32.2024 18.1233 32.2024 18.1233H21.5438Z" fill="white"/>
<path d="M32.2004 18.6423C32.0852 18.6423 31.9698 18.606 31.8734 18.5315C31.6427 18.3544 31.6025 18.0282 31.7836 17.8037C31.8079 17.7725 32.4523 16.9111 32.3264 15.1366C32.265 14.269 31.9105 13.3651 31.354 12.658C30.5074 11.5812 28.9593 11.2437 27.6748 11.8535C27.1637 12.0958 26.5786 12.0958 26.0676 11.8535C24.7248 11.2157 23.1408 11.5999 22.2943 12.7636C21.797 13.4479 21.4848 14.2928 21.415 15.1428C21.2647 16.9816 21.9314 17.7725 21.9387 17.7798C22.1325 17.9942 22.1123 18.3223 21.8932 18.5118C21.6743 18.7023 21.3399 18.6826 21.1452 18.4682C21.1059 18.4238 20.1706 17.3646 20.359 15.06C20.4437 14.0257 20.8235 12.9965 21.4309 12.1621C22.5778 10.5842 24.7194 10.0603 26.5225 10.9165C26.7468 11.0232 26.9955 11.0221 27.2125 10.9196C28.9467 10.0965 31.0418 10.5614 32.193 12.0244C32.8744 12.8899 33.3083 13.9987 33.3835 15.0651C33.5401 17.2673 32.6544 18.3969 32.6173 18.4446C32.5126 18.5749 32.357 18.6423 32.2004 18.6423Z" fill="white"/>
<path d="M36.7207 33.7819C36.4827 33.7819 36.2647 33.6224 36.2065 33.3855C35.8468 31.9381 34.778 30.7692 33.3465 30.2607L29.0144 28.7201C28.4409 28.5161 28.0547 27.9768 28.0547 27.3795V25.4806C28.0547 25.1938 28.2929 24.9619 28.5848 24.9619C28.878 24.9619 29.115 25.1938 29.115 25.4806V27.3795C29.115 27.5429 29.2198 27.6901 29.3764 27.7449L33.7082 29.2855C35.4743 29.9139 36.7937 31.3551 37.236 33.141C37.3058 33.4195 37.1314 33.7002 36.8467 33.7674C36.8044 33.7778 36.7619 33.7819 36.7207 33.7819Z" fill="white"/>
<path d="M16.8846 34.6515C16.874 34.6515 16.8624 34.6515 16.8517 34.6506C16.5598 34.6339 16.3375 34.3875 16.3544 34.1018C16.4899 31.9224 17.9322 30.0309 20.0293 29.2844L24.3623 27.7427C24.5189 27.6868 24.6237 27.5398 24.6237 27.3773V25.4784C24.6237 25.1916 24.8617 24.9597 25.1538 24.9597C25.4468 24.9597 25.684 25.1916 25.684 25.4784V27.3773C25.684 27.9746 25.2988 28.513 24.7242 28.718L20.3922 30.2596C18.6919 30.8643 17.5226 32.3975 17.4126 34.1649C17.3956 34.4393 17.1629 34.6515 16.8846 34.6515Z" fill="white"/>
<path d="M31.6621 29.4094C32.7117 31.4988 32.0673 33.8655 32.0673 33.8655L31.6621 29.4094Z" fill="white"/>
<path d="M32.0688 34.3844C32.0233 34.3844 31.9778 34.3792 31.9322 34.3668C31.6487 34.2933 31.4805 34.0096 31.5566 33.7322C31.5619 33.7114 32.1333 31.5207 31.1873 29.6385C31.0582 29.3817 31.1662 29.0711 31.4296 28.9447C31.6921 28.8184 32.0096 28.9241 32.1387 29.1808C33.2634 31.4193 32.6095 33.8958 32.5809 33.9992C32.5174 34.2322 32.3026 34.3844 32.0688 34.3844Z" fill="white"/>
<path d="M22.3678 29.4553C21.8852 30.6036 21.7699 32.2229 21.8938 33.2085L22.3678 29.4553Z" fill="white"/>
<path d="M21.8904 33.7271C21.627 33.7271 21.3985 33.5346 21.3656 33.2715C21.2313 32.1999 21.3624 30.4772 21.8747 29.2576C21.9868 28.9936 22.2958 28.8662 22.5666 28.976C22.8375 29.0846 22.9666 29.387 22.8555 29.6521C22.4175 30.6957 22.3032 32.23 22.4175 33.1453C22.4534 33.4289 22.247 33.6878 21.9561 33.723C21.9338 33.726 21.9127 33.7271 21.8904 33.7271Z" fill="white"/>
<path d="M33.2598 35.3907C33.2598 36.2635 32.5359 36.9716 31.644 36.9716C30.7519 36.9716 30.0293 36.2635 30.0293 35.3907C30.0293 34.5178 30.7519 33.8108 31.644 33.8108C32.5359 33.8108 33.2598 34.5178 33.2598 35.3907Z" fill="white"/>
<path d="M31.6429 34.3298C31.0451 34.3298 30.5583 34.8062 30.5583 35.3912C30.5583 35.9771 31.0451 36.4535 31.6429 36.4535C32.2418 36.4535 32.7285 35.9771 32.7285 35.3912C32.7285 34.8062 32.2418 34.3298 31.6429 34.3298ZM31.6429 37.4908C30.4599 37.4908 29.498 36.5486 29.498 35.3912C29.498 34.2336 30.4599 33.2925 31.6429 33.2925C32.8259 33.2925 33.7888 34.2336 33.7888 35.3912C33.7888 36.5486 32.8259 37.4908 31.6429 37.4908Z" fill="white"/>
<path d="M19.2284 40.6505C19.1099 40.6505 18.9936 40.6123 18.9004 40.5397C18.7893 40.4548 18.7184 40.3295 18.7015 40.1929C18.402 37.7112 19.3607 32.9786 21.8282 32.6929C22.971 32.5614 24.1116 33.3793 25.1275 35.0587C25.902 36.3394 26.502 37.9928 26.6575 39.2724C26.6734 39.4092 26.6342 39.5468 26.5474 39.6545C26.4597 39.7622 26.3327 39.8327 26.1929 39.8481L24.956 39.992C24.665 40.0252 24.4016 39.8223 24.3677 39.5375C24.3329 39.2529 24.5402 38.995 24.8312 38.9618L25.5199 38.8822C25.3042 37.8302 24.8089 36.5681 24.2154 35.5867C23.4524 34.3246 22.6282 33.6444 21.953 33.7231C20.5542 33.8856 19.6241 37.2608 19.7141 39.5541L20.5628 39.4558C20.8526 39.4226 21.1161 39.6255 21.151 39.9103C21.1849 40.194 20.9776 40.4517 20.6865 40.4859L19.2909 40.6474C19.2697 40.6496 19.2486 40.6505 19.2284 40.6505Z" fill="white"/>
<path d="M31.7856 18.0824C28.5965 19.6457 24.8254 17.5687 24.1926 15.2393C22.2605 16.1349 21.9609 18.0824 21.9609 18.0824V20.974C21.9609 23.6287 24.1608 25.7811 26.8738 25.7811C29.5868 25.7811 31.7856 23.6287 31.7856 20.974V18.0824Z" fill="white"/>
<path d="M22.49 18.1264V20.9737C22.49 23.3384 24.4559 25.2621 26.8727 25.2621C29.2884 25.2621 31.2544 23.3384 31.2544 20.9737V18.8553C29.8312 19.315 28.2398 19.2229 26.7743 18.5768C25.4696 18.0011 24.4252 17.0466 23.9142 15.9936C22.8073 16.7546 22.5312 17.9205 22.49 18.1264ZM26.8727 26.2994C23.8708 26.2994 21.4297 23.9098 21.4297 20.9737V18.082C21.4297 18.0561 21.4318 18.0302 21.436 18.0044C21.4499 17.9142 21.8022 15.7732 23.9638 14.7699C24.1067 14.7037 24.2718 14.7037 24.4136 14.7679C24.5575 14.8331 24.6632 14.9563 24.7036 15.1054C24.9744 16.1014 25.934 17.0694 27.2102 17.6316C28.6524 18.2673 30.2332 18.2621 31.5474 17.6181C31.7115 17.5373 31.9061 17.5457 32.0627 17.6409C32.2193 17.7352 32.3146 17.9018 32.3146 18.082V20.9737C32.3146 23.9098 29.8736 26.2994 26.8727 26.2994Z" fill="white"/>
<path d="M26.8699 30.9687C25.7082 30.9687 24.4797 30.2781 23.2119 28.9126C23.0152 28.7004 23.0311 28.3732 23.248 28.1807C23.4649 27.988 23.8003 28.0036 23.9971 28.2158C25.1113 29.4168 26.1239 29.9925 27.0065 29.9261C27.7704 29.8692 28.5132 29.3143 29.2147 28.278C29.3756 28.0387 29.7047 27.9735 29.9491 28.1319C30.1925 28.2893 30.2591 28.6113 30.0983 28.8504C29.2063 30.1674 28.1937 30.8776 27.0869 30.9605C27.0149 30.9656 26.9429 30.9687 26.8699 30.9687Z" fill="white"/>
<path d="M29.0974 13.4159H24.1929C23.6776 13.4159 23.2598 13.007 23.2598 12.5028V10.4217C23.2598 9.91752 23.6776 9.50854 24.1929 9.50854H29.0974C29.6127 9.50854 30.0306 9.91752 30.0306 10.4217V12.5028C30.0306 13.007 29.6127 13.4159 29.0974 13.4159Z" fill="white"/>
<path d="M24.192 10.0272C23.9697 10.0272 23.7888 10.2042 23.7888 10.4216V12.5027C23.7888 12.7201 23.9697 12.8971 24.192 12.8971H29.0963C29.3184 12.8971 29.4995 12.7201 29.4995 12.5027V10.4216C29.4995 10.2042 29.3184 10.0272 29.0963 10.0272H24.192ZM29.0963 13.9335H24.192C23.3845 13.9335 22.7285 13.2916 22.7285 12.5027V10.4216C22.7285 9.6327 23.3845 8.98975 24.192 8.98975H29.0963C29.9027 8.98975 30.5587 9.6327 30.5587 10.4216V12.5027C30.5587 13.2916 29.9027 13.9335 29.0963 13.9335Z" fill="white"/>
</g>
</g>
</g>
<defs>
<clipPath id="clip0_34_228">
<rect width="48.88" height="55" fill="white" transform="translate(0.910156 0.5)"/>
</clipPath>
<clipPath id="clip1_34_228">
<rect width="48.88" height="55" fill="white" transform="translate(0.910156 0.5)"/>
</clipPath>
<clipPath id="clip2_34_228">
<rect width="48.8889" height="55" fill="white" transform="translate(0.90625 0.5)"/>
</clipPath>
</defs>
</svg>
