<svg width="50" height="56" viewBox="0 0 50 56" fill="none" xmlns="http://www.w3.org/2000/svg">
<g clip-path="url(#clip0_1_832)">
<g clip-path="url(#clip1_1_832)">
<path d="M37.0807 41.8422C36.7928 41.8422 36.557 41.6176 36.5505 41.335L36.3781 33.5337C36.3718 33.2468 36.6036 33.0097 36.8955 33.0035C37.1918 32.9973 37.431 33.2251 37.4373 33.5108L37.6108 41.3121C37.6172 41.599 37.3844 41.8359 37.0923 41.8422C37.0882 41.8422 37.085 41.8422 37.0807 41.8422Z" fill="white"/>
<path d="M14.6717 35.038C14.3797 35.038 14.1416 34.805 14.1416 34.5193V20.9543C14.1416 20.6684 14.3797 20.4365 14.6717 20.4365C14.9648 20.4365 15.2018 20.6684 15.2018 20.9543V34.5193C15.2018 34.805 14.9648 35.038 14.6717 35.038Z" fill="white"/>
<path d="M39.0664 10.4733L45.1156 5.52023C46.1061 4.70956 47.5812 4.8369 48.4097 5.80702C49.2382 6.77609 49.107 8.21833 48.1165 9.03002L39.9712 15.6986C39.6992 15.9222 39.3892 16.0744 39.0664 16.1574V10.4733Z" fill="#0575AD"/>
<mask id="mask0_1_832" style="mask-type:luminance" maskUnits="userSpaceOnUse" x="38" y="4" width="12" height="13">
<path d="M38.5205 4.45996H49.4816V16.6904H38.5205V4.45996Z" fill="white"/>
</mask>
<g mask="url(#mask0_1_832)">
<path d="M39.0648 16.6758C38.8298 16.6758 38.615 16.5215 38.5525 16.2887C38.4786 16.0111 38.6478 15.7285 38.9314 15.655C39.1885 15.5887 39.4244 15.4696 39.6308 15.3009L47.7762 8.63226C48.5402 8.00589 48.6429 6.88772 48.0027 6.13917C47.6926 5.7768 47.2567 5.5542 46.7753 5.51279C46.2948 5.47034 45.825 5.61425 45.4547 5.9176L39.4055 10.8707C39.181 11.055 38.8467 11.026 38.6594 10.8065C38.4711 10.586 38.5007 10.2598 38.725 10.0755L44.7744 5.12247C45.3626 4.64104 46.1064 4.41326 46.8694 4.47952C47.6324 4.54578 48.3232 4.89883 48.8153 5.47345C49.3073 6.0491 49.5401 6.77694 49.4724 7.52342C49.4046 8.2699 49.0439 8.94598 48.4566 9.42741L40.3111 16.096C39.9842 16.3641 39.6096 16.5536 39.2001 16.6582C39.1546 16.6695 39.1101 16.6758 39.0648 16.6758Z" fill="white"/>
</g>
<path d="M14.6729 14.566V5.98714C14.6729 3.99825 16.3204 2.38623 18.3529 2.38623H35.3846C37.4172 2.38623 39.0647 3.99825 39.0647 5.98714V43.6011C39.0647 45.5899 37.4172 47.2019 35.3846 47.2019H18.3529C17.8631 47.2019 17.3955 47.1078 16.9678 46.9379L14.6729 14.566Z" fill="#0575AD"/>
<mask id="mask1_1_832" style="mask-type:luminance" maskUnits="userSpaceOnUse" x="14" y="1" width="26" height="47">
<path d="M14.0557 1.86548H39.7892V47.877H14.0557V1.86548Z" fill="white"/>
</mask>
<g mask="url(#mask1_1_832)">
<path d="M35.3844 47.7195H18.3529C17.8047 47.7195 17.2714 47.6181 16.7678 47.4182C16.4969 47.3105 16.3668 47.0082 16.4768 46.7422C16.5868 46.4771 16.8958 46.3488 17.1678 46.4574C17.5433 46.6065 17.9424 46.6831 18.3529 46.6831H35.3844C37.1207 46.6831 38.5344 45.3 38.5344 43.6009V5.98705C38.5344 4.28702 37.1207 2.90484 35.3844 2.90484H18.3529C16.6164 2.90484 15.2028 4.28702 15.2028 5.98705V14.5659C15.2028 14.8527 14.9658 15.0846 14.6727 15.0846C14.3807 15.0846 14.1426 14.8527 14.1426 14.5659V5.98705C14.1426 3.71551 16.0313 1.86743 18.3529 1.86743H35.3844C37.7059 1.86743 39.5936 3.71551 39.5936 5.98705V43.6009C39.5936 45.8724 37.7059 47.7195 35.3844 47.7195Z" fill="white"/>
</g>
<path d="M34.4726 45.2485H19.2631C18.3723 45.2485 17.5047 44.945 16.8211 44.3932C16.5946 44.2111 16.5629 43.8849 16.7492 43.6634C16.9353 43.4428 17.2697 43.4107 17.495 43.593C17.9893 43.9916 18.6178 44.2111 19.2631 44.2111H34.4726C35.1192 44.2111 35.7466 43.9916 36.2407 43.593C36.4673 43.4107 36.8005 43.4419 36.9867 43.6634C37.173 43.8839 37.1412 44.2111 36.9159 44.3932C36.2313 44.945 35.3647 45.2485 34.4726 45.2485Z" fill="white"/>
<path d="M30.1008 5.98336H23.6336C22.6261 5.98336 21.7278 5.73176 21.2294 5.31039L20.4252 4.63016C20.2031 4.44276 20.1788 4.1156 20.3702 3.89819C20.5618 3.68179 20.8961 3.65797 21.1173 3.84537L21.9226 4.5256C22.1701 4.73474 22.7954 4.94594 23.6336 4.94594H30.1008C30.9388 4.94594 31.5641 4.73474 31.8118 4.5256L32.616 3.84537C32.8381 3.65797 33.1725 3.68179 33.364 3.89819C33.5556 4.1156 33.5313 4.44276 33.309 4.63016L32.5037 5.31039C32.0064 5.73176 31.1081 5.98336 30.1008 5.98336Z" fill="white"/>
<path d="M30.7815 48.0581C30.7815 48.0581 28.9805 50.2086 27.0717 51.2429C25.7015 51.9851 23.3959 52.7224 20.7411 54.7826L1.81543 46.8623C1.81543 46.8623 3.12644 45.127 4.29038 42.9259C5.45325 40.7238 3.50631 31.0258 4.19726 27.6754C4.88821 24.3249 12.3586 13.8018 13.8431 14.0596C15.3277 14.3164 15.6853 17.0414 15.2917 19.2208C14.897 21.3991 11.6814 25.8241 11.5195 27.254C11.4401 27.9549 12.5056 29.8476 14.5066 34.1576C17.3476 40.2795 17.5624 43.8774 16.736 48.4463L30.7815 48.0581Z" fill="#0575AD"/>
<mask id="mask2_1_832" style="mask-type:luminance" maskUnits="userSpaceOnUse" x="1" y="13" width="17" height="36">
<path d="M1.21582 13.4209H17.8484V48.9372H1.21582V13.4209Z" fill="white"/>
</mask>
<g mask="url(#mask2_1_832)">
<path d="M16.7362 48.9209C16.7055 48.9209 16.6737 48.9177 16.6432 48.9125C16.3543 48.8628 16.1627 48.5936 16.2136 48.311C16.9912 44.0092 16.8728 40.5138 14.0232 34.3722C13.4666 33.1733 12.982 32.1618 12.5757 31.3106C11.4033 28.8612 10.9176 27.8475 10.9917 27.1963C11.0795 26.426 11.8234 25.1028 12.6847 23.5696C13.5703 21.9927 14.5745 20.2057 14.7681 19.13C14.9607 18.0697 14.9554 16.9112 14.7544 16.0332C14.6411 15.5404 14.366 14.7049 13.7819 14.5765C12.309 14.9047 5.38045 24.5592 4.71594 27.7781C4.41332 29.2442 4.65351 32.1297 4.88418 34.9209C5.18046 38.4794 5.45875 41.8412 4.75933 43.1644C3.59011 45.3769 2.29496 47.0985 2.23994 47.1711C2.06641 47.402 1.73521 47.4507 1.49925 47.2797C1.26435 47.11 1.21356 46.7849 1.38815 46.5551C1.40085 46.5374 2.68858 44.8229 3.81866 42.6871C4.37841 41.629 4.08636 38.1099 3.82818 35.0048C3.57952 32.0107 3.34462 29.182 3.67687 27.5731C4.29375 24.5841 11.7821 13.1767 13.9354 13.5484C14.8327 13.7048 15.4908 14.5061 15.7881 15.8065C16.022 16.8262 16.0304 18.1039 15.8125 19.3112C15.5871 20.5556 14.584 22.3415 13.6126 24.0685C12.8741 25.3844 12.109 26.7449 12.0456 27.3112C12.0043 27.6715 12.6466 29.0144 13.5354 30.8717C13.9438 31.7248 14.4295 32.7405 14.9882 33.9436C17.9531 40.3306 18.0726 43.9843 17.2569 48.4922C17.2113 48.7438 16.988 48.9209 16.7362 48.9209Z" fill="white"/>
</g>
<path d="M20.7422 54.7826C23.397 52.7222 25.7026 51.9851 27.0728 51.2427C28.9818 50.2084 31.2197 47.6294 31.2197 47.6294L20.7422 54.7826Z" fill="white"/>
<mask id="mask3_1_832" style="mask-type:luminance" maskUnits="userSpaceOnUse" x="20" y="47" width="12" height="9">
<path d="M20.0146 47.082H31.9333V55.3378H20.0146V47.082Z" fill="white"/>
</mask>
<g mask="url(#mask3_1_832)">
<path d="M20.7457 55.3015C20.5891 55.3015 20.4346 55.2341 20.3298 55.1047C20.1479 54.8801 20.1859 54.5539 20.4155 54.3758C22.4006 52.8353 24.2185 52.0059 25.5453 51.4003C26.0384 51.1756 26.4638 50.9809 26.8183 50.7895C28.6224 49.812 30.7968 47.319 30.8191 47.2941C31.0084 47.0756 31.3428 47.0487 31.5649 47.2351C31.7883 47.4204 31.8158 47.7477 31.6264 47.9651C31.5322 48.0737 29.3028 50.6289 27.3325 51.6964C26.9452 51.9066 26.504 52.1074 25.993 52.3403C24.6427 52.9563 22.9614 53.7236 21.0748 55.1886C20.9764 55.2642 20.861 55.3015 20.7457 55.3015Z" fill="white"/>
</g>
<path d="M36.6756 33.2922C35.8471 32.3231 35.9784 30.8798 36.9688 30.0692L40.0427 27.5523C41.033 26.7406 42.5081 26.87 43.3366 27.8391C44.1651 28.8081 44.035 30.2504 43.0445 31.061L39.9697 33.5779C38.9792 34.3896 37.5052 34.2612 36.6756 33.2922Z" fill="#0575AD"/>
<path d="M41.5416 27.5368C41.1184 27.5368 40.7131 27.6807 40.3851 27.9499L37.3114 30.4667C36.941 30.7701 36.7125 31.1956 36.67 31.6668C36.6277 32.1378 36.7748 32.5965 37.0848 32.9588C37.724 33.7075 38.8668 33.8068 39.6317 33.1804L42.7056 30.6635C43.076 30.3601 43.3035 29.9346 43.3468 29.4636C43.3892 28.9924 43.242 28.5338 42.9321 28.1714C42.6221 27.809 42.1871 27.5864 41.7057 27.5441C41.6507 27.5389 41.5957 27.5368 41.5416 27.5368ZM38.4741 34.6289C37.6531 34.6289 36.8384 34.2872 36.2711 33.6245C35.7802 33.0499 35.5463 32.3221 35.614 31.5745C35.6818 30.8281 36.0436 30.152 36.6309 29.6706L39.7048 27.1547C40.2921 26.6733 41.0359 26.4455 41.7998 26.5107C42.5628 26.577 43.2536 26.9311 43.7447 27.5057C44.2368 28.0803 44.4705 28.8082 44.4018 29.5557C44.3352 30.3022 43.9732 30.9782 43.386 31.4596L40.3121 33.9756C39.7767 34.4145 39.1228 34.6289 38.4741 34.6289Z" fill="white"/>
<path d="M36.6756 27.3318C35.8471 26.3628 35.9784 24.9205 36.9688 24.1088L40.0427 21.593C41.033 20.7813 42.5081 20.9097 43.3366 21.8787C44.1651 22.8478 44.035 24.2911 43.0445 25.1017L39.9697 27.6186C38.9792 28.4294 37.5052 28.3009 36.6756 27.3318Z" fill="#0575AD"/>
<path d="M41.5416 21.5775C41.1195 21.5775 40.7131 21.7214 40.3851 21.9895L37.3114 24.5065C36.941 24.8098 36.7125 25.2363 36.67 25.7075C36.6268 26.1776 36.7748 26.6372 37.0848 26.9995C37.724 27.7471 38.8668 27.8465 39.6317 27.2212L42.7056 24.7042C43.4706 24.0778 43.5722 22.9596 42.9321 22.2112C42.6221 21.8488 42.1871 21.6262 41.7057 21.5848C41.6507 21.5796 41.5966 21.5775 41.5416 21.5775ZM38.4741 28.6696C37.6531 28.6696 36.8384 28.3269 36.2711 27.6643C35.7802 27.0897 35.5463 26.3618 35.614 25.6154C35.6818 24.8689 36.0425 24.1918 36.6309 23.7113L39.7048 21.1944C40.2921 20.713 41.0359 20.4852 41.7987 20.5516C42.5628 20.6177 43.2536 20.9708 43.7457 21.5454C44.7605 22.7329 44.5986 24.5065 43.386 25.4994L40.3121 28.0163C39.7767 28.4552 39.1228 28.6685 38.4741 28.6696Z" fill="white"/>
<path d="M36.6756 21.3724C35.8471 20.4033 35.9784 18.9601 36.9688 18.1494L40.0427 15.6324C41.033 14.8218 42.5081 14.9502 43.3366 15.9192C44.1651 16.8884 44.035 18.3306 43.0445 19.1423L39.9697 21.6581C38.9792 22.4698 37.5052 22.3415 36.6756 21.3724Z" fill="#0575AD"/>
<path d="M41.5416 15.6171C41.1195 15.6171 40.7131 15.761 40.3851 16.0301L37.3114 18.547C36.941 18.8504 36.7125 19.2759 36.67 19.7471C36.6268 20.2181 36.7748 20.6767 37.0848 21.0391C37.724 21.7877 38.8668 21.887 39.6317 21.2606L42.7056 18.7438C43.4706 18.1185 43.5722 17.0003 42.9321 16.2517C42.6221 15.8893 42.1871 15.6667 41.7057 15.6243C41.6507 15.6202 41.5966 15.6171 41.5416 15.6171ZM38.4741 22.7091C37.6531 22.7091 36.8384 22.3675 36.2711 21.7048C35.7802 21.1302 35.5463 20.4023 35.614 19.6559C35.6818 18.9083 36.0425 18.2323 36.6309 17.7509L39.7048 15.235C40.2921 14.7536 41.0359 14.5258 41.7987 14.591C42.5628 14.6583 43.2536 15.0114 43.7457 15.586C44.7605 16.7725 44.5986 18.5461 43.386 19.5399L40.3121 22.0559C39.7767 22.4948 39.1228 22.7091 38.4741 22.7091Z" fill="white"/>
<path d="M21.5438 18.1233C21.5438 18.1233 20.7164 17.2111 20.8889 15.1001C20.9651 14.1766 21.3047 13.2323 21.8645 12.4631C22.8623 11.0902 24.7447 10.6471 26.2939 11.3822L26.3012 11.3863C26.6621 11.5572 27.0842 11.5572 27.445 11.3863C28.9392 10.6771 30.7623 11.0529 31.776 12.3409C32.4077 13.1443 32.7897 14.1527 32.8573 15.1011C33.0013 17.1283 32.2024 18.1233 32.2024 18.1233H21.5438Z" fill="white"/>
<path d="M32.2004 18.6423C32.0852 18.6423 31.9698 18.606 31.8734 18.5315C31.6427 18.3544 31.6025 18.0282 31.7836 17.8037C31.8079 17.7725 32.4523 16.9111 32.3264 15.1366C32.265 14.269 31.9105 13.3651 31.354 12.658C30.5074 11.5812 28.9593 11.2437 27.6748 11.8535C27.1637 12.0958 26.5786 12.0958 26.0676 11.8535C24.7248 11.2157 23.1408 11.5999 22.2943 12.7636C21.797 13.4479 21.4848 14.2928 21.415 15.1428C21.2647 16.9816 21.9314 17.7725 21.9387 17.7798C22.1325 17.9942 22.1123 18.3223 21.8932 18.5118C21.6743 18.7023 21.3399 18.6826 21.1452 18.4682C21.1059 18.4238 20.1706 17.3646 20.359 15.06C20.4437 14.0257 20.8235 12.9965 21.4309 12.1621C22.5778 10.5842 24.7194 10.0603 26.5225 10.9165C26.7468 11.0232 26.9955 11.0221 27.2125 10.9196C28.9467 10.0965 31.0418 10.5614 32.193 12.0244C32.8744 12.8899 33.3083 13.9987 33.3835 15.0651C33.5401 17.2673 32.6544 18.3969 32.6173 18.4446C32.5126 18.5749 32.357 18.6423 32.2004 18.6423Z" fill="white"/>
<path d="M36.7187 33.7819C36.4807 33.7819 36.2627 33.6224 36.2045 33.3855C35.8449 31.9381 34.776 30.7692 33.3445 30.2607L29.0125 28.7201C28.439 28.5161 28.0527 27.9768 28.0527 27.3795V25.4806C28.0527 25.1938 28.2909 24.9619 28.5829 24.9619C28.8761 24.9619 29.113 25.1938 29.113 25.4806V27.3795C29.113 27.5429 29.2178 27.6901 29.3744 27.7449L33.7063 29.2855C35.4724 29.9139 36.7918 31.3551 37.2341 33.141C37.3039 33.4195 37.1294 33.7002 36.8448 33.7674C36.8025 33.7778 36.76 33.7819 36.7187 33.7819Z" fill="white"/>
<path d="M16.8846 34.6515C16.874 34.6515 16.8624 34.6515 16.8517 34.6506C16.5598 34.6339 16.3375 34.3875 16.3544 34.1018C16.4899 31.9224 17.9322 30.0309 20.0293 29.2844L24.3623 27.7427C24.5189 27.6868 24.6237 27.5398 24.6237 27.3773V25.4784C24.6237 25.1916 24.8617 24.9597 25.1538 24.9597C25.4468 24.9597 25.684 25.1916 25.684 25.4784V27.3773C25.684 27.9746 25.2988 28.513 24.7242 28.718L20.3922 30.2596C18.6919 30.8643 17.5226 32.3975 17.4126 34.1649C17.3956 34.4393 17.1629 34.6515 16.8846 34.6515Z" fill="white"/>
<path d="M31.6611 29.4094C32.7107 31.4988 32.0663 33.8655 32.0663 33.8655L31.6611 29.4094Z" fill="white"/>
<path d="M32.0688 34.3844C32.0233 34.3844 31.9778 34.3792 31.9322 34.3668C31.6487 34.2933 31.4805 34.0096 31.5566 33.7322C31.5619 33.7114 32.1333 31.5207 31.1873 29.6385C31.0582 29.3817 31.1662 29.0711 31.4296 28.9447C31.6921 28.8184 32.0096 28.9241 32.1387 29.1808C33.2634 31.4193 32.6095 33.8958 32.5809 33.9992C32.5174 34.2322 32.3026 34.3844 32.0688 34.3844Z" fill="white"/>
<path d="M22.3669 29.4553C21.8842 30.6036 21.7689 32.2229 21.8928 33.2085L22.3669 29.4553Z" fill="white"/>
<path d="M21.8895 33.7271C21.6261 33.7271 21.3975 33.5346 21.3647 33.2715C21.2304 32.1999 21.3615 30.4772 21.8737 29.2576C21.9859 28.9936 22.2948 28.8662 22.5656 28.976C22.8365 29.0846 22.9656 29.387 22.8546 29.6521C22.4165 30.6957 22.3023 32.23 22.4165 33.1453C22.4524 33.4289 22.246 33.6878 21.9551 33.723C21.9328 33.726 21.9118 33.7271 21.8895 33.7271Z" fill="white"/>
<path d="M33.2588 35.3907C33.2588 36.2635 32.5349 36.9716 31.643 36.9716C30.751 36.9716 30.0283 36.2635 30.0283 35.3907C30.0283 34.5178 30.751 33.8108 31.643 33.8108C32.5349 33.8108 33.2588 34.5178 33.2588 35.3907Z" fill="white"/>
<path d="M31.6419 34.3298C31.0441 34.3298 30.5573 34.8062 30.5573 35.3912C30.5573 35.9771 31.0441 36.4535 31.6419 36.4535C32.2408 36.4535 32.7276 35.9771 32.7276 35.3912C32.7276 34.8062 32.2408 34.3298 31.6419 34.3298ZM31.6419 37.4908C30.459 37.4908 29.4971 36.5486 29.4971 35.3912C29.4971 34.2336 30.459 33.2925 31.6419 33.2925C32.8249 33.2925 33.7878 34.2336 33.7878 35.3912C33.7878 36.5486 32.8249 37.4908 31.6419 37.4908Z" fill="white"/>
<path d="M19.2274 40.6505C19.1089 40.6505 18.9926 40.6123 18.8994 40.5397C18.7883 40.4548 18.7175 40.3295 18.7005 40.1929C18.4011 37.7112 19.3597 32.9786 21.8272 32.6929C22.97 32.5614 24.1107 33.3793 25.1265 35.0587C25.9011 36.3394 26.501 37.9928 26.6566 39.2724C26.6724 39.4092 26.6332 39.5468 26.5464 39.6545C26.4587 39.7622 26.3317 39.8327 26.192 39.8481L24.9551 39.992C24.664 40.0252 24.4006 39.8223 24.3667 39.5375C24.3319 39.2529 24.5392 38.995 24.8302 38.9618L25.519 38.8822C25.3032 37.8302 24.8079 36.5681 24.2144 35.5867C23.4514 34.3246 22.6272 33.6444 21.9521 33.7231C20.5532 33.8856 19.6231 37.2608 19.7131 39.5541L20.5618 39.4558C20.8516 39.4226 21.1152 39.6255 21.15 39.9103C21.1839 40.194 20.9766 40.4517 20.6855 40.4859L19.2899 40.6474C19.2687 40.6496 19.2476 40.6505 19.2274 40.6505Z" fill="white"/>
<path d="M31.7846 18.0824C28.5956 19.6457 24.8244 17.5687 24.1916 15.2393C22.2596 16.1349 21.96 18.0824 21.96 18.0824V20.974C21.96 23.6287 24.1598 25.7811 26.8728 25.7811C29.5859 25.7811 31.7846 23.6287 31.7846 20.974V18.0824Z" fill="#0575AD"/>
<path d="M22.489 18.1264V20.9737C22.489 23.3384 24.4549 25.2621 26.8717 25.2621C29.2874 25.2621 31.2534 23.3384 31.2534 20.9737V18.8553C29.8303 19.315 28.2388 19.2229 26.7733 18.5768C25.4686 18.0011 24.4242 17.0466 23.9132 15.9936C22.8063 16.7546 22.5302 17.9205 22.489 18.1264ZM26.8717 26.2994C23.8698 26.2994 21.4287 23.9098 21.4287 20.9737V18.082C21.4287 18.0561 21.4308 18.0302 21.435 18.0044C21.4489 17.9142 21.8012 15.7732 23.9628 14.7699C24.1057 14.7037 24.2708 14.7037 24.4126 14.7679C24.5565 14.8331 24.6623 14.9563 24.7026 15.1054C24.9735 16.1014 25.9331 17.0694 27.2092 17.6316C28.6514 18.2673 30.2322 18.2621 31.5464 17.6181C31.7105 17.5373 31.9051 17.5457 32.0617 17.6409C32.2183 17.7352 32.3137 17.9018 32.3137 18.082V20.9737C32.3137 23.9098 29.8726 26.2994 26.8717 26.2994Z" fill="white"/>
<path d="M26.8689 30.9687C25.7072 30.9687 24.4787 30.2781 23.211 28.9126C23.0142 28.7004 23.0301 28.3732 23.247 28.1807C23.464 27.988 23.7993 28.0036 23.9961 28.2158C25.1103 29.4168 26.1229 29.9925 27.0055 29.9261C27.7694 29.8692 28.5122 29.3143 29.2138 28.278C29.3746 28.0387 29.7037 27.9735 29.9482 28.1319C30.1915 28.2893 30.2582 28.6113 30.0973 28.8504C29.2054 30.1674 28.1927 30.8776 27.0859 30.9605C27.0139 30.9656 26.942 30.9687 26.8689 30.9687Z" fill="white"/>
<path d="M29.0955 13.4159H24.191C23.6757 13.4159 23.2578 13.007 23.2578 12.5028V10.4217C23.2578 9.91752 23.6757 9.50854 24.191 9.50854H29.0955C29.6108 9.50854 30.0286 9.91752 30.0286 10.4217V12.5028C30.0286 13.007 29.6108 13.4159 29.0955 13.4159Z" fill="#0575AD"/>
<path d="M24.19 10.0272C23.9677 10.0272 23.7868 10.2042 23.7868 10.4216V12.5027C23.7868 12.7201 23.9677 12.8971 24.19 12.8971H29.0943C29.3165 12.8971 29.4975 12.7201 29.4975 12.5027V10.4216C29.4975 10.2042 29.3165 10.0272 29.0943 10.0272H24.19ZM29.0943 13.9335H24.19C23.3826 13.9335 22.7266 13.2916 22.7266 12.5027V10.4216C22.7266 9.6327 23.3826 8.98975 24.19 8.98975H29.0943C29.9007 8.98975 30.5567 9.6327 30.5567 10.4216V12.5027C30.5567 13.2916 29.9007 13.9335 29.0943 13.9335Z" fill="white"/>
</g>
</g>
<defs>
<clipPath id="clip0_1_832">
<rect width="48.88" height="55" fill="white" transform="translate(0.910156 0.5)"/>
</clipPath>
<clipPath id="clip1_1_832">
<rect width="48.8889" height="55" fill="white" transform="translate(0.905273 0.5)"/>
</clipPath>
</defs>
</svg>
