<svg width="46" height="46" viewBox="0 0 46 46" fill="none" xmlns="http://www.w3.org/2000/svg">
<g clip-path="url(#clip0_1_1004)">
<g clip-path="url(#clip1_1_1004)">
<g clip-path="url(#clip2_1_1004)">
<mask id="mask0_1_1004" style="mask-type:luminance" maskUnits="userSpaceOnUse" x="0" y="0" width="46" height="46">
<path d="M0.160156 0.0200195H45.1602V45.02H0.160156V0.0200195Z" fill="white"/>
</mask>
<g mask="url(#mask0_1_1004)">
<path d="M44.9386 22.2637C44.9386 22.255 44.9306 22.2462 44.9306 22.2374L37.6908 5.08154L30.7048 7.97128C30.7918 7.1558 30.7918 6.00148 30.3452 5.16844C30.2751 5.03852 30.197 4.913 30.1126 4.79274C30.0274 4.6716 29.936 4.55573 29.8374 4.44513C29.7389 4.3354 29.6341 4.23094 29.5232 4.13263C29.4122 4.03431 29.2968 3.94214 29.1751 3.85787C29.0535 3.77272 28.9275 3.6946 28.7969 3.62438C28.6664 3.55415 28.5315 3.49095 28.3939 3.43652C28.2554 3.38122 28.1151 3.3347 27.9713 3.2952C27.8284 3.25657 27.6828 3.22585 27.5354 3.2039C27.3889 3.18196 27.2407 3.16791 27.0924 3.16353C26.9433 3.15826 26.795 3.16177 26.6467 3.17318C26.4985 3.18547 26.3511 3.20566 26.2055 3.23463C26.0599 3.2636 25.9161 3.30134 25.774 3.34611C25.6329 3.39176 25.4944 3.4453 25.3594 3.50675C25.2236 3.5682 25.0931 3.63666 24.9653 3.71303C24.8383 3.7894 24.7158 3.87279 24.5986 3.96409C24.4814 4.0545 24.3696 4.15106 24.2639 4.25464C24.1583 4.35822 24.058 4.46707 23.9647 4.58206C23.8715 4.69618 23.7854 4.81644 23.7064 4.94109C23.6274 5.06574 23.5564 5.19477 23.4915 5.32732C23.4276 5.46075 23.3717 5.59681 23.3238 5.73638C23.2758 5.87508 23.2359 6.01728 23.2048 6.16124C23.1737 6.3052 23.1506 6.45004 23.1364 6.59663C23.1213 6.74323 23.116 6.8907 23.1187 7.03729C23.1222 7.18477 23.1338 7.33136 23.1533 7.47708C23.1737 7.62367 23.2021 7.76763 23.2394 7.91071C23.2758 8.05292 23.3211 8.19337 23.3752 8.33031C23.4285 8.46812 23.4898 8.60155 23.559 8.73234C23.6283 8.86226 23.7046 8.98866 23.789 9.1098C23.8724 9.23181 23.963 9.34769 24.0606 9.45917C24.1583 9.57065 24.2621 9.67511 24.3722 9.7743C24.4823 9.87349 24.5977 9.96654 24.7185 10.0525C24.8392 10.1386 24.9644 10.2167 25.0949 10.2887L17.6268 13.3689C17.4582 12.8431 17.2096 12.3577 16.882 11.9109C16.9761 11.86 17.0613 11.7968 17.1359 11.7204C17.3312 11.5325 17.4306 11.3043 17.4342 11.0348L17.3996 8.17142H17.9953C18.14 8.16879 18.2625 8.117 18.3637 8.01517C18.4711 7.91335 18.5235 7.7887 18.5208 7.6421L18.4161 0.0402832L17.3641 0.0569615L17.4608 7.12946L3.40983 7.23392L3.31395 0.0402832L2.26193 0.0569615L2.35781 7.77202C2.36047 7.83961 2.37467 7.90545 2.4022 7.96777C2.42972 8.0301 2.46789 8.0854 2.51672 8.1328C2.56555 8.1802 2.62237 8.21795 2.6854 8.2434C2.74932 8.26974 2.81501 8.2829 2.88426 8.28378H3.49772C3.49772 8.31012 3.53234 11.1472 3.53234 11.1472C3.53767 11.3034 3.57673 11.4491 3.65131 11.587C3.72499 11.7239 3.82531 11.838 3.95315 11.9284L3.56786 12.5359C3.41871 12.7702 3.21718 13.3513 3.21718 13.3513H3.2083L1.67421 19.0185L2.07815 20.2509L1.5082 20.502C1.24364 20.6178 1.01192 20.7794 0.81217 20.9865C0.613306 21.1946 0.462383 21.4325 0.3594 21.7002C0.258193 21.967 0.212916 22.2435 0.221794 22.5297C0.230671 22.815 0.294592 23.088 0.412667 23.3487L8.20475 40.5827L15.5059 37.3462C15.6382 37.2901 15.7465 37.204 15.8317 37.089C15.9161 36.974 15.9658 36.845 15.9791 36.7037C15.9933 36.5615 15.9694 36.4263 15.9081 36.2973C15.8468 36.1682 15.7563 36.0638 15.6373 35.9839C14.6998 35.3325 14.0509 34.6294 13.8582 34.0571C13.8218 33.95 13.7916 33.8412 13.7685 33.7305C13.7455 33.6199 13.7295 33.5085 13.7197 33.3961C13.7108 33.2829 13.7082 33.1705 13.7135 33.0573C13.7179 32.9449 13.7295 32.8325 13.7481 32.7211C13.7668 32.6096 13.7925 32.4999 13.8245 32.391C13.8573 32.283 13.8955 32.1768 13.9408 32.0732C13.9869 31.9697 14.0384 31.8687 14.0961 31.7713C14.1538 31.6747 14.2178 31.5808 14.287 31.4913C14.3562 31.4017 14.4317 31.3166 14.5116 31.2358C14.5915 31.1551 14.6759 31.0796 14.7655 31.0093C14.8552 30.9391 14.9484 30.875 15.0452 30.8162C15.1428 30.7574 15.2431 30.7047 15.347 30.6573C15.4518 30.6108 15.5574 30.5704 15.6666 30.5371C15.7758 30.5037 15.8859 30.4765 15.9987 30.4563C16.1105 30.4361 16.2241 30.4221 16.3378 30.4159C16.4514 30.4089 16.5659 30.4098 16.6796 30.4168C16.7932 30.4238 16.906 30.4388 17.0187 30.4598C17.1306 30.48 17.2407 30.5081 17.3499 30.5423C17.4582 30.5775 17.5647 30.6178 17.6677 30.6652C17.7716 30.7126 17.8719 30.7662 17.9686 30.8259C18.0654 30.8856 18.1586 30.9505 18.2474 31.0216C18.3362 31.0919 18.4205 31.1682 18.5004 31.249C18.5794 31.3306 18.654 31.4158 18.7224 31.5062C18.7916 31.5957 18.8547 31.6896 18.9115 31.788C18.9692 31.8854 19.0198 31.9863 19.0651 32.0899C19.1094 32.1944 19.1476 32.3006 19.1787 32.4086C19.2107 32.5174 19.2355 32.6271 19.2533 32.7395C19.271 32.851 19.2817 32.9633 19.2861 33.0757C19.2897 33.1889 19.287 33.3013 19.2772 33.4137C19.2666 33.5269 19.2497 33.6384 19.2257 33.749C19.2027 33.8587 19.1716 33.9676 19.1343 34.0746C19.097 34.1809 19.0535 34.2853 19.0029 34.3871C18.9701 34.4539 18.9488 34.5241 18.9372 34.5978C18.9266 34.6716 18.9266 34.7453 18.9381 34.819C18.9496 34.8919 18.9718 34.9621 19.0056 35.0288C19.0393 35.0955 19.0819 35.1561 19.1334 35.2097C19.1858 35.2641 19.2444 35.3088 19.3101 35.3448C19.3767 35.3808 19.4459 35.4063 19.5196 35.4212C19.5933 35.4361 19.6679 35.4396 19.7424 35.4317C19.8179 35.4238 19.8898 35.4054 19.9582 35.3764L26.0244 32.686C26.32 32.5596 26.5571 32.3629 26.7337 32.0961L27.6544 31.723C27.7609 32.5964 28.077 33.3891 28.6007 34.1001C28.5066 34.1545 28.4214 34.2212 28.3468 34.3002C28.251 34.3907 28.1773 34.496 28.1258 34.6171C28.0743 34.7374 28.0485 34.8629 28.0485 34.9946L28.0929 37.8492H27.4963C27.3525 37.851 27.2291 37.9028 27.1288 38.0055C27.0187 38.1064 26.969 38.2311 26.9797 38.3785L27.0755 44.9305H28.1276L28.0308 38.8991L42.0817 38.7867L42.1776 44.9393H43.2297L43.1338 38.2662C43.132 38.1968 43.1169 38.1319 43.0903 38.0687C43.0627 38.0055 43.0246 37.9502 42.9757 37.901C42.9269 37.8527 42.8701 37.815 42.8071 37.7878C42.7431 37.7614 42.6766 37.7465 42.6073 37.7448H41.9939C41.9939 37.7281 42.0027 37.7018 42.0027 37.6842L41.9592 34.8901C41.9592 34.733 41.9219 34.5855 41.8474 34.4477C41.7728 34.309 41.6698 34.1967 41.5384 34.1089C41.74 33.7876 41.898 33.5453 41.9237 33.4927C42.0764 33.2627 42.1874 33.0134 42.2566 32.7465L42.2744 32.686H42.2833L43.8174 27.0109L43.2563 25.2579L43.7641 25.049C43.8955 24.9964 44.0207 24.9314 44.1387 24.8541C44.2568 24.776 44.366 24.6882 44.4663 24.5899C44.5667 24.4907 44.6572 24.3836 44.7362 24.2669C44.8152 24.1501 44.8818 24.0281 44.9369 23.8982C44.991 23.7692 45.0327 23.6358 45.0603 23.4979C45.0878 23.3601 45.102 23.2214 45.1029 23.081C45.1029 22.9414 45.0887 22.8018 45.0612 22.6649C45.0336 22.5271 44.9928 22.3937 44.9386 22.2637ZM4.25145 13.5339C4.29673 13.3768 4.3642 13.2293 4.45298 13.0915C4.45298 13.0915 4.72464 12.6579 5.03181 12.1891L15.6897 12.1022C15.9179 12.341 16.1141 12.6035 16.2783 12.8896C16.4425 13.1758 16.5713 13.4778 16.6627 13.7946L8.21363 17.5341L8.12574 17.6816C7.53004 18.7235 6.45138 19.1835 6.4425 19.1835L6.0572 19.3398C6.0572 19.3398 6.66178 22.9581 6.82869 24.0079C6.87752 24.3204 6.87396 24.6321 6.81626 24.9428C6.75944 25.2536 6.65202 25.5467 6.49488 25.8215C6.38213 25.9821 6.23831 26.1077 6.06342 26.1981C5.88852 26.2885 5.70209 26.3333 5.505 26.3341C5.23334 26.3254 5.11881 26.1858 5.07531 26.1085L3.36633 20.8233L3.04229 19.8252L2.76974 18.9921L4.25145 13.5339ZM25.8309 31.5492C25.7714 31.6343 25.6924 31.6949 25.5947 31.7318L20.2218 34.1177C20.2574 33.9755 20.2849 33.8306 20.3044 33.6849C20.323 33.5392 20.3337 33.3926 20.3364 33.246C20.3381 33.0985 20.331 32.9519 20.3159 32.8053C20.3009 32.6596 20.2778 32.5148 20.2449 32.3708C20.213 32.2277 20.1721 32.0864 20.1242 31.9468C20.0754 31.8081 20.0185 31.673 19.9537 31.5404C19.8889 31.4079 19.817 31.2797 19.7371 31.1551C19.6581 31.0313 19.5711 30.9119 19.4779 30.7978C19.3838 30.6837 19.2843 30.5757 19.1778 30.473C19.0713 30.3703 18.9594 30.2737 18.8413 30.1833C18.7241 30.0938 18.6016 30.0113 18.4747 29.9349C18.3468 29.8594 18.2154 29.7909 18.0805 29.7304C17.9456 29.6698 17.8071 29.6171 17.665 29.5724C17.5239 29.5276 17.38 29.4907 17.2344 29.4626C17.0888 29.4346 16.9415 29.4144 16.7941 29.403C16.6458 29.3915 16.4976 29.3889 16.3493 29.3942C16.2002 29.4003 16.0528 29.4144 15.9063 29.4363C15.7589 29.4591 15.6142 29.4899 15.4713 29.5294C15.3284 29.568 15.1872 29.6154 15.0496 29.6707C14.912 29.726 14.7788 29.7892 14.6483 29.8603C14.5178 29.9305 14.3926 30.0086 14.271 30.0938C14.1503 30.1789 14.034 30.2702 13.9239 30.3694C13.8138 30.4677 13.7091 30.5722 13.6114 30.6819C13.5129 30.7925 13.4214 30.9084 13.3371 31.0295C13.2527 31.1498 13.1755 31.2753 13.1054 31.4052C13.0352 31.5351 12.9731 31.6686 12.9189 31.8055C12.8648 31.9425 12.8186 32.082 12.7804 32.2234C12.7431 32.3656 12.7138 32.5095 12.6925 32.6552C12.6712 32.8009 12.6588 32.9475 12.6553 33.0941C12.6508 33.2416 12.6553 33.3882 12.6686 33.5348C12.6819 33.6814 12.7041 33.8262 12.7343 33.9702C12.7645 34.1142 12.8035 34.2555 12.8497 34.395C13.148 35.2544 13.9461 36.0181 14.6732 36.5738L8.72144 39.2116L1.35905 22.923C1.2969 22.7887 1.26406 22.6473 1.26139 22.4999C1.25873 22.3524 1.28536 22.2102 1.34129 22.0733C1.39367 21.9354 1.47091 21.8134 1.57212 21.7063C1.67421 21.5992 1.79318 21.5167 1.92901 21.457L2.39332 21.2481L4.11118 26.551C4.1751 26.673 4.25411 26.7845 4.34911 26.8854C4.44321 26.9863 4.54886 27.0732 4.66693 27.1452C4.78501 27.2181 4.91107 27.2734 5.04424 27.3129C5.17741 27.3515 5.31324 27.3726 5.45262 27.3752C5.45262 27.3752 6.81981 27.4007 7.38089 26.3684V26.3508C7.60017 25.9698 7.75021 25.5634 7.83011 25.1324C7.90912 24.7005 7.91445 24.2678 7.8452 23.8341C7.71381 23.0011 7.35426 20.8233 7.20511 19.9472C7.91622 19.5557 8.49506 19.0237 8.94073 18.3505L17.8373 14.4021C17.8373 14.4021 18.0832 14.2625 18.2758 14.3064C18.401 14.3696 18.4915 14.4644 18.5475 14.5926L21.2996 20.8233C21.328 20.8926 21.3662 20.9558 21.4141 21.0129C21.4621 21.0699 21.5189 21.1191 21.5819 21.1586C21.6458 21.1981 21.7142 21.227 21.787 21.2455C21.8607 21.2639 21.9344 21.2709 22.0098 21.2657C22.1625 21.256 22.3001 21.2042 22.4218 21.1103C22.5434 21.0172 22.6277 20.8987 22.6757 20.7539C22.705 20.6468 22.7396 20.5415 22.7822 20.4388C22.8239 20.3361 22.8719 20.236 22.926 20.1386C22.9802 20.042 23.0406 19.9481 23.1063 19.8585C23.1719 19.769 23.243 19.683 23.3184 19.6022C23.3948 19.5206 23.4765 19.4442 23.5617 19.3731C23.6478 19.3011 23.7375 19.2353 23.8307 19.1747C23.9248 19.1142 24.0224 19.0589 24.1228 19.0106C24.2231 18.9614 24.327 18.9193 24.4326 18.8824C24.5382 18.8464 24.6457 18.8166 24.7558 18.7929C24.865 18.7701 24.9759 18.7534 25.0869 18.7428C25.1988 18.7332 25.3106 18.7297 25.4225 18.7332C25.5343 18.7367 25.6462 18.7472 25.7563 18.7639C25.8673 18.7815 25.9765 18.8052 26.0848 18.835C26.1922 18.8649 26.2978 18.9017 26.4008 18.9447C26.5047 18.9878 26.605 19.0369 26.7018 19.0922C26.7994 19.1466 26.8927 19.2081 26.9823 19.2739C27.072 19.3406 27.1572 19.4117 27.238 19.489C27.3197 19.5654 27.3951 19.647 27.4662 19.733C27.5372 19.819 27.602 19.9086 27.6624 20.0025C27.7218 20.0964 27.776 20.193 27.8239 20.2939C27.8719 20.394 27.9127 20.4967 27.9482 20.602C27.9828 20.7074 28.0121 20.8145 28.0335 20.9233C28.0556 21.0322 28.0707 21.1419 28.0796 21.2525C28.0876 21.3631 28.0894 21.4737 28.0841 21.5843C28.0787 21.6949 28.0672 21.8055 28.0477 21.9144C28.029 22.0241 28.0033 22.1321 27.9713 22.2383C27.9393 22.3445 27.9012 22.4481 27.8559 22.5499C27.8106 22.6517 27.76 22.75 27.7032 22.8457C27.6455 22.9405 27.5833 23.0327 27.515 23.1205C27.4466 23.2083 27.3729 23.2917 27.2939 23.3707C27.2149 23.4497 27.1324 23.5234 27.0445 23.5927C26.9566 23.6612 26.8642 23.7244 26.7692 23.7823C26.0066 24.2081 24.6741 24.1036 24.1396 24.0431C23.9976 24.0264 23.8609 24.0466 23.7295 24.1027C23.5981 24.158 23.4898 24.2423 23.4037 24.3556C23.4037 24.3635 23.1489 24.6505 23.3158 25.1447L25.9188 30.89C25.9667 30.9988 25.9827 31.1129 25.9676 31.2314C25.9516 31.3499 25.9063 31.4553 25.8309 31.5492ZM41.2401 32.4779C41.1949 32.635 41.1274 32.7825 41.0386 32.9203V32.9379C41.0386 32.9379 40.7758 33.3627 40.4686 33.8315L40.3639 33.9965H29.8898L29.8019 33.9096C29.4637 33.5524 29.1964 33.1486 29.0029 32.6982C28.8085 32.2479 28.6975 31.7783 28.6709 31.2885L36.2614 28.1565C36.0954 28.4514 35.9374 28.7639 35.7882 29.0755L36.7435 29.5188C36.9362 29.1106 37.1466 28.7112 37.3658 28.3294C37.5904 27.9475 37.8772 27.6175 38.2252 27.3401C38.4773 27.1347 38.7526 26.9644 39.0491 26.8283L39.4344 26.6721L39.3731 26.2639C39.3642 26.256 39.3385 26.0646 39.2852 25.7785C39.1281 24.841 38.7952 22.8106 38.6629 22.0118C38.6141 21.7002 38.6176 21.3886 38.6753 21.0778C38.7321 20.7662 38.8396 20.4739 38.9967 20.1983C39.1086 20.0376 39.2524 19.9103 39.4273 19.819C39.6022 19.7269 39.7886 19.6795 39.9866 19.6777C40.2582 19.6865 40.3728 19.8252 40.4163 19.9121L41.9592 24.6672L42.2833 25.6652L42.7218 27.0276L41.2401 32.4779Z" fill="#00D280"/>
</g>
<path d="M11.0566 41.2946L11.9905 40.8171L13.205 43.1459L12.2702 43.6235L11.0566 41.2946Z" fill="#00D280"/>
<path d="M3.4668 43.1879L4.68129 40.8591L5.61613 41.3366L4.40164 43.6655L3.4668 43.1879Z" fill="#00D280"/>
<mask id="mask1_1_1004" style="mask-type:luminance" maskUnits="userSpaceOnUse" x="7" y="42" width="2" height="4">
<path d="M7.75 42.1584H8.88637V45.0201H7.75V42.1584Z" fill="white"/>
</mask>
<g mask="url(#mask1_1_1004)">
<path d="M7.75781 44.9708L7.82173 42.3506L8.87375 42.376L8.80894 44.9963L7.75781 44.9708Z" fill="#00D280"/>
</g>
<path d="M33.293 1.98729L34.2278 1.50977L35.4414 3.83859L34.5066 4.31612L33.293 1.98729Z" fill="#00D280"/>
<path d="M40.8828 3.87375L42.0972 1.54492L43.0312 2.02245L41.8176 4.35128L40.8828 3.87375Z" fill="#00D280"/>
<path d="M37.5645 2.77285L37.6293 0.152588L38.6813 0.178045L38.6165 2.7983L37.5645 2.77285Z" fill="#00D280"/>
</g>
</g>
</g>
<defs>
<clipPath id="clip0_1_1004">
<rect width="45" height="45" fill="white" transform="translate(0.160156 0.0200195)"/>
</clipPath>
<clipPath id="clip1_1_1004">
<rect width="45" height="45" fill="white" transform="translate(0.160156 0.0200195)"/>
</clipPath>
<clipPath id="clip2_1_1004">
<rect width="45" height="45" fill="white" transform="translate(0.160156 0.0200195)"/>
</clipPath>
</defs>
</svg>
