<svg width="46" height="46" viewBox="0 0 46 46" fill="none" xmlns="http://www.w3.org/2000/svg">
<g clip-path="url(#clip0_34_937)">
<g clip-path="url(#clip1_34_937)">
<g clip-path="url(#clip2_34_937)">
<mask id="mask0_34_937" style="mask-type:luminance" maskUnits="userSpaceOnUse" x="0" y="0" width="12" height="11">
<path d="M0.47998 0.0200195H11.1474V10.6919H0.47998V0.0200195Z" fill="white"/>
</mask>
<g mask="url(#mask0_34_937)">
<path fill-rule="evenodd" clip-rule="evenodd" d="M2.50137 3.24383L2.8006 6.17306C2.84877 6.64552 2.50323 7.06795 2.03262 7.11797C1.9687 7.12538 2.00853 7.12261 1.94183 7.12261C1.5018 7.12261 1.12939 6.78818 1.08492 6.34907L0.539278 1.0094C0.524456 0.868586 0.545763 0.727775 0.59764 0.599008C0.639327 0.495253 0.703249 0.397056 0.78755 0.312755C0.895938 0.204368 1.02563 0.130257 1.16459 0.0922751C1.26742 0.0626308 1.37581 0.0533669 1.4842 0.0635572L6.82391 0.609198C7.29544 0.65737 7.64284 1.08165 7.59374 1.55411C7.54557 2.02471 7.11943 2.37211 6.64882 2.32301L3.7168 2.02286L10.8019 9.10785C11.1381 9.44412 11.1381 9.99069 10.8 10.3269C10.6379 10.4881 10.4202 10.5761 10.1913 10.5761C9.96252 10.5761 9.7439 10.4872 9.58178 10.3242L2.50137 3.24383Z" fill="#00D280"/>
</g>
<mask id="mask1_34_937" style="mask-type:luminance" maskUnits="userSpaceOnUse" x="34" y="0" width="12" height="11">
<path d="M34.8623 0.0200195H45.4797V10.6919H34.8623V0.0200195Z" fill="white"/>
</mask>
<g mask="url(#mask1_34_937)">
<path fill-rule="evenodd" clip-rule="evenodd" d="M42.2811 2.07298L39.3519 2.37313C38.8794 2.4213 38.4551 2.07484 38.407 1.60238C38.3588 1.13085 38.7053 0.706568 39.1759 0.658396L44.5156 0.112755C44.7731 0.0868164 45.0288 0.177602 45.2122 0.361026C45.3947 0.543523 45.4864 0.800133 45.4605 1.05674L44.9149 6.39735C44.8695 6.83645 44.498 7.17088 44.057 7.17088C43.9903 7.17088 44.0274 7.17273 43.9662 7.16532C43.4966 7.11344 43.1519 6.69194 43.2001 6.22133L43.4993 3.29025L36.4152 10.3761C36.254 10.5373 36.0354 10.6281 35.8066 10.6281C35.5778 10.6281 35.3591 10.5383 35.197 10.3771C34.8598 10.0417 34.8607 9.49425 35.1961 9.15797L42.2811 2.07298Z" fill="#00D280"/>
</g>
<mask id="mask2_34_937" style="mask-type:luminance" maskUnits="userSpaceOnUse" x="0" y="34" width="12" height="12">
<path d="M0.47998 34.4077H11.1474V45.0203H0.47998V34.4077Z" fill="white"/>
</mask>
<g mask="url(#mask2_34_937)">
<path fill-rule="evenodd" clip-rule="evenodd" d="M1.34817 44.9885C1.12028 44.9885 0.90258 44.8996 0.741388 44.7393C0.740461 44.7374 0.739535 44.7365 0.739535 44.7365L0.737682 44.7347C0.606135 44.6031 0.525539 44.4391 0.497747 44.2687C0.485704 44.1937 0.481999 44.1158 0.490336 44.0389L1.03598 38.6993C1.08415 38.2277 1.51029 37.8803 1.98183 37.9304C2.45243 37.9804 2.7989 38.4028 2.7498 38.8753L2.44965 41.8045L9.53376 34.7205C9.87004 34.3842 10.4148 34.3842 10.752 34.7205C11.0883 35.0567 11.0883 35.6024 10.752 35.9386L3.66786 43.0227L6.59896 42.7235C7.07049 42.6753 7.4957 43.0209 7.54388 43.4915C7.59112 43.963 7.24465 44.3882 6.77404 44.4354L1.47046 44.9783C1.45193 44.9811 1.43155 44.9839 1.41302 44.9848C1.39449 44.9885 1.40283 44.9885 1.34817 44.9885Z" fill="#00D280"/>
</g>
<path fill-rule="evenodd" clip-rule="evenodd" d="M22.9752 15.2925C18.9741 15.2925 15.7197 18.5468 15.7197 22.5479C15.7197 26.5499 18.9741 29.8052 22.9752 29.8052C26.9772 29.8052 30.2326 26.5508 30.2326 22.5479C30.2326 18.5478 26.9772 15.2925 22.9752 15.2925Z" fill="#00D280"/>
<path fill-rule="evenodd" clip-rule="evenodd" d="M20.3902 8.45465L19.8678 11.6062C19.8381 11.7905 19.7066 11.9425 19.5296 12.0008C18.9942 12.1759 18.4661 12.3955 17.9594 12.6511C17.7926 12.7373 17.5935 12.7206 17.4415 12.6132L14.8421 10.7521C14.6411 10.6085 14.3372 10.5066 14.1454 10.6993L11.13 13.7146C10.9383 13.9073 11.0393 14.2103 11.1838 14.4113L13.044 17.0098C13.1533 17.1617 13.1681 17.3618 13.0838 17.5286C12.8263 18.0344 12.6067 18.5624 12.4335 19.0988C12.3751 19.2757 12.2223 19.4063 12.0388 19.4369L8.88629 19.9585C8.64172 19.9983 8.35547 20.1428 8.35547 20.4142V24.6784C8.35547 24.9498 8.6408 25.0925 8.88629 25.1342L12.0388 25.6557C12.2223 25.6863 12.3751 25.8169 12.4335 25.9948C12.6076 26.5312 12.8272 27.0592 13.0838 27.5641C13.169 27.7308 13.1524 27.9309 13.044 28.0829L11.1838 30.6814C11.0393 30.8824 10.9383 31.1872 11.13 31.378L14.1454 34.3934C14.3381 34.5861 14.6411 34.4851 14.8421 34.3406L17.4415 32.4795C17.5286 32.4183 17.6315 32.3868 17.7334 32.3868C17.8112 32.3868 17.889 32.4054 17.9594 32.4415C18.4661 32.6981 18.9923 32.9177 19.5296 33.0918C19.7066 33.1502 19.8381 33.3021 19.8678 33.4865L20.3902 36.638C20.4291 36.8835 20.5737 37.1698 20.846 37.1698H25.1093C25.3816 37.1698 25.5243 36.8844 25.566 36.638L26.0875 33.4865C26.1172 33.3021 26.2487 33.1502 26.4257 33.0918C26.9621 32.9177 27.491 32.6972 27.9959 32.4415C28.1627 32.3563 28.3618 32.3729 28.5147 32.4813L31.1132 34.3415C31.3142 34.4851 31.6181 34.587 31.8099 34.3943L34.8253 31.3789C35.018 31.1872 34.917 30.8833 34.7715 30.6832L32.9113 28.0838C32.802 27.9319 32.7872 27.7318 32.8715 27.5659C33.129 27.0592 33.3477 26.5312 33.5228 25.9957C33.5811 25.8188 33.733 25.6872 33.9174 25.6567L37.0699 25.1351C37.1236 25.1258 37.6007 25.0378 37.6007 24.6793V20.4161C37.6007 20.1437 37.3154 20.0011 37.0699 19.9594L33.9183 19.4378C33.734 19.4082 33.582 19.2766 33.5237 19.0997C33.3486 18.5624 33.129 18.0344 32.8724 17.5295C32.7872 17.3627 32.8039 17.1626 32.9123 17.0107L34.7725 14.4122C34.9179 14.2112 35.0189 13.9073 34.8262 13.7156L31.8108 10.7002C31.6181 10.5075 31.3152 10.6085 31.1141 10.7539L28.5156 12.6141C28.3637 12.7234 28.1636 12.7382 27.9968 12.653C27.491 12.3955 26.9639 12.1768 26.4266 12.0018C26.2497 11.9434 26.1181 11.7915 26.0885 11.6071L25.5669 8.45465C25.5271 8.21008 25.3826 7.92383 25.1102 7.92383H20.847C20.5737 7.92383 20.4301 8.20916 20.3902 8.45465ZM14.7198 22.5468C14.7198 17.9927 18.4244 14.289 22.9767 14.289C27.5318 14.289 31.2355 17.9936 31.2355 22.5468C31.2355 27.1018 27.5318 30.8055 22.9767 30.8055C18.4226 30.8055 14.7198 27.1009 14.7198 22.5468Z" fill="#00D280"/>
<mask id="mask3_34_937" style="mask-type:luminance" maskUnits="userSpaceOnUse" x="34" y="34" width="12" height="12">
<path d="M34.8623 34.4077H45.4797V45.0203H34.8623V34.4077Z" fill="white"/>
</mask>
<g mask="url(#mask3_34_937)">
<path fill-rule="evenodd" clip-rule="evenodd" d="M44.6043 44.9885C44.8321 44.9885 45.0498 44.8996 45.211 44.7393C45.212 44.7374 45.2129 44.7365 45.2129 44.7365L45.2147 44.7347C45.3463 44.6031 45.4269 44.4391 45.4547 44.2687C45.4667 44.1937 45.4704 44.1158 45.4621 44.0389L44.9164 38.6993C44.8683 38.2277 44.4421 37.8803 43.9706 37.9304C43.5 37.9804 43.1535 38.4028 43.2026 38.8753L43.5028 41.8045L36.4187 34.7205C36.0824 34.3842 35.5377 34.3842 35.2005 34.7205C34.8642 35.0567 34.8642 35.6024 35.2005 35.9386L42.2846 43.0227L39.3535 42.7235C38.8819 42.6753 38.4567 43.0209 38.4086 43.4915C38.3613 43.963 38.7078 44.3882 39.1784 44.4354L44.482 44.9783C44.5005 44.9811 44.5209 44.9839 44.5394 44.9848C44.5579 44.9885 44.5496 44.9885 44.6043 44.9885Z" fill="#00D280"/>
</g>
</g>
</g>
</g>
<defs>
<clipPath id="clip0_34_937">
<rect width="45" height="45" fill="white" transform="translate(0.47998 0.0200195)"/>
</clipPath>
<clipPath id="clip1_34_937">
<rect width="45" height="45" fill="white" transform="translate(0.47998 0.0200195)"/>
</clipPath>
<clipPath id="clip2_34_937">
<rect width="45" height="45" fill="white" transform="translate(0.47998 0.0200195)"/>
</clipPath>
</defs>
</svg>
