<svg width="46" height="46" viewBox="0 0 46 46" fill="none" xmlns="http://www.w3.org/2000/svg">
<g clip-path="url(#clip0_1_976)">
<g clip-path="url(#clip1_1_976)">
<g clip-path="url(#clip2_1_976)">
<mask id="mask0_1_976" style="mask-type:luminance" maskUnits="userSpaceOnUse" x="0" y="0" width="12" height="11">
<path d="M0.480469 0.0200195H11.1479V10.6919H0.480469V0.0200195Z" fill="white"/>
</mask>
<g mask="url(#mask0_1_976)">
<path fill-rule="evenodd" clip-rule="evenodd" d="M2.50186 3.24383L2.80109 6.17306C2.84926 6.64552 2.50372 7.06795 2.03311 7.11797C1.96919 7.12538 2.00902 7.12261 1.94232 7.12261C1.50229 7.12261 1.12988 6.78818 1.08541 6.34907L0.539766 1.0094C0.524944 0.868586 0.546251 0.727775 0.598129 0.599008C0.639816 0.495253 0.703738 0.397056 0.788039 0.312755C0.896427 0.204368 1.02612 0.130257 1.16508 0.0922751C1.26791 0.0626308 1.3763 0.0533669 1.48469 0.0635572L6.8244 0.609198C7.29593 0.65737 7.64333 1.08165 7.59423 1.55411C7.54606 2.02471 7.11992 2.37211 6.64931 2.32301L3.71729 2.02286L10.8024 9.10785C11.1386 9.44412 11.1386 9.99069 10.8005 10.3269C10.6384 10.4881 10.4206 10.5761 10.1918 10.5761C9.96301 10.5761 9.74439 10.4872 9.58227 10.3242L2.50186 3.24383Z" fill="#00D280"/>
</g>
<mask id="mask1_1_976" style="mask-type:luminance" maskUnits="userSpaceOnUse" x="34" y="0" width="12" height="11">
<path d="M34.8633 0.0200195H45.4807V10.6919H34.8633V0.0200195Z" fill="white"/>
</mask>
<g mask="url(#mask1_1_976)">
<path fill-rule="evenodd" clip-rule="evenodd" d="M42.2821 2.07298L39.3529 2.37313C38.8804 2.4213 38.4561 2.07484 38.408 1.60238C38.3598 1.13085 38.7063 0.706568 39.1769 0.658396L44.5166 0.112755C44.7741 0.0868164 45.0298 0.177602 45.2132 0.361026C45.3957 0.543523 45.4874 0.800133 45.4615 1.05674L44.9159 6.39735C44.8705 6.83645 44.499 7.17088 44.058 7.17088C43.9913 7.17088 44.0284 7.17273 43.9672 7.16532C43.4976 7.11344 43.1529 6.69194 43.2011 6.22133L43.5003 3.29025L36.4162 10.3761C36.255 10.5373 36.0364 10.6281 35.8076 10.6281C35.5788 10.6281 35.3601 10.5383 35.198 10.3771C34.8608 10.0417 34.8617 9.49425 35.1971 9.15797L42.2821 2.07298Z" fill="#00D280"/>
</g>
<mask id="mask2_1_976" style="mask-type:luminance" maskUnits="userSpaceOnUse" x="0" y="34" width="12" height="12">
<path d="M0.480469 34.4075H11.1479V45.0201H0.480469V34.4075Z" fill="white"/>
</mask>
<g mask="url(#mask2_1_976)">
<path fill-rule="evenodd" clip-rule="evenodd" d="M1.34866 44.9885C1.12077 44.9885 0.903069 44.8996 0.741877 44.7393C0.74095 44.7374 0.740024 44.7365 0.740024 44.7365L0.738171 44.7347C0.606624 44.6031 0.526028 44.4391 0.498236 44.2687C0.486193 44.1937 0.482487 44.1158 0.490825 44.0389L1.03647 38.6993C1.08464 38.2277 1.51078 37.8803 1.98232 37.9304C2.45292 37.9804 2.79939 38.4028 2.75029 38.8753L2.45014 41.8045L9.53425 34.7205C9.87053 34.3842 10.4152 34.3842 10.7525 34.7205C11.0888 35.0567 11.0888 35.6024 10.7525 35.9386L3.66835 43.0227L6.59945 42.7235C7.07098 42.6753 7.49619 43.0209 7.54437 43.4915C7.59161 43.963 7.24514 44.3882 6.77453 44.4354L1.47095 44.9783C1.45242 44.9811 1.43204 44.9839 1.41351 44.9848C1.39498 44.9885 1.40332 44.9885 1.34866 44.9885Z" fill="#00D280"/>
</g>
<path fill-rule="evenodd" clip-rule="evenodd" d="M22.9762 15.2925C18.9751 15.2925 15.7207 18.5468 15.7207 22.5479C15.7207 26.5499 18.9751 29.8052 22.9762 29.8052C26.9782 29.8052 30.2336 26.5508 30.2336 22.5479C30.2336 18.5478 26.9782 15.2925 22.9762 15.2925Z" fill="#00D280"/>
<path fill-rule="evenodd" clip-rule="evenodd" d="M20.3902 8.45465L19.8678 11.6062C19.8381 11.7905 19.7066 11.9425 19.5296 12.0008C18.9942 12.1759 18.4661 12.3955 17.9594 12.6511C17.7926 12.7373 17.5935 12.7206 17.4415 12.6132L14.8421 10.7521C14.6411 10.6085 14.3372 10.5066 14.1454 10.6993L11.13 13.7146C10.9383 13.9073 11.0393 14.2103 11.1838 14.4113L13.044 17.0098C13.1533 17.1617 13.1681 17.3618 13.0838 17.5286C12.8263 18.0344 12.6067 18.5624 12.4335 19.0988C12.3751 19.2757 12.2223 19.4063 12.0388 19.4369L8.88629 19.9585C8.64172 19.9983 8.35547 20.1428 8.35547 20.4142V24.6784C8.35547 24.9498 8.6408 25.0925 8.88629 25.1342L12.0388 25.6557C12.2223 25.6863 12.3751 25.8169 12.4335 25.9948C12.6076 26.5312 12.8272 27.0592 13.0838 27.5641C13.169 27.7308 13.1524 27.9309 13.044 28.0829L11.1838 30.6814C11.0393 30.8824 10.9383 31.1872 11.13 31.378L14.1454 34.3934C14.3381 34.5861 14.6411 34.4851 14.8421 34.3406L17.4415 32.4795C17.5286 32.4183 17.6315 32.3868 17.7334 32.3868C17.8112 32.3868 17.889 32.4054 17.9594 32.4415C18.4661 32.6981 18.9923 32.9177 19.5296 33.0918C19.7066 33.1502 19.8381 33.3021 19.8678 33.4865L20.3902 36.638C20.4291 36.8835 20.5737 37.1698 20.846 37.1698H25.1093C25.3816 37.1698 25.5243 36.8844 25.566 36.638L26.0875 33.4865C26.1172 33.3021 26.2487 33.1502 26.4257 33.0918C26.9621 32.9177 27.491 32.6972 27.9959 32.4415C28.1627 32.3563 28.3618 32.3729 28.5147 32.4813L31.1132 34.3415C31.3142 34.4851 31.6181 34.587 31.8099 34.3943L34.8253 31.3789C35.018 31.1872 34.917 30.8833 34.7715 30.6832L32.9113 28.0838C32.802 27.9319 32.7872 27.7318 32.8715 27.5659C33.129 27.0592 33.3477 26.5312 33.5228 25.9957C33.5811 25.8188 33.733 25.6872 33.9174 25.6567L37.0699 25.1351C37.1236 25.1258 37.6007 25.0378 37.6007 24.6793V20.4161C37.6007 20.1437 37.3154 20.0011 37.0699 19.9594L33.9183 19.4378C33.734 19.4082 33.582 19.2766 33.5237 19.0997C33.3486 18.5624 33.129 18.0344 32.8724 17.5295C32.7872 17.3627 32.8039 17.1626 32.9123 17.0107L34.7725 14.4122C34.9179 14.2112 35.0189 13.9073 34.8262 13.7156L31.8108 10.7002C31.6181 10.5075 31.3152 10.6085 31.1141 10.7539L28.5156 12.6141C28.3637 12.7234 28.1636 12.7382 27.9968 12.653C27.491 12.3955 26.9639 12.1768 26.4266 12.0018C26.2497 11.9434 26.1181 11.7915 26.0885 11.6071L25.5669 8.45465C25.5271 8.21008 25.3826 7.92383 25.1102 7.92383H20.847C20.5737 7.92383 20.4301 8.20916 20.3902 8.45465ZM14.7198 22.5468C14.7198 17.9927 18.4244 14.289 22.9767 14.289C27.5318 14.289 31.2355 17.9936 31.2355 22.5468C31.2355 27.1018 27.5318 30.8055 22.9767 30.8055C18.4226 30.8055 14.7198 27.1009 14.7198 22.5468Z" fill="#00D280"/>
<mask id="mask3_1_976" style="mask-type:luminance" maskUnits="userSpaceOnUse" x="34" y="34" width="12" height="12">
<path d="M34.8633 34.4075H45.4807V45.0201H34.8633V34.4075Z" fill="white"/>
</mask>
<g mask="url(#mask3_1_976)">
<path fill-rule="evenodd" clip-rule="evenodd" d="M44.6052 44.9885C44.833 44.9885 45.0507 44.8996 45.2119 44.7393C45.2129 44.7374 45.2138 44.7365 45.2138 44.7365L45.2156 44.7347C45.3472 44.6031 45.4278 44.4391 45.4556 44.2687C45.4676 44.1937 45.4713 44.1158 45.463 44.0389L44.9173 38.6993C44.8692 38.2277 44.443 37.8803 43.9715 37.9304C43.5009 37.9804 43.1544 38.4028 43.2035 38.8753L43.5037 41.8045L36.4196 34.7205C36.0833 34.3842 35.5386 34.3842 35.2014 34.7205C34.8651 35.0567 34.8651 35.6024 35.2014 35.9386L42.2855 43.0227L39.3544 42.7235C38.8828 42.6753 38.4576 43.0209 38.4095 43.4915C38.3622 43.963 38.7087 44.3882 39.1793 44.4354L44.4829 44.9783C44.5014 44.9811 44.5218 44.9839 44.5403 44.9848C44.5588 44.9885 44.5505 44.9885 44.6052 44.9885Z" fill="#00D280"/>
</g>
</g>
</g>
</g>
<defs>
<clipPath id="clip0_1_976">
<rect width="45" height="45" fill="white" transform="translate(0.480469 0.0200195)"/>
</clipPath>
<clipPath id="clip1_1_976">
<rect width="45" height="45" fill="white" transform="translate(0.480469 0.0200195)"/>
</clipPath>
<clipPath id="clip2_1_976">
<rect width="45" height="45" fill="white" transform="translate(0.480469 0.0200195)"/>
</clipPath>
</defs>
</svg>
