<svg width="46" height="46" viewBox="0 0 46 46" fill="none" xmlns="http://www.w3.org/2000/svg">
<g clip-path="url(#clip0_34_965)">
<g clip-path="url(#clip1_34_965)">
<g clip-path="url(#clip2_34_965)">
<mask id="mask0_34_965" style="mask-type:luminance" maskUnits="userSpaceOnUse" x="0" y="0" width="46" height="46">
<path d="M0.160156 0.0200195H45.1602V45.02H0.160156V0.0200195Z" fill="white"/>
</mask>
<g mask="url(#mask0_34_965)">
<path d="M44.9386 22.264C44.9386 22.2553 44.9306 22.2465 44.9306 22.2377L37.6908 5.08178L30.7048 7.97152C30.7918 7.15604 30.7918 6.00172 30.3452 5.16868C30.2751 5.03876 30.197 4.91324 30.1126 4.79298C30.0274 4.67184 29.936 4.55597 29.8374 4.44537C29.7389 4.33564 29.6341 4.23118 29.5232 4.13287C29.4122 4.03455 29.2968 3.94238 29.1751 3.85811C29.0535 3.77296 28.9275 3.69484 28.7969 3.62462C28.6664 3.55439 28.5315 3.49119 28.3939 3.43676C28.2554 3.38146 28.1151 3.33494 27.9713 3.29544C27.8284 3.25681 27.6828 3.22609 27.5354 3.20414C27.3889 3.1822 27.2407 3.16815 27.0924 3.16377C26.9433 3.1585 26.795 3.16201 26.6467 3.17342C26.4985 3.18571 26.3511 3.2059 26.2055 3.23487C26.0599 3.26384 25.9161 3.30158 25.774 3.34635C25.6329 3.392 25.4944 3.44554 25.3594 3.50699C25.2236 3.56844 25.0931 3.6369 24.9653 3.71327C24.8383 3.78964 24.7158 3.87303 24.5986 3.96433C24.4814 4.05474 24.3696 4.1513 24.2639 4.25488C24.1583 4.35846 24.058 4.46731 23.9647 4.5823C23.8715 4.69642 23.7854 4.81668 23.7064 4.94133C23.6274 5.06598 23.5564 5.19501 23.4915 5.32756C23.4276 5.46099 23.3717 5.59705 23.3238 5.73662C23.2758 5.87532 23.2359 6.01752 23.2048 6.16148C23.1737 6.30544 23.1506 6.45028 23.1364 6.59687C23.1213 6.74347 23.116 6.89094 23.1187 7.03753C23.1222 7.18501 23.1338 7.3316 23.1533 7.47732C23.1737 7.62391 23.2021 7.76787 23.2394 7.91095C23.2758 8.05316 23.3211 8.19361 23.3752 8.33055C23.4285 8.46836 23.4898 8.60179 23.559 8.73258C23.6283 8.8625 23.7046 8.9889 23.789 9.11004C23.8724 9.23205 23.963 9.34793 24.0606 9.45941C24.1583 9.57089 24.2621 9.67535 24.3722 9.77454C24.4823 9.87373 24.5977 9.96678 24.7185 10.0528C24.8392 10.1389 24.9644 10.217 25.0949 10.289L17.6268 13.3692C17.4582 12.8434 17.2096 12.358 16.882 11.9112C16.9761 11.8603 17.0613 11.7971 17.1359 11.7207C17.3312 11.5328 17.4306 11.3046 17.4342 11.0351L17.3996 8.17166H17.9953C18.14 8.16903 18.2625 8.11724 18.3637 8.01541C18.4711 7.91359 18.5235 7.78894 18.5208 7.64234L18.4161 0.0405273L17.3641 0.0572056L17.4608 7.1297L3.40983 7.23416L3.31395 0.0405273L2.26193 0.0572056L2.35781 7.77226C2.36047 7.83985 2.37467 7.90569 2.4022 7.96801C2.42972 8.03034 2.46789 8.08564 2.51672 8.13304C2.56555 8.18044 2.62237 8.21819 2.6854 8.24364C2.74932 8.26998 2.81501 8.28314 2.88426 8.28402H3.49772C3.49772 8.31036 3.53234 11.1475 3.53234 11.1475C3.53767 11.3037 3.57673 11.4494 3.65131 11.5873C3.72499 11.7242 3.82531 11.8383 3.95315 11.9287L3.56786 12.5362C3.41871 12.7705 3.21718 13.3516 3.21718 13.3516H3.2083L1.67421 19.0188L2.07815 20.2512L1.5082 20.5023C1.24364 20.6181 1.01192 20.7797 0.81217 20.9868C0.613306 21.1949 0.462383 21.4328 0.3594 21.7005C0.258193 21.9673 0.212916 22.2438 0.221794 22.53C0.230671 22.8153 0.294592 23.0883 0.412667 23.349L8.20475 40.583L15.5059 37.3465C15.6382 37.2904 15.7465 37.2043 15.8317 37.0893C15.9161 36.9743 15.9658 36.8453 15.9791 36.704C15.9933 36.5618 15.9694 36.4266 15.9081 36.2976C15.8468 36.1685 15.7563 36.0641 15.6373 35.9842C14.6998 35.3328 14.0509 34.6297 13.8582 34.0574C13.8218 33.9503 13.7916 33.8415 13.7685 33.7308C13.7455 33.6202 13.7295 33.5088 13.7197 33.3964C13.7108 33.2832 13.7082 33.1708 13.7135 33.0576C13.7179 32.9452 13.7295 32.8328 13.7481 32.7214C13.7668 32.6099 13.7925 32.5002 13.8245 32.3913C13.8573 32.2833 13.8955 32.1771 13.9408 32.0735C13.9869 31.97 14.0384 31.869 14.0961 31.7716C14.1538 31.675 14.2178 31.5811 14.287 31.4916C14.3562 31.402 14.4317 31.3169 14.5116 31.2361C14.5915 31.1554 14.6759 31.0799 14.7655 31.0096C14.8552 30.9394 14.9484 30.8753 15.0452 30.8165C15.1428 30.7577 15.2431 30.705 15.347 30.6576C15.4518 30.6111 15.5574 30.5707 15.6666 30.5374C15.7758 30.504 15.8859 30.4768 15.9987 30.4566C16.1105 30.4364 16.2241 30.4224 16.3378 30.4162C16.4514 30.4092 16.5659 30.4101 16.6796 30.4171C16.7932 30.4241 16.906 30.4391 17.0187 30.4601C17.1306 30.4803 17.2407 30.5084 17.3499 30.5426C17.4582 30.5778 17.5647 30.6181 17.6677 30.6655C17.7716 30.7129 17.8719 30.7665 17.9686 30.8262C18.0654 30.8859 18.1586 30.9508 18.2474 31.0219C18.3362 31.0922 18.4205 31.1685 18.5004 31.2493C18.5794 31.3309 18.654 31.4161 18.7224 31.5065C18.7916 31.596 18.8547 31.6899 18.9115 31.7883C18.9692 31.8857 19.0198 31.9866 19.0651 32.0902C19.1094 32.1947 19.1476 32.3009 19.1787 32.4089C19.2107 32.5177 19.2355 32.6274 19.2533 32.7398C19.271 32.8513 19.2817 32.9636 19.2861 33.076C19.2897 33.1892 19.287 33.3016 19.2772 33.414C19.2666 33.5272 19.2497 33.6387 19.2257 33.7493C19.2027 33.859 19.1716 33.9679 19.1343 34.0749C19.097 34.1812 19.0535 34.2856 19.0029 34.3874C18.9701 34.4542 18.9488 34.5244 18.9372 34.5981C18.9266 34.6719 18.9266 34.7456 18.9381 34.8193C18.9496 34.8922 18.9718 34.9624 19.0056 35.0291C19.0393 35.0958 19.0819 35.1564 19.1334 35.21C19.1858 35.2644 19.2444 35.3091 19.3101 35.3451C19.3767 35.3811 19.4459 35.4066 19.5196 35.4215C19.5933 35.4364 19.6679 35.4399 19.7424 35.432C19.8179 35.4241 19.8898 35.4057 19.9582 35.3767L26.0244 32.6863C26.32 32.5599 26.5571 32.3632 26.7337 32.0964L27.6544 31.7233C27.7609 32.5967 28.077 33.3894 28.6007 34.1004C28.5066 34.1548 28.4214 34.2215 28.3468 34.3005C28.251 34.391 28.1773 34.4963 28.1258 34.6174C28.0743 34.7377 28.0485 34.8632 28.0485 34.9949L28.0929 37.8495H27.4963C27.3525 37.8513 27.2291 37.9031 27.1288 38.0058C27.0187 38.1067 26.969 38.2314 26.9797 38.3788L27.0755 44.9308H28.1276L28.0308 38.8994L42.0817 38.787L42.1776 44.9396H43.2297L43.1338 38.2665C43.132 38.1971 43.1169 38.1322 43.0903 38.069C43.0627 38.0058 43.0246 37.9505 42.9757 37.9013C42.9269 37.853 42.8701 37.8153 42.8071 37.7881C42.7431 37.7617 42.6766 37.7468 42.6073 37.7451H41.9939C41.9939 37.7284 42.0027 37.7021 42.0027 37.6845L41.9592 34.8904C41.9592 34.7333 41.9219 34.5858 41.8474 34.448C41.7728 34.3093 41.6698 34.197 41.5384 34.1092C41.74 33.7879 41.898 33.5456 41.9237 33.493C42.0764 33.263 42.1874 33.0137 42.2566 32.7468L42.2744 32.6863H42.2833L43.8174 27.0112L43.2563 25.2582L43.7641 25.0493C43.8955 24.9967 44.0207 24.9317 44.1387 24.8544C44.2568 24.7763 44.366 24.6885 44.4663 24.5902C44.5667 24.491 44.6572 24.3839 44.7362 24.2672C44.8152 24.1504 44.8818 24.0284 44.9369 23.8985C44.991 23.7695 45.0327 23.6361 45.0603 23.4982C45.0878 23.3604 45.102 23.2217 45.1029 23.0813C45.1029 22.9417 45.0887 22.8021 45.0612 22.6652C45.0336 22.5274 44.9928 22.394 44.9386 22.264ZM4.25145 13.5342C4.29673 13.3771 4.3642 13.2296 4.45298 13.0918C4.45298 13.0918 4.72464 12.6582 5.03181 12.1894L15.6897 12.1025C15.9179 12.3413 16.1141 12.6038 16.2783 12.8899C16.4425 13.1761 16.5713 13.4781 16.6627 13.7949L8.21363 17.5344L8.12574 17.6819C7.53004 18.7238 6.45138 19.1838 6.4425 19.1838L6.0572 19.3401C6.0572 19.3401 6.66178 22.9584 6.82869 24.0082C6.87752 24.3207 6.87396 24.6324 6.81626 24.9431C6.75944 25.2539 6.65202 25.547 6.49488 25.8218C6.38213 25.9824 6.23831 26.108 6.06342 26.1984C5.88852 26.2888 5.70209 26.3336 5.505 26.3344C5.23334 26.3257 5.11881 26.1861 5.07531 26.1088L3.36633 20.8236L3.04229 19.8255L2.76974 18.9924L4.25145 13.5342ZM25.8309 31.5495C25.7714 31.6346 25.6924 31.6952 25.5947 31.7321L20.2218 34.118C20.2574 33.9758 20.2849 33.8309 20.3044 33.6852C20.323 33.5395 20.3337 33.3929 20.3364 33.2463C20.3381 33.0988 20.331 32.9522 20.3159 32.8056C20.3009 32.6599 20.2778 32.5151 20.2449 32.3711C20.213 32.228 20.1721 32.0867 20.1242 31.9471C20.0754 31.8084 20.0185 31.6733 19.9537 31.5407C19.8889 31.4082 19.817 31.28 19.7371 31.1554C19.6581 31.0316 19.5711 30.9122 19.4779 30.7981C19.3838 30.684 19.2843 30.576 19.1778 30.4733C19.0713 30.3706 18.9594 30.274 18.8413 30.1836C18.7241 30.0941 18.6016 30.0116 18.4747 29.9352C18.3468 29.8597 18.2154 29.7912 18.0805 29.7307C17.9456 29.6701 17.8071 29.6174 17.665 29.5727C17.5239 29.5279 17.38 29.491 17.2344 29.4629C17.0888 29.4349 16.9415 29.4147 16.7941 29.4033C16.6458 29.3918 16.4976 29.3892 16.3493 29.3945C16.2002 29.4006 16.0528 29.4147 15.9063 29.4366C15.7589 29.4594 15.6142 29.4902 15.4713 29.5297C15.3284 29.5683 15.1872 29.6157 15.0496 29.671C14.912 29.7263 14.7788 29.7895 14.6483 29.8606C14.5178 29.9308 14.3926 30.0089 14.271 30.0941C14.1503 30.1792 14.034 30.2705 13.9239 30.3697C13.8138 30.468 13.7091 30.5725 13.6114 30.6822C13.5129 30.7928 13.4214 30.9087 13.3371 31.0298C13.2527 31.1501 13.1755 31.2756 13.1054 31.4055C13.0352 31.5354 12.9731 31.6689 12.9189 31.8058C12.8648 31.9428 12.8186 32.0823 12.7804 32.2237C12.7431 32.3659 12.7138 32.5098 12.6925 32.6555C12.6712 32.8012 12.6588 32.9478 12.6553 33.0944C12.6508 33.2419 12.6553 33.3885 12.6686 33.5351C12.6819 33.6817 12.7041 33.8265 12.7343 33.9705C12.7645 34.1145 12.8035 34.2558 12.8497 34.3953C13.148 35.2547 13.9461 36.0184 14.6732 36.5741L8.72144 39.2119L1.35905 22.9233C1.2969 22.789 1.26406 22.6476 1.26139 22.5002C1.25873 22.3527 1.28536 22.2105 1.34129 22.0736C1.39367 21.9357 1.47091 21.8137 1.57212 21.7066C1.67421 21.5995 1.79318 21.517 1.92901 21.4573L2.39332 21.2484L4.11118 26.5513C4.1751 26.6733 4.25411 26.7848 4.34911 26.8857C4.44321 26.9866 4.54886 27.0735 4.66693 27.1455C4.78501 27.2184 4.91107 27.2737 5.04424 27.3132C5.17741 27.3518 5.31324 27.3729 5.45262 27.3755C5.45262 27.3755 6.81981 27.401 7.38089 26.3687V26.3511C7.60017 25.9701 7.75021 25.5637 7.83011 25.1327C7.90912 24.7008 7.91445 24.2681 7.8452 23.8344C7.71381 23.0014 7.35426 20.8236 7.20511 19.9475C7.91622 19.556 8.49506 19.024 8.94073 18.3508L17.8373 14.4024C17.8373 14.4024 18.0832 14.2628 18.2758 14.3067C18.401 14.3699 18.4915 14.4647 18.5475 14.5929L21.2996 20.8236C21.328 20.8929 21.3662 20.9561 21.4141 21.0132C21.4621 21.0702 21.5189 21.1194 21.5819 21.1589C21.6458 21.1984 21.7142 21.2273 21.787 21.2458C21.8607 21.2642 21.9344 21.2712 22.0098 21.266C22.1625 21.2563 22.3001 21.2045 22.4218 21.1106C22.5434 21.0175 22.6277 20.899 22.6757 20.7542C22.705 20.6471 22.7396 20.5418 22.7822 20.4391C22.8239 20.3364 22.8719 20.2363 22.926 20.1389C22.9802 20.0423 23.0406 19.9484 23.1063 19.8588C23.1719 19.7693 23.243 19.6833 23.3184 19.6025C23.3948 19.5209 23.4765 19.4445 23.5617 19.3734C23.6478 19.3014 23.7375 19.2356 23.8307 19.175C23.9248 19.1145 24.0224 19.0592 24.1228 19.0109C24.2231 18.9617 24.327 18.9196 24.4326 18.8827C24.5382 18.8467 24.6457 18.8169 24.7558 18.7932C24.865 18.7704 24.9759 18.7537 25.0869 18.7431C25.1988 18.7335 25.3106 18.73 25.4225 18.7335C25.5343 18.737 25.6462 18.7475 25.7563 18.7642C25.8673 18.7818 25.9765 18.8055 26.0848 18.8353C26.1922 18.8652 26.2978 18.902 26.4008 18.945C26.5047 18.9881 26.605 19.0372 26.7018 19.0925C26.7994 19.1469 26.8927 19.2084 26.9823 19.2742C27.072 19.3409 27.1572 19.412 27.238 19.4893C27.3197 19.5657 27.3951 19.6473 27.4662 19.7333C27.5372 19.8193 27.602 19.9089 27.6624 20.0028C27.7218 20.0967 27.776 20.1933 27.8239 20.2942C27.8719 20.3943 27.9127 20.497 27.9482 20.6023C27.9828 20.7077 28.0121 20.8148 28.0335 20.9236C28.0556 21.0325 28.0707 21.1422 28.0796 21.2528C28.0876 21.3634 28.0894 21.474 28.0841 21.5846C28.0787 21.6952 28.0672 21.8058 28.0477 21.9147C28.029 22.0244 28.0033 22.1324 27.9713 22.2386C27.9393 22.3448 27.9012 22.4484 27.8559 22.5502C27.8106 22.652 27.76 22.7503 27.7032 22.846C27.6455 22.9408 27.5833 23.033 27.515 23.1208C27.4466 23.2086 27.3729 23.292 27.2939 23.371C27.2149 23.45 27.1324 23.5237 27.0445 23.593C26.9566 23.6615 26.8642 23.7247 26.7692 23.7826C26.0066 24.2084 24.6741 24.1039 24.1396 24.0434C23.9976 24.0267 23.8609 24.0469 23.7295 24.103C23.5981 24.1583 23.4898 24.2426 23.4037 24.3559C23.4037 24.3638 23.1489 24.6508 23.3158 25.145L25.9188 30.8903C25.9667 30.9991 25.9827 31.1132 25.9676 31.2317C25.9516 31.3502 25.9063 31.4556 25.8309 31.5495ZM41.2401 32.4782C41.1949 32.6353 41.1274 32.7828 41.0386 32.9206V32.9382C41.0386 32.9382 40.7758 33.363 40.4686 33.8318L40.3639 33.9968H29.8898L29.8019 33.9099C29.4637 33.5527 29.1964 33.1489 29.0029 32.6985C28.8085 32.2482 28.6975 31.7786 28.6709 31.2888L36.2614 28.1568C36.0954 28.4517 35.9374 28.7642 35.7882 29.0758L36.7435 29.5191C36.9362 29.1109 37.1466 28.7115 37.3658 28.3297C37.5904 27.9478 37.8772 27.6178 38.2252 27.3404C38.4773 27.135 38.7526 26.9647 39.0491 26.8286L39.4344 26.6724L39.3731 26.2642C39.3642 26.2563 39.3385 26.0649 39.2852 25.7788C39.1281 24.8413 38.7952 22.8109 38.6629 22.0121C38.6141 21.7005 38.6176 21.3889 38.6753 21.0781C38.7321 20.7665 38.8396 20.4742 38.9967 20.1986C39.1086 20.0379 39.2524 19.9106 39.4273 19.8193C39.6022 19.7272 39.7886 19.6798 39.9866 19.678C40.2582 19.6868 40.3728 19.8255 40.4163 19.9124L41.9592 24.6675L42.2833 25.6655L42.7218 27.0279L41.2401 32.4782Z" fill="#00D280"/>
</g>
<path d="M11.0566 41.2944L11.9905 40.8169L13.205 43.1457L12.2702 43.6233L11.0566 41.2944Z" fill="#00D280"/>
<path d="M3.4668 43.1877L4.68129 40.8589L5.61613 41.3364L4.40164 43.6653L3.4668 43.1877Z" fill="#00D280"/>
<mask id="mask1_34_965" style="mask-type:luminance" maskUnits="userSpaceOnUse" x="7" y="42" width="2" height="4">
<path d="M7.75 42.1582H8.88637V45.0199H7.75V42.1582Z" fill="white"/>
</mask>
<g mask="url(#mask1_34_965)">
<path d="M7.75781 44.9708L7.82173 42.3506L8.87375 42.376L8.80894 44.9963L7.75781 44.9708Z" fill="#00D280"/>
</g>
<path d="M33.293 1.98729L34.2278 1.50977L35.4414 3.83859L34.5066 4.31612L33.293 1.98729Z" fill="#00D280"/>
<path d="M40.8828 3.87375L42.0972 1.54492L43.0312 2.02245L41.8176 4.35128L40.8828 3.87375Z" fill="#00D280"/>
<path d="M37.5645 2.77261L37.6293 0.152344L38.6813 0.177801L38.6165 2.79806L37.5645 2.77261Z" fill="#00D280"/>
</g>
</g>
</g>
<defs>
<clipPath id="clip0_34_965">
<rect width="45" height="45" fill="white" transform="translate(0.160156 0.0200195)"/>
</clipPath>
<clipPath id="clip1_34_965">
<rect width="45" height="45" fill="white" transform="translate(0.160156 0.0200195)"/>
</clipPath>
<clipPath id="clip2_34_965">
<rect width="45" height="45" fill="white" transform="translate(0.160156 0.0200195)"/>
</clipPath>
</defs>
</svg>
