<svg width="51" height="56" viewBox="0 0 51 56" fill="none" xmlns="http://www.w3.org/2000/svg">
<g clip-path="url(#clip0_34_292)">
<g clip-path="url(#clip1_34_292)">
<g clip-path="url(#clip2_34_292)">
<mask id="mask0_34_292" style="mask-type:luminance" maskUnits="userSpaceOnUse" x="0" y="0" width="50" height="56">
<path d="M0.832031 0.5H49.8447V55.5H0.832031V0.5Z" fill="white"/>
</mask>
<g mask="url(#mask0_34_292)">
<path fill-rule="evenodd" clip-rule="evenodd" d="M25.5378 8.76271C29.7955 11.539 33.5042 13.5774 34.0103 18.6448H0.909759C1.41444 13.5774 5.12326 11.539 9.38076 8.76271C9.5935 8.81152 9.81649 8.83737 10.0439 8.83737H24.8747C25.1022 8.83737 25.3252 8.81152 25.5378 8.76271ZM21.8789 43.9183L29.1117 39.8256C31.2332 43.4288 33.0156 46.4549 35.4084 50.5187L28.1772 54.6114C25.1814 56.3068 21.3038 55.2875 19.5741 52.3518C17.843 49.4106 18.8802 45.6151 21.8789 43.9183ZM31.7935 38.3068L44.5807 45.3135C45.0444 45.0121 45.4566 44.6576 45.8132 44.2629L33.3428 37.4298L31.7935 38.3068ZM35.2148 36.3704L46.8239 42.731C47.0411 42.2617 47.1981 41.7679 47.2919 41.2611L36.7655 35.4934L35.2148 36.3704ZM38.6934 34.4627C41.5952 33.2855 44.9857 34.4138 46.5569 37.081C46.9515 37.7513 47.2025 38.4662 47.3183 39.1897L38.6934 34.4627ZM42.719 46.3816L31.5001 40.2333L33.001 42.7813L41.1698 47.2586L42.719 46.3816ZM39.2963 48.3181L34.8143 45.862L37.0209 49.6057L39.2963 48.3181ZM35.2456 52.7208V55.4338H43.595C47.0587 55.4338 49.8917 52.6548 49.8917 49.2599C49.8917 47.4568 49.0921 45.8275 47.8245 44.6963C47.1585 45.6537 46.2708 46.482 45.1837 47.0965L35.2456 52.7208ZM30.454 55.4338H33.3824V53.7758L30.454 55.4338ZM10.0439 0.604736H24.8747C25.4484 0.604736 25.9194 1.06553 25.9194 1.62825V5.98645C25.9194 6.54917 25.4484 7.00997 24.8747 7.00997H10.0439C9.46879 7.00997 8.99933 6.54917 8.99933 5.98645V1.62825C8.99933 1.06553 9.46879 0.604736 10.0439 0.604736ZM0.849609 20.4721V44.5226H18.4606C19.1075 43.6541 19.9424 42.9034 20.9474 42.3349L34.0691 34.9075V20.4721C21.9933 20.4721 28.4544 20.4721 0.849609 20.4721ZM16.3671 25.9487H18.553C19.1941 25.9487 19.7179 26.4625 19.7179 27.0912V30.2838H22.9748C23.616 30.2838 24.1397 30.7978 24.1397 31.4265V33.5698C24.1397 34.1985 23.616 34.7124 22.9748 34.7124H19.7179V37.9049C19.7179 38.5338 19.1941 39.0476 18.553 39.0476H16.3671C15.7245 39.0476 15.2007 38.5338 15.2007 37.9049V34.7109H11.9438C11.3027 34.7109 10.7789 34.1985 10.7789 33.5698V31.4265C10.7789 30.7978 11.3027 30.2838 11.9438 30.2838H15.2007V27.0912C15.2007 26.4625 15.7245 25.9487 16.3671 25.9487ZM17.8502 53.0725C16.6707 50.935 16.5945 48.476 17.4395 46.35H0.849609V46.5682C0.849609 50.1455 3.83514 53.071 7.48381 53.071L17.8502 53.0725Z" fill="white"/>
</g>
</g>
</g>
</g>
<defs>
<clipPath id="clip0_34_292">
<rect width="50.28" height="55" fill="white" transform="translate(0.199219 0.5)"/>
</clipPath>
<clipPath id="clip1_34_292">
<rect width="50.28" height="55" fill="white" transform="translate(0.199219 0.5)"/>
</clipPath>
<clipPath id="clip2_34_292">
<rect width="50.2857" height="55" fill="white" transform="translate(0.197266 0.5)"/>
</clipPath>
</defs>
</svg>
