<svg width="39" height="56" viewBox="0 0 39 56" fill="none" xmlns="http://www.w3.org/2000/svg">
<g clip-path="url(#clip0_1_727)">
<g clip-path="url(#clip1_1_727)">
<path d="M31.1244 21.7542C30.5315 20.0549 29.6076 18.5492 28.3541 17.2372C27.5879 16.4464 26.728 15.7688 25.7771 15.2031C24.825 14.6374 23.8139 14.2053 22.7436 13.9056C22.5973 13.8647 22.4521 13.8274 22.3071 13.7876C21.9356 13.7238 21.5665 13.6312 21.1914 13.5951C20.8469 13.5 20.4976 13.4699 20.1421 13.5024C19.4631 13.4699 18.7841 13.4855 18.1075 13.5469C17.8651 13.5421 17.6241 13.5626 17.3866 13.6083C16.1516 13.8141 14.9745 14.1921 13.8538 14.7409C12.9264 15.2091 12.0678 15.7784 11.2793 16.4477C10.4908 17.1168 9.79332 17.8679 9.18687 18.6995C8.407 19.8358 7.82762 21.0647 7.45121 22.3838C7.24825 23.0181 7.13385 23.6681 7.10925 24.3325C7.05389 24.7862 7.03544 25.2412 7.05144 25.6985C7.03791 26.1632 7.0625 26.6254 7.12893 27.0852C7.20766 27.7881 7.35158 28.4765 7.56069 29.1528C7.7698 29.8293 8.03919 30.4805 8.37009 31.1088C8.70098 31.7358 9.08724 32.3292 9.53007 32.8864C9.97167 33.4449 10.4625 33.9589 11 34.4295C12.267 35.5489 13.5316 36.6682 14.8379 37.7442C16.1898 38.9238 17.5637 40.0793 18.9218 41.2539C19.0214 41.3635 19.1444 41.4358 19.2909 41.4706C19.4372 41.5066 19.5799 41.497 19.7202 41.4453C20.0584 41.2299 20.3684 40.9819 20.6513 40.7003C22.4878 39.1163 24.3108 37.5155 26.1412 35.9244C27.3431 34.9217 28.4537 33.8289 29.4723 32.6469C30.5486 31.1918 31.2572 29.5826 31.6004 27.8181C31.7971 26.6807 31.8402 25.5373 31.7283 24.3878C31.6656 23.4803 31.4638 22.6017 31.1244 21.7542ZM26.9851 27.5352C27.017 27.8482 26.9334 28.1286 26.7341 28.3766C26.5201 28.5775 26.2655 28.6703 25.969 28.6534C24.6737 28.6594 23.3785 28.6437 22.0844 28.6534C22.0389 30.0629 22.0807 31.4734 22.0475 32.8829C22.029 32.9768 21.9958 33.067 21.9479 33.1513C21.901 33.2356 21.8409 33.3113 21.7695 33.3764C21.6982 33.4425 21.6169 33.4967 21.5285 33.5376C21.4398 33.5797 21.3463 33.6063 21.2492 33.6195C19.9932 33.6074 18.7337 33.6544 17.4801 33.5965C17.3818 33.5678 17.2908 33.5244 17.2058 33.4666C17.1209 33.4089 17.0483 33.339 16.9856 33.2596C16.9242 33.179 16.8762 33.0912 16.8417 32.9948C16.8085 32.8998 16.7912 32.8011 16.7901 32.7011C16.7876 31.3855 16.7999 30.0676 16.7827 28.7521C16.7568 28.7268 16.7028 28.6762 16.6757 28.6498C15.3336 28.6571 13.9892 28.663 12.6447 28.6534C12.5303 28.6377 12.422 28.6016 12.3199 28.5463C12.2191 28.4921 12.1305 28.421 12.0554 28.3332C11.9804 28.2466 11.9226 28.1503 11.8845 28.0431C11.8451 27.9348 11.8279 27.8253 11.8303 27.7109C11.823 26.5447 11.834 25.3772 11.8353 24.2096C11.8254 24.0507 11.8562 23.8991 11.9251 23.7559C11.9939 23.6115 12.0948 23.4935 12.2264 23.3997C12.4466 23.2974 12.6791 23.2528 12.9239 23.2672C14.0556 23.2781 15.1873 23.2697 16.319 23.2757C16.4826 23.301 16.6228 23.2576 16.742 23.1445C16.7851 22.7725 16.7986 22.3995 16.7827 22.0252C16.7925 21.0345 16.7765 20.0452 16.8146 19.0558C16.8712 18.9018 16.9598 18.7706 17.0829 18.6587C17.2047 18.5479 17.3461 18.4709 17.5059 18.4275C18.7569 18.4179 20.0092 18.4311 21.2627 18.4263C21.3586 18.4384 21.4497 18.4649 21.5369 18.5058C21.6243 18.5455 21.703 18.5985 21.7744 18.6634C21.8445 18.7297 21.9023 18.8031 21.9491 18.8861C21.9945 18.9692 22.0266 19.0583 22.045 19.1509C22.0684 20.5062 22.0363 21.8614 22.0697 23.2168C22.5925 23.2733 23.1164 23.2913 23.643 23.2685C24.5162 23.2781 25.3921 23.2468 26.2655 23.2876C26.3762 23.3191 26.477 23.3684 26.5705 23.4346C26.664 23.4995 26.7428 23.579 26.808 23.6717C26.8732 23.7632 26.9211 23.8642 26.9507 23.9726C26.9802 24.0809 26.9912 24.1917 26.9826 24.3036C26.9973 25.3795 26.979 26.458 26.9851 27.5352Z" fill="#0575AD"/>
<mask id="mask0_1_727" style="mask-type:luminance" maskUnits="userSpaceOnUse" x="1" y="0" width="37" height="56">
<path d="M1.08594 0.5H37.6148V55.5H1.08594V0.5Z" fill="white"/>
</mask>
<g mask="url(#mask0_1_727)">
<path d="M37.4349 46.8641C37.4435 35.3781 37.4448 23.8909 37.441 12.4049C37.4275 10.3094 37.4619 8.21269 37.4176 6.1172C37.3008 5.32403 37.0425 4.57659 36.644 3.87731C36.2453 3.17679 35.7324 2.57018 35.1051 2.05624C34.5295 1.57119 33.8861 1.19927 33.1751 0.940499C32.4629 0.681722 31.7273 0.552937 30.9683 0.552937C23.3208 0.526458 15.6733 0.531272 8.02462 0.56738C7.53874 0.562566 7.05777 0.609507 6.58295 0.708202C6.10814 0.806897 5.64931 0.956145 5.20771 1.15354C4.76611 1.35213 4.35157 1.59406 3.96408 1.88172C3.57783 2.16938 3.22726 2.49435 2.91358 2.85784C2.16445 3.70398 1.70194 4.67891 1.52481 5.78502C1.43378 6.44819 1.39811 7.11621 1.41656 7.7854C1.4387 10.839 1.4387 13.8973 1.43501 16.9532C1.41902 18.4397 1.46823 19.9298 1.40549 21.4139C1.4387 21.7653 1.43747 22.1155 1.4018 22.4658C1.45715 23.2181 1.41902 23.9739 1.42763 24.7274C1.4018 25.0439 1.40426 25.3605 1.43501 25.677C1.40426 25.8876 1.3895 26.0994 1.39319 26.3125C1.38704 33.7183 1.39934 41.1229 1.39196 48.5287C1.37228 48.9716 1.40795 49.4097 1.50021 49.8431C1.60354 50.6145 1.83971 51.344 2.20751 52.0337C2.57654 52.7221 3.05504 53.3274 3.64302 53.8487C4.21625 54.365 4.86451 54.761 5.59026 55.0378C6.31478 55.3134 7.06638 55.4518 7.8438 55.4518C15.3719 55.4699 22.9001 55.4712 30.4271 55.4542C31.4837 55.4952 32.5009 55.3195 33.4801 54.9271C34.1629 54.6298 34.7767 54.2302 35.3204 53.7283C35.8628 53.2251 36.3057 52.6487 36.6463 51.9975C36.9133 51.5256 37.1016 51.025 37.2097 50.4966L37.2319 50.4786C37.4385 49.2821 37.5062 48.0773 37.4349 46.8641ZM15.0005 4.112C15.1124 4.08312 15.2268 4.06987 15.3424 4.07348C17.9896 4.06987 20.6368 4.06867 23.2839 4.06746C23.5743 4.03497 23.8584 4.06627 24.1364 4.15894C24.2163 4.19745 24.2913 4.2456 24.3603 4.30096C24.4291 4.35753 24.4895 4.42012 24.5435 4.49114C24.5965 4.56094 24.6406 4.63678 24.6752 4.71742C24.7096 4.79805 24.7341 4.88231 24.7489 4.96896C24.7637 5.05563 24.7674 5.14229 24.7601 5.22895C24.7527 5.31681 24.7354 5.40227 24.7084 5.48532C24.6801 5.56837 24.6419 5.6478 24.5952 5.72243C24.5484 5.79706 24.4931 5.86446 24.4291 5.92584C24.1929 6.09674 23.931 6.16535 23.6395 6.12924C20.8447 6.12082 18.0512 6.13045 15.2563 6.13286C15.1075 6.13887 14.966 6.11119 14.8307 6.05221C14.6954 5.99323 14.581 5.90659 14.4863 5.79464C14.4309 5.72724 14.3842 5.65503 14.3473 5.57679C14.3092 5.49855 14.2821 5.41671 14.2649 5.33125C14.2477 5.24701 14.2415 5.16035 14.2452 5.07489C14.2501 4.98823 14.2649 4.90277 14.2895 4.81972C14.3153 4.73667 14.3497 4.65843 14.3953 4.58382C14.4395 4.50919 14.4937 4.44058 14.5552 4.3792C14.6179 4.31782 14.6856 4.26366 14.7618 4.21912C14.8369 4.17338 14.9168 4.13728 15.0005 4.112ZM21.4363 51.4331C21.258 51.5992 21.0623 51.7423 20.847 51.8614C20.633 51.9807 20.408 52.0709 20.1705 52.136C19.9318 52.1998 19.6908 52.2334 19.4449 52.2383C19.1975 52.243 18.9552 52.2189 18.7154 52.1647C18.2762 52.0601 17.8838 51.8676 17.537 51.5834C17.19 51.3006 16.9243 50.9575 16.7411 50.5532C16.5135 49.9429 16.4631 49.3182 16.5922 48.6804L16.7275 48.5792C16.7066 48.5215 16.6857 48.4637 16.6636 48.4084C16.8985 47.8282 17.2786 47.3624 17.8038 47.0085C18.1175 46.8231 18.4545 46.6932 18.815 46.621C19.1741 46.5487 19.5358 46.5368 19.8999 46.5861C20.2246 46.633 20.5321 46.7342 20.8213 46.8894C21.1092 47.0434 21.3612 47.2421 21.5778 47.4852C21.9001 47.8944 22.1227 48.3493 22.2458 48.8501C22.2703 49.1438 22.2703 49.4362 22.2469 49.7287C22.2186 50.0513 22.135 50.3582 21.9961 50.6506C21.857 50.9443 21.67 51.2043 21.4363 51.4331ZM34.3154 42.483C34.2969 42.6117 34.2587 42.7333 34.1998 42.8501C34.142 42.9656 34.0656 43.0691 33.9733 43.1618C33.8798 43.2533 33.7753 43.329 33.6573 43.3869C33.5392 43.4458 33.415 43.4843 33.2846 43.5036C31.293 43.5566 29.2991 43.5193 27.3062 43.5313C24.915 43.5325 22.5225 43.5313 20.1313 43.5385C15.3461 43.5193 10.5623 43.5289 5.77724 43.5277C5.60626 43.5204 5.44388 43.4832 5.28767 43.4145C5.13268 43.346 4.99489 43.2509 4.87682 43.1293C4.75872 43.0089 4.66769 42.8705 4.60496 42.7152C4.541 42.56 4.51025 42.3988 4.51025 42.2314C4.52378 31.6492 4.51025 21.0672 4.525 10.4851C4.52992 10.3407 4.56314 10.201 4.62218 10.0674C4.68122 9.93505 4.76364 9.8171 4.8682 9.71359C4.97275 9.61128 5.09331 9.53065 5.22861 9.47165C5.36515 9.41268 5.50661 9.38139 5.65546 9.37537C13.8676 9.3537 22.0822 9.39462 30.2942 9.36935C31.234 9.38018 32.1737 9.35491 33.1136 9.36814C33.2747 9.37297 33.4285 9.40547 33.5761 9.46685C33.7236 9.52944 33.8541 9.61489 33.9685 9.72682C34.0816 9.83756 34.1702 9.96515 34.2342 10.1096C34.2969 10.254 34.3313 10.4057 34.3351 10.5621C34.3363 20.3331 34.3351 30.1026 34.3338 39.8724C34.3387 40.7426 34.3301 41.6127 34.3154 42.483Z" fill="#0575AD"/>
</g>
</g>
</g>
<defs>
<clipPath id="clip0_1_727">
<rect width="37.7" height="55" fill="white" transform="translate(0.5 0.5)"/>
</clipPath>
<clipPath id="clip1_1_727">
<rect width="37.7143" height="55" fill="white" transform="translate(0.493164 0.5)"/>
</clipPath>
</defs>
</svg>
