<svg width="66" height="65" viewBox="0 0 66 65" fill="none" xmlns="http://www.w3.org/2000/svg">
<rect x="0.5" width="65" height="65" rx="8" fill="#00D280" fill-opacity="0.2"/>
<g clip-path="url(#clip0_34_628)">
<g clip-path="url(#clip1_34_628)">
<g clip-path="url(#clip2_34_628)">
<path d="M24.4717 26.9262V19.8353C24.4717 19.6393 24.4877 19.4445 24.5196 19.2511C24.552 19.0576 24.6 18.8685 24.6634 18.6828C24.7269 18.4975 24.8054 18.3187 24.8991 18.1463C24.9925 17.9735 25.0995 17.8102 25.2204 17.6556C25.3408 17.5009 25.4735 17.357 25.6181 17.2247C25.7628 17.092 25.9174 16.9718 26.0819 16.8649C26.2463 16.7576 26.4187 16.665 26.5987 16.5866C26.7787 16.5077 26.964 16.4448 27.1544 16.397C27.1997 16.3853 27.2455 16.3789 27.2922 16.3763C27.3387 16.3741 27.3851 16.3763 27.4312 16.3832C27.4774 16.3896 27.5228 16.4008 27.5663 16.4168C27.6104 16.4323 27.6523 16.4521 27.6924 16.4758C27.7326 16.4999 27.7697 16.5275 27.8047 16.5586C27.8392 16.59 27.8703 16.624 27.8984 16.6615C27.926 16.699 27.9498 16.7387 27.97 16.7804C27.9899 16.8227 28.006 16.8662 28.0172 16.9114C28.0284 16.9567 28.0353 17.0023 28.0379 17.0489C28.04 17.0954 28.0379 17.1415 28.0309 17.1876C28.0245 17.2337 28.0132 17.279 27.9978 17.3225C27.9817 17.3664 27.9623 17.4087 27.9381 17.4483C27.9143 17.4884 27.8867 17.5259 27.8552 17.5603C27.8241 17.5948 27.7896 17.6258 27.7525 17.6538C27.7149 17.6814 27.6752 17.7055 27.6329 17.7254C27.591 17.7456 27.5474 17.7611 27.502 17.7727C27.3876 17.8012 27.2766 17.8391 27.1687 17.8861C27.0603 17.933 26.9571 17.989 26.8582 18.0532C26.7598 18.1174 26.667 18.1894 26.5801 18.2687C26.4933 18.3484 26.4138 18.4346 26.3414 18.5276C26.2693 18.6203 26.2049 18.7185 26.1488 18.8219C26.0926 18.9253 26.0456 19.0326 26.0076 19.1438C25.9696 19.2554 25.9407 19.3687 25.9216 19.485C25.9022 19.6009 25.8928 19.7177 25.8931 19.8353V26.9262C25.8931 26.9728 25.8884 27.0188 25.8794 27.0646C25.8702 27.1103 25.8568 27.1546 25.8392 27.1977C25.821 27.2407 25.7994 27.2817 25.7732 27.3201C25.7472 27.3588 25.7178 27.3946 25.685 27.4278C25.6517 27.4604 25.6159 27.4897 25.5771 27.5157C25.5386 27.5415 25.4976 27.5634 25.4544 27.5812C25.4113 27.5992 25.3668 27.6126 25.3211 27.6217C25.2752 27.6307 25.2291 27.6354 25.1824 27.6354C25.1358 27.6354 25.0895 27.6307 25.0438 27.6217C24.998 27.6126 24.9535 27.5992 24.9103 27.5812C24.8677 27.5634 24.8267 27.5415 24.7877 27.5157C24.7489 27.4897 24.7131 27.4604 24.6798 27.4278C24.647 27.3946 24.6177 27.3588 24.5917 27.3201C24.5658 27.2817 24.5438 27.2407 24.5261 27.1977C24.508 27.1546 24.4946 27.1103 24.4855 27.0646C24.4764 27.0188 24.4717 26.9728 24.4717 26.9262Z" fill="#00D280"/>
<mask id="mask0_34_628" style="mask-type:luminance" maskUnits="userSpaceOnUse" x="13" y="12" width="40" height="40">
<path d="M13.1025 12.0354H52.8967V51.7447H13.1025V12.0354Z" fill="white"/>
</mask>
<g mask="url(#mask0_34_628)">
<path d="M49.7985 16.2898H44.3691V15.5811C44.3691 15.4647 44.3636 15.3488 44.3519 15.2333C44.3402 15.1179 44.323 15.0032 44.3005 14.8895C44.2776 14.7757 44.2492 14.6633 44.2154 14.5521C44.1814 14.441 44.1424 14.332 44.0976 14.2247C44.0531 14.1174 44.0034 14.0127 43.9486 13.9106C43.8938 13.808 43.8337 13.7085 43.7695 13.612C43.7046 13.5154 43.6356 13.4224 43.5617 13.3328C43.4879 13.2431 43.4097 13.1574 43.3273 13.0751C43.2453 12.9932 43.1593 12.9152 43.0691 12.8416C42.9792 12.7679 42.8859 12.6989 42.7892 12.6343C42.6925 12.5697 42.5928 12.5102 42.4904 12.4555C42.3876 12.4003 42.2827 12.3508 42.1753 12.3064C42.0677 12.262 41.9585 12.2228 41.847 12.1892C41.7361 12.1552 41.6233 12.1272 41.5089 12.1043C41.3949 12.0815 41.2801 12.0643 41.1644 12.0531C41.0486 12.0414 40.9325 12.0354 40.8164 12.0354H25.1828C25.0667 12.0354 24.9506 12.0414 24.8348 12.0531C24.719 12.0643 24.6042 12.0815 24.4902 12.1043C24.3758 12.1272 24.2631 12.1552 24.1521 12.1892C24.0407 12.2228 23.9315 12.262 23.824 12.3064C23.7165 12.3508 23.6115 12.4003 23.5088 12.4555C23.4064 12.5102 23.3067 12.5697 23.21 12.6343C23.1132 12.6989 23.02 12.7679 22.9302 12.8416C22.8399 12.9152 22.754 12.9932 22.672 13.0751C22.5895 13.1574 22.5113 13.2431 22.4375 13.3328C22.3637 13.4224 22.2946 13.5154 22.2298 13.612C22.1655 13.7085 22.1054 13.808 22.0506 13.9106C21.9958 14.0127 21.9461 14.1174 21.9016 14.2247C21.8567 14.332 21.8174 14.441 21.7838 14.5521C21.7501 14.6633 21.7216 14.7757 21.6987 14.8895C21.6762 15.0032 21.659 15.1179 21.6473 15.2333C21.6357 15.3488 21.63 15.4647 21.63 15.5811V19.1263C21.63 19.1728 21.6343 19.2189 21.6434 19.2646C21.6525 19.3103 21.6659 19.3546 21.684 19.3977C21.7017 19.4408 21.7237 19.4818 21.7496 19.5205C21.7755 19.5589 21.8049 19.5946 21.8382 19.6278C21.871 19.6606 21.9068 19.6903 21.9457 19.7161C21.9845 19.742 22.0256 19.7635 22.0683 19.7816C22.1115 19.7993 22.156 19.8127 22.2017 19.8217C22.2475 19.8308 22.2937 19.8355 22.3403 19.8355C22.387 19.8355 22.4332 19.8308 22.4789 19.8217C22.5247 19.8127 22.5692 19.7993 22.6124 19.7816C22.6556 19.7635 22.6966 19.742 22.7354 19.7161C22.7739 19.6903 22.8101 19.6606 22.8429 19.6278C22.8758 19.5946 22.9056 19.5589 22.9315 19.5205C22.9574 19.4818 22.979 19.4408 22.9971 19.3977C23.0148 19.3546 23.0282 19.3103 23.0372 19.2646C23.0463 19.2189 23.0511 19.1728 23.0511 19.1263V15.5811C23.0511 15.5113 23.0545 15.4419 23.0614 15.3725C23.0683 15.3031 23.0783 15.2342 23.0921 15.1657C23.1055 15.0976 23.1227 15.03 23.143 14.9632C23.1633 14.8968 23.1867 14.8313 23.2134 14.7667C23.2402 14.7025 23.27 14.6396 23.3028 14.578C23.3356 14.5168 23.3715 14.4569 23.4103 14.3992C23.4492 14.341 23.4906 14.2854 23.5351 14.2316C23.5791 14.1777 23.6262 14.126 23.6754 14.0769C23.7247 14.0273 23.7765 13.9808 23.8305 13.9364C23.8844 13.8925 23.9406 13.8507 23.9984 13.8123C24.0567 13.7735 24.1163 13.7378 24.1781 13.7046C24.2394 13.6719 24.3024 13.6421 24.3672 13.6154C24.4315 13.5887 24.4971 13.5654 24.5641 13.5452C24.631 13.5249 24.6983 13.5081 24.767 13.4943C24.8357 13.481 24.9043 13.4706 24.9738 13.4637C25.0433 13.4569 25.1129 13.4534 25.1828 13.4534H27.3146C27.3146 13.5469 27.3236 13.6391 27.3422 13.7305C27.3604 13.8218 27.3872 13.9101 27.423 13.9963C27.4588 14.0825 27.5025 14.1639 27.5542 14.2415C27.606 14.319 27.6648 14.3906 27.7309 14.4565C27.7969 14.5224 27.8686 14.581 27.9463 14.6327C28.024 14.6844 28.1056 14.7284 28.192 14.7637C28.2783 14.7995 28.3673 14.8266 28.4588 14.8447C28.5504 14.8628 28.6427 14.8718 28.7361 14.8718H37.2631C37.3565 14.8718 37.4488 14.8628 37.5403 14.8447C37.6319 14.8266 37.7209 14.7995 37.8072 14.7637C37.8935 14.7284 37.9752 14.6844 38.0528 14.6327C38.1306 14.581 38.2023 14.5224 38.2683 14.4565C38.3339 14.3906 38.3931 14.319 38.445 14.2415C38.4967 14.1639 38.5404 14.0825 38.5762 13.9963C38.612 13.9101 38.6388 13.8218 38.657 13.7305C38.6756 13.6391 38.6846 13.5469 38.6846 13.4534H40.8164C40.8863 13.4534 40.9559 13.4569 41.0253 13.4637C41.0949 13.4706 41.1635 13.481 41.2322 13.4943C41.3009 13.5081 41.3682 13.5249 41.4351 13.5452C41.502 13.5654 41.5676 13.5887 41.632 13.6154C41.6968 13.6421 41.7598 13.6719 41.8211 13.7046C41.8828 13.7378 41.9424 13.7735 42.0008 13.8123C42.0587 13.8507 42.1147 13.8925 42.1688 13.9364C42.2227 13.9808 42.2745 14.0273 42.3237 14.0769C42.3729 14.126 42.4201 14.1777 42.4641 14.2316C42.5086 14.2854 42.5501 14.341 42.5889 14.3992C42.6277 14.4569 42.6635 14.5168 42.6963 14.578C42.7293 14.6396 42.759 14.7025 42.7858 14.7667C42.8126 14.8313 42.8359 14.8968 42.8561 14.9632C42.8765 15.03 42.8937 15.0976 42.9071 15.1657C42.9209 15.2342 42.9309 15.3031 42.9378 15.3725C42.9446 15.4419 42.9481 15.5113 42.9481 15.5811V16.2898H37.5191C37.4204 16.2877 37.3215 16.2903 37.2226 16.2976C37.1241 16.3049 37.026 16.317 36.9285 16.3338C36.8309 16.351 36.7346 16.3726 36.6392 16.3989C36.5438 16.4251 36.4501 16.4562 36.3576 16.4919C36.2652 16.5273 36.175 16.5673 36.0865 16.6117C35.998 16.6561 35.912 16.7048 35.8282 16.7573C35.7449 16.8103 35.6642 16.8668 35.5861 16.9275C35.5078 16.9883 35.4332 17.0529 35.3616 17.121C35.2898 17.1886 35.2216 17.2602 35.1568 17.3351C35.092 17.4097 35.0311 17.4872 34.9742 17.5678C34.9172 17.6488 34.8641 17.732 34.8153 17.8177C34.7661 17.9035 34.7216 17.9918 34.6814 18.0818C34.6413 18.1719 34.6055 18.2641 34.5744 18.3576C34.5429 18.4515 34.5165 18.5463 34.4944 18.6428C34.4728 18.7389 34.4556 18.8363 34.4435 18.9341C34.431 19.0323 34.4236 19.1306 34.4206 19.2293V27.5326C34.4233 27.6261 34.4297 27.7192 34.4405 27.8118C34.4517 27.9049 34.4668 27.9966 34.4867 28.088C34.5061 28.1793 34.5299 28.2699 34.558 28.3586C34.5861 28.4478 34.618 28.5357 34.6542 28.6219C34.6901 28.708 34.7303 28.792 34.7743 28.8748C34.8183 28.9571 34.8662 29.0372 34.9177 29.1152C34.9694 29.1932 35.0243 29.2686 35.083 29.3414C35.1417 29.4143 35.2035 29.4844 35.2687 29.5513C35.3338 29.6184 35.4017 29.6827 35.4729 29.7435C35.5441 29.8041 35.6176 29.8615 35.694 29.9153C35.7705 29.9692 35.8495 30.0196 35.9306 30.0662C36.0118 30.1127 36.0947 30.1553 36.1797 30.1941C36.2652 30.2329 36.3516 30.2678 36.4401 30.2988C36.5286 30.3294 36.6181 30.3562 36.7091 30.3785C36.7998 30.4009 36.8918 30.419 36.9842 30.4332C37.0766 30.447 37.1699 30.4565 37.2631 30.4621V32.7893C37.2631 32.8651 37.274 32.9392 37.2947 33.0125C37.3158 33.0852 37.3464 33.1538 37.3866 33.2185C37.4268 33.2826 37.4751 33.3404 37.5317 33.3911C37.5879 33.442 37.6504 33.4839 37.7187 33.5174C37.787 33.5506 37.8581 33.5743 37.9332 33.5877C38.008 33.601 38.0831 33.604 38.1587 33.5963C38.2347 33.5885 38.3076 33.5708 38.3781 33.5425C38.4489 33.5144 38.5141 33.4774 38.5745 33.4308L42.4122 30.4721H42.9481V48.199C42.9481 48.2688 42.9446 48.3382 42.9378 48.4075C42.9309 48.477 42.9209 48.5458 42.9071 48.6143C42.8937 48.6825 42.8765 48.7501 42.8561 48.8169C42.8359 48.8832 42.8126 48.9487 42.7858 49.0134C42.759 49.0775 42.7293 49.1405 42.6963 49.2021C42.6635 49.2632 42.6277 49.3231 42.5889 49.3809C42.5501 49.439 42.5086 49.4951 42.4641 49.5489C42.4201 49.6028 42.3729 49.654 42.3237 49.7036C42.2745 49.7527 42.2227 49.7992 42.1688 49.8436C42.1147 49.888 42.0587 49.9293 42.0008 49.9682C41.9424 50.0065 41.8828 50.0423 41.8211 50.0755C41.7598 50.1082 41.6968 50.138 41.632 50.1646C41.5676 50.1914 41.502 50.2146 41.4351 50.2349C41.3682 50.2552 41.3009 50.2719 41.2322 50.2857C41.1635 50.2991 41.0949 50.3094 41.0253 50.3163C40.9559 50.3232 40.8863 50.3267 40.8164 50.3267H25.1828C25.1129 50.3267 25.0433 50.3232 24.9738 50.3163C24.9043 50.3094 24.8357 50.2991 24.767 50.2857C24.6983 50.2719 24.631 50.2552 24.5641 50.2349C24.4971 50.2146 24.4315 50.1914 24.3672 50.1646C24.3024 50.138 24.2394 50.1082 24.1781 50.0755C24.1163 50.0423 24.0567 50.0065 23.9984 49.9682C23.9406 49.9293 23.8844 49.888 23.8305 49.8436C23.7765 49.7992 23.7247 49.7527 23.6754 49.7036C23.6262 49.654 23.5791 49.6028 23.5351 49.5489C23.4906 49.4951 23.4492 49.439 23.4103 49.3809C23.3715 49.3231 23.3356 49.2632 23.3028 49.2021C23.27 49.1405 23.2402 49.0775 23.2134 49.0134C23.1867 48.9487 23.1633 48.8832 23.143 48.8169C23.1227 48.7501 23.1055 48.6825 23.0921 48.6143C23.0783 48.5458 23.0683 48.477 23.0614 48.4075C23.0545 48.3382 23.0511 48.2688 23.0511 48.199V43.9445H23.5856L27.4225 46.9008C27.4826 46.9478 27.5482 46.9857 27.6186 47.0141C27.6894 47.0426 27.7628 47.061 27.8384 47.0689C27.9144 47.0771 27.9895 47.0744 28.0646 47.0615C28.1398 47.0481 28.2119 47.0253 28.2801 46.9917C28.3488 46.9585 28.4113 46.9167 28.4679 46.8659C28.5249 46.815 28.5733 46.7573 28.6139 46.6926C28.6544 46.6285 28.6851 46.5595 28.7063 46.4863C28.7274 46.4135 28.7378 46.3389 28.7382 46.2626V43.9347C28.8315 43.9295 28.9248 43.9201 29.0172 43.9058C29.1095 43.892 29.2015 43.8739 29.2922 43.8515C29.3833 43.8287 29.4728 43.8024 29.5613 43.7714C29.6493 43.7408 29.7361 43.7059 29.8216 43.6671C29.9066 43.6284 29.9896 43.5852 30.0708 43.5386C30.1519 43.4921 30.2305 43.4422 30.3073 43.3879C30.3838 43.334 30.4572 43.2767 30.5284 43.216C30.5996 43.1552 30.6674 43.0914 30.7327 43.0242C30.7979 42.957 30.8596 42.8872 30.9184 42.8144C30.9771 42.7416 31.032 42.6662 31.0833 42.5882C31.1351 42.5101 31.1831 42.4296 31.2271 42.3474C31.2711 42.265 31.3109 42.1806 31.3472 42.0944C31.3834 42.0083 31.4153 41.9207 31.4434 41.8316C31.4715 41.7424 31.4953 41.6523 31.5147 41.561C31.5346 41.4696 31.5496 41.3775 31.5604 41.2847C31.5717 41.1918 31.5781 41.0987 31.5808 41.0056V32.7017C31.5777 32.6031 31.5704 32.5049 31.5578 32.4067C31.5458 32.3089 31.5284 32.2114 31.5065 32.1153C31.4849 32.0189 31.4581 31.9241 31.427 31.8301C31.3959 31.7362 31.3601 31.6444 31.3199 31.554C31.2793 31.4639 31.2349 31.376 31.1861 31.2898C31.1369 31.204 31.0837 31.121 31.0268 31.0399C30.9697 30.9594 30.9088 30.8818 30.8441 30.8068C30.7793 30.7323 30.7111 30.6608 30.6394 30.5927C30.5673 30.5246 30.4926 30.4604 30.4144 30.3996C30.3363 30.3389 30.2555 30.2825 30.1718 30.2294C30.088 30.1765 30.0021 30.1281 29.9136 30.0838C29.825 30.0394 29.7348 29.9994 29.6424 29.964C29.55 29.9282 29.4559 29.8972 29.3605 29.8709C29.265 29.8446 29.1688 29.8232 29.0712 29.8063C28.9735 29.7895 28.8755 29.7775 28.7766 29.7701C28.6777 29.7628 28.579 29.7602 28.4801 29.7628H23.0511V22.6719C23.0511 22.6254 23.0463 22.5793 23.0372 22.5336C23.0282 22.4879 23.0148 22.4436 22.9971 22.4005C22.979 22.3574 22.9574 22.3165 22.9315 22.2777C22.9056 22.2393 22.8758 22.2031 22.8429 22.1704C22.8101 22.1376 22.7739 22.1079 22.7354 22.0821C22.6966 22.0562 22.6556 22.0347 22.6124 22.0166C22.5692 21.9989 22.5247 21.9855 22.4789 21.9765C22.4332 21.9675 22.387 21.9627 22.3403 21.9627C22.2937 21.9627 22.2475 21.9675 22.2017 21.9765C22.156 21.9855 22.1115 21.9989 22.0683 22.0166C22.0256 22.0347 21.9845 22.0562 21.9457 22.0821C21.9068 22.1079 21.871 22.1376 21.8382 22.1704C21.8049 22.2031 21.7755 22.2393 21.7496 22.2777C21.7237 22.3165 21.7017 22.3574 21.684 22.4005C21.6659 22.4436 21.6525 22.4879 21.6434 22.5336C21.6343 22.5793 21.63 22.6254 21.63 22.6719V29.7628H16.2007C16.1018 29.7606 16.0029 29.7628 15.9045 29.7701C15.8056 29.7775 15.7075 29.7899 15.61 29.8068C15.5128 29.8235 15.4161 29.8451 15.3207 29.8718C15.2257 29.8981 15.1315 29.9292 15.0391 29.9645C14.9472 30.0002 14.8565 30.0399 14.7684 30.0843C14.6799 30.1286 14.594 30.1773 14.5102 30.2303C14.4264 30.2829 14.3457 30.3398 14.2675 30.4006C14.1898 30.4612 14.1147 30.5255 14.043 30.5935C13.9713 30.6616 13.9031 30.7331 13.8383 30.8077C13.7736 30.8822 13.7127 30.9602 13.6557 31.0408C13.5987 31.1213 13.5456 31.2045 13.4968 31.2907C13.448 31.3765 13.4035 31.4644 13.3633 31.5548C13.3228 31.6449 13.2873 31.7367 13.2558 31.8306C13.2247 31.9241 13.1984 32.0193 13.1764 32.1153C13.1544 32.2119 13.1375 32.3089 13.125 32.407C13.1129 32.5049 13.1051 32.6031 13.1025 32.7017V41.0573C13.1064 41.1556 13.1151 41.2529 13.1284 41.3503C13.1423 41.4476 13.1604 41.5441 13.1833 41.6394C13.2062 41.735 13.2338 41.8289 13.2662 41.922C13.2981 42.0147 13.3348 42.1056 13.3759 42.1952C13.4173 42.2844 13.4627 42.3715 13.5123 42.4559C13.562 42.5408 13.6155 42.623 13.6734 42.7024C13.7312 42.7821 13.7925 42.8588 13.8577 42.932C13.9229 43.0056 13.9916 43.0759 14.0637 43.1428C14.1358 43.2094 14.2114 43.2729 14.2895 43.3323C14.3677 43.3918 14.4489 43.4469 14.5326 43.4986C14.6164 43.5503 14.7023 43.5977 14.7909 43.6408C14.8794 43.6838 14.9696 43.7227 15.062 43.7567C15.154 43.7912 15.2477 43.8209 15.3431 43.8459C15.4381 43.8713 15.5344 43.8916 15.6316 43.9075C15.7283 43.9231 15.8263 43.9342 15.9243 43.9402C16.0228 43.9467 16.1208 43.948 16.2192 43.9445H21.63V48.199C21.63 48.3154 21.6357 48.4313 21.6473 48.5467C21.659 48.6622 21.6762 48.7768 21.6987 48.8906C21.7216 49.0043 21.7501 49.1168 21.7838 49.2279C21.8174 49.3391 21.8567 49.4481 21.9016 49.5554C21.9461 49.6627 21.9958 49.7674 22.0506 49.8695C22.1054 49.972 22.1655 50.0716 22.2298 50.1681C22.2946 50.2646 22.3637 50.3577 22.4375 50.4473C22.5113 50.537 22.5895 50.6231 22.672 50.705C22.754 50.7872 22.8399 50.8649 22.9302 50.9385C23.02 51.0122 23.1132 51.0816 23.21 51.1457C23.3067 51.2104 23.4064 51.2698 23.5088 51.325C23.6115 51.3797 23.7165 51.4292 23.824 51.4736C23.9315 51.518 24.0407 51.5573 24.1521 51.5913C24.2631 51.6249 24.3758 51.6533 24.4902 51.6757C24.6042 51.6986 24.719 51.7157 24.8348 51.7274C24.9506 51.7386 25.0667 51.7447 25.1828 51.7447H40.8164C40.9325 51.7447 41.0486 51.7386 41.1644 51.7274C41.2801 51.7157 41.3949 51.6986 41.5089 51.6757C41.6233 51.6533 41.7361 51.6249 41.847 51.5913C41.9585 51.5573 42.0677 51.518 42.1753 51.4736C42.2827 51.4292 42.3876 51.3797 42.4904 51.325C42.5928 51.2698 42.6925 51.2104 42.7892 51.1457C42.8859 51.0816 42.9792 51.0122 43.0691 50.9385C43.1593 50.8649 43.2453 50.7872 43.3273 50.705C43.4097 50.6231 43.4879 50.537 43.5617 50.4473C43.6356 50.3577 43.7046 50.2646 43.7695 50.1681C43.8337 50.0716 43.8938 49.972 43.9486 49.8695C44.0034 49.7674 44.0531 49.6627 44.0976 49.5554C44.1424 49.4481 44.1814 49.3391 44.2154 49.2279C44.2492 49.1168 44.2776 49.0043 44.3005 48.8906C44.323 48.7768 44.3402 48.6622 44.3519 48.5467C44.3636 48.4313 44.3691 48.3154 44.3691 48.199V30.4721H49.7799C49.8785 30.4751 49.9765 30.4738 50.0749 30.4677C50.1729 30.4612 50.2705 30.4505 50.3677 30.4346C50.4648 30.419 50.5611 30.3984 50.6561 30.3733C50.7515 30.348 50.8452 30.3182 50.9372 30.2842C51.0296 30.2497 51.1198 30.2109 51.2083 30.1678C51.2968 30.1248 51.3828 30.0774 51.4666 30.0261C51.5503 29.9744 51.6314 29.9188 51.7097 29.8594C51.7878 29.7999 51.8633 29.7365 51.9354 29.6698C52.0076 29.603 52.0763 29.5327 52.1414 29.4595C52.2066 29.3858 52.2679 29.3091 52.3258 29.2298C52.3837 29.1501 52.4372 29.0683 52.4869 28.9834C52.5366 28.8985 52.5819 28.8114 52.6233 28.7222C52.6644 28.6331 52.7011 28.5422 52.733 28.4491C52.7653 28.3565 52.7931 28.262 52.8159 28.1669C52.8388 28.0712 52.857 27.9747 52.8707 27.8777C52.8841 27.7804 52.8928 27.6825 52.8967 27.5843V19.2293C52.8941 19.1306 52.8863 19.0323 52.8742 18.9341C52.8617 18.8363 52.8448 18.7389 52.8229 18.6428C52.8008 18.5463 52.7745 18.4515 52.7434 18.3576C52.7118 18.2641 52.6765 18.1719 52.6358 18.0818C52.5957 17.9918 52.5512 17.9035 52.5025 17.8177C52.4536 17.732 52.4006 17.6488 52.3435 17.5678C52.2865 17.4872 52.2257 17.4097 52.1608 17.3351C52.0961 17.2602 52.0279 17.1886 51.9562 17.121C51.8846 17.0529 51.8094 16.9883 51.7317 16.9275C51.6535 16.8668 51.5727 16.8103 51.489 16.7573C51.4052 16.7048 51.3194 16.6561 51.2308 16.6117C51.1427 16.5673 51.052 16.5273 50.96 16.4919C50.8676 16.4562 50.7736 16.4251 50.6786 16.3989C50.583 16.3726 50.4863 16.351 50.3893 16.3338C50.2916 16.317 50.1937 16.3049 50.0948 16.2976C49.9963 16.2903 49.8974 16.2877 49.7985 16.2898ZM16.2192 42.5265C16.1156 42.5331 16.012 42.5296 15.9088 42.5162C15.8056 42.5029 15.7045 42.4792 15.6061 42.446C15.5072 42.4128 15.4126 42.3706 15.3224 42.3189C15.2322 42.2672 15.1479 42.2072 15.0694 42.1392C14.9903 42.0711 14.9195 41.9962 14.8556 41.9143C14.7917 41.832 14.736 41.745 14.6894 41.6519C14.6428 41.5593 14.6052 41.4627 14.5776 41.3628C14.5495 41.2628 14.5318 41.1606 14.5236 41.0573V32.7017C14.5292 32.5971 14.5447 32.4941 14.5702 32.3924C14.5961 32.2908 14.6315 32.192 14.6764 32.0972C14.7213 32.0025 14.7749 31.9133 14.8375 31.8288C14.9001 31.7444 14.9705 31.6672 15.0482 31.5966C15.1259 31.5259 15.2097 31.4639 15.2999 31.4096C15.3897 31.3554 15.4843 31.3105 15.5832 31.2747C15.6821 31.2394 15.7835 31.2136 15.8876 31.1976C15.9912 31.1821 16.0957 31.1765 16.2007 31.1808H28.4801C28.585 31.1765 28.6894 31.1821 28.7935 31.1976C28.8975 31.2136 28.9991 31.2394 29.0975 31.2747C29.1964 31.3105 29.2909 31.3554 29.3811 31.4096C29.4709 31.4639 29.5552 31.5259 29.6329 31.5966C29.7107 31.6672 29.7806 31.7444 29.8432 31.8288C29.9058 31.9133 29.9598 32.0025 30.0047 32.0972C30.0495 32.192 30.085 32.2908 30.1104 32.3924C30.1364 32.4941 30.1519 32.5971 30.1571 32.7017V41.0056C30.1571 41.7536 29.6036 42.5265 28.1972 42.5265C28.1398 42.5262 28.0827 42.5313 28.0267 42.5421C27.9701 42.5528 27.9152 42.5692 27.8621 42.5908C27.8085 42.6123 27.7581 42.6386 27.7101 42.67C27.6622 42.7015 27.6177 42.7377 27.5767 42.7777C27.5356 42.8179 27.499 42.8618 27.4666 42.9092C27.4342 42.9566 27.407 43.0066 27.3845 43.0595C27.3621 43.1121 27.3449 43.1669 27.3332 43.2228C27.3215 43.2789 27.3154 43.3357 27.3146 43.3931V45.0239L24.3218 42.7166C24.1591 42.5882 23.9747 42.524 23.7674 42.5235L16.2192 42.5265ZM51.4756 27.5843C51.4674 27.6882 51.4497 27.7898 51.4216 27.8898C51.394 27.9898 51.3565 28.0862 51.3098 28.1793C51.2632 28.2719 51.2075 28.3595 51.1435 28.4414C51.0796 28.5232 51.0084 28.5986 50.9299 28.6666C50.8512 28.7348 50.7671 28.7947 50.6767 28.8459C50.5865 28.8977 50.492 28.9402 50.3931 28.9734C50.2947 29.0067 50.1937 29.03 50.0904 29.0432C49.9872 29.0571 49.8836 29.0605 49.7799 29.0536H42.2318C42.0292 29.0541 41.8479 29.1157 41.6873 29.2393L38.6846 31.554V29.9231C38.6841 29.8657 38.6781 29.809 38.6665 29.7525C38.6548 29.6961 38.6379 29.6417 38.6155 29.5888C38.5931 29.5357 38.5658 29.4853 38.5335 29.4379C38.5011 29.3902 38.4644 29.3461 38.4238 29.3061C38.3828 29.2656 38.3383 29.2294 38.2899 29.1979C38.2421 29.1665 38.191 29.1398 38.138 29.1182C38.0844 29.0966 38.0296 29.0804 37.973 29.0695C37.9165 29.0583 37.8594 29.0531 37.802 29.0536C36.3636 29.0536 35.8421 28.2426 35.8421 27.5326V19.2293C35.8473 19.1246 35.8628 19.0211 35.8888 18.9195C35.9142 18.8178 35.9497 18.7195 35.9945 18.6247C36.0394 18.5299 36.0934 18.4403 36.156 18.3559C36.2186 18.2719 36.2885 18.1943 36.3663 18.1236C36.444 18.0534 36.5282 17.9909 36.6181 17.9366C36.7083 17.8828 36.8028 17.838 36.9017 17.8022C37.0001 17.7664 37.1016 17.7406 37.2057 17.7251C37.3098 17.7091 37.4142 17.7035 37.5191 17.7083H49.7985C49.9034 17.7035 50.008 17.7091 50.1115 17.7251C50.2156 17.7406 50.3172 17.7664 50.416 17.8022C50.5149 17.838 50.6095 17.8828 50.6993 17.9366C50.7895 17.9909 50.8733 18.0534 50.951 18.1236C51.0287 18.1943 51.099 18.2719 51.1618 18.3559C51.2243 18.4403 51.2779 18.5299 51.3227 18.6247C51.3677 18.7195 51.4031 18.8178 51.429 18.9195C51.4544 19.0211 51.47 19.1246 51.4756 19.2293V27.5843Z" fill="#00D280"/>
</g>
<path d="M45.0793 26.9263H37.9733C37.9268 26.9263 37.8806 26.922 37.8348 26.9126C37.7889 26.9035 37.7446 26.8901 37.7014 26.8724C37.6582 26.8543 37.6176 26.8328 37.5788 26.8069C37.5398 26.7811 37.504 26.7513 37.4707 26.7186C37.4379 26.6858 37.4086 26.6502 37.3827 26.6113C37.3568 26.5725 37.3348 26.5316 37.3171 26.4886C37.2989 26.4454 37.2855 26.401 37.2764 26.3554C37.2674 26.3097 37.2627 26.2635 37.2627 26.2171C37.2627 26.1706 37.2674 26.1244 37.2764 26.0788C37.2855 26.0331 37.2989 25.9887 37.3171 25.946C37.3348 25.903 37.3568 25.862 37.3827 25.8233C37.4086 25.7844 37.4379 25.7488 37.4707 25.716C37.504 25.6828 37.5398 25.6535 37.5788 25.6277C37.6176 25.6018 37.6582 25.5798 37.7014 25.5621C37.7446 25.5445 37.7889 25.5307 37.8348 25.5217C37.8806 25.5126 37.9268 25.5083 37.9733 25.5083H45.0793C45.126 25.5083 45.1722 25.5126 45.218 25.5217C45.2637 25.5307 45.3082 25.5445 45.3514 25.5621C45.3946 25.5798 45.4357 25.6018 45.474 25.6277C45.513 25.6535 45.5488 25.6828 45.582 25.716C45.6149 25.7488 45.6442 25.7844 45.6701 25.8233C45.6964 25.862 45.718 25.903 45.7362 25.946C45.7539 25.9887 45.7673 26.0331 45.7763 26.0788C45.7854 26.1244 45.7901 26.1706 45.7901 26.2171C45.7901 26.2635 45.7854 26.3097 45.7763 26.3554C45.7673 26.401 45.7539 26.4454 45.7362 26.4886C45.718 26.5316 45.6964 26.5725 45.6701 26.6113C45.6442 26.6502 45.6149 26.6858 45.582 26.7186C45.5488 26.7513 45.513 26.7811 45.474 26.8069C45.4357 26.8328 45.3946 26.8543 45.3514 26.8724C45.3082 26.8901 45.2637 26.9035 45.218 26.9126C45.1722 26.922 45.126 26.9263 45.0793 26.9263Z" fill="#00D280"/>
<path d="M49.343 24.0899H37.9733C37.9268 24.0899 37.8806 24.0855 37.8348 24.0765C37.7889 24.0674 37.7446 24.0537 37.7014 24.036C37.6582 24.0184 37.6176 23.9964 37.5788 23.9705C37.5398 23.9447 37.504 23.9154 37.4707 23.8822C37.4379 23.8495 37.4086 23.8137 37.3827 23.7749C37.3568 23.7361 37.3348 23.6952 37.3171 23.6521C37.2989 23.609 37.2855 23.5651 37.2764 23.5194C37.2674 23.4737 37.2627 23.4276 37.2627 23.3807C37.2627 23.3341 37.2674 23.288 37.2764 23.2424C37.2855 23.1967 37.2989 23.1527 37.3171 23.1096C37.3348 23.0666 37.3568 23.0256 37.3827 22.9869C37.4086 22.9481 37.4379 22.9123 37.4707 22.8796C37.504 22.8464 37.5398 22.8171 37.5788 22.7912C37.6176 22.7654 37.6582 22.7434 37.7014 22.7257C37.7446 22.7081 37.7889 22.6943 37.8348 22.6852C37.8806 22.6762 37.9268 22.6719 37.9733 22.6719H49.343C49.3895 22.6719 49.4357 22.6762 49.4815 22.6852C49.5274 22.6943 49.5717 22.7081 49.6149 22.7257C49.6582 22.7434 49.6992 22.7654 49.738 22.7912C49.7769 22.8171 49.8127 22.8464 49.8456 22.8796C49.8788 22.9123 49.9082 22.9481 49.9341 22.9869C49.9599 23.0256 49.9816 23.0666 49.9997 23.1096C50.0174 23.1527 50.0308 23.1967 50.0403 23.2424C50.0494 23.288 50.0537 23.3341 50.0537 23.3807C50.0537 23.4276 50.0494 23.4737 50.0399 23.5194C50.0308 23.5651 50.0174 23.609 49.9997 23.6521C49.9816 23.6952 49.9599 23.7361 49.9341 23.7749C49.9082 23.8137 49.8788 23.8495 49.8456 23.8822C49.8127 23.9154 49.7769 23.9447 49.738 23.9705C49.6992 23.9964 49.6582 24.0184 49.6149 24.036C49.5717 24.0537 49.5274 24.0674 49.4815 24.0765C49.4357 24.0855 49.3895 24.0899 49.343 24.0899Z" fill="#00D280"/>
<path d="M40.8158 21.2535H37.9733C37.9268 21.2535 37.8806 21.2491 37.8348 21.2401C37.7889 21.2311 37.7446 21.2173 37.7014 21.1996C37.6582 21.1819 37.6176 21.16 37.5788 21.1341C37.5398 21.1082 37.504 21.0789 37.4707 21.0458C37.4379 21.013 37.4086 20.9773 37.3827 20.9385C37.3568 20.8997 37.3348 20.8588 37.3171 20.8157C37.2989 20.773 37.2855 20.7286 37.2764 20.683C37.2674 20.6373 37.2627 20.5912 37.2627 20.5447C37.2627 20.4981 37.2674 20.452 37.2764 20.4064C37.2855 20.3607 37.2989 20.3163 37.3171 20.2732C37.3348 20.2301 37.3568 20.1892 37.3827 20.1504C37.4086 20.1116 37.4379 20.0759 37.4707 20.0431C37.504 20.0104 37.5398 19.9806 37.5788 19.9548C37.6176 19.929 37.6582 19.9074 37.7014 19.8893C37.7446 19.8716 37.7889 19.8583 37.8348 19.8492C37.8806 19.8398 37.9268 19.8354 37.9733 19.8354H40.8158C40.8625 19.8354 40.9087 19.8398 40.9545 19.8492C41.0002 19.8583 41.0447 19.8716 41.0879 19.8893C41.1307 19.9074 41.1717 19.929 41.2105 19.9548C41.2493 19.9806 41.2853 20.0104 41.3184 20.0431C41.3512 20.0759 41.3807 20.1116 41.4066 20.1504C41.4325 20.1892 41.4545 20.2301 41.4722 20.2732C41.4903 20.3163 41.5037 20.3607 41.5128 20.4064C41.5219 20.452 41.5266 20.4981 41.5266 20.5447C41.5266 20.5912 41.5219 20.6373 41.5128 20.683C41.5037 20.7286 41.4903 20.773 41.4722 20.8157C41.4545 20.8588 41.4325 20.8997 41.4066 20.9385C41.3807 20.9773 41.3512 21.013 41.3184 21.0458C41.2853 21.0789 41.2493 21.1082 41.2105 21.1341C41.1717 21.16 41.1307 21.1819 41.0879 21.1996C41.0447 21.2173 41.0002 21.2311 40.9545 21.2401C40.9087 21.2491 40.8625 21.2535 40.8158 21.2535Z" fill="#00D280"/>
<path d="M49.3435 21.2535H43.659C43.6123 21.2535 43.5661 21.2491 43.5203 21.2401C43.4746 21.2311 43.4301 21.2173 43.3869 21.1996C43.3438 21.1819 43.3028 21.16 43.2639 21.1341C43.2255 21.1082 43.1892 21.0789 43.1564 21.0458C43.1236 21.013 43.0938 20.9773 43.0679 20.9385C43.0419 20.8997 43.0204 20.8588 43.0023 20.8157C42.9845 20.773 42.9712 20.7286 42.9621 20.683C42.9529 20.6373 42.9482 20.5912 42.9482 20.5447C42.9482 20.4981 42.9529 20.452 42.9621 20.4064C42.9712 20.3607 42.9845 20.3163 43.0023 20.2732C43.0204 20.2301 43.0419 20.1892 43.0679 20.1504C43.0938 20.1116 43.1236 20.0759 43.1564 20.0431C43.1892 20.0104 43.2255 19.9806 43.2639 19.9548C43.3028 19.929 43.3438 19.9074 43.3869 19.8893C43.4301 19.8716 43.4746 19.8583 43.5203 19.8492C43.5661 19.8398 43.6123 19.8354 43.659 19.8354H49.3435C49.3902 19.8354 49.4364 19.8398 49.4822 19.8492C49.5279 19.8583 49.5724 19.8716 49.6156 19.8893C49.6587 19.9074 49.6997 19.929 49.7387 19.9548C49.7775 19.9806 49.8133 20.0104 49.8461 20.0431C49.8794 20.0759 49.9087 20.1116 49.9346 20.1504C49.9606 20.1892 49.9822 20.2301 50.0002 20.2732C50.018 20.3163 50.0314 20.3607 50.0409 20.4064C50.0499 20.452 50.0543 20.4981 50.0543 20.5447C50.0543 20.5912 50.0499 20.6373 50.0404 20.683C50.0314 20.7286 50.018 20.773 50.0002 20.8157C49.9822 20.8588 49.9606 20.8997 49.9346 20.9385C49.9087 20.9773 49.8794 21.013 49.8461 21.0458C49.8133 21.0789 49.7775 21.1082 49.7387 21.1341C49.6997 21.16 49.6587 21.1819 49.6156 21.1996C49.5724 21.2173 49.5279 21.2311 49.4822 21.2401C49.4364 21.2491 49.3902 21.2535 49.3435 21.2535Z" fill="#00D280"/>
<path d="M23.4068 41.108H21.275C21.2059 41.1094 21.1377 41.1033 21.0699 41.0908C21.0021 41.0784 20.9365 41.0594 20.8722 41.0344C20.8082 41.0089 20.7474 40.9776 20.6895 40.9401C20.6316 40.903 20.5781 40.8603 20.5284 40.8125C20.4792 40.7647 20.4347 40.7125 20.3954 40.6557C20.3562 40.5991 20.3229 40.5393 20.2957 40.4764C20.2681 40.4134 20.2473 40.3484 20.2327 40.2813C20.218 40.214 20.2102 40.146 20.2089 40.077V38.9809H19.1432C19.0742 38.9817 19.0059 38.9762 18.9381 38.9636C18.8704 38.9511 18.8043 38.9321 18.7399 38.9067C18.6761 38.8814 18.6152 38.8499 18.5573 38.8124C18.4994 38.7754 18.4455 38.7327 18.3962 38.6844C18.3466 38.6366 18.3025 38.5845 18.2633 38.528C18.224 38.4711 18.1907 38.4112 18.1635 38.3484C18.1359 38.2849 18.1151 38.2199 18.1005 38.1527C18.0862 38.0855 18.0784 38.0175 18.0771 37.9485V35.7587C18.0784 35.6899 18.0862 35.6222 18.1005 35.5546C18.1151 35.4873 18.1359 35.4223 18.1635 35.359C18.1907 35.296 18.224 35.2361 18.2633 35.1797C18.3025 35.1228 18.3466 35.0707 18.3962 35.0228C18.4455 34.9746 18.4994 34.932 18.5573 34.8948C18.6152 34.8573 18.6761 34.826 18.7399 34.8005C18.8043 34.7751 18.8704 34.7562 18.9381 34.7436C19.0059 34.7312 19.0742 34.7255 19.1432 34.7264H20.2089V33.6302C20.2102 33.5614 20.218 33.4932 20.2327 33.4261C20.2473 33.3593 20.2681 33.2938 20.2957 33.2308C20.3229 33.1679 20.3562 33.1081 20.3954 33.0517C20.4347 32.9947 20.4792 32.9426 20.5284 32.8948C20.5781 32.8469 20.6316 32.8043 20.6895 32.7672C20.7474 32.7297 20.8082 32.6983 20.8722 32.6732C20.9365 32.6479 21.0021 32.6289 21.0699 32.6164C21.1377 32.6039 21.2059 32.5984 21.275 32.5992H23.4068C23.4754 32.5984 23.5441 32.6039 23.6114 32.6164C23.6792 32.6289 23.7453 32.6479 23.8092 32.6732C23.8731 32.6983 23.9344 32.7297 23.9923 32.7672C24.0501 32.8043 24.1037 32.8469 24.1529 32.8948C24.2026 32.9426 24.247 32.9947 24.2859 33.0517C24.3252 33.1081 24.3585 33.1679 24.3861 33.2308C24.4133 33.2938 24.4345 33.3593 24.4491 33.4261C24.4634 33.4932 24.4716 33.5614 24.4724 33.6302V34.7264H25.5385C25.6076 34.7255 25.6759 34.7312 25.7437 34.7436C25.8114 34.7562 25.8775 34.7751 25.9414 34.8005C26.0053 34.826 26.0666 34.8573 26.1245 34.8948C26.1824 34.932 26.2359 34.9746 26.2856 35.0228C26.3348 35.0707 26.3793 35.1228 26.4186 35.1797C26.4574 35.2361 26.4907 35.296 26.5183 35.359C26.5455 35.4223 26.5667 35.4873 26.5809 35.5546C26.5956 35.6222 26.6033 35.6899 26.6047 35.7587V37.9485C26.6033 38.0175 26.5956 38.0855 26.5809 38.1527C26.5667 38.2199 26.5455 38.2849 26.5183 38.3484C26.4907 38.4112 26.4574 38.4711 26.4186 38.528C26.3793 38.5845 26.3348 38.6366 26.2856 38.6844C26.2359 38.7327 26.1824 38.7754 26.1245 38.8124C26.0666 38.8499 26.0053 38.8814 25.9414 38.9067C25.8775 38.9321 25.8114 38.9511 25.7437 38.9636C25.6759 38.9762 25.6076 38.9817 25.5385 38.9809H24.4724V40.077C24.4716 40.146 24.4634 40.214 24.4491 40.2813C24.4345 40.3484 24.4133 40.4134 24.3861 40.4764C24.3585 40.5393 24.3252 40.5991 24.2859 40.6557C24.247 40.7125 24.2026 40.7647 24.1529 40.8125C24.1037 40.8603 24.0501 40.903 23.9923 40.9401C23.9344 40.9776 23.8735 41.0089 23.8092 41.0344C23.7453 41.0594 23.6792 41.0784 23.6114 41.0908C23.5441 41.1033 23.4754 41.1094 23.4068 41.108ZM21.6304 39.69H23.0514V37.5629H25.1832V36.1444H23.0514V34.0172H21.6304V36.1444H19.4982V37.5629H21.6304V39.69Z" fill="#00D280"/>
<path d="M30.1584 16.999C30.1584 17.0455 30.1541 17.0917 30.1451 17.1373C30.1355 17.183 30.1221 17.2274 30.1044 17.2705C30.0867 17.3136 30.0647 17.3545 30.0388 17.3928C30.0129 17.4316 29.9835 17.4674 29.9503 17.5005C29.9175 17.5333 29.8816 17.5626 29.8427 17.5884C29.8039 17.6143 29.7629 17.6363 29.7197 17.6544C29.6766 17.672 29.6321 17.6854 29.5862 17.6944C29.5409 17.7035 29.4942 17.7082 29.4477 17.7082C29.401 17.7082 29.3548 17.7035 29.309 17.6944C29.2633 17.6854 29.2188 17.672 29.176 17.6544C29.1328 17.6363 29.0918 17.6143 29.053 17.5884C29.0142 17.5626 28.9782 17.5333 28.9454 17.5005C28.9123 17.4674 28.8829 17.4316 28.8569 17.3928C28.831 17.3545 28.8091 17.3136 28.7913 17.2705C28.7736 17.2274 28.7599 17.183 28.7507 17.1373C28.7416 17.0917 28.7373 17.0455 28.7373 16.999C28.7373 16.9525 28.7416 16.9064 28.7507 16.8607C28.7599 16.815 28.7736 16.7707 28.7913 16.7276C28.8091 16.6845 28.831 16.644 28.8569 16.6052C28.8829 16.5664 28.9123 16.5307 28.9454 16.4975C28.9782 16.4647 29.0142 16.4354 29.053 16.4096C29.0918 16.3837 29.1328 16.3617 29.176 16.3441C29.2188 16.326 29.2633 16.3126 29.309 16.3036C29.3548 16.2945 29.401 16.2898 29.4477 16.2898C29.4942 16.2898 29.5409 16.2945 29.5862 16.3036C29.6321 16.3126 29.6766 16.326 29.7197 16.3441C29.7629 16.3617 29.8039 16.3837 29.8427 16.4096C29.8816 16.4354 29.9175 16.4647 29.9503 16.4975C29.9835 16.5307 30.0129 16.5664 30.0388 16.6052C30.0647 16.644 30.0867 16.6845 30.1044 16.7276C30.1221 16.7707 30.1355 16.815 30.1451 16.8607C30.1541 16.9064 30.1584 16.9525 30.1584 16.999Z" fill="#00D280"/>
</g>
</g>
</g>
<defs>
<clipPath id="clip0_34_628">
<rect width="41" height="39.78" fill="white" transform="translate(12.5 12)"/>
</clipPath>
<clipPath id="clip1_34_628">
<rect width="41" height="39.78" fill="white" transform="translate(12.5 12)"/>
</clipPath>
<clipPath id="clip2_34_628">
<rect width="41" height="39.7941" fill="white" transform="translate(12.5 11.9929)"/>
</clipPath>
</defs>
</svg>
