<svg width="39" height="56" viewBox="0 0 39 56" fill="none" xmlns="http://www.w3.org/2000/svg">
<g clip-path="url(#clip0_34_123)">
<g clip-path="url(#clip1_34_123)">
<g clip-path="url(#clip2_34_123)">
<path d="M31.1234 21.7542C30.5305 20.0549 29.6067 18.5492 28.3531 17.2372C27.5869 16.4464 26.727 15.7688 25.7762 15.2031C24.824 14.6374 23.813 14.2053 22.7427 13.9056C22.5964 13.8647 22.4512 13.8274 22.3061 13.7876C21.9346 13.7238 21.5655 13.6312 21.1904 13.5951C20.846 13.5 20.4966 13.4699 20.1412 13.5024C19.4622 13.4699 18.7831 13.4855 18.1065 13.5469C17.8642 13.5421 17.6231 13.5626 17.3857 13.6083C16.1507 13.8141 14.9735 14.1921 13.8529 14.7409C12.9254 15.2091 12.0668 15.7784 11.2783 16.4477C10.4898 17.1168 9.79234 17.8679 9.18589 18.6995C8.40602 19.8358 7.82664 21.0647 7.45023 22.3838C7.24727 23.0181 7.13287 23.6681 7.10828 24.3325C7.05291 24.7862 7.03447 25.2412 7.05046 25.6985C7.03693 26.1632 7.06153 26.6254 7.12795 27.0852C7.20668 27.7881 7.35061 28.4765 7.55972 29.1528C7.76883 29.8293 8.03822 30.4805 8.36911 31.1088C8.70001 31.7358 9.08626 32.3292 9.52909 32.8864C9.9707 33.4449 10.4615 33.9589 10.9991 34.4295C12.2661 35.5489 13.5306 36.6682 14.8369 37.7442C16.1888 38.9238 17.5628 40.0793 18.9208 41.2539C19.0204 41.3635 19.1435 41.4358 19.2899 41.4706C19.4362 41.5066 19.5789 41.497 19.7192 41.4453C20.0574 41.2299 20.3675 40.9819 20.6503 40.7003C22.4868 39.1163 24.3099 37.5155 26.1403 35.9244C27.3421 34.9217 28.4528 33.8289 29.4714 32.6469C30.5476 31.1918 31.2562 29.5826 31.5994 27.8181C31.7961 26.6807 31.8392 25.5373 31.7273 24.3878C31.6646 23.4803 31.4628 22.6017 31.1234 21.7542ZM26.9841 27.5352C27.016 27.8482 26.9324 28.1286 26.7332 28.3766C26.5191 28.5775 26.2646 28.6703 25.968 28.6534C24.6727 28.6594 23.3775 28.6437 22.0835 28.6534C22.0379 30.0629 22.0797 31.4734 22.0465 32.8829C22.028 32.9768 21.9948 33.067 21.9469 33.1513C21.9001 33.2356 21.8399 33.3113 21.7685 33.3764C21.6972 33.4425 21.616 33.4967 21.5275 33.5376C21.4389 33.5797 21.3454 33.6063 21.2482 33.6195C19.9922 33.6074 18.7327 33.6544 17.4792 33.5965C17.3808 33.5678 17.2898 33.5244 17.2048 33.4666C17.1199 33.4089 17.0473 33.339 16.9846 33.2596C16.9232 33.179 16.8753 33.0912 16.8407 32.9948C16.8075 32.8998 16.7903 32.8011 16.7892 32.7011C16.7866 31.3855 16.7989 30.0676 16.7818 28.7521C16.7558 28.7268 16.7018 28.6762 16.6748 28.6498C15.3327 28.6571 13.9882 28.663 12.6437 28.6534C12.5293 28.6377 12.421 28.6016 12.3189 28.5463C12.2181 28.4921 12.1295 28.421 12.0545 28.3332C11.9794 28.2466 11.9216 28.1503 11.8835 28.0431C11.8441 27.9348 11.8269 27.8253 11.8294 27.7109C11.822 26.5447 11.8331 25.3772 11.8343 24.2096C11.8244 24.0507 11.8552 23.8991 11.9241 23.7559C11.993 23.6115 12.0938 23.4935 12.2255 23.3997C12.4456 23.2974 12.6781 23.2528 12.9229 23.2672C14.0546 23.2781 15.1863 23.2697 16.318 23.2757C16.4816 23.301 16.6218 23.2576 16.7411 23.1445C16.7841 22.7725 16.7976 22.3995 16.7818 22.0252C16.7915 21.0345 16.7755 20.0452 16.8137 19.0558C16.8702 18.9018 16.9589 18.7706 17.0819 18.6587C17.2037 18.5479 17.3451 18.4709 17.5049 18.4275C18.756 18.4179 20.0082 18.4311 21.2618 18.4263C21.3576 18.4384 21.4488 18.4649 21.536 18.5058C21.6233 18.5455 21.7021 18.5985 21.7734 18.6634C21.8435 18.7297 21.9013 18.8031 21.9482 18.8861C21.9936 18.9692 22.0256 19.0583 22.044 19.1509C22.0674 20.5062 22.0354 21.8614 22.0687 23.2168C22.5915 23.2733 23.1154 23.2913 23.642 23.2685C24.5152 23.2781 25.3912 23.2468 26.2646 23.2876C26.3752 23.3191 26.4761 23.3684 26.5696 23.4346C26.6631 23.4995 26.7418 23.579 26.807 23.6717C26.8722 23.7632 26.9202 23.8642 26.9497 23.9726C26.9792 24.0809 26.9902 24.1917 26.9816 24.3036C26.9964 25.3795 26.978 26.458 26.9841 27.5352Z" fill="white"/>
<mask id="mask0_34_123" style="mask-type:luminance" maskUnits="userSpaceOnUse" x="1" y="0" width="37" height="56">
<path d="M1.08398 0.5H37.6129V55.5H1.08398V0.5Z" fill="white"/>
</mask>
<g mask="url(#mask0_34_123)">
<path d="M37.4329 46.8641C37.4416 35.3781 37.4428 23.8909 37.4391 12.4049C37.4255 10.3094 37.46 8.21269 37.4156 6.1172C37.2989 5.32403 37.0405 4.57659 36.642 3.87731C36.2434 3.17679 35.7304 2.57018 35.1031 2.05624C34.5275 1.57119 33.8842 1.19927 33.1731 0.940499C32.4609 0.681722 31.7253 0.552937 30.9663 0.552937C23.3188 0.526458 15.6714 0.531272 8.02267 0.56738C7.53678 0.562566 7.05582 0.609507 6.58099 0.708202C6.10619 0.806897 5.64736 0.956145 5.20576 1.15354C4.76416 1.35213 4.34961 1.59406 3.96213 1.88172C3.57587 2.16938 3.2253 2.49435 2.91163 2.85784C2.1625 3.70398 1.69999 4.67891 1.52286 5.78502C1.43183 6.44819 1.39616 7.11621 1.41461 7.7854C1.43675 10.839 1.43675 13.8973 1.43306 16.9532C1.41707 18.4397 1.46627 19.9298 1.40354 21.4139C1.43675 21.7653 1.43552 22.1155 1.39985 22.4658C1.4552 23.2181 1.41707 23.9739 1.42568 24.7274C1.39985 25.0439 1.40231 25.3605 1.43306 25.677C1.40231 25.8876 1.38755 26.0994 1.39124 26.3125C1.38509 33.7183 1.39739 41.1229 1.39001 48.5287C1.37033 48.9716 1.406 49.4097 1.49826 49.8431C1.60158 50.6145 1.83776 51.344 2.20556 52.0337C2.57459 52.7221 3.05309 53.3274 3.64107 53.8487C4.2143 54.365 4.86256 54.761 5.58831 55.0378C6.31283 55.3134 7.06443 55.4518 7.84185 55.4518C15.37 55.4699 22.8982 55.4712 30.4251 55.4542C31.4818 55.4952 32.499 55.3195 33.4781 54.9271C34.1609 54.6298 34.7747 54.2302 35.3184 53.7283C35.8609 53.2251 36.3037 52.6487 36.6444 51.9975C36.9114 51.5256 37.0996 51.025 37.2077 50.4966L37.2299 50.4786C37.4365 49.2821 37.5043 48.0773 37.4329 46.8641ZM14.9985 4.112C15.1105 4.08312 15.2249 4.06987 15.3405 4.07348C17.9876 4.06987 20.6348 4.06867 23.2819 4.06746C23.5723 4.03497 23.8564 4.06627 24.1344 4.15894C24.2144 4.19745 24.2893 4.2456 24.3583 4.30096C24.4272 4.35753 24.4875 4.42012 24.5416 4.49114C24.5945 4.56094 24.6387 4.63678 24.6732 4.71742C24.7077 4.79805 24.7322 4.88231 24.7469 4.96896C24.7617 5.05563 24.7655 5.14229 24.7581 5.22895C24.7507 5.31681 24.7334 5.40227 24.7064 5.48532C24.6781 5.56837 24.6399 5.6478 24.5933 5.72243C24.5464 5.79706 24.4911 5.86446 24.4272 5.92584C24.191 6.09674 23.929 6.16535 23.6375 6.12924C20.8427 6.12082 18.0492 6.13045 15.2544 6.13286C15.1055 6.13887 14.9641 6.11119 14.8288 6.05221C14.6934 5.99323 14.579 5.90659 14.4843 5.79464C14.429 5.72724 14.3822 5.65503 14.3453 5.57679C14.3072 5.49855 14.2801 5.41671 14.2629 5.33125C14.2457 5.24701 14.2395 5.16035 14.2432 5.07489C14.2482 4.98823 14.2629 4.90277 14.2875 4.81972C14.3133 4.73667 14.3478 4.65843 14.3933 4.58382C14.4376 4.50919 14.4917 4.44058 14.5532 4.3792C14.616 4.31782 14.6836 4.26366 14.7599 4.21912C14.8349 4.17338 14.9149 4.13728 14.9985 4.112ZM21.4344 51.4331C21.256 51.5992 21.0604 51.7423 20.8451 51.8614C20.6311 51.9807 20.406 52.0709 20.1686 52.136C19.9299 52.1998 19.6888 52.2334 19.4429 52.2383C19.1956 52.243 18.9532 52.2189 18.7134 52.1647C18.2742 52.0601 17.8818 51.8676 17.535 51.5834C17.1881 51.3006 16.9223 50.9575 16.7391 50.5532C16.5116 49.9429 16.4611 49.3182 16.5903 48.6804L16.7256 48.5792C16.7047 48.5215 16.6838 48.4637 16.6616 48.4084C16.8966 47.8282 17.2767 47.3624 17.8019 47.0085C18.1155 46.8231 18.4526 46.6932 18.8131 46.621C19.1721 46.5487 19.5339 46.5368 19.898 46.5861C20.2226 46.633 20.5302 46.7342 20.8193 46.8894C21.1072 47.0434 21.3593 47.2421 21.5758 47.4852C21.8981 47.8944 22.1208 48.3493 22.2438 48.8501C22.2683 49.1438 22.2683 49.4362 22.2449 49.7287C22.2166 50.0513 22.133 50.3582 21.9941 50.6506C21.855 50.9443 21.668 51.2043 21.4344 51.4331ZM34.3135 42.483C34.2949 42.6117 34.2568 42.7333 34.1978 42.8501C34.14 42.9656 34.0636 43.0691 33.9714 43.1618C33.8779 43.2533 33.7734 43.329 33.6554 43.3869C33.5372 43.4458 33.4131 43.4843 33.2826 43.5036C31.291 43.5566 29.2972 43.5193 27.3043 43.5313C24.913 43.5325 22.5205 43.5313 20.1293 43.5385C15.3442 43.5193 10.5603 43.5289 5.77529 43.5277C5.6043 43.5204 5.44193 43.4832 5.28571 43.4145C5.13072 43.346 4.99294 43.2509 4.87486 43.1293C4.75677 43.0089 4.66574 42.8705 4.603 42.7152C4.53905 42.56 4.5083 42.3988 4.5083 42.2314C4.52183 31.6492 4.5083 21.0672 4.52305 10.4851C4.52797 10.3407 4.56119 10.201 4.62023 10.0674C4.67927 9.93505 4.76169 9.8171 4.86625 9.71359C4.9708 9.61128 5.09136 9.53065 5.22666 9.47165C5.3632 9.41268 5.50466 9.38139 5.65351 9.37537C13.8656 9.3537 22.0802 9.39462 30.2922 9.36935C31.2321 9.38018 32.1718 9.35491 33.1117 9.36814C33.2727 9.37297 33.4266 9.40547 33.5741 9.46685C33.7217 9.52944 33.8521 9.61489 33.9665 9.72682C34.0797 9.83756 34.1683 9.96515 34.2322 10.1096C34.2949 10.254 34.3294 10.4057 34.3331 10.5621C34.3344 20.3331 34.3331 30.1026 34.3319 39.8724C34.3367 40.7426 34.3281 41.6127 34.3135 42.483Z" fill="white"/>
</g>
</g>
</g>
</g>
<defs>
<clipPath id="clip0_34_123">
<rect width="37.7" height="55" fill="white" transform="translate(0.5 0.5)"/>
</clipPath>
<clipPath id="clip1_34_123">
<rect width="37.7" height="55" fill="white" transform="translate(0.5 0.5)"/>
</clipPath>
<clipPath id="clip2_34_123">
<rect width="37.7143" height="55" fill="white" transform="translate(0.492188 0.5)"/>
</clipPath>
</defs>
</svg>
