<svg width="50" height="55" viewBox="0 0 50 55" fill="none" xmlns="http://www.w3.org/2000/svg">
<g clip-path="url(#clip0_1_5101)">
<g clip-path="url(#clip1_1_5101)">
<g clip-path="url(#clip2_1_5101)">
<path fill-rule="evenodd" clip-rule="evenodd" d="M30.8602 16.3084C32.5446 16.3084 33.9151 17.6704 33.9151 19.3425V20.5983H37.2242C37.6096 20.5983 37.9212 20.9085 37.9212 21.2898C37.9212 21.6711 37.6096 21.9812 37.2242 21.9812H33.9151V24.4684H37.2242C37.6096 24.4684 37.9212 24.7763 37.9212 25.1599C37.9212 25.5412 37.6096 25.8513 37.2242 25.8513H33.9151V28.3362H37.2242C37.6096 28.3362 37.9212 28.6464 37.9212 29.0277C37.9212 29.4102 37.6096 29.7203 37.2242 29.7203H33.9151V30.9749C33.9151 32.6483 32.5446 34.009 30.8602 34.009H29.5951V37.2949C29.5951 37.6762 29.2823 37.9864 28.8981 37.9864C28.5127 37.9864 28.2023 37.6762 28.2023 37.2949V34.009H25.6968V37.2949C25.6968 37.6762 25.3852 37.9864 25.001 37.9864C24.6168 37.9864 24.304 37.6762 24.304 37.2949V34.009H21.8008V37.2949C21.8008 37.6762 21.4881 37.9864 21.1038 37.9864C20.7185 37.9864 20.4069 37.6762 20.4069 37.2949V34.009H19.1418C17.4562 34.009 16.0869 32.6483 16.0869 30.9749V29.7203H12.7777C12.3924 29.7203 12.0808 29.4102 12.0808 29.0277C12.0808 28.6464 12.3924 28.3362 12.7777 28.3362H16.0869V25.8513H12.7777C12.3924 25.8513 12.0808 25.5412 12.0808 25.1599C12.0808 24.7763 12.3924 24.4684 12.7777 24.4684H16.0869V21.9812H12.7777C12.3924 21.9812 12.0808 21.6722 12.0808 21.2898C12.0808 20.9085 12.3924 20.5983 12.7777 20.5983H16.0869V19.3425C16.0869 17.6704 17.4562 16.3084 19.1418 16.3084H20.4069V13.0237C20.4069 12.6424 20.7185 12.3322 21.1038 12.3322C21.4881 12.3322 21.8008 12.6424 21.8008 13.0237V16.3084H24.304V13.0237C24.304 12.6424 24.6168 12.3322 25.001 12.3322C25.3852 12.3322 25.6968 12.6424 25.6968 13.0237V16.3084H28.2023V13.0237C28.2023 12.6424 28.5127 12.3322 28.8981 12.3322C29.2823 12.3322 29.5951 12.6424 29.5951 13.0237V16.3084H30.8602ZM11.4553 10.7301L8.58543 7.88261C8.31367 7.61208 7.87206 7.61091 7.60031 7.88261C7.32855 8.15196 7.32855 8.59036 7.60031 8.85978L10.4702 11.7096C10.606 11.8436 10.7852 11.9113 10.9633 11.9113C11.1413 11.9113 11.3205 11.8436 11.4553 11.7096C11.7271 11.4379 11.7271 11.0006 11.4553 10.7301ZM25.7003 5.44324V1.41456C25.7003 1.03209 25.3887 0.721924 25.0045 0.721924C24.6203 0.721924 24.3075 1.03209 24.3075 1.41456V5.44324C24.3075 5.82454 24.6203 6.13471 25.0045 6.13471C25.3887 6.13471 25.7003 5.8257 25.7003 5.44324ZM38.5526 10.7301C38.2808 11.0006 38.2808 11.4379 38.5526 11.7096C38.6885 11.8436 38.8665 11.9113 39.0457 11.9113C39.2238 11.9113 39.4018 11.8436 39.5377 11.7096L42.4075 8.85978C42.6805 8.59036 42.6805 8.15196 42.4075 7.88261C42.1358 7.61208 41.6942 7.61091 41.4225 7.88261L38.5526 10.7301ZM5.14863 25.8526C5.53401 25.8526 5.84559 25.5435 5.84559 25.161C5.84559 24.7786 5.53401 24.4696 5.14863 24.4696H1.08984C0.705627 24.4696 0.394043 24.7786 0.394043 25.161C0.394043 25.5435 0.705627 25.8526 1.08984 25.8526H5.14863ZM44.8592 25.8526H48.918C49.3022 25.8526 49.615 25.5435 49.615 25.161C49.615 24.7786 49.3022 24.4696 48.918 24.4696H44.8592C44.4738 24.4696 44.1634 24.7786 44.1634 25.161C44.1634 25.5435 44.4738 25.8526 44.8592 25.8526ZM30.1163 52.359H19.8927C20.2124 53.8108 21.5174 54.901 23.0741 54.901H26.9337C28.4905 54.901 29.7966 53.8108 30.1163 52.359ZM30.8883 48.2254H19.1195C18.357 48.2254 17.735 48.8422 17.735 49.6014C17.735 50.3581 18.357 50.9749 19.1195 50.9749H30.8883C31.652 50.9749 32.2728 50.3581 32.2728 49.6014C32.2728 48.8422 31.652 48.2254 30.8883 48.2254ZM31.3123 44.9371H18.6956C18.1661 44.9371 17.735 45.3651 17.735 45.891C17.735 46.4157 18.1661 46.8425 18.6956 46.8425V46.8751C18.8337 46.8542 18.9755 46.8425 19.1195 46.8425H30.8883C31.0324 46.8425 31.1742 46.8542 31.3123 46.8751V46.8425C31.8418 46.8425 32.2728 46.4157 32.2728 45.891C32.2728 45.3663 31.8418 44.9371 31.3123 44.9371ZM24.536 25.5167L24.0393 24.5314L23.5426 25.5167H24.536ZM29.6361 21.3761C29.6361 20.9248 29.266 20.5563 28.8103 20.5563H21.1905C20.7361 20.5563 20.3659 20.9248 20.3659 21.3761V28.9413C20.3659 29.3938 20.7361 29.7611 21.1905 29.7611H28.8103C29.266 29.7611 29.6361 29.3938 29.6361 28.9413V21.3761ZM27.489 27.3311C27.489 27.7124 27.8006 28.0225 28.1859 28.0225C28.5702 28.0225 28.8829 27.7124 28.8829 27.3311V22.9176C28.8829 22.5363 28.5702 22.2261 28.1859 22.2261C27.8006 22.2261 27.489 22.5363 27.489 22.9176V27.3311ZM24.6625 22.675C24.5442 22.4418 24.3028 22.2937 24.0393 22.2937C23.7757 22.2937 23.5344 22.4418 23.4161 22.675L21.1929 27.0897C21.0219 27.4302 21.1613 27.8464 21.5045 28.0167C21.8489 28.1881 22.267 28.0494 22.4392 27.7077L22.8457 26.8996H25.2329L25.6394 27.7077C25.7612 27.9503 26.0072 28.0902 26.2626 28.0902C26.3668 28.0902 26.4734 28.0668 26.5742 28.0167C26.9174 27.8464 27.0568 27.4302 26.8857 27.0897L24.6625 22.675ZM32.5212 19.3425C32.5212 18.4318 31.7762 17.6925 30.8602 17.6925H19.1418C18.2258 17.6925 17.4796 18.4318 17.4796 19.3425V30.9749C17.4796 31.8857 18.2258 32.6261 19.1418 32.6261H30.8602C31.7762 32.6261 32.5212 31.8857 32.5212 30.9749V19.3425ZM28.8103 19.1723H21.1905C19.9676 19.1723 18.972 20.161 18.972 21.3749V28.9402C18.972 30.1541 19.9676 31.1429 21.1905 31.1429H28.8103C30.0343 31.1429 31.0289 30.1541 31.0289 28.9402V21.3749C31.0289 20.161 30.0343 19.1723 28.8103 19.1723ZM25.0045 10.3173C16.7569 10.3173 10.0461 16.9789 10.0461 25.1669C10.0461 31.0414 12.6114 34.2329 15.3254 37.6109C16.7616 39.3973 18.2422 41.242 19.4358 43.5554H30.5732C31.7668 41.242 33.2474 39.3973 34.6836 37.6109C37.3988 34.2329 39.9618 31.0414 39.9618 25.1669C39.9618 16.9778 33.2521 10.3173 25.0045 10.3173Z" fill="#0575AD"/>
</g>
</g>
</g>
<defs>
<clipPath id="clip0_1_5101">
<rect width="49.25" height="55" fill="white" transform="translate(0.379883)"/>
</clipPath>
<clipPath id="clip1_1_5101">
<rect width="49.25" height="55" fill="white" transform="translate(0.379883)"/>
</clipPath>
<clipPath id="clip2_1_5101">
<rect width="49.2537" height="55" fill="white" transform="translate(0.37793)"/>
</clipPath>
</defs>
</svg>
