<svg width="47" height="46" viewBox="0 0 47 46" fill="none" xmlns="http://www.w3.org/2000/svg">
<g clip-path="url(#clip0_1_5282)">
<g clip-path="url(#clip1_1_5282)">
<g clip-path="url(#clip2_1_5282)">
<mask id="mask0_1_5282" style="mask-type:luminance" maskUnits="userSpaceOnUse" x="1" y="0" width="46" height="46">
<path d="M1.47998 0.75H46.48V45.75H1.47998V0.75Z" fill="white"/>
</mask>
<g mask="url(#mask0_1_5282)">
<path fill-rule="evenodd" clip-rule="evenodd" d="M26.383 22.918C28.3792 24.7436 29.8848 26.345 30.9 27.7905C32.5676 30.1659 32.5442 32.5578 31.3983 34.5278L27.0775 36.5688C26.8813 36.6613 26.6851 36.7385 26.4858 36.8006C26.531 36.7081 26.5699 36.6106 26.6026 36.5118C27.023 35.236 26.1137 33.9679 24.6174 33.5118C25.0019 33.1507 25.2339 32.6921 25.2168 32.1245C25.2137 32.0358 25.2075 31.9598 25.1981 31.8978C24.9739 30.399 23.3764 29.8391 21.7462 29.6224C21.1358 29.5413 20.116 29.3589 20.0786 28.7343C20.0459 28.1972 20.6158 27.8842 21.2012 27.7892C21.3709 27.7614 21.4939 27.7652 21.6543 27.7563C22.3503 27.769 22.9529 28.0502 23.2316 28.5874C23.4278 28.9674 23.9665 29.1461 24.4336 28.9864C24.9023 28.8268 25.1218 28.3897 24.9256 28.0109C24.4523 27.095 23.5508 26.5667 22.5589 26.3627L22.5107 26.3526V26.0434C22.5107 25.6317 22.0996 25.2985 21.592 25.2985C21.0844 25.2985 20.6718 25.6317 20.6718 26.0434V26.364C19.2533 26.649 18.1728 27.5625 18.2475 28.804C18.3347 30.2685 19.8746 30.8804 21.4519 31.0895C22.1557 31.1832 23.2705 31.3745 23.3748 32.0726C23.3811 32.1182 23.3857 32.1461 23.3857 32.16C23.4029 32.7187 22.52 32.9328 21.9735 32.986H21.9688C21.3071 32.8327 20.6625 32.663 20.049 32.4932C19.9213 32.369 19.8248 32.2195 19.7718 32.0472C19.6504 31.6482 19.1537 31.4037 18.6617 31.5025C18.3799 31.5582 18.1588 31.7166 18.0466 31.9155C15.1801 31.0768 14.0092 31.054 11.2595 32.3462L11.0929 32.4235C10.8718 30.9577 11.233 29.3716 12.3417 27.7905C13.3568 26.345 14.8625 24.7436 16.8586 22.918C17.2541 23.0498 17.687 23.122 18.1385 23.122H25.1047C25.5562 23.122 25.9875 23.0498 26.383 22.918ZM35.9619 24.0798V16.2035C35.9619 15.7918 36.373 15.4573 36.8806 15.4573C37.3882 15.4573 37.7992 15.7918 37.7992 16.2035V24.0798L38.4345 23.4197C38.7459 23.0967 39.322 23.0384 39.7206 23.2918C40.1192 23.5439 40.1893 24.0101 39.8779 24.3344L37.6124 26.687C37.2543 27.0747 36.5318 27.0861 36.1597 26.6984L33.8833 24.3344C33.5719 24.0101 33.642 23.5439 34.0406 23.2918C34.4392 23.0384 35.0153 23.0954 35.3267 23.4197L35.9619 24.0798ZM42.3162 11.6566L36.3481 3.10257C36.06 2.68956 36.2407 2.15873 36.7514 1.92562L38.7817 0.993191C39.2909 0.758816 39.9433 0.905775 40.2329 1.32005L46.201 9.87284C46.4891 10.2871 46.3085 10.8167 45.7978 11.051L43.7674 11.9835C43.2582 12.2166 42.6043 12.0696 42.3162 11.6566ZM43.6849 10.3745C44.0803 10.3277 44.3544 10.0287 44.2968 9.70814C44.2392 9.38635 43.8717 9.16338 43.4747 9.21025C43.0792 9.2584 42.8051 9.55611 42.8627 9.8779C42.9204 10.1984 43.2894 10.4214 43.6849 10.3745ZM24.5224 9.6714C23.7968 9.59919 23.2067 9.75755 23.0027 10.3733C22.8236 10.9155 23.2487 11.4197 23.8746 11.6009C26.1791 11.9455 28.4025 12.5967 30.1526 13.1097C32.6127 13.8319 33.2231 14.008 35.6536 12.8665L39.7175 10.9586L36.1768 5.88339C35.9837 5.94927 35.7767 5.95814 35.5851 5.91633L25.5516 3.73728C24.3558 3.47757 23.2191 3.59159 22.1619 4.11988L8.32758 11.0295C7.95234 11.217 7.77016 11.6642 7.82622 12.1038C7.87137 12.4573 8.0769 12.7791 8.47862 12.9451C9.15282 13.2212 10.3424 13.1287 12.2124 12.2457L19.8357 8.64395C20.4647 8.34623 21.1125 8.15747 21.7867 8.06498C23.7065 7.804 26.559 8.52613 28.2857 8.92647C28.8323 9.05189 29.385 9.18111 29.9191 9.2964C30.4095 9.40282 30.6991 9.81076 30.5684 10.2086C30.4376 10.6051 29.9346 10.842 29.4457 10.7356C27.8077 10.3796 26.1822 9.95138 24.5224 9.6714ZM5.51557 34.8433C5.22752 34.4303 4.57356 34.2833 4.06441 34.5164L2.03403 35.4489C1.52332 35.6832 1.34271 36.2128 1.63076 36.6271L7.59889 45.1799C7.8885 45.5941 8.5409 45.7411 9.05161 45.5067L11.0805 44.5743C11.5912 44.3412 11.7718 43.8103 11.4837 43.3973L5.51557 34.8433ZM4.14693 36.1254C4.54242 36.0785 4.91144 36.3015 4.96905 36.622C5.02666 36.9438 4.75262 37.2415 4.35713 37.2884C3.96009 37.3365 3.59263 37.1135 3.53502 36.7918C3.47741 36.4712 3.75144 36.1722 4.14693 36.1254ZM23.3094 36.8285C24.035 36.9007 24.6251 36.7424 24.8291 36.1266C25.0082 35.5844 24.5831 35.0802 23.9572 34.899C21.6527 34.5544 19.4293 33.9032 17.6792 33.3902C15.2191 32.668 14.6087 32.4919 12.1782 33.6334L8.11427 35.5413L11.655 40.6165C11.8481 40.5506 12.0552 40.5418 12.2467 40.5836L22.2802 42.7626C23.6987 43.0705 24.4866 42.8652 25.7353 42.3471L39.5058 35.4691C39.881 35.2816 40.0616 34.8344 40.0056 34.3961C39.9604 34.0426 39.7549 33.7195 39.3532 33.5548C38.679 33.2787 37.4894 33.3712 35.6194 34.2542L27.9961 37.8559C27.3671 38.1537 26.7194 38.3424 26.0452 38.4337C24.1253 38.6959 21.2728 37.9738 19.5461 37.5734C19.0011 37.448 18.4468 37.3188 17.9127 37.2035C17.4223 37.0971 17.1327 36.6891 17.2635 36.2913C17.3942 35.8948 17.8972 35.6579 18.3861 35.7643C20.0241 36.1203 21.6496 36.5485 23.3094 36.8285ZM18.1385 21.6309H25.1047C25.9626 21.6309 26.6649 21.0608 26.6649 20.364C26.6649 19.6672 25.9626 19.0971 25.1047 19.0971H18.1385C17.279 19.0971 16.5768 19.6672 16.5768 20.364C16.5768 21.0608 17.279 21.6309 18.1385 21.6309ZM26.4438 15.1824C27.0666 15.6891 27.0666 16.5177 26.4438 17.0232L25.6761 17.6452C25.4909 17.6199 25.2993 17.6059 25.1047 17.6059H18.1385C17.9439 17.6059 17.7524 17.6199 17.5655 17.6452L16.7995 17.0232C16.1751 16.5177 16.1751 15.6891 16.7995 15.1824C17.3304 14.7529 18.1697 14.6794 18.8018 15.0088C19.0369 15.1304 19.3063 15.1507 19.5632 15.0633C19.8201 14.9771 19.9945 14.8086 20.0537 14.5882C20.2109 14.0042 20.8555 13.5633 21.6216 13.5633C22.3737 13.5633 23.0292 13.9928 23.1895 14.5882C23.2487 14.8086 23.4215 14.9771 23.68 15.0633C23.9369 15.1507 24.2063 15.1304 24.4414 15.0088C25.0611 14.6858 25.9019 14.744 26.4438 15.1824Z" fill="#00D280"/>
</g>
</g>
</g>
</g>
<defs>
<clipPath id="clip0_1_5282">
<rect width="46" height="45" fill="white" transform="translate(0.97998 0.75)"/>
</clipPath>
<clipPath id="clip1_1_5282">
<rect width="46" height="45" fill="white" transform="translate(0.97998 0.75)"/>
</clipPath>
<clipPath id="clip2_1_5282">
<rect width="46" height="45" fill="white" transform="translate(0.97998 0.75)"/>
</clipPath>
</defs>
</svg>
