<svg width="56" height="55" viewBox="0 0 56 55" fill="none" xmlns="http://www.w3.org/2000/svg">
<g clip-path="url(#clip0_1_5056)">
<g clip-path="url(#clip1_1_5056)">
<g clip-path="url(#clip2_1_5056)">
<path d="M25.3245 1.92883C24.5409 2.11807 24.2665 0.867299 25.0502 0.678062C33.5177 -1.3765 42.2114 1.31967 48.2285 7.6582C57.9238 17.8662 57.9238 34.4162 48.2285 44.6207C40.922 52.3199 29.8018 54.4646 20.3723 49.9229L21.7921 54.1491C22.0596 54.944 20.909 55.3711 20.6433 54.5763L18.7193 48.8632C18.6078 48.5261 18.7742 48.1585 19.0897 48.0413L24.5203 46.0174C25.2748 45.7363 25.6812 46.9474 24.925 47.2285L20.8542 48.746C29.8172 53.0733 40.4093 51.0403 47.366 43.7141C56.5829 34.009 56.5829 18.2716 47.366 8.56834C41.6542 2.5488 33.3479 -0.0302242 25.3245 1.92883ZM20.9484 28.0741H6.26159C3.09443 28.0741 0.5 30.8063 0.5 34.1423C0.5 37.4801 3.09443 40.2123 6.26159 40.2123H20.9484C24.1156 40.2123 26.7101 37.4801 26.7101 34.1423C26.7101 30.8063 24.1156 28.0741 20.9484 28.0741ZM22.7009 27.0234C25.7121 27.8506 27.9052 30.727 27.9327 34.0793C33.0976 36.0653 38.6997 32.0553 38.6997 26.1403C38.6997 21.4743 35.1073 17.695 30.6798 17.695C25.9299 17.695 22.2225 22.0005 22.7009 27.0234ZM12.0026 31.8174V33.4413H13.4293C14.1683 33.4413 14.549 32.5798 14.0363 32.0661C13.8837 31.9129 13.6694 31.8174 13.4293 31.8174H12.0026ZM13.8974 34.674L15.1097 36.7826C15.288 37.0854 15.1938 37.4783 14.9057 37.6622C14.6193 37.8441 14.2455 37.7486 14.0723 37.4477L12.505 34.7281H12.0043V37.1143C12.0043 37.9613 10.78 37.9613 10.78 37.1143V31.1704C10.78 30.8171 11.0543 30.5288 11.3938 30.5288H13.431C15.2469 30.5288 16.2072 32.7906 14.8765 34.1226C14.6124 34.3892 14.2712 34.5821 13.8974 34.674ZM17.9922 37.1143C17.9922 37.9613 16.7696 37.9613 16.7696 37.1143V31.1704C16.7696 30.6117 17.4281 30.2801 17.8431 30.7505L20.0534 33.0863L22.298 30.7181C22.6838 30.3125 23.3371 30.6045 23.3371 31.1704H23.3406V37.1143C23.3406 37.9595 22.1179 37.9595 22.1179 37.1143V32.724L20.482 34.4505C20.242 34.6992 19.8596 34.6992 19.6229 34.447L17.9922 32.724V37.1143ZM8.89203 36.469C9.69792 36.469 9.69792 37.7577 8.89203 37.7577H7.30073C4.27932 37.7577 2.70175 33.881 4.87435 31.5922C5.49852 30.9361 6.35418 30.5306 7.30073 30.5306H8.89031C9.69627 30.5306 9.69627 31.8174 8.89031 31.8174H7.30073C5.35963 31.8174 4.33762 34.3099 5.7403 35.7878C6.13984 36.2077 6.69371 36.469 7.30073 36.469H8.89203ZM20.0791 4.18344C15.7408 -0.379862 8.71369 -0.379862 4.37707 4.18344C0.0421597 8.74856 0.0421597 16.1522 4.37707 20.7156C8.71369 25.2788 15.7408 25.2788 20.0791 20.7156C24.414 16.1522 24.414 8.74856 20.0791 4.18344ZM24.414 14.3951C23.6612 19.663 19.8922 23.9145 14.9897 25.0968V26.7855H20.9484C21.12 26.7855 21.2931 26.7927 21.4595 26.8072C21.0942 21.1769 25.328 16.4046 30.6814 16.4046C35.7846 16.4046 39.9223 20.7624 39.9223 26.1403C39.9223 32.7654 33.7766 37.4242 27.8315 35.3949C27.6188 36.6763 27.0925 37.8478 26.3362 38.8102C26.777 38.9778 27.5674 39.2301 27.9927 39.3094C28.291 39.3527 28.5208 39.6194 28.5208 39.9474V41.9317C28.5208 42.33 28.8312 42.658 29.2102 42.658H32.151C32.53 42.658 32.8438 42.33 32.8438 41.9317V39.9474C32.8438 39.6482 33.0427 39.3833 33.329 39.3166C34.1058 39.1454 34.8535 38.9021 35.5753 38.5867C36.2922 38.2731 36.978 37.8928 37.6194 37.4566C37.8577 37.2585 38.2041 37.2764 38.4236 37.5107L39.756 38.9147C40.0268 39.1958 40.4658 39.1958 40.7368 38.9147L42.8151 36.7268C43.0826 36.442 43.0826 35.9788 42.8151 35.6977L41.4827 34.2901C41.2838 34.081 41.2426 33.7458 41.4021 33.4863C41.8291 32.796 42.1994 32.0644 42.5047 31.2911C42.7945 30.5468 43.0277 29.7683 43.1906 28.9699C43.2318 28.6563 43.4839 28.4147 43.7925 28.4147H45.6805C46.0577 28.4147 46.3697 28.0868 46.3697 27.6849V24.5867C46.3697 24.1903 46.0577 23.8605 45.6805 23.8605H43.7925V23.8569C43.5113 23.8569 43.2558 23.6496 43.1958 23.3469C43.0329 22.5322 42.8013 21.741 42.4996 20.9859C42.2012 20.2272 41.8411 19.508 41.4279 18.8303C41.241 18.5781 41.2581 18.214 41.481 17.9833L42.8151 16.5794C43.0809 16.2982 43.0809 15.8314 42.8151 15.5502L40.7351 13.3605C40.4658 13.0758 40.0252 13.0758 39.756 13.3605L38.4219 14.7645V14.7609C38.2229 14.9717 37.9057 15.0132 37.6588 14.8456C37.0038 14.3951 36.3076 14.0093 35.5737 13.6886C34.8672 13.3767 34.1298 13.137 33.3702 12.9659C33.0718 12.9226 32.8438 12.6523 32.8438 12.3279V10.3417C32.8438 9.94162 32.5282 9.6118 32.151 9.6118H29.2084C28.8312 9.6118 28.5191 9.94162 28.5191 10.3417V12.3279H28.5157C28.5157 12.6252 28.3168 12.8919 28.0304 12.9551C26.765 13.2398 25.5354 13.7318 24.414 14.3951ZM14.2404 12.8559H10.2141C8.32958 12.8559 6.78116 14.4833 6.78116 16.4712V20.0865H17.6733V16.4712C17.6733 14.4833 16.1249 12.8559 14.2404 12.8559ZM14.2164 5.67571C12.4485 3.81398 9.41331 5.13864 9.41331 7.76994C9.41331 10.4048 12.4485 11.7295 14.2164 9.86773C15.3138 8.71251 15.3138 6.83277 14.2164 5.67571ZM12.2272 3.52382C14.4547 3.52382 16.2637 5.4252 16.2637 7.77174C16.2637 9.40995 15.3755 10.8608 14.038 11.5691H14.2386C16.8005 11.5691 18.8959 13.7769 18.8959 16.473V20.7354C18.8959 21.0886 18.6216 21.3769 18.282 21.3769H6.16899C5.82946 21.3769 5.55682 21.0886 5.55682 20.7354V16.473C5.55682 13.7769 7.65225 11.5691 10.2124 11.5691H10.413C7.96434 10.2751 7.42076 6.82195 9.37045 4.76738C10.1044 3.99782 11.1126 3.52382 12.2272 3.52382Z" fill="white"/>
</g>
</g>
</g>
<defs>
<clipPath id="clip0_1_5056">
<rect width="55" height="55" fill="white" transform="translate(0.5)"/>
</clipPath>
<clipPath id="clip1_1_5056">
<rect width="55" height="55" fill="white" transform="translate(0.5)"/>
</clipPath>
<clipPath id="clip2_1_5056">
<rect width="55" height="55" fill="white" transform="translate(0.5)"/>
</clipPath>
</defs>
</svg>
