<svg width="56" height="56" viewBox="0 0 56 56" fill="none" xmlns="http://www.w3.org/2000/svg">
<g clip-path="url(#clip0_1_5180)">
<g clip-path="url(#clip1_1_5180)">
<mask id="mask0_1_5180" style="mask-type:luminance" maskUnits="userSpaceOnUse" x="0" y="40" width="46" height="15">
<path d="M0.945801 40.9939H45.8303V54.6493H0.945801V40.9939Z" fill="white"/>
</mask>
<g mask="url(#mask0_1_5180)">
<path d="M43.6326 41.2021H3.10932C1.91385 41.2021 0.945801 42.1733 0.945801 43.371V54.2134C0.945801 54.454 1.14001 54.6492 1.37951 54.6492H45.3624C45.6018 54.6492 45.796 54.454 45.796 54.2134V43.371C45.796 42.1733 44.8271 41.2021 43.6326 41.2021ZM7.19787 50.1232C5.97523 50.1232 4.98303 49.1299 4.98303 47.904C4.98303 46.6782 5.97523 45.6848 7.19787 45.6848C8.42051 45.6848 9.41171 46.6782 9.41171 47.904C9.41171 49.1299 8.42051 50.1232 7.19787 50.1232ZM13.624 50.1232C12.4004 50.1232 11.4091 49.1299 11.4091 47.904C11.4091 46.6782 12.4004 45.6848 13.624 45.6848C14.8466 45.6848 15.8379 46.6782 15.8379 47.904C15.8379 49.1299 14.8466 50.1232 13.624 50.1232ZM42.8436 52.2992H27.0399C26.8004 52.2992 26.6052 52.104 26.6052 51.8634V44.7267C26.6052 44.4872 26.8004 44.2919 27.0399 44.2919H42.8436C43.0831 44.2919 43.2783 44.4872 43.2783 44.7267V51.8634C43.2783 52.104 43.0831 52.2992 42.8436 52.2992Z" fill="white"/>
</g>
<mask id="mask1_1_5180" style="mask-type:luminance" maskUnits="userSpaceOnUse" x="0" y="25" width="46" height="14">
<path d="M0.945801 25.2773H45.8303V38.9329H0.945801V25.2773Z" fill="white"/>
</mask>
<g mask="url(#mask1_1_5180)">
<path d="M43.2783 31.6451V36.0241C43.2783 36.2646 43.0831 36.4588 42.8436 36.4588H27.0399C26.8004 36.4588 26.6052 36.2646 26.6052 36.0241V28.8874C26.6052 28.6468 26.8004 28.4516 27.0399 28.4516H30.0808C29.5496 28.0359 29.0424 27.5861 28.5594 27.103C28.0129 26.5544 27.5088 25.9738 27.0489 25.3618H3.10932C1.91385 25.3618 0.945801 26.3331 0.945801 27.5307V38.3741C0.945801 38.6137 1.14001 38.8089 1.37951 38.8089H45.3624C45.6018 38.8089 45.796 38.6137 45.796 38.3741V30.9526C44.9739 31.2515 44.1337 31.483 43.2783 31.6451ZM7.19787 34.2829C5.97523 34.2829 4.98303 33.2896 4.98303 32.0637C4.98303 30.8378 5.97523 29.8445 7.19787 29.8445C8.42051 29.8445 9.41171 30.8378 9.41171 32.0637C9.41171 33.2896 8.42051 34.2829 7.19787 34.2829ZM13.624 34.2829C12.4004 34.2829 11.4091 33.2896 11.4091 32.0637C11.4091 30.8378 12.4004 29.8445 13.624 29.8445C14.8466 29.8445 15.8379 30.8378 15.8379 32.0637C15.8379 33.2896 14.8466 34.2829 13.624 34.2829Z" fill="white"/>
</g>
<mask id="mask2_1_5180" style="mask-type:luminance" maskUnits="userSpaceOnUse" x="0" y="9" width="26" height="15">
<path d="M0.945801 9.30298H25.7367V23.2161H0.945801V9.30298Z" fill="white"/>
</mask>
<g mask="url(#mask2_1_5180)">
<path d="M25.0334 21.8605C24.175 19.8265 23.7402 17.6666 23.7402 15.4404C23.7402 13.3963 24.1076 11.4086 24.832 9.52246H3.10932C1.91385 9.52246 0.945801 10.4927 0.945801 11.6914V22.5338C0.945801 22.7743 1.14001 22.9686 1.37951 22.9686H25.5505C25.3654 22.6072 25.1933 22.2379 25.0334 21.8605ZM7.19787 18.4436C5.97523 18.4436 4.98303 17.4492 4.98303 16.2234C4.98303 14.9976 5.97523 14.0041 7.19787 14.0041C8.42051 14.0041 9.41171 14.9986 9.41171 16.2234C9.41171 17.4492 8.42051 18.4436 7.19787 18.4436ZM13.624 18.4436C12.4004 18.4436 11.4091 17.4492 11.4091 16.2234C11.4091 14.9976 12.4004 14.0041 13.624 14.0041C14.8466 14.0041 15.8379 14.9986 15.8379 16.2234C15.8379 17.4492 14.8466 18.4436 13.624 18.4436Z" fill="white"/>
</g>
<mask id="mask3_1_5180" style="mask-type:luminance" maskUnits="userSpaceOnUse" x="25" y="0" width="31" height="31">
<path d="M25.2231 0.551025H55.0455V30.4303H25.2231V0.551025Z" fill="white"/>
</mask>
<g mask="url(#mask3_1_5180)">
<path d="M40.1969 0.558105C31.9967 0.558105 25.3481 7.22077 25.3481 15.4404C25.3481 23.66 31.9967 30.3237 40.1969 30.3237C48.3981 30.3237 55.0457 23.66 55.0457 15.4404C55.0457 7.22077 48.3981 0.558105 40.1969 0.558105ZM35.3999 24.8617H32.7946V20.1183H35.3999V24.8617ZM39.741 24.8617H37.1368V15.854H39.741V24.8617ZM44.0832 24.8617H41.4779V18.0732H44.0832V24.8617ZM48.4243 24.8617H45.82V13.983H48.4243V24.8617ZM47.6877 11.2224L46.5214 10.0529L42.1722 14.4118L38.2869 10.5178L32.4012 16.4166C32.2392 16.5787 32.0288 16.6592 31.8175 16.6592C31.6062 16.6592 31.3949 16.5787 31.2339 16.4166C30.9119 16.0936 30.9119 15.5703 31.2339 15.2471L38.2869 8.17889L42.1722 12.0738L45.3552 8.88442L44.1888 7.71493L48.9697 6.43071L47.6877 11.2224Z" fill="white"/>
</g>
</g>
</g>
<defs>
<clipPath id="clip0_1_5180">
<rect width="54.09" height="55" fill="white" transform="translate(0.950195 0.5)"/>
</clipPath>
<clipPath id="clip1_1_5180">
<rect width="54.0984" height="55" fill="white" transform="translate(0.945801 0.5)"/>
</clipPath>
</defs>
</svg>
