<svg width="56" height="55" viewBox="0 0 56 55" fill="none" xmlns="http://www.w3.org/2000/svg">
<g clip-path="url(#clip0_1_5180)">
<g clip-path="url(#clip1_1_5180)">
<mask id="mask0_1_5180" style="mask-type:luminance" maskUnits="userSpaceOnUse" x="0" y="40" width="46" height="15">
<path d="M0.945801 40.4939H45.8303V54.1493H0.945801V40.4939Z" fill="white"/>
</mask>
<g mask="url(#mask0_1_5180)">
<path d="M43.6326 40.7021H3.10932C1.91385 40.7021 0.945801 41.6733 0.945801 42.871V53.7134C0.945801 53.954 1.14001 54.1492 1.37951 54.1492H45.3624C45.6018 54.1492 45.796 53.954 45.796 53.7134V42.871C45.796 41.6733 44.8271 40.7021 43.6326 40.7021ZM7.19787 49.6232C5.97523 49.6232 4.98303 48.6299 4.98303 47.404C4.98303 46.1782 5.97523 45.1848 7.19787 45.1848C8.42051 45.1848 9.41171 46.1782 9.41171 47.404C9.41171 48.6299 8.42051 49.6232 7.19787 49.6232ZM13.624 49.6232C12.4004 49.6232 11.4091 48.6299 11.4091 47.404C11.4091 46.1782 12.4004 45.1848 13.624 45.1848C14.8466 45.1848 15.8379 46.1782 15.8379 47.404C15.8379 48.6299 14.8466 49.6232 13.624 49.6232ZM42.8436 51.7992H27.0399C26.8004 51.7992 26.6052 51.604 26.6052 51.3634V44.2267C26.6052 43.9872 26.8004 43.7919 27.0399 43.7919H42.8436C43.0831 43.7919 43.2783 43.9872 43.2783 44.2267V51.3634C43.2783 51.604 43.0831 51.7992 42.8436 51.7992Z" fill="#0575AD"/>
</g>
<mask id="mask1_1_5180" style="mask-type:luminance" maskUnits="userSpaceOnUse" x="0" y="24" width="46" height="15">
<path d="M0.945801 24.7773H45.8303V38.4329H0.945801V24.7773Z" fill="white"/>
</mask>
<g mask="url(#mask1_1_5180)">
<path d="M43.2783 31.1451V35.5241C43.2783 35.7646 43.0831 35.9588 42.8436 35.9588H27.0399C26.8004 35.9588 26.6052 35.7646 26.6052 35.5241V28.3874C26.6052 28.1468 26.8004 27.9516 27.0399 27.9516H30.0808C29.5496 27.5359 29.0424 27.0861 28.5594 26.603C28.0129 26.0544 27.5088 25.4738 27.0489 24.8618H3.10932C1.91385 24.8618 0.945801 25.8331 0.945801 27.0307V37.8741C0.945801 38.1137 1.14001 38.3089 1.37951 38.3089H45.3624C45.6018 38.3089 45.796 38.1137 45.796 37.8741V30.4526C44.9739 30.7515 44.1337 30.983 43.2783 31.1451ZM7.19787 33.7829C5.97523 33.7829 4.98303 32.7896 4.98303 31.5637C4.98303 30.3378 5.97523 29.3445 7.19787 29.3445C8.42051 29.3445 9.41171 30.3378 9.41171 31.5637C9.41171 32.7896 8.42051 33.7829 7.19787 33.7829ZM13.624 33.7829C12.4004 33.7829 11.4091 32.7896 11.4091 31.5637C11.4091 30.3378 12.4004 29.3445 13.624 29.3445C14.8466 29.3445 15.8379 30.3378 15.8379 31.5637C15.8379 32.7896 14.8466 33.7829 13.624 33.7829Z" fill="#0575AD"/>
</g>
<mask id="mask2_1_5180" style="mask-type:luminance" maskUnits="userSpaceOnUse" x="0" y="8" width="26" height="15">
<path d="M0.945801 8.80298H25.7367V22.7161H0.945801V8.80298Z" fill="white"/>
</mask>
<g mask="url(#mask2_1_5180)">
<path d="M25.0334 21.3605C24.175 19.3265 23.7402 17.1666 23.7402 14.9404C23.7402 12.8963 24.1076 10.9086 24.832 9.02246H3.10932C1.91385 9.02246 0.945801 9.99272 0.945801 11.1914V22.0338C0.945801 22.2743 1.14001 22.4686 1.37951 22.4686H25.5505C25.3654 22.1072 25.1933 21.7379 25.0334 21.3605ZM7.19787 17.9436C5.97523 17.9436 4.98303 16.9492 4.98303 15.7234C4.98303 14.4976 5.97523 13.5041 7.19787 13.5041C8.42051 13.5041 9.41171 14.4986 9.41171 15.7234C9.41171 16.9492 8.42051 17.9436 7.19787 17.9436ZM13.624 17.9436C12.4004 17.9436 11.4091 16.9492 11.4091 15.7234C11.4091 14.4976 12.4004 13.5041 13.624 13.5041C14.8466 13.5041 15.8379 14.4986 15.8379 15.7234C15.8379 16.9492 14.8466 17.9436 13.624 17.9436Z" fill="#0575AD"/>
</g>
<mask id="mask3_1_5180" style="mask-type:luminance" maskUnits="userSpaceOnUse" x="25" y="0" width="31" height="30">
<path d="M25.2231 0.0510254H55.0455V29.9303H25.2231V0.0510254Z" fill="white"/>
</mask>
<g mask="url(#mask3_1_5180)">
<path d="M40.1969 0.0581055C31.9967 0.0581055 25.3481 6.72077 25.3481 14.9404C25.3481 23.16 31.9967 29.8237 40.1969 29.8237C48.3981 29.8237 55.0457 23.16 55.0457 14.9404C55.0457 6.72077 48.3981 0.0581055 40.1969 0.0581055ZM35.3999 24.3617H32.7946V19.6183H35.3999V24.3617ZM39.741 24.3617H37.1368V15.354H39.741V24.3617ZM44.0832 24.3617H41.4779V17.5732H44.0832V24.3617ZM48.4243 24.3617H45.82V13.483H48.4243V24.3617ZM47.6877 10.7224L46.5214 9.55286L42.1722 13.9118L38.2869 10.0178L32.4012 15.9166C32.2392 16.0787 32.0288 16.1592 31.8175 16.1592C31.6062 16.1592 31.3949 16.0787 31.2339 15.9166C30.9119 15.5936 30.9119 15.0703 31.2339 14.7471L38.2869 7.67889L42.1722 11.5738L45.3552 8.38442L44.1888 7.21493L48.9697 5.93071L47.6877 10.7224Z" fill="#0575AD"/>
</g>
</g>
</g>
<defs>
<clipPath id="clip0_1_5180">
<rect width="54.09" height="55" fill="white" transform="translate(0.950195)"/>
</clipPath>
<clipPath id="clip1_1_5180">
<rect width="54.0984" height="55" fill="white" transform="translate(0.945801)"/>
</clipPath>
</defs>
</svg>
