<svg width="66" height="65" viewBox="0 0 66 65" fill="none" xmlns="http://www.w3.org/2000/svg">
<rect x="0.5" width="65" height="65" rx="8" fill="#00D280" fill-opacity="0.2"/>
<g clip-path="url(#clip0_1_4930)">
<g clip-path="url(#clip1_1_4930)">
<g clip-path="url(#clip2_1_4930)">
<path d="M29.2451 35.4552C29.2451 37.5205 30.9343 39.2097 32.9996 39.2097C35.0642 39.2097 36.7533 37.5205 36.7533 35.4552C36.7533 33.3907 35.0642 31.7007 32.9996 31.7007C30.9343 31.7007 29.2451 33.3907 29.2451 35.4552ZM35.5023 35.4552C35.5023 36.8318 34.3763 37.9579 32.9996 37.9579C31.623 37.9579 30.4961 36.8318 30.4961 35.4552C30.4961 34.0786 31.623 32.9525 32.9996 32.9525C34.3763 32.9525 35.5023 34.0786 35.5023 35.4552Z" fill="#00D280"/>
<mask id="mask0_1_4930" style="mask-type:luminance" maskUnits="userSpaceOnUse" x="19" y="39" width="27" height="14">
<path d="M19.9697 39.6853H45.8735V52.0993H19.9697V39.6853Z" fill="white"/>
</mask>
<g mask="url(#mask0_1_4930)">
<path d="M44.8255 40.7429C44.3563 40.2729 43.6365 40.2109 43.1045 40.6172C43.1045 40.6172 43.0735 40.6172 43.0735 40.649L40.508 42.7764C40.4769 42.7764 40.4459 42.7764 40.4459 42.7764L38.1301 41.0864C36.9411 39.9603 35.5335 39.8354 34.9704 39.8354H30.8715C30.8405 39.8354 30.8095 39.8354 30.7777 39.8354C30.1208 39.8665 28.9009 40.0852 27.8367 41.0864L25.5536 42.7764C25.5217 42.7764 25.4907 42.8074 25.4907 42.7764L22.9251 40.649C22.9251 40.649 22.8941 40.649 22.8941 40.6172C22.3621 40.2419 21.6423 40.2729 21.1731 40.7429L20.5472 41.3998C20.2967 41.6813 20.1409 42.0248 20.1719 42.4011C20.2029 42.7764 20.3914 43.1199 20.6729 43.3394L24.74 46.6867C25.2092 47.0311 25.835 47.0311 26.3043 46.7177L28.6193 45.2163V50.6599C28.6193 51.3168 29.1823 52.0994 29.9649 52.0994H36.0655C36.8163 52.0994 37.4111 51.3486 37.4111 50.6599V45.2163L39.7262 46.7496C40.1954 47.094 40.8213 47.0621 41.2905 46.7177L45.3265 43.4015C45.639 43.1827 45.8267 42.8384 45.8267 42.463C45.8577 42.0877 45.7019 41.7124 45.4514 41.4618L44.8255 40.7429ZM44.544 42.3382L40.508 45.6545C40.4769 45.6855 40.4459 45.6855 40.4141 45.6545C40.4141 45.6545 40.3831 45.6545 40.3831 45.6235L37.0667 43.4643C36.8791 43.3394 36.6286 43.3394 36.4409 43.4333C36.2532 43.5271 36.1284 43.7458 36.1284 43.9963V50.5979C36.1284 50.6599 36.0655 50.7538 36.0027 50.7856H30.528C30.4962 50.7856 30.4652 50.7856 30.4652 50.7856H29.9959C29.9649 50.7538 29.8711 50.6599 29.8711 50.5979V43.9963C29.8711 43.7777 29.7455 43.5582 29.5578 43.4333C29.4639 43.3705 29.37 43.3705 29.2452 43.3705C29.1196 43.3705 28.9947 43.4015 28.9009 43.4643L25.5846 45.5917C25.5846 45.5917 25.5536 45.5917 25.5536 45.6235C25.5217 45.6545 25.4907 45.6545 25.4907 45.6235L21.4546 42.3382C21.4546 42.3382 21.4236 42.3382 21.4236 42.3072C21.4236 42.2754 21.4236 42.2754 21.4236 42.2754L22.0496 41.6185C22.0805 41.5875 22.1115 41.5875 22.1433 41.6185L24.7082 43.7458C24.7082 43.7458 24.74 43.7458 24.74 43.7777C25.2092 44.1212 25.835 44.1212 26.3043 43.7777L28.6193 42.0877C28.6503 42.0567 28.6503 42.0567 28.6821 42.0248C29.4639 41.2431 30.4024 41.1182 30.8715 41.0864H30.9034H34.9704C35.3768 41.0864 36.4098 41.1802 37.2855 42.0248C37.3173 42.0567 37.3173 42.0567 37.3483 42.0877L39.6634 43.7777C40.1325 44.1212 40.7584 44.1212 41.2277 43.7777C41.2277 43.7777 41.2587 43.7777 41.2587 43.7458L43.8242 41.6185C43.8561 41.6185 43.8871 41.6185 43.9181 41.6185L44.544 42.2754C44.544 42.2754 44.575 42.3072 44.544 42.3072C44.575 42.3382 44.575 42.3382 44.544 42.3382Z" fill="#00D280"/>
</g>
<path d="M21.7059 26.6954C20.9862 26.6636 20.3293 27.0079 19.86 27.4771C19.3908 27.0079 18.7331 26.6636 18.0142 26.6954C16.6376 26.7582 15.5107 27.9463 15.4796 29.3858C15.4486 30.0745 15.6983 30.7314 16.0745 31.2316C16.1055 31.2944 19.359 35.2366 19.359 35.2366C19.4847 35.3925 19.6405 35.4553 19.8282 35.4553C20.0159 35.4553 20.2036 35.3615 20.2974 35.2366L23.4269 31.4193C23.6145 31.2006 23.7394 31.0129 23.8643 30.7933C24.1148 30.3242 24.2086 29.855 24.2086 29.4168C24.2086 27.9463 23.0825 26.7582 21.7059 26.6954ZM22.9887 29.4168C22.9887 29.6673 22.9258 29.9178 22.7691 30.1993C22.7072 30.3242 22.6133 30.4809 22.4877 30.6057L19.86 33.86C18.9526 32.7649 17.075 30.4809 17.044 30.4498C16.8253 30.1993 16.6996 29.824 16.7314 29.4486C16.7624 28.6661 17.3573 28.0092 18.0762 27.9782H18.108C18.6083 27.9782 19.0775 28.4163 19.328 28.8228C19.4528 29.0104 19.6405 29.1042 19.86 29.1042C20.0787 29.1042 20.2664 28.9794 20.3921 28.8228C20.6418 28.4163 21.111 27.9463 21.6431 27.9782C22.3628 27.9782 22.9568 28.6351 22.9887 29.4168Z" fill="#00D280"/>
<path d="M47.7363 28.6039L46.7661 26.4137C46.6722 26.1942 46.4535 26.0383 46.203 26.0383C45.9525 26.0383 45.7338 26.1632 45.6399 26.3818L44.5759 28.51L42.2926 28.8226C42.0731 28.8536 41.8544 29.0103 41.7916 29.2289C41.6978 29.4485 41.7606 29.6981 41.9164 29.8548L43.5436 31.5758L43.1054 33.9536C43.0744 34.2034 43.1682 34.4228 43.3559 34.5795C43.5436 34.7354 43.7941 34.7354 44.0128 34.6416L46.0463 33.5783L48.0488 34.7354C48.1427 34.7982 48.2684 34.8293 48.3622 34.8293C48.487 34.8293 48.6119 34.7982 48.7057 34.7354C48.8934 34.6105 49.0191 34.36 48.9873 34.1414L48.6437 31.7325L50.3329 30.0743C50.4896 29.9176 50.5515 29.6672 50.4896 29.4485C50.4267 29.2289 50.239 29.073 49.9885 29.0103L47.7363 28.6039ZM47.5486 31.0437C47.3919 31.1686 47.3291 31.3881 47.3609 31.5758L47.5797 33.0153L46.3907 32.3266C46.2968 32.2637 46.172 32.2327 46.0782 32.2327C45.9843 32.2327 45.8905 32.2637 45.7966 32.2956L44.5759 32.9214L44.8263 31.482C44.8573 31.2943 44.7954 31.0747 44.6697 30.95L43.6692 29.8866L45.0459 29.6981C45.2646 29.6672 45.4213 29.5423 45.5151 29.3546L46.1402 28.1029L46.704 29.3856C46.7979 29.5733 46.9537 29.6981 47.1732 29.761L48.5498 30.0115L47.5486 31.0437Z" fill="#00D280"/>
<path d="M38.9447 20.0627C38.9447 19.6873 38.8198 19.312 38.4755 19.0304C38.6003 18.8109 38.6631 18.5922 38.6631 18.3417C38.6631 17.5282 37.9753 16.8713 37.036 16.7774C37.005 16.7774 37.005 16.7774 36.974 16.7774H34.2518L34.5651 15.87C34.6899 15.4946 34.6589 15.0883 34.4712 14.7439C34.2836 14.3686 33.9702 14.118 33.5639 13.9932C32.7503 13.7427 31.9057 14.1809 31.6241 14.9626L30.8726 17.2776C30.8726 17.3095 30.8726 17.3405 30.8416 17.3715C30.8416 17.4343 30.7478 17.4971 30.6539 17.5282C30.4662 17.3095 30.1847 17.1838 29.8722 17.1838H28.7142C28.1201 17.1838 27.6191 17.6848 27.6191 18.2789V24.0987C27.6191 24.6927 28.1201 25.1938 28.7142 25.1938H29.8722C30.0281 25.1938 30.1537 25.1619 30.2785 25.0991C30.4034 25.1619 30.5291 25.1938 30.6539 25.1938H36.0037C36.5048 25.1938 36.9422 25.0053 37.2865 24.6617C37.5681 24.3802 37.7247 23.973 37.7247 23.5977C37.7247 23.41 37.6937 23.2223 37.6309 23.0657C38.0062 22.8159 38.2568 22.3778 38.2568 21.8456C38.2568 21.689 38.2249 21.5332 38.1629 21.3765C38.6631 21.095 38.9447 20.6567 38.9447 20.0627ZM29.7783 23.8792H28.9329V18.3417H29.7783V23.8792ZM37.2865 20.3124H36.6296C36.2853 20.3124 36.0037 20.5947 36.0037 20.9383C36.0037 21.2826 36.2853 21.5642 36.6296 21.5642C36.8801 21.5642 37.036 21.7209 37.036 21.8147C37.036 21.9705 36.9422 22.0652 36.7545 22.0652H36.2233C35.8789 22.0652 35.5974 22.3467 35.5974 22.6902C35.5974 23.0346 35.8789 23.3161 36.2233 23.3161H36.2543C36.442 23.3161 36.5357 23.41 36.5357 23.5667C36.5357 23.5977 36.5357 23.6605 36.4729 23.7544C36.3791 23.8481 36.2543 23.8792 36.0976 23.8792H31.0293V18.6543C31.5613 18.5294 31.9995 18.123 32.1244 17.591L32.8752 15.307C32.938 15.1821 33.0946 15.0883 33.2505 15.1503C33.3443 15.1821 33.4072 15.2441 33.4072 15.276C33.4382 15.307 33.4382 15.3698 33.4072 15.4318L32.907 16.9023C32.8131 17.1838 32.8752 17.4971 33.0628 17.7158C33.2505 17.9353 33.501 18.0292 33.7825 17.9974H36.9422C37.2237 18.0292 37.3803 18.185 37.3803 18.3107C37.3803 18.4045 37.2237 18.5604 36.974 18.5604C36.974 18.5604 36.974 18.5604 36.9422 18.5604C36.5986 18.5604 36.3171 18.8419 36.3171 19.1863C36.3171 19.5306 36.5986 19.8122 36.9422 19.8122C37.0679 19.8122 37.6309 19.8122 37.6309 20.0627C37.6937 20.1565 37.6937 20.3124 37.2865 20.3124Z" fill="#00D280"/>
<mask id="mask1_1_4930" style="mask-type:luminance" maskUnits="userSpaceOnUse" x="24" y="11" width="18" height="19">
<path d="M24.355 11.9907H41.4849V29.0316H24.355V11.9907Z" fill="white"/>
</mask>
<g mask="url(#mask1_1_4930)">
<path d="M41.4474 20.4381C41.4474 15.7762 37.6618 11.9907 33.0007 11.9907C28.3388 11.9907 24.5532 15.7762 24.5532 20.4381C24.5532 25.0991 28.3388 28.8855 33.0007 28.8855C37.6618 28.8855 41.4474 25.0991 41.4474 20.4381ZM33.0007 27.6337C29.0267 27.6337 25.8043 24.4112 25.8043 20.4381C25.8043 16.4649 29.0267 13.2425 33.0007 13.2425C36.9739 13.2425 40.1963 16.4649 40.1963 20.4381C40.1963 24.4112 36.9739 27.6337 33.0007 27.6337Z" fill="#00D280"/>
</g>
<mask id="mask2_1_4930" style="mask-type:luminance" maskUnits="userSpaceOnUse" x="39" y="23" width="15" height="15">
<path d="M39.1885 23.8091H53.0551V37.8053H39.1885V23.8091Z" fill="white"/>
</mask>
<g mask="url(#mask2_1_4930)">
<path d="M46.1406 23.8792C42.355 23.8792 39.2583 26.9768 39.2583 30.7622C39.2583 34.5477 42.355 37.6453 46.1406 37.6453C49.9269 37.6453 53.0237 34.5477 53.0237 30.7622C53.0237 26.9768 49.9269 23.8792 46.1406 23.8792ZM46.1406 36.3935C43.0438 36.3935 40.5092 33.8598 40.5092 30.7622C40.5092 27.6646 43.0438 25.1309 46.1406 25.1309C49.2382 25.1309 51.7727 27.6646 51.7727 30.7622C51.7727 33.8598 49.2382 36.3935 46.1406 36.3935Z" fill="#00D280"/>
</g>
<mask id="mask3_1_4930" style="mask-type:luminance" maskUnits="userSpaceOnUse" x="12" y="23" width="15" height="15">
<path d="M12.9458 23.8091H26.8631V37.8053H12.9458V23.8091Z" fill="white"/>
</mask>
<g mask="url(#mask3_1_4930)">
<path d="M26.7419 30.7622C26.7419 26.9768 23.6442 23.8792 19.8587 23.8792C16.0732 23.8792 12.9756 26.9768 12.9756 30.7622C12.9756 34.5477 16.0732 37.6453 19.8587 37.6453C23.6442 37.6453 26.7419 34.5477 26.7419 30.7622ZM19.8587 36.3935C16.7611 36.3935 14.2274 33.8598 14.2274 30.7622C14.2274 27.6646 16.7611 25.1309 19.8587 25.1309C22.9555 25.1309 25.4901 27.6646 25.4901 30.7622C25.4901 33.8598 22.9555 36.3935 19.8587 36.3935Z" fill="#00D280"/>
</g>
</g>
</g>
</g>
<defs>
<clipPath id="clip0_1_4930">
<rect width="41" height="40.09" fill="white" transform="translate(12.5 12)"/>
</clipPath>
<clipPath id="clip1_1_4930">
<rect width="41" height="40.09" fill="white" transform="translate(12.5 12)"/>
</clipPath>
<clipPath id="clip2_1_4930">
<rect width="41" height="40.1087" fill="white" transform="translate(12.5 11.9907)"/>
</clipPath>
</defs>
</svg>
