<svg width="47" height="46" viewBox="0 0 47 46" fill="none" xmlns="http://www.w3.org/2000/svg">
<g clip-path="url(#clip0_1_5233)">
<g clip-path="url(#clip1_1_5233)">
<mask id="mask0_1_5233" style="mask-type:luminance" maskUnits="userSpaceOnUse" x="1" y="0" width="46" height="46">
<path d="M1.47998 0.75H46.48V45.75H1.47998V0.75Z" fill="white"/>
</mask>
<g mask="url(#mask0_1_5233)">
<path fill-rule="evenodd" clip-rule="evenodd" d="M13.8124 23.9543C13.5745 23.9684 13.3342 23.9755 13.0928 23.9755C6.67863 23.9755 1.47998 18.7769 1.47998 12.3628C1.47998 5.94865 6.67863 0.75 13.0928 0.75C19.5069 0.75 24.7055 5.94865 24.7055 12.3628C24.7055 12.6042 24.6984 12.8445 24.6843 13.0824C24.4511 13.0659 24.2167 13.0576 23.98 13.0576C23.728 13.0576 23.4771 13.0671 23.2286 13.0859C23.2451 12.8468 23.2545 12.6054 23.2545 12.3628C23.2545 6.75071 18.7048 2.20218 13.0928 2.20218C7.48069 2.20218 2.93216 6.75071 2.93216 12.3628C2.93216 15.1552 4.0581 17.6851 5.88011 19.5212C6.88592 16.5002 9.7361 14.3214 13.0928 14.3214C14.638 14.3214 16.076 14.7831 17.2762 15.5757C15.1385 17.4448 13.7876 20.1913 13.7876 23.25C13.7876 23.4867 13.7959 23.7211 13.8124 23.9543ZM34.1476 22.5457C34.3855 22.5316 34.6258 22.5245 34.8672 22.5245C41.2813 22.5245 46.48 27.7231 46.48 34.1372C46.48 40.5513 41.2813 45.75 34.8672 45.75C28.4531 45.75 23.2545 40.5513 23.2545 34.1372C23.2545 33.8958 23.2616 33.6555 23.2757 33.4176C23.5089 33.4341 23.7433 33.4424 23.98 33.4424C24.232 33.4424 24.4829 33.4329 24.7314 33.4153C24.7137 33.6532 24.7055 33.8946 24.7055 34.1372C24.7055 36.9297 25.8314 39.4584 27.6546 41.2957C28.6604 38.2747 31.5106 36.0959 34.8672 36.0959C38.2239 36.0959 41.0741 38.2747 42.0799 41.2957C43.9019 39.4584 45.0278 36.9297 45.0278 34.1372C45.0278 28.5252 40.4793 23.9755 34.8672 23.9755C34.6246 23.9755 34.3832 23.9849 34.1441 24.0014C34.1629 23.7529 34.1724 23.5032 34.1724 23.25C34.1724 23.0133 34.1641 22.7789 34.1476 22.5457ZM33.0087 27.9799C33.5599 27.6737 34.1936 27.4982 34.8672 27.4982C36.9825 27.4982 38.7115 29.2283 38.7115 31.3436C38.7115 33.4589 36.9825 35.1878 34.8672 35.1878C32.752 35.1878 31.0218 33.4589 31.0218 31.3436C31.0218 31.0645 31.0525 30.7924 31.109 30.5309C31.8675 29.7878 32.5105 28.928 33.0087 27.9799ZM13.0928 13.4145C10.9775 13.4145 9.24851 11.6844 9.24851 9.5691C9.24851 7.45383 10.9775 5.72487 13.0928 5.72487C15.208 5.72487 16.9381 7.45383 16.9381 9.5691C16.9381 11.6844 15.208 13.4145 13.0928 13.4145ZM13.3377 32.1009C13.2883 32.1138 13.2459 32.1468 13.2211 32.1904C13.1952 32.234 13.1893 32.287 13.2023 32.3364C14.0385 35.3975 15.645 39.6704 21.1381 39.8482C21.217 39.8506 21.2853 39.9012 21.3112 39.9754C21.3383 40.0484 21.3159 40.1309 21.257 40.1827C17.2255 43.6147 10.2743 42.2956 7.8929 33.7557C7.86582 33.6544 7.76099 33.5955 7.65971 33.6226C7.28164 33.7239 6.40774 33.9582 5.89424 34.096C5.8224 34.1149 5.74584 34.0901 5.69873 34.0336C5.65044 33.9771 5.63984 33.897 5.67164 33.8299L9.05182 26.556C9.07656 26.503 9.12485 26.4641 9.18256 26.45C9.23909 26.437 9.29915 26.4512 9.34509 26.4877L15.2963 31.2611C15.3529 31.3059 15.3788 31.3789 15.3647 31.4496C15.3493 31.5203 15.2963 31.5768 15.2269 31.5945L13.3377 32.1009ZM34.6223 14.3991C34.6717 14.3861 34.7141 14.3543 34.7389 14.3096C34.7648 14.266 34.7707 14.213 34.7577 14.1647C33.9215 11.1037 32.315 6.83079 26.8219 6.65177C26.743 6.64942 26.6747 6.59878 26.6488 6.52575C26.6217 6.45155 26.6441 6.36911 26.703 6.31729C30.7345 2.88529 37.6856 4.20438 40.0671 12.7443C40.0942 12.8456 40.199 12.9045 40.3003 12.8774C40.6783 12.7761 41.5522 12.5418 42.0657 12.4052C42.1376 12.3851 42.2141 12.4099 42.2612 12.4664C42.3095 12.5229 42.3201 12.603 42.2883 12.6701L38.9082 19.944C38.8834 19.997 38.8351 20.0359 38.7774 20.05C38.7209 20.063 38.6608 20.05 38.6149 20.0123L32.6637 15.2389C32.6071 15.1941 32.5812 15.1211 32.5953 15.0504C32.6107 14.9797 32.6637 14.9244 32.7331 14.9055L34.6223 14.3991ZM23.98 14.5098C28.8041 14.5098 32.7202 18.4259 32.7202 23.25C32.7202 28.0741 28.8041 31.9902 23.98 31.9902C19.1559 31.9902 15.2398 28.0741 15.2398 23.25C15.2398 18.4259 19.1559 14.5098 23.98 14.5098ZM24.1814 17.8641C24.1284 17.8028 24.0589 17.771 23.98 17.771C23.8987 17.771 23.8316 17.8028 23.7786 17.8641L20.144 22.1441C20.0769 22.2253 20.0616 22.3302 20.1052 22.4267C20.1499 22.521 20.2406 22.5799 20.3454 22.5799H22.039V28.2013C22.039 28.4922 22.2746 28.729 22.5655 28.729H25.3945C25.6854 28.729 25.921 28.4922 25.921 28.2013V22.5799H27.6146C27.7194 22.5799 27.8101 22.521 27.8548 22.4267C27.8984 22.3302 27.8831 22.2253 27.816 22.1441L24.1814 17.8641Z" fill="#00D280"/>
</g>
</g>
</g>
<defs>
<clipPath id="clip0_1_5233">
<rect width="46" height="45" fill="white" transform="translate(0.97998 0.75)"/>
</clipPath>
<clipPath id="clip1_1_5233">
<rect width="46" height="45" fill="white" transform="translate(0.97998 0.75)"/>
</clipPath>
</defs>
</svg>
