<svg width="47" height="46" viewBox="0 0 47 46" fill="none" xmlns="http://www.w3.org/2000/svg">
<g clip-path="url(#clip0_1_5243)">
<g clip-path="url(#clip1_1_5243)">
<g clip-path="url(#clip2_1_5243)">
<mask id="mask0_1_5243" style="mask-type:luminance" maskUnits="userSpaceOnUse" x="1" y="0" width="46" height="46">
<path d="M1.16016 0.75H46.1602V45.75H1.16016V0.75Z" fill="white"/>
</mask>
<g mask="url(#mask0_1_5243)">
<path fill-rule="evenodd" clip-rule="evenodd" d="M26.2392 32.2291H1.16016V33.3792C1.16016 34.756 2.20212 35.8814 3.47494 35.8814H27.2127C26.492 34.8328 26.0619 33.511 26.2392 32.2291ZM45.5133 40.2462L35.5571 43.1309L36.2041 45.7403L46.1602 42.8557L45.5133 40.2462ZM34.9005 41.6885C33.8103 39.7765 32.0722 39.025 28.7778 35.4382C26.5535 33.0176 27.986 29.7554 30.2078 31.5592L33.6172 34.329L30.9302 23.4861C30.7204 22.6425 31.1892 21.7657 31.9695 21.5389C32.749 21.3141 33.5584 21.817 33.769 22.6586L35.8179 30.9263C35.6081 30.0818 36.0759 29.2059 36.8572 28.9801C37.6376 28.7533 38.4486 29.26 38.6567 30.1036L38.8024 30.691C38.5979 29.8493 39.0649 28.9763 39.8435 28.7505C40.6247 28.5246 41.435 29.0304 41.6448 29.8749L41.8379 30.6558C41.6281 29.8113 42.0968 28.9346 42.8772 28.7087C43.6576 28.4819 44.4687 28.9877 44.6785 29.8322L45.2666 32.2063C45.5879 33.5035 46.0882 36.0645 45.8337 38.5212L34.9005 41.6885ZM33.9824 13.7552C31.2418 13.7552 29.021 16.1559 29.021 19.1183C29.021 20.0928 29.2615 21.0057 29.6802 21.7923C30.0296 20.9497 30.7116 20.2741 31.5938 20.0179C33.1449 19.5691 34.7619 20.573 35.1779 22.2525L35.6537 24.1693C37.5717 23.4282 38.9437 21.4469 38.9437 19.1174C38.9429 16.1559 36.722 13.7552 33.9824 13.7552ZM32.4848 9.41786H35.4799V11.0424C36.4718 11.2559 37.3935 11.6772 38.2046 12.2636L39.2685 11.1145L41.3858 13.4041L40.3228 14.5532C40.8653 15.4319 41.255 16.4282 41.4525 17.4995H42.9553V20.7371H41.4525C41.255 21.8103 40.8653 22.8067 40.3228 23.6844L41.3858 24.8335L39.2685 27.1231L38.2046 25.974C37.634 26.3868 37.0082 26.717 36.341 26.9514L36.4683 27.4628C37.1872 27.2503 37.9264 27.3547 38.5505 27.6944C39.4959 26.9742 40.7266 26.9419 41.7053 27.5644C42.9501 26.7151 44.5784 27.0311 45.5045 28.2201V3.25295C45.5045 1.87611 44.4625 0.750732 43.1897 0.750732H3.47494C2.20212 0.750732 1.16016 1.87611 1.16016 3.25295V30.653H26.8238C27.2144 30.078 27.7736 29.6652 28.446 29.5191C29.4274 29.3056 30.3412 29.6965 31.1172 30.3266L30.0954 26.2018C29.9813 26.1297 29.8689 26.0528 29.7592 25.9731L28.6962 27.1222L26.578 24.8325L27.6411 23.6834C27.0986 22.8048 26.7088 21.8084 26.5113 20.7352H25.0085V17.4976H26.5113C26.7088 16.4254 27.0986 15.4291 27.6411 14.5513L26.578 13.4022L28.6962 11.1126L29.7592 12.2617C30.5712 11.6753 31.4929 11.254 32.4848 11.0405V9.41786ZM19.7943 13.907H22.8904V28.8197H19.7943V13.907ZM3.57062 22.9888H6.66666V28.8207H3.57062V22.9888ZM8.97881 16.526H12.0749V28.8197H8.97881V16.526ZM14.3861 19.3043H17.4822V28.8197H14.3861V19.3043ZM5.69404 18.4807C5.44913 18.8242 4.99267 18.8868 4.67491 18.6221C4.35626 18.3573 4.29833 17.8639 4.54324 17.5204L9.95054 9.91982C10.1893 9.58582 10.6273 9.51655 10.9425 9.75756L15.8609 13.3206L19.6679 9.52034L19.2799 9.51275C18.8788 9.50611 18.5593 9.14933 18.5654 8.71664C18.5715 8.28299 18.9016 7.9376 19.3019 7.94424L21.5842 7.98599C22.0248 7.99358 22.3558 8.41774 22.2908 8.88649H22.2926L21.9529 11.3261C21.8932 11.7559 21.5219 12.052 21.1251 11.9874C20.7266 11.9229 20.4536 11.5215 20.5133 11.0926L20.5571 10.7729L16.4253 14.8967L16.4244 14.8958C16.183 15.1359 15.8135 15.1767 15.5282 14.9707L10.6862 11.4627L5.69404 18.4807ZM14.1272 37.4584L12.1495 41.1268C11.9994 41.4048 12.2022 41.7113 12.4602 41.7113H33.0817C32.4515 40.9797 31.298 40.0271 30.5624 39.3562C29.89 38.7432 29.2378 38.1122 28.6031 37.4594L14.1272 37.4584Z" fill="#00D280"/>
</g>
</g>
</g>
</g>
<defs>
<clipPath id="clip0_1_5243">
<rect width="46" height="45" fill="white" transform="translate(0.660156 0.75)"/>
</clipPath>
<clipPath id="clip1_1_5243">
<rect width="46" height="45" fill="white" transform="translate(0.660156 0.75)"/>
</clipPath>
<clipPath id="clip2_1_5243">
<rect width="46" height="45" fill="white" transform="translate(0.660156 0.75)"/>
</clipPath>
</defs>
</svg>
