<svg width="72" height="55" viewBox="0 0 72 55" fill="none" xmlns="http://www.w3.org/2000/svg">
<g clip-path="url(#clip0_1_5108)">
<g clip-path="url(#clip1_1_5108)">
<g clip-path="url(#clip2_1_5108)">
<mask id="mask0_1_5108" style="mask-type:luminance" maskUnits="userSpaceOnUse" x="14" y="13" width="8" height="42">
<path d="M14.0889 13.7524H21.9608V54.4022H14.0889V13.7524Z" fill="white"/>
</mask>
<g mask="url(#mask0_1_5108)">
<path fill-rule="evenodd" clip-rule="evenodd" d="M21.7505 13.9253L14.3105 17.9976L14.3147 54.4217H21.7561L21.7505 13.9253Z" fill="#0575AD"/>
</g>
<mask id="mask1_1_5108" style="mask-type:luminance" maskUnits="userSpaceOnUse" x="25" y="19" width="9" height="36">
<path d="M25.1816 19.0947H33.0536V54.4023H25.1816V19.0947Z" fill="white"/>
</mask>
<g mask="url(#mask1_1_5108)">
<path fill-rule="evenodd" clip-rule="evenodd" d="M25.3896 19.363L25.3953 54.4217H32.8352L32.8297 23.4293L25.3896 19.363Z" fill="#0575AD"/>
</g>
<mask id="mask2_1_5108" style="mask-type:luminance" maskUnits="userSpaceOnUse" x="36" y="19" width="9" height="36">
<path d="M36.2764 19.0947H44.1483V54.4023H36.2764V19.0947Z" fill="white"/>
</mask>
<g mask="url(#mask2_1_5108)">
<path fill-rule="evenodd" clip-rule="evenodd" d="M43.9042 19.3899L36.4585 23.4294L36.4697 54.4278L43.9097 54.4218L43.9042 19.3899Z" fill="#0575AD"/>
</g>
<mask id="mask3_1_5108" style="mask-type:luminance" maskUnits="userSpaceOnUse" x="2" y="19" width="9" height="36">
<path d="M2.99854 19.8579H10.8705V54.4023H2.99854V19.8579Z" fill="white"/>
</mask>
<g mask="url(#mask3_1_5108)">
<path fill-rule="evenodd" clip-rule="evenodd" d="M10.6743 19.989L3.24121 24.0614L3.2454 54.4216H10.691L10.6743 19.989Z" fill="#0575AD"/>
</g>
<mask id="mask4_1_5108" style="mask-type:luminance" maskUnits="userSpaceOnUse" x="47" y="37" width="9" height="18">
<path d="M47.3662 37.7927H55.2381V54.4024H47.3662V37.7927Z" fill="white"/>
</mask>
<g mask="url(#mask4_1_5108)">
<path fill-rule="evenodd" clip-rule="evenodd" d="M47.541 38.1057V54.4218H54.9867L54.9811 42.4464C54.7337 42.4017 54.4878 42.3465 54.2403 42.2734H54.2348C51.702 41.5505 49.386 40.0808 47.541 38.1057Z" fill="#0575AD"/>
</g>
<path d="M58.0421 18.8024C58.7563 18.7905 59.472 18.8934 60.1638 19.0872C64.378 20.29 66.8799 24.9049 65.7505 29.3975C64.6198 33.8812 60.2854 36.5509 56.0657 35.3479C51.8531 34.1391 49.3456 29.5243 50.4763 25.039C51.027 22.8405 52.394 20.9727 54.2599 19.8638C55.4144 19.1781 56.7184 18.8129 58.0421 18.8024ZM58.5578 14.4171C58.2573 14.4067 57.9596 14.4067 57.6535 14.4231C55.7624 14.4947 53.9133 15.0431 52.257 16.0285C49.4154 17.7114 47.3398 20.5539 46.4942 23.8987C44.7764 30.7331 48.5851 37.7583 55.0049 39.5872C57.1964 40.2029 59.5084 40.1462 61.672 39.4292L61.9152 39.9406C62.5512 41.4222 64.2159 41.8082 65.566 40.975C66.9176 40.1462 67.4376 38.4142 66.5542 37.0875L66.2691 36.6284C67.9407 34.9843 69.1441 32.8691 69.7396 30.5319C71.4573 23.7021 67.6472 16.6769 61.2316 14.8479C60.3539 14.5975 59.4608 14.4514 58.5578 14.4171Z" fill="#0575AD"/>
<path d="M67.5112 40.8796C67.1338 41.3045 66.6712 41.6965 66.1359 42.0273C65.5992 42.3569 65.0526 42.5864 64.5117 42.719L67.2959 49.2314C68.0535 50.8711 69.5351 50.8412 70.5806 50.1988C71.6261 49.5549 72.3935 48.2015 71.4416 46.6915L67.5112 40.8796Z" fill="#0575AD"/>
<mask id="mask5_1_5108" style="mask-type:luminance" maskUnits="userSpaceOnUse" x="0" y="0" width="59" height="20">
<path d="M0.135742 0.5979H58.1018V19.8578H0.135742V0.5979Z" fill="white"/>
</mask>
<g mask="url(#mask5_1_5108)">
<path fill-rule="evenodd" clip-rule="evenodd" d="M34.6409 12.2468C35.924 12.2468 36.9373 13.3214 36.9373 14.6868C36.9373 16.0507 35.924 17.1255 34.6409 17.1255C33.3592 17.1255 32.3459 16.0507 32.3459 14.6868C32.3459 13.3214 33.3592 12.2468 34.6409 12.2468ZM5.02751 12.2468C6.31061 12.2468 7.32397 13.3214 7.32397 14.6868C7.32397 16.0507 6.31061 17.1255 5.02751 17.1255C3.74581 17.1255 2.73107 16.0507 2.73107 14.6868C2.73107 13.3214 3.74721 12.2468 5.02751 12.2468ZM53.1941 3.31364C54.4759 3.31364 55.485 4.39431 55.485 5.75821C55.485 7.11763 54.4759 8.19681 53.1941 8.19681C51.9125 8.19681 50.8978 7.11763 50.8978 5.75821C50.8978 4.39431 51.9125 3.31364 53.1941 3.31364ZM21.0859 3.31364C22.3676 3.31364 23.3767 4.39431 23.3767 5.75821C23.3767 7.11763 22.3676 8.19681 21.0859 8.19681C19.8041 8.19681 18.7894 7.11763 18.7894 5.75821C18.7894 4.39431 19.8041 3.31364 21.0859 3.31364ZM21.0859 0.646973C18.4484 0.646973 16.2735 2.94546 16.2735 5.75821C16.2735 5.92665 16.3043 6.09359 16.3211 6.26054L8.07593 10.7815C7.24569 10.0422 6.18902 9.57262 5.02891 9.57262C2.39142 9.57262 0.222168 11.8771 0.222168 14.6854C0.222168 17.4936 2.39142 19.8026 5.02891 19.8026C7.6664 19.8026 9.82727 17.4921 9.82727 14.6854C9.82727 14.0876 9.71125 13.5226 9.53235 12.9846L17.2282 8.77218C18.1116 10.0362 19.5093 10.8754 21.0859 10.8754C22.6666 10.8754 24.0685 10.0302 24.9477 8.75727L30.438 12.2811C30.0704 13.001 29.8384 13.8133 29.8384 14.6854C29.8384 17.4936 32.0048 19.8026 34.6409 19.8026C37.2783 19.8026 39.4476 17.4921 39.4476 14.6854C39.4476 14.596 39.4267 14.5124 39.4267 14.423L49.4581 8.92422C50.3414 10.0988 51.6805 10.8754 53.1941 10.8754C55.8316 10.8754 58.0009 8.56648 58.0009 5.75821C58.0009 2.94546 55.8316 0.646973 53.1941 0.646973C50.5567 0.646973 48.3917 2.94546 48.3917 5.75821C48.3917 5.99968 48.435 6.23371 48.4643 6.46773L38.6355 11.8547C37.7676 10.4849 36.2958 9.57262 34.6409 9.57262C33.7533 9.57262 32.9274 9.85286 32.2131 10.306L25.8409 6.20538C25.8521 6.05484 25.8814 5.90876 25.8814 5.75821C25.8814 2.94546 23.7234 0.646973 21.0859 0.646973Z" fill="#0575AD"/>
</g>
</g>
</g>
</g>
<defs>
<clipPath id="clip0_1_5108">
<rect width="71.73" height="55" fill="white" transform="translate(0.140137)"/>
</clipPath>
<clipPath id="clip1_1_5108">
<rect width="71.73" height="55" fill="white" transform="translate(0.140137)"/>
</clipPath>
<clipPath id="clip2_1_5108">
<rect width="71.7391" height="55" fill="white" transform="translate(0.135742)"/>
</clipPath>
</defs>
</svg>
