<svg width="56" height="55" viewBox="0 0 56 55" fill="none" xmlns="http://www.w3.org/2000/svg">
<g clip-path="url(#clip0_1_4999)">
<g clip-path="url(#clip1_1_4999)">
<g clip-path="url(#clip2_1_4999)">
<mask id="mask0_1_4999" style="mask-type:luminance" maskUnits="userSpaceOnUse" x="20" y="22" width="36" height="28">
<path d="M20.4126 22.7422H55.5011V49.024H20.4126V22.7422Z" fill="white"/>
</mask>
<g mask="url(#mask0_1_4999)">
<path d="M55.1668 47.7419C54.2831 46.5577 52.8642 46.3141 51.0044 46.3141H31.7078C30.8413 46.3141 30.6694 45.9082 30.6694 45.2541C30.6694 44.5283 31.4154 44.3349 31.5938 44.2943H50.2734C51.0581 44.2943 51.8149 43.6378 51.9977 42.7974L55.0959 28.6751C55.1948 28.2095 55.111 27.7392 54.8594 27.3882C54.6078 27.0324 54.2165 26.8319 53.7844 26.8319H28.5171L28.027 24.6115C27.842 23.7735 27.0831 23.1145 26.3026 23.1145H21.3962C21.0329 23.1145 20.7383 23.4416 20.7383 23.8427C20.7383 24.2438 21.0329 24.5709 21.3962 24.5709H26.3026C26.481 24.5709 26.7068 24.7643 26.7477 24.9577L30.7488 43.0719C30.0759 43.3942 29.3557 44.058 29.3557 45.2541C29.3557 46.8275 30.2371 47.7682 31.71 47.7682H51.0086C52.7911 47.7682 53.6748 48.0189 54.1542 48.6682C54.2831 48.8425 54.4723 48.9332 54.6637 48.9332C54.81 48.9332 54.9605 48.8807 55.0787 48.7685C55.356 48.513 55.399 48.0546 55.1668 47.7419ZM46.0399 33.443L45.5454 37.688H37.1323L36.6056 33.443H46.0399ZM36.4292 31.9889L35.9756 28.305L46.6377 28.3241L46.2098 31.9913H36.4292V31.9889ZM51.7655 37.6904H46.8699L47.3665 33.4453H52.6922L51.7655 37.6904ZM45.3756 39.142L44.9456 42.8403H37.7644L37.3087 39.142H45.3756ZM35.8036 37.6904H30.9123L29.9749 33.4453H35.2812L35.8036 37.6904ZM35.9821 39.142L36.44 42.8403H32.0518L31.2326 39.142H35.9821ZM50.2734 42.8403H46.2721L46.7021 39.142H51.4451L50.7184 42.4535C50.6797 42.6469 50.4518 42.8403 50.2734 42.8403ZM53.8145 28.3336L53.0126 31.9889H47.5364L47.9599 28.3241L53.8145 28.3336ZM34.6469 28.3027L35.1005 31.9889H29.6545L28.8375 28.2906L34.6469 28.3027Z" fill="#0575AD"/>
</g>
<path d="M32.0381 48.3794C30.3868 48.3794 29.0474 49.862 29.0474 51.6885C29.0474 53.5125 30.3868 55 32.0381 55C33.6872 55 35.0287 53.5125 35.0287 51.6885C35.0287 49.862 33.6872 48.3794 32.0381 48.3794ZM32.0381 52.8632C31.451 52.8632 30.9759 52.3379 30.9759 51.6885C30.9759 51.0391 31.451 50.5115 32.0381 50.5115C32.625 50.5115 33.1023 51.0391 33.1023 51.6885C33.1023 52.3379 32.625 52.8632 32.0381 52.8632Z" fill="#0575AD"/>
<path d="M50.7402 48.3794C49.0911 48.3794 47.7495 49.862 47.7495 51.6885C47.7495 53.5125 49.0911 55 50.7402 55C52.3914 55 53.7331 53.5125 53.7331 51.6885C53.7331 49.862 52.3914 48.3794 50.7402 48.3794ZM50.7402 52.8632C50.1554 52.8632 49.6803 52.3379 49.6803 51.6885C49.6803 51.0391 50.1554 50.5115 50.7402 50.5115C51.3294 50.5115 51.8045 51.0391 51.8045 51.6885C51.8045 52.3379 51.3294 52.8632 50.7402 52.8632Z" fill="#0575AD"/>
<path d="M24.841 34.5054C25.6258 33.6602 26.1461 32.7816 26.5524 31.9173L25.342 26.4307H21.3945C21.0204 26.4307 20.6721 26.3257 20.3604 26.1538C20.442 26.3615 20.5474 26.5812 20.6893 26.8104C23.1232 30.6567 21.6526 37.9625 24.841 34.5054Z" fill="#0575AD"/>
<path d="M27.6974 45.5789C25.1518 46.3476 22.432 46.5768 19.6606 46.1423C18.1857 44.1702 17.0935 42.5466 20.2819 40.0613C24.1413 37.053 20.5421 35.1095 17.5945 34.6392C14.6532 34.176 13.2105 27.1996 11.5593 23.9191C9.90802 20.6435 8.54921 26.0775 7.39034 27.9135C6.58838 29.1884 4.15668 28.2334 2.73121 27.5243C2.44741 25.3971 2.44096 23.1862 2.75056 20.949C4.15454 10.8356 11.6044 3.39597 20.4045 2.3765C19.981 4.64942 19.6843 8.405 21.9633 9.69907C25.3131 11.6019 23.793 11.1029 19.0307 12.0794C14.2726 13.0559 16.356 17.4108 20.2583 19.7362C21.1828 20.2878 21.5612 20.7796 21.6429 21.257H26.3021C27.8501 21.257 29.2907 22.5105 29.6583 24.1746L29.8367 24.9769H32.5501C34.0379 22.957 34.3797 18.2942 30.2431 19.476C25.2249 20.9157 30.1851 13.4093 32.8984 13.3806C35.186 13.3568 36.605 11.7595 37.4006 9.67991C40.688 13.7913 42.5649 19.2205 42.4037 24.9769H44.4183C44.7258 12.9126 36.8695 2.164 25.814 0.285017C13.8361 -1.75393 2.59791 7.36642 0.757478 20.6101C-1.0851 33.8537 7.16029 46.2855 19.1338 48.3221C22.288 48.8593 25.384 48.6014 28.2801 47.7205C27.9382 47.1164 27.7405 46.393 27.6974 45.5789Z" fill="#0575AD"/>
<path d="M10.3327 16.8282C11.8377 15.4195 13.059 15.2954 13.7297 12.6309C14.4027 9.97124 10.7885 11.3607 9.20823 12.6452C7.81501 13.777 7.37856 16.4367 7.98056 17.8715C8.58687 19.3065 8.83198 18.2368 10.3327 16.8282Z" fill="#0575AD"/>
</g>
</g>
</g>
<defs>
<clipPath id="clip0_1_4999">
<rect width="55" height="55" fill="white" transform="translate(0.5)"/>
</clipPath>
<clipPath id="clip1_1_4999">
<rect width="55" height="55" fill="white" transform="translate(0.5)"/>
</clipPath>
<clipPath id="clip2_1_4999">
<rect width="55" height="55" fill="white" transform="translate(0.5)"/>
</clipPath>
</defs>
</svg>
