<svg width="47" height="46" viewBox="0 0 47 46" fill="none" xmlns="http://www.w3.org/2000/svg">
<g clip-path="url(#clip0_1_5221)">
<g clip-path="url(#clip1_1_5221)">
<g clip-path="url(#clip2_1_5221)">
<mask id="mask0_1_5221" style="mask-type:luminance" maskUnits="userSpaceOnUse" x="0" y="0" width="46" height="46">
<path d="M0.830078 0.75H45.8301V45.75H0.830078V0.75Z" fill="white"/>
</mask>
<g mask="url(#mask0_1_5221)">
<path fill-rule="evenodd" clip-rule="evenodd" d="M2.62335 31.4147H6.36408C6.62096 31.4147 6.83018 31.6251 6.83018 31.8821V39.9454C6.83018 40.2024 6.62096 40.4128 6.36408 40.4128H2.62335C2.36779 40.4128 2.15857 40.2024 2.15857 39.9454V31.8821C2.15857 31.6251 2.36779 31.4147 2.62335 31.4147ZM37.9888 27.69C38.8535 27.8964 39.6785 28.2413 40.4345 28.7087L42.0235 28.0003L43.8972 29.8793L43.1914 31.4746C43.6575 32.2337 44.0005 33.062 44.2057 33.9302L45.8265 34.5561V37.2155L44.2057 37.8427C43.9992 38.7096 43.6575 39.5379 43.1914 40.297L43.8972 41.8923L42.0235 43.7726L40.4359 43.0642C39.6785 43.5316 38.8535 43.8752 37.9888 44.0829L37.3652 45.7102H34.7169L34.0919 44.0816C33.2272 43.8752 32.4022 43.5316 31.6461 43.0642L30.0572 43.7726L28.1835 41.8923L28.8893 40.2983C28.4245 39.5379 28.0815 38.7096 27.8763 37.8427L26.2542 37.2155V34.5561L27.8763 33.9302C28.0815 33.0633 28.4245 32.2337 28.8893 31.4746L28.1835 29.8793L30.0572 28.0003L31.6461 28.7087C32.4022 28.2413 33.2285 27.8964 34.0919 27.69L34.7169 26.0627H37.3652L37.9888 27.69ZM36.041 31.2496C33.4894 31.2496 31.421 33.3243 31.421 35.8865C31.421 38.4473 33.4894 40.5233 36.041 40.5233C38.5926 40.5233 40.6596 38.4473 40.6596 35.8865C40.6596 33.3243 38.5926 31.2496 36.041 31.2496ZM39.3898 0.971236L40.3856 3.60396C40.416 3.68386 40.4849 3.73446 40.5696 3.73846L43.3728 3.87562C43.5622 3.88494 43.6403 4.12598 43.492 4.24583L41.3045 6.0103C41.2396 6.06357 41.2118 6.14613 41.2343 6.22736L41.9706 8.94664C42.0209 9.13042 41.817 9.27956 41.6567 9.17436L39.309 7.63228C39.2388 7.58567 39.1528 7.58567 39.0813 7.63228L36.7335 9.17436C36.5746 9.27956 36.3694 9.13042 36.4197 8.94664L37.1559 6.22736C37.1785 6.14613 37.152 6.06357 37.0858 6.0103L34.8983 4.24583C34.75 4.12598 34.8281 3.88494 35.0188 3.87562L37.822 3.73846C37.9054 3.73446 37.9756 3.68386 38.0047 3.60396L39.0018 0.971236C39.068 0.792791 39.3223 0.792791 39.3898 0.971236ZM1.91095 27.678C7.07515 25.8722 12.3969 23.5525 17.6618 20.5389C22.483 17.781 27.2566 14.4438 31.8223 10.3915L31.5813 12.0548C31.523 12.4636 31.805 12.8418 32.2129 12.8991C32.6194 12.9577 32.9955 12.674 33.0537 12.2652L33.5913 8.54847C33.6575 8.08771 33.2868 7.67489 32.818 7.69886L29.0813 7.90261C28.6721 7.92259 28.3569 8.27415 28.3781 8.6843C28.398 9.09579 28.7476 9.41273 29.1581 9.39142L30.8053 9.3022C26.3283 13.2719 21.6501 16.5412 16.9295 19.2418C11.7455 22.2075 6.50709 24.4926 1.42234 26.2691C1.03436 26.4049 0.830442 26.8297 0.965506 27.2186C1.10057 27.6074 1.52298 27.8138 1.91095 27.678ZM41.0662 12.923H37.3254C37.0685 12.923 36.8593 13.1321 36.8593 13.3904V24.5672H38.3887L39.113 26.4555C39.5924 26.6127 40.0598 26.8084 40.5113 27.0375L41.5309 26.582V13.3904C41.5309 13.1321 41.3217 12.923 41.0662 12.923ZM28.6496 17.3509C28.3927 17.3509 28.1835 17.5613 28.1835 17.8183V27.7646L29.7274 26.2158L31.5707 27.0375C31.9851 26.8257 32.4155 26.6446 32.8564 26.4928V17.8183C32.8564 17.5613 32.6472 17.3509 32.3903 17.3509H28.6496ZM23.7158 21.7787C23.9714 21.7787 24.1806 21.9891 24.1806 22.2461V39.9454C24.1806 40.2024 23.9714 40.4128 23.7158 40.4128H19.9751C19.7182 40.4128 19.509 40.2024 19.509 39.9454V22.2461C19.509 21.9891 19.7182 21.7787 19.9751 21.7787H23.7158ZM15.0399 26.7019C15.2968 26.7019 15.506 26.911 15.506 27.1693C15.506 31.7103 15.506 35.4031 15.506 39.9454C15.506 40.2024 15.2968 40.4128 15.0399 40.4128C13.7926 40.4128 12.5466 40.4128 11.2992 40.4128C11.0423 40.4128 10.8331 40.2024 10.8331 39.9454C10.8331 35.4031 10.8331 31.7103 10.8331 27.1693C10.8331 26.911 11.0423 26.7019 11.2992 26.7019C12.5466 26.7019 13.7926 26.7019 15.0399 26.7019Z" fill="#00D280"/>
</g>
</g>
</g>
</g>
<defs>
<clipPath id="clip0_1_5221">
<rect width="46" height="45" fill="white" transform="translate(0.330078 0.75)"/>
</clipPath>
<clipPath id="clip1_1_5221">
<rect width="46" height="45" fill="white" transform="translate(0.330078 0.75)"/>
</clipPath>
<clipPath id="clip2_1_5221">
<rect width="46" height="45" fill="white" transform="translate(0.330078 0.75)"/>
</clipPath>
</defs>
</svg>
