<svg width="56" height="44" viewBox="0 0 56 44" fill="none" xmlns="http://www.w3.org/2000/svg">
<g clip-path="url(#clip0_1_5046)">
<g clip-path="url(#clip1_1_5046)">
<mask id="mask0_1_5046" style="mask-type:luminance" maskUnits="userSpaceOnUse" x="0" y="0" width="56" height="55">
<path d="M0.504883 0H55.5049V55H0.504883V0Z" fill="white"/>
</mask>
<g mask="url(#mask0_1_5046)">
<path fill-rule="evenodd" clip-rule="evenodd" d="M54.9828 27.454C54.6828 27.058 54.0476 27.081 53.8134 27.4252L47.2585 36.9052C47.1642 37.0571 47.4422 38.1145 46.6266 39.3065C46.2222 39.9043 45.6493 40.3043 44.9955 40.4696L39.7247 41.8096C39.3355 41.9096 38.9614 41.6269 38.8737 41.1886C38.7844 40.7484 39.0271 40.312 39.4163 40.2139L44.6855 38.8739C45.4943 38.6663 45.9206 37.7896 45.7807 36.8803V36.8668C45.5903 35.9901 44.8186 35.4345 44.0468 35.6306L37.0875 37.4031C37.0657 37.4089 37.0505 37.4185 37.0354 37.4378L33.4714 41.4617C33.4041 41.5597 31.6566 47.6714 31.414 48.4078C31.3854 48.4962 31.4477 48.5808 31.5235 48.5808H37.8879C37.9318 48.5808 37.9621 48.5578 37.984 48.5173L39.3792 46.0007C39.6303 45.5547 39.9977 45.3933 40.4307 45.2894L47.8095 43.5053C47.9595 43.4688 48.128 43.3322 48.155 43.2131L55.0553 29.2016C55.099 29.167 55.4614 28.0749 54.9828 27.454ZM16.3917 46.0007L17.7735 48.5173C17.7954 48.5578 17.8325 48.5808 17.8696 48.5808H24.2475C24.3183 48.5808 24.3789 48.4923 24.3502 48.4078C24.1194 47.706 22.3687 41.5404 22.2928 41.4617L18.7357 37.4359C18.7222 37.4185 18.7003 37.4089 18.6784 37.4031L11.7259 35.6306C10.9542 35.4326 10.174 35.9901 9.9903 36.8668V36.8803C9.85215 37.7915 10.27 38.6663 11.0855 38.8739L16.3547 40.212C16.7372 40.3101 16.9799 40.7522 16.8922 41.1905C16.8114 41.6269 16.4221 41.9096 16.0397 41.8096L10.7705 40.4696C10.1234 40.3043 9.55726 39.9082 9.14607 39.3161C8.70796 38.6835 8.45689 37.7896 8.52766 36.9937C8.52766 36.959 8.52092 36.9302 8.49902 36.9052L1.95766 27.4233C1.66614 27.0079 0.540527 26.9407 0.540527 28.3249C0.540527 28.9209 0.714087 29.1612 0.737679 29.267L7.60931 43.2265C7.69862 43.3784 7.79298 43.465 7.948 43.5053L15.3403 45.2875C15.7667 45.3933 16.1424 45.5547 16.3917 46.0007ZM25.4169 50.7283H16.1643C16.0986 50.7283 16.0463 50.7859 16.0463 50.859V54.8713C16.0463 54.9424 16.0986 55.0021 16.1643 55.0021H25.4169C25.4826 55.0021 25.5349 54.9424 25.5349 54.8713V50.859C25.5349 50.7859 25.4826 50.7283 25.4169 50.7283ZM39.6083 50.7283H30.3407C30.2816 50.7283 30.2311 50.7859 30.2311 50.859V54.8713C30.2311 54.9424 30.2816 55.0021 30.3407 55.0021H39.6083C39.6674 55.0021 39.7179 54.9424 39.7179 54.8713V50.859C39.7179 50.7859 39.6674 50.7283 39.6083 50.7283ZM36.2636 4.07786H39.6151C39.6809 4.07786 39.7331 4.02018 39.7331 3.94712V1.11523C39.7331 1.04217 39.6809 0.982567 39.6151 0.982567H36.2636C36.2046 0.982567 36.1541 1.04217 36.1541 1.11523V3.94712C36.1541 4.02018 36.2046 4.07786 36.2636 4.07786ZM30.2075 13.8233C30.1417 13.8233 30.0912 13.7655 30.0912 13.6924V1.11523C30.0912 1.04217 30.1417 0.982567 30.2075 0.982567H34.3173C34.3746 0.982567 34.4269 1.04217 34.4269 1.11523V4.13361C34.4269 5.18524 35.1834 6.04077 36.1018 6.04077H39.7836C40.7105 6.04077 41.4519 5.18524 41.4519 4.13361V1.11523C41.4519 1.04217 41.5041 0.982567 41.5698 0.982567H45.6864C45.7437 0.982567 45.7958 1.04217 45.7958 1.11523V13.6924C45.7958 13.7655 45.7437 13.8233 45.6864 13.8233H30.2075ZM36.2636 15.7861C36.2046 15.7861 36.1541 15.8457 36.1541 15.9168V18.7526C36.1541 18.8238 36.2046 18.8833 36.2636 18.8833H39.6151C39.6809 18.8833 39.7331 18.8238 39.7331 18.7526V15.9168C39.7331 15.8457 39.6809 15.7861 39.6151 15.7861H36.2636ZM45.7958 30.0398C45.7958 30.111 45.7437 30.1705 45.6864 30.1705H30.2075C30.1417 30.1705 30.0912 30.111 30.0912 30.0398V15.9168C30.0912 15.8457 30.1417 15.7861 30.2075 15.7861H34.3173C34.3746 15.7861 34.4269 15.8457 34.4269 15.9168V18.9391C34.4269 19.9888 35.1834 20.8462 36.1018 20.8462H39.7836C40.7105 20.8462 41.4519 19.9888 41.4519 18.9391V15.9168C41.4519 15.8457 41.5041 15.7861 41.5698 15.7861H45.6864C45.7437 15.7861 45.7958 15.8457 45.7958 15.9168V30.0398ZM28.2529 15.7861C28.3202 15.7861 28.3708 15.8457 28.3708 15.9168V30.0398C28.3708 30.111 28.3202 30.1705 28.2529 30.1705H12.7757C12.71 30.1705 12.6577 30.111 12.6577 30.0398V15.9168C12.6577 15.8457 12.71 15.7861 12.7757 15.7861H16.8838C16.9428 15.7861 17.0018 15.8457 17.0018 15.9168V18.9391C17.0018 19.9888 17.7516 20.8462 18.6767 20.8462H22.3518C23.2786 20.8462 24.0352 19.9888 24.0352 18.9391V15.9168C24.0352 15.8457 24.0857 15.7861 24.1447 15.7861H28.2529ZM18.8385 15.7861C18.7728 15.7861 18.7222 15.8457 18.7222 15.9168V18.7526C18.7222 18.8238 18.7728 18.8833 18.8385 18.8833H22.19C22.2558 18.8833 22.308 18.8238 22.308 18.7526V15.9168C22.308 15.8457 22.2574 15.7861 22.19 15.7861H18.8385ZM13.7024 4.52196C13.3856 4.11439 13.416 3.49532 13.7749 3.13581C14.1288 2.7763 14.673 2.81283 14.9881 3.22041L17.7297 6.75788C17.7735 6.81171 17.8477 6.81747 17.8982 6.76941L24.293 0.359666C24.6519 0.000150785 25.1961 0.0405241 25.5045 0.44618C25.8213 0.853759 25.7843 1.47473 25.4321 1.83234L18.3026 8.97456C17.9504 9.33214 17.4062 9.29565 17.0979 8.88997L13.7024 4.52196Z" fill="white"/>
</g>
</g>
</g>
<defs>
<clipPath id="clip0_1_5046">
<rect width="55.91" height="55" fill="white" transform="translate(0.0498047)"/>
</clipPath>
<clipPath id="clip1_1_5046">
<rect width="55.9167" height="55" fill="white" transform="translate(0.0463867)"/>
</clipPath>
</defs>
</svg>
