<svg width="66" height="65" viewBox="0 0 66 65" fill="none" xmlns="http://www.w3.org/2000/svg">
<rect x="0.5" width="65" height="65" rx="8" fill="#00D280" fill-opacity="0.2"/>
<g clip-path="url(#clip0_1_4918)">
<g clip-path="url(#clip1_1_4918)">
<g clip-path="url(#clip2_1_4918)">
<mask id="mask0_1_4918" style="mask-type:luminance" maskUnits="userSpaceOnUse" x="12" y="11" width="42" height="42">
<path d="M12.9458 11.9907H53.0545V52.0994H12.9458V11.9907Z" fill="white"/>
</mask>
<g mask="url(#mask0_1_4918)">
<path d="M15.7118 48.0645C15.2496 48.0645 15.2496 47.3155 15.7118 47.3155H16.9775C17.4397 47.3155 17.4397 48.0645 16.9775 48.0645H15.7118ZM15.7118 49.3754C15.2496 49.3754 15.2496 48.6263 15.7118 48.6263H18.2513C18.7053 48.6263 18.7053 49.3754 18.2513 49.3754H15.7118ZM17.3438 39.1235H20.0576C19.9008 38.8616 19.8045 38.5525 19.8045 38.2153V28.5724C19.8045 27.6547 20.5029 26.915 21.3494 26.915H21.5415V18.4892C21.5415 17.0752 22.6145 15.9142 23.9325 15.9142H30.416C30.4949 15.2217 31.0446 14.6879 31.699 14.6879C31.987 14.6879 32.2227 14.7253 32.4323 14.5287C32.5368 14.4353 32.6065 14.2947 32.6327 14.1261C32.8683 12.2628 34.9539 11.4017 36.2892 12.656C36.6818 13.0212 36.9523 13.5457 37.0312 14.1261C37.0747 14.4446 37.3191 14.6786 37.6245 14.6786C38.1042 14.6786 38.4797 14.6599 38.8722 15.0811C39.0731 15.2964 39.2125 15.5869 39.2474 15.9049H45.7314C47.0489 15.9049 48.131 17.0658 48.131 18.4794V29.3495L49.0559 28.076C49.4489 27.5423 50.051 27.4301 50.5834 27.8701L52.503 29.4709C53.088 29.958 53.0967 30.5571 52.695 31.1095L48.1398 37.3728V45.1715C48.1398 46.5855 47.058 47.7465 45.7401 47.7465H39.4134V50.4335C39.4134 51.3507 38.715 52.0904 37.8685 52.0904H28.191C27.3358 52.0904 26.6462 51.3413 26.6462 50.4335V47.7558H25.7038V50.4335C25.7038 51.3507 25.0059 52.0904 24.1594 52.0904H14.4902C13.635 52.0904 12.9458 51.3413 12.9458 50.4335V40.7902C12.9458 39.8726 13.6437 39.1329 14.4902 39.1329H17.3438V39.1235ZM21.6635 39.8726V45.1341C21.6635 45.406 21.3842 45.6212 21.1224 45.4433L19.3422 44.3571L17.5094 45.462C17.2741 45.6026 16.9862 45.4153 16.9862 45.1341V39.8726H14.4902C14.0276 39.8726 13.6437 40.2845 13.6437 40.7809V50.4237C13.6437 50.9201 14.0276 51.3321 14.4902 51.3321H24.1594C24.6216 51.3321 25.0059 50.9201 25.0059 50.4237V40.7902C25.0059 40.2938 24.6216 39.8819 24.1594 39.8819H21.6635V39.8726ZM17.6928 39.8726V44.4883L19.1675 43.5987C19.2725 43.5333 19.4032 43.5333 19.5078 43.5987L20.9655 44.4883V39.8726H17.6928ZM25.6951 40.5936C25.7038 40.659 25.7038 40.715 25.7038 40.7809V46.9975H26.6462V41.614L25.6951 40.5936ZM29.4126 48.0645C28.95 48.0645 28.95 47.3155 29.4126 47.3155H30.6779C31.1405 47.3155 31.1405 48.0645 30.6779 48.0645H29.4126ZM29.4126 49.3754C28.95 49.3754 28.95 48.6263 29.4126 48.6263H31.9522C32.4056 48.6263 32.4056 49.3754 31.9522 49.3754H29.4126ZM32.3011 39.1235H37.8598C38.715 39.1235 39.4046 39.8726 39.4046 40.7809V44.2543H43.9251C44.6405 44.2543 45.2338 43.6174 45.2338 42.8496V41.3614C45.1468 41.4734 45.0508 41.6513 44.911 41.7074L42.494 42.6623C41.7346 42.9622 40.9317 42.2976 41.0367 41.4174L41.3595 38.7304C41.3769 38.5992 41.4466 38.515 41.525 38.4119L45.2252 33.3282V20.2208C45.2252 19.4437 44.6318 18.8166 43.9164 18.8166H39.2387C39.169 19.5189 38.6105 20.0527 37.9473 20.0527H31.6903C31.0272 20.0527 30.4774 19.5096 30.4073 18.8166H25.73C25.0146 18.8166 24.4213 19.4437 24.4213 20.2208V26.915H31.0011C31.8563 26.915 32.5455 27.6641 32.5455 28.5724V38.2153C32.5542 38.5525 32.4584 38.8709 32.3011 39.1235ZM35.3643 39.8726V45.1341C35.3643 45.406 35.085 45.6212 34.8232 45.4433L33.043 44.3571L31.2102 45.462C30.9745 45.6026 30.6866 45.4153 30.6866 45.1341V39.8726H28.191C27.7284 39.8726 27.3446 40.2845 27.3446 40.7809V50.4237C27.3446 50.9201 27.7284 51.3321 28.191 51.3321H37.8598C38.3225 51.3321 38.7063 50.9201 38.7063 50.4237V40.7902C38.7063 40.2938 38.3225 39.8819 37.8598 39.8819H35.3643V39.8726ZM31.3849 39.8726V44.4883L32.8597 43.5987C32.9642 43.5333 33.0953 43.5333 33.1999 43.5987L34.6572 44.4883V39.8726H31.3849ZM39.4046 45.0127V47.0067H45.7314C46.665 47.0067 47.4331 46.183 47.4331 45.1902V38.3558L45.9323 40.4157V42.859C45.9323 44.0484 45.033 45.0127 43.9251 45.0127H39.4046ZM26.6549 40.5749C26.6897 40.3219 26.7686 40.0879 26.8993 39.8726H26.0092L26.6549 40.5749ZM22.5623 35.8467C22.0996 35.8467 22.0996 35.0977 22.5623 35.0977H23.8278C24.2901 35.0977 24.2901 35.8467 23.8278 35.8467H22.5623ZM22.5623 37.1668C22.0996 37.1668 22.0996 36.4178 22.5623 36.4178H25.1018C25.5557 36.4178 25.5557 37.1668 25.1018 37.1668H22.5623ZM28.5139 27.6641V32.9256C28.5139 33.197 28.2346 33.4127 27.9727 33.2348L26.1926 32.1486L24.3685 33.2535C24.1333 33.394 23.8453 33.2068 23.8453 32.9256V27.6641H21.3494C20.8867 27.6641 20.5029 28.076 20.5029 28.5724V38.2153C20.5029 38.721 20.8867 39.1235 21.3494 39.1235H31.0185C31.4807 39.1235 31.865 38.7116 31.865 38.2153V28.5724C31.865 28.076 31.4807 27.6641 31.0185 27.6641H28.5139ZM24.5432 27.6641V32.2798L26.0179 31.3902C26.1229 31.3249 26.2537 31.3249 26.3582 31.3902L27.8155 32.2798V27.6641H24.5432ZM22.2307 26.915H23.7228V20.2208C23.7228 19.0318 24.6304 18.0675 25.73 18.0675H30.3986V16.6633H23.9237C22.9901 16.6633 22.2307 17.487 22.2307 18.4794V26.915ZM44.5185 40.1626L44.8936 40.6216L52.1365 30.6599C52.32 30.4072 52.3287 30.2853 52.0668 30.0701L50.1469 28.4692C49.9291 28.2913 49.7544 28.3193 49.597 28.5439L48.0701 30.6505C48.0613 30.6692 48.0439 30.6883 48.0352 30.6977L45.8709 33.6654C45.8621 33.6841 45.8446 33.7028 45.8359 33.712L42.3541 38.4964L42.8255 38.749C43.4537 39.1235 44.0384 39.6106 44.5185 40.1626ZM42.2583 41.9605L44.3786 41.1269C43.8724 40.4251 43.1832 39.8166 42.4852 39.4047L42.0138 39.1516L41.7346 41.5201C41.6997 41.8292 41.979 42.0819 42.2583 41.9605ZM45.9323 32.3732L47.4331 30.3138V18.4892C47.4331 17.487 46.665 16.6726 45.7314 16.6726H39.2561V18.0675H43.9251C45.033 18.0675 45.9323 19.0412 45.9323 20.2208V32.3732ZM37.3365 35.5189C37.7901 35.5189 37.7901 36.268 37.3365 36.268H36.0622C35.6 36.268 35.6 35.5189 36.0622 35.5189H37.3365ZM37.3365 33.1596C37.7901 33.1596 37.7901 33.9087 37.3365 33.9087H36.0622C35.6 33.9087 35.6 33.1596 36.0622 33.1596H37.3365ZM40.2599 32.5605H41.6035C42.3367 32.5605 42.9388 33.2068 42.9388 33.9933V35.4348C42.9388 36.2212 42.3367 36.8671 41.6035 36.8671H40.2599C39.5266 36.8671 38.9246 36.2212 38.9246 35.4348V33.9933C38.9246 33.2068 39.5266 32.5605 40.2599 32.5605ZM41.6035 33.3095H40.2599C39.9109 33.3095 39.6229 33.6187 39.6229 33.9933V35.4348C39.6229 35.8094 39.9109 36.1185 40.2599 36.1185H41.6035C41.9529 36.1185 42.2408 35.8094 42.2408 35.4348V33.9933C42.2408 33.6187 41.9529 33.3095 41.6035 33.3095ZM40.2599 27.0276H41.6035C42.3367 27.0276 42.9388 27.6641 42.9388 28.4505V29.8921C42.9388 30.6785 42.3367 31.3155 41.6035 31.3155H40.2599C39.5266 31.3155 38.9246 30.6692 38.9246 29.8921V28.4505C38.9246 27.6641 39.5266 27.0276 40.2599 27.0276ZM41.6035 27.7669H40.2599C39.9109 27.7669 39.6229 28.076 39.6229 28.4505V29.8921C39.6229 30.2666 39.9109 30.5758 40.2599 30.5758H41.6035C41.9529 30.5758 42.2408 30.2666 42.2408 29.8921V28.4505C42.2408 28.076 41.9529 27.7669 41.6035 27.7669ZM40.2599 21.4756H41.6035C42.3367 21.4756 42.9388 22.1214 42.9388 22.9078V24.3499C42.9388 25.1363 42.3367 25.7821 41.6035 25.7821H40.2599C39.5266 25.7821 38.9246 25.1363 38.9246 24.3499V22.9078C38.9246 22.1214 39.5266 21.4756 40.2599 21.4756ZM41.6035 22.2246H40.2599C39.9109 22.2246 39.6229 22.5333 39.6229 22.9078V24.3499C39.6229 24.7244 39.9109 25.0331 40.2599 25.0331H41.6035C41.9529 25.0331 42.2408 24.7244 42.2408 24.3499V22.9078C42.2408 22.5333 41.9529 22.2246 41.6035 22.2246ZM34.8319 13.5643C35.6348 13.5643 36.0448 14.6127 35.4689 15.2217C34.8842 15.8395 33.9244 15.3805 33.9244 14.538C33.9244 14.0042 34.3343 13.5643 34.8319 13.5643ZM34.98 14.3788C34.7884 14.1728 34.4917 14.4913 34.6834 14.6973C34.8755 14.9032 35.1722 14.5847 34.98 14.3788ZM37.3365 24.4339C37.7901 24.4339 37.7901 25.183 37.3365 25.183H29.055C28.5923 25.183 28.5923 24.4339 29.055 24.4339H37.3365ZM37.3365 22.0747C37.7901 22.0747 37.7901 22.8238 37.3365 22.8238H27.1437C26.6811 22.8238 26.6811 22.0747 27.1437 22.0747H37.3365ZM37.9561 15.437C37.5021 15.437 37.1531 15.465 36.7693 15.0905C36.5424 14.8752 36.3851 14.5754 36.3415 14.2293C36.176 12.9465 34.7448 12.3754 33.8368 13.2178C33.5663 13.4709 33.3833 13.8263 33.331 14.2293C33.2435 14.9219 32.6936 15.4276 32.048 15.4276C31.7426 15.4276 31.5069 15.3805 31.2891 15.6149C31.0969 15.8208 31.1143 16.0268 31.1143 16.2794V18.648C31.1143 19.0038 31.3849 19.2943 31.7078 19.2943H37.9648C38.2963 19.2943 38.5669 19.0038 38.5669 18.648V16.0735C38.5581 15.727 38.2876 15.437 37.9561 15.437ZM37.3365 29.9767C37.7901 29.9767 37.7901 30.7257 37.3365 30.7257H35.1373C34.6746 30.7257 34.6746 29.9767 35.1373 29.9767H37.3365ZM37.3365 27.6174C37.7901 27.6174 37.7901 28.3664 37.3365 28.3664H33.1128C32.6588 28.3664 32.6588 27.6174 33.1128 27.6174H37.3365Z" fill="#00D280"/>
</g>
</g>
</g>
</g>
<defs>
<clipPath id="clip0_1_4918">
<rect width="41" height="40.09" fill="white" transform="translate(12.5 12)"/>
</clipPath>
<clipPath id="clip1_1_4918">
<rect width="41" height="40.09" fill="white" transform="translate(12.5 12)"/>
</clipPath>
<clipPath id="clip2_1_4918">
<rect width="41" height="40.1087" fill="white" transform="translate(12.5 11.9907)"/>
</clipPath>
</defs>
</svg>
