<svg width="56" height="55" viewBox="0 0 56 55" fill="none" xmlns="http://www.w3.org/2000/svg">
<g clip-path="url(#clip0_1_5146)">
<g clip-path="url(#clip1_1_5146)">
<g clip-path="url(#clip2_1_5146)">
<mask id="mask0_1_5146" style="mask-type:luminance" maskUnits="userSpaceOnUse" x="0" y="0" width="34" height="55">
<path d="M0.950684 0.450928H33.1934V54.5493H0.950684V0.450928Z" fill="white"/>
</mask>
<g mask="url(#mask0_1_5146)">
<path d="M19.5848 51.9787H14.4477C13.7723 51.9787 13.2259 51.3803 13.2259 50.6429C13.2259 49.8995 13.7723 49.2981 14.4477 49.2981H19.5848C20.2602 49.2981 20.8066 49.8995 20.8066 50.6429C20.8066 51.3803 20.2602 51.9787 19.5848 51.9787ZM29.7979 45.2246C29.7979 46.0542 29.1851 46.7288 28.4299 46.7288H5.60257C4.84874 46.7288 4.23319 46.0542 4.23319 45.2246V7.97633C4.23319 7.14671 4.84874 6.47072 5.60257 6.47072H28.4299C29.1851 6.47072 29.7979 7.14671 29.7979 7.97633V10.8998H33.0804V4.06232C33.0804 2.06946 31.6126 0.452637 29.7979 0.452637H4.23319C2.4211 0.452637 0.950684 2.06946 0.950684 4.06232V50.9398C0.950684 52.9327 2.4211 54.5496 4.23319 54.5496H29.7979C31.6126 54.5496 33.0804 52.9327 33.0804 50.9398V42.3012H29.7979V45.2246Z" fill="#0575AD"/>
</g>
<path d="M28.8107 29.1643H20.5227C20.2116 29.1643 19.959 29.4409 19.959 29.7833V38.5844C19.959 38.9253 20.2116 39.2047 20.5227 39.2047H28.8107C29.1232 39.2047 29.3744 38.9253 29.3744 38.5844V29.7833C29.3744 29.4409 29.1232 29.1643 28.8107 29.1643Z" fill="#0575AD"/>
<path d="M29.3744 14.616C29.3744 14.2737 29.1232 13.9956 28.8107 13.9956H20.5227C20.2116 13.9956 19.959 14.2737 19.959 14.616V24.0419C19.959 24.3828 20.2116 24.6608 20.5227 24.6608H28.8107C29.1232 24.6608 29.3744 24.3828 29.3744 24.0419V14.616Z" fill="#0575AD"/>
<path d="M42.3221 28.8513L34.0327 29.1644C33.7229 29.1644 33.4717 29.4409 33.4717 29.7833V38.5844C33.4717 38.9253 33.7229 39.2048 34.0327 39.2048H42.3221C42.6331 39.2048 42.8844 38.9253 42.8844 38.5844V29.4702C42.8844 29.1279 42.6331 28.8513 42.3221 28.8513Z" fill="#0575AD"/>
<path d="M40.1817 12.6377C40.0262 12.3422 39.6819 12.2412 39.4133 12.411L32.2354 17.2805C31.9655 17.4501 31.8738 17.8306 32.0293 18.1262L36.1747 26.0186C36.3289 26.3156 36.6732 26.4166 36.9418 26.2439L44.121 21.3744C44.3896 21.2047 44.4813 20.8272 44.3271 20.5287L40.1817 12.6377Z" fill="#0575AD"/>
<path d="M50.9268 7.77862C51.5875 7.05288 51.5875 6.19106 50.9268 5.46679C50.2673 4.73959 49.1984 4.73959 48.5377 5.46679L45.1381 8.89064C44.4787 9.61637 44.4787 10.7927 45.1381 11.5186C45.7989 12.2428 46.8679 12.2428 47.5286 11.5186L50.9268 7.77862Z" fill="#0575AD"/>
<path d="M39.3036 9.33244C40.2356 9.33244 40.9934 8.49987 40.9934 7.47418V3.13876C40.9934 2.11307 40.2356 1.27905 39.3036 1.27905C38.3704 1.27905 37.6152 2.11307 37.6152 3.13876V7.47418C37.6152 8.49987 38.3704 9.33244 39.3036 9.33244Z" fill="#0575AD"/>
<mask id="mask1_1_5146" style="mask-type:luminance" maskUnits="userSpaceOnUse" x="46" y="15" width="10" height="6">
<path d="M46.8994 15.7808H55.0505V20.2259H46.8994V15.7808Z" fill="white"/>
</mask>
<g mask="url(#mask1_1_5146)">
<path d="M53.3611 16.388L48.8169 16.075C47.8836 16.075 47.1284 16.906 47.1284 17.9317C47.1284 18.9574 47.8836 19.79 48.8169 19.79L53.3611 20.1031C54.293 20.1031 55.0496 19.272 55.0496 18.2448C55.0496 17.2191 54.293 16.388 53.3611 16.388Z" fill="#0575AD"/>
</g>
</g>
</g>
</g>
<defs>
<clipPath id="clip0_1_5146">
<rect width="55" height="55" fill="white" transform="translate(0.5)"/>
</clipPath>
<clipPath id="clip1_1_5146">
<rect width="55" height="55" fill="white" transform="translate(0.5)"/>
</clipPath>
<clipPath id="clip2_1_5146">
<rect width="55" height="55" fill="white" transform="translate(0.5)"/>
</clipPath>
</defs>
</svg>
