<svg width="66" height="65" viewBox="0 0 66 65" fill="none" xmlns="http://www.w3.org/2000/svg">
<rect x="0.5" width="65" height="65" rx="8" fill="#00D280" fill-opacity="0.2"/>
<g clip-path="url(#clip0_1_4961)">
<g clip-path="url(#clip1_1_4961)">
<g clip-path="url(#clip2_1_4961)">
<path d="M33.001 42.9955C32.8218 42.9955 32.6426 42.9911 32.4639 42.9824C32.2848 42.9737 32.106 42.9606 31.9277 42.9431C31.7494 42.9252 31.5716 42.9033 31.3946 42.877C31.2171 42.8508 31.0405 42.8203 30.8648 42.7853C30.6892 42.7503 30.5144 42.711 30.3405 42.6673C30.1665 42.624 29.994 42.5764 29.8222 42.524C29.6509 42.472 29.4808 42.4161 29.3122 42.3557C29.143 42.2954 28.9761 42.2308 28.8105 42.1621C28.6449 42.0935 28.481 42.021 28.3193 41.9445C28.1572 41.8676 27.9972 41.7872 27.839 41.7028C27.6808 41.6184 27.5252 41.5302 27.3714 41.4379C27.2175 41.3458 27.0664 41.2501 26.9173 41.1504C26.7683 41.0508 26.622 40.9476 26.4777 40.841C26.3339 40.7339 26.1928 40.6238 26.0542 40.5102C25.9157 40.3965 25.7798 40.2794 25.647 40.1593C25.5145 40.0386 25.3848 39.9154 25.258 39.7887C25.1313 39.6619 25.0076 39.5322 24.8874 39.3993C24.7668 39.2665 24.6497 39.131 24.5361 38.9924C24.4224 38.8539 24.3123 38.7127 24.2056 38.5685C24.0986 38.4247 23.9955 38.2784 23.8958 38.1293C23.7966 37.9803 23.7005 37.8286 23.6083 37.6752C23.5165 37.5214 23.4278 37.3654 23.3435 37.2076C23.2591 37.0494 23.1782 36.8894 23.1018 36.7273C23.0253 36.5652 22.9527 36.4014 22.8842 36.2361C22.8156 36.0705 22.7509 35.9031 22.6905 35.7344C22.6303 35.5658 22.5738 35.3958 22.5219 35.224C22.4698 35.0527 22.4222 34.8801 22.3786 34.7061C22.3348 34.5322 22.2959 34.3574 22.261 34.1817C22.226 34.0061 22.1954 33.8295 22.1687 33.652C22.1425 33.475 22.1207 33.2972 22.1032 33.1189C22.0858 32.9406 22.0722 32.7618 22.0635 32.5827C22.0547 32.404 22.0503 32.2247 22.0503 32.0456C22.0503 31.8664 22.0547 31.6873 22.0635 31.508C22.0722 31.3293 22.0853 31.1506 22.1032 30.9723C22.1207 30.7935 22.1425 30.6161 22.1687 30.4386C22.195 30.2613 22.2256 30.0847 22.2606 29.909C22.2955 29.7333 22.3348 29.5585 22.3786 29.3846C22.4222 29.2106 22.4698 29.038 22.5219 28.8667C22.5738 28.695 22.6303 28.5249 22.6905 28.3563C22.7509 28.1875 22.8151 28.0202 22.8838 27.8546C22.9523 27.6894 23.0248 27.5255 23.1018 27.3634C23.1782 27.2012 23.2586 27.0412 23.3435 26.883C23.4278 26.7253 23.516 26.5693 23.6083 26.4155C23.7005 26.2621 23.7962 26.1105 23.8958 25.9614C23.9955 25.8124 24.0986 25.666 24.2053 25.5222C24.3119 25.378 24.422 25.2368 24.5361 25.0983C24.6497 24.9598 24.7668 24.8243 24.887 24.6914C25.0072 24.5586 25.1308 24.4287 25.2576 24.302C25.3843 24.1753 25.5141 24.0516 25.647 23.9315C25.7798 23.8112 25.9153 23.6941 26.0539 23.5805C26.1924 23.4669 26.3335 23.3563 26.4777 23.2497C26.6215 23.143 26.7679 23.0399 26.9169 22.9403C27.0659 22.8406 27.2171 22.745 27.3709 22.6527C27.5248 22.5605 27.6808 22.4722 27.8386 22.3879C27.9968 22.3032 28.1567 22.2227 28.3188 22.1462C28.481 22.0693 28.6444 21.9967 28.81 21.9282C28.9756 21.8596 29.143 21.7953 29.3117 21.735C29.4805 21.6743 29.6504 21.6183 29.8218 21.5663C29.9935 21.5143 30.1661 21.4662 30.34 21.423C30.5139 21.3792 30.6888 21.3399 30.8645 21.305C31.0402 21.27 31.2166 21.2394 31.3941 21.2132C31.5711 21.187 31.7489 21.1651 31.9273 21.1472C32.1055 21.1298 32.2843 21.1166 32.4635 21.1078C32.6422 21.0991 32.8214 21.0947 33.0006 21.0947C33.1797 21.0947 33.3589 21.0991 33.5381 21.1078C33.7168 21.1166 33.8955 21.1298 34.0739 21.1472C34.2522 21.1651 34.4301 21.187 34.6074 21.2132C34.7849 21.2394 34.961 21.27 35.1371 21.305C35.3128 21.3399 35.4876 21.3792 35.6616 21.423C35.835 21.4662 36.0081 21.5143 36.1794 21.5663C36.3507 21.6183 36.5212 21.6743 36.6899 21.7346C36.8585 21.7953 37.0255 21.8596 37.1911 21.9282C37.3568 21.9967 37.5206 22.0693 37.6827 22.1458C37.8444 22.2227 38.0044 22.3032 38.1626 22.3875C38.3208 22.4722 38.4763 22.5605 38.6302 22.6527C38.784 22.7445 38.9353 22.8406 39.0842 22.9403C39.2332 23.0395 39.3797 23.1426 39.5239 23.2497C39.6676 23.3563 39.8088 23.4665 39.9473 23.58C40.0858 23.6941 40.2218 23.8108 40.3547 23.9315C40.487 24.0516 40.6169 24.1753 40.7435 24.302C40.8703 24.4287 40.994 24.5586 41.1141 24.691C41.2348 24.8239 41.3519 24.9598 41.4655 25.0983C41.5791 25.2368 41.6893 25.378 41.7959 25.5217C41.9029 25.666 42.0061 25.8124 42.1057 25.9614C42.2049 26.1105 42.3011 26.2616 42.3929 26.4155C42.485 26.5693 42.5734 26.7248 42.6581 26.883C42.7425 27.0412 42.8229 27.2012 42.8998 27.3634C42.9762 27.525 43.0488 27.689 43.1174 27.8546C43.1861 28.0202 43.2507 28.1871 43.311 28.3558C43.3714 28.5249 43.4272 28.695 43.4793 28.8663C43.5317 29.038 43.5794 29.2106 43.6231 29.3846C43.6663 29.558 43.7057 29.7329 43.7406 29.909C43.7756 30.0847 43.8061 30.2613 43.8323 30.4382C43.8586 30.6156 43.8809 30.7935 43.8984 30.9718C43.9159 31.1502 43.929 31.3289 43.9377 31.5076C43.9464 31.6868 43.9508 31.866 43.9508 32.0451C43.9508 32.2244 43.946 32.4035 43.9373 32.5822C43.9281 32.761 43.915 32.9397 43.8971 33.118C43.8791 33.2963 43.8573 33.4741 43.8307 33.6512C43.8044 33.8282 43.7733 34.0047 43.7384 34.1804C43.703 34.3561 43.6637 34.5309 43.62 34.7044C43.5763 34.8783 43.5287 35.0509 43.4762 35.2223C43.4242 35.3936 43.3678 35.5635 43.3075 35.7323C43.2472 35.901 43.1826 36.0679 43.114 36.2335C43.0453 36.3987 42.9723 36.5626 42.8959 36.7247C42.8189 36.8864 42.7385 37.0464 42.6542 37.2042C42.5695 37.3624 42.4811 37.5179 42.389 37.6717C42.2967 37.8251 42.201 37.9767 42.1013 38.1254C42.0017 38.2744 41.8986 38.4208 41.792 38.5646C41.6854 38.7083 41.5748 38.8495 41.4611 38.988C41.3476 39.1266 41.2308 39.2621 41.1102 39.3949C40.9901 39.5278 40.8664 39.6576 40.7396 39.7843C40.6133 39.9106 40.4835 40.0342 40.3507 40.1545C40.2178 40.2751 40.0824 40.3917 39.9439 40.5054C39.8053 40.6195 39.6642 40.7295 39.5204 40.8362C39.3766 40.9428 39.2302 41.046 39.0812 41.1456C38.9326 41.2452 38.781 41.3414 38.6276 41.4331C38.4737 41.5254 38.3181 41.6136 38.1599 41.6985C38.0021 41.7828 37.8422 41.8636 37.6806 41.9401C37.5184 42.017 37.355 42.0896 37.1894 42.1582C37.0237 42.2268 36.8568 42.2915 36.6881 42.3518C36.5194 42.4125 36.3494 42.4689 36.1781 42.5209C36.0068 42.5729 35.8341 42.621 35.6607 42.6646C35.4867 42.7084 35.3119 42.7477 35.1362 42.7827C34.9606 42.818 34.7844 42.8487 34.607 42.8754C34.4301 42.9016 34.2522 42.9238 34.0739 42.9418C33.8955 42.9592 33.7173 42.9728 33.5381 42.9815C33.3593 42.9907 33.1802 42.9955 33.001 42.9955ZM33.001 21.9308C32.8353 21.9308 32.6702 21.9347 32.5046 21.943C32.3393 21.9509 32.1742 21.9631 32.0095 21.9793C31.8451 21.9955 31.6808 22.016 31.5169 22.04C31.353 22.0645 31.19 22.0929 31.0279 22.1248C30.8653 22.1572 30.7041 22.1934 30.5433 22.2336C30.3828 22.2738 30.2234 22.318 30.0647 22.3661C29.9065 22.4141 29.7492 22.4661 29.5936 22.5221C29.4376 22.5776 29.2833 22.637 29.1304 22.7003C28.9774 22.7637 28.8258 22.831 28.6763 22.9018C28.5269 22.9726 28.3787 23.047 28.2327 23.1251C28.0868 23.2029 27.9431 23.2847 27.801 23.3694C27.659 23.4546 27.5192 23.5434 27.3815 23.6351C27.2438 23.7274 27.1084 23.8227 26.9755 23.921C26.8427 24.0197 26.712 24.1215 26.5844 24.2264C26.4563 24.3318 26.3309 24.4397 26.208 24.5507C26.0857 24.6622 25.9655 24.7762 25.8484 24.8933C25.7317 25.01 25.6172 25.1302 25.5062 25.2526C25.3953 25.3754 25.2869 25.5008 25.182 25.6288C25.0771 25.7564 24.9753 25.8871 24.8765 26.02C24.7778 26.1528 24.6825 26.2883 24.5907 26.426C24.4984 26.5636 24.4102 26.7034 24.325 26.8455C24.2398 26.9875 24.1585 27.1313 24.0802 27.2773C24.0024 27.4233 23.9277 27.5714 23.857 27.7209C23.7861 27.8703 23.7193 28.0219 23.6559 28.1749C23.5925 28.3274 23.5332 28.4821 23.4772 28.6377C23.4217 28.7937 23.3697 28.951 23.3216 29.1092C23.2735 29.2679 23.2294 29.4274 23.1892 29.5878C23.149 29.7481 23.1127 29.9098 23.0804 30.072C23.048 30.2346 23.0196 30.3975 22.9956 30.5614C22.9711 30.7249 22.951 30.8892 22.9348 31.054C22.9182 31.2187 22.9065 31.3839 22.8981 31.5491C22.8898 31.7147 22.8859 31.88 22.8859 32.0456C22.8859 32.2112 22.8898 32.3764 22.8981 32.542C22.9065 32.7072 22.9182 32.8724 22.9344 33.0371C22.951 33.2019 22.9711 33.3658 22.9956 33.5297C23.0196 33.6936 23.048 33.8566 23.0804 34.0187C23.1127 34.1813 23.149 34.3425 23.1892 34.5033C23.2294 34.6638 23.2735 34.8232 23.3216 34.9819C23.3697 35.1401 23.4212 35.2974 23.4772 35.453C23.5332 35.609 23.5925 35.7633 23.6559 35.9162C23.7193 36.0692 23.7861 36.2204 23.857 36.3703C23.9277 36.5197 24.0021 36.6675 24.0802 36.8134C24.158 36.9599 24.2398 37.1036 24.325 37.2457C24.4102 37.3877 24.4984 37.5275 24.5907 37.6652C24.6825 37.8029 24.7778 37.9379 24.8765 38.0708C24.9748 38.204 25.0766 38.3342 25.182 38.4623C25.2869 38.5903 25.3948 38.7158 25.5062 38.8382C25.6172 38.9609 25.7313 39.0807 25.8484 39.1978C25.9655 39.3149 26.0853 39.429 26.208 39.54C26.3304 39.6514 26.4558 39.7594 26.5839 39.8643C26.712 39.9696 26.8422 40.0714 26.975 40.1697C27.1084 40.2686 27.2434 40.3637 27.381 40.4556C27.5187 40.5478 27.6586 40.636 27.8005 40.7212C27.9426 40.8065 28.0864 40.8882 28.2327 40.966C28.3787 41.0443 28.5264 41.1185 28.6759 41.1893C28.8258 41.2601 28.977 41.327 29.1299 41.3904C29.2829 41.4537 29.4372 41.5136 29.5932 41.5691C29.7488 41.625 29.9061 41.677 30.0643 41.7247C30.2229 41.7727 30.3824 41.8168 30.5428 41.857C30.7036 41.8977 30.8648 41.9335 31.0274 41.9659C31.1895 41.9982 31.3526 42.0267 31.5165 42.0511C31.6804 42.0751 31.8447 42.0957 32.0095 42.1119C32.1742 42.128 32.339 42.1403 32.5046 42.1481C32.6697 42.1564 32.835 42.1604 33.0006 42.1604C33.1662 42.1604 33.3318 42.1564 33.497 42.1481C33.6622 42.1403 33.8274 42.128 33.9922 42.1119C34.1569 42.0953 34.3212 42.0751 34.4847 42.0511C34.6485 42.0267 34.8115 41.9982 34.9741 41.9659C35.1362 41.9335 35.2979 41.8973 35.4584 41.857C35.6192 41.8168 35.7787 41.7727 35.9369 41.7247C36.0955 41.6765 36.2524 41.625 36.4084 41.5691C36.5639 41.5132 36.7187 41.4537 36.8716 41.3904C37.0246 41.327 37.1758 41.2601 37.3253 41.1893C37.4751 41.1185 37.6229 41.0438 37.7688 40.966C37.9148 40.8877 38.059 40.8065 38.201 40.7212C38.3426 40.636 38.4825 40.5478 38.6201 40.4556C38.7578 40.3637 38.8933 40.2686 39.0261 40.1697C39.159 40.071 39.2896 39.9692 39.4177 39.8643C39.5457 39.7594 39.6707 39.651 39.7935 39.54C39.9163 39.429 40.036 39.3145 40.1531 39.1978C40.2702 39.0807 40.3843 38.9605 40.4954 38.8382C40.6064 38.7154 40.7147 38.59 40.8196 38.4623C40.9245 38.3342 41.0263 38.2036 41.1251 38.0708C41.2239 37.9379 41.3191 37.8024 41.4109 37.6648C41.5031 37.5271 41.5913 37.3872 41.6766 37.2452C41.7618 37.1032 41.8431 36.9594 41.9213 36.8134C41.9991 36.6675 42.0738 36.5197 42.1447 36.3699C42.215 36.2204 42.2823 36.0687 42.3456 35.9158C42.409 35.7633 42.4685 35.6085 42.5244 35.453C42.5799 35.2969 42.6319 35.1396 42.68 34.9814C42.728 34.8229 42.7722 34.6633 42.8124 34.5029C42.8526 34.3421 42.8889 34.1809 42.9213 34.0183C42.9535 33.8562 42.9815 33.6931 43.006 33.5292C43.0304 33.3654 43.0506 33.2015 43.0667 33.0367C43.0829 32.872 43.0951 32.7068 43.1034 32.5416C43.1113 32.376 43.1152 32.2108 43.1152 32.0451C43.1152 31.8795 43.1108 31.7144 43.1025 31.5491C43.0943 31.3839 43.082 31.2187 43.0658 31.054C43.0492 30.8892 43.0287 30.7254 43.0047 30.5614C42.9802 30.398 42.9518 30.235 42.919 30.0728C42.8867 29.9103 42.8504 29.749 42.8102 29.5887C42.7696 29.4278 42.7254 29.2688 42.6774 29.1101C42.6293 28.9519 42.5773 28.7951 42.5213 28.639C42.4654 28.4835 42.406 28.3292 42.3426 28.1762C42.2792 28.0233 42.212 27.872 42.1412 27.7226C42.0703 27.5731 41.9961 27.4254 41.9178 27.2795C41.8396 27.1335 41.7583 26.9897 41.6731 26.8477C41.5879 26.7057 41.4992 26.5663 41.4074 26.4286C41.3157 26.2909 41.2199 26.1559 41.1216 26.023C41.0229 25.8898 40.921 25.7595 40.8161 25.6315C40.7113 25.5038 40.6029 25.3784 40.4918 25.256C40.3809 25.1332 40.2668 25.0135 40.1497 24.8964C40.0325 24.7793 39.9128 24.6652 39.7905 24.5542C39.6676 24.4432 39.5422 24.3348 39.4146 24.2299C39.2866 24.1251 39.1563 24.0232 39.0235 23.9244C38.8906 23.8261 38.7551 23.7308 38.6175 23.6386C38.4802 23.5469 38.3404 23.4581 38.1984 23.3729C38.0563 23.2881 37.9126 23.2064 37.7667 23.1282C37.6207 23.0504 37.473 22.9756 37.3235 22.9049C37.174 22.8341 37.0229 22.7673 36.8699 22.7034C36.717 22.6401 36.5627 22.5806 36.4071 22.5246C36.2511 22.4688 36.0942 22.4167 35.936 22.3687C35.7774 22.3206 35.6183 22.2764 35.4575 22.2358C35.297 22.1956 35.1358 22.1593 34.9737 22.127C34.8111 22.0947 34.6481 22.0662 34.4847 22.0417C34.3208 22.0173 34.1569 21.9967 33.9922 21.9806C33.8274 21.964 33.6627 21.9517 33.497 21.9434C33.3318 21.9351 33.1666 21.9308 33.001 21.9308Z" fill="#00D280"/>
<path d="M32.9996 16.6174C32.9241 16.6174 32.8484 16.6139 32.7728 16.6065C32.6977 16.5991 32.6229 16.5877 32.5486 16.5729C32.4739 16.5584 32.4009 16.5401 32.3284 16.5178C32.2558 16.4959 32.1846 16.4706 32.1147 16.4413C32.0443 16.4125 31.9762 16.3801 31.9093 16.3443C31.8425 16.3085 31.7777 16.2696 31.7144 16.2276C31.6514 16.1857 31.5907 16.1407 31.5321 16.0926C31.4735 16.0445 31.4177 15.9934 31.3639 15.9401C31.3106 15.8863 31.2595 15.8304 31.2114 15.7718C31.1633 15.7132 31.1183 15.6525 31.0764 15.5896C31.0344 15.5266 30.9954 15.4615 30.9596 15.3947C30.9238 15.3278 30.8915 15.2596 30.8626 15.1897C30.8333 15.1193 30.808 15.0481 30.7862 14.976C30.7639 14.9035 30.7455 14.83 30.7306 14.7557C30.7162 14.6814 30.7049 14.6063 30.6975 14.5311C30.69 14.4555 30.6865 14.3799 30.6865 14.3043C30.6865 14.2287 30.69 14.1531 30.6975 14.0775C30.7049 14.0023 30.7162 13.9272 30.7306 13.8529C30.7455 13.7786 30.7639 13.7051 30.7862 13.6326C30.808 13.5605 30.8333 13.4888 30.8626 13.4189C30.8915 13.349 30.9238 13.2808 30.9596 13.2139C30.9951 13.1471 31.034 13.082 31.0764 13.019C31.1183 12.9561 31.1633 12.8954 31.2114 12.8368C31.2595 12.7782 31.3102 12.7223 31.3639 12.6685C31.4172 12.6148 31.4735 12.5641 31.5321 12.516C31.5907 12.4679 31.6514 12.4229 31.7144 12.381C31.7773 12.3386 31.8425 12.2997 31.9089 12.2643C31.9757 12.2285 32.0443 12.1961 32.1142 12.1668C32.1842 12.138 32.2554 12.1127 32.3279 12.0904C32.4005 12.0685 32.4739 12.0502 32.5482 12.0353C32.6225 12.0204 32.6972 12.0095 32.7728 12.0021C32.848 11.9947 32.9236 11.9907 32.9996 11.9907C33.0752 11.9907 33.1508 11.9947 33.226 12.0021C33.3016 12.0095 33.3763 12.0204 33.4506 12.0353C33.5249 12.0502 33.5983 12.0685 33.6709 12.0904C33.7434 12.1122 33.8146 12.138 33.8846 12.1668C33.9545 12.1957 34.0231 12.228 34.09 12.2639C34.1568 12.2997 34.2215 12.3386 34.2845 12.3805C34.3478 12.4225 34.4085 12.4675 34.4671 12.5156C34.5256 12.5637 34.5816 12.6143 34.6354 12.6681C34.6887 12.7219 34.7398 12.7778 34.7879 12.8364C34.836 12.8949 34.881 12.9557 34.9229 13.0186C34.9649 13.0815 35.0037 13.1466 35.0396 13.2135C35.0755 13.2799 35.1077 13.3485 35.1366 13.4185C35.1659 13.4884 35.1913 13.5596 35.2131 13.6322C35.2354 13.7047 35.2537 13.7781 35.2686 13.8524C35.2834 13.9267 35.2944 14.0014 35.3018 14.0771C35.3093 14.1522 35.3132 14.2278 35.3132 14.3039C35.3127 14.3795 35.3093 14.4551 35.3018 14.5302C35.2944 14.6058 35.2831 14.6806 35.2682 14.7549C35.2533 14.8292 35.2349 14.9026 35.2127 14.9751C35.1908 15.0477 35.1655 15.1189 35.1362 15.1888C35.1073 15.2587 35.075 15.3269 35.0392 15.3938C35.0034 15.4607 34.9644 15.5253 34.9224 15.5883C34.8806 15.6516 34.8351 15.7124 34.7871 15.7709C34.7389 15.8295 34.6882 15.8854 34.6349 15.9387C34.5812 15.9925 34.5253 16.0432 34.4667 16.0913C34.4082 16.1393 34.3474 16.1844 34.2845 16.2267C34.2215 16.2687 34.1564 16.3076 34.0895 16.3434C34.0231 16.3793 33.9545 16.4116 33.8846 16.4404C33.8146 16.4697 33.7434 16.4951 33.6709 16.5174C33.5983 16.5392 33.5253 16.5576 33.4511 16.5724C33.3767 16.5873 33.3016 16.5986 33.2265 16.6061C33.1508 16.6135 33.0757 16.6174 32.9996 16.6174ZM32.9996 12.8263C32.9026 12.8263 32.8065 12.8359 32.7112 12.8547C32.6164 12.8739 32.5237 12.9019 32.4341 12.9391C32.3445 12.9762 32.2593 13.0216 32.1785 13.0754C32.0981 13.1296 32.0233 13.1908 31.9548 13.2594C31.8861 13.328 31.8249 13.4027 31.7712 13.4831C31.717 13.564 31.6715 13.6492 31.6344 13.7388C31.5973 13.8284 31.5693 13.9206 31.5505 14.0159C31.5313 14.1111 31.5221 14.2073 31.5221 14.3043C31.5221 14.4013 31.5313 14.4975 31.5505 14.5927C31.5693 14.6876 31.5973 14.7802 31.6344 14.8698C31.6715 14.9594 31.717 15.0446 31.7712 15.1255C31.8249 15.2059 31.8861 15.2806 31.9548 15.3492C32.0237 15.4178 32.0981 15.479 32.1789 15.5332C32.2598 15.5869 32.345 15.6324 32.4345 15.6695C32.5241 15.7067 32.6164 15.7347 32.7117 15.7535C32.8069 15.7727 32.903 15.7819 33.0001 15.7819C33.0971 15.7819 33.1932 15.7722 33.2885 15.7535C33.3833 15.7347 33.4759 15.7063 33.5655 15.6691C33.6552 15.632 33.7404 15.5865 33.8208 15.5328C33.9016 15.4786 33.9763 15.4174 34.045 15.3488C34.1136 15.2802 34.1747 15.2054 34.2285 15.125C34.2827 15.0442 34.3281 14.959 34.3653 14.8694C34.402 14.7798 34.4304 14.6871 34.4492 14.5919C34.468 14.497 34.4776 14.4009 34.4776 14.3039C34.4772 14.2068 34.4675 14.1107 34.4488 14.0154C34.4296 13.9206 34.4016 13.8284 34.3644 13.7388C34.3272 13.6492 34.2819 13.564 34.2277 13.4831C34.1739 13.4027 34.1127 13.328 34.0441 13.2594C33.9755 13.1912 33.9007 13.1296 33.8203 13.0758C33.7395 13.0221 33.6543 12.9766 33.5647 12.9395C33.4751 12.9023 33.3829 12.8739 33.2881 12.8551C33.1928 12.8359 33.0966 12.8263 32.9996 12.8263Z" fill="#00D280"/>
<path d="M32.9999 21.9308C32.9443 21.9308 32.891 21.9203 32.8399 21.8989C32.7888 21.878 32.7438 21.8473 32.7044 21.8085C32.6655 21.7692 32.635 21.7241 32.6139 21.673C32.5925 21.6214 32.582 21.5685 32.582 21.5131V16.1998C32.582 16.1443 32.5925 16.091 32.6139 16.0398C32.635 15.9887 32.6655 15.9437 32.7044 15.9043C32.7438 15.865 32.7888 15.8349 32.8399 15.8139C32.891 15.7925 32.9443 15.782 32.9999 15.782C33.0554 15.782 33.1087 15.7925 33.1598 15.8139C33.2109 15.8349 33.2564 15.865 33.2953 15.9043C33.3346 15.9437 33.3648 15.9887 33.3857 16.0398C33.4072 16.091 33.4176 16.1443 33.4176 16.1998V21.5131C33.4176 21.5685 33.4072 21.6214 33.3857 21.673C33.3648 21.7241 33.3346 21.7692 33.2953 21.8085C33.2564 21.8473 33.2109 21.8775 33.1598 21.8989C33.1087 21.9203 33.0554 21.9308 32.9999 21.9308Z" fill="#00D280"/>
<path d="M32.9996 52.0993C32.9241 52.0993 32.8484 52.0954 32.7728 52.088C32.6977 52.0805 32.6225 52.0696 32.5482 52.0548C32.4739 52.0399 32.4005 52.0216 32.3279 51.9997C32.2558 51.9774 32.1846 51.9521 32.1142 51.9232C32.0443 51.894 31.9762 51.8616 31.9093 51.8262C31.8425 51.7904 31.7773 51.7514 31.7144 51.7096C31.6514 51.6671 31.5907 51.6221 31.5321 51.5741C31.4735 51.526 31.4177 51.4753 31.3639 51.4216C31.3102 51.3682 31.2595 51.3119 31.2114 51.2533C31.1633 51.1947 31.1183 51.134 31.0764 51.071C31.034 51.0081 30.9951 50.943 30.9596 50.8761C30.9238 50.8093 30.8915 50.7411 30.8622 50.6712C30.8333 50.6008 30.808 50.5296 30.7862 50.457C30.7639 50.3849 30.7455 50.3115 30.7306 50.2368C30.7162 50.1625 30.7049 50.0877 30.6975 50.0126C30.69 49.937 30.6865 49.8614 30.6865 49.7858C30.6865 49.7097 30.69 49.6342 30.6975 49.5589C30.7049 49.4833 30.7162 49.4087 30.7311 49.3343C30.7455 49.2601 30.7643 49.1866 30.7862 49.1141C30.808 49.0415 30.8338 48.9703 30.8626 48.9003C30.8915 48.8305 30.9238 48.7618 30.9596 48.695C30.9954 48.6281 31.0344 48.5634 31.0764 48.5005C31.1187 48.4376 31.1637 48.3764 31.2118 48.3178C31.2599 48.2592 31.3106 48.2033 31.3644 48.15C31.4177 48.0963 31.474 48.0456 31.5325 47.9975C31.5911 47.9494 31.6519 47.9044 31.7148 47.8621C31.7777 47.8201 31.8429 47.7811 31.9097 47.7453C31.9766 47.7099 32.0448 47.6776 32.1147 47.6483C32.1851 47.6195 32.2563 47.5941 32.3288 47.5719C32.4014 47.55 32.4747 47.5317 32.5491 47.5168C32.6233 47.5023 32.6981 47.491 32.7737 47.4835C32.8488 47.4761 32.9245 47.4727 33.0001 47.4727C33.0761 47.4727 33.1517 47.4761 33.2269 47.4835C33.3025 47.4915 33.3772 47.5023 33.4515 47.5172C33.5258 47.5321 33.5992 47.5505 33.6718 47.5723C33.7443 47.5946 33.8155 47.6199 33.8854 47.6488C33.9554 47.678 34.024 47.7104 34.0909 47.7462C34.1577 47.7816 34.2224 47.8205 34.2853 47.8629C34.3483 47.9048 34.4094 47.9499 34.468 47.9979C34.5265 48.046 34.5825 48.0971 34.6358 48.1505C34.6895 48.2042 34.7403 48.2601 34.7883 48.3187C34.8364 48.3777 34.8814 48.4385 34.9233 48.5014C34.9658 48.5643 35.0046 48.6294 35.04 48.6963C35.0758 48.7627 35.1082 48.8314 35.1371 48.9012C35.1663 48.9712 35.1917 49.0424 35.2135 49.115C35.2358 49.1875 35.2542 49.2609 35.2686 49.3352C35.2834 49.4095 35.2944 49.4847 35.3018 49.5598C35.3093 49.6354 35.3132 49.7111 35.3132 49.7867C35.3127 49.8627 35.3093 49.9378 35.3018 50.0135C35.2939 50.0886 35.2831 50.1633 35.2682 50.2377C35.2533 50.3119 35.2349 50.3854 35.2127 50.4579C35.1908 50.5305 35.1651 50.6017 35.1362 50.6716C35.1069 50.7415 35.0746 50.8097 35.0392 50.8765C35.0034 50.9435 34.9644 51.0081 34.9221 51.071C34.8801 51.134 34.8351 51.1947 34.7871 51.2533C34.7389 51.3119 34.6882 51.3677 34.6345 51.4216C34.5812 51.4749 34.5248 51.5255 34.4663 51.5736C34.4077 51.6217 34.3469 51.6667 34.284 51.7091C34.2211 51.7511 34.1564 51.79 34.0895 51.8258C34.0227 51.8612 33.9545 51.8935 33.8846 51.9228C33.8146 51.9516 33.7434 51.9769 33.6709 51.9993C33.5983 52.0212 33.5249 52.0395 33.4506 52.0543C33.3763 52.0692 33.3016 52.0805 33.2265 52.088C33.1508 52.0954 33.0752 52.0993 32.9996 52.0993ZM32.9996 48.3087C32.9026 48.3087 32.8065 48.3182 32.7117 48.337C32.6164 48.3558 32.5237 48.3838 32.4341 48.421C32.3445 48.4581 32.2593 48.5035 32.1789 48.5577C32.0981 48.6115 32.0233 48.6727 31.9548 48.7413C31.8861 48.8099 31.8249 48.8847 31.7712 48.9655C31.717 49.0459 31.6715 49.1311 31.6344 49.2207C31.5973 49.3103 31.5693 49.403 31.5505 49.4978C31.5313 49.5931 31.5221 49.6892 31.5221 49.7862C31.5221 49.8833 31.5313 49.9794 31.5505 50.0746C31.5693 50.1695 31.5973 50.2622 31.6344 50.3517C31.6715 50.4413 31.717 50.5265 31.7707 50.6074C31.8249 50.6878 31.8861 50.7625 31.9548 50.8311C32.0233 50.8997 32.0981 50.961 32.1785 51.0151C32.2593 51.0689 32.3445 51.1143 32.4341 51.1514C32.5237 51.1886 32.6159 51.2166 32.7112 51.2358C32.8065 51.2546 32.9026 51.2642 32.9996 51.2642C33.0966 51.2642 33.1923 51.2546 33.2876 51.2358C33.3829 51.217 33.4751 51.189 33.5652 51.1519C33.6547 51.1148 33.74 51.0693 33.8203 51.0151C33.9012 50.9614 33.9759 50.9002 34.0445 50.8315C34.1131 50.763 34.1743 50.6882 34.228 50.6078C34.2822 50.527 34.3277 50.4418 34.3648 50.3522C34.402 50.2625 34.43 50.1704 34.4488 50.0751C34.468 49.9798 34.4776 49.8836 34.4776 49.7867C34.4772 49.6896 34.468 49.5935 34.4488 49.4987C34.43 49.4034 34.4016 49.3111 34.3644 49.2216C34.3272 49.132 34.2819 49.0468 34.228 48.9659C34.1739 48.8856 34.1127 48.8108 34.0441 48.7421C33.9755 48.6736 33.9007 48.6124 33.8203 48.5582C33.7395 48.5044 33.6547 48.459 33.5652 48.4218C33.4755 48.3847 33.3829 48.3563 33.2881 48.3375C33.1928 48.3182 33.0966 48.3087 32.9996 48.3087Z" fill="#00D280"/>
<path d="M32.9999 48.3088C32.9443 48.3088 32.891 48.2983 32.8399 48.2768C32.7888 48.2559 32.7438 48.2253 32.7044 48.1865C32.6655 48.1471 32.635 48.1021 32.6139 48.051C32.5925 47.9998 32.582 47.9465 32.582 47.891V42.5778C32.582 42.5222 32.5925 42.4689 32.6139 42.4178C32.635 42.3666 32.6655 42.3216 32.7044 42.2823C32.7438 42.2434 32.7888 42.2129 32.8399 42.1918C32.891 42.1704 32.9443 42.1599 32.9999 42.1599C33.0554 42.1599 33.1087 42.1704 33.1598 42.1918C33.2109 42.2129 33.2564 42.2434 33.2953 42.2823C33.3346 42.3216 33.3648 42.3666 33.3857 42.4178C33.4072 42.4689 33.4176 42.5222 33.4176 42.5778V47.891C33.4176 47.9465 33.4072 47.9998 33.3857 48.051C33.3648 48.1021 33.3346 48.1471 33.2953 48.1865C33.2564 48.2253 33.2109 48.2559 33.1598 48.2768C33.1087 48.2983 33.0554 48.3088 32.9999 48.3088Z" fill="#00D280"/>
<path d="M45.5449 21.8127C45.4562 21.8127 45.3683 21.8075 45.2805 21.7974C45.1926 21.7873 45.1057 21.7721 45.0196 21.752C44.934 21.7319 44.8492 21.7069 44.7662 21.6773C44.6826 21.6475 44.6014 21.613 44.5223 21.5737C44.4432 21.5347 44.3663 21.4911 44.292 21.443C44.2181 21.3953 44.1469 21.3434 44.0782 21.287C44.0102 21.2311 43.9454 21.1712 43.8839 21.1078C43.8226 21.044 43.765 20.9771 43.7112 20.9072C43.6575 20.8369 43.6081 20.7639 43.5626 20.6883C43.5172 20.6122 43.4761 20.534 43.4398 20.4536C43.4035 20.3732 43.3716 20.291 43.3445 20.2067C43.3179 20.1228 43.2956 20.0371 43.2786 19.9506C43.2611 19.8636 43.2488 19.7766 43.2418 19.6884C43.2349 19.6005 43.2327 19.5122 43.2357 19.424C43.2384 19.3357 43.2462 19.2479 43.2593 19.1604C43.2724 19.073 43.2903 18.9865 43.3135 18.9013C43.3362 18.8156 43.3638 18.7322 43.3966 18.65C43.4289 18.5678 43.466 18.4879 43.508 18.4097C43.5495 18.3319 43.5954 18.2567 43.6456 18.1842C43.6963 18.1112 43.7505 18.0417 43.8086 17.9753C43.8672 17.9088 43.9289 17.8463 43.9944 17.7869C44.06 17.7275 44.1285 17.672 44.2006 17.6208C44.2723 17.5693 44.3471 17.5221 44.424 17.4792C44.5014 17.4364 44.5809 17.3979 44.6626 17.3643C44.7443 17.3306 44.8273 17.3014 44.9125 17.2773C44.9974 17.2529 45.0835 17.2336 45.1708 17.2192C45.2578 17.2048 45.3456 17.1956 45.4339 17.1912C45.5222 17.1869 45.6105 17.1877 45.6983 17.1934C45.7866 17.1995 45.874 17.2105 45.961 17.2262C46.0479 17.2419 46.1336 17.2629 46.2184 17.2883C46.3027 17.314 46.3857 17.3446 46.4666 17.3796C46.5479 17.415 46.6265 17.4548 46.703 17.4989C46.7794 17.543 46.8533 17.5915 46.9241 17.644C46.9954 17.6969 47.0631 17.7532 47.1273 17.8136C47.192 17.8743 47.2527 17.9381 47.31 18.0054C47.3668 18.0727 47.4201 18.1435 47.469 18.2169C47.5181 18.2903 47.5631 18.3664 47.6033 18.445C47.6435 18.5237 47.6793 18.6041 47.7103 18.6872C47.7413 18.7698 47.768 18.8541 47.7894 18.9398C47.8109 19.0254 47.827 19.1119 47.8388 19.1998C47.8502 19.2872 47.8567 19.375 47.858 19.4637C47.8593 19.552 47.8559 19.6399 47.8471 19.7281C47.8384 19.816 47.8248 19.9029 47.806 19.9895C47.7872 20.076 47.7641 20.1608 47.7356 20.2447C47.7073 20.3282 47.674 20.4099 47.636 20.4899C47.5985 20.5698 47.556 20.6472 47.5093 20.7219C47.4625 20.7971 47.4118 20.8692 47.3567 20.9386C47.3021 21.0077 47.2432 21.0738 47.1806 21.1358C47.0736 21.2433 46.9564 21.3395 46.8302 21.4238C46.7039 21.5085 46.5706 21.5798 46.4303 21.6375C46.29 21.6956 46.1454 21.7397 45.9963 21.769C45.8473 21.7983 45.6966 21.8132 45.5449 21.8127ZM45.5449 18.0233C45.4881 18.0233 45.4321 18.0268 45.3758 18.0329C45.3198 18.0395 45.2643 18.0491 45.2093 18.0622C45.1542 18.0749 45.1 18.0906 45.0472 18.1099C44.9938 18.1286 44.9418 18.1509 44.8911 18.1758C44.8409 18.2008 44.7915 18.2287 44.7443 18.2593C44.6966 18.2899 44.6512 18.3231 44.6075 18.359C44.5638 18.3948 44.5223 18.4328 44.483 18.4735C44.444 18.5141 44.407 18.5569 44.3728 18.6015C44.3383 18.6465 44.3069 18.6928 44.2775 18.7413C44.2488 18.7899 44.2226 18.8397 44.1994 18.8912C44.1758 18.9428 44.1556 18.9953 44.1381 19.049C44.1211 19.1028 44.1067 19.1574 44.0958 19.2129C44.0848 19.268 44.077 19.3239 44.0726 19.3803C44.0678 19.4366 44.0665 19.493 44.0683 19.5494C44.0704 19.6058 44.0752 19.6617 44.0835 19.7176C44.0918 19.7736 44.1032 19.8287 44.1181 19.8833C44.1324 19.9379 44.1504 19.9912 44.1709 20.0437C44.1919 20.0965 44.2155 20.1477 44.2422 20.1975C44.2688 20.2473 44.2981 20.2954 44.3305 20.3417C44.3623 20.388 44.3973 20.4326 44.4344 20.475C44.4716 20.5174 44.511 20.5576 44.5529 20.5956C44.5948 20.6336 44.6385 20.669 44.6844 20.7018C44.7303 20.7346 44.7779 20.7647 44.8273 20.7923C44.8767 20.8194 44.9274 20.8443 44.9799 20.8657C45.0319 20.8871 45.0852 20.9059 45.1393 20.9212C45.194 20.9369 45.2486 20.9492 45.3046 20.9583C45.36 20.9675 45.4165 20.9737 45.4728 20.9763C45.5292 20.9789 45.5855 20.9785 45.642 20.9749C45.6983 20.971 45.7543 20.9645 45.8097 20.954C45.8652 20.9439 45.9199 20.9308 45.9741 20.9142C46.0282 20.898 46.0811 20.8784 46.1327 20.8561C46.1847 20.8334 46.2349 20.808 46.2839 20.78C46.3328 20.7516 46.3796 20.7206 46.4251 20.687C46.4705 20.6533 46.5137 20.6175 46.5548 20.5786C46.5964 20.5401 46.6352 20.4995 46.6715 20.4562C46.7082 20.4134 46.7419 20.3684 46.7734 20.3212C46.8048 20.2744 46.8332 20.2255 46.859 20.1752C46.8848 20.1254 46.908 20.0738 46.9277 20.0209C46.9473 19.9681 46.9643 19.9143 46.9778 19.8592C46.9918 19.8046 47.0024 19.7491 47.0097 19.6932C47.0168 19.6372 47.0212 19.5809 47.022 19.5245C47.0228 19.4681 47.0207 19.4117 47.015 19.3554C47.0093 19.2994 47.0006 19.2435 46.9888 19.1884C46.977 19.1334 46.9617 19.0792 46.9438 19.0254C46.9254 18.9721 46.9045 18.9197 46.88 18.8685C46.8559 18.8178 46.8288 18.768 46.7991 18.7204C46.7695 18.6723 46.7371 18.6264 46.7017 18.5818C46.6667 18.5377 46.6292 18.4957 46.5894 18.456C46.4508 18.317 46.2914 18.2104 46.11 18.1352C45.929 18.0605 45.7407 18.0229 45.5449 18.0233Z" fill="#00D280"/>
<path d="M40.4489 25.0168C40.4073 25.0168 40.3671 25.0107 40.3278 24.9989C40.2881 24.9867 40.2513 24.9692 40.2169 24.9465C40.1823 24.9234 40.1521 24.8958 40.1259 24.8639C40.0997 24.832 40.0787 24.7971 40.063 24.759C40.0472 24.7206 40.0372 24.6812 40.0332 24.6401C40.0293 24.5991 40.0311 24.558 40.0394 24.5174C40.0472 24.4772 40.0608 24.4387 40.0805 24.4019C40.1001 24.3657 40.1242 24.333 40.1535 24.3036L43.9104 20.5466C43.9498 20.5086 43.9948 20.4797 44.0454 20.4592C44.0966 20.4391 44.1495 20.429 44.2041 20.4295C44.2587 20.4299 44.3116 20.4408 44.3619 20.4618C44.4126 20.4832 44.4571 20.5129 44.496 20.5518C44.5345 20.5907 44.5646 20.6353 44.5857 20.6856C44.6071 20.7362 44.6179 20.7887 44.6184 20.8438C44.6188 20.8984 44.6088 20.9513 44.5887 21.002C44.5681 21.053 44.5389 21.0981 44.5008 21.1374L40.7443 24.8945C40.6626 24.9758 40.5642 25.0168 40.4489 25.0168Z" fill="#00D280"/>
<path d="M20.4556 46.9027C20.3673 46.9027 20.279 46.8975 20.1912 46.8874C20.1033 46.8773 20.0164 46.8621 19.9303 46.8419C19.8442 46.8219 19.7598 46.7969 19.6764 46.7673C19.5933 46.7375 19.512 46.703 19.4329 46.6641C19.3534 46.6247 19.2769 46.5815 19.2026 46.5335C19.1284 46.4853 19.0567 46.4334 18.9885 46.3774C18.9203 46.3215 18.8552 46.2616 18.794 46.1978C18.7324 46.1344 18.6747 46.0676 18.621 45.9976C18.5672 45.9273 18.5178 45.8543 18.4724 45.7787C18.4269 45.7027 18.3859 45.6244 18.3496 45.544C18.3129 45.4636 18.2814 45.381 18.2543 45.2971C18.2272 45.2127 18.2049 45.1275 18.1879 45.0406C18.1708 44.9541 18.1586 44.8666 18.1512 44.7784C18.1442 44.6905 18.142 44.6023 18.1446 44.514C18.1477 44.4257 18.1556 44.3378 18.1687 44.2505C18.1818 44.1626 18.1997 44.0765 18.2224 43.9908C18.2456 43.9056 18.2731 43.8218 18.3055 43.7396C18.3382 43.6574 18.3754 43.5775 18.4169 43.4996C18.4584 43.4214 18.5047 43.3463 18.555 43.2737C18.6052 43.2007 18.6594 43.1313 18.718 43.0648C18.7761 42.9984 18.8382 42.9355 18.9037 42.8764C18.9688 42.817 19.0379 42.7616 19.1096 42.7099C19.1812 42.6588 19.256 42.6116 19.3333 42.5683C19.4107 42.5255 19.4902 42.487 19.5715 42.4534C19.6532 42.4197 19.7367 42.3905 19.8214 42.3664C19.9067 42.342 19.9928 42.3228 20.0802 42.3083C20.1671 42.2939 20.255 42.2847 20.3432 42.2803C20.4315 42.276 20.5198 42.2769 20.6081 42.2826C20.6959 42.2883 20.7838 42.2991 20.8707 42.3149C20.9577 42.3311 21.0433 42.3516 21.1281 42.3774C21.2125 42.4032 21.2955 42.4333 21.3763 42.4688C21.4577 42.5037 21.5363 42.5435 21.6128 42.5876C21.6892 42.6321 21.7631 42.6803 21.8339 42.7331C21.9051 42.7855 21.9728 42.8424 22.0371 42.9027C22.1018 42.963 22.1625 43.0273 22.2198 43.0945C22.277 43.1618 22.3299 43.2326 22.3793 43.3061C22.4282 43.3795 22.4728 43.4555 22.5134 43.5341C22.5536 43.6128 22.5895 43.6932 22.6206 43.7763C22.6516 43.8588 22.6778 43.9432 22.6992 44.0289C22.721 44.1146 22.7372 44.2015 22.749 44.2889C22.7604 44.3768 22.7669 44.4646 22.7682 44.5529C22.7696 44.6411 22.766 44.7294 22.7573 44.8173C22.7485 44.9055 22.735 44.9925 22.7162 45.079C22.6975 45.1656 22.6739 45.2503 22.6454 45.3342C22.617 45.4177 22.5838 45.4995 22.5462 45.5794C22.5082 45.6594 22.4663 45.7367 22.4195 45.812C22.3728 45.8871 22.3221 45.9592 22.267 46.0283C22.2119 46.0973 22.1533 46.1633 22.0908 46.2258C21.9834 46.3333 21.8667 46.429 21.7404 46.5138C21.6141 46.5981 21.4808 46.6694 21.3405 46.7275C21.2002 46.7856 21.0556 46.8293 20.9066 46.8586C20.7575 46.8883 20.6072 46.9027 20.4556 46.9027ZM20.4556 43.1134C20.3992 43.1134 20.3428 43.1164 20.2869 43.123C20.2305 43.1295 20.175 43.1391 20.1199 43.1518C20.0653 43.1649 20.0111 43.1806 19.9578 43.1999C19.9049 43.2186 19.8529 43.2409 19.8022 43.2659C19.7515 43.2907 19.7026 43.3187 19.6554 43.3493C19.6077 43.3799 19.5623 43.4131 19.5186 43.4489C19.4749 43.4848 19.4338 43.5228 19.3945 43.5635C19.3552 43.6041 19.3184 43.6469 19.2839 43.6915C19.2498 43.7366 19.2179 43.7833 19.1891 43.8314C19.1603 43.8799 19.134 43.9297 19.1109 43.9812C19.0873 44.0328 19.0672 44.0852 19.0497 44.139C19.0326 44.1927 19.0187 44.2474 19.0077 44.3029C18.9964 44.358 18.9889 44.4139 18.9841 44.4703C18.9798 44.5266 18.9785 44.5826 18.9802 44.6394C18.9819 44.6958 18.9872 44.7517 18.9955 44.8076C19.0038 44.8636 19.0152 44.9187 19.03 44.9732C19.0444 45.0274 19.0624 45.0813 19.0829 45.1337C19.1039 45.1861 19.1275 45.2372 19.1541 45.2871C19.1808 45.3369 19.2101 45.3849 19.2424 45.4313C19.2743 45.4776 19.3093 45.5222 19.3464 45.5645C19.3836 45.607 19.4233 45.6472 19.4648 45.6852C19.5068 45.7227 19.5505 45.7581 19.5964 45.7909C19.6423 45.8242 19.6899 45.8538 19.7393 45.8814C19.7887 45.9089 19.8398 45.9334 19.8918 45.9548C19.9438 45.9767 19.9971 45.995 20.0513 46.0104C20.1055 46.026 20.1606 46.0383 20.2165 46.0474C20.272 46.0566 20.3279 46.0628 20.3843 46.0654C20.4407 46.068 20.4971 46.0676 20.5534 46.0637C20.6098 46.0602 20.6658 46.0531 20.7213 46.0431C20.7768 46.0331 20.8318 46.0195 20.8856 46.0033C20.9398 45.9867 20.9926 45.9675 21.0442 45.9448C21.0962 45.9225 21.1465 45.8972 21.1954 45.8687C21.2444 45.8407 21.2911 45.8097 21.3366 45.776C21.382 45.7424 21.4253 45.7062 21.4664 45.6677C21.5075 45.6288 21.5464 45.5882 21.5831 45.5449C21.6193 45.5021 21.6534 45.457 21.6844 45.4099C21.7159 45.3631 21.7448 45.3146 21.7701 45.2643C21.7959 45.2141 21.819 45.1625 21.8387 45.1096C21.8588 45.0568 21.8754 45.003 21.889 44.9484C21.903 44.8933 21.9134 44.8382 21.9204 44.7823C21.9278 44.7263 21.9322 44.67 21.9331 44.6136C21.934 44.5573 21.9313 44.5008 21.9261 44.4445C21.9204 44.3885 21.9117 44.3326 21.8995 44.2776C21.8876 44.2225 21.8727 44.1683 21.8545 44.1146C21.8366 44.0613 21.8151 44.0088 21.7911 43.958C21.7666 43.907 21.7399 43.8576 21.7098 43.8095C21.68 43.7614 21.6477 43.7155 21.6123 43.6714C21.5774 43.6273 21.5398 43.5853 21.5 43.5451C21.3615 43.4066 21.2015 43.2999 21.0206 43.2252C20.8397 43.1504 20.6513 43.1129 20.4556 43.1134Z" fill="#00D280"/>
<path d="M21.7978 43.6684C21.7563 43.6684 21.7161 43.6627 21.6763 43.6504C21.637 43.6386 21.5999 43.6211 21.5658 43.5979C21.5312 43.5752 21.5011 43.5477 21.4749 43.5158C21.4487 43.4839 21.4277 43.4485 21.412 43.4105C21.3958 43.3724 21.3862 43.3327 21.3818 43.2916C21.3779 43.2505 21.38 43.2099 21.3879 43.1692C21.3962 43.1286 21.4098 43.0902 21.4295 43.0539C21.4487 43.0172 21.4731 42.9844 21.5024 42.9551L25.2589 39.1985C25.2983 39.1605 25.3438 39.1312 25.3944 39.1111C25.4451 39.0905 25.498 39.0805 25.5531 39.0814C25.6077 39.0818 25.6601 39.0923 25.7108 39.1137C25.7615 39.1347 25.8061 39.1649 25.8446 39.2037C25.8835 39.2422 25.9136 39.2868 25.9346 39.3375C25.956 39.3877 25.9665 39.4406 25.9669 39.4953C25.9673 39.5503 25.9577 39.6028 25.9372 39.6538C25.9171 39.7046 25.8878 39.75 25.8498 39.7893L22.0933 43.546C22.0116 43.6277 21.9132 43.6684 21.7978 43.6684Z" fill="#00D280"/>
<path d="M50.7408 34.3582C50.6652 34.3582 50.5895 34.3547 50.5144 34.3473C50.4388 34.3399 50.364 34.3289 50.2898 34.314C50.2155 34.2992 50.1421 34.2809 50.0696 34.259C49.997 34.2367 49.9258 34.2114 49.8558 34.1825C49.7855 34.1537 49.7173 34.1213 49.6505 34.0855C49.5835 34.0497 49.5185 34.0107 49.4555 33.9688C49.3926 33.9269 49.3318 33.8814 49.2733 33.8334C49.2147 33.7852 49.1588 33.7346 49.1051 33.6812C49.0513 33.6275 49.0006 33.5716 48.9525 33.513C48.9044 33.4545 48.8594 33.3937 48.8175 33.3308C48.7751 33.2674 48.7362 33.2028 48.7003 33.1358C48.665 33.069 48.6326 33.0008 48.6034 32.9305C48.5745 32.8605 48.5492 32.7893 48.5269 32.7167C48.5051 32.6442 48.4867 32.5708 48.4718 32.4965C48.4569 32.4222 48.4461 32.3475 48.4386 32.2719C48.4312 32.1967 48.4272 32.1211 48.4272 32.0455C48.4272 31.9695 48.4312 31.8939 48.4382 31.8187C48.4456 31.7431 48.4569 31.6684 48.4718 31.594C48.4862 31.5198 48.5051 31.4464 48.5269 31.3738C48.5487 31.3013 48.574 31.23 48.6034 31.1601C48.6322 31.0902 48.6645 31.0216 48.7003 30.9547C48.7362 30.8879 48.7751 30.8232 48.817 30.7602C48.859 30.6969 48.904 30.6361 48.9521 30.5775C49.0002 30.519 49.0513 30.4631 49.1046 30.4093C49.1584 30.356 49.2143 30.3049 49.2728 30.2568C49.3314 30.2087 49.3922 30.1637 49.4551 30.1217C49.518 30.0798 49.5832 30.0409 49.65 30.005C49.7169 29.9692 49.7851 29.9368 49.8549 29.9081C49.9253 29.8787 49.9966 29.8534 50.0691 29.8316C50.1412 29.8093 50.2147 29.7909 50.2889 29.7761C50.3636 29.7612 50.4384 29.7503 50.5135 29.7428C50.5891 29.7354 50.6648 29.7319 50.7404 29.7319C50.8164 29.7319 50.892 29.7354 50.9672 29.7428C51.0428 29.7503 51.1175 29.7612 51.1918 29.7761C51.2661 29.7909 51.3395 29.8093 51.412 29.8311C51.4846 29.8534 51.5558 29.8787 51.6258 29.9076C51.6957 29.9368 51.7643 29.9692 51.8311 30.0046C51.898 30.0404 51.9627 30.0794 52.0256 30.1217C52.0885 30.1637 52.1492 30.2087 52.2082 30.2568C52.2668 30.3049 52.3228 30.3556 52.3761 30.4093C52.4298 30.4626 52.4805 30.519 52.5286 30.5775C52.5767 30.6361 52.6217 30.6969 52.6641 30.7598C52.706 30.8227 52.7449 30.8879 52.7807 30.9547C52.8166 31.0211 52.8489 31.0897 52.8778 31.1596C52.9066 31.2296 52.9324 31.3008 52.9543 31.3734C52.9761 31.4459 52.9945 31.5194 53.0094 31.5936C53.0241 31.6679 53.0356 31.7431 53.0425 31.8182C53.05 31.8939 53.0539 31.9695 53.0539 32.045C53.0539 32.1206 53.05 32.1963 53.0425 32.2719C53.0351 32.347 53.0237 32.4218 53.0089 32.496C52.994 32.5704 52.9757 32.6437 52.9538 32.7163C52.9315 32.7888 52.9062 32.8601 52.8773 32.93C52.848 33 52.8158 33.0681 52.7799 33.135C52.7445 33.2019 52.7056 33.2665 52.6632 33.3294C52.6213 33.3924 52.5763 33.4531 52.5281 33.5117C52.4801 33.5702 52.4294 33.6262 52.3756 33.68C52.3223 33.7337 52.266 33.7844 52.2078 33.8325C52.1492 33.8805 52.0885 33.9255 52.0256 33.9675C51.9627 34.0099 51.8975 34.0488 51.8307 34.0842C51.7643 34.12 51.6957 34.1524 51.6258 34.1817C51.5558 34.2105 51.4846 34.2362 51.412 34.2582C51.3395 34.28 51.2665 34.2988 51.1923 34.3136C51.1179 34.3285 51.0432 34.3394 50.9676 34.3468C50.8924 34.3547 50.8168 34.3582 50.7408 34.3582ZM50.7408 30.568C50.6437 30.5675 50.5477 30.5772 50.4528 30.5959C50.3575 30.6151 50.2648 30.6431 50.1753 30.6803C50.0857 30.7174 50.0005 30.7628 49.9196 30.8166C49.8393 30.8704 49.7645 30.9315 49.6959 31.0002C49.6273 31.0688 49.5661 31.1435 49.5119 31.2243C49.4581 31.3047 49.4127 31.3899 49.3756 31.4795C49.3384 31.5696 49.31 31.6618 49.2912 31.7571C49.2724 31.8523 49.2628 31.9485 49.2628 32.0455C49.2628 32.1426 49.2724 32.2386 49.2912 32.3335C49.31 32.4288 49.338 32.5214 49.3751 32.611C49.4122 32.7006 49.4581 32.7858 49.5119 32.8667C49.5656 32.947 49.6269 33.0218 49.6955 33.0904C49.764 33.159 49.8388 33.2202 49.9196 33.2744C50.0005 33.3282 50.0852 33.3736 50.1753 33.4107C50.2648 33.4479 50.3571 33.4759 50.4524 33.4947C50.5477 33.5139 50.6437 33.5231 50.7408 33.5231C50.8378 33.5231 50.934 33.5139 51.0292 33.4947C51.1241 33.4759 51.2167 33.4479 51.3062 33.4107C51.3959 33.3736 51.4811 33.3282 51.562 33.274C51.6424 33.2202 51.717 33.159 51.7857 33.0904C51.8543 33.0214 51.9155 32.947 51.9692 32.8662C52.0234 32.7854 52.0688 32.7002 52.106 32.6106C52.1432 32.521 52.1712 32.4288 52.1899 32.3335C52.2087 32.2382 52.2183 32.1421 52.2183 32.045C52.2183 31.9481 52.2087 31.8519 52.1895 31.7571C52.1703 31.6618 52.1423 31.5696 52.1051 31.48C52.068 31.3904 52.0226 31.3056 51.9684 31.2248C51.9146 31.1444 51.8534 31.0696 51.7848 31.0011C51.7162 30.9324 51.6419 30.8712 51.5611 30.8175C51.4807 30.7637 51.3955 30.7178 51.3058 30.6807C51.2162 30.6436 51.1241 30.6156 51.0292 30.5963C50.934 30.5775 50.8378 30.568 50.7408 30.568Z" fill="#00D280"/>
<path d="M48.8452 32.465H43.532C43.4769 32.465 43.4236 32.4545 43.3725 32.4331C43.321 32.412 43.2759 32.3815 43.2365 32.3426C43.1977 32.3033 43.1676 32.2583 43.1461 32.2071C43.1251 32.1555 43.1143 32.1027 43.1143 32.0471C43.1143 31.9917 43.1251 31.9383 43.1461 31.8872C43.1676 31.8361 43.1977 31.7906 43.2365 31.7518C43.2759 31.7125 43.321 31.6822 43.3725 31.6613C43.4236 31.6399 43.4769 31.6294 43.532 31.6294H48.8452C48.9007 31.6294 48.954 31.6399 49.0052 31.6613C49.0563 31.6822 49.1013 31.7125 49.1406 31.7518C49.1799 31.7906 49.2102 31.8361 49.2311 31.8872C49.2525 31.9383 49.263 31.9917 49.263 32.0471C49.263 32.1027 49.2525 32.1555 49.2311 32.2071C49.2102 32.2583 49.1799 32.3033 49.1406 32.3426C49.1013 32.3815 49.0563 32.412 49.0052 32.4331C48.954 32.4545 48.9007 32.465 48.8452 32.465Z" fill="#00D280"/>
<path d="M15.2594 34.3582C15.1837 34.3582 15.1081 34.3547 15.0325 34.3473C14.9574 34.3399 14.8822 34.3289 14.8079 34.314C14.7336 34.2992 14.6602 34.2809 14.5877 34.259C14.5151 34.2367 14.4439 34.2114 14.374 34.1825C14.304 34.1532 14.2354 34.1209 14.169 34.0851C14.1021 34.0497 14.037 34.0107 13.9741 33.9684C13.9112 33.9264 13.8504 33.8814 13.7919 33.8334C13.7333 33.7852 13.6769 33.7346 13.6236 33.6809C13.5699 33.6271 13.5192 33.5711 13.4711 33.5126C13.423 33.454 13.378 33.3932 13.3361 33.3303C13.2937 33.2674 13.2548 33.2023 13.2189 33.1354C13.1835 33.0685 13.1512 33.0003 13.1219 32.9305C13.0931 32.8605 13.0677 32.7893 13.0454 32.7167C13.0236 32.6442 13.0052 32.5708 12.9904 32.4965C12.9755 32.4222 12.9646 32.347 12.9572 32.2719C12.9497 32.1963 12.9458 32.1206 12.9458 32.045C12.9458 31.9695 12.9497 31.8939 12.9572 31.8182C12.9646 31.7431 12.9755 31.6679 12.9904 31.5936C13.0052 31.5194 13.0236 31.4459 13.0454 31.3734C13.0677 31.3008 13.0931 31.2296 13.1219 31.1596C13.1512 31.0897 13.1835 31.0216 13.2189 30.9547C13.2548 30.8879 13.2937 30.8227 13.3361 30.7598C13.378 30.6969 13.423 30.6361 13.4711 30.5775C13.5192 30.519 13.5699 30.4631 13.6236 30.4093C13.6769 30.3556 13.7333 30.3049 13.7919 30.2568C13.8504 30.2087 13.9112 30.1637 13.9741 30.1217C14.037 30.0794 14.1021 30.0404 14.169 30.005C14.2354 29.9692 14.304 29.9368 14.374 29.9076C14.4439 29.8787 14.5151 29.8534 14.5877 29.8311C14.6602 29.8093 14.7336 29.7909 14.8079 29.7761C14.8822 29.7612 14.9574 29.7503 15.0325 29.7428C15.1081 29.7354 15.1837 29.7319 15.2594 29.7319C15.335 29.7319 15.4106 29.7354 15.4862 29.7428C15.5613 29.7503 15.6365 29.7612 15.7108 29.7761C15.7851 29.7909 15.8585 29.8093 15.931 29.8311C16.0031 29.8534 16.0744 29.8787 16.1447 29.9076C16.2147 29.9368 16.2828 29.9692 16.3497 30.005C16.4166 30.0404 16.4817 30.0794 16.5446 30.1217C16.6075 30.1637 16.6683 30.2087 16.7268 30.2568C16.7854 30.3049 16.8413 30.3556 16.8951 30.4093C16.9488 30.4631 16.9995 30.519 17.0476 30.5775C17.0957 30.6361 17.1407 30.6969 17.1826 30.7598C17.225 30.8227 17.2639 30.8879 17.2993 30.9547C17.3352 31.0216 17.3675 31.0897 17.3963 31.1596C17.4256 31.2296 17.451 31.3008 17.4728 31.3734C17.4951 31.4459 17.5135 31.5194 17.5283 31.5936C17.5427 31.6679 17.5541 31.7431 17.5615 31.8182C17.569 31.8939 17.5725 31.9695 17.5725 32.045C17.5725 32.1206 17.569 32.1963 17.5611 32.2719C17.5537 32.347 17.5427 32.4218 17.5279 32.496C17.513 32.5704 17.4947 32.6437 17.4724 32.7163C17.4505 32.7888 17.4252 32.8601 17.3959 32.93C17.3671 33 17.3347 33.0685 17.2989 33.135C17.2631 33.2019 17.2242 33.2669 17.1822 33.3299C17.1398 33.3928 17.0948 33.4536 17.0467 33.5121C16.9987 33.5707 16.948 33.6267 16.8947 33.6804C16.8409 33.7337 16.785 33.7844 16.7264 33.8325C16.6678 33.8805 16.6071 33.926 16.5442 33.9679C16.4812 34.0099 16.4161 34.0488 16.3493 34.0846C16.2824 34.1204 16.2142 34.1528 16.1443 34.1817C16.0744 34.2109 16.0031 34.2362 15.9306 34.2582C15.8581 34.2804 15.7846 34.2988 15.7104 34.3136C15.6361 34.3285 15.5613 34.3394 15.4862 34.3473C15.4106 34.3547 15.335 34.3582 15.2594 34.3582ZM15.2594 30.568C15.1623 30.568 15.0662 30.5772 14.9709 30.5959C14.8757 30.6151 14.7834 30.6431 14.6939 30.6803C14.6043 30.7174 14.5191 30.7628 14.4382 30.8166C14.3578 30.8708 14.2831 30.932 14.2144 31.0006C14.1458 31.0692 14.0847 31.1439 14.0305 31.2243C13.9767 31.3052 13.9313 31.3904 13.8941 31.48C13.857 31.5696 13.829 31.6622 13.8098 31.7575C13.791 31.8523 13.7814 31.9485 13.7814 32.0455C13.7814 32.1426 13.791 32.2386 13.8102 32.3339C13.829 32.4292 13.857 32.5214 13.8941 32.611C13.9313 32.7006 13.9767 32.7858 14.0309 32.8667C14.0847 32.9475 14.1458 33.0218 14.2144 33.0904C14.2831 33.159 14.3578 33.2202 14.4386 33.2744C14.5191 33.3282 14.6043 33.3736 14.6939 33.4107C14.7839 33.4479 14.8761 33.4759 14.9714 33.4951C15.0666 33.5139 15.1628 33.5231 15.2598 33.5231C15.3568 33.5231 15.4525 33.5139 15.5478 33.4947C15.643 33.4759 15.7353 33.4479 15.8253 33.4107C15.9149 33.3736 16.0001 33.3277 16.0805 33.274C16.1613 33.2202 16.2361 33.1586 16.3047 33.09C16.3729 33.0214 16.4345 32.947 16.4882 32.8662C16.542 32.7854 16.5874 32.7002 16.6246 32.6106C16.6617 32.521 16.6897 32.4288 16.7089 32.3335C16.7277 32.2382 16.7369 32.1421 16.7369 32.045C16.7369 31.9481 16.7273 31.8519 16.7085 31.7571C16.6893 31.6618 16.6613 31.5696 16.6241 31.48C16.587 31.3904 16.5411 31.3052 16.4874 31.2248C16.4336 31.1439 16.372 31.0696 16.3034 31.0011C16.2352 30.9324 16.1605 30.8712 16.0796 30.817C15.9992 30.7633 15.914 30.7178 15.8244 30.6807C15.7348 30.6436 15.6426 30.6156 15.5473 30.5963C15.4525 30.5775 15.3564 30.568 15.2594 30.568Z" fill="#00D280"/>
<path d="M22.4687 32.465H17.1551C17.1 32.465 17.0467 32.4545 16.9956 32.4331C16.944 32.412 16.899 32.3815 16.8597 32.3426C16.8208 32.3033 16.7906 32.2583 16.7692 32.2071C16.7482 32.1555 16.7373 32.1027 16.7373 32.0471C16.7373 31.9917 16.7482 31.9383 16.7692 31.8872C16.7906 31.8361 16.8208 31.7906 16.8597 31.7518C16.899 31.7125 16.944 31.6822 16.9956 31.6613C17.0467 31.6399 17.1 31.6294 17.1551 31.6294H22.4687C22.5243 31.6294 22.5776 31.6399 22.6286 31.6613C22.6798 31.6822 22.7248 31.7125 22.7641 31.7518C22.8035 31.7906 22.8336 31.8361 22.8546 31.8872C22.8761 31.9383 22.8865 31.9917 22.8865 32.0471C22.8865 32.1027 22.8761 32.1555 22.8546 32.2071C22.8336 32.2583 22.8035 32.3033 22.7641 32.3426C22.7248 32.3815 22.6798 32.412 22.6286 32.4331C22.5776 32.4545 22.5243 32.465 22.4687 32.465Z" fill="#00D280"/>
<path d="M45.5447 46.9027C45.456 46.9027 45.3681 46.8975 45.2803 46.8874C45.1924 46.8773 45.1055 46.8621 45.0194 46.8419C44.9333 46.8219 44.8486 46.7969 44.7655 46.7673C44.6824 46.7375 44.6011 46.703 44.5216 46.6641C44.4426 46.6247 44.3657 46.5815 44.2913 46.5335C44.2171 46.4853 44.1458 46.4334 44.0777 46.3774C44.0095 46.3215 43.9443 46.2616 43.8827 46.1978C43.8215 46.1344 43.7639 46.0676 43.7101 45.9976C43.6564 45.9273 43.6065 45.8543 43.5611 45.7787C43.5156 45.7027 43.475 45.6244 43.4383 45.544C43.402 45.4636 43.3701 45.381 43.343 45.2971C43.3163 45.2127 43.294 45.1275 43.277 45.0406C43.2595 44.9541 43.2473 44.8666 43.2403 44.7784C43.2329 44.6905 43.2307 44.6023 43.2338 44.514C43.2368 44.4257 43.2447 44.3378 43.2578 44.2505C43.2705 44.1626 43.2888 44.0765 43.3115 43.9908C43.3342 43.9056 43.3622 43.8218 43.3946 43.7396C43.4269 43.6574 43.4641 43.5775 43.506 43.4996C43.5475 43.4214 43.5934 43.3463 43.6442 43.2737C43.6944 43.2007 43.7486 43.1313 43.8067 43.0648C43.8653 42.9984 43.9269 42.9355 43.9924 42.8764C44.058 42.817 44.1266 42.7616 44.1987 42.7099C44.2704 42.6584 44.3451 42.6116 44.4224 42.5683C44.4994 42.5255 44.5789 42.487 44.6606 42.4534C44.7423 42.4197 44.8258 42.3905 44.9106 42.3664C44.9958 42.342 45.0819 42.3228 45.1689 42.3083C45.2562 42.2939 45.3441 42.2847 45.4324 42.2803C45.5206 42.276 45.6089 42.2769 45.6967 42.2826C45.7851 42.2883 45.8729 42.2991 45.9594 42.3149C46.0464 42.3311 46.1325 42.3516 46.2168 42.3774C46.3016 42.4032 46.3842 42.4333 46.4655 42.4688C46.5463 42.5037 46.6254 42.5435 46.7019 42.5876C46.7784 42.6321 46.8522 42.6803 46.923 42.7331C46.9943 42.7855 47.062 42.8424 47.1262 42.9027C47.1909 42.963 47.2517 43.0273 47.3089 43.0945C47.3661 43.1618 47.419 43.2326 47.468 43.3061C47.5174 43.3795 47.562 43.4555 47.6022 43.5341C47.6428 43.6128 47.6786 43.6932 47.7097 43.7763C47.7407 43.8588 47.7669 43.9432 47.7884 44.0289C47.8097 44.1146 47.8263 44.2015 47.8377 44.2889C47.8495 44.3768 47.8556 44.4646 47.8573 44.5529C47.8587 44.6411 47.8552 44.7294 47.8465 44.8173C47.8377 44.9055 47.8242 44.9925 47.8054 45.079C47.7866 45.1656 47.763 45.2503 47.7345 45.3342C47.7062 45.4177 47.6729 45.4995 47.6353 45.5794C47.5974 45.6594 47.5549 45.7367 47.5087 45.812C47.4619 45.8871 47.4107 45.9592 47.3561 46.0283C47.3011 46.0973 47.2421 46.1633 47.1796 46.2258C47.0725 46.3333 46.9558 46.429 46.8295 46.5138C46.7032 46.5981 46.5699 46.6694 46.4297 46.7275C46.2894 46.7856 46.1447 46.8293 45.9957 46.8586C45.8467 46.8883 45.6964 46.9027 45.5447 46.9027ZM45.5447 43.1134C45.4879 43.1134 45.4319 43.1164 45.3756 43.123C45.3196 43.1295 45.2641 43.1391 45.2091 43.1518C45.154 43.1649 45.1003 43.1806 45.047 43.1999C44.994 43.2186 44.9421 43.2409 44.8914 43.2659C44.8406 43.2907 44.7917 43.3187 44.7441 43.3493C44.6969 43.3799 44.6514 43.4131 44.6077 43.4489C44.5641 43.4848 44.5225 43.5228 44.4836 43.5635C44.4443 43.6041 44.4076 43.6469 44.3731 43.6915C44.3386 43.7366 44.3071 43.7833 44.2782 43.8314C44.249 43.8799 44.2227 43.9297 44.1995 43.9812C44.1764 44.0328 44.1563 44.0852 44.1388 44.139C44.1218 44.1927 44.1074 44.2474 44.0964 44.3029C44.0855 44.358 44.0777 44.4139 44.0733 44.4703C44.0685 44.5266 44.0672 44.583 44.0693 44.6394C44.0711 44.6958 44.0763 44.7517 44.0846 44.8076C44.0929 44.8636 44.1043 44.9187 44.1187 44.9732C44.1336 45.0274 44.151 45.0813 44.1721 45.1337C44.1926 45.1861 44.2166 45.2372 44.2433 45.2871C44.2699 45.3369 44.2992 45.3849 44.3311 45.4313C44.3634 45.4776 44.3979 45.5222 44.4355 45.5645C44.4727 45.607 44.512 45.6472 44.554 45.6852C44.596 45.7227 44.6396 45.7581 44.6856 45.7909C44.7315 45.8242 44.779 45.8538 44.8284 45.8814C44.8778 45.9089 44.9285 45.9334 44.9809 45.9548C45.033 45.9767 45.0863 45.995 45.1405 46.0104C45.1947 46.026 45.2497 46.0383 45.3052 46.0474C45.3612 46.0566 45.417 46.0628 45.4735 46.0654C45.5298 46.068 45.5862 46.0676 45.6425 46.0637C45.699 46.0602 45.7549 46.0531 45.8104 46.0431C45.8659 46.0331 45.9205 46.0195 45.9747 46.0033C46.0289 45.9867 46.0818 45.9675 46.1334 45.9448C46.1853 45.9225 46.2356 45.8972 46.2845 45.8687C46.333 45.8407 46.3803 45.8097 46.4257 45.776C46.4712 45.7424 46.5144 45.7062 46.5555 45.6677C46.5966 45.6288 46.6355 45.5882 46.6717 45.5449C46.7085 45.5021 46.7421 45.457 46.7736 45.4099C46.8051 45.3631 46.8334 45.3146 46.8593 45.2643C46.885 45.2141 46.9077 45.1625 46.9278 45.1096C46.9475 45.0568 46.9645 45.003 46.9781 44.9484C46.9916 44.8933 47.0021 44.8382 47.0095 44.7823C47.017 44.7263 47.0209 44.67 47.0218 44.6136C47.0226 44.5573 47.0205 44.5008 47.0148 44.4445C47.0095 44.3885 47.0008 44.3326 46.9886 44.2776C46.9768 44.2225 46.9615 44.1683 46.9436 44.1146C46.9252 44.0613 46.9043 44.0088 46.8798 43.958C46.8557 43.907 46.8286 43.8576 46.7989 43.8095C46.7692 43.7614 46.7369 43.7155 46.7015 43.6714C46.6665 43.6273 46.6289 43.5853 46.5892 43.5451C46.4506 43.4066 46.2907 43.2999 46.1098 43.2252C45.9288 43.1504 45.7405 43.1129 45.5447 43.1134Z" fill="#00D280"/>
<path d="M44.2028 43.6684C44.0869 43.6688 43.9886 43.6282 43.9073 43.546L40.1498 39.7893C40.1119 39.75 40.083 39.7046 40.0625 39.6538C40.0423 39.6028 40.0324 39.5503 40.0327 39.4953C40.0332 39.4406 40.0441 39.3877 40.0651 39.3375C40.0865 39.2868 40.1162 39.2422 40.1551 39.2037C40.1941 39.1649 40.2386 39.1347 40.2889 39.1137C40.3395 39.0923 40.392 39.0818 40.4471 39.0814C40.5016 39.0805 40.5546 39.0905 40.6052 39.1111C40.6564 39.1312 40.7014 39.1605 40.7407 39.1985L44.4982 42.9551C44.5275 42.9844 44.5515 43.0172 44.5712 43.0539C44.5904 43.0902 44.6043 43.1286 44.6122 43.1692C44.6205 43.2099 44.6222 43.2505 44.6183 43.2916C44.6144 43.3327 44.6043 43.3724 44.5886 43.4105C44.5729 43.4485 44.5519 43.4839 44.5257 43.5158C44.4995 43.5477 44.4689 43.5752 44.4348 43.5979C44.4003 43.6211 44.3636 43.6386 44.3238 43.6504C44.2844 43.6627 44.2438 43.6684 44.2028 43.6684Z" fill="#00D280"/>
<path d="M20.4565 21.8127C20.3682 21.8127 20.2799 21.8074 20.1921 21.7974C20.1042 21.7874 20.0173 21.772 19.9316 21.7519C19.8455 21.7318 19.7607 21.7069 19.6777 21.6772C19.5942 21.6475 19.513 21.6129 19.4339 21.5736C19.3548 21.5348 19.2778 21.491 19.2036 21.4434C19.1293 21.3953 19.058 21.3433 18.9899 21.2873C18.9217 21.231 18.8566 21.1711 18.7954 21.1077C18.7338 21.0444 18.6765 20.9775 18.6228 20.9072C18.569 20.8373 18.5192 20.7643 18.4737 20.6882C18.4283 20.6126 18.3877 20.5344 18.3509 20.454C18.3147 20.3731 18.2828 20.291 18.2561 20.2071C18.229 20.1227 18.2067 20.0375 18.1897 19.9505C18.1726 19.864 18.1604 19.7766 18.153 19.6883C18.146 19.6005 18.1438 19.5122 18.1469 19.4239C18.1499 19.3357 18.1578 19.2478 18.1709 19.1604C18.1836 19.073 18.2015 18.9865 18.2246 18.9013C18.2474 18.8156 18.2753 18.7321 18.3077 18.65C18.34 18.5678 18.3772 18.4878 18.4191 18.4096C18.4606 18.3318 18.5065 18.2567 18.5572 18.1841C18.6075 18.1111 18.6617 18.0416 18.7198 17.9752C18.7783 17.9088 18.8404 17.8463 18.9055 17.7869C18.9711 17.7274 19.0397 17.6719 19.1118 17.6208C19.1835 17.5692 19.2582 17.522 19.3355 17.4792C19.4129 17.4364 19.492 17.3979 19.5737 17.3643C19.6554 17.3302 19.7389 17.3013 19.8237 17.2773C19.9089 17.2528 19.995 17.2336 20.0819 17.2192C20.1694 17.2048 20.2568 17.1956 20.345 17.1912C20.4333 17.1868 20.5216 17.1877 20.6099 17.1938C20.6981 17.1995 20.7855 17.2104 20.8725 17.2262C20.9595 17.2419 21.0451 17.2629 21.1299 17.2887C21.2143 17.314 21.2973 17.3446 21.3781 17.38C21.4594 17.415 21.5381 17.4547 21.6146 17.4989C21.691 17.543 21.7649 17.5915 21.8357 17.6444C21.9065 17.6968 21.9742 17.7536 22.0389 17.814C22.1032 17.8743 22.1643 17.9385 22.2211 18.0058C22.2784 18.0731 22.3317 18.1435 22.3806 18.2169C22.4296 18.2907 22.4741 18.3668 22.5148 18.4454C22.555 18.5237 22.5908 18.6045 22.6218 18.6871C22.6529 18.7702 22.6791 18.8541 22.7005 18.9402C22.7219 19.0258 22.7386 19.1123 22.7499 19.2002C22.7613 19.2876 22.7678 19.3754 22.7692 19.4641C22.7709 19.5524 22.7669 19.6403 22.7582 19.7285C22.7495 19.8164 22.7359 19.9033 22.7171 19.9899C22.6984 20.0764 22.6752 20.1612 22.6463 20.2451C22.6179 20.3286 22.5852 20.4103 22.5471 20.4903C22.5091 20.5702 22.4672 20.6476 22.4204 20.7228C22.3737 20.7975 22.323 20.8696 22.2679 20.9391C22.2128 21.0081 22.1543 21.0737 22.0918 21.1362C21.9843 21.2437 21.8676 21.3398 21.7413 21.4242C21.615 21.5085 21.4817 21.5798 21.3414 21.6375C21.2011 21.6956 21.0565 21.7392 20.9075 21.769C20.7584 21.7982 20.6081 21.8131 20.4565 21.8127ZM20.4565 18.0233C20.4001 18.0233 20.3437 18.0268 20.2873 18.0329C20.2314 18.0395 20.1759 18.0491 20.1208 18.0622C20.0658 18.0749 20.012 18.091 19.9587 18.1098C19.9054 18.129 19.8538 18.1509 19.8031 18.1758C19.7524 18.2012 19.7035 18.2287 19.6559 18.2593C19.6087 18.2899 19.5628 18.3231 19.5191 18.3589C19.4758 18.3948 19.4343 18.4332 19.395 18.4739C19.3556 18.5145 19.3189 18.5569 19.2844 18.6019C19.2503 18.6465 19.2184 18.6932 19.1896 18.7417C19.1603 18.7903 19.1345 18.8401 19.1109 18.8916C19.0877 18.9432 19.0676 18.9957 19.0502 19.0494C19.0331 19.1032 19.0187 19.1578 19.0078 19.2133C18.9968 19.2684 18.989 19.3243 18.9846 19.3807C18.9798 19.437 18.9785 19.4934 18.9807 19.5498C18.9824 19.6062 18.9872 19.6621 18.9955 19.718C19.0038 19.774 19.0156 19.829 19.0301 19.8837C19.0449 19.9383 19.0624 19.9916 19.0834 20.0441C19.1039 20.0969 19.128 20.1481 19.1546 20.1979C19.1813 20.2477 19.2105 20.2958 19.2424 20.3421C19.2748 20.3884 19.3093 20.433 19.3469 20.4754C19.384 20.5178 19.4234 20.558 19.4653 20.596C19.5073 20.6336 19.551 20.669 19.5969 20.7018C19.6432 20.735 19.6908 20.7651 19.7402 20.7922C19.7896 20.8198 19.8403 20.8442 19.8923 20.8657C19.9447 20.8875 19.9976 20.9059 20.0522 20.9216C20.1064 20.9369 20.1615 20.9491 20.217 20.9583C20.2729 20.9675 20.3289 20.9736 20.3852 20.9762C20.4416 20.9789 20.498 20.9784 20.5544 20.9749C20.6107 20.971 20.6667 20.964 20.7222 20.9539C20.7777 20.9439 20.8327 20.9307 20.8865 20.9142C20.9407 20.8976 20.9936 20.8783 21.0451 20.8556C21.0971 20.8333 21.1474 20.808 21.1963 20.7796C21.2453 20.7516 21.2925 20.7206 21.3375 20.6869C21.3829 20.6533 21.4262 20.617 21.4673 20.5785C21.5088 20.5396 21.5477 20.499 21.584 20.4557C21.6207 20.4129 21.6543 20.3675 21.6858 20.3207C21.7172 20.2739 21.7457 20.225 21.7714 20.1747C21.7972 20.1245 21.8199 20.0729 21.8401 20.02C21.8598 19.9671 21.8763 19.9134 21.8903 19.8588C21.9039 19.8041 21.9143 19.7486 21.9218 19.6927C21.9292 19.6368 21.9331 19.5804 21.934 19.524C21.9349 19.4676 21.9327 19.4113 21.9271 19.3549C21.9214 19.2989 21.9126 19.243 21.9008 19.1879C21.889 19.1329 21.8737 19.0782 21.8553 19.0249C21.8374 18.9716 21.816 18.9192 21.792 18.868C21.768 18.8174 21.7409 18.7675 21.7111 18.7199C21.681 18.6718 21.6486 18.6255 21.6137 18.5814C21.5783 18.5372 21.5407 18.4953 21.5009 18.4555C21.3624 18.317 21.2029 18.2099 21.0215 18.1352C20.8406 18.0604 20.6523 18.0229 20.4565 18.0233Z" fill="#00D280"/>
<path d="M25.551 25.0168C25.4356 25.0168 25.3372 24.9758 25.2555 24.8945L21.499 21.1374C21.4609 21.0981 21.4317 21.053 21.4116 21.002C21.391 20.9513 21.3814 20.8984 21.3819 20.8438C21.3823 20.7887 21.3932 20.7362 21.4142 20.6856C21.4352 20.6353 21.4653 20.5907 21.5042 20.5518C21.5427 20.5129 21.5872 20.4832 21.638 20.4618C21.6887 20.4408 21.7411 20.4299 21.7957 20.4295C21.8508 20.429 21.9037 20.4391 21.9544 20.4592C22.005 20.4797 22.0505 20.5086 22.0898 20.5466L25.8463 24.3036C25.8757 24.333 25.9001 24.3657 25.9193 24.4019C25.939 24.4387 25.9526 24.4772 25.9609 24.5174C25.9687 24.558 25.9709 24.5991 25.967 24.6401C25.9627 24.6812 25.953 24.7206 25.9368 24.759C25.9211 24.7971 25.9001 24.832 25.8739 24.8639C25.8477 24.8958 25.8176 24.9234 25.783 24.9465C25.7489 24.9692 25.7118 24.9867 25.6724 24.9989C25.6327 25.0107 25.5925 25.0168 25.551 25.0168Z" fill="#00D280"/>
<path d="M33.0029 40.3174C32.8465 40.3174 32.6901 40.3134 32.5335 40.3046C32.3771 40.2955 32.2211 40.2824 32.0655 40.2649C31.91 40.2474 31.7548 40.2251 31.6005 40.1989C31.4462 40.1727 31.2928 40.1417 31.1403 40.1067C30.9874 40.0717 30.8362 40.032 30.6859 39.9883C30.5351 39.9446 30.3865 39.897 30.2388 39.8445C30.0911 39.7925 29.9451 39.7361 29.8004 39.6758C29.6558 39.6155 29.5134 39.5509 29.3726 39.4822C29.232 39.4136 29.0929 39.3415 28.9562 39.265C28.8198 39.1886 28.6852 39.1082 28.5532 39.0242C28.4208 38.9403 28.2915 38.8524 28.1643 38.7612C28.0372 38.6698 27.9126 38.575 27.7906 38.4762C27.6692 38.3779 27.5503 38.276 27.434 38.1707C27.3183 38.0654 27.2051 37.957 27.0953 37.8455C26.9857 37.7341 26.879 37.6192 26.7754 37.5017C26.6723 37.3841 26.5722 37.2634 26.4757 37.1402C26.3795 37.017 26.2865 36.8907 26.1973 36.7622C26.1077 36.6337 26.022 36.5026 25.9404 36.3694C25.8582 36.2356 25.7804 36.1001 25.7061 35.962C25.6318 35.8243 25.5615 35.6845 25.4954 35.5425C25.429 35.4004 25.367 35.2571 25.3089 35.1116C25.2503 34.9661 25.1966 34.8192 25.1468 34.6706C25.0969 34.522 25.0515 34.3726 25.01 34.2214C24.9689 34.0706 24.9317 33.9181 24.8993 33.7651C24.8666 33.6122 24.8382 33.4579 24.8141 33.3032C24.7906 33.1485 24.7709 32.9934 24.7556 32.8374C24.7408 32.6813 24.7298 32.5253 24.7237 32.3688C24.7176 32.2124 24.7158 32.056 24.7185 31.899C24.7211 31.7426 24.728 31.5862 24.7394 31.4301C24.7508 31.2741 24.767 31.1181 24.787 30.963C24.8076 30.8078 24.8325 30.6532 24.8614 30.4993C24.8906 30.3455 24.9238 30.1925 24.9619 30.0404C24.9994 29.8883 25.0419 29.7376 25.0882 29.5881C25.1345 29.4387 25.1847 29.2905 25.2398 29.1436C25.2945 28.9968 25.3535 28.8522 25.4164 28.7084C25.4793 28.565 25.5462 28.4239 25.6174 28.2841C25.6881 28.1447 25.7629 28.007 25.842 27.8719C25.9207 27.7365 26.0033 27.6036 26.0898 27.473C26.1759 27.3422 26.2659 27.2142 26.3595 27.0888C26.4534 26.963 26.5504 26.8402 26.6509 26.7204C26.7515 26.6002 26.8555 26.4831 26.9625 26.369C27.07 26.2549 27.1802 26.144 27.2937 26.036C27.4074 25.9281 27.5236 25.8236 27.6434 25.7226C27.7627 25.6213 27.885 25.5234 28.0101 25.429C28.135 25.335 28.2626 25.2442 28.3929 25.1572C28.5231 25.0702 28.6555 24.9868 28.7905 24.9072C28.9252 24.8277 29.0624 24.7521 29.2013 24.68C29.3407 24.6082 29.4819 24.5405 29.6248 24.4768C29.7677 24.413 29.9124 24.3535 30.0587 24.298C30.2052 24.2421 30.3533 24.1909 30.5023 24.1437C30.6518 24.0965 30.8021 24.0537 30.9542 24.0153C31.1058 23.9764 31.2588 23.9423 31.4122 23.9121C31.566 23.8824 31.7203 23.8566 31.8754 23.8357C32.0306 23.8142 32.1861 23.7976 32.3426 23.7849C32.4986 23.7727 32.655 23.7648 32.8115 23.7613C32.968 23.7578 33.1244 23.7587 33.2808 23.7644C33.4378 23.7696 33.5937 23.7792 33.7497 23.7937C33.9058 23.8081 34.0609 23.8265 34.2161 23.8497C34.3708 23.8727 34.5251 23.9003 34.6785 23.9317C34.8318 23.9637 34.9839 23.9999 35.1351 24.0406C35.2863 24.0808 35.4366 24.1254 35.5852 24.1748C35.7338 24.2237 35.8811 24.2766 36.027 24.3338C36.1726 24.3916 36.3168 24.4527 36.4588 24.5182C36.6013 24.5838 36.7416 24.6533 36.8796 24.7267C37.0178 24.8001 37.1541 24.8775 37.2878 24.9588C37.422 25.0396 37.5535 25.1248 37.6824 25.2135C37.8114 25.3019 37.9381 25.394 38.0618 25.4902C38.1859 25.5859 38.307 25.6851 38.425 25.7878C38.5433 25.8905 38.6583 25.9967 38.7706 26.1055C38.8829 26.2147 38.9918 26.3271 39.0979 26.4429C39.2037 26.5582 39.3059 26.6762 39.4051 26.7977C39.5043 26.9188 39.6001 27.0429 39.6919 27.1697C39.784 27.296 39.8727 27.4253 39.9576 27.5569C40.0419 27.6889 40.1232 27.8226 40.2001 27.9589C40.2775 28.0953 40.3505 28.2334 40.4199 28.3741C40.4894 28.5144 40.5545 28.6564 40.6157 28.8006C40.6769 28.9448 40.7341 29.0908 40.787 29.238C40.8399 29.3854 40.8888 29.5339 40.9334 29.6842C40.9779 29.8341 41.0181 29.9858 41.054 30.1379C41.0899 30.2904 41.1217 30.4438 41.1488 30.5981C41.1759 30.7524 41.1991 30.907 41.2174 31.0626C41.2358 31.2182 41.2498 31.3738 41.2594 31.5302C41.269 31.6867 41.2743 31.8431 41.2751 31.9996C41.2755 32.1561 41.2721 32.3125 41.2638 32.4689C41.2559 32.6254 41.2433 32.7814 41.2262 32.9369C41.2091 33.093 41.1877 33.2477 41.162 33.4024C41.1361 33.5567 41.106 33.7105 41.0715 33.863C41.0369 34.016 40.9981 34.1677 40.9548 34.3179C40.912 34.4687 40.8644 34.6178 40.8128 34.7655C40.7612 34.9136 40.7057 35.06 40.6458 35.2047C40.5859 35.3493 40.5218 35.4922 40.454 35.633C40.3858 35.7741 40.3142 35.9131 40.2381 36.0503C40.162 36.1871 40.0825 36.3221 39.999 36.4546C39.9156 36.5869 39.8282 36.7168 39.7373 36.8443C39.6464 36.972 39.552 37.0966 39.4541 37.2189C39.3562 37.3408 39.2549 37.4601 39.15 37.5768C38.9564 37.7913 38.7518 37.995 38.5373 38.1882C38.3222 38.3818 38.098 38.5631 37.8638 38.7327C37.63 38.9027 37.3879 39.06 37.1379 39.2042C36.8876 39.3489 36.6306 39.48 36.3666 39.5976C36.1027 39.7156 35.833 39.8192 35.5585 39.9087C35.2837 39.9983 35.0049 40.0731 34.7226 40.1338C34.4398 40.1941 34.1549 40.2396 33.8673 40.2706C33.5802 40.3012 33.2918 40.3169 33.0029 40.3174ZM33.0029 24.6082C32.881 24.6082 32.7595 24.6114 32.638 24.6171C32.5165 24.6231 32.395 24.6319 32.274 24.6437C32.153 24.6559 32.0319 24.6708 31.9117 24.6883C31.7911 24.7062 31.6713 24.7271 31.552 24.7508C31.4327 24.7744 31.3139 24.801 31.1959 24.8307C31.0779 24.86 30.9603 24.8927 30.8441 24.9278C30.7274 24.9632 30.612 25.0011 30.4971 25.0422C30.3826 25.0833 30.269 25.127 30.1566 25.1738C30.0443 25.2201 29.9329 25.2695 29.8227 25.3215C29.7131 25.3735 29.6043 25.4282 29.4968 25.4854C29.3897 25.5426 29.2835 25.6029 29.179 25.6654C29.0746 25.7279 28.9719 25.7931 28.8705 25.8603C28.7696 25.9281 28.6699 25.998 28.572 26.0705C28.4745 26.1431 28.3785 26.2178 28.2845 26.2952C28.1901 26.3725 28.0983 26.4516 28.0079 26.5334C27.9178 26.6151 27.8296 26.699 27.7435 26.7851C27.6574 26.8712 27.5734 26.9594 27.4917 27.0494C27.4101 27.1395 27.3305 27.2317 27.2531 27.3256C27.1762 27.42 27.101 27.5158 27.0285 27.6136C26.9559 27.7116 26.8861 27.8108 26.8183 27.9121C26.7506 28.0131 26.6854 28.1158 26.6229 28.2203C26.5605 28.3247 26.5006 28.4304 26.4429 28.5379C26.3857 28.6455 26.331 28.7539 26.2786 28.864C26.2266 28.9741 26.1772 29.0851 26.1309 29.1978C26.0842 29.3101 26.0404 29.4238 25.9993 29.5383C25.9583 29.6528 25.9202 29.7682 25.8849 29.8849C25.8495 30.0011 25.8171 30.1186 25.7873 30.2367C25.7577 30.3547 25.731 30.4735 25.7074 30.5928C25.6834 30.7122 25.6628 30.8319 25.6449 30.9525C25.627 31.0727 25.6121 31.1937 25.5999 31.3148C25.5881 31.4358 25.579 31.5573 25.5733 31.6788C25.5671 31.8003 25.5641 31.9218 25.5641 32.0437C25.5641 32.1653 25.5671 32.2871 25.5728 32.4087C25.579 32.5302 25.5877 32.6516 25.5999 32.7727C25.6117 32.8937 25.6266 33.0143 25.6445 33.135C25.6624 33.2551 25.683 33.3753 25.7065 33.4946C25.7306 33.6139 25.7572 33.7328 25.7865 33.8508C25.8162 33.9688 25.8486 34.0859 25.884 34.2026C25.9193 34.3193 25.9574 34.4346 25.9985 34.5491C26.0396 34.6637 26.0833 34.7773 26.1296 34.8901C26.1763 35.0024 26.2257 35.1133 26.2777 35.2235C26.3297 35.3336 26.3843 35.4424 26.4416 35.5494C26.4989 35.657 26.5591 35.7627 26.6216 35.8672C26.6842 35.9717 26.7492 36.0743 26.817 36.1758C26.8843 36.2771 26.9547 36.3763 27.0268 36.4742C27.0993 36.5721 27.1745 36.6679 27.2514 36.7622C27.3288 36.8562 27.4083 36.9484 27.49 37.0384C27.5717 37.1288 27.6556 37.2167 27.7417 37.3028C27.8278 37.3889 27.9156 37.4728 28.0056 37.5545C28.0961 37.6363 28.1883 37.7158 28.2823 37.7931C28.3762 37.8705 28.4724 37.9452 28.5698 38.0177C28.6678 38.0903 28.7674 38.1603 28.8683 38.228C28.9697 38.2957 29.0724 38.3608 29.1769 38.4233C29.2813 38.4859 29.3871 38.5457 29.4945 38.6034C29.6017 38.6606 29.7104 38.7153 29.8206 38.7672C29.9303 38.8197 30.0417 38.8687 30.154 38.9154C30.2663 38.9622 30.38 39.0058 30.4944 39.0469C30.6094 39.088 30.7247 39.1261 30.8415 39.1615C30.9577 39.1968 31.0748 39.2292 31.1933 39.2589C31.3112 39.2882 31.4297 39.3149 31.5495 39.3388C31.6687 39.3624 31.7884 39.3835 31.9091 39.4014C32.0292 39.4193 32.1498 39.4341 32.2713 39.446C32.3924 39.4577 32.5135 39.4669 32.6354 39.4731C32.7569 39.4788 32.8784 39.4818 33.0003 39.4818C33.1218 39.4818 33.2433 39.4788 33.3652 39.4731C33.4867 39.4669 33.6082 39.4582 33.7292 39.446C33.8503 39.4341 33.9709 39.4193 34.0915 39.4014C34.2117 39.3835 34.3318 39.3629 34.4512 39.3388C34.5704 39.3153 34.6893 39.2886 34.8073 39.2589C34.9254 39.2296 35.0425 39.1973 35.1591 39.1619C35.2754 39.1265 35.3912 39.0885 35.5057 39.0474C35.6202 39.0063 35.7338 38.9626 35.8462 38.9158C35.9589 38.8696 36.0699 38.8201 36.18 38.7681C36.2901 38.7162 36.3985 38.6615 36.506 38.6038C36.6135 38.5465 36.7193 38.4867 36.8237 38.4242C36.9282 38.3612 37.0309 38.2962 37.1322 38.2289C37.2332 38.1611 37.3329 38.0912 37.4303 38.0186C37.5281 37.9461 37.6243 37.8714 37.7183 37.794C37.8122 37.7167 37.9045 37.6371 37.9949 37.5554C38.0849 37.4737 38.1732 37.3898 38.2593 37.3037C38.3449 37.2181 38.4289 37.1297 38.511 37.0397C38.5927 36.9492 38.6719 36.8571 38.7492 36.763C38.8266 36.6691 38.9013 36.573 38.9738 36.4755C39.0464 36.3776 39.1163 36.278 39.184 36.177C39.2517 36.0757 39.3169 35.973 39.3794 35.8685C39.4419 35.7641 39.5018 35.6583 39.5594 35.5508C39.6166 35.4437 39.6713 35.3349 39.7233 35.2247C39.7753 35.1147 39.8247 35.0036 39.8715 34.8913C39.9177 34.7786 39.9619 34.6649 40.0026 34.5505C40.0437 34.4359 40.0821 34.3206 40.117 34.2039C40.1524 34.0876 40.1852 33.9701 40.2145 33.8521C40.2442 33.7341 40.2709 33.6152 40.2945 33.496C40.3185 33.3766 40.339 33.2569 40.357 33.1362C40.3749 33.0161 40.3898 32.8951 40.4015 32.774C40.4137 32.6529 40.4226 32.5314 40.4286 32.4099C40.4343 32.2884 40.4374 32.1669 40.4374 32.045C40.4374 31.9235 40.4343 31.8016 40.4282 31.6801C40.4221 31.5586 40.4129 31.4376 40.4006 31.3166C40.3889 31.1954 40.374 31.0748 40.3556 30.9547C40.3377 30.8341 40.3172 30.7143 40.2931 30.595C40.2692 30.4757 40.2424 30.3572 40.2127 30.2392C40.1835 30.1213 40.1507 30.0041 40.1153 29.8874C40.0799 29.7712 40.0419 29.6559 40.0008 29.5413C39.9597 29.4268 39.9156 29.3133 39.8692 29.201C39.8225 29.0886 39.7732 28.9776 39.7211 28.8674C39.6691 28.7578 39.6145 28.649 39.5568 28.5419C39.4995 28.4343 39.4397 28.3286 39.3772 28.2242C39.3147 28.1202 39.2496 28.0175 39.1819 27.9161C39.1141 27.8152 39.0442 27.7155 38.9716 27.618C38.8991 27.5201 38.8244 27.4244 38.747 27.3305C38.6701 27.2365 38.5906 27.1443 38.5088 27.0542C38.4271 26.9638 38.3432 26.876 38.2576 26.7899C38.1715 26.7038 38.0832 26.6199 37.9931 26.5382C37.9031 26.4565 37.811 26.3769 37.717 26.3C37.623 26.2227 37.5273 26.1479 37.4294 26.0753C37.332 26.0028 37.2323 25.9329 37.1313 25.8652C37.0304 25.7974 36.9278 25.7323 36.8233 25.6698C36.7188 25.6073 36.613 25.547 36.506 25.4897C36.3985 25.4325 36.2901 25.3774 36.18 25.3255C36.0703 25.2734 35.9589 25.224 35.8465 25.1773C35.7342 25.131 35.621 25.0868 35.5066 25.0458C35.392 25.0047 35.2767 24.9666 35.16 24.9308C35.0437 24.8954 34.9266 24.8631 34.8087 24.8334C34.6907 24.8036 34.5722 24.777 34.453 24.7529C34.3336 24.7294 34.2139 24.7083 34.0932 24.69C33.9731 24.6721 33.8525 24.6573 33.7315 24.645C33.6103 24.6332 33.4893 24.624 33.3678 24.6179C33.2463 24.6118 33.1244 24.6082 33.0029 24.6082Z" fill="#00D280"/>
<path d="M32.9997 34.196C32.8809 34.196 32.7625 34.1903 32.644 34.1785C32.5261 34.1671 32.4085 34.1496 32.2918 34.1265C32.1751 34.1033 32.0602 34.0745 31.9461 34.04C31.8325 34.0059 31.7206 33.9657 31.6109 33.9202C31.5013 33.8748 31.3938 33.824 31.2889 33.7682C31.184 33.7122 31.0822 33.6515 30.9834 33.5854C30.8847 33.5195 30.7889 33.4487 30.6971 33.3735C30.6054 33.2979 30.5171 33.2184 30.4332 33.1344C30.3493 33.0506 30.2693 32.9622 30.1937 32.8705C30.1185 32.7787 30.0477 32.6834 29.9818 32.5847C29.9154 32.4859 29.8546 32.3841 29.7983 32.2792C29.7423 32.1748 29.6916 32.0673 29.6457 31.9576C29.6002 31.8478 29.5605 31.736 29.5255 31.6224C29.491 31.5084 29.4621 31.3934 29.439 31.2767C29.4158 31.1605 29.3983 31.0429 29.3866 30.9245C29.3747 30.8064 29.3691 30.6876 29.3687 30.5687C29.3687 30.4498 29.3744 30.3315 29.3861 30.213C29.3974 30.095 29.415 29.9774 29.4381 29.8608C29.4613 29.7445 29.4901 29.6291 29.5246 29.5155C29.5588 29.4015 29.599 29.29 29.6444 29.1799C29.6899 29.0702 29.7405 28.9627 29.7965 28.8578C29.8525 28.7529 29.9132 28.6511 29.9791 28.5523C30.0452 28.4536 30.1159 28.3583 30.1911 28.2661C30.2667 28.1743 30.3462 28.0865 30.4301 28.0021C30.5141 27.9182 30.6023 27.8382 30.6941 27.7631C30.7858 27.6875 30.8811 27.6166 30.9799 27.5507C31.0787 27.4846 31.1805 27.4235 31.2854 27.3672C31.3902 27.3112 31.4974 27.2605 31.607 27.215C31.7167 27.1691 31.8286 27.1294 31.9422 27.0949C32.0563 27.0604 32.1712 27.0311 32.2879 27.0079C32.4042 26.9847 32.5216 26.9672 32.6401 26.9555C32.7581 26.9436 32.877 26.938 32.9958 26.938C33.1147 26.9376 33.2332 26.9436 33.3515 26.955C33.4695 26.9668 33.5871 26.9838 33.7038 27.007C33.8205 27.0302 33.9354 27.059 34.0491 27.0935C34.1631 27.1281 34.2746 27.1679 34.3846 27.2133C34.4944 27.2588 34.6019 27.3094 34.7068 27.3654C34.8117 27.4214 34.9135 27.4821 35.0122 27.548C35.111 27.6141 35.2063 27.6848 35.2985 27.7604C35.3902 27.8356 35.4781 27.9151 35.5624 27.999C35.6463 28.0834 35.7263 28.1712 35.8015 28.263C35.877 28.3548 35.9479 28.4501 36.0139 28.5489C36.0798 28.6476 36.141 28.7494 36.1974 28.8543C36.2534 28.9592 36.3041 29.0663 36.3495 29.176C36.3953 29.2861 36.4352 29.3976 36.4697 29.5116C36.5046 29.6252 36.5335 29.7402 36.5567 29.8569C36.5798 29.9735 36.5973 30.0906 36.6091 30.2091C36.6208 30.3275 36.6265 30.4459 36.6265 30.5648C36.6265 30.6836 36.6208 30.8021 36.6091 30.9201C36.5973 31.0385 36.5798 31.1557 36.5567 31.2723C36.533 31.389 36.5042 31.504 36.4697 31.6175C36.4352 31.7312 36.3953 31.843 36.3499 31.9528C36.3041 32.0625 36.2534 32.1695 36.1974 32.2744C36.1415 32.3793 36.0803 32.4811 36.0143 32.5799C35.9484 32.6786 35.8779 32.7739 35.8024 32.8657C35.7272 32.9579 35.6476 33.0458 35.5638 33.1296C35.4798 33.2136 35.3916 33.2935 35.2997 33.3691C35.208 33.4444 35.1132 33.5151 35.0144 33.5811C34.9157 33.6476 34.8138 33.7083 34.7089 33.7647C34.6045 33.8206 34.4974 33.8717 34.3878 33.9172C34.278 33.9626 34.1662 34.0028 34.0525 34.0378C33.9389 34.0723 33.824 34.1012 33.7073 34.1248C33.591 34.148 33.4735 34.1659 33.3555 34.1776C33.2371 34.1894 33.1186 34.1955 32.9997 34.196ZM32.9997 27.7735C32.9085 27.7735 32.8171 27.7779 32.7258 27.7867C32.6348 27.7954 32.5444 27.809 32.4548 27.8269C32.3648 27.8444 32.2761 27.8667 32.1887 27.8933C32.1009 27.9195 32.0152 27.9505 31.9304 27.9855C31.8456 28.0205 31.7631 28.0594 31.6827 28.1027C31.6018 28.1455 31.5231 28.1927 31.4471 28.2433C31.3711 28.294 31.2976 28.3487 31.2268 28.4063C31.156 28.4645 31.0882 28.5261 31.0236 28.5908C30.9589 28.6555 30.8973 28.7228 30.8392 28.7935C30.7811 28.8644 30.7269 28.9377 30.6757 29.0139C30.625 29.0899 30.5779 29.1685 30.5346 29.2489C30.4918 29.3298 30.4524 29.4124 30.4175 29.4968C30.3825 29.5815 30.3515 29.6676 30.3248 29.755C30.2986 29.8424 30.2763 29.9311 30.2584 30.0211C30.2404 30.1107 30.2269 30.2012 30.2177 30.2921C30.209 30.3834 30.2046 30.4748 30.2042 30.5661C30.2042 30.6574 30.209 30.7488 30.2177 30.8401C30.2269 30.9311 30.2401 31.0215 30.258 31.1111C30.2759 31.2011 30.2982 31.2898 30.3244 31.3772C30.351 31.465 30.3821 31.5507 30.417 31.6355C30.452 31.7199 30.4909 31.8028 30.5341 31.8833C30.5774 31.9642 30.6241 32.0423 30.6753 32.1184C30.726 32.1948 30.7802 32.2683 30.8383 32.3387C30.8964 32.4095 30.958 32.4772 31.0227 32.5419C31.0874 32.6065 31.1552 32.6682 31.226 32.7263C31.2963 32.7844 31.3697 32.8386 31.4462 32.8897C31.5222 32.9404 31.6005 32.9872 31.6813 33.0304C31.7617 33.0738 31.8448 33.1126 31.9291 33.1475C32.0139 33.1826 32.0995 33.2136 32.1874 33.2402C32.2748 33.2664 32.3635 33.2887 32.4535 33.3066C32.5431 33.3246 32.6336 33.3377 32.7245 33.3468C32.8158 33.3556 32.9071 33.3604 32.9985 33.3604C33.0898 33.3599 33.1811 33.3556 33.2725 33.3468C33.3634 33.3377 33.4539 33.3241 33.5434 33.3062C33.6335 33.2883 33.7221 33.2664 33.8096 33.2398C33.8969 33.2131 33.983 33.1821 34.0679 33.1471C34.1522 33.1122 34.2348 33.0729 34.3157 33.03C34.3961 32.9868 34.4747 32.9395 34.5507 32.8889C34.6268 32.8377 34.7002 32.7835 34.771 32.7254C34.8418 32.6673 34.9091 32.6056 34.9738 32.541C35.0384 32.4763 35.1001 32.4086 35.1582 32.3378C35.2159 32.267 35.2705 32.1936 35.3212 32.1176C35.3719 32.0414 35.4191 31.9628 35.4619 31.882C35.5052 31.8016 35.5441 31.719 35.579 31.6342C35.614 31.5494 35.645 31.4638 35.6712 31.3759C35.6979 31.2885 35.7202 31.1998 35.7376 31.1098C35.7556 31.0202 35.7691 30.9297 35.7778 30.8388C35.7866 30.7474 35.7909 30.6562 35.7909 30.5648C35.7909 30.4735 35.7866 30.3821 35.7774 30.2912C35.7682 30.2004 35.7547 30.1099 35.7372 30.0202C35.7193 29.9307 35.697 29.8424 35.6704 29.7545C35.6437 29.6672 35.6127 29.5815 35.5777 29.4971C35.5427 29.4124 35.5039 29.3302 35.4606 29.2493C35.4178 29.1689 35.3706 29.0908 35.3199 29.0147C35.2692 28.9386 35.2145 28.8652 35.1564 28.7949C35.0988 28.7241 35.0375 28.6564 34.9729 28.5916C34.9082 28.5274 34.8405 28.4658 34.7697 28.4081C34.6994 28.35 34.6259 28.2954 34.5499 28.2447C34.4739 28.1939 34.3956 28.1468 34.3152 28.1039C34.2344 28.0607 34.1522 28.0217 34.0674 27.9868C33.983 27.9519 33.8974 27.9209 33.81 27.8942C33.7221 27.8676 33.6339 27.8453 33.5443 27.8277C33.4547 27.8098 33.3643 27.7962 33.2734 27.7871C33.1825 27.7779 33.0911 27.7735 32.9997 27.7735Z" fill="#00D280"/>
<path d="M33.0025 40.3175C32.7136 40.3171 32.4256 40.3013 32.1385 40.2707C31.8514 40.2402 31.5669 40.1947 31.2846 40.1344C31.0018 40.0741 30.7234 39.9993 30.449 39.9102C30.1746 39.8206 29.9054 39.7175 29.6414 39.5999C29.3775 39.4824 29.1205 39.3517 28.8705 39.2075C28.6206 39.0633 28.3784 38.9063 28.1446 38.7368C27.9108 38.5673 27.6867 38.3863 27.4716 38.1931C27.2566 38.0004 27.0525 37.7967 26.8589 37.5826C26.8161 37.5354 26.7859 37.4817 26.768 37.421C26.7496 37.3597 26.7457 37.2981 26.7562 37.2357C26.7776 37.1011 26.8052 36.9682 26.8384 36.8362C26.8716 36.7046 26.911 36.5744 26.956 36.446C27.0005 36.3174 27.0513 36.1916 27.1071 36.0675C27.1636 35.9438 27.2247 35.8223 27.2916 35.7039C27.3584 35.5854 27.4301 35.4701 27.5074 35.3582C27.5843 35.2459 27.6661 35.1375 27.7526 35.0326C27.8392 34.9277 27.9305 34.8273 28.0262 34.7302C28.1214 34.6336 28.2211 34.5414 28.3251 34.4531C28.4287 34.3653 28.5362 34.2822 28.6472 34.2036C28.7582 34.1254 28.8727 34.0519 28.9903 33.9837C29.1078 33.9152 29.2284 33.8523 29.3512 33.7945C29.4744 33.7373 29.5999 33.6849 29.7279 33.6385C29.8556 33.5922 29.9853 33.5511 30.1165 33.5162C30.248 33.4812 30.3808 33.4519 30.5145 33.4287C30.6487 33.4056 30.7833 33.3881 30.9188 33.3768C31.0547 33.3654 31.1902 33.3602 31.326 33.3606H34.6832C34.8191 33.3602 34.9546 33.3658 35.0901 33.3772C35.2256 33.3885 35.3602 33.4061 35.4939 33.4292C35.6276 33.4523 35.7605 33.4817 35.8916 33.5166C36.0227 33.5515 36.152 33.5926 36.2801 33.639C36.4076 33.6853 36.5331 33.7373 36.6559 33.795C36.7791 33.8527 36.8993 33.9156 37.0168 33.9837C37.1344 34.0519 37.2485 34.1249 37.3595 34.2032C37.4705 34.2813 37.578 34.3644 37.6816 34.4523C37.7851 34.5401 37.8848 34.6323 37.9805 34.7289C38.0762 34.8255 38.1671 34.926 38.2536 35.0308C38.3406 35.1353 38.4223 35.2437 38.4993 35.3555C38.5765 35.4675 38.6482 35.5824 38.7151 35.7008C38.782 35.8188 38.8436 35.9399 38.9 36.0635C38.9563 36.1872 39.0066 36.3131 39.052 36.4411C39.0971 36.5696 39.1364 36.6994 39.1701 36.8309C39.2032 36.9625 39.2312 37.0954 39.253 37.2295C39.2635 37.2924 39.2596 37.354 39.2417 37.4148C39.2238 37.476 39.1937 37.5301 39.1512 37.5774C38.9577 37.7919 38.7531 37.996 38.5386 38.1892C38.3235 38.3828 38.0993 38.5646 37.8651 38.7342C37.6313 38.9042 37.3892 39.0615 37.1388 39.2062C36.8888 39.3508 36.6314 39.4819 36.3674 39.5995C36.1035 39.717 35.8339 39.8206 35.559 39.9102C35.2841 39.9998 35.0053 40.0745 34.7225 40.1348C34.4398 40.1951 34.1549 40.2406 33.8673 40.2712C33.5798 40.3017 33.2914 40.3171 33.0025 40.3175ZM27.6163 37.1723C27.7028 37.2636 27.7915 37.3523 27.8824 37.4389C27.9738 37.5253 28.0668 37.6093 28.1621 37.6915C28.2574 37.7732 28.3544 37.8523 28.4536 37.9292C28.5532 38.0061 28.6542 38.0803 28.7573 38.1521C28.8604 38.2242 28.9653 38.2932 29.0719 38.3597C29.1782 38.4261 29.2866 38.4895 29.3962 38.5506C29.5064 38.6114 29.6173 38.6695 29.7301 38.725C29.8428 38.78 29.9569 38.8325 30.0723 38.8823C30.1877 38.9317 30.3043 38.978 30.4223 39.0217C30.5399 39.0654 30.6587 39.1061 30.7785 39.1437C30.8982 39.1812 31.0189 39.2158 31.1408 39.2472C31.2623 39.2787 31.3846 39.3071 31.5074 39.332C31.6307 39.3573 31.754 39.3796 31.8785 39.3984C32.0025 39.4177 32.1271 39.4334 32.2517 39.4461C32.3766 39.4587 32.5021 39.4684 32.6275 39.4744C32.7529 39.481 32.8783 39.4841 33.0037 39.4841C33.1296 39.4836 33.2551 39.4806 33.3805 39.4741C33.5059 39.4679 33.6309 39.4583 33.7559 39.4456C33.8809 39.4325 34.0054 39.4168 34.1295 39.3976C34.2536 39.3788 34.3773 39.3565 34.5001 39.3311C34.6233 39.3058 34.7453 39.2774 34.8667 39.2459C34.9887 39.2144 35.1093 39.1795 35.2291 39.1419C35.3488 39.1043 35.4677 39.0637 35.5852 39.02C35.7032 38.9763 35.8195 38.9295 35.9348 38.8801C36.0502 38.8303 36.1642 38.7779 36.277 38.7228C36.3897 38.6673 36.5012 38.6092 36.6109 38.548C36.7206 38.4868 36.8285 38.4234 36.9351 38.3566C37.0418 38.2902 37.1467 38.2211 37.2494 38.1494C37.3525 38.0773 37.4534 38.0031 37.553 37.9261C37.6523 37.8492 37.7493 37.7696 37.8446 37.6879C37.9399 37.6058 38.0329 37.5219 38.1238 37.4353C38.2148 37.3484 38.3034 37.2596 38.39 37.1688C38.3673 37.0639 38.3397 36.9603 38.3083 36.858C38.2763 36.7558 38.2405 36.6548 38.2003 36.5556C38.1601 36.4564 38.116 36.359 38.0674 36.2632C38.0189 36.168 37.9665 36.0745 37.9097 35.9836C37.8533 35.8926 37.7934 35.804 37.7292 35.7179C37.6654 35.6322 37.5976 35.5491 37.5268 35.4687C37.4556 35.3888 37.3813 35.3114 37.304 35.2376C37.2262 35.1637 37.1458 35.0934 37.0619 35.0265C36.9784 34.9596 36.8923 34.8962 36.8032 34.8364C36.714 34.777 36.6227 34.721 36.5291 34.6691C36.4356 34.617 36.3395 34.5694 36.242 34.5256C36.1442 34.482 36.0445 34.4422 35.9435 34.4073C35.8422 34.3718 35.74 34.3408 35.6359 34.3141C35.5324 34.2879 35.4275 34.2657 35.3221 34.2482C35.2164 34.2303 35.1102 34.2172 35.0031 34.2084C34.8965 34.2001 34.7894 34.1957 34.6823 34.1966H31.3243C31.2169 34.1957 31.1097 34.1997 31.0031 34.2084C30.8961 34.2167 30.7898 34.2298 30.6841 34.2477C30.5783 34.2652 30.4735 34.287 30.3695 34.3137C30.2655 34.3403 30.1632 34.3714 30.0618 34.4064C29.9604 34.4418 29.8612 34.4815 29.7633 34.5252C29.6655 34.569 29.5693 34.617 29.4758 34.6691C29.3818 34.7206 29.2905 34.7765 29.2013 34.8364C29.1121 34.8962 29.0261 34.9596 28.9422 35.0265C28.8587 35.0938 28.7783 35.1642 28.7005 35.2384C28.6227 35.3123 28.5485 35.3897 28.4776 35.4696C28.4064 35.55 28.3391 35.6335 28.2753 35.7196C28.211 35.8057 28.1512 35.894 28.0948 35.9853C28.0385 36.0767 27.986 36.1702 27.9375 36.2659C27.889 36.3616 27.8449 36.4591 27.8046 36.5583C27.7648 36.6579 27.729 36.7588 27.6975 36.8616C27.6661 36.9638 27.639 37.0674 27.6163 37.1723Z" fill="#00D280"/>
</g>
</g>
</g>
<defs>
<clipPath id="clip0_1_4961">
<rect width="41" height="40.09" fill="white" transform="translate(12.5 12)"/>
</clipPath>
<clipPath id="clip1_1_4961">
<rect width="41" height="40.09" fill="white" transform="translate(12.5 12)"/>
</clipPath>
<clipPath id="clip2_1_4961">
<rect width="41" height="40.1087" fill="white" transform="translate(12.5 11.9907)"/>
</clipPath>
</defs>
</svg>
