<svg width="56" height="56" viewBox="0 0 56 56" fill="none" xmlns="http://www.w3.org/2000/svg">
<g clip-path="url(#clip0_1_5063)">
<g clip-path="url(#clip1_1_5063)">
<g clip-path="url(#clip2_1_5063)">
<path d="M27.9384 13.4717C27.4564 13.4717 26.9743 13.495 26.4939 13.5434C26.0135 13.5901 25.5361 13.66 25.0635 13.7534C24.5892 13.8485 24.1228 13.9651 23.6595 14.1053C23.1978 14.2438 22.7438 14.4058 22.2977 14.591C21.8532 14.7746 21.4164 14.9801 20.9905 15.2074C20.5647 15.4347 20.1513 15.6822 19.7504 15.95C19.3495 16.2162 18.9611 16.5042 18.5883 16.8093C18.2155 17.1144 17.8582 17.4382 17.5166 17.7775C17.175 18.1185 16.8521 18.475 16.5448 18.847C16.2391 19.2191 15.952 19.6067 15.6837 20.0068C15.4154 20.4068 15.1674 20.8193 14.9396 21.2444C14.7119 21.6693 14.506 22.1036 14.3219 22.5488C14.1363 22.9941 13.974 23.4471 13.8337 23.9078C13.6948 24.3686 13.5762 24.8356 13.4827 25.3073C13.3891 25.7805 13.3173 26.2568 13.2705 26.7348C13.2237 27.2143 13.1987 27.6953 13.1987 28.1779C13.1987 28.6589 13.2222 29.1399 13.2705 29.6193C13.3173 30.0973 13.3875 30.5736 13.4827 31.0468C13.5762 31.5185 13.6933 31.9855 13.8337 32.4463C13.974 32.9071 14.1363 33.3601 14.3204 33.8053C14.506 34.2505 14.7119 34.6848 14.9396 35.1099C15.1674 35.5348 15.4139 35.9473 15.6821 36.3474C15.9504 36.749 16.2374 37.1351 16.5448 37.5071C16.8505 37.8791 17.1734 38.2357 17.5151 38.5766C17.8567 38.9175 18.2139 39.2397 18.5867 39.5464C18.9595 39.8515 19.3479 40.1379 19.7489 40.4057C20.1497 40.6734 20.5631 40.921 20.989 41.1482C21.4148 41.374 21.8501 41.581 22.2962 41.7647C22.7423 41.9484 23.1963 42.1103 23.658 42.2504C24.1197 42.3905 24.5877 42.5073 25.0619 42.6022C25.5345 42.6956 26.0119 42.7657 26.4923 42.8139C26.9728 42.8606 27.4533 42.884 27.9368 42.884C28.4189 42.884 28.9009 42.8606 29.3813 42.8124C29.8617 42.7657 30.3375 42.6956 30.8117 42.6007C31.2844 42.5073 31.7524 42.3905 32.2141 42.2504C32.6759 42.1103 33.1297 41.9484 33.5759 41.7647C34.022 41.5795 34.4572 41.374 34.8831 41.1467C35.309 40.9194 35.7223 40.6719 36.1233 40.4042C36.5257 40.1364 36.9126 39.8499 37.2854 39.5448C37.6582 39.2397 38.0155 38.9159 38.357 38.575C38.6986 38.2341 39.0216 37.8776 39.3289 37.5056C39.6346 37.1335 39.9216 36.7475 40.1899 36.3458C40.4583 35.9458 40.7047 35.5333 40.9324 35.1082C41.1602 34.6833 41.3661 34.249 41.5518 33.8037C41.7358 33.3585 41.898 32.9055 42.0384 32.4448C42.1772 31.984 42.2958 31.517 42.3894 31.0437C42.483 30.5721 42.5532 30.0957 42.6015 29.6163C42.6483 29.1368 42.6718 28.6573 42.6718 28.1747C42.6718 27.6937 42.6468 27.2143 42.6 26.7348C42.5516 26.2553 42.4799 25.7805 42.3862 25.3073C42.2911 24.8356 42.1742 24.3702 42.0337 23.9094C41.8933 23.4486 41.7311 22.9956 41.5455 22.5504C41.3614 22.1067 41.1555 21.6724 40.9277 21.2474C40.7 20.8225 40.452 20.4099 40.1837 20.0098C39.9154 19.6098 39.6284 19.2237 39.3226 18.8517C39.0169 18.4797 38.6924 18.1231 38.3524 17.7838C38.0108 17.4429 37.6535 17.1191 37.2807 16.814C36.9079 16.5089 36.521 16.2224 36.1201 15.9546C35.7192 15.6869 35.3058 15.4394 34.88 15.2121C34.4557 14.9863 34.0205 14.7793 33.5743 14.5957C33.1282 14.4104 32.6742 14.2485 32.2141 14.1084C31.7524 13.9683 31.2844 13.8515 30.8117 13.7566C30.3391 13.6632 29.8617 13.5916 29.3813 13.5449C28.9024 13.4967 28.4204 13.4733 27.9384 13.4717ZM36.2106 35.6049C35.9236 35.9239 35.6178 36.2245 35.2949 36.5078C34.9736 36.7911 34.6351 37.0541 34.2826 37.2986C33.93 37.5429 33.5634 37.7655 33.1844 37.9663C32.8069 38.1688 32.4169 38.3477 32.0176 38.505C31.6182 38.6622 31.2111 38.7945 30.7961 38.905C30.3796 39.014 29.96 39.0996 29.5357 39.1619C29.1099 39.2226 28.6825 39.26 28.2535 39.2709C27.8245 39.2834 27.3955 39.2709 26.9681 39.2335C26.5407 39.1946 26.1164 39.1339 25.6952 39.0467C25.2756 38.9595 24.8607 38.849 24.4535 38.7151C24.0464 38.5813 23.647 38.424 23.2571 38.2435C22.8686 38.0629 22.4912 37.8605 22.1246 37.6363C21.758 37.4122 21.407 37.1678 21.0685 36.9031C20.7316 36.6385 20.4102 36.3552 20.1045 36.0532C19.8004 35.7512 19.5133 35.4321 19.2466 35.0974C18.9782 34.7627 18.7302 34.414 18.5024 34.0497C18.2763 33.687 18.0704 33.3118 17.8863 32.9242C17.7022 32.5366 17.5416 32.1397 17.4043 31.7349C17.2655 31.3286 17.1516 30.9161 17.0627 30.4973C16.9722 30.0786 16.9067 29.6551 16.8661 29.2286C16.8256 28.8021 16.8084 28.374 16.8177 27.9459C16.8256 27.5178 16.8599 27.0913 16.9176 26.6663C16.9753 26.2413 17.058 25.8225 17.1656 25.4069C17.2717 24.9928 17.4027 24.585 17.5556 24.185C17.71 23.7848 17.8879 23.3941 18.086 23.0158C18.2856 22.636 18.5056 22.2686 18.749 21.9153C18.9907 21.5603 19.2513 21.221 19.532 20.8971C19.8143 20.5734 20.1123 20.2667 20.429 19.9772C20.7456 19.6892 21.0794 19.4183 21.4273 19.1677C21.7751 18.917 22.137 18.6867 22.5114 18.4765C22.8859 18.2679 23.2711 18.0811 23.6673 17.9161C24.0651 17.751 24.4691 17.611 24.8825 17.4926C25.2943 17.3743 25.7124 17.2809 26.1367 17.2109C26.5609 17.1424 26.9869 17.0973 27.4158 17.0771C27.8448 17.0568 28.2738 17.0599 28.7012 17.0895C29.1302 17.1191 29.556 17.172 29.9772 17.2514C30.3999 17.3293 30.8164 17.432 31.2266 17.5581C31.6369 17.6841 32.0379 17.8335 32.431 18.0064C32.824 18.1791 33.2062 18.3738 33.5759 18.5917C33.9472 18.8081 34.3029 19.0447 34.646 19.3031C34.9892 19.5615 35.3152 19.8386 35.6257 20.1343C35.9376 20.4302 36.2293 20.743 36.5039 21.073C36.7784 21.4015 37.0327 21.7471 37.2666 22.1051C37.5022 22.4647 37.7143 22.8353 37.9062 23.2198C38.098 23.6027 38.2666 23.9965 38.4116 24.3997C38.5582 24.8029 38.68 25.2124 38.7782 25.6296C38.8765 26.0468 38.9498 26.4686 38.9997 26.8936C39.0481 27.3201 39.0731 27.7466 39.0731 28.1747C39.0715 28.855 39.0091 29.5291 38.8843 30.1984C38.7595 30.8663 38.5755 31.5185 38.3305 32.1536C38.0856 32.7872 37.7845 33.3943 37.4288 33.975C37.0732 34.5541 36.6661 35.0974 36.2106 35.6033V35.6049Z" fill="white"/>
<path d="M27.9385 14.5894C27.8636 14.5894 27.7919 14.5753 27.7232 14.5457C27.6546 14.5178 27.5937 14.4773 27.5407 14.4244C27.4877 14.3714 27.4471 14.3107 27.4191 14.2422C27.3909 14.1737 27.377 14.1021 27.377 14.0274V6.89146C27.377 6.81674 27.3909 6.74513 27.4191 6.67664C27.4471 6.60815 27.4877 6.54743 27.5407 6.4945C27.5937 6.44158 27.6546 6.4011 27.7232 6.37308C27.7919 6.34506 27.8636 6.33105 27.9385 6.33105C28.0133 6.33105 28.0851 6.34506 28.1537 6.37308C28.2224 6.4011 28.2832 6.44158 28.3363 6.4945C28.3893 6.54743 28.4299 6.60815 28.4579 6.67664C28.486 6.74513 28.5 6.81674 28.5 6.89146V14.0274C28.5 14.1021 28.486 14.1737 28.4579 14.2422C28.4299 14.3107 28.3893 14.3714 28.3363 14.4244C28.2832 14.4773 28.2224 14.5178 28.1537 14.5457C28.0851 14.5753 28.0133 14.5894 27.9385 14.5894Z" fill="white"/>
<path d="M27.9385 50.02C27.8636 50.02 27.7919 50.006 27.7232 49.978C27.6546 49.9484 27.5937 49.9079 27.5407 49.855C27.4877 49.8036 27.4471 49.7429 27.4191 49.6744C27.3909 49.6044 27.377 49.5328 27.377 49.4596V42.3222C27.377 42.2474 27.3909 42.1758 27.4191 42.1073C27.4471 42.0389 27.4877 41.9781 27.5407 41.9252C27.5937 41.8723 27.6546 41.8318 27.7232 41.8038C27.7919 41.7758 27.8636 41.7617 27.9385 41.7617C28.0133 41.7617 28.0851 41.7758 28.1537 41.8038C28.2224 41.8318 28.2832 41.8723 28.3363 41.9252C28.3893 41.9781 28.4299 42.0389 28.4579 42.1073C28.486 42.1758 28.5 42.2474 28.5 42.3222V49.4596C28.5 49.5328 28.486 49.6044 28.4579 49.6744C28.4299 49.7429 28.3893 49.8036 28.3363 49.855C28.2832 49.9079 28.2224 49.9484 28.1537 49.978C28.0851 50.006 28.0133 50.02 27.9385 50.02Z" fill="white"/>
<path d="M37.9635 18.7349C37.8496 18.7349 37.7451 18.7022 37.65 18.6399C37.5563 18.5761 37.4862 18.492 37.4441 18.3877C37.4004 18.2834 37.3895 18.1745 37.4114 18.0639C37.4332 17.9519 37.4847 17.8569 37.5657 17.776L42.6214 12.7307C42.6745 12.6762 42.7353 12.6342 42.804 12.6046C42.8741 12.575 42.9459 12.5594 43.0207 12.5594C43.0972 12.5579 43.169 12.5719 43.2391 12.5999C43.3093 12.6295 43.3702 12.67 43.4232 12.7229C43.4778 12.7758 43.5183 12.8381 43.5465 12.9082C43.5745 12.9766 43.5886 13.0498 43.5886 13.1246C43.5886 13.2009 43.573 13.2725 43.5433 13.3409C43.5137 13.4109 43.4715 13.4717 43.417 13.523L38.3597 18.5699C38.2505 18.6789 38.118 18.7349 37.9635 18.7349Z" fill="white"/>
<path d="M12.857 43.7884C12.7447 43.7884 12.6402 43.7573 12.5451 43.6935C12.4515 43.6312 12.3813 43.5472 12.3376 43.4428C12.2955 43.337 12.2845 43.2296 12.3064 43.1175C12.3282 43.007 12.3797 42.9105 12.4608 42.8311L17.5165 37.7842C17.5696 37.7329 17.6303 37.694 17.699 37.6659C17.7676 37.6395 17.8378 37.6255 17.9127 37.6271C17.986 37.6271 18.0563 37.6411 18.1249 37.6706C18.1935 37.6987 18.2527 37.7392 18.3058 37.7905C18.3573 37.8434 18.3978 37.9025 18.4259 37.9711C18.454 38.038 18.4696 38.1096 18.4696 38.1828C18.4712 38.256 18.4571 38.3276 18.429 38.3961C18.4025 38.4645 18.3635 38.5253 18.3121 38.5782L13.2549 43.6234C13.1457 43.734 13.013 43.7884 12.857 43.7884Z" fill="white"/>
<path d="M49.2634 28.7366H42.1128C42.0395 28.7366 41.9677 28.7226 41.8975 28.693C41.8289 28.665 41.768 28.6245 41.715 28.5716C41.6635 28.5187 41.623 28.4579 41.5934 28.3895C41.5652 28.321 41.5513 28.2494 41.5513 28.1746C41.5513 28.1015 41.5652 28.0298 41.5934 27.9599C41.623 27.8913 41.6635 27.8307 41.715 27.7777C41.768 27.7263 41.8289 27.6858 41.8975 27.6563C41.9677 27.6282 42.0395 27.6143 42.1128 27.6143H49.2634C49.3383 27.6143 49.41 27.6282 49.4787 27.6563C49.5489 27.6858 49.6098 27.7263 49.6612 27.7777C49.7143 27.8307 49.7548 27.8913 49.7829 27.9599C49.8125 28.0298 49.8266 28.1015 49.8266 28.1746C49.8266 28.2494 49.8125 28.321 49.7829 28.3895C49.7548 28.4579 49.7143 28.5187 49.6612 28.5716C49.6098 28.6245 49.5489 28.665 49.4787 28.693C49.41 28.7226 49.3383 28.7366 49.2634 28.7366Z" fill="white"/>
<path d="M13.7596 28.7366H6.60903C6.53415 28.7366 6.46239 28.7226 6.39376 28.693C6.32357 28.665 6.26272 28.6245 6.21125 28.5716C6.15822 28.5187 6.11765 28.4579 6.08957 28.3895C6.05994 28.321 6.0459 28.2494 6.0459 28.1746C6.0459 28.1015 6.05994 28.0298 6.08957 27.9599C6.11765 27.8913 6.15822 27.8307 6.21125 27.7777C6.26272 27.7263 6.32357 27.6858 6.39376 27.6563C6.46239 27.6282 6.53415 27.6143 6.60903 27.6143H13.7596C13.8346 27.6143 13.9063 27.6282 13.975 27.6563C14.0451 27.6858 14.106 27.7263 14.1575 27.7777C14.2105 27.8307 14.251 27.8913 14.2791 27.9599C14.3087 28.0298 14.3228 28.1015 14.3228 28.1746C14.3228 28.2494 14.3087 28.321 14.2791 28.3895C14.251 28.4579 14.2105 28.5187 14.1575 28.5716C14.106 28.6245 14.0451 28.665 13.975 28.693C13.9063 28.7226 13.8346 28.7366 13.7596 28.7366Z" fill="white"/>
<path d="M43.0149 43.7884C42.8589 43.7884 42.7263 43.734 42.6172 43.6234L37.5599 38.5782C37.51 38.5253 37.4694 38.4645 37.4429 38.3961C37.4148 38.3276 37.4023 38.256 37.4023 38.1828C37.4039 38.1096 37.4179 38.038 37.446 37.9711C37.4756 37.9025 37.5147 37.8434 37.5677 37.7905C37.6192 37.7392 37.68 37.6987 37.747 37.6706C37.8157 37.6411 37.8859 37.6271 37.9608 37.6271C38.0341 37.6255 38.1043 37.6395 38.173 37.6659C38.2416 37.694 38.3024 37.7329 38.3555 37.7842L43.4127 42.8311C43.4922 42.9105 43.5437 43.007 43.5656 43.1175C43.5889 43.2296 43.578 43.337 43.5344 43.4428C43.4907 43.5472 43.422 43.6312 43.3269 43.6935C43.2332 43.7573 43.1287 43.7884 43.0149 43.7884Z" fill="white"/>
<path d="M47.0246 42.8311C47.1697 42.9744 47.2991 43.1316 47.413 43.3013C47.5254 43.4709 47.6221 43.65 47.7001 43.8383C47.7781 44.0267 47.8373 44.2212 47.8779 44.422C47.9168 44.6213 47.9371 44.8237 47.9371 45.0277C47.9371 45.2315 47.9168 45.4339 47.8779 45.6347C47.8373 45.834 47.7781 46.0286 47.7001 46.2169C47.6221 46.4053 47.5254 46.5843 47.413 46.754C47.2991 46.9237 47.1697 47.0809 47.0246 47.2257C46.8811 47.3689 46.7235 47.4981 46.5535 47.6118C46.3835 47.7254 46.2041 47.8203 46.0154 47.8982C45.8266 47.9776 45.6316 48.0352 45.4304 48.0756C45.2307 48.1161 45.0279 48.1348 44.8236 48.1348C44.6192 48.1348 44.4164 48.1161 44.2168 48.0756C44.0155 48.0352 43.8205 47.9776 43.6318 47.8982C43.4431 47.8203 43.2637 47.7254 43.0936 47.6118C42.9236 47.4981 42.7661 47.3689 42.621 47.2257C42.4774 47.0809 42.348 46.9237 42.2341 46.754C42.1202 46.5843 42.0251 46.4053 41.9471 46.2169C41.8691 46.0286 41.8099 45.834 41.7693 45.6347C41.7302 45.4339 41.71 45.2315 41.71 45.0277C41.71 44.8237 41.7302 44.6213 41.7693 44.422C41.8099 44.2212 41.8691 44.0267 41.9471 43.8383C42.0251 43.65 42.1218 43.4709 42.2341 43.3013C42.348 43.1316 42.4774 42.9744 42.6225 42.8311C42.7661 42.6864 42.9236 42.5587 43.0936 42.4451C43.2637 42.333 43.4431 42.2364 43.6333 42.1586C43.8221 42.0824 44.0155 42.0232 44.2168 41.9827C44.4164 41.9438 44.6192 41.9236 44.8236 41.9236C45.0279 41.9236 45.2307 41.9438 45.4304 41.9827C45.6316 42.0232 45.825 42.0824 46.0138 42.1586C46.2026 42.2364 46.3819 42.333 46.5535 42.4451C46.7235 42.5587 46.8795 42.6864 47.0246 42.8311Z" fill="white"/>
<path d="M7.17141 28.1778C7.17141 28.3817 7.15113 28.5841 7.11057 28.7834C7.07001 28.9842 7.0123 29.1772 6.93274 29.3656C6.85475 29.5539 6.75959 29.7329 6.64572 29.9026C6.53184 30.0723 6.40237 30.2295 6.25886 30.3727C6.11379 30.5175 5.95624 30.6452 5.78621 30.7588C5.61618 30.8725 5.43679 30.9674 5.24804 31.0452C5.05929 31.1231 4.8643 31.1822 4.66463 31.2212C4.46496 31.2616 4.26217 31.2818 4.05783 31.2818C3.85348 31.2818 3.65069 31.2616 3.45101 31.2212C3.24979 31.1822 3.05636 31.1231 2.86761 31.0452C2.67886 30.9674 2.49947 30.8709 2.32944 30.7573C2.15941 30.6452 2.00186 30.516 1.85835 30.3712C1.71328 30.228 1.5838 30.0708 1.46993 29.9011C1.35762 29.7314 1.2609 29.5524 1.18291 29.3641C1.10491 29.1756 1.04563 28.981 1.00664 28.7818C0.966079 28.5825 0.945801 28.3802 0.945801 28.1762C0.945801 27.9723 0.966079 27.77 1.00508 27.5707C1.04563 27.3699 1.10491 27.1769 1.18291 26.9885C1.2609 26.8002 1.35606 26.6211 1.46993 26.4514C1.58224 26.2817 1.71172 26.1246 1.85679 25.9797C2.0003 25.8366 2.15785 25.7074 2.32788 25.5937C2.49791 25.4801 2.6773 25.3851 2.86449 25.3057C3.05324 25.2279 3.24823 25.1687 3.44945 25.1298C3.64913 25.0893 3.85192 25.0691 4.05627 25.0691C4.26061 25.0691 4.4634 25.0893 4.66307 25.1298C4.8643 25.1687 5.05929 25.2279 5.24804 25.3057C5.43679 25.3851 5.61618 25.4801 5.78621 25.5937C5.95624 25.7074 6.11379 25.8366 6.2573 25.9797C6.40237 26.1246 6.53184 26.2817 6.64572 26.4514C6.75959 26.6211 6.85475 26.8002 6.93274 26.9885C7.0123 27.1769 7.07157 27.3714 7.11057 27.5722C7.15113 27.7715 7.17141 27.9739 7.17141 28.1778Z" fill="white"/>
<path d="M13.2507 9.12541C13.3943 9.27019 13.5222 9.42586 13.6361 9.59554C13.7483 9.76523 13.8435 9.9442 13.9215 10.1326C13.9995 10.3194 14.0572 10.5139 14.0978 10.7132C14.1368 10.9125 14.1555 11.1149 14.1555 11.3172C14.1555 11.5212 14.1352 11.722 14.0947 11.9228C14.0557 12.122 13.9964 12.3151 13.9184 12.5034C13.8404 12.6902 13.7436 12.8693 13.6314 13.039C13.5175 13.2071 13.388 13.3643 13.2445 13.5075C13.0994 13.6508 12.9434 13.78 12.7734 13.892C12.6034 14.0056 12.4255 14.1007 12.2368 14.1785C12.048 14.2563 11.8546 14.3154 11.655 14.3544C11.4553 14.3949 11.2525 14.4135 11.0482 14.4135C10.8454 14.4135 10.6425 14.3949 10.4429 14.3544C10.2432 14.3154 10.0498 14.2563 9.86107 14.1785C9.67232 14.1007 9.49293 14.0056 9.32446 13.892C9.15443 13.78 8.99844 13.6508 8.85336 13.5075C8.70986 13.3643 8.58038 13.2071 8.46651 13.039C8.3542 12.8693 8.25748 12.6902 8.17949 12.5034C8.10149 12.3151 8.04221 12.122 8.00166 11.9228C7.96266 11.722 7.94238 11.5212 7.94238 11.3172C7.94238 11.1149 7.9611 10.9125 8.0001 10.7132C8.04065 10.5139 8.09837 10.3194 8.17637 10.1326C8.25436 9.9442 8.34952 9.76523 8.46183 9.59554C8.5757 9.42586 8.70362 9.27019 8.84712 9.12541C8.9922 8.9822 9.14975 8.85299 9.31978 8.73936C9.48981 8.62728 9.6692 8.53076 9.85795 8.45293C10.0467 8.37509 10.2417 8.31593 10.4414 8.27702C10.6425 8.23654 10.8438 8.21631 11.0482 8.21631C11.2525 8.21631 11.4553 8.23654 11.6565 8.27702C11.8562 8.31593 12.0512 8.37509 12.2399 8.45293C12.4287 8.53076 12.608 8.62728 12.7781 8.73936C12.9481 8.85299 13.1056 8.9822 13.2507 9.12541Z" fill="white"/>
<path d="M13.2513 42.831C13.3947 42.9742 13.5242 43.1314 13.6381 43.3011C13.7519 43.4708 13.8472 43.6498 13.9267 43.8381C14.0047 44.0265 14.064 44.2211 14.1029 44.4219C14.1435 44.6212 14.1638 44.8235 14.1638 45.0275C14.1638 45.2314 14.1435 45.4338 14.1029 45.6346C14.064 45.8338 14.0047 46.0284 13.9267 46.2167C13.8472 46.4052 13.7519 46.5842 13.6381 46.7539C13.5242 46.9235 13.3963 47.0808 13.2513 47.2255C13.1062 47.3688 12.9486 47.498 12.7786 47.6116C12.6086 47.7252 12.4291 47.8202 12.2404 47.898C12.0516 47.9774 11.8567 48.035 11.657 48.0755C11.4558 48.116 11.2546 48.1346 11.0486 48.1346C10.8443 48.1346 10.6431 48.116 10.4418 48.0755C10.2406 48.035 10.0472 47.9774 9.85844 47.898C9.66813 47.8202 9.48874 47.7252 9.31871 47.6116C9.14867 47.498 8.99268 47.3688 8.84761 47.2255C8.70253 47.0808 8.57463 46.9235 8.46075 46.7539C8.34688 46.5842 8.25016 46.4052 8.17217 46.2167C8.09417 46.0284 8.0349 45.8338 7.9959 45.6346C7.95534 45.4338 7.93506 45.2314 7.93506 45.0275C7.93506 44.8235 7.95534 44.6212 7.9959 44.4219C8.0349 44.2211 8.09417 44.0265 8.17217 43.8381C8.25172 43.6498 8.34688 43.4708 8.46075 43.3011C8.57463 43.1314 8.70253 42.9742 8.84761 42.831C8.99268 42.6862 9.15023 42.557 9.32027 42.4449C9.4903 42.3312 9.66969 42.2363 9.85844 42.1585C10.0472 42.0791 10.2421 42.0215 10.4418 41.981C10.6431 41.9421 10.8443 41.9219 11.0486 41.9219C11.253 41.9219 11.4558 41.9421 11.657 41.981C11.8567 42.0215 12.0516 42.0791 12.2404 42.1585C12.4291 42.2363 12.6086 42.3312 12.7786 42.4449C12.9486 42.557 13.1062 42.6862 13.2513 42.831Z" fill="white"/>
<mask id="mask0_1_5063" style="mask-type:luminance" maskUnits="userSpaceOnUse" x="48" y="24" width="8" height="8">
<path d="M48.354 24.7031H55.0429V31.4779H48.354V24.7031Z" fill="white"/>
</mask>
<g mask="url(#mask0_1_5063)">
<path d="M54.931 28.1778C54.931 28.3817 54.9107 28.5841 54.8718 28.7849C54.8312 28.9842 54.7719 29.1788 54.6939 29.3671C54.6159 29.557 54.5192 29.7361 54.4054 29.9058C54.2915 30.0754 54.1635 30.2327 54.0185 30.3759C53.8734 30.5207 53.7159 30.6499 53.5458 30.7635C53.3758 30.8771 53.1963 30.9721 53.0076 31.0499C52.8189 31.1277 52.6239 31.1869 52.4226 31.2274C52.223 31.2663 52.0202 31.2865 51.8158 31.2865C51.6115 31.2865 51.4088 31.2663 51.2075 31.2274C51.0063 31.1869 50.8129 31.1277 50.6225 31.0499C50.4338 30.9721 50.2544 30.8771 50.0843 30.7635C49.9143 30.6499 49.7568 30.5207 49.6132 30.3759C49.4682 30.2327 49.3387 30.0754 49.2249 29.9058C49.111 29.7361 49.0158 29.557 48.9378 29.3671C48.8583 29.1788 48.8006 28.9842 48.76 28.7849C48.7194 28.5841 48.7007 28.3817 48.7007 28.1778C48.7007 27.9739 48.7194 27.7715 48.76 27.5707C48.8006 27.3714 48.8583 27.1769 48.9378 26.9885C49.0158 26.8002 49.111 26.6211 49.2249 26.4514C49.3387 26.2817 49.4682 26.1246 49.6132 25.9797C49.7568 25.8349 49.9143 25.7057 50.0843 25.5937C50.2544 25.4801 50.4338 25.3835 50.6225 25.3057C50.8129 25.2279 51.0063 25.1687 51.2075 25.1282C51.4088 25.0893 51.6115 25.0691 51.8158 25.0691C52.0202 25.0691 52.223 25.0893 52.4226 25.1298C52.6239 25.1687 52.8189 25.2279 53.0076 25.3057C53.1963 25.3851 53.3758 25.4801 53.5458 25.5937C53.7159 25.7074 53.8734 25.8366 54.0185 25.9797C54.162 26.1246 54.2915 26.2817 54.4054 26.4514C54.5192 26.6211 54.6144 26.8002 54.6923 26.9885C54.7719 27.1769 54.8312 27.3714 54.8701 27.5722C54.9107 27.7715 54.931 27.9739 54.931 28.1778Z" fill="white"/>
</g>
<mask id="mask1_1_5063" style="mask-type:luminance" maskUnits="userSpaceOnUse" x="24" y="48" width="8" height="8">
<path d="M24.7935 48.6143H31.1828V55.3361H24.7935V48.6143Z" fill="white"/>
</mask>
<g mask="url(#mask1_1_5063)">
<path d="M31.0507 52.0062C31.0492 52.2102 31.0305 52.4125 30.99 52.6118C30.9494 52.8126 30.8901 53.0056 30.8121 53.194C30.7341 53.3824 30.6374 53.5614 30.5236 53.7311C30.4097 53.9007 30.2817 54.058 30.1367 54.2012C29.9916 54.346 29.8341 54.4736 29.664 54.5873C29.494 54.7009 29.3146 54.7958 29.1258 54.8737C28.9371 54.9515 28.7421 55.0107 28.5425 55.0496C28.3412 55.09 28.1384 55.1103 27.934 55.1088C27.7297 55.1088 27.5285 55.0885 27.3272 55.0496C27.1276 55.0091 26.9326 54.95 26.7439 54.8721C26.5551 54.7943 26.3757 54.6978 26.2057 54.5841C26.0356 54.4705 25.8797 54.3413 25.7346 54.198C25.5895 54.0533 25.4616 53.8961 25.3478 53.7264C25.2339 53.5567 25.1387 53.3777 25.0607 53.1894C24.9827 53.001 24.9235 52.8063 24.8844 52.6071C24.8439 52.4063 24.8252 52.204 24.8252 52C24.8252 51.796 24.8455 51.5937 24.886 51.3945C24.925 51.1952 24.9842 51.0006 25.0622 50.8123C25.1419 50.6239 25.237 50.4449 25.3509 50.2752C25.4647 50.1055 25.5942 49.9482 25.7393 49.8051C25.8828 49.6602 26.0403 49.5327 26.2104 49.419C26.3804 49.3054 26.5598 49.2104 26.7486 49.1326C26.9373 49.0547 27.1323 48.9956 27.3336 48.9567C27.5332 48.9162 27.736 48.8975 27.9404 48.8975C28.1447 48.8975 28.3474 48.9177 28.5472 48.9582C28.7468 48.9987 28.9418 49.0579 29.1305 49.1357C29.3192 49.2135 29.4987 49.3101 29.6672 49.4237C29.8371 49.5373 29.9947 49.6665 30.1382 49.8097C30.2833 49.9545 30.4127 50.1117 30.5251 50.2814C30.639 50.4511 30.7341 50.6301 30.8121 50.8185C30.8917 51.0068 30.9494 51.1999 30.99 51.4007C31.0305 51.5999 31.0492 51.8023 31.0507 52.0062Z" fill="white"/>
</g>
<path d="M47.0246 9.12541C47.1697 9.27019 47.2991 9.42742 47.413 9.59707C47.5254 9.76676 47.6221 9.94582 47.7001 10.1342C47.7781 10.3225 47.8373 10.5171 47.8779 10.7164C47.9168 10.9172 47.9371 11.1196 47.9371 11.3234C47.9371 11.5274 47.9168 11.7298 47.8779 11.9291C47.8373 12.1299 47.7781 12.3229 47.7001 12.5128C47.6221 12.7011 47.5254 12.8802 47.413 13.0498C47.2991 13.2195 47.1697 13.3752 47.0246 13.52C46.8811 13.6647 46.7235 13.7939 46.5535 13.906C46.3835 14.0197 46.2041 14.1162 46.0154 14.194C45.8266 14.2719 45.6316 14.331 45.4304 14.3699C45.2307 14.4104 45.0279 14.4307 44.8236 14.4307C44.6192 14.4307 44.4164 14.4104 44.2168 14.3699C44.0155 14.331 43.8205 14.2719 43.6318 14.194C43.4431 14.1162 43.2637 14.0197 43.0936 13.906C42.9236 13.7939 42.7661 13.6647 42.621 13.52C42.4774 13.3752 42.348 13.2195 42.2341 13.0498C42.1202 12.8802 42.0251 12.7011 41.9471 12.5128C41.8691 12.3229 41.8099 12.1299 41.7693 11.9291C41.7302 11.7298 41.71 11.5274 41.71 11.3234C41.71 11.1196 41.7302 10.9172 41.7693 10.7164C41.8099 10.5171 41.8691 10.3225 41.9471 10.1342C42.0251 9.94582 42.1218 9.76676 42.2341 9.59707C42.348 9.42742 42.4774 9.27019 42.6225 9.12541C42.7661 8.9822 42.9236 8.85299 43.0936 8.73936C43.2637 8.62728 43.4431 8.53076 43.6318 8.45293C43.8205 8.37509 44.0155 8.31593 44.2168 8.27702C44.4164 8.23654 44.6192 8.21631 44.8236 8.21631C45.0279 8.21631 45.2307 8.23654 45.4304 8.27702C45.6316 8.31593 45.8266 8.37509 46.0154 8.45293C46.2041 8.53076 46.3835 8.62728 46.5535 8.73936C46.7235 8.85299 46.8811 8.9822 47.0246 9.12541Z" fill="white"/>
<mask id="mask2_1_5063" style="mask-type:luminance" maskUnits="userSpaceOnUse" x="24" y="1" width="8" height="7">
<path d="M24.7935 1.23755H31.1828V7.56709H24.7935V1.23755Z" fill="white"/>
</mask>
<g mask="url(#mask2_1_5063)">
<path d="M31.0507 4.34472C31.0507 4.54864 31.0305 4.75102 30.99 4.95028C30.9509 5.15109 30.8917 5.34411 30.8137 5.53248C30.7341 5.7224 30.639 5.90142 30.5251 6.0711C30.4112 6.23922 30.2833 6.39644 30.1382 6.54122C29.9931 6.68599 29.8356 6.81364 29.6656 6.92729C29.4955 7.04092 29.3162 7.13588 29.1274 7.21372C28.9387 7.29311 28.7436 7.3507 28.544 7.39118C28.3428 7.43009 28.1415 7.45034 27.9372 7.45034C27.7329 7.45034 27.53 7.43009 27.3289 7.39118C27.1292 7.3507 26.9341 7.29155 26.7454 7.21372C26.5567 7.13588 26.3773 7.03936 26.2072 6.92573C26.0373 6.81364 25.8797 6.68444 25.7361 6.53966C25.591 6.39489 25.4616 6.23922 25.3493 6.06954C25.2354 5.89986 25.1387 5.71929 25.0607 5.53093C24.9827 5.34256 24.9235 5.14797 24.8844 4.94872C24.8439 4.74791 24.8252 4.54709 24.8252 4.34316C24.8252 4.13924 24.8455 3.93686 24.8844 3.73605C24.925 3.5368 24.9842 3.34221 25.0622 3.15384C25.1403 2.96548 25.237 2.78646 25.3509 2.61678C25.4647 2.4471 25.5942 2.28987 25.7377 2.14666C25.8828 2.00189 26.0403 1.87424 26.2104 1.7606C26.3804 1.64696 26.5598 1.552 26.7486 1.47417C26.9373 1.39633 27.1323 1.33718 27.3336 1.2967C27.5332 1.25779 27.736 1.23755 27.9404 1.23755C28.1447 1.23911 28.3459 1.25934 28.5472 1.29982C28.7468 1.33873 28.9418 1.39789 29.1305 1.47728C29.3177 1.55512 29.4971 1.65007 29.6672 1.76371C29.8371 1.87735 29.9931 2.00656 30.1382 2.14978C30.2817 2.29455 30.4112 2.45177 30.5251 2.62145C30.6374 2.78958 30.7341 2.9686 30.8121 3.15695C30.8901 3.34532 30.9494 3.53991 30.99 3.73916C31.0289 3.93842 31.0492 4.1408 31.0507 4.34472Z" fill="white"/>
</g>
<path d="M17.91 18.735C17.754 18.735 17.6214 18.6806 17.5122 18.57L12.455 13.5232C12.405 13.4703 12.3644 13.4096 12.3379 13.3426C12.3099 13.2742 12.2974 13.2025 12.2974 13.1294C12.299 13.0562 12.313 12.9846 12.3411 12.9177C12.3708 12.8491 12.4097 12.79 12.4627 12.7371C12.5142 12.6857 12.5751 12.6453 12.6422 12.6172C12.7108 12.5877 12.781 12.5736 12.8558 12.5736C12.9291 12.5721 12.9994 12.586 13.068 12.6126C13.1366 12.6406 13.1975 12.6795 13.2505 12.7308L18.3078 17.7761C18.3873 17.857 18.4388 17.9521 18.4606 18.0641C18.4841 18.1747 18.4731 18.2836 18.4294 18.3879C18.3858 18.4922 18.3171 18.5763 18.2219 18.6401C18.1284 18.7023 18.0239 18.735 17.91 18.735Z" fill="white"/>
<path d="M32.8191 26.1854C32.8191 26.506 32.7879 26.822 32.7255 27.1365C32.6631 27.4494 32.571 27.7545 32.4478 28.0502C32.3246 28.3461 32.1749 28.6262 31.997 28.8925C31.8192 29.1586 31.6164 29.4046 31.3902 29.6304C31.1625 29.856 30.916 30.0584 30.6493 30.2359C30.384 30.4133 30.1017 30.5644 29.8054 30.6857C29.5105 30.8087 29.2048 30.9006 28.8897 30.9629C28.5762 31.0251 28.2579 31.0562 27.9382 31.0562C27.6183 31.0562 27.3002 31.0251 26.9866 30.9629C26.6714 30.9006 26.3657 30.8087 26.0709 30.6857C25.7745 30.5644 25.4922 30.4133 25.227 30.2359C24.9602 30.0584 24.7138 29.856 24.486 29.6304C24.2598 29.4046 24.057 29.1586 23.8792 28.8925C23.7014 28.6262 23.5517 28.3461 23.4284 28.0502C23.3052 27.7545 23.2131 27.4494 23.1507 27.1365C23.0883 26.822 23.0571 26.506 23.0571 26.1854C23.0571 25.8662 23.0883 25.5486 23.1507 25.2358C23.2131 24.9213 23.3052 24.6178 23.4284 24.322C23.5517 24.0262 23.7014 23.746 23.8792 23.4798C24.057 23.2136 24.2598 22.9676 24.486 22.7419C24.7138 22.5146 24.9602 22.3138 25.227 22.1364C25.4922 21.9573 25.7745 21.8079 26.0709 21.6849C26.3657 21.5635 26.6714 21.4701 26.9866 21.4079C27.3002 21.3456 27.6183 21.3145 27.9382 21.3145C28.2579 21.316 28.5762 21.3471 28.8897 21.4109C29.2032 21.4732 29.509 21.5666 29.8038 21.688C30.1002 21.811 30.381 21.962 30.6477 22.1395C30.9128 22.317 31.1594 22.5193 31.3871 22.7451C31.6132 22.9708 31.8145 23.2167 31.9939 23.4829C32.1717 23.7475 32.3215 24.0278 32.4447 24.3235C32.568 24.6193 32.6599 24.9229 32.724 25.2358C32.7864 25.5502 32.8191 25.8662 32.8191 26.1854Z" fill="white"/>
<path d="M36.352 35.1362C36.3817 35.3168 36.3349 35.4741 36.2116 35.608C35.9511 35.8975 35.6766 36.1715 35.388 36.4314C35.0994 36.6914 34.7984 36.9358 34.4833 37.1631C34.1681 37.3919 33.8437 37.6037 33.5068 37.7982C33.1698 37.9928 32.8235 38.1687 32.4678 38.326C32.1137 38.4847 31.7503 38.6232 31.3806 38.7447C31.0109 38.8645 30.6365 38.9641 30.2559 39.0451C29.8752 39.1261 29.4915 39.1867 29.1047 39.2289C28.7178 39.2692 28.3294 39.2895 27.941 39.2895C27.551 39.2895 27.1641 39.2692 26.7773 39.2289C26.3904 39.1884 26.0067 39.1276 25.6261 39.0467C25.2454 38.9673 24.8695 38.8661 24.4999 38.7462C24.1301 38.6264 23.7682 38.4878 23.4126 38.329C23.0569 38.1718 22.7106 37.996 22.3737 37.8013C22.0368 37.6083 21.7107 37.3965 21.3971 37.1677C21.082 36.9405 20.7794 36.6961 20.4908 36.4361C20.2023 36.1761 19.9277 35.9022 19.6672 35.6142C19.5502 35.4803 19.5034 35.3246 19.5269 35.1471C19.6141 34.6007 19.7733 34.073 20.0042 33.5686C20.2335 33.0627 20.5267 32.5973 20.8824 32.1707C21.2381 31.7442 21.6436 31.3722 22.1007 31.0546C22.5562 30.737 23.046 30.4848 23.5701 30.2996C23.7105 30.4475 23.8572 30.5892 24.0115 30.7214C24.166 30.8553 24.3267 30.9815 24.4935 31.0981C24.6605 31.2149 24.8321 31.3239 25.0114 31.4235C25.1893 31.5216 25.3718 31.6119 25.559 31.6929C25.7462 31.7738 25.9381 31.8454 26.1315 31.9061C26.3265 31.9684 26.5246 32.0197 26.7243 32.0602C26.9239 32.1022 27.1252 32.1334 27.3279 32.1536C27.5322 32.1739 27.7351 32.1848 27.9394 32.1848C28.1437 32.1848 28.3465 32.1739 28.5509 32.1536C28.7537 32.1334 28.9549 32.1022 29.1546 32.0602C29.3543 32.0197 29.5524 31.9684 29.7474 31.9061C29.9408 31.8454 30.1327 31.7738 30.3198 31.6929C30.507 31.6119 30.6895 31.5216 30.8674 31.4235C31.0467 31.3239 31.2183 31.2149 31.3852 31.0981C31.5522 30.9815 31.7129 30.8553 31.8672 30.7214C32.0217 30.5892 32.1684 30.4475 32.3088 30.2996C32.8313 30.4864 33.3211 30.737 33.775 31.0546C34.2305 31.3706 34.6361 31.7426 34.9918 32.1677C35.3475 32.5926 35.6407 33.058 35.8716 33.5609C36.1024 34.0653 36.2616 34.5898 36.352 35.1362Z" fill="white"/>
</g>
</g>
</g>
<defs>
<clipPath id="clip0_1_5063">
<rect width="54.09" height="55" fill="white" transform="translate(0.950195 0.5)"/>
</clipPath>
<clipPath id="clip1_1_5063">
<rect width="54.09" height="55" fill="white" transform="translate(0.950195 0.5)"/>
</clipPath>
<clipPath id="clip2_1_5063">
<rect width="54.0984" height="55" fill="white" transform="translate(0.945801 0.5)"/>
</clipPath>
</defs>
</svg>
