<svg width="56" height="55" viewBox="0 0 56 55" fill="none" xmlns="http://www.w3.org/2000/svg">
<g clip-path="url(#clip0_1_5063)">
<g clip-path="url(#clip1_1_5063)">
<g clip-path="url(#clip2_1_5063)">
<path d="M27.9384 12.9717C27.4564 12.9717 26.9743 12.995 26.4939 13.0434C26.0135 13.0901 25.5361 13.16 25.0635 13.2534C24.5892 13.3485 24.1228 13.4651 23.6595 13.6053C23.1978 13.7438 22.7438 13.9058 22.2977 14.091C21.8532 14.2746 21.4164 14.4801 20.9905 14.7074C20.5647 14.9347 20.1513 15.1822 19.7504 15.45C19.3495 15.7162 18.9611 16.0042 18.5883 16.3093C18.2155 16.6144 17.8582 16.9382 17.5166 17.2775C17.175 17.6185 16.8521 17.975 16.5448 18.347C16.2391 18.7191 15.952 19.1067 15.6837 19.5068C15.4154 19.9068 15.1674 20.3193 14.9396 20.7444C14.7119 21.1693 14.506 21.6036 14.3219 22.0488C14.1363 22.4941 13.974 22.9471 13.8337 23.4078C13.6948 23.8686 13.5762 24.3356 13.4827 24.8073C13.3891 25.2805 13.3173 25.7568 13.2705 26.2348C13.2237 26.7143 13.1987 27.1953 13.1987 27.6779C13.1987 28.1589 13.2222 28.6399 13.2705 29.1193C13.3173 29.5973 13.3875 30.0736 13.4827 30.5468C13.5762 31.0185 13.6933 31.4855 13.8337 31.9463C13.974 32.4071 14.1363 32.8601 14.3204 33.3053C14.506 33.7505 14.7119 34.1848 14.9396 34.6099C15.1674 35.0348 15.4139 35.4473 15.6821 35.8474C15.9504 36.249 16.2374 36.6351 16.5448 37.0071C16.8505 37.3791 17.1734 37.7357 17.5151 38.0766C17.8567 38.4175 18.2139 38.7397 18.5867 39.0464C18.9595 39.3515 19.3479 39.6379 19.7489 39.9057C20.1497 40.1734 20.5631 40.421 20.989 40.6482C21.4148 40.874 21.8501 41.081 22.2962 41.2647C22.7423 41.4484 23.1963 41.6103 23.658 41.7504C24.1197 41.8905 24.5877 42.0073 25.0619 42.1022C25.5345 42.1956 26.0119 42.2657 26.4923 42.3139C26.9728 42.3606 27.4533 42.384 27.9368 42.384C28.4189 42.384 28.9009 42.3606 29.3813 42.3124C29.8617 42.2657 30.3375 42.1956 30.8117 42.1007C31.2844 42.0073 31.7524 41.8905 32.2141 41.7504C32.6759 41.6103 33.1297 41.4484 33.5759 41.2647C34.022 41.0795 34.4572 40.874 34.8831 40.6467C35.309 40.4194 35.7223 40.1719 36.1233 39.9042C36.5257 39.6364 36.9126 39.3499 37.2854 39.0448C37.6582 38.7397 38.0155 38.4159 38.357 38.075C38.6986 37.7341 39.0216 37.3776 39.3289 37.0056C39.6346 36.6335 39.9216 36.2475 40.1899 35.8458C40.4583 35.4458 40.7047 35.0333 40.9324 34.6082C41.1602 34.1833 41.3661 33.749 41.5518 33.3037C41.7358 32.8585 41.898 32.4055 42.0384 31.9448C42.1772 31.484 42.2958 31.017 42.3894 30.5437C42.483 30.0721 42.5532 29.5957 42.6015 29.1163C42.6483 28.6368 42.6718 28.1573 42.6718 27.6747C42.6718 27.1937 42.6468 26.7143 42.6 26.2348C42.5516 25.7553 42.4799 25.2805 42.3862 24.8073C42.2911 24.3356 42.1742 23.8702 42.0337 23.4094C41.8933 22.9486 41.7311 22.4956 41.5455 22.0504C41.3614 21.6067 41.1555 21.1724 40.9277 20.7474C40.7 20.3225 40.452 19.9099 40.1837 19.5098C39.9154 19.1098 39.6284 18.7237 39.3226 18.3517C39.0169 17.9797 38.6924 17.6231 38.3524 17.2838C38.0108 16.9429 37.6535 16.6191 37.2807 16.314C36.9079 16.0089 36.521 15.7224 36.1201 15.4546C35.7192 15.1869 35.3058 14.9394 34.88 14.7121C34.4557 14.4863 34.0205 14.2793 33.5743 14.0957C33.1282 13.9104 32.6742 13.7485 32.2141 13.6084C31.7524 13.4683 31.2844 13.3515 30.8117 13.2566C30.3391 13.1632 29.8617 13.0916 29.3813 13.0449C28.9024 12.9967 28.4204 12.9733 27.9384 12.9717ZM36.2106 35.1049C35.9236 35.4239 35.6178 35.7245 35.2949 36.0078C34.9736 36.2911 34.6351 36.5541 34.2826 36.7986C33.93 37.0429 33.5634 37.2655 33.1844 37.4663C32.8069 37.6688 32.4169 37.8477 32.0176 38.005C31.6182 38.1622 31.2111 38.2945 30.7961 38.405C30.3796 38.514 29.96 38.5996 29.5357 38.6619C29.1099 38.7226 28.6825 38.76 28.2535 38.7709C27.8245 38.7834 27.3955 38.7709 26.9681 38.7335C26.5407 38.6946 26.1164 38.6339 25.6952 38.5467C25.2756 38.4595 24.8607 38.349 24.4535 38.2151C24.0464 38.0813 23.647 37.924 23.2571 37.7435C22.8686 37.5629 22.4912 37.3605 22.1246 37.1363C21.758 36.9122 21.407 36.6678 21.0685 36.4031C20.7316 36.1385 20.4102 35.8552 20.1045 35.5532C19.8004 35.2512 19.5133 34.9321 19.2466 34.5974C18.9782 34.2627 18.7302 33.914 18.5024 33.5497C18.2763 33.187 18.0704 32.8118 17.8863 32.4242C17.7022 32.0366 17.5416 31.6397 17.4043 31.2349C17.2655 30.8286 17.1516 30.4161 17.0627 29.9973C16.9722 29.5786 16.9067 29.1551 16.8661 28.7286C16.8256 28.3021 16.8084 27.874 16.8177 27.4459C16.8256 27.0178 16.8599 26.5913 16.9176 26.1663C16.9753 25.7413 17.058 25.3225 17.1656 24.9069C17.2717 24.4928 17.4027 24.085 17.5556 23.685C17.71 23.2848 17.8879 22.8941 18.086 22.5158C18.2856 22.136 18.5056 21.7686 18.749 21.4153C18.9907 21.0603 19.2513 20.721 19.532 20.3971C19.8143 20.0734 20.1123 19.7667 20.429 19.4772C20.7456 19.1892 21.0794 18.9183 21.4273 18.6677C21.7751 18.417 22.137 18.1867 22.5114 17.9765C22.8859 17.7679 23.2711 17.5811 23.6673 17.4161C24.0651 17.251 24.4691 17.111 24.8825 16.9926C25.2943 16.8743 25.7124 16.7809 26.1367 16.7109C26.5609 16.6424 26.9869 16.5973 27.4158 16.5771C27.8448 16.5568 28.2738 16.5599 28.7012 16.5895C29.1302 16.6191 29.556 16.672 29.9772 16.7514C30.3999 16.8293 30.8164 16.932 31.2266 17.0581C31.6369 17.1841 32.0379 17.3335 32.431 17.5064C32.824 17.6791 33.2062 17.8738 33.5759 18.0917C33.9472 18.3081 34.3029 18.5447 34.646 18.8031C34.9892 19.0615 35.3152 19.3386 35.6257 19.6343C35.9376 19.9302 36.2293 20.243 36.5039 20.573C36.7784 20.9015 37.0327 21.2471 37.2666 21.6051C37.5022 21.9647 37.7143 22.3353 37.9062 22.7198C38.098 23.1027 38.2666 23.4965 38.4116 23.8997C38.5582 24.3029 38.68 24.7124 38.7782 25.1296C38.8765 25.5468 38.9498 25.9686 38.9997 26.3936C39.0481 26.8201 39.0731 27.2466 39.0731 27.6747C39.0715 28.355 39.0091 29.0291 38.8843 29.6984C38.7595 30.3663 38.5755 31.0185 38.3305 31.6536C38.0856 32.2872 37.7845 32.8943 37.4288 33.475C37.0732 34.0541 36.6661 34.5974 36.2106 35.1033V35.1049Z" fill="#0575AD"/>
<path d="M27.9385 14.0894C27.8636 14.0894 27.7919 14.0753 27.7232 14.0457C27.6546 14.0178 27.5937 13.9773 27.5407 13.9244C27.4877 13.8714 27.4471 13.8107 27.4191 13.7422C27.3909 13.6737 27.377 13.6021 27.377 13.5274V6.39146C27.377 6.31674 27.3909 6.24513 27.4191 6.17664C27.4471 6.10815 27.4877 6.04743 27.5407 5.9945C27.5937 5.94158 27.6546 5.9011 27.7232 5.87308C27.7919 5.84506 27.8636 5.83105 27.9385 5.83105C28.0133 5.83105 28.0851 5.84506 28.1537 5.87308C28.2224 5.9011 28.2832 5.94158 28.3363 5.9945C28.3893 6.04743 28.4299 6.10815 28.4579 6.17664C28.486 6.24513 28.5 6.31674 28.5 6.39146V13.5274C28.5 13.6021 28.486 13.6737 28.4579 13.7422C28.4299 13.8107 28.3893 13.8714 28.3363 13.9244C28.2832 13.9773 28.2224 14.0178 28.1537 14.0457C28.0851 14.0753 28.0133 14.0894 27.9385 14.0894Z" fill="#0575AD"/>
<path d="M27.9385 49.52C27.8636 49.52 27.7919 49.506 27.7232 49.478C27.6546 49.4484 27.5937 49.4079 27.5407 49.355C27.4877 49.3036 27.4471 49.2429 27.4191 49.1744C27.3909 49.1044 27.377 49.0328 27.377 48.9596V41.8222C27.377 41.7474 27.3909 41.6758 27.4191 41.6073C27.4471 41.5389 27.4877 41.4781 27.5407 41.4252C27.5937 41.3723 27.6546 41.3318 27.7232 41.3038C27.7919 41.2758 27.8636 41.2617 27.9385 41.2617C28.0133 41.2617 28.0851 41.2758 28.1537 41.3038C28.2224 41.3318 28.2832 41.3723 28.3363 41.4252C28.3893 41.4781 28.4299 41.5389 28.4579 41.6073C28.486 41.6758 28.5 41.7474 28.5 41.8222V48.9596C28.5 49.0328 28.486 49.1044 28.4579 49.1744C28.4299 49.2429 28.3893 49.3036 28.3363 49.355C28.2832 49.4079 28.2224 49.4484 28.1537 49.478C28.0851 49.506 28.0133 49.52 27.9385 49.52Z" fill="#0575AD"/>
<path d="M37.9635 18.2349C37.8496 18.2349 37.7451 18.2022 37.65 18.1399C37.5563 18.0761 37.4862 17.992 37.4441 17.8877C37.4004 17.7834 37.3895 17.6745 37.4114 17.5639C37.4332 17.4519 37.4847 17.3569 37.5657 17.276L42.6214 12.2307C42.6745 12.1762 42.7353 12.1342 42.804 12.1046C42.8741 12.075 42.9459 12.0594 43.0207 12.0594C43.0972 12.0579 43.169 12.0719 43.2391 12.0999C43.3093 12.1295 43.3702 12.17 43.4232 12.2229C43.4778 12.2758 43.5183 12.3381 43.5465 12.4082C43.5745 12.4766 43.5886 12.5498 43.5886 12.6246C43.5886 12.7009 43.573 12.7725 43.5433 12.8409C43.5137 12.9109 43.4715 12.9717 43.417 13.023L38.3597 18.0699C38.2505 18.1789 38.118 18.2349 37.9635 18.2349Z" fill="#0575AD"/>
<path d="M12.857 43.2884C12.7447 43.2884 12.6402 43.2573 12.5451 43.1935C12.4515 43.1312 12.3813 43.0472 12.3376 42.9428C12.2955 42.837 12.2845 42.7296 12.3064 42.6175C12.3282 42.507 12.3797 42.4105 12.4608 42.3311L17.5165 37.2842C17.5696 37.2329 17.6303 37.194 17.699 37.1659C17.7676 37.1395 17.8378 37.1255 17.9127 37.1271C17.986 37.1271 18.0563 37.1411 18.1249 37.1706C18.1935 37.1987 18.2527 37.2392 18.3058 37.2905C18.3573 37.3434 18.3978 37.4025 18.4259 37.4711C18.454 37.538 18.4696 37.6096 18.4696 37.6828C18.4712 37.756 18.4571 37.8276 18.429 37.8961C18.4025 37.9645 18.3635 38.0253 18.3121 38.0782L13.2549 43.1234C13.1457 43.234 13.013 43.2884 12.857 43.2884Z" fill="#0575AD"/>
<path d="M49.2634 28.2366H42.1128C42.0395 28.2366 41.9677 28.2226 41.8975 28.193C41.8289 28.165 41.768 28.1245 41.715 28.0716C41.6635 28.0187 41.623 27.9579 41.5934 27.8895C41.5652 27.821 41.5513 27.7494 41.5513 27.6746C41.5513 27.6015 41.5652 27.5298 41.5934 27.4599C41.623 27.3913 41.6635 27.3307 41.715 27.2777C41.768 27.2263 41.8289 27.1858 41.8975 27.1563C41.9677 27.1282 42.0395 27.1143 42.1128 27.1143H49.2634C49.3383 27.1143 49.41 27.1282 49.4787 27.1563C49.5489 27.1858 49.6098 27.2263 49.6612 27.2777C49.7143 27.3307 49.7548 27.3913 49.7829 27.4599C49.8125 27.5298 49.8266 27.6015 49.8266 27.6746C49.8266 27.7494 49.8125 27.821 49.7829 27.8895C49.7548 27.9579 49.7143 28.0187 49.6612 28.0716C49.6098 28.1245 49.5489 28.165 49.4787 28.193C49.41 28.2226 49.3383 28.2366 49.2634 28.2366Z" fill="#0575AD"/>
<path d="M13.7596 28.2366H6.60903C6.53415 28.2366 6.46239 28.2226 6.39376 28.193C6.32357 28.165 6.26272 28.1245 6.21125 28.0716C6.15822 28.0187 6.11765 27.9579 6.08957 27.8895C6.05994 27.821 6.0459 27.7494 6.0459 27.6746C6.0459 27.6015 6.05994 27.5298 6.08957 27.4599C6.11765 27.3913 6.15822 27.3307 6.21125 27.2777C6.26272 27.2263 6.32357 27.1858 6.39376 27.1563C6.46239 27.1282 6.53415 27.1143 6.60903 27.1143H13.7596C13.8346 27.1143 13.9063 27.1282 13.975 27.1563C14.0451 27.1858 14.106 27.2263 14.1575 27.2777C14.2105 27.3307 14.251 27.3913 14.2791 27.4599C14.3087 27.5298 14.3228 27.6015 14.3228 27.6746C14.3228 27.7494 14.3087 27.821 14.2791 27.8895C14.251 27.9579 14.2105 28.0187 14.1575 28.0716C14.106 28.1245 14.0451 28.165 13.975 28.193C13.9063 28.2226 13.8346 28.2366 13.7596 28.2366Z" fill="#0575AD"/>
<path d="M43.0149 43.2884C42.8589 43.2884 42.7263 43.234 42.6172 43.1234L37.5599 38.0782C37.51 38.0253 37.4694 37.9645 37.4429 37.8961C37.4148 37.8276 37.4023 37.756 37.4023 37.6828C37.4039 37.6096 37.4179 37.538 37.446 37.4711C37.4756 37.4025 37.5147 37.3434 37.5677 37.2905C37.6192 37.2392 37.68 37.1987 37.747 37.1706C37.8157 37.1411 37.8859 37.1271 37.9608 37.1271C38.0341 37.1255 38.1043 37.1395 38.173 37.1659C38.2416 37.194 38.3024 37.2329 38.3555 37.2842L43.4127 42.3311C43.4922 42.4105 43.5437 42.507 43.5656 42.6175C43.5889 42.7296 43.578 42.837 43.5344 42.9428C43.4907 43.0472 43.422 43.1312 43.3269 43.1935C43.2332 43.2573 43.1287 43.2884 43.0149 43.2884Z" fill="#0575AD"/>
<path d="M47.0246 42.3311C47.1697 42.4744 47.2991 42.6316 47.413 42.8013C47.5254 42.9709 47.6221 43.15 47.7001 43.3383C47.7781 43.5267 47.8373 43.7212 47.8779 43.922C47.9168 44.1213 47.9371 44.3237 47.9371 44.5277C47.9371 44.7315 47.9168 44.9339 47.8779 45.1347C47.8373 45.334 47.7781 45.5286 47.7001 45.7169C47.6221 45.9053 47.5254 46.0843 47.413 46.254C47.2991 46.4237 47.1697 46.5809 47.0246 46.7257C46.8811 46.8689 46.7235 46.9981 46.5535 47.1118C46.3835 47.2254 46.2041 47.3203 46.0154 47.3982C45.8266 47.4776 45.6316 47.5352 45.4304 47.5756C45.2307 47.6161 45.0279 47.6348 44.8236 47.6348C44.6192 47.6348 44.4164 47.6161 44.2168 47.5756C44.0155 47.5352 43.8205 47.4776 43.6318 47.3982C43.4431 47.3203 43.2637 47.2254 43.0936 47.1118C42.9236 46.9981 42.7661 46.8689 42.621 46.7257C42.4774 46.5809 42.348 46.4237 42.2341 46.254C42.1202 46.0843 42.0251 45.9053 41.9471 45.7169C41.8691 45.5286 41.8099 45.334 41.7693 45.1347C41.7302 44.9339 41.71 44.7315 41.71 44.5277C41.71 44.3237 41.7302 44.1213 41.7693 43.922C41.8099 43.7212 41.8691 43.5267 41.9471 43.3383C42.0251 43.15 42.1218 42.9709 42.2341 42.8013C42.348 42.6316 42.4774 42.4744 42.6225 42.3311C42.7661 42.1864 42.9236 42.0587 43.0936 41.9451C43.2637 41.833 43.4431 41.7364 43.6333 41.6586C43.8221 41.5824 44.0155 41.5232 44.2168 41.4827C44.4164 41.4438 44.6192 41.4236 44.8236 41.4236C45.0279 41.4236 45.2307 41.4438 45.4304 41.4827C45.6316 41.5232 45.825 41.5824 46.0138 41.6586C46.2026 41.7364 46.3819 41.833 46.5535 41.9451C46.7235 42.0587 46.8795 42.1864 47.0246 42.3311Z" fill="#0575AD"/>
<path d="M7.17141 27.6778C7.17141 27.8817 7.15113 28.0841 7.11057 28.2834C7.07001 28.4842 7.0123 28.6772 6.93274 28.8656C6.85475 29.0539 6.75959 29.2329 6.64572 29.4026C6.53184 29.5723 6.40237 29.7295 6.25886 29.8727C6.11379 30.0175 5.95624 30.1452 5.78621 30.2588C5.61618 30.3725 5.43679 30.4674 5.24804 30.5452C5.05929 30.6231 4.8643 30.6822 4.66463 30.7212C4.46496 30.7616 4.26217 30.7818 4.05783 30.7818C3.85348 30.7818 3.65069 30.7616 3.45101 30.7212C3.24979 30.6822 3.05636 30.6231 2.86761 30.5452C2.67886 30.4674 2.49947 30.3709 2.32944 30.2573C2.15941 30.1452 2.00186 30.016 1.85835 29.8712C1.71328 29.728 1.5838 29.5708 1.46993 29.4011C1.35762 29.2314 1.2609 29.0524 1.18291 28.8641C1.10491 28.6756 1.04563 28.481 1.00664 28.2818C0.966079 28.0825 0.945801 27.8802 0.945801 27.6762C0.945801 27.4723 0.966079 27.27 1.00508 27.0707C1.04563 26.8699 1.10491 26.6769 1.18291 26.4885C1.2609 26.3002 1.35606 26.1211 1.46993 25.9514C1.58224 25.7817 1.71172 25.6246 1.85679 25.4797C2.0003 25.3366 2.15785 25.2074 2.32788 25.0937C2.49791 24.9801 2.6773 24.8851 2.86449 24.8057C3.05324 24.7279 3.24823 24.6687 3.44945 24.6298C3.64913 24.5893 3.85192 24.5691 4.05627 24.5691C4.26061 24.5691 4.4634 24.5893 4.66307 24.6298C4.8643 24.6687 5.05929 24.7279 5.24804 24.8057C5.43679 24.8851 5.61618 24.9801 5.78621 25.0937C5.95624 25.2074 6.11379 25.3366 6.2573 25.4797C6.40237 25.6246 6.53184 25.7817 6.64572 25.9514C6.75959 26.1211 6.85475 26.3002 6.93274 26.4885C7.0123 26.6769 7.07157 26.8714 7.11057 27.0722C7.15113 27.2715 7.17141 27.4739 7.17141 27.6778Z" fill="#0575AD"/>
<path d="M13.2507 8.62541C13.3943 8.77019 13.5222 8.92586 13.6361 9.09554C13.7483 9.26523 13.8435 9.4442 13.9215 9.63264C13.9995 9.81937 14.0572 10.0139 14.0978 10.2132C14.1368 10.4125 14.1555 10.6149 14.1555 10.8172C14.1555 11.0212 14.1352 11.222 14.0947 11.4228C14.0557 11.622 13.9964 11.8151 13.9184 12.0034C13.8404 12.1902 13.7436 12.3693 13.6314 12.539C13.5175 12.7071 13.388 12.8643 13.2445 13.0075C13.0994 13.1508 12.9434 13.28 12.7734 13.392C12.6034 13.5056 12.4255 13.6007 12.2368 13.6785C12.048 13.7563 11.8546 13.8154 11.655 13.8544C11.4553 13.8949 11.2525 13.9135 11.0482 13.9135C10.8454 13.9135 10.6425 13.8949 10.4429 13.8544C10.2432 13.8154 10.0498 13.7563 9.86107 13.6785C9.67232 13.6007 9.49293 13.5056 9.32446 13.392C9.15443 13.28 8.99844 13.1508 8.85336 13.0075C8.70986 12.8643 8.58038 12.7071 8.46651 12.539C8.3542 12.3693 8.25748 12.1902 8.17949 12.0034C8.10149 11.8151 8.04221 11.622 8.00166 11.4228C7.96266 11.222 7.94238 11.0212 7.94238 10.8172C7.94238 10.6149 7.9611 10.4125 8.0001 10.2132C8.04065 10.0139 8.09837 9.81937 8.17637 9.63264C8.25436 9.4442 8.34952 9.26523 8.46183 9.09554C8.5757 8.92586 8.70362 8.77019 8.84712 8.62541C8.9922 8.4822 9.14975 8.35299 9.31978 8.23936C9.48981 8.12728 9.6692 8.03076 9.85795 7.95293C10.0467 7.87509 10.2417 7.81593 10.4414 7.77702C10.6425 7.73654 10.8438 7.71631 11.0482 7.71631C11.2525 7.71631 11.4553 7.73654 11.6565 7.77702C11.8562 7.81593 12.0512 7.87509 12.2399 7.95293C12.4287 8.03076 12.608 8.12728 12.7781 8.23936C12.9481 8.35299 13.1056 8.4822 13.2507 8.62541Z" fill="#0575AD"/>
<path d="M13.2513 42.331C13.3947 42.4742 13.5242 42.6314 13.6381 42.8011C13.7519 42.9708 13.8472 43.1498 13.9267 43.3381C14.0047 43.5265 14.064 43.7211 14.1029 43.9219C14.1435 44.1212 14.1638 44.3235 14.1638 44.5275C14.1638 44.7314 14.1435 44.9338 14.1029 45.1346C14.064 45.3338 14.0047 45.5284 13.9267 45.7167C13.8472 45.9052 13.7519 46.0842 13.6381 46.2539C13.5242 46.4235 13.3963 46.5808 13.2513 46.7255C13.1062 46.8688 12.9486 46.998 12.7786 47.1116C12.6086 47.2252 12.4291 47.3202 12.2404 47.398C12.0516 47.4774 11.8567 47.535 11.657 47.5755C11.4558 47.616 11.2546 47.6346 11.0486 47.6346C10.8443 47.6346 10.6431 47.616 10.4418 47.5755C10.2406 47.535 10.0472 47.4774 9.85844 47.398C9.66813 47.3202 9.48874 47.2252 9.31871 47.1116C9.14867 46.998 8.99268 46.8688 8.84761 46.7255C8.70253 46.5808 8.57463 46.4235 8.46075 46.2539C8.34688 46.0842 8.25016 45.9052 8.17217 45.7167C8.09417 45.5284 8.0349 45.3338 7.9959 45.1346C7.95534 44.9338 7.93506 44.7314 7.93506 44.5275C7.93506 44.3235 7.95534 44.1212 7.9959 43.9219C8.0349 43.7211 8.09417 43.5265 8.17217 43.3381C8.25172 43.1498 8.34688 42.9708 8.46075 42.8011C8.57463 42.6314 8.70253 42.4742 8.84761 42.331C8.99268 42.1862 9.15023 42.057 9.32027 41.9449C9.4903 41.8312 9.66969 41.7363 9.85844 41.6585C10.0472 41.5791 10.2421 41.5215 10.4418 41.481C10.6431 41.4421 10.8443 41.4219 11.0486 41.4219C11.253 41.4219 11.4558 41.4421 11.657 41.481C11.8567 41.5215 12.0516 41.5791 12.2404 41.6585C12.4291 41.7363 12.6086 41.8312 12.7786 41.9449C12.9486 42.057 13.1062 42.1862 13.2513 42.331Z" fill="#0575AD"/>
<mask id="mask0_1_5063" style="mask-type:luminance" maskUnits="userSpaceOnUse" x="48" y="24" width="8" height="7">
<path d="M48.354 24.2031H55.0429V30.9779H48.354V24.2031Z" fill="white"/>
</mask>
<g mask="url(#mask0_1_5063)">
<path d="M54.931 27.6778C54.931 27.8817 54.9107 28.0841 54.8718 28.2849C54.8312 28.4842 54.7719 28.6788 54.6939 28.8671C54.6159 29.057 54.5192 29.2361 54.4054 29.4058C54.2915 29.5754 54.1635 29.7327 54.0185 29.8759C53.8734 30.0207 53.7159 30.1499 53.5458 30.2635C53.3758 30.3771 53.1963 30.4721 53.0076 30.5499C52.8189 30.6277 52.6239 30.6869 52.4226 30.7274C52.223 30.7663 52.0202 30.7865 51.8158 30.7865C51.6115 30.7865 51.4088 30.7663 51.2075 30.7274C51.0063 30.6869 50.8129 30.6277 50.6225 30.5499C50.4338 30.4721 50.2544 30.3771 50.0843 30.2635C49.9143 30.1499 49.7568 30.0207 49.6132 29.8759C49.4682 29.7327 49.3387 29.5754 49.2249 29.4058C49.111 29.2361 49.0158 29.057 48.9378 28.8671C48.8583 28.6788 48.8006 28.4842 48.76 28.2849C48.7194 28.0841 48.7007 27.8817 48.7007 27.6778C48.7007 27.4739 48.7194 27.2715 48.76 27.0707C48.8006 26.8714 48.8583 26.6769 48.9378 26.4885C49.0158 26.3002 49.111 26.1211 49.2249 25.9514C49.3387 25.7817 49.4682 25.6246 49.6132 25.4797C49.7568 25.3349 49.9143 25.2057 50.0843 25.0937C50.2544 24.9801 50.4338 24.8835 50.6225 24.8057C50.8129 24.7279 51.0063 24.6687 51.2075 24.6282C51.4088 24.5893 51.6115 24.5691 51.8158 24.5691C52.0202 24.5691 52.223 24.5893 52.4226 24.6298C52.6239 24.6687 52.8189 24.7279 53.0076 24.8057C53.1963 24.8851 53.3758 24.9801 53.5458 25.0937C53.7159 25.2074 53.8734 25.3366 54.0185 25.4797C54.162 25.6246 54.2915 25.7817 54.4054 25.9514C54.5192 26.1211 54.6144 26.3002 54.6923 26.4885C54.7719 26.6769 54.8312 26.8714 54.8701 27.0722C54.9107 27.2715 54.931 27.4739 54.931 27.6778Z" fill="#0575AD"/>
</g>
<mask id="mask1_1_5063" style="mask-type:luminance" maskUnits="userSpaceOnUse" x="24" y="48" width="8" height="7">
<path d="M24.7935 48.1143H31.1828V54.8361H24.7935V48.1143Z" fill="white"/>
</mask>
<g mask="url(#mask1_1_5063)">
<path d="M31.0507 51.5062C31.0492 51.7102 31.0305 51.9125 30.99 52.1118C30.9494 52.3126 30.8901 52.5056 30.8121 52.694C30.7341 52.8824 30.6374 53.0614 30.5236 53.2311C30.4097 53.4007 30.2817 53.558 30.1367 53.7012C29.9916 53.846 29.8341 53.9736 29.664 54.0873C29.494 54.2009 29.3146 54.2958 29.1258 54.3737C28.9371 54.4515 28.7421 54.5107 28.5425 54.5496C28.3412 54.59 28.1384 54.6103 27.934 54.6088C27.7297 54.6088 27.5285 54.5885 27.3272 54.5496C27.1276 54.5091 26.9326 54.45 26.7439 54.3721C26.5551 54.2943 26.3757 54.1978 26.2057 54.0841C26.0356 53.9705 25.8797 53.8413 25.7346 53.698C25.5895 53.5533 25.4616 53.3961 25.3478 53.2264C25.2339 53.0567 25.1387 52.8777 25.0607 52.6894C24.9827 52.501 24.9235 52.3063 24.8844 52.1071C24.8439 51.9063 24.8252 51.704 24.8252 51.5C24.8252 51.296 24.8455 51.0937 24.886 50.8945C24.925 50.6952 24.9842 50.5006 25.0622 50.3123C25.1419 50.1239 25.237 49.9449 25.3509 49.7752C25.4647 49.6055 25.5942 49.4482 25.7393 49.3051C25.8828 49.1602 26.0403 49.0327 26.2104 48.919C26.3804 48.8054 26.5598 48.7104 26.7486 48.6326C26.9373 48.5547 27.1323 48.4956 27.3336 48.4567C27.5332 48.4162 27.736 48.3975 27.9404 48.3975C28.1447 48.3975 28.3474 48.4177 28.5472 48.4582C28.7468 48.4987 28.9418 48.5579 29.1305 48.6357C29.3192 48.7135 29.4987 48.8101 29.6672 48.9237C29.8371 49.0373 29.9947 49.1665 30.1382 49.3097C30.2833 49.4545 30.4127 49.6117 30.5251 49.7814C30.639 49.9511 30.7341 50.1301 30.8121 50.3185C30.8917 50.5068 30.9494 50.6999 30.99 50.9007C31.0305 51.0999 31.0492 51.3023 31.0507 51.5062Z" fill="#0575AD"/>
</g>
<path d="M47.0246 8.62541C47.1697 8.77019 47.2991 8.92742 47.413 9.09707C47.5254 9.26676 47.6221 9.44582 47.7001 9.63418C47.7781 9.82253 47.8373 10.0171 47.8779 10.2164C47.9168 10.4172 47.9371 10.6196 47.9371 10.8234C47.9371 11.0274 47.9168 11.2298 47.8779 11.4291C47.8373 11.6299 47.7781 11.8229 47.7001 12.0128C47.6221 12.2011 47.5254 12.3802 47.413 12.5498C47.2991 12.7195 47.1697 12.8752 47.0246 13.02C46.8811 13.1647 46.7235 13.2939 46.5535 13.406C46.3835 13.5197 46.2041 13.6162 46.0154 13.694C45.8266 13.7719 45.6316 13.831 45.4304 13.8699C45.2307 13.9104 45.0279 13.9307 44.8236 13.9307C44.6192 13.9307 44.4164 13.9104 44.2168 13.8699C44.0155 13.831 43.8205 13.7719 43.6318 13.694C43.4431 13.6162 43.2637 13.5197 43.0936 13.406C42.9236 13.2939 42.7661 13.1647 42.621 13.02C42.4774 12.8752 42.348 12.7195 42.2341 12.5498C42.1202 12.3802 42.0251 12.2011 41.9471 12.0128C41.8691 11.8229 41.8099 11.6299 41.7693 11.4291C41.7302 11.2298 41.71 11.0274 41.71 10.8234C41.71 10.6196 41.7302 10.4172 41.7693 10.2164C41.8099 10.0171 41.8691 9.82253 41.9471 9.63418C42.0251 9.44582 42.1218 9.26676 42.2341 9.09707C42.348 8.92742 42.4774 8.77019 42.6225 8.62541C42.7661 8.4822 42.9236 8.35299 43.0936 8.23936C43.2637 8.12728 43.4431 8.03076 43.6318 7.95293C43.8205 7.87509 44.0155 7.81593 44.2168 7.77702C44.4164 7.73654 44.6192 7.71631 44.8236 7.71631C45.0279 7.71631 45.2307 7.73654 45.4304 7.77702C45.6316 7.81593 45.8266 7.87509 46.0154 7.95293C46.2041 8.03076 46.3835 8.12728 46.5535 8.23936C46.7235 8.35299 46.8811 8.4822 47.0246 8.62541Z" fill="#0575AD"/>
<mask id="mask2_1_5063" style="mask-type:luminance" maskUnits="userSpaceOnUse" x="24" y="0" width="8" height="8">
<path d="M24.7935 0.737549H31.1828V7.06709H24.7935V0.737549Z" fill="white"/>
</mask>
<g mask="url(#mask2_1_5063)">
<path d="M31.0507 3.84472C31.0507 4.04864 31.0305 4.25102 30.99 4.45028C30.9509 4.65109 30.8917 4.84411 30.8137 5.03248C30.7341 5.2224 30.639 5.40142 30.5251 5.5711C30.4112 5.73922 30.2833 5.89644 30.1382 6.04122C29.9931 6.18599 29.8356 6.31364 29.6656 6.42729C29.4955 6.54092 29.3162 6.63588 29.1274 6.71372C28.9387 6.79311 28.7436 6.8507 28.544 6.89118C28.3428 6.93009 28.1415 6.95034 27.9372 6.95034C27.7329 6.95034 27.53 6.93009 27.3289 6.89118C27.1292 6.8507 26.9341 6.79155 26.7454 6.71372C26.5567 6.63588 26.3773 6.53936 26.2072 6.42573C26.0373 6.31364 25.8797 6.18444 25.7361 6.03966C25.591 5.89489 25.4616 5.73922 25.3493 5.56954C25.2354 5.39986 25.1387 5.21929 25.0607 5.03093C24.9827 4.84256 24.9235 4.64797 24.8844 4.44872C24.8439 4.24791 24.8252 4.04709 24.8252 3.84316C24.8252 3.63924 24.8455 3.43686 24.8844 3.23605C24.925 3.0368 24.9842 2.84221 25.0622 2.65384C25.1403 2.46548 25.237 2.28646 25.3509 2.11678C25.4647 1.9471 25.5942 1.78987 25.7377 1.64666C25.8828 1.50189 26.0403 1.37424 26.2104 1.2606C26.3804 1.14696 26.5598 1.052 26.7486 0.974171C26.9373 0.896332 27.1323 0.837178 27.3336 0.796704C27.5332 0.757786 27.736 0.737549 27.9404 0.737549C28.1447 0.739106 28.3459 0.759342 28.5472 0.799817C28.7468 0.838734 28.9418 0.897889 29.1305 0.977281C29.3177 1.05512 29.4971 1.15007 29.6672 1.26371C29.8371 1.37735 29.9931 1.50656 30.1382 1.64978C30.2817 1.79455 30.4112 1.95177 30.5251 2.12145C30.6374 2.28958 30.7341 2.4686 30.8121 2.65695C30.8901 2.84532 30.9494 3.03991 30.99 3.23916C31.0289 3.43842 31.0492 3.6408 31.0507 3.84472Z" fill="#0575AD"/>
</g>
<path d="M17.91 18.235C17.754 18.235 17.6214 18.1806 17.5122 18.07L12.455 13.0232C12.405 12.9703 12.3644 12.9096 12.3379 12.8426C12.3099 12.7742 12.2974 12.7025 12.2974 12.6294C12.299 12.5562 12.313 12.4846 12.3411 12.4177C12.3708 12.3491 12.4097 12.29 12.4627 12.2371C12.5142 12.1857 12.5751 12.1453 12.6422 12.1172C12.7108 12.0877 12.781 12.0736 12.8558 12.0736C12.9291 12.0721 12.9994 12.086 13.068 12.1126C13.1366 12.1406 13.1975 12.1795 13.2505 12.2308L18.3078 17.2761C18.3873 17.357 18.4388 17.4521 18.4606 17.5641C18.4841 17.6747 18.4731 17.7836 18.4294 17.8879C18.3858 17.9922 18.3171 18.0763 18.2219 18.1401C18.1284 18.2023 18.0239 18.235 17.91 18.235Z" fill="#0575AD"/>
<path d="M32.8191 25.6854C32.8191 26.006 32.7879 26.322 32.7255 26.6365C32.6631 26.9494 32.571 27.2545 32.4478 27.5502C32.3246 27.8461 32.1749 28.1262 31.997 28.3925C31.8192 28.6586 31.6164 28.9046 31.3902 29.1304C31.1625 29.356 30.916 29.5584 30.6493 29.7359C30.384 29.9133 30.1017 30.0644 29.8054 30.1857C29.5105 30.3087 29.2048 30.4006 28.8897 30.4629C28.5762 30.5251 28.2579 30.5562 27.9382 30.5562C27.6183 30.5562 27.3002 30.5251 26.9866 30.4629C26.6714 30.4006 26.3657 30.3087 26.0709 30.1857C25.7745 30.0644 25.4922 29.9133 25.227 29.7359C24.9602 29.5584 24.7138 29.356 24.486 29.1304C24.2598 28.9046 24.057 28.6586 23.8792 28.3925C23.7014 28.1262 23.5517 27.8461 23.4284 27.5502C23.3052 27.2545 23.2131 26.9494 23.1507 26.6365C23.0883 26.322 23.0571 26.006 23.0571 25.6854C23.0571 25.3662 23.0883 25.0486 23.1507 24.7358C23.2131 24.4213 23.3052 24.1178 23.4284 23.822C23.5517 23.5262 23.7014 23.246 23.8792 22.9798C24.057 22.7136 24.2598 22.4676 24.486 22.2419C24.7138 22.0146 24.9602 21.8138 25.227 21.6364C25.4922 21.4573 25.7745 21.3079 26.0709 21.1849C26.3657 21.0635 26.6714 20.9701 26.9866 20.9079C27.3002 20.8456 27.6183 20.8145 27.9382 20.8145C28.2579 20.816 28.5762 20.8471 28.8897 20.9109C29.2032 20.9732 29.509 21.0666 29.8038 21.188C30.1002 21.311 30.381 21.462 30.6477 21.6395C30.9128 21.817 31.1594 22.0193 31.3871 22.2451C31.6132 22.4708 31.8145 22.7167 31.9939 22.9829C32.1717 23.2475 32.3215 23.5278 32.4447 23.8235C32.568 24.1193 32.6599 24.4229 32.724 24.7358C32.7864 25.0502 32.8191 25.3662 32.8191 25.6854Z" fill="#0575AD"/>
<path d="M36.352 34.6362C36.3817 34.8168 36.3349 34.9741 36.2116 35.108C35.9511 35.3975 35.6766 35.6715 35.388 35.9314C35.0994 36.1914 34.7984 36.4358 34.4833 36.6631C34.1681 36.8919 33.8437 37.1037 33.5068 37.2982C33.1698 37.4928 32.8235 37.6687 32.4678 37.826C32.1137 37.9847 31.7503 38.1232 31.3806 38.2447C31.0109 38.3645 30.6365 38.4641 30.2559 38.5451C29.8752 38.6261 29.4915 38.6867 29.1047 38.7289C28.7178 38.7692 28.3294 38.7895 27.941 38.7895C27.551 38.7895 27.1641 38.7692 26.7773 38.7289C26.3904 38.6884 26.0067 38.6276 25.6261 38.5467C25.2454 38.4673 24.8695 38.3661 24.4999 38.2462C24.1301 38.1264 23.7682 37.9878 23.4126 37.829C23.0569 37.6718 22.7106 37.496 22.3737 37.3013C22.0368 37.1083 21.7107 36.8965 21.3971 36.6677C21.082 36.4405 20.7794 36.1961 20.4908 35.9361C20.2023 35.6761 19.9277 35.4022 19.6672 35.1142C19.5502 34.9803 19.5034 34.8246 19.5269 34.6471C19.6141 34.1007 19.7733 33.573 20.0042 33.0686C20.2335 32.5627 20.5267 32.0973 20.8824 31.6707C21.2381 31.2442 21.6436 30.8722 22.1007 30.5546C22.5562 30.237 23.046 29.9848 23.5701 29.7996C23.7105 29.9475 23.8572 30.0892 24.0115 30.2214C24.166 30.3553 24.3267 30.4815 24.4935 30.5981C24.6605 30.7149 24.8321 30.8239 25.0114 30.9235C25.1893 31.0216 25.3718 31.1119 25.559 31.1929C25.7462 31.2738 25.9381 31.3454 26.1315 31.4061C26.3265 31.4684 26.5246 31.5197 26.7243 31.5602C26.9239 31.6022 27.1252 31.6334 27.3279 31.6536C27.5322 31.6739 27.7351 31.6848 27.9394 31.6848C28.1437 31.6848 28.3465 31.6739 28.5509 31.6536C28.7537 31.6334 28.9549 31.6022 29.1546 31.5602C29.3543 31.5197 29.5524 31.4684 29.7474 31.4061C29.9408 31.3454 30.1327 31.2738 30.3198 31.1929C30.507 31.1119 30.6895 31.0216 30.8674 30.9235C31.0467 30.8239 31.2183 30.7149 31.3852 30.5981C31.5522 30.4815 31.7129 30.3553 31.8672 30.2214C32.0217 30.0892 32.1684 29.9475 32.3088 29.7996C32.8313 29.9864 33.3211 30.237 33.775 30.5546C34.2305 30.8706 34.6361 31.2426 34.9918 31.6677C35.3475 32.0926 35.6407 32.558 35.8716 33.0609C36.1024 33.5653 36.2616 34.0898 36.352 34.6362Z" fill="#0575AD"/>
</g>
</g>
</g>
<defs>
<clipPath id="clip0_1_5063">
<rect width="54.09" height="55" fill="white" transform="translate(0.950195)"/>
</clipPath>
<clipPath id="clip1_1_5063">
<rect width="54.09" height="55" fill="white" transform="translate(0.950195)"/>
</clipPath>
<clipPath id="clip2_1_5063">
<rect width="54.0984" height="55" fill="white" transform="translate(0.945801)"/>
</clipPath>
</defs>
</svg>
