<svg width="56" height="55" viewBox="0 0 56 55" fill="none" xmlns="http://www.w3.org/2000/svg">
<g clip-path="url(#clip0_1_5168)">
<g clip-path="url(#clip1_1_5168)">
<g clip-path="url(#clip2_1_5168)">
<mask id="mask0_1_5168" style="mask-type:luminance" maskUnits="userSpaceOnUse" x="0" y="0" width="56" height="55">
<path d="M0.950684 0.563477H55.049V54.6618H0.950684V0.563477Z" fill="white"/>
</mask>
<g mask="url(#mask0_1_5168)">
<path fill-rule="evenodd" clip-rule="evenodd" d="M41.3606 0.586914C33.8017 0.586914 27.6742 6.69921 27.6742 14.2397C27.6742 21.7803 33.8017 27.8926 41.3606 27.8926C48.9204 27.8926 55.048 21.7803 55.048 14.2397C55.048 6.69921 48.9204 0.586914 41.3606 0.586914ZM41.3606 4.82792C46.5727 4.82792 50.7962 9.0417 50.7962 14.2397C50.7962 19.4378 46.5727 23.6516 41.3606 23.6516C36.1495 23.6516 31.9259 19.4378 31.9259 14.2397C31.9259 9.0417 36.1495 4.82792 41.3606 4.82792ZM44.9299 9.22247C45.3286 9.46438 45.4544 9.98319 45.2117 10.3805C44.9679 10.777 44.4483 10.9033 44.0505 10.6604C43.2491 10.1726 42.2946 9.90835 41.3089 9.89672C40.6381 9.88797 39.7217 10.2601 39.3502 10.8372C38.8218 11.6583 39.1923 12.5764 40.0727 13.0728C41.0174 13.6024 42.0558 13.1574 43.5133 13.9327C44.0602 14.2232 44.5487 14.6935 44.8382 15.1472C46.1739 17.2313 44.7535 19.6827 42.2985 20.1762C42.2448 20.1869 42.2078 20.2316 42.2078 20.2859V21.0156C42.2078 21.482 41.8286 21.8599 41.3606 21.8599C40.8936 21.8599 40.5143 21.482 40.5143 21.0156V20.3054C40.5143 20.2491 40.4734 20.2015 40.4179 20.1937C39.4955 20.0605 38.6122 19.7458 37.7893 19.2668C37.3857 19.0317 37.2492 18.5148 37.4852 18.1125C37.7211 17.7093 38.2388 17.5733 38.6424 17.8084C39.7422 18.4497 41.4932 18.9375 42.707 18.2544C44.0241 17.5169 43.9131 16.0819 42.7158 15.4154C41.7408 14.8722 40.5289 15.3017 39.2216 14.5293C38.1179 13.8774 37.4822 12.9582 37.4208 11.701C37.3915 11.1083 37.6323 10.3854 37.9278 9.92683C38.4581 9.10292 39.4477 8.51804 40.4246 8.31206C40.4773 8.3004 40.5143 8.25571 40.5143 8.20129V7.46289C40.5143 6.99653 40.8936 6.61857 41.3606 6.61857C41.8286 6.61857 42.2078 6.99653 42.2078 7.46289V8.17895C42.2078 8.23531 42.2488 8.28291 42.3044 8.29068C43.2598 8.42865 44.1324 8.73567 44.9299 9.22247ZM47.2825 35.4962C46.9519 35.8266 46.4157 35.8266 46.0852 35.4962C45.7547 35.167 45.7547 34.6316 46.0852 34.3022L49.6535 30.754C49.9958 30.4975 50.4686 30.5324 50.7689 30.8346L54.2447 34.3022C54.5751 34.6326 54.5751 35.167 54.2447 35.4962C53.9141 35.8266 53.3789 35.8266 53.0474 35.4962L51.2047 33.6581C51.1336 33.5871 51.0117 33.6366 51.0117 33.7377V46.3364C51.0117 46.8027 50.6334 47.1817 50.1654 47.1817H40.9385C40.4704 47.1817 40.0912 46.8027 40.0912 46.3364C40.0912 45.87 40.4704 45.4921 40.9385 45.4921H49.206C49.2674 45.4921 49.3182 45.4415 49.3182 45.3794V33.7377C49.3182 33.6366 49.1973 33.5871 49.1262 33.6581L47.2825 35.4962ZM13.6338 17.0962C13.6338 17.5626 13.2555 17.9415 12.7876 17.9415C12.3196 17.9415 11.9413 17.5626 11.9413 17.0962V6.63994C11.9413 6.17358 12.3196 5.79466 12.7876 5.79466H22.5371C22.6375 5.79466 22.6882 5.67418 22.6171 5.60326L20.7734 3.76403C20.4429 3.43465 20.4429 2.90028 20.7734 2.56994C21.1039 2.24057 21.6401 2.24057 21.9707 2.56994L25.5283 6.12889C25.7857 6.47089 25.7496 6.94308 25.4464 7.24233L21.9707 10.7099C21.6401 11.0394 21.1039 11.0394 20.7734 10.7099C20.4429 10.3796 20.4429 9.84524 20.7734 9.51488L22.6171 7.67664C22.6882 7.60571 22.6375 7.48426 22.5371 7.48426H13.7469C13.6845 7.48426 13.6338 7.53479 13.6338 7.59696V17.0962ZM25.7486 40.4835L24.2316 39.713C24.1877 39.6907 24.1361 39.6984 24.101 39.7334L22.6317 41.1986C22.5966 41.2336 22.5887 41.285 22.6112 41.3298L23.3844 42.8425C23.4019 42.8784 23.4009 42.9164 23.3815 42.9504C23.086 43.4585 22.8549 44.0094 22.6999 44.5905C22.6892 44.6283 22.6629 44.6564 22.6249 44.6691L21.0065 45.1928C20.9597 45.2083 20.9285 45.2511 20.9285 45.3007V47.3731C20.9285 47.4226 20.9597 47.4644 21.0065 47.4799L22.6249 48.0046C22.6629 48.0162 22.6892 48.0444 22.6989 48.0823C22.8549 48.6633 23.086 49.2142 23.3815 49.7224C23.4009 49.7564 23.4019 49.7953 23.3844 49.8302L22.6112 51.343C22.5878 51.3876 22.5966 51.4392 22.6317 51.4742L24.101 52.9394C24.1361 52.9743 24.1867 52.983 24.2316 52.9597L25.7486 52.1893C25.7837 52.1708 25.8228 52.1727 25.8568 52.1922C26.3658 52.4866 26.9186 52.7168 27.5006 52.8723C27.5387 52.882 27.5669 52.9083 27.5786 52.9461L28.1051 54.5609C28.1207 54.6076 28.1626 54.6387 28.2124 54.6387H30.29C30.3397 54.6387 30.3816 54.6076 30.3972 54.5609L30.9227 52.9461C30.9354 52.9083 30.9627 52.882 31.0017 52.8723C31.5838 52.7168 32.1356 52.4866 32.6455 52.1922C32.6796 52.1718 32.7186 52.1708 32.7537 52.1893L34.2707 52.9597C34.3146 52.983 34.3662 52.9743 34.4014 52.9394L35.8706 51.4742C35.9057 51.4392 35.9135 51.3876 35.8911 51.343L35.1179 49.8302C35.1004 49.7953 35.1013 49.7564 35.1209 49.7224C35.4163 49.2142 35.6474 48.6633 35.8024 48.0823C35.8131 48.0444 35.8394 48.0162 35.8775 48.0046L37.4959 47.4799C37.5427 47.4644 37.5739 47.4226 37.5739 47.3731V45.3007C37.5739 45.2511 37.5427 45.2083 37.4959 45.1928L35.8765 44.6691C35.8394 44.6564 35.8131 44.6283 35.8024 44.5905C35.6474 44.0094 35.4163 43.4585 35.1209 42.9504C35.1013 42.9164 35.1004 42.8775 35.1179 42.8425L35.8911 41.3298C35.9135 41.285 35.9057 41.2336 35.8706 41.1986L34.4014 39.7334C34.3662 39.6984 34.3146 39.6907 34.2707 39.713L32.7537 40.4835C32.7186 40.502 32.6796 40.501 32.6455 40.4806C32.1356 40.1862 31.5838 39.9559 31.0017 39.8005C30.9636 39.7908 30.9354 39.7645 30.9227 39.7266L30.3972 38.1118C30.3816 38.0652 30.3397 38.0341 30.29 38.0341H28.2124C28.1626 38.0341 28.1207 38.0652 28.1051 38.1118L27.5796 39.7266C27.5669 39.7645 27.5387 39.7908 27.5006 39.8005C26.9186 39.9559 26.3667 40.1862 25.8568 40.4806C25.8228 40.501 25.7837 40.502 25.7486 40.4835ZM29.2517 43.0145C31.0904 43.0145 32.5811 44.502 32.5811 46.3364C32.5811 48.1708 31.0904 49.6582 29.2517 49.6582C27.4119 49.6582 25.9212 48.1708 25.9212 46.3364C25.9212 44.502 27.4119 43.0145 29.2517 43.0145ZM11.2139 20.6999C11.2403 20.729 11.2773 20.7426 11.3164 20.7368C12.1801 20.6057 13.0683 20.5882 13.9575 20.695C13.9965 20.6999 14.0326 20.6853 14.0579 20.6552L15.6763 18.7042C15.7075 18.6663 15.7583 18.6527 15.8041 18.6712L18.6802 19.808C18.727 19.8264 18.7543 19.8701 18.7514 19.9197L18.5915 22.4468C18.5895 22.4857 18.6051 22.5207 18.6373 22.544C19.3588 23.0735 19.9935 23.6933 20.5336 24.3783C20.558 24.4094 20.5931 24.425 20.632 24.421L23.1611 24.183C23.2108 24.1791 23.2557 24.2054 23.2752 24.2511L24.5036 27.0832C24.5231 27.1289 24.5114 27.1794 24.4743 27.2125L22.5683 28.8875C22.5391 28.9137 22.5255 28.9497 22.5322 28.9886C22.6629 29.8514 22.6804 30.7365 22.5732 31.6235C22.5693 31.6624 22.583 31.6984 22.6142 31.7236L24.5699 33.3375C24.6079 33.3695 24.6206 33.42 24.6021 33.4657L23.4633 36.3348C23.4448 36.3805 23.4009 36.4086 23.3512 36.4057L20.8183 36.2463C20.7783 36.2434 20.7432 36.2599 20.7198 36.292C20.1894 37.011 19.5683 37.6445 18.881 38.1828C18.8498 38.207 18.8342 38.243 18.8381 38.2819L19.0761 40.8041C19.0809 40.8537 19.0546 40.8983 19.0088 40.9178L16.1697 42.1429C16.1238 42.1624 16.0731 42.1517 16.0401 42.1138L14.3611 40.2134C14.3348 40.1842 14.2987 40.1706 14.2588 40.1765C13.3949 40.3077 12.5068 40.3242 11.6186 40.2182C11.5796 40.2133 11.5435 40.228 11.5181 40.2581L9.89971 42.209C9.86761 42.2469 9.81685 42.2605 9.77104 42.242L6.89492 41.1053C6.8491 41.0869 6.82082 41.0431 6.82376 40.9935L6.98364 38.4664C6.98656 38.4276 6.96999 38.3926 6.93782 38.3693C6.21733 37.8398 5.58166 37.2199 5.0425 36.5339C5.01813 36.5038 4.98206 36.4883 4.94306 36.4922L2.41403 36.7292C2.36527 36.7341 2.32043 36.7079 2.29995 36.6622L1.07248 33.83C1.05299 33.7843 1.06371 33.7338 1.10173 33.7008L3.0068 32.0257C3.03605 31.9995 3.0497 31.9635 3.04385 31.9247C2.91223 31.0619 2.89468 30.1768 3.00192 29.2897C3.0068 29.2509 2.99218 29.215 2.96195 29.1896L1.00619 27.5759C0.968164 27.5438 0.954515 27.4933 0.973039 27.4476L2.11276 24.5785C2.13032 24.5319 2.17516 24.5046 2.22488 24.5076L4.75782 24.6669C4.79779 24.6698 4.83192 24.6533 4.85531 24.6212C5.38667 23.9022 6.00771 23.2688 6.69506 22.7305C6.72625 22.7062 6.74088 22.6702 6.73796 22.6314L6.49909 20.1091C6.49422 20.0596 6.52054 20.0149 6.56636 19.9954L9.40544 18.7703C9.45126 18.7509 9.50196 18.7615 9.53508 18.7985L11.2139 20.6999ZM12.8831 24.7019C9.69594 24.6494 7.07042 27.1833 7.01777 30.3614C6.96512 33.5405 9.50585 36.159 12.692 36.2114C15.8791 36.2638 18.5047 33.7299 18.5573 30.5518C18.61 27.3728 16.0693 24.7544 12.8831 24.7019ZM41.3606 3.13832C47.5067 3.13832 52.4897 8.10899 52.4897 14.2397C52.4897 20.3705 47.5067 25.3412 41.3606 25.3412C35.2145 25.3412 30.2325 20.3705 30.2325 14.2397C30.2325 8.10899 35.2145 3.13832 41.3606 3.13832Z" fill="#0575AD"/>
</g>
</g>
</g>
</g>
<defs>
<clipPath id="clip0_1_5168">
<rect width="55" height="55" fill="white" transform="translate(0.5)"/>
</clipPath>
<clipPath id="clip1_1_5168">
<rect width="55" height="55" fill="white" transform="translate(0.5)"/>
</clipPath>
<clipPath id="clip2_1_5168">
<rect width="55" height="55" fill="white" transform="translate(0.5)"/>
</clipPath>
</defs>
</svg>
