<svg width="56" height="55" viewBox="0 0 56 55" fill="none" xmlns="http://www.w3.org/2000/svg">
<g clip-path="url(#clip0_1_5016)">
<g clip-path="url(#clip1_1_5016)">
<g clip-path="url(#clip2_1_5016)">
<mask id="mask0_1_5016" style="mask-type:luminance" maskUnits="userSpaceOnUse" x="0" y="0" width="14" height="14">
<path d="M0.504883 0H13.5745V13.2886H0.504883V0Z" fill="white"/>
</mask>
<g mask="url(#mask0_1_5016)">
<path fill-rule="evenodd" clip-rule="evenodd" d="M2.97552 3.93923L3.34274 7.52092C3.40233 8.09768 2.97937 8.61484 2.40452 8.67444C2.3257 8.68405 2.37376 8.68214 2.29301 8.68214C1.7547 8.68214 1.30096 8.27071 1.24521 7.73625L0.578079 1.20922C0.560776 1.03619 0.585769 0.865086 0.651138 0.707438C0.701124 0.580551 0.778026 0.461354 0.881845 0.357536C1.01451 0.224881 1.17408 0.134522 1.34326 0.0883805C1.46823 0.0518521 1.60089 0.0403169 1.73354 0.0537748L8.26066 0.720896C8.83744 0.778572 9.26044 1.29766 9.20081 1.87442C9.1412 2.44926 8.62212 2.87414 8.04726 2.81454L4.46359 2.44926L13.1209 11.1064C13.5324 11.5179 13.5324 12.1869 13.1209 12.5965C12.921 12.7945 12.6557 12.9021 12.375 12.9021C12.0962 12.9021 11.8289 12.7925 11.6309 12.5945L2.97552 3.93923Z" fill="#0575AD"/>
</g>
<mask id="mask1_1_5016" style="mask-type:luminance" maskUnits="userSpaceOnUse" x="42" y="0" width="14" height="14">
<path d="M42.6104 0H55.5031V13.2886H42.6104V0Z" fill="white"/>
</mask>
<g mask="url(#mask1_1_5016)">
<path fill-rule="evenodd" clip-rule="evenodd" d="M51.5926 2.509L48.0108 2.8762C47.434 2.93388 46.9149 2.51092 46.8573 1.93416C46.7977 1.35739 47.2206 0.838312 47.7955 0.780636L54.3226 0.113515C54.6379 0.0808314 54.9493 0.192339 55.1743 0.415354C55.3973 0.64029 55.5089 0.953667 55.4761 1.26704L54.8109 7.79406C54.7552 8.33238 54.3014 8.73995 53.7612 8.73995C53.6805 8.73995 53.7266 8.74187 53.6516 8.73418C53.0768 8.67074 52.6557 8.1555 52.7134 7.57874L53.0806 3.99705L44.4214 12.6562C44.2253 12.8542 43.958 12.9656 43.6774 12.9656C43.3986 12.9656 43.1313 12.8561 42.9333 12.6581C42.5219 12.2485 42.5219 11.5796 42.9314 11.1682L51.5926 2.509Z" fill="#0575AD"/>
</g>
<mask id="mask2_1_5016" style="mask-type:luminance" maskUnits="userSpaceOnUse" x="0" y="41" width="14" height="14">
<path d="M0.504883 41.8345H13.5745V55H0.504883V41.8345Z" fill="white"/>
</mask>
<g mask="url(#mask2_1_5016)">
<path fill-rule="evenodd" clip-rule="evenodd" d="M1.56476 54.9617C1.28599 54.9617 1.02067 54.8521 0.82265 54.656C0.82265 54.656 0.82265 54.656 0.820727 54.6541C0.818805 54.6522 0.818805 54.6522 0.818805 54.6522C0.657308 54.4906 0.559258 54.2907 0.524652 54.0812C0.509271 53.9889 0.505426 53.8947 0.516961 53.8005L1.1841 47.2754C1.24177 46.6986 1.76279 46.2737 2.33955 46.3352C2.91441 46.3967 3.33737 46.9139 3.27777 47.4888L2.91056 51.0705L11.5679 42.4114C11.9793 42.0019 12.6464 42.0019 13.0579 42.4114C13.4693 42.8228 13.4693 43.4899 13.0579 43.9013L4.40055 52.5585L7.9823 52.1933C8.55907 52.1336 9.07816 52.5566 9.13584 53.1314C9.19544 53.7082 8.77247 54.2273 8.19571 54.2869L1.71472 54.9502C1.69165 54.954 1.66666 54.9559 1.64358 54.9559C1.62051 54.9617 1.63205 54.9617 1.56476 54.9617Z" fill="#0575AD"/>
</g>
<path fill-rule="evenodd" clip-rule="evenodd" d="M27.9988 18.666C23.1096 18.666 19.1318 22.6437 19.1318 27.5347C19.1318 32.4256 23.1096 36.4033 27.9988 36.4033C32.8897 36.4033 36.8695 32.4256 36.8695 27.5347C36.8695 22.6456 32.8897 18.666 27.9988 18.666Z" fill="#0575AD"/>
<path fill-rule="evenodd" clip-rule="evenodd" d="M24.8376 10.3088L24.1992 14.1615C24.1627 14.3865 24.0012 14.5729 23.7859 14.6441C23.1322 14.8575 22.4843 15.1266 21.8672 15.4381C21.6634 15.5438 21.4192 15.5227 21.2327 15.392L18.0566 13.1175C17.8106 12.9426 17.4395 12.8177 17.205 13.0522L13.5194 16.7377C13.2848 16.9742 13.4079 17.3433 13.5848 17.5894L15.8591 20.7655C15.9918 20.9519 16.011 21.1961 15.9072 21.3999C15.5919 22.017 15.3247 22.663 15.1113 23.3186C15.0402 23.5339 14.8536 23.6954 14.6287 23.7319L10.7778 24.3702C10.4779 24.4183 10.1279 24.5951 10.1279 24.9277V30.1378C10.1279 30.4704 10.476 30.6454 10.7778 30.6954L14.6287 31.3336C14.8536 31.3702 15.0402 31.5297 15.1113 31.747C15.3247 32.4026 15.5938 33.0485 15.9072 33.6656C16.011 33.8695 15.9918 34.1136 15.8591 34.3002L13.5848 37.4761C13.4079 37.7223 13.2848 38.0933 13.5194 38.3278L17.205 42.0114C17.4395 42.2479 17.8106 42.1248 18.0566 41.948L21.2327 39.6737C21.3404 39.5987 21.4654 39.5602 21.5903 39.5602C21.6845 39.5602 21.7807 39.5813 21.8672 39.6255C22.4843 39.9409 23.1284 40.2081 23.7859 40.4215C24.0012 40.4926 24.1627 40.6791 24.1992 40.904L24.8376 44.7568C24.8856 45.0548 25.0625 45.4047 25.3932 45.4047H30.6053C30.9378 45.4047 31.1109 45.0567 31.1628 44.7568L31.8011 40.904C31.8376 40.6791 31.9972 40.4926 32.2145 40.4215C32.8701 40.2081 33.516 39.9389 34.1331 39.6255C34.337 39.5218 34.5811 39.5428 34.7657 39.6756L37.9437 41.948C38.1879 42.1248 38.5608 42.2499 38.7935 42.0134L42.479 38.3278C42.7155 38.0933 42.5925 37.7223 42.4156 37.4761L40.1412 34.3002C40.0066 34.1155 39.9894 33.8714 40.0931 33.6676C40.4065 33.0485 40.6737 32.4026 40.8871 31.747C40.9583 31.5316 41.1448 31.3721 41.3698 31.3336L45.2226 30.6973C45.2899 30.6857 45.8724 30.5781 45.8724 30.1398V24.9277C45.8724 24.5971 45.5244 24.4222 45.2226 24.3702L41.3717 23.7338C41.1467 23.6973 40.9602 23.5358 40.8891 23.3205C40.6757 22.663 40.4065 22.017 40.0931 21.3999C39.9894 21.1981 40.0104 20.9519 40.1412 20.7674L42.4156 17.5913C42.5925 17.3452 42.7155 16.9742 42.4809 16.7397L38.7954 13.0541C38.5608 12.8177 38.1898 12.9426 37.9437 13.1195L34.7677 15.3939C34.583 15.5265 34.337 15.5438 34.1351 15.44C33.516 15.1266 32.872 14.8594 32.2145 14.6441C31.9991 14.5729 31.8376 14.3884 31.8011 14.1615L31.1647 10.3088C31.1147 10.0108 30.9378 9.66089 30.6072 9.66089H25.3951C25.0625 9.66089 24.8856 10.0089 24.8376 10.3088ZM17.9067 27.5328C17.9067 21.967 22.4344 17.4414 27.9983 17.4414C33.566 17.4414 38.0937 21.969 38.0937 27.5328C38.0937 33.1004 33.566 37.628 27.9983 37.628C22.4324 37.628 17.9067 33.0985 17.9067 27.5328Z" fill="#0575AD"/>
<mask id="mask3_1_5016" style="mask-type:luminance" maskUnits="userSpaceOnUse" x="42" y="41" width="14" height="14">
<path d="M42.6104 41.8345H55.5031V55H42.6104V41.8345Z" fill="white"/>
</mask>
<g mask="url(#mask3_1_5016)">
<path fill-rule="evenodd" clip-rule="evenodd" d="M54.4316 54.9617C54.7104 54.9617 54.9756 54.8521 55.1736 54.656C55.1736 54.656 55.1736 54.656 55.1756 54.6541C55.1775 54.6522 55.1775 54.6522 55.1775 54.6522C55.339 54.4906 55.4371 54.2907 55.4717 54.0812C55.4851 53.9889 55.489 53.8947 55.4794 53.8005L54.8122 47.2754C54.7545 46.6986 54.2335 46.2737 53.6567 46.3352C53.0819 46.3967 52.659 46.9139 52.7185 47.4888L53.0838 51.0705L44.4266 42.4114C44.017 42.0019 43.3498 42.0019 42.9384 42.4114C42.527 42.8228 42.527 43.4899 42.9384 43.9013L51.5958 52.5585L48.014 52.1933C47.4373 52.1336 46.9181 52.5566 46.8586 53.1314C46.8009 53.7082 47.2239 54.2273 47.7987 54.2869L54.2816 54.9502C54.3046 54.954 54.3297 54.9559 54.3528 54.9559C54.3758 54.9617 54.3642 54.9617 54.4316 54.9617Z" fill="#0575AD"/>
</g>
</g>
</g>
</g>
<defs>
<clipPath id="clip0_1_5016">
<rect width="55.91" height="55" fill="white" transform="translate(0.0498047)"/>
</clipPath>
<clipPath id="clip1_1_5016">
<rect width="55.91" height="55" fill="white" transform="translate(0.0498047)"/>
</clipPath>
<clipPath id="clip2_1_5016">
<rect width="55.9167" height="55" fill="white" transform="translate(0.0463867)"/>
</clipPath>
</defs>
</svg>
