<svg width="44" height="46" viewBox="0 0 44 46" fill="none" xmlns="http://www.w3.org/2000/svg">
<g clip-path="url(#clip0_1_5254)">
<g clip-path="url(#clip1_1_5254)">
<g clip-path="url(#clip2_1_5254)">
<mask id="mask0_1_5254" style="mask-type:luminance" maskUnits="userSpaceOnUse" x="0" y="0" width="12" height="12">
<path d="M0.845703 0.75H11.163V11.2527H0.845703V0.75Z" fill="white"/>
</mask>
<g mask="url(#mask0_1_5254)">
<path fill-rule="evenodd" clip-rule="evenodd" d="M2.77551 3.92668L3.0618 6.81493C3.10765 7.27981 2.7769 7.69589 2.32802 7.74611C2.26687 7.75328 2.30579 7.75042 2.24185 7.75042C1.82077 7.75042 1.46639 7.42041 1.42331 6.98854L0.902164 1.72427C0.888267 1.58653 0.909113 1.44736 0.959143 1.3211C0.998055 1.21779 1.0592 1.12166 1.13981 1.03844C1.24265 0.932266 1.36633 0.859092 1.49974 0.820352C1.59703 0.791656 1.70126 0.783047 1.8041 0.793091L6.90299 1.33114C7.35326 1.37849 7.68401 1.79601 7.63676 2.26089C7.5909 2.72576 7.1851 3.06868 6.73483 3.0199L3.93593 2.72433L10.6997 9.70601C11.0208 10.0375 11.0208 10.5769 10.6983 10.9084C10.5427 11.0677 10.3356 11.1552 10.1174 11.1552C9.89783 11.1552 9.68936 11.0662 9.53515 10.9055L2.77551 3.92668Z" fill="#00D280"/>
</g>
<mask id="mask1_1_5254" style="mask-type:luminance" maskUnits="userSpaceOnUse" x="33" y="0" width="11" height="12">
<path d="M33.5767 0.75H43.805V11.2527H33.5767V0.75Z" fill="white"/>
</mask>
<g mask="url(#mask1_1_5254)">
<path fill-rule="evenodd" clip-rule="evenodd" d="M40.7521 2.77315L37.9546 3.06872C37.5043 3.11607 37.0986 2.77459 37.0527 2.30971C37.0082 1.84484 37.3376 1.42588 37.7865 1.37853L42.8853 0.841916C43.1299 0.81609 43.3745 0.905047 43.5497 1.08583C43.7233 1.26662 43.8109 1.51914 43.7859 1.77166L43.2661 7.03592C43.2231 7.4678 42.8687 7.79781 42.4462 7.79781C42.3836 7.79781 42.4183 7.80067 42.36 7.7935C41.9111 7.74184 41.5832 7.32576 41.629 6.86232L41.9153 3.97264L35.1515 10.9573C34.9972 11.115 34.7888 11.2055 34.5706 11.2055C34.3524 11.2055 34.144 11.1165 33.9883 10.9573C33.6673 10.6272 33.6673 10.0877 33.9883 9.75629L40.7521 2.77315Z" fill="#00D280"/>
</g>
<mask id="mask2_1_5254" style="mask-type:luminance" maskUnits="userSpaceOnUse" x="0" y="34" width="12" height="12">
<path d="M0.845703 34.3931H11.163V45.1024H0.845703V34.3931Z" fill="white"/>
</mask>
<g mask="url(#mask2_1_5254)">
<path fill-rule="evenodd" clip-rule="evenodd" d="M1.67353 45.0707C1.45674 45.0707 1.24828 44.9832 1.09541 44.8253C1.09402 44.8239 1.09402 44.8239 1.09263 44.8225L1.09124 44.8211C0.966166 44.6919 0.888342 44.5298 0.861936 44.3619C0.850819 44.2873 0.846649 44.2112 0.854988 44.1352L1.37613 38.8724C1.422 38.4075 1.8278 38.066 2.27807 38.1148C2.72833 38.1636 3.05909 38.5811 3.01184 39.046L2.72556 41.9328L9.48795 34.9511C9.80901 34.6197 10.3301 34.6197 10.6511 34.9511C10.9722 35.2825 10.9722 35.8205 10.6511 36.152L3.88876 43.1337L6.68627 42.8381C7.13653 42.7908 7.54234 43.1323 7.5882 43.5957C7.63406 44.0606 7.3033 44.4796 6.85443 44.5269L1.79028 45.0606C1.77221 45.0635 1.75414 45.0664 1.73608 45.0678C1.71801 45.0707 1.72634 45.0707 1.67353 45.0707Z" fill="#00D280"/>
</g>
<path fill-rule="evenodd" clip-rule="evenodd" d="M22.3214 15.8024C18.5024 15.8024 15.395 19.0106 15.395 22.9534C15.395 26.8976 18.5024 30.1059 22.3214 30.1059C26.1417 30.1059 29.2491 26.8991 29.2491 22.9534C29.2491 19.0106 26.1417 15.8024 22.3214 15.8024Z" fill="#00D280"/>
<path fill-rule="evenodd" clip-rule="evenodd" d="M19.8511 9.06326L19.3522 12.1696C19.3245 12.3518 19.1994 12.501 19.0298 12.5584C18.5184 12.7306 18.0139 12.9473 17.5303 13.1998C17.3719 13.2844 17.1815 13.2672 17.0356 13.1625L14.5549 11.3274C14.3631 11.1867 14.0727 11.0863 13.8906 11.2757L11.0111 14.2472C10.8277 14.438 10.9236 14.7365 11.0625 14.9345L12.8386 17.4956C12.9428 17.6448 12.9567 17.8428 12.8761 18.0063C12.6302 18.5056 12.4217 19.0251 12.255 19.5545C12.1993 19.7281 12.0548 19.8572 11.8783 19.8873L8.86956 20.401C8.63609 20.4412 8.3623 20.5833 8.3623 20.8515V25.054C8.3623 25.3209 8.63469 25.4615 8.86956 25.5031L11.8783 26.0168C12.0548 26.047 12.1993 26.1761 12.255 26.3511C12.4217 26.8806 12.6316 27.3999 12.8761 27.8978C12.9582 28.0628 12.9415 28.2594 12.8386 28.4086L11.0625 30.9712C10.9236 31.1692 10.8277 31.4676 11.0111 31.657L13.8906 34.6285C14.0741 34.8193 14.3631 34.7188 14.5549 34.5768L17.0356 32.7431C17.1189 32.6829 17.2176 32.6513 17.3149 32.6513C17.3886 32.6513 17.4636 32.6685 17.5303 32.7044C18.0139 32.9583 18.517 33.1736 19.0298 33.3457C19.1994 33.4032 19.3245 33.5538 19.3522 33.7346L19.8511 36.8409C19.8887 37.0819 20.0263 37.3646 20.2862 37.3646H24.3567C24.6165 37.3646 24.7528 37.0834 24.7916 36.8409L25.2905 33.7346C25.3184 33.5538 25.4434 33.4032 25.6129 33.3457C26.1244 33.1736 26.6302 32.9569 27.1125 32.7044C27.2708 32.6212 27.4613 32.6369 27.6072 32.7431L30.0878 34.5783C30.2796 34.7188 30.5701 34.8193 30.7521 34.6298L33.6317 31.6585C33.8151 31.4676 33.7192 31.1692 33.5802 30.9712L31.8042 28.4101C31.7 28.2608 31.686 28.0628 31.7666 27.8992C32.0126 27.3999 32.2211 26.8806 32.3879 26.3511C32.4434 26.1775 32.5879 26.0483 32.7645 26.0182L35.7746 25.5045C35.826 25.4945 36.2805 25.407 36.2805 25.054V20.8515C36.2805 20.5846 36.0081 20.444 35.7746 20.4024L32.7659 19.8888C32.5893 19.8587 32.4448 19.7296 32.3892 19.5545C32.2211 19.0251 32.0126 18.5056 31.7681 18.0078C31.686 17.8428 31.7014 17.6462 31.8055 17.497L33.5817 14.9345C33.7192 14.7365 33.8165 14.438 33.6317 14.2486L30.7535 11.2772C30.5701 11.0863 30.281 11.1867 30.0892 11.3288L27.6072 13.1625C27.4627 13.2701 27.2723 13.2844 27.1125 13.2012C26.6302 12.9473 26.1272 12.7321 25.6143 12.5599C25.4448 12.5025 25.3197 12.3518 25.2905 12.171L24.793 9.06326C24.7555 8.8222 24.6165 8.53955 24.358 8.53955H20.2875C20.0263 8.53955 19.8901 8.82078 19.8511 9.06326ZM14.4381 22.9535C14.4381 18.464 17.9737 14.8139 22.3207 14.8139C26.6691 14.8139 30.2046 18.4655 30.2046 22.9535C30.2046 27.443 26.6691 31.0931 22.3207 31.0931C17.9737 31.0931 14.4381 27.4415 14.4381 22.9535Z" fill="#00D280"/>
<mask id="mask3_1_5254" style="mask-type:luminance" maskUnits="userSpaceOnUse" x="33" y="34" width="11" height="12">
<path d="M33.5767 34.3931H43.805V45.1024H33.5767V34.3931Z" fill="white"/>
</mask>
<g mask="url(#mask3_1_5254)">
<path fill-rule="evenodd" clip-rule="evenodd" d="M42.9675 45.0707C43.1843 45.0707 43.3928 44.9832 43.547 44.8253C43.547 44.8253 43.547 44.8239 43.5484 44.8225L43.5512 44.8211C43.6763 44.6919 43.7527 44.5298 43.7791 44.3619C43.7916 44.2873 43.7944 44.2112 43.786 44.1352L43.2648 38.8724C43.219 38.4075 42.8132 38.066 42.3629 38.1148C41.9141 38.1636 41.5819 38.5811 41.6292 39.046L41.9155 41.9328L35.1531 34.9511C34.832 34.6197 34.3123 34.6197 33.9912 34.9511C33.6702 35.2825 33.6702 35.8205 33.9912 36.152L40.7523 43.1337L37.9548 42.8381C37.5045 42.7908 37.0986 43.1323 37.0529 43.5957C37.007 44.0606 37.3377 44.4796 37.788 44.5269L42.8508 45.0606C42.8689 45.0635 42.8882 45.0664 42.9049 45.0678C42.923 45.0707 42.9161 45.0707 42.9675 45.0707Z" fill="#00D280"/>
</g>
</g>
</g>
</g>
<defs>
<clipPath id="clip0_1_5254">
<rect width="43.27" height="45" fill="white" transform="translate(0.689941 0.75)"/>
</clipPath>
<clipPath id="clip1_1_5254">
<rect width="43.27" height="45" fill="white" transform="translate(0.689941 0.75)"/>
</clipPath>
<clipPath id="clip2_1_5254">
<rect width="43.2692" height="45" fill="white" transform="translate(0.69043 0.75)"/>
</clipPath>
</defs>
</svg>
