<svg width="47" height="46" viewBox="0 0 47 46" fill="none" xmlns="http://www.w3.org/2000/svg">
<g clip-path="url(#clip0_1_5293)">
<g clip-path="url(#clip1_1_5293)">
<g clip-path="url(#clip2_1_5293)">
<mask id="mask0_1_5293" style="mask-type:luminance" maskUnits="userSpaceOnUse" x="1" y="0" width="46" height="46">
<path d="M1.16016 0.75H46.1602V45.75H1.16016V0.75Z" fill="white"/>
</mask>
<g mask="url(#mask0_1_5293)">
<path fill-rule="evenodd" clip-rule="evenodd" d="M8.28194 15.2318L6.77163 10.8837C6.77065 10.8807 6.77065 10.8786 6.76968 10.8766C6.72859 10.7211 6.63469 10.5796 6.49481 10.4826C6.2933 10.3432 6.04583 10.3291 5.83845 10.423C5.8365 10.424 5.83454 10.425 5.83258 10.4261L1.61958 11.9838C1.26743 12.1142 1.08354 12.5142 1.20972 12.8779C1.33591 13.2416 1.72425 13.4305 2.07639 13.3002L4.30663 12.4758C4.34282 12.4627 4.38097 12.4728 4.4064 12.5031C4.43086 12.5324 4.43575 12.5738 4.41716 12.6082C3.74907 13.8912 3.19738 15.2499 2.77676 16.6713C2.15953 18.7575 1.82695 20.9669 1.82695 23.25C1.82695 29.4609 4.26652 35.0839 8.21053 39.1542C12.1556 43.2244 17.604 45.7419 23.6227 45.7419C25.8353 45.7419 27.9756 45.3995 29.9985 44.762C32.0908 44.1023 34.0461 43.1295 35.8108 41.899C36.1228 41.6818 36.204 41.2464 35.9947 40.9251C35.7844 40.6039 35.3618 40.519 35.0507 40.7352C33.3878 41.8949 31.5567 42.8082 29.6043 43.4234C27.7183 44.0174 25.7101 44.3377 23.6227 44.3377C17.9796 44.3377 12.8706 41.9778 9.17305 38.1611C5.47457 34.3454 3.1876 29.073 3.1876 23.25C3.1876 21.0962 3.49768 19.0232 4.07382 17.0764C4.51498 15.5874 5.11362 14.166 5.85019 12.8324C5.8678 12.8001 5.90008 12.7819 5.93627 12.786C5.97246 12.789 6.00181 12.8122 6.01355 12.8476L7.00542 15.7035C7.1316 16.0672 7.51994 16.2561 7.87208 16.1258C8.2252 15.9955 8.40812 15.5954 8.28194 15.2318ZM11.2517 5.5749C11.0414 5.25365 11.1236 4.81722 11.4346 4.60103C13.2002 3.36955 15.1546 2.3977 17.2479 1.73802C19.2698 1.10056 21.4111 0.75708 23.6227 0.75708C29.6414 0.75708 35.0908 3.27459 39.0348 7.34484C42.9798 11.4161 45.4194 17.0391 45.4194 23.25C45.4194 25.5321 45.0868 27.7415 44.4686 29.8287C44.048 31.2491 43.4963 32.6088 42.8282 33.8908C42.8106 33.9262 42.8145 33.9666 42.8399 33.9969C42.8644 34.0262 42.9026 34.0373 42.9387 34.0242L45.169 33.1988C45.5211 33.0685 45.9095 33.2584 46.0357 33.6211C46.1618 33.9848 45.9789 34.3858 45.6268 34.5162L41.4128 36.074C41.4108 36.075 41.4089 36.075 41.4069 36.076C41.2005 36.1709 40.9521 36.1568 40.7506 36.0164C40.6117 35.9194 40.5178 35.778 40.4757 35.6234C40.4757 35.6204 40.4747 35.6183 40.4737 35.6163L38.9644 31.2683C38.8382 30.9046 39.0212 30.5045 39.3733 30.3742C39.7254 30.2439 40.1138 30.4328 40.24 30.7965L41.2318 33.6524C41.2436 33.6878 41.2729 33.711 41.3091 33.714C41.3453 33.7181 41.3776 33.6999 41.3962 33.6676C42.1327 32.3341 42.7304 30.9127 43.1715 29.4226C43.7477 27.4768 44.0578 25.4038 44.0578 23.25C44.0578 17.427 41.7708 12.1546 38.0723 8.33891C34.3748 4.52223 29.2658 2.16232 23.6227 2.16232C21.5363 2.16232 19.5271 2.48155 17.6412 3.07658C15.6897 3.69182 13.8576 4.60406 12.1947 5.76381C11.8836 5.98102 11.461 5.89616 11.2517 5.5749ZM30.376 23.1197C30.376 27.097 27.2508 30.3227 23.3958 30.3227C19.5408 30.3227 16.4155 27.097 16.4155 23.1197C16.4155 19.1414 19.5408 15.9157 23.3958 15.9157C25.4636 15.9157 27.3212 16.8441 28.5997 18.318C28.6173 18.3382 28.6398 18.3493 28.6662 18.3493C28.6926 18.3493 28.7161 18.3392 28.7337 18.319L31.9734 14.6862C32.2277 14.4013 32.6571 14.3832 32.933 14.6448C33.2088 14.9075 33.2264 15.351 32.9731 15.6348L31.768 16.9865L31.767 16.9875L31.766 16.9886L23.3772 26.3949C23.3596 26.4141 23.3371 26.4242 23.3107 26.4252C23.2852 26.4252 23.2627 26.4151 23.2442 26.3959L20.7312 23.6672C20.473 23.3874 20.0436 23.3763 19.7716 23.643C19.5007 23.9087 19.4899 24.3522 19.7482 24.633L22.8284 27.9769C23.0867 28.2567 23.5161 28.2679 23.787 28.0012C23.7978 27.9911 23.8086 27.9799 23.8183 27.9698L23.8203 27.9678L29.9525 21.0921C29.975 21.0659 30.0073 21.0558 30.0395 21.0639C30.0728 21.0719 30.0973 21.0962 30.1061 21.1295C30.2821 21.7619 30.376 22.4287 30.376 23.1197ZM10.9798 12.3687C10.9808 12.3233 11.013 12.2859 11.0571 12.2788C12.3218 12.0818 13.6238 11.806 14.9424 11.4474C18.2388 10.5493 21.1939 9.25721 23.5758 7.76914C23.6051 7.74994 23.6403 7.74994 23.6697 7.76914C26.0515 9.25721 29.0066 10.5493 32.303 11.4474C33.6226 11.806 34.9236 12.0818 36.1893 12.2788C36.2334 12.2859 36.2647 12.3233 36.2666 12.3687C36.5777 24.0602 36.6804 36.4023 23.6511 40.7847C23.6315 40.7918 23.6139 40.7918 23.5943 40.7847C10.566 36.4023 10.6677 24.0602 10.9798 12.3687ZM19.2336 32.7584H28.2866C28.6623 32.7584 28.9675 33.0725 28.9675 33.4605C28.9675 33.8484 28.6623 34.1626 28.2866 34.1626H19.2336C18.858 34.1626 18.5528 33.8484 18.5528 33.4605C18.5528 33.0725 18.858 32.7584 19.2336 32.7584Z" fill="#00D280"/>
</g>
</g>
</g>
</g>
<defs>
<clipPath id="clip0_1_5293">
<rect width="46" height="45" fill="white" transform="translate(0.660156 0.75)"/>
</clipPath>
<clipPath id="clip1_1_5293">
<rect width="46" height="45" fill="white" transform="translate(0.660156 0.75)"/>
</clipPath>
<clipPath id="clip2_1_5293">
<rect width="46" height="45" fill="white" transform="translate(0.660156 0.75)"/>
</clipPath>
</defs>
</svg>
