<svg width="42" height="42" viewBox="0 0 42 42" fill="none" xmlns="http://www.w3.org/2000/svg">
<g clip-path="url(#clip0_3_1630)">
<g clip-path="url(#clip1_3_1630)">
<mask id="mask0_3_1630" style="mask-type:luminance" maskUnits="userSpaceOnUse" x="6" y="0" width="30" height="42">
<path d="M6.30005 0H35.7V42H6.30005V0Z" fill="white"/>
</mask>
<g mask="url(#mask0_3_1630)">
<path fill-rule="evenodd" clip-rule="evenodd" d="M24.683 8.29701V11.6334H21.4513C21.4454 11.5733 21.4299 11.5158 21.4042 11.4621C21.3786 11.4083 21.3449 11.3608 21.3032 11.3208C21.2616 11.2802 21.2145 11.2492 21.1624 11.2278C21.1102 11.2059 21.0559 11.1954 21 11.1959C20.846 11.1959 20.6929 11.2037 20.5397 11.22C20.3866 11.2364 20.2347 11.261 20.0837 11.2935C19.9327 11.3258 19.7837 11.3664 19.6366 11.4147C19.4893 11.463 19.345 11.519 19.2028 11.5823C19.0607 11.6462 18.9218 11.7172 18.7859 11.7956C18.6505 11.874 18.5188 11.9597 18.3909 12.0522C18.263 12.1447 18.1394 12.2436 18.0208 12.3493C17.9017 12.4546 17.7881 12.5663 17.6791 12.6843C17.5706 12.8019 17.4671 12.9249 17.3695 13.0534C17.272 13.1825 17.1807 13.3159 17.0952 13.454C17.0099 13.5925 16.9308 13.7353 16.858 13.882C16.7856 14.0287 16.72 14.1791 16.6611 14.3327C16.6022 14.4867 16.5505 14.643 16.5059 14.8026C16.4613 14.9616 16.4238 15.1229 16.394 15.2861C16.3641 15.4492 16.3414 15.6138 16.3263 15.7797C16.3111 15.945 16.3035 16.1109 16.3035 16.2778C16.3035 16.4441 16.3111 16.61 16.3263 16.7758C16.3414 16.9413 16.3641 17.1058 16.394 17.269C16.4238 17.4321 16.4613 17.5935 16.5059 17.7529C16.5505 17.912 16.6022 18.0683 16.6611 18.2224C16.72 18.3759 16.7856 18.5263 16.8584 18.673C16.9308 18.8198 17.0099 18.9624 17.0952 19.101C17.1807 19.239 17.272 19.3726 17.3695 19.5015C17.4671 19.63 17.5706 19.7531 17.6791 19.8711C17.7881 19.9887 17.9017 20.1004 18.0208 20.2057C18.1394 20.3114 18.263 20.4103 18.3909 20.5028C18.5188 20.5953 18.6505 20.681 18.7859 20.7593C18.9218 20.8378 19.0607 20.9089 19.2028 20.9726C19.345 21.0365 19.4893 21.0921 19.6366 21.1404C19.7837 21.1887 19.9327 21.2292 20.0837 21.2616C20.2347 21.2944 20.3866 21.3185 20.5397 21.335C20.6929 21.3514 20.846 21.3596 21 21.3596C21.0559 21.3596 21.1098 21.3486 21.1624 21.3268C21.2145 21.3053 21.2612 21.2743 21.3028 21.2338C21.3445 21.1937 21.3781 21.1463 21.4038 21.0925C21.4295 21.0387 21.4454 20.9818 21.4513 20.9216H24.683V24.2584C24.619 24.2781 24.5563 24.3018 24.4949 24.3291C24.4335 24.3569 24.3738 24.3888 24.3161 24.4239C24.2581 24.4595 24.2021 24.4986 24.1487 24.541C24.0948 24.5839 24.044 24.6299 23.9956 24.6791C23.9468 24.7283 23.9013 24.7803 23.8584 24.8354C23.8155 24.891 23.7759 24.9484 23.7398 25.0086C23.7032 25.0692 23.6703 25.1316 23.6409 25.1959C23.6115 25.2606 23.5854 25.3267 23.5635 25.3946C23.5412 25.4625 23.5228 25.5318 23.5084 25.6019C23.4937 25.6722 23.4832 25.7432 23.4765 25.8148C23.4697 25.8864 23.4668 25.9584 23.4681 26.0303C23.4693 26.1023 23.4744 26.1739 23.4836 26.245C23.4928 26.3165 23.5059 26.3872 23.5228 26.4565C23.5396 26.5262 23.5606 26.5946 23.585 26.6615C23.6094 26.7285 23.6376 26.7936 23.6691 26.8571C23.7007 26.9204 23.736 26.9815 23.7742 27.0403C23.8126 27.099 23.8542 27.1551 23.8988 27.2084C23.9434 27.2617 23.991 27.3123 24.0409 27.3597C24.091 27.4067 24.1436 27.4509 24.1987 27.4914C24.2539 27.5315 24.3111 27.5685 24.37 27.6017C24.4293 27.6345 24.4898 27.6636 24.5521 27.6892C24.6143 27.7143 24.6779 27.7357 24.7427 27.7525C24.807 27.7694 24.8726 27.7826 24.9387 27.7908C25.0048 27.7995 25.0708 27.804 25.1377 27.804C25.2042 27.804 25.2702 27.7995 25.3366 27.7908C25.4027 27.7826 25.4679 27.7694 25.5327 27.7525C25.597 27.7357 25.6606 27.7143 25.7229 27.6892C25.7855 27.6636 25.8461 27.6345 25.905 27.6017C25.9643 27.5685 26.0211 27.5315 26.0762 27.4914C26.1313 27.4509 26.1839 27.4067 26.2339 27.3597C26.2844 27.3123 26.3315 27.2617 26.3761 27.2084C26.4208 27.1551 26.4624 27.099 26.5006 27.0403C26.5394 26.9815 26.5743 26.9204 26.6058 26.8571C26.6378 26.7936 26.6655 26.7285 26.6904 26.6615C26.7148 26.5946 26.7354 26.5262 26.7522 26.4565C26.769 26.3872 26.7821 26.3165 26.7914 26.2455C26.8006 26.1739 26.8056 26.1023 26.8069 26.0303C26.8082 25.9584 26.8056 25.8864 26.7989 25.8148C26.7922 25.7432 26.7813 25.6722 26.7669 25.6019C26.7522 25.5318 26.7342 25.4625 26.7118 25.3946C26.6896 25.3267 26.6638 25.2606 26.6344 25.1959C26.6045 25.1316 26.5718 25.0692 26.5356 25.0086C26.499 24.9484 26.4595 24.891 26.4166 24.8354C26.374 24.7803 26.3282 24.7283 26.2798 24.6791C26.231 24.6299 26.1801 24.5839 26.1262 24.541C26.0728 24.4986 26.0169 24.4595 25.9593 24.4239C25.9012 24.3888 25.8415 24.3569 25.7801 24.3291C25.7186 24.3018 25.6559 24.2781 25.592 24.2584V20.7439C25.592 20.691 25.587 20.6391 25.5773 20.5871C25.5681 20.5351 25.5537 20.4846 25.5352 20.4358C25.5163 20.3871 25.4931 20.3406 25.4663 20.2968C25.4389 20.2526 25.4082 20.2121 25.3737 20.1747C25.3392 20.1373 25.3013 20.1041 25.261 20.0744C25.2201 20.0453 25.1772 20.0202 25.1322 20.0001C25.0872 19.9797 25.0405 19.9646 24.9926 19.9541C24.9446 19.9436 24.8962 19.9386 24.8474 19.9386H21.4543V18.8453H27.9738V22.1826C27.9099 22.2022 27.8472 22.2259 27.7858 22.2537C27.7244 22.2815 27.6646 22.3129 27.6066 22.3485C27.5485 22.3836 27.493 22.4228 27.4392 22.4656C27.3857 22.508 27.3344 22.554 27.286 22.6032C27.2377 22.6524 27.1918 22.7049 27.1489 22.7601C27.1064 22.8152 27.0669 22.8726 27.0303 22.9332C26.9941 22.9933 26.9609 23.0558 26.9315 23.1205C26.902 23.1848 26.8763 23.2513 26.854 23.3192C26.8318 23.3871 26.8136 23.4559 26.7989 23.5261C26.7842 23.5968 26.7737 23.6674 26.7669 23.7389C26.7602 23.811 26.7577 23.8825 26.7589 23.9545C26.7598 24.0265 26.7652 24.0981 26.7746 24.1696C26.7834 24.2407 26.7964 24.3114 26.8132 24.3811C26.8305 24.4508 26.8511 24.5192 26.8754 24.5861C26.8999 24.6532 26.928 24.7178 26.9596 24.7812C26.9916 24.8445 27.0265 24.9056 27.0648 24.9644C27.1035 25.0232 27.1447 25.0797 27.1893 25.133C27.2339 25.1863 27.2814 25.2369 27.3315 25.2838C27.382 25.3313 27.4345 25.375 27.4897 25.4155C27.5443 25.4561 27.6015 25.4931 27.6604 25.5258C27.7198 25.5591 27.7804 25.5882 27.8426 25.6134C27.9053 25.6389 27.9684 25.6598 28.0332 25.6771C28.098 25.694 28.1632 25.7068 28.2292 25.7154C28.2952 25.7241 28.3617 25.7282 28.4282 25.7282C28.4946 25.7282 28.5612 25.7241 28.6272 25.7154C28.6932 25.7068 28.7588 25.694 28.8232 25.6771C28.888 25.6598 28.9515 25.6389 29.0137 25.6134C29.076 25.5882 29.1366 25.5591 29.1959 25.5258C29.2548 25.4931 29.312 25.4561 29.3671 25.4155C29.4222 25.375 29.4748 25.3313 29.5249 25.2838C29.575 25.2369 29.6225 25.1863 29.6671 25.133C29.7116 25.0797 29.7533 25.0232 29.7916 24.9644C29.8299 24.9056 29.8652 24.8445 29.8968 24.7812C29.9283 24.7178 29.9565 24.6532 29.9809 24.5861C30.0053 24.5192 30.0263 24.4508 30.0432 24.3811C30.06 24.3114 30.073 24.2407 30.0823 24.1696C30.0916 24.0981 30.0966 24.0265 30.0979 23.9545C30.0991 23.8825 30.0962 23.811 30.0895 23.7389C30.0827 23.6674 30.0721 23.5968 30.0574 23.5261C30.0432 23.4559 30.0246 23.3871 30.0023 23.3192C29.9805 23.2513 29.9544 23.1848 29.925 23.1205C29.8955 23.0558 29.8627 22.9933 29.8261 22.9332C29.7899 22.873 29.7503 22.8152 29.7074 22.7601C29.6646 22.7049 29.6191 22.6524 29.5703 22.6032C29.5219 22.554 29.471 22.508 29.4172 22.4656C29.3638 22.4228 29.3078 22.3836 29.2498 22.3485C29.1922 22.3129 29.1324 22.2815 29.071 22.2537C29.0095 22.2259 28.9469 22.2022 28.8825 22.1826V18.6676C28.8825 18.6147 28.8779 18.5623 28.8682 18.5103C28.8585 18.4584 28.8447 18.4083 28.8258 18.359C28.8072 18.3103 28.7841 18.2638 28.7571 18.22C28.7298 18.1758 28.6991 18.1353 28.6642 18.0979C28.6297 18.0606 28.5922 18.0272 28.5514 17.9977C28.5111 17.9685 28.4682 17.9434 28.4231 17.9233C28.3777 17.9028 28.3314 17.8878 28.2835 17.8774C28.2355 17.8669 28.1871 17.8618 28.1384 17.8618H21.4543V16.7695H29.3688C29.3869 16.8387 29.4088 16.9067 29.4344 16.9727C29.4597 17.0392 29.4891 17.104 29.5219 17.1668C29.5543 17.2293 29.5905 17.2899 29.6301 17.3478C29.6696 17.4056 29.712 17.4612 29.7575 17.5137C29.8029 17.5661 29.8513 17.6157 29.9022 17.6618C29.9531 17.7083 30.0065 17.7511 30.0621 17.7903C30.118 17.8299 30.1756 17.8655 30.2354 17.8974C30.2952 17.9293 30.3561 17.9571 30.4188 17.9813C30.4815 18.0054 30.5454 18.025 30.6103 18.0409C30.6754 18.0565 30.741 18.0683 30.8071 18.0756C30.8736 18.0828 30.9396 18.0856 31.0061 18.0843C31.0729 18.0828 31.139 18.0774 31.2051 18.0674C31.2707 18.0578 31.3358 18.0437 31.4003 18.025C31.4646 18.0067 31.5277 17.9844 31.5899 17.958C31.6518 17.9316 31.712 17.9011 31.7705 17.8669C31.8289 17.8327 31.8853 17.7944 31.9395 17.7529C31.9942 17.7115 32.046 17.6664 32.0952 17.6181C32.1448 17.5697 32.1911 17.5187 32.2349 17.4644C32.2786 17.4103 32.319 17.3532 32.3564 17.2936C32.3939 17.2339 32.4279 17.1724 32.4587 17.1081C32.4893 17.0443 32.5163 16.9787 32.5394 16.9112C32.563 16.8438 32.5823 16.775 32.5983 16.7052C32.6139 16.635 32.6257 16.5644 32.6336 16.4928C32.6416 16.4213 32.6454 16.3498 32.6454 16.2778C32.6454 16.2057 32.6416 16.1337 32.6336 16.0621C32.6257 15.9907 32.6139 15.92 32.5983 15.8503C32.5823 15.7801 32.563 15.7113 32.5394 15.6438C32.5163 15.5764 32.4893 15.5108 32.4587 15.4469C32.4279 15.3827 32.3939 15.3212 32.3564 15.2615C32.319 15.2017 32.2786 15.1453 32.2349 15.0906C32.1911 15.0363 32.1448 14.9853 32.0952 14.937C32.046 14.8887 31.9942 14.8436 31.9395 14.8021C31.8853 14.7606 31.8289 14.7223 31.7705 14.6882C31.712 14.654 31.6518 14.6235 31.5899 14.597C31.5277 14.5706 31.4646 14.5482 31.4003 14.53C31.3358 14.5118 31.2707 14.4976 31.2051 14.4876C31.139 14.4776 31.0729 14.4721 31.0061 14.4708C30.9396 14.4694 30.8736 14.4726 30.8071 14.4799C30.741 14.4867 30.6754 14.4986 30.6103 14.514C30.5454 14.53 30.4815 14.5496 30.4188 14.5737C30.3561 14.5979 30.2952 14.6257 30.2354 14.6576C30.1756 14.6895 30.118 14.7255 30.0621 14.7647C30.0065 14.8039 29.9531 14.8467 29.9022 14.8932C29.8513 14.9397 29.8029 14.989 29.7575 15.0414C29.712 15.0942 29.6696 15.1493 29.6301 15.2072C29.5905 15.2656 29.5543 15.3257 29.5219 15.3886C29.4891 15.451 29.4597 15.5157 29.4344 15.5823C29.4088 15.6489 29.3869 15.7167 29.3688 15.786H21.4543V14.6932H28.1384C28.1871 14.6932 28.2355 14.6882 28.2835 14.6777C28.3314 14.6672 28.3777 14.6521 28.4231 14.6316C28.4682 14.6115 28.5111 14.5865 28.5514 14.5574C28.5922 14.5277 28.6297 14.4945 28.6642 14.4571C28.6991 14.4197 28.7298 14.3792 28.7571 14.3349C28.7841 14.2912 28.8072 14.2447 28.8258 14.196C28.8447 14.1472 28.8585 14.0966 28.8682 14.0446C28.8779 13.9931 28.8825 13.9407 28.8825 13.8879V10.3728C28.9469 10.3533 29.0095 10.3296 29.071 10.3018C29.1324 10.274 29.1922 10.2425 29.2498 10.207C29.3078 10.1719 29.3638 10.1327 29.4172 10.0898C29.471 10.0475 29.5219 10.0015 29.5703 9.95224C29.6191 9.90301 29.6646 9.8506 29.7074 9.79541C29.7503 9.7403 29.7899 9.68243 29.8261 9.62228C29.8627 9.56214 29.8955 9.49964 29.925 9.43496C29.9544 9.3707 29.9805 9.30418 30.0023 9.2363C30.0246 9.16835 30.0432 9.09955 30.0574 9.02933C30.0721 8.95868 30.0827 8.88812 30.0895 8.81605C30.0962 8.74457 30.0991 8.673 30.0979 8.60101C30.0966 8.52894 30.0916 8.45695 30.0823 8.38587C30.073 8.31432 30.06 8.24414 30.0432 8.17442C30.0263 8.10469 30.0053 8.03633 29.9809 7.96933C29.9565 7.90234 29.9283 7.83717 29.8968 7.77383C29.8652 7.71049 29.8299 7.64942 29.7916 7.59063C29.7533 7.53183 29.7116 7.47578 29.6671 7.42246C29.6225 7.36914 29.575 7.31856 29.5249 7.27161C29.4748 7.22422 29.4222 7.18047 29.3671 7.13991C29.312 7.09935 29.2548 7.06243 29.1959 7.02917C29.1366 6.99635 29.076 6.96719 29.0137 6.94167C28.9515 6.9166 28.888 6.89564 28.8232 6.87832C28.7588 6.86146 28.6932 6.8487 28.6272 6.84004C28.5612 6.83138 28.4946 6.82728 28.4282 6.82728C28.3617 6.82728 28.2952 6.83138 28.2292 6.84004C28.1632 6.8487 28.098 6.86146 28.0332 6.87832C27.9684 6.89564 27.9053 6.9166 27.8426 6.94167C27.7804 6.96719 27.7198 6.99635 27.6604 7.02917C27.6015 7.06243 27.5443 7.09935 27.4897 7.13991C27.4345 7.18047 27.382 7.22422 27.3315 7.27161C27.2814 7.31856 27.2339 7.36914 27.1893 7.42246C27.1447 7.47578 27.1035 7.53183 27.0648 7.59063C27.0265 7.64942 26.9916 7.71049 26.9596 7.77383C26.928 7.83717 26.8999 7.90234 26.8754 7.96933C26.8511 8.03633 26.8305 8.10469 26.8132 8.17442C26.7964 8.24414 26.7834 8.31432 26.7746 8.38587C26.7652 8.45695 26.7598 8.52894 26.7589 8.60101C26.7577 8.673 26.7602 8.74457 26.7669 8.81605C26.7737 8.88812 26.7842 8.95868 26.7989 9.02933C26.8136 9.09955 26.8318 9.16835 26.854 9.2363C26.8763 9.30418 26.902 9.3707 26.9315 9.43496C26.9609 9.49964 26.9941 9.56214 27.0303 9.62228C27.0669 9.68243 27.1064 9.7403 27.1489 9.79541C27.1918 9.8506 27.2377 9.90301 27.286 9.95224C27.3344 10.0015 27.3857 10.0475 27.4392 10.0898C27.493 10.1327 27.5485 10.1719 27.6066 10.207C27.6646 10.2425 27.7244 10.274 27.7858 10.3018C27.8472 10.3296 27.9099 10.3533 27.9738 10.3728V13.7101H21.4543V12.6164H24.8474C24.8962 12.6164 24.9446 12.6114 24.9926 12.6009C25.0405 12.5909 25.0867 12.5754 25.1322 12.5553C25.1772 12.5348 25.2201 12.5102 25.2605 12.4806C25.3013 12.4514 25.3387 12.4177 25.3737 12.3803C25.4082 12.343 25.4389 12.3024 25.4663 12.2586C25.4931 12.2144 25.5163 12.1684 25.5348 12.1192C25.5537 12.0705 25.5676 12.0203 25.5773 11.9683C25.587 11.9164 25.592 11.864 25.592 11.8112V8.29701C25.6559 8.27741 25.7186 8.25371 25.7801 8.22591C25.8415 8.19857 25.9012 8.16666 25.9593 8.13158C26.0173 8.09603 26.0728 8.05683 26.1267 8.01399C26.1801 7.97162 26.2314 7.92558 26.2798 7.87637C26.3286 7.82714 26.374 7.77474 26.417 7.7196C26.4599 7.66445 26.4994 7.60658 26.5356 7.54642C26.5722 7.48626 26.605 7.42383 26.6344 7.35911C26.6638 7.2944 26.69 7.22832 26.7122 7.16042C26.7342 7.09251 26.7526 7.02324 26.7673 6.95306C26.7817 6.88288 26.7922 6.81179 26.7989 6.74024C26.8056 6.66868 26.8086 6.59668 26.8073 6.52467C26.8061 6.45267 26.801 6.38112 26.7918 6.30957C26.7825 6.23848 26.7694 6.16784 26.7526 6.09811C26.7358 6.02839 26.7152 5.96003 26.6904 5.89304C26.6659 5.82604 26.6382 5.76087 26.6062 5.69753C26.5747 5.63418 26.5398 5.57311 26.5011 5.51432C26.4628 5.45553 26.4212 5.39948 26.3766 5.34616C26.332 5.29284 26.2844 5.24226 26.2344 5.19485C26.1843 5.14746 26.1317 5.10371 26.0766 5.06315C26.0215 5.0226 25.9643 4.98613 25.9054 4.95287C25.8461 4.91959 25.7855 4.89043 25.7233 4.86536C25.6606 4.83984 25.597 4.81888 25.5327 4.80202C25.4679 4.7847 25.4027 4.77194 25.3362 4.76328C25.2702 4.75508 25.2042 4.75052 25.1372 4.75052C25.0708 4.75052 25.0048 4.75508 24.9383 4.76328C24.8722 4.77194 24.807 4.7847 24.7423 4.80202C24.6779 4.81888 24.6143 4.83984 24.5517 4.86536C24.4894 4.89043 24.4289 4.91959 24.3696 4.95287C24.3107 4.98613 24.2535 5.0226 24.1983 5.06315C24.1432 5.10371 24.0906 5.14746 24.0405 5.19485C23.9905 5.24226 23.943 5.29284 23.8984 5.34616C23.8538 5.39948 23.8121 5.45553 23.7738 5.51432C23.7352 5.57311 23.7002 5.63418 23.6687 5.69753C23.6367 5.76087 23.6089 5.82604 23.5846 5.89304C23.5597 5.96003 23.5391 6.02839 23.5223 6.09811C23.5054 6.16784 23.4924 6.23848 23.4832 6.30957C23.4739 6.38112 23.4689 6.45267 23.4676 6.52467C23.4664 6.59668 23.4693 6.66868 23.476 6.74024C23.4823 6.81179 23.4933 6.88288 23.5075 6.95306C23.5223 7.02324 23.5408 7.09251 23.5627 7.16042C23.585 7.22832 23.611 7.2944 23.6405 7.35911C23.6699 7.42383 23.7028 7.48626 23.7394 7.54642C23.7755 7.60658 23.8151 7.66445 23.858 7.7196C23.9009 7.77474 23.9464 7.82714 23.9952 7.87637C24.0436 7.92558 24.0948 7.97162 24.1483 8.01399C24.2021 8.05683 24.2577 8.09603 24.3157 8.13158C24.3738 8.16666 24.4335 8.19857 24.4949 8.22591C24.5563 8.25371 24.619 8.27741 24.683 8.29701ZM15.1387 26.5431C15.0958 26.5795 15.0499 26.6114 15.0015 26.6388C14.9532 26.6661 14.9031 26.6884 14.8509 26.7057C14.7988 26.7235 14.7458 26.7358 14.6915 26.7427C14.6373 26.75 14.583 26.7513 14.5287 26.7476C14.474 26.7445 14.4202 26.7354 14.3672 26.7212C14.3142 26.7071 14.2629 26.688 14.2132 26.6638C14.1636 26.6397 14.116 26.6104 14.071 26.5772C14.026 26.5435 13.9844 26.5061 13.9457 26.4642L11.587 23.9117C11.5483 23.8702 11.5133 23.8246 11.4826 23.7763C11.4515 23.7276 11.4246 23.6761 11.4023 23.6222C11.38 23.5685 11.3623 23.5129 11.3493 23.4555C11.3358 23.398 11.3278 23.3402 11.3245 23.2809C11.3211 23.2221 11.3228 23.1633 11.3291 23.1045C11.3358 23.0457 11.3472 22.9884 11.3632 22.9318C11.3791 22.8753 11.4002 22.8211 11.4254 22.7687C11.4507 22.7163 11.4801 22.6666 11.5138 22.6201L12.5457 21.1905C12.2411 20.578 11.9963 19.9386 11.8112 19.2728L10.1474 19.0518C10.0932 19.0445 10.0401 19.0317 9.98798 19.0139C9.93624 18.9962 9.88575 18.9738 9.8378 18.946C9.78942 18.9186 9.74399 18.8868 9.70108 18.8504C9.65817 18.8139 9.61863 18.7733 9.58246 18.7291C9.54628 18.6849 9.51388 18.6375 9.4857 18.5869C9.45751 18.5364 9.43395 18.4834 9.41461 18.4283C9.39525 18.3732 9.38053 18.3167 9.37085 18.2583C9.36075 18.2004 9.35571 18.1416 9.35571 18.0828V14.4721C9.35571 14.4133 9.36075 14.3546 9.37085 14.2967C9.38053 14.2383 9.39525 14.1818 9.41461 14.1267C9.43395 14.0715 9.45751 14.0187 9.4857 13.9681C9.51388 13.9175 9.54628 13.8701 9.58246 13.8259C9.61863 13.7817 9.65817 13.7416 9.70108 13.7051C9.74399 13.6686 9.78942 13.6363 9.8378 13.609C9.88575 13.5816 9.93624 13.5589 9.98798 13.5411C10.0401 13.5233 10.0932 13.511 10.1474 13.5037L11.8112 13.2827C11.9963 12.6164 12.2411 11.9775 12.5457 11.3645L11.5138 9.93535C11.4801 9.8884 11.4507 9.83917 11.4254 9.78676C11.4002 9.73434 11.3791 9.68016 11.3632 9.62363C11.3472 9.5671 11.3358 9.50972 11.3291 9.45092C11.3228 9.39212 11.3211 9.33332 11.3245 9.27452C11.3278 9.2153 11.3358 9.15743 11.3493 9.09997C11.3623 9.0426 11.38 8.98699 11.4023 8.93323C11.4246 8.87939 11.4515 8.8279 11.4826 8.77918C11.5133 8.73088 11.5483 8.68526 11.587 8.64385L13.9457 6.09082C13.9844 6.04935 14.026 6.01153 14.071 5.97825C14.116 5.94453 14.1636 5.91582 14.2132 5.89167C14.2629 5.86752 14.3142 5.84837 14.3672 5.83424C14.4202 5.82012 14.474 5.811 14.5287 5.80736C14.583 5.80416 14.6373 5.80553 14.6915 5.81283C14.7458 5.81966 14.7988 5.83197 14.8509 5.84974C14.9031 5.86706 14.9532 5.88939 15.0015 5.91673C15.0499 5.94407 15.0958 5.97598 15.1387 6.01198L16.46 7.12942C17.0263 6.79993 17.6169 6.53516 18.2323 6.33463L18.4368 4.53405C18.4435 4.47526 18.4549 4.41784 18.4712 4.36178C18.4877 4.30528 18.5083 4.25104 18.534 4.19863C18.5592 4.14668 18.5891 4.09701 18.6227 4.05052C18.6564 4.00449 18.6934 3.96165 18.7346 3.92246C18.7754 3.88327 18.8192 3.84864 18.8659 3.8181C18.9126 3.78757 18.9614 3.76159 19.0127 3.74062C19.0636 3.71966 19.1158 3.70416 19.1696 3.69323C19.223 3.68274 19.2773 3.67728 19.332 3.67728H21C21.0298 3.67728 21.0593 3.68047 21.0887 3.68685C21.1182 3.69323 21.1463 3.70234 21.1741 3.71465C21.2014 3.72741 21.2275 3.74245 21.2523 3.76022C21.2772 3.77799 21.3003 3.79851 21.3214 3.82129C21.3424 3.84408 21.3613 3.86914 21.3777 3.89603C21.3945 3.92292 21.4084 3.95117 21.4198 3.98079C21.4312 4.01087 21.44 4.04141 21.4459 4.07331C21.4513 4.10475 21.4543 4.13666 21.4543 4.16901V9.74215C21.4543 9.77449 21.4513 9.80641 21.4459 9.83783C21.44 9.86975 21.4312 9.90024 21.4198 9.93031C21.4084 9.95996 21.3945 9.98819 21.3777 10.0151C21.3613 10.042 21.3424 10.0671 21.3214 10.0898C21.3003 10.1126 21.2772 10.1327 21.2523 10.1509C21.2275 10.1687 21.2014 10.1837 21.1741 10.1965C21.1463 10.2088 21.1182 10.2179 21.0887 10.2243C21.0593 10.2307 21.0298 10.2339 21 10.2339C20.8174 10.2339 20.6348 10.2435 20.4526 10.263C20.2709 10.2826 20.09 10.3118 19.9108 10.3505C19.7316 10.3888 19.5541 10.4371 19.3791 10.4945C19.2045 10.5519 19.0324 10.6189 18.8634 10.6946C18.6947 10.7702 18.5293 10.855 18.3682 10.9485C18.2071 11.0419 18.0502 11.1435 17.8983 11.2533C17.7461 11.3632 17.5997 11.4812 17.4583 11.6065C17.3169 11.7323 17.1815 11.8649 17.0523 12.0049C16.9232 12.1452 16.8004 12.2915 16.6842 12.4446C16.5686 12.5972 16.4596 12.7563 16.3582 12.9208C16.2564 13.0854 16.1626 13.2549 16.0764 13.4294C15.9901 13.604 15.9124 13.7826 15.842 13.9653C15.7722 14.1481 15.7108 14.3345 15.6578 14.5236C15.6048 14.7132 15.5602 14.905 15.5244 15.0993C15.4892 15.2929 15.4622 15.4884 15.4441 15.6857C15.4264 15.8826 15.4172 16.08 15.4172 16.2778C15.4172 16.4755 15.4264 16.6733 15.4441 16.8702C15.4622 17.067 15.4892 17.2626 15.5244 17.4567C15.5602 17.6508 15.6048 17.8423 15.6578 18.0319C15.7108 18.2209 15.7722 18.4073 15.842 18.5901C15.9124 18.7728 15.9901 18.9515 16.0764 19.126C16.1626 19.3006 16.2564 19.4701 16.3582 19.6347C16.4596 19.7991 16.5686 19.9582 16.6842 20.1114C16.8004 20.264 16.9232 20.4107 17.0523 20.5507C17.1815 20.6905 17.3169 20.8232 17.4583 20.9489C17.5997 21.0743 17.7461 21.1924 17.8983 21.3021C18.0502 21.4124 18.2071 21.5141 18.3682 21.6071C18.5293 21.7005 18.6947 21.7852 18.8634 21.8608C19.0324 21.9365 19.2045 22.0035 19.3791 22.0609C19.5541 22.1184 19.7316 22.1667 19.9108 22.2054C20.09 22.2441 20.2709 22.2729 20.4526 22.2924C20.6348 22.3121 20.8174 22.3217 21 22.3221C21.0298 22.3221 21.0593 22.3248 21.0887 22.3311C21.1182 22.3375 21.1463 22.3471 21.1741 22.3595C21.2014 22.3717 21.2275 22.3868 21.2523 22.4046C21.2772 22.4228 21.3003 22.4429 21.3214 22.4661C21.3424 22.4889 21.3613 22.5135 21.3777 22.5404C21.3945 22.5673 21.4084 22.5955 21.4198 22.6256C21.4312 22.6552 21.44 22.6862 21.4459 22.7176C21.4513 22.7496 21.4543 22.7815 21.4543 22.8138V28.3865C21.4547 28.4188 21.4517 28.4507 21.4459 28.4826C21.44 28.5141 21.4316 28.545 21.4202 28.5747C21.4088 28.6048 21.3945 28.633 21.3781 28.6599C21.3617 28.6868 21.3428 28.7114 21.3218 28.7342C21.3003 28.7574 21.2776 28.7775 21.2527 28.7957C21.228 28.8135 21.2014 28.8285 21.1741 28.8408C21.1463 28.8532 21.1182 28.8627 21.0887 28.8691C21.0593 28.875 21.0298 28.8782 21 28.8782H19.332C19.2773 28.8782 19.223 28.8727 19.1696 28.8622C19.1158 28.8513 19.0636 28.8358 19.0127 28.8149C18.9614 28.7939 18.9126 28.7683 18.8659 28.7378C18.8192 28.7073 18.7754 28.6722 18.7346 28.633C18.6934 28.5943 18.6564 28.5514 18.6227 28.505C18.5891 28.4584 18.5592 28.4092 18.534 28.3568C18.5083 28.3044 18.4877 28.2502 18.4712 28.1942C18.4549 28.1376 18.4435 28.0802 18.4368 28.0214L18.2323 26.2213C17.6169 26.0208 17.0259 25.756 16.46 25.426L15.1387 26.5431ZM13.2629 28.2825C13.0311 28.1125 12.804 27.9349 12.5819 27.7498C12.3602 27.5643 12.1435 27.372 11.9323 27.1728C11.7212 26.9732 11.5159 26.7673 11.316 26.554C11.1166 26.3411 10.9231 26.1219 10.7359 25.8959C10.5487 25.6703 10.3683 25.4388 10.1941 25.2009C10.02 24.9635 9.85252 24.7201 9.69224 24.4713C9.53155 24.2225 9.37843 23.9691 9.23203 23.7103C9.08606 23.4514 8.94724 23.1879 8.81599 22.92C8.68474 22.652 8.56106 22.38 8.44537 22.1038C8.32927 21.8276 8.22115 21.5478 8.12103 21.2648C8.02091 20.9814 7.92836 20.6951 7.84466 20.4057C7.76052 20.1163 7.68438 19.8247 7.61707 19.5303C7.54934 19.2358 7.49002 18.9396 7.43912 18.6416C7.38822 18.3431 7.34573 18.0437 7.31166 17.7425C7.27759 17.4412 7.25193 17.1395 7.23509 16.8369C7.21785 16.5339 7.20944 16.2308 7.20944 15.9277C7.20944 7.69863 13.3959 1.00397 21.0004 1.00397C28.6044 1.00397 34.7908 7.69863 34.7908 15.9277C34.7908 16.2308 34.782 16.5339 34.7652 16.8369C34.7479 17.1395 34.7227 17.4412 34.6886 17.7425C34.6546 18.0437 34.6121 18.3431 34.5612 18.6416C34.5103 18.9396 34.451 19.2358 34.3832 19.5303C34.3155 19.8247 34.2398 20.1163 34.1556 20.4057C34.0716 20.6951 33.9794 20.9814 33.8793 21.2648C33.7792 21.5478 33.671 21.8276 33.555 22.1038C33.4388 22.38 33.3151 22.652 33.1839 22.92C33.0526 23.1879 32.9142 23.4514 32.7679 23.7103C32.6219 23.9691 32.4683 24.2225 32.3081 24.4713C32.1478 24.7201 31.9804 24.9635 31.8062 25.2009C31.632 25.4388 31.4516 25.6703 31.2644 25.8959C31.0771 26.1219 30.8837 26.3411 30.6838 26.554C30.4844 26.7673 30.2791 26.9732 30.0679 27.1728C29.8568 27.372 29.6401 27.5643 29.418 27.7498C29.1964 27.9349 28.9691 28.1125 28.737 28.2825C28.5624 28.407 28.4042 28.5533 28.2633 28.7205C28.1223 28.8882 28.0029 29.0719 27.9049 29.2724C27.8068 29.4725 27.7337 29.6826 27.6844 29.9032C27.6352 30.1232 27.6125 30.3465 27.6155 30.5731V31.5246H14.3849V30.5731C14.3878 30.3465 14.3647 30.1232 14.3159 29.9027C14.2666 29.6826 14.193 29.4725 14.095 29.2724C13.997 29.0719 13.8775 28.8882 13.7366 28.7205C13.5957 28.5528 13.4379 28.407 13.2629 28.2825ZM29.2477 29.096C29.134 29.1758 29.0315 29.2692 28.9402 29.3772C28.8489 29.4853 28.7715 29.6037 28.7083 29.7327C28.6452 29.8621 28.5977 29.9979 28.5666 30.1401C28.5355 30.2828 28.5216 30.4267 28.5245 30.5731V31.6677C28.6595 31.7151 28.7908 31.7739 28.9174 31.8436C29.0441 31.9134 29.1652 31.9936 29.2804 32.0842C29.3953 32.1745 29.5035 32.2743 29.6039 32.3828C29.7045 32.4917 29.7966 32.6083 29.8804 32.7328C29.9636 32.8572 30.0381 32.988 30.1025 33.1251C30.1672 33.2623 30.2215 33.404 30.2653 33.5504C30.3094 33.6971 30.3427 33.8461 30.365 33.9983C30.3868 34.15 30.3982 34.3032 30.3982 34.4572C30.3982 34.6108 30.3868 34.7639 30.365 34.9161C30.3427 35.0679 30.3094 35.2169 30.2653 35.3637C30.2215 35.51 30.1672 35.6517 30.1025 35.7889C30.0381 35.926 29.9636 36.0568 29.8804 36.1812C29.7966 36.3056 29.7045 36.4223 29.6039 36.5313C29.5035 36.6397 29.3953 36.7395 29.2804 36.8297C29.1652 36.9204 29.0441 37.0007 28.9174 37.0704C28.7908 37.1401 28.6595 37.1989 28.5245 37.2463V37.249C28.5241 37.4039 28.517 37.5585 28.503 37.7125C28.4887 37.8665 28.4677 38.0197 28.4395 38.1719C28.4114 38.3237 28.3769 38.4736 28.3352 38.6221C28.2935 38.7703 28.2452 38.9156 28.19 39.0587C28.1354 39.2018 28.0744 39.3417 28.0067 39.4785C27.939 39.6152 27.8657 39.7478 27.7858 39.8767C27.7063 40.0053 27.6214 40.1297 27.5305 40.2495C27.4396 40.369 27.3437 40.4838 27.2423 40.5932C27.141 40.703 27.0349 40.8069 26.9242 40.9053C26.8136 41.0033 26.6988 41.0958 26.5798 41.182C26.4607 41.2681 26.3383 41.3474 26.2121 41.4207C26.0858 41.4936 25.9567 41.5598 25.8242 41.619C25.6921 41.6787 25.5575 41.7307 25.4204 41.7758C25.2836 41.8209 25.1448 41.8587 25.0043 41.8888C24.8638 41.9194 24.7224 41.9421 24.5803 41.9576C24.4377 41.9726 24.2946 41.9804 24.1517 41.9808H17.8487C17.7057 41.9804 17.5626 41.9726 17.42 41.9576C17.2779 41.9421 17.1365 41.9194 16.996 41.8888C16.8555 41.8587 16.7167 41.8209 16.5799 41.7758C16.4428 41.7307 16.3082 41.6787 16.1761 41.619C16.0436 41.5598 15.9145 41.4936 15.7882 41.4207C15.662 41.3474 15.5392 41.2677 15.4201 41.182C15.3015 41.0958 15.1867 41.0033 15.0756 40.9053C14.965 40.8069 14.8594 40.703 14.758 40.5932C14.6566 40.4838 14.5607 40.3694 14.4698 40.2495C14.379 40.1297 14.2936 40.0053 14.2141 39.8767C14.1346 39.7478 14.0609 39.6152 13.9936 39.4785C13.9259 39.3417 13.8645 39.2023 13.8098 39.0592C13.7551 38.9161 13.7067 38.7703 13.6651 38.6221C13.6234 38.4736 13.5885 38.3237 13.5603 38.1719C13.5326 38.0197 13.5111 37.8665 13.4972 37.7125C13.4829 37.5585 13.4758 37.4039 13.4754 37.249V37.2463C13.3403 37.1989 13.2091 37.1401 13.0825 37.0704C12.9558 37.0002 12.8351 36.9204 12.7198 36.8297C12.6046 36.7395 12.4969 36.6397 12.3963 36.5308C12.2958 36.4223 12.2037 36.3056 12.12 36.1812C12.0362 36.0564 11.9622 35.9256 11.8978 35.7885C11.8331 35.6517 11.7788 35.51 11.735 35.3632C11.6909 35.2169 11.6581 35.0679 11.6358 34.9157C11.6135 34.7639 11.6021 34.6108 11.6021 34.4572C11.6021 34.3032 11.6135 34.15 11.6358 33.9983C11.6581 33.8461 11.6909 33.6971 11.735 33.5508C11.7788 33.404 11.8331 33.2623 11.8978 33.1256C11.9622 32.9884 12.0362 32.8576 12.12 32.7332C12.2037 32.6083 12.2958 32.4917 12.3963 32.3832C12.4969 32.2743 12.6046 32.1745 12.7198 32.0842C12.8351 31.9936 12.9558 31.9138 13.0825 31.8436C13.2091 31.7739 13.3403 31.7151 13.4754 31.6677V30.5731C13.4783 30.4267 13.4644 30.2828 13.4333 30.1401C13.4022 29.9979 13.3546 29.8621 13.2915 29.7331C13.228 29.6037 13.151 29.4853 13.0597 29.3772C12.9685 29.2696 12.8658 29.1758 12.7526 29.0965C12.5053 28.9151 12.2634 28.7256 12.0266 28.5282C11.7901 28.3308 11.5592 28.1258 11.3341 27.9135C11.1091 27.7006 10.8899 27.4809 10.6775 27.254C10.4646 27.027 10.2585 26.7932 10.0591 26.5526C9.85967 26.312 9.66701 26.0649 9.48149 25.8116C9.29597 25.5582 9.11761 25.2994 8.94639 25.0341C8.7756 24.7689 8.61196 24.4986 8.45631 24.2225C8.30066 23.9467 8.15258 23.666 8.01292 23.3803C7.87284 23.095 7.74117 22.8047 7.61749 22.5107C7.49381 22.2163 7.37855 21.9183 7.27211 21.6161C7.16526 21.3144 7.06683 21.0092 6.97722 20.7006C6.88762 20.3925 6.80685 20.0813 6.73492 19.7677C6.66256 19.4537 6.59946 19.1379 6.54519 18.8203C6.49093 18.5022 6.44591 18.1827 6.40931 17.8618C6.37314 17.541 6.34579 17.2192 6.3277 16.8966C6.30962 16.574 6.30078 16.2508 6.30078 15.9277C6.30078 7.15586 12.8948 0.0205078 21 0.0205078C29.1055 0.0205078 35.6991 7.15586 35.6991 15.9277C35.6991 16.2508 35.6898 16.574 35.6718 16.8966C35.6537 17.2192 35.6263 17.541 35.5901 17.8618C35.554 18.1827 35.5085 18.5022 35.4543 18.8203C35.4 19.1379 35.3369 19.4537 35.2649 19.7677C35.193 20.0813 35.1122 20.3925 35.0227 20.7006C34.9331 21.0092 34.8346 21.3144 34.7278 21.6161C34.6213 21.9183 34.5061 22.2163 34.3824 22.5107C34.2587 22.8047 34.1271 23.095 33.987 23.3803C33.8473 23.666 33.6992 23.9467 33.5435 24.2229C33.388 24.4986 33.2242 24.7689 33.0535 25.0341C32.8823 25.2994 32.7043 25.5582 32.5184 25.8116C32.3328 26.0649 32.1406 26.312 31.9408 26.5526C31.7414 26.7932 31.5353 27.027 31.3224 27.254C31.11 27.4809 30.8912 27.701 30.6658 27.9135C30.4407 28.1258 30.2102 28.3308 29.9733 28.5282C29.7369 28.7256 29.4946 28.9151 29.2477 29.096Z" fill="#00D280"/>
</g>
</g>
</g>
<defs>
<clipPath id="clip0_3_1630">
<rect width="42" height="42" fill="white"/>
</clipPath>
<clipPath id="clip1_3_1630">
<rect width="29.4" height="42" fill="white" transform="translate(6.30005)"/>
</clipPath>
</defs>
</svg>
