<svg width="42" height="42" viewBox="0 0 42 42" fill="none" xmlns="http://www.w3.org/2000/svg">
<g clip-path="url(#clip0_3_1652)">
<g clip-path="url(#clip1_3_1652)">
<mask id="mask0_3_1652" style="mask-type:luminance" maskUnits="userSpaceOnUse" x="0" y="0" width="42" height="42">
<path d="M0 0H42V41.9817H0V0Z" fill="white"/>
</mask>
<g mask="url(#mask0_3_1652)">
<path d="M41.7729 20.7727C41.7729 20.7645 41.7646 20.7562 41.7646 20.7485L35.007 4.72933L28.4874 7.42751C28.5688 6.66595 28.5688 5.58821 28.1521 4.81073C28.0861 4.68921 28.0136 4.57241 27.9346 4.45915C27.8555 4.34648 27.7699 4.23853 27.6778 4.1353C27.5856 4.03266 27.4881 3.93474 27.3847 3.8433C27.2813 3.75127 27.1731 3.66574 27.0596 3.58669C26.946 3.50706 26.8283 3.4345 26.7065 3.36902C26.5846 3.30296 26.4592 3.24456 26.3308 3.19324C26.2018 3.14191 26.0705 3.09767 25.9366 3.06169C25.8023 3.02512 25.6668 2.9968 25.5295 2.97615C25.3922 2.95551 25.2543 2.94312 25.1158 2.9384C24.9767 2.93368 24.8382 2.93663 24.6997 2.94784C24.5617 2.95904 24.4245 2.97793 24.2883 3.00506C24.1522 3.03219 24.0178 3.067 23.8859 3.10947C23.7539 3.15194 23.6244 3.20149 23.4983 3.25871C23.3723 3.31593 23.2498 3.38024 23.131 3.45161C23.0121 3.52299 22.8979 3.60085 22.7886 3.68579C22.6792 3.77016 22.5745 3.86041 22.4759 3.95715C22.3772 4.05389 22.2839 4.15535 22.1971 4.26272C22.1104 4.37008 22.0295 4.48157 21.9558 4.59836C21.882 4.71458 21.8155 4.83491 21.7555 4.95879C21.696 5.08326 21.6437 5.21009 21.5985 5.34045C21.5539 5.47082 21.5165 5.60296 21.4873 5.73745C21.4583 5.87195 21.4368 6.00763 21.4232 6.14448C21.4101 6.28134 21.4048 6.4182 21.4071 6.55564C21.4101 6.69309 21.4208 6.82994 21.4398 6.96621C21.4583 7.10247 21.485 7.23756 21.5195 7.37087C21.5539 7.5036 21.5961 7.63456 21.6461 7.76315C21.696 7.89116 21.7531 8.01622 21.8179 8.13774C21.8826 8.25985 21.954 8.37724 22.0325 8.49106C22.1109 8.60437 22.1954 8.7129 22.2868 8.81673C22.3778 8.92055 22.4747 9.01849 22.577 9.11106C22.6798 9.20371 22.7874 9.2904 22.9003 9.37062C23.0133 9.45084 23.1304 9.52459 23.2517 9.59121L16.2813 12.4675C16.1238 11.9768 15.892 11.5231 15.5865 11.1061C15.6744 11.0583 15.7535 10.9993 15.8236 10.928C15.911 10.8436 15.9788 10.7463 16.0269 10.6353C16.0751 10.5244 16.1001 10.4089 16.1018 10.2879L16.0692 7.61391H16.6249C16.7599 7.61214 16.8746 7.56377 16.9686 7.46821C17.069 7.37324 17.1183 7.25703 17.116 7.11958L17.0179 0.0219574L16.0359 0.0378846L16.1262 6.64176L3.0125 6.73909L2.92214 0.0219574L1.94074 0.0378846L2.0305 7.24109C2.03228 7.30481 2.04596 7.36557 2.07152 7.42396C2.09708 7.48237 2.13275 7.53368 2.17852 7.57852C2.22429 7.62276 2.27719 7.65757 2.33663 7.68175C2.39548 7.70593 2.45731 7.71891 2.5215 7.7195H3.09393C3.09393 7.74369 3.12663 10.3935 3.12663 10.3935C3.13139 10.5386 3.16824 10.6749 3.2372 10.8035C3.30615 10.9315 3.40066 11.0377 3.51954 11.1226L3.15992 11.6895C3.02082 11.9083 2.83239 12.4511 2.83239 12.4511H2.82407L1.39268 17.7424L1.76895 18.8927L1.23694 19.1275C0.990254 19.2354 0.773878 19.3864 0.587818 19.5806C0.40236 19.774 0.26148 19.9958 0.165776 20.2459C0.071262 20.4955 0.0278692 20.7538 0.036785 21.0205C0.0451077 21.2871 0.10455 21.542 0.21452 21.7856L7.48737 37.8773L14.3019 34.8547C14.4255 34.8022 14.5266 34.7226 14.6056 34.6146C14.6848 34.5073 14.7311 34.3875 14.7436 34.2548C14.7567 34.1221 14.7341 33.9958 14.677 33.8754C14.6199 33.7551 14.5355 33.6572 14.4244 33.5829C13.5493 32.9753 12.9436 32.3187 12.7641 31.7837C12.7297 31.684 12.7017 31.5826 12.6803 31.4793C12.6589 31.3761 12.6435 31.2717 12.6352 31.1667C12.6262 31.0611 12.6244 30.9561 12.6286 30.8505C12.6333 30.7455 12.6441 30.6405 12.6613 30.5367C12.6785 30.4323 12.7023 30.3296 12.7326 30.2287C12.7629 30.1273 12.7992 30.0282 12.8414 29.9315C12.8836 29.8347 12.9318 29.7409 12.9859 29.6501C13.04 29.5592 13.0993 29.4719 13.1642 29.3882C13.229 29.3044 13.2991 29.2254 13.3734 29.1498C13.4483 29.0749 13.5273 29.0041 13.6106 28.9387C13.6944 28.8732 13.7812 28.813 13.8721 28.7582C13.9631 28.7027 14.057 28.6537 14.1539 28.6101C14.2508 28.5664 14.35 28.5287 14.4517 28.4974C14.5534 28.4661 14.6568 28.4408 14.7614 28.4219C14.8666 28.403 14.9719 28.3901 15.0782 28.3841C15.1846 28.3782 15.2911 28.3782 15.3968 28.3853C15.5033 28.3918 15.6091 28.4054 15.7137 28.4248C15.8183 28.4443 15.9212 28.4703 16.0228 28.5027C16.1238 28.5345 16.2231 28.5729 16.32 28.6171C16.4162 28.6614 16.5102 28.7115 16.6005 28.767C16.6909 28.8224 16.7777 28.8831 16.8609 28.9493C16.9435 29.0153 17.0226 29.0867 17.0963 29.1622C17.1707 29.2377 17.2402 29.3179 17.3044 29.4017C17.3686 29.4861 17.4274 29.574 17.4809 29.6648C17.5344 29.7562 17.582 29.8506 17.6236 29.9473C17.6652 30.0447 17.7009 30.1438 17.73 30.2453C17.7597 30.3467 17.7828 30.4493 17.7996 30.5532C17.8162 30.6576 17.8263 30.7626 17.8299 30.8676C17.8334 30.9732 17.8311 31.0787 17.8215 31.1837C17.812 31.2887 17.7965 31.3926 17.7739 31.4958C17.7519 31.599 17.7235 31.7005 17.6883 31.8002C17.6539 31.8999 17.6129 31.9973 17.566 32.0916C17.535 32.1542 17.5148 32.2202 17.5047 32.2887C17.494 32.3576 17.4946 32.4267 17.5053 32.4951C17.516 32.5641 17.5374 32.6296 17.5683 32.6915C17.5992 32.7541 17.639 32.8101 17.6878 32.8609C17.7366 32.911 17.7912 32.9529 17.8531 32.9865C17.9142 33.0201 17.9797 33.0438 18.048 33.0573C18.1169 33.0715 18.1865 33.075 18.256 33.0673C18.3262 33.0602 18.3934 33.0432 18.4575 33.0154L24.1189 30.5036C24.3947 30.3857 24.6158 30.2016 24.7811 29.9526L25.6406 29.6046C25.6894 30.0057 25.7886 30.3945 25.9385 30.7703C26.0883 31.1466 26.2832 31.4982 26.524 31.8244C26.4354 31.8751 26.3563 31.9371 26.2868 32.0108C26.1976 32.0957 26.1287 32.1943 26.0805 32.3069C26.0324 32.419 26.008 32.537 26.0086 32.6591L26.0496 35.3249H25.4932C25.3583 35.3266 25.2436 35.375 25.1496 35.4705C25.1009 35.5154 25.0646 35.5685 25.0403 35.6292C25.0159 35.6906 25.0058 35.7537 25.0105 35.8192L25.1003 41.9364H26.0823L25.992 36.3052L39.1057 36.1996L39.196 41.9446H40.1774L40.0877 35.7136C40.0859 35.6499 40.0722 35.5885 40.0472 35.5296C40.0217 35.4705 39.9861 35.4186 39.9403 35.3732C39.8945 35.3284 39.8422 35.293 39.7827 35.2677C39.7233 35.2423 39.6615 35.2293 39.5966 35.2275H39.0243C39.0243 35.2116 39.0326 35.1868 39.0326 35.1709L38.9915 32.5618C38.9915 32.4155 38.9565 32.2774 38.8869 32.1488C38.8174 32.0196 38.7217 31.914 38.5986 31.8326C38.787 31.533 38.9339 31.3059 38.9588 31.2575C39.101 31.0422 39.2044 30.8098 39.2697 30.5603L39.2858 30.5036H39.2941L40.7255 25.2046L40.2024 23.5682L40.6767 23.3736C40.7992 23.324 40.9151 23.2632 41.0256 23.1907C41.1357 23.1187 41.2379 23.0362 41.3318 22.9441C41.4257 22.8521 41.5096 22.7518 41.5832 22.6427C41.657 22.5342 41.7194 22.4197 41.7705 22.2988C41.8216 22.1778 41.8597 22.0534 41.8858 21.9248C41.9119 21.7967 41.925 21.667 41.9256 21.536C41.9256 21.405 41.9126 21.2753 41.887 21.1467C41.8614 21.0181 41.8234 20.8937 41.7729 20.7727ZM3.79774 12.6215C3.84054 12.4747 3.90295 12.3372 3.98617 12.2081C3.98617 12.2081 4.2394 11.8033 4.52591 11.3656L14.4737 11.2842C14.6865 11.5078 14.8696 11.7532 15.0224 12.0204C15.1763 12.2877 15.2964 12.569 15.382 12.8646L7.49568 16.3567L7.41366 16.4942C6.85727 17.467 5.8509 17.8964 5.84317 17.8964L5.48295 18.0421C5.48295 18.0421 6.04766 21.421 6.20281 22.4014C6.24858 22.6929 6.24501 22.9837 6.19211 23.2739C6.13861 23.5641 6.03874 23.8378 5.89191 24.0944C5.7867 24.2442 5.65236 24.361 5.48889 24.446C5.32543 24.5304 5.15185 24.5723 4.96758 24.5729C4.71376 24.5645 4.60735 24.4348 4.56693 24.3622L2.97149 19.4278L2.66892 18.4957L2.4151 17.7176L3.79774 12.6215ZM23.9388 29.4424C23.8829 29.5221 23.8098 29.5787 23.7177 29.6123L18.7031 31.841C18.7369 31.7076 18.7625 31.5725 18.7803 31.4368C18.7982 31.3006 18.8083 31.1637 18.8101 31.0262C18.8118 30.8894 18.8059 30.752 18.7916 30.6157C18.7774 30.4788 18.7554 30.3437 18.7251 30.2098C18.6953 30.0754 18.6573 29.9438 18.6121 29.814C18.5663 29.6843 18.5135 29.5574 18.4534 29.4341C18.3928 29.3103 18.3256 29.1905 18.2513 29.0749C18.177 28.9587 18.0962 28.8478 18.0088 28.741C17.9214 28.6343 17.828 28.5328 17.7288 28.4372C17.6295 28.3411 17.5249 28.2514 17.4155 28.1676C17.3056 28.0839 17.1914 28.006 17.0725 27.9358C16.9537 27.865 16.8312 27.8013 16.7046 27.7441C16.5785 27.6875 16.4496 27.6385 16.317 27.5966C16.1851 27.5548 16.0513 27.5205 15.9152 27.494C15.779 27.468 15.6418 27.4492 15.5038 27.4385C15.3653 27.4279 15.2274 27.425 15.089 27.4303C14.9499 27.4356 14.8125 27.4486 14.6752 27.4698C14.5385 27.491 14.4029 27.5199 14.2692 27.5565C14.1361 27.5931 14.0047 27.6368 13.8763 27.6887C13.7479 27.7406 13.6231 27.799 13.5012 27.865C13.38 27.9311 13.2622 28.0037 13.1493 28.0833C13.0363 28.1629 12.9281 28.2484 12.8253 28.3405C12.7225 28.4325 12.625 28.5298 12.5335 28.6331C12.442 28.7363 12.3564 28.8443 12.2779 28.9569C12.1988 29.0696 12.1269 29.187 12.0615 29.3079C11.9961 29.4288 11.9385 29.5533 11.8873 29.6813C11.8368 29.8093 11.794 29.9397 11.7584 30.0724C11.7233 30.2051 11.6954 30.3396 11.6757 30.4753C11.6561 30.611 11.6448 30.7479 11.6407 30.8853C11.6371 31.0221 11.6419 31.1596 11.6543 31.2959C11.6662 31.4327 11.687 31.5684 11.7149 31.7029C11.7435 31.8373 11.7791 31.9695 11.8231 32.0998C12.1013 32.9021 12.8456 33.6153 13.5244 34.1338L7.97004 36.5967L1.09784 21.3886C1.04018 21.2629 1.00987 21.1308 1.00689 20.9928C1.00392 20.8553 1.02889 20.722 1.08179 20.5945C1.13053 20.4659 1.20246 20.3521 1.29757 20.2518C1.39268 20.1521 1.50324 20.0748 1.62986 20.0188L2.06319 19.8248L3.66696 24.7751C3.72641 24.889 3.80012 24.9934 3.88869 25.0878C3.97666 25.1816 4.07594 25.263 4.1859 25.3309C4.29587 25.3981 4.41298 25.4506 4.53781 25.4866C4.66205 25.5231 4.78866 25.5426 4.91824 25.545C4.91824 25.545 6.19448 25.5692 6.71817 24.6053V24.5887C6.92325 24.2331 7.06294 23.8537 7.13725 23.4509C7.21214 23.0473 7.2169 22.6439 7.15211 22.2392C7.02906 21.4612 6.6938 19.4278 6.55471 18.6089C7.21869 18.2444 7.75843 17.7471 8.17451 17.1183L16.4781 13.4314C16.4781 13.4314 16.707 13.3022 16.8871 13.3424C17.0042 13.4014 17.0886 13.4905 17.1403 13.6102L19.7095 19.4278C19.7356 19.492 19.7713 19.551 19.8164 19.6047C19.861 19.6578 19.9133 19.7032 19.9734 19.7404C20.0328 19.7775 20.0964 19.8047 20.1647 19.8218C20.2325 19.8389 20.3021 19.8454 20.3722 19.8407C20.4418 19.8359 20.5096 19.8212 20.5749 19.797C20.6409 19.7723 20.7009 19.7387 20.7568 19.6962C20.8121 19.6531 20.8597 19.6035 20.9001 19.5469C20.9405 19.4903 20.972 19.4289 20.9934 19.3628C21.0207 19.2625 21.0535 19.1647 21.0927 19.0685C21.1319 18.9723 21.1764 18.8792 21.227 18.7883C21.2775 18.6981 21.334 18.6107 21.3953 18.5264C21.4564 18.4426 21.523 18.363 21.5938 18.2869C21.6651 18.2114 21.7406 18.14 21.8208 18.0734C21.9005 18.0067 21.9843 17.9448 22.0723 17.8881C22.1597 17.8315 22.2506 17.7808 22.3446 17.7348C22.4385 17.6893 22.5347 17.6492 22.6334 17.6156C22.7321 17.5814 22.8326 17.5536 22.9348 17.5318C23.037 17.51 23.1404 17.4947 23.2445 17.4852C23.3485 17.4758 23.4532 17.4728 23.5572 17.4764C23.6618 17.4793 23.7658 17.4894 23.8692 17.5047C23.9726 17.5206 24.0744 17.5431 24.1754 17.5714C24.2759 17.5991 24.3745 17.6333 24.4708 17.6734C24.5671 17.7135 24.6604 17.7595 24.7514 17.8109C24.8423 17.8622 24.9297 17.9194 25.0136 17.9813C25.0967 18.0433 25.1764 18.1099 25.2519 18.1813C25.328 18.2533 25.3987 18.3294 25.4647 18.4096C25.5307 18.4898 25.5919 18.5736 25.6478 18.6609C25.7036 18.7488 25.7536 18.839 25.7982 18.9328C25.8427 19.0266 25.882 19.1228 25.9147 19.2207C25.9474 19.3192 25.9741 19.4195 25.9943 19.5209C26.0151 19.6224 26.0294 19.7245 26.0371 19.8283C26.0448 19.9315 26.046 20.0348 26.0413 20.138C26.0365 20.2418 26.0253 20.3445 26.008 20.4465C25.9901 20.5486 25.9664 20.6494 25.9366 20.7485C25.9064 20.8476 25.8707 20.945 25.8284 21.0399C25.7869 21.1343 25.7387 21.2264 25.6858 21.3154C25.6323 21.4045 25.5741 21.4906 25.5098 21.5726C25.4463 21.6546 25.3773 21.7325 25.3042 21.8062C25.2305 21.88 25.1526 21.9489 25.0712 22.0133C24.9891 22.0776 24.9035 22.1365 24.8144 22.1908C24.1023 22.5879 22.8587 22.4905 22.36 22.4339C22.2275 22.4185 22.0996 22.4374 21.9772 22.4893C21.8547 22.5412 21.7531 22.6197 21.6728 22.7253C21.6728 22.7335 21.4357 23.0007 21.5908 23.4626L24.0209 28.8265C24.0654 28.9286 24.0802 29.0354 24.0654 29.1456C24.0512 29.256 24.0089 29.3551 23.9388 29.4424ZM38.3204 30.3096C38.2783 30.4559 38.2152 30.5939 38.1326 30.7225V30.739C38.1326 30.739 37.8871 31.136 37.6005 31.5731L37.5025 31.7271H27.7265L27.6444 31.6462C27.3289 31.3129 27.0798 30.9354 26.8984 30.5148C26.7172 30.0948 26.6144 29.6559 26.5893 29.1994L33.6738 26.2741C33.5186 26.5495 33.3712 26.8415 33.2321 27.1329L34.1238 27.5465C34.3039 27.1654 34.5 26.7926 34.7045 26.4363C34.9143 26.0794 35.1813 25.7715 35.5064 25.5125C35.7424 25.3208 35.9986 25.1615 36.2756 25.0347L36.6352 24.8884L36.5782 24.5079C36.5699 24.4997 36.5454 24.3215 36.4961 24.0543C36.3487 23.1789 36.0378 21.283 35.9153 20.5373C35.8696 20.2459 35.8732 19.9551 35.9267 19.6649C35.9796 19.3747 36.0794 19.1009 36.2262 18.8443C36.3315 18.6934 36.4652 18.5753 36.6287 18.4892C36.7921 18.4037 36.9658 18.36 37.1506 18.3583C37.4044 18.3659 37.5108 18.4957 37.5518 18.5765L38.9915 23.0173L39.2941 23.9487L39.7031 25.2211L38.3204 30.3096Z" fill="#00D280"/>
</g>
<path d="M10.1682 38.5291L11.0408 38.0832L12.1738 40.2575L11.3018 40.7035L10.1682 38.5291Z" fill="#00D280"/>
<path d="M3.08142 40.305L4.2144 38.1306L5.08643 38.5766L3.95345 40.7509L3.08142 40.305Z" fill="#00D280"/>
<mask id="mask1_3_1652" style="mask-type:luminance" maskUnits="userSpaceOnUse" x="7" y="39" width="2" height="3">
<path d="M7.07971 39.3951H8.1449V42.0001H7.07971V39.3951Z" fill="white"/>
</mask>
<g mask="url(#mask1_3_1652)">
<path d="M7.08337 41.9729L7.14401 39.5266L8.12479 39.5502L8.06481 41.9965L7.08337 41.9729Z" fill="#00D280"/>
</g>
<path d="M30.9327 1.84552L31.8053 1.39955L32.9383 3.57391L32.0663 4.01987L30.9327 1.84552Z" fill="#00D280"/>
<path d="M37.998 3.61047L39.131 1.43611L40.0031 1.88208L38.8701 4.05642L37.998 3.61047Z" fill="#00D280"/>
<path d="M34.9059 2.56323L34.9659 0.116928L35.9473 0.141114L35.8873 2.58682L34.9059 2.56323Z" fill="#00D280"/>
</g>
</g>
<defs>
<clipPath id="clip0_3_1652">
<rect width="42" height="42" fill="white"/>
</clipPath>
<clipPath id="clip1_3_1652">
<rect width="42.84" height="42" fill="white" transform="translate(-0.420044)"/>
</clipPath>
</defs>
</svg>
