<svg width="58" height="46" viewBox="0 0 58 46" fill="none" xmlns="http://www.w3.org/2000/svg">
<g clip-path="url(#clip0_34_121)">
<g clip-path="url(#clip1_34_121)">
<g clip-path="url(#clip2_34_121)">
<mask id="mask0_34_121" style="mask-type:luminance" maskUnits="userSpaceOnUse" x="1" y="13" width="57" height="33">
<path d="M1.16016 13.6936H57.4483V45.5902H1.16016V13.6936Z" fill="white"/>
</mask>
<g mask="url(#mask0_34_121)">
<path d="M1.12891 32.426C1.12891 32.0638 1.12891 31.7053 1.12891 31.3425C1.31091 31.3302 1.34145 31.1818 1.38665 31.0505C2.41579 28.1298 3.44615 25.2073 4.47529 22.2854C4.95169 21.1445 5.40732 19.9969 5.6956 18.7888C6.21108 17.4256 6.72168 16.0593 7.24816 14.6985C7.62134 13.7341 8.46786 13.4861 9.37362 14.0077C10.8877 14.8805 12.5008 15.5353 14.123 16.1674C15.3616 17.3413 16.9154 17.2833 18.4533 17.2735C19.888 17.5227 21.3373 17.5874 22.7879 17.6461C23.3473 17.7029 23.9184 17.9313 24.4559 17.5734C25.3494 16.9797 26.2393 16.3836 27.131 15.7869C28.4827 15.0772 29.9809 15.0399 31.4479 14.8616C32.8594 14.9104 34.2043 15.2348 35.4961 15.7906C36.9485 16.5479 38.2353 17.8409 40.1135 17.2026C41.7283 17.2564 43.2552 17.0292 44.4706 15.8217C45.5908 15.2219 46.6547 14.5281 47.6802 13.7775C47.9709 13.7714 48.2617 13.7647 48.5518 13.7567C48.6153 13.7921 48.6782 13.8263 48.7417 13.8618C49.482 15.2116 50.2241 16.5638 50.9637 17.9148C51.5219 19.184 52.1089 20.4385 52.8619 21.6069C52.9584 21.82 53.0568 22.032 53.1539 22.2445C54.58 25.0595 56.0068 27.8764 57.4335 30.6938C57.4335 30.9125 57.4335 31.1269 57.4335 31.3431C55.291 32.8162 52.8106 33.606 50.5074 34.7542C50.1221 34.9454 49.6548 34.8104 49.4545 34.4427C49.0001 33.6023 48.5347 33.8075 47.9789 34.3041C47.6094 34.6339 47.2014 34.927 46.8099 35.2379C46.4092 35.4205 46.0012 35.5787 46.229 36.1718C46.6902 37.3787 46.3353 38.4188 45.5187 39.3478C45.159 39.5658 44.7992 39.7838 44.4413 40.0019C43.9686 40.2126 43.1789 39.647 42.9859 40.4667C42.617 42.0284 41.6104 42.8407 40.1189 43.1779C39.2236 43.1125 38.1132 42.3265 37.704 43.8961C37.136 44.3847 36.488 44.7304 35.7709 44.9479C35.1021 44.9002 34.4223 44.8636 33.8177 44.5356C33.5202 44.3737 33.3071 44.4476 33.039 44.5967C32.5168 44.8825 31.9726 45.1286 31.4369 45.3882C30.0291 45.5702 28.7056 45.2471 27.4169 44.7194C27.073 44.477 26.7908 44.1697 26.2827 44.4806C25.0471 45.2325 23.8763 44.9589 22.7824 44.1258C22.7128 44.0519 22.6431 43.9761 22.5735 43.9022C22.3671 43.5681 22.361 43.0398 21.7435 43.1192C20.445 43.2847 19.5032 42.6367 18.6799 41.7358C18.5791 41.2045 18.3146 41.0164 17.7246 41.0164C16.4451 41.0151 15.4612 40.4038 14.9023 39.2262C14.7331 38.8726 14.5554 38.7119 14.1388 38.646C12.6535 38.4139 11.7734 37.5246 11.6304 36.0105C11.5852 35.5207 11.3568 35.3118 10.9342 35.2129C10.3374 34.916 9.84574 34.0323 9.12932 34.4629C8.49656 34.8434 8.00917 34.786 7.41062 34.6046C5.79149 34.1086 4.17174 33.6163 2.54283 33.154C2.01574 32.9989 1.53262 32.801 1.12891 32.426ZM44.1567 33.5437C44.478 34.1288 44.8603 34.1532 45.3532 33.7226C45.705 33.4148 46.1051 33.165 46.4843 32.8895C47.7639 31.9642 47.7639 31.9642 46.8392 30.6602C45.3947 27.9448 44.1188 25.1536 43.0903 22.2518C42.9651 21.8042 42.846 21.3534 42.7141 20.9075C42.1558 19.0325 42.1534 19.0325 40.1031 19.3098C38.6763 19.4851 37.2673 19.5626 36.0848 18.5121C34.5683 17.494 32.9498 16.6646 31.0778 17.0726C30.2569 17.2527 29.3011 16.9015 28.6011 17.6143C28.0191 17.6729 27.5299 17.927 27.1029 18.3161C26.6504 18.5921 26.1953 18.8621 25.7477 19.143C24.5921 19.868 23.6448 20.7353 23.6662 22.2488C23.5397 23.0825 23.2215 23.8087 22.5894 24.4042C22.3689 24.6106 22.2443 24.9478 22.1435 25.2483C21.9041 25.9653 22.1942 26.355 22.9461 26.3965C23.7731 26.4447 24.5054 26.2102 25.1351 25.6617C25.7947 25.0888 26.3945 24.4317 26.7139 23.634C27.1744 22.4766 28.0741 22.1242 29.1624 22.0521C29.8025 22.0088 30.4487 22.0845 31.0949 22.1059C31.3563 22.2268 31.6189 22.3471 31.8797 22.4668C33.1721 23.5876 34.4614 24.7071 35.7532 25.8266C35.9963 26.132 36.2522 26.4203 36.618 26.5877C37.7125 27.739 38.8938 28.7913 40.1189 29.7972C40.5477 30.3292 41.043 30.7879 41.6068 31.1715C42.3898 32.0332 43.2485 32.8156 44.1567 33.5437ZM21.4821 22.247C21.6787 21.5629 21.8485 20.8691 22.0806 20.1966C22.2364 19.7428 22.0745 19.6488 21.6592 19.6286C20.5897 19.5822 19.5227 19.5022 18.4545 19.4338C17.5292 19.3415 16.6002 19.2738 15.678 19.1473C15.1429 19.0746 15.0129 19.3128 14.939 19.7813C14.8119 20.5948 14.6097 21.3955 14.4393 22.2018C14.2579 22.8638 14.0766 23.5277 13.8933 24.1904C12.9869 26.4447 12.1459 28.7266 11.0618 30.907C10.2659 32.5035 10.2904 32.4974 11.8833 33.3623C12.2858 33.5797 12.5649 33.6915 12.8465 33.2151C13.1482 32.7051 13.6637 32.4253 14.1645 32.145C15.4013 31.8189 16.5074 32.0387 17.3222 33.0685C17.7002 33.5455 18.0581 33.3 18.4515 33.2206C19.4067 33.2242 20.39 33.3507 20.9672 34.152C21.5132 34.9087 22.0745 34.8843 22.7861 34.596C23.5251 34.6968 24.2256 34.9051 24.8773 35.2733C25.248 35.7345 25.7525 36.1333 25.8613 36.7367C25.9895 37.4642 26.4177 37.7109 27.081 37.7182C27.5054 38.0407 28.0423 38.7187 28.3342 38.6264C29.6486 38.2081 30.191 39.2427 30.9935 39.7979C32.0672 40.6859 33.1269 41.5893 34.2232 42.4504C34.8352 42.9305 35.5785 43.1626 36.141 42.4578C36.6938 41.7603 36.1801 41.1428 35.661 40.6908C34.2843 39.4852 32.8637 38.3327 31.4601 37.1588C30.792 36.4485 30.0511 35.8206 29.262 35.2495C28.8143 34.836 28.3715 34.4177 27.9177 34.0127C27.4132 33.5589 27.2642 33.0239 27.7247 32.4974C28.1913 31.9648 28.7465 32.0754 29.2583 32.4956C29.8679 32.997 30.4756 33.4985 31.0851 33.9999C31.5084 34.48 31.9805 34.9032 32.5235 35.2446C33.3999 36.1437 34.3533 36.9536 35.3739 37.6889C36.13 38.4847 36.9698 39.1877 37.8695 39.8223C38.509 40.4386 39.0892 41.1697 40.1342 41.0286C41.1945 40.2505 41.2928 39.5743 40.3462 38.7553C37.467 36.2658 34.5567 33.8136 31.6592 31.348C31.5566 31.1934 31.4528 31.0377 31.3514 30.8844C31.2659 30.5369 31.3942 30.218 31.4809 29.8919C32.1827 29.3276 32.769 29.5444 33.3895 30.0843C36.0525 32.4015 38.7417 34.6876 41.415 36.9908C41.9402 37.4452 42.4887 37.841 43.1777 37.998C43.5905 38.0908 43.9668 38.0206 44.2404 37.662C44.5262 37.2858 44.4377 36.898 44.208 36.5553C43.8446 36.016 43.3774 35.5696 42.8265 35.2184C41.9842 34.436 41.1432 33.653 40.3016 32.8718C37.3363 29.9908 34.2721 27.2167 31.1358 24.5257C30.0664 23.6096 29.0262 23.8337 28.2793 25.0046C27.9324 25.5457 27.5384 26.0581 27.1671 26.5871C27.0987 26.5895 27.07 26.6243 27.0742 26.6903C25.8875 27.8697 24.4547 28.4676 22.7879 28.5146C21.581 28.274 20.5543 27.7848 20.0846 26.5357C19.8593 25.3845 20.1714 24.3694 20.7852 23.3946C21.0203 23.0135 21.5181 22.7881 21.4821 22.247ZM23.4518 36.9212C23.2716 36.6854 23.0365 36.6915 22.7836 36.7679C22.2535 36.6891 22.0086 37.0696 21.7685 37.4226C21.3654 38.0157 21.0136 38.6448 20.5904 39.2244C20.1555 39.8162 20.1292 40.3781 20.7015 40.8344C21.3098 41.3175 21.9304 41.1862 22.3939 40.5846C22.8984 39.9298 23.3748 39.2525 23.814 38.5556C24.214 37.9192 24.1737 37.331 23.4518 36.9212ZM50.7487 22.2354C50.2552 21.037 49.6847 19.8784 48.9897 18.7827C48.9164 18.4584 48.8052 18.1536 48.5585 17.9154C47.8445 16.1137 47.8445 16.1124 46.2901 17.1245C46.0849 17.2588 45.898 17.4195 45.7032 17.5685C44.1195 18.4223 44.1097 18.426 44.6264 20.1319C44.8408 20.8434 45.1065 21.5403 45.3471 22.2445C46.4556 25.7295 48.109 28.9489 50.1288 31.9868C50.3749 32.3582 50.5765 32.5707 51.0742 32.316C52.1956 31.7437 53.3444 31.2276 54.4933 30.7158C54.8793 30.5454 54.9654 30.3536 54.7614 29.9762C54.1439 28.8444 53.5478 27.7017 52.9432 26.562C52.297 25.076 51.5751 23.6285 50.7487 22.2354ZM12.1881 17.6626C11.2621 17.2185 10.3289 16.7855 9.40966 16.3238C9.04503 16.1405 8.84043 16.1552 8.69628 16.5882C8.06231 18.4779 7.40513 20.3621 6.75711 22.2476C5.61864 25.0901 4.61821 27.9826 3.65076 30.8874C3.40401 31.1788 3.54693 31.3278 3.84559 31.4194C5.04574 31.784 6.24956 32.1352 7.44483 32.5182C7.83389 32.6403 7.95176 32.4137 8.09468 32.1511C9.80299 28.9929 11.3415 25.7656 12.1991 22.2567C12.6626 21.1745 12.7762 20.0036 13.0468 18.8737C13.2343 18.0962 12.9289 17.7432 12.1881 17.6626ZM18.7257 35.255C18.664 35.2727 18.4991 35.2782 18.3971 35.3607C17.5701 36.0283 16.9673 36.8748 16.6735 37.888C16.5471 38.3259 16.8403 38.7382 17.3014 38.9001C17.7301 39.0479 18.1797 39.0405 18.4783 38.6307C18.9236 38.0212 19.3682 37.4061 19.7444 36.7532C20.1384 36.0686 19.5973 35.2446 18.7257 35.255ZM28.9542 40.7214C28.6641 41.2662 28.4326 41.7444 28.1565 42.1976C28.0111 42.4394 27.9263 42.583 28.2182 42.8047C29.0305 43.4148 30.7058 43.5309 31.6556 42.9653C30.7663 42.2257 29.8929 41.5007 28.9542 40.7214ZM26.7829 40.4874C26.7976 40.1375 26.687 39.8907 26.4262 39.7191C26.1575 39.5444 25.8551 39.5255 25.6316 39.7435C24.9897 40.3677 24.4938 41.1116 24.098 41.9087C23.9196 42.2648 24.1029 42.6294 24.4742 42.7967C24.8956 42.9885 25.118 42.8132 25.2071 42.3527C25.2719 42.0235 25.5608 41.8562 25.8674 41.7071C26.3798 41.4573 26.5936 40.9535 26.7829 40.4874ZM15.915 34.7469C15.8856 34.3309 15.6169 34.0769 15.1619 34.0463C14.6916 34.0133 13.6527 35.2788 13.6655 35.8493C13.6753 36.3294 13.9458 36.5767 14.4106 36.5999C14.8663 36.6189 15.9235 35.3472 15.915 34.7469Z" fill="#002F46"/>
</g>
<path d="M25.3845 0.590088C26.3367 1.81528 26.1156 3.34769 26.4399 4.73413C26.7898 6.22195 27.0091 7.74153 27.2846 9.24768C27.243 9.8957 27.5826 10.5779 27.1111 11.1875C25.972 11.6132 25.5653 11.3939 25.3344 10.2396C25.2648 9.89387 25.1866 9.55184 25.1139 9.20798C24.8788 7.76719 24.6436 6.32761 24.4085 4.88621C24.2808 3.99816 24.2094 3.09545 24.006 2.2245C23.8472 1.53555 24.0225 1.03289 24.5166 0.590088C24.8079 0.590088 25.0962 0.590088 25.3845 0.590088Z" fill="#002F46"/>
<path d="M33.6141 0.590088C33.975 0.590088 34.3348 0.590088 34.6969 0.590088C35.1569 1.11046 35.2283 1.70718 35.1135 2.37658C34.9675 3.21943 34.8863 4.07572 34.7757 4.92469C34.5846 6.36243 34.3922 7.80078 34.2004 9.2373C34.1222 9.65384 34.0587 10.0722 33.9659 10.4839C33.8217 11.1209 33.4498 11.5295 32.7578 11.389C32.1482 11.2657 31.8899 10.8198 31.9552 10.198C31.9882 9.88288 32.0194 9.56467 32.0493 9.2489C32.2521 7.81605 32.4518 6.38258 32.6558 4.94912C33.0625 3.51626 32.803 1.9356 33.6141 0.590088Z" fill="#002F46"/>
<path d="M39.0691 9.54298C39.8924 8.30129 40.742 7.07427 41.5305 5.80937C41.9843 5.08256 42.5181 4.82238 43.3078 5.23037C43.7036 5.76234 43.6651 6.27478 43.303 6.81958C42.8473 7.50547 42.4357 8.22067 42.0039 8.92C41.2728 10.0279 40.5429 11.1353 39.8118 12.242C39.3006 12.5028 38.7888 12.5968 38.3661 12.1015C37.9056 11.5597 38.1536 11.0504 38.4816 10.5465C38.6941 10.2221 38.8755 9.87829 39.0691 9.54298Z" fill="#002F46"/>
<path d="M18.7747 11.8065C18.2329 10.913 17.682 10.028 16.9943 9.23826C16.6737 8.73072 16.3689 8.21218 16.0287 7.71807C15.6366 7.14456 15.5321 6.5625 16.1533 6.13558C16.7531 5.72209 17.2942 5.94441 17.6881 6.54601C17.8225 6.75245 17.988 6.93812 18.1407 7.13234C18.6257 7.83961 19.1118 8.5481 19.5962 9.25475C19.8655 9.67801 20.1184 10.111 20.4054 10.519C20.8104 11.0944 21.0889 11.688 20.4176 12.2249C19.733 12.7722 19.2273 12.3281 18.7747 11.8065Z" fill="#002F46"/>
</g>
</g>
</g>
<defs>
<clipPath id="clip0_34_121">
<rect width="57" height="45" fill="white" transform="translate(0.660156 0.590088)"/>
</clipPath>
<clipPath id="clip1_34_121">
<rect width="57" height="45" fill="white" transform="translate(0.660156 0.590088)"/>
</clipPath>
<clipPath id="clip2_34_121">
<rect width="57" height="45" fill="white" transform="translate(0.660156 0.590088)"/>
</clipPath>
</defs>
</svg>
