<svg width="47" height="46" viewBox="0 0 47 46" fill="none" xmlns="http://www.w3.org/2000/svg">
<g clip-path="url(#clip0_34_45)">
<g clip-path="url(#clip1_34_45)">
<g clip-path="url(#clip2_34_45)">
<mask id="mask0_34_45" style="mask-type:luminance" maskUnits="userSpaceOnUse" x="17" y="16" width="29" height="30">
<path d="M17.041 16.7932H45.8283V45.5912H17.041V16.7932Z" fill="white"/>
</mask>
<g mask="url(#mask0_34_45)">
<path d="M45.4651 33.5886L41.511 29.2174L38.6257 21.7117C38.5898 21.62 38.5425 21.5349 38.4821 21.4574C38.4225 21.3789 38.3526 21.3109 38.2732 21.2532C38.1938 21.1946 38.1078 21.1492 38.0152 21.1161C37.9216 21.083 37.8262 21.0641 37.7279 21.0585C31.3535 20.7106 21.0798 19.4004 18.8987 17.2205C18.8514 17.1713 18.8004 17.1279 18.7446 17.0891C18.6889 17.0503 18.6303 17.0182 18.5679 16.9917C18.5055 16.9643 18.4413 16.9445 18.3751 16.9303C18.3089 16.9161 18.2418 16.9095 18.1738 16.9085C18.1058 16.9076 18.0387 16.9142 17.9725 16.9265C17.9054 16.9397 17.8411 16.9587 17.7788 16.9842C17.7155 17.0106 17.6559 17.0418 17.6002 17.0796C17.5435 17.1165 17.4915 17.16 17.4433 17.2073C17.3951 17.2555 17.3526 17.3075 17.3148 17.3642C17.2779 17.42 17.2458 17.4795 17.2202 17.5429C17.1947 17.6052 17.1758 17.6705 17.1626 17.7366C17.1503 17.8028 17.1437 17.8699 17.1446 17.938C17.1446 18.0061 17.1522 18.0732 17.1664 18.1393C17.1806 18.2055 17.2004 18.2698 17.2269 18.3322C17.2543 18.3946 17.2864 18.4532 17.3251 18.509C17.3639 18.5647 17.4074 18.6167 17.4556 18.663C19.6358 20.8448 20.9456 31.1213 21.2934 37.4984C21.2991 37.5967 21.318 37.6922 21.3511 37.7848C21.3842 37.8774 21.4295 37.9635 21.4881 38.0429C21.5458 38.1223 21.6138 38.1922 21.6922 38.2527C21.7697 38.3123 21.8548 38.3596 21.9465 38.3955L29.4502 41.2815L33.8201 45.2367C33.9174 45.3246 34.0271 45.3908 34.1499 45.4371C34.2728 45.4825 34.3994 45.5033 34.5308 45.4995C34.6612 45.4967 34.7869 45.4692 34.9069 45.4172C35.0269 45.3662 35.1337 45.2934 35.2263 45.2008L45.4301 34.9942C45.5227 34.9016 45.5945 34.7948 45.6465 34.6747C45.6975 34.5547 45.7249 34.429 45.7278 34.2985C45.7316 34.168 45.7098 34.0414 45.6645 33.9185C45.6191 33.7956 45.5529 33.6859 45.4651 33.5886ZM21.2811 22.4859L26.6434 27.8496L26.6698 27.8231C26.4544 28.2466 26.3447 28.6956 26.341 29.1702C26.341 29.3715 26.3599 29.57 26.3995 29.7676C26.4383 29.9652 26.4969 30.1561 26.5734 30.3424C26.6509 30.5276 26.7445 30.7044 26.857 30.8717C26.9685 31.0381 27.0951 31.1931 27.2369 31.3359C27.3796 31.4777 27.5336 31.6044 27.7009 31.7159C27.8682 31.8275 28.0449 31.922 28.2301 31.9995C28.4163 32.0761 28.6072 32.1347 28.8047 32.1734C29.0022 32.2122 29.2007 32.232 29.402 32.232C29.6033 32.232 29.8017 32.2122 29.9993 32.1734C30.1958 32.1347 30.3877 32.0761 30.5729 31.9995C30.7591 31.922 30.9358 31.8275 31.1021 31.7159C31.2694 31.6044 31.4244 31.4777 31.5662 31.3359C31.7089 31.1931 31.8355 31.0381 31.947 30.8717C32.0585 30.7044 32.153 30.5276 32.2296 30.3424C32.3071 30.1561 32.3647 29.9652 32.4044 29.7676C32.4432 29.57 32.463 29.3715 32.463 29.1702C32.463 28.9688 32.4432 28.7703 32.4044 28.5727C32.3647 28.3761 32.3071 28.1842 32.2296 27.998C32.153 27.8127 32.0585 27.6359 31.947 27.4686C31.8355 27.3022 31.7089 27.1472 31.5662 27.0054C31.4244 26.8627 31.2694 26.736 31.1021 26.6245C30.9358 26.5129 30.7591 26.4184 30.5729 26.3409C30.3877 26.2643 30.1958 26.2066 29.9993 26.1669C29.8017 26.1282 29.6033 26.1083 29.402 26.1083C28.9276 26.1112 28.4787 26.2199 28.0562 26.4335L28.0827 26.407L22.7205 21.0433C27.4079 22.1163 32.1521 22.7884 36.953 23.0597L39.4328 29.5095L29.7384 39.2056L23.2932 36.7232C23.021 31.921 22.3491 27.1756 21.2764 22.4868L21.2811 22.4859ZM28.3813 29.1702C28.3813 29.1031 28.3879 29.0369 28.4012 28.9707C28.4144 28.9055 28.4333 28.8412 28.4588 28.7798C28.4843 28.7174 28.5165 28.6588 28.5533 28.603C28.5902 28.5472 28.6327 28.4962 28.68 28.4489C28.7272 28.4007 28.7792 28.3591 28.835 28.3213C28.8907 28.2844 28.9493 28.2532 29.0117 28.2277C29.0731 28.2012 29.1374 28.1823 29.2026 28.1691C29.2687 28.1559 29.3349 28.1492 29.402 28.1492C29.4691 28.1492 29.5352 28.1559 29.6004 28.1691C29.6666 28.1823 29.7309 28.2012 29.7923 28.2277C29.8547 28.2532 29.9133 28.2844 29.969 28.3213C30.0248 28.3591 30.0758 28.4007 30.1231 28.4489C30.1703 28.4962 30.2128 28.5472 30.2506 28.603C30.2875 28.6588 30.3187 28.7174 30.3442 28.7798C30.3707 28.8412 30.3896 28.9055 30.4028 28.9707C30.416 29.0369 30.4226 29.1031 30.4226 29.1702C30.4226 29.2373 30.416 29.3035 30.4028 29.3696C30.3896 29.4349 30.3707 29.4991 30.3442 29.5606C30.3187 29.623 30.2875 29.6816 30.2506 29.7374C30.2128 29.7931 30.1703 29.8442 30.1231 29.8924C30.0758 29.9397 30.0248 29.9813 29.969 30.0191C29.9133 30.0559 29.8547 30.0871 29.7923 30.1136C29.7309 30.1391 29.6666 30.158 29.6004 30.1713C29.5352 30.1845 29.4691 30.1911 29.402 30.1911C29.3349 30.1911 29.2687 30.1845 29.2026 30.1713C29.1374 30.158 29.0731 30.1391 29.0117 30.1136C28.9493 30.0871 28.8907 30.0559 28.835 30.0191C28.7792 29.9813 28.7272 29.9397 28.68 29.8924C28.6327 29.8442 28.5902 29.7931 28.5533 29.7374C28.5165 29.6816 28.4843 29.623 28.4588 29.5606C28.4333 29.4991 28.4144 29.4349 28.4012 29.3696C28.3879 29.3035 28.3813 29.2373 28.3813 29.1702ZM34.4684 43.0719L31.4735 40.3608L40.5895 31.2423L43.2999 34.2389L34.4684 43.0719Z" fill="#002F46"/>
</g>
<mask id="mask1_34_45" style="mask-type:luminance" maskUnits="userSpaceOnUse" x="0" y="0" width="40" height="40">
<path d="M0.830078 0.590088H39.7843V39.5398H0.830078V0.590088Z" fill="white"/>
</mask>
<g mask="url(#mask1_34_45)">
<path d="M13.7972 31.5093C13.749 31.4621 13.6979 31.4195 13.6422 31.3827C13.5864 31.3449 13.5278 31.3137 13.4655 31.2881C13.404 31.2626 13.3398 31.2428 13.2746 31.2295C13.2084 31.2172 13.1423 31.2106 13.0752 31.2106C13.0081 31.2106 12.9419 31.2172 12.8767 31.2295C12.8105 31.2428 12.7472 31.2626 12.6848 31.2881C12.6234 31.3137 12.5639 31.3449 12.5081 31.3827C12.4524 31.4195 12.4013 31.4621 12.3541 31.5093L11.4648 32.3979C11.2654 32.0898 11.0773 31.775 10.9006 31.4536C10.7239 31.1312 10.5585 30.8041 10.4054 30.4704C10.2523 30.1368 10.1114 29.7983 9.98198 29.4542C9.85345 29.1111 9.73626 28.7632 9.63231 28.4106C9.52835 28.059 9.43762 27.7035 9.35919 27.3443C9.28075 26.986 9.21459 26.6249 9.16261 26.2619C9.10969 25.898 9.07 25.534 9.04448 25.1673C9.01802 24.8014 9.00479 24.4346 9.00479 24.0679C9.00479 23.7001 9.01802 23.3333 9.04448 22.9675C9.07 22.6017 9.10969 22.2368 9.16261 21.8728C9.21459 21.5098 9.28075 21.1487 9.35919 20.7905C9.43762 20.4312 9.52835 20.0758 9.63231 19.7241C9.73626 19.3715 9.85345 19.0237 9.98198 18.6805C10.1114 18.3364 10.2523 17.998 10.4054 17.6643C10.5585 17.3306 10.7239 17.0035 10.9006 16.6812C11.0773 16.3598 11.2654 16.045 11.4648 15.7368L12.3512 16.6226C12.3985 16.6698 12.4495 16.7124 12.5053 16.7493C12.561 16.7871 12.6196 16.8183 12.682 16.8438C12.7434 16.8693 12.8077 16.8892 12.8729 16.9014C12.9391 16.9147 13.0052 16.9213 13.0723 16.9213C13.1394 16.9213 13.2056 16.9147 13.2717 16.9014C13.3369 16.8892 13.4012 16.8693 13.4626 16.8438C13.525 16.8183 13.5836 16.7871 13.6394 16.7493C13.6951 16.7124 13.7461 16.6698 13.7934 16.6226L16.8554 13.5607C16.9026 13.5135 16.9442 13.4615 16.982 13.4057C17.0189 13.3499 17.05 13.2913 17.0756 13.2299C17.102 13.1675 17.1209 13.1041 17.1342 13.038C17.1474 12.9727 17.154 12.9056 17.154 12.8385C17.154 12.7723 17.1474 12.7052 17.1342 12.64C17.1209 12.5738 17.102 12.5105 17.0756 12.4481C17.05 12.3866 17.0189 12.328 16.982 12.2723C16.9442 12.2165 16.9026 12.1645 16.8554 12.1172L15.9689 11.2315C16.277 11.032 16.5917 10.8439 16.914 10.6671C17.2353 10.4894 17.5632 10.3249 17.8968 10.1708C18.2295 10.0177 18.5687 9.87683 18.9118 9.74732C19.2558 9.61876 19.6036 9.50249 19.9551 9.3985C20.3076 9.29357 20.663 9.20282 21.0212 9.12436C21.3803 9.0459 21.7403 8.97973 22.1042 8.92774C22.4671 8.8748 22.8319 8.83604 23.1976 8.80957C23.5643 8.7831 23.931 8.76987 24.2977 8.76987C24.6643 8.76987 25.031 8.7831 25.3977 8.80957C25.7634 8.83604 26.1282 8.8748 26.4911 8.92774C26.855 8.97973 27.216 9.0459 27.5742 9.12436C27.9323 9.20282 28.2877 9.29357 28.6402 9.3985C28.9917 9.50249 29.3395 9.61876 29.6835 9.74732C30.0266 9.87683 30.3658 10.0177 30.6995 10.1708C31.0321 10.3249 31.36 10.4894 31.6814 10.6671C32.0036 10.8439 32.3183 11.032 32.6264 11.2315L31.7371 12.1201C31.6899 12.1673 31.6473 12.2193 31.6105 12.2751C31.5736 12.3309 31.5415 12.3895 31.516 12.4519C31.4905 12.5133 31.4716 12.5776 31.4583 12.6428C31.4451 12.709 31.4385 12.7752 31.4385 12.8423C31.4385 12.9094 31.4451 12.9756 31.4583 13.0408C31.4716 13.107 31.4905 13.1703 31.516 13.2327C31.5415 13.2941 31.5736 13.3537 31.6105 13.4085C31.6473 13.4643 31.6899 13.5163 31.7371 13.5636L34.7991 16.6254C34.8463 16.6727 34.8974 16.7152 34.9531 16.753C35.0089 16.7899 35.0675 16.8211 35.1299 16.8466C35.1913 16.8721 35.2556 16.892 35.3208 16.9052C35.3869 16.9175 35.4531 16.9241 35.5202 16.9241C35.5873 16.9241 35.6534 16.9175 35.7186 16.9052C35.7848 16.892 35.849 16.8721 35.9105 16.8466C35.9719 16.8211 36.0314 16.7899 36.0872 16.753C36.143 16.7152 36.194 16.6727 36.2412 16.6254L39.3023 13.5636C39.3505 13.5163 39.3921 13.4643 39.4299 13.4085C39.4667 13.3537 39.4979 13.2941 39.5234 13.2327C39.5499 13.1703 39.5688 13.107 39.582 13.0408C39.5952 12.9756 39.6019 12.9094 39.6019 12.8423C39.6019 12.7752 39.5952 12.709 39.582 12.6428C39.5688 12.5776 39.5499 12.5133 39.5234 12.4519C39.4979 12.3895 39.4667 12.3309 39.4299 12.2751C39.3921 12.2193 39.3505 12.1673 39.3023 12.1201L36.2412 9.05819C36.194 9.01092 36.143 8.96838 36.0872 8.93152C36.0314 8.89465 35.9719 8.86251 35.9105 8.83699C35.849 8.81146 35.7848 8.79256 35.7186 8.77932C35.6534 8.76609 35.5873 8.75947 35.5202 8.75947C35.4531 8.75947 35.3869 8.76609 35.3208 8.77932C35.2556 8.79256 35.1913 8.81146 35.1299 8.83699C35.0675 8.86251 35.0089 8.89465 34.9531 8.93152C34.8974 8.96838 34.8463 9.01092 34.7991 9.05819L34.0846 9.77284C33.5743 9.42213 33.047 9.10073 32.5017 8.80674C31.9573 8.51274 31.3988 8.249 30.8261 8.01457C30.2534 7.78107 29.6693 7.57783 29.0749 7.40579C28.4805 7.23468 27.8785 7.09478 27.2689 6.98701C26.6594 6.88019 26.046 6.80551 25.4289 6.76392C24.8108 6.72233 24.1937 6.71287 23.5747 6.73745C22.9566 6.76203 22.3414 6.81875 21.729 6.90855C21.1166 6.9993 20.5108 7.12125 19.9117 7.27628L22.7147 4.58403C22.899 4.6398 23.087 4.67005 23.2789 4.67289C23.4131 4.67289 23.5463 4.65966 23.6777 4.63319C23.8091 4.60672 23.9367 4.56796 24.0605 4.51691C24.1843 4.46587 24.3014 4.40253 24.413 4.3288C24.5245 4.25412 24.6275 4.16904 24.722 4.07451C24.8174 3.97998 24.9016 3.87694 24.9762 3.76539C25.0509 3.65384 25.1132 3.53663 25.1652 3.41279C25.2163 3.28895 25.255 3.16039 25.2805 3.02899C25.307 2.8976 25.3202 2.76525 25.3202 2.63102C25.3202 2.49678 25.307 2.36444 25.2805 2.23304C25.255 2.10164 25.2163 1.97403 25.1652 1.85019C25.1132 1.72635 25.0509 1.60819 24.9762 1.49664C24.9016 1.38604 24.8174 1.28206 24.722 1.18752C24.6275 1.09299 24.5245 1.00792 24.413 0.934181C24.3014 0.859502 24.1843 0.796166 24.0605 0.745119C23.9367 0.694072 23.8091 0.655314 23.6777 0.628846C23.5463 0.603322 23.4131 0.590088 23.2789 0.590088C23.1456 0.590088 23.0124 0.603322 22.881 0.628846C22.7497 0.655314 22.6221 0.694072 22.4983 0.745119C22.3745 0.796166 22.2573 0.859502 22.1458 0.934181C22.0343 1.00792 21.9312 1.09299 21.8367 1.18752C21.7413 1.28206 21.6572 1.38604 21.5825 1.49664C21.5079 1.60819 21.4455 1.72635 21.3935 1.85019C21.3425 1.97403 21.3037 2.10164 21.2782 2.23304C21.2518 2.36444 21.2385 2.49678 21.2385 2.63102C21.2404 2.79456 21.2622 2.9562 21.3028 3.11502L14.4445 9.70195L13.7972 9.05441C13.749 9.00714 13.6979 8.9646 13.6422 8.92774C13.5864 8.88992 13.5278 8.85873 13.4655 8.83321C13.404 8.80768 13.3398 8.78783 13.2746 8.7746C13.2084 8.76231 13.1423 8.75569 13.0752 8.75569C13.0081 8.75569 12.9419 8.76231 12.8767 8.7746C12.8105 8.78783 12.7472 8.80768 12.6848 8.83321C12.6234 8.85873 12.5639 8.88992 12.5081 8.92774C12.4524 8.9646 12.4013 9.00714 12.3541 9.05441L9.29303 12.1163C9.24578 12.1635 9.20325 12.2155 9.16545 12.2713C9.12859 12.3271 9.09741 12.3857 9.07189 12.4471C9.04637 12.5095 9.02653 12.5729 9.0133 12.639C9.00006 12.7043 8.9944 12.7714 8.9944 12.8376C8.9944 12.9047 9.00006 12.9708 9.0133 13.037C9.02653 13.1032 9.04637 13.1665 9.07189 13.2289C9.09741 13.2904 9.12859 13.349 9.16545 13.4047C9.20325 13.4605 9.24578 13.5125 9.29303 13.5598L9.94039 14.2073L3.35526 21.0674C3.19649 21.0268 3.03489 21.005 2.8714 21.0032C2.7372 21.0032 2.60489 21.0164 2.47353 21.0429C2.34217 21.0684 2.21458 21.1071 2.09078 21.1591C1.96698 21.2102 1.84885 21.2726 1.73733 21.3472C1.62581 21.4219 1.5228 21.5061 1.4283 21.6015C1.33379 21.6961 1.24874 21.7991 1.17408 21.9107C1.10036 22.0222 1.03705 22.1394 0.986012 22.2633C0.934979 22.3871 0.896232 22.5147 0.86977 22.6461C0.843309 22.7775 0.830078 22.9108 0.830078 23.045C0.830078 23.1783 0.843309 23.3116 0.86977 23.443C0.896232 23.5744 0.934979 23.702 0.986012 23.8259C1.03705 23.9497 1.10036 24.0679 1.17408 24.1785C1.24874 24.29 1.33379 24.393 1.4283 24.4885C1.5228 24.583 1.62581 24.6672 1.73733 24.7419C1.84885 24.8165 1.96698 24.8799 2.09078 24.9309C2.21458 24.982 2.34217 25.0207 2.47353 25.0472C2.60489 25.0727 2.7372 25.086 2.8714 25.086C3.00559 25.086 3.1379 25.0727 3.26926 25.0472C3.40062 25.0207 3.52821 24.982 3.65201 24.9309C3.77581 24.8799 3.89394 24.8165 4.00546 24.7419C4.11698 24.6672 4.21999 24.583 4.31449 24.4885C4.409 24.393 4.49405 24.29 4.56777 24.1785C4.64242 24.0679 4.70574 23.9497 4.75678 23.8259C4.80781 23.702 4.84656 23.5744 4.87302 23.443C4.89948 23.3116 4.91177 23.1783 4.91177 23.045C4.90987 22.8541 4.88058 22.6669 4.82482 22.4845L7.51539 19.6769C7.3604 20.2762 7.23849 20.8822 7.14871 21.4947C7.05893 22.1073 7.00128 22.7227 6.97765 23.3409C6.95308 23.9601 6.96253 24.5783 7.00411 25.1956C7.04664 25.8129 7.1213 26.4264 7.22809 27.0361C7.33583 27.6459 7.47569 28.248 7.64675 28.8436C7.81875 29.4382 8.02193 30.0214 8.25631 30.5952C8.49068 31.1681 8.75435 31.7268 9.04826 32.2722C9.34217 32.8167 9.66349 33.3442 10.0141 33.8547L9.29965 34.5693C9.25239 34.6166 9.20987 34.6686 9.17301 34.7244C9.13615 34.7792 9.10402 34.8387 9.0785 34.9002C9.05299 34.9626 9.03409 35.0259 9.02086 35.0921C9.00763 35.1573 9.00101 35.2235 9.00101 35.2906C9.00101 35.3577 9.00763 35.4239 9.02086 35.4901C9.03409 35.5553 9.05299 35.6196 9.0785 35.681C9.10402 35.7434 9.13615 35.802 9.17301 35.8578C9.20987 35.9136 9.25239 35.9655 9.29965 36.0128L12.3607 39.0747C12.4089 39.1219 12.4599 39.1645 12.5157 39.2013C12.5714 39.2382 12.63 39.2704 12.6924 39.2959C12.7538 39.3214 12.8181 39.3403 12.8833 39.3535C12.9495 39.3668 13.0156 39.3734 13.0827 39.3734C13.1498 39.3734 13.216 39.3668 13.2812 39.3535C13.3473 39.3403 13.4106 39.3214 13.473 39.2959C13.5345 39.2704 13.594 39.2382 13.6497 39.2013C13.7046 39.1645 13.7565 39.1219 13.8038 39.0747L16.8648 36.0128C16.9121 35.9655 16.9546 35.9136 16.9924 35.8578C17.0293 35.802 17.0604 35.7434 17.086 35.681C17.1115 35.6196 17.1313 35.5553 17.1446 35.4901C17.1578 35.4239 17.1635 35.3577 17.1635 35.2906C17.1635 35.2235 17.1578 35.1573 17.1446 35.0921C17.1313 35.0259 17.1115 34.9626 17.086 34.9002C17.0604 34.8387 17.0293 34.7792 16.9924 34.7244C16.9546 34.6686 16.9121 34.6166 16.8648 34.5693L13.7972 31.5093ZM37.1428 12.8376L35.5239 14.4569L33.906 12.8376L35.5239 11.2192L37.1428 12.8376ZM13.0752 11.2192L14.694 12.8376L13.0752 14.4569L11.4572 12.8376L13.0752 11.2192ZM13.0752 36.9118L11.4572 35.2925L13.0752 33.6741L14.694 35.2925L13.0752 36.9118Z" fill="#002F46"/>
</g>
</g>
</g>
</g>
<defs>
<clipPath id="clip0_34_45">
<rect width="46" height="45" fill="white" transform="translate(0.330078 0.590088)"/>
</clipPath>
<clipPath id="clip1_34_45">
<rect width="46" height="45" fill="white" transform="translate(0.330078 0.590088)"/>
</clipPath>
<clipPath id="clip2_34_45">
<rect width="46" height="45" fill="white" transform="translate(0.330078 0.590088)"/>
</clipPath>
</defs>
</svg>
