<svg width="46" height="46" viewBox="0 0 46 46" fill="none" xmlns="http://www.w3.org/2000/svg">
<g clip-path="url(#clip0_34_83)">
<g clip-path="url(#clip1_34_83)">
<path d="M3.33277 6.77954L3.32544 7.71704L3.08008 39.4016H38.6099V37.5266H34.7354V26.5696C34.8087 26.5117 34.8753 26.4423 34.9478 26.3828C37.1528 28.6793 39.361 30.9739 41.5652 33.2713L42.9202 31.9749C40.7102 29.6736 38.4996 27.3716 36.2881 25.0718C39.9366 20.7899 39.7437 14.333 35.6985 10.2878C31.445 6.03438 24.5198 6.03438 20.2664 10.2878C17.7166 12.8377 16.7086 16.3445 17.2158 19.6629H17.2012C17.2118 24.3282 17.2282 32.5154 17.2451 37.5266H15.1687L15.1284 25.6358H7.38306C7.39424 28.3396 7.42181 34.338 7.44532 37.5266H4.96973L5.20045 7.73535L5.20778 6.79785L3.33277 6.77954ZM27.9824 8.96216C30.2928 8.96216 32.6043 9.84506 34.3728 11.6135C37.9097 15.1505 37.9133 20.8574 34.3766 24.3943C30.8396 27.9312 25.1291 27.9277 21.5921 24.3905C18.0552 20.8536 18.0552 15.1504 21.5921 11.6134C23.3606 9.84498 25.672 8.96216 27.9824 8.96216ZM19.0872 24.2991C19.4381 24.7943 19.8231 25.273 20.2664 25.7163C21.1082 26.5582 22.0581 27.229 23.0679 27.7378C23.0716 29.9531 23.0827 34.9375 23.0935 37.5266H19.1201C19.1079 33.816 19.097 28.7732 19.0872 24.2991ZM9.25806 27.5108H13.2534L13.301 37.5266H9.32032L9.25806 27.5108ZM32.8604 27.7561C32.8611 30.697 32.8624 34.9127 32.8641 37.5266H28.8797C28.876 35.2358 28.8711 31.3466 28.8687 28.8657C30.244 28.7551 31.5997 28.3846 32.8604 27.7561ZM24.9465 28.4776C25.6186 28.6713 26.3053 28.7996 26.9973 28.8621C27.0005 31.3424 27.0039 35.2348 27.0084 37.5266H24.9649C24.9578 35.133 24.9507 30.897 24.9465 28.4776Z" fill="#002F46"/>
<path d="M27.0862 12.3889L25.4016 14.0735L24.0979 12.7734L22.7539 14.1211L24.054 15.4212L22.373 17.1021L26.2805 21.0132L29.6497 17.6441L30.946 18.9441L27.5806 22.3096L28.8843 23.617L30.5652 21.936L31.8689 23.2361L33.2166 21.8884L31.9128 20.5884L33.6011 18.9002L29.6899 14.9927L26.3208 18.3618L25.0244 17.0618L28.3936 13.6926L27.0862 12.3889Z" fill="#002F46"/>
</g>
</g>
<defs>
<clipPath id="clip0_34_83">
<rect width="46" height="45" fill="white" transform="translate(0 0.590088)"/>
</clipPath>
<clipPath id="clip1_34_83">
<rect width="46" height="45" fill="white" transform="translate(0 0.590088)"/>
</clipPath>
</defs>
</svg>
