<svg width="53" height="46" viewBox="0 0 53 46" fill="none" xmlns="http://www.w3.org/2000/svg">
<g clip-path="url(#clip0_34_93)">
<g clip-path="url(#clip1_34_93)">
<g clip-path="url(#clip2_34_93)">
<mask id="mask0_34_93" style="mask-type:luminance" maskUnits="userSpaceOnUse" x="28" y="34" width="19" height="12">
<path d="M28.1348 34.0901H46.3941V45.5888H28.1348V34.0901Z" fill="white"/>
</mask>
<g mask="url(#mask0_34_93)">
<path fill-rule="evenodd" clip-rule="evenodd" d="M43.312 45.5864H31.2429C29.5946 45.5864 28.2539 44.185 28.2539 42.4612V37.3214C28.2539 35.5976 29.5946 34.1967 31.2429 34.1967L43.312 34.1956C44.9597 34.1956 46.3004 35.5987 46.3004 37.3214V42.4612C46.3004 44.185 44.9597 45.5864 43.312 45.5864ZM31.2429 35.2297C30.1407 35.2297 29.2425 36.1683 29.2425 37.3214V42.4612C29.2425 43.6149 30.1407 44.5529 31.2429 44.5529H43.312C44.4142 44.5529 45.3119 43.6149 45.3119 42.4612V37.3214C45.3119 36.1683 44.4142 35.2297 43.312 35.2297H31.2429Z" fill="#002F46"/>
</g>
<path fill-rule="evenodd" clip-rule="evenodd" d="M31.6746 35.2314C31.4016 35.2314 31.1804 34.9994 31.1804 34.7143C31.1804 34.4415 31.1642 34.0166 31.1458 33.5251C31.0439 30.7836 31.006 28.4507 31.5927 27.6666C32.7501 26.1172 34.3398 24.4826 35.7429 23.0404C36.0443 22.7303 36.3391 22.4272 36.6227 22.1328L43.0274 15.3293C43.0825 15.2704 43.1411 15.2145 43.2012 15.1608L39.6038 5.58548C39.3325 4.86613 39.3587 4.05118 39.6768 3.2922C40.0635 2.36999 40.8414 1.61683 41.8104 1.22393C43.6481 0.47835 45.6502 1.21985 46.2732 2.87656L50.756 14.8099C51.8075 17.6074 51.6693 19.6145 50.2612 21.9661C48.7545 24.4855 47.2678 27.2696 45.8291 29.9628C45.0924 31.3432 44.3302 32.7685 43.5902 34.1127V34.7132C43.5902 34.9994 43.3695 35.2302 43.0954 35.2302C42.8229 35.2302 42.6011 34.9994 42.6011 34.7132V33.974C42.6011 33.8831 42.6251 33.7945 42.6685 33.7158C43.4258 32.3435 44.2087 30.8769 44.9659 29.4586C46.4108 26.7549 47.9047 23.9597 49.4242 21.4181C50.6568 19.3568 50.7688 17.6686 49.836 15.1876L45.3527 3.25547C44.9286 2.12632 43.4999 1.64773 42.167 2.18753C41.4415 2.48075 40.8643 3.03512 40.5823 3.70783C40.3706 4.21266 40.3488 4.74488 40.5232 5.20832L44.0722 14.6531C44.3224 14.5674 44.5854 14.5219 44.8495 14.5208C45.483 14.5179 46.0781 14.7691 46.5195 15.2267C47.508 16.2025 47.5553 17.8371 46.6253 18.8753L40.4815 25.7231C40.2948 25.9312 39.9811 25.9411 39.7827 25.7458C39.5838 25.5505 39.5737 25.2241 39.7599 25.016L45.9043 18.1682C46.4637 17.5445 46.4331 16.5605 45.8369 15.9752C45.833 15.9711 45.8291 15.9682 45.8263 15.9641C45.5733 15.6995 45.2301 15.5543 44.8595 15.5543C44.8573 15.5543 44.8556 15.5543 44.8534 15.5543C44.5798 15.5555 44.3079 15.6353 44.0694 15.7811C44.0593 15.7869 44.0504 15.7933 44.041 15.7986C43.929 15.8697 43.8253 15.9554 43.7323 16.0539L37.3226 22.8615C37.0351 23.1611 36.7386 23.4665 36.4361 23.7772C35.0547 25.1979 33.4895 26.8068 32.3706 28.3038C31.9605 28.8523 32.082 32.0987 32.1332 33.4849C32.1522 33.9874 32.1689 34.4217 32.1689 34.7143C32.1689 34.9994 31.9477 35.2314 31.6746 35.2314Z" fill="#002F46"/>
<mask id="mask1_34_93" style="mask-type:luminance" maskUnits="userSpaceOnUse" x="5" y="34" width="20" height="12">
<path d="M5.88672 34.0901H24.1461V45.5888H5.88672V34.0901Z" fill="white"/>
</mask>
<g mask="url(#mask1_34_93)">
<path fill-rule="evenodd" clip-rule="evenodd" d="M21.0321 45.5864H8.96359C7.31531 45.5864 5.97461 44.185 5.97461 42.4612V37.3214C5.97461 35.5976 7.31531 34.1967 8.96359 34.1967L21.0321 34.1956C22.6804 34.1956 24.0211 35.5987 24.0211 37.3214V42.4612C24.0211 44.185 22.6804 45.5864 21.0321 45.5864ZM8.96359 35.2297C7.86083 35.2297 6.96314 36.1683 6.96314 37.3214V42.4612C6.96314 43.6149 7.86083 44.5529 8.96359 44.5529H21.0321C22.1349 44.5529 23.0326 43.6149 23.0326 42.4612V37.3214C23.0326 36.1683 22.1349 35.2297 21.0321 35.2297H8.96359Z" fill="#002F46"/>
</g>
<path fill-rule="evenodd" clip-rule="evenodd" d="M20.6016 35.2316C20.3291 35.2316 20.1073 34.9996 20.1073 34.7145C20.1073 34.4219 20.124 33.9876 20.143 33.4863C20.1943 32.0989 20.3163 28.8525 19.9056 28.3039C18.7867 26.807 17.2215 25.1969 15.8396 23.7768C15.537 23.4656 15.2411 23.1613 14.9564 22.8657L8.54393 16.0541C8.45087 15.955 8.34612 15.8693 8.23467 15.7976C8.22576 15.7923 8.21684 15.7871 8.20793 15.7813C7.96944 15.6355 7.69752 15.5557 7.42281 15.5545H7.41724C7.04613 15.5545 6.70288 15.6997 6.45102 15.9643C6.44712 15.9684 6.44322 15.9713 6.43932 15.9754C6.15124 16.2575 5.9863 16.6411 5.97349 17.0567C5.96178 17.4735 6.10276 17.8676 6.3719 18.1684L12.5164 25.0162C12.7036 25.2243 12.6924 25.5507 12.4935 25.746C12.2951 25.9413 11.9814 25.9314 11.7948 25.7233L5.65141 18.8755C5.20118 18.373 4.96492 17.7166 4.9861 17.0247C5.00671 16.3351 5.28031 15.6973 5.75673 15.2269C6.19804 14.7693 6.79092 14.518 7.42671 14.521C7.69083 14.5221 7.95384 14.5676 8.20403 14.6533L11.7535 5.2085C11.9274 4.74506 11.9056 4.21284 11.6939 3.70743C11.4131 3.03822 10.8386 2.48501 10.1169 2.19063C10.1142 2.18946 10.1091 2.18771 10.1091 2.18771C8.77629 1.64674 7.34758 2.1265 6.92354 3.25566L2.44128 15.1878C1.50794 17.6688 1.61939 19.357 2.85307 21.4183C4.37204 23.9587 5.86483 26.7539 7.30914 29.4576C8.06639 30.8759 8.8504 32.3431 9.60877 33.716C9.65223 33.7946 9.67508 33.8844 9.67508 33.9742V34.7134C9.67508 34.9996 9.45387 35.2304 9.18083 35.2304C8.90779 35.2304 8.68658 34.9996 8.68658 34.7134V34.1129C7.94492 32.7687 7.18376 31.3422 6.44601 29.9612C5.00783 27.2686 3.52061 24.4857 2.01501 21.9674C0.606923 19.6147 0.468733 17.6076 1.52076 14.8101L6.00302 2.87674C6.62487 1.22295 8.62194 0.480866 10.4569 1.22003C10.4602 1.22061 10.463 1.22178 10.4658 1.22411C11.4348 1.61701 12.2132 2.37017 12.5994 3.29238C12.9181 4.0502 12.9437 4.86515 12.6729 5.58566L9.07496 15.161C9.13514 15.2146 9.19365 15.2706 9.24881 15.3295L15.6574 22.137C15.9366 22.4268 16.2319 22.7305 16.5322 23.0394C17.9353 24.4828 19.525 26.1173 20.684 27.6668C21.2702 28.4508 21.2324 30.7838 21.1309 33.5265C21.112 34.0179 21.0964 34.4417 21.0964 34.7145C21.0964 34.9996 20.8746 35.2316 20.6016 35.2316Z" fill="#002F46"/>
<path fill-rule="evenodd" clip-rule="evenodd" d="M28.5543 26.2465H23.7229C23.5813 26.2465 23.447 26.1835 23.354 26.0739C23.2598 25.9631 23.2152 25.8174 23.2314 25.6716L23.5674 22.5719C22.9427 22.3807 22.3392 22.119 21.7669 21.7913L19.9079 24.2323C19.8209 24.3471 19.6905 24.4171 19.5501 24.4258C19.4086 24.434 19.272 24.3803 19.1723 24.2754L15.7552 20.7023C15.6555 20.598 15.6031 20.4546 15.6109 20.3076C15.6192 20.1607 15.6872 20.0243 15.797 19.9322L18.1313 17.9897C17.8182 17.391 17.568 16.7602 17.3841 16.1061L14.4206 16.4582C14.2801 16.4751 14.1408 16.4285 14.0361 16.33C13.9302 16.232 13.8711 16.0927 13.8711 15.9446V10.8919C13.8711 10.7439 13.9302 10.6045 14.0361 10.5066C14.1408 10.408 14.2813 10.3614 14.4206 10.3783L17.3841 10.7299C17.568 10.0752 17.8171 9.44439 18.1302 8.84683L15.797 6.90434C15.6861 6.81223 15.6192 6.67582 15.6109 6.5289C15.6031 6.38199 15.6555 6.23858 15.7552 6.13423L19.1723 2.56114C19.2715 2.45621 19.4086 2.40141 19.549 2.41015C19.6894 2.41948 19.8198 2.48944 19.9079 2.60428L21.7658 5.04522C22.3386 4.71759 22.9416 4.45583 23.5674 4.26461L23.2302 1.16491C23.2146 1.01916 23.2587 0.87225 23.3528 0.76265C23.447 0.653633 23.5813 0.590088 23.7217 0.590088H28.5543C28.6947 0.590088 28.8296 0.653633 28.9226 0.76265C29.0162 0.87225 29.0608 1.01916 29.0452 1.16607L28.7086 4.26461C29.3339 4.45583 29.9368 4.71759 30.5091 5.04522L32.367 2.60428C32.4551 2.48944 32.5855 2.41948 32.7259 2.41074C32.8663 2.40257 33.004 2.45621 33.1037 2.56114L36.5208 6.13423C36.6206 6.23858 36.6729 6.38199 36.6651 6.5289C36.6573 6.67582 36.5888 6.81223 36.479 6.90434L34.1447 8.84683C34.4584 9.44555 34.7086 10.0763 34.8925 10.7305L37.8554 10.3783C37.9948 10.3614 38.1352 10.408 38.24 10.5066C38.3458 10.6045 38.4055 10.7439 38.4055 10.8919V15.9446C38.4055 16.0927 38.3458 16.232 38.24 16.33C38.1352 16.4285 37.9948 16.4751 37.8554 16.4582L34.8914 16.1067C34.7086 16.7602 34.4584 17.3898 34.1447 17.9897L36.479 19.9322C36.5899 20.0243 36.6573 20.1607 36.6651 20.3076C36.6729 20.4546 36.6206 20.598 36.5208 20.7023L33.1048 24.2754C33.0051 24.3803 32.8663 24.4357 32.727 24.4264C32.5855 24.4182 32.4551 24.3471 32.3681 24.2323L30.5102 21.7913C29.9379 22.119 29.3344 22.3807 28.7086 22.5731L29.0458 25.6716C29.0619 25.8174 29.0174 25.9643 28.9232 26.0739C28.8296 26.1835 28.6947 26.2465 28.5543 26.2465ZM24.2751 25.2123H28.0009L27.6783 22.246C27.6498 21.9866 27.8109 21.747 28.0533 21.6858C28.8719 21.4788 29.6532 21.1401 30.3737 20.6796C30.5866 20.5432 30.863 20.5939 31.0185 20.7985L32.7961 23.1351L35.4303 20.3811L33.1957 18.5208C33.0006 18.3587 32.9521 18.069 33.082 17.8469C33.5228 17.0925 33.846 16.2763 34.0438 15.4217C34.1023 15.1681 34.3319 14.9996 34.5799 15.0288L37.4174 15.3657V11.4697L34.581 11.8078C34.3325 11.8369 34.1023 11.6685 34.0438 11.4149C33.8471 10.559 33.5228 9.74346 33.082 8.98966C32.9521 8.76638 33.0006 8.47781 33.1957 8.31574L35.4303 6.45545L32.7961 3.70145L31.0174 6.03804C30.8624 6.2415 30.5866 6.29338 30.3737 6.15696C29.6521 5.69583 28.8719 5.3577 28.0533 5.15074C27.8109 5.08953 27.6498 4.84992 27.6783 4.5905L28.0009 1.6243H24.2751L24.5978 4.5905C24.6262 4.84876 24.4651 5.08953 24.2227 5.15074C23.403 5.3577 22.6234 5.69641 21.9034 6.15696C21.69 6.29222 21.4141 6.2415 21.2587 6.03804L19.4799 3.70145L16.8458 6.45545L19.0798 8.31574C19.2754 8.47781 19.3239 8.76638 19.1935 8.98966C18.7532 9.74229 18.43 10.5579 18.2322 11.4149C18.1726 11.6685 17.9424 11.8358 17.6956 11.8072L14.8597 11.4708V15.3657L17.6956 15.0288C17.9435 14.9996 18.1737 15.1669 18.2322 15.4217C18.43 16.2775 18.7532 17.0931 19.194 17.8469C19.3239 18.069 19.2754 18.3587 19.0804 18.5208L16.8458 20.3799L19.4799 23.1351L21.2587 20.7985C21.4141 20.5939 21.6905 20.5432 21.9034 20.679C22.6239 21.1401 23.4041 21.4783 24.2227 21.6846C24.4651 21.7459 24.6262 21.9866 24.5978 22.246L24.2751 25.2123Z" fill="#002F46"/>
<path fill-rule="evenodd" clip-rule="evenodd" d="M26.1402 20.1194C22.6082 20.1194 19.7344 17.1147 19.7344 13.4209C19.7344 9.72763 22.6082 6.7229 26.1402 6.7229C29.6721 6.7229 32.5454 9.72763 32.5454 13.4209C32.5454 17.1147 29.6721 20.1194 26.1402 20.1194ZM26.1402 7.75713C23.1532 7.75713 20.723 10.2972 20.723 13.4209C20.723 16.544 23.1532 19.0852 26.1402 19.0852C29.1271 19.0852 31.5574 16.544 31.5574 13.4209C31.5574 10.2972 29.1271 7.75713 26.1402 7.75713Z" fill="#002F46"/>
<path fill-rule="evenodd" clip-rule="evenodd" d="M26.1397 17.0574C24.2188 17.0574 22.6562 15.4227 22.6562 13.4143C22.6562 11.4064 24.2188 9.77173 26.1397 9.77173C28.0612 9.77173 29.6231 11.4064 29.6231 13.4143C29.6231 15.4227 28.0612 17.0574 26.1397 17.0574ZM26.1397 10.8054C24.7644 10.8054 23.6453 11.976 23.6453 13.4143C23.6453 14.8531 24.7644 16.0237 26.1397 16.0237C27.5151 16.0237 28.6346 14.8531 28.6346 13.4143C28.6346 11.976 27.5151 10.8054 26.1397 10.8054Z" fill="#002F46"/>
</g>
</g>
</g>
<defs>
<clipPath id="clip0_34_93">
<rect width="52" height="45" fill="white" transform="translate(0.330078 0.590088)"/>
</clipPath>
<clipPath id="clip1_34_93">
<rect width="52" height="45" fill="white" transform="translate(0.330078 0.590088)"/>
</clipPath>
<clipPath id="clip2_34_93">
<rect width="52" height="45" fill="white" transform="translate(0.330078 0.590088)"/>
</clipPath>
</defs>
</svg>
