<svg width="47" height="46" viewBox="0 0 47 46" fill="none" xmlns="http://www.w3.org/2000/svg">
<g clip-path="url(#clip0_34_68)">
<g clip-path="url(#clip1_34_68)">
<g clip-path="url(#clip2_34_68)">
<mask id="mask0_34_68" style="mask-type:luminance" maskUnits="userSpaceOnUse" x="1" y="0" width="46" height="46">
<path d="M1.16016 0.590088H46.1602V45.5901H1.16016V0.590088Z" fill="white"/>
</mask>
<g mask="url(#mask0_34_68)">
<path d="M33.8707 22.1313C33.6853 21.7342 33.5123 21.3322 33.3413 20.9481C34.9849 19.6887 35.4445 18.3509 34.7858 16.862C34.1265 15.3737 32.8098 14.8494 30.6512 15.2493C30.1362 14.1555 29.6136 13.0506 29.0945 11.9437C28.076 9.77111 27.0768 7.59026 26.0351 5.42866C25.9776 5.30773 25.9106 5.19229 25.8333 5.08236C25.756 4.97311 25.6705 4.87073 25.5754 4.77591C25.4811 4.68178 25.3785 4.5959 25.269 4.51894C25.1596 4.44199 25.044 4.37534 24.9229 4.31831C24.8019 4.26197 24.6767 4.21593 24.5481 4.18089C24.4188 4.14585 24.2875 4.12249 24.1548 4.11012C24.0215 4.09775 23.8888 4.09706 23.7554 4.10806C23.622 4.11905 23.4907 4.14172 23.3614 4.17539C23.2321 4.20906 23.107 4.25372 22.9852 4.30938C22.8635 4.36503 22.7472 4.4303 22.6371 4.50657C22.527 4.58215 22.4237 4.66667 22.3279 4.7608C22.2322 4.85424 22.1453 4.95525 22.0673 5.06449C21.9894 5.17306 21.921 5.2878 21.8621 5.40873C21.804 5.52966 21.7561 5.65402 21.7192 5.7832C21.6823 5.91237 21.657 6.04361 21.6426 6.1769C21.6282 6.3102 21.6255 6.44418 21.6344 6.57817C21.9798 8.81604 21.2678 10.7805 20.1467 12.6267C19.3007 14.005 18.2945 15.2535 17.1277 16.3707C15.9608 17.4886 14.6715 18.4388 13.2605 19.2221C10.7038 20.6774 8.01027 21.9032 5.35714 23.1908C1.99814 24.8151 0.472195 28.3042 1.63358 31.6998C1.70403 31.9004 1.78406 32.0976 1.87298 32.2907C1.96189 32.4838 2.06039 32.672 2.16709 32.8562C2.27379 33.0396 2.38869 33.2183 2.51249 33.3914C2.63629 33.5646 2.76761 33.7309 2.90646 33.8916C3.04599 34.0524 3.19236 34.2056 3.34557 34.3527C3.49947 34.499 3.65952 34.6385 3.82641 34.7697C3.99261 34.901 4.16566 35.0247 4.34349 35.1401C4.52201 35.2548 4.70531 35.3613 4.8934 35.4596C5.0815 35.5572 5.27369 35.6458 5.47068 35.7255C5.66698 35.8052 5.8667 35.8753 6.06984 35.9357C6.27298 35.9969 6.47886 36.0477 6.68678 36.089C6.89471 36.1302 7.10401 36.1611 7.31467 36.1824C7.52602 36.2044 7.73737 36.2154 7.9494 36.2168C8.16143 36.2181 8.37278 36.2099 8.58413 36.1913C8.79479 36.1721 9.00477 36.1439 9.21338 36.1055C9.422 36.067 9.62787 36.0182 9.8317 35.9605C10.264 35.8265 10.4767 35.9777 10.6963 36.3349C11.3392 37.3814 12.0177 38.4059 12.6819 39.4399C13.7222 41.0608 14.7536 42.6878 15.8062 44.3005C15.8746 44.4152 15.9512 44.5244 16.0367 44.6275C16.1216 44.7299 16.2139 44.8261 16.3144 44.914C16.4143 45.0027 16.521 45.0824 16.6332 45.1538C16.746 45.2253 16.863 45.2878 16.9854 45.3407C17.1078 45.3943 17.2337 45.4376 17.3623 45.4706C17.4916 45.5043 17.6222 45.5269 17.7549 45.54C17.8876 45.553 18.0203 45.5551 18.1536 45.5468C18.2863 45.5393 18.4177 45.5207 18.5483 45.4919C18.6741 45.4788 18.7979 45.4555 18.9204 45.4225C19.0421 45.3888 19.1611 45.3455 19.276 45.2926C19.3916 45.2397 19.5018 45.1779 19.6064 45.1071C19.7117 45.0363 19.8102 44.9566 19.9019 44.8694C19.9942 44.7821 20.0783 44.688 20.1556 44.587C20.2322 44.486 20.3 44.3788 20.3595 44.2668C20.419 44.1541 20.4682 44.038 20.5086 43.9171C20.5489 43.7968 20.579 43.6738 20.5995 43.5481C20.6912 42.7985 20.5886 42.0777 20.2911 41.3837C19.4334 39.3644 18.4553 37.3965 17.5264 35.4149C19.9498 34.0524 20.1823 33.656 19.6769 31.7809C19.761 31.7156 19.8526 31.6627 19.9511 31.6208C21.3457 31.1652 22.7739 30.8643 24.2335 30.7186C25.6938 30.5723 27.152 30.5853 28.6095 30.7564C29.1095 30.8038 29.602 30.8931 30.0876 31.023C30.5726 31.1529 31.0438 31.3219 31.5014 31.5301C31.959 31.739 32.396 31.9843 32.8126 32.2653C33.2291 32.547 33.6203 32.861 33.9849 33.208C34.9938 34.2304 36.1996 34.4076 37.2016 33.6937C38.1831 32.9929 38.4116 31.8324 37.8117 30.5455C36.4978 27.7401 35.1846 24.9346 33.8707 22.1313ZM33.2674 17.4721C33.6203 18.1729 33.4302 18.768 32.5875 19.3795L31.4015 16.8551C32.3481 16.5947 32.9316 16.8097 33.2674 17.4721ZM9.04923 34.4241C8.90559 34.4612 8.76059 34.4908 8.61422 34.5141C8.46785 34.5375 8.3208 34.5547 8.17306 34.5643C8.02532 34.5746 7.8769 34.5774 7.72916 34.5739C7.58074 34.5705 7.433 34.5602 7.28594 34.543C7.13889 34.5265 6.99252 34.5025 6.84752 34.4722C6.70252 34.442 6.55956 34.4049 6.41798 34.3616C6.27572 34.3176 6.13687 34.2682 5.99939 34.2118C5.86191 34.1555 5.72785 34.093 5.59653 34.0249C5.46452 33.9562 5.33662 33.882 5.21214 33.8016C5.08697 33.7212 4.96591 33.6353 4.84895 33.544C4.73199 33.4533 4.61913 33.3564 4.51106 33.2547C4.403 33.1537 4.29972 33.0472 4.20054 32.9359C4.10205 32.8253 4.00834 32.7098 3.92079 32.5903C3.83256 32.4707 3.7498 32.347 3.67251 32.2199C3.59591 32.0928 3.52477 31.963 3.45911 31.829C3.39413 31.6957 3.33463 31.5589 3.28196 31.4201C3.22314 31.2841 3.17047 31.1453 3.12328 31.0045C3.07677 30.8629 3.03642 30.7207 3.00222 30.5757C2.96802 30.4314 2.94066 30.2858 2.91946 30.1387C2.89825 29.9917 2.88389 29.8439 2.87568 29.6955C2.86747 29.5471 2.86611 29.3987 2.87089 29.2503C2.87568 29.1019 2.88731 28.9535 2.90578 28.8064C2.92356 28.6587 2.94818 28.5124 2.97896 28.3667C3.01043 28.2217 3.04736 28.0781 3.09113 27.9359C3.13491 27.7943 3.18484 27.6542 3.24092 27.5168C3.29701 27.3793 3.35925 27.2447 3.42696 27.1127C3.49468 26.9808 3.56855 26.8523 3.64789 26.7266C3.72723 26.6015 3.81204 26.4799 3.90233 26.3617C3.99261 26.2443 4.08768 26.1309 4.18754 26.0209C4.2874 25.9117 4.39274 25.8073 4.50217 25.7069C4.61161 25.6073 4.72515 25.5125 4.84279 25.4225C4.96043 25.3325 5.08218 25.248 5.20735 25.1689C6.6519 24.3032 8.22914 23.6573 9.83101 22.8699C11.3071 26.0216 12.7455 29.0861 14.2379 32.2673C12.5498 33.0864 10.8201 33.8057 9.04923 34.4241ZM18.8458 42.1004C19.2241 42.9084 19.1283 43.5096 18.5401 43.7721C17.8582 44.0765 17.3931 43.7659 17.0141 43.1709C15.3295 40.5173 13.6216 37.8754 11.8754 35.1573L14.8726 33.7329C14.9923 33.9439 15.11 34.1232 15.2002 34.3169C16.4184 36.9094 17.6338 39.5038 18.8458 42.1004ZM16.8001 33.8009C16.6838 33.5673 16.5607 33.3337 16.3931 32.9998L17.9519 32.3051C18.4156 33.2025 18.3062 33.3337 16.8001 33.8009ZM36.4903 32.064C36.4363 32.1918 36.3487 32.2873 36.2263 32.3512C35.8836 32.2708 35.4315 32.3017 35.2167 32.0908C34.8132 31.7046 34.3823 31.3521 33.924 31.034C33.4651 30.7152 32.9849 30.4342 32.4829 30.1909C31.9809 29.9477 31.4631 29.7457 30.9296 29.5835C30.3961 29.4214 29.853 29.3025 29.301 29.2256C25.4653 28.5831 21.7698 29.2317 18.1502 30.4994C17.3431 30.7825 16.5552 31.1219 15.6729 31.4689C14.2064 28.3385 12.7797 25.2919 11.4309 22.4144C13.506 20.9625 15.6024 19.679 17.4861 18.1345C20.2035 15.9055 22.3245 13.1825 23.107 9.63712C23.2711 8.75833 23.3382 7.87266 23.3094 6.97875C23.3094 6.49091 23.1446 5.97077 23.7383 5.78045C24.4106 5.56333 24.5659 6.14942 24.7772 6.59741C26.9543 11.2463 29.1314 15.8938 31.3078 20.54C32.9288 23.9988 34.5505 27.4577 36.1729 30.9165C36.2311 31.0457 36.2735 31.1268 36.3398 31.2951C36.5601 31.8523 36.5094 32.0124 36.4903 32.0653V32.064ZM30.6786 4.47084C30.6047 4.31144 30.5753 4.14447 30.591 3.96926C30.6068 3.79337 30.6649 3.63396 30.7661 3.49036C31.3099 2.6734 31.8618 1.85644 32.4213 1.05735C32.5191 0.910308 32.6457 0.795563 32.8009 0.712424C32.9562 0.629973 33.1224 0.588747 33.2982 0.590121C33.4808 0.596992 33.6511 0.647837 33.8084 0.74197C33.9657 0.836789 34.0902 0.963215 34.1832 1.12193L34.2489 1.22019L34.2209 1.33699C34.212 1.39883 34.2024 1.46205 34.1962 1.53007C34.1846 1.73002 34.1306 1.91828 34.0335 2.09349C33.4815 2.94824 32.8946 3.79886 32.3379 4.59109C32.2387 4.74087 32.1081 4.85493 31.9473 4.93463C31.8707 4.97105 31.7914 4.99647 31.7079 5.01159C31.6245 5.02602 31.5411 5.02945 31.4569 5.02189C31.3728 5.01365 31.2907 4.9951 31.2114 4.96487C31.1327 4.93532 31.0589 4.89478 30.9905 4.84531C30.8543 4.74774 30.7497 4.62338 30.6765 4.47222L30.6786 4.47084ZM45.8149 29.295L45.7451 29.3898L45.6295 29.4021C45.5673 29.4145 45.5058 29.4276 45.4401 29.4441C45.2493 29.499 45.0557 29.5107 44.8594 29.4777C43.8711 29.2393 42.8779 28.9686 41.9491 28.7054C41.7754 28.6615 41.6249 28.5763 41.497 28.4505C41.4375 28.3901 41.3869 28.3234 41.3451 28.2499C41.3041 28.1757 41.2726 28.098 41.2521 28.0156C41.2309 27.9338 41.222 27.85 41.2234 27.7655C41.2248 27.681 41.2378 27.5978 41.2617 27.5168C41.2788 27.4556 41.3014 27.3965 41.3301 27.3402C41.3588 27.2831 41.393 27.2302 41.432 27.1801C41.471 27.1299 41.5148 27.0846 41.5626 27.0433C41.6105 27.0021 41.6625 26.9657 41.7172 26.9348C41.7726 26.9039 41.8301 26.8784 41.8903 26.8585C41.9505 26.8393 42.012 26.8255 42.0749 26.818C42.1379 26.8104 42.2008 26.809 42.2637 26.8145C42.3266 26.8193 42.3882 26.8303 42.4491 26.8475C43.3991 27.0901 44.3485 27.3402 45.2855 27.6033C45.4565 27.6466 45.607 27.7284 45.7369 27.8486C45.8669 27.9682 45.9606 28.1118 46.018 28.2794C46.0728 28.4546 46.0823 28.6326 46.0461 28.8133C46.0105 28.994 45.9332 29.1541 45.8149 29.295ZM42.2528 13.568C41.3985 14.1177 40.5148 14.6509 39.6824 15.1442C39.5306 15.239 39.365 15.2892 39.1858 15.2947C39.101 15.2961 39.0176 15.2864 38.9362 15.2651C38.8541 15.2445 38.7761 15.2129 38.7029 15.171C38.6291 15.1284 38.5627 15.0776 38.5025 15.0178C38.443 14.9573 38.3917 14.8907 38.35 14.8165C38.3179 14.7615 38.2919 14.7038 38.2707 14.6433C38.2502 14.5835 38.2358 14.5217 38.2269 14.4585C38.218 14.3953 38.216 14.3321 38.2201 14.2682C38.2235 14.2049 38.2337 14.1417 38.2502 14.0806C38.2659 14.0187 38.2885 13.959 38.3158 13.9019C38.3439 13.8449 38.3774 13.7906 38.4157 13.7398C38.454 13.6896 38.4971 13.6429 38.545 13.601C38.5928 13.5591 38.6441 13.522 38.6988 13.4897C39.5312 12.9695 40.3684 12.4549 41.2063 11.9581C41.3561 11.8647 41.5189 11.8118 41.6947 11.8008C41.8704 11.7898 42.0387 11.8214 42.1987 11.8956C42.3629 11.9781 42.497 12.0949 42.6016 12.246C42.7062 12.3972 42.7678 12.5642 42.787 12.7476L42.8068 12.8644L42.7329 12.9592C42.6994 13.0121 42.6652 13.0657 42.6317 13.1241C42.5394 13.3014 42.4128 13.4491 42.2528 13.568Z" fill="#002F46"/>
</g>
</g>
</g>
</g>
<defs>
<clipPath id="clip0_34_68">
<rect width="46" height="45" fill="white" transform="translate(0.660156 0.590088)"/>
</clipPath>
<clipPath id="clip1_34_68">
<rect width="46" height="45" fill="white" transform="translate(0.660156 0.590088)"/>
</clipPath>
<clipPath id="clip2_34_68">
<rect width="46" height="45" fill="white" transform="translate(0.660156 0.590088)"/>
</clipPath>
</defs>
</svg>
