<svg width="46" height="45" viewBox="0 0 46 45" fill="none" xmlns="http://www.w3.org/2000/svg">
<g id="Group 45338">
<g id="Clip path group">
<mask id="mask0_7454_8501" style="mask-type:luminance" maskUnits="userSpaceOnUse" x="16" y="16" width="30" height="30">
<g id="556143cfb4">
<path id="Vector" d="M16.7109 16.2031H45.4982V45.0011H16.7109V16.2031Z" fill="white"/>
</g>
</mask>
<g mask="url(#mask0_7454_8501)">
<g id="Group">
<path id="Vector_2" d="M45.135 32.9985L41.1809 28.6273L38.2956 21.1216C38.2597 21.0299 38.2124 20.9448 38.152 20.8673C38.0924 20.7888 38.0225 20.7208 37.9431 20.6631C37.8637 20.6045 37.7777 20.5591 37.6851 20.526C37.5915 20.4929 37.4961 20.474 37.3978 20.4684C31.0234 20.1205 20.7497 18.8103 18.5686 16.6304C18.5213 16.5812 18.4703 16.5378 18.4145 16.499C18.3588 16.4602 18.3002 16.4281 18.2378 16.4016C18.1754 16.3742 18.1112 16.3544 18.045 16.3402C17.9788 16.326 17.9117 16.3194 17.8437 16.3184C17.7757 16.3175 17.7086 16.3241 17.6424 16.3364C17.5753 16.3496 17.511 16.3686 17.4487 16.3941C17.3854 16.4205 17.3258 16.4517 17.2701 16.4895C17.2134 16.5264 17.1614 16.5699 17.1132 16.6172C17.065 16.6654 17.0225 16.7174 16.9847 16.7741C16.9478 16.8299 16.9157 16.8894 16.8901 16.9528C16.8646 17.0151 16.8457 17.0804 16.8325 17.1465C16.8202 17.2127 16.8136 17.2798 16.8145 17.3479C16.8145 17.416 16.8221 17.4831 16.8363 17.5492C16.8505 17.6154 16.8703 17.6797 16.8968 17.7421C16.9242 17.8045 16.9563 17.8631 16.995 17.9189C17.0338 17.9746 17.0773 18.0266 17.1255 18.0729C19.3057 20.2547 20.6155 30.5312 20.9633 36.9083C20.969 37.0066 20.9879 37.1021 21.021 37.1947C21.0541 37.2873 21.0994 37.3734 21.158 37.4528C21.2157 37.5322 21.2837 37.6021 21.3621 37.6626C21.4396 37.7222 21.5247 37.7695 21.6164 37.8054L29.1201 40.6914L33.49 44.6466C33.5873 44.7345 33.697 44.8007 33.8198 44.847C33.9427 44.8924 34.0693 44.9132 34.2007 44.9094C34.3311 44.9066 34.4568 44.8791 34.5768 44.8271C34.6968 44.7761 34.8036 44.7033 34.8962 44.6107L45.1 34.4041C45.1926 34.3115 45.2644 34.2047 45.3164 34.0846C45.3674 33.9646 45.3948 33.8389 45.3977 33.7084C45.4015 33.5779 45.3797 33.4513 45.3344 33.3284C45.289 33.2055 45.2228 33.0958 45.135 32.9985ZM20.951 21.8958L26.3133 27.2595L26.3397 27.233C26.1243 27.6565 26.0146 28.1055 26.0109 28.5801C26.0109 28.7814 26.0298 28.9799 26.0694 29.1775C26.1082 29.3751 26.1668 29.566 26.2433 29.7523C26.3208 29.9375 26.4144 30.1143 26.5269 30.2816C26.6384 30.448 26.765 30.603 26.9068 30.7458C27.0495 30.8876 27.2035 31.0143 27.3708 31.1258C27.5381 31.2374 27.7148 31.3319 27.9 31.4094C28.0862 31.486 28.2771 31.5446 28.4746 31.5833C28.6721 31.6221 28.8706 31.6419 29.0719 31.6419C29.2732 31.6419 29.4716 31.6221 29.6692 31.5833C29.8657 31.5446 30.0576 31.486 30.2428 31.4094C30.429 31.3319 30.6057 31.2374 30.772 31.1258C30.9393 31.0143 31.0943 30.8876 31.2361 30.7458C31.3788 30.603 31.5054 30.448 31.6169 30.2816C31.7284 30.1143 31.8229 29.9375 31.8995 29.7523C31.977 29.566 32.0346 29.3751 32.0743 29.1775C32.1131 28.9799 32.1329 28.7814 32.1329 28.5801C32.1329 28.3787 32.1131 28.1802 32.0743 27.9826C32.0346 27.786 31.977 27.5941 31.8995 27.4079C31.8229 27.2226 31.7284 27.0458 31.6169 26.8785C31.5054 26.7121 31.3788 26.5571 31.2361 26.4153C31.0943 26.2726 30.9393 26.1459 30.772 26.0344C30.6057 25.9228 30.429 25.8283 30.2428 25.7508C30.0576 25.6742 29.8657 25.6165 29.6692 25.5768C29.4716 25.5381 29.2732 25.5182 29.0719 25.5182C28.5975 25.5211 28.1486 25.6298 27.7261 25.8434L27.7526 25.8169L22.3904 20.4532C27.0778 21.5262 31.822 22.1983 36.6229 22.4696L39.1027 28.9194L29.4083 38.6155L22.9631 36.1331C22.6909 31.3309 22.019 26.5855 20.9463 21.8967L20.951 21.8958ZM28.0512 28.5801C28.0512 28.513 28.0578 28.4468 28.0711 28.3806C28.0843 28.3154 28.1032 28.2511 28.1287 28.1897C28.1542 28.1273 28.1864 28.0687 28.2232 28.0129C28.2601 27.9571 28.3026 27.9061 28.3499 27.8588C28.3971 27.8106 28.4491 27.769 28.5049 27.7312C28.5606 27.6943 28.6192 27.6631 28.6816 27.6376C28.743 27.6111 28.8073 27.5922 28.8725 27.579C28.9386 27.5658 29.0048 27.5591 29.0719 27.5591C29.139 27.5591 29.2051 27.5658 29.2703 27.579C29.3365 27.5922 29.4008 27.6111 29.4622 27.6376C29.5246 27.6631 29.5832 27.6943 29.6389 27.7312C29.6947 27.769 29.7457 27.8106 29.793 27.8588C29.8402 27.9061 29.8827 27.9571 29.9205 28.0129C29.9574 28.0687 29.9886 28.1273 30.0141 28.1897C30.0406 28.2511 30.0595 28.3154 30.0727 28.3806C30.0859 28.4468 30.0925 28.513 30.0925 28.5801C30.0925 28.6472 30.0859 28.7134 30.0727 28.7795C30.0595 28.8448 30.0406 28.909 30.0141 28.9705C29.9886 29.0329 29.9574 29.0915 29.9205 29.1473C29.8827 29.203 29.8402 29.2541 29.793 29.3023C29.7457 29.3496 29.6947 29.3912 29.6389 29.429C29.5832 29.4658 29.5246 29.497 29.4622 29.5235C29.4008 29.549 29.3365 29.5679 29.2703 29.5812C29.2051 29.5944 29.139 29.601 29.0719 29.601C29.0048 29.601 28.9386 29.5944 28.8725 29.5812C28.8073 29.5679 28.743 29.549 28.6816 29.5235C28.6192 29.497 28.5606 29.4658 28.5049 29.429C28.4491 29.3912 28.3971 29.3496 28.3499 29.3023C28.3026 29.2541 28.2601 29.203 28.2232 29.1473C28.1864 29.0915 28.1542 29.0329 28.1287 28.9705C28.1032 28.909 28.0843 28.8448 28.0711 28.7795C28.0578 28.7134 28.0512 28.6472 28.0512 28.5801ZM34.1383 42.4818L31.1434 39.7707L40.2594 30.6522L42.9698 33.6488L34.1383 42.4818Z" fill="#002F46"/>
</g>
</g>
</g>
<g id="Clip path group_2">
<mask id="mask1_7454_8501" style="mask-type:luminance" maskUnits="userSpaceOnUse" x="0" y="0" width="40" height="39">
<g id="e044e03ba8">
<path id="Vector_3" d="M0.5 0H39.4542V38.9497H0.5V0Z" fill="white"/>
</g>
</mask>
<g mask="url(#mask1_7454_8501)">
<g id="Group_2">
<path id="Vector_4" d="M13.4671 30.9192C13.4189 30.872 13.3678 30.8294 13.3121 30.7926C13.2563 30.7548 13.1977 30.7236 13.1354 30.698C13.0739 30.6725 13.0097 30.6527 12.9445 30.6394C12.8783 30.6271 12.8122 30.6205 12.7451 30.6205C12.678 30.6205 12.6118 30.6271 12.5466 30.6394C12.4804 30.6527 12.4171 30.6725 12.3547 30.698C12.2933 30.7236 12.2338 30.7548 12.178 30.7926C12.1223 30.8294 12.0712 30.872 12.024 30.9192L11.1347 31.8078C10.9353 31.4997 10.7472 31.1849 10.5705 30.8635C10.3938 30.5411 10.2284 30.214 10.0753 29.8803C9.92218 29.5467 9.78137 29.2082 9.6519 28.8641C9.52337 28.521 9.40618 28.1731 9.30223 27.8205C9.19827 27.4689 9.10754 27.1134 9.02911 26.7542C8.95067 26.3959 8.88451 26.0348 8.83253 25.6718C8.77961 25.3079 8.73992 24.9439 8.7144 24.5772C8.68794 24.2113 8.67471 23.8445 8.67471 23.4778C8.67471 23.11 8.68794 22.7432 8.7144 22.3774C8.73992 22.0116 8.77961 21.6467 8.83253 21.2827C8.88451 20.9197 8.95067 20.5586 9.02911 20.2004C9.10754 19.8411 9.19827 19.4857 9.30223 19.134C9.40618 18.7814 9.52337 18.4336 9.6519 18.0904C9.78137 17.7463 9.92218 17.4079 10.0753 17.0742C10.2284 16.7405 10.3938 16.4134 10.5705 16.0911C10.7472 15.7697 10.9353 15.4549 11.1347 15.1467L12.0211 16.0325C12.0684 16.0797 12.1194 16.1223 12.1752 16.1592C12.2309 16.197 12.2895 16.2282 12.3519 16.2537C12.4133 16.2792 12.4776 16.2991 12.5428 16.3113C12.609 16.3246 12.6751 16.3312 12.7422 16.3312C12.8093 16.3312 12.8755 16.3246 12.9416 16.3113C13.0068 16.2991 13.0711 16.2792 13.1325 16.2537C13.1949 16.2282 13.2535 16.197 13.3093 16.1592C13.365 16.1223 13.416 16.0797 13.4633 16.0325L16.5253 12.9706C16.5725 12.9234 16.6141 12.8714 16.6519 12.8156C16.6888 12.7598 16.7199 12.7012 16.7455 12.6398C16.7719 12.5774 16.7908 12.514 16.8041 12.4479C16.8173 12.3826 16.8239 12.3155 16.8239 12.2484C16.8239 12.1822 16.8173 12.1151 16.8041 12.0499C16.7908 11.9837 16.7719 11.9204 16.7455 11.858C16.7199 11.7965 16.6888 11.7379 16.6519 11.6822C16.6141 11.6264 16.5725 11.5744 16.5253 11.5271L15.6388 10.6414C15.9469 10.4419 16.2616 10.2538 16.5839 10.077C16.9052 9.8993 17.2331 9.73482 17.5667 9.58073C17.8994 9.42759 18.2386 9.28674 18.5817 9.15723C18.9257 9.02867 19.2735 8.9124 19.625 8.80841C19.9775 8.70348 20.3329 8.61273 20.6911 8.53427C21.0502 8.45581 21.4102 8.38964 21.7741 8.33765C22.137 8.28471 22.5018 8.24595 22.8675 8.21948C23.2342 8.19301 23.6009 8.17978 23.9676 8.17978C24.3342 8.17978 24.7009 8.19301 25.0676 8.21948C25.4333 8.24595 25.7981 8.28471 26.161 8.33765C26.5249 8.38964 26.8859 8.45581 27.2441 8.53427C27.6022 8.61273 27.9576 8.70348 28.3101 8.80841C28.6616 8.9124 29.0094 9.02867 29.3534 9.15723C29.6965 9.28674 30.0357 9.42759 30.3694 9.58073C30.702 9.73482 31.0299 9.8993 31.3513 10.077C31.6735 10.2538 31.9882 10.4419 32.2963 10.6414L31.407 11.53C31.3598 11.5772 31.3172 11.6292 31.2804 11.685C31.2435 11.7408 31.2114 11.7994 31.1859 11.8618C31.1604 11.9232 31.1415 11.9875 31.1282 12.0527C31.115 12.1189 31.1084 12.1851 31.1084 12.2522C31.1084 12.3193 31.115 12.3855 31.1282 12.4507C31.1415 12.5169 31.1604 12.5802 31.1859 12.6426C31.2114 12.704 31.2435 12.7636 31.2804 12.8184C31.3172 12.8742 31.3598 12.9262 31.407 12.9735L34.469 16.0353C34.5162 16.0826 34.5673 16.1251 34.623 16.1629C34.6788 16.1998 34.7374 16.231 34.7998 16.2565C34.8612 16.282 34.9255 16.3019 34.9907 16.3151C35.0568 16.3274 35.123 16.334 35.1901 16.334C35.2572 16.334 35.3233 16.3274 35.3885 16.3151C35.4547 16.3019 35.5189 16.282 35.5804 16.2565C35.6418 16.231 35.7013 16.1998 35.7571 16.1629C35.8129 16.1251 35.8639 16.0826 35.9111 16.0353L38.9722 12.9735C39.0204 12.9262 39.062 12.8742 39.0998 12.8184C39.1366 12.7636 39.1678 12.704 39.1933 12.6426C39.2198 12.5802 39.2387 12.5169 39.2519 12.4507C39.2651 12.3855 39.2718 12.3193 39.2718 12.2522C39.2718 12.1851 39.2651 12.1189 39.2519 12.0527C39.2387 11.9875 39.2198 11.9232 39.1933 11.8618C39.1678 11.7994 39.1366 11.7408 39.0998 11.685C39.062 11.6292 39.0204 11.5772 38.9722 11.53L35.9111 8.4681C35.8639 8.42083 35.8129 8.37829 35.7571 8.34143C35.7013 8.30456 35.6418 8.27242 35.5804 8.2469C35.5189 8.22137 35.4547 8.20247 35.3885 8.18923C35.3233 8.176 35.2572 8.16938 35.1901 8.16938C35.123 8.16938 35.0568 8.176 34.9907 8.18923C34.9255 8.20247 34.8612 8.22137 34.7998 8.2469C34.7374 8.27242 34.6788 8.30456 34.623 8.34143C34.5673 8.37829 34.5162 8.42083 34.469 8.4681L33.7545 9.18275C33.2442 8.83204 32.7169 8.51064 32.1716 8.21665C31.6272 7.92265 31.0687 7.65891 30.496 7.42448C29.9233 7.19098 29.3392 6.98774 28.7448 6.8157C28.1504 6.64459 27.5484 6.50469 26.9388 6.39692C26.3293 6.2901 25.7159 6.21542 25.0988 6.17383C24.4807 6.13224 23.8636 6.12278 23.2446 6.14736C22.6265 6.17194 22.0113 6.22866 21.3989 6.31846C20.7865 6.40921 20.1807 6.53116 19.5816 6.68619L22.3846 3.99394C22.5689 4.04971 22.7569 4.07996 22.9488 4.0828C23.083 4.0828 23.2162 4.06957 23.3476 4.0431C23.479 4.01663 23.6066 3.97787 23.7304 3.92682C23.8542 3.87578 23.9713 3.81244 24.0829 3.73871C24.1944 3.66403 24.2974 3.57895 24.3919 3.48442C24.4873 3.38989 24.5715 3.28685 24.6461 3.1753C24.7208 3.06375 24.7831 2.94654 24.8351 2.8227C24.8862 2.69886 24.9249 2.5703 24.9504 2.4389C24.9769 2.30751 24.9901 2.17516 24.9901 2.04093C24.9901 1.90669 24.9769 1.77435 24.9504 1.64295C24.9249 1.51155 24.8862 1.38394 24.8351 1.2601C24.7831 1.13626 24.7208 1.0181 24.6461 0.906554C24.5715 0.795952 24.4873 0.691968 24.3919 0.597437C24.2974 0.502906 24.1944 0.417828 24.0829 0.344093C23.9713 0.269414 23.8542 0.206078 23.7304 0.155031C23.6066 0.103984 23.479 0.0652262 23.3476 0.0387578C23.2162 0.0132343 23.083 0 22.9488 0C22.8155 0 22.6823 0.0132343 22.5509 0.0387578C22.4196 0.0652262 22.292 0.103984 22.1682 0.155031C22.0444 0.206078 21.9272 0.269414 21.8157 0.344093C21.7042 0.417828 21.6011 0.502906 21.5066 0.597437C21.4112 0.691968 21.3271 0.795952 21.2524 0.906554C21.1778 1.0181 21.1154 1.13626 21.0634 1.2601C21.0124 1.38394 20.9736 1.51155 20.9481 1.64295C20.9217 1.77435 20.9084 1.90669 20.9084 2.04093C20.9103 2.20447 20.9321 2.36611 20.9727 2.52493L14.1144 9.11186L13.4671 8.46432C13.4189 8.41705 13.3678 8.37451 13.3121 8.33765C13.2563 8.29983 13.1977 8.26864 13.1354 8.24312C13.0739 8.21759 13.0097 8.19774 12.9445 8.18451C12.8783 8.17222 12.8122 8.1656 12.7451 8.1656C12.678 8.1656 12.6118 8.17222 12.5466 8.18451C12.4804 8.19774 12.4171 8.21759 12.3547 8.24312C12.2933 8.26864 12.2338 8.29983 12.178 8.33765C12.1223 8.37451 12.0712 8.41705 12.024 8.46432L8.96295 11.5262C8.9157 11.5734 8.87317 11.6254 8.83537 11.6812C8.79851 11.737 8.76733 11.7956 8.74181 11.857C8.71629 11.9194 8.69645 11.9828 8.68322 12.0489C8.66998 12.1142 8.66432 12.1813 8.66432 12.2475C8.66432 12.3146 8.66998 12.3807 8.68322 12.4469C8.69645 12.5131 8.71629 12.5764 8.74181 12.6388C8.76733 12.7003 8.79851 12.7589 8.83537 12.8146C8.87317 12.8704 8.9157 12.9224 8.96295 12.9697L9.61031 13.6172L3.02518 20.4773C2.86641 20.4367 2.70481 20.4149 2.54132 20.4131C2.40712 20.4131 2.27481 20.4263 2.14345 20.4528C2.01209 20.4783 1.8845 20.517 1.7607 20.569C1.6369 20.6201 1.51877 20.6825 1.40725 20.7571C1.29573 20.8318 1.19272 20.916 1.09822 21.0114C1.00371 21.106 0.918659 21.209 0.843999 21.3206C0.770285 21.4321 0.706967 21.5493 0.655934 21.6732C0.604901 21.797 0.566154 21.9246 0.539692 22.056C0.513231 22.1874 0.5 22.3207 0.5 22.4549C0.5 22.5882 0.513231 22.7215 0.539692 22.8529C0.566154 22.9843 0.604901 23.1119 0.655934 23.2358C0.706967 23.3596 0.770285 23.4778 0.843999 23.5884C0.918659 23.6999 1.00371 23.8029 1.09822 23.8984C1.19272 23.9929 1.29573 24.0771 1.40725 24.1518C1.51877 24.2264 1.6369 24.2898 1.7607 24.3408C1.8845 24.3919 2.01209 24.4306 2.14345 24.4571C2.27481 24.4826 2.40712 24.4959 2.54132 24.4959C2.67551 24.4959 2.80782 24.4826 2.93918 24.4571C3.07054 24.4306 3.19813 24.3919 3.32193 24.3408C3.44573 24.2898 3.56386 24.2264 3.67538 24.1518C3.7869 24.0771 3.88991 23.9929 3.98441 23.8984C4.07892 23.8029 4.16397 23.6999 4.23769 23.5884C4.31234 23.4778 4.37566 23.3596 4.4267 23.2358C4.47773 23.1119 4.51648 22.9843 4.54294 22.8529C4.5694 22.7215 4.58169 22.5882 4.58169 22.4549C4.57979 22.264 4.5505 22.0768 4.49474 21.8944L7.18531 19.0868C7.03032 19.6861 6.90841 20.2921 6.81863 20.9046C6.72885 21.5172 6.6712 22.1326 6.64757 22.7508C6.623 23.37 6.63245 23.9882 6.67403 24.6055C6.71656 25.2228 6.79122 25.8363 6.89801 26.446C7.00575 27.0558 7.14561 27.6579 7.31667 28.2535C7.48867 28.8481 7.69185 29.4313 7.92623 30.0051C8.1606 30.578 8.42427 31.1367 8.71818 31.6821C9.01209 32.2266 9.33341 32.7541 9.68403 33.2646L8.96957 33.9792C8.92231 34.0265 8.87979 34.0785 8.84293 34.1343C8.80607 34.1891 8.77394 34.2486 8.74842 34.3101C8.72291 34.3725 8.70401 34.4358 8.69078 34.502C8.67755 34.5672 8.67093 34.6334 8.67093 34.7005C8.67093 34.7676 8.67755 34.8338 8.69078 34.9C8.70401 34.9652 8.72291 35.0295 8.74842 35.0909C8.77394 35.1533 8.80607 35.2119 8.84293 35.2677C8.87979 35.3235 8.92231 35.3754 8.96957 35.4227L12.0306 38.4846C12.0788 38.5318 12.1298 38.5744 12.1856 38.6112C12.2413 38.6481 12.2999 38.6803 12.3623 38.7058C12.4237 38.7313 12.488 38.7502 12.5532 38.7634C12.6194 38.7767 12.6855 38.7833 12.7526 38.7833C12.8197 38.7833 12.8859 38.7767 12.9511 38.7634C13.0172 38.7502 13.0805 38.7313 13.1429 38.7058C13.2044 38.6803 13.2639 38.6481 13.3196 38.6112C13.3745 38.5744 13.4264 38.5318 13.4737 38.4846L16.5347 35.4227C16.582 35.3754 16.6245 35.3235 16.6623 35.2677C16.6992 35.2119 16.7303 35.1533 16.7559 35.0909C16.7814 35.0295 16.8012 34.9652 16.8145 34.9C16.8277 34.8338 16.8334 34.7676 16.8334 34.7005C16.8334 34.6334 16.8277 34.5672 16.8145 34.502C16.8012 34.4358 16.7814 34.3725 16.7559 34.3101C16.7303 34.2486 16.6992 34.1891 16.6623 34.1343C16.6245 34.0785 16.582 34.0265 16.5347 33.9792L13.4671 30.9192ZM36.8127 12.2475L35.1938 13.8668L33.5759 12.2475L35.1938 10.6291L36.8127 12.2475ZM12.7451 10.6291L14.3639 12.2475L12.7451 13.8668L11.1271 12.2475L12.7451 10.6291ZM12.7451 36.3217L11.1271 34.7024L12.7451 33.084L14.3639 34.7024L12.7451 36.3217Z" fill="#002F46"/>
</g>
</g>
</g>
</g>
</svg>
