<svg width="46" height="45" viewBox="0 0 46 45" fill="none" xmlns="http://www.w3.org/2000/svg">
<g id="Group 45339">
<g id="Clip path group">
<mask id="mask0_7454_5325" style="mask-type:luminance" maskUnits="userSpaceOnUse" x="0" y="0" width="46" height="45">
<g id="d670709045">
<path id="Vector" d="M0.5 0H45.5V45H0.5V0Z" fill="white"/>
</g>
</mask>
<g mask="url(#mask0_7454_5325)">
<g id="Group">
<path id="Vector_2" d="M33.2105 21.5412C33.0251 21.1441 32.8521 20.7421 32.6811 20.358C34.3247 19.0986 34.7843 17.7608 34.1256 16.2719C33.4663 14.7836 32.1496 14.2593 29.991 14.6592C29.476 13.5654 28.9534 12.4605 28.4343 11.3536C27.4158 9.18102 26.4166 7.00017 25.3749 4.83857C25.3174 4.71764 25.2504 4.6022 25.1731 4.49227C25.0958 4.38302 25.0103 4.28064 24.9152 4.18582C24.8209 4.09169 24.7183 4.00581 24.6088 3.92885C24.4994 3.8519 24.3838 3.78525 24.2627 3.72822C24.1417 3.67188 24.0165 3.62584 23.8879 3.5908C23.7586 3.55576 23.6273 3.5324 23.4946 3.52003C23.3613 3.50766 23.2286 3.50697 23.0952 3.51797C22.9618 3.52896 22.8305 3.55163 22.7012 3.5853C22.5719 3.61897 22.4468 3.66363 22.325 3.71929C22.2033 3.77494 22.087 3.84021 21.9769 3.91648C21.8668 3.99206 21.7635 4.07658 21.6677 4.17071C21.572 4.26415 21.4851 4.36516 21.4071 4.4744C21.3292 4.58297 21.2608 4.69771 21.2019 4.81864C21.1438 4.93957 21.0959 5.06393 21.059 5.19311C21.0221 5.32228 20.9968 5.45352 20.9824 5.58681C20.968 5.72011 20.9653 5.85409 20.9742 5.98808C21.3196 8.22595 20.6076 10.1904 19.4865 12.0366C18.6405 13.4149 17.6343 14.6634 16.4675 15.7806C15.3006 16.8985 14.0113 17.8487 12.6003 18.632C10.0436 20.0873 7.35011 21.3131 4.69698 22.6007C1.33798 24.225 -0.187962 27.7141 0.973426 31.1097C1.04387 31.3103 1.1239 31.5075 1.21282 31.7006C1.30173 31.8937 1.40023 32.0819 1.50693 32.2661C1.61363 32.4495 1.72853 32.6282 1.85233 32.8013C1.97613 32.9745 2.10745 33.1408 2.2463 33.3015C2.38583 33.4623 2.5322 33.6155 2.68541 33.7626C2.83931 33.9089 2.99936 34.0484 3.16625 34.1796C3.33245 34.3109 3.5055 34.4346 3.68333 34.55C3.86185 34.6647 4.04515 34.7712 4.23324 34.8695C4.42134 34.9671 4.61353 35.0557 4.81052 35.1354C5.00682 35.2151 5.20654 35.2852 5.40968 35.3456C5.61282 35.4068 5.8187 35.4576 6.02662 35.4989C6.23455 35.5401 6.44385 35.571 6.65451 35.5923C6.86586 35.6143 7.07721 35.6253 7.28924 35.6267C7.50127 35.628 7.71262 35.6198 7.92397 35.6012C8.13463 35.582 8.34461 35.5538 8.55322 35.5154C8.76184 35.4769 8.96771 35.4281 9.17154 35.3704C9.60381 35.2364 9.81652 35.3876 10.0361 35.7448C10.679 36.7913 11.3575 37.8158 12.0217 38.8498C13.062 40.4707 14.0934 42.0977 15.146 43.7104C15.2144 43.8251 15.291 43.9343 15.3765 44.0374C15.4614 44.1398 15.5537 44.236 15.6542 44.3239C15.7541 44.4126 15.8608 44.4923 15.973 44.5637C16.0858 44.6352 16.2028 44.6977 16.3252 44.7506C16.4476 44.8042 16.5735 44.8475 16.7021 44.8805C16.8314 44.9142 16.962 44.9368 17.0947 44.9499C17.2274 44.9629 17.3601 44.965 17.4934 44.9567C17.6261 44.9492 17.7575 44.9306 17.8881 44.9018C18.0139 44.8887 18.1377 44.8654 18.2602 44.8324C18.3819 44.7987 18.5009 44.7554 18.6158 44.7025C18.7314 44.6496 18.8416 44.5878 18.9462 44.517C19.0515 44.4462 19.15 44.3665 19.2417 44.2793C19.334 44.192 19.4181 44.0979 19.4954 43.9969C19.572 43.8959 19.6398 43.7887 19.6993 43.6767C19.7588 43.564 19.808 43.4479 19.8484 43.327C19.8887 43.2067 19.9188 43.0837 19.9393 42.958C20.031 42.2084 19.9284 41.4876 19.6309 40.7936C18.7732 38.7743 17.7951 36.8064 16.8662 34.8248C19.2896 33.4623 19.5221 33.0659 19.0167 31.1908C19.1008 31.1255 19.1924 31.0726 19.2909 31.0307C20.6855 30.5751 22.1137 30.2742 23.5733 30.1285C25.0336 29.9822 26.4918 29.9952 27.9493 30.1663C28.4493 30.2137 28.9418 30.303 29.4274 30.4329C29.9124 30.5628 30.3836 30.7318 30.8412 30.94C31.2988 31.1489 31.7358 31.3942 32.1524 31.6752C32.5689 31.9569 32.9601 32.2709 33.3247 32.6179C34.3336 33.6403 35.5394 33.8175 36.5414 33.1036C37.5229 32.4028 37.7514 31.2423 37.1515 29.9554C35.8376 27.15 34.5244 24.3445 33.2105 21.5412ZM32.6072 16.882C32.9601 17.5828 32.77 18.1779 31.9273 18.7894L30.7413 16.265C31.6879 16.0046 32.2714 16.2196 32.6072 16.882ZM8.38907 33.834C8.24543 33.8711 8.10043 33.9007 7.95406 33.924C7.80769 33.9474 7.66064 33.9646 7.5129 33.9742C7.36516 33.9845 7.21674 33.9873 7.069 33.9838C6.92058 33.9804 6.77284 33.9701 6.62578 33.9529C6.47873 33.9364 6.33236 33.9124 6.18736 33.8821C6.04236 33.8519 5.8994 33.8148 5.75782 33.7715C5.61556 33.7275 5.47671 33.6781 5.33923 33.6217C5.20175 33.5654 5.06769 33.5029 4.93637 33.4348C4.80436 33.3661 4.67646 33.2919 4.55198 33.2115C4.42681 33.1311 4.30575 33.0452 4.18879 32.9539C4.07183 32.8632 3.95897 32.7663 3.8509 32.6646C3.74284 32.5636 3.63956 32.4571 3.54038 32.3458C3.44189 32.2352 3.34818 32.1197 3.26063 32.0002C3.1724 31.8806 3.08964 31.7569 3.01235 31.6298C2.93575 31.5027 2.86461 31.3729 2.79895 31.2389C2.73397 31.1056 2.67447 30.9688 2.6218 30.83C2.56298 30.694 2.51031 30.5552 2.46312 30.4144C2.41661 30.2728 2.37626 30.1306 2.34206 29.9856C2.30786 29.8413 2.2805 29.6957 2.2593 29.5486C2.23809 29.4016 2.22373 29.2538 2.21552 29.1054C2.20731 28.957 2.20595 28.8086 2.21073 28.6602C2.21552 28.5118 2.22715 28.3634 2.24562 28.2163C2.2634 28.0686 2.28802 27.9223 2.3188 27.7766C2.35027 27.6316 2.3872 27.488 2.43097 27.3458C2.47475 27.2042 2.52468 27.0641 2.58076 26.9267C2.63685 26.7892 2.69909 26.6546 2.7668 26.5226C2.83452 26.3907 2.90839 26.2622 2.98773 26.1365C3.06707 26.0114 3.15188 25.8898 3.24217 25.7716C3.33245 25.6542 3.42752 25.5408 3.52738 25.4308C3.62724 25.3216 3.73258 25.2172 3.84201 25.1168C3.95145 25.0172 4.06499 24.9224 4.18263 24.8324C4.30027 24.7424 4.42202 24.6579 4.54719 24.5788C5.99174 23.7131 7.56898 23.0672 9.17085 22.2798C10.6469 25.4315 12.0853 28.496 13.5777 31.6772C11.8896 32.4963 10.1599 33.2156 8.38907 33.834ZM18.1856 41.5103C18.5639 42.3183 18.4681 42.9195 17.8799 43.182C17.198 43.4864 16.7329 43.1758 16.3539 42.5808C14.6693 39.9272 12.9614 37.2853 11.2152 34.5672L14.2124 33.1428C14.3321 33.3538 14.4498 33.5331 14.54 33.7268C15.7582 36.3193 16.9736 38.9137 18.1856 41.5103ZM16.1399 33.2108C16.0236 32.9772 15.9005 32.7436 15.7329 32.4097L17.2917 31.715C17.7554 32.6124 17.646 32.7436 16.1399 33.2108ZM35.8301 31.4739C35.7761 31.6017 35.6885 31.6972 35.5661 31.7611C35.2234 31.6807 34.7713 31.7116 34.5565 31.5007C34.153 31.1145 33.7221 30.762 33.2638 30.4439C32.8049 30.1251 32.3247 29.8441 31.8227 29.6008C31.3207 29.3576 30.8029 29.1556 30.2694 28.9934C29.7359 28.8313 29.1928 28.7124 28.6408 28.6355C24.8051 27.993 21.1096 28.6416 17.49 29.9093C16.6829 30.1924 15.895 30.5318 15.0127 30.8788C13.5462 27.7484 12.1195 24.7018 10.7707 21.8243C12.8458 20.3724 14.9422 19.0889 16.8259 17.5444C19.5433 15.3154 21.6643 12.5924 22.4468 9.04703C22.6109 8.16824 22.678 7.28257 22.6492 6.38866C22.6492 5.90082 22.4844 5.38068 23.0781 5.19036C23.7504 4.97324 23.9057 5.55933 24.117 6.00732C26.2941 10.6562 28.4712 15.3037 30.6476 19.9499C32.2686 23.4087 33.8903 26.8676 35.5127 30.3264C35.5709 30.4556 35.6133 30.5367 35.6796 30.705C35.8999 31.2622 35.8492 31.4223 35.8301 31.4752V31.4739ZM30.0184 3.88075C29.9445 3.72135 29.9151 3.55438 29.9308 3.37917C29.9466 3.20328 30.0047 3.04387 30.1059 2.90027C30.6497 2.08331 31.2016 1.26635 31.7611 0.467259C31.8589 0.32022 31.9855 0.205475 32.1407 0.122336C32.296 0.0398848 32.4622 -0.00134102 32.638 3.32565e-05C32.8206 0.00690413 32.9909 0.0577494 33.1482 0.151882C33.3055 0.246701 33.43 0.373127 33.523 0.531846L33.5887 0.630101L33.5607 0.746907C33.5518 0.808746 33.5422 0.871959 33.536 0.939981C33.5244 1.13993 33.4704 1.32819 33.3733 1.5034C32.8213 2.35815 32.2344 3.20877 31.6777 4.001C31.5785 4.15078 31.4479 4.26484 31.2871 4.34454C31.2105 4.38096 31.1312 4.40638 31.0477 4.4215C30.9643 4.43593 30.8809 4.43936 30.7967 4.4318C30.7126 4.42356 30.6305 4.40501 30.5512 4.37478C30.4725 4.34523 30.3987 4.30469 30.3303 4.25522C30.1941 4.15765 30.0895 4.03329 30.0163 3.88213L30.0184 3.88075ZM45.1547 28.7049L45.0849 28.7997L44.9693 28.812C44.9071 28.8244 44.8456 28.8375 44.7799 28.854C44.5891 28.9089 44.3955 28.9206 44.1992 28.8876C43.2109 28.6492 42.2177 28.3785 41.2889 28.1153C41.1152 28.0714 40.9647 27.9862 40.8368 27.8604C40.7773 27.8 40.7267 27.7333 40.6849 27.6598C40.6439 27.5856 40.6124 27.5079 40.5919 27.4255C40.5707 27.3437 40.5618 27.2599 40.5632 27.1754C40.5646 27.0909 40.5776 27.0077 40.6015 26.9267C40.6186 26.8655 40.6412 26.8064 40.6699 26.7501C40.6986 26.693 40.7328 26.6401 40.7718 26.59C40.8108 26.5398 40.8546 26.4945 40.9024 26.4532C40.9503 26.412 41.0023 26.3756 41.057 26.3447C41.1124 26.3138 41.1699 26.2883 41.2301 26.2684C41.2903 26.2492 41.3518 26.2354 41.4147 26.2279C41.4777 26.2203 41.5406 26.2189 41.6035 26.2244C41.6664 26.2292 41.728 26.2402 41.7889 26.2574C42.7389 26.5 43.6883 26.7501 44.6253 27.0132C44.7963 27.0565 44.9468 27.1383 45.0767 27.2585C45.2067 27.3781 45.3004 27.5217 45.3578 27.6893C45.4126 27.8645 45.4221 28.0425 45.3859 28.2232C45.3503 28.4039 45.273 28.564 45.1547 28.7049ZM41.5926 12.9779C40.7383 13.5276 39.8546 14.0608 39.0222 14.5541C38.8704 14.6489 38.7048 14.6991 38.5256 14.7046C38.4408 14.706 38.3574 14.6963 38.276 14.675C38.1939 14.6544 38.1159 14.6228 38.0427 14.5809C37.9689 14.5383 37.9025 14.4875 37.8423 14.4277C37.7828 14.3672 37.7315 14.3006 37.6898 14.2264C37.6577 14.1714 37.6317 14.1137 37.6105 14.0532C37.59 13.9934 37.5756 13.9316 37.5667 13.8684C37.5578 13.8052 37.5558 13.742 37.5599 13.6781C37.5633 13.6148 37.5735 13.5516 37.59 13.4905C37.6057 13.4286 37.6283 13.3689 37.6556 13.3118C37.6837 13.2548 37.7172 13.2005 37.7555 13.1497C37.7938 13.0995 37.8369 13.0528 37.8848 13.0109C37.9326 12.969 37.9839 12.9319 38.0386 12.8996C38.871 12.3794 39.7082 11.8648 40.5461 11.368C40.6959 11.2746 40.8587 11.2217 41.0345 11.2107C41.2102 11.1997 41.3785 11.2313 41.5385 11.3055C41.7027 11.388 41.8368 11.5048 41.9414 11.6559C42.046 11.8071 42.1076 11.9741 42.1268 12.1575L42.1466 12.2743L42.0727 12.3691C42.0392 12.422 42.005 12.4756 41.9715 12.534C41.8792 12.7113 41.7526 12.859 41.5926 12.9779Z" fill="#002F46"/>
</g>
</g>
</g>
</g>
</svg>
