<svg width="46" height="45" viewBox="0 0 46 45" fill="none" xmlns="http://www.w3.org/2000/svg">
<g id="svg8">
<g id="g6410">
<path id="path1355" d="M3.33277 6.18945L3.32544 7.12695L3.08008 38.8115H38.6099V36.9365H34.7354V25.9795C34.8087 25.9216 34.8753 25.8522 34.9478 25.7927C37.1528 28.0892 39.361 30.3838 41.5652 32.6812L42.9202 31.3848C40.7102 29.0835 38.4996 26.7815 36.2881 24.4817C39.9366 20.1998 39.7437 13.7429 35.6985 9.69775C31.445 5.44429 24.5198 5.44429 20.2664 9.69775C17.7166 12.2476 16.7086 15.7544 17.2158 19.0728H17.2012C17.2118 23.7381 17.2282 31.9253 17.2451 36.9365H15.1687L15.1284 25.0457H7.38306C7.39424 27.7495 7.42181 33.7479 7.44532 36.9365H4.96973L5.20045 7.14526L5.20778 6.20776L3.33277 6.18945ZM27.9824 8.37207C30.2928 8.37207 32.6043 9.25497 34.3728 11.0234C37.9097 14.5604 37.9133 20.2673 34.3766 23.8042C30.8396 27.3411 25.1291 27.3376 21.5921 23.8004C18.0552 20.2635 18.0552 14.5603 21.5921 11.0233C23.3606 9.25489 25.672 8.37207 27.9824 8.37207ZM19.0872 23.709C19.4381 24.2042 19.8231 24.6829 20.2664 25.1262C21.1082 25.9681 22.0581 26.6389 23.0679 27.1477C23.0716 29.363 23.0827 34.3474 23.0935 36.9365H19.1201C19.1079 33.2259 19.097 28.1831 19.0872 23.709ZM9.25806 26.9207H13.2534L13.301 36.9365H9.32032L9.25806 26.9207ZM32.8604 27.166C32.8611 30.1069 32.8624 34.3226 32.8641 36.9365H28.8797C28.876 34.6457 28.8711 30.7565 28.8687 28.2756C30.244 28.165 31.5997 27.7945 32.8604 27.166ZM24.9465 27.8875C25.6186 28.0812 26.3053 28.2095 26.9973 28.272C27.0005 30.7523 27.0039 34.6447 27.0084 36.9365H24.9649C24.9578 34.5429 24.9507 30.3069 24.9465 27.8875Z" fill="#002F46"/>
<path id="path1379" d="M27.0862 11.7988L25.4016 13.4834L24.0979 12.1833L22.7539 13.531L24.054 14.8311L22.373 16.512L26.2805 20.4231L29.6497 17.054L30.946 18.354L27.5806 21.7195L28.8843 23.0269L30.5652 21.3459L31.8689 22.646L33.2166 21.2983L31.9128 19.9983L33.6011 18.3101L29.6899 14.4026L26.3208 17.7717L25.0244 16.4717L28.3936 13.1025L27.0862 11.7988Z" fill="#002F46"/>
</g>
</g>
</svg>
