<svg width="52" height="45" viewBox="0 0 52 45" fill="none" xmlns="http://www.w3.org/2000/svg">
<g id="Group 45347">
<g id="Clip path group">
<mask id="mask0_7454_4644" style="mask-type:luminance" maskUnits="userSpaceOnUse" x="27" y="33" width="20" height="12">
<g id="b4d6cd3ca5">
<path id="Vector" d="M27.8047 33.5H46.064V44.9987H27.8047V33.5Z" fill="white"/>
</g>
</mask>
<g mask="url(#mask0_7454_4644)">
<g id="Group">
<path id="Vector_2" fill-rule="evenodd" clip-rule="evenodd" d="M42.9819 44.9963H30.9128C29.2645 44.9963 27.9238 43.5949 27.9238 41.8711V36.7313C27.9238 35.0075 29.2645 33.6066 30.9128 33.6066L42.9819 33.6055C44.6296 33.6055 45.9703 35.0086 45.9703 36.7313V41.8711C45.9703 43.5949 44.6296 44.9963 42.9819 44.9963ZM30.9128 34.6396C29.8106 34.6396 28.9124 35.5782 28.9124 36.7313V41.8711C28.9124 43.0248 29.8106 43.9628 30.9128 43.9628H42.9819C44.0841 43.9628 44.9818 43.0248 44.9818 41.8711V36.7313C44.9818 35.5782 44.0841 34.6396 42.9819 34.6396H30.9128Z" fill="#002F46"/>
</g>
</g>
</g>
<path id="Vector_3" fill-rule="evenodd" clip-rule="evenodd" d="M31.3445 34.6413C31.0715 34.6413 30.8503 34.4093 30.8503 34.1242C30.8503 33.8514 30.8341 33.4265 30.8157 32.935C30.7138 30.1935 30.6759 27.8606 31.2626 27.0765C32.42 25.5271 34.0097 23.8925 35.4128 22.4503C35.7142 22.1402 36.009 21.8371 36.2926 21.5427L42.6973 14.7392C42.7524 14.6803 42.811 14.6244 42.8711 14.5707L39.2737 4.99539C39.0024 4.27604 39.0286 3.46109 39.3467 2.70211C39.7334 1.7799 40.5113 1.02674 41.4803 0.63384C43.318 -0.111738 45.3201 0.62976 45.9431 2.28647L50.4259 14.2198C51.4774 17.0173 51.3392 19.0244 49.9311 21.376C48.4244 23.8954 46.9377 26.6795 45.499 29.3727C44.7623 30.7531 44.0001 32.1784 43.2601 33.5226V34.1231C43.2601 34.4093 43.0394 34.6401 42.7653 34.6401C42.4928 34.6401 42.271 34.4093 42.271 34.1231V33.3839C42.271 33.293 42.295 33.2044 42.3384 33.1257C43.0957 31.7534 43.8786 30.2868 44.6358 28.8685C46.0807 26.1648 47.5746 23.3696 49.0941 20.828C50.3267 18.7667 50.4387 17.0785 49.5059 14.5975L45.0226 2.66538C44.5985 1.53623 43.1698 1.05764 41.8369 1.59744C41.1114 1.89066 40.5342 2.44503 40.2522 3.11774C40.0405 3.62257 40.0187 4.15479 40.1931 4.61823L43.7421 14.063C43.9923 13.9773 44.2553 13.9318 44.5194 13.9307C45.1529 13.9278 45.748 14.179 46.1894 14.6366C47.1779 15.6124 47.2252 17.247 46.2952 18.2852L40.1514 25.133C39.9647 25.3411 39.651 25.351 39.4526 25.1557C39.2537 24.9604 39.2436 24.634 39.4298 24.4259L45.5742 17.5781C46.1336 16.9544 46.103 15.9704 45.5068 15.3851C45.5029 15.381 45.499 15.3781 45.4962 15.374C45.2432 15.1094 44.9 14.9642 44.5294 14.9642C44.5272 14.9642 44.5255 14.9642 44.5233 14.9642C44.2497 14.9654 43.9778 15.0452 43.7393 15.191C43.7292 15.1968 43.7203 15.2032 43.7109 15.2085C43.5989 15.2796 43.4952 15.3653 43.4022 15.4638L36.9925 22.2714C36.705 22.571 36.4085 22.8764 36.106 23.1871C34.7246 24.6078 33.1594 26.2167 32.0405 27.7137C31.6304 28.2622 31.7519 31.5086 31.8031 32.8948C31.8221 33.3973 31.8388 33.8316 31.8388 34.1242C31.8388 34.4093 31.6176 34.6413 31.3445 34.6413Z" fill="#002F46"/>
<g id="Clip path group_2">
<mask id="mask1_7454_4644" style="mask-type:luminance" maskUnits="userSpaceOnUse" x="5" y="33" width="19" height="12">
<g id="860090a725">
<path id="Vector_4" d="M5.55664 33.5H23.816V44.9987H5.55664V33.5Z" fill="white"/>
</g>
</mask>
<g mask="url(#mask1_7454_4644)">
<g id="Group_2">
<path id="Vector_5" fill-rule="evenodd" clip-rule="evenodd" d="M20.702 44.9963H8.63351C6.98523 44.9963 5.64453 43.5949 5.64453 41.8711V36.7313C5.64453 35.0075 6.98523 33.6066 8.63351 33.6066L20.702 33.6055C22.3503 33.6055 23.691 35.0086 23.691 36.7313V41.8711C23.691 43.5949 22.3503 44.9963 20.702 44.9963ZM8.63351 34.6396C7.53075 34.6396 6.63306 35.5782 6.63306 36.7313V41.8711C6.63306 43.0248 7.53075 43.9628 8.63351 43.9628H20.702C21.8048 43.9628 22.7025 43.0248 22.7025 41.8711V36.7313C22.7025 35.5782 21.8048 34.6396 20.702 34.6396H8.63351Z" fill="#002F46"/>
</g>
</g>
</g>
<path id="Vector_6" fill-rule="evenodd" clip-rule="evenodd" d="M20.2715 34.6415C19.999 34.6415 19.7772 34.4095 19.7772 34.1244C19.7772 33.8318 19.7939 33.3975 19.8129 32.8962C19.8642 31.5088 19.9862 28.2624 19.5755 27.7138C18.4566 26.2169 16.8914 24.6068 15.5095 23.1867C15.2069 22.8755 14.911 22.5712 14.6263 22.2756L8.21385 15.464C8.12079 15.3649 8.01604 15.2792 7.90459 15.2075C7.89568 15.2022 7.88676 15.197 7.87785 15.1912C7.63936 15.0454 7.36744 14.9656 7.09273 14.9644C7.09106 14.9644 7.08883 14.9644 7.08716 14.9644C6.71605 14.9644 6.3728 15.1096 6.12094 15.3742C6.11704 15.3783 6.11314 15.3812 6.10924 15.3853C5.82116 15.6674 5.65622 16.051 5.64341 16.4666C5.6317 16.8834 5.77268 17.2775 6.04182 17.5783L12.1863 24.4261C12.3735 24.6342 12.3623 24.9606 12.1634 25.1559C11.965 25.3512 11.6513 25.3413 11.4647 25.1332L5.32133 18.2854C4.8711 17.7829 4.63484 17.1265 4.65602 16.4346C4.67663 15.745 4.95023 15.1072 5.42665 14.6368C5.86796 14.1792 6.46084 13.9279 7.09663 13.9309C7.36075 13.932 7.62376 13.9775 7.87395 14.0632L11.4234 4.61841C11.5973 4.15497 11.5755 3.62275 11.3638 3.11734C11.083 2.44813 10.5085 1.89492 9.78687 1.60054C9.78409 1.59937 9.78074 1.5982 9.77907 1.59762C8.44621 1.05665 7.0175 1.53641 6.59346 2.66557L2.1112 14.5977C1.17786 17.0787 1.28931 18.7669 2.52299 20.8282C4.04196 23.3686 5.53475 26.1638 6.97906 28.8675C7.73631 30.2858 8.52032 31.753 9.27869 33.1259C9.32215 33.2045 9.345 33.2943 9.345 33.3841V34.1233C9.345 34.4095 9.12379 34.6403 8.85075 34.6403C8.57771 34.6403 8.3565 34.4095 8.3565 34.1233V33.5228C7.61484 32.1786 6.85368 30.7521 6.11593 29.3711C4.67775 26.6785 3.19053 23.8956 1.68493 21.3773C0.276844 19.0246 0.138654 17.0175 1.19068 14.22L5.67294 2.28665C6.29479 0.632858 8.29186 -0.109222 10.1268 0.629944C10.1301 0.630527 10.1329 0.631693 10.1357 0.634024C11.1047 1.02692 11.8831 1.78008 12.2693 2.70229C12.588 3.46011 12.6136 4.27506 12.3428 4.99557L8.74488 14.5709C8.80506 14.6245 8.86357 14.6805 8.91873 14.7394L15.3273 21.5469C15.6065 21.8367 15.9018 22.1404 16.2021 22.4493C17.6052 23.8927 19.1949 25.5272 20.3539 27.0767C20.9401 27.8607 20.9023 30.1937 20.8008 32.9364C20.7819 33.4278 20.7663 33.8516 20.7663 34.1244C20.7663 34.4095 20.5445 34.6415 20.2715 34.6415Z" fill="#002F46"/>
<path id="Vector_7" fill-rule="evenodd" clip-rule="evenodd" d="M28.2242 25.6564H23.3928C23.2512 25.6564 23.1169 25.5934 23.0239 25.4838C22.9297 25.373 22.8851 25.2273 22.9013 25.0815L23.2373 21.9818C22.6126 21.7906 22.0091 21.5289 21.4368 21.2012L19.5778 23.6422C19.4908 23.757 19.3604 23.827 19.22 23.8357C19.0785 23.8439 18.9419 23.7902 18.8422 23.6853L15.4251 20.1122C15.3254 20.0079 15.273 19.8645 15.2808 19.7175C15.2891 19.5706 15.3571 19.4342 15.4669 19.3421L17.8012 17.3996C17.4881 16.8009 17.2379 16.1701 17.054 15.516L14.0905 15.8681C13.95 15.885 13.8107 15.8384 13.706 15.7399C13.6001 15.6419 13.541 15.5026 13.541 15.3545V10.3018C13.541 10.1538 13.6001 10.0144 13.706 9.91649C13.8107 9.81796 13.9512 9.77132 14.0905 9.78823L17.054 10.1398C17.2379 9.48508 17.487 8.8543 17.8001 8.25674L15.4669 6.31425C15.356 6.22214 15.2891 6.08573 15.2808 5.93881C15.273 5.7919 15.3254 5.64849 15.4251 5.54414L18.8422 1.97105C18.9414 1.86612 19.0785 1.81132 19.2189 1.82006C19.3593 1.82939 19.4897 1.89935 19.5778 2.01419L21.4357 4.45513C22.0085 4.1275 22.6115 3.86574 23.2373 3.67452L22.9001 0.574818C22.8845 0.429073 22.9286 0.282162 23.0227 0.172562C23.1169 0.0635448 23.2512 0 23.3916 0H28.2242C28.3646 0 28.4995 0.0635448 28.5925 0.172562C28.6861 0.282162 28.7307 0.429073 28.7151 0.575984L28.3785 3.67452C29.0038 3.86574 29.6067 4.1275 30.179 4.45513L32.0369 2.01419C32.125 1.89935 32.2554 1.82939 32.3958 1.82065C32.5362 1.81248 32.6739 1.86612 32.7736 1.97105L36.1907 5.54414C36.2905 5.64849 36.3428 5.7919 36.335 5.93881C36.3272 6.08573 36.2587 6.22214 36.1489 6.31425L33.8146 8.25674C34.1283 8.85546 34.3785 9.48625 34.5624 10.1404L37.5253 9.78823C37.6647 9.77132 37.8051 9.81796 37.9099 9.91649C38.0157 10.0144 38.0754 10.1538 38.0754 10.3018V15.3545C38.0754 15.5026 38.0157 15.6419 37.9099 15.7399C37.8051 15.8384 37.6647 15.885 37.5253 15.8681L34.5613 15.5166C34.3785 16.1701 34.1283 16.7997 33.8146 17.3996L36.1489 19.3421C36.2598 19.4342 36.3272 19.5706 36.335 19.7175C36.3428 19.8645 36.2905 20.0079 36.1907 20.1122L32.7747 23.6853C32.675 23.7902 32.5362 23.8456 32.3969 23.8363C32.2554 23.8281 32.125 23.757 32.038 23.6422L30.1801 21.2012C29.6078 21.5289 29.0043 21.7906 28.3785 21.983L28.7157 25.0815C28.7318 25.2273 28.6873 25.3742 28.5931 25.4838C28.4995 25.5934 28.3646 25.6564 28.2242 25.6564ZM23.945 24.6222H27.6708L27.3482 21.6559C27.3197 21.3965 27.4808 21.1569 27.7232 21.0957C28.5418 20.8887 29.3231 20.55 30.0436 20.0895C30.2565 19.9531 30.5329 20.0038 30.6884 20.2084L32.466 22.545L35.1002 19.791L32.8656 17.9307C32.6705 17.7686 32.622 17.4789 32.7519 17.2568C33.1927 16.5024 33.5159 15.6862 33.7137 14.8316C33.7722 14.578 34.0018 14.4095 34.2498 14.4387L37.0873 14.7756V10.8796L34.2509 11.2177C34.0024 11.2468 33.7722 11.0784 33.7137 10.8248C33.517 9.96895 33.1927 9.15337 32.7519 8.39957C32.622 8.17629 32.6705 7.88772 32.8656 7.72565L35.1002 5.86536L32.466 3.11136L30.6873 5.44795C30.5323 5.65141 30.2565 5.70329 30.0436 5.56687C29.322 5.10574 28.5418 4.76761 27.7232 4.56065C27.4808 4.49944 27.3197 4.25983 27.3482 4.00041L27.6708 1.03421H23.945L24.2677 4.00041C24.2961 4.25867 24.135 4.49944 23.8926 4.56065C23.0729 4.76761 22.2933 5.10632 21.5733 5.56687C21.3599 5.70213 21.084 5.65141 20.9286 5.44795L19.1498 3.11136L16.5157 5.86536L18.7497 7.72565C18.9453 7.88772 18.9938 8.17629 18.8634 8.39957C18.4231 9.1522 18.0999 9.96779 17.9021 10.8248C17.8425 11.0784 17.6123 11.2457 17.3655 11.2171L14.5296 10.8807V14.7756L17.3655 14.4387C17.6134 14.4095 17.8436 14.5768 17.9021 14.8316C18.0999 15.6874 18.4231 16.503 18.8639 17.2568C18.9938 17.4789 18.9453 17.7686 18.7503 17.9307L16.5157 19.7898L19.1498 22.545L20.9286 20.2084C21.084 20.0038 21.3604 19.9531 21.5733 20.0889C22.2938 20.55 23.074 20.8882 23.8926 21.0945C24.135 21.1558 24.2961 21.3965 24.2677 21.6559L23.945 24.6222Z" fill="#002F46"/>
<path id="Vector_8" fill-rule="evenodd" clip-rule="evenodd" d="M25.8101 19.5293C22.2781 19.5293 19.4043 16.5246 19.4043 12.8308C19.4043 9.13754 22.2781 6.13281 25.8101 6.13281C29.342 6.13281 32.2153 9.13754 32.2153 12.8308C32.2153 16.5246 29.342 19.5293 25.8101 19.5293ZM25.8101 7.16704C22.8231 7.16704 20.3929 9.70713 20.3929 12.8308C20.3929 15.9539 22.8231 18.4951 25.8101 18.4951C28.797 18.4951 31.2273 15.9539 31.2273 12.8308C31.2273 9.70713 28.797 7.16704 25.8101 7.16704Z" fill="#002F46"/>
<path id="Vector_9" fill-rule="evenodd" clip-rule="evenodd" d="M25.8096 16.4673C23.8887 16.4673 22.3262 14.8326 22.3262 12.8242C22.3262 10.8163 23.8887 9.18164 25.8096 9.18164C27.7311 9.18164 29.2931 10.8163 29.2931 12.8242C29.2931 14.8326 27.7311 16.4673 25.8096 16.4673ZM25.8096 10.2153C24.4343 10.2153 23.3153 11.3859 23.3153 12.8242C23.3153 14.263 24.4343 15.4336 25.8096 15.4336C27.185 15.4336 28.3045 14.263 28.3045 12.8242C28.3045 11.3859 27.185 10.2153 25.8096 10.2153Z" fill="#002F46"/>
</g>
</svg>
