<svg width="57" height="45" viewBox="0 0 57 45" fill="none" xmlns="http://www.w3.org/2000/svg">
<g id="Group 45348">
<g id="Clip path group">
<mask id="mask0_7454_8236" style="mask-type:luminance" maskUnits="userSpaceOnUse" x="0" y="13" width="57" height="32">
<g id="be69652bfc">
<path id="Vector" d="M0.5 13.1035H56.7881V45.0001H0.5V13.1035Z" fill="white"/>
</g>
</mask>
<g mask="url(#mask0_7454_8236)">
<g id="Group">
<path id="Vector_2" d="M0.46875 31.8359C0.46875 31.4737 0.46875 31.1152 0.46875 30.7524C0.650758 30.7401 0.681296 30.5917 0.726493 30.4604C1.75563 27.5397 2.78599 24.6172 3.81513 21.6953C4.29153 20.5544 4.74716 19.4068 5.03544 18.1987C5.55092 16.8355 6.06152 15.4692 6.588 14.1084C6.96118 13.144 7.8077 12.896 8.71346 13.4176C10.2275 14.2904 11.8406 14.9452 13.4628 15.5773C14.7014 16.7512 16.2552 16.6932 17.7931 16.6834C19.2278 16.9326 20.6771 16.9973 22.1277 17.056C22.6871 17.1128 23.2582 17.3412 23.7957 16.9833C24.6892 16.3896 25.5791 15.7935 26.4708 15.1968C27.8225 14.4871 29.3207 14.4498 30.7877 14.2715C32.1992 14.3203 33.5441 14.6447 34.8359 15.2005C36.2883 15.9578 37.5751 17.2508 39.4533 16.6125C41.0681 16.6663 42.595 16.4391 43.8104 15.2316C44.9306 14.6318 45.9945 13.938 47.02 13.1874C47.3107 13.1813 47.6015 13.1746 47.8916 13.1666C47.9551 13.202 48.018 13.2362 48.0815 13.2717C48.8218 14.6215 49.5639 15.9737 50.3035 17.3247C50.8617 18.5939 51.4487 19.8484 52.2017 21.0168C52.2982 21.2299 52.3966 21.4419 52.4937 21.6544C53.9198 24.4694 55.3466 27.2863 56.7733 30.1037C56.7733 30.3224 56.7733 30.5368 56.7733 30.753C54.6308 32.2261 52.1504 33.0159 49.8472 34.1641C49.4619 34.3553 48.9946 34.2203 48.7943 33.8526C48.3399 33.0122 47.8745 33.2174 47.3187 33.714C46.9492 34.0438 46.5412 34.3369 46.1497 34.6478C45.749 34.8304 45.341 34.9886 45.5688 35.5817C46.03 36.7886 45.6751 37.8287 44.8585 38.7577C44.4988 38.9757 44.139 39.1937 43.7811 39.4118C43.3084 39.6225 42.5187 39.0569 42.3257 39.8766C41.9568 41.4383 40.9502 42.2506 39.4587 42.5878C38.5634 42.5224 37.453 41.7364 37.0438 43.306C36.4758 43.7946 35.8278 44.1403 35.1107 44.3578C34.4419 44.3101 33.7621 44.2735 33.1575 43.9455C32.86 43.7836 32.6469 43.8575 32.3788 44.0066C31.8566 44.2924 31.3124 44.5385 30.7767 44.7981C29.3689 44.9801 28.0454 44.657 26.7567 44.1293C26.4128 43.8869 26.1306 43.5796 25.6225 43.8905C24.3869 44.6424 23.2161 44.3688 22.1222 43.5357C22.0526 43.4618 21.9829 43.386 21.9133 43.3121C21.7069 42.978 21.7008 42.4497 21.0833 42.5291C19.7848 42.6946 18.843 42.0466 18.0197 41.1457C17.9189 40.6144 17.6544 40.4263 17.0644 40.4263C15.7849 40.425 14.801 39.8137 14.2421 38.6361C14.0729 38.2825 13.8952 38.1218 13.4786 38.0559C11.9933 37.8238 11.1132 36.9345 10.9702 35.4204C10.925 34.9306 10.6966 34.7217 10.274 34.6228C9.67725 34.3259 9.18558 33.4422 8.46916 33.8728C7.8364 34.2533 7.34901 34.1959 6.75046 34.0145C5.13133 33.5185 3.51158 33.0262 1.88267 32.5639C1.35558 32.4088 0.872465 32.2109 0.46875 31.8359ZM43.4965 32.9536C43.8178 33.5387 44.2001 33.5631 44.693 33.1325C45.0448 32.8247 45.4449 32.5749 45.8241 32.2994C47.1037 31.3741 47.1037 31.3741 46.179 30.0701C44.7345 27.3547 43.4586 24.5635 42.4301 21.6617C42.3049 21.2141 42.1858 20.7633 42.0539 20.3174C41.4956 18.4424 41.4932 18.4424 39.4429 18.7197C38.0161 18.895 36.6071 18.9725 35.4246 17.922C33.9081 16.9039 32.2896 16.0745 30.4176 16.4825C29.5967 16.6626 28.6409 16.3114 27.9409 17.0242C27.3589 17.0828 26.8697 17.3369 26.4427 17.726C25.9902 18.002 25.5351 18.272 25.0875 18.5529C23.9319 19.2779 22.9846 20.1452 23.006 21.6587C22.8795 22.4924 22.5613 23.2186 21.9292 23.8141C21.7087 24.0205 21.5841 24.3577 21.4833 24.6582C21.2439 25.3752 21.534 25.7649 22.2859 25.8064C23.1129 25.8546 23.8452 25.6201 24.4749 25.0716C25.1345 24.4987 25.7343 23.8416 26.0537 23.0439C26.5142 21.8865 27.4139 21.5341 28.5022 21.462C29.1423 21.4187 29.7885 21.4944 30.4347 21.5158C30.6961 21.6367 30.9587 21.757 31.2195 21.8767C32.5119 22.9975 33.8012 24.117 35.093 25.2365C35.3361 25.5419 35.592 25.8302 35.9578 25.9976C37.0523 27.1489 38.2336 28.2012 39.4587 29.2071C39.8875 29.7391 40.3828 30.1978 40.9466 30.5814C41.7296 31.4431 42.5883 32.2255 43.4965 32.9536ZM20.8219 21.6569C21.0185 20.9728 21.1883 20.279 21.4204 19.6065C21.5762 19.1527 21.4143 19.0587 20.999 19.0385C19.9295 18.9921 18.8625 18.9121 17.7943 18.8437C16.869 18.7514 15.94 18.6837 15.0178 18.5572C14.4827 18.4845 14.3527 18.7227 14.2788 19.1912C14.1517 20.0047 13.9495 20.8054 13.7791 21.6117C13.5977 22.2737 13.4164 22.9376 13.2331 23.6003C12.3267 25.8546 11.4857 28.1365 10.4016 30.3169C9.60579 31.9134 9.63022 31.9073 11.2231 32.7722C11.6256 32.9896 11.9047 33.1014 12.1863 32.625C12.488 32.115 13.0035 31.8352 13.5043 31.5549C14.7411 31.2288 15.8472 31.4486 16.662 32.4784C17.04 32.9554 17.3979 32.7099 17.7913 32.6305C18.7465 32.6341 19.7298 32.7606 20.307 33.5619C20.853 34.3186 21.4143 34.2942 22.1259 34.0059C22.8649 34.1067 23.5654 34.315 24.2171 34.6832C24.5878 35.1444 25.0923 35.5432 25.2011 36.1466C25.3293 36.8741 25.7575 37.1208 26.4208 37.1281C26.8452 37.4506 27.3821 38.1286 27.674 38.0363C28.9884 37.618 29.5308 38.6526 30.3333 39.2078C31.407 40.0958 32.4667 40.9992 33.563 41.8603C34.175 42.3404 34.9183 42.5725 35.4808 41.8677C36.0336 41.1702 35.5199 40.5527 35.0008 40.1007C33.6241 38.8951 32.2035 37.7426 30.7999 36.5687C30.1318 35.8584 29.3909 35.2305 28.6018 34.6594C28.1541 34.2459 27.7113 33.8276 27.2575 33.4226C26.753 32.9688 26.604 32.4338 27.0645 31.9073C27.5311 31.3747 28.0863 31.4853 28.5981 31.9055C29.2077 32.4069 29.8154 32.9084 30.4249 33.4098C30.8482 33.8899 31.3203 34.3131 31.8633 34.6545C32.7397 35.5536 33.6931 36.3635 34.7137 37.0988C35.4698 37.8946 36.3096 38.5976 37.2093 39.2322C37.8488 39.8485 38.429 40.5796 39.474 40.4385C40.5343 39.6604 40.6326 38.9842 39.686 38.1652C36.8068 35.6757 33.8965 33.2235 30.999 30.7579C30.8964 30.6033 30.7926 30.4476 30.6912 30.2943C30.6057 29.9468 30.734 29.6279 30.8207 29.3018C31.5225 28.7375 32.1088 28.9543 32.7293 29.4942C35.3923 31.8114 38.0815 34.0975 40.7548 36.4007C41.28 36.8551 41.8285 37.2509 42.5175 37.4079C42.9303 37.5007 43.3066 37.4305 43.5802 37.0719C43.866 36.6957 43.7775 36.3079 43.5478 35.9652C43.1844 35.4259 42.7172 34.9795 42.1663 34.6283C41.324 33.8459 40.483 33.0629 39.6414 32.2817C36.6761 29.4007 33.6119 26.6266 30.4756 23.9356C29.4062 23.0195 28.366 23.2436 27.6191 24.4145C27.2722 24.9556 26.8782 25.468 26.5069 25.997C26.4385 25.9994 26.4098 26.0342 26.414 26.1002C25.2273 27.2796 23.7945 27.8775 22.1277 27.9245C20.9208 27.6839 19.8941 27.1947 19.4244 25.9456C19.1991 24.7944 19.5112 23.7793 20.125 22.8045C20.3601 22.4234 20.8579 22.198 20.8219 21.6569ZM22.7916 36.3311C22.6114 36.0953 22.3763 36.1014 22.1234 36.1778C21.5933 36.099 21.3484 36.4795 21.1083 36.8325C20.7052 37.4256 20.3534 38.0547 19.9302 38.6343C19.4953 39.2261 19.469 39.788 20.0413 40.2443C20.6496 40.7274 21.2702 40.5961 21.7337 39.9945C22.2382 39.3397 22.7146 38.6624 23.1538 37.9655C23.5538 37.3291 23.5135 36.7409 22.7916 36.3311ZM50.0885 21.6453C49.595 20.4469 49.0245 19.2883 48.3295 18.1926C48.2562 17.8683 48.145 17.5635 47.8983 17.3253C47.1843 15.5236 47.1843 15.5223 45.6299 16.5344C45.4247 16.6687 45.2378 16.8294 45.043 16.9784C43.4593 17.8322 43.4495 17.8359 43.9662 19.5418C44.1806 20.2533 44.4463 20.9502 44.6869 21.6544C45.7954 25.1394 47.4488 28.3588 49.4686 31.3967C49.7147 31.7681 49.9163 31.9806 50.414 31.7259C51.5354 31.1536 52.6842 30.6375 53.8331 30.1257C54.2191 29.9553 54.3052 29.7635 54.1012 29.3861C53.4837 28.2543 52.8876 27.1116 52.283 25.9719C51.6368 24.4859 50.9149 23.0384 50.0885 21.6453ZM11.5279 17.0725C10.6019 16.6284 9.6687 16.1954 8.7495 15.7337C8.38487 15.5504 8.18027 15.5651 8.03612 15.9981C7.40215 17.8878 6.74497 19.772 6.09695 21.6575C4.95848 24.5 3.95805 27.3925 2.9906 30.2973C2.74385 30.5887 2.88677 30.7377 3.18543 30.8293C4.38558 31.1939 5.5894 31.5451 6.78467 31.9281C7.17373 32.0502 7.2916 31.8236 7.43452 31.561C9.14283 28.4028 10.6813 25.1755 11.5389 21.6666C12.0024 20.5844 12.116 19.4135 12.3866 18.2836C12.5741 17.5061 12.2687 17.1531 11.5279 17.0725ZM18.0655 34.6649C18.0038 34.6826 17.8389 34.6881 17.7369 34.7706C16.9099 35.4382 16.3071 36.2847 16.0133 37.2979C15.8869 37.7358 16.1801 38.1481 16.6412 38.31C17.0699 38.4578 17.5195 38.4504 17.8181 38.0406C18.2634 37.4311 18.708 36.816 19.0842 36.1631C19.4782 35.4785 18.9371 34.6545 18.0655 34.6649ZM28.294 40.1313C28.0039 40.6761 27.7724 41.1543 27.4963 41.6075C27.3509 41.8493 27.2661 41.9929 27.558 42.2146C28.3703 42.8247 30.0456 42.9408 30.9954 42.3752C30.1061 41.6356 29.2327 40.9106 28.294 40.1313ZM26.1227 39.8973C26.1374 39.5474 26.0268 39.3006 25.766 39.129C25.4973 38.9543 25.1949 38.9354 24.9714 39.1534C24.3295 39.7776 23.8336 40.5215 23.4378 41.3186C23.2594 41.6747 23.4427 42.0393 23.814 42.2066C24.2354 42.3984 24.4578 42.2231 24.5469 41.7626C24.6117 41.4334 24.9006 41.2661 25.2072 41.117C25.7196 40.8672 25.9334 40.3634 26.1227 39.8973ZM15.2548 34.1568C15.2254 33.7408 14.9567 33.4868 14.5017 33.4562C14.0314 33.4232 12.9925 34.6887 13.0053 35.2592C13.0151 35.7393 13.2856 35.9866 13.7504 36.0098C14.2061 36.0288 15.2633 34.7571 15.2548 34.1568Z" fill="#002F46"/>
</g>
</g>
</g>
<path id="Vector_3" d="M24.7244 0C25.6766 1.22519 25.4555 2.7576 25.7798 4.14404C26.1297 5.63186 26.349 7.15144 26.6245 8.65759C26.5829 9.30561 26.9225 9.98784 26.451 10.5974C25.3119 11.0231 24.9052 10.8038 24.6743 9.64947C24.6047 9.30378 24.5265 8.96175 24.4538 8.61789C24.2187 7.1771 23.9835 5.73752 23.7484 4.29612C23.6207 3.40807 23.5493 2.50536 23.3459 1.63441C23.1871 0.945464 23.3624 0.442805 23.8565 0C24.1478 0 24.4361 0 24.7244 0Z" fill="#002F46"/>
<path id="Vector_4" d="M32.9539 0C33.3148 0 33.6746 0 34.0367 0C34.4967 0.520372 34.5681 1.11709 34.4533 1.78649C34.3073 2.62934 34.2261 3.48563 34.1155 4.3346C33.9244 5.77234 33.732 7.21069 33.5402 8.64721C33.462 9.06375 33.3985 9.48212 33.3057 9.89378C33.1615 10.5308 32.7896 10.9394 32.0976 10.7989C31.488 10.6756 31.2297 10.2297 31.295 9.60794C31.328 9.29279 31.3592 8.97458 31.3891 8.65881C31.5919 7.22596 31.7916 5.79249 31.9956 4.35903C32.4023 2.92617 32.1428 1.34551 32.9539 0Z" fill="#002F46"/>
<path id="Vector_5" d="M38.4089 8.95289C39.2322 7.7112 40.0818 6.48418 40.8703 5.21928C41.3241 4.49247 41.8579 4.23229 42.6476 4.64028C43.0434 5.17225 43.0049 5.68469 42.6428 6.22949C42.1871 6.91538 41.7755 7.63058 41.3437 8.32991C40.6126 9.43784 39.8827 10.5452 39.1516 11.6519C38.6404 11.9127 38.1286 12.0067 37.7059 11.5114C37.2454 10.9696 37.4934 10.4603 37.8214 9.95638C38.0339 9.63206 38.2153 9.2882 38.4089 8.95289Z" fill="#002F46"/>
<path id="Vector_6" d="M18.1145 11.2164C17.5727 10.3229 17.0218 9.43789 16.3341 8.64817C16.0135 8.14063 15.7087 7.62209 15.3685 7.12798C14.9764 6.55447 14.8719 5.97241 15.4931 5.54549C16.0929 5.132 16.634 5.35432 17.0279 5.95592C17.1623 6.16236 17.3278 6.34803 17.4805 6.54225C17.9655 7.24952 18.4516 7.95801 18.936 8.66466C19.2053 9.08792 19.4582 9.52095 19.7452 9.92894C20.1502 10.5043 20.4287 11.0979 19.7574 11.6348C19.0728 12.1821 18.5671 11.738 18.1145 11.2164Z" fill="#002F46"/>
</g>
</svg>
