<svg width="31" height="26" viewBox="0 0 31 26" fill="none" xmlns="http://www.w3.org/2000/svg">
<g clip-path="url(#clip0_31_3341)">
<g clip-path="url(#clip1_31_3341)">
<g clip-path="url(#clip2_31_3341)">
<mask id="mask0_31_3341" style="mask-type:luminance" maskUnits="userSpaceOnUse" x="0" y="4" width="31" height="21">
<path d="M0.330078 4.90088H30.3301V24.7552H0.330078V4.90088Z" fill="white"/>
</mask>
<g mask="url(#mask0_31_3341)">
<path d="M29.8623 22.8569L27.0395 20.1458C26.9933 20.1193 26.9699 20.092 26.923 20.0647C26.923 20.0108 26.9464 19.9562 26.9464 19.9024V6.07955C26.9464 5.51065 26.5734 5.07676 26.1064 4.99561L25.174 6.07955H25.9899V19.9024H4.55527V13.5064C4.36839 13.4244 4.20494 13.316 4.01872 13.2082L3.62217 13.6687V19.9024C3.62217 19.9562 3.62217 20.0108 3.64562 20.0647C3.59872 20.092 3.57528 20.1193 3.52906 20.1458L0.706305 22.8569C0.403532 23.1549 0.286978 23.6154 0.426977 24.0493C0.566976 24.4823 0.916639 24.7539 1.31319 24.7539H29.3023C29.6988 24.7539 30.0485 24.4559 30.1885 24.0493C30.2816 23.6427 30.1651 23.1549 29.8623 22.8569ZM1.28975 23.6965L4.11184 20.9863H26.4568L29.2788 23.6965H1.28975Z" fill="#00D280"/>
</g>
<path d="M0.825927 15.1655C0.942481 15.1655 1.05904 15.1116 1.15215 15.0031L3.90457 11.8051C4.76733 12.5637 5.79355 12.9975 6.8901 12.9975C8.19631 12.9975 9.43217 12.4013 10.3419 11.3166C12.2543 9.09413 12.2543 5.48957 10.3419 3.26706C9.40878 2.18312 8.19631 1.58691 6.8901 1.58691C5.58389 1.58691 4.34734 2.18312 3.43768 3.26706C1.59558 5.40841 1.52525 8.85066 3.22802 11.0732L0.499039 14.2439C0.31282 14.4607 0.31282 14.7862 0.499039 15.0031C0.592148 15.1116 0.708703 15.1655 0.825927 15.1655ZM4.09079 4.05368C4.86045 3.15937 5.88666 2.69817 6.8901 2.69817C7.91631 2.69817 8.91908 3.15937 9.68875 4.05368C11.228 5.8423 11.228 8.7695 9.68875 10.5581C8.91908 11.4524 7.89287 11.9129 6.8901 11.9129C5.86389 11.9129 4.86045 11.4524 4.09079 10.5581C2.52802 8.7695 2.52802 5.8423 4.09079 4.05368Z" fill="#00D280"/>
<mask id="mask1_31_3341" style="mask-type:luminance" maskUnits="userSpaceOnUse" x="5" y="0" width="23" height="19">
<path d="M5.8208 0.935547H27.7705V18.8889H5.8208V0.935547Z" fill="white"/>
</mask>
<g mask="url(#mask1_31_3341)">
<path d="M9.21717 14.216C9.10064 14.216 8.98409 14.2699 8.89031 14.3783L6.88477 16.9801V14.0802C6.55788 14.0802 6.25511 14.0529 5.95166 13.9991V18.2809C5.95166 18.5791 6.16132 18.8233 6.41788 18.8233H24.6111C24.8676 18.8233 25.0773 18.5791 25.0773 18.2809C25.0773 17.9829 24.8676 17.7386 24.6111 17.7386H24.3779V10.9634C24.3779 10.3672 23.9579 9.87944 23.4448 9.87944H22.5118C21.9987 9.87944 21.5787 10.3672 21.5787 10.9634V17.7386H20.6462V13.1313C20.6462 12.5351 20.2262 12.0473 19.7131 12.0473H18.78C18.2669 12.0473 17.8469 12.5351 17.8469 13.1313V17.7386H16.9138V15.2999C16.9138 14.7037 16.4945 14.216 15.9814 14.216H15.0483C14.5351 14.216 14.1151 14.7037 14.1151 15.2999V17.7386H7.53788L9.40343 15.2999H12.4828C12.5993 15.2999 12.7159 15.2453 12.809 15.1369L17.5669 9.60786H20.6462C20.7628 9.60786 20.8793 9.55402 20.9724 9.44554L26.7103 2.77802V3.37422C26.7103 3.67233 26.9201 3.91659 27.1766 3.91659C27.4332 3.91659 27.6435 3.67233 27.6435 3.37422V1.47713V1.4506V1.42328C27.6435 1.36866 27.6201 1.34212 27.6201 1.2875C27.5966 1.23365 27.5732 1.20634 27.5497 1.15171L27.527 1.12518C27.5035 1.09786 27.48 1.07055 27.4332 1.01671C27.4097 0.989393 27.3635 0.96208 27.3166 0.96208H27.2931C27.2469 0.96208 27.2235 0.935547 27.1766 0.935547H25.3111C25.0545 0.935547 24.8442 1.17902 24.8442 1.47713C24.8442 1.77523 25.0545 2.01949 25.3111 2.01949H26.0573L20.4593 8.52393H17.3807C17.2641 8.52393 17.1476 8.57855 17.0538 8.68702L12.2959 14.216H9.21717ZM22.5118 10.9634H23.4448V17.7386H22.5118V10.9634ZM18.78 13.1313H19.7131V17.7386H18.78V13.1313ZM15.0483 15.2999H15.9814V17.7386H15.0483V15.2999Z" fill="#00D280"/>
</g>
<path d="M22.1677 4.99902H12.3711C12.4883 5.35175 12.558 5.7037 12.6276 6.08296H21.2346L22.1677 4.99902Z" fill="#00D280"/>
</g>
</g>
</g>
<defs>
<clipPath id="clip0_31_3341">
<rect width="30" height="24.7" fill="white" transform="translate(0.330078 0.890137)"/>
</clipPath>
<clipPath id="clip1_31_3341">
<rect width="30" height="24.7" fill="white" transform="translate(0.330078 0.890137)"/>
</clipPath>
<clipPath id="clip2_31_3341">
<rect width="30" height="24.7059" fill="white" transform="translate(0.330078 0.887207)"/>
</clipPath>
</defs>
</svg>
