<svg width="48" height="43" viewBox="0 0 48 43" fill="none" xmlns="http://www.w3.org/2000/svg">
<g clip-path="url(#clip0_31_3180)">
<g clip-path="url(#clip1_31_3180)">
<g clip-path="url(#clip2_31_3180)">
<mask id="mask0_31_3180" style="mask-type:luminance" maskUnits="userSpaceOnUse" x="2" y="0" width="44" height="42">
<path d="M2.19531 0.419922H45.8038V41.6159H2.19531V0.419922Z" fill="white"/>
</mask>
<g mask="url(#mask0_31_3180)">
<path d="M33.9143 36.6345H39.0868V19.5631C39.0868 18.798 38.8618 18.0834 38.4747 17.4867C38.0457 17.5383 37.6115 17.5661 37.1783 17.5661C36.2066 17.5661 35.2382 17.4395 34.3013 17.1906L33.9143 17.4234V36.6345ZM31.4054 9.04923H42.95V10.5697H31.4054V9.04923ZM31.4054 5.77639H42.95V7.29692H31.4054V5.77639ZM37.1783 0.664307C41.9405 0.664307 45.8038 4.09918 45.8038 8.33564C45.8038 12.5753 41.9405 16.0102 37.1783 16.0102C36.0941 16.0102 35.0532 15.8321 34.0963 15.5047L29.4927 18.2926L30.4727 13.1602C29.2729 11.8446 28.5526 10.1631 28.5526 8.33564C28.5526 4.09918 32.4128 0.664307 37.1783 0.664307ZM7.48024 29.0071C8.22366 29.0071 8.82723 29.6231 8.82723 30.3807C8.82723 31.1436 8.22366 31.7553 7.48024 31.7553C6.73682 31.7553 6.1322 31.1436 6.1322 30.3807C6.1322 29.6231 6.73682 29.0071 7.48024 29.0071ZM8.10694 27.712C8.38559 27.7828 8.64952 27.8944 8.88506 28.0435L9.52754 27.3922L10.414 28.2968L9.77149 28.9481C9.9187 29.1885 10.0312 29.4568 10.0975 29.7411H11.0028V31.0203H10.0975C10.0312 31.3089 9.9187 31.5739 9.77149 31.8186L10.414 32.47L9.52754 33.3734L8.88506 32.7221C8.64952 32.8724 8.38559 32.9828 8.10694 33.0505V33.9744H6.85248V33.0537C6.57383 32.9828 6.31095 32.8724 6.07436 32.7221L5.43188 33.3734L4.54545 32.47L5.18793 31.8186C5.04071 31.5739 4.92821 31.3089 4.86301 31.0203H3.95661V29.7454H4.86301C4.92821 29.4568 5.04071 29.1928 5.18793 28.9481L4.54545 28.2968L5.43188 27.3922L6.07436 28.0435C6.31095 27.8944 6.57383 27.7828 6.85248 27.7163V26.7924H8.10694V27.7163V27.712ZM5.2342 38.3128H9.72522V39.0231H7.18582V39.6788H9.72522V41.5738H5.2342V40.8592H7.77361V40.2078H5.2342V38.3128ZM7.48024 25.158C10.3992 25.158 12.7641 27.5736 12.7641 30.547C12.7641 34.175 10.0733 34.203 9.69789 37.3652H5.26154C4.88615 34.203 2.19531 34.175 2.19531 30.547C2.19531 27.5736 4.56123 25.158 7.48024 25.158ZM9.79883 12.7685H28.2698C28.4401 13.0528 28.6294 13.3297 28.8355 13.5979L28.0921 17.4985H10.1627V19.5202H27.704L27.3487 21.3948L31.7808 18.7111V36.6345H11.2626C11.4834 36.1023 11.8272 35.6956 12.2647 35.1816C13.1984 34.0849 13.7715 33.1492 13.9996 31.9055H29.1173V29.8796H14.0806C13.926 28.2528 13.2057 26.7967 12.1174 25.715H29.1173V23.689H10.1627V24.3608C9.34247 23.9895 8.43186 23.7803 7.48024 23.7803C7.25941 23.7803 7.0428 23.7921 6.82935 23.8157V15.7967C6.82935 14.1313 8.16477 12.7685 9.79883 12.7685Z" fill="#00D280"/>
</g>
</g>
</g>
</g>
<defs>
<clipPath id="clip0_31_3180">
<rect width="48" height="42" fill="white" transform="translate(0 0.419922)"/>
</clipPath>
<clipPath id="clip1_31_3180">
<rect width="48" height="42" fill="white" transform="translate(0 0.419922)"/>
</clipPath>
<clipPath id="clip2_31_3180">
<rect width="43.7872" height="42" fill="white" transform="translate(2.10645 0.419922)"/>
</clipPath>
</defs>
</svg>
