<svg width="31" height="39" viewBox="0 0 31 39" fill="none" xmlns="http://www.w3.org/2000/svg">
<g clip-path="url(#clip0_31_3391)">
<g clip-path="url(#clip1_31_3391)">
<g clip-path="url(#clip2_31_3391)">
<mask id="mask0_31_3391" style="mask-type:luminance" maskUnits="userSpaceOnUse" x="0" y="1" width="31" height="37">
<path d="M0.330078 1.92383H30.3301V37.878H0.330078V1.92383Z" fill="white"/>
</mask>
<g mask="url(#mask0_31_3391)">
<path d="M27.1763 1.92383H3.56381C1.84356 1.92383 0.444824 3.20701 0.444824 4.78388V35.0179C0.444824 36.5961 1.84356 37.878 3.56381 37.878H27.1763C28.8966 37.878 30.2954 36.5961 30.2954 35.0179V4.78388C30.2954 3.20771 28.8966 1.92383 27.1763 1.92383ZM29.4044 35.0186C29.4044 36.1457 28.4053 37.062 27.1763 37.062H3.56381C2.33485 37.062 1.33575 36.1457 1.33575 35.0186V4.78458C1.33575 3.65893 2.33485 2.74198 3.56381 2.74198H27.1763C28.4053 2.74198 29.4044 3.65893 29.4044 4.78458V35.0186Z" fill="#00D280"/>
</g>
<path d="M25.5696 19.4907H10.777C10.5314 19.4907 10.3315 19.6738 10.3315 19.8991C10.3315 20.1243 10.5314 20.3074 10.777 20.3074H25.5696C25.8168 20.3074 26.0151 20.1243 26.0151 19.8991C26.0151 19.6738 25.8168 19.4907 25.5696 19.4907Z" fill="#00D280"/>
<path d="M25.5696 14.0078H10.777C10.5314 14.0078 10.3315 14.1902 10.3315 14.4162C10.3315 14.6415 10.5314 14.8246 10.777 14.8246H25.5696C25.8168 14.8246 26.0151 14.6415 26.0151 14.4162C26.0151 14.1902 25.8168 14.0078 25.5696 14.0078Z" fill="#00D280"/>
<path d="M25.5696 24.9829H10.777C10.5314 24.9829 10.3315 25.1667 10.3315 25.3914C10.3315 25.6173 10.5314 25.8004 10.777 25.8004H25.5696C25.8168 25.8004 26.0151 25.6173 26.0151 25.3914C26.0151 25.166 25.8168 24.9829 25.5696 24.9829Z" fill="#00D280"/>
<path d="M25.5696 8.51367H10.777C10.5314 8.51367 10.3315 8.69679 10.3315 8.92274C10.3315 9.14801 10.5314 9.33113 10.777 9.33113H25.5696C25.8168 9.33113 26.0151 9.14801 26.0151 8.92274C26.0151 8.69679 25.8168 8.51367 25.5696 8.51367Z" fill="#00D280"/>
<path d="M25.5696 30.4727H10.777C10.5314 30.4727 10.3315 30.6565 10.3315 30.8818C10.3315 31.107 10.5314 31.2902 10.777 31.2902H25.5696C25.8168 31.2902 26.0151 31.107 26.0151 30.8818C26.0151 30.6558 25.8168 30.4727 25.5696 30.4727Z" fill="#00D280"/>
<path d="M6.21957 11.0981C7.52591 11.0981 8.58886 10.1238 8.58886 8.92627C8.58886 8.56349 8.48145 8.2256 8.30942 7.92432C9.01329 7.28515 9.78102 6.70609 10.6164 6.20097C10.8214 6.07658 10.8785 5.82367 10.7433 5.63434C10.6081 5.4457 10.3317 5.39526 10.1266 5.51825C9.26946 6.03719 8.4822 6.63284 7.75578 7.28515C7.34111 6.95899 6.80852 6.75376 6.22032 6.75376C5.66142 6.75376 5.15437 6.94033 4.74797 7.23816C4.58947 7.10134 4.34533 7.08337 4.16955 7.2119C3.97799 7.35286 3.94794 7.60992 4.10193 7.78612L4.16879 7.86213C3.97273 8.1786 3.85254 8.53793 3.85254 8.92696C3.85103 10.1238 4.91399 11.0981 6.21957 11.0981ZM7.69869 8.92627C7.69869 9.67393 7.03538 10.2806 6.22032 10.2806C5.40602 10.2806 4.74271 9.67325 4.74271 8.92627C4.74271 8.80604 4.76524 8.69065 4.7983 8.58008L5.87327 9.808C5.95816 9.90473 6.08586 9.9607 6.22108 9.9607C6.22559 9.9607 6.23084 9.9607 6.23535 9.9607C6.37507 9.95655 6.50502 9.89299 6.58541 9.78795C6.91218 9.3623 7.27126 8.96359 7.64385 8.57801C7.67466 8.68926 7.69869 8.80396 7.69869 8.92627ZM7.13078 7.86697C6.80701 8.19243 6.49526 8.52895 6.20305 8.88135L5.31212 7.86351C5.56378 7.68247 5.87627 7.57053 6.22032 7.57053C6.56513 7.57122 6.87988 7.68454 7.13078 7.86697Z" fill="#00D280"/>
<path d="M6.21668 17.731C4.91034 17.731 3.84814 18.706 3.84814 19.9034C3.84814 21.1024 4.91034 22.0767 6.21668 22.0767C7.52303 22.0767 8.58598 21.1024 8.58598 19.9034C8.58598 18.706 7.52303 17.731 6.21668 17.731ZM6.21668 21.2585C5.40163 21.2585 4.73906 20.6504 4.73906 19.9027C4.73906 19.155 5.40163 18.547 6.21668 18.547C7.03173 18.547 7.6943 19.155 7.6943 19.9027C7.6943 20.6504 7.03173 21.2585 6.21668 21.2585Z" fill="#00D280"/>
<path d="M6.21668 23.2163C4.91034 23.2163 3.84814 24.1906 3.84814 25.3881C3.84814 26.587 4.91034 27.5613 6.21668 27.5613C7.52303 27.5613 8.58598 26.587 8.58598 25.3881C8.58598 24.1906 7.52303 23.2163 6.21668 23.2163ZM6.21668 26.7432C5.40163 26.7432 4.73906 26.1351 4.73906 25.3881C4.73906 24.6397 5.40163 24.0316 6.21668 24.0316C7.03173 24.0316 7.6943 24.6397 7.6943 25.3881C7.6943 26.1351 7.03173 26.7432 6.21668 26.7432Z" fill="#00D280"/>
<path d="M6.21668 28.7104C4.91034 28.7104 3.84814 29.6854 3.84814 30.8822C3.84814 32.0812 4.91109 33.0562 6.21668 33.0562C7.52152 33.0562 8.58598 32.0812 8.58598 30.8822C8.58598 29.6861 7.52303 28.7104 6.21668 28.7104ZM6.21668 32.2401C5.40163 32.2401 4.73906 31.632 4.73906 30.8836C4.73906 30.1367 5.40163 29.5286 6.21668 29.5286C7.03173 29.5286 7.6943 30.1367 7.6943 30.8836C7.6943 31.632 7.03173 32.2401 6.21668 32.2401Z" fill="#00D280"/>
<path d="M10.6164 11.6838C10.8214 11.5594 10.8785 11.3065 10.7433 11.1185C10.6081 10.9285 10.3317 10.8774 10.1266 11.0024C9.26947 11.5221 8.4822 12.117 7.75579 12.7686C7.34112 12.4418 6.80852 12.2373 6.22033 12.2373C5.66143 12.2373 5.15363 12.4232 4.74798 12.7217C4.58873 12.5848 4.34534 12.5668 4.16955 12.6954C3.978 12.8371 3.94795 13.0934 4.10194 13.2696L4.1688 13.3456C3.97274 13.6621 3.85254 14.0214 3.85254 14.4098C3.85254 15.6079 4.91475 16.5822 6.22109 16.5822C7.52742 16.5822 8.59037 15.6079 8.59037 14.4098C8.59037 14.047 8.48371 13.7098 8.31168 13.4084C9.0133 12.7686 9.78103 12.1896 10.6164 11.6838ZM7.13229 13.3497C6.80852 13.6752 6.49677 14.0118 6.20381 14.3649L5.31288 13.3476C5.56453 13.1659 5.87703 13.0533 6.22109 13.0533C6.56514 13.0533 6.87989 13.1666 7.13229 13.3497ZM7.6987 14.4091C7.6987 15.1568 7.03539 15.7648 6.22033 15.7648C5.40603 15.7648 4.74272 15.1568 4.74272 14.4091C4.74272 14.2888 4.76525 14.1741 4.79831 14.0636L5.87328 15.2908C5.95816 15.3882 6.08587 15.4435 6.22109 15.4435C6.2256 15.4435 6.23085 15.4435 6.23536 15.4435C6.37508 15.4393 6.50503 15.3758 6.58541 15.2708C6.91219 14.8451 7.27127 14.4463 7.64386 14.0601C7.67467 14.1721 7.6987 14.2881 7.6987 14.4091Z" fill="#00D280"/>
</g>
</g>
</g>
<defs>
<clipPath id="clip0_31_3391">
<rect width="30" height="38.06" fill="white" transform="translate(0.330078 0.810059)"/>
</clipPath>
<clipPath id="clip1_31_3391">
<rect width="30" height="38.06" fill="white" transform="translate(0.330078 0.810059)"/>
</clipPath>
<clipPath id="clip2_31_3391">
<rect width="30" height="38.0769" fill="white" transform="translate(0.330078 0.801758)"/>
</clipPath>
</defs>
</svg>
