<svg width="48" height="43" viewBox="0 0 48 43" fill="none" xmlns="http://www.w3.org/2000/svg">
<g clip-path="url(#clip0_31_3194)">
<g clip-path="url(#clip1_31_3194)">
<g clip-path="url(#clip2_31_3194)">
<path d="M13.8398 11.7507C13.3683 11.7507 12.9868 12.141 12.9868 12.6222V14.366H14.6927V12.6222C14.6927 12.141 14.3103 11.7507 13.8398 11.7507Z" fill="#00D280"/>
<path d="M23.2251 11.7507V16.9804C24.6366 16.9804 25.785 15.8074 25.785 14.366C25.785 12.9236 24.6366 11.7507 23.2251 11.7507Z" fill="#00D280"/>
<mask id="mask0_31_3194" style="mask-type:luminance" maskUnits="userSpaceOnUse" x="3" y="0" width="32" height="31">
<path d="M3.44678 0.419922H34.4962V30.2051H3.44678V0.419922Z" fill="white"/>
</mask>
<g mask="url(#mask0_31_3194)">
<path d="M30.4715 0.419922H7.43579C5.32013 0.419922 3.59668 2.17869 3.59668 4.3417V26.1286C3.59668 28.2917 5.32013 30.0504 7.43579 30.0504H19.182L18.8768 29.739C16.9402 27.7606 16.9372 24.5445 18.8701 22.5662C19.807 21.6089 21.0512 21.0809 22.3766 21.0809C23.7039 21.0809 24.9549 21.6089 25.8949 22.5702L27.6515 24.3629C28.2199 24.0374 28.8439 23.8318 29.4973 23.753C29.6087 23.6103 29.7291 23.4745 29.8592 23.3417C30.6583 22.5262 31.6804 22.0221 32.7877 21.8914C32.9001 21.7487 33.0224 21.6109 33.1506 21.4802C33.4958 21.1268 33.8949 20.8543 34.3126 20.6227V4.3417C34.3116 2.17869 32.5881 0.419922 30.4715 0.419922ZM17.2473 18.285C17.2473 19.0067 16.6742 19.5927 15.9679 19.5927C15.2607 19.5927 14.6876 19.0067 14.6876 18.285V16.9785H12.9817V18.285C12.9817 19.0067 12.4086 19.5927 11.7014 19.5927C10.9952 19.5927 10.422 19.0067 10.422 18.285V12.6205C10.422 10.698 11.9527 9.13488 13.8346 9.13488C15.7166 9.13488 17.2473 10.698 17.2473 12.6205V18.285ZM23.2197 19.5927H21.9403C21.2331 19.5927 20.66 19.0067 20.66 18.285V10.4425C20.66 9.72078 21.2331 9.13488 21.9403 9.13488H23.2197C26.0426 9.13488 28.3392 11.4806 28.3392 14.3643C28.3392 17.2469 26.0426 19.5927 23.2197 19.5927Z" fill="#00D280"/>
</g>
<path d="M35.5681 23.9477C34.9627 24.5666 34.9666 25.5697 35.575 26.1926L36.1266 26.7555C36.2274 26.8584 36.2293 27.0271 36.1286 27.1299C36.0278 27.2327 35.8635 27.2327 35.7608 27.1279L34.4765 25.8162C33.8672 25.1934 32.8841 25.1914 32.2787 25.8093C31.6733 26.4282 31.6762 27.4313 32.2856 28.0541L33.5698 29.3668C33.6706 29.4695 33.6725 29.6383 33.5717 29.7411C33.471 29.8439 33.3077 29.8439 33.205 29.7391L31.1852 27.6759C30.5758 27.053 29.5927 27.052 28.9873 27.6689C28.3809 28.2877 28.3848 29.2909 28.9942 29.9138L31.0139 31.9769C31.1147 32.0798 31.1167 32.2495 31.0159 32.3523C30.9152 32.4551 30.7509 32.4551 30.6492 32.3503L23.4874 25.0347C22.878 24.4129 21.8949 24.4109 21.2895 25.0277C20.6841 25.6466 20.687 26.6507 21.2964 27.2726L29.9155 36.0764C28.7858 35.8967 26.8844 35.8208 25.7175 37.0107C24.622 38.1297 24.6513 38.9042 24.9907 39.2526C25.917 40.1988 26.63 38.7035 30.8516 40.7638C35.0732 42.826 37.7865 42.6543 39.642 40.7918L42.1978 38.1805C42.1841 38.1945 42.2115 38.1666 42.1978 38.1805C44.7966 35.5264 45.541 31.8971 42.9177 29.22L42.904 29.206L37.763 23.9548C37.1576 23.3319 36.1746 23.3308 35.5681 23.9477Z" fill="#00D280"/>
</g>
</g>
</g>
<defs>
<clipPath id="clip0_31_3194">
<rect width="48" height="42" fill="white" transform="translate(0 0.419922)"/>
</clipPath>
<clipPath id="clip1_31_3194">
<rect width="48" height="42" fill="white" transform="translate(0 0.419922)"/>
</clipPath>
<clipPath id="clip2_31_3194">
<rect width="42" height="42" fill="white" transform="translate(3 0.419922)"/>
</clipPath>
</defs>
</svg>
