<svg width="31" height="34" viewBox="0 0 31 34" fill="none" xmlns="http://www.w3.org/2000/svg">
<g clip-path="url(#clip0_31_3317)">
<g clip-path="url(#clip1_31_3317)">
<g clip-path="url(#clip2_31_3317)">
<mask id="mask0_31_3317" style="mask-type:luminance" maskUnits="userSpaceOnUse" x="0" y="1" width="31" height="33">
<path d="M0.660156 1.27344H30.6602V33.2984H0.660156V1.27344Z" fill="white"/>
</mask>
<g mask="url(#mask0_31_3317)">
<path d="M16.4669 31.9166C16.8233 31.9166 17.1129 32.2158 17.1129 32.5857C17.1129 32.9244 16.8695 33.204 16.5543 33.2486L16.4669 33.2548H14.7437C14.3866 33.2548 14.0977 32.9551 14.0977 32.5857C14.0977 32.2466 14.3405 31.9668 14.6563 31.9223L14.7437 31.9166H16.4669ZM18.1895 30.1321C18.5465 30.1321 18.8362 30.4318 18.8362 30.8012C18.8362 31.1397 18.5926 31.4201 18.2775 31.4646L18.1895 31.4702H13.0205C12.6635 31.4702 12.3744 31.1711 12.3744 30.8012C12.3744 30.4625 12.6173 30.1829 12.933 30.1383L13.0205 30.1321H18.1895ZM19.0511 28.3481C19.4081 28.3481 19.6972 28.6479 19.6972 29.0171C19.6972 29.3558 19.4542 29.6361 19.1392 29.68L19.0511 29.6862H12.1589C11.8025 29.6862 11.5128 29.3865 11.5128 29.0171C11.5128 28.6786 11.7557 28.3983 12.0714 28.3544L12.1589 28.3481H19.0511ZM15.6052 7.83081C20.2442 7.83081 24.0052 11.7249 24.0052 16.5281C24.0052 18.5792 22.8241 20.7958 20.512 23.2056C20.0341 23.7029 19.7488 24.3619 19.7038 25.0573L19.6977 25.2479V26.7873C19.6972 27.3648 19.2733 27.8389 18.7305 27.8966L18.6206 27.9023H12.59C12.032 27.9023 11.5735 27.4633 11.5183 26.9008L11.5128 26.7873V25.2492C11.5128 24.4835 11.2201 23.7486 10.6986 23.2056C8.38641 20.7958 7.20542 18.5792 7.20542 16.5281C7.20542 11.7249 10.9657 7.83081 15.6052 7.83081ZM7.87455 23.7851C8.10589 24.0245 8.12532 24.4001 7.93283 24.6623L7.87455 24.7312L6.04752 26.6231C5.79493 26.8846 5.38568 26.8846 5.1337 26.6231C4.90236 26.3842 4.88293 26.008 5.0754 25.7458L5.1337 25.6774L6.96073 23.7851C7.21332 23.5235 7.62256 23.5235 7.87455 23.7851ZM24.2565 23.7248L24.3227 23.7851L26.1503 25.6774C26.403 25.9383 26.403 26.3622 26.1503 26.6231C25.919 26.8626 25.5559 26.8826 25.3027 26.6832L25.2365 26.6231L23.4089 24.7312C23.1569 24.4698 23.1569 24.0459 23.4089 23.7851C23.6402 23.5455 24.0033 23.5254 24.2565 23.7248ZM15.6052 9.16896C11.6798 9.16896 8.49752 12.4635 8.49752 16.5281C8.49752 18.1597 9.52063 20.0797 11.6154 22.2626C12.3264 23.0031 12.7466 23.9882 12.7995 25.026L12.8049 25.2492L12.8043 26.5641H18.405L18.4057 25.2479C18.4057 24.2785 18.7268 23.3429 19.3085 22.5942L19.4475 22.4243L19.5952 22.2626C21.69 20.0797 22.7124 18.1591 22.7124 16.5281C22.7124 12.4635 19.5307 9.16896 15.6052 9.16896ZM4.01161 15.0733C4.36803 15.0733 4.65766 15.3731 4.65766 15.7424C4.65766 16.081 4.41418 16.3613 4.09905 16.4051L4.01161 16.4115H1.42681C1.06978 16.4115 0.780762 16.1118 0.780762 15.7424C0.780762 15.4038 1.02364 15.1235 1.33937 15.0796L1.42681 15.0733H4.01161ZM29.8572 15.0733C30.2143 15.0733 30.5032 15.3731 30.5032 15.7424C30.5032 16.081 30.2604 16.3613 29.9446 16.4051L29.8572 16.4115H27.2724C26.9154 16.4115 26.6264 16.1118 26.6264 15.7424C26.6264 15.4038 26.8693 15.1235 27.185 15.0796L27.2724 15.0733H29.8572ZM16.4669 10.5071C19.2022 10.5071 21.4203 12.8034 21.4203 15.6364C21.4203 16.0058 21.1313 16.3055 20.7742 16.3055C20.4172 16.3055 20.1282 16.0058 20.1282 15.6364C20.1282 13.5427 18.4888 11.8452 16.4669 11.8452C16.1099 11.8452 15.8202 11.5455 15.8202 11.1761C15.8202 10.8062 16.1099 10.5071 16.4669 10.5071ZM5.98133 4.8015L6.04752 4.86107L7.87455 6.75353C8.12714 7.01502 8.12714 7.43827 7.87455 7.69976C7.64321 7.93929 7.28071 7.95936 7.02691 7.75995L6.96073 7.69976L5.1337 5.80731C4.88111 5.54645 4.88111 5.12256 5.1337 4.86107C5.36504 4.62154 5.72752 4.6021 5.98133 4.8015ZM26.1503 4.86107C26.3817 5.10061 26.4011 5.47685 26.208 5.73895L26.1503 5.80731L24.3227 7.69976C24.0707 7.96124 23.6615 7.96124 23.4089 7.69976C23.1775 7.46023 23.1587 7.08462 23.3512 6.8225L23.4089 6.75353L25.2365 4.86107C25.4891 4.60022 25.8983 4.60022 26.1503 4.86107ZM15.6417 1.24609C15.969 1.24609 16.2392 1.49817 16.2823 1.82487L16.2884 1.91517V4.59144C16.2884 4.96078 15.9988 5.26051 15.6417 5.26051C15.315 5.26051 15.0442 5.00906 15.0017 4.68237L14.9956 4.59144V1.91517C14.9956 1.54583 15.2853 1.24609 15.6417 1.24609Z" fill="#00D280"/>
</g>
</g>
</g>
</g>
<defs>
<clipPath id="clip0_31_3317">
<rect width="30" height="32.64" fill="white" transform="translate(0.660156 0.919922)"/>
</clipPath>
<clipPath id="clip1_31_3317">
<rect width="30" height="32.64" fill="white" transform="translate(0.660156 0.919922)"/>
</clipPath>
<clipPath id="clip2_31_3317">
<rect width="30" height="32.6471" fill="white" transform="translate(0.660156 0.916504)"/>
</clipPath>
</defs>
</svg>
