<svg width="48" height="43" viewBox="0 0 48 43" fill="none" xmlns="http://www.w3.org/2000/svg">
<g clip-path="url(#clip0_31_3212)">
<g clip-path="url(#clip1_31_3212)">
<g clip-path="url(#clip2_31_3212)">
<path d="M33.8678 5.89494C34.4931 5.64966 35.1993 5.96822 35.4396 6.60637C35.68 7.24452 35.3668 7.96409 34.7405 8.20836C34.1151 8.45364 33.409 8.13813 33.1686 7.49693C32.9283 6.85878 33.2415 6.14328 33.8678 5.89494ZM31.3954 8.10454C31.5271 8.47196 31.7165 8.80579 31.9599 9.09483L31.53 9.85919C32.0177 10.3559 32.6301 10.7192 33.3143 10.9014L33.7431 10.1442C33.9296 10.1778 34.1151 10.1961 34.3076 10.1961C34.5011 10.1961 34.6866 10.1778 34.8721 10.1411L35.302 10.9014C35.9861 10.7162 36.6005 10.3518 37.0812 9.85204L36.6524 9.09179C36.8957 8.80172 37.0892 8.46483 37.2159 8.09741H38.0756C38.1664 7.76359 38.2172 7.41143 38.2172 7.04809C38.2132 6.68474 38.1623 6.33259 38.0756 6.00181H37.2129C37.0853 5.63541 36.8917 5.29751 36.6484 5.00846L37.0782 4.24818C36.5935 3.74743 35.9822 3.38409 35.294 3.2019L34.8652 3.96218C34.6826 3.92555 34.4972 3.90723 34.3036 3.90723C34.1072 3.90723 33.9217 3.9286 33.7402 3.96218L33.3103 3.2019C32.6221 3.38714 32.0108 3.75456 31.5271 4.25123L31.9599 5.01151C31.7126 5.30158 31.523 5.63847 31.3994 6.00589L30.5327 6.00995C30.446 6.34277 30.395 6.69186 30.395 7.05521C30.395 7.41856 30.4489 7.76765 30.5367 8.10454H31.3954Z" fill="#00D280"/>
<path d="M11.9585 5.61428C12.2786 5.61428 12.5339 5.87687 12.5339 6.1995C12.5339 6.52214 12.2786 6.78574 11.9585 6.78574C11.6423 6.78574 11.383 6.52214 11.383 6.1995C11.383 5.87687 11.6423 5.61428 11.9585 5.61428ZM13.7636 5.61428C14.0848 5.61428 14.3431 5.87687 14.3431 6.1995C14.3431 6.52214 14.0848 6.78574 13.7636 6.78574C13.4475 6.78574 13.1892 6.52214 13.1892 6.1995C13.1892 5.87687 13.4475 5.61428 13.7636 5.61428ZM15.5698 5.61428C15.89 5.61428 16.1483 5.87687 16.1483 6.1995C16.1483 6.52214 15.89 6.78574 15.5698 6.78574C15.2527 6.78574 14.9944 6.52214 14.9944 6.1995C14.9944 5.87687 15.2527 5.61428 15.5698 5.61428ZM10.8115 9.31187H13.3378L16.25 11.4034V9.31187H16.7198C17.2224 9.31187 17.6293 8.89254 17.6293 8.3806V4.22705C17.6293 3.71104 17.2184 3.29272 16.7198 3.29272H10.8115C10.3099 3.29272 9.89795 3.71104 9.89795 4.22298V8.3806C9.89795 8.89254 10.3099 9.31187 10.8115 9.31187Z" fill="#00D280"/>
<path d="M21.271 1.99597C21.3916 1.87383 21.5552 1.80361 21.7298 1.80361C22.0868 1.80361 22.378 2.09978 22.378 2.46312C22.378 2.82647 22.0868 3.12366 21.7298 3.12366C21.5552 3.12366 21.3916 3.05648 21.271 2.93028C21.1473 2.80815 21.0824 2.64123 21.0824 2.46312C21.0824 2.28908 21.1473 2.12216 21.271 1.99597ZM21.7298 4.33583C22.7421 4.33583 23.5648 3.4982 23.5648 2.46312C23.5648 1.43211 22.7421 0.594482 21.7298 0.594482C20.7144 0.594482 19.8916 1.43211 19.8916 2.46312C19.8916 3.4982 20.7144 4.33583 21.7298 4.33583Z" fill="#00D280"/>
<path d="M26.9433 6.7705C26.9433 7.13792 26.6521 7.43409 26.2951 7.43409C25.939 7.43409 25.6478 7.13792 25.6478 6.7705C25.6478 6.40715 25.939 6.11098 26.299 6.11098C26.6561 6.11098 26.9433 6.40715 26.9433 6.7705ZM26.2951 4.90186C25.2798 4.90186 24.4609 5.73949 24.4609 6.7705C24.4609 7.80558 25.2798 8.64321 26.2951 8.64321C27.3114 8.64321 28.1342 7.80558 28.1342 6.7705C28.1342 5.73949 27.3114 4.90186 26.299 4.90186H26.2951Z" fill="#00D280"/>
<path d="M27.3913 1.16188L21.5669 8.80947L20.6284 8.06751L26.4519 0.419922L27.3913 1.16188Z" fill="#00D280"/>
<mask id="mask0_31_3212" style="mask-type:luminance" maskUnits="userSpaceOnUse" x="6" y="9" width="36" height="34">
<path d="M6.57471 9.72974H41.4258V42.1948H6.57471V9.72974Z" fill="white"/>
</mask>
<g mask="url(#mask0_31_3212)">
<path d="M40.1681 40.0772L29.8267 30.1569L40.1681 23.0406V40.0772ZM8.87457 40.8893L19.2709 30.8947L23.6532 33.9104C23.7629 33.9878 23.8866 34.0254 24.0142 34.0254C24.1379 34.0254 24.2615 33.9878 24.3703 33.9104L28.7426 30.9029L39.1488 40.8893H8.87457ZM7.85629 23.0406L18.1828 30.1457L7.85629 40.0772V23.0406ZM10.6987 20.259V23.4263L8.36892 21.8202L10.6987 20.259ZM24.5747 16.1014C27.3374 16.1014 29.3171 18.0372 29.3171 20.7262C29.3171 23.063 28.0285 24.5347 26.333 24.5347C25.597 24.5347 25.0624 24.1489 24.9826 23.3032H24.9527C24.465 24.1194 23.7589 24.5347 22.9251 24.5347C21.9069 24.5347 21.1678 23.7672 21.1678 22.4543C21.1678 20.5032 22.58 18.7272 24.84 18.7272C25.5322 18.7272 26.3181 18.9012 26.711 19.1282L26.2383 22.0869C26.0816 23.0294 26.1904 23.463 26.6312 23.4783C27.3084 23.4925 28.1562 22.6141 28.1562 20.774C28.1562 18.6936 26.8347 17.0774 24.4032 17.0774C22.0006 17.0774 19.8932 18.9979 19.8932 22.0544C19.8932 24.724 21.5747 26.2486 23.9154 26.2486C24.7163 26.2486 25.5641 26.0705 26.1904 25.7326L26.4747 26.6639C25.5322 27.0934 24.7163 27.2389 23.6023 27.2389C20.9922 27.2389 18.6994 25.3326 18.6994 22.1948C18.7033 18.9348 21.0252 16.1014 24.5747 16.1014ZM24.0102 11.3402L26.2961 12.872H21.7283L24.0102 11.3402ZM37.3217 20.2631L39.6515 21.8202L37.3217 23.4263V20.2631ZM41.1585 21.2716L37.3217 18.7018V12.872H28.6259L24.3632 10.0161C24.1488 9.87159 23.8716 9.87159 23.6611 10.0161L19.3985 12.872H10.6987V18.7018L6.86194 21.2716C6.6914 21.3867 6.57471 21.5862 6.57471 21.8132V41.5427C6.57471 41.902 6.86194 42.1951 7.215 42.1951H40.8054C41.1585 42.1951 41.4457 41.902 41.4457 41.5427V21.8132C41.4457 21.5862 41.329 21.3867 41.1585 21.2716Z" fill="#00D280"/>
</g>
<path d="M22.7368 22.2625C22.7368 22.8701 23.0062 23.2518 23.5228 23.2518C24.1052 23.2518 24.7165 22.5027 24.8582 21.5755L25.0766 20.056C24.9529 20.0224 24.7934 19.9888 24.5929 19.9888C23.5556 19.9888 22.7368 21.031 22.7368 22.2625Z" fill="#00D280"/>
</g>
</g>
</g>
<defs>
<clipPath id="clip0_31_3212">
<rect width="48" height="42" fill="white" transform="translate(0 0.419922)"/>
</clipPath>
<clipPath id="clip1_31_3212">
<rect width="48" height="42" fill="white" transform="translate(0 0.419922)"/>
</clipPath>
<clipPath id="clip2_31_3212">
<rect width="34.8511" height="42" fill="white" transform="translate(6.57471 0.419922)"/>
</clipPath>
</defs>
</svg>
