<svg width="31" height="32" viewBox="0 0 31 32" fill="none" xmlns="http://www.w3.org/2000/svg">
<g clip-path="url(#clip0_31_3383)">
<g clip-path="url(#clip1_31_3383)">
<g clip-path="url(#clip2_31_3383)">
<path fill-rule="evenodd" clip-rule="evenodd" d="M18.0282 3.08232C23.5444 3.95834 27.9009 8.31453 28.7769 13.8303L26.069 14.264C25.3785 9.91504 21.9439 6.48076 17.5949 5.78993L18.0282 3.08232ZM20.3629 20.7932H11.5966C11.1836 20.7932 10.886 20.4051 10.993 20.0061C11.5844 17.8056 13.5928 16.1856 15.98 16.1856C18.3671 16.1856 20.3756 17.8056 20.9666 20.0061C21.074 20.4055 20.7763 20.7932 20.3629 20.7932ZM15.98 10.3396C14.5379 10.3396 13.3693 11.5082 13.3693 12.95C13.3693 14.392 14.5379 15.5606 15.98 15.5606C17.4216 15.5606 18.5906 14.3916 18.5906 12.95C18.5906 11.5082 17.4216 10.3396 15.98 10.3396ZM8.88363 15.7555L1.34203 14.5486C1.13189 14.515 0.97998 14.6835 0.97998 14.8571V16.9007C0.97998 17.0743 1.13189 17.2429 1.34203 17.2092L8.88363 16.0022C9.02324 15.9802 9.02324 15.7776 8.88363 15.7555ZM15.8566 22.9753L14.6496 30.5169C14.6161 30.727 14.7846 30.8789 14.9582 30.8789H17.0017C17.1754 30.8789 17.3439 30.727 17.3103 30.5169L16.1033 22.9753C16.0812 22.8356 15.8787 22.8356 15.8566 22.9753ZM23.0763 16.0022L30.6183 17.2092C30.8281 17.2429 30.98 17.0743 30.98 16.9007V14.8571C30.98 14.6835 30.8281 14.515 30.6183 14.5486L23.0763 15.7555C22.9367 15.7776 22.9367 15.9802 23.0763 16.0022ZM16.1033 8.78254L17.3103 1.24096C17.3439 1.03082 17.1754 0.878906 17.0017 0.878906H14.9582C14.7846 0.878906 14.6161 1.03082 14.6496 1.24096L15.8566 8.78254C15.8787 8.92213 16.0812 8.92213 16.1033 8.78254ZM26.069 17.4939C25.3781 21.8428 21.9439 25.277 17.5949 25.9679L18.0286 28.6759C23.5444 27.7999 27.9006 23.4433 28.7766 17.9271L26.069 17.4939ZM14.3651 25.9679C10.0161 25.277 6.58183 21.8428 5.89101 17.4939L3.18303 17.9275C4.05905 23.4433 8.4156 27.7995 13.9317 28.6755L14.3651 25.9679ZM5.89101 14.264L3.18303 13.8303C4.05905 8.31453 8.4156 3.95834 13.9317 3.08232L14.3651 5.78993C10.0161 6.48076 6.58147 9.91504 5.89101 14.264Z" fill="#00D280"/>
</g>
</g>
</g>
<defs>
<clipPath id="clip0_31_3383">
<rect width="30" height="30.83" fill="white" transform="translate(0.97998 0.419922)"/>
</clipPath>
<clipPath id="clip1_31_3383">
<rect width="30" height="30.83" fill="white" transform="translate(0.97998 0.419922)"/>
</clipPath>
<clipPath id="clip2_31_3383">
<rect width="30" height="30.8333" fill="white" transform="translate(0.97998 0.418457)"/>
</clipPath>
</defs>
</svg>
