<svg width="48" height="43" viewBox="0 0 48 43" fill="none" xmlns="http://www.w3.org/2000/svg">
<g clip-path="url(#clip0_31_3114)">
<g clip-path="url(#clip1_31_3114)">
<g clip-path="url(#clip2_31_3114)">
<mask id="mask0_31_3114" style="mask-type:luminance" maskUnits="userSpaceOnUse" x="3" y="0" width="14" height="13">
<path d="M3.60889 0.419922H16.7991V12.0723H3.60889V0.419922Z" fill="white"/>
</mask>
<g mask="url(#mask0_31_3114)">
<path d="M4.92433 11.8309H15.449C15.5352 11.8309 15.6204 11.8223 15.7056 11.8051C15.7907 11.788 15.8728 11.7622 15.9526 11.7289C16.0325 11.6946 16.1082 11.6538 16.1798 11.6044C16.2513 11.5551 16.3175 11.5004 16.3795 11.4381C16.4406 11.3749 16.4942 11.3072 16.5425 11.2343C16.5909 11.1613 16.6309 11.0841 16.6645 11.0025C16.6971 10.9209 16.7223 10.8362 16.7392 10.7503C16.756 10.6634 16.7644 10.5765 16.7644 10.4885V1.76232C16.7644 1.67434 16.756 1.58634 16.7392 1.5005C16.7223 1.41358 16.6971 1.32988 16.6645 1.24833C16.6309 1.16677 16.5909 1.08951 16.5425 1.01655C16.4942 0.942505 16.4406 0.874901 16.3795 0.812664C16.3175 0.750425 16.2513 0.694626 16.1798 0.645265C16.1082 0.596977 16.0325 0.555128 15.9526 0.521863C15.8728 0.487525 15.7907 0.462844 15.7056 0.445675C15.6204 0.428506 15.5352 0.419922 15.449 0.419922H4.92433C4.83811 0.419922 4.75294 0.428506 4.66777 0.445675C4.58259 0.462844 4.50057 0.487525 4.42066 0.521863C4.34074 0.555128 4.26503 0.596977 4.19353 0.645265C4.12203 0.694626 4.05578 0.750425 3.99374 0.812664C3.93275 0.874901 3.87807 0.942505 3.83076 1.01655C3.78239 1.08951 3.74243 1.16677 3.70878 1.24833C3.67618 1.32988 3.65095 1.41358 3.63412 1.5005C3.6173 1.58634 3.60889 1.67434 3.60889 1.76232V10.4885C3.60889 10.5765 3.6173 10.6634 3.63412 10.7503C3.65095 10.8362 3.67618 10.9209 3.70878 11.0025C3.74243 11.0841 3.78239 11.1613 3.83076 11.2343C3.87807 11.3072 3.93275 11.3749 3.99374 11.4381C4.05578 11.5004 4.12203 11.5551 4.19353 11.6044C4.26503 11.6538 4.34074 11.6946 4.42066 11.7289C4.50057 11.7622 4.58259 11.788 4.66777 11.8051C4.75294 11.8223 4.83811 11.8309 4.92433 11.8309ZM7.88435 2.76886L13.8044 6.12541L7.88435 9.48191V2.76886Z" fill="#00D280"/>
</g>
<path d="M41.5482 28.8742C41.7995 28.2722 42.0203 27.6573 42.2117 27.0317C42.4021 26.4061 42.5618 25.772 42.6902 25.1292C42.8184 24.4875 42.9152 23.8404 42.9793 23.188C43.0434 22.5366 43.076 21.8821 43.076 21.2275C43.076 20.5719 43.0434 19.9183 42.9793 19.266C42.9152 18.6136 42.8184 17.9665 42.6902 17.3248C42.5618 16.682 42.4021 16.0489 42.2117 15.4223C42.0203 14.7967 41.7995 14.1828 41.5482 13.5798L40.3379 14.1067C40.8069 15.2334 41.1613 16.3955 41.4009 17.5941C41.6407 18.7927 41.7606 20.0042 41.7606 21.2275C41.7606 22.4509 41.6407 23.6613 41.4009 24.8599C41.1613 26.0596 40.8069 27.2217 40.3379 28.3473L41.5482 28.8742Z" fill="#00D280"/>
<path d="M18.5527 2.56892L18.9281 3.85659C20.5843 3.35761 22.2762 3.10867 24.0027 3.10867C25.7294 3.10867 27.4213 3.35761 29.0774 3.85659L29.4527 2.56892C28.5674 2.3028 27.6683 2.10321 26.7556 1.968C25.8429 1.83386 24.9249 1.76733 24.0027 1.76733C23.0806 1.76733 22.1626 1.83386 21.2498 1.968C20.3372 2.10321 19.4381 2.3028 18.5527 2.56892Z" fill="#00D280"/>
<path d="M6.45266 13.5798C6.20135 14.1828 5.98052 14.7967 5.78915 15.4223C5.59882 16.0489 5.43899 16.682 5.3107 17.3248C5.18243 17.9665 5.08568 18.6136 5.02154 19.266C4.9574 19.9183 4.9248 20.5719 4.9248 21.2275C4.9248 21.8821 4.9574 22.5366 5.02154 23.188C5.08568 23.8404 5.18243 24.4875 5.3107 25.1292C5.43899 25.772 5.59882 26.4061 5.78915 27.0317C5.98052 27.6573 6.20135 28.2722 6.45266 28.8742L7.66295 28.3473C7.19398 27.2217 6.83961 26.0596 6.59987 24.8599C6.36012 23.6613 6.24025 22.4509 6.24025 21.2275C6.24025 20.0042 6.36012 18.7927 6.59987 17.5941C6.83961 16.3955 7.19398 15.2334 7.66295 14.1067L6.45266 13.5798Z" fill="#00D280"/>
<path d="M18.5527 39.8876C19.4381 40.1548 20.3361 40.3555 21.2498 40.4907C22.1626 40.6259 23.0806 40.6935 24.0027 40.6935C24.9249 40.6935 25.8429 40.6259 26.7556 40.4907C27.6694 40.3555 28.5674 40.1548 29.4527 39.8876L29.0774 38.6011C27.4213 39.0989 25.7294 39.3479 24.0027 39.3479C22.2762 39.3479 20.5843 39.0989 18.9281 38.6011L18.5527 39.8876Z" fill="#00D280"/>
<mask id="mask1_31_3114" style="mask-type:luminance" maskUnits="userSpaceOnUse" x="3" y="30" width="14" height="13">
<path d="M3.60889 30.4783H16.7991V42.0384H3.60889V30.4783Z" fill="white"/>
</mask>
<g mask="url(#mask1_31_3114)">
<path d="M4.92433 42.037H15.449C15.5352 42.037 15.6204 42.0284 15.7056 42.0113C15.7907 41.9941 15.8728 41.9683 15.9526 41.934C16.0325 41.9007 16.1082 41.8589 16.1798 41.8106C16.2513 41.7613 16.3175 41.7054 16.3795 41.6432C16.4406 41.581 16.4942 41.5134 16.5425 41.4404C16.5909 41.3664 16.6309 41.2891 16.6645 41.2076C16.6971 41.126 16.7223 41.0423 16.7392 40.9565C16.756 40.8695 16.7644 40.7827 16.7644 40.6946V31.9674C16.7644 31.8794 16.756 31.7925 16.7392 31.7056C16.7223 31.6197 16.6971 31.536 16.6645 31.4545C16.6309 31.3729 16.5909 31.2957 16.5425 31.2216C16.4942 31.1487 16.4406 31.081 16.3795 31.0188C16.3175 30.9565 16.2513 30.9008 16.1798 30.8514C16.1082 30.8031 16.0325 30.7613 15.9526 30.728C15.8728 30.6936 15.7907 30.6679 15.7056 30.6507C15.6204 30.6336 15.5352 30.625 15.449 30.625H4.92433C4.83811 30.625 4.75294 30.6336 4.66777 30.6507C4.58259 30.6679 4.50057 30.6936 4.42066 30.728C4.34074 30.7613 4.26503 30.8031 4.19353 30.8514C4.12203 30.9008 4.05578 30.9565 3.99374 31.0188C3.93275 31.081 3.87807 31.1487 3.83076 31.2216C3.78239 31.2957 3.74243 31.3729 3.70878 31.4545C3.67618 31.536 3.65095 31.6197 3.63412 31.7056C3.6173 31.7925 3.60889 31.8794 3.60889 31.9674V40.6946C3.60889 40.7827 3.6173 40.8695 3.63412 40.9565C3.65095 41.0423 3.67618 41.126 3.70878 41.2076C3.74243 41.2891 3.78239 41.3664 3.83076 41.4404C3.87807 41.5134 3.93275 41.581 3.99374 41.6432C4.05578 41.7054 4.12203 41.7613 4.19353 41.8106C4.26503 41.8589 4.34074 41.9007 4.42066 41.934C4.50057 41.9683 4.58259 41.9941 4.66777 42.0113C4.75294 42.0284 4.83811 42.037 4.92433 42.037ZM8.26816 34.7649L9.39118 36.7297L11.3375 33.1982L14.7907 39.4639H5.58258L8.26816 34.7649Z" fill="#00D280"/>
</g>
<mask id="mask2_31_3114" style="mask-type:luminance" maskUnits="userSpaceOnUse" x="31" y="30" width="14" height="13">
<path d="M31.0669 30.4783H44.3917V42.0384H31.0669V30.4783Z" fill="white"/>
</mask>
<g mask="url(#mask2_31_3114)">
<path d="M43.0764 30.625H32.5517C32.4655 30.625 32.3803 30.6336 32.2952 30.6507C32.21 30.6679 32.128 30.6936 32.0481 30.728C31.9681 30.7613 31.8924 30.8031 31.8209 30.8514C31.7494 30.9008 31.6832 30.9565 31.6211 31.0188C31.5602 31.081 31.5066 31.1487 31.4581 31.2216C31.4098 31.2957 31.3698 31.3729 31.3361 31.4545C31.3036 31.536 31.2783 31.6197 31.2615 31.7056C31.2447 31.7925 31.2363 31.8794 31.2363 31.9674V40.6946C31.2363 40.7827 31.2447 40.8695 31.2615 40.9565C31.2783 41.0423 31.3036 41.126 31.3361 41.2076C31.3698 41.2891 31.4098 41.3664 31.4581 41.4404C31.5066 41.5134 31.5602 41.581 31.6211 41.6432C31.6832 41.7054 31.7494 41.7613 31.8209 41.8106C31.8924 41.8589 31.9681 41.9007 32.0481 41.934C32.128 41.9683 32.21 41.9941 32.2952 42.0113C32.3803 42.0284 32.4655 42.037 32.5517 42.037H43.0764C43.1626 42.037 43.2478 42.0284 43.333 42.0113C43.4181 41.9941 43.5001 41.9683 43.58 41.934C43.6599 41.9007 43.7357 41.8589 43.8072 41.8106C43.8787 41.7613 43.9449 41.7054 44.0069 41.6432C44.068 41.581 44.1226 41.5134 44.1699 41.4404C44.2183 41.3664 44.2583 41.2891 44.2919 41.2076C44.3245 41.126 44.3498 41.0423 44.3666 40.9565C44.3834 40.8695 44.3918 40.7827 44.3918 40.6946V31.9674C44.3918 31.8794 44.3834 31.7925 44.3666 31.7056C44.3498 31.6197 44.3245 31.536 44.2919 31.4545C44.2583 31.3729 44.2183 31.2957 44.1699 31.2216C44.1226 31.1487 44.068 31.081 44.0069 31.0188C43.9449 30.9565 43.8787 30.9008 43.8072 30.8514C43.7357 30.8031 43.6599 30.7613 43.58 30.728C43.5001 30.6936 43.4181 30.6679 43.333 30.6507C43.2478 30.6336 43.1626 30.625 43.0764 30.625ZM41.1027 35.3239H39.7873V34.6532H38.4718V38.0088H39.13V39.3512H36.4981V38.0088H37.1564V34.6532H35.8409V35.3239H34.5255V33.9815C34.5255 33.8924 34.5423 33.8066 34.5749 33.725C34.6085 33.6425 34.6558 33.5695 34.7179 33.5073C34.7799 33.4439 34.8504 33.3957 34.9313 33.3613C35.0123 33.3269 35.0953 33.3098 35.1826 33.3098H40.4455C40.5327 33.3098 40.6158 33.3269 40.6968 33.3613C40.7777 33.3957 40.8482 33.4439 40.9103 33.5073C40.9723 33.5695 41.0196 33.6425 41.0532 33.725C41.0859 33.8066 41.1027 33.8924 41.1027 33.9815V35.3239Z" fill="#00D280"/>
</g>
<path d="M23.3418 12.5046H24.6583V14.1154H23.3418V12.5046Z" fill="#00D280"/>
<path d="M16.1089 19.8875H17.6883V21.2298H16.1089V19.8875Z" fill="#00D280"/>
<path d="M30.3164 19.8875H31.8958V21.2298H30.3164V19.8875Z" fill="#00D280"/>
<path d="M17.9556 15.3359L18.8862 14.3862L20.0019 15.5259L19.0723 16.4755L17.9556 15.3359Z" fill="#00D280"/>
<path d="M28.002 25.5881L28.9326 24.6384L30.0482 25.778L29.1187 26.7276L28.002 25.5881Z" fill="#00D280"/>
<path d="M17.9556 25.7769L19.0723 24.6384L20.0019 25.587L18.8862 26.7265L17.9556 25.7769Z" fill="#00D280"/>
<path d="M28.002 15.5259L29.1187 14.3862L30.0482 15.3359L28.9326 16.4744L28.002 15.5259Z" fill="#00D280"/>
<path d="M19.2646 20.5453C19.2667 20.9939 19.3288 21.4338 19.4507 21.8641C19.5717 22.2943 19.7493 22.7 19.9818 23.0798C20.2141 23.4608 20.4928 23.801 20.8178 24.1025C21.1427 24.404 21.5023 24.654 21.8955 24.8537V25.7593H26.1058V24.8537C26.3456 24.7313 26.5726 24.5897 26.7893 24.4276C27.0048 24.2667 27.2068 24.0875 27.3928 23.8911C27.579 23.6947 27.7483 23.4844 27.8997 23.2591C28.0511 23.0337 28.1825 22.7966 28.294 22.5476C28.4065 22.2997 28.497 22.0432 28.5663 21.7793C28.6357 21.5153 28.6831 21.2481 28.7072 20.9755C28.7325 20.703 28.7346 20.4315 28.7136 20.159C28.6936 19.8864 28.6505 19.6171 28.5853 19.352C28.5201 19.087 28.4339 18.8294 28.3256 18.5794C28.2173 18.3294 28.09 18.0901 27.9418 17.8626C27.7945 17.634 27.6284 17.4206 27.4454 17.2209C27.2624 17.0225 27.0637 16.84 26.8503 16.6747C26.6368 16.5106 26.4107 16.3647 26.1731 16.2391C25.9354 16.1125 25.6894 16.0084 25.4339 15.9246C25.1794 15.8421 24.9187 15.7809 24.6536 15.7423C24.3886 15.7047 24.1226 15.6896 23.8545 15.6972C23.5506 15.7101 23.2499 15.7519 22.9533 15.8238C22.6568 15.8946 22.3698 15.9944 22.0911 16.1221C21.8135 16.2488 21.5495 16.4022 21.3004 16.5803C21.0512 16.7596 20.8209 16.9602 20.6085 17.1845C20.3971 17.4076 20.2079 17.6501 20.0417 17.9098C19.8755 18.1706 19.7347 18.4453 19.619 18.7328C19.5044 19.0205 19.4171 19.3166 19.3571 19.6224C19.2972 19.9272 19.2667 20.2352 19.2646 20.5453Z" fill="#00D280"/>
<path d="M21.8965 27.5402C21.8965 27.6808 21.9102 27.8203 21.9375 27.9587C21.9638 28.0971 22.0037 28.2312 22.0573 28.3621C22.11 28.492 22.1751 28.6165 22.2519 28.7334C22.3286 28.8503 22.4159 28.9587 22.5137 29.0585C22.6105 29.1584 22.7177 29.2474 22.8323 29.3257C22.9469 29.4041 23.0689 29.4706 23.1962 29.5243C23.3234 29.5779 23.4558 29.6187 23.5904 29.6465C23.7261 29.6745 23.8639 29.6885 24.0016 29.6885C24.1394 29.6885 24.2771 29.6745 24.4127 29.6465C24.5473 29.6187 24.6798 29.5779 24.8071 29.5243C24.9343 29.4706 25.0563 29.4041 25.1709 29.3257C25.2855 29.2474 25.3928 29.1584 25.4895 29.0585C25.5873 28.9587 25.6746 28.8503 25.7514 28.7334C25.8281 28.6165 25.8933 28.492 25.9458 28.3621C25.9995 28.2312 26.0395 28.0971 26.0657 27.9587C26.0931 27.8203 26.1068 27.6808 26.1068 27.5402V26.7676H21.8965V27.5402Z" fill="#00D280"/>
<mask id="mask3_31_3114" style="mask-type:luminance" maskUnits="userSpaceOnUse" x="31" y="0" width="14" height="13">
<path d="M31.0669 0.419922H44.3917V12.0723H31.0669V0.419922Z" fill="white"/>
</mask>
<g mask="url(#mask3_31_3114)">
<path d="M43.0764 0.419922H32.5517C32.4655 0.419922 32.3803 0.428506 32.2952 0.445675C32.21 0.462844 32.128 0.487525 32.0481 0.521863C31.9681 0.555128 31.8924 0.596977 31.8209 0.645265C31.7494 0.694626 31.6832 0.750425 31.6211 0.812664C31.5602 0.874901 31.5066 0.942505 31.4581 1.01655C31.4098 1.08951 31.3698 1.16677 31.3361 1.24833C31.3036 1.32988 31.2783 1.41358 31.2615 1.5005C31.2447 1.58634 31.2363 1.67434 31.2363 1.76232V10.4885C31.2363 10.5765 31.2447 10.6634 31.2615 10.7503C31.2783 10.8362 31.3036 10.9209 31.3361 11.0025C31.3698 11.0841 31.4098 11.1613 31.4581 11.2343C31.5066 11.3072 31.5602 11.3749 31.6211 11.4381C31.6832 11.5004 31.7494 11.5551 31.8209 11.6044C31.8924 11.6538 31.9681 11.6946 32.0481 11.7289C32.128 11.7622 32.21 11.788 32.2952 11.8051C32.3803 11.8223 32.4655 11.8309 32.5517 11.8309H43.0764C43.1626 11.8309 43.2478 11.8223 43.333 11.8051C43.4181 11.788 43.5001 11.7622 43.58 11.7289C43.6599 11.6946 43.7357 11.6538 43.8072 11.6044C43.8787 11.5551 43.9449 11.5004 44.0069 11.4381C44.068 11.3749 44.1226 11.3072 44.1699 11.2343C44.2183 11.1613 44.2583 11.0841 44.2919 11.0025C44.3245 10.9209 44.3498 10.8362 44.3666 10.7503C44.3834 10.6634 44.3918 10.5765 44.3918 10.4885V1.76232C44.3918 1.67434 44.3834 1.58634 44.3666 1.5005C44.3498 1.41358 44.3245 1.32988 44.2919 1.24833C44.2583 1.16677 44.2183 1.08951 44.1699 1.01655C44.1226 0.942505 44.068 0.874901 44.0069 0.812664C43.9449 0.750425 43.8787 0.694626 43.8072 0.645265C43.7357 0.596977 43.6599 0.555128 43.58 0.521863C43.5001 0.487525 43.4181 0.462844 43.333 0.445675C43.2478 0.428506 43.1626 0.419922 43.0764 0.419922ZM37.8146 9.48191L35.1826 7.56331H32.5517V4.68642H35.1826L37.8146 2.76886V9.48191ZM39.599 7.82192L38.8293 6.73276C38.8756 6.69735 38.9176 6.65765 38.9544 6.61258C38.9923 6.56751 39.0238 6.51814 39.0501 6.46556C39.0764 6.41298 39.0964 6.35718 39.109 6.30031C39.1227 6.24237 39.1289 6.18442 39.1289 6.12541C39.1289 6.06638 39.1227 6.00737 39.109 5.9505C39.0964 5.89255 39.0764 5.83782 39.0501 5.78524C39.0238 5.73266 38.9923 5.6833 38.9544 5.63823C38.9176 5.59317 38.8756 5.55238 38.8293 5.51805L39.599 4.42782C39.6642 4.47718 39.7262 4.52868 39.7851 4.58448C39.8451 4.64136 39.9008 4.70037 39.9534 4.76261C40.0059 4.82593 40.0543 4.89138 40.0995 4.96006C40.1437 5.02873 40.1847 5.09955 40.2215 5.17253C40.2583 5.24656 40.2909 5.32168 40.3182 5.39894C40.3467 5.4762 40.3698 5.55561 40.3887 5.63609C40.4076 5.7155 40.4213 5.79705 40.4308 5.8786C40.4402 5.96015 40.4455 6.04278 40.4455 6.12541C40.4455 6.20803 40.4402 6.28958 40.4308 6.37113C40.4213 6.45377 40.4076 6.53425 40.3887 6.61473C40.3698 6.6952 40.3467 6.77354 40.3182 6.8508C40.2909 6.92805 40.2583 7.00424 40.2215 7.07722C40.1847 7.15125 40.1437 7.22208 40.0995 7.29075C40.0543 7.35943 40.0059 7.42489 39.9534 7.48713C39.9008 7.55043 39.8451 7.60945 39.7851 7.66525C39.7262 7.72105 39.6642 7.77363 39.599 7.82192ZM41.4728 9.35211L40.6968 8.26832C40.7788 8.20608 40.8567 8.14062 40.9313 8.0698C41.006 7.9979 41.0764 7.92386 41.1426 7.84446C41.2078 7.76505 41.2688 7.68135 41.3256 7.59551C41.3824 7.50858 41.4329 7.41844 41.4791 7.32616C41.5253 7.23388 41.5664 7.13838 41.6011 7.04073C41.6358 6.94308 41.6652 6.84329 41.6894 6.74241C41.7126 6.64155 41.7304 6.53961 41.743 6.43552C41.7546 6.3325 41.7609 6.2295 41.7609 6.12541C41.7609 6.02132 41.7546 5.91723 41.743 5.81421C41.7304 5.71121 41.7126 5.60926 41.6894 5.50732C41.6652 5.40645 41.6358 5.30773 41.6011 5.21008C41.5664 5.11243 41.5253 5.01693 41.4791 4.92464C41.4329 4.83129 41.3824 4.74222 41.3256 4.65531C41.2688 4.56839 41.2078 4.48576 41.1426 4.40636C41.0764 4.32695 41.006 4.25183 40.9313 4.18101C40.8567 4.11019 40.7788 4.04366 40.6968 3.9825L41.4728 2.89763C41.5969 2.98991 41.7146 3.08971 41.8272 3.19702C41.9397 3.30325 42.0448 3.41699 42.1447 3.5361C42.2435 3.65521 42.3361 3.77969 42.4213 3.9106C42.5054 4.04151 42.5832 4.17565 42.6526 4.31622C42.722 4.45572 42.783 4.59843 42.8356 4.74545C42.8892 4.89353 42.9333 5.04268 42.9691 5.19506C43.0049 5.34743 43.0312 5.50089 43.0491 5.65647C43.0669 5.81207 43.0764 5.96874 43.0764 6.12541C43.0764 6.28208 43.0669 6.43766 43.0491 6.59326C43.0312 6.74886 43.0049 6.90338 42.9691 7.05575C42.9333 7.20813 42.8892 7.35729 42.8356 7.50429C42.783 7.6513 42.722 7.79509 42.6526 7.93459C42.5832 8.07409 42.5054 8.2093 42.4213 8.34021C42.3361 8.47005 42.2435 8.59452 42.1447 8.71471C42.0448 8.83382 41.9397 8.94649 41.8272 9.0538C41.7146 9.16003 41.5969 9.25982 41.4728 9.35211Z" fill="#00D280"/>
</g>
</g>
</g>
</g>
<defs>
<clipPath id="clip0_31_3114">
<rect width="48" height="42" fill="white" transform="translate(0 0.419922)"/>
</clipPath>
<clipPath id="clip1_31_3114">
<rect width="48" height="42" fill="white" transform="translate(0 0.419922)"/>
</clipPath>
<clipPath id="clip2_31_3114">
<rect width="42" height="42" fill="white" transform="translate(3 0.419922)"/>
</clipPath>
</defs>
</svg>
