<svg width="31" height="25" viewBox="0 0 31 25" fill="none" xmlns="http://www.w3.org/2000/svg">
<g clip-path="url(#clip0_31_3330)">
<g clip-path="url(#clip1_31_3330)">
<mask id="mask0_31_3330" style="mask-type:luminance" maskUnits="userSpaceOnUse" x="1" y="0" width="30" height="24">
<path d="M1.39648 0.802734H30.5632V23.786H1.39648V0.802734Z" fill="white"/>
</mask>
<g mask="url(#mask0_31_3330)">
<path d="M4.65833 13.0457H1.87697C1.61733 13.0457 1.40625 13.2398 1.40625 13.4793V17.0441C1.40625 17.2835 1.61733 17.4771 1.87697 17.4771H4.65833C4.91798 17.4771 5.12843 17.2835 5.12843 17.0441V13.4793C5.12843 13.2398 4.91798 13.0457 4.65833 13.0457ZM4.18823 16.6111H2.34707V13.9123H4.18823V16.6111ZM2.26737 9.98092C2.13723 9.77359 2.21444 9.50842 2.43923 9.38926L16.559 1.87653L15.4326 1.69726C15.1767 1.65659 15.0055 1.43207 15.0497 1.19667C15.0939 0.960704 15.3367 0.802625 15.5932 0.84329L17.9986 1.22703C18.1356 1.2488 18.2557 1.32554 18.3255 1.43723C18.3952 1.54834 18.4077 1.68237 18.3591 1.80322L17.5172 3.91437C17.4469 4.08963 17.267 4.19845 17.0758 4.19845C17.0217 4.19845 16.9668 4.18986 16.9133 4.17153C16.6698 4.08906 16.5447 3.83991 16.6343 3.61539L17.0291 2.62683L2.90932 10.1396C2.83523 10.1785 2.7549 10.1974 2.67458 10.1974C2.51269 10.1974 2.35454 10.1201 2.26737 9.98092ZM23.1659 13.1568V5.86114C23.1659 5.62231 22.9555 5.42814 22.6958 5.42814H19.9138C19.6542 5.42814 19.4437 5.62231 19.4437 5.86114V12.6975C18.6555 12.7295 17.889 12.8407 17.1537 13.0228V8.40071C17.1537 8.1613 16.9426 7.96714 16.6829 7.96714H13.9016C13.6419 7.96714 13.4314 8.1613 13.4314 8.40071V14.7233C12.5479 15.351 11.774 16.103 11.1407 16.9513V10.9397C11.1407 10.7003 10.9302 10.5067 10.6707 10.5067H7.88925C7.62961 10.5067 7.41916 10.7003 7.41916 10.9397V17.0441C7.41916 17.2835 7.62961 17.4771 7.88925 17.4771H10.6707C10.7098 17.4771 10.7472 17.4725 10.7827 17.4644C9.82507 18.9358 9.27402 20.6558 9.27402 22.4932C9.27402 22.6078 9.32323 22.7183 9.41165 22.7996C9.4994 22.8803 9.61898 22.9262 9.74415 22.9262H14.0012C14.2608 22.9262 14.4712 22.732 14.4712 22.4932C14.4712 19.7274 16.9127 17.4771 19.9138 17.4771C22.915 17.4771 25.3564 19.7274 25.3564 22.4932C25.3564 22.732 25.5668 22.9262 25.8265 22.9262H30.0842C30.3438 22.9262 30.5542 22.732 30.5542 22.4932C30.5542 18.1312 27.4472 14.426 23.1659 13.1568ZM10.2005 16.6111H8.35935V11.3733H10.2005V16.6111ZM19.4437 16.6265C18.6231 16.6821 17.8447 16.8808 17.1387 17.1964L15.4775 14.5458C16.6767 13.9747 18.0203 13.6276 19.4437 13.5646V16.6265ZM20.3839 13.5646C21.8073 13.6276 23.151 13.9747 24.3501 14.5458L22.689 17.1964C21.9829 16.8808 21.2052 16.6821 20.3839 16.6265V13.5646ZM22.2257 6.29472V12.9214C21.6286 12.7988 21.0134 12.7233 20.3839 12.6975V6.29472H22.2257ZM14.3717 8.83367H16.2128V13.3C15.5677 13.5211 14.9513 13.7988 14.3717 14.1259V8.83367ZM13.5479 22.0596H10.2254C10.2933 20.748 10.6707 19.5098 11.2896 18.4049L14.1668 19.9353C13.8243 20.5859 13.6082 21.303 13.5479 22.0596ZM14.6382 19.1856L11.7609 17.6552C12.5112 16.5847 13.5031 15.6712 14.6643 14.9798L16.3255 17.6311C15.663 18.0475 15.0901 18.5756 14.6382 19.1856ZM23.5027 17.6311L25.164 14.9798C26.3252 15.6712 27.3165 16.5847 28.0667 17.6552L25.1895 19.1856C24.7375 18.5756 24.1646 18.0475 23.5027 17.6311ZM26.2797 22.0596C26.2194 21.303 26.0033 20.5859 25.6615 19.9353L28.5382 18.4049C29.1576 19.5098 29.5343 20.748 29.6028 22.0596H26.2797ZM21.8391 20.106L20.5172 21.3248C20.3341 21.244 20.1299 21.1988 19.9138 21.1988C19.1399 21.1988 18.5097 21.7795 18.5097 22.4932C18.5097 23.2063 19.1399 23.787 19.9138 23.787C20.6884 23.787 21.3179 23.2063 21.3179 22.4932C21.3179 22.2944 21.2693 22.106 21.1816 21.9371L22.5041 20.7188C22.6877 20.5493 22.6877 20.2749 22.5041 20.106C22.3203 19.937 22.0227 19.937 21.8391 20.106ZM19.9138 22.9204C19.6579 22.9204 19.45 22.7286 19.45 22.4932C19.45 22.2573 19.6579 22.0653 19.9138 22.0653C20.1697 22.0653 20.3776 22.2573 20.3776 22.4932C20.3776 22.7286 20.1697 22.9204 19.9138 22.9204Z" fill="#00D280"/>
</g>
</g>
</g>
<defs>
<clipPath id="clip0_31_3330">
<rect width="30" height="24.16" fill="white" transform="translate(0.97998 0.169922)"/>
</clipPath>
<clipPath id="clip1_31_3330">
<rect width="30" height="24.1667" fill="white" transform="translate(0.97998 0.166504)"/>
</clipPath>
</defs>
</svg>
