<svg width="31" height="22" viewBox="0 0 31 22" fill="none" xmlns="http://www.w3.org/2000/svg">
<g clip-path="url(#clip0_31_3360)">
<g clip-path="url(#clip1_31_3360)">
<g clip-path="url(#clip2_31_3360)">
<mask id="mask0_31_3360" style="mask-type:luminance" maskUnits="userSpaceOnUse" x="0" y="15" width="13" height="6">
<path d="M0.65918 15.8301H12.1978V20.7363H0.65918V15.8301Z" fill="white"/>
</mask>
<g mask="url(#mask0_31_3360)">
<path fill-rule="evenodd" clip-rule="evenodd" d="M1.30594 20.1303H11.4688V18.2938C11.4688 17.2815 10.5724 16.4574 9.47 16.4574H8.15496C7.65494 16.8266 7.03174 17.0284 6.38771 17.0284C5.74306 17.0284 5.1211 16.8266 4.62107 16.4574H3.30544C2.20305 16.4574 1.30594 17.2815 1.30594 18.2938V20.1303ZM11.7961 20.7317H0.978716C0.797946 20.7317 0.650879 20.5975 0.650879 20.4313V18.2938C0.650879 16.9495 1.84212 15.856 3.30544 15.856H4.73934C4.81961 15.856 4.89621 15.883 4.95626 15.931C5.35211 16.2505 5.86072 16.427 6.38771 16.427C6.91531 16.427 7.42331 16.2511 7.81916 15.931C7.87921 15.8825 7.9552 15.856 8.03547 15.856H9.47C10.9333 15.856 12.1239 16.9495 12.1239 18.2938V20.4313C12.1239 20.5975 11.9775 20.7317 11.7961 20.7317Z" fill="#00D280"/>
</g>
<path fill-rule="evenodd" clip-rule="evenodd" d="M6.38605 10.4437C5.18991 10.4437 4.21805 11.3371 4.21805 12.4346C4.21805 13.5326 5.18991 14.426 6.38605 14.426C7.58159 14.426 8.55406 13.5326 8.55406 12.4346C8.55406 11.3365 7.58159 10.4437 6.38605 10.4437ZM6.38605 15.0275C4.8296 15.0275 3.56299 13.8646 3.56299 12.4346C3.56299 11.0051 4.82899 9.84229 6.38605 9.84229C7.94313 9.84229 9.20915 11.0051 9.20915 12.4346C9.20915 13.8646 7.94313 15.0275 6.38605 15.0275Z" fill="#00D280"/>
<mask id="mask1_31_3360" style="mask-type:luminance" maskUnits="userSpaceOnUse" x="19" y="15" width="12" height="6">
<path d="M19.0991 15.8286H30.6598V20.7348H19.0991V15.8286Z" fill="white"/>
</mask>
<g mask="url(#mask1_31_3360)">
<path fill-rule="evenodd" clip-rule="evenodd" d="M19.8274 20.1274H29.9904V18.2909C29.9904 17.2785 29.0939 16.4544 27.9915 16.4544H26.6764C26.1764 16.8237 25.5533 17.0254 24.9092 17.0254C24.2646 17.0254 23.6426 16.8237 23.1426 16.4544H21.8269C20.7245 16.4544 19.8274 17.2785 19.8274 18.2909V20.1274ZM30.3182 20.7288H19.5002C19.3194 20.7288 19.1724 20.5946 19.1724 20.4284V18.2909C19.1724 16.9465 20.3636 15.853 21.8269 15.853H23.2621C23.3411 15.853 23.4177 15.8801 23.4778 15.9279C23.8736 16.2476 24.3823 16.424 24.9092 16.424C25.4369 16.424 25.9449 16.2481 26.3407 15.9279C26.4007 15.8795 26.4774 15.853 26.557 15.853H27.9915C29.4549 15.853 30.6454 16.9465 30.6454 18.2909V20.4284C30.6454 20.5946 30.4996 20.7288 30.3182 20.7288Z" fill="#00D280"/>
</g>
<path fill-rule="evenodd" clip-rule="evenodd" d="M24.9173 10.4437C23.7224 10.4437 22.7493 11.3371 22.7493 12.4346C22.7493 13.5326 23.7224 14.426 24.9173 14.426C26.1128 14.426 27.0853 13.5326 27.0853 12.4346C27.0853 11.3365 26.1128 10.4437 24.9173 10.4437ZM24.9173 15.0275C23.3608 15.0275 22.0942 13.8646 22.0942 12.4346C22.0942 11.0051 23.3608 9.84229 24.9173 9.84229C26.4744 9.84229 27.7404 11.0051 27.7404 12.4346C27.7404 13.8646 26.4744 15.0275 24.9173 15.0275Z" fill="#00D280"/>
<path fill-rule="evenodd" clip-rule="evenodd" d="M8.68322 1.62537C7.68561 1.62537 6.87369 2.3711 6.87369 3.28762L6.8743 5.25033C6.8743 6.16686 7.68561 6.91203 8.68322 6.91203C8.8646 6.91203 9.0104 7.04675 9.0104 7.21303L9.01107 8.45423L11.225 6.97009C11.2814 6.93232 11.3488 6.91259 11.4181 6.91259L14.1149 6.91203C15.1125 6.91203 15.9244 6.16686 15.9244 5.25033V3.28762C15.9244 2.3711 15.1125 1.62592 14.1149 1.62592L8.68322 1.62537ZM8.68322 9.34713C8.63297 9.34713 8.58211 9.33637 8.53493 9.31437C8.42524 9.26312 8.356 9.15937 8.356 9.04662V7.49374C7.15189 7.34606 6.21924 6.39627 6.21924 5.25033V3.28762C6.21924 2.03966 7.32469 1.02393 8.68322 1.02393H14.1149C15.4741 1.02393 16.5795 2.03966 16.5795 3.28762V5.25033C16.5795 6.4983 15.4741 7.51403 14.1149 7.51403H11.5253L8.87625 9.28904C8.81987 9.32737 8.75124 9.34713 8.68322 9.34713Z" fill="#00D280"/>
<path fill-rule="evenodd" clip-rule="evenodd" d="M13.5231 3.4906H9.28574C9.10499 3.4906 8.9585 3.35644 8.9585 3.19016C8.9585 3.02388 9.10499 2.88916 9.28574 2.88916H13.5231C13.7038 2.88916 13.8503 3.02388 13.8503 3.19016C13.8509 3.35644 13.7038 3.49116 13.5231 3.4906Z" fill="#00D280"/>
<path fill-rule="evenodd" clip-rule="evenodd" d="M13.5231 5.6488H9.28574C9.10499 5.6488 8.9585 5.51408 8.9585 5.3478C8.9585 5.18151 9.10499 5.04736 9.28574 5.04736H13.5231C13.7038 5.04736 13.8503 5.18208 13.8503 5.3478C13.8509 5.51408 13.7038 5.6488 13.5231 5.6488Z" fill="#00D280"/>
<path fill-rule="evenodd" clip-rule="evenodd" d="M21.5967 10.6664C21.5287 10.6664 21.4613 10.6472 21.4037 10.6089L18.7552 8.83329H16.1657C15.1202 8.83329 14.1852 8.22227 13.8389 7.31307C13.7789 7.15637 13.869 6.98445 14.0393 6.92978C14.2102 6.8751 14.3966 6.95796 14.4567 7.11466C14.7115 7.78261 15.3985 8.23185 16.1657 8.23185H18.8625C18.9317 8.23185 18.9992 8.25214 19.0555 8.28991L21.2695 9.77404V8.53229C21.2695 8.36657 21.4159 8.23185 21.5967 8.23185C22.5949 8.23185 23.4068 7.48612 23.4068 6.57015V4.60688C23.4068 3.69092 22.5949 2.94518 21.5967 2.94518H16.1381C15.9573 2.94518 15.8102 2.81047 15.8102 2.64475C15.8102 2.47847 15.9573 2.34375 16.1381 2.34375H21.5967C22.9558 2.34375 24.0619 3.35892 24.0619 4.60745V6.57015C24.0619 7.71609 23.1292 8.66588 21.9246 8.81354V10.3659C21.9246 10.4792 21.8553 10.583 21.7457 10.6342C21.6984 10.6556 21.6476 10.6669 21.5967 10.6664Z" fill="#00D280"/>
</g>
</g>
</g>
<defs>
<clipPath id="clip0_31_3360">
<rect width="30" height="20.83" fill="white" transform="translate(0.660156 0.419922)"/>
</clipPath>
<clipPath id="clip1_31_3360">
<rect width="30" height="20.83" fill="white" transform="translate(0.660156 0.419922)"/>
</clipPath>
<clipPath id="clip2_31_3360">
<rect width="30" height="20.8333" fill="white" transform="translate(0.660156 0.418457)"/>
</clipPath>
</defs>
</svg>
