<svg width="48" height="43" viewBox="0 0 48 43" fill="none" xmlns="http://www.w3.org/2000/svg">
<g clip-path="url(#clip0_31_3166)">
<g clip-path="url(#clip1_31_3166)">
<g clip-path="url(#clip2_31_3166)">
<mask id="mask0_31_3166" style="mask-type:luminance" maskUnits="userSpaceOnUse" x="1" y="0" width="46" height="42">
<path d="M1.21289 0.419922H46.7874V41.9772H1.21289V0.419922Z" fill="white"/>
</mask>
<g mask="url(#mask0_31_3166)">
<path fill-rule="evenodd" clip-rule="evenodd" d="M36.0396 5.67325C35.5306 5.64587 35.1435 5.24688 35.1735 4.78336C35.2034 4.31983 35.6397 3.96386 36.1464 3.99124L41.9246 4.31983C42.4313 4.34525 42.8185 4.74424 42.7885 5.20777C42.7864 5.23906 42.7842 5.2684 42.7778 5.29774L41.8112 10.5178C41.7278 10.9755 41.2552 11.2865 40.7527 11.2082C40.2522 11.132 39.9122 10.6997 39.9957 10.2401L40.5838 7.0658L28.3176 14.9732C28.0075 15.1726 27.582 15.1825 27.2549 14.9712L20.8289 10.7975L12.1168 17.1363C11.7191 17.4258 11.1395 17.3651 10.823 17.0013C10.5066 16.6376 10.5728 16.1075 10.9706 15.8181L20.2236 9.08616C20.5636 8.83777 21.0341 8.84755 21.3613 9.0803L27.7894 13.2541L39.2665 5.85514L36.0396 5.67325ZM16.7272 0.419922C8.15855 0.419922 1.21289 6.77242 1.21289 14.6094C1.21289 22.4463 8.15855 28.7989 16.7272 28.7989C20.23 28.7989 23.4613 27.7369 26.0573 25.9473L29.776 29.3484C29.3377 30.0448 29.4424 30.9542 30.0904 31.5487L40.8575 41.3943C41.6315 42.1023 42.8975 42.1023 43.6717 41.3943L46.0132 39.2508C46.7874 38.5448 46.7874 37.3849 46.0132 36.6789L35.2483 26.8313C34.5982 26.2387 33.6038 26.1429 32.8426 26.5438L29.1239 23.1426C31.0805 20.7683 32.2417 17.813 32.2417 14.6094C32.2417 14.5762 32.2417 14.5429 32.2395 14.5097C30.6443 15.5384 29.0468 16.5691 27.4494 17.5979C26.0509 21.801 21.7804 24.8598 16.7272 24.8598C10.5387 24.8598 5.51971 20.2696 5.51971 14.6094C5.51971 8.94925 10.5387 4.35894 16.7272 4.35894C21.4211 4.35894 25.4393 6.9993 27.1095 10.7427L27.7937 11.1886L31.0292 9.1018C28.679 4.00103 23.1597 0.419922 16.7272 0.419922Z" fill="#00D280"/>
</g>
</g>
</g>
</g>
<defs>
<clipPath id="clip0_31_3166">
<rect width="48" height="42" fill="white" transform="translate(0 0.419922)"/>
</clipPath>
<clipPath id="clip1_31_3166">
<rect width="48" height="42" fill="white" transform="translate(0 0.419922)"/>
</clipPath>
<clipPath id="clip2_31_3166">
<rect width="45.5745" height="42" fill="white" transform="translate(1.21289 0.419922)"/>
</clipPath>
</defs>
</svg>
