<svg width="31" height="31" viewBox="0 0 31 31" fill="none" xmlns="http://www.w3.org/2000/svg">
<g clip-path="url(#clip0_31_3979)">
<g clip-path="url(#clip1_31_3979)">
<g clip-path="url(#clip2_31_3979)">
<mask id="mask0_31_3979" style="mask-type:luminance" maskUnits="userSpaceOnUse" x="0" y="0" width="31" height="31">
<path d="M0.97998 0.839844H30.98V30.8398H0.97998V0.839844Z" fill="white"/>
</mask>
<g mask="url(#mask0_31_3979)">
<path fill-rule="evenodd" clip-rule="evenodd" d="M9.22812 7.49978C9.34021 7.49978 9.45086 7.51084 9.56077 7.53294C9.6707 7.55505 9.77697 7.58749 9.88036 7.63097C9.98369 7.67445 10.082 7.72752 10.1752 7.79016C10.2683 7.85281 10.3542 7.92431 10.4336 8.00464C10.5129 8.08424 10.5835 8.17121 10.6454 8.26555C10.708 8.35989 10.7604 8.45865 10.8033 8.56331C10.8456 8.66796 10.8783 8.77557 10.9002 8.88686C10.922 8.99741 10.9329 9.10945 10.9329 9.22294C10.9329 9.33571 10.922 9.44774 10.9002 9.55903C10.8783 9.67029 10.8463 9.77794 10.8033 9.88258C10.7604 9.98652 10.708 10.086 10.6454 10.1804C10.5835 10.2747 10.5129 10.3617 10.4336 10.4413C10.3542 10.5216 10.2683 10.5931 10.1752 10.6557C10.082 10.7183 9.98369 10.7715 9.88036 10.815C9.77697 10.8584 9.6707 10.8908 9.56077 10.913C9.45086 10.9351 9.34021 10.9461 9.22812 10.9461C9.11602 10.9461 9.00537 10.9351 8.89545 10.913C8.78554 10.8908 8.67926 10.8584 8.57589 10.815C8.47252 10.7715 8.37426 10.7183 8.28108 10.6557C8.18791 10.5931 8.10202 10.5216 8.02267 10.4413C7.94332 10.3617 7.87272 10.2747 7.81085 10.1804C7.74825 10.086 7.69583 9.98723 7.65288 9.88258C7.60994 9.77794 7.57791 9.67029 7.55607 9.55903C7.53423 9.44848 7.52332 9.33571 7.52332 9.22294C7.52332 9.10945 7.53423 8.99741 7.55607 8.88686C7.57791 8.77557 7.60994 8.66796 7.65288 8.56331C7.69583 8.45865 7.74825 8.35989 7.81085 8.26555C7.87272 8.17121 7.94332 8.08424 8.02267 8.00464C8.10202 7.92431 8.18791 7.85281 8.28108 7.79016C8.37426 7.72752 8.47252 7.67445 8.57589 7.63097C8.67926 7.58749 8.78554 7.55505 8.89545 7.53294C9.00537 7.51084 9.11602 7.49978 9.22812 7.49978ZM16.4287 23.5523C16.4287 23.7903 16.4404 24.0277 16.4637 24.2649C16.4863 24.5023 16.5212 24.7381 16.5671 24.9718C16.6129 25.2054 16.6704 25.4361 16.7389 25.6646C16.8073 25.8923 16.8866 26.1164 16.9769 26.3367C17.0671 26.5571 17.1676 26.7723 17.279 26.9824C17.3896 27.1924 17.5112 27.3966 17.6422 27.5948C17.7733 27.7931 17.913 27.984 18.063 28.1683C18.2122 28.3525 18.3709 28.5286 18.5376 28.6974C18.7042 28.8662 18.8782 29.0262 19.0609 29.1773C19.2429 29.3283 19.4322 29.4698 19.628 29.6026C19.8246 29.7352 20.0262 29.8576 20.2343 29.9695C20.4426 30.0823 20.6551 30.184 20.8727 30.2746C21.0904 30.3661 21.3124 30.4464 21.5381 30.5157C21.7637 30.585 21.9923 30.6425 22.2238 30.6889C22.4545 30.7353 22.6875 30.7707 22.9226 30.7936C23.1569 30.8171 23.3921 30.8289 23.628 30.8289C23.8638 30.8289 24.099 30.8171 24.3333 30.7936C24.5685 30.7707 24.8014 30.7353 25.0321 30.6889C25.2636 30.6425 25.4922 30.585 25.7178 30.5157C25.9435 30.4464 26.1648 30.3661 26.3831 30.2746C26.6008 30.184 26.8133 30.0823 27.0216 29.9695C27.2297 29.8576 27.4313 29.7352 27.6279 29.6026C27.8237 29.4698 28.013 29.3283 28.1949 29.1773C28.377 29.0262 28.5517 28.8662 28.7183 28.6974C28.885 28.5286 29.0437 28.3525 29.193 28.1683C29.3422 27.984 29.4826 27.7931 29.6137 27.5948C29.7447 27.3966 29.8656 27.1924 29.9769 26.9824C30.0883 26.7723 30.1888 26.5571 30.279 26.3367C30.3692 26.1164 30.4486 25.8923 30.517 25.6646C30.5855 25.4361 30.6429 25.2054 30.6888 24.9718C30.7347 24.7381 30.7696 24.5023 30.7922 24.2649C30.8155 24.0277 30.8272 23.7903 30.8272 23.5523C30.8272 23.3135 30.8155 23.0761 30.7922 22.8388C30.7696 22.6015 30.7347 22.3657 30.6888 22.132C30.6429 21.8984 30.5855 21.6676 30.517 21.4392C30.4486 21.2115 30.3692 20.9874 30.279 20.767C30.1888 20.5466 30.0883 20.3314 29.9769 20.1214C29.8656 19.9113 29.7447 19.7071 29.6137 19.5089C29.4826 19.3106 29.3422 19.1198 29.193 18.9355C29.0437 18.7513 28.885 18.5751 28.7183 18.4063C28.5517 18.2376 28.377 18.0776 28.1949 17.9266C28.013 17.7754 27.8237 17.6339 27.6279 17.5013C27.4313 17.3686 27.2297 17.2463 27.0216 17.1342C26.8133 17.0214 26.6008 16.9197 26.3831 16.8291C26.1648 16.7377 25.9435 16.6574 25.7178 16.5881C25.4922 16.5188 25.2636 16.4613 25.0321 16.4149C24.8014 16.3684 24.5685 16.333 24.3333 16.3102C24.099 16.2866 23.8638 16.2749 23.628 16.2749C23.3921 16.2749 23.1569 16.2866 22.9226 16.3102C22.6875 16.333 22.4545 16.3684 22.2238 16.4149C21.9923 16.4613 21.7637 16.5188 21.5381 16.5881C21.3124 16.6574 21.0904 16.7377 20.8727 16.8291C20.6551 16.9197 20.4426 17.0214 20.2343 17.1342C20.0262 17.2463 19.8246 17.3686 19.628 17.5013C19.4322 17.6339 19.2429 17.7754 19.0609 17.9266C18.8782 18.0776 18.7042 18.2376 18.5376 18.4063C18.3709 18.5751 18.2122 18.7513 18.063 18.9355C17.913 19.1198 17.7733 19.3106 17.6422 19.5089C17.5112 19.7071 17.3896 19.9113 17.279 20.1214C17.1676 20.3314 17.0671 20.5466 16.9769 20.767C16.8866 20.9874 16.8073 21.2115 16.7389 21.4392C16.6704 21.6676 16.6129 21.8984 16.5671 22.132C16.5212 22.3657 16.4863 22.6015 16.4637 22.8388C16.4404 23.0761 16.4287 23.3135 16.4287 23.5523ZM25.6356 27.8801C24.7627 28.427 23.8289 28.2574 22.3832 28.0046H20.88C20.7891 28.0046 20.7017 27.987 20.618 27.9516C20.5342 27.9162 20.46 27.8661 20.396 27.8012C20.3311 27.7364 20.2816 27.6619 20.2475 27.5772C20.2125 27.4917 20.1951 27.404 20.1951 27.3118C20.1951 27.2197 20.2125 27.132 20.2475 27.0473C20.2816 26.9618 20.3311 26.8873 20.396 26.8224C20.46 26.7576 20.5342 26.7075 20.618 26.6721C20.7017 26.6367 20.7891 26.6198 20.88 26.6198H20.4717C20.3806 26.6198 20.2933 26.6021 20.2096 26.5667C20.1252 26.5313 20.0517 26.4812 19.9868 26.4164C19.9228 26.3515 19.8733 26.2771 19.8383 26.1923C19.8042 26.1076 19.7867 26.0191 19.7867 25.9269C19.7867 25.8355 19.8042 25.7471 19.8383 25.6624C19.8733 25.5769 19.9228 25.5024 19.9868 25.4376C20.0517 25.3727 20.1252 25.3226 20.2096 25.2872C20.2933 25.2518 20.3806 25.2349 20.4717 25.2349H19.9912C19.9003 25.2349 19.8129 25.2172 19.7292 25.1818C19.6447 25.1464 19.5704 25.0971 19.5064 25.0314C19.4423 24.9666 19.3928 24.8922 19.3579 24.8074C19.323 24.7226 19.3063 24.6342 19.3063 24.5421C19.3063 24.4507 19.323 24.3623 19.3579 24.2775C19.3928 24.1928 19.4423 24.1176 19.5064 24.0527C19.5704 23.9879 19.6447 23.9378 19.7292 23.9024C19.8129 23.8677 19.9003 23.8501 19.9912 23.8501H20.2795C20.1885 23.8501 20.1011 23.8323 20.0175 23.7969C19.9337 23.7616 19.8595 23.7122 19.7955 23.6473C19.7306 23.5817 19.6811 23.5073 19.6469 23.4226C19.612 23.3378 19.5945 23.2493 19.5945 23.1572C19.5945 23.0658 19.612 22.9774 19.6469 22.8926C19.6811 22.8078 19.7306 22.7326 19.7955 22.6678C19.8595 22.6029 19.9337 22.5528 20.0175 22.5174C20.1011 22.4828 20.1885 22.4651 20.2795 22.4651H22.8316C22.6532 22.2499 22.5389 22.0045 22.488 21.7289V20.6034C22.488 20.4892 22.4997 20.3757 22.5222 20.2636C22.5441 20.1516 22.5768 20.0425 22.6205 19.9372C22.6642 19.8317 22.7173 19.7315 22.7799 19.6364C22.8433 19.5413 22.9146 19.4536 22.9947 19.3726C23.074 19.2915 23.1614 19.2193 23.2552 19.1558C23.3491 19.0925 23.4481 19.0387 23.553 18.9952C23.6571 18.951 23.7648 18.9178 23.8755 18.8949C23.9868 18.8729 24.099 18.8611 24.2117 18.8611V20.3138C24.2117 21.2926 24.9164 21.8372 25.6363 22.3516L25.6356 27.8801ZM26.6146 22.7062H27.5827C27.6315 22.7062 27.6781 22.7157 27.7232 22.7341C27.7684 22.7533 27.8077 22.7798 27.8419 22.8145C27.8768 22.8499 27.903 22.8897 27.922 22.9353C27.9402 22.9803 27.9496 23.0275 27.9496 23.0768V27.1202C27.9496 27.1696 27.9402 27.2168 27.922 27.2617C27.903 27.3074 27.8768 27.3472 27.8419 27.3826C27.8077 27.4172 27.7684 27.4438 27.7232 27.4629C27.6781 27.4814 27.6315 27.4909 27.5827 27.4909H26.6146V22.7062ZM3.83055 22.8594C3.21545 21.7922 2.74957 20.6631 2.4322 19.4706C2.1141 18.2781 1.95687 17.0642 1.95905 15.8296C1.95905 8.10709 8.15224 1.84676 15.7919 1.84676C16.5372 1.84529 17.2775 1.90426 18.0135 2.02439C18.7494 2.14453 19.47 2.32436 20.1776 2.56316C20.8844 2.80122 21.5672 3.09604 22.2267 3.44686C22.8862 3.79842 23.5137 4.20084 24.1084 4.65411L22.7501 4.70423C22.686 4.70644 22.6241 4.72118 22.5652 4.74771C22.5062 4.77499 22.4545 4.81257 22.4108 4.86048C22.3665 4.90839 22.3329 4.96293 22.3104 5.0241C22.2878 5.08527 22.2776 5.14865 22.2798 5.21425C22.282 5.27911 22.2966 5.34176 22.3235 5.40146C22.3504 5.46041 22.3875 5.51275 22.4348 5.55697C22.4822 5.60193 22.536 5.63584 22.5965 5.65868C22.6576 5.68152 22.7202 5.69185 22.785 5.6889L25.391 5.59456C25.4295 5.59603 25.4674 5.59309 25.5052 5.58498C25.5431 5.57687 25.5795 5.56508 25.6145 5.54886C25.6494 5.53191 25.6815 5.51201 25.712 5.48769C25.7418 5.46337 25.7688 5.4361 25.7928 5.40514C25.8168 5.37492 25.8365 5.34176 25.8525 5.30638C25.8685 5.271 25.8802 5.23415 25.8874 5.19582C25.8954 5.1575 25.8983 5.11917 25.8961 5.08011C25.8947 5.04105 25.8889 5.00272 25.878 4.96513L25.1537 2.39659C25.1355 2.33395 25.1063 2.27719 25.0656 2.22708C25.0256 2.17622 24.9768 2.13495 24.9208 2.10326C24.864 2.0723 24.8035 2.0524 24.7395 2.04503C24.6762 2.03766 24.6128 2.04281 24.551 2.06125C24.489 2.07893 24.4323 2.10768 24.3821 2.14821C24.3311 2.18875 24.2903 2.23739 24.2583 2.29414C24.227 2.3509 24.2074 2.41133 24.1994 2.47619C24.1913 2.54031 24.1965 2.60443 24.2132 2.66708L24.5131 3.7284C23.8842 3.26407 23.2225 2.85281 22.5295 2.49461C21.8358 2.13568 21.1188 1.83498 20.3785 1.59102C19.6382 1.34706 18.8834 1.16354 18.1139 1.04046C17.3445 0.917376 16.5707 0.856203 15.7919 0.85694C7.61139 0.85694 0.97999 7.56095 0.97999 15.8296C0.978534 17.1511 1.14814 18.4506 1.48808 19.7264C1.82802 21.0029 2.32738 22.2123 2.98543 23.354C3.01818 23.4115 3.05968 23.4601 3.11136 23.5006C3.16231 23.5404 3.21982 23.5692 3.28242 23.5861C3.34502 23.6039 3.40908 23.6083 3.47314 23.5995C3.53792 23.5906 3.59834 23.5699 3.65439 23.5368C3.71116 23.5043 3.75848 23.4616 3.79779 23.4092C3.83782 23.3569 3.86549 23.2987 3.88223 23.2353C3.89824 23.172 3.90261 23.1071 3.89315 23.0423C3.88441 22.9774 3.86331 22.9162 3.83055 22.8594ZM7.37045 28.9915C7.38865 29.0549 7.39447 29.119 7.3872 29.1846C7.38064 29.2502 7.36099 29.3114 7.32968 29.3696C7.29839 29.4271 7.25689 29.4765 7.20594 29.5178C7.15499 29.5583 7.09821 29.5878 7.0356 29.6062C6.97228 29.6239 6.90894 29.629 6.84416 29.6217C6.77938 29.6136 6.71823 29.5936 6.66145 29.5613C6.60467 29.5288 6.55663 29.4868 6.51659 29.4352C6.47583 29.3828 6.44744 29.3254 6.42997 29.262L5.70495 26.6934C5.69476 26.6558 5.68894 26.6176 5.68748 26.5785C5.6853 26.5402 5.68822 26.5011 5.69622 26.4628C5.7035 26.4252 5.71515 26.3883 5.73116 26.3529C5.74717 26.3176 5.76683 26.2844 5.79085 26.2535C5.81487 26.2232 5.84181 26.1953 5.87165 26.1709C5.90222 26.1473 5.93425 26.1267 5.96919 26.1105C6.00413 26.0935 6.04053 26.0817 6.07838 26.0736C6.11624 26.0663 6.15409 26.0626 6.19267 26.0641L8.79864 25.9697C8.86342 25.9675 8.92603 25.9778 8.98717 26.0007C9.04759 26.0235 9.10146 26.0566 9.14877 26.1016C9.19609 26.1458 9.23321 26.1982 9.26015 26.2579C9.28708 26.3168 9.30164 26.3795 9.30382 26.4451C9.306 26.5099 9.29581 26.5733 9.27325 26.6352C9.25068 26.6964 9.2172 26.751 9.17352 26.7989C9.12912 26.8468 9.07743 26.8836 9.01847 26.9108C8.95951 26.9382 8.89763 26.9529 8.83358 26.9551L7.47454 27.0045C8.06999 27.4585 8.69673 27.8609 9.35623 28.2117C10.0157 28.5626 10.6993 28.8574 11.406 29.0962C12.1129 29.3349 12.8342 29.5141 13.5702 29.6342C14.3062 29.7543 15.0465 29.8141 15.7919 29.8126C16.5591 29.8126 17.3212 29.7492 18.0775 29.6224C18.3942 29.918 18.7312 30.187 19.0893 30.4287C18.5747 30.5467 18.0556 30.6373 17.5316 30.6992C17.0082 30.7611 16.4819 30.7951 15.9548 30.801C15.4271 30.8061 14.9009 30.7832 14.376 30.7324C13.8504 30.6808 13.33 30.6012 12.8131 30.4943C12.2963 30.3867 11.7868 30.2519 11.2845 30.0897C10.7815 29.9275 10.2894 29.7382 9.80678 29.5229C9.3242 29.3077 8.85397 29.0667 8.39683 28.8007C7.93969 28.5346 7.49783 28.2449 7.07127 27.9309L7.37045 28.9915ZM29.49 17.7894C29.5802 17.1394 29.6253 16.4856 29.6253 15.8296C29.6268 14.5944 29.4696 13.3813 29.1522 12.1888C28.8348 10.997 28.3682 9.86714 27.7538 8.79989C27.7211 8.74314 27.7007 8.68271 27.692 8.61784C27.6832 8.55299 27.6869 8.48887 27.7036 8.42548C27.7203 8.36209 27.7487 8.30461 27.7881 8.25229C27.8273 8.20069 27.8746 8.15794 27.9307 8.12478C27.9868 8.09235 28.0472 8.07171 28.1113 8.06286C28.1753 8.05402 28.2394 8.05844 28.302 8.07539C28.3645 8.09235 28.4213 8.12109 28.473 8.16089C28.524 8.20069 28.5662 8.2486 28.5982 8.30535C29.0488 9.09102 29.4266 9.91055 29.7301 10.7648C30.0337 11.6191 30.2587 12.4939 30.405 13.3901C30.5512 14.2856 30.6167 15.187 30.6014 16.0943C30.5862 17.0023 30.4908 17.9015 30.314 18.7911C30.0657 18.4358 29.7899 18.102 29.49 17.7894ZM15.9491 17.8388L16.543 19.4212C16.1958 20.0285 15.9294 20.6697 15.7453 21.3463C15.5603 22.0222 15.462 22.7113 15.4519 23.4129L13.8075 24.5008C13.7784 24.5199 13.7464 24.5296 13.7122 24.5288C13.6772 24.5281 13.6459 24.517 13.6175 24.4964C13.5899 24.4757 13.5695 24.4485 13.5578 24.4153C13.5469 24.3829 13.5455 24.349 13.5549 24.3151L14.1481 22.1077C14.1577 22.0753 14.1569 22.0435 14.1467 22.0111C14.1358 21.9795 14.1176 21.9529 14.0914 21.9316L12.3277 20.4987C12.3007 20.4766 12.2825 20.4486 12.2723 20.4147C12.2621 20.3815 12.2628 20.3476 12.2737 20.3145C12.284 20.2813 12.3036 20.2533 12.3313 20.232C12.3589 20.2105 12.3895 20.1995 12.4245 20.198L14.6847 20.0867C14.7181 20.0852 14.748 20.075 14.7757 20.0551C14.8026 20.0351 14.8215 20.0093 14.8332 19.9777L15.636 17.8388C15.6484 17.8064 15.6696 17.7798 15.6979 17.7607C15.7263 17.7408 15.7583 17.7305 15.7926 17.7305C15.8275 17.7305 15.8588 17.7408 15.8872 17.7607C15.9163 17.7798 15.9367 17.8064 15.9491 17.8388ZM8.83795 16.4009L9.48361 18.1196C9.504 18.1763 9.5433 18.2051 9.60299 18.2073L11.4199 18.2972C11.4817 18.3002 11.5218 18.3311 11.5415 18.3908C11.5604 18.4506 11.5458 18.4992 11.4978 18.539L10.0798 19.691C10.0332 19.7278 10.0179 19.775 10.0339 19.8324L10.5114 21.6072C10.5275 21.6669 10.51 21.7156 10.4605 21.7524C10.4103 21.7893 10.3593 21.7907 10.3076 21.7561L8.78554 20.7494C8.73604 20.7154 8.68726 20.7154 8.63777 20.7494L7.11568 21.7561C7.06399 21.79 7.01377 21.7885 6.96354 21.7517C6.91404 21.7156 6.89729 21.6669 6.91259 21.6072L7.39011 19.8332C7.40612 19.775 7.39083 19.7278 7.34424 19.691L5.92625 18.539C5.8782 18.4992 5.86365 18.4498 5.88257 18.3908C5.9015 18.3311 5.94226 18.3002 6.00413 18.2972L7.82104 18.2073C7.88 18.2051 7.92003 18.1756 7.94041 18.1196L8.58608 16.4009C8.60792 16.3419 8.65014 16.3132 8.71201 16.3132C8.77389 16.3132 8.81538 16.3419 8.83795 16.4009ZM6.31277 14.6055C6.25599 14.6055 6.20286 14.5929 6.1519 14.5686C6.10094 14.5435 6.058 14.5081 6.02378 14.4632C5.98884 14.4182 5.96555 14.3681 5.95391 14.3122C5.94226 14.2561 5.94299 14.2008 5.95682 14.1448C6.03252 13.8383 6.14827 13.5478 6.30404 13.2736C6.45982 13.0002 6.6498 12.7526 6.874 12.5322C7.09821 12.3111 7.34715 12.1261 7.62232 11.975C7.89747 11.8246 8.18791 11.7149 8.49291 11.6463C8.79791 11.5771 9.10655 11.552 9.41883 11.5696C9.73111 11.5881 10.0354 11.6485 10.3309 11.7517C10.6265 11.8556 10.9023 11.9978 11.1585 12.1785C11.4148 12.3597 11.6419 12.5727 11.8399 12.8175C11.4315 13.354 11.1433 13.9502 10.9751 14.6055H6.31277ZM20.61 14.6055C20.4418 13.9502 20.1535 13.354 19.7452 12.8175C19.9432 12.5727 20.1703 12.3597 20.4265 12.1785C20.6827 11.9978 20.9594 11.8556 21.2549 11.7517C21.5497 11.6485 21.854 11.5881 22.1662 11.5696C22.4785 11.552 22.7872 11.5771 23.0922 11.6463C23.3979 11.7149 23.6876 11.8246 23.9628 11.975C24.2379 12.1261 24.4876 12.3111 24.7111 12.5322C24.9353 12.7526 25.1253 13.0002 25.281 13.2736C25.4369 13.5478 25.5525 13.8383 25.629 14.1448C25.6421 14.2008 25.6436 14.2561 25.632 14.3122C25.6195 14.3681 25.597 14.4182 25.5621 14.4632C25.5271 14.5081 25.4842 14.5435 25.4332 14.5686C25.383 14.5929 25.3291 14.6055 25.2723 14.6055H20.61ZM15.7926 7.12758C15.9258 7.12758 16.0567 7.14084 16.1871 7.16664C16.3174 7.19317 16.444 7.2315 16.5663 7.28309C16.6894 7.33468 16.8059 7.39733 16.9157 7.47176C17.0264 7.54621 17.1283 7.63097 17.2222 7.72604C17.3161 7.82112 17.4006 7.92431 17.4741 8.0356C17.5476 8.14762 17.6102 8.26555 17.6611 8.38937C17.7113 8.51319 17.75 8.6407 17.7762 8.77263C17.8016 8.90456 17.8147 9.03722 17.8147 9.17135C17.8147 9.3055 17.8016 9.4389 17.7762 9.57009C17.75 9.70205 17.7113 9.82955 17.6611 9.95335C17.6102 10.0779 17.5476 10.1951 17.4741 10.3071C17.4006 10.4184 17.3161 10.5216 17.2222 10.6167C17.1283 10.7117 17.0264 10.7965 16.9157 10.8709C16.8059 10.9454 16.6894 11.0087 16.5663 11.0596C16.444 11.1112 16.3174 11.1496 16.1871 11.1761C16.0567 11.2026 15.9258 11.2151 15.7926 11.2151C15.66 11.2151 15.5283 11.2026 15.398 11.1761C15.2677 11.1496 15.1417 11.1112 15.0187 11.0596C14.8965 11.0087 14.78 10.9454 14.6693 10.8709C14.5587 10.7965 14.4568 10.7117 14.3629 10.6167C14.269 10.5216 14.1853 10.4184 14.1111 10.3071C14.0375 10.1951 13.9756 10.0779 13.9247 9.95335C13.8737 9.82955 13.8352 9.70205 13.8097 9.57009C13.7835 9.4389 13.7704 9.3055 13.7704 9.17135C13.7704 9.03722 13.7835 8.90456 13.8097 8.77263C13.8352 8.6407 13.8737 8.51319 13.9247 8.38937C13.9756 8.26555 14.0375 8.14762 14.1111 8.0356C14.1853 7.92431 14.269 7.82112 14.3629 7.72604C14.4568 7.63097 14.5587 7.54621 14.6693 7.47176C14.78 7.39733 14.8965 7.33468 15.0187 7.28309C15.1417 7.2315 15.2677 7.19317 15.398 7.16664C15.5283 7.14084 15.66 7.12758 15.7926 7.12758ZM22.357 7.49978C22.4691 7.49978 22.5797 7.51084 22.6897 7.53294C22.7996 7.55505 22.9065 7.58749 23.01 7.63097C23.1133 7.67445 23.2116 7.72752 23.3047 7.79016C23.3972 7.85281 23.4838 7.92431 23.5624 8.00464C23.6418 8.08424 23.7124 8.17121 23.775 8.26555C23.8369 8.35989 23.8893 8.45865 23.9322 8.56331C23.9752 8.66796 24.0072 8.77557 24.0291 8.88686C24.0509 8.99741 24.0618 9.10945 24.0618 9.22294C24.0618 9.33571 24.0509 9.44848 24.0291 9.55903C24.0072 9.67029 23.9752 9.77794 23.9322 9.88258C23.8893 9.98723 23.8369 10.086 23.775 10.1804C23.7124 10.2747 23.6418 10.3617 23.5624 10.4413C23.4838 10.5216 23.3972 10.5931 23.3047 10.6557C23.2116 10.7183 23.1133 10.7715 23.01 10.815C22.9065 10.8584 22.7996 10.8908 22.6897 10.913C22.5797 10.9351 22.4691 10.9461 22.357 10.9461C22.2456 10.9461 22.1342 10.9351 22.0251 10.913C21.9151 10.8908 21.8081 10.8584 21.7048 10.815C21.6014 10.7715 21.5032 10.7183 21.41 10.6557C21.3168 10.5931 21.2309 10.5216 21.1515 10.4413C21.0729 10.3617 21.0023 10.2747 20.9397 10.1804C20.8778 10.086 20.8254 9.98723 20.7825 9.88258C20.7396 9.77794 20.7067 9.67029 20.685 9.55903C20.6631 9.44848 20.6522 9.33571 20.6522 9.22294C20.6522 9.10945 20.6631 8.99741 20.685 8.88686C20.7067 8.77557 20.7396 8.66796 20.7825 8.56331C20.8254 8.45865 20.8778 8.35989 20.9397 8.26555C21.0023 8.17121 21.0729 8.08424 21.1515 8.00464C21.2309 7.92431 21.3168 7.85281 21.41 7.79016C21.5032 7.72752 21.6014 7.67445 21.7048 7.63097C21.8081 7.58749 21.9151 7.55505 22.0251 7.53294C22.1342 7.51084 22.2456 7.49978 22.357 7.49978ZM12.2482 15.4412C12.1922 15.4412 12.1398 15.4295 12.0896 15.4051C12.0394 15.3801 11.9964 15.3462 11.9615 15.302C11.9272 15.2585 11.9032 15.2091 11.8909 15.1538C11.8777 15.0993 11.8777 15.044 11.8901 14.9895C11.9396 14.7668 12.0074 14.5502 12.0925 14.3394C12.1784 14.1286 12.2811 13.9267 12.4005 13.7335C12.5198 13.5405 12.6545 13.3584 12.8044 13.1881C12.9544 13.0179 13.1175 12.8617 13.2936 12.7194C13.4698 12.5764 13.6561 12.4504 13.8533 12.3398C14.0506 12.2293 14.2559 12.1364 14.4684 12.0612C14.681 11.9853 14.8987 11.9286 15.1207 11.8903C15.3435 11.8519 15.5669 11.8328 15.7926 11.8328C16.0182 11.8328 16.2417 11.8519 16.4644 11.8903C16.6865 11.9286 16.9041 11.9853 17.1166 12.0612C17.3299 12.1364 17.5345 12.2293 17.7317 12.3398C17.929 12.4504 18.1154 12.5764 18.2915 12.7194C18.4677 12.8617 18.6307 13.0179 18.7807 13.1881C18.9307 13.3584 19.0653 13.5405 19.1847 13.7335C19.3041 13.9267 19.4067 14.1286 19.4926 14.3394C19.5785 14.5502 19.6455 14.7668 19.695 14.9895C19.7073 15.044 19.7073 15.0993 19.695 15.1538C19.6819 15.2091 19.6586 15.2585 19.6237 15.302C19.5887 15.3462 19.5465 15.3801 19.4962 15.4044C19.446 15.4295 19.3928 15.4412 19.3368 15.4412H12.2482Z" fill="#00D280"/>
</g>
</g>
</g>
</g>
<defs>
<clipPath id="clip0_31_3979">
<rect width="30" height="30" fill="white" transform="translate(0.97998 0.839844)"/>
</clipPath>
<clipPath id="clip1_31_3979">
<rect width="30" height="30" fill="white" transform="translate(0.97998 0.839844)"/>
</clipPath>
<clipPath id="clip2_31_3979">
<rect width="30" height="30" fill="white" transform="translate(0.97998 0.839844)"/>
</clipPath>
</defs>
</svg>
