<svg width="31" height="34" viewBox="0 0 31 34" fill="none" xmlns="http://www.w3.org/2000/svg">
<g clip-path="url(#clip0_31_3905)">
<g clip-path="url(#clip1_31_3905)">
<mask id="mask0_31_3905" style="mask-type:luminance" maskUnits="userSpaceOnUse" x="0" y="1" width="31" height="33">
<path d="M0.659912 1.22656H30.6599V33.2516H0.659912V1.22656Z" fill="white"/>
</mask>
<g mask="url(#mask0_31_3905)">
<path d="M16.4666 31.8698C16.8231 31.8698 17.1127 32.1689 17.1127 32.5389C17.1127 32.8774 16.8692 33.1572 16.5541 33.2017L16.4666 33.208H14.7435C14.3864 33.208 14.0974 32.9082 14.0974 32.5389C14.0974 32.1996 14.3402 31.92 14.656 31.8754L14.7435 31.8698H16.4666ZM18.1892 30.0852C18.5462 30.0852 18.8359 30.385 18.8359 30.7542C18.8359 31.0929 18.5924 31.3732 18.2773 31.4177L18.1892 31.4233H13.0202C12.6632 31.4233 12.3742 31.1242 12.3742 30.7542C12.3742 30.4157 12.6171 30.136 12.9328 30.0915L13.0202 30.0852H18.1892ZM19.0509 28.3012C19.4079 28.3012 19.6969 28.6009 19.6969 28.9703C19.6969 29.3089 19.454 29.5892 19.1389 29.6331L19.0509 29.6394H12.1586C11.8022 29.6394 11.5126 29.3396 11.5126 28.9703C11.5126 28.6316 11.7555 28.3514 12.0712 28.3075L12.1586 28.3012H19.0509ZM15.605 7.78394C20.244 7.78394 24.0049 11.6779 24.0049 16.4812C24.0049 18.5323 22.8239 20.749 20.5118 23.1588C20.0339 23.656 19.7485 24.315 19.7035 25.0105L19.6974 25.2011V26.7405C19.6969 27.318 19.273 27.7921 18.7302 27.8497L18.6204 27.8554H12.5897C12.0317 27.8554 11.5733 27.4165 11.518 26.854L11.5126 26.7405V25.2023C11.5126 24.4367 11.2199 23.7018 10.6983 23.1588C8.38616 20.749 7.20518 18.5323 7.20518 16.4812C7.20518 11.6779 10.9655 7.78394 15.605 7.78394ZM7.8743 23.7381C8.10565 23.9777 8.12507 24.3533 7.93259 24.6154L7.8743 24.6844L6.04727 26.5762C5.79468 26.8376 5.38544 26.8376 5.13346 26.5762C4.90211 26.3373 4.88268 25.961 5.07516 25.699L5.13346 25.6306L6.96048 23.7381C7.21307 23.4767 7.62232 23.4767 7.8743 23.7381ZM24.2563 23.6779L24.3225 23.7381L26.1501 25.6306C26.4027 25.8914 26.4027 26.3153 26.1501 26.5762C25.9187 26.8158 25.5556 26.8358 25.3024 26.6364L25.2362 26.5762L23.4086 24.6844C23.1566 24.4229 23.1566 23.999 23.4086 23.7381C23.64 23.4986 24.0031 23.4785 24.2563 23.6779ZM15.605 9.12208C11.6796 9.12208 8.49728 12.4166 8.49728 16.4812C8.49728 18.1129 9.52038 20.0329 11.6152 22.2156C12.3262 22.9562 12.7464 23.9413 12.7992 24.9791L12.8047 25.2023L12.8041 26.5173H18.4048L18.4054 25.2011C18.4054 24.2316 18.7266 23.2961 19.3082 22.5474L19.4473 22.3774L19.5949 22.2156C21.6897 20.0329 22.7122 18.1121 22.7122 16.4812C22.7122 12.4166 19.5305 9.12208 15.605 9.12208ZM4.01137 15.0265C4.36779 15.0265 4.65742 15.3262 4.65742 15.6955C4.65742 16.0341 4.41393 16.3144 4.0988 16.3583L4.01137 16.3646H1.42657C1.06954 16.3646 0.780518 16.0648 0.780518 15.6955C0.780518 15.3569 1.02339 15.0766 1.33913 15.0327L1.42657 15.0265H4.01137ZM29.8569 15.0265C30.214 15.0265 30.503 15.3262 30.503 15.6955C30.503 16.0341 30.2602 16.3144 29.9444 16.3583L29.8569 16.3646H27.2722C26.9152 16.3646 26.6261 16.0648 26.6261 15.6955C26.6261 15.3569 26.869 15.0766 27.1847 15.0327L27.2722 15.0265H29.8569ZM16.4666 10.4602C19.202 10.4602 21.4201 12.7565 21.4201 15.5895C21.4201 15.9589 21.1311 16.2586 20.774 16.2586C20.417 16.2586 20.1279 15.9589 20.1279 15.5895C20.1279 13.4958 18.4885 11.7984 16.4666 11.7984C16.1096 11.7984 15.8199 11.4986 15.8199 11.1293C15.8199 10.7593 16.1096 10.4602 16.4666 10.4602ZM5.98109 4.75463L6.04727 4.8142L7.8743 6.70665C8.12689 6.96814 8.12689 7.3914 7.8743 7.65289C7.64297 7.89242 7.28047 7.91248 7.02667 7.71308L6.96048 7.65289L5.13346 5.76043C4.88087 5.49958 4.88087 5.07568 5.13346 4.8142C5.36479 4.57467 5.72728 4.55523 5.98109 4.75463ZM26.1501 4.8142C26.3814 5.05373 26.4009 5.42997 26.2078 5.69208L26.1501 5.76043L24.3225 7.65289C24.0705 7.91436 23.6612 7.91436 23.4086 7.65289C23.1773 7.41335 23.1585 7.03774 23.3509 6.77563L23.4086 6.70665L25.2362 4.8142C25.4889 4.55334 25.8981 4.55334 26.1501 4.8142ZM15.6414 1.19922C15.9687 1.19922 16.239 1.4513 16.282 1.778L16.2881 1.86829V4.54456C16.2881 4.91391 15.9985 5.21363 15.6414 5.21363C15.3148 5.21363 15.044 4.96219 15.0015 4.63549L14.9954 4.54456V1.86829C14.9954 1.49895 15.2851 1.19922 15.6414 1.19922Z" fill="#00D280"/>
</g>
</g>
</g>
<defs>
<clipPath id="clip0_31_3905">
<rect width="30" height="33.52" fill="white" transform="translate(0.659912 0.47998)"/>
</clipPath>
<clipPath id="clip1_31_3905">
<rect width="30" height="33.5294" fill="white" transform="translate(0.659912 0.475098)"/>
</clipPath>
</defs>
</svg>
