<svg width="31" height="33" viewBox="0 0 31 33" fill="none" xmlns="http://www.w3.org/2000/svg">
<g clip-path="url(#clip0_31_3916)">
<g clip-path="url(#clip1_31_3916)">
<g clip-path="url(#clip2_31_3916)">
<mask id="mask0_31_3916" style="mask-type:luminance" maskUnits="userSpaceOnUse" x="0" y="1" width="29" height="31">
<path d="M0.97998 1.00391H28.6454V31.4945H0.97998V1.00391Z" fill="white"/>
</mask>
<g mask="url(#mask0_31_3916)">
<path d="M20.5562 24.7681C19.9739 24.7681 19.4059 24.6465 18.8679 24.4063C18.5493 24.2633 18.2501 24.0831 17.972 23.8663C17.0013 24.36 15.9208 24.6355 14.7811 24.6355C10.5696 24.6355 7.15496 20.8684 7.15496 16.2216C7.15496 11.5755 10.5696 7.80836 14.7811 7.80836C18.7064 7.80836 21.9378 11.0784 22.3605 15.2839C22.8705 15.5311 23.3306 15.8777 23.729 16.3169C24.3375 16.9887 24.7565 17.8331 24.9398 18.7569C25.0856 19.4923 25.0769 20.2518 24.9186 20.9781L25.2945 21.3924L27.9785 21.4421C28.2996 20.122 28.2559 20.3008 28.5764 18.9813L25.9479 17.3698C25.9479 16.3397 25.9479 16.1042 25.9479 15.074L28.5764 13.4625C28.2559 12.1424 28.2996 12.3219 27.9785 11.0017L24.9722 11.057C24.5052 10.1649 24.398 9.96052 23.931 9.06776L25.4778 6.22376C24.6018 5.25781 24.7209 5.38831 23.845 4.42236L21.2657 6.12848C20.4577 5.6134 20.2725 5.49533 19.4633 4.98025L19.5132 1.66329C18.3161 1.30909 18.4789 1.35742 17.2824 1.00391L15.8223 3.90383C14.8884 3.90383 14.6745 3.90383 13.7406 3.90383L12.2804 1.00391C11.084 1.35742 11.2461 1.30909 10.0497 1.66329L10.0996 4.98025C9.29093 5.49533 9.10576 5.6134 8.29651 6.12848L5.71789 4.42236C4.84193 5.38831 4.96039 5.25781 4.08505 6.22376L5.63123 9.06845C5.16426 9.96052 5.05765 10.1649 4.59068 11.0577L1.58374 11.0024C1.26266 12.3226 1.30692 12.1437 0.98584 13.4639L3.61496 15.0747C3.61496 16.1049 3.61496 16.341 3.61496 17.3712L0.98584 18.982C1.30692 20.3022 1.26266 20.1227 1.58374 21.4428L4.59068 21.3883C5.05765 22.2797 5.16426 22.484 5.63123 23.3768L4.08505 26.2222C4.96039 27.1881 4.84193 27.0569 5.71789 28.0236L8.29651 26.3168C9.10514 26.8318 9.29031 26.9499 10.0996 27.465L10.0497 30.7826C11.2461 31.1362 11.084 31.0878 12.2804 31.442L13.7406 28.5421C14.6745 28.5421 14.8884 28.5421 15.8223 28.5421L17.2824 31.442C18.4789 31.0878 18.3161 31.1362 19.5132 30.7826L19.4633 27.465C20.2719 26.9499 20.4565 26.8318 21.2657 26.3168L23.845 28.0236C24.0189 27.8309 24.1536 27.6832 24.2646 27.5603L21.6092 24.6314C21.2651 24.7225 20.9128 24.7681 20.5562 24.7681Z" fill="#00D280"/>
</g>
<path d="M30.5 28.2289L24.1295 21.2014C24.5958 19.7335 24.2972 18.0364 23.2342 16.864C22.1045 15.6177 20.4405 15.3242 19.0576 15.9809L21.4804 18.6536L19.5015 20.8362L17.0794 18.1641C16.484 19.6886 16.7508 21.5252 17.8793 22.7708C18.9429 23.9439 20.481 24.2733 21.8108 23.7589L28.1813 30.787C28.8216 31.4934 29.8597 31.4934 30.5 30.787C31.1403 30.0807 31.1403 28.9352 30.5 28.2289Z" fill="#00D280"/>
<path d="M10.033 19.6163V14.54H11.0798V13.0811H10.033V11.6719H9.26114V13.0811H8.21436V14.54H9.26114V19.6163H10.033Z" fill="#00D280"/>
<path d="M12.6619 19.6163V18.419H13.7087V16.9601H12.6619V11.6719H11.8907V16.9601H10.8433V18.419H11.8907V19.6163H12.6619Z" fill="#00D280"/>
<path d="M15.3025 19.6163V15.5129H16.3487V14.0533H15.3025V11.6719H14.5313V14.0533H13.4839V15.5129H14.5313V19.6163H15.3025Z" fill="#00D280"/>
</g>
</g>
</g>
<defs>
<clipPath id="clip0_31_3916">
<rect width="30" height="32" fill="white" transform="translate(0.97998 0.25)"/>
</clipPath>
<clipPath id="clip1_31_3916">
<rect width="30" height="32" fill="white" transform="translate(0.97998 0.25)"/>
</clipPath>
<clipPath id="clip2_31_3916">
<rect width="30" height="32" fill="white" transform="translate(0.97998 0.25)"/>
</clipPath>
</defs>
</svg>
