<svg width="48" height="43" viewBox="0 0 48 43" fill="none" xmlns="http://www.w3.org/2000/svg">
<g clip-path="url(#clip0_31_3759)">
<g clip-path="url(#clip1_31_3759)">
<mask id="mask0_31_3759" style="mask-type:luminance" maskUnits="userSpaceOnUse" x="0" y="0" width="48" height="42">
<path d="M0 0.780029H48V41.2392H0V0.780029Z" fill="white"/>
</mask>
<g mask="url(#mask0_31_3759)">
<path d="M11.1339 19.8194C9.51949 19.8194 8.20593 21.1785 8.20593 22.8494C8.20593 24.5203 9.51949 25.8795 11.1339 25.8795C12.7492 25.8795 14.0619 24.5203 14.0619 22.8494C14.0619 21.1785 12.7492 19.8194 11.1339 19.8194ZM11.1339 19.8194C9.51949 19.8194 8.20593 21.1785 8.20593 22.8494C8.20593 24.5203 9.51949 25.8795 11.1339 25.8795C12.7492 25.8795 14.0619 24.5203 14.0619 22.8494C14.0619 21.1785 12.7492 19.8194 11.1339 19.8194ZM11.1339 19.8194C9.51949 19.8194 8.20593 21.1785 8.20593 22.8494C8.20593 24.5203 9.51949 25.8795 11.1339 25.8795C12.7492 25.8795 14.0619 24.5203 14.0619 22.8494C14.0619 21.1785 12.7492 19.8194 11.1339 19.8194ZM11.1339 19.8194C9.51949 19.8194 8.20593 21.1785 8.20593 22.8494C8.20593 24.5203 9.51949 25.8795 11.1339 25.8795C12.7492 25.8795 14.0619 24.5203 14.0619 22.8494C14.0619 21.1785 12.7492 19.8194 11.1339 19.8194ZM45.2043 10.3622H29.589V14.402H31.9848V16.2389H15.8364V14.402H18.2322V10.3622H2.70508C1.18813 10.3622 -0.0449219 11.6388 -0.0449219 13.2087V38.2736C-0.0449219 39.8435 1.18813 41.1202 2.70508 41.1202H45.2043C46.7212 41.1202 47.9551 39.8435 47.9551 38.2736V13.2087C47.9551 11.6388 46.7212 10.3622 45.2043 10.3622ZM11.1339 17.9835C13.7245 17.9835 15.8364 20.1679 15.8364 22.8494C15.8364 25.53 13.7245 27.7155 11.1339 27.7155C8.54321 27.7155 6.43135 25.53 6.43135 22.8494C6.43135 20.1679 8.54321 17.9835 11.1339 17.9835ZM16.5466 36.7133C16.5466 33.628 14.1152 31.1125 11.1339 31.1125C8.15253 31.1125 5.72202 33.628 5.72202 36.7133H3.94745C3.94745 32.6087 7.16779 29.2765 11.1339 29.2765C15.1 29.2765 18.3212 32.6087 18.3212 36.7133H16.5466ZM32.8712 36.4377H22.8458V34.6017H32.8712V36.4377ZM42.9865 28.7252H22.8458V26.8892H42.9865V28.7252ZM42.9865 21.1048H22.8458V19.2689H42.9865V21.1048ZM11.1339 25.8795C12.7492 25.8795 14.0619 24.5203 14.0619 22.8494C14.0619 21.1785 12.7492 19.8194 11.1339 19.8194C9.51949 19.8194 8.20593 21.1785 8.20593 22.8494C8.20593 24.5203 9.51949 25.8795 11.1339 25.8795ZM11.1339 19.8194C9.51949 19.8194 8.20593 21.1785 8.20593 22.8494C8.20593 24.5203 9.51949 25.8795 11.1339 25.8795C12.7492 25.8795 14.0619 24.5203 14.0619 22.8494C14.0619 21.1785 12.7492 19.8194 11.1339 19.8194ZM11.1339 19.8194C9.51949 19.8194 8.20593 21.1785 8.20593 22.8494C8.20593 24.5203 9.51949 25.8795 11.1339 25.8795C12.7492 25.8795 14.0619 24.5203 14.0619 22.8494C14.0619 21.1785 12.7492 19.8194 11.1339 19.8194ZM11.1339 19.8194C9.51949 19.8194 8.20593 21.1785 8.20593 22.8494C8.20593 24.5203 9.51949 25.8795 11.1339 25.8795C12.7492 25.8795 14.0619 24.5203 14.0619 22.8494C14.0619 21.1785 12.7492 19.8194 11.1339 19.8194ZM11.1339 19.8194C9.51949 19.8194 8.20593 21.1785 8.20593 22.8494C8.20593 24.5203 9.51949 25.8795 11.1339 25.8795C12.7492 25.8795 14.0619 24.5203 14.0619 22.8494C14.0619 21.1785 12.7492 19.8194 11.1339 19.8194ZM26.2169 0.813721H21.6033C20.7254 0.813721 20.0068 1.5574 20.0068 2.46704V14.402H27.8144V2.46704C27.8144 1.5574 27.0958 0.813721 26.2169 0.813721Z" fill="#00D280"/>
</g>
</g>
</g>
<defs>
<clipPath id="clip0_31_3759">
<rect width="48" height="42" fill="white" transform="translate(0 0.419922)"/>
</clipPath>
<clipPath id="clip1_31_3759">
<rect width="48" height="41.28" fill="white" transform="translate(0 0.780029)"/>
</clipPath>
</defs>
</svg>
