<svg width="48" height="43" viewBox="0 0 48 43" fill="none" xmlns="http://www.w3.org/2000/svg">
<g clip-path="url(#clip0_31_3824)">
<g clip-path="url(#clip1_31_3824)">
<mask id="mask0_31_3824" style="mask-type:luminance" maskUnits="userSpaceOnUse" x="0" y="0" width="48" height="42">
<path d="M0 0.780029H48V41.5136H0V0.780029Z" fill="white"/>
</mask>
<g mask="url(#mask0_31_3824)">
<path d="M26.1341 38.1601C26.1558 38.6469 26.1816 39.142 26.2103 39.6442C26.2123 39.679 26.2132 39.7139 26.2132 39.7487C26.2132 40.7224 25.4525 41.5136 24.5128 41.5136H8.8247C8.79008 41.5136 8.75546 41.5116 8.72083 41.5095C7.78306 41.45 7.06982 40.6137 7.1272 39.6411C7.39528 35.071 7.41407 31.1611 7.25382 27.9307C7.23106 27.4796 7.20535 27.0553 7.17765 26.6588C7.07378 26.7817 6.94914 26.8842 6.80966 26.9611C6.61973 27.0656 6.43969 27.1086 6.25767 27.1209C6.08653 27.1322 5.93321 27.1147 5.76306 27.0789C5.55928 27.0358 5.31593 26.96 5.02609 26.8534C4.5295 26.672 3.88453 26.3953 3.22472 26.0837C2.55601 25.7681 1.92192 25.4401 1.44708 25.1603C1.1701 24.9974 0.944564 24.8508 0.768483 24.7124C0.639884 24.612 0.53008 24.5126 0.432147 24.3957C0.180885 24.0975 0.0226097 23.7613 0.0908659 23.2632C0.577563 19.7191 1.04646 17.1907 1.54305 15.2885C1.90016 13.9182 2.00105 13.6313 2.74989 11.686C2.7588 11.6624 2.7588 11.6624 2.7677 11.6388C3.10601 10.7308 3.83606 10.1732 5.04884 9.68127C5.59292 9.46092 6.24382 9.24569 7.27163 8.93822C7.40517 8.89825 9.60523 8.24949 10.3876 8.01274L10.3896 8.01171C11.9942 7.52694 12.6876 7.32503 13.0289 7.27891V7.27583C13.4177 7.23177 13.7362 7.35475 13.9983 7.55666C14.1289 7.65812 14.2368 7.77394 14.3337 7.90409C14.2338 7.76881 14.1269 7.653 14.0122 7.55973C14.3475 6.50921 14.6592 5.75488 14.951 4.99338C15.4574 3.63437 17.7939 3.19162 22.9992 1.61122C24.4673 1.16744 25.7621 0.793353 25.869 0.793353C25.9887 0.780029 26.1757 1.04343 26.3092 1.38984C26.7237 2.42909 33.1438 2.47009 33.5701 1.40317C33.7036 1.05675 33.8639 0.780029 33.9312 0.780029C34.1982 0.780029 40.4175 2.6228 41.3651 3.01123C43.2744 3.77376 44.9293 4.16117 45.4764 6.42107C46.1025 8.98947 46.7604 11.5794 47.9652 18.3816C48.0405 18.808 42.4217 21.6695 42.3277 21.153C41.8924 18.7793 40.2058 19.1667 40.1514 18.9504C40.1068 18.7598 39.1038 25.2495 39.8101 37.6148C39.8111 37.6262 39.8111 37.6374 39.8111 37.6487C39.8111 37.9541 39.5727 38.2022 39.2779 38.2022H26.136C26.1351 38.1878 26.1341 38.1744 26.1341 38.1601ZM26.9739 27.122C27.1589 27.1507 27.338 27.1435 27.5408 27.1066C27.7535 27.0676 28.0017 26.9928 28.3064 26.878C28.7853 26.6987 29.4114 26.4168 30.0751 26.0848C30.7181 25.763 31.3354 25.4237 31.7964 25.1388C32.0664 24.9717 32.2822 24.8242 32.4473 24.6909C32.5739 24.5895 32.6768 24.4921 32.7658 24.3855C32.6718 24.4962 32.569 24.5925 32.4473 24.6909C32.2781 24.8273 32.0616 24.9748 31.7964 25.1388C31.3324 25.4257 30.7132 25.765 30.0751 26.0848C29.4203 26.4127 28.7922 26.6956 28.3064 26.878C28.0097 26.9898 27.7594 27.0667 27.5408 27.1066C27.3489 27.1414 27.1718 27.1527 26.9739 27.122ZM32.7718 24.3783C33.028 24.0688 33.1843 23.7306 33.0923 23.212C33.1734 23.6681 33.0527 24.0391 32.7718 24.3783ZM32.0437 17.6714C31.7449 16.2478 31.4234 14.8724 30.9704 13.0143C31.4165 14.8447 31.7351 16.2006 32.0437 17.6714ZM30.9695 13.0101V13.0081C30.8468 12.5028 30.6667 12.0529 30.4204 11.646C30.6627 12.0447 30.8458 12.4966 30.9695 13.0101ZM29.5202 10.6088C29.0098 10.1886 27.4894 9.52651 27.4943 9.52856C27.4992 9.53061 27.4992 9.53061 27.5002 9.53061C27.5062 9.53266 27.5082 9.53368 27.5041 9.53266C28.44 9.89548 28.986 10.1681 29.5202 10.6088ZM23.1605 8.0978C21.2068 7.51464 20.2839 7.25636 19.9891 7.25636C19.6745 7.25636 19.4361 7.3609 19.2323 7.51259C19.1848 7.54846 19.1423 7.58433 19.1066 7.61918C19.1463 7.58126 19.1878 7.54641 19.2323 7.51259C19.4529 7.34758 19.7032 7.25636 19.9891 7.25636C20.2086 7.25636 21.652 7.653 23.1605 8.0978ZM18.9929 7.74012C18.9147 7.83338 18.8485 7.93177 18.7862 8.04041C18.7495 8.10293 18.7139 8.17057 18.6793 8.24129C18.7139 8.16954 18.7495 8.10293 18.7862 8.04041C18.8515 7.92664 18.9177 7.82928 18.9929 7.74012ZM17.5793 8.41347C17.2776 8.43705 16.9491 8.44832 16.6128 8.44729C15.9411 8.44422 15.3001 8.38887 14.8332 8.29561C15.3011 8.3899 15.9432 8.44422 16.6128 8.44729C16.9482 8.44832 17.2766 8.43705 17.5793 8.41347ZM14.7946 8.28844C14.6948 8.26692 14.6057 8.24539 14.5344 8.22284C14.6057 8.24437 14.6928 8.26692 14.7946 8.28844ZM10.7388 9.25594C6.33384 10.5924 4.35738 10.9685 3.92806 12.1174C3.22373 13.9561 2.38487 15.7436 1.32739 23.4456C1.272 23.8526 6.18447 26.1473 6.24283 25.7917C6.66128 23.2499 8.13225 23.9479 8.15203 23.9274C8.16687 23.912 8.99387 29.1759 8.37362 39.72C8.35878 39.9783 8.54772 40.2007 8.79701 40.2171C8.80591 40.2171 8.8158 40.2181 8.8247 40.2181H24.5128C24.7621 40.2181 24.9639 40.008 24.9639 39.7487C24.9639 39.7395 24.9639 39.7303 24.9639 39.7211C24.3653 29.2568 25.2151 23.7654 25.2517 23.9274C25.2983 24.1108 26.7257 23.7818 27.0936 25.7917C27.1728 26.2283 31.928 23.8075 31.8637 23.4456C30.8448 17.6899 30.2879 15.4986 29.7576 13.3258C29.2946 11.4134 27.895 11.0853 26.2795 10.4407C25.4773 10.1117 20.2146 8.55183 19.9891 8.55183C19.9317 8.55183 19.7961 8.78654 19.6834 9.07965C19.3224 9.98259 13.8895 9.94774 13.5393 9.06838C13.4266 8.77527 13.2683 8.55183 13.1674 8.56413C13.0764 8.56413 11.9813 8.88083 10.7388 9.25594Z" fill="#00D280"/>
</g>
</g>
</g>
<defs>
<clipPath id="clip0_31_3824">
<rect width="48" height="42" fill="white" transform="translate(0 0.419922)"/>
</clipPath>
<clipPath id="clip1_31_3824">
<rect width="48" height="41.28" fill="white" transform="translate(0 0.780029)"/>
</clipPath>
</defs>
</svg>
