<svg width="48" height="43" viewBox="0 0 48 43" fill="none" xmlns="http://www.w3.org/2000/svg">
<g clip-path="url(#clip0_31_3770)">
<g clip-path="url(#clip1_31_3770)">
<path d="M13.07 25.2501H31.5502C31.8377 25.2501 32.0684 25.01 32.0684 24.7143V9.14744C32.0684 8.85064 31.8377 8.61157 31.5502 8.61157H13.07C12.7835 8.61157 12.5518 8.85064 12.5518 9.14744V24.7122C12.5518 25.009 12.7845 25.2501 13.07 25.2501ZM13.5882 9.68332H31.032V22.823L27.2892 16.904C27.1719 16.7186 26.9078 16.7247 26.7974 16.9141L24.0607 21.6296L19.4546 13.5145C19.3402 13.3119 19.0557 13.319 18.9482 13.5236L13.5882 23.7782V9.68332Z" fill="#00D280"/>
<path d="M25.4225 12.882C25.4225 12.9863 25.4128 13.0886 25.3923 13.1909C25.3727 13.2932 25.3444 13.3925 25.3052 13.4887C25.2671 13.584 25.2202 13.6762 25.1635 13.7622C25.1077 13.8484 25.0443 13.9284 24.9738 14.0023C24.9024 14.0762 24.8252 14.1411 24.7411 14.1988C24.6571 14.2576 24.5691 14.3063 24.4762 14.3457C24.3833 14.3853 24.2875 14.4157 24.1887 14.4359C24.09 14.4562 23.9902 14.4663 23.8895 14.4663C23.7887 14.4663 23.689 14.4562 23.5903 14.4359C23.4925 14.4157 23.3967 14.3853 23.3028 14.3457C23.2099 14.3063 23.122 14.2576 23.0379 14.1988C22.9548 14.1411 22.8775 14.0762 22.8061 14.0023C22.7348 13.9284 22.6712 13.8484 22.6155 13.7622C22.5598 13.6762 22.5128 13.584 22.4738 13.4887C22.4356 13.3925 22.4063 13.2932 22.3867 13.1909C22.3672 13.0886 22.3574 12.9863 22.3574 12.882C22.3574 12.7777 22.3672 12.6753 22.3867 12.573C22.4063 12.4707 22.4356 12.3714 22.4738 12.2751C22.5128 12.1799 22.5598 12.0878 22.6155 12.0016C22.6712 11.9156 22.7348 11.8355 22.8061 11.7616C22.8775 11.6876 22.9548 11.6228 23.0379 11.5641C23.122 11.5063 23.2099 11.4577 23.3028 11.4181C23.3967 11.3787 23.4925 11.3483 23.5903 11.328C23.689 11.3078 23.7887 11.2976 23.8895 11.2976C23.9902 11.2976 24.09 11.3078 24.1887 11.328C24.2875 11.3483 24.3833 11.3787 24.4762 11.4181C24.5691 11.4577 24.6571 11.5063 24.7411 11.5641C24.8252 11.6228 24.9024 11.6876 24.9738 11.7616C25.0443 11.8355 25.1077 11.9156 25.1635 12.0016C25.2202 12.0878 25.2671 12.1799 25.3052 12.2751C25.3444 12.3714 25.3727 12.4707 25.3923 12.573C25.4128 12.6753 25.4225 12.7777 25.4225 12.882Z" fill="#00D280"/>
<mask id="mask0_31_3770" style="mask-type:luminance" maskUnits="userSpaceOnUse" x="8" y="0" width="32" height="43">
<path d="M8.23096 0.419922H39.7689V42.4199H8.23096V0.419922Z" fill="white"/>
</mask>
<g mask="url(#mask0_31_3770)">
<path d="M39.2506 0.427734H12.3111C12.0246 0.427734 11.7929 0.666802 11.7929 0.963611V3.48902H8.74916C8.46268 3.48902 8.23096 3.72809 8.23096 4.0249V41.8676C8.23096 42.1644 8.46268 42.4044 8.74916 42.4044H36.0642C36.3516 42.4044 36.5824 42.1644 36.5824 41.8676V39.4373H39.2496C39.5361 39.4373 39.7679 39.1983 39.7679 38.9015V0.963611C39.7689 0.666802 39.5361 0.427734 39.2506 0.427734ZM35.546 41.3306H9.26736V4.55976H35.546V41.3306ZM38.7325 38.3646H36.5843V4.02388C36.5843 3.72708 36.3526 3.48801 36.0652 3.48801H12.8293V1.49948H38.7325V38.3646Z" fill="#00D280"/>
</g>
<path d="M13.07 30.6452H31.6401C31.9275 30.6452 32.1593 30.4062 32.1593 30.1093C32.1593 29.8125 31.9275 29.5735 31.6401 29.5735H13.07C12.7835 29.5735 12.5518 29.8125 12.5518 30.1093C12.5518 30.4062 12.7845 30.6452 13.07 30.6452Z" fill="#00D280"/>
<path d="M13.07 34.2852H31.6401C31.9275 34.2852 32.1593 34.0451 32.1593 33.7493C32.1593 33.4525 31.9275 33.2134 31.6401 33.2134H13.07C12.7835 33.2134 12.5518 33.4525 12.5518 33.7493C12.5518 34.0451 12.7845 34.2852 13.07 34.2852Z" fill="#00D280"/>
<path d="M13.07 37.8306H31.6401C31.9275 37.8306 32.1593 37.5905 32.1593 37.2947C32.1593 36.9979 31.9275 36.7578 31.6401 36.7578H13.07C12.7835 36.7578 12.5518 36.9979 12.5518 37.2947C12.5518 37.5905 12.7845 37.8306 13.07 37.8306Z" fill="#00D280"/>
</g>
</g>
<defs>
<clipPath id="clip0_31_3770">
<rect width="48" height="42" fill="white" transform="translate(0 0.419922)"/>
</clipPath>
<clipPath id="clip1_31_3770">
<rect width="33.2093" height="42" fill="white" transform="translate(7.39526 0.419922)"/>
</clipPath>
</defs>
</svg>
