<svg width="48" height="43" viewBox="0 0 48 43" fill="none" xmlns="http://www.w3.org/2000/svg">
<g clip-path="url(#clip0_31_3786)">
<g clip-path="url(#clip1_31_3786)">
<mask id="mask0_31_3786" style="mask-type:luminance" maskUnits="userSpaceOnUse" x="8" y="3" width="32" height="40">
<path d="M8.72729 3.03003H39.2727V42.2788H8.72729V3.03003Z" fill="white"/>
</mask>
<g mask="url(#mask0_31_3786)">
<path fill-rule="evenodd" clip-rule="evenodd" d="M36.2432 3.05708H37.8979C38.6449 3.05708 39.2542 3.69125 39.2542 4.46511V40.8522C39.2542 41.6279 38.6439 42.2621 37.8979 42.2621H10.0912C9.34516 42.2621 8.73486 41.6279 8.73486 40.8522V4.46511C8.73486 3.69125 9.34516 3.05708 10.0912 3.05708L11.7477 3.05615V4.13918C11.7468 5.4038 12.7409 6.43653 13.9588 6.43653C15.1749 6.43653 16.169 5.4038 16.169 4.13918V3.05615H31.8202V4.13918C31.8202 5.40473 32.8151 6.43653 34.0321 6.43653C35.2492 6.43653 36.2432 5.4038 36.2432 4.13918V3.05708ZM12.9584 29.0926C12.7607 29.0926 12.5989 29.2602 12.5989 29.466C12.5989 29.6727 12.7607 29.8403 12.9584 29.8403H35.0316C35.2293 29.8403 35.3911 29.6727 35.3911 29.466C35.3911 29.2602 35.2293 29.0926 35.0316 29.0926H12.9584ZM12.9584 32.9554C12.7607 32.9554 12.5989 33.123 12.5989 33.3296C12.5989 33.5354 12.7607 33.7031 12.9584 33.7031H35.0316C35.2293 33.7031 35.3911 33.5354 35.3911 33.3296C35.3911 33.123 35.2293 32.9554 35.0316 32.9554H12.9584ZM12.9584 36.8172C12.7607 36.8172 12.5989 36.9848 12.5989 37.1915C12.5989 37.3973 12.7607 37.565 12.9584 37.565H35.0316C35.2293 37.565 35.3911 37.3973 35.3911 37.1915C35.3911 36.9848 35.2293 36.8172 35.0316 36.8172H12.9584ZM31.3959 12.6246V15.1352C31.6665 15.0756 31.9064 14.9499 32.0943 14.7785C32.3486 14.5467 32.5059 14.2291 32.5059 13.8799C32.5059 13.5306 32.3486 13.2132 32.0943 12.9812C31.9064 12.8099 31.6665 12.6842 31.3959 12.6246ZM19.1971 17.6784V24.0117H21.5781V23.9726C21.5781 23.602 21.5278 23.2174 21.0334 23.2174C20.8348 23.2174 20.6738 23.0498 20.6738 22.844C20.6738 22.8328 20.6738 22.8216 20.6748 22.8114L20.6756 22.3392C20.5553 22.2461 20.4519 22.1343 20.3719 22.0086C20.2496 21.8187 20.1804 21.598 20.1804 21.3624C20.1804 21.2143 20.2092 21.0699 20.2613 20.934C20.2766 20.8931 20.2946 20.853 20.3152 20.8138C20.2954 20.7756 20.2766 20.7357 20.2613 20.6937C20.2092 20.5587 20.1804 20.4144 20.1804 20.2663C20.1804 20.1173 20.2092 19.9739 20.2613 19.8379C20.2954 19.7504 20.3395 19.6657 20.3935 19.5874V17.7938L19.1971 17.6784ZM21.9609 11.7334V16.6736C23.4314 16.8776 24.795 17.1979 26.2232 17.6933C27.6011 18.1729 29.0356 18.8145 30.6796 19.6722V15.5803C30.6786 15.5701 30.6786 15.559 30.6786 15.5468C30.6786 15.5357 30.6786 15.5245 30.6796 15.5132V12.2455C30.6786 12.2344 30.6786 12.2232 30.6786 12.213C30.6786 12.2018 30.6786 12.1907 30.6796 12.1795L30.6804 8.73482C29.0356 9.59249 27.602 10.2341 26.2232 10.7127C24.795 11.2091 23.4314 11.5294 21.9609 11.7334ZM18.4421 11.9829L18.4412 16.4241C18.443 16.4398 18.4439 16.4548 18.4439 16.4706C18.443 16.4818 18.443 16.492 18.4412 16.5022V16.858L18.8376 16.8962C18.86 16.8962 18.8843 16.899 18.9059 16.9027L20.7682 17.0834C20.78 17.0834 20.7908 17.0843 20.8015 17.0861L21.242 17.129V11.279L18.4421 11.549V11.9048C18.443 11.9159 18.443 11.9271 18.4439 11.9383C18.4439 11.9532 18.443 11.9681 18.4421 11.9829ZM15.5057 14.2087C15.5066 14.7357 15.6782 15.2106 15.9542 15.5533C16.2157 15.8774 16.5726 16.0795 16.9591 16.0795V16.0804C17.1559 16.0804 17.3473 16.0814 17.5343 16.0832C17.5981 16.0842 17.6619 16.0842 17.7257 16.0851V12.3219C17.6628 12.3229 17.599 12.3238 17.5343 12.3238C17.2494 12.3266 17.0552 12.3285 16.9591 12.3285C16.5726 12.3285 16.2157 12.5296 15.9542 12.8546C15.6827 13.1917 15.5111 13.6564 15.5048 14.1713C15.5057 14.1835 15.5057 14.1965 15.5057 14.2087Z" fill="#00D280"/>
</g>
<mask id="mask1_31_3786" style="mask-type:luminance" maskUnits="userSpaceOnUse" x="12" y="0" width="4" height="6">
<path d="M12.4187 0.419922H15.6401V5.87044H12.4187V0.419922Z" fill="white"/>
</mask>
<g mask="url(#mask1_31_3786)">
<path fill-rule="evenodd" clip-rule="evenodd" d="M13.9732 0.419922C14.7929 0.419922 15.4643 1.11742 15.4643 1.97043L15.4652 4.13555C15.4652 4.98763 14.7929 5.68605 13.9723 5.68605C13.1507 5.68605 12.4802 4.98763 12.4802 4.13555V1.97043C12.4802 1.11742 13.1516 0.419922 13.9732 0.419922Z" fill="#00D280"/>
</g>
<mask id="mask2_31_3786" style="mask-type:luminance" maskUnits="userSpaceOnUse" x="32" y="0" width="4" height="6">
<path d="M32.4194 0.419922H35.6408V5.87044H32.4194V0.419922Z" fill="white"/>
</mask>
<g mask="url(#mask2_31_3786)">
<path fill-rule="evenodd" clip-rule="evenodd" d="M34.0261 0.419922C34.8467 0.419922 35.5182 1.11742 35.5182 1.97043V4.13555C35.5182 4.98763 34.8458 5.68605 34.0261 5.68605C33.2055 5.68605 32.5332 4.98763 32.5332 4.13555V1.97043C32.5332 1.11742 33.2055 0.419922 34.0261 0.419922Z" fill="#00D280"/>
</g>
</g>
</g>
<defs>
<clipPath id="clip0_31_3786">
<rect width="48" height="42" fill="white" transform="translate(0 0.419922)"/>
</clipPath>
<clipPath id="clip1_31_3786">
<rect width="30.5455" height="42" fill="white" transform="translate(8.72729 0.419922)"/>
</clipPath>
</defs>
</svg>
