<svg width="31" height="31" viewBox="0 0 31 31" fill="none" xmlns="http://www.w3.org/2000/svg">
<g clip-path="url(#clip0_31_3992)">
<g clip-path="url(#clip1_31_3992)">
<mask id="mask0_31_3992" style="mask-type:luminance" maskUnits="userSpaceOnUse" x="0" y="1" width="30" height="30">
<path d="M0.77124 1.28125H29.8889V30.3989H0.77124V1.28125Z" fill="white"/>
</mask>
<g mask="url(#mask0_31_3992)">
<path d="M28.6205 12.9547C28.0165 12.3687 27.4114 11.7788 26.8039 11.1849C26.7859 10.3624 26.7647 9.5398 26.7391 8.71725C26.7053 7.6161 26.2308 6.56496 25.4156 5.74875C24.6002 4.93223 23.5509 4.46016 22.4526 4.42533C21.6312 4.39969 20.8091 4.37816 19.9867 4.36138C19.3949 3.75667 18.806 3.15289 18.2215 2.54976C17.4364 1.73957 16.4142 1.28809 15.3277 1.28809C14.2412 1.28872 13.221 1.74337 12.4369 2.54976C11.8514 3.15385 11.2624 3.7592 10.6688 4.36487C9.84671 4.38197 9.02523 4.40318 8.20283 4.42882C5.94002 4.50639 3.99094 6.45478 3.91385 8.72073C3.88825 9.54328 3.86677 10.3658 3.85003 11.1883C3.24499 11.7817 2.63995 12.3712 2.03428 12.9573C1.23051 13.7418 0.778076 14.7644 0.778076 15.851C0.778076 16.9376 1.22799 17.9568 2.03428 18.7429C2.63837 19.3283 3.24341 19.9168 3.85097 20.5073C3.86677 21.3308 3.88825 22.1543 3.91479 22.9768C3.94923 24.0806 4.42568 25.1292 5.23734 25.9463C6.04901 26.7635 7.10207 27.2349 8.20377 27.2698C9.02619 27.2954 9.8483 27.3166 10.6707 27.3337C11.2624 27.9374 11.8504 28.5403 12.4359 29.1444C13.221 29.9542 14.2428 30.4061 15.3312 30.4061C16.4196 30.4061 17.4389 29.9542 18.2269 29.145C18.8113 28.5412 19.4003 27.9365 19.993 27.3308C20.8151 27.314 21.6365 27.2919 22.459 27.266C24.7218 27.1887 26.6705 25.2384 26.7479 22.9753C26.7726 22.1525 26.795 21.3299 26.8118 20.5073C27.4177 19.9144 28.0219 19.3245 28.6249 18.7385C29.4259 17.9568 29.8793 16.9325 29.8783 15.851C29.8783 14.7698 29.4259 13.7399 28.6205 12.9547Z" fill="#00D280"/>
</g>
<mask id="mask1_31_3992" style="mask-type:luminance" maskUnits="userSpaceOnUse" x="0" y="1" width="23" height="22">
<path d="M0.77124 1.28125H22.7712V22.9682H0.77124V1.28125Z" fill="white"/>
</mask>
<g mask="url(#mask1_31_3992)">
<path d="M19.9867 4.36138C19.3949 3.75667 18.806 3.15289 18.2215 2.54976C17.4364 1.73957 16.4142 1.28809 15.3277 1.28809C14.2412 1.28872 13.221 1.74337 12.4369 2.54976C11.8514 3.15385 11.2624 3.7592 10.6688 4.36487C9.84671 4.38197 9.02523 4.40318 8.20283 4.42882C5.94002 4.50639 3.99094 6.45478 3.91385 8.72073C3.88825 9.54328 3.86677 10.3658 3.85003 11.1883C3.24499 11.7817 2.63995 12.3712 2.03428 12.9573C1.23051 13.7418 0.778076 14.7644 0.778076 15.851C0.778076 16.9376 1.22799 17.9568 2.03428 18.7429C2.63837 19.3283 3.24341 19.9168 3.85097 20.5073C3.86519 21.2188 3.88289 21.9302 3.905 22.6416C4.90403 22.8357 5.91853 22.9335 6.93619 22.9335C15.6727 22.9351 22.756 15.8343 22.756 7.07533C22.756 6.18883 22.6824 5.30392 22.5361 4.42977L22.4536 4.42533C21.6312 4.39969 20.8091 4.37912 19.9867 4.36138Z" fill="#00D280"/>
</g>
<path d="M22.5633 14.0032C20.1124 16.5569 17.6216 19.168 15.1723 21.7578C14.7694 22.1846 14.2099 22.4265 13.6241 22.4281H13.6153C13.0299 22.4236 12.4713 22.1827 12.0656 21.7603C10.7563 20.405 9.44258 19.0543 8.12448 17.7088C7.72165 17.3023 7.49923 16.7511 7.50807 16.1792C7.51597 15.6065 7.75356 15.0613 8.16808 14.6675C9.02651 13.8351 10.3946 13.8518 11.2337 14.7054C12.016 15.5102 12.8002 16.3179 13.5853 17.1271C15.5297 15.0844 17.4841 13.0293 19.4069 11.0062C20.224 10.1444 21.5857 10.1311 22.4612 10.9616C23.3367 11.7933 23.3857 13.1467 22.5633 14.0032Z" fill="white"/>
</g>
</g>
<defs>
<clipPath id="clip0_31_3992">
<rect width="30" height="30" fill="white" transform="translate(0.330078 0.839844)"/>
</clipPath>
<clipPath id="clip1_31_3992">
<rect width="30" height="30" fill="white" transform="translate(0.330078 0.839844)"/>
</clipPath>
</defs>
</svg>
