<svg width="31" height="31" viewBox="0 0 31 31" fill="none" xmlns="http://www.w3.org/2000/svg">
<g clip-path="url(#clip0_31_3932)">
<g clip-path="url(#clip1_31_3932)">
<g clip-path="url(#clip2_31_3932)">
<mask id="mask0_31_3932" style="mask-type:luminance" maskUnits="userSpaceOnUse" x="0" y="19" width="3" height="5">
<path d="M0.330078 19.1206H2.11149V23.1397H0.330078V19.1206Z" fill="white"/>
</mask>
<g mask="url(#mask0_31_3932)">
<path d="M1.40556 22.1793C1.40618 22.4788 1.42851 22.7819 1.47255 23.0862L2.0953 22.2656C1.98178 21.7711 1.92038 21.2723 1.91293 20.7802L0.89198 19.6957C0.84422 19.645 0.82127 19.5762 0.829333 19.5074C0.839258 19.4288 0.849802 19.3504 0.862207 19.2725L0.684191 19.5388C0.518579 19.982 0.400729 20.4554 0.33374 20.9487L1.34167 22.0192C1.38261 22.0634 1.40556 22.1201 1.40556 22.1793Z" fill="#00D280"/>
</g>
<path d="M3.41988 16.7833L3.33304 16.0171L2.75806 16.8793L2.82753 17.4892C3.00306 17.2308 3.20155 16.9946 3.41988 16.7833Z" fill="#00D280"/>
<path d="M10.545 22.5333C10.2268 22.4269 9.93643 22.1842 9.79065 21.8792L8.25057 18.6676C8.22265 18.609 8.20095 18.5486 8.18482 18.4888C7.3915 18.0818 6.5194 18.0003 5.7633 18.3433C5.3012 18.5528 4.92222 18.9066 4.65674 19.3655C5.00967 19.2207 5.3868 19.1463 5.78067 19.1463C7.26931 19.1463 8.78089 20.2133 9.54259 21.802C9.92405 22.5978 10.0878 23.4619 10.0227 24.2711C10.3508 23.788 10.5282 23.1829 10.545 22.5333Z" fill="#00D280"/>
<path d="M11.3604 26.6935L11.3684 26.7635L12.1984 26.7895L12.8831 25.7625L12.1121 25.7383C11.8994 26.0958 11.6476 26.4164 11.3604 26.6935Z" fill="#00D280"/>
<mask id="mask1_31_3932" style="mask-type:luminance" maskUnits="userSpaceOnUse" x="0" y="23" width="11" height="7">
<path d="M0.68335 23.7568H10.687V29.9739H0.68335V23.7568Z" fill="white"/>
</mask>
<g mask="url(#mask1_31_3932)">
<path d="M9.93971 28.9924C9.87399 28.9924 9.81014 28.9664 9.76299 28.9187L8.74139 27.8789C8.33822 27.9145 7.92388 27.8964 7.50583 27.8252L6.76151 28.746C6.69638 28.8269 6.58597 28.8577 6.48672 28.8232C5.95392 28.6373 5.42979 28.3806 4.92924 28.0607C4.86969 28.0226 4.82999 27.9616 4.82068 27.8928L4.62344 26.4351C4.24074 26.1133 3.88719 25.7467 3.57085 25.3446L2.32598 25.2692C2.24534 25.2643 2.17153 25.2209 2.13059 25.1526C1.96808 24.8851 1.81797 24.6067 1.68338 24.3259C1.61701 24.1871 1.55312 24.0458 1.49358 23.9033L0.826172 24.905C0.917351 25.146 1.0197 25.385 1.13134 25.6182C1.24113 25.847 1.36208 26.0747 1.49172 26.2956L2.7186 26.3699C2.79056 26.3741 2.8563 26.4092 2.89972 26.4653C3.23033 26.8989 3.60559 27.2896 4.01558 27.6253C4.06272 27.6634 4.0925 27.7171 4.10056 27.7762L4.29595 29.2151C4.68361 29.4548 5.08492 29.6541 5.49244 29.8087L6.21815 28.9108C6.27583 28.8395 6.36887 28.8064 6.46005 28.8244C6.91719 28.9169 7.37557 28.938 7.81161 28.8879C7.82092 28.8867 7.83085 28.886 7.84015 28.886C7.90651 28.886 7.9704 28.912 8.01692 28.9597L9.01741 29.9772C9.19542 29.921 9.36911 29.8546 9.53533 29.7791C9.72952 29.691 9.9218 29.5865 10.106 29.4694L10.5563 28.7943C10.3789 28.8667 10.1953 28.9295 10.0086 28.9827C9.98564 28.9894 9.96267 28.9924 9.93971 28.9924Z" fill="#00D280"/>
</g>
<path d="M12.3816 22.7892C12.3816 22.6388 12.3754 22.4873 12.3643 22.3357L11.0598 22.5772C11.0506 22.5785 11.0406 22.5797 11.0313 22.5809C10.9941 23.6521 10.5661 24.6212 9.7883 25.2215C9.78333 25.2257 9.7778 25.2287 9.77218 25.2323C9.60038 25.3627 9.41678 25.4738 9.2245 25.5607C8.84427 25.7334 8.43428 25.8204 8.00506 25.8204C6.51641 25.8204 5.0042 24.7535 4.24314 23.1648C3.72831 22.0911 3.6086 20.8914 3.9144 19.8727C3.91502 19.8703 3.91502 19.8679 3.91563 19.8655C4.18855 18.9634 4.7716 18.2696 5.5581 17.9134C6.38864 17.5365 7.33393 17.5872 8.20478 17.9731C8.2147 17.9483 8.22525 17.9236 8.23765 17.8994C8.3431 17.7002 8.53166 17.5661 8.7686 17.522L9.76533 17.3378C9.72193 17.2999 9.69342 17.2485 9.68536 17.1918L9.49059 15.7528C9.10292 15.5131 8.70161 15.3139 8.29348 15.1587L7.56777 16.0571C7.5107 16.1278 7.41766 16.1616 7.32587 16.1429C6.86872 16.0511 6.41035 16.0294 5.97492 16.0801C5.89801 16.0885 5.82233 16.062 5.76962 16.0083L4.76912 14.9902C4.59235 15.0464 4.41867 15.1128 4.2512 15.1889C4.08435 15.2644 3.92059 15.3519 3.76243 15.4479L3.92122 16.8464C3.92928 16.9206 3.90137 16.9943 3.84555 17.0456C3.52425 17.339 3.24885 17.6911 3.02617 18.0933C2.98399 18.1705 2.90088 18.2182 2.81156 18.2182C2.80846 18.2182 2.80598 18.2182 2.8035 18.2182L2.63044 18.2128L1.62995 18.1814C1.48978 18.5841 1.38805 19.0116 1.32788 19.4549L2.33582 20.5249C2.37676 20.5689 2.39971 20.6257 2.39971 20.6855C2.40094 21.2066 2.46731 21.7373 2.59571 22.2627C2.61245 22.3309 2.59757 22.4028 2.55477 22.4589L1.82472 23.4202C1.91528 23.6587 2.017 23.8948 2.12679 24.1249C2.23657 24.3544 2.35815 24.582 2.48778 24.8024L3.71405 24.8766C3.786 24.8809 3.85237 24.9159 3.89517 24.9721C4.22577 25.4061 4.60165 25.7962 5.01165 26.132C5.05817 26.17 5.08856 26.2237 5.096 26.283L5.29139 27.7219C5.67967 27.9621 6.08099 28.1608 6.48788 28.316L7.21421 27.4175C7.27128 27.3463 7.36494 27.3137 7.45549 27.3312C7.91511 27.4242 8.36977 27.4453 8.80706 27.3946C8.88273 27.3855 8.95902 27.4121 9.01236 27.4665L10.0128 28.4839C10.1909 28.4277 10.3646 28.3613 10.5308 28.2859C10.6964 28.2104 10.8601 28.1234 11.0195 28.0268L10.9054 27.019L10.8608 26.6277C10.8527 26.5535 10.8806 26.4798 10.9365 26.4285C11.2571 26.1362 11.5325 25.7836 11.7552 25.3814C11.7998 25.3017 11.8879 25.254 11.9785 25.2564L13.1521 25.2933C13.2922 24.8893 13.3939 24.4624 13.4541 24.0198L12.4461 22.9492C12.4046 22.9057 12.3816 22.8484 12.3816 22.7892Z" fill="#00D280"/>
<mask id="mask2_31_3932" style="mask-type:luminance" maskUnits="userSpaceOnUse" x="1" y="0" width="30" height="24">
<path d="M1.30615 0.526367H30.33V23.4478H1.30615V0.526367Z" fill="white"/>
</mask>
<g mask="url(#mask2_31_3932)">
<path d="M30.2632 21.4113L28.7238 18.1995C28.6059 17.9543 28.3181 17.7617 28.0687 17.7617C28.0415 17.7617 28.0147 17.7641 27.9905 17.769L21.9534 18.8854C21.8647 18.9018 21.8021 18.9446 21.7661 19.0123C21.7177 19.1046 21.7258 19.2327 21.7884 19.3637L22.8386 21.5544L15.3773 22.9378C15.1199 22.9855 14.7763 22.7838 14.6453 22.5103L14.1889 21.5133L17.0005 20.9934C17.0893 20.9765 17.1519 20.9342 17.1873 20.8667C17.2363 20.7742 17.2282 20.6456 17.1655 20.5146L16.1061 18.3052L23.5774 16.9412C23.8143 16.897 24.0028 16.7629 24.1077 16.5637C24.2261 16.3397 24.2206 16.0595 24.0947 15.7968L22.686 12.7819L25.484 12.2644C25.5727 12.2481 25.6354 12.2053 25.6708 12.1376C25.7197 12.0452 25.7117 11.9172 25.649 11.7862L24.1095 8.5744C23.9916 8.32864 23.7038 8.13663 23.4539 8.13663C23.4266 8.13663 23.4005 8.13903 23.3757 8.14326L17.3386 9.26035C17.2505 9.27666 17.1873 9.31953 17.1519 9.38716C17.1029 9.47955 17.111 9.60756 17.1736 9.73862L18.2212 11.9233L8.05123 13.8138C7.79382 13.8616 7.45949 13.6792 7.3373 13.4232C7.21696 13.172 7.04453 12.7988 6.95583 12.605L9.77745 12.0833C9.86614 12.067 9.92877 12.0241 9.96477 11.9565C10.0131 11.8641 10.0051 11.7361 9.94245 11.605L9.23968 10.1389L13.4458 9.39138C13.6834 9.3473 13.8719 9.21326 13.9767 9.01399C14.0945 8.78997 14.0896 8.50979 13.9631 8.24592L12.0309 4.17426L15.8319 3.4708C15.92 3.4545 15.9833 3.41223 16.0187 3.34399C16.0677 3.25161 16.0596 3.1236 15.9969 2.99256L15.025 0.966099C14.9077 0.720943 14.6194 0.52832 14.37 0.52832C14.3427 0.52832 14.3166 0.530735 14.2918 0.534962L6.27973 2.01737C6.19104 2.03368 6.12838 2.07655 6.09303 2.14418C6.04403 2.23656 6.05209 2.36518 6.11473 2.49561L7.08609 4.52207C7.20394 4.76783 7.49175 4.95985 7.74172 4.95985C7.76901 4.95985 7.79506 4.95804 7.81988 4.95321L11.5359 4.26605L13.5196 8.44578C13.5822 8.57682 13.5903 8.70483 13.5413 8.79722C13.5059 8.86545 13.4427 8.90772 13.3565 8.92402L9.02631 9.69334L8.40293 8.39325C8.28507 8.14809 7.99727 7.95547 7.7473 7.95547C7.72063 7.95547 7.69396 7.95789 7.66915 7.96272L1.63201 9.07921C1.54393 9.09551 1.48067 9.13838 1.44531 9.20601C1.39693 9.29839 1.405 9.42641 1.46764 9.55744L3.00716 12.7692C3.12502 13.0143 3.41282 13.207 3.66218 13.207C3.68947 13.207 3.71552 13.2046 3.74033 13.2003L6.46271 12.6968C6.51606 12.8133 6.74432 13.3114 6.89381 13.6243C7.08671 14.0258 7.5333 14.2975 7.96502 14.2975C8.02456 14.2975 8.08411 14.2921 8.14303 14.2812L18.434 12.3677L18.7138 12.9504C18.831 13.1961 19.1195 13.3881 19.3687 13.3881C19.396 13.3881 19.4221 13.3858 19.4469 13.3816L22.1923 12.8737L23.6505 15.9955C23.7132 16.1266 23.7213 16.2545 23.6729 16.3475C23.6369 16.4152 23.5743 16.4574 23.4861 16.4737L15.8928 17.8602L15.626 17.3034C15.5082 17.0577 15.2204 16.8656 14.9704 16.8656C14.9431 16.8656 14.917 16.868 14.8923 16.8722L8.85573 17.9894C8.76703 18.0057 8.70376 18.0485 8.66841 18.1162C8.61941 18.2086 8.62747 18.3365 8.69012 18.4676L10.2303 21.6794C10.3481 21.9245 10.6359 22.1172 10.8853 22.1172C10.9126 22.1172 10.9386 22.1147 10.9634 22.11L13.6951 21.6051L14.2007 22.7077C14.4035 23.1317 14.8625 23.4202 15.2985 23.4202C15.3556 23.4202 15.4127 23.4154 15.4685 23.4051L23.052 21.9994L23.328 22.5754C23.4458 22.8213 23.7336 23.0133 23.9836 23.0133C24.0103 23.0133 24.0369 23.0108 24.0618 23.0066L30.0982 21.8896C30.187 21.8732 30.2496 21.831 30.2856 21.7627C30.3346 21.6704 30.3265 21.5423 30.2632 21.4113ZM7.89741 3.56621C7.78204 3.56621 7.67969 3.4871 7.65736 3.37298C7.63193 3.24376 7.71877 3.11937 7.85151 3.09461L14.1684 1.92619C14.3005 1.90143 14.4289 1.98658 14.4544 2.11519C14.4791 2.24442 14.3923 2.36881 14.2595 2.39357L7.94331 3.56198C7.9278 3.565 7.9123 3.56621 7.89741 3.56621ZM2.67717 10.561C2.66229 10.564 2.64678 10.5652 2.63127 10.5652C2.51652 10.5652 2.41418 10.4861 2.39186 10.372C2.36642 10.2428 2.45326 10.1184 2.58599 10.0942L5.6793 9.52182C5.81204 9.49766 5.93982 9.58219 5.96525 9.71078C5.99006 9.84006 5.90322 9.96447 5.77048 9.98922L2.67717 10.561ZM3.40166 12.0712C3.38615 12.0742 3.37064 12.0754 3.35576 12.0754C3.24039 12.0754 3.13804 11.9963 3.11571 11.8822C3.09028 11.7529 3.17774 11.6286 3.31047 11.6044L8.7323 10.6015C8.86504 10.5767 8.99281 10.6612 9.01825 10.7905C9.04367 10.9191 8.95621 11.0434 8.82348 11.0682L3.40166 12.0712ZM18.0984 10.5531C18.073 10.4245 18.1598 10.2995 18.2926 10.2754L21.3859 9.703C21.518 9.67825 21.6464 9.76337 21.6718 9.892C21.6966 10.0212 21.6098 10.1456 21.4771 10.1703L18.3838 10.7421C18.3689 10.7452 18.3533 10.7463 18.3379 10.7463C18.2231 10.7463 18.1207 10.6673 18.0984 10.5531ZM19.1082 12.2529C19.0927 12.2553 19.0773 12.2566 19.0624 12.2566C18.947 12.2566 18.8447 12.1774 18.8223 12.0633C18.7969 11.9342 18.8843 11.8097 19.0164 11.7856L24.4389 10.7826C24.571 10.7579 24.6994 10.8424 24.7249 10.9716C24.7496 11.1008 24.6628 11.2252 24.53 11.2494L19.1082 12.2529ZM9.90092 19.4712C9.88536 19.4742 9.86989 19.4754 9.85498 19.4754C9.73958 19.4754 9.63728 19.3957 9.61495 19.2822C9.58951 19.153 9.67697 19.0286 9.8097 19.0038L12.9024 18.432C13.0352 18.4072 13.163 18.4918 13.1884 18.621C13.2132 18.7502 13.1263 18.8746 12.9935 18.8988L9.90092 19.4712ZM10.6248 20.9814C10.6092 20.9844 10.5937 20.9856 10.5788 20.9856C10.4635 20.9856 10.3611 20.9065 10.3388 20.7924C10.3134 20.6631 10.4008 20.5387 10.5335 20.514L15.9554 19.511C16.0881 19.4868 16.2159 19.5714 16.2413 19.7C16.2662 19.8292 16.1794 19.9536 16.0466 19.9784L10.6248 20.9814ZM22.7127 20.1782C22.6872 20.0496 22.7747 19.9252 22.9074 19.9005L26.0001 19.328C26.1329 19.3039 26.2607 19.3884 26.2861 19.517C26.3115 19.6463 26.224 19.7707 26.0913 19.7955L22.9986 20.3673C22.9831 20.3703 22.9676 20.3715 22.9527 20.3715C22.8373 20.3721 22.735 20.2923 22.7127 20.1782ZM29.1449 20.8745L23.7225 21.878C23.7069 21.8805 23.6915 21.8822 23.6765 21.8822C23.5618 21.8822 23.4589 21.8026 23.4365 21.6885C23.4117 21.5598 23.4985 21.4354 23.6313 21.4107L29.0538 20.4078C29.1859 20.383 29.3142 20.4675 29.339 20.5968C29.3645 20.7259 29.2776 20.8503 29.1449 20.8745Z" fill="#00D280"/>
</g>
</g>
</g>
</g>
<defs>
<clipPath id="clip0_31_3932">
<rect width="30" height="30" fill="white" transform="translate(0.330078 0.25)"/>
</clipPath>
<clipPath id="clip1_31_3932">
<rect width="30" height="30" fill="white" transform="translate(0.330078 0.25)"/>
</clipPath>
<clipPath id="clip2_31_3932">
<rect width="30" height="30" fill="white" transform="translate(0.330078 0.25)"/>
</clipPath>
</defs>
</svg>
