<svg width="31" height="26" viewBox="0 0 31 26" fill="none" xmlns="http://www.w3.org/2000/svg">
<g clip-path="url(#clip0_31_3958)">
<g clip-path="url(#clip1_31_3958)">
<g clip-path="url(#clip2_31_3958)">
<path fill-rule="evenodd" clip-rule="evenodd" d="M19.9988 6.27272C15.77 6.27272 12.235 9.17649 11.3771 13.0526C11.2926 13.4338 10.908 13.6751 10.5178 13.5929C10.1276 13.5112 9.87898 13.1355 9.96353 12.7549C10.9622 8.24333 15.0755 4.8623 19.9988 4.8623C25.6694 4.8623 30.2659 9.34654 30.2659 14.8792C30.2659 20.4111 25.6694 24.896 19.9988 24.896C19.1416 24.896 18.3084 24.7931 17.5104 24.5998C16.9737 24.4688 16.454 24.2974 15.9545 24.0883C15.5869 23.9347 15.4171 23.5199 15.575 23.1619C15.732 22.8041 16.1574 22.6381 16.5244 22.7917C16.9533 22.9714 17.3991 23.1187 17.8598 23.2305C18.5444 23.3964 19.2607 23.4849 19.9988 23.4849C24.8707 23.4849 28.8199 19.6322 28.8199 14.8792C28.8199 10.1261 24.8707 6.27272 19.9988 6.27272Z" fill="#00D280"/>
<path fill-rule="evenodd" clip-rule="evenodd" d="M19.9985 9.5995C17.0093 9.5995 14.5864 11.9637 14.5864 14.8798C14.5864 17.796 17.0093 20.1601 19.9985 20.1601C22.9876 20.1601 25.4105 17.796 25.4105 14.8798C25.4105 11.9637 22.9876 9.5995 19.9985 9.5995ZM13.1404 14.8798C13.1404 11.1841 16.2106 8.18848 19.9985 8.18848C23.7864 8.18848 26.8572 11.1841 26.8572 14.8798C26.8572 18.5756 23.7864 21.5712 19.9985 21.5712C16.2106 21.5712 13.1404 18.5756 13.1404 14.8798Z" fill="#00D280"/>
<path fill-rule="evenodd" clip-rule="evenodd" d="M19.486 14.945C19.7684 14.6694 20.2263 14.6694 20.5087 14.945L21.8582 16.2614C22.1407 16.5371 22.1407 16.9835 21.8582 17.2591C21.5758 17.5347 21.118 17.5347 20.8362 17.2591L19.486 15.9426C19.2036 15.667 19.2036 15.2206 19.486 14.945Z" fill="#00D280"/>
<path fill-rule="evenodd" clip-rule="evenodd" d="M19.9969 10.7881C20.3962 10.7881 20.7202 11.1035 20.7202 11.493V15.4438C20.7202 15.8332 20.3962 16.1486 19.9969 16.1486C19.5975 16.1486 19.2742 15.8332 19.2742 15.4438V11.493C19.2742 11.1035 19.5975 10.7881 19.9969 10.7881Z" fill="#00D280"/>
<mask id="mask0_31_3958" style="mask-type:luminance" maskUnits="userSpaceOnUse" x="16" y="0" width="8" height="6">
<path d="M16.3816 0.792969H23.7742V5.87921H16.3816V0.792969Z" fill="white"/>
</mask>
<g mask="url(#mask0_31_3958)">
<path fill-rule="evenodd" clip-rule="evenodd" d="M16.5281 1.61863C16.5281 1.22918 16.8521 0.913086 17.2508 0.913086H23.0354C23.4348 0.913086 23.7581 1.22918 23.7581 1.61863V3.73459C23.7581 4.12473 23.4348 4.44013 23.0354 4.44013H22.3121V5.14568C22.3121 5.53514 21.9888 5.85123 21.5894 5.85123C21.1901 5.85123 20.8661 5.53514 20.8661 5.14568V3.73459C20.8661 3.34513 21.1901 3.02973 21.5894 3.02973H22.3121V2.32418H17.9741V3.02973H18.6967C19.0961 3.02973 19.4201 3.34513 19.4201 3.73459V5.14568C19.4201 5.53514 19.0961 5.85123 18.6967 5.85123C18.2981 5.85123 17.9741 5.53514 17.9741 5.14568V4.44013H17.2508C16.8521 4.44013 16.5281 4.12473 16.5281 3.73459V1.61863Z" fill="#00D280"/>
</g>
<path fill-rule="evenodd" clip-rule="evenodd" d="M27.2231 4.64813C27.5055 4.3725 27.9633 4.3725 28.2458 4.64813L30.0531 6.41166C30.3355 6.68661 30.3355 7.13367 30.0531 7.4093L28.2458 9.17283C27.9633 9.4478 27.5055 9.4478 27.2231 9.17283C26.9406 8.89722 26.9406 8.45014 27.2231 8.17517L28.5197 6.91013L27.7345 6.14425L26.4385 7.4093L25.4158 6.41166L27.2231 4.64813Z" fill="#00D280"/>
<path fill-rule="evenodd" clip-rule="evenodd" d="M13.0628 4.64667C12.7804 4.37103 12.3226 4.37103 12.0401 4.64667L10.2328 6.4102C9.9504 6.68515 9.9504 7.13219 10.2328 7.40783L12.0401 9.17132C12.3226 9.4463 12.7804 9.4463 13.0628 9.17132C13.3453 8.89572 13.3453 8.44864 13.0628 8.17375L11.7662 6.90867L12.5515 6.14278L13.8475 7.40783L14.8702 6.4102L13.0628 4.64667Z" fill="#00D280"/>
<path fill-rule="evenodd" clip-rule="evenodd" d="M2.50244 21.3696C2.50244 20.9795 2.82643 20.6641 3.2258 20.6641H14.7937C15.1931 20.6641 15.5171 20.9795 15.5171 21.3696C15.5171 21.7591 15.1931 22.0745 14.7937 22.0745H3.2258C2.82643 22.0745 2.50244 21.7591 2.50244 21.3696Z" fill="#00D280"/>
<path fill-rule="evenodd" clip-rule="evenodd" d="M3.94434 18.5471C3.94434 18.1577 4.26833 17.8423 4.66768 17.8423H11.8976C12.297 17.8423 12.621 18.1577 12.621 18.5471C12.621 18.9366 12.297 19.2527 11.8976 19.2527H4.66768C4.26833 19.2527 3.94434 18.9366 3.94434 18.5471Z" fill="#00D280"/>
<path fill-rule="evenodd" clip-rule="evenodd" d="M1.05469 15.7261C1.05469 15.3365 1.37868 15.0205 1.77803 15.0205H11.1766C11.576 15.0205 11.9 15.3365 11.9 15.7261C11.9 16.1155 11.576 16.4315 11.1766 16.4315H1.77803C1.37868 16.4315 1.05469 16.1155 1.05469 15.7261Z" fill="#00D280"/>
</g>
</g>
</g>
<defs>
<clipPath id="clip0_31_3958">
<rect width="30" height="25.25" fill="white" transform="translate(0.659912 0.219727)"/>
</clipPath>
<clipPath id="clip1_31_3958">
<rect width="30" height="25.25" fill="white" transform="translate(0.659912 0.219727)"/>
</clipPath>
<clipPath id="clip2_31_3958">
<rect width="30" height="25.2632" fill="white" transform="translate(0.659912 0.213379)"/>
</clipPath>
</defs>
</svg>
