<svg width="57" height="45" viewBox="0 0 57 45" fill="none" xmlns="http://www.w3.org/2000/svg">
<g clip-path="url(#clip0_1_2124)">
<g clip-path="url(#clip1_1_2124)">
<g clip-path="url(#clip2_1_2124)">
<path d="M17.3001 16.2298L22.8884 10.2267C22.7916 10.0575 22.6894 9.89339 22.5836 9.73181L16.8574 15.8824L17.3001 16.2298Z" fill="#00D280"/>
<path d="M16.3521 15.4866L22.2085 9.19488C22.0938 9.04416 21.976 8.89854 21.8537 8.75549L15.9106 15.1404L16.3521 15.4866Z" fill="#00D280"/>
<path d="M15.4678 12.9182L20.5333 7.47703C20.3853 7.3608 20.235 7.24776 20.0805 7.14111L15.4684 12.0956L15.4678 12.9182Z" fill="#00D280"/>
<path d="M15.4678 11.1572L19.5363 6.78768C19.3699 6.68934 19.2011 6.59738 19.0293 6.50989L15.4678 10.3352V11.1572Z" fill="#00D280"/>
<path d="M15.4678 9.39725L18.4192 6.22649C18.2332 6.14921 18.043 6.08024 17.8517 6.01575L15.4678 8.57535V9.39725Z" fill="#00D280"/>
<path d="M15.4678 7.63655L17.1637 5.81392C16.9522 5.76219 16.7364 5.72132 16.5196 5.68555L15.4678 6.81528V7.63655Z" fill="#00D280"/>
<path d="M15.4678 14.6781L21.4227 8.28046C21.292 8.14635 21.1589 8.01543 21.0211 7.89026L15.4678 13.8556V14.6781Z" fill="#00D280"/>
<path d="M15.7305 5.59321C15.6432 5.58683 15.5558 5.58363 15.4678 5.58044V5.87676L15.7305 5.59321Z" fill="#00D280"/>
<path d="M18.2479 16.9731L23.4541 11.38C23.3769 11.1923 23.2937 11.0064 23.2052 10.8251L17.8052 16.6264L18.2479 16.9731Z" fill="#00D280"/>
<path d="M20.1422 18.4608L24.1642 14.1398C24.1368 13.9004 24.1036 13.6634 24.0608 13.4297L19.7007 18.1135L20.1422 18.4608Z" fill="#00D280"/>
<path d="M19.1944 17.7161L23.8891 12.6741C23.8338 12.4628 23.7738 12.2552 23.7055 12.0502L18.7529 17.3712L19.1944 17.7161Z" fill="#00D280"/>
<path d="M22.0362 19.9478L23.9002 17.9457C23.9899 17.6022 24.0618 17.251 24.1153 16.8939L21.5947 19.6017L22.0362 19.9478Z" fill="#00D280"/>
<path d="M21.0891 19.2045L24.2192 15.8415C24.2275 15.6724 24.2329 15.5019 24.2329 15.3288C24.2329 15.2227 24.2287 15.118 24.2258 15.0127L20.647 18.8578L21.0891 19.2045Z" fill="#00D280"/>
<path d="M22.8145 20.5574C23.0273 20.1985 23.2192 19.825 23.388 19.4366L22.543 20.3442L22.8145 20.5574Z" fill="#00D280"/>
<mask id="mask0_1_2124" style="mask-type:luminance" maskUnits="userSpaceOnUse" x="0" y="0" width="56" height="45">
<path d="M0.85498 0H55.5847V45H0.85498V0Z" fill="white"/>
</mask>
<g mask="url(#mask0_1_2124)">
<path d="M52.4172 44.9598H3.99233C2.30306 44.9598 0.928711 43.4827 0.928711 41.6684V3.26476C0.928711 1.44979 2.30366 -0.0273438 3.99233 -0.0273438H52.4172C54.1065 -0.0273438 55.4808 1.45043 55.4808 3.26476V41.6684C55.4814 43.4827 54.1065 44.9598 52.4172 44.9598ZM3.99233 1.2895C2.97924 1.2895 2.15392 2.17527 2.15392 3.26476V41.6684C2.15392 42.7573 2.97924 43.643 3.99233 43.643H52.4172C53.4303 43.643 54.2556 42.7573 54.2556 41.6684V3.26476C54.2556 2.17527 53.4303 1.2895 52.4172 1.2895H3.99233Z" fill="#00D280"/>
</g>
<path d="M32.1587 12.9305H34.5111V21.2008H32.1587V12.9305Z" fill="#00D280"/>
<path d="M35.8086 13.6206H38.1603V21.2018H35.8086V13.6206Z" fill="#00D280"/>
<path d="M39.457 14.999H41.8087V21.2014H39.457V14.999Z" fill="#00D280"/>
<path d="M43.1069 11.5522H45.4587V21.2012H43.1069V11.5522Z" fill="#00D280"/>
<path d="M46.7568 11.5522H49.1086V21.2012H46.7568V11.5522Z" fill="#00D280"/>
<path d="M48.9906 26.8663L36.6404 33.3848L32.1455 30.4624L24.0384 34.4206L10.9033 35.6659L5.73096 39.6152H48.9537L48.9906 26.8663Z" fill="#00D280"/>
<path d="M15.1333 25.0622C10.1243 25.0622 6.04883 20.685 6.04883 15.3028C6.04883 10.0443 9.94073 5.74575 14.7922 5.55225V15.2069H14.7971L22.3901 21.1673C20.7317 23.5315 18.0953 25.0622 15.1333 25.0622Z" fill="#00D280"/>
</g>
</g>
</g>
<defs>
<clipPath id="clip0_1_2124">
<rect width="55.94" height="45" fill="white" transform="translate(0.25)"/>
</clipPath>
<clipPath id="clip1_1_2124">
<rect width="55.94" height="45" fill="white" transform="translate(0.25)"/>
</clipPath>
<clipPath id="clip2_1_2124">
<rect width="55.9459" height="45" fill="white" transform="translate(0.24707)"/>
</clipPath>
</defs>
</svg>
