<svg width="92" height="56" viewBox="0 0 92 56" fill="none" xmlns="http://www.w3.org/2000/svg">
<g clip-path="url(#clip0_51_823)">
<g clip-path="url(#clip1_51_823)">
<g clip-path="url(#clip2_51_823)">
<mask id="mask0_51_823" style="mask-type:luminance" maskUnits="userSpaceOnUse" x="0" y="0" width="92" height="56">
<path d="M0.166016 0.5H91.8327V55.3258H0.166016V0.5Z" fill="white"/>
</mask>
<g mask="url(#mask0_51_823)">
<path d="M88.1639 31.0844C88.3461 32.0233 89.0895 32.72 89.9795 32.72C91.0035 32.72 91.8327 31.7879 91.8327 30.6396C91.8327 29.4887 91.0035 28.5568 89.9795 28.5568C89.0895 28.5568 88.3461 29.2581 88.1639 30.1924H70.7414V27.46H71.3321C71.5079 28.3991 72.2555 29.1145 73.1455 29.1145C74.1695 29.1145 75.0049 28.1754 75.0049 27.0247C75.0049 25.8761 74.1695 24.9419 73.1455 24.9419C72.2681 24.9419 71.5309 25.6337 71.3383 26.5587H70.7414V23.8263H76.4918L79.7459 27.4719H81.6243C81.8043 28.4108 82.5477 29.1145 83.4377 29.1145C84.4617 29.1145 85.293 28.1754 85.293 27.0247C85.293 25.8761 84.4617 24.9419 83.4377 24.9419C82.5477 24.9419 81.8043 25.6456 81.6243 26.5775H80.0726L76.8205 22.9273H70.7414V20.1925H80.3196L83.6533 23.9323H88.1639C88.3461 24.8712 89.0895 25.5679 89.9795 25.5679C91.0035 25.5679 91.8327 24.6336 91.8327 23.4851C91.8327 22.3343 91.0035 21.4023 89.9795 21.4023C89.0895 21.4023 88.3461 22.106 88.1639 23.0379H83.9821L80.6526 19.2936H70.7414V16.5613H84.1747C84.3611 17.4932 85.1045 18.1969 85.9882 18.1969C87.0121 18.1969 87.8498 17.2626 87.8498 16.1141C87.8498 14.9633 87.0121 14.0242 85.9882 14.0242C85.1045 14.0242 84.3611 14.7279 84.1747 15.6669H70.7414V12.9275H73.648C73.8302 13.8618 74.5735 14.5632 75.4614 14.5632C76.4854 14.5632 77.3168 13.6312 77.3168 12.4804C77.3168 11.3319 76.4854 10.3999 75.4614 10.3999C74.5735 10.3999 73.8302 11.0942 73.648 12.0356H70.7414V10.4187C70.7414 10.0304 70.687 9.64916 70.5949 9.29615H75.6269L81.2075 3.02892H84.736C84.9182 3.96088 85.6615 4.66457 86.5494 4.66457C87.5734 4.66457 88.4048 3.73025 88.4048 2.58176C88.4048 1.43093 87.5734 0.491905 86.5494 0.491905C85.6615 0.491905 84.9182 1.19559 84.736 2.12755H80.8808L75.2918 8.40183H70.2431C69.6296 7.2463 68.5051 6.46965 67.2172 6.46965H24.7815C23.4936 6.46965 22.3712 7.2463 21.7556 8.40183H16.7069L11.1179 2.12755H7.26272C7.08263 1.19559 6.33924 0.491905 5.45556 0.491905C4.43158 0.491905 3.59397 1.43093 3.59397 2.58176C3.59397 3.73025 4.43158 4.66457 5.45556 4.66457C6.33924 4.66457 7.08263 3.96088 7.26272 3.02892H10.7912L16.374 9.29615H21.4059C21.3117 9.64916 21.2635 10.0304 21.2635 10.4187V12.0356H18.3507C18.1685 11.0942 17.4271 10.3999 16.5373 10.3999C15.5133 10.3999 14.6819 11.3319 14.6819 12.4804C14.6819 13.6312 15.5133 14.5632 16.5373 14.5632C17.4271 14.5632 18.1685 13.8618 18.3507 12.9275H21.2635V15.6669H7.82392C7.64384 14.7279 6.89417 14.0242 6.01048 14.0242C4.9865 14.0242 4.15517 14.9633 4.15517 16.1141C4.15517 17.2626 4.9865 18.1969 6.01048 18.1969C6.89417 18.1969 7.64384 17.4932 7.82392 16.5613H21.2635V19.2936H11.3461L8.01868 23.0379H3.83477C3.65259 22.106 2.9092 21.4023 2.02133 21.4023C0.997349 21.4023 0.166016 22.3343 0.166016 23.4851C0.166016 24.6336 0.997349 25.5679 2.02133 25.5679C2.9092 25.5679 3.65259 24.8712 3.83477 23.9323H8.34535L11.6812 20.1925H21.2635V22.9273H15.1803L11.9262 26.5775H10.3766C10.1944 25.6456 9.45099 24.9419 8.56103 24.9419C7.53704 24.9419 6.7078 25.8761 6.7078 27.0247C6.7078 28.1754 7.53704 29.1145 8.56103 29.1145C9.45099 29.1145 10.1944 28.4108 10.3766 27.4719H12.2549L15.5069 23.8263H21.2635V26.5587H20.6625C20.474 25.6337 19.7306 24.9419 18.8532 24.9419C17.8292 24.9419 16.9938 25.8761 16.9938 27.0247C16.9938 28.1754 17.8292 29.1145 18.8532 29.1145C19.7495 29.1145 20.4929 28.3991 20.6666 27.46H21.2635V30.1924H3.83477C3.65259 29.2581 2.9092 28.5568 2.02133 28.5568C0.997349 28.5568 0.166016 29.4887 0.166016 30.6396C0.166016 31.7879 0.997349 32.72 2.02133 32.72C2.9092 32.72 3.65259 32.0233 3.83477 31.0844H21.2635V33.8238H16.374L13.2831 37.2998H6.7078C6.52562 36.3607 5.78223 35.6571 4.89437 35.6571C3.87038 35.6571 3.03905 36.5961 3.03905 37.747C3.03905 38.8954 3.87038 39.8298 4.89437 39.8298C5.78223 39.8298 6.52562 39.1261 6.7078 38.194H13.6119L16.7069 34.718H21.2635V37.4575H20.6666C20.4803 36.5184 19.737 35.8218 18.8532 35.8218C17.8292 35.8218 16.9938 36.7537 16.9938 37.9046C16.9938 39.0532 17.8292 39.9875 18.8532 39.9875C19.737 39.9875 20.4803 39.2837 20.6666 38.3494H21.2635V39.8085C21.2635 40.2557 21.3285 40.6888 21.452 41.0889H8.95471L5.80526 44.6237H3.83477C3.65259 43.6918 2.9092 42.9881 2.02133 42.9881C0.997349 42.9881 0.166016 43.9271 0.166016 45.0779C0.166016 46.2194 0.997349 47.1607 2.02133 47.1607C2.9092 47.1607 3.65259 46.457 3.83477 45.5251H6.13404L9.28767 41.9831H21.8435C22.476 43.0539 23.5523 43.7576 24.7815 43.7576H37.7185V52.856H34.1711C32.9608 52.856 31.9724 53.9599 31.9724 55.3248H60.0284C60.0284 53.9599 59.0442 52.856 57.8276 52.856H54.2824V43.7576H67.2172C68.4464 43.7576 69.5291 43.0539 70.1552 41.9831H82.711L85.8646 45.5251H88.1639C88.3461 46.457 89.0895 47.1607 89.9795 47.1607C91.0035 47.1607 91.8327 46.2194 91.8327 45.0779C91.8327 43.9271 91.0035 42.9881 89.9795 42.9881C89.0895 42.9881 88.3461 43.6918 88.1639 44.6237H86.1935L83.0461 41.0889H70.5467C70.6702 40.6888 70.7414 40.2557 70.7414 39.8085V38.3494H71.3383C71.5184 39.2837 72.2617 39.9875 73.1455 39.9875C74.1695 39.9875 75.0049 39.0532 75.0049 37.9046C75.0049 36.7537 74.1695 35.8218 73.1455 35.8218C72.2617 35.8218 71.5184 36.5184 71.3383 37.4575H70.7414V34.718H75.2918L78.3869 38.194H85.293C85.4793 39.1261 86.2227 39.8298 87.1065 39.8298C88.1305 39.8298 88.9597 38.8954 88.9597 37.747C88.9597 36.5961 88.1305 35.6571 87.1065 35.6571C86.2227 35.6571 85.4793 36.3607 85.293 37.2998H78.722L75.6269 33.8238H70.7414V31.0844H88.1639ZM89.9795 29.4488C90.5637 29.4488 91.037 29.9806 91.037 30.6396C91.037 31.2962 90.5637 31.828 89.9795 31.828C89.3931 31.828 88.9199 31.2962 88.9199 30.6396C88.9199 29.9806 89.3931 29.4488 89.9795 29.4488ZM73.1455 25.8361C73.7296 25.8361 74.205 26.3751 74.205 27.0247C74.205 27.6813 73.7296 28.2155 73.1455 28.2155C72.5653 28.2155 72.0858 27.6813 72.0858 27.0247C72.0858 26.3751 72.5653 25.8361 73.1455 25.8361ZM83.4377 25.8361C84.0218 25.8361 84.4972 26.3751 84.4972 27.0247C84.4972 27.6813 84.0218 28.2155 83.4377 28.2155C82.8513 28.2155 82.378 27.6813 82.378 27.0247C82.378 26.3751 82.8513 25.8361 83.4377 25.8361ZM89.9795 22.2966C90.5637 22.2966 91.037 22.8284 91.037 23.4851C91.037 24.1417 90.5637 24.6735 89.9795 24.6735C89.3931 24.6735 88.9199 24.1417 88.9199 23.4851C88.9199 22.8284 89.3931 22.2966 89.9795 22.2966ZM85.9882 14.9257C86.5724 14.9257 87.0478 15.4575 87.0478 16.1141C87.0478 16.7636 86.5724 17.3025 85.9882 17.3025C85.404 17.3025 84.9286 16.7636 84.9286 16.1141C84.9286 15.4575 85.404 14.9257 85.9882 14.9257ZM75.4614 11.2919C76.0478 11.2919 76.5211 11.8237 76.5211 12.4804C76.5211 13.1393 76.0478 13.6712 75.4614 13.6712C74.8772 13.6712 74.404 13.1393 74.404 12.4804C74.404 11.8237 74.8772 11.2919 75.4614 11.2919ZM86.5494 1.39328C87.1295 1.39328 87.609 1.92516 87.609 2.58176C87.609 3.23838 87.1295 3.77025 86.5494 3.77025C85.9652 3.77025 85.4919 3.23838 85.4919 2.58176C85.4919 1.92516 85.9652 1.39328 86.5494 1.39328ZM5.45556 3.77025C4.86923 3.77025 4.39598 3.23838 4.39598 2.58176C4.39598 1.92516 4.86923 1.39328 5.45556 1.39328C6.03351 1.39328 6.51515 1.92516 6.51515 2.58176C6.51515 3.23838 6.03351 3.77025 5.45556 3.77025ZM16.5373 13.6712C15.9572 13.6712 15.4776 13.1393 15.4776 12.4804C15.4776 11.8237 15.9572 11.2919 16.5373 11.2919C17.1215 11.2919 17.601 11.8237 17.601 12.4804C17.601 13.1393 17.1215 13.6712 16.5373 13.6712ZM6.01048 17.3025C5.42624 17.3025 4.9509 16.7636 4.9509 16.1141C4.9509 15.4575 5.42624 14.9257 6.01048 14.9257C6.59681 14.9257 7.07007 15.4575 7.07007 16.1141C7.07007 16.7636 6.59681 17.3025 6.01048 17.3025ZM2.02133 24.6735C1.43501 24.6735 0.961751 24.1417 0.961751 23.4851C0.961751 22.8284 1.43501 22.2966 2.02133 22.2966C2.60558 22.2966 3.07883 22.8284 3.07883 23.4851C3.07883 24.1417 2.60558 24.6735 2.02133 24.6735ZM8.56103 28.2155C7.97679 28.2155 7.50354 27.6813 7.50354 27.0247C7.50354 26.3751 7.97679 25.8361 8.56103 25.8361C9.14736 25.8361 9.62061 26.3751 9.62061 27.0247C9.62061 27.6813 9.14736 28.2155 8.56103 28.2155ZM18.8532 28.2155C18.2691 28.2155 17.7958 27.6813 17.7958 27.0247C17.7958 26.3751 18.2691 25.8361 18.8532 25.8361C19.4396 25.8361 19.9128 26.3751 19.9128 27.0247C19.9128 27.6813 19.4396 28.2155 18.8532 28.2155ZM2.02133 31.828C1.43501 31.828 0.961751 31.2962 0.961751 30.6396C0.961751 29.9806 1.43501 29.4488 2.02133 29.4488C2.60558 29.4488 3.07883 29.9806 3.07883 30.6396C3.07883 31.2962 2.60558 31.828 2.02133 31.828ZM4.89437 38.9354C4.30802 38.9354 3.83477 38.3965 3.83477 37.747C3.83477 37.0904 4.30802 36.5562 4.89437 36.5562C5.47859 36.5562 5.95185 37.0904 5.95185 37.747C5.95185 38.3965 5.47859 38.9354 4.89437 38.9354ZM18.8532 39.0931C18.2691 39.0931 17.7958 38.5613 17.7958 37.9046C17.7958 37.248 18.2691 36.7138 18.8532 36.7138C19.4396 36.7138 19.9128 37.248 19.9128 37.9046C19.9128 38.5613 19.4396 39.0931 18.8532 39.0931ZM2.02133 46.2593C1.43501 46.2593 0.961751 45.7275 0.961751 45.0779C0.961751 44.4213 1.43501 43.8895 2.02133 43.8895C2.60558 43.8895 3.07883 44.4213 3.07883 45.0779C3.07883 45.7275 2.60558 46.2593 2.02133 46.2593ZM67.8266 39.8085C67.8266 40.1828 67.5585 40.4911 67.2172 40.4911H24.7815C24.4464 40.4911 24.1721 40.1828 24.1721 39.8085V10.4187C24.1721 10.0445 24.4464 9.73623 24.7815 9.73623H67.2172C67.5585 9.73623 67.8266 10.0445 67.8266 10.4187V39.8085ZM89.9795 43.8895C90.5637 43.8895 91.037 44.4213 91.037 45.0779C91.037 45.7275 90.5637 46.2593 89.9795 46.2593C89.3931 46.2593 88.9199 45.7275 88.9199 45.0779C88.9199 44.4213 89.3931 43.8895 89.9795 43.8895ZM73.1455 36.7138C73.7296 36.7138 74.205 37.248 74.205 37.9046C74.205 38.5613 73.7296 39.0931 73.1455 39.0931C72.5653 39.0931 72.0858 38.5613 72.0858 37.9046C72.0858 37.248 72.5653 36.7138 73.1455 36.7138ZM87.1065 36.5562C87.6906 36.5562 88.1639 37.0904 88.1639 37.747C88.1639 38.3965 87.6906 38.9354 87.1065 38.9354C86.5201 38.9354 86.0468 38.3965 86.0468 37.747C86.0468 37.0904 86.5201 36.5562 87.1065 36.5562Z" fill="white"/>
</g>
<path d="M37.5195 19.4049C37.3792 19.0566 37.1279 18.8071 36.816 18.8071H33.61C33.2937 18.8071 33.0425 19.0708 32.9022 19.4261L28.5193 30.4943C28.3791 30.8426 28.603 31.1062 28.913 31.1062H31.4154C31.7316 31.1062 31.9954 30.8426 32.1253 30.4943L32.6677 28.9105H37.5948L38.1457 30.4943C38.2671 30.8426 38.5372 31.1062 38.8471 31.1062H41.5087C41.8186 31.1062 42.0426 30.8426 41.9023 30.4943L37.5195 19.4049ZM33.7628 26.0134L35.0967 22.4997H35.2496L36.5018 26.0134H33.7628Z" fill="white"/>
<path d="M49.136 18.8071H43.658C43.3418 18.8071 43.1094 19.0708 43.1094 19.4261V30.4943C43.1094 30.8426 43.3418 31.1062 43.658 31.1062H46.0055C46.3217 31.1062 46.5541 30.8426 46.5541 30.4943V27.7691H49.136C52.809 27.7691 54.5302 25.8369 54.5302 23.2882C54.5302 20.7393 52.809 18.8071 49.136 18.8071ZM49.136 24.9567H46.5541V21.6196H49.136C50.3045 21.6196 50.9307 22.3231 50.9307 23.2882C50.9307 24.2531 50.3045 24.9567 49.136 24.9567Z" fill="white"/>
<path d="M62.4354 18.8071H56.0172C55.7051 18.8071 55.4727 19.0708 55.4727 19.4261V21.1794C55.4727 21.5348 55.7051 21.796 56.0172 21.796H57.5017V28.1221H56.0172C55.7051 28.1221 55.4727 28.3857 55.4727 28.734V30.4943C55.4727 30.8426 55.7051 31.1062 56.0172 31.1062H62.4354C62.7452 31.1062 62.9797 30.8426 62.9797 30.4943V28.734C62.9797 28.3857 62.7452 28.1221 62.4354 28.1221H60.9485V21.796H62.4354C62.7452 21.796 62.9797 21.5348 62.9797 21.1794V19.4261C62.9797 19.0708 62.7452 18.8071 62.4354 18.8071Z" fill="white"/>
</g>
</g>
</g>
<defs>
<clipPath id="clip0_51_823">
<rect width="91.66" height="55" fill="white" transform="translate(0.169922 0.5)"/>
</clipPath>
<clipPath id="clip1_51_823">
<rect width="91.66" height="55" fill="white" transform="translate(0.169922 0.5)"/>
</clipPath>
<clipPath id="clip2_51_823">
<rect width="91.6667" height="55" fill="white" transform="translate(0.166016 0.5)"/>
</clipPath>
</defs>
</svg>
