<svg width="92" height="56" viewBox="0 0 92 56" fill="none" xmlns="http://www.w3.org/2000/svg">
<g clip-path="url(#clip0_1_1936)">
<g clip-path="url(#clip1_1_1936)">
<g clip-path="url(#clip2_1_1936)">
<mask id="mask0_1_1936" style="mask-type:luminance" maskUnits="userSpaceOnUse" x="0" y="0" width="92" height="56">
<path d="M0.166504 0.5H91.8332V55.3258H0.166504V0.5Z" fill="white"/>
</mask>
<g mask="url(#mask0_1_1936)">
<path d="M88.1644 31.0844C88.3466 32.0234 89.0899 32.72 89.9799 32.72C91.0039 32.72 91.8332 31.788 91.8332 30.6396C91.8332 29.4887 91.0039 28.5568 89.9799 28.5568C89.0899 28.5568 88.3466 29.2581 88.1644 30.1924H70.7419V27.46H71.3326C71.5084 28.3991 72.256 29.1146 73.146 29.1146C74.17 29.1146 75.0054 28.1755 75.0054 27.0247C75.0054 25.8762 74.17 24.9419 73.146 24.9419C72.2685 24.9419 71.5314 25.6338 71.3388 26.5588H70.7419V23.8264H76.4923L79.7464 27.4719H81.6247C81.8048 28.4108 82.5482 29.1146 83.4382 29.1146C84.4622 29.1146 85.2935 28.1755 85.2935 27.0247C85.2935 25.8762 84.4622 24.9419 83.4382 24.9419C82.5482 24.9419 81.8048 25.6456 81.6247 26.5775H80.073L76.821 22.9273H70.7419V20.1926H80.3201L83.6538 23.9323H88.1644C88.3466 24.8712 89.0899 25.5679 89.9799 25.5679C91.0039 25.5679 91.8332 24.6336 91.8332 23.4851C91.8332 22.3343 91.0039 21.4023 89.9799 21.4023C89.0899 21.4023 88.3466 22.106 88.1644 23.0379H83.9826L80.6531 19.2937H70.7419V16.5613H84.1752C84.3616 17.4932 85.105 18.1969 85.9886 18.1969C87.0126 18.1969 87.8503 17.2626 87.8503 16.1141C87.8503 14.9633 87.0126 14.0243 85.9886 14.0243C85.105 14.0243 84.3616 14.728 84.1752 15.6669H70.7419V12.9275H73.6485C73.8307 13.8619 74.574 14.5632 75.4619 14.5632C76.4859 14.5632 77.3173 13.6312 77.3173 12.4804C77.3173 11.3319 76.4859 10.3999 75.4619 10.3999C74.574 10.3999 73.8307 11.0942 73.6485 12.0356H70.7419V10.4188C70.7419 10.0304 70.6875 9.6492 70.5954 9.29618H75.6273L81.208 3.02896H84.7365C84.9187 3.96092 85.662 4.66461 86.5499 4.66461C87.5739 4.66461 88.4053 3.73028 88.4053 2.5818C88.4053 1.43097 87.5739 0.491943 86.5499 0.491943C85.662 0.491943 84.9187 1.19562 84.7365 2.12758H80.8813L75.2923 8.40187H70.2436C69.6301 7.24633 68.5056 6.46969 67.2177 6.46969H24.782C23.4941 6.46969 22.3717 7.24633 21.7561 8.40187H16.7074L11.1183 2.12758H7.26321C7.08312 1.19562 6.33973 0.491943 5.45605 0.491943C4.43206 0.491943 3.59446 1.43097 3.59446 2.5818C3.59446 3.73028 4.43206 4.66461 5.45605 4.66461C6.33973 4.66461 7.08312 3.96092 7.26321 3.02896H10.7917L16.3744 9.29618H21.4064C21.3122 9.6492 21.2639 10.0304 21.2639 10.4188V12.0356H18.3512C18.169 11.0942 17.4276 10.3999 16.5377 10.3999C15.5138 10.3999 14.6824 11.3319 14.6824 12.4804C14.6824 13.6312 15.5138 14.5632 16.5377 14.5632C17.4276 14.5632 18.169 13.8619 18.3512 12.9275H21.2639V15.6669H7.82441C7.64433 14.728 6.89465 14.0243 6.01097 14.0243C4.98699 14.0243 4.15565 14.9633 4.15565 16.1141C4.15565 17.2626 4.98699 18.1969 6.01097 18.1969C6.89465 18.1969 7.64433 17.4932 7.82441 16.5613H21.2639V19.2937H11.3466L8.01916 23.0379H3.83526C3.65308 22.106 2.90969 21.4023 2.02182 21.4023C0.997837 21.4023 0.166504 22.3343 0.166504 23.4851C0.166504 24.6336 0.997837 25.5679 2.02182 25.5679C2.90969 25.5679 3.65308 24.8712 3.83526 23.9323H8.34584L11.6816 20.1926H21.2639V22.9273H15.1808L11.9266 26.5775H10.3771C10.1949 25.6456 9.45148 24.9419 8.56152 24.9419C7.53753 24.9419 6.70829 25.8762 6.70829 27.0247C6.70829 28.1755 7.53753 29.1146 8.56152 29.1146C9.45148 29.1146 10.1949 28.4108 10.3771 27.4719H12.2554L15.5074 23.8264H21.2639V26.5588H20.663C20.4745 25.6338 19.7311 24.9419 18.8537 24.9419C17.8297 24.9419 16.9942 25.8762 16.9942 27.0247C16.9942 28.1755 17.8297 29.1146 18.8537 29.1146C19.75 29.1146 20.4934 28.3991 20.6671 27.46H21.2639V30.1924H3.83526C3.65308 29.2581 2.90969 28.5568 2.02182 28.5568C0.997837 28.5568 0.166504 29.4887 0.166504 30.6396C0.166504 31.788 0.997837 32.72 2.02182 32.72C2.90969 32.72 3.65308 32.0234 3.83526 31.0844H21.2639V33.8238H16.3744L13.2836 37.2998H6.70829C6.52611 36.3607 5.78272 35.6572 4.89485 35.6572C3.87087 35.6572 3.03953 36.5961 3.03953 37.747C3.03953 38.8954 3.87087 39.8298 4.89485 39.8298C5.78272 39.8298 6.52611 39.1261 6.70829 38.1941H13.6123L16.7074 34.7181H21.2639V37.4575H20.6671C20.4808 36.5184 19.7375 35.8219 18.8537 35.8219C17.8297 35.8219 16.9942 36.7538 16.9942 37.9047C16.9942 39.0532 17.8297 39.9875 18.8537 39.9875C19.7375 39.9875 20.4808 39.2838 20.6671 38.3495H21.2639V39.8085C21.2639 40.2557 21.329 40.6888 21.4525 41.0889H8.95519L5.80575 44.6237H3.83526C3.65308 43.6918 2.90969 42.9881 2.02182 42.9881C0.997837 42.9881 0.166504 43.9272 0.166504 45.078C0.166504 46.2194 0.997837 47.1608 2.02182 47.1608C2.90969 47.1608 3.65308 46.457 3.83526 45.5252H6.13453L9.28816 41.9832H21.844C22.4765 43.054 23.5528 43.7577 24.782 43.7577H37.719V52.8561H34.1716C32.9613 52.8561 31.9729 53.9599 31.9729 55.3249H60.0289C60.0289 53.9599 59.0447 52.8561 57.8281 52.8561H54.2828V43.7577H67.2177C68.4469 43.7577 69.5295 43.054 70.1557 41.9832H82.7115L85.8651 45.5252H88.1644C88.3466 46.457 89.0899 47.1608 89.9799 47.1608C91.0039 47.1608 91.8332 46.2194 91.8332 45.078C91.8332 43.9272 91.0039 42.9881 89.9799 42.9881C89.0899 42.9881 88.3466 43.6918 88.1644 44.6237H86.194L83.0466 41.0889H70.5472C70.6707 40.6888 70.7419 40.2557 70.7419 39.8085V38.3495H71.3388C71.5189 39.2838 72.2622 39.9875 73.146 39.9875C74.17 39.9875 75.0054 39.0532 75.0054 37.9047C75.0054 36.7538 74.17 35.8219 73.146 35.8219C72.2622 35.8219 71.5189 36.5184 71.3388 37.4575H70.7419V34.7181H75.2923L78.3874 38.1941H85.2935C85.4798 39.1261 86.2232 39.8298 87.107 39.8298C88.131 39.8298 88.9602 38.8954 88.9602 37.747C88.9602 36.5961 88.131 35.6572 87.107 35.6572C86.2232 35.6572 85.4798 36.3607 85.2935 37.2998H78.7224L75.6273 33.8238H70.7419V31.0844H88.1644ZM89.9799 29.4488C90.5642 29.4488 91.0375 29.9806 91.0375 30.6396C91.0375 31.2962 90.5642 31.828 89.9799 31.828C89.3936 31.828 88.9204 31.2962 88.9204 30.6396C88.9204 29.9806 89.3936 29.4488 89.9799 29.4488ZM73.146 25.8361C73.7301 25.8361 74.2055 26.3751 74.2055 27.0247C74.2055 27.6813 73.7301 28.2155 73.146 28.2155C72.5658 28.2155 72.0863 27.6813 72.0863 27.0247C72.0863 26.3751 72.5658 25.8361 73.146 25.8361ZM83.4382 25.8361C84.0223 25.8361 84.4977 26.3751 84.4977 27.0247C84.4977 27.6813 84.0223 28.2155 83.4382 28.2155C82.8518 28.2155 82.3785 27.6813 82.3785 27.0247C82.3785 26.3751 82.8518 25.8361 83.4382 25.8361ZM89.9799 22.2967C90.5642 22.2967 91.0375 22.8285 91.0375 23.4851C91.0375 24.1417 90.5642 24.6735 89.9799 24.6735C89.3936 24.6735 88.9204 24.1417 88.9204 23.4851C88.9204 22.8285 89.3936 22.2967 89.9799 22.2967ZM85.9886 14.9257C86.5729 14.9257 87.0483 15.4575 87.0483 16.1141C87.0483 16.7637 86.5729 17.3025 85.9886 17.3025C85.4045 17.3025 84.9291 16.7637 84.9291 16.1141C84.9291 15.4575 85.4045 14.9257 85.9886 14.9257ZM75.4619 11.2919C76.0483 11.2919 76.5216 11.8238 76.5216 12.4804C76.5216 13.1394 76.0483 13.6712 75.4619 13.6712C74.8777 13.6712 74.4045 13.1394 74.4045 12.4804C74.4045 11.8238 74.8777 11.2919 75.4619 11.2919ZM86.5499 1.39331C87.13 1.39331 87.6095 1.9252 87.6095 2.5818C87.6095 3.23841 87.13 3.77029 86.5499 3.77029C85.9657 3.77029 85.4924 3.23841 85.4924 2.5818C85.4924 1.9252 85.9657 1.39331 86.5499 1.39331ZM5.45605 3.77029C4.86972 3.77029 4.39647 3.23841 4.39647 2.5818C4.39647 1.9252 4.86972 1.39331 5.45605 1.39331C6.034 1.39331 6.51563 1.9252 6.51563 2.5818C6.51563 3.23841 6.034 3.77029 5.45605 3.77029ZM16.5377 13.6712C15.9577 13.6712 15.4781 13.1394 15.4781 12.4804C15.4781 11.8238 15.9577 11.2919 16.5377 11.2919C17.122 11.2919 17.6015 11.8238 17.6015 12.4804C17.6015 13.1394 17.122 13.6712 16.5377 13.6712ZM6.01097 17.3025C5.42673 17.3025 4.95139 16.7637 4.95139 16.1141C4.95139 15.4575 5.42673 14.9257 6.01097 14.9257C6.5973 14.9257 7.07055 15.4575 7.07055 16.1141C7.07055 16.7637 6.5973 17.3025 6.01097 17.3025ZM2.02182 24.6735C1.43549 24.6735 0.96224 24.1417 0.96224 23.4851C0.96224 22.8285 1.43549 22.2967 2.02182 22.2967C2.60606 22.2967 3.07932 22.8285 3.07932 23.4851C3.07932 24.1417 2.60606 24.6735 2.02182 24.6735ZM8.56152 28.2155C7.97728 28.2155 7.50403 27.6813 7.50403 27.0247C7.50403 26.3751 7.97728 25.8361 8.56152 25.8361C9.14785 25.8361 9.6211 26.3751 9.6211 27.0247C9.6211 27.6813 9.14785 28.2155 8.56152 28.2155ZM18.8537 28.2155C18.2695 28.2155 17.7963 27.6813 17.7963 27.0247C17.7963 26.3751 18.2695 25.8361 18.8537 25.8361C19.4401 25.8361 19.9133 26.3751 19.9133 27.0247C19.9133 27.6813 19.4401 28.2155 18.8537 28.2155ZM2.02182 31.828C1.43549 31.828 0.96224 31.2962 0.96224 30.6396C0.96224 29.9806 1.43549 29.4488 2.02182 29.4488C2.60606 29.4488 3.07932 29.9806 3.07932 30.6396C3.07932 31.2962 2.60606 31.828 2.02182 31.828ZM4.89485 38.9354C4.30851 38.9354 3.83526 38.3966 3.83526 37.747C3.83526 37.0904 4.30851 36.5562 4.89485 36.5562C5.47908 36.5562 5.95233 37.0904 5.95233 37.747C5.95233 38.3966 5.47908 38.9354 4.89485 38.9354ZM18.8537 39.0931C18.2695 39.0931 17.7963 38.5613 17.7963 37.9047C17.7963 37.2481 18.2695 36.7139 18.8537 36.7139C19.4401 36.7139 19.9133 37.2481 19.9133 37.9047C19.9133 38.5613 19.4401 39.0931 18.8537 39.0931ZM2.02182 46.2593C1.43549 46.2593 0.96224 45.7275 0.96224 45.078C0.96224 44.4213 1.43549 43.8895 2.02182 43.8895C2.60606 43.8895 3.07932 44.4213 3.07932 45.078C3.07932 45.7275 2.60606 46.2593 2.02182 46.2593ZM67.8271 39.8085C67.8271 40.1828 67.559 40.4911 67.2177 40.4911H24.782C24.4469 40.4911 24.1726 40.1828 24.1726 39.8085V10.4188C24.1726 10.0446 24.4469 9.73627 24.782 9.73627H67.2177C67.559 9.73627 67.8271 10.0446 67.8271 10.4188V39.8085ZM89.9799 43.8895C90.5642 43.8895 91.0375 44.4213 91.0375 45.078C91.0375 45.7275 90.5642 46.2593 89.9799 46.2593C89.3936 46.2593 88.9204 45.7275 88.9204 45.078C88.9204 44.4213 89.3936 43.8895 89.9799 43.8895ZM73.146 36.7139C73.7301 36.7139 74.2055 37.2481 74.2055 37.9047C74.2055 38.5613 73.7301 39.0931 73.146 39.0931C72.5658 39.0931 72.0863 38.5613 72.0863 37.9047C72.0863 37.2481 72.5658 36.7139 73.146 36.7139ZM87.107 36.5562C87.6911 36.5562 88.1644 37.0904 88.1644 37.747C88.1644 38.3966 87.6911 38.9354 87.107 38.9354C86.5206 38.9354 86.0473 38.3966 86.0473 37.747C86.0473 37.0904 86.5206 36.5562 87.107 36.5562Z" fill="#0575AD"/>
</g>
<path d="M37.519 19.4049C37.3787 19.0566 37.1274 18.8071 36.8155 18.8071H33.6095C33.2932 18.8071 33.042 19.0708 32.9017 19.4261L28.5188 30.4943C28.3786 30.8427 28.6026 31.1063 28.9125 31.1063H31.4149C31.7311 31.1063 31.9949 30.8427 32.1248 30.4943L32.6672 28.9105H37.5944L38.1452 30.4943C38.2666 30.8427 38.5367 31.1063 38.8467 31.1063H41.5082C41.8181 31.1063 42.0422 30.8427 41.9018 30.4943L37.519 19.4049ZM33.7623 26.0134L35.0962 22.4997H35.2491L36.5013 26.0134H33.7623Z" fill="#0575AD"/>
<path d="M49.1355 18.8071H43.6575C43.3413 18.8071 43.1089 19.0708 43.1089 19.4261V30.4943C43.1089 30.8427 43.3413 31.1063 43.6575 31.1063H46.005C46.3212 31.1063 46.5536 30.8427 46.5536 30.4943V27.7692H49.1355C52.8085 27.7692 54.5297 25.837 54.5297 23.2882C54.5297 20.7393 52.8085 18.8071 49.1355 18.8071ZM49.1355 24.9567H46.5536V21.6196H49.1355C50.304 21.6196 50.9302 22.3232 50.9302 23.2882C50.9302 24.2531 50.304 24.9567 49.1355 24.9567Z" fill="#0575AD"/>
<path d="M62.4349 18.8071H56.0167C55.7046 18.8071 55.4722 19.0708 55.4722 19.4261V21.1795C55.4722 21.5348 55.7046 21.796 56.0167 21.796H57.5012V28.1222H56.0167C55.7046 28.1222 55.4722 28.3857 55.4722 28.7341V30.4943C55.4722 30.8427 55.7046 31.1063 56.0167 31.1063H62.4349C62.7447 31.1063 62.9792 30.8427 62.9792 30.4943V28.7341C62.9792 28.3857 62.7447 28.1222 62.4349 28.1222H60.9481V21.796H62.4349C62.7447 21.796 62.9792 21.5348 62.9792 21.1795V19.4261C62.9792 19.0708 62.7447 18.8071 62.4349 18.8071Z" fill="#0575AD"/>
</g>
</g>
</g>
<defs>
<clipPath id="clip0_1_1936">
<rect width="91.66" height="55" fill="white" transform="translate(0.169922 0.5)"/>
</clipPath>
<clipPath id="clip1_1_1936">
<rect width="91.66" height="55" fill="white" transform="translate(0.169922 0.5)"/>
</clipPath>
<clipPath id="clip2_1_1936">
<rect width="91.6667" height="55" fill="white" transform="translate(0.166504 0.5)"/>
</clipPath>
</defs>
</svg>
