<svg width="66" height="65" viewBox="0 0 66 65" fill="none" xmlns="http://www.w3.org/2000/svg">
<rect x="0.5" width="65" height="65" rx="8" fill="#00D280" fill-opacity="0.2"/>
<g clip-path="url(#clip0_1_1818)">
<g clip-path="url(#clip1_1_1818)">
<g clip-path="url(#clip2_1_1818)">
<mask id="mask0_1_1818" style="mask-type:luminance" maskUnits="userSpaceOnUse" x="12" y="11" width="42" height="42">
<path d="M12.9458 11.9907H53.0545V52.0994H12.9458V11.9907Z" fill="white"/>
</mask>
<g mask="url(#mask0_1_1818)">
<path d="M52.7399 29.5399L49.3718 27.5713C49.1772 27.4571 48.9375 27.4571 48.7429 27.5713L45.3748 29.5399C45.1803 29.6541 45.0606 29.8644 45.0606 30.0917V31.4236H39.7568V30.5272L43.9482 29.0887C44.2037 29.001 44.3756 28.7586 44.3756 28.4853V25.4219L47.429 23.6366C47.6235 23.5229 47.7432 23.3127 47.7432 23.0848V19.147C47.7432 18.9192 47.6235 18.7089 47.429 18.5952L44.061 16.6261C43.8664 16.5124 43.6266 16.5124 43.4321 16.6261L40.064 18.5948C39.869 18.7089 39.7494 18.9192 39.7494 19.1466V23.0848C39.7494 23.3127 39.869 23.5229 40.064 23.6366L43.117 25.4215V28.0283L39.7568 29.1816V28.4783C39.7568 28.2508 39.6366 28.0402 39.4421 27.9265L33.6295 24.5281V20.9024L36.6824 19.1175C36.877 19.0038 36.9971 18.7931 36.9971 18.5657V14.6275C36.9971 14.4001 36.877 14.1898 36.6824 14.0761L33.3148 12.107C33.1199 11.9933 32.88 11.9933 32.6855 12.107L29.3179 14.0761C29.1229 14.1898 29.0032 14.4001 29.0032 14.6275V18.5657C29.0032 18.7936 29.1229 19.0038 29.3179 19.1175L32.3708 20.9028V24.5281L26.5582 27.9269C26.3632 28.0407 26.2435 28.2508 26.2435 28.4783V29.1816L22.8829 28.0287V25.4219L25.9363 23.6366C26.1309 23.5229 26.2509 23.3127 26.2509 23.0848V19.147C26.2509 18.9192 26.1309 18.7089 25.9363 18.5952L22.5682 16.6261C22.3741 16.5124 22.1339 16.5124 21.9393 16.6261L18.5713 18.5948C18.3767 18.7089 18.2566 18.9192 18.2566 19.1466V23.0848C18.2566 23.3127 18.3767 23.5229 18.5713 23.6366L21.6247 25.4219V28.4853C21.6247 28.7586 21.7966 29.001 22.0521 29.0887L26.2435 30.5272V31.4236H20.9397V30.0917C20.9397 29.8644 20.82 29.6541 20.625 29.5399L17.2574 27.5713C17.0629 27.4571 16.8231 27.4571 16.6281 27.5713L13.2605 29.5399C13.0655 29.6541 12.9458 29.8644 12.9458 30.0917V34.03C12.9458 34.2574 13.0655 34.4681 13.2605 34.5818L16.6281 36.5509C16.7256 36.6077 16.8339 36.636 16.9427 36.636C17.0515 36.636 17.1599 36.6077 17.2574 36.5509L20.625 34.5818C20.82 34.4681 20.9397 34.2574 20.9397 34.03V32.6982H26.2435V33.5946L22.0521 35.0331C21.7966 35.1208 21.6247 35.3632 21.6247 35.6364V38.7002L18.5713 40.4852C18.3767 40.5989 18.2566 40.8091 18.2566 41.037V44.9752C18.2566 45.2026 18.3767 45.4128 18.5713 45.5266L21.9393 47.4956C22.0364 47.5529 22.1452 47.5811 22.2536 47.5811C22.3623 47.5811 22.4712 47.5529 22.5682 47.4956L25.9363 45.5266C26.1309 45.4128 26.2505 45.2026 26.2505 44.9752V41.037C26.2505 40.8095 26.1309 40.5989 25.9363 40.4852L22.8829 38.7002V36.0934L26.2435 34.9401V35.6434C26.2435 35.8709 26.3632 36.0815 26.5582 36.1952L32.3708 39.5936V43.2193L29.3175 45.0042C29.1229 45.118 29.0032 45.3281 29.0032 45.5561V49.4943C29.0032 49.7217 29.1229 49.9319 29.3175 50.0461L32.6855 52.0152C32.7829 52.072 32.8913 52.1003 33.0001 52.1003C33.1085 52.1003 33.2174 52.072 33.3148 52.0152L36.6824 50.0461C36.877 49.9319 36.9971 49.7217 36.9971 49.4943V45.5561C36.9971 45.3286 36.877 45.118 36.6824 45.0042L33.6295 43.2193V39.5936L39.4421 36.1952C39.6366 36.0815 39.7568 35.8709 39.7568 35.6434V34.9401L43.117 36.093V38.7002L40.064 40.4852C39.869 40.5989 39.7494 40.8095 39.7494 41.037V44.9752C39.7494 45.2026 39.869 45.4128 40.064 45.527L43.4316 47.4961C43.5291 47.5529 43.6375 47.5811 43.7462 47.5811C43.8551 47.5811 43.9635 47.5529 44.061 47.4961L47.4286 45.527C47.6235 45.4128 47.7432 45.2026 47.7432 44.9752V41.037C47.7432 40.8095 47.6235 40.5989 47.4286 40.4852L44.3756 38.7002V35.6364C44.3756 35.3632 44.2037 35.1208 43.9482 35.0331L39.7563 33.5946V32.6982H45.0602V34.03C45.0602 34.2574 45.1803 34.4681 45.3748 34.5818L48.7425 36.5509C48.84 36.6077 48.9488 36.636 49.0571 36.636C49.1659 36.636 49.2747 36.6077 49.3718 36.5509L52.7399 34.5818C52.9343 34.4681 53.0545 34.2574 53.0545 34.03V30.0917C53.0545 29.8644 52.9343 29.6541 52.7399 29.5399ZM44.3756 23.9504V21.4837L46.485 20.2501V22.7173L44.3756 23.9504ZM43.7462 17.9134L45.8557 19.147L43.7462 20.3801L41.6368 19.147L43.7462 17.9134ZM41.0075 20.2501L43.1174 21.4837V23.9504L41.0075 22.7168V20.2501ZM22.8829 23.9504V21.4837L24.9923 20.2501V22.7173L22.8829 23.9504ZM22.254 17.9134L24.3635 19.147L22.254 20.3801L20.1441 19.147L22.254 17.9134ZM19.5153 20.2501L21.6247 21.4837V23.9504L19.5153 22.7168V20.2501ZM16.9427 28.8586L19.0522 30.0917L16.9427 31.3253L14.8333 30.0917L16.9427 28.8586ZM14.204 31.1953L16.3134 32.4288V34.8955L14.204 33.662V31.1953ZM19.6815 33.662L17.5721 34.8955V32.4288L19.6815 31.1953V33.662ZM24.3635 41.037L22.254 42.2705L20.1441 41.037L22.1688 39.8531C22.1966 39.8571 22.2248 39.8598 22.254 39.8598C22.2827 39.8598 22.3114 39.8571 22.3393 39.8531L24.3635 41.037ZM19.5153 42.1405L21.6247 43.3736V45.8407L19.5153 44.6072V42.1405ZM22.8829 45.8403V43.3736L24.9923 42.1405V44.6072L22.8829 45.8403ZM43.7462 39.8598C43.7755 39.8598 43.8037 39.8571 43.8315 39.8536L45.8557 41.037L43.7462 42.2705L41.6368 41.037L43.661 39.8536C43.6888 39.8571 43.7171 39.8598 43.7462 39.8598ZM41.0075 42.1405L43.1174 43.3736V45.8407L41.0075 44.6072V42.1405ZM44.3756 45.8403V43.3736L46.485 42.1405V44.6072L44.3756 45.8403ZM33.0001 46.7896L30.8903 45.5561L33.0001 44.3229L35.1096 45.5561L33.0001 46.7896ZM33.0001 31.3253L28.131 28.4783L33.0001 25.6317L37.8693 28.4783L33.0001 31.3253ZM33.6295 19.4313V16.9646L35.7389 15.731V18.1981L33.6295 19.4313ZM33.0001 13.3943L35.1096 14.6275L33.0001 15.861L30.8907 14.6275L33.0001 13.3943ZM30.2613 18.1977V15.731L32.3708 16.9646V19.4313L30.2613 18.1977ZM27.5018 35.2755V29.5818L32.3708 32.4288V38.1225L27.5018 35.2755ZM30.2613 46.6596L32.3708 47.8931V50.3598L30.2613 49.1263V46.6596ZM33.6295 50.3598V47.8931L35.7389 46.6596V49.1263L33.6295 50.3598ZM38.4985 35.2755L33.6295 38.1225V32.4288L38.4982 29.5818L38.4985 35.2755ZM49.0575 28.8586L51.167 30.0917L49.0575 31.3253L46.9476 30.0917L49.0575 28.8586ZM46.3188 31.1953L48.4283 32.4288V34.8955L46.3188 33.662V31.1953ZM49.6864 34.8955V32.4288L51.7963 31.1953V33.662L49.6864 34.8955Z" fill="#00D280"/>
</g>
</g>
</g>
</g>
<defs>
<clipPath id="clip0_1_1818">
<rect width="41" height="40.09" fill="white" transform="translate(12.5 12)"/>
</clipPath>
<clipPath id="clip1_1_1818">
<rect width="41" height="40.09" fill="white" transform="translate(12.5 12)"/>
</clipPath>
<clipPath id="clip2_1_1818">
<rect width="41" height="40.1087" fill="white" transform="translate(12.5 11.9907)"/>
</clipPath>
</defs>
</svg>
