<svg width="92" height="56" viewBox="0 0 92 56" fill="none" xmlns="http://www.w3.org/2000/svg">
<g clip-path="url(#clip0_51_805)">
<g clip-path="url(#clip1_51_805)">
<g clip-path="url(#clip2_51_805)">
<mask id="mask0_51_805" style="mask-type:luminance" maskUnits="userSpaceOnUse" x="0" y="0" width="92" height="56">
<path d="M0.166016 0.5H91.8327V55.5H0.166016V0.5Z" fill="white"/>
</mask>
<g mask="url(#mask0_51_805)">
<path d="M50.4597 17.0233C46.6621 14.5826 42.3076 13.1962 37.6824 13.1962C30.4434 13.1962 23.8747 16.5903 19.0527 22.1051L9.51407 15.5617C16.393 6.32793 26.4628 0.504761 37.6824 0.504761C42.8924 0.504761 47.8538 1.76166 52.3635 4.03067C53.3681 2.94325 54.6949 2.28184 56.1511 2.28184H86.1417C89.2927 2.28184 91.833 5.37702 91.833 9.17597V27.1233C91.833 30.9222 89.2927 34.0174 86.1417 34.0174H74.0786C74.8226 37.5057 75.2185 41.1587 75.2185 44.9223H64.4942C64.4942 41.0905 63.9193 37.4186 62.8689 34.0174H56.1511C53 34.0174 50.4597 30.9222 50.4597 27.1233V17.0233ZM5.5514 21.9427L13.8169 30.4444C12.0206 34.5847 10.9702 39.2498 10.8767 44.1974C10.8747 44.3575 10.8728 44.5998 10.8708 44.9223H0.146484C0.146484 44.6093 0.148474 44.2986 0.154442 43.9879C0.293692 35.931 2.24718 28.399 5.5514 21.9427ZM32.0806 45.4943L6.71513 20.6481C6.2198 20.1327 6.08851 19.2594 6.43663 18.565C6.4605 18.518 6.48238 18.4756 6.51023 18.4308C6.92799 17.7507 7.72371 17.5435 8.35232 17.9813L36.1587 38.8544C38.4186 37.6234 41.1499 37.8022 43.3082 39.6569C46.489 42.392 47.1952 47.6621 44.8838 51.428C42.5702 55.1941 38.1162 56.0273 34.9352 53.2923C32.7789 51.4374 31.7902 48.42 32.0806 45.4943ZM90.6315 12.2076V9.17597C90.6315 6.15375 88.6223 3.7035 86.1417 3.7035H56.1511C53.6724 3.7035 51.6612 6.15375 51.6612 9.17597V12.2076H90.6315ZM90.6315 14.2836H51.6612V27.1233C51.6612 30.1455 53.6724 32.5958 56.1511 32.5958H86.1417C88.6223 32.5958 90.6315 30.1455 90.6315 27.1233V14.2836ZM77.8801 18.5886C78.9225 18.5886 79.8694 19.0781 80.5756 19.8808C81.2798 19.0781 82.2267 18.5886 83.2691 18.5886C85.4514 18.5886 87.2198 20.7423 87.2198 23.402C87.2198 26.0618 85.4514 28.2178 83.2691 28.2178C82.2267 28.2178 81.2798 27.7282 80.5756 26.9255C79.8694 27.7282 78.9225 28.2178 77.8801 28.2178C75.6999 28.2178 73.9294 26.0618 73.9294 23.402C73.9294 20.7423 75.6999 18.5886 77.8801 18.5886Z" fill="white"/>
</g>
</g>
</g>
</g>
<defs>
<clipPath id="clip0_51_805">
<rect width="91.66" height="55" fill="white" transform="translate(0.169922 0.5)"/>
</clipPath>
<clipPath id="clip1_51_805">
<rect width="91.66" height="55" fill="white" transform="translate(0.169922 0.5)"/>
</clipPath>
<clipPath id="clip2_51_805">
<rect width="91.6667" height="55" fill="white" transform="translate(0.166016 0.5)"/>
</clipPath>
</defs>
</svg>
