<svg width="92" height="56" viewBox="0 0 92 56" fill="none" xmlns="http://www.w3.org/2000/svg">
<g clip-path="url(#clip0_1_1920)">
<mask id="mask0_1_1920" style="mask-type:luminance" maskUnits="userSpaceOnUse" x="0" y="0" width="92" height="56">
<path d="M0.166504 0.5H91.8332V55.5H0.166504V0.5Z" fill="white"/>
</mask>
<g mask="url(#mask0_1_1920)">
<path d="M50.4606 17.0235C46.6631 14.5827 42.3085 13.1963 37.6834 13.1963C30.4444 13.1963 23.8757 16.5904 19.0537 22.1052L9.51504 15.5618C16.394 6.32806 26.4638 0.504883 37.6834 0.504883C42.8934 0.504883 47.8547 1.76178 52.3645 4.03079C53.369 2.94337 54.6959 2.28196 56.152 2.28196H86.1427C89.2937 2.28196 91.834 5.37714 91.834 9.17609V27.1234C91.834 30.9223 89.2937 34.0175 86.1427 34.0175H74.0796C74.8236 37.5058 75.2194 41.1588 75.2194 44.9224H64.4952C64.4952 41.0906 63.9202 37.4187 62.8699 34.0175H56.152C53.001 34.0175 50.4606 30.9223 50.4606 27.1234V17.0235ZM5.55238 21.9428L13.8179 30.4446C12.0216 34.5848 10.9712 39.2499 10.8777 44.1975C10.8757 44.3576 10.8737 44.6 10.8717 44.9224H0.147461C0.147461 44.6094 0.14945 44.2987 0.155418 43.988C0.294669 35.9311 2.24816 28.3992 5.55238 21.9428ZM32.0816 45.4944L6.7161 20.6482C6.22077 20.1328 6.08948 19.2595 6.43761 18.5652C6.46148 18.5181 6.48336 18.4757 6.51121 18.431C6.92897 17.7508 7.72468 17.5436 8.3533 17.9814L36.1597 38.8545C38.4195 37.6235 41.1508 37.8023 43.3092 39.6571C46.49 42.3921 47.1962 47.6622 44.8847 51.4282C42.5712 55.1942 38.1172 56.0274 34.9362 53.2924C32.7798 51.4376 31.7912 48.4201 32.0816 45.4944ZM90.6325 12.2077V9.17609C90.6325 6.15388 88.6233 3.70363 86.1427 3.70363H56.152C53.6734 3.70363 51.6622 6.15388 51.6622 9.17609V12.2077H90.6325ZM90.6325 14.2837H51.6622V27.1234C51.6622 30.1456 53.6734 32.5959 56.152 32.5959H86.1427C88.6233 32.5959 90.6325 30.1456 90.6325 27.1234V14.2837ZM77.8811 18.5888C78.9235 18.5888 79.8704 19.0783 80.5766 19.8809C81.2808 19.0783 82.2277 18.5888 83.2701 18.5888C85.4524 18.5888 87.2208 20.7424 87.2208 23.4021C87.2208 26.0619 85.4524 28.2179 83.2701 28.2179C82.2277 28.2179 81.2808 27.7283 80.5766 26.9257C79.8704 27.7283 78.9235 28.2179 77.8811 28.2179C75.7009 28.2179 73.9304 26.0619 73.9304 23.4021C73.9304 20.7424 75.7009 18.5888 77.8811 18.5888Z" fill="#0575AD"/>
</g>
</g>
<defs>
<clipPath id="clip0_1_1920">
<rect width="91.6667" height="55" fill="white" transform="translate(0.166504 0.5)"/>
</clipPath>
</defs>
</svg>
