<svg width="60" height="56" viewBox="0 0 60 56" fill="none" xmlns="http://www.w3.org/2000/svg">
<g clip-path="url(#clip0_51_771)">
<g clip-path="url(#clip1_51_771)">
<g clip-path="url(#clip2_51_771)">
<mask id="mask0_51_771" style="mask-type:luminance" maskUnits="userSpaceOnUse" x="0" y="0" width="60" height="56">
<path d="M0.164062 0.5H59.8449V55.3582H0.164062V0.5Z" fill="white"/>
</mask>
<g mask="url(#mask0_51_771)">
<path fill-rule="evenodd" clip-rule="evenodd" d="M20.6048 52.6766H39.3763C41.3112 52.6766 41.3112 55.3582 39.3763 55.3582H20.6048C18.6963 55.3582 18.6963 52.6766 20.6048 52.6766ZM49.6106 6.56725V28.7448H47.6756V6.56725H49.6106ZM14.2947 0.5H45.7127C47.8605 0.5 49.6106 2.10717 49.6106 4.08149V5.66581H10.3704V4.08149C10.3704 2.10717 12.1468 0.5 14.2947 0.5ZM29.9904 15.2188C34.5505 15.2188 38.2091 18.606 38.2091 22.7746C38.2091 26.9419 34.5505 30.3291 29.9904 30.3291C25.4569 30.3291 21.7719 26.9419 21.7719 22.7746C21.7719 18.606 25.4569 15.2188 29.9904 15.2188ZM5.49338 23.7975C5.49338 23.7975 4.59195 13.3187 17.7155 13.1474H23.1769V15.9503L29.9904 11.4659L23.1769 6.95726V9.76016H16.4954C11.4848 9.76016 4.06041 12.0273 5.49338 23.7975ZM54.5156 21.7504C54.5156 21.7504 55.4171 32.2291 42.2935 32.4006H36.8305V29.5977L29.9904 34.0821L36.8305 38.5907V35.7878H43.4856C48.4962 35.7878 55.9471 33.522 54.5156 21.7504ZM30.7599 16.7303V18.0217C31.4483 18.1674 31.9798 18.4603 32.3497 18.8746C32.8284 19.3861 33.0662 20.0447 33.0662 20.7033C33.0662 20.7518 33.0662 20.8246 33.0662 20.8732L31.5556 20.8246C31.5556 20.776 31.5556 20.7275 31.5556 20.7033C31.5556 20.3618 31.4483 20.0203 31.2105 19.7761C30.9976 19.5332 30.6277 19.3861 30.1505 19.3617C30.0962 19.3617 30.0433 19.3375 29.9904 19.3617C29.5398 19.3617 29.1684 19.5089 28.9306 19.7275C28.7441 19.8746 28.6119 20.0932 28.5327 20.3132C28.4798 20.5318 28.4798 20.7518 28.5327 20.9704C28.5855 21.1661 28.7176 21.3361 28.9041 21.4576L30.3355 22.1646L31.7934 22.8718L31.8198 22.8961C32.4041 23.2132 32.774 23.6762 32.9341 24.2361C33.0662 24.6747 33.0398 25.1375 32.9077 25.6005C32.774 26.0647 32.5098 26.4791 32.1119 26.819C31.7405 27.1361 31.2898 27.3805 30.7599 27.502V28.8176H29.2491V27.5262C28.559 27.3805 28.0292 27.0876 27.6576 26.6733C27.1805 26.1619 26.9412 25.5033 26.9412 24.8462C26.9412 24.7962 26.9412 24.7233 26.9412 24.6747L28.4534 24.7233C28.427 24.7719 28.427 24.8218 28.427 24.8462C28.4534 25.1861 28.559 25.5276 28.7985 25.7719C29.0098 26.0147 29.3548 26.1619 29.8584 26.1862C29.9112 26.1862 29.9641 26.1862 29.9904 26.1862C30.4677 26.1862 30.8126 26.0391 31.0784 25.8205C31.2634 25.6748 31.3955 25.4548 31.4483 25.2362C31.5292 25.0162 31.5292 24.7962 31.4747 24.5776C31.422 24.3818 31.2898 24.2119 31.1048 24.1147L29.619 23.3833L28.1876 22.6518H28.1612C27.6049 22.3361 27.2334 21.8475 27.0749 21.3118C26.9412 20.8732 26.9412 20.4103 27.1013 19.9475C27.2334 19.4846 27.4992 19.0703 27.8971 18.7289C28.2405 18.4117 28.6912 18.1674 29.2491 18.0461V16.7303H30.7599ZM14.6398 2.18146C15.1697 2.18146 15.594 2.57146 15.594 3.08291C15.594 3.57005 15.1697 3.98434 14.6398 3.98434C14.0834 3.98434 13.6591 3.57005 13.6591 3.08291C13.6591 2.57146 14.0834 2.18146 14.6398 2.18146ZM21.0818 2.18146C21.6135 2.18146 22.0362 2.57146 22.0362 3.08291C22.0362 3.57005 21.6135 3.98434 21.0818 3.98434C20.5255 3.98434 20.1012 3.57005 20.1012 3.08291C20.1012 2.57146 20.5255 2.18146 21.0818 2.18146ZM17.8476 2.18146C18.3776 2.18146 18.8284 2.57146 18.8284 3.08291C18.8284 3.57005 18.3776 3.98434 17.8476 3.98434C17.3176 3.98434 16.867 3.57005 16.867 3.08291C16.867 2.57146 17.3176 2.18146 17.8476 2.18146ZM10.3704 37.1278V16.4131H12.3333V37.1278H10.3704ZM10.3704 8.95586V6.56725H12.3333V8.95586H10.3704ZM22.3019 48.1195H37.6791V51.6038H22.3019V48.1195ZM3.37191 7.4687H7.90548V9.95445H3.90189V40.7593H56.1055V9.95445H52.102V7.4687H56.609C58.3855 7.4687 59.8449 8.81015 59.8449 10.4187V43.6837C59.8449 45.2922 58.3855 46.6322 56.609 46.6322H3.37191C1.62189 46.6322 0.164062 45.2922 0.164062 43.6837V10.4187C0.164062 8.81015 1.62189 7.4687 3.37191 7.4687Z" fill="white"/>
</g>
</g>
</g>
</g>
<defs>
<clipPath id="clip0_51_771">
<rect width="59.67" height="55" fill="white" transform="translate(0.169922 0.5)"/>
</clipPath>
<clipPath id="clip1_51_771">
<rect width="59.67" height="55" fill="white" transform="translate(0.169922 0.5)"/>
</clipPath>
<clipPath id="clip2_51_771">
<rect width="59.6809" height="55" fill="white" transform="translate(0.164062 0.5)"/>
</clipPath>
</defs>
</svg>
