<svg width="60" height="56" viewBox="0 0 60 56" fill="none" xmlns="http://www.w3.org/2000/svg">
<g clip-path="url(#clip0_1_1884)">
<g clip-path="url(#clip1_1_1884)">
<g clip-path="url(#clip2_1_1884)">
<mask id="mask0_1_1884" style="mask-type:luminance" maskUnits="userSpaceOnUse" x="0" y="0" width="60" height="56">
<path d="M0.164551 0.5H59.8454V55.3582H0.164551V0.5Z" fill="white"/>
</mask>
<g mask="url(#mask0_1_1884)">
<path fill-rule="evenodd" clip-rule="evenodd" d="M20.6052 52.6766H39.3767C41.3117 52.6766 41.3117 55.3582 39.3767 55.3582H20.6052C18.6967 55.3582 18.6967 52.6766 20.6052 52.6766ZM49.6111 6.56725V28.7448H47.6761V6.56725H49.6111ZM14.2952 0.5H45.7132C47.861 0.5 49.6111 2.10717 49.6111 4.08149V5.66581H10.3709V4.08149C10.3709 2.10717 12.1473 0.5 14.2952 0.5ZM29.9909 15.2188C34.551 15.2188 38.2096 18.606 38.2096 22.7746C38.2096 26.9419 34.551 30.3291 29.9909 30.3291C25.4574 30.3291 21.7724 26.9419 21.7724 22.7746C21.7724 18.606 25.4574 15.2188 29.9909 15.2188ZM5.49386 23.7975C5.49386 23.7975 4.59244 13.3187 17.716 13.1474H23.1774V15.9503L29.9909 11.4659L23.1774 6.95726V9.76016H16.4959C11.4853 9.76016 4.0609 12.0273 5.49386 23.7975ZM54.5161 21.7504C54.5161 21.7504 55.4175 32.2291 42.294 32.4006H36.8309V29.5977L29.9909 34.0821L36.8309 38.5907V35.7878H43.4861C48.4967 35.7878 55.9475 33.522 54.5161 21.7504ZM30.7603 16.7303V18.0217C31.4488 18.1674 31.9803 18.4603 32.3502 18.8746C32.8289 19.3861 33.0667 20.0447 33.0667 20.7033C33.0667 20.7518 33.0667 20.8246 33.0667 20.8732L31.5561 20.8246C31.5561 20.776 31.5561 20.7275 31.5561 20.7033C31.5561 20.3618 31.4488 20.0203 31.211 19.7761C30.9981 19.5332 30.6282 19.3861 30.151 19.3617C30.0967 19.3617 30.0438 19.3375 29.9909 19.3617C29.5403 19.3617 29.1689 19.5089 28.9311 19.7275C28.7445 19.8746 28.6124 20.0932 28.5332 20.3132C28.4803 20.5318 28.4803 20.7518 28.5332 20.9704C28.586 21.1661 28.7181 21.3361 28.9046 21.4576L30.336 22.1646L31.7939 22.8718L31.8203 22.8961C32.4046 23.2132 32.7745 23.6762 32.9346 24.2361C33.0667 24.6747 33.0403 25.1375 32.9082 25.6005C32.7745 26.0647 32.5103 26.4791 32.1124 26.819C31.741 27.1362 31.2903 27.3805 30.7603 27.502V28.8176H29.2496V27.5262C28.5595 27.3805 28.0297 27.0876 27.6581 26.6733C27.181 26.1619 26.9417 25.5033 26.9417 24.8462C26.9417 24.7962 26.9417 24.7233 26.9417 24.6747L28.4539 24.7233C28.4275 24.7719 28.4275 24.8218 28.4275 24.8462C28.4539 25.1861 28.5595 25.5276 28.799 25.7719C29.0103 26.0147 29.3553 26.1619 29.8589 26.1862C29.9117 26.1862 29.9646 26.1862 29.9909 26.1862C30.4681 26.1862 30.8131 26.0391 31.0789 25.8205C31.2639 25.6748 31.396 25.4548 31.4488 25.2362C31.5296 25.0162 31.5296 24.7962 31.4752 24.5776C31.4225 24.3818 31.2903 24.2119 31.1053 24.1147L29.6195 23.3833L28.1881 22.6518H28.1617C27.6053 22.3361 27.2339 21.8475 27.0753 21.3118C26.9417 20.8732 26.9417 20.4103 27.1018 19.9475C27.2339 19.4846 27.4997 19.0703 27.8975 18.7289C28.241 18.4117 28.6916 18.1674 29.2496 18.0461V16.7303H30.7603ZM14.6403 2.18146C15.1702 2.18146 15.5945 2.57146 15.5945 3.08291C15.5945 3.57005 15.1702 3.98434 14.6403 3.98434C14.0839 3.98434 13.6596 3.57005 13.6596 3.08291C13.6596 2.57146 14.0839 2.18146 14.6403 2.18146ZM21.0823 2.18146C21.614 2.18146 22.0366 2.57146 22.0366 3.08291C22.0366 3.57005 21.614 3.98434 21.0823 3.98434C20.526 3.98434 20.1017 3.57005 20.1017 3.08291C20.1017 2.57146 20.526 2.18146 21.0823 2.18146ZM17.8481 2.18146C18.3781 2.18146 18.8289 2.57146 18.8289 3.08291C18.8289 3.57005 18.3781 3.98434 17.8481 3.98434C17.3181 3.98434 16.8675 3.57005 16.8675 3.08291C16.8675 2.57146 17.3181 2.18146 17.8481 2.18146ZM10.3709 37.1278V16.4131H12.3338V37.1278H10.3709ZM10.3709 8.95586V6.56725H12.3338V8.95586H10.3709ZM22.3024 48.1195H37.6796V51.6038H22.3024V48.1195ZM3.3724 7.4687H7.90596V9.95445H3.90237V40.7593H56.106V9.95445H52.1025V7.4687H56.6095C58.386 7.4687 59.8454 8.81015 59.8454 10.4187V43.6837C59.8454 45.2922 58.386 46.6322 56.6095 46.6322H3.3724C1.62238 46.6322 0.164551 45.2922 0.164551 43.6837V10.4187C0.164551 8.81015 1.62238 7.4687 3.3724 7.4687Z" fill="#0575AD"/>
</g>
</g>
</g>
</g>
<defs>
<clipPath id="clip0_1_1884">
<rect width="59.67" height="55" fill="white" transform="translate(0.169922 0.5)"/>
</clipPath>
<clipPath id="clip1_1_1884">
<rect width="59.67" height="55" fill="white" transform="translate(0.169922 0.5)"/>
</clipPath>
<clipPath id="clip2_1_1884">
<rect width="59.6809" height="55" fill="white" transform="translate(0.164551 0.5)"/>
</clipPath>
</defs>
</svg>
