<svg width="70" height="56" viewBox="0 0 70 56" fill="none" xmlns="http://www.w3.org/2000/svg">
<g clip-path="url(#clip0_51_817)">
<g clip-path="url(#clip1_51_817)">
<path fill-rule="evenodd" clip-rule="evenodd" d="M37.8524 3.84509C36.3052 1.87101 33.7474 0.574097 30.8616 0.574097H9.58127C4.84032 0.574097 1.00781 4.05776 1.00781 8.3308V47.0334C1.00781 51.3064 4.84032 54.7901 9.58127 54.7901H30.8616C35.1498 54.7901 38.6955 51.9366 39.33 48.2194C39.4578 47.4835 38.9085 46.7907 38.1008 46.6746C37.2974 46.5572 36.5366 47.066 36.4145 47.8071C35.9986 50.2261 33.6608 52.0802 30.8616 52.0802H9.58127C6.48688 52.0802 3.9631 49.8242 3.9631 47.0334V8.3308C3.9631 5.53995 6.48688 3.28405 9.58127 3.28405H30.8616C32.7608 3.28405 34.4344 4.13213 35.4564 5.43427C35.9361 6.03706 36.8531 6.17536 37.5174 5.74088C38.1817 5.30118 38.3322 4.4544 37.8524 3.84509ZM16.5266 48.0133H23.9163C24.7296 48.0133 25.3939 47.4053 25.3939 46.6576C25.3939 45.9113 24.7296 45.302 23.9163 45.302H16.5266C15.7119 45.302 15.0476 45.9113 15.0476 46.6576C15.0476 47.4053 15.7119 48.0133 16.5266 48.0133ZM68.9936 38.5252H57.7587C54.9879 38.5252 52.7353 36.4611 52.7353 33.9194V29.5772C52.7353 27.0356 54.9879 24.9715 57.7587 24.9715H68.9936V24.4313C68.9936 23.7529 68.7906 23.124 68.4329 22.589C68.4386 22.5838 68.4443 22.5734 68.45 22.5616C68.9468 21.8153 69.1313 20.8576 68.8602 19.9039L64.5011 4.4544C63.9872 2.61732 62.0426 1.57483 60.2356 2.04063L34.521 8.58392C32.7367 9.03927 31.6168 10.8346 32.1306 12.6456L34.4571 20.9046H34.3648C32.2754 20.9046 30.5664 22.4768 30.5664 24.4313V41.7766C30.5664 43.7298 32.2754 45.302 34.3648 45.302H65.1937C67.2846 45.302 68.9936 43.7298 68.9936 41.7766V38.5252ZM31.0972 7.35093H8.39745C7.57701 7.35093 6.91981 7.95894 6.91981 8.70656V41.2364C6.91981 41.9827 7.57701 42.5921 8.39745 42.5921H27.6622C27.6281 42.322 27.6111 42.0571 27.6111 41.7766V24.4313C27.6111 22.1493 28.9326 20.1687 30.89 19.0832L29.2676 13.3227C28.6203 11.0407 29.4521 8.79137 31.0972 7.35093ZM67.5145 27.6814V35.8152H57.7587C56.6217 35.8152 55.692 34.9619 55.692 33.9194V29.5772C55.692 28.5347 56.6217 27.6814 57.7587 27.6814H67.5145ZM60.1249 30.3927C60.9397 30.3927 61.604 31.002 61.604 31.7483C61.604 32.4946 60.9397 33.104 60.1249 33.104C59.3116 33.104 58.6473 32.4946 58.6473 31.7483C58.6473 31.002 59.3116 30.3927 60.1249 30.3927ZM62.792 9.21411L36.1263 16.0027L37.5117 20.9046H65.1937C65.472 20.9046 65.7431 20.932 66.0028 20.9842C66.0369 20.8576 66.0369 20.7193 65.9972 20.5823L62.792 9.21411ZM60.0568 13.6307C59.8893 13.0161 59.208 12.656 58.5493 12.8256L55.1427 13.6933C54.4798 13.8629 54.0809 14.4931 54.2541 15.1076L54.8772 17.3153C55.0504 17.9246 55.726 18.2847 56.3904 18.1151L59.797 17.2461C60.4542 17.0817 60.8531 16.4463 60.6799 15.8383L60.0568 13.6307ZM62.0539 6.58766L61.6437 5.13157C61.5571 4.83017 61.3144 4.57575 61.0263 4.65012L35.3116 11.1999C34.995 11.2795 34.8971 11.6448 34.9894 11.9671L35.3868 13.3815L62.0539 6.58766Z" fill="white"/>
</g>
</g>
<defs>
<clipPath id="clip0_51_817">
<rect width="69" height="55" fill="white" transform="translate(0.5 0.5)"/>
</clipPath>
<clipPath id="clip1_51_817">
<rect width="69" height="55" fill="white" transform="translate(0.5 0.5)"/>
</clipPath>
</defs>
</svg>
