<svg width="70" height="56" viewBox="0 0 70 56" fill="none" xmlns="http://www.w3.org/2000/svg">
<g clip-path="url(#clip0_1_1929)">
<g clip-path="url(#clip1_1_1929)">
<g clip-path="url(#clip2_1_1929)">
<path fill-rule="evenodd" clip-rule="evenodd" d="M37.8514 3.84521C36.3042 1.87113 33.7464 0.574219 30.8606 0.574219H9.58029C4.83934 0.574219 1.00684 4.05788 1.00684 8.33092V47.0335C1.00684 51.3065 4.83934 54.7902 9.58029 54.7902H30.8606C35.1488 54.7902 38.6945 51.9367 39.329 48.2195C39.4568 47.4836 38.9075 46.7908 38.0998 46.6747C37.2964 46.5573 36.5356 47.0661 36.4135 47.8072C35.9976 50.2262 33.6598 52.0803 30.8606 52.0803H9.58029C6.4859 52.0803 3.96212 49.8243 3.96212 47.0335V8.33092C3.96212 5.54007 6.4859 3.28417 9.58029 3.28417H30.8606C32.7598 3.28417 34.4334 4.13225 35.4554 5.43439C35.9351 6.03718 36.8521 6.17548 37.5164 5.741C38.1807 5.3013 38.3312 4.45452 37.8514 3.84521ZM16.5256 48.0134H23.9153C24.7286 48.0134 25.3929 47.4054 25.3929 46.6577C25.3929 45.9114 24.7286 45.3021 23.9153 45.3021H16.5256C15.7109 45.3021 15.0466 45.9114 15.0466 46.6577C15.0466 47.4054 15.7109 48.0134 16.5256 48.0134ZM68.9926 38.5253H57.7577C54.9869 38.5253 52.7343 36.4612 52.7343 33.9195V29.5773C52.7343 27.0357 54.9869 24.9716 57.7577 24.9716H68.9926V24.4314C68.9926 23.753 68.7896 23.1241 68.4319 22.5891C68.4376 22.5839 68.4433 22.5735 68.449 22.5617C68.9458 21.8154 69.1303 20.8577 68.8592 19.904L64.5001 4.45452C63.9862 2.61744 62.0416 1.57495 60.2346 2.04075L34.52 8.58404C32.7357 9.03939 31.6158 10.8347 32.1296 12.6457L34.4561 20.9047H34.3638C32.2744 20.9047 30.5654 22.4769 30.5654 24.4314V41.7767C30.5654 43.7299 32.2744 45.3021 34.3638 45.3021H65.1927C67.2836 45.3021 68.9926 43.7299 68.9926 41.7767V38.5253ZM31.0962 7.35105H8.39647C7.57603 7.35105 6.91883 7.95906 6.91883 8.70668V41.2365C6.91883 41.9828 7.57603 42.5922 8.39647 42.5922H27.6612C27.6271 42.3221 27.6101 42.0572 27.6101 41.7767V24.4314C27.6101 22.1494 28.9316 20.1688 30.889 19.0833L29.2666 13.3228C28.6193 11.0408 29.4511 8.79149 31.0962 7.35105ZM67.5135 27.6815V35.8153H57.7577C56.6207 35.8153 55.691 34.962 55.691 33.9195V29.5773C55.691 28.5348 56.6207 27.6815 57.7577 27.6815H67.5135ZM60.1239 30.3928C60.9387 30.3928 61.603 31.0021 61.603 31.7484C61.603 32.4947 60.9387 33.1041 60.1239 33.1041C59.3106 33.1041 58.6463 32.4947 58.6463 31.7484C58.6463 31.0021 59.3106 30.3928 60.1239 30.3928ZM62.791 9.21423L36.1253 16.0028L37.5107 20.9047H65.1927C65.471 20.9047 65.7421 20.9321 66.0018 20.9843C66.0359 20.8577 66.0359 20.7194 65.9962 20.5824L62.791 9.21423ZM60.0558 13.6308C59.8883 13.0162 59.207 12.6561 58.5483 12.8257L55.1417 13.6934C54.4788 13.863 54.0799 14.4932 54.2531 15.1077L54.8762 17.3154C55.0494 17.9247 55.725 18.2848 56.3894 18.1152L59.796 17.2462C60.4532 17.0818 60.8521 16.4464 60.6789 15.8384L60.0558 13.6308ZM62.0529 6.58778L61.6427 5.13169C61.5561 4.83029 61.3134 4.57587 61.0253 4.65024L35.3106 11.2C34.994 11.2796 34.8961 11.6449 34.9884 11.9672L35.3858 13.3816L62.0529 6.58778Z" fill="#0575AD"/>
</g>
</g>
</g>
<defs>
<clipPath id="clip0_1_1929">
<rect width="69" height="55" fill="white" transform="translate(0.5 0.5)"/>
</clipPath>
<clipPath id="clip1_1_1929">
<rect width="69" height="55" fill="white" transform="translate(0.5 0.5)"/>
</clipPath>
<clipPath id="clip2_1_1929">
<rect width="69" height="55" fill="white" transform="translate(0.5 0.5)"/>
</clipPath>
</defs>
</svg>
