<svg width="66" height="65" viewBox="0 0 66 65" fill="none" xmlns="http://www.w3.org/2000/svg">
<rect x="0.5" width="65" height="65" rx="8" fill="#00D280" fill-opacity="0.2"/>
<g clip-path="url(#clip0_1_1830)">
<g clip-path="url(#clip1_1_1830)">
<g clip-path="url(#clip2_1_1830)">
<path d="M21.401 39.1768H15.947C15.635 39.1768 15.3804 38.9756 15.3804 38.7293C15.3804 38.4816 15.635 38.2817 15.947 38.2817H21.401C21.7146 38.2817 21.9693 38.4816 21.9693 38.7293C21.9693 38.9756 21.7146 39.1768 21.401 39.1768Z" fill="#00D280"/>
<path d="M35.2612 16.2854H15.947C15.635 16.2854 15.3804 16.0843 15.3804 15.8379C15.3804 15.5903 15.635 15.3892 15.947 15.3892H35.2612C35.5748 15.3892 35.8295 15.5903 35.8295 15.8379C35.8295 16.0843 35.5748 16.2854 35.2612 16.2854Z" fill="#00D280"/>
<mask id="mask0_1_1830" style="mask-type:luminance" maskUnits="userSpaceOnUse" x="12" y="11" width="27" height="34">
<path d="M12.9453 11.9907H38.365V44.4189H12.9453V11.9907Z" fill="white"/>
</mask>
<g mask="url(#mask0_1_1830)">
<path d="M21.4012 44.4137H16.5469C14.5675 44.4137 12.9575 43.14 12.9575 41.5764V14.9212C12.9575 13.3559 14.5675 12.0835 16.5469 12.0835H34.6633C36.6427 12.0835 38.2526 13.3559 38.2526 14.9212V34.6055C38.2526 34.8532 38.0002 35.0531 37.686 35.0531C37.3746 35.0531 37.12 34.8532 37.12 34.6055V14.9212C37.12 13.8499 36.0171 12.9785 34.6633 12.9785H16.5469C15.1931 12.9785 14.0902 13.8499 14.0902 14.9212V41.5764C14.0902 42.6473 15.1931 43.5192 16.5469 43.5192H21.4012C21.7148 43.5192 21.9695 43.7186 21.9695 43.9663C21.9695 44.2126 21.7148 44.4137 21.4012 44.4137Z" fill="#00D280"/>
</g>
<path d="M27.9994 14.6501H23.2107C22.8971 14.6501 22.644 14.449 22.644 14.2026C22.644 13.9545 22.8971 13.7551 23.2107 13.7551H27.9994C28.3114 13.7551 28.566 13.9545 28.566 14.2026C28.566 14.449 28.3114 14.6501 27.9994 14.6501Z" fill="#00D280"/>
<path d="M26.0637 36.6933C25.4839 36.6933 25.0121 37.0672 25.0121 37.5243C25.0121 37.9827 25.4839 38.3553 26.0637 38.3553C26.6441 38.3553 27.1155 37.9827 27.1155 37.5243C27.1155 37.0672 26.6441 36.6933 26.0637 36.6933ZM26.0637 39.2516C24.8605 39.2516 23.8794 38.4767 23.8794 37.5243C23.8794 36.5731 24.8605 35.7983 26.0637 35.7983C27.2697 35.7983 28.2481 36.5731 28.2481 37.5243C28.2481 38.4767 27.2697 39.2516 26.0637 39.2516Z" fill="#00D280"/>
<path d="M23.8831 35.0532C22.8275 35.0532 21.9694 35.7327 21.9694 36.5671V45.2762C21.9694 46.1102 22.8275 46.7902 23.8831 46.7902H44.5372C45.5927 46.7902 46.4515 46.1102 46.4515 45.2762V36.5671C46.4515 35.7327 45.5927 35.0532 44.5372 35.0532H23.8831ZM44.5372 47.6852H23.8831C22.2019 47.6852 20.8345 46.6047 20.8345 45.2762V36.5671C20.8345 35.2386 22.2019 34.1582 23.8831 34.1582H44.5372C46.2167 34.1582 47.5858 35.2386 47.5858 36.5671V45.2762C47.5858 46.6047 46.2167 47.6852 44.5372 47.6852Z" fill="#00D280"/>
<mask id="mask1_1_1830" style="mask-type:luminance" maskUnits="userSpaceOnUse" x="26" y="38" width="28" height="15">
<path d="M26.2305 38.4014H53.0546V52.0995H26.2305V38.4014Z" fill="white"/>
</mask>
<g mask="url(#mask1_1_1830)">
<path d="M50.7553 51.9977H28.5799C27.3188 51.9977 26.293 51.1871 26.293 50.1907V47.2377C26.293 46.9913 26.5471 46.7901 26.859 46.7901C27.1727 46.7901 27.4273 46.9913 27.4273 47.2377V50.1907C27.4273 50.6926 27.9443 51.1027 28.5799 51.1027H50.7553C51.3925 51.1027 51.9094 50.6926 51.9094 50.1907V40.2776C51.9094 39.774 51.3925 39.3657 50.7553 39.3657H47.0177C46.7057 39.3657 46.4516 39.1646 46.4516 38.9182C46.4516 38.6701 46.7057 38.4707 47.0177 38.4707H50.7553C52.0181 38.4707 53.0422 39.2813 53.0422 40.2776V50.1907C53.0422 51.1871 52.0181 51.9977 50.7553 51.9977Z" fill="#00D280"/>
</g>
<path d="M40.5985 36.6933C40.4034 36.6933 40.2435 36.8196 40.2435 36.9754V38.0746C40.2435 38.2291 40.4034 38.3553 40.5985 38.3553H43.1185C43.3142 38.3553 43.4735 38.2291 43.4735 38.0746V36.9754C43.4735 36.8196 43.3142 36.6933 43.1185 36.6933H40.5985ZM43.1185 39.2516H40.5985C39.7778 39.2516 39.1108 38.7232 39.1108 38.0746V36.9754C39.1108 36.3268 39.7778 35.7983 40.5985 35.7983H43.1185C43.9392 35.7983 44.6062 36.3268 44.6062 36.9754V38.0746C44.6062 38.7232 43.9392 39.2516 43.1185 39.2516Z" fill="#00D280"/>
<path d="M18.0583 29.1873C17.7468 29.1873 17.4922 28.9862 17.4922 28.7398V24.51C17.4922 24.2619 17.7468 24.0625 18.0583 24.0625C18.3724 24.0625 18.6265 24.2619 18.6265 24.51V28.7398C18.6265 28.9862 18.3724 29.1873 18.0583 29.1873Z" fill="#00D280"/>
<path d="M19.9885 27.329H18.0583C17.7468 27.329 17.4922 27.1292 17.4922 26.8815C17.4922 26.6352 17.7468 26.434 18.0583 26.434H19.9885C20.5033 26.434 20.9217 26.1032 20.9217 25.6966C20.9217 25.2879 20.5033 24.9575 19.9885 24.9575H18.0583C17.7468 24.9575 17.4922 24.7564 17.4922 24.51C17.4922 24.2619 17.7468 24.0625 18.0583 24.0625H19.9885C21.1289 24.0625 22.056 24.7952 22.056 25.6966C22.056 26.5959 21.1289 27.329 19.9885 27.329Z" fill="#00D280"/>
<path d="M23.3956 29.1873C23.3366 29.1873 23.2771 29.1795 23.2181 29.1638C22.9199 29.0859 22.7584 28.8334 22.8571 28.5997L24.627 24.3698C24.7041 24.1905 24.913 24.0673 25.1517 24.0625C25.3947 24.0564 25.6075 24.1718 25.6946 24.3476L27.7682 28.5779C27.8812 28.8086 27.7367 29.0672 27.4446 29.1559C27.1509 29.2465 26.8234 29.1312 26.711 28.9005L25.2074 25.835L23.9325 28.8804C23.8553 29.0672 23.6342 29.1873 23.3956 29.1873Z" fill="#00D280"/>
<path d="M26.5568 27.7954H23.9777C23.6663 27.7954 23.4116 27.5943 23.4116 27.3479C23.4116 27.0998 23.6663 26.9004 23.9777 26.9004H26.5568C26.8709 26.9004 27.1234 27.0998 27.1234 27.3479C27.1234 27.5943 26.8709 27.7954 26.5568 27.7954Z" fill="#00D280"/>
<path d="M31.0324 29.1873C30.7205 29.1873 30.4658 28.9862 30.4658 28.7398V26.2825C30.4658 26.0348 30.7205 25.8337 31.0324 25.8337C31.3461 25.8337 31.5985 26.0348 31.5985 26.2825V28.7398C31.5985 28.9862 31.3461 29.1873 31.0324 29.1873Z" fill="#00D280"/>
<path d="M31.0424 26.7299C30.8963 26.7299 30.7519 26.6864 30.6417 26.5976L28.3977 24.8264C28.1773 24.6519 28.1773 24.368 28.3977 24.1935C28.6188 24.0188 28.9782 24.0188 29.1992 24.1935L31.0424 25.6482L32.751 24.2979C32.9721 24.1234 33.3292 24.1234 33.552 24.2979C33.7729 24.4742 33.7729 24.7563 33.552 24.9326L31.4425 26.5976C31.3323 26.6864 31.1863 26.7299 31.0424 26.7299Z" fill="#00D280"/>
<path d="M26.3495 44.4138C26.0381 44.4138 25.7812 44.2127 25.7812 43.9664C25.7812 43.7187 26.0343 43.5193 26.3479 43.5193H26.3495C26.6637 43.5193 26.9178 43.7187 26.9178 43.9664C26.9178 44.2127 26.6637 44.4138 26.3495 44.4138ZM29.3767 44.4138C29.063 44.4138 28.8084 44.2127 28.8084 43.9664C28.8084 43.7187 29.0592 43.5193 29.3728 43.5193H29.3767C29.6886 43.5193 29.9433 43.7187 29.9433 43.9664C29.9433 44.2127 29.6886 44.4138 29.3767 44.4138ZM32.4016 44.4138C32.0902 44.4138 31.8333 44.2127 31.8333 43.9664C31.8333 43.7187 32.0858 43.5193 32.3978 43.5193H32.4016C32.7152 43.5193 32.9682 43.7187 32.9682 43.9664C32.9682 44.2127 32.7152 44.4138 32.4016 44.4138ZM35.4287 44.4138C35.1151 44.4138 34.8582 44.2127 34.8582 43.9664C34.8582 43.7187 35.1112 43.5193 35.4249 43.5193H35.4287C35.7407 43.5193 35.9948 43.7187 35.9948 43.9664C35.9948 44.2127 35.7407 44.4138 35.4287 44.4138ZM38.4536 44.4138C38.14 44.4138 37.8853 44.2127 37.8853 43.9664C37.8853 43.7187 38.1362 43.5193 38.4498 43.5193H38.4536C38.7656 43.5193 39.0197 43.7187 39.0197 43.9664C39.0197 44.2127 38.7656 44.4138 38.4536 44.4138ZM41.4785 44.4138C41.1666 44.4138 40.9102 44.2127 40.9102 43.9664C40.9102 43.7187 41.1628 43.5193 41.4747 43.5193H41.4785C41.7922 43.5193 42.0451 43.7187 42.0451 43.9664C42.0451 44.2127 41.7922 44.4138 41.4785 44.4138Z" fill="#00D280"/>
<path d="M31.747 50.0035C31.4328 50.0035 31.1787 49.8023 31.1787 49.556C31.1787 49.3083 31.4289 49.1072 31.7431 49.1072H31.747C32.0584 49.1072 32.3131 49.3083 32.3131 49.556C32.3131 49.8023 32.0584 50.0035 31.747 50.0035ZM34.7719 50.0035C34.46 50.0035 34.2036 49.8023 34.2036 49.556C34.2036 49.3083 34.456 49.1072 34.768 49.1072H34.7719C35.0856 49.1072 35.338 49.3083 35.338 49.556C35.338 49.8023 35.0856 50.0035 34.7719 50.0035ZM37.7968 50.0035C37.4849 50.0035 37.2285 49.8023 37.2285 49.556C37.2285 49.3083 37.4809 49.1072 37.793 49.1072H37.7968C38.1105 49.1072 38.3651 49.3083 38.3651 49.556C38.3651 49.8023 38.1105 50.0035 37.7968 50.0035ZM40.824 50.0035C40.5098 50.0035 40.2557 49.8023 40.2557 49.556C40.2557 49.3083 40.5059 49.1072 40.8195 49.1072H40.824C41.1354 49.1072 41.39 49.3083 41.39 49.556C41.39 49.8023 41.1354 50.0035 40.824 50.0035ZM43.8489 50.0035C43.5369 50.0035 43.2806 49.8023 43.2806 49.556C43.2806 49.3083 43.533 49.1072 43.845 49.1072H43.8489C44.1625 49.1072 44.4149 49.3083 44.4149 49.556C44.4149 49.8023 44.1625 50.0035 43.8489 50.0035ZM46.8755 50.0035C46.5618 50.0035 46.3055 49.8023 46.3055 49.556C46.3055 49.3083 46.558 49.1072 46.8715 49.1072H46.8755C47.1874 49.1072 47.4421 49.3083 47.4421 49.556C47.4421 49.8023 47.1874 50.0035 46.8755 50.0035Z" fill="#00D280"/>
<path d="M28.7985 39.2516C28.4849 39.2516 28.2324 39.0504 28.2324 38.8027C28.2324 38.5564 28.4849 38.3553 28.7985 38.3553C29.3789 38.3553 29.8501 37.9827 29.8501 37.5243C29.8501 37.0672 29.3789 36.6933 28.7985 36.6933C28.4849 36.6933 28.2324 36.4936 28.2324 36.2459C28.2324 35.9994 28.4849 35.7983 28.7985 35.7983C30.0045 35.7983 30.9829 36.5731 30.9829 37.5243C30.9829 38.4767 30.0045 39.2516 28.7985 39.2516Z" fill="#00D280"/>
</g>
</g>
</g>
<defs>
<clipPath id="clip0_1_1830">
<rect width="41" height="40.09" fill="white" transform="translate(12.5 12)"/>
</clipPath>
<clipPath id="clip1_1_1830">
<rect width="41" height="40.09" fill="white" transform="translate(12.5 12)"/>
</clipPath>
<clipPath id="clip2_1_1830">
<rect width="41" height="40.1087" fill="white" transform="translate(12.5 11.9907)"/>
</clipPath>
</defs>
</svg>
