<svg width="47" height="45" viewBox="0 0 47 45" fill="none" xmlns="http://www.w3.org/2000/svg">
<g clip-path="url(#clip0_1_2020)">
<g clip-path="url(#clip1_1_2020)">
<path d="M21.6351 4.40309L21.3612 6.01057C21.3168 6.27505 21.4244 6.54311 21.6404 6.7018C21.8574 6.85959 22.1428 6.88021 22.3784 6.75559L23.81 5.99623L25.2406 6.75559C25.3438 6.80938 25.4558 6.83628 25.567 6.83628C25.7119 6.83628 25.8568 6.79145 25.9795 6.7018C26.1947 6.54311 26.3032 6.27505 26.2578 6.01057L25.9849 4.40309L27.1426 3.2645C27.3337 3.07622 27.4031 2.79651 27.3204 2.5401C27.2377 2.28459 27.0181 2.09811 26.754 2.05866L25.1535 1.82467L24.4377 0.362423C24.2012 -0.120808 23.417 -0.120808 23.1813 0.362423L22.4656 1.82467L20.8651 2.05866C20.601 2.09811 20.3814 2.28459 20.2987 2.5401C20.216 2.79651 20.2845 3.07622 20.4765 3.2645L21.6351 4.40309Z" fill="#00D280"/>
<path d="M8.31706 10.0576L8.0432 11.6642C7.99874 11.9296 8.10633 12.1976 8.32239 12.3554C8.53935 12.5141 8.82477 12.5347 9.0604 12.4092L10.4919 11.6499L11.9235 12.4092C12.0257 12.4639 12.1377 12.4908 12.2489 12.4908C12.3938 12.4908 12.5396 12.4451 12.6615 12.3554C12.8775 12.1976 12.9851 11.9296 12.9407 11.6642L12.6668 10.0576L13.8245 8.91902C14.0156 8.73075 14.085 8.45013 14.0023 8.19462C13.9196 7.93821 13.7 7.75173 13.4359 7.71318L11.8354 7.47829L11.1197 6.01605C10.884 5.53371 10.0998 5.53371 9.86331 6.01605L9.14753 7.47829L7.54705 7.71318C7.28297 7.75173 7.06334 7.93821 6.98065 8.19462C6.89796 8.45013 6.96731 8.73075 7.15848 8.91902L8.31706 10.0576Z" fill="#00D280"/>
<path d="M34.9521 10.0576L34.6792 11.6642C34.6347 11.9296 34.7423 12.1976 34.9584 12.3554C35.1744 12.5141 35.4607 12.5347 35.6964 12.4092L37.1279 11.6499L38.5586 12.4092C38.6608 12.4639 38.7729 12.4908 38.8849 12.4908C39.0298 12.4908 39.1748 12.4451 39.2966 12.3554C39.5126 12.1976 39.6211 11.9296 39.5758 11.6642L39.3028 10.0576L40.4605 8.91902C40.6508 8.73075 40.7201 8.45013 40.6374 8.19462C40.5547 7.93821 40.336 7.75173 40.071 7.71318L38.4714 7.47829L37.7557 6.01605C37.5191 5.53371 36.7349 5.53371 36.4984 6.01605L35.7835 7.47829L34.183 7.71318C33.9189 7.75173 33.6993 7.93821 33.6166 8.19462C33.5339 8.45013 33.6024 8.73075 33.7936 8.91902L34.9521 10.0576Z" fill="#00D280"/>
<path d="M13.4366 34.5687L11.8361 34.3347L11.1203 32.8724C10.8838 32.3892 10.0996 32.3892 9.86395 32.8724L9.14817 34.3347L7.54769 34.5687C7.2836 34.6081 7.06398 34.7946 6.98129 35.0501C6.8986 35.3065 6.96706 35.5871 7.15912 35.7745L8.31681 36.9122L8.04295 38.5197C7.99849 38.7851 8.10608 39.0522 8.32214 39.2109C8.5391 39.3696 8.82452 39.3893 9.06015 39.2647L10.4917 38.5053L11.9232 39.2647C12.0255 39.3194 12.1375 39.3454 12.2486 39.3454C12.3936 39.3454 12.5394 39.3006 12.6612 39.2109C12.8773 39.0522 12.9849 38.7851 12.9404 38.5197L12.6665 36.9122L13.8242 35.7736C14.0154 35.5862 14.0848 35.3056 14.0021 35.0492C13.9194 34.7937 13.7006 34.6081 13.4366 34.5687Z" fill="#00D280"/>
<path d="M40.0715 34.5687L38.4718 34.3347L37.7562 32.8724C37.5196 32.3892 36.7353 32.3892 36.4988 32.8724L35.7831 34.3347L34.1835 34.5687C33.9185 34.6081 33.6998 34.7946 33.6171 35.0501C33.5344 35.3065 33.6028 35.5871 33.794 35.7745L34.9517 36.9122L34.6788 38.5197C34.6343 38.7851 34.7418 39.0522 34.9579 39.2109C35.1739 39.3696 35.4603 39.3893 35.696 39.2647L37.1275 38.5053L38.5581 39.2647C38.6603 39.3194 38.7725 39.3454 38.8845 39.3454C39.0294 39.3454 39.1744 39.3006 39.2962 39.2109C39.5122 39.0522 39.6206 38.7851 39.5753 38.5197L39.3024 36.9122L40.4601 35.7736C40.6504 35.5862 40.7196 35.3056 40.6369 35.0492C40.5542 34.7937 40.3356 34.6081 40.0715 34.5687Z" fill="#00D280"/>
<path d="M46.2455 21.6219C46.1628 21.3664 45.9432 21.1799 45.6791 21.1413L44.0786 20.9065L43.3628 19.4442C43.1272 18.961 42.343 18.961 42.1064 19.4442L41.3907 20.9065L39.7902 21.1413C39.5261 21.1799 39.3065 21.3664 39.2238 21.6219C39.1411 21.8783 39.2105 22.1589 39.4016 22.3463L40.5593 23.4849L40.2863 25.0915C40.241 25.3568 40.3495 25.6249 40.5646 25.7827C40.7807 25.9414 41.067 25.962 41.3026 25.8365L42.7342 25.0771L44.1657 25.8365C44.268 25.8912 44.38 25.9181 44.4912 25.9181C44.637 25.9181 44.7819 25.8723 44.9037 25.7827C45.1198 25.6249 45.2274 25.3568 45.1829 25.0915L44.9091 23.4849L46.0677 22.3463C46.2597 22.1589 46.3282 21.8783 46.2455 21.6219Z" fill="#00D280"/>
<mask id="mask0_1_2020" style="mask-type:luminance" maskUnits="userSpaceOnUse" x="1" y="18" width="8" height="9">
<path d="M1.27979 18.9888H8.54601V26.1036H1.27979V18.9888Z" fill="white"/>
</mask>
<g mask="url(#mask0_1_2020)">
<path d="M7.33402 25.0924L7.06105 23.4849L8.21873 22.3463C8.40901 22.1589 8.47837 21.8783 8.39567 21.6219C8.31298 21.3664 8.09425 21.1799 7.82928 21.1413L6.22968 20.9065L5.51391 19.4442C5.27739 18.961 4.49315 18.961 4.25663 19.4442L3.54175 20.9065L1.94126 21.1413C1.67718 21.1799 1.45756 21.3664 1.37487 21.6219C1.29217 21.8783 1.36064 22.1589 1.55181 22.3463L2.71039 23.4849L2.43652 25.0915C2.39207 25.3568 2.49965 25.6249 2.71572 25.7827C2.93268 25.9414 3.2181 25.962 3.45372 25.8365L4.88527 25.0771L6.31593 25.8365C6.41907 25.8912 6.53111 25.9181 6.64225 25.9181C6.78718 25.9181 6.93212 25.8723 7.05482 25.7827C7.27089 25.6249 7.37936 25.3577 7.33402 25.0924Z" fill="#00D280"/>
</g>
<path d="M26.7541 40.2229L25.1545 39.9881L24.4387 38.5258C24.2022 38.0435 23.418 38.0435 23.1815 38.5258L22.4666 39.9881L20.8661 40.2229C20.602 40.2615 20.3824 40.448 20.2997 40.7044C20.217 40.9599 20.2855 41.2405 20.4766 41.4288L21.6352 42.5665L21.3613 44.1731C21.3169 44.4384 21.4245 44.7065 21.6405 44.8643C21.8575 45.0239 22.1429 45.0436 22.3785 44.9181L23.8101 44.1596L25.2407 44.9181C25.3439 44.9728 25.4559 44.9997 25.5671 44.9997C25.712 44.9997 25.8569 44.9539 25.9796 44.8643C26.1948 44.7065 26.3033 44.4384 26.2579 44.1731L25.985 42.5665L27.1427 41.4279C27.3338 41.2396 27.4032 40.959 27.3205 40.7035C27.2378 40.4471 27.0191 40.2615 26.7541 40.2229Z" fill="#00D280"/>
<path d="M23.8501 16.9546C20.7576 16.9546 18.2422 19.4909 18.2422 22.6081C18.2422 25.7254 20.7576 28.2625 23.8501 28.2625C26.9417 28.2625 29.4572 25.7254 29.4572 22.6081C29.4572 19.4909 26.9417 16.9546 23.8501 16.9546ZM23.6874 25.1812C23.5612 25.3336 23.3771 25.425 23.1806 25.4349C23.1699 25.4349 23.1593 25.4349 23.1486 25.4349C22.9628 25.4349 22.7849 25.3614 22.6533 25.2278L21.2511 23.8149L22.2425 22.8152L23.1024 23.6822L26.1148 20.036L27.1916 20.9406L23.6874 25.1812Z" fill="#00D280"/>
<path d="M34.2551 15.4788L24.188 9.89698C23.9773 9.78043 23.7221 9.78043 23.5123 9.89698L13.4443 15.4788C13.2016 15.6133 13.0602 15.8804 13.0842 16.1593L13.6853 23.1289C13.9947 26.7195 15.8708 29.9363 18.8317 31.9552L23.458 35.1092C23.5763 35.189 23.7141 35.2294 23.8501 35.2294C23.9871 35.2294 24.1249 35.189 24.2432 35.1092L28.8695 31.9544C31.8304 29.9363 33.7056 26.7195 34.015 23.1289L34.617 16.1593C34.6401 15.8804 34.4987 15.6133 34.2551 15.4788ZM23.8501 29.6754C19.985 29.6754 16.8409 26.5052 16.8409 22.608C16.8409 18.7108 19.985 15.5406 23.8501 15.5406C27.7144 15.5406 30.8594 18.7108 30.8594 22.608C30.8594 26.5052 27.7144 29.6754 23.8501 29.6754Z" fill="#00D280"/>
</g>
</g>
<defs>
<clipPath id="clip0_1_2020">
<rect width="46" height="45" fill="white" transform="translate(0.779785)"/>
</clipPath>
<clipPath id="clip1_1_2020">
<rect width="46" height="45" fill="white" transform="translate(0.779785)"/>
</clipPath>
</defs>
</svg>
