<svg width="58" height="56" viewBox="0 0 58 56" fill="none" xmlns="http://www.w3.org/2000/svg">
<g clip-path="url(#clip0_51_862)">
<g clip-path="url(#clip1_51_862)">
<g clip-path="url(#clip2_51_862)">
<path fill-rule="evenodd" clip-rule="evenodd" d="M49.4922 42.979C48.4986 43.241 47.4492 43.3824 46.365 43.3824C46.2068 43.3824 46.05 43.3782 45.8931 43.3727V51.0716C45.8931 51.9849 46.6983 52.7279 47.6919 52.7279C48.6856 52.7279 49.4922 51.9849 49.4922 51.0716V42.979ZM45.8931 3.81495H9.08348V49.3197C9.08348 50.2331 8.27831 50.976 7.28468 50.976C6.29105 50.976 5.48438 50.2331 5.48438 49.3183V2.15736C5.48438 1.24264 6.29105 0.50116 7.28468 0.50116H47.6919C48.6856 0.50116 49.4922 1.24264 49.4922 2.15736V22.9188C48.4986 22.657 47.4492 22.5156 46.365 22.5156C46.2068 22.5156 46.05 22.5197 45.8931 22.5253V3.81495Z" fill="white"/>
<path fill-rule="evenodd" clip-rule="evenodd" d="M16.8236 5.24757H38.1494L38.7601 1.88392C38.9244 0.983065 39.8547 0.37187 40.8333 0.522936C41.8118 0.674003 42.4752 1.52912 42.3109 2.42998L41.4485 7.17678C41.3037 7.97508 40.5529 8.55994 39.6739 8.55994H15.3007C14.4217 8.55994 13.6694 7.97508 13.5246 7.17678L12.6637 2.42998C12.4993 1.52773 13.1627 0.672617 14.1428 0.522936C15.1228 0.373256 16.0486 0.981679 16.2129 1.88392L16.8236 5.24757Z" fill="white"/>
<path fill-rule="evenodd" clip-rule="evenodd" d="M48.8916 54.6296H6.08447C5.75276 54.6296 5.48438 54.3816 5.48438 54.0766V49.3299C5.48438 49.0249 5.75276 48.7782 6.08447 48.7782H48.8916C49.2217 48.7782 49.4915 49.0249 49.4915 49.3299V54.0766C49.4915 54.3816 49.2217 54.6296 48.8916 54.6296Z" fill="white"/>
<path fill-rule="evenodd" clip-rule="evenodd" d="M33.998 12.449H20.9815C20.3196 12.449 19.7812 11.9556 19.7812 11.3444C19.7812 10.7346 20.3196 10.2412 20.9815 10.2412H33.998C34.66 10.2412 35.1982 10.7346 35.1982 11.3444C35.1982 11.9543 34.66 12.449 33.998 12.449Z" fill="white"/>
<mask id="mask0_51_862" style="mask-type:luminance" maskUnits="userSpaceOnUse" x="36" y="23" width="21" height="20">
<path d="M36.1777 23.5241H56.4994V42.309H36.1777V23.5241Z" fill="white"/>
</mask>
<g mask="url(#mask0_51_862)">
<path fill-rule="evenodd" clip-rule="evenodd" d="M46.0433 27.2891C44.4301 27.5399 43.1983 28.8357 43.1983 30.3908C43.1983 32.0372 44.5915 33.412 46.3736 33.527C47.4743 33.6435 48.3337 34.5415 48.3337 35.5755C48.3337 36.7008 47.3401 37.617 46.1173 37.617C45.389 37.617 44.706 37.2871 44.2913 36.7342C44.1043 36.4834 43.7289 36.421 43.4575 36.5927C43.1847 36.7661 43.1169 37.1111 43.3053 37.3605C43.9294 38.1935 44.9488 38.698 46.0433 38.7201V39.1707C46.0433 39.4755 46.3117 39.7222 46.6435 39.7222C46.9738 39.7222 47.242 39.4755 47.242 39.1707V38.5455C48.5749 38.1173 49.5339 36.9476 49.5339 35.5755C49.5339 33.9554 48.2267 32.6027 46.4927 32.4281C46.4836 32.4281 46.4747 32.4267 46.4671 32.4253C45.3062 32.356 44.3983 31.4608 44.3983 30.3908C44.3983 29.2653 45.392 28.3493 46.6149 28.3493C47.3431 28.3493 48.0262 28.6792 48.4407 29.2322C48.6293 29.483 49.0031 29.5453 49.2745 29.3734C49.5475 29.2003 49.6168 28.8552 49.4283 28.6042C48.9096 27.914 48.1211 27.4498 47.242 27.2987V26.7513C47.242 26.4451 46.9738 26.1984 46.6435 26.1984C46.3117 26.1984 46.0433 26.4451 46.0433 26.7513V27.2891ZM46.3661 42.289C40.7783 42.289 36.2324 38.1048 36.2324 32.9602C36.2324 27.8157 40.7783 23.6316 46.3661 23.6316C51.9538 23.6316 56.4998 27.8157 56.4998 32.9602C56.4998 38.1048 51.9538 42.289 46.3661 42.289Z" fill="white"/>
</g>
<path fill-rule="evenodd" clip-rule="evenodd" d="M35.6937 29.4185H12.4424C11.7805 29.4185 11.2422 28.9237 11.2422 28.3138C11.2422 27.7041 11.7805 27.2092 12.4424 27.2092H36.8968C36.4069 27.8939 36.0013 28.634 35.6937 29.4185Z" fill="white"/>
<path fill-rule="evenodd" clip-rule="evenodd" d="M20.2704 28.8674H15.352C15.0218 28.8674 14.752 28.6193 14.752 28.3145V21.6965C14.752 21.3917 15.0218 21.1436 15.352 21.1436H20.2704C20.602 21.1436 20.8704 21.3917 20.8704 21.6965V28.3145C20.8704 28.6193 20.602 28.8674 20.2704 28.8674Z" fill="white"/>
<path fill-rule="evenodd" clip-rule="evenodd" d="M29.9504 28.8742H25.0322C24.702 28.8742 24.4336 28.626 24.4336 28.3212V15.3794C24.4336 15.0745 24.702 14.8264 25.0322 14.8264H29.9504C30.2821 14.8264 30.5505 15.0745 30.5505 15.3794V28.3212C30.5505 28.626 30.2821 28.8742 29.9504 28.8742Z" fill="white"/>
<path fill-rule="evenodd" clip-rule="evenodd" d="M35.9458 28.8702H34.7275C34.3973 28.8702 34.1289 28.6223 34.1289 28.3172V19.0427C34.1289 18.7378 34.3973 18.4897 34.7275 18.4897H39.6459C39.9774 18.4897 40.2458 18.7378 40.2458 19.0427V24.1762C38.3491 25.3043 36.8413 26.9383 35.9458 28.8702Z" fill="white"/>
<path fill-rule="evenodd" clip-rule="evenodd" d="M35.0831 33.989H12.4424C11.7805 33.989 11.2422 33.4943 11.2422 32.8845C11.2422 32.2747 11.7805 31.7799 12.4424 31.7799H35.1012C35.0529 32.1666 35.0273 32.5601 35.0273 32.9593C35.0273 33.3072 35.0468 33.6496 35.0831 33.989Z" fill="white"/>
<path fill-rule="evenodd" clip-rule="evenodd" d="M33.7155 38.0246H12.4424C11.7805 38.0246 11.2422 37.5299 11.2422 36.92C11.2422 36.3103 11.7805 35.8155 12.4424 35.8155H33.7155C34.3789 35.8155 34.9157 36.3103 34.9157 36.92C34.9157 37.5299 34.3789 38.0246 33.7155 38.0246Z" fill="white"/>
<path fill-rule="evenodd" clip-rule="evenodd" d="M33.7155 42.0872H12.4424C11.7805 42.0872 11.2422 41.5924 11.2422 40.9825C11.2422 40.3728 11.7805 39.8779 12.4424 39.8779H33.7155C34.3789 39.8779 34.9157 40.3728 34.9157 40.9825C34.9157 41.5924 34.3789 42.0872 33.7155 42.0872Z" fill="white"/>
<path fill-rule="evenodd" clip-rule="evenodd" d="M33.7155 46.1277H12.4424C11.7805 46.1277 11.2422 45.633 11.2422 45.0231C11.2422 44.4134 11.7805 43.9186 12.4424 43.9186H33.7155C34.3789 43.9186 34.9157 44.4134 34.9157 45.0231C34.9157 45.633 34.3789 46.1277 33.7155 46.1277Z" fill="white"/>
<mask id="mask1_51_862" style="mask-type:luminance" maskUnits="userSpaceOnUse" x="1" y="41" width="3" height="15">
<path d="M1.5 41.7891H3.99988V55.1856H1.5V41.7891Z" fill="white"/>
</mask>
<g mask="url(#mask1_51_862)">
<path fill-rule="evenodd" clip-rule="evenodd" d="M2.70018 55.1835C2.03827 55.1835 1.5 54.6887 1.5 54.0788V43.0012C1.5 42.3913 2.03827 41.8966 2.70018 41.8966C3.3636 41.8966 3.90037 42.3913 3.90037 43.0012V54.0788C3.90037 54.6887 3.3636 55.1835 2.70018 55.1835Z" fill="white"/>
</g>
<path fill-rule="evenodd" clip-rule="evenodd" d="M52.2979 14.3363C51.6345 14.3363 51.0977 13.8415 51.0977 13.2317V2.15262C51.0977 1.54281 51.6345 1.04803 52.2979 1.04803C52.9598 1.04803 53.4966 1.54281 53.4966 2.15262V13.2317C53.4966 13.8415 52.9598 14.3363 52.2979 14.3363Z" fill="white"/>
</g>
</g>
</g>
<defs>
<clipPath id="clip0_51_862">
<rect width="56.56" height="55" fill="white" transform="translate(0.720703 0.5)"/>
</clipPath>
<clipPath id="clip1_51_862">
<rect width="56.56" height="55" fill="white" transform="translate(0.720703 0.5)"/>
</clipPath>
<clipPath id="clip2_51_862">
<rect width="56.5714" height="55" fill="white" transform="translate(0.714844 0.5)"/>
</clipPath>
</defs>
</svg>
