<svg width="58" height="56" viewBox="0 0 58 56" fill="none" xmlns="http://www.w3.org/2000/svg">
<g clip-path="url(#clip0_1_1976)">
<g clip-path="url(#clip1_1_1976)">
<path fill-rule="evenodd" clip-rule="evenodd" d="M49.4927 42.9791C48.499 43.241 47.4496 43.3825 46.3655 43.3825C46.2073 43.3825 46.0504 43.3782 45.8936 43.3727V51.0716C45.8936 51.9849 46.6988 52.7279 47.6924 52.7279C48.686 52.7279 49.4927 51.9849 49.4927 51.0716V42.9791ZM45.8936 3.81501H9.08397V49.3198C9.08397 50.2331 8.2788 50.9761 7.28517 50.9761C6.29154 50.9761 5.48486 50.2331 5.48486 49.3184V2.15742C5.48486 1.2427 6.29154 0.501221 7.28517 0.501221H47.6924C48.686 0.501221 49.4927 1.2427 49.4927 2.15742V22.9189C48.499 22.6571 47.4496 22.5156 46.3655 22.5156C46.2073 22.5156 46.0504 22.5197 45.8936 22.5254V3.81501Z" fill="#0575AD"/>
<path fill-rule="evenodd" clip-rule="evenodd" d="M16.8231 5.24757H38.1489L38.7596 1.88392C38.924 0.983065 39.8542 0.37187 40.8328 0.522936C41.8113 0.674003 42.4748 1.52912 42.3104 2.42998L41.448 7.17678C41.3033 7.97508 40.5524 8.55994 39.6734 8.55994H15.3003C14.4212 8.55994 13.6689 7.97508 13.5241 7.17678L12.6632 2.42998C12.4988 1.52773 13.1623 0.672617 14.1423 0.522936C15.1223 0.373256 16.0481 0.981679 16.2125 1.88392L16.8231 5.24757Z" fill="#0575AD"/>
<path fill-rule="evenodd" clip-rule="evenodd" d="M48.8921 54.6297H6.08496C5.75325 54.6297 5.48486 54.3817 5.48486 54.0767V49.3301C5.48486 49.025 5.75325 48.7783 6.08496 48.7783H48.8921C49.2222 48.7783 49.492 49.025 49.492 49.3301V54.0767C49.492 54.3817 49.2222 54.6297 48.8921 54.6297Z" fill="#0575AD"/>
<path fill-rule="evenodd" clip-rule="evenodd" d="M33.997 12.449H20.9805C20.3186 12.449 19.7803 11.9556 19.7803 11.3444C19.7803 10.7346 20.3186 10.2412 20.9805 10.2412H33.997C34.659 10.2412 35.1972 10.7346 35.1972 11.3444C35.1972 11.9542 34.659 12.449 33.997 12.449Z" fill="#0575AD"/>
<mask id="mask0_1_1976" style="mask-type:luminance" maskUnits="userSpaceOnUse" x="36" y="23" width="21" height="20">
<path d="M36.1782 23.5242H56.4999V42.309H36.1782V23.5242Z" fill="white"/>
</mask>
<g mask="url(#mask0_1_1976)">
<path fill-rule="evenodd" clip-rule="evenodd" d="M46.0428 27.2891C44.4296 27.5399 43.1978 28.8357 43.1978 30.3908C43.1978 32.0372 44.591 33.412 46.3731 33.527C47.4738 33.6435 48.3332 34.5415 48.3332 35.5755C48.3332 36.7008 47.3396 37.617 46.1168 37.617C45.3885 37.617 44.7055 37.2871 44.2908 36.7342C44.1038 36.4834 43.7284 36.421 43.457 36.5927C43.1842 36.7661 43.1164 37.1111 43.3048 37.3605C43.9289 38.1935 44.9483 38.698 46.0428 38.7201V39.1707C46.0428 39.4755 46.3112 39.7222 46.643 39.7222C46.9733 39.7222 47.2415 39.4755 47.2415 39.1707V38.5455C48.5744 38.1173 49.5334 36.9476 49.5334 35.5755C49.5334 33.9554 48.2262 32.6027 46.4923 32.4281C46.4831 32.4281 46.4742 32.4267 46.4666 32.4253C45.3057 32.356 44.3979 31.4608 44.3979 30.3908C44.3979 29.2653 45.3915 28.3493 46.6144 28.3493C47.3426 28.3493 48.0257 28.6792 48.4402 29.2322C48.6288 29.483 49.0026 29.5453 49.274 29.3734C49.547 29.2003 49.6163 28.8552 49.4278 28.6042C48.9091 27.914 48.1206 27.4498 47.2415 27.2987V26.7513C47.2415 26.4451 46.9733 26.1984 46.643 26.1984C46.3112 26.1984 46.0428 26.4451 46.0428 26.7513V27.2891ZM46.3656 42.289C40.7778 42.289 36.2319 38.1048 36.2319 32.9602C36.2319 27.8157 40.7778 23.6316 46.3656 23.6316C51.9533 23.6316 56.4993 27.8157 56.4993 32.9602C56.4993 38.1048 51.9533 42.289 46.3656 42.289Z" fill="#0575AD"/>
</g>
<path fill-rule="evenodd" clip-rule="evenodd" d="M35.6933 29.4185H12.4419C11.78 29.4185 11.2417 28.9237 11.2417 28.3138C11.2417 27.7041 11.78 27.2092 12.4419 27.2092H36.8963C36.4064 27.8939 36.0008 28.634 35.6933 29.4185Z" fill="#0575AD"/>
<path fill-rule="evenodd" clip-rule="evenodd" d="M20.269 28.8674H15.3506C15.0204 28.8674 14.7505 28.6193 14.7505 28.3145V21.6965C14.7505 21.3917 15.0204 21.1436 15.3506 21.1436H20.269C20.6006 21.1436 20.869 21.3917 20.869 21.6965V28.3145C20.869 28.6193 20.6006 28.8674 20.269 28.8674Z" fill="#0575AD"/>
<path fill-rule="evenodd" clip-rule="evenodd" d="M29.9494 28.8742H25.0312C24.701 28.8742 24.4326 28.626 24.4326 28.3212V15.3794C24.4326 15.0745 24.701 14.8264 25.0312 14.8264H29.9494C30.2812 14.8264 30.5496 15.0745 30.5496 15.3794V28.3212C30.5496 28.626 30.2812 28.8742 29.9494 28.8742Z" fill="#0575AD"/>
<path fill-rule="evenodd" clip-rule="evenodd" d="M35.9448 28.8703H34.7265C34.3963 28.8703 34.1279 28.6223 34.1279 28.3173V19.0427C34.1279 18.7379 34.3963 18.4897 34.7265 18.4897H39.6449C39.9765 18.4897 40.2449 18.7379 40.2449 19.0427V24.1763C38.3482 25.3044 36.8404 26.9384 35.9448 28.8703Z" fill="#0575AD"/>
<path fill-rule="evenodd" clip-rule="evenodd" d="M35.0826 33.9891H12.4419C11.78 33.9891 11.2417 33.4945 11.2417 32.8846C11.2417 32.2749 11.78 31.78 12.4419 31.78H35.1007C35.0524 32.1668 35.0268 32.5602 35.0268 32.9594C35.0268 33.3073 35.0463 33.6497 35.0826 33.9891Z" fill="#0575AD"/>
<path fill-rule="evenodd" clip-rule="evenodd" d="M33.715 38.0245H12.4419C11.78 38.0245 11.2417 37.5299 11.2417 36.92C11.2417 36.3103 11.78 35.8154 12.4419 35.8154H33.715C34.3784 35.8154 34.9152 36.3103 34.9152 36.92C34.9152 37.5299 34.3784 38.0245 33.715 38.0245Z" fill="#0575AD"/>
<path fill-rule="evenodd" clip-rule="evenodd" d="M33.715 42.0872H12.4419C11.78 42.0872 11.2417 41.5924 11.2417 40.9825C11.2417 40.3728 11.78 39.8779 12.4419 39.8779H33.715C34.3784 39.8779 34.9152 40.3728 34.9152 40.9825C34.9152 41.5924 34.3784 42.0872 33.715 42.0872Z" fill="#0575AD"/>
<path fill-rule="evenodd" clip-rule="evenodd" d="M33.715 46.1276H12.4419C11.78 46.1276 11.2417 45.6329 11.2417 45.023C11.2417 44.4133 11.78 43.9185 12.4419 43.9185H33.715C34.3784 43.9185 34.9152 44.4133 34.9152 45.023C34.9152 45.6329 34.3784 46.1276 33.715 46.1276Z" fill="#0575AD"/>
<mask id="mask1_1_1976" style="mask-type:luminance" maskUnits="userSpaceOnUse" x="1" y="41" width="3" height="15">
<path d="M1.5 41.7891H3.99988V55.1855H1.5V41.7891Z" fill="white"/>
</mask>
<g mask="url(#mask1_1_1976)">
<path fill-rule="evenodd" clip-rule="evenodd" d="M2.70018 55.1834C2.03827 55.1834 1.5 54.6885 1.5 54.0787V43.001C1.5 42.3912 2.03827 41.8965 2.70018 41.8965C3.3636 41.8965 3.90037 42.3912 3.90037 43.001V54.0787C3.90037 54.6885 3.3636 55.1834 2.70018 55.1834Z" fill="#0575AD"/>
</g>
<path fill-rule="evenodd" clip-rule="evenodd" d="M52.2969 14.3364C51.6335 14.3364 51.0967 13.8416 51.0967 13.2318V2.15268C51.0967 1.54287 51.6335 1.0481 52.2969 1.0481C52.9588 1.0481 53.4956 1.54287 53.4956 2.15268V13.2318C53.4956 13.8416 52.9588 14.3364 52.2969 14.3364Z" fill="#0575AD"/>
</g>
</g>
<defs>
<clipPath id="clip0_1_1976">
<rect width="56.56" height="55" fill="white" transform="translate(0.720215 0.5)"/>
</clipPath>
<clipPath id="clip1_1_1976">
<rect width="56.5714" height="55" fill="white" transform="translate(0.714355 0.5)"/>
</clipPath>
</defs>
</svg>
