<svg width="64" height="56" viewBox="0 0 64 56" fill="none" xmlns="http://www.w3.org/2000/svg">
<g clip-path="url(#clip0_1_1907)">
<g clip-path="url(#clip1_1_1907)">
<g clip-path="url(#clip2_1_1907)">
<mask id="mask0_1_1907" style="mask-type:luminance" maskUnits="userSpaceOnUse" x="0" y="0" width="64" height="55">
<path d="M0.0849609 0.5H63.9242V54.7871H0.0849609V0.5Z" fill="white"/>
</mask>
<g mask="url(#mask0_1_1907)">
<path d="M33.9995 22.6162C31.7949 22.6162 30.0097 20.8162 30.0097 18.5957V17.5906C30.0097 15.3683 31.7949 13.5683 33.9995 13.5683C36.2026 13.5683 37.9896 15.3683 37.9896 17.5906V18.5957C37.9896 20.8162 36.2026 22.6162 33.9995 22.6162ZM40.982 27.6435C40.982 24.8661 38.7483 22.6162 35.9946 22.6162H32.0046C29.2491 22.6162 27.0172 24.8661 27.0172 27.6435V29.6537H40.982V27.6435ZM45.9695 20.8249C45.4681 19.6698 44.7896 18.6129 43.9745 17.6802V29.6537C43.9745 31.3157 42.6308 32.6691 40.982 32.6691H25.2933C25.8219 33.407 26.4289 34.0794 27.1059 34.6794H40.982C43.7306 34.6794 45.9695 32.4244 45.9695 29.6537V20.8249ZM63.9242 51.9424C63.9242 53.5129 62.6607 54.7853 61.1023 54.7853C60.3538 54.7853 59.6359 54.487 59.1073 53.9526L45.5278 40.2671C42.5661 42.4342 38.9359 43.7272 34.9971 43.7272C28.354 43.7272 22.5686 40.0826 19.4635 34.6794H5.0724C2.32207 34.6794 0.0849609 32.4244 0.0849609 29.6537V5.52562C0.0849609 2.75506 2.32207 0.5 5.0724 0.5H40.982C43.7306 0.5 45.9695 2.75506 45.9695 5.52562V11.3305C50.2101 14.6407 52.9518 19.8076 52.9518 25.6316C52.9518 29.6021 51.6679 33.2622 49.5178 36.2448L63.0973 49.9321C63.6259 50.4648 63.9242 51.189 63.9242 51.9424ZM18.4507 32.6691C17.5435 30.5054 17.0422 28.128 17.0422 25.6316C17.0422 15.6389 25.0802 7.53759 34.9971 7.53759C38.2709 7.53759 41.3315 8.4341 43.9745 9.97713V5.52562C43.9745 3.86363 42.6308 2.51025 40.982 2.51025H5.0724C3.42186 2.51025 2.07994 3.86363 2.07994 5.52562V29.6537C2.07994 31.3157 3.42186 32.6691 5.0724 32.6691H18.4507ZM34.9971 40.7119C43.2464 40.7119 49.9594 33.9467 49.9594 25.6316C49.9594 17.3181 43.2464 10.5529 34.9971 10.5529C26.746 10.5529 20.0347 17.3164 20.0347 25.6316C20.0347 33.9467 26.746 40.7119 34.9971 40.7119ZM14.0499 26.6367H5.0724C4.51995 26.6367 4.07492 27.0884 4.07492 27.6435C4.07492 28.1987 4.51995 28.6486 5.0724 28.6486H14.0499C14.6005 28.6486 15.0473 28.1987 15.0473 27.6435C15.0473 27.0884 14.6005 26.6367 14.0499 26.6367ZM14.0499 20.6059H5.0724C4.51995 20.6059 4.07492 21.0559 4.07492 21.6111C4.07492 22.1662 4.51995 22.6162 5.0724 22.6162H14.0499C14.6005 22.6162 15.0473 22.1662 15.0473 21.6111C15.0473 21.0559 14.6005 20.6059 14.0499 20.6059ZM15.0473 13.5683H5.0724C4.51995 13.5683 4.07492 14.0183 4.07492 14.5734C4.07492 15.1286 4.51995 15.5785 5.0724 15.5785H15.0473C15.598 15.5785 16.0448 15.1286 16.0448 14.5734C16.0448 14.0183 15.598 13.5683 15.0473 13.5683ZM5.0724 8.54272H9.06236C9.61311 8.54272 10.0598 8.09274 10.0598 7.53759C10.0598 6.98072 9.61311 6.53074 9.06236 6.53074H5.0724C4.51995 6.53074 4.07492 6.98072 4.07492 7.53759C4.07492 8.09274 4.51995 8.54272 5.0724 8.54272ZM13.0523 8.54272H17.0422C17.593 8.54272 18.0397 8.09274 18.0397 7.53759C18.0397 6.98072 17.593 6.53074 17.0422 6.53074H13.0523C12.4998 6.53074 12.0548 6.98072 12.0548 7.53759C12.0548 8.09274 12.4998 8.54272 13.0523 8.54272ZM21.0322 8.54272H23.0272C23.5779 8.54272 24.0247 8.09274 24.0247 7.53759C24.0247 6.98072 23.5779 6.53074 23.0272 6.53074H21.0322C20.4797 6.53074 20.0347 6.98072 20.0347 7.53759C20.0347 8.09274 20.4797 8.54272 21.0322 8.54272Z" fill="#0575AD"/>
</g>
</g>
</g>
</g>
<defs>
<clipPath id="clip0_1_1907">
<rect width="63.83" height="55" fill="white" transform="translate(0.0898438 0.5)"/>
</clipPath>
<clipPath id="clip1_1_1907">
<rect width="63.83" height="55" fill="white" transform="translate(0.0898438 0.5)"/>
</clipPath>
<clipPath id="clip2_1_1907">
<rect width="63.8393" height="55" fill="white" transform="translate(0.0849609 0.5)"/>
</clipPath>
</defs>
</svg>
