<svg width="64" height="56" viewBox="0 0 64 56" fill="none" xmlns="http://www.w3.org/2000/svg">
<g clip-path="url(#clip0_51_794)">
<g clip-path="url(#clip1_51_794)">
<g clip-path="url(#clip2_51_794)">
<mask id="mask0_51_794" style="mask-type:luminance" maskUnits="userSpaceOnUse" x="0" y="0" width="64" height="55">
<path d="M0.0859375 0.5H63.9252V54.7871H0.0859375V0.5Z" fill="white"/>
</mask>
<g mask="url(#mask0_51_794)">
<path d="M34.0005 22.6162C31.7959 22.6162 30.0107 20.8162 30.0107 18.5957V17.5906C30.0107 15.3683 31.7959 13.5683 34.0005 13.5683C36.2036 13.5683 37.9906 15.3683 37.9906 17.5906V18.5957C37.9906 20.8162 36.2036 22.6162 34.0005 22.6162ZM40.983 27.6435C40.983 24.8661 38.7493 22.6162 35.9955 22.6162H32.0056C29.2501 22.6162 27.0182 24.8661 27.0182 27.6435V29.6537H40.983V27.6435ZM45.9705 20.8249C45.4691 19.6698 44.7905 18.6129 43.9754 17.6802V29.6537C43.9754 31.3157 42.6318 32.6691 40.983 32.6691H25.2943C25.8229 33.407 26.4299 34.0794 27.1068 34.6794H40.983C43.7316 34.6794 45.9705 32.4244 45.9705 29.6537V20.8249ZM63.9252 51.9424C63.9252 53.5129 62.6617 54.7853 61.1032 54.7853C60.3547 54.7853 59.6369 54.487 59.1083 53.9526L45.5288 40.2671C42.5671 42.4342 38.9369 43.7272 34.9981 43.7272C28.355 43.7272 22.5695 40.0826 19.4645 34.6794H5.07338C2.32304 34.6794 0.0859375 32.4244 0.0859375 29.6537V5.52562C0.0859375 2.75506 2.32304 0.5 5.07338 0.5H40.983C43.7316 0.5 45.9705 2.75506 45.9705 5.52562V11.3305C50.2111 14.6407 52.9528 19.8076 52.9528 25.6316C52.9528 29.6021 51.6689 33.2622 49.5188 36.2448L63.0983 49.9321C63.6268 50.4648 63.9252 51.189 63.9252 51.9424ZM18.4517 32.6691C17.5445 30.5054 17.0432 28.128 17.0432 25.6316C17.0432 15.6389 25.0812 7.53759 34.9981 7.53759C38.2719 7.53759 41.3325 8.4341 43.9754 9.97713V5.52562C43.9754 3.86363 42.6318 2.51025 40.983 2.51025H5.07338C3.42284 2.51025 2.08092 3.86363 2.08092 5.52562V29.6537C2.08092 31.3157 3.42284 32.6691 5.07338 32.6691H18.4517ZM34.9981 40.7119C43.2474 40.7119 49.9603 33.9467 49.9603 25.6316C49.9603 17.3181 43.2474 10.5529 34.9981 10.5529C26.747 10.5529 20.0357 17.3164 20.0357 25.6316C20.0357 33.9467 26.747 40.7119 34.9981 40.7119ZM14.0508 26.6367H5.07338C4.52092 26.6367 4.07589 27.0884 4.07589 27.6435C4.07589 28.1987 4.52092 28.6486 5.07338 28.6486H14.0508C14.6015 28.6486 15.0483 28.1987 15.0483 27.6435C15.0483 27.0884 14.6015 26.6367 14.0508 26.6367ZM14.0508 20.6059H5.07338C4.52092 20.6059 4.07589 21.0559 4.07589 21.6111C4.07589 22.1662 4.52092 22.6162 5.07338 22.6162H14.0508C14.6015 22.6162 15.0483 22.1662 15.0483 21.6111C15.0483 21.0559 14.6015 20.6059 14.0508 20.6059ZM15.0483 13.5683H5.07338C4.52092 13.5683 4.07589 14.0183 4.07589 14.5734C4.07589 15.1286 4.52092 15.5785 5.07338 15.5785H15.0483C15.599 15.5785 16.0458 15.1286 16.0458 14.5734C16.0458 14.0183 15.599 13.5683 15.0483 13.5683ZM5.07338 8.54272H9.06333C9.61409 8.54272 10.0608 8.09274 10.0608 7.53759C10.0608 6.98072 9.61409 6.53074 9.06333 6.53074H5.07338C4.52092 6.53074 4.07589 6.98072 4.07589 7.53759C4.07589 8.09274 4.52092 8.54272 5.07338 8.54272ZM13.0533 8.54272H17.0432C17.594 8.54272 18.0407 8.09274 18.0407 7.53759C18.0407 6.98072 17.594 6.53074 17.0432 6.53074H13.0533C12.5008 6.53074 12.0558 6.98072 12.0558 7.53759C12.0558 8.09274 12.5008 8.54272 13.0533 8.54272ZM21.0332 8.54272H23.0282C23.5789 8.54272 24.0257 8.09274 24.0257 7.53759C24.0257 6.98072 23.5789 6.53074 23.0282 6.53074H21.0332C20.4807 6.53074 20.0357 6.98072 20.0357 7.53759C20.0357 8.09274 20.4807 8.54272 21.0332 8.54272Z" fill="white"/>
</g>
</g>
</g>
</g>
<defs>
<clipPath id="clip0_51_794">
<rect width="63.83" height="55" fill="white" transform="translate(0.0898438 0.5)"/>
</clipPath>
<clipPath id="clip1_51_794">
<rect width="63.83" height="55" fill="white" transform="translate(0.0898438 0.5)"/>
</clipPath>
<clipPath id="clip2_51_794">
<rect width="63.8393" height="55" fill="white" transform="translate(0.0859375 0.5)"/>
</clipPath>
</defs>
</svg>
