<svg width="66" height="65" viewBox="0 0 66 65" fill="none" xmlns="http://www.w3.org/2000/svg">
<rect x="0.5" width="65" height="65" rx="8" fill="#00D280" fill-opacity="0.2"/>
<g clip-path="url(#clip0_1_1807)">
<g clip-path="url(#clip1_1_1807)">
<g clip-path="url(#clip2_1_1807)">
<path d="M22.4575 39.8481V41.185H43.5434V39.8481H41.9263V28.9004H43.5434V27.5635H22.4575V28.9004H24.0745V39.8481H22.4575ZM28.2617 39.8481V28.9004H30.9069V39.8481H28.2617ZM35.094 39.8481V28.9004H37.7392V39.8481H35.094ZM40.5893 28.9004V39.8481H39.0762V28.9004H40.5893ZM33.757 28.9004V39.8481H32.2439V28.9004H33.757ZM25.4115 28.9004H26.9247V39.8481H25.4115V28.9004Z" fill="#00D280"/>
<path d="M44.6965 42.5181H21.3037C20.9342 42.5181 20.6353 42.8171 20.6353 43.1865C20.6353 43.5555 20.9342 43.855 21.3037 43.855H44.6965C45.0661 43.855 45.365 43.5555 45.365 43.1865C45.365 42.8171 45.0661 42.5181 44.6965 42.5181Z" fill="#00D280"/>
<path d="M45.3558 25.4727C45.354 25.4558 45.3533 25.4388 45.3501 25.4224C45.3448 25.4002 45.3363 25.3788 45.3291 25.3566C45.3232 25.3376 45.3187 25.3174 45.3108 25.2991C45.3017 25.2789 45.29 25.2606 45.2796 25.2417C45.269 25.2234 45.2606 25.2038 45.2488 25.1868C45.237 25.1698 45.2227 25.1548 45.209 25.1385C45.1946 25.1215 45.1816 25.1033 45.1659 25.0876C45.1535 25.0752 45.1385 25.0654 45.1254 25.0543C45.1046 25.0367 45.0844 25.019 45.0622 25.0041C45.0595 25.0027 45.0575 25.0001 45.0556 24.9988L33.3592 17.5555C33.1405 17.4164 32.8605 17.4164 32.6417 17.5555L20.9447 24.9988C20.9427 25.0001 20.9408 25.0027 20.9382 25.0041C20.916 25.019 20.8957 25.0367 20.8748 25.0543C20.8618 25.0654 20.8468 25.0752 20.835 25.0876C20.8187 25.1033 20.8056 25.1215 20.7913 25.1385C20.7782 25.1548 20.7632 25.1698 20.7515 25.1868C20.7397 25.2044 20.7312 25.2234 20.7208 25.2417C20.7103 25.2606 20.6986 25.2789 20.6901 25.2991C20.6823 25.3174 20.6777 25.3376 20.6712 25.3566C20.664 25.3788 20.6555 25.4002 20.6509 25.4224C20.647 25.4388 20.647 25.4558 20.6444 25.4727C20.6405 25.5002 20.6366 25.5269 20.6366 25.555C20.6366 25.5577 20.6353 25.5602 20.6353 25.5628C20.6353 25.5772 20.6385 25.5909 20.6398 25.6053C20.6411 25.6327 20.6431 25.6594 20.6477 25.6869C20.6516 25.7071 20.6587 25.7267 20.664 25.7463C20.6705 25.7684 20.6757 25.79 20.6842 25.8116C20.6933 25.835 20.7058 25.856 20.7175 25.8782C20.7253 25.8925 20.7306 25.9075 20.7397 25.9218C20.741 25.9245 20.7436 25.9265 20.7456 25.9291C20.7586 25.9493 20.7743 25.9669 20.79 25.9852C20.8024 26.0015 20.8148 26.0185 20.8291 26.0329C20.8402 26.0446 20.8539 26.0538 20.8663 26.0642C20.8866 26.0825 20.9062 26.1007 20.9284 26.1164C20.9382 26.1229 20.9493 26.1276 20.9597 26.1333C20.9865 26.1497 21.0126 26.1653 21.0413 26.1778C21.0537 26.183 21.0668 26.1856 21.0792 26.1902C21.1079 26.2 21.1353 26.2104 21.1647 26.2163C21.1777 26.2189 21.1908 26.2195 21.2039 26.2215C21.2345 26.2261 21.2652 26.2307 21.2965 26.2307C21.2992 26.2307 21.3011 26.2313 21.3037 26.2313H44.6965C44.7488 26.2313 44.7991 26.2242 44.848 26.2124C44.8617 26.2091 44.8741 26.2046 44.8872 26.2006C44.9231 26.1895 44.9577 26.1765 44.9903 26.1602C45.006 26.153 45.0204 26.1451 45.0347 26.1366C45.0661 26.1178 45.0954 26.0968 45.1235 26.0734C45.1346 26.0636 45.147 26.0557 45.1574 26.0453C45.1946 26.01 45.2279 25.9709 45.256 25.9277C45.2574 25.9251 45.2593 25.9238 45.2606 25.9218C45.2697 25.9075 45.2749 25.8919 45.2828 25.8775C45.2945 25.856 45.3069 25.8344 45.3161 25.8116C45.3246 25.79 45.3298 25.7678 45.3363 25.7456C45.3422 25.726 45.3487 25.7071 45.3526 25.6862C45.3578 25.6594 45.3591 25.6327 45.3605 25.6053C45.3617 25.5909 45.365 25.5772 45.365 25.5628C45.365 25.5602 45.3644 25.5577 45.3644 25.555C45.3637 25.5269 45.3598 25.5002 45.3558 25.4727ZM33.0001 18.912L42.4013 24.8943H23.599L33.0001 18.912Z" fill="#00D280"/>
<path d="M33.0001 11.9907C21.9422 11.9907 12.9458 20.9871 12.9458 32.0451C12.9458 43.103 21.9422 52.0994 33.0001 52.0994C44.0581 52.0994 53.0545 43.103 53.0545 32.0451C53.0545 20.9871 44.0581 11.9907 33.0001 11.9907ZM33.0001 50.7625C22.6792 50.7625 14.2828 42.366 14.2828 32.0451C14.2828 21.7241 22.6792 13.3277 33.0001 13.3277C43.3211 13.3277 51.7175 21.7241 51.7175 32.0451C51.7175 42.366 43.3211 50.7625 33.0001 50.7625Z" fill="#00D280"/>
</g>
</g>
</g>
<defs>
<clipPath id="clip0_1_1807">
<rect width="41" height="40.09" fill="white" transform="translate(12.5 12)"/>
</clipPath>
<clipPath id="clip1_1_1807">
<rect width="41" height="40.09" fill="white" transform="translate(12.5 12)"/>
</clipPath>
<clipPath id="clip2_1_1807">
<rect width="41" height="40.1087" fill="white" transform="translate(12.5 11.9907)"/>
</clipPath>
</defs>
</svg>
