<svg width="38" height="56" viewBox="0 0 38 56" fill="none" xmlns="http://www.w3.org/2000/svg">
<g clip-path="url(#clip0_1_1873)">
<g clip-path="url(#clip1_1_1873)">
<g clip-path="url(#clip2_1_1873)">
<mask id="mask0_1_1873" style="mask-type:luminance" maskUnits="userSpaceOnUse" x="0" y="0" width="38" height="56">
<path d="M0.97168 0.5H37.0373V55.4492H0.97168V0.5Z" fill="white"/>
</mask>
<g mask="url(#mask0_1_1873)">
<path fill-rule="evenodd" clip-rule="evenodd" d="M37.0385 7.50211C37.0385 3.65032 33.6381 0.524658 29.4516 0.524658H8.55868C4.37213 0.524658 0.97168 3.65032 0.97168 7.50211V48.455C0.97168 52.3068 4.37213 55.4325 8.55868 55.4325H29.4516C33.6381 55.4325 37.0385 52.3068 37.0385 48.455V7.50211ZM35.7957 7.50211V48.455C35.7957 51.6741 32.9536 54.2878 29.4516 54.2878H8.55868C5.05659 54.2878 2.21453 51.6741 2.21453 48.455V7.50211C2.21453 4.28302 5.05659 1.66943 8.55868 1.66943H29.4516C32.9536 1.66943 35.7957 4.28302 35.7957 7.50211ZM23.9785 50.8569C23.9785 49.9097 23.1434 49.1409 22.1154 49.1409H15.8973C14.8655 49.1409 14.0292 49.9097 14.0292 50.8569C14.0292 51.8042 14.8655 52.5718 15.8973 52.5718H22.1154C23.1434 52.5718 23.9785 51.8042 23.9785 50.8569ZM33.3087 7.96097C33.3087 7.64521 33.0283 7.38858 32.686 7.38858H5.3242C4.98197 7.38858 4.70149 7.64521 4.70149 7.96097V46.8526C4.70149 47.1683 4.98197 47.4249 5.3242 47.4249H32.686C33.0283 47.4249 33.3087 47.1683 33.3087 46.8526V7.96097ZM25.8439 26.2632H28.3309C28.5908 26.2632 28.8237 26.113 28.9138 25.8919C29.0038 25.6659 28.9357 25.4164 28.7387 25.2568L19.4123 17.8217C19.1781 17.6372 18.8321 17.6372 18.5979 17.8217L9.27145 25.2568C9.0746 25.4164 9.00384 25.6659 9.09647 25.8919C9.18653 26.113 9.41683 26.2632 9.67674 26.2632H12.1637V33.1259H10.9208C10.6674 33.1259 10.4397 33.2667 10.3445 33.4854L9.10033 36.345C9.02314 36.5224 9.04758 36.7211 9.16209 36.8772C9.27788 37.0357 9.46959 37.1303 9.67674 37.1303H28.3309C28.538 37.1303 28.7323 37.0357 28.8456 36.8772C28.9626 36.7211 28.9871 36.5224 28.9099 36.345L27.6658 33.4854C27.5706 33.2667 27.3428 33.1259 27.0881 33.1259H25.8439V26.2632ZM17.7604 26.2632H15.2734V33.1259H17.7604V26.2632ZM22.7343 26.2632H20.2473V33.1259H22.7343V26.2632ZM9.0553 3.38541C9.74238 3.38541 10.2981 3.89631 10.2981 4.52901C10.2981 5.16052 9.74238 5.6726 9.0553 5.6726C8.36955 5.6726 7.81117 5.16052 7.81117 4.52901C7.81117 3.89631 8.36955 3.38541 9.0553 3.38541ZM14.0318 3.38541C14.7163 3.38541 15.2759 3.89631 15.2759 4.52901C15.2759 5.16052 14.7163 5.6726 14.0318 5.6726C13.3448 5.6726 12.7877 5.16052 12.7877 4.52901C12.7877 3.89631 13.3448 3.38541 14.0318 3.38541Z" fill="#0575AD"/>
</g>
</g>
</g>
</g>
<defs>
<clipPath id="clip0_1_1873">
<rect width="36.95" height="55" fill="white" transform="translate(0.529785 0.5)"/>
</clipPath>
<clipPath id="clip1_1_1873">
<rect width="36.95" height="55" fill="white" transform="translate(0.529785 0.5)"/>
</clipPath>
<clipPath id="clip2_1_1873">
<rect width="36.9672" height="55" fill="white" transform="translate(0.520996 0.5)"/>
</clipPath>
</defs>
</svg>
