<svg width="38" height="56" viewBox="0 0 38 56" fill="none" xmlns="http://www.w3.org/2000/svg">
<g clip-path="url(#clip0_51_760)">
<g clip-path="url(#clip1_51_760)">
<g clip-path="url(#clip2_51_760)">
<mask id="mask0_51_760" style="mask-type:luminance" maskUnits="userSpaceOnUse" x="0" y="0" width="38" height="56">
<path d="M0.972656 0.5H37.0382V55.4492H0.972656V0.5Z" fill="white"/>
</mask>
<g mask="url(#mask0_51_760)">
<path fill-rule="evenodd" clip-rule="evenodd" d="M37.0395 7.50211C37.0395 3.65032 33.6391 0.524658 29.4526 0.524658H8.55965C4.37311 0.524658 0.972656 3.65032 0.972656 7.50211V48.455C0.972656 52.3068 4.37311 55.4325 8.55965 55.4325H29.4526C33.6391 55.4325 37.0395 52.3068 37.0395 48.455V7.50211ZM35.7967 7.50211V48.455C35.7967 51.6741 32.9546 54.2877 29.4526 54.2877H8.55965C5.05757 54.2877 2.2155 51.6741 2.2155 48.455V7.50211C2.2155 4.28302 5.05757 1.66943 8.55965 1.66943H29.4526C32.9546 1.66943 35.7967 4.28302 35.7967 7.50211ZM23.9794 50.8569C23.9794 49.9097 23.1444 49.1409 22.1164 49.1409H15.8983C14.8665 49.1409 14.0302 49.9097 14.0302 50.8569C14.0302 51.8042 14.8665 52.5718 15.8983 52.5718H22.1164C23.1444 52.5718 23.9794 51.8042 23.9794 50.8569ZM33.3097 7.96097C33.3097 7.64521 33.0293 7.38858 32.687 7.38858H5.32518C4.98295 7.38858 4.70247 7.64521 4.70247 7.96097V46.8526C4.70247 47.1683 4.98295 47.4249 5.32518 47.4249H32.687C33.0293 47.4249 33.3097 47.1683 33.3097 46.8526V7.96097ZM25.8449 26.2632H28.3319C28.5918 26.2632 28.8247 26.113 28.9147 25.8919C29.0048 25.6659 28.9366 25.4164 28.7397 25.2568L19.4133 17.8217C19.1791 17.6372 18.8331 17.6372 18.5989 17.8217L9.27243 25.2568C9.07557 25.4164 9.00481 25.6659 9.09745 25.8919C9.18751 26.113 9.41781 26.2632 9.67771 26.2632H12.1647V33.1259H10.9218C10.6683 33.1259 10.4407 33.2667 10.3455 33.4854L9.10131 36.345C9.02412 36.5224 9.04856 36.7211 9.16307 36.8772C9.27886 37.0357 9.47056 37.1303 9.67771 37.1303H28.3319C28.539 37.1303 28.7333 37.0357 28.8466 36.8772C28.9636 36.7211 28.988 36.5224 28.9109 36.345L27.6668 33.4854C27.5716 33.2667 27.3438 33.1259 27.0891 33.1259H25.8449V26.2632ZM17.7614 26.2632H15.2744V33.1259H17.7614V26.2632ZM22.7353 26.2632H20.2483V33.1259H22.7353V26.2632ZM9.05628 3.38541C9.74335 3.38541 10.2991 3.89631 10.2991 4.52901C10.2991 5.16052 9.74335 5.6726 9.05628 5.6726C8.37053 5.6726 7.81215 5.16052 7.81215 4.52901C7.81215 3.89631 8.37053 3.38541 9.05628 3.38541ZM14.0328 3.38541C14.7172 3.38541 15.2769 3.89631 15.2769 4.52901C15.2769 5.16052 14.7172 5.6726 14.0328 5.6726C13.3458 5.6726 12.7886 5.16052 12.7886 4.52901C12.7886 3.89631 13.3458 3.38541 14.0328 3.38541Z" fill="white"/>
</g>
</g>
</g>
</g>
<defs>
<clipPath id="clip0_51_760">
<rect width="36.95" height="55" fill="white" transform="translate(0.529297 0.5)"/>
</clipPath>
<clipPath id="clip1_51_760">
<rect width="36.95" height="55" fill="white" transform="translate(0.529297 0.5)"/>
</clipPath>
<clipPath id="clip2_51_760">
<rect width="36.9672" height="55" fill="white" transform="translate(0.521484 0.5)"/>
</clipPath>
</defs>
</svg>
