<svg width="60" height="56" viewBox="0 0 60 56" fill="none" xmlns="http://www.w3.org/2000/svg">
<g clip-path="url(#clip0_51_783)">
<g clip-path="url(#clip1_51_783)">
<g clip-path="url(#clip2_51_783)">
<mask id="mask0_51_783" style="mask-type:luminance" maskUnits="userSpaceOnUse" x="0" y="0" width="60" height="55">
<path d="M0.732422 0.5H59.2553V54.5436H0.732422V0.5Z" fill="white"/>
</mask>
<g mask="url(#mask0_51_783)">
<path fill-rule="evenodd" clip-rule="evenodd" d="M24.3261 46.8899C25.844 46.9353 26.7892 47.9444 26.6678 49.4418C28.3257 49.4494 29.3369 50.6818 29.0918 51.9634C28.9765 52.5673 28.8674 52.3534 28.6779 52.7604C29.4583 53.0443 31.0215 53.6936 31.7897 53.9814C33.0399 54.4509 34.9758 53.0065 33.3488 52.1754L30.7539 51.0131C30.0804 50.8407 30.1112 50.0628 30.9639 50.2388C31.3284 50.3126 31.7156 50.5643 32.0616 50.7252C32.9863 51.1569 33.773 51.5828 34.5495 51.9331C36.4277 52.7831 38.03 50.9014 36.5637 50.1177C35.882 49.7561 35.0046 49.3093 34.5186 49.0556C34.0531 48.8114 33.5671 48.5615 33.1038 48.3041C32.6465 48.0485 31.8082 47.8232 32.1729 47.2894C32.5435 46.924 33.528 47.6718 34.3085 48.0768C34.9675 48.4158 36.7779 49.2885 37.4554 49.6463C39.3152 50.6969 41.0678 49.279 39.3728 47.8686C39.136 47.6282 34.3311 44.9873 33.771 44.7545C33.1161 44.2718 33.8101 43.7398 34.2858 44.0275L41.2409 48.251C42.8596 48.8531 44.3857 47.1001 43.1108 45.9832C39.5891 43.4994 35.9561 40.8794 31.901 38.869C31.2069 38.5054 30.0536 37.8977 29.6664 37.7899C28.1465 37.3621 26.3753 40.0067 25.4114 40.7336C23.9863 41.4455 22.1781 41.0308 21.589 40.1506C20.8497 39.0469 23.2078 36.7885 23.9534 35.7207C23.2098 35.5636 22.4581 35.5144 21.7023 35.3422C20.7899 35.132 20.5078 34.7761 19.857 34.5376C19.5171 34.8764 14.8462 42.5377 14.7474 42.9258C15.3755 43.4578 15.8141 44.0484 16.3249 44.639C17.7233 43.6774 19.581 43.666 20.3883 45.5041L20.9176 44.7961C22.211 43.5732 24.738 44.7999 24.3261 46.8899ZM0.732422 37.3867L12.867 44.2433L19.2124 34.1268L7.07775 27.27L0.732422 37.3867ZM59.2553 37.1557L47.1207 44.0105L40.7754 33.894L52.91 27.0372L59.2553 37.1557ZM17.5112 44.8151C17.0314 44.9703 16.0387 46.2085 16.0077 46.7082C15.9604 47.5487 16.9098 48.4119 17.8716 48.1091C18.2238 47.9993 19.4863 46.5909 19.5171 46.0721C19.5707 45.171 18.5039 44.3154 17.5112 44.8151ZM25.8481 50.7462L24.5692 52.4158C23.8071 53.8773 25.4732 54.6439 26.4989 54.0836C26.7398 53.9511 28.1115 52.2965 28.2433 51.9652C28.7128 50.7934 26.8634 49.4191 25.8481 50.7462ZM23.9286 47.7758C23.3993 48.0371 21.9659 50.0703 21.5746 50.5643C20.4358 52.0012 22.3572 53.1162 23.3519 52.4612C23.6774 52.2909 25.0964 50.4054 25.4815 49.9227C26.5689 48.5539 25.0161 47.2363 23.9286 47.7758ZM21.7002 45.1369C21.173 45.3452 19.13 47.933 18.5636 48.7091C17.536 50.1177 19.2989 51.4542 20.5263 50.5796C20.9608 50.2671 22.3922 48.2302 22.7918 47.7437C23.1666 47.2874 23.7886 46.7706 23.4405 45.9585C23.2181 45.4379 22.4334 44.8473 21.7002 45.1369ZM42.6515 44.8056C43.1665 44.4706 44.9294 42.9617 45.2342 42.6078L41.5106 36.4818C41.1502 35.9196 40.4932 34.9578 40.2647 34.4127C35.4763 35.628 33.1016 31.6866 27.8108 33.1689C26.4474 33.5494 22.4334 38.4884 22.1718 39.7095C25.743 42.8652 26.1858 35.2021 30.968 37.5722C35.3877 39.7625 38.6994 41.9187 42.6515 44.8056ZM29.9939 6.74716C34.6277 6.74716 38.3864 10.2001 38.3864 14.4558C38.3864 18.7152 34.6277 22.1644 29.9939 22.1644C25.3579 22.1644 21.6014 18.7152 21.6014 14.4558C21.6014 10.2001 25.3579 6.74716 29.9939 6.74716ZM30.7621 8.28434V9.61896C31.4602 9.74958 32.004 10.0638 32.3973 10.4841C32.8772 10.9971 33.114 11.6616 33.1244 12.3317C33.1244 12.4037 33.1244 12.468 33.1202 12.5248L31.5859 12.4586C31.5879 12.4131 31.59 12.3772 31.59 12.3469C31.5838 11.9966 31.4684 11.654 31.2296 11.4004C31.0009 11.158 30.6426 10.9877 30.1442 10.9668C30.0865 10.9649 30.0371 10.963 29.9939 10.963C29.5201 10.9668 29.1536 11.1183 28.9003 11.3397C28.7067 11.5083 28.5749 11.7222 28.5048 11.9494C28.4389 12.1708 28.4328 12.3998 28.4925 12.6043C28.5563 12.8088 28.684 12.9905 28.8838 13.1042L30.3337 13.8367H30.3317L31.8309 14.5656L31.8598 14.5826C32.4468 14.9006 32.8174 15.389 32.9781 15.9381C33.1099 16.3867 33.1038 16.8789 32.9616 17.3447C32.8195 17.8046 32.5456 18.2439 32.146 18.596C31.7835 18.9121 31.3201 19.1563 30.7621 19.2774V20.6291H29.2236V19.2926C28.5274 19.1639 27.9838 18.8496 27.5904 18.4294C27.1085 17.9163 26.8737 17.2518 26.8634 16.5817C26.8614 16.5097 26.8634 16.4435 26.8675 16.3886L28.3998 16.4549C28.3977 16.4984 28.3977 16.5363 28.3977 16.5646C28.4019 16.9167 28.5192 17.2595 28.7581 17.5112C28.9867 17.7573 29.3431 17.9258 29.8436 17.9485C29.8991 17.9504 29.9506 17.9504 29.9939 17.9504C30.4655 17.9447 30.8341 17.7971 31.0874 17.5718C31.281 17.4033 31.4108 17.1894 31.4808 16.9641C31.5488 16.7445 31.5549 16.5155 31.4931 16.3072C31.4314 16.1047 31.3058 15.9267 31.1101 15.8112L29.6046 15.0805L29.5923 15.0748L28.1444 14.3403L28.1259 14.3309C27.5389 14.0127 27.1702 13.5244 27.0076 12.9754C26.8758 12.5248 26.884 12.0346 27.0241 11.5688C27.1661 11.1088 27.4401 10.6696 27.8417 10.3175C28.2041 9.99946 28.6655 9.75715 29.2236 9.636V8.28434H30.7621ZM32.3767 3.29986C34.0243 3.59518 35.5525 4.19149 36.8953 5.01877L38.3596 3.67658C38.7364 3.33204 39.346 3.33204 39.723 3.67658L41.733 5.52045C42.1079 5.86498 42.1079 6.42912 41.733 6.77366L40.2688 8.11585C41.1708 9.35014 41.8195 10.7548 42.1388 12.2674H44.2106C44.7399 12.2674 45.1724 12.6649 45.1724 13.1514V15.762C45.1724 16.2486 44.7399 16.648 44.2106 16.648H42.1408C41.8195 18.1587 41.1708 19.5633 40.2688 20.7976L41.733 22.1398C42.1079 22.4844 42.1079 23.0465 41.733 23.3911L39.723 25.2388C39.346 25.5833 38.7364 25.5833 38.3596 25.2388L36.8953 23.8928C35.5525 24.722 34.0243 25.3183 32.3767 25.6135V27.5143C32.3767 28.0008 31.9442 28.3983 31.4149 28.3983H28.5728C28.0415 28.3983 27.6089 28.0008 27.6089 27.5143V25.6135C25.9634 25.3183 24.4332 24.722 23.0925 23.8946L21.6282 25.2388C21.2513 25.5833 20.6416 25.5833 20.2647 25.2388L18.2547 23.3911C17.8799 23.0465 17.8799 22.4844 18.2547 22.1398L19.719 20.7956C18.8169 19.5633 18.1681 18.1587 17.8469 16.648H15.7771C15.2479 16.648 14.8132 16.2486 14.8132 15.762V13.1496C14.8132 12.6649 15.2479 12.2674 15.7771 12.2674H17.8469C18.1661 10.7548 18.8169 9.35014 19.719 8.11585L18.2547 6.77366C17.8799 6.42912 17.8799 5.86498 18.2547 5.52045L20.2647 3.67658C20.6416 3.33204 21.2513 3.33204 21.6282 3.67658L23.0925 5.01877C24.4352 4.19149 25.9634 3.59518 27.6089 3.29986V1.39921C27.6089 0.912684 28.0415 0.515137 28.5728 0.515137H31.4149C31.9463 0.515137 32.3767 0.912684 32.3767 1.39921V3.29986ZM29.9939 5.40685C35.4351 5.40685 39.8465 9.45805 39.8465 14.4558C39.8465 19.4535 35.4351 23.5047 29.9939 23.5047C24.5527 23.5047 20.1412 19.4535 20.1412 14.4558C20.1412 9.45805 24.5527 5.40685 29.9939 5.40685ZM54.5102 16.5798H59.2553V12.3336H54.5102V9.0321L46.6738 14.4558L54.5102 19.8814V16.5798ZM5.47752 16.5798H0.732422V12.3336H5.47752V9.0321L13.3139 14.4558L5.47752 19.8814V16.5798Z" fill="white"/>
</g>
</g>
</g>
</g>
<defs>
<clipPath id="clip0_51_783">
<rect width="59.31" height="55" fill="white" transform="translate(0.339844 0.5)"/>
</clipPath>
<clipPath id="clip1_51_783">
<rect width="59.31" height="55" fill="white" transform="translate(0.339844 0.5)"/>
</clipPath>
<clipPath id="clip2_51_783">
<rect width="59.3137" height="55" fill="white" transform="translate(0.337891 0.5)"/>
</clipPath>
</defs>
</svg>
