<svg width="60" height="56" viewBox="0 0 60 56" fill="none" xmlns="http://www.w3.org/2000/svg">
<g clip-path="url(#clip0_1_1896)">
<g clip-path="url(#clip1_1_1896)">
<g clip-path="url(#clip2_1_1896)">
<mask id="mask0_1_1896" style="mask-type:luminance" maskUnits="userSpaceOnUse" x="0" y="0" width="60" height="55">
<path d="M0.733398 0.5H59.2563V54.5436H0.733398V0.5Z" fill="white"/>
</mask>
<g mask="url(#mask0_1_1896)">
<path fill-rule="evenodd" clip-rule="evenodd" d="M24.3271 46.8899C25.845 46.9353 26.7902 47.9444 26.6688 49.4418C28.3266 49.4494 29.3379 50.6818 29.0928 51.9634C28.9775 52.5673 28.8683 52.3534 28.6789 52.7604C29.4593 53.0443 31.0225 53.6936 31.7907 53.9814C33.0409 54.4509 34.9768 53.0065 33.3498 52.1754L30.7548 51.0131C30.0814 50.8407 30.1122 50.0628 30.9649 50.2388C31.3294 50.3126 31.7166 50.5643 32.0625 50.7252C32.9873 51.1569 33.774 51.5828 34.5505 51.9331C36.4287 52.7831 38.031 50.9014 36.5647 50.1177C35.883 49.7561 35.0056 49.3093 34.5195 49.0556C34.0541 48.8114 33.568 48.5615 33.1047 48.3041C32.6475 48.0485 31.8092 47.8232 32.1738 47.2894C32.5445 46.924 33.529 47.6718 34.3095 48.0768C34.9685 48.4158 36.7788 49.2885 37.4564 49.6463C39.3162 50.6969 41.0687 49.279 39.3738 47.8686C39.1369 47.6282 34.3321 44.9873 33.772 44.7545C33.117 44.2718 33.8111 43.7398 34.2868 44.0275L41.2418 48.251C42.8606 48.8531 44.3866 47.1001 43.1118 45.9832C39.5901 43.4994 35.9571 40.8794 31.902 38.869C31.2079 38.5054 30.0546 37.8977 29.6673 37.7899C28.1475 37.3621 26.3763 40.0067 25.4124 40.7336C23.9872 41.4454 22.179 41.0308 21.59 40.1506C20.8506 39.0469 23.2087 36.7885 23.9544 35.7207C23.2108 35.5636 22.4591 35.5144 21.7032 35.3422C20.7909 35.132 20.5088 34.7761 19.8579 34.5376C19.5181 34.8764 14.8472 42.5377 14.7483 42.9258C15.3765 43.4578 15.8151 44.0484 16.3259 44.639C17.7243 43.6774 19.582 43.666 20.3893 45.5041L20.9186 44.7961C22.2119 43.5732 24.739 44.7999 24.3271 46.8899ZM0.733398 37.3867L12.868 44.2433L19.2134 34.1268L7.07873 27.27L0.733398 37.3867ZM59.2563 37.1557L47.1217 44.0105L40.7764 33.894L52.911 27.0372L59.2563 37.1557ZM17.5121 44.8151C17.0323 44.9703 16.0396 46.2085 16.0087 46.7082C15.9613 47.5487 16.9108 48.4119 17.8725 48.1091C18.2248 47.9993 19.4873 46.5909 19.5181 46.0721C19.5717 45.171 18.5048 44.3154 17.5121 44.8151ZM25.8491 50.7462L24.5701 52.4158C23.8081 53.8773 25.4742 54.6439 26.4999 54.0836C26.7408 53.951 28.1125 52.2965 28.2442 51.9652C28.7138 50.7934 26.8644 49.4191 25.8491 50.7462ZM23.9296 47.7758C23.4003 48.0371 21.9669 50.0703 21.5756 50.5643C20.4367 52.0012 22.3582 53.1162 23.3529 52.4612C23.6784 52.2909 25.0974 50.4054 25.4825 49.9227C26.5699 48.5539 25.017 47.2363 23.9296 47.7758ZM21.7012 45.1369C21.1739 45.3452 19.131 47.933 18.5646 48.7091C17.5369 50.1177 19.2998 51.4542 20.5273 50.5796C20.9618 50.2671 22.3932 48.2302 22.7928 47.7437C23.1675 47.2874 23.7896 46.7706 23.4415 45.9585C23.2191 45.4379 22.4344 44.8473 21.7012 45.1369ZM42.6525 44.8056C43.1675 44.4706 44.9304 42.9617 45.2352 42.6078L41.5115 36.4818C41.1511 35.9196 40.4942 34.9578 40.2656 34.4127C35.4773 35.628 33.1026 31.6866 27.8118 33.1689C26.4483 33.5494 22.4344 38.4884 22.1728 39.7095C25.744 42.8652 26.1868 35.2021 30.969 37.5722C35.3886 39.7625 38.7004 41.9187 42.6525 44.8056ZM29.9949 6.74716C34.6287 6.74716 38.3873 10.2001 38.3873 14.4558C38.3873 18.7152 34.6287 22.1644 29.9949 22.1644C25.3589 22.1644 21.6024 18.7152 21.6024 14.4558C21.6024 10.2001 25.3589 6.74716 29.9949 6.74716ZM30.763 8.28434V9.61896C31.4612 9.74958 32.005 10.0638 32.3983 10.4841C32.8782 10.9971 33.115 11.6616 33.1253 12.3317C33.1253 12.4037 33.1253 12.468 33.1211 12.5248L31.5868 12.4586C31.5889 12.4131 31.5909 12.3772 31.5909 12.3469C31.5848 11.9966 31.4694 11.654 31.2305 11.4004C31.0019 11.158 30.6435 10.9876 30.1452 10.9668C30.0875 10.9649 30.0381 10.963 29.9949 10.963C29.5211 10.9668 29.1546 11.1183 28.9012 11.3397C28.7077 11.5083 28.5759 11.7222 28.5058 11.9494C28.4399 12.1708 28.4337 12.3998 28.4935 12.6043C28.5573 12.8088 28.685 12.9905 28.8847 13.1042L30.3347 13.8367H30.3326L31.8319 14.5656L31.8608 14.5826C32.4478 14.9006 32.8184 15.389 32.9791 15.9381C33.1109 16.3867 33.1047 16.8789 32.9626 17.3447C32.8205 17.8046 32.5465 18.2439 32.147 18.596C31.7845 18.9121 31.3211 19.1563 30.763 19.2774V20.6291H29.2245V19.2926C28.5284 19.1639 27.9848 18.8496 27.5914 18.4294C27.1095 17.9163 26.8746 17.2518 26.8644 16.5817C26.8623 16.5097 26.8644 16.4435 26.8685 16.3886L28.4007 16.4549C28.3987 16.4984 28.3987 16.5363 28.3987 16.5646C28.4029 16.9167 28.5202 17.2595 28.7591 17.5112C28.9877 17.7573 29.344 17.9258 29.8445 17.9485C29.9001 17.9504 29.9516 17.9504 29.9949 17.9504C30.4665 17.9447 30.8351 17.7971 31.0884 17.5718C31.282 17.4033 31.4118 17.1894 31.4818 16.9641C31.5497 16.7445 31.5559 16.5155 31.4941 16.3072C31.4324 16.1047 31.3068 15.9267 31.111 15.8112L29.6056 15.0805L29.5933 15.0748L28.1454 14.3403L28.1269 14.3309C27.5399 14.0127 27.1712 13.5244 27.0086 12.9754C26.8768 12.5248 26.885 12.0346 27.0251 11.5688C27.1671 11.1088 27.441 10.6696 27.8426 10.3175C28.2051 9.99946 28.6665 9.75715 29.2245 9.636V8.28434H30.763ZM32.3777 3.29986C34.0253 3.59518 35.5534 4.19149 36.8963 5.01877L38.3606 3.67658C38.7374 3.33204 39.347 3.33204 39.7239 3.67658L41.734 5.52044C42.1089 5.86498 42.1089 6.42912 41.734 6.77366L40.2697 8.11585C41.1717 9.35014 41.8205 10.7548 42.1397 12.2674H44.2116C44.7409 12.2674 45.1734 12.6649 45.1734 13.1514V15.762C45.1734 16.2486 44.7409 16.648 44.2116 16.648H42.1418C41.8205 18.1587 41.1717 19.5633 40.2697 20.7976L41.734 22.1398C42.1089 22.4844 42.1089 23.0466 41.734 23.3911L39.7239 25.2388C39.347 25.5833 38.7374 25.5833 38.3606 25.2388L36.8963 23.8928C35.5534 24.722 34.0253 25.3183 32.3777 25.6135V27.5143C32.3777 28.0008 31.9452 28.3983 31.4159 28.3983H28.5738C28.0425 28.3983 27.6099 28.0008 27.6099 27.5143V25.6135C25.9643 25.3183 24.4342 24.722 23.0934 23.8946L21.6292 25.2388C21.2522 25.5833 20.6426 25.5833 20.2657 25.2388L18.2557 23.3911C17.8808 23.0466 17.8808 22.4844 18.2557 22.1398L19.72 20.7956C18.8179 19.5633 18.1691 18.1587 17.8478 16.648H15.7781C15.2488 16.648 14.8142 16.2486 14.8142 15.762V13.1496C14.8142 12.6649 15.2488 12.2674 15.7781 12.2674H17.8478C18.1671 10.7548 18.8179 9.35014 19.72 8.11585L18.2557 6.77366C17.8808 6.42912 17.8808 5.86498 18.2557 5.52044L20.2657 3.67658C20.6426 3.33204 21.2522 3.33204 21.6292 3.67658L23.0934 5.01877C24.4362 4.19149 25.9643 3.59518 27.6099 3.29986V1.39921C27.6099 0.912684 28.0425 0.515137 28.5738 0.515137H31.4159C31.9473 0.515137 32.3777 0.912684 32.3777 1.39921V3.29986ZM29.9949 5.40685C35.4361 5.40685 39.8475 9.45805 39.8475 14.4558C39.8475 19.4535 35.4361 23.5047 29.9949 23.5047C24.5536 23.5047 20.1422 19.4535 20.1422 14.4558C20.1422 9.45805 24.5536 5.40685 29.9949 5.40685ZM54.5112 16.5798H59.2563V12.3336H54.5112V9.0321L46.6748 14.4558L54.5112 19.8814V16.5798ZM5.4785 16.5798H0.733398V12.3336H5.4785V9.0321L13.3149 14.4558L5.4785 19.8814V16.5798Z" fill="#0575AD"/>
</g>
</g>
</g>
</g>
<defs>
<clipPath id="clip0_1_1896">
<rect width="59.31" height="55" fill="white" transform="translate(0.339844 0.5)"/>
</clipPath>
<clipPath id="clip1_1_1896">
<rect width="59.31" height="55" fill="white" transform="translate(0.339844 0.5)"/>
</clipPath>
<clipPath id="clip2_1_1896">
<rect width="59.3137" height="55" fill="white" transform="translate(0.337891 0.5)"/>
</clipPath>
</defs>
</svg>
