<svg width="36" height="56" viewBox="0 0 36 56" fill="none" xmlns="http://www.w3.org/2000/svg">
<g clip-path="url(#clip0_1_1951)">
<g clip-path="url(#clip1_1_1951)">
<mask id="mask0_1_1951" style="mask-type:luminance" maskUnits="userSpaceOnUse" x="1" y="0" width="34" height="56">
<path d="M1.32422 0.5H34.6849V55.0531H1.32422V0.5Z" fill="white"/>
</mask>
<g mask="url(#mask0_1_1951)">
<path fill-rule="evenodd" clip-rule="evenodd" d="M29.8798 55.0531H6.10181C3.46934 55.0531 1.33301 52.8159 1.33301 50.0993V5.42132C1.33301 2.70581 3.46934 0.5 6.10181 0.5H29.8798C32.5113 0.5 34.679 2.70581 34.679 5.42132V50.0993C34.679 52.8159 32.5113 55.0531 29.8798 55.0531ZM21.8914 4.71858H15.9157C15.6373 4.71858 15.4206 4.49518 15.4206 4.17526C15.4206 3.88788 15.6373 3.66448 15.9157 3.66448H21.8914C22.1698 3.66448 22.4179 3.88788 22.4179 4.17526C22.4179 4.49518 22.1698 4.71858 21.8914 4.71858ZM20.9933 51.9851H15.0187C14.7392 51.9851 14.4922 51.7618 14.4922 51.4744C14.4922 51.1859 14.7392 50.931 15.0187 50.931H20.9933C21.2728 50.931 21.4895 51.1859 21.4895 51.4744C21.4895 51.7618 21.2728 51.9851 20.9933 51.9851ZM2.35564 7.88306H33.626V47.8946H2.35564V7.88306Z" fill="#0575AD"/>
</g>
<path fill-rule="evenodd" clip-rule="evenodd" d="M30.0628 41.122H5.94456C4.89158 41.122 4.0249 40.2263 4.0249 39.1407V38.5334C4.17981 38.5648 4.36508 38.5974 4.5514 38.5974H31.456C31.6423 38.5974 31.8276 38.5648 31.9825 38.5334V39.1407C31.9825 40.2263 31.1158 41.122 30.0628 41.122ZM25.7598 28.2418H19.4125C19.1341 28.2418 18.9174 28.0184 18.9174 27.6995C18.9174 27.4111 19.1341 27.1877 19.4125 27.1877H25.7598C26.0382 27.1877 26.2549 27.4111 26.2549 27.6995C26.2549 28.0184 26.0382 28.2418 25.7598 28.2418ZM16.935 27.3156C17.1527 27.3156 17.3066 27.5076 17.3066 27.6995C17.3066 27.8904 17.1527 28.0824 16.935 28.0824C16.7497 28.0824 16.5948 27.8904 16.5948 27.6995C16.5948 27.5076 16.7497 27.3156 16.935 27.3156ZM15.48 27.3156C15.6967 27.3156 15.8517 27.5076 15.8517 27.6995C15.8517 27.8904 15.6967 28.0824 15.48 28.0824C15.2948 28.0824 15.1398 27.8904 15.1398 27.6995C15.1398 27.5076 15.2948 27.3156 15.48 27.3156ZM14.0251 27.3156C14.2418 27.3156 14.3967 27.5076 14.3967 27.6995C14.3967 27.8904 14.2418 28.0824 14.0251 28.0824C13.8399 28.0824 13.685 27.8904 13.685 27.6995C13.685 27.5076 13.8399 27.3156 14.0251 27.3156ZM4.0249 30.8315V23.9603C4.0249 23.2251 4.39648 22.5852 4.95333 22.2664C5.85141 24.663 8.11125 26.3884 10.7437 26.3884C13.4987 26.3884 15.8213 24.5351 16.6262 21.979H30.0628C31.1158 21.979 31.9825 22.8737 31.9825 23.9603V30.8315C31.8276 30.7989 31.6423 30.7676 31.456 30.7676H4.5514C4.36508 30.7676 4.17981 30.7989 4.0249 30.8315Z" fill="#0575AD"/>
<path fill-rule="evenodd" clip-rule="evenodd" d="M31.456 37.5455H4.5514C4.24157 37.5455 4.0249 37.3222 4.0249 37.0022V32.3683C4.0249 32.0484 4.24157 31.825 4.5514 31.825H31.456C31.7354 31.825 31.9825 32.0484 31.9825 32.3683V37.0022C31.9825 37.3222 31.7354 37.5455 31.456 37.5455Z" fill="#0575AD"/>
<path fill-rule="evenodd" clip-rule="evenodd" d="M10.7465 25.297C7.89729 25.297 5.57568 22.9003 5.57568 19.9917C5.57568 17.0518 7.89729 14.655 10.7465 14.655C13.5946 14.655 15.9161 17.0518 15.9161 19.9917C15.9161 22.9003 13.5946 25.297 10.7465 25.297ZM9.8787 22.0056C9.75519 22.0056 9.63168 21.9416 9.50712 21.8461L8.36202 20.663C8.1757 20.4396 8.1757 20.1197 8.36202 19.8963C8.57869 19.7043 8.88851 19.7043 9.10519 19.8963L9.8787 20.6956L12.3866 18.107C12.6033 17.915 12.9131 17.915 13.1298 18.107C13.3161 18.3303 13.3161 18.6502 13.1298 18.8736L10.2503 21.8461C10.1581 21.9416 10.0032 22.0056 9.8787 22.0056Z" fill="#0575AD"/>
</g>
</g>
<defs>
<clipPath id="clip0_1_1951">
<rect width="34.25" height="55" fill="white" transform="translate(0.879883 0.5)"/>
</clipPath>
<clipPath id="clip1_1_1951">
<rect width="34.2623" height="55" fill="white" transform="translate(0.873535 0.5)"/>
</clipPath>
</defs>
</svg>
