<svg width="36" height="56" viewBox="0 0 36 56" fill="none" xmlns="http://www.w3.org/2000/svg">
<g clip-path="url(#clip0_51_837)">
<g clip-path="url(#clip1_51_837)">
<g clip-path="url(#clip2_51_837)">
<mask id="mask0_51_837" style="mask-type:luminance" maskUnits="userSpaceOnUse" x="1" y="0" width="34" height="56">
<path d="M1.32617 0.5H34.6868V55.0531H1.32617V0.5Z" fill="white"/>
</mask>
<g mask="url(#mask0_51_837)">
<path fill-rule="evenodd" clip-rule="evenodd" d="M29.8828 55.0531H6.10474C3.47227 55.0531 1.33594 52.8159 1.33594 50.0993V5.42132C1.33594 2.70581 3.47227 0.5 6.10474 0.5H29.8828C32.5142 0.5 34.6819 2.70581 34.6819 5.42132V50.0993C34.6819 52.8159 32.5142 55.0531 29.8828 55.0531ZM21.8943 4.71858H15.9186C15.6402 4.71858 15.4235 4.49518 15.4235 4.17526C15.4235 3.88788 15.6402 3.66448 15.9186 3.66448H21.8943C22.1728 3.66448 22.4208 3.88788 22.4208 4.17526C22.4208 4.49518 22.1728 4.71858 21.8943 4.71858ZM20.9962 51.9851H15.0216C14.7422 51.9851 14.4951 51.7618 14.4951 51.4744C14.4951 51.1859 14.7422 50.931 15.0216 50.931H20.9962C21.2757 50.931 21.4924 51.1859 21.4924 51.4744C21.4924 51.7618 21.2757 51.9851 20.9962 51.9851ZM2.35857 7.88306H33.6289V47.8946H2.35857V7.88306Z" fill="white"/>
</g>
<path fill-rule="evenodd" clip-rule="evenodd" d="M30.0633 41.1221H5.94505C4.89206 41.1221 4.02539 40.2264 4.02539 39.1408V38.5335C4.1803 38.565 4.36557 38.5975 4.55188 38.5975H31.4565C31.6428 38.5975 31.8281 38.565 31.983 38.5335V39.1408C31.983 40.2264 31.1163 41.1221 30.0633 41.1221ZM25.7603 28.2419H19.413C19.1346 28.2419 18.9179 28.0185 18.9179 27.6997C18.9179 27.4112 19.1346 27.1878 19.413 27.1878H25.7603C26.0387 27.1878 26.2554 27.4112 26.2554 27.6997C26.2554 28.0185 26.0387 28.2419 25.7603 28.2419ZM16.9355 27.3157C17.1532 27.3157 17.3071 27.5077 17.3071 27.6997C17.3071 27.8905 17.1532 28.0825 16.9355 28.0825C16.7502 28.0825 16.5953 27.8905 16.5953 27.6997C16.5953 27.5077 16.7502 27.3157 16.9355 27.3157ZM15.4805 27.3157C15.6972 27.3157 15.8522 27.5077 15.8522 27.6997C15.8522 27.8905 15.6972 28.0825 15.4805 28.0825C15.2953 28.0825 15.1403 27.8905 15.1403 27.6997C15.1403 27.5077 15.2953 27.3157 15.4805 27.3157ZM14.0256 27.3157C14.2423 27.3157 14.3972 27.5077 14.3972 27.6997C14.3972 27.8905 14.2423 28.0825 14.0256 28.0825C13.8403 28.0825 13.6854 27.8905 13.6854 27.6997C13.6854 27.5077 13.8403 27.3157 14.0256 27.3157ZM4.02539 30.8316V23.9604C4.02539 23.2252 4.39697 22.5853 4.95382 22.2665C5.8519 24.6631 8.11174 26.3885 10.7442 26.3885C13.4992 26.3885 15.8218 24.5352 16.6267 21.9791H30.0633C31.1163 21.9791 31.983 22.8738 31.983 23.9604V30.8316C31.8281 30.7991 31.6428 30.7677 31.4565 30.7677H4.55188C4.36557 30.7677 4.1803 30.7991 4.02539 30.8316Z" fill="white"/>
<path fill-rule="evenodd" clip-rule="evenodd" d="M31.4565 37.5455H4.55188C4.24205 37.5455 4.02539 37.3221 4.02539 37.0021V32.3683C4.02539 32.0484 4.24205 31.8249 4.55188 31.8249H31.4565C31.7359 31.8249 31.983 32.0484 31.983 32.3683V37.0021C31.983 37.3221 31.7359 37.5455 31.4565 37.5455Z" fill="white"/>
<path fill-rule="evenodd" clip-rule="evenodd" d="M10.7469 25.297C7.89778 25.297 5.57617 22.9002 5.57617 19.9917C5.57617 17.0518 7.89778 14.655 10.7469 14.655C13.595 14.655 15.9166 17.0518 15.9166 19.9917C15.9166 22.9002 13.595 25.297 10.7469 25.297ZM9.87919 22.0055C9.75568 22.0055 9.63217 21.9416 9.50761 21.8461L8.36251 20.663C8.17619 20.4396 8.17619 20.1197 8.36251 19.8962C8.57918 19.7043 8.889 19.7043 9.10568 19.8962L9.87919 20.6955L12.3871 18.1069C12.6038 17.915 12.9136 17.915 13.1303 18.1069C13.3166 18.3303 13.3166 18.6502 13.1303 18.8736L10.2508 21.8461C10.1586 21.9416 10.0037 22.0055 9.87919 22.0055Z" fill="white"/>
</g>
</g>
</g>
<defs>
<clipPath id="clip0_51_837">
<rect width="34.25" height="55" fill="white" transform="translate(0.880859 0.5)"/>
</clipPath>
<clipPath id="clip1_51_837">
<rect width="34.25" height="55" fill="white" transform="translate(0.880859 0.5)"/>
</clipPath>
<clipPath id="clip2_51_837">
<rect width="34.2623" height="55" fill="white" transform="translate(0.875 0.5)"/>
</clipPath>
</defs>
</svg>
