<svg width="60" height="56" viewBox="0 0 60 56" fill="none" xmlns="http://www.w3.org/2000/svg">
<g clip-path="url(#clip0_1_1965)">
<g clip-path="url(#clip1_1_1965)">
<mask id="mask0_1_1965" style="mask-type:luminance" maskUnits="userSpaceOnUse" x="0" y="0" width="60" height="55">
<path d="M0.953613 0.5H59.0668V54.8657H0.953613V0.5Z" fill="white"/>
</mask>
<g mask="url(#mask0_1_1965)">
<path d="M50.0487 31.6389C50.201 31.7433 50.338 31.8617 50.4563 31.9995L53.586 22.6651C53.4806 22.6328 53.3623 22.606 53.2405 22.5779C52.9969 22.522 52.7427 22.4617 52.4757 22.3562C51.9111 22.3702 51.3992 22.5801 51.0115 22.9171C50.5969 23.2778 50.3275 23.786 50.3088 24.3458L50.0487 31.6389ZM32.1164 50.5166L31.6877 53.5419C31.6772 53.6118 31.6725 53.6754 31.6725 53.7378C31.6772 54.0285 31.7908 54.2912 31.9771 54.484C32.168 54.681 32.4421 54.8134 32.7653 54.8521C32.8367 54.864 32.9094 54.8661 32.9843 54.8661L45.202 54.7477C45.6541 54.7434 46.0957 54.5658 46.4412 54.2859C46.7879 54.0048 47.0303 53.6312 47.0924 53.2242L47.5211 50.1957C47.5293 50.129 47.5317 50.0623 47.5317 50.003C47.5282 49.7091 47.4181 49.4496 47.2271 49.2537C47.0374 49.061 46.7633 48.9253 46.4435 48.8855C46.3721 48.8779 46.2948 48.8747 46.2245 48.8747L34.0033 48.9931C33.9729 48.9931 33.9389 48.9931 33.9085 48.9964C33.885 49.0007 33.8582 49.0007 33.8312 49.0007C33.44 49.0427 33.0664 49.2106 32.7618 49.4561C32.4175 49.7328 32.1727 50.1106 32.1164 50.5166ZM34.5843 47.7571L45.3929 47.6527C45.4164 47.6247 45.4468 47.5967 45.476 47.572L54.9319 40.0269C55.1907 39.8202 55.3956 39.5995 55.5514 39.3605C55.7002 39.1258 55.8033 38.8782 55.856 38.609L58.9259 23.0032C59.1778 21.7403 58.9634 20.8963 58.5194 20.458C58.3519 20.2901 58.1423 20.1846 57.9151 20.1426C57.668 20.0973 57.3939 20.1253 57.1081 20.2191C56.3245 20.4849 55.5186 21.2559 55.0349 22.5403C55.0267 22.5543 55.0243 22.5693 55.0161 22.5865C54.9975 22.6393 54.9752 22.6985 54.9565 22.7546L50.9554 34.6836C50.9366 34.7676 50.8945 34.8419 50.8453 34.9043V34.9086H50.8405L50.8323 34.9183V34.9215L50.8218 34.9312L50.8136 34.942H50.8101L50.8019 34.9527C50.7937 34.9603 50.7913 34.9625 50.7831 34.97L50.7797 34.9732L50.7749 34.9807L50.7667 34.9851L50.7468 35.0034L50.7386 35.0066L50.7352 35.0109L50.7234 35.0216L50.7117 35.0292V35.0324L50.6976 35.04C50.6929 35.0443 50.6871 35.0475 50.6825 35.0507L41.8052 40.7332C41.5008 40.9259 41.0826 40.8592 40.8741 40.5792C40.6609 40.2982 40.7371 39.9128 41.0416 39.7179L49.6833 34.1895C49.7372 33.7728 49.7137 33.4336 49.6248 33.1634C49.5264 32.8619 49.339 32.652 49.0825 32.5325C48.7768 32.3936 48.3633 32.3516 47.8609 32.4065C47.0046 32.5045 45.9621 32.8803 44.8295 33.5241L37.2197 37.8576C36.8273 38.0793 36.5123 38.3484 36.2803 38.6553C36.0601 38.9493 35.9149 39.2798 35.861 39.6329L34.5843 47.7571ZM6.53091 22.6651L9.66057 31.9995C9.77887 31.8617 9.91592 31.7433 10.0682 31.6389L9.80933 24.3447C9.78942 23.7838 9.52002 23.2766 9.10538 22.916C8.7177 22.5801 8.2035 22.3702 7.64128 22.355C7.37657 22.4606 7.12123 22.5198 6.87643 22.5758C6.75462 22.6048 6.63632 22.6328 6.53091 22.6651ZM14.7241 47.6527L25.5326 47.7571L24.2559 39.6318C24.202 39.2786 24.058 38.9481 23.8366 38.6542C23.6047 38.3474 23.2897 38.0761 22.8973 37.8564L15.2875 33.5219C14.1536 32.8781 13.1077 32.5035 12.2561 32.4054C11.7548 32.3505 11.3402 32.3925 11.0357 32.5314C10.7756 32.6499 10.5894 32.8598 10.4922 33.1613C10.4043 33.4315 10.3821 33.7706 10.4336 34.1883L19.0753 39.7169C19.3799 39.9128 19.4548 40.2982 19.2428 40.5782C19.0332 40.8581 18.6151 40.9248 18.3116 40.7321L9.43452 35.0486L9.41929 35.0421V35.0378H9.41578L9.40758 35.0302L9.39937 35.027L9.39118 35.0196L9.38767 35.0152L9.37947 35.0088L9.37127 35.0044L9.34667 34.9818H9.34316L9.33496 34.9711H9.33144C9.32325 34.9613 9.3127 34.9507 9.29982 34.9387L9.29161 34.9291L9.28108 34.9194V34.9162L9.27288 34.9054L9.26585 34.8978L9.26117 34.8946V34.8914C9.25297 34.8838 9.25062 34.8774 9.24243 34.8698V34.8666C9.20494 34.8107 9.1745 34.7472 9.15926 34.6815L5.15816 22.7512C5.13591 22.6963 5.11717 22.6393 5.09843 22.5833C5.09023 22.5661 5.08671 22.5521 5.07851 22.5381C4.59594 21.2537 3.7901 20.4828 3.00652 20.2169C2.72072 20.1221 2.44664 20.0953 2.1995 20.1404C1.9711 20.1824 1.76261 20.288 1.59395 20.4559C1.14886 20.893 0.936857 21.736 1.18751 23.001L4.25744 38.6058C4.31132 38.876 4.41323 39.1247 4.56198 39.3583C4.71776 39.5973 4.92391 39.817 5.18276 40.0248L14.6373 47.5698C14.6701 47.5967 14.7006 47.6258 14.7241 47.6527ZM28.4304 53.5419L28.0017 50.5166C27.9455 50.1106 27.7007 49.7328 27.3552 49.4561C27.0506 49.2116 26.6769 49.0437 26.2858 49.0007C26.2588 49.0007 26.2318 49.0007 26.2085 48.9964C26.1757 48.9931 26.1441 48.9931 26.1135 48.9931L13.8936 48.8747C13.8209 48.8747 13.7436 48.8779 13.6734 48.8855C13.3536 48.9231 13.0796 49.061 12.8898 49.2537C12.6988 49.4496 12.5887 49.7091 12.5853 50.003C12.5853 50.0623 12.5887 50.129 12.597 50.1957L13.0269 53.2242C13.0865 53.6312 13.3313 54.0048 13.6734 54.2859C14.0236 54.5658 14.4652 54.7434 14.9173 54.7477L27.1337 54.8661C27.2099 54.8661 27.2826 54.8619 27.3539 54.8521C27.6773 54.8145 27.9501 54.681 28.1411 54.484C28.3273 54.2912 28.4421 54.0285 28.4421 53.7378C28.4456 53.6754 28.4421 53.6118 28.4304 53.5419ZM36.4139 11.2119C34.7905 9.71326 32.5416 8.78843 30.0585 8.78843C27.5754 8.78843 25.3277 9.71218 23.7031 11.2119C22.075 12.7106 21.0677 14.7767 21.0677 17.0624C21.0677 19.3491 22.075 21.4173 23.7031 22.9138C25.3265 24.4114 27.5754 25.3395 30.0585 25.3395C32.5416 25.3395 34.7893 24.4114 36.4139 22.9138C38.0419 21.4184 39.0492 19.3491 39.0492 17.0624C39.0492 14.7767 38.0419 12.7106 36.4139 11.2119ZM30.0585 7.55245C32.9105 7.55245 35.4944 8.61724 37.365 10.3366C39.232 12.0603 40.3892 14.4365 40.3892 17.0624C40.3892 18.8334 39.8645 20.4935 38.9473 21.9159H41.5675C43.5235 21.9159 45.291 21.1729 46.5724 19.9789C47.8538 18.7785 48.6503 17.1215 48.6503 15.288C48.6503 13.841 48.1548 12.5071 47.3232 11.4186C46.4599 10.3022 45.2394 9.44733 43.8152 9.00268C43.5001 8.90148 43.3139 8.60755 43.3702 8.31363C43.4076 8.12522 43.4345 7.9282 43.4533 7.72902C43.472 7.53738 43.4802 7.34036 43.4802 7.14118C43.4802 5.30767 42.6861 3.65073 41.4035 2.45029C40.1221 1.2563 38.3535 0.513428 36.3986 0.513428C34.8584 0.513428 33.4353 0.972073 32.2792 1.74618C31.081 2.54826 30.1651 3.68518 29.6861 5.01376C29.5712 5.33566 29.1905 5.51115 28.8415 5.40242C28.811 5.39489 28.7771 5.38197 28.7466 5.36797C28.3402 5.17525 27.9022 5.02452 27.4465 4.92332C27.0085 4.82535 26.5481 4.77581 26.0656 4.77581C24.8111 4.77581 23.6504 5.13649 22.6922 5.7534C21.7037 6.39077 20.9318 7.30052 20.4973 8.36854C20.3837 8.64847 20.0674 8.80888 19.7594 8.75936H19.7547C19.5602 8.72706 19.3588 8.70445 19.1539 8.68937C18.957 8.67215 18.7544 8.66461 18.5495 8.66461C16.5946 8.66461 14.826 9.40318 13.5446 10.6015C12.2632 11.7987 11.4667 13.4578 11.4667 15.2902C11.4667 17.1237 12.2619 18.7806 13.5446 19.9811C14.826 21.1751 16.5946 21.9179 18.5495 21.9179H21.1696C20.2525 20.4957 19.729 18.8377 19.729 17.0645C19.729 14.4386 20.885 12.0614 22.7531 10.3399C24.6225 8.61724 27.2064 7.55245 30.0585 7.55245ZM28.667 21.5756C28.667 21.5799 28.667 21.5799 28.667 21.5756V21.5756ZM31.6034 13.0745C31.2075 12.7095 30.664 12.4867 30.0585 12.4867C29.4529 12.4867 28.9094 12.7095 28.5148 13.0745C28.1189 13.4384 27.8752 13.9423 27.8752 14.4956C27.8752 14.8315 27.9583 15.1428 28.1153 15.4172C28.2758 15.7037 28.5077 15.9491 28.7888 16.1354C28.8697 16.1881 28.9375 16.257 28.9867 16.3378C29.816 17.717 29.1121 20.0909 28.7314 21.3678C28.6822 21.5229 28.8345 21.0147 28.6858 21.5261C28.9141 21.5799 29.4342 21.624 29.9976 21.6391C30.6078 21.6563 31.2039 21.6316 31.4394 21.5508C31.3586 21.2817 31.382 21.3506 31.375 21.328C30.9873 20.0284 30.2681 17.6373 31.1314 16.3345C31.1817 16.2581 31.2462 16.1914 31.3293 16.1354C31.6104 15.9491 31.8435 15.7037 32.0028 15.4172C32.1586 15.1438 32.2429 14.8327 32.2429 14.4956C32.2418 13.9423 31.9981 13.4384 31.6034 13.0745ZM30.0585 11.2507C31.0329 11.2507 31.9138 11.6157 32.5545 12.2035C33.1893 12.787 33.5852 13.5999 33.5852 14.4968C33.5852 15.0296 33.4435 15.5368 33.1929 15.9815C32.9609 16.4013 32.6295 16.7663 32.2265 17.0559C31.7475 17.942 32.3366 19.9165 32.6646 20.9985C32.7243 21.2084 32.6985 21.118 32.7407 21.258C32.7981 21.4432 32.8052 21.6327 32.7676 21.8157C32.7255 21.9966 32.6411 22.1689 32.5123 22.3228C32.4585 22.3863 32.3987 22.4455 32.3225 22.495C31.8997 22.7965 30.8995 22.8977 29.9601 22.8686C29.029 22.8439 28.0743 22.6877 27.7627 22.4703C27.7019 22.4239 27.6492 22.3744 27.6069 22.3228C27.4782 22.1689 27.3938 21.9966 27.3517 21.8157C27.3142 21.6337 27.3212 21.4453 27.375 21.258C27.5121 20.8004 27.3481 21.3538 27.443 21.048C27.7593 19.9779 28.3414 18.027 27.8763 17.043C27.4804 16.7587 27.1572 16.3959 26.9253 15.9815C26.6746 15.5368 26.534 15.0296 26.534 14.4968C26.534 13.5999 26.9299 12.7892 27.5637 12.2035C28.2031 11.6146 29.084 11.2507 30.0585 11.2507ZM38.0232 31.3471C37.8369 31.1792 37.5863 31.0747 37.3041 31.0747C37.0217 31.0747 36.7711 31.1792 36.5848 31.3471C36.4022 31.515 36.2885 31.7498 36.2885 32.0093C36.2885 32.2644 36.4022 32.4991 36.5848 32.6671C36.7711 32.8361 37.0217 32.9406 37.3041 32.9406C37.5863 32.9406 37.8369 32.8361 38.0232 32.6671C38.206 32.4991 38.3195 32.2644 38.3195 32.0093C38.3195 31.7498 38.206 31.5162 38.0232 31.3471ZM29.7434 37.7897C29.4658 37.7897 29.2105 37.8952 29.0277 38.0631C28.8415 38.2311 28.7314 38.4658 28.7314 38.7253C28.7314 38.9805 28.8415 39.2151 29.0277 39.3831C29.2105 39.5554 29.4658 39.6598 29.7434 39.6598C30.0245 39.6598 30.2798 39.5554 30.4626 39.3831C30.6453 39.2151 30.7589 38.9805 30.7589 38.7253C30.7589 38.4658 30.6453 38.2311 30.4626 38.0631C30.2787 37.8952 30.0245 37.7897 29.7434 37.7897ZM22.8129 31.0747C22.5318 31.0747 22.2799 31.1792 22.0938 31.3471C21.911 31.515 21.7974 31.7498 21.7974 32.0093C21.7974 32.2644 21.911 32.4991 22.0938 32.6671C22.2799 32.8361 22.5318 32.9406 22.8129 32.9406C23.0952 32.9406 23.3458 32.8361 23.5321 32.6671C23.7148 32.4991 23.8284 32.2644 23.8284 32.0093C23.8284 31.7498 23.7148 31.515 23.5321 31.3471C23.3458 31.1792 23.0952 31.0747 22.8129 31.0747ZM29.0734 27.7802C29.0734 27.44 29.3744 27.1633 29.7434 27.1633C30.1159 27.1633 30.4169 27.44 30.4169 27.7802V35.2832C30.4169 35.6267 30.1159 35.9034 29.7434 35.9034C29.3744 35.9034 29.0734 35.6267 29.0734 35.2832V27.7802ZM21.364 23.9593C21.7247 23.8893 22.0785 24.1025 22.1558 24.4362C22.232 24.7699 22.0001 25.0951 21.6392 25.1651L18.2684 25.81L20.8018 28.9258C21.022 29.1992 20.9659 29.5846 20.6695 29.7871C20.372 29.9894 19.9539 29.9345 19.7336 29.6655L16.5922 25.8025C16.5243 25.726 16.4751 25.6345 16.4482 25.5301C16.3755 25.1974 16.6075 24.8711 16.9682 24.8012L21.364 23.9593ZM38.4788 25.164C38.1181 25.094 37.8861 24.7689 37.9623 24.4352C38.0396 24.1013 38.3921 23.8893 38.7541 23.9582L43.1511 24.798C43.5118 24.869 43.7449 25.1931 43.6723 25.5269C43.6454 25.6323 43.595 25.7238 43.5271 25.8003L40.3856 29.6621C40.1655 29.9313 39.7473 29.9884 39.451 29.7849C39.1547 29.5825 39.0961 29.197 39.3175 28.9236L41.8509 25.8079L38.4788 25.164Z" fill="#0575AD"/>
</g>
</g>
</g>
<defs>
<clipPath id="clip0_1_1965">
<rect width="59.14" height="55" fill="white" transform="translate(0.439941 0.5)"/>
</clipPath>
<clipPath id="clip1_1_1965">
<rect width="59.1509" height="55" fill="white" transform="translate(0.43457 0.5)"/>
</clipPath>
</defs>
</svg>
