<svg width="60" height="56" viewBox="0 0 60 56" fill="none" xmlns="http://www.w3.org/2000/svg">
<g clip-path="url(#clip0_51_852)">
<g clip-path="url(#clip1_51_852)">
<mask id="mask0_51_852" style="mask-type:luminance" maskUnits="userSpaceOnUse" x="0" y="0" width="60" height="55">
<path d="M0.953125 0.5H59.0663V54.8657H0.953125V0.5Z" fill="white"/>
</mask>
<g mask="url(#mask0_51_852)">
<path d="M50.0482 31.6389C50.2006 31.7433 50.3375 31.8617 50.4558 31.9995L53.5856 22.6651C53.4801 22.6328 53.3618 22.606 53.24 22.5779C52.9964 22.522 52.7422 22.4617 52.4752 22.3562C51.9106 22.3702 51.3987 22.5801 51.011 22.9171C50.5965 23.2778 50.3271 23.786 50.3083 24.3458L50.0482 31.6389ZM32.1159 50.5166L31.6873 53.5419C31.6767 53.6118 31.672 53.6755 31.672 53.7378C31.6767 54.0285 31.7903 54.2912 31.9766 54.484C32.1675 54.681 32.4416 54.8134 32.7648 54.8521C32.8362 54.864 32.9089 54.8661 32.9838 54.8661L45.2015 54.7477C45.6536 54.7434 46.0952 54.5658 46.4407 54.2858C46.7874 54.0048 47.0299 53.6312 47.0919 53.2242L47.5206 50.1957C47.5288 50.129 47.5312 50.0623 47.5312 50.003C47.5277 49.7091 47.4176 49.4496 47.2266 49.2537C47.0369 49.061 46.7629 48.9253 46.443 48.8855C46.3716 48.8779 46.2943 48.8747 46.2241 48.8747L34.0029 48.9931C33.9724 48.9931 33.9384 48.9931 33.908 48.9964C33.8846 49.0007 33.8577 49.0007 33.8307 49.0007C33.4395 49.0427 33.0659 49.2106 32.7613 49.4561C32.417 49.7328 32.1722 50.1106 32.1159 50.5166ZM34.5838 47.7571L45.3924 47.6527C45.4159 47.6247 45.4463 47.5967 45.4755 47.572L54.9314 40.0269C55.1902 39.8202 55.3952 39.5995 55.5509 39.3605C55.6997 39.1258 55.8028 38.8782 55.8555 38.609L58.9254 23.0032C59.1773 21.7403 58.9629 20.8963 58.5189 20.458C58.3515 20.2901 58.1418 20.1846 57.9146 20.1426C57.6675 20.0973 57.3934 20.1253 57.1076 20.2191C56.324 20.4849 55.5181 21.2559 55.0344 22.5403C55.0262 22.5543 55.0239 22.5693 55.0157 22.5865C54.997 22.6393 54.9747 22.6985 54.956 22.7546L50.9549 34.6836C50.9361 34.7676 50.894 34.8419 50.8448 34.9043V34.9086H50.84L50.8318 34.9183V34.9215L50.8213 34.9312L50.8131 34.942H50.8096L50.8014 34.9527C50.7932 34.9603 50.7908 34.9625 50.7826 34.97L50.7792 34.9732L50.7744 34.9807L50.7662 34.9851L50.7463 35.0034L50.7381 35.0066L50.7347 35.0109L50.723 35.0216L50.7112 35.0292V35.0324L50.6971 35.04C50.6924 35.0443 50.6866 35.0475 50.682 35.0507L41.8048 40.7332C41.5003 40.9259 41.0821 40.8592 40.8736 40.5792C40.6604 40.2982 40.7366 39.9128 41.0411 39.7179L49.6828 34.1895C49.7367 33.7728 49.7132 33.4336 49.6243 33.1634C49.5259 32.8619 49.3385 32.652 49.082 32.5325C48.7763 32.3936 48.3628 32.3516 47.8604 32.4065C47.0041 32.5045 45.9616 32.8803 44.829 33.5241L37.2192 37.8576C36.8268 38.0793 36.5118 38.3484 36.2799 38.6553C36.0596 38.9493 35.9144 39.2798 35.8605 39.6329L34.5838 47.7571ZM6.53042 22.6651L9.66008 31.9995C9.77839 31.8617 9.91543 31.7433 10.0677 31.6389L9.80884 24.3447C9.78893 23.7838 9.51953 23.2766 9.10489 22.916C8.71721 22.5801 8.20301 22.3702 7.64079 22.355C7.37608 22.4606 7.12074 22.5198 6.87594 22.5758C6.75413 22.6048 6.63583 22.6328 6.53042 22.6651ZM14.7236 47.6527L25.5321 47.7571L24.2554 39.6318C24.2015 39.2786 24.0575 38.9481 23.8362 38.6542C23.6042 38.3474 23.2892 38.0761 22.8968 37.8564L15.287 33.5219C14.1531 32.8781 13.1072 32.5035 12.2556 32.4054C11.7543 32.3505 11.3397 32.3925 11.0352 32.5314C10.7752 32.6499 10.5889 32.8598 10.4917 33.1613C10.4039 33.4315 10.3816 33.7706 10.4331 34.1883L19.0748 39.7169C19.3794 39.9128 19.4543 40.2982 19.2423 40.5782C19.0327 40.8581 18.6146 40.9248 18.3111 40.7321L9.43403 35.0486L9.4188 35.0421V35.0378H9.41529L9.40709 35.0302L9.39889 35.027L9.39069 35.0196L9.38718 35.0152L9.37898 35.0088L9.37078 35.0044L9.34618 34.9818H9.34267L9.33447 34.9711H9.33096C9.32276 34.9613 9.31221 34.9507 9.29934 34.9387L9.29113 34.9291L9.28059 34.9194V34.9162L9.2724 34.9054L9.26536 34.8978L9.26068 34.8946V34.8914C9.25248 34.8838 9.25014 34.8774 9.24194 34.8698V34.8666C9.20445 34.8107 9.17401 34.7471 9.15877 34.6815L5.15767 22.7512C5.13542 22.6963 5.11668 22.6393 5.09794 22.5833C5.08974 22.5661 5.08622 22.5521 5.07802 22.5381C4.59546 21.2537 3.78961 20.4828 3.00603 20.2169C2.72024 20.1221 2.44615 20.0953 2.19901 20.1404C1.97062 20.1824 1.76213 20.288 1.59346 20.4559C1.14837 20.893 0.936369 21.736 1.18702 23.001L4.25696 38.6058C4.31084 38.876 4.41274 39.1247 4.56149 39.3583C4.71727 39.5973 4.92342 39.817 5.18227 40.0248L14.6368 47.5698C14.6696 47.5967 14.7001 47.6258 14.7236 47.6527ZM28.4299 53.5419L28.0012 50.5166C27.945 50.1106 27.7002 49.7328 27.3547 49.4561C27.0501 49.2116 26.6764 49.0437 26.2853 49.0007C26.2583 49.0007 26.2314 49.0007 26.208 48.9964C26.1752 48.9931 26.1436 48.9931 26.1131 48.9931L13.8931 48.8747C13.8204 48.8747 13.7431 48.8779 13.6729 48.8855C13.3532 48.9231 13.0791 49.061 12.8893 49.2537C12.6983 49.4496 12.5882 49.7091 12.5848 50.003C12.5848 50.0623 12.5882 50.129 12.5965 50.1957L13.0264 53.2242C13.086 53.6312 13.3308 54.0048 13.6729 54.2858C14.0231 54.5658 14.4647 54.7434 14.9168 54.7477L27.1333 54.8661C27.2094 54.8661 27.2821 54.8619 27.3535 54.8521C27.6768 54.8145 27.9496 54.681 28.1406 54.484C28.3269 54.2912 28.4416 54.0285 28.4416 53.7378C28.4452 53.6755 28.4416 53.6118 28.4299 53.5419ZM36.4134 11.2119C34.79 9.71326 32.5411 8.78843 30.058 8.78843C27.5749 8.78843 25.3272 9.71218 23.7026 11.2119C22.0745 12.7106 21.0672 14.7767 21.0672 17.0624C21.0672 19.3491 22.0745 21.4173 23.7026 22.9138C25.326 24.4114 27.5749 25.3395 30.058 25.3395C32.5411 25.3395 34.7888 24.4114 36.4134 22.9138C38.0414 21.4184 39.0487 19.3491 39.0487 17.0624C39.0487 14.7767 38.0414 12.7106 36.4134 11.2119ZM30.058 7.55245C32.91 7.55245 35.4939 8.61724 37.3645 10.3366C39.2315 12.0603 40.3887 14.4365 40.3887 17.0624C40.3887 18.8334 39.864 20.4935 38.9468 21.9159H41.567C43.523 21.9159 45.2905 21.1729 46.5719 19.9789C47.8533 18.7785 48.6498 17.1215 48.6498 15.288C48.6498 13.841 48.1544 12.5071 47.3227 11.4186C46.4594 10.3022 45.2389 9.44733 43.8148 9.00268C43.4996 8.90148 43.3134 8.60755 43.3697 8.31363C43.4071 8.12522 43.434 7.9282 43.4528 7.72902C43.4715 7.53738 43.4797 7.34036 43.4797 7.14118C43.4797 5.30767 42.6856 3.65073 41.4031 2.45029C40.1217 1.2563 38.353 0.513428 36.3982 0.513428C34.858 0.513428 33.4348 0.972073 32.2788 1.74618C31.0805 2.54826 30.1646 3.68518 29.6856 5.01376C29.5707 5.33566 29.19 5.51115 28.8411 5.40242C28.8105 5.39489 28.7766 5.38197 28.7461 5.36797C28.3397 5.17525 27.9017 5.02452 27.446 4.92332C27.008 4.82534 26.5477 4.77581 26.0651 4.77581C24.8106 4.77581 23.6499 5.13649 22.6917 5.7534C21.7032 6.39077 20.9313 7.30052 20.4968 8.36854C20.3832 8.64847 20.0669 8.80888 19.7589 8.75936H19.7542C19.5598 8.72706 19.3583 8.70445 19.1534 8.68938C18.9565 8.67215 18.7539 8.66461 18.549 8.66461C16.5941 8.66461 14.8255 9.40318 13.5441 10.6015C12.2627 11.7987 11.4662 13.4578 11.4662 15.2902C11.4662 17.1237 12.2615 18.7806 13.5441 19.9811C14.8255 21.1751 16.5941 21.9179 18.549 21.9179H21.1691C20.252 20.4957 19.7285 18.8377 19.7285 17.0645C19.7285 14.4386 20.8845 12.0614 22.7527 10.3399C24.622 8.61724 27.2059 7.55245 30.058 7.55245ZM28.6665 21.5756C28.6665 21.5799 28.6665 21.5799 28.6665 21.5756ZM31.6029 13.0745C31.207 12.7095 30.6635 12.4867 30.058 12.4867C29.4524 12.4867 28.9089 12.7095 28.5143 13.0745C28.1184 13.4384 27.8747 13.9423 27.8747 14.4956C27.8747 14.8315 27.9578 15.1428 28.1148 15.4172C28.2753 15.7037 28.5072 15.9491 28.7883 16.1354C28.8692 16.1881 28.937 16.257 28.9862 16.3378C29.8155 17.717 29.1116 20.0909 28.7309 21.3678C28.6818 21.5229 28.834 21.0147 28.6853 21.5261C28.9136 21.5799 29.4337 21.624 29.9971 21.6391C30.6073 21.6563 31.2035 21.6316 31.4389 21.5508C31.3581 21.2817 31.3815 21.3506 31.3745 21.328C30.9868 20.0284 30.2676 17.6373 31.1309 16.3345C31.1813 16.2581 31.2457 16.1914 31.3288 16.1354C31.6099 15.9491 31.843 15.7037 32.0023 15.4172C32.1581 15.1438 32.2424 14.8327 32.2424 14.4956C32.2413 13.9423 31.9976 13.4384 31.6029 13.0745ZM30.058 11.2507C31.0324 11.2507 31.9133 11.6157 32.554 12.2035C33.1889 12.787 33.5848 13.5999 33.5848 14.4968C33.5848 15.0297 33.443 15.5368 33.1924 15.9815C32.9604 16.4013 32.629 16.7663 32.226 17.0559C31.747 17.942 32.3361 19.9165 32.6641 20.9985C32.7238 21.2084 32.698 21.118 32.7402 21.258C32.7976 21.4432 32.8047 21.6327 32.7671 21.8157C32.725 21.9966 32.6406 22.1689 32.5118 22.3228C32.458 22.3863 32.3982 22.4455 32.322 22.495C31.8993 22.7965 30.899 22.8977 29.9596 22.8686C29.0285 22.8439 28.0739 22.6877 27.7622 22.4703C27.7014 22.4239 27.6487 22.3744 27.6065 22.3228C27.4777 22.1689 27.3933 21.9966 27.3512 21.8157C27.3137 21.6337 27.3207 21.4453 27.3745 21.258C27.5116 20.8004 27.3476 21.3538 27.4425 21.048C27.7588 19.9779 28.3409 18.027 27.8759 17.043C27.48 16.7587 27.1567 16.3959 26.9248 15.9815C26.6742 15.5368 26.5335 15.0297 26.5335 14.4968C26.5335 13.5999 26.9294 12.7892 27.5632 12.2035C28.2026 11.6146 29.0835 11.2507 30.058 11.2507ZM38.0227 31.3471C37.8365 31.1792 37.5858 31.0747 37.3036 31.0747C37.0212 31.0747 36.7706 31.1792 36.5843 31.3471C36.4017 31.515 36.2881 31.7498 36.2881 32.0093C36.2881 32.2644 36.4017 32.4991 36.5843 32.6671C36.7706 32.8361 37.0212 32.9406 37.3036 32.9406C37.5858 32.9406 37.8365 32.8361 38.0227 32.6671C38.2055 32.4991 38.319 32.2644 38.319 32.0093C38.319 31.7498 38.2055 31.5162 38.0227 31.3471ZM29.7429 37.7897C29.4654 37.7897 29.21 37.8952 29.0272 38.0631C28.8411 38.2311 28.7309 38.4658 28.7309 38.7253C28.7309 38.9805 28.8411 39.2151 29.0272 39.3831C29.21 39.5554 29.4654 39.6598 29.7429 39.6598C30.024 39.6598 30.2794 39.5554 30.4621 39.3831C30.6448 39.2151 30.7584 38.9805 30.7584 38.7253C30.7584 38.4658 30.6448 38.2311 30.4621 38.0631C30.2782 37.8952 30.024 37.7897 29.7429 37.7897ZM22.8124 31.0747C22.5313 31.0747 22.2795 31.1792 22.0933 31.3471C21.9105 31.515 21.7969 31.7498 21.7969 32.0093C21.7969 32.2644 21.9105 32.4991 22.0933 32.6671C22.2795 32.8361 22.5313 32.9406 22.8124 32.9406C23.0947 32.9406 23.3453 32.8361 23.5316 32.6671C23.7143 32.4991 23.828 32.2644 23.828 32.0093C23.828 31.7498 23.7143 31.515 23.5316 31.3471C23.3453 31.1792 23.0947 31.0747 22.8124 31.0747ZM29.0729 27.7802C29.0729 27.44 29.3739 27.1633 29.7429 27.1633C30.1154 27.1633 30.4164 27.44 30.4164 27.7802V35.2832C30.4164 35.6267 30.1154 35.9034 29.7429 35.9034C29.3739 35.9034 29.0729 35.6267 29.0729 35.2832V27.7802ZM21.3635 23.9593C21.7243 23.8893 22.078 24.1025 22.1553 24.4362C22.2315 24.7699 21.9996 25.0951 21.6388 25.1651L18.2679 25.81L20.8013 28.9258C21.0215 29.1992 20.9654 29.5846 20.669 29.7871C20.3715 29.9894 19.9534 29.9345 19.7332 29.6655L16.5917 25.8025C16.5239 25.726 16.4746 25.6345 16.4477 25.5301C16.375 25.1974 16.607 24.8711 16.9677 24.8012L21.3635 23.9593ZM38.4783 25.164C38.1176 25.094 37.8856 24.7689 37.9618 24.4352C38.0391 24.1013 38.3916 23.8893 38.7536 23.9582L43.1506 24.798C43.5113 24.869 43.7444 25.1931 43.6719 25.5269C43.6449 25.6323 43.5945 25.7238 43.5266 25.8003L40.3851 29.6621C40.165 29.9313 39.7468 29.9884 39.4506 29.7849C39.1542 29.5825 39.0956 29.197 39.317 28.9236L41.8504 25.8079L38.4783 25.164Z" fill="white"/>
</g>
</g>
</g>
<defs>
<clipPath id="clip0_51_852">
<rect width="59.14" height="55" fill="white" transform="translate(0.439453 0.5)"/>
</clipPath>
<clipPath id="clip1_51_852">
<rect width="59.1509" height="55" fill="white" transform="translate(0.433594 0.5)"/>
</clipPath>
</defs>
</svg>
