<svg width="46" height="45" viewBox="0 0 46 45" fill="none" xmlns="http://www.w3.org/2000/svg">
<g clip-path="url(#clip0_1_2113)">
<g clip-path="url(#clip1_1_2113)">
<g clip-path="url(#clip2_1_2113)">
<mask id="mask0_1_2113" style="mask-type:luminance" maskUnits="userSpaceOnUse" x="0" y="0" width="46" height="45">
<path d="M0.5 0H45.5V45H0.5V0Z" fill="white"/>
</mask>
<g mask="url(#mask0_1_2113)">
<path fill-rule="evenodd" clip-rule="evenodd" d="M37.1532 6.89259L36.6219 5.40967C36.5592 5.23453 36.3228 5.23453 36.26 5.40967L35.7281 6.89259C35.5819 7.30211 35.2333 7.56998 34.8202 7.59123L33.3232 7.66914C33.1453 7.67815 33.0728 7.91511 33.2117 8.03294L34.3809 9.02907C34.699 9.29951 34.8355 9.7393 34.7288 10.1565L34.3358 11.6865C34.2895 11.8687 34.4796 12.0149 34.6289 11.9118L35.8804 11.0438C36.2222 10.8069 36.6597 10.8069 37.0009 11.0438L38.253 11.9118C38.4023 12.0149 38.5924 11.8687 38.5461 11.6865L38.1531 10.1565C38.0458 9.73994 38.1829 9.29951 38.501 9.02907L39.6702 8.03359C39.8091 7.91511 39.736 7.67815 39.5587 7.66914L38.0611 7.59187C37.6486 7.56998 37.3001 7.30147 37.1532 6.89259ZM19.8158 42.3686L41.8101 42.4362C43.8475 42.4362 45.5018 40.6803 45.5018 38.5225C45.5018 37.9881 45.4025 37.4659 45.2032 36.9752H19.9876C19.9882 38.5534 20.2161 40.894 19.8158 42.3686ZM18.4461 33.9012C18.4461 33.5091 18.1359 33.1858 17.7673 33.1858C17.5669 33.1858 17.3835 33.2753 17.2525 33.4357C17.1142 33.6578 16.8759 33.8046 16.606 33.8046C16.1789 33.8046 15.8322 33.4376 15.8322 32.9849C15.8322 32.4756 15.7061 31.9779 15.1224 31.9779C14.8579 31.9779 14.6124 32.135 14.4893 32.3829C14.3693 32.6591 14.1073 32.8529 13.8014 32.8581C13.3755 32.8652 13.0252 32.5052 13.0185 32.0545C13.0093 31.5606 12.62 31.1627 12.1545 31.1627C11.7572 31.1627 11.4124 31.4492 11.3173 31.8575C11.2521 32.2406 10.9359 32.531 10.5557 32.531C10.1286 32.531 9.78192 32.164 9.78192 31.7113V25.072C9.78192 24.5891 9.40598 24.1911 8.95023 24.1911C8.49448 24.1911 8.11855 24.5891 8.11855 25.072V36.7885C8.11855 37.2405 7.77247 37.6075 7.34474 37.6075C6.91763 37.6075 6.57094 37.2405 6.57094 36.7885V34.001C5.52783 34.144 4.85334 34.7911 4.85334 35.9456L5.09706 38.8554C5.16896 39.715 5.71793 40.3609 6.3979 40.7807C7.54642 41.489 9.0727 42.0563 9.0727 43.7073V44.9867H17.7844V43.7073C17.7844 42.8766 18.1743 42.565 18.351 41.8496C18.6599 40.5985 18.4467 35.9617 18.4461 33.9012ZM19.9876 35.3358V33.9012H19.9906C19.9906 33.5909 19.9328 33.2934 19.828 33.021H30.9981C31.4253 33.021 31.7719 32.654 31.7719 32.2013C31.7719 31.7486 31.4253 31.3816 30.9981 31.3816H16.9856C16.3483 30.3977 15.1181 30.0552 14.1116 30.5941C13.4828 29.6637 12.344 29.2831 11.3295 29.6791V28.8981C12.4342 28.5053 13.4529 27.9219 14.3541 27.1879C14.3797 27.6161 14.7154 27.9554 15.126 27.9554H30.9981C31.4253 27.9554 31.7719 27.5884 31.7719 27.1357C31.7719 26.6837 31.4253 26.3166 30.9981 26.3166H15.3009C16.2465 25.336 17.0118 24.1712 17.5498 22.8904H28.1777C28.6048 22.8904 28.9515 22.5234 28.9515 22.0707C28.9515 21.6181 28.6048 21.251 28.1777 21.251H18.0963C18.3224 20.3521 18.4424 19.4114 18.4424 18.4468V17.8255H30.9981C31.4253 17.8255 31.7719 17.4584 31.7719 17.0058C31.7719 16.5531 31.4253 16.1861 30.9981 16.1861H18.4424V12.7605H30.9981C31.4253 12.7605 31.7719 12.3935 31.7719 11.9408C31.7719 11.4881 31.4253 11.1211 30.9981 11.1211H18.4302C18.3797 10.8281 18.1823 10.5893 17.9215 10.494L10.457 7.10572V4.87201C10.457 3.07551 9.76973 1.44901 8.65777 0.271304C8.57491 0.183733 8.48961 0.0980935 8.40187 0.0156736L32.0339 0.0929423C32.8077 0.0955181 33.5096 0.430349 34.0842 0.969298C34.6813 1.53078 35.1419 2.30991 35.4094 3.17596L34.4053 5.97631L31.3686 6.13278C30.4315 6.18172 30.0434 7.43347 30.777 8.05806L33.1465 10.0754L32.3483 13.1855C32.1022 14.1436 33.1093 14.9221 33.8965 14.3767L35.6672 13.1488V15.4475C35.5922 15.5402 35.5301 15.6491 35.485 15.7746L34.4053 18.7855L31.3686 18.942C30.4315 18.9903 30.0434 20.2427 30.777 20.8666L33.1465 22.884L32.3483 25.9947C32.1022 26.9528 33.1093 27.7313 33.8965 27.1853L35.6672 25.9573V35.3358H19.9876ZM6.44421 18.7553L8.43355 20.8628C8.73637 21.1828 9.23295 21.1834 9.53211 20.8583L14.3333 16.2434C14.6483 15.9395 14.6715 15.4218 14.3845 15.0876C14.0975 14.7534 13.6089 14.7289 13.2933 15.0335L9.00751 19.1526L7.5385 17.5969C7.23629 17.2762 6.74642 17.2762 6.44421 17.5969C6.142 17.9169 6.142 18.4352 6.44421 18.7553ZM11.3295 27.1582V25.072C11.3295 23.6844 10.2602 22.5517 8.95023 22.5517C7.64025 22.5517 6.57094 23.6837 6.57094 25.072V26.3546C4.03567 24.6277 2.47161 21.649 2.47161 18.4468V11.8069L9.68321 8.53326L16.8948 11.8069V18.4468C16.8948 22.2394 14.6569 25.7339 11.3295 27.1582ZM8.90941 5.46312C8.90941 2.49407 7.33804 0.00537109 4.31473 0.00537109C1.6643 0.00537109 -0.12276 2.89136 0.92096 5.46312H8.90941ZM37.1532 19.7018L36.6219 18.2182C36.5592 18.0431 36.3228 18.0431 36.26 18.2182L35.7281 19.7018C35.5819 20.1107 35.2333 20.3792 34.8202 20.4004L33.3232 20.4777C33.1453 20.4867 33.0728 20.7243 33.2117 20.8422L34.3809 21.8383C34.699 22.1087 34.8355 22.5485 34.7288 22.9658L34.3358 24.4957C34.2895 24.6773 34.4796 24.8241 34.6289 24.7211L35.8804 23.8524C36.2222 23.6161 36.6597 23.6161 37.0009 23.8524L38.253 24.7211C38.4023 24.8241 38.5924 24.6773 38.5461 24.4957L38.1531 22.9658C38.0458 22.5492 38.1829 22.1081 38.501 21.8383L39.6702 20.8422C39.8091 20.7243 39.736 20.4874 39.5587 20.4777L38.0611 20.4004C37.6486 20.3792 37.3001 20.1107 37.1532 19.7018Z" fill="#00D280"/>
</g>
</g>
</g>
</g>
<defs>
<clipPath id="clip0_1_2113">
<rect width="46" height="45" fill="white"/>
</clipPath>
<clipPath id="clip1_1_2113">
<rect width="46" height="45" fill="white"/>
</clipPath>
<clipPath id="clip2_1_2113">
<rect width="46" height="45" fill="white"/>
</clipPath>
</defs>
</svg>
