<svg width="47" height="45" viewBox="0 0 47 45" fill="none" xmlns="http://www.w3.org/2000/svg">
<g clip-path="url(#clip0_1_2064)">
<g clip-path="url(#clip1_1_2064)">
<g clip-path="url(#clip2_1_2064)">
<mask id="mask0_1_2064" style="mask-type:luminance" maskUnits="userSpaceOnUse" x="0" y="0" width="46" height="45">
<path d="M0.719727 0H45.7197V44.9547H0.719727V0Z" fill="white"/>
</mask>
<g mask="url(#mask0_1_2064)">
<path d="M45.5366 22.2439C45.5366 22.2354 45.528 22.2269 45.528 22.2184L38.282 5.06303L31.2906 7.95271C31.3779 7.137 31.3779 5.98282 30.9309 5.15012C30.8608 5.01983 30.7828 4.8945 30.6977 4.77413C30.6126 4.65305 30.5211 4.53763 30.4224 4.42717C30.3237 4.31671 30.2193 4.21191 30.1085 4.1142C29.9976 4.01577 29.881 3.92372 29.7595 3.83875C29.6379 3.75378 29.512 3.6766 29.3811 3.60579C29.2503 3.53569 29.1158 3.47267 28.9778 3.41744C28.8398 3.36292 28.6989 3.31548 28.5551 3.27724C28.4114 3.2383 28.2662 3.20785 28.1189 3.1859C27.9716 3.16324 27.8235 3.14979 27.6748 3.14483C27.526 3.13988 27.3773 3.14342 27.2292 3.15545C27.0805 3.16678 26.9331 3.18732 26.7873 3.21635C26.6414 3.24538 26.4976 3.2822 26.356 3.32823C26.2144 3.37354 26.0757 3.42665 25.9405 3.48825C25.8053 3.54915 25.6737 3.61854 25.5464 3.69501C25.4192 3.77148 25.2969 3.85433 25.1796 3.94496C25.0623 4.0356 24.95 4.13261 24.8442 4.23599C24.7383 4.33937 24.6382 4.44841 24.5452 4.56312C24.4523 4.67783 24.3657 4.79749 24.2863 4.92212C24.2077 5.04745 24.1354 5.17632 24.0718 5.30873C24.0074 5.44185 23.9516 5.5778 23.9037 5.71729C23.8551 5.85678 23.8158 5.9984 23.7843 6.14214C23.7528 6.28659 23.7299 6.43175 23.7156 6.57832C23.7013 6.72489 23.6956 6.87147 23.6985 7.01875C23.7013 7.16603 23.7128 7.3126 23.7328 7.45847C23.7528 7.60433 23.7814 7.74878 23.8186 7.89181C23.8558 8.03414 23.9009 8.17434 23.9545 8.3117C24.0081 8.44907 24.0696 8.5829 24.139 8.71319C24.2077 8.84347 24.2849 8.96951 24.3686 9.0913C24.453 9.21309 24.5438 9.32922 24.6411 9.44039C24.739 9.55155 24.8427 9.65635 24.9529 9.75548C25.063 9.85532 25.1781 9.94737 25.2997 10.0338C25.4206 10.1194 25.5457 10.198 25.6759 10.2695L18.2018 13.3497C18.0323 12.8243 17.7841 12.3386 17.4566 11.8925C17.551 11.8408 17.6354 11.7778 17.7104 11.7013C17.8041 11.6114 17.8771 11.5066 17.9286 11.3876C17.9808 11.2694 18.0072 11.1454 18.0087 11.0159L17.9736 8.15238H18.5701C18.7145 8.15026 18.8375 8.09857 18.9391 7.9959C19.0464 7.89464 19.0993 7.77002 19.0964 7.62274L18.9913 0.0214844L17.9386 0.0391864L18.0351 7.1108L3.97297 7.21489L3.87642 0.0214844L2.82371 0.0391864L2.92026 7.75303C2.9224 7.821 2.9367 7.88615 2.96388 7.94917C2.99177 8.01148 3.02968 8.06671 3.07902 8.11415C3.12837 8.16159 3.18415 8.19912 3.2478 8.22461C3.31145 8.25081 3.37796 8.26426 3.44661 8.26497H4.06094C4.06094 8.29117 4.09598 11.1285 4.09598 11.1285C4.10098 11.2842 4.14032 11.4308 4.21398 11.5675C4.28836 11.7048 4.38919 11.8188 4.51649 11.9095L4.13102 12.517C3.98155 12.7514 3.77988 13.3327 3.77988 13.3327H3.7713L2.23585 18.9988L2.6392 20.2308L2.06922 20.4829C1.80461 20.5983 1.57218 20.7598 1.37337 20.9672C1.17383 21.1747 1.02293 21.4126 0.919951 21.6803C0.819113 21.9479 0.772628 22.2241 0.781925 22.5094C0.791222 22.7955 0.854871 23.0681 0.972873 23.3287L8.77169 40.562L16.0792 37.3253C16.2115 37.2694 16.3202 37.1837 16.4046 37.0683C16.4897 36.9529 16.539 36.8247 16.5526 36.6831C16.5662 36.5408 16.5426 36.4055 16.4811 36.2767C16.4203 36.1478 16.3295 36.043 16.2108 35.963C15.2718 35.3123 14.6224 34.6091 14.43 34.037C14.3928 33.9301 14.3635 33.8211 14.3399 33.7106C14.317 33.5994 14.3006 33.4883 14.2913 33.3757C14.282 33.2631 14.2798 33.1498 14.2848 33.0372C14.2898 32.9246 14.3013 32.812 14.3199 32.7009C14.3385 32.589 14.3642 32.4792 14.3964 32.3709C14.4286 32.2626 14.4672 32.1563 14.513 32.053C14.558 31.9496 14.6102 31.849 14.6682 31.7513C14.7261 31.6543 14.7897 31.5609 14.8591 31.4709C14.9285 31.3817 15.0036 31.296 15.0837 31.216C15.1638 31.1353 15.2482 31.0602 15.3375 30.9894C15.4269 30.9193 15.5206 30.8549 15.6179 30.7961C15.7159 30.7374 15.8167 30.6842 15.9204 30.6375C16.0241 30.5908 16.1307 30.5504 16.2401 30.5171C16.3488 30.4832 16.4596 30.4562 16.5719 30.4357C16.6842 30.4159 16.7972 30.4024 16.9116 30.3961C17.0253 30.389 17.1397 30.3897 17.2535 30.3968C17.3672 30.4038 17.4802 30.418 17.5924 30.4393C17.7047 30.4605 17.8156 30.4881 17.9243 30.5228C18.033 30.5568 18.1388 30.5979 18.2425 30.6453C18.3462 30.6927 18.4471 30.7459 18.5443 30.8053C18.6409 30.8648 18.7338 30.9307 18.8232 31.0015C18.9119 31.0723 18.9963 31.148 19.0757 31.2288C19.1551 31.3102 19.2294 31.3959 19.2988 31.4858C19.3675 31.5757 19.4304 31.6699 19.4876 31.7676C19.5448 31.8653 19.5963 31.9659 19.6407 32.07C19.6857 32.1741 19.7236 32.2803 19.7551 32.3886C19.7866 32.4976 19.8116 32.6074 19.8295 32.7193C19.8473 32.8304 19.8581 32.943 19.8624 33.0556C19.8659 33.1689 19.8631 33.2815 19.8531 33.3941C19.8431 33.5067 19.8259 33.6178 19.8023 33.7283C19.7787 33.8388 19.7479 33.9471 19.7107 34.054C19.6736 34.1609 19.6292 34.265 19.5792 34.3663C19.5463 34.4335 19.5241 34.5036 19.5134 34.5773C19.5019 34.6509 19.5026 34.7246 19.5141 34.7982C19.5255 34.8718 19.5484 34.9419 19.5813 35.0092C19.6149 35.0758 19.6578 35.136 19.71 35.1898C19.7615 35.2436 19.8209 35.2882 19.8867 35.3243C19.9525 35.3604 20.0226 35.3859 20.0962 35.4008C20.1699 35.4156 20.2443 35.4192 20.3193 35.4114C20.3944 35.4036 20.466 35.3852 20.5353 35.3555L26.6056 32.6655C26.9024 32.5387 27.1391 32.3426 27.3165 32.0756L28.2376 31.7025C28.2905 32.1323 28.3971 32.5486 28.5573 32.9515C28.7175 33.3544 28.927 33.7304 29.1852 34.0802C29.0901 34.1347 29.0057 34.2006 28.9306 34.2799C28.8348 34.3705 28.7611 34.476 28.7096 34.5964C28.6574 34.7168 28.6324 34.8428 28.6324 34.9738L28.676 37.8288H28.0795C27.9351 37.8309 27.8121 37.8826 27.7112 37.9853C27.6018 38.0858 27.5518 38.2104 27.5618 38.3577L27.6583 44.9096H28.711L28.6145 38.8789L42.6774 38.7656L42.7739 44.9181H43.8259L43.7301 38.2451C43.728 38.1765 43.7137 38.1113 43.6865 38.0483C43.6593 37.9853 43.6207 37.9293 43.5721 37.8805C43.5227 37.8323 43.4662 37.7948 43.4026 37.7679C43.3389 37.7403 43.2724 37.7261 43.2037 37.7247H42.5894C42.5894 37.707 42.598 37.6815 42.598 37.6638L42.5544 34.8697C42.5544 34.7132 42.5172 34.5652 42.4421 34.4272C42.3677 34.2891 42.2647 34.1758 42.1331 34.0887C42.3348 33.7679 42.4929 33.5251 42.5193 33.4727C42.6717 33.2418 42.7825 32.9933 42.8526 32.7264L42.8698 32.6655H42.8791L44.4138 26.9909L43.8524 25.2377L44.3616 25.0295C44.4925 24.9764 44.6176 24.9113 44.7356 24.8341C44.8536 24.7569 44.963 24.6684 45.0639 24.57C45.1647 24.4708 45.2548 24.3639 45.3335 24.2471C45.4129 24.131 45.4801 24.0077 45.5345 23.8789C45.5888 23.7493 45.6303 23.6155 45.6582 23.4781C45.6861 23.3407 45.7004 23.202 45.7004 23.0618C45.7004 22.9216 45.6868 22.7828 45.6596 22.6447C45.6317 22.5073 45.5909 22.3735 45.5366 22.2439ZM4.81543 13.5147C4.86048 13.3575 4.92771 13.2102 5.0171 13.0721C5.0171 13.0721 5.28886 12.6388 5.59567 12.17L16.263 12.0829C16.4918 12.3223 16.6878 12.585 16.8515 12.871C17.0167 13.1571 17.1455 13.4587 17.237 13.7753L8.78027 17.5153L8.69231 17.6626C8.09587 18.7042 7.01669 19.1638 7.00811 19.1638L6.62192 19.3202C6.62192 19.3202 7.22766 22.9385 7.39429 23.9886C7.44364 24.3009 7.43935 24.6124 7.38214 24.9233C7.32492 25.2341 7.21837 25.5266 7.06103 25.802C6.94804 25.9621 6.80357 26.0874 6.62836 26.178C6.45314 26.2687 6.2672 26.314 6.06982 26.314C5.79734 26.3055 5.68363 26.1667 5.64001 26.0881L3.92935 20.8037L3.60466 19.806L3.3329 18.9726L4.81543 13.5147ZM26.4132 31.529C26.3531 31.6147 26.2745 31.6749 26.1758 31.711L20.7985 34.0972C20.8343 33.9549 20.8622 33.8104 20.8815 33.6646C20.9008 33.5187 20.9115 33.3728 20.9129 33.2256C20.9151 33.0783 20.9086 32.9317 20.8936 32.7858C20.8779 32.6393 20.8543 32.4941 20.8221 32.3511C20.7899 32.2073 20.7499 32.0657 20.7005 31.9269C20.6519 31.7881 20.5954 31.6522 20.5303 31.5198C20.466 31.3874 20.3937 31.2592 20.3143 31.1353C20.2342 31.0114 20.1477 30.8917 20.054 30.7777C19.9603 30.6637 19.8602 30.5554 19.7537 30.4527C19.6471 30.35 19.5355 30.2537 19.4175 30.1638C19.3002 30.0739 19.1772 29.991 19.0499 29.9153C18.9226 29.8395 18.7911 29.7715 18.6559 29.7106C18.52 29.6497 18.382 29.5973 18.2404 29.552C18.0988 29.5074 17.955 29.4713 17.8091 29.443C17.6632 29.4147 17.5159 29.3948 17.3679 29.3828C17.2198 29.3715 17.0711 29.3686 16.9223 29.3743C16.7743 29.38 16.6263 29.3941 16.4797 29.4168C16.3323 29.4387 16.1872 29.4699 16.0441 29.5088C15.9011 29.5485 15.7602 29.5952 15.6229 29.6512C15.4849 29.7064 15.3511 29.7694 15.2203 29.8402C15.0901 29.9103 14.9642 29.9882 14.8434 30.0739C14.7218 30.1589 14.6059 30.2509 14.4958 30.3493C14.385 30.4478 14.2805 30.5518 14.1826 30.6623C14.0846 30.7728 13.993 30.8882 13.9087 31.0093C13.8236 31.1303 13.7463 31.2557 13.6762 31.3853C13.6061 31.5148 13.5446 31.6479 13.4903 31.7853C13.4359 31.922 13.3895 32.0615 13.3515 32.2038C13.3136 32.3461 13.2843 32.4899 13.2629 32.635C13.2421 32.7809 13.2293 32.9275 13.2257 33.074C13.2214 33.2213 13.2264 33.3679 13.2393 33.5145C13.2529 33.661 13.275 33.8062 13.3051 33.9499C13.3351 34.0937 13.3737 34.236 13.4209 34.3755C13.7191 35.2344 14.5173 35.9977 15.2453 36.5528L9.28875 39.1911L1.92046 22.9038C1.85824 22.7693 1.82535 22.6284 1.82249 22.4804C1.81962 22.3324 1.84609 22.1901 1.90258 22.0534C1.95479 21.9161 2.03203 21.7936 2.13358 21.6867C2.23585 21.5797 2.35456 21.4969 2.49044 21.4374L2.9553 21.2292L4.67454 26.5306C4.73891 26.6531 4.81829 26.7643 4.91269 26.8656C5.00709 26.9661 5.11294 27.0532 5.23094 27.1254C5.34965 27.1984 5.47481 27.2536 5.60854 27.2925C5.74156 27.3315 5.87816 27.3527 6.0169 27.3556C6.0169 27.3556 7.38571 27.381 7.94711 26.3487V26.331C8.16667 25.95 8.31685 25.5443 8.39623 25.1124C8.47633 24.6804 8.48134 24.2485 8.41197 23.8151C8.28038 22.9817 7.92065 20.8037 7.77118 19.9271C8.48348 19.5369 9.06205 19.0044 9.50831 18.3311L18.4127 14.3828C18.4127 14.3828 18.658 14.244 18.8511 14.2872C18.9763 14.3502 19.0671 14.4458 19.1229 14.5733L21.8777 20.8037C21.9056 20.8731 21.9442 20.9361 21.9921 20.9934C22.0407 21.0508 22.0965 21.0989 22.1602 21.1386C22.2238 21.179 22.2925 21.208 22.3654 21.2264C22.4391 21.2441 22.5127 21.2512 22.5878 21.2462C22.6629 21.2413 22.7359 21.2257 22.806 21.1995C22.876 21.1726 22.9411 21.1365 23.0005 21.0912C23.0598 21.0458 23.1113 20.992 23.155 20.9318C23.1979 20.8709 23.2315 20.8051 23.2551 20.7343C23.2837 20.6274 23.3194 20.5219 23.3609 20.4192C23.4031 20.3165 23.451 20.2167 23.5054 20.1197C23.5597 20.022 23.6198 19.9285 23.6856 19.8393C23.7514 19.7493 23.8222 19.6637 23.8987 19.5822C23.9745 19.5008 24.0561 19.425 24.1419 19.3535C24.2277 19.282 24.3171 19.2162 24.4115 19.1553C24.5052 19.0944 24.6024 19.0398 24.7033 18.991C24.8041 18.9421 24.9071 18.8996 25.0129 18.8635C25.1188 18.8267 25.2268 18.797 25.3362 18.7736C25.4463 18.7502 25.5565 18.734 25.668 18.7233C25.7803 18.7134 25.8919 18.7106 26.0042 18.7141C26.1157 18.7177 26.2273 18.7276 26.3381 18.7446C26.449 18.7616 26.5584 18.7856 26.6664 18.8154C26.7744 18.8458 26.8802 18.8827 26.9832 18.9251C27.0869 18.9683 27.187 19.0172 27.2843 19.0724C27.3815 19.1276 27.4752 19.1885 27.5653 19.2551C27.6547 19.321 27.7406 19.3925 27.8214 19.4697C27.9022 19.5461 27.978 19.6276 28.0495 19.7132C28.1203 19.7989 28.1854 19.8888 28.2455 19.983C28.3055 20.0765 28.3592 20.1735 28.4071 20.274C28.455 20.3746 28.4965 20.4773 28.5315 20.5828C28.5666 20.6876 28.5952 20.7952 28.6173 20.9035C28.6395 21.0126 28.6545 21.1223 28.6631 21.2328C28.6717 21.3432 28.6731 21.4537 28.6674 21.5649C28.6624 21.6753 28.6502 21.7858 28.6316 21.8948C28.6131 22.0046 28.5873 22.1122 28.5551 22.2184C28.5229 22.3246 28.4843 22.4287 28.4393 22.53C28.3942 22.6319 28.3434 22.7304 28.2862 22.826C28.229 22.9216 28.1661 23.0129 28.0974 23.1007C28.0295 23.1885 27.9558 23.2721 27.8772 23.3506C27.7985 23.43 27.7148 23.5036 27.6268 23.573C27.5389 23.6417 27.4473 23.7047 27.3515 23.7628C26.5884 24.1883 25.2547 24.0835 24.7197 24.0233C24.5774 24.007 24.4408 24.0269 24.3092 24.0828C24.1783 24.1387 24.0689 24.223 23.9831 24.3356C23.9831 24.3441 23.7285 24.6309 23.8951 25.1251L26.5005 30.8698C26.5484 30.9788 26.5648 31.0928 26.5491 31.2111C26.5334 31.3293 26.4876 31.4355 26.4132 31.529ZM41.8349 32.4573C41.7892 32.6145 41.7219 32.7625 41.6333 32.8998V32.9175C41.6333 32.9175 41.3701 33.3424 41.0633 33.8111L40.9574 33.9761H30.4746L30.3867 33.889C30.0484 33.5322 29.7816 33.1285 29.5871 32.6782C29.3926 32.2272 29.2817 31.7577 29.2553 31.2684L36.8524 28.1359C36.6858 28.4311 36.5277 28.7434 36.3783 29.0557L37.3344 29.4982C37.5275 29.0904 37.7385 28.6917 37.9573 28.3101C38.1819 27.9277 38.4687 27.5977 38.817 27.3202C39.0701 27.1148 39.3447 26.9442 39.6415 26.8082L40.0277 26.6524L39.9662 26.2446C39.9576 26.2361 39.9312 26.0449 39.879 25.7588C39.7209 24.8213 39.3876 22.7913 39.2561 21.9925C39.2067 21.6803 39.2103 21.3687 39.2675 21.0579C39.3247 20.747 39.432 20.4539 39.5893 20.1792C39.7016 20.0177 39.8454 19.891 40.0206 19.7989C40.1958 19.7076 40.3824 19.6601 40.5805 19.6587C40.8523 19.6672 40.9667 19.806 41.0103 19.8924L42.5544 24.6479L42.8791 25.6455L43.3175 27.0079L41.8349 32.4573Z" fill="#00D280"/>
</g>
<path d="M11.6245 41.2739L12.5599 40.7959L13.775 43.1248L12.8395 43.602L11.6245 41.2739Z" fill="#00D280"/>
<path d="M4.03125 43.1673L5.24631 40.8384L6.18173 41.3156L4.96668 43.6445L4.03125 43.1673Z" fill="#00D280"/>
<mask id="mask1_1_2064" style="mask-type:luminance" maskUnits="userSpaceOnUse" x="8" y="42" width="2" height="4">
<path d="M8.18848 42.2358H9.47004V45.0002H8.18848V42.2358Z" fill="white"/>
</mask>
<g mask="url(#mask1_1_2064)">
<path d="M8.32373 44.9495L8.38881 42.3296L9.44081 42.3551L9.37645 44.975L8.32373 44.9495Z" fill="#00D280"/>
</g>
<path d="M33.8813 1.96846L34.8167 1.49121L36.0318 3.81938L35.0963 4.29734L33.8813 1.96846Z" fill="#00D280"/>
<path d="M41.4771 3.85476L42.6921 1.52588L43.6276 2.00383L42.4132 4.33201L41.4771 3.85476Z" fill="#00D280"/>
<path d="M38.1572 2.75369L38.2215 0.133789L39.2742 0.15928L39.2092 2.77918L38.1572 2.75369Z" fill="#00D280"/>
</g>
</g>
</g>
<defs>
<clipPath id="clip0_1_2064">
<rect width="46" height="45" fill="white" transform="translate(0.219727)"/>
</clipPath>
<clipPath id="clip1_1_2064">
<rect width="46" height="45" fill="white" transform="translate(0.219727)"/>
</clipPath>
<clipPath id="clip2_1_2064">
<rect width="46" height="45" fill="white" transform="translate(0.219727)"/>
</clipPath>
</defs>
</svg>
