<svg width="47" height="45" viewBox="0 0 47 45" fill="none" xmlns="http://www.w3.org/2000/svg">
<g clip-path="url(#clip0_1_2085)">
<g clip-path="url(#clip1_1_2085)">
<g clip-path="url(#clip2_1_2085)">
<mask id="mask0_1_2085" style="mask-type:luminance" maskUnits="userSpaceOnUse" x="1" y="0" width="11" height="11">
<path d="M1.27979 0H11.9472V10.6719H1.27979V0Z" fill="white"/>
</mask>
<g mask="url(#mask0_1_2085)">
<path fill-rule="evenodd" clip-rule="evenodd" d="M3.30216 3.22381L3.60137 6.15304C3.64955 6.6255 3.30401 7.04793 2.83341 7.09795C2.76947 7.10536 2.80931 7.10259 2.74261 7.10259C2.30257 7.10259 1.93016 6.76816 1.8857 6.32905L1.34006 0.989376C1.32524 0.848566 1.34654 0.707755 1.39842 0.578988C1.44011 0.475233 1.50403 0.377036 1.58833 0.292735C1.69672 0.184348 1.82641 0.110237 1.96537 0.0722555C2.0682 0.0426112 2.17658 0.0333473 2.28497 0.0435376L7.6247 0.589178C8.09623 0.63735 8.44362 1.06163 8.39453 1.53409C8.34635 2.00469 7.92022 2.35209 7.4496 2.30299L4.51758 2.00284L11.6026 9.08783C11.9389 9.4241 11.9389 9.97067 11.6008 10.3069C11.4387 10.4681 11.221 10.5561 10.9921 10.5561C10.7633 10.5561 10.5447 10.4672 10.3826 10.3042L3.30216 3.22381Z" fill="#00D280"/>
</g>
<mask id="mask1_1_2085" style="mask-type:luminance" maskUnits="userSpaceOnUse" x="35" y="0" width="12" height="11">
<path d="M35.6626 0H46.2799V10.6719H35.6626V0Z" fill="white"/>
</mask>
<g mask="url(#mask1_1_2085)">
<path fill-rule="evenodd" clip-rule="evenodd" d="M43.0809 2.05296L40.1517 2.35311C39.6792 2.40128 39.2549 2.05482 39.2068 1.58236C39.1586 1.11083 39.5051 0.686548 39.9757 0.638376L45.3154 0.0927357C45.5729 0.0667969 45.8286 0.157582 46.012 0.341007C46.1945 0.523504 46.2863 0.780113 46.2603 1.03672L45.7147 6.37733C45.6693 6.81643 45.2978 7.15086 44.8568 7.15086C44.7901 7.15086 44.8272 7.15271 44.766 7.1453C44.2964 7.09342 43.9517 6.67192 43.9999 6.20131L44.2991 3.27023L37.215 10.3561C37.0538 10.5173 36.8352 10.6081 36.6064 10.6081C36.3776 10.6081 36.1589 10.5183 35.9968 10.3571C35.6596 10.0217 35.6605 9.47423 35.9959 9.13795L43.0809 2.05296Z" fill="#00D280"/>
</g>
<mask id="mask2_1_2085" style="mask-type:luminance" maskUnits="userSpaceOnUse" x="1" y="34" width="11" height="11">
<path d="M1.27979 34.3875H11.9472V45H1.27979V34.3875Z" fill="white"/>
</mask>
<g mask="url(#mask2_1_2085)">
<path fill-rule="evenodd" clip-rule="evenodd" d="M2.14749 44.9685C1.9196 44.9685 1.7019 44.8796 1.54071 44.7193C1.53978 44.7174 1.53885 44.7165 1.53885 44.7165L1.537 44.7147C1.40545 44.5831 1.32486 44.4191 1.29706 44.2487C1.28502 44.1737 1.28132 44.0958 1.28965 44.0189L1.8353 38.6793C1.88347 38.2077 2.30961 37.8603 2.78114 37.9104C3.25175 37.9604 3.59822 38.3828 3.54912 38.8553L3.24897 41.7845L10.3331 34.7005C10.6694 34.3642 11.214 34.3642 11.5512 34.7005C11.8875 35.0367 11.8875 35.5824 11.5512 35.9186L4.46717 43.0027L7.39827 42.7035C7.86981 42.6553 8.29502 43.0009 8.34319 43.4715C8.39044 43.943 8.04397 44.3682 7.57336 44.4154L2.26977 44.9583C2.25125 44.9611 2.23086 44.9639 2.21234 44.9648C2.19381 44.9685 2.20215 44.9685 2.14749 44.9685Z" fill="#00D280"/>
</g>
<path fill-rule="evenodd" clip-rule="evenodd" d="M23.775 15.2725C19.774 15.2725 16.5195 18.5268 16.5195 22.5279C16.5195 26.5299 19.774 29.7852 23.775 29.7852C27.777 29.7852 31.0324 26.5308 31.0324 22.5279C31.0324 18.5278 27.777 15.2725 23.775 15.2725Z" fill="#00D280"/>
<path fill-rule="evenodd" clip-rule="evenodd" d="M21.189 8.43463L20.6665 11.5862C20.6369 11.7705 20.5053 11.9225 20.3284 11.9808C19.7929 12.1559 19.2649 12.3755 18.7582 12.6311C18.5914 12.7173 18.3922 12.7006 18.2403 12.5932L15.6409 10.7321C15.4398 10.5885 15.136 10.4866 14.9442 10.6793L11.9288 13.6946C11.737 13.8873 11.838 14.1903 11.9825 14.3913L13.8427 16.9898C13.952 17.1417 13.9669 17.3418 13.8826 17.5086C13.625 18.0144 13.4055 18.5424 13.2322 19.0788C13.1739 19.2557 13.021 19.3863 12.8376 19.4169L9.68512 19.9385C9.44055 19.9783 9.1543 20.1228 9.1543 20.3942V24.6584C9.1543 24.9298 9.43963 25.0725 9.68512 25.1142L12.8376 25.6357C13.021 25.6663 13.1739 25.7969 13.2322 25.9748C13.4064 26.5112 13.626 27.0392 13.8826 27.5441C13.9678 27.7108 13.9511 27.9109 13.8427 28.0629L11.9825 30.6614C11.838 30.8624 11.737 31.1672 11.9288 31.358L14.9442 34.3734C15.1369 34.5661 15.4398 34.4651 15.6409 34.3206L18.2403 32.4595C18.3274 32.3983 18.4302 32.3668 18.5321 32.3668C18.6099 32.3668 18.6878 32.3854 18.7582 32.4215C19.2649 32.6781 19.7911 32.8977 20.3284 33.0718C20.5053 33.1302 20.6369 33.2821 20.6665 33.4665L21.189 36.618C21.2279 36.8635 21.3724 37.1498 21.6448 37.1498H25.908C26.1804 37.1498 26.3231 36.8644 26.3648 36.618L26.8863 33.4665C26.916 33.2821 27.0475 33.1302 27.2244 33.0718C27.7608 32.8977 28.2898 32.6772 28.7947 32.4215C28.9614 32.3363 29.1606 32.3529 29.3135 32.4613L31.912 34.3215C32.113 34.4651 32.4169 34.567 32.6086 34.3743L35.624 31.3589C35.8167 31.1672 35.7157 30.8633 35.5703 30.6632L33.7101 28.0638C33.6008 27.9119 33.586 27.7118 33.6703 27.5459C33.9278 27.0392 34.1464 26.5112 34.3215 25.9757C34.3799 25.7988 34.5318 25.6672 34.7162 25.6367L37.8687 25.1151C37.9224 25.1058 38.3995 25.0178 38.3995 24.6593V20.3961C38.3995 20.1237 38.1142 19.9811 37.8687 19.9394L34.7171 19.4178C34.5327 19.3882 34.3808 19.2566 34.3224 19.0797C34.1474 18.5424 33.9278 18.0144 33.6712 17.5095C33.586 17.3427 33.6026 17.1426 33.711 16.9907L35.5712 14.3922C35.7167 14.1912 35.8176 13.8873 35.625 13.6956L32.6096 10.6802C32.4169 10.4875 32.1139 10.5885 31.9129 10.7339L29.3144 12.5941C29.1625 12.7034 28.9624 12.7182 28.7956 12.633C28.2898 12.3755 27.7627 12.1568 27.2254 11.9818C27.0484 11.9234 26.9169 11.7715 26.8872 11.5871L26.3657 8.43463C26.3258 8.19006 26.1813 7.90381 25.909 7.90381H21.6457C21.3724 7.90381 21.2288 8.18914 21.189 8.43463ZM15.5186 22.5268C15.5186 17.9727 19.2232 14.269 23.7755 14.269C28.3306 14.269 32.0343 17.9736 32.0343 22.5268C32.0343 27.0818 28.3306 30.7855 23.7755 30.7855C19.2214 30.7855 15.5186 27.0809 15.5186 22.5268Z" fill="#00D280"/>
<mask id="mask3_1_2085" style="mask-type:luminance" maskUnits="userSpaceOnUse" x="35" y="34" width="12" height="11">
<path d="M35.6626 34.3875H46.2799V45H35.6626V34.3875Z" fill="white"/>
</mask>
<g mask="url(#mask3_1_2085)">
<path fill-rule="evenodd" clip-rule="evenodd" d="M45.4035 44.9685C45.6314 44.9685 45.8491 44.8796 46.0103 44.7193C46.0112 44.7174 46.0122 44.7165 46.0122 44.7165L46.014 44.7147C46.1456 44.5831 46.2262 44.4191 46.254 44.2487C46.266 44.1737 46.2697 44.0958 46.2614 44.0189L45.7157 38.6793C45.6676 38.2077 45.2414 37.8603 44.7699 37.9104C44.2993 37.9604 43.9528 38.3828 44.0019 38.8553L44.3021 41.7845L37.2179 34.7005C36.8817 34.3642 36.3369 34.3642 35.9997 34.7005C35.6635 35.0367 35.6635 35.5824 35.9997 35.9186L43.0838 43.0027L40.1527 42.7035C39.6812 42.6553 39.256 43.0009 39.2078 43.4715C39.1606 43.943 39.5071 44.3682 39.9777 44.4154L45.2812 44.9583C45.2998 44.9611 45.3202 44.9639 45.3387 44.9648C45.3572 44.9685 45.3489 44.9685 45.4035 44.9685Z" fill="#00D280"/>
</g>
</g>
</g>
</g>
<defs>
<clipPath id="clip0_1_2085">
<rect width="46" height="45" fill="white" transform="translate(0.779785)"/>
</clipPath>
<clipPath id="clip1_1_2085">
<rect width="46" height="45" fill="white" transform="translate(0.779785)"/>
</clipPath>
<clipPath id="clip2_1_2085">
<rect width="46" height="45" fill="white" transform="translate(0.779785)"/>
</clipPath>
</defs>
</svg>
