<svg width="56" height="45" viewBox="0 0 56 45" fill="none" xmlns="http://www.w3.org/2000/svg">
<g clip-path="url(#clip0_1_2039)">
<g clip-path="url(#clip1_1_2039)">
<g clip-path="url(#clip2_1_2039)">
<path d="M35.6732 30.8259V31.5621L34.4412 33.6953H21.5067L20.2334 31.4869V30.8198C20.2334 30.6513 20.2503 30.4851 20.2831 30.319C20.3159 30.154 20.3657 29.9927 20.43 29.8375C20.4943 29.6811 20.5732 29.5331 20.6679 29.3924C20.7614 29.253 20.8682 29.1232 20.9871 29.0031C21.1061 28.8843 21.236 28.7776 21.3768 28.6842C21.5176 28.5908 21.6657 28.5107 21.821 28.4465C21.9764 28.3822 22.1378 28.3325 22.3029 28.2997C22.4692 28.267 22.6355 28.25 22.8042 28.25H25.1008L27.3804 31.5257C27.4131 31.5718 27.4496 31.6142 27.492 31.6506C27.5345 31.6882 27.5806 31.7197 27.6304 31.7464C27.6802 31.7719 27.7324 31.7925 27.787 31.8058C27.8416 31.8192 27.8975 31.8252 27.9533 31.8252C28.0103 31.8252 28.065 31.8192 28.1196 31.8058C28.1742 31.7925 28.2276 31.7719 28.2774 31.7464C28.3272 31.7197 28.3733 31.6882 28.4158 31.6506C28.457 31.6142 28.4947 31.5718 28.5262 31.5257L30.8058 28.25H33.1036C33.2723 28.25 33.4398 28.267 33.6061 28.2997C33.7712 28.3337 33.9326 28.3822 34.088 28.4477C34.2446 28.512 34.3926 28.592 34.5334 28.6854C34.673 28.78 34.8029 28.8867 34.9219 29.0056C35.042 29.1256 35.1489 29.2554 35.2423 29.3961C35.3358 29.5367 35.4147 29.6847 35.479 29.8411C35.5434 29.9976 35.5919 30.1589 35.6247 30.3238C35.6575 30.49 35.6744 30.6573 35.6732 30.8259Z" fill="#00D280"/>
<path d="M40.9077 22.498L36.8487 29.5271C36.7819 29.3343 36.7006 29.1463 36.6035 28.9668C36.5076 28.7861 36.3983 28.6139 36.2757 28.4502C36.1531 28.2865 36.0184 28.1324 35.8715 27.9893C35.7247 27.8462 35.5681 27.7165 35.4018 27.5976C35.2343 27.4788 35.0595 27.3733 34.8762 27.2823C34.6929 27.1901 34.5048 27.1137 34.3093 27.0507C34.1139 26.9888 33.9161 26.9415 33.7133 26.91C33.5118 26.8772 33.3079 26.8615 33.1028 26.8615H30.8038C30.6873 26.6371 30.5622 26.3048 30.4906 26.1144C32.2847 25.069 33.5118 22.9624 33.5118 20.5369C33.5118 20.4884 33.5118 20.4411 33.5118 20.3938C34.1078 19.5582 34.6346 18.2084 33.9051 16.9326C33.7862 16.7252 33.7085 16.5033 33.6721 16.2668C33.6005 15.7768 33.2618 15.413 32.9341 15.0613C32.7022 14.8078 32.457 14.5471 32.3539 14.2815C31.8501 12.9572 29.1057 12.8128 27.9489 12.8128C26.7933 12.8128 24.0489 12.9572 23.5451 14.2815C23.4444 14.5471 23.1967 14.8078 22.9637 15.0601C22.636 15.4094 22.2985 15.7768 22.2257 16.2668C22.1905 16.5033 22.1128 16.7252 21.9938 16.9326C21.2631 18.2108 21.7911 19.5582 22.3859 20.3938C22.3859 20.4411 22.3859 20.4896 22.3859 20.5369C22.3859 22.9649 23.6167 25.0751 25.4083 26.1144C25.3367 26.3048 25.2093 26.6371 25.0952 26.8615H22.8035C22.6008 26.8615 22.3993 26.8772 22.199 26.9088C21.9987 26.9403 21.8021 26.9864 21.6078 27.047C21.4149 27.1089 21.2279 27.1841 21.0458 27.2738C20.8638 27.3648 20.6902 27.4679 20.5239 27.5843C20.3588 27.7007 20.2022 27.8293 20.0566 27.9699C19.9097 28.1106 19.775 28.261 19.6524 28.4223C19.5286 28.5836 19.4193 28.7534 19.3222 28.9317C19.2251 29.1087 19.1414 29.2931 19.0722 29.4847L15.0386 22.498L21.5059 11.2993H34.4404L40.9077 22.498Z" fill="#00D280"/>
<path d="M45.4408 3.08405C45.4408 3.35814 45.4056 3.62737 45.3327 3.89297C45.2611 4.15735 45.1555 4.40839 45.0171 4.64488C44.8776 4.88137 44.7101 5.09481 44.5134 5.28643C44.3168 5.47804 44.0983 5.64055 43.8592 5.77396C43.6188 5.90615 43.3651 6.0056 43.0993 6.07109C42.8323 6.13657 42.5616 6.16568 42.2873 6.1584C42.0129 6.15113 41.7447 6.10747 41.4825 6.02864C41.2191 5.94981 40.9715 5.83702 40.7384 5.69149L35.7132 10.7172L35.4461 10.2527C35.383 10.1448 35.298 10.0586 35.19 9.99679C35.082 9.93494 34.9654 9.90341 34.8416 9.90341H34.5552L39.7552 4.7043C39.4433 4.20707 39.2891 3.66497 39.2903 3.07799C39.2903 2.87546 39.3097 2.67657 39.3498 2.47767C39.3886 2.27999 39.4469 2.08716 39.5246 1.9004C39.6011 1.71363 39.6957 1.53657 39.8086 1.368C39.9203 1.20063 40.0477 1.0454 40.191 0.902295C40.333 0.759189 40.4884 0.631849 40.6571 0.519062C40.8246 0.407488 41.0018 0.31168 41.1887 0.235276C41.3757 0.157659 41.5675 0.0994467 41.7653 0.0594253C41.9644 0.0206169 42.1647 0 42.3662 0C42.5689 0 42.7679 0.0206169 42.967 0.0594253C43.1649 0.0994467 43.3566 0.157659 43.5436 0.235276C43.7305 0.31168 43.9077 0.407488 44.0764 0.519062C44.2439 0.631849 44.3993 0.759189 44.5425 0.902295C44.6846 1.0454 44.812 1.20063 44.9249 1.368C45.0366 1.53657 45.1312 1.71363 45.2089 1.9004C45.2854 2.08716 45.3437 2.27999 45.3837 2.47767C45.4226 2.67657 45.442 2.87546 45.442 3.07799L45.4408 3.08405Z" fill="#00D280"/>
<mask id="mask0_1_2039" style="mask-type:luminance" maskUnits="userSpaceOnUse" x="41" y="19" width="15" height="7">
<path d="M41.9375 19.3352H55.5008V25.855H41.9375V19.3352Z" fill="white"/>
</mask>
<g mask="url(#mask0_1_2039)">
<path d="M52.3085 19.5935C52.1385 19.5935 51.9698 19.6081 51.8023 19.636C51.6336 19.6638 51.4697 19.7051 51.3095 19.7609C51.1481 19.8167 50.9927 19.8846 50.8434 19.9658C50.6941 20.0459 50.5521 20.1392 50.4173 20.2435C50.2838 20.3478 50.1588 20.4631 50.0435 20.588C49.9294 20.7129 49.825 20.8475 49.7315 20.9894C49.6393 21.1313 49.5579 21.2805 49.49 21.4369C49.422 21.5921 49.3662 21.7522 49.3249 21.9172L42.1184 21.8007L42.3199 22.15C42.3818 22.2579 42.4134 22.3744 42.4134 22.4981C42.4134 22.623 42.3818 22.7394 42.3199 22.8473L42.1172 23.1954L49.3055 23.3118C49.3455 23.4998 49.4026 23.6829 49.4778 23.8612C49.5531 24.0395 49.6441 24.2081 49.7497 24.3681C49.8565 24.5294 49.9779 24.6786 50.1127 24.8169C50.2474 24.9539 50.3943 25.0788 50.5521 25.1892C50.7099 25.2995 50.8774 25.3941 51.0534 25.473C51.2294 25.5518 51.4102 25.6137 51.5984 25.6585C51.7853 25.7034 51.9759 25.7301 52.1689 25.7398C52.3619 25.7483 52.5537 25.7398 52.7442 25.7119C52.9348 25.6852 53.1217 25.6403 53.3038 25.5785C53.4871 25.5166 53.6619 25.4378 53.8294 25.342C53.9981 25.2474 54.1547 25.137 54.3016 25.0121C54.4497 24.8884 54.5832 24.7502 54.7046 24.601C54.826 24.4506 54.9316 24.2905 55.0226 24.1207C55.1136 23.951 55.1889 23.7739 55.2459 23.5896C55.3042 23.4064 55.3443 23.2185 55.3673 23.0268C55.3892 22.8352 55.394 22.6436 55.3807 22.4508C55.3661 22.2592 55.3358 22.07 55.286 21.8832C55.2362 21.6964 55.1707 21.5157 55.0869 21.3423C55.0044 21.1689 54.9061 21.0039 54.792 20.8487C54.6767 20.6935 54.5492 20.5492 54.4084 20.4182C54.2676 20.2872 54.1147 20.1696 53.952 20.0665C53.7893 19.9634 53.617 19.8773 53.4385 19.807C53.2589 19.7366 53.0744 19.6833 52.885 19.6469C52.6945 19.6117 52.5039 19.5935 52.3109 19.5935H52.3085Z" fill="#00D280"/>
</g>
<path d="M21.3916 9.90456H21.1015C20.9777 9.90456 20.8611 9.9361 20.7531 9.99795C20.6463 10.061 20.5613 10.1459 20.4982 10.2538L20.2299 10.7183L15.2047 5.69386C14.707 6.00554 14.1645 6.16077 13.577 6.15834C13.4641 6.15834 13.3512 6.15228 13.2395 6.14015C13.1278 6.12802 13.0162 6.10983 12.9057 6.08558C12.7965 6.06132 12.6872 6.031 12.5804 5.99462C12.4736 5.95824 12.3692 5.91579 12.2672 5.86728C12.1653 5.81998 12.0657 5.76662 11.9699 5.70841C11.874 5.64898 11.7805 5.58592 11.6919 5.51679C11.6021 5.44766 11.5171 5.37369 11.4358 5.29607C11.3544 5.21724 11.278 5.13477 11.2051 5.04745C11.1335 4.96135 11.0668 4.87039 11.0036 4.77701C10.9417 4.68241 10.8847 4.58539 10.8337 4.48473C10.7827 4.38529 10.7366 4.2822 10.6965 4.17669C10.6565 4.07118 10.6213 3.96324 10.5934 3.8541C10.5655 3.74495 10.5424 3.63459 10.5266 3.52301C10.5096 3.41144 10.4999 3.29986 10.4963 3.18708C10.4926 3.07429 10.4951 2.9615 10.5036 2.84872C10.512 2.73714 10.5266 2.62557 10.5472 2.51399C10.5679 2.40363 10.5946 2.29448 10.6274 2.18655C10.6601 2.07861 10.699 1.97189 10.7427 1.86881C10.7876 1.76451 10.8374 1.66385 10.8932 1.56561C10.9478 1.46738 11.0085 1.37279 11.0753 1.28183C11.1408 1.18966 11.2112 1.10234 11.2877 1.01866C11.3629 0.934979 11.4431 0.854936 11.5268 0.780958C11.6118 0.705767 11.6992 0.635426 11.7914 0.569937C11.8837 0.504448 11.9784 0.445023 12.0779 0.390449C12.1762 0.334662 12.277 0.286151 12.3813 0.242492C12.4857 0.198832 12.5913 0.161237 12.6994 0.128492C12.8074 0.0969602 12.9179 0.0702796 13.0283 0.0508754C13.14 0.0314712 13.2517 0.0169182 13.3633 0.00964152C13.4762 0.00115211 13.5891 -6.05723e-05 13.702 0.00479047C13.8149 0.00964152 13.9265 0.0205562 14.0382 0.037535C14.1499 0.0545139 14.2603 0.0775562 14.3684 0.106662C14.4776 0.135769 14.5844 0.170939 14.69 0.212173C14.7956 0.252194 14.8976 0.299491 14.9971 0.35164C15.0979 0.403789 15.195 0.460789 15.2885 0.523852C15.3819 0.586916 15.4717 0.654831 15.5579 0.727597C15.6441 0.800362 15.7266 0.876766 15.8043 0.959234C15.882 1.04049 15.9548 1.12659 16.0228 1.21634C16.092 1.30608 16.1551 1.39947 16.2134 1.49527C16.2704 1.5923 16.3239 1.69174 16.3712 1.79483C16.4173 1.8967 16.4598 2.001 16.495 2.10893C16.5302 2.21566 16.5605 2.3248 16.5836 2.43395C16.6079 2.54431 16.6249 2.65589 16.637 2.76867C16.6479 2.88025 16.6528 2.99304 16.6528 3.10582C16.6516 3.21861 16.6443 3.3314 16.6309 3.44297C16.6176 3.55454 16.5982 3.66612 16.5727 3.77527C16.5472 3.88563 16.5156 3.99356 16.478 4.10029C16.4416 4.20701 16.3979 4.31009 16.3493 4.41197C16.3008 4.51384 16.2462 4.61207 16.1867 4.70788L21.3916 9.90456Z" fill="#00D280"/>
<mask id="mask1_1_2039" style="mask-type:luminance" maskUnits="userSpaceOnUse" x="0" y="19" width="14" height="7">
<path d="M0.499512 19.0247H13.9706V25.5445H0.499512V19.0247Z" fill="white"/>
</mask>
<g mask="url(#mask1_1_2039)">
<path d="M13.6281 22.8473L13.8259 23.1881L6.5806 23.0729C6.55025 23.1929 6.51262 23.3118 6.46771 23.4282C6.4228 23.5446 6.37182 23.6574 6.31356 23.7678C6.25408 23.8769 6.18975 23.9836 6.11813 24.0855C6.04652 24.1874 5.97004 24.2856 5.88629 24.3778C5.80375 24.47 5.71514 24.5573 5.62168 24.6397C5.527 24.7222 5.42868 24.7974 5.3255 24.8677C5.22354 24.9381 5.11672 25.0011 5.00505 25.0581C4.89459 25.1151 4.78049 25.1661 4.66397 25.2085C4.54744 25.2522 4.42848 25.2886 4.3071 25.3165C4.18572 25.3456 4.06312 25.3674 3.93931 25.3807C3.8155 25.3941 3.69169 25.4014 3.56667 25.4001C3.44286 25.3989 3.31783 25.3904 3.19524 25.3735C3.07143 25.3577 2.94883 25.3334 2.82866 25.3019C2.70849 25.2716 2.58954 25.2328 2.47422 25.1879C2.3577 25.1418 2.24481 25.0897 2.13557 25.0303C2.02632 24.972 1.9195 24.9053 1.81876 24.8338C1.7168 24.7622 1.61969 24.6834 1.52744 24.5997C1.43519 24.516 1.34901 24.4275 1.26768 24.3329C1.18635 24.2383 1.1111 24.1401 1.04191 24.0358C0.972719 23.9327 0.9096 23.826 0.852551 23.7144C0.796715 23.6028 0.746947 23.4888 0.704464 23.3724C0.66198 23.2548 0.627993 23.1359 0.600075 23.0146C0.572156 22.8934 0.551521 22.7709 0.538169 22.6472C0.524817 22.5223 0.519962 22.3986 0.521176 22.2736C0.523603 22.1499 0.533314 22.025 0.550308 21.9025C0.567301 21.7788 0.591578 21.6576 0.624351 21.5363C0.655911 21.4162 0.694753 21.2986 0.742092 21.1822C0.788218 21.0669 0.840412 20.9542 0.901104 20.845C0.960581 20.7359 1.02734 20.6316 1.10017 20.5297C1.173 20.429 1.25069 20.3332 1.33565 20.2411C1.42062 20.1501 1.50923 20.064 1.60512 19.9827C1.6998 19.9027 1.79934 19.8275 1.90251 19.7584C2.0069 19.6905 2.11493 19.6286 2.2266 19.5728C2.33827 19.517 2.45237 19.4685 2.57012 19.4273C2.68664 19.3861 2.80681 19.3509 2.92819 19.3242C3.04958 19.2975 3.17217 19.2781 3.2972 19.2648C3.42101 19.2527 3.54482 19.249 3.66984 19.2514C3.79365 19.2551 3.91746 19.2648 4.04127 19.283C4.16387 19.3012 4.28647 19.3266 4.40664 19.3594C4.5268 19.3921 4.64455 19.4321 4.75986 19.4794C4.87517 19.5255 4.98684 19.5801 5.09609 19.6407C5.20412 19.7014 5.30972 19.7681 5.40926 19.8421C5.51 19.9148 5.6059 19.9949 5.69693 20.0798C5.78797 20.1647 5.87415 20.2544 5.95426 20.3502C6.03438 20.446 6.10721 20.5455 6.17518 20.6498C6.24316 20.7541 6.30506 20.8632 6.35968 20.9748C6.41431 21.0864 6.46164 21.2016 6.50291 21.3192C6.54297 21.4368 6.57696 21.5569 6.60366 21.6782L13.8344 21.7946L13.6281 22.1499C13.5662 22.2579 13.5346 22.3743 13.5346 22.498C13.5346 22.6229 13.5662 22.7393 13.6281 22.8473Z" fill="#00D280"/>
</g>
<path d="M16.1921 40.2893C16.2576 40.396 16.3171 40.5051 16.3693 40.6179C16.4227 40.7307 16.4688 40.8471 16.5065 40.966C16.5453 41.0848 16.5769 41.2049 16.6012 41.3274C16.6254 41.4499 16.6412 41.5736 16.6509 41.6973C16.6594 41.8222 16.6606 41.9471 16.6546 42.072C16.6485 42.1957 16.6351 42.3194 16.6133 42.4431C16.5927 42.5656 16.5635 42.6869 16.5283 42.807C16.4919 42.9258 16.4494 43.0434 16.3984 43.1574C16.3487 43.2714 16.2916 43.383 16.2285 43.4897C16.1642 43.5977 16.095 43.7008 16.0185 43.799C15.942 43.8984 15.8607 43.9918 15.7733 44.0804C15.6859 44.1701 15.5925 44.2526 15.4954 44.3314C15.397 44.409 15.2951 44.4806 15.1895 44.5448C15.0827 44.6103 14.9722 44.6685 14.8593 44.7207C14.7452 44.7728 14.6299 44.8177 14.5109 44.8553C14.392 44.8929 14.2706 44.9244 14.148 44.9475C14.0254 44.9705 13.9016 44.9863 13.7766 44.9936C13.6528 45.0021 13.5277 45.0021 13.4027 44.9948C13.2789 44.9887 13.1551 44.9742 13.0325 44.9511C12.9087 44.9293 12.7885 44.9002 12.6684 44.8638C12.5494 44.8262 12.4329 44.7825 12.3188 44.7316C12.2047 44.6807 12.0942 44.6237 11.9874 44.5582C11.8806 44.4939 11.7786 44.4236 11.6803 44.3472C11.582 44.2695 11.4885 44.1871 11.3999 44.0998C11.3113 44.0112 11.2288 43.9178 11.1523 43.8196C11.0746 43.7214 11.0042 43.6195 10.9399 43.5116C10.8755 43.4048 10.8173 43.2945 10.7663 43.1805C10.7153 43.0677 10.6704 42.9513 10.634 42.8312C10.5976 42.7124 10.5672 42.5911 10.5454 42.4686C10.5235 42.3461 10.5077 42.2224 10.5005 42.0975C10.4944 41.9726 10.4944 41.8477 10.5017 41.724C10.5102 41.599 10.526 41.4753 10.549 41.3529C10.5721 41.2304 10.6024 41.1091 10.6401 40.9902C10.6777 40.8714 10.7214 40.755 10.7736 40.6422C10.8258 40.5282 10.884 40.4178 10.9496 40.3111C11.0139 40.2056 11.0855 40.1037 11.1632 40.0055C11.2409 39.9072 11.3246 39.8151 11.4133 39.7278C11.5019 39.6392 11.5953 39.558 11.6949 39.4816C11.7932 39.4052 11.8964 39.3348 12.0032 39.2718C12.1112 39.2075 12.2217 39.1505 12.3358 39.1008C12.4499 39.0498 12.5676 39.0074 12.6866 38.971C12.8067 38.9346 12.9269 38.9067 13.0507 38.8849C13.1733 38.8631 13.2971 38.8497 13.4221 38.8437C13.5472 38.8376 13.671 38.8388 13.796 38.8473C13.9198 38.8558 14.0436 38.8728 14.1662 38.8958C14.2888 38.9201 14.409 38.9516 14.5279 38.9892C14.6469 39.028 14.7634 39.0741 14.8763 39.1262C14.9892 39.1796 15.0984 39.2378 15.2053 39.3045L20.2305 34.28L20.4988 34.7445C20.5619 34.8525 20.6468 34.9373 20.7537 34.9992C20.8617 35.0623 20.9782 35.0926 21.102 35.0938H21.3921L16.1921 40.2893Z" fill="#00D280"/>
<path d="M45.4408 41.9131C45.4408 42.1145 45.4214 42.3146 45.3813 42.5122C45.3425 42.7111 45.2842 42.9028 45.2065 43.0895C45.1288 43.2763 45.0341 43.4534 44.9225 43.6207C44.8096 43.7893 44.6821 43.9445 44.5401 44.0864C44.3969 44.2295 44.2415 44.3569 44.074 44.4696C43.9053 44.5812 43.7281 44.6758 43.5423 44.7534C43.3554 44.831 43.1636 44.8893 42.9646 44.9281C42.7667 44.9681 42.5664 44.9875 42.3649 44.9875C42.1634 44.9875 41.9632 44.9681 41.7653 44.9281C41.5675 44.8893 41.3745 44.831 41.1875 44.7534C41.0018 44.6758 40.8246 44.5812 40.6559 44.4696C40.4884 44.3569 40.333 44.2295 40.191 44.0864C40.0477 43.9445 39.9203 43.7893 39.8074 43.6207C39.6957 43.4534 39.6011 43.2763 39.5234 43.0895C39.4469 42.9028 39.3886 42.7111 39.3486 42.5122C39.3097 42.3146 39.2891 42.1145 39.2891 41.9131C39.2879 41.3262 39.442 40.7841 39.754 40.2856L34.5552 35.0926H34.8441C34.9679 35.0926 35.0844 35.061 35.1924 34.9992C35.3005 34.9361 35.3854 34.8512 35.4486 34.7433L35.7168 34.2788L40.7384 39.3057C40.9715 39.1602 41.2191 39.0486 41.4813 38.9698C41.7447 38.8897 42.0129 38.8473 42.2873 38.84C42.5616 38.8327 42.831 38.8618 43.0981 38.9273C43.3639 38.9928 43.6176 39.0923 43.8567 39.2245C44.0971 39.3579 44.3143 39.5204 44.511 39.712C44.7076 39.9036 44.8751 40.117 45.0147 40.3535C45.1531 40.59 45.2587 40.8398 45.3303 41.1042C45.4031 41.3698 45.4383 41.6391 45.4383 41.9131H45.4408Z" fill="#00D280"/>
<path d="M29.5932 27.5551L27.9521 29.9128L26.311 27.5551C26.4628 27.2616 26.5926 26.9584 26.7043 26.6479C27.5358 26.8662 28.3685 26.8662 29.2012 26.6479C29.3116 26.9584 29.4427 27.2616 29.5932 27.5551Z" fill="#00D280"/>
<path d="M32.1135 20.7917C31.9981 23.3627 30.1762 25.4147 27.9525 25.4147C25.7287 25.4147 23.9068 23.364 23.7915 20.7929C23.8825 20.6838 23.9347 20.5588 23.9493 20.4182C23.9638 20.2763 23.9371 20.1441 23.8704 20.0192C23.6822 19.1811 23.9942 19.0065 24.2964 18.8379C24.6642 18.656 25.0441 18.6245 25.4362 18.747C26.2604 18.9713 27.0979 19.0841 27.9525 19.0841C28.8058 19.0841 29.6445 18.9713 30.4675 18.747C30.8608 18.6245 31.2407 18.6548 31.6097 18.8379C31.912 19.0065 32.2227 19.1811 32.0346 20.0192C31.9678 20.1441 31.9423 20.2763 31.9569 20.417C31.9714 20.5576 32.0236 20.6825 32.1135 20.7917Z" fill="#00D280"/>
<path d="M32.8418 18.018C32.6743 17.8627 32.4898 17.7306 32.2908 17.6202C31.8683 17.3922 31.418 17.2794 30.9373 17.283C30.6412 17.283 30.3498 17.3267 30.0658 17.4116C29.3739 17.5971 28.6699 17.6905 27.9525 17.6905C27.2364 17.6905 26.5324 17.5971 25.8393 17.4116C25.4703 17.2964 25.0928 17.2576 24.7068 17.2927C24.3208 17.3291 23.9578 17.4371 23.6155 17.6178C23.4152 17.7269 23.2307 17.8591 23.0645 18.0143C23.0899 17.8737 23.1397 17.7415 23.2101 17.6178C23.4152 17.2624 23.5476 16.8816 23.6095 16.4753C23.6386 16.3844 23.851 16.1564 23.9906 16.0048C24.2831 15.6907 24.6461 15.3002 24.8464 14.7896C25.0151 14.581 26.082 14.2014 27.9525 14.2014C29.8243 14.2014 30.89 14.581 31.0599 14.7896C31.2602 15.3002 31.6219 15.6907 31.9157 16.0048C32.0553 16.1564 32.264 16.3844 32.2944 16.4705C32.3563 16.878 32.4898 17.26 32.695 17.6178C32.7666 17.7427 32.8151 17.8761 32.8418 18.018Z" fill="#00D280"/>
</g>
</g>
</g>
<defs>
<clipPath id="clip0_1_2039">
<rect width="56" height="45" fill="white"/>
</clipPath>
<clipPath id="clip1_1_2039">
<rect width="56" height="45" fill="white"/>
</clipPath>
<clipPath id="clip2_1_2039">
<rect width="56" height="45" fill="white"/>
</clipPath>
</defs>
</svg>
