<svg width="214" height="114" viewBox="0 0 214 114" fill="none" xmlns="http://www.w3.org/2000/svg">
<g clip-path="url(#clip0_3_1606)">
<g clip-path="url(#clip1_3_1606)">
<g clip-path="url(#clip2_3_1606)">
<path d="M82.0575 68.227C81.868 68.0102 81.6532 67.7532 81.508 67.5204C81.2054 67.0226 81.508 65.8021 81.508 65.8021C81.508 65.8021 81.8237 65.6174 82.0575 65.3042V68.227ZM127.75 50.4335V50.5217H127.743V49.6786H127.75V50.4335ZM131.254 65.8021C131.254 65.8021 131.563 67.0226 131.254 67.5204C131.116 67.7532 130.901 68.0102 130.711 68.227V65.3042C130.945 65.6174 131.254 65.8021 131.254 65.8021ZM153.058 68.6766C153.058 68.6766 153.058 68.6766 153.064 68.6766H153.058ZM156.854 68.6766C156.854 68.6766 156.854 68.6766 156.86 68.6766H156.854ZM128.71 71.4308H130.307V71.4389H127.743V71.4308H128.71ZM84.0531 71.4308H85.0191V71.4389H82.4557V71.4308H84.0531ZM87.166 48.6027C86.9199 48.2012 87.166 47.2135 87.166 47.2135C87.166 47.2135 87.1851 47.1975 87.2226 47.1734C87.1974 47.6472 87.1851 48.1289 87.1721 48.6187C87.1721 48.6107 87.1721 48.6027 87.166 48.6027ZM125.597 47.2135C125.597 47.2135 125.849 48.2012 125.597 48.6027C125.597 48.6027 125.597 48.6107 125.59 48.6187C125.584 48.1289 125.565 47.6472 125.546 47.1734C125.578 47.1975 125.597 47.2135 125.597 47.2135ZM2.21009 35.8757C2.21009 33.4829 3.68138 33.4829 3.68138 35.8757V41.2396H2.21009V35.8757ZM8.65095 41.2396V35.8757C8.65095 33.4829 10.1285 33.4829 10.1285 35.8757V41.2396H8.65095ZM5.03269 35.8757C5.03269 33.4829 7.29962 33.4829 7.29962 35.8757V41.2396H5.03269V35.8757ZM31.3896 55.8052C31.3896 54.0226 32.4883 54.0226 32.4883 55.8052V59.8281H31.3896V55.8052ZM36.195 59.8281V55.8052C36.195 54.0226 37.2937 54.0226 37.2937 55.8052V59.8281H36.195ZM33.4986 55.8052C33.4986 54.0226 35.1847 54.0226 35.1847 55.8052V59.8281H33.4986V55.8052ZM175.469 55.8052C175.469 54.0226 176.574 54.0226 176.574 55.8052V59.8281H175.469V55.8052ZM180.274 59.8281V55.8052C180.274 54.0226 181.373 54.0226 181.373 55.8052V59.8281H180.274ZM177.584 55.8052C177.584 54.0226 179.27 54.0226 179.27 55.8052V59.8281H177.584V55.8052ZM202.64 35.8757C202.64 33.4829 204.112 33.4829 204.112 35.8757V41.2396H202.64V35.8757ZM209.081 41.2396V35.8757C209.081 33.4829 210.558 33.4829 210.558 35.8757V41.2396H209.081ZM205.463 35.8757C205.463 33.4829 207.73 33.4829 207.73 35.8757V41.2396H205.463V35.8757ZM210.729 56.1344V49.8151H210.818V49.2129L212.763 42.5644H212.182V41.2396H211.095V32.5274H212.264V31.6442H212.422V31.3632H210.609C210.609 27.9104 209.245 26.73 208.551 26.1198C207.85 25.5096 207.048 24.3051 207.048 24.3051H207.041V23.9117H206.726V20.7319H206.473V23.9117H206.158V24.3051H206.145C206.145 24.3051 205.343 25.5096 204.648 26.1198C203.947 26.73 202.59 27.9104 202.59 31.3632H200.771V31.6442H200.935V32.5274H202.103V41.2396H201.017V42.5644H200.436L202.381 49.2129V49.8151H202.463V56.3352H202.299V57.2104H202.293V68.5803C202.11 68.3796 201.68 67.9059 201.44 67.5204C201.131 67.0226 201.44 65.8021 201.44 65.8021C201.44 65.8021 202.217 65.3363 202.217 64.6538C202.217 63.9633 201.82 63.7465 201.82 63.7465C201.82 63.7465 201.845 62.9677 201.44 62.9034C201.32 62.3734 201.181 62.0041 200.494 62.0041C199.805 62.0041 199.66 62.3734 199.546 62.9034C199.142 62.9677 199.161 63.7465 199.161 63.7465C199.161 63.7465 198.757 63.9633 198.757 64.6538C198.757 65.3363 199.546 65.8021 199.546 65.8021C199.546 65.8021 199.849 67.0226 199.546 67.5204C199.236 68.0182 198.593 68.6766 198.593 68.6766C198.593 68.6766 197.955 68.0182 197.645 67.5204C197.336 67.0226 197.645 65.8021 197.645 65.8021C197.645 65.8021 198.428 65.3363 198.428 64.6538C198.428 63.9633 198.024 63.7465 198.024 63.7465C198.024 63.7465 198.049 62.9677 197.645 62.9034C197.525 62.3734 197.387 62.0041 196.698 62.0041C196.01 62.0041 195.864 62.3734 195.751 62.9034C195.347 62.9677 195.366 63.7465 195.366 63.7465C195.366 63.7465 194.968 63.9633 194.968 64.6538C194.968 65.3363 195.751 65.8021 195.751 65.8021C195.751 65.8021 196.054 67.0226 195.751 67.5204C195.442 68.0182 194.797 68.6766 194.797 68.6766C194.797 68.6766 194.16 68.0182 193.85 67.5204C193.547 67.0226 193.85 65.8021 193.85 65.8021C193.85 65.8021 194.633 65.3363 194.633 64.6538C194.633 63.9633 194.229 63.7465 194.229 63.7465C194.229 63.7465 194.255 62.9677 193.85 62.9034C193.73 62.3734 193.591 62.0041 192.903 62.0041C192.215 62.0041 192.076 62.3734 191.956 62.9034C191.552 62.9677 191.571 63.7465 191.571 63.7465C191.571 63.7465 191.173 63.9633 191.173 64.6538C191.173 65.3363 191.956 65.8021 191.956 65.8021C191.956 65.8021 192.259 67.0226 191.956 67.5204C191.646 68.0182 191.003 68.6766 191.003 68.6766C191.003 68.6766 190.364 68.0182 190.055 67.5204C189.752 67.0226 190.055 65.8021 190.055 65.8021C190.055 65.8021 190.838 65.3363 190.838 64.6538C190.838 63.9633 190.434 63.7465 190.434 63.7465C190.434 63.7465 190.459 62.9677 190.055 62.9034C189.935 62.3734 189.797 62.0041 189.108 62.0041C188.42 62.0041 188.281 62.3734 188.161 62.9034C187.757 62.9677 187.776 63.7465 187.776 63.7465C187.776 63.7465 187.378 63.9633 187.378 64.6538C187.378 65.3363 188.161 65.8021 188.161 65.8021C188.161 65.8021 188.464 67.0226 188.161 67.5204C187.852 68.0182 187.207 68.6766 187.207 68.6766C187.207 68.6766 186.576 68.0182 186.26 67.5204C185.957 67.0226 186.26 65.8021 186.26 65.8021C186.26 65.8021 187.043 65.3363 187.043 64.6538C187.043 63.9633 186.639 63.7465 186.639 63.7465C186.639 63.7465 186.665 62.9677 186.26 62.9034C186.14 62.3734 186.001 62.0041 185.313 62.0041C184.625 62.0041 184.486 62.3734 184.366 62.9034C183.962 62.9677 183.987 63.7465 183.987 63.7465C183.987 63.7465 183.583 63.9633 183.583 64.6538C183.583 65.3363 184.366 65.8021 184.366 65.8021C184.366 65.8021 184.669 67.0226 184.366 67.5204C184.057 68.0182 183.413 68.6766 183.413 68.6766C183.413 68.6766 182.781 68.0182 182.465 67.5204C182.408 67.4241 182.371 67.2956 182.352 67.1591V66.4926C182.389 66.1232 182.465 65.8021 182.465 65.8021C182.465 65.8021 183.248 65.3363 183.248 64.6538C183.248 63.9633 182.844 63.7465 182.844 63.7465C182.844 63.7465 182.869 62.9677 182.465 62.9034C182.433 62.7589 182.396 62.6224 182.352 62.5099V61.2573L182.585 60.8237V59.8281H181.777V53.292H182.648V52.6335H182.768V52.4247H181.411C181.411 49.8392 180.4 48.9559 179.876 48.4983C179.352 48.0406 178.759 47.1413 178.759 47.1413V46.8763H178.512V43.6484H178.335V46.8763H178.089V47.1413C178.089 47.1413 177.489 48.0406 176.965 48.4983C176.448 48.9559 175.431 49.8392 175.431 52.4247H174.08V52.6335H174.199V53.292H175.077V59.8281H174.256V60.8237L174.49 61.2573H174.496V62.1406C174.363 62.0523 174.187 62.0041 173.934 62.0041C173.246 62.0041 173.101 62.3734 172.987 62.9034C172.583 62.9677 172.602 63.7465 172.602 63.7465C172.602 63.7465 172.197 63.9633 172.197 64.6538C172.197 65.3363 172.987 65.8021 172.987 65.8021C172.987 65.8021 173.29 67.0226 172.987 67.5204C172.671 68.0182 172.034 68.6766 172.034 68.6766C172.034 68.6766 171.396 68.0182 171.086 67.5204C170.777 67.0226 171.086 65.8021 171.086 65.8021C171.086 65.8021 171.87 65.3363 171.87 64.6538C171.87 63.9633 171.465 63.7465 171.465 63.7465C171.465 63.7465 171.49 62.9677 171.086 62.9034C170.966 62.3734 170.828 62.0041 170.139 62.0041C170.108 62.0041 170.095 62.0041 170.064 62.0041C168.573 53.3643 164.292 49.8793 161.873 47.8961C158.912 45.4711 155.508 40.7257 155.508 40.7257H155.521V40.284H154.1V39.8424H154.46V39.4008H154.1V39.0153C154.675 38.7504 155.092 38.0598 155.092 37.2328C155.092 36.3254 154.58 35.5626 153.904 35.386V35.2414H154.113V34.9765H153.904V34.7516C154.245 34.591 154.492 34.1815 154.492 33.6917C154.492 33.1136 154.151 32.6398 153.715 32.5756V25.9271H153.501V32.5756C153.064 32.6398 152.723 33.1136 152.723 33.6917C152.723 34.1815 152.97 34.591 153.311 34.7516V34.9765H153.102V35.2414H153.311V35.386C152.636 35.5626 152.123 36.3254 152.123 37.2328C152.123 38.0598 152.541 38.7504 153.109 39.0153V39.4008H152.762V39.8424H153.109V40.284H151.688V40.7257H151.707C151.707 40.7257 148.304 45.4711 145.342 47.8961C142.841 49.9436 138.339 53.6051 137.001 62.9275C136.981 62.9194 136.969 62.9034 136.95 62.9034C136.83 62.3734 136.685 62.0041 135.996 62.0041C135.308 62.0041 135.169 62.3734 135.049 62.9034C134.645 62.9677 134.67 63.7465 134.67 63.7465C134.67 63.7465 134.266 63.9633 134.266 64.6538C134.266 65.3363 135.049 65.8021 135.049 65.8021C135.049 65.8021 135.359 67.0226 135.049 67.5204C134.74 68.0182 134.102 68.6766 134.102 68.6766C134.102 68.6766 133.458 68.0182 133.155 67.5204C132.839 67.0226 133.155 65.8021 133.155 65.8021C133.155 65.8021 133.938 65.3363 133.938 64.6538C133.938 63.9633 133.534 63.7465 133.534 63.7465C133.534 63.7465 133.553 62.9677 133.155 62.9034C133.035 62.3734 132.889 62.0041 132.202 62.0041C131.513 62.0041 131.374 62.3734 131.254 62.9034C130.85 62.9677 130.876 63.7465 130.876 63.7465C130.876 63.7465 130.8 63.7867 130.711 63.8991V49.5421H130.553V49.2049H127.908V49.5421C127.908 49.5421 127.384 49.0122 127.137 48.6027C126.884 48.2012 127.137 47.2135 127.137 47.2135C127.137 47.2135 127.769 46.8362 127.769 46.2821C127.769 45.72 127.446 45.5514 127.446 45.5514C127.446 45.5514 127.465 44.9171 127.137 44.8609C127.043 44.4353 126.923 44.1302 126.367 44.1302C125.811 44.1302 125.697 44.4353 125.597 44.8609C125.508 44.8769 125.445 44.9411 125.394 45.0215C124.271 33.0012 118.733 28.4885 115.733 26.0315C112.38 23.2934 108.535 17.9216 108.535 17.9216H108.547V17.4157H106.943V16.9178H107.347V16.42H106.943V15.9944C107.594 15.7054 108.061 14.9104 108.061 13.979C108.061 12.9432 107.48 12.076 106.716 11.8752V11.7147H106.956V11.4176H106.716V11.1606C107.101 10.984 107.379 10.5263 107.379 9.96422C107.379 9.31381 106.994 8.77583 106.501 8.70361V1.17984H106.261V8.70361C105.769 8.77583 105.384 9.31381 105.384 9.96422C105.384 10.5263 105.661 10.984 106.046 11.1606V11.4176H105.806V11.7147H106.046V11.8752C105.283 12.076 104.702 12.9432 104.702 13.979C104.702 14.9104 105.175 15.7054 105.825 15.9944V16.42H105.422V16.9178H105.825V17.4157H104.215V17.9216H104.234C104.234 17.9216 100.382 23.2934 97.0291 26.0315C94.0362 28.4885 88.4921 33.0012 87.3678 45.0215C87.3174 44.9411 87.2608 44.8769 87.166 44.8609C87.0713 44.4353 86.9513 44.1302 86.3956 44.1302C85.84 44.1302 85.7261 44.4353 85.6313 44.8609C85.2966 44.9171 85.3157 45.5514 85.3157 45.5514C85.3157 45.5514 84.9939 45.72 84.9939 46.2821C84.9939 46.8362 85.6313 47.2135 85.6313 47.2135C85.6313 47.2135 85.8782 48.2012 85.6313 48.6027C85.3791 49.0122 84.8609 49.5421 84.8609 49.5421V49.2049H82.2089V49.5421H82.0575V63.8991C81.9689 63.7867 81.8871 63.7465 81.8871 63.7465C81.8871 63.7465 81.9123 62.9677 81.508 62.9034C81.388 62.3734 81.2489 62.0041 80.5611 62.0041C79.8724 62.0041 79.7341 62.3734 79.6141 62.9034C79.2098 62.9677 79.235 63.7465 79.235 63.7465C79.235 63.7465 78.8307 63.9633 78.8307 64.6538C78.8307 65.3363 79.6141 65.8021 79.6141 65.8021C79.6141 65.8021 79.9229 67.0226 79.6141 67.5204C79.3046 68.0182 78.6603 68.6766 78.6603 68.6766C78.6603 68.6766 78.029 68.0182 77.7133 67.5204C77.4099 67.0226 77.7133 65.8021 77.7133 65.8021C77.7133 65.8021 78.496 65.3363 78.496 64.6538C78.496 63.9633 78.0917 63.7465 78.0917 63.7465C78.0917 63.7465 78.1176 62.9677 77.7133 62.9034C77.5933 62.3734 77.4604 62.0041 76.7656 62.0041C76.0777 62.0041 75.9387 62.3734 75.8188 62.9034C75.7999 62.9034 75.7809 62.9194 75.762 62.9275C74.4232 53.6051 69.921 49.9436 67.4204 47.8961C64.4589 45.4711 61.0617 40.7257 61.0617 40.7257H61.0743V40.284H59.6536V39.8424H60.0071V39.4008H59.6536V39.0153C60.2282 38.7504 60.6386 38.0598 60.6386 37.2328C60.6386 36.3254 60.1271 35.5626 59.4515 35.386V35.2414H59.6662V34.9765H59.4515V34.7516C59.7924 34.591 60.0387 34.1815 60.0387 33.6917C60.0387 33.1136 59.6977 32.6398 59.262 32.5756V25.9271H59.0537V32.5756C58.6116 32.6398 58.2707 33.1136 58.2707 33.6917C58.2707 34.1815 58.5232 34.591 58.8642 34.7516V34.9765H58.6558V35.2414H58.8642V35.386C58.1886 35.5626 57.6771 36.3254 57.6771 37.2328C57.6771 38.0598 58.0876 38.7504 58.6621 39.0153V39.4008H58.3085V39.8424H58.6621V40.284H57.2414V40.7257H57.254C57.254 40.7257 53.8568 45.4711 50.8952 47.8961C48.4768 49.8793 44.1955 53.3643 42.699 62.0041C42.6737 62.0041 42.6548 62.0041 42.6232 62.0041C41.9412 62.0041 41.796 62.3734 41.676 62.9034C41.2719 62.9677 41.3035 63.7465 41.3035 63.7465C41.3035 63.7465 40.8993 63.9633 40.8993 64.6538C40.8993 65.3363 41.676 65.8021 41.676 65.8021C41.676 65.8021 41.9918 67.0226 41.676 67.5204C41.3729 68.0182 40.7289 68.6766 40.7289 68.6766C40.7289 68.6766 40.0911 68.0182 39.7817 67.5204C39.4722 67.0226 39.7817 65.8021 39.7817 65.8021C39.7817 65.8021 40.5646 65.3363 40.5646 64.6538C40.5646 63.9633 40.1605 63.7465 40.1605 63.7465C40.1605 63.7465 40.1858 62.9677 39.7817 62.9034C39.6617 62.3734 39.5227 62.0041 38.8282 62.0041C38.5819 62.0041 38.3988 62.0523 38.2662 62.1406V61.2573H38.2724L38.5061 60.8237V59.8281H37.6915V53.292H38.563V52.6335H38.6829V52.4247H37.3316C37.3316 49.8392 36.3213 48.9559 35.7972 48.4983C35.2731 48.0406 34.6732 47.1413 34.6732 47.1413V46.8763H34.4332V43.6484H34.2501V46.8763H34.0102V47.1413H34.0038C34.0038 47.1413 33.4103 48.0406 32.8861 48.4983C32.3621 48.9559 31.3518 49.8392 31.3518 52.4247H30.0004V52.6335H30.1204V53.292H30.9918V59.8281H30.1772V60.8237L30.4109 61.2573V62.5019C30.3667 62.6224 30.3288 62.7589 30.2972 62.9034C29.8931 62.9677 29.9183 63.7465 29.9183 63.7465C29.9183 63.7465 29.5142 63.9633 29.5142 64.6538C29.5142 65.3363 30.2972 65.8021 30.2972 65.8021C30.2972 65.8021 30.3729 66.1232 30.4109 66.5006V67.1511C30.3919 67.2956 30.3541 67.4241 30.2972 67.5204C29.9878 68.0182 29.35 68.6766 29.35 68.6766C29.35 68.6766 28.706 68.0182 28.4028 67.5204C28.0935 67.0226 28.4028 65.8021 28.4028 65.8021C28.4028 65.8021 29.1859 65.3363 29.1859 64.6538C29.1859 63.9633 28.7817 63.7465 28.7817 63.7465C28.7817 63.7465 28.8007 62.9677 28.4028 62.9034C28.2829 62.3734 28.1376 62.0041 27.4493 62.0041C26.7611 62.0041 26.6221 62.3734 26.5021 62.9034C26.098 62.9677 26.1233 63.7465 26.1233 63.7465C26.1233 63.7465 25.7191 63.9633 25.7191 64.6538C25.7191 65.3363 26.5021 65.8021 26.5021 65.8021C26.5021 65.8021 26.8116 67.0226 26.5021 67.5204C26.1928 68.0182 25.555 68.6766 25.555 68.6766C25.555 68.6766 24.9109 68.0182 24.6078 67.5204C24.2984 67.0226 24.6078 65.8021 24.6078 65.8021C24.6078 65.8021 25.3908 65.3363 25.3908 64.6538C25.3908 63.9633 24.9866 63.7465 24.9866 63.7465C24.9866 63.7465 25.0056 62.9677 24.6078 62.9034C24.4878 62.3734 24.3426 62.0041 23.6543 62.0041C22.966 62.0041 22.8271 62.3734 22.7071 62.9034C22.303 62.9677 22.3282 63.7465 22.3282 63.7465C22.3282 63.7465 21.9304 63.9633 21.9304 64.6538C21.9304 65.3363 22.7071 65.8021 22.7071 65.8021C22.7071 65.8021 23.0165 67.0226 22.7071 67.5204C22.3977 68.0182 21.7599 68.6766 21.7599 68.6766C21.7599 68.6766 21.1158 68.0182 20.8127 67.5204C20.5033 67.0226 20.8127 65.8021 20.8127 65.8021C20.8127 65.8021 21.5957 65.3363 21.5957 64.6538C21.5957 63.9633 21.1917 63.7465 21.1917 63.7465C21.1917 63.7465 21.2105 62.9677 20.8127 62.9034C20.6928 62.3734 20.5475 62.0041 19.8593 62.0041C19.171 62.0041 19.032 62.3734 18.9121 62.9034C18.5079 62.9677 18.5395 63.7465 18.5395 63.7465C18.5395 63.7465 18.1354 63.9633 18.1354 64.6538C18.1354 65.3363 18.9121 65.8021 18.9121 65.8021C18.9121 65.8021 19.2215 67.0226 18.9121 67.5204C18.6026 68.0182 17.9649 68.6766 17.9649 68.6766C17.9649 68.6766 17.3271 68.0182 17.0177 67.5204C16.7083 67.0226 17.0177 65.8021 17.0177 65.8021C17.0177 65.8021 17.8007 65.3363 17.8007 64.6538C17.8007 63.9633 17.3966 63.7465 17.3966 63.7465C17.3966 63.7465 17.4155 62.9677 17.0177 62.9034C16.8977 62.3734 16.7525 62.0041 16.0642 62.0041C15.3822 62.0041 15.237 62.3734 15.117 62.9034C14.7129 62.9677 14.7444 63.7465 14.7444 63.7465C14.7444 63.7465 14.3404 63.9633 14.3404 64.6538C14.3404 65.3363 15.117 65.8021 15.117 65.8021C15.117 65.8021 15.4264 67.0226 15.117 67.5204C14.8139 68.0182 14.1699 68.6766 14.1699 68.6766C14.1699 68.6766 13.5321 68.0182 13.2227 67.5204C12.9132 67.0226 13.2227 65.8021 13.2227 65.8021C13.2227 65.8021 14.0057 65.3363 14.0057 64.6538C14.0057 63.9633 13.6015 63.7465 13.6015 63.7465C13.6015 63.7465 13.6268 62.9677 13.2227 62.9034C13.109 62.3734 12.9637 62.0041 12.2755 62.0041C11.5872 62.0041 11.442 62.3734 11.3283 62.9034C10.9242 62.9677 10.9495 63.7465 10.9495 63.7465C10.9495 63.7465 10.5453 63.9633 10.5453 64.6538C10.5453 65.3363 11.3283 65.8021 11.3283 65.8021C11.3283 65.8021 11.6377 67.0226 11.3283 67.5204C11.0883 67.9059 10.659 68.3796 10.4695 68.5803V56.3352H10.2991V49.8151H10.3811V49.2129L12.326 42.5644H11.7514V41.2396H10.659V32.5274H11.8272V31.6442H11.9913V31.3632H10.1791C10.1791 27.9104 8.81512 26.73 8.11419 26.1198C7.41959 25.5096 6.61764 24.3051 6.61764 24.3051H6.60502V23.9117H6.2956V20.7319H6.03671V23.9117H5.72098V24.3051C5.72098 24.3051 4.91272 25.5096 4.2118 26.1198C3.51089 26.73 2.15957 27.9104 2.15957 31.3632H0.340985V31.6442H0.505164V32.5274H1.67336V41.2396H0.580938V42.5644H0L1.94488 49.2129V49.8151H2.03328V56.3352H1.86279V76.7705H1.67336V79.4039H1.86279V108.672H1.67336V112.614H34.4143H58.4348H154.328V77.228H154.334V112.614H178.348H211.089V108.672H210.899V79.4039H211.089V76.7705H210.899V56.3352H210.729V56.1344Z" fill="#023047"/>
<path d="M130.459 37.7305V35.0647C130.459 33.8843 131.185 33.8843 131.185 35.0647V37.7305H130.459ZM127.27 35.0647C127.27 33.8843 128.003 33.8843 128.003 35.0647V37.7305H127.27V35.0647ZM129.79 37.7305H128.672V35.0647C128.672 33.8843 129.79 33.8843 129.79 35.0647V37.7305ZM126.437 33.4026H127.011V37.7305H126.469V38.3889L127.977 41.2394V41.5526H127.826V42.2351H127.908V49.2048H130.554V42.2351H130.629V41.5526H130.478V41.2394L131.988 38.3889V37.7305H131.45V33.4026H132.032V32.9689H132.108V32.8324H131.217C131.217 31.1141 130.542 30.536 130.194 30.2309C129.847 29.9258 129.449 29.3315 129.449 29.3315V29.1308H129.291V27.549H129.165V29.1308H129.007V29.3315C129.007 29.3315 128.609 29.9258 128.268 30.2309C127.921 30.536 127.251 31.1141 127.251 32.8324H126.349V32.9689H126.437V33.4026Z" fill="#023047"/>
<path d="M84.7601 37.7305V35.0647C84.7601 33.8843 85.4931 33.8843 85.4931 35.0647V37.7305H84.7601ZM81.5776 35.0647C81.5776 33.8843 82.3037 33.8843 82.3037 35.0647V37.7305H81.5776V35.0647ZM84.0975 37.7305H82.9732V35.0647C82.9732 33.8843 84.0975 33.8843 84.0975 35.0647V37.7305ZM80.7377 33.4026H81.3185V37.7305H80.7759V38.3889L82.2853 41.2394V41.5526H82.1332V42.2351H82.2089V49.2048H84.861V42.2351H84.9374V41.5526H84.7922V41.2394L86.2948 38.3889V37.7305H85.7514V33.4026H86.333V32.9689H86.4148V32.8324H85.5183C85.5183 31.1141 84.8488 30.536 84.5018 30.2309C84.154 29.9258 83.7566 29.3315 83.7566 29.3315V29.1308H83.5984V27.549H83.4723V29.1308H83.3141V29.3315C83.3141 29.3315 82.9166 29.9258 82.5758 30.2309C82.2219 30.536 81.5524 31.1141 81.5524 32.8324H80.6559V32.9689H80.7377V33.4026Z" fill="#023047"/>
<path d="M98.0655 90.2438L98.4186 94.0744L98.3054 94.082L97.2568 90.5327L98.0655 90.2438ZM99.7576 90.2117L99.4037 94.0744H98.5133L98.1663 90.2277L99.7576 90.2117ZM100.66 90.5327L99.6063 94.0744H99.4924L99.8646 90.2277L100.66 90.5327ZM99.6567 88.9911C99.6567 88.9911 99.4037 88.7183 99.0567 88.6778C99.0567 88.5738 99.0437 88.2765 99.0437 88.1565C99.0437 88.0273 99.0758 88.0273 99.1385 87.9555C99.0063 87.9555 98.9559 87.6422 98.9559 87.6422C98.9559 87.6422 98.9054 87.9555 98.7854 87.9555C98.842 88.0273 98.8733 88.0273 98.8733 88.1565C98.8733 88.2765 98.8672 88.5738 98.8611 88.6778C98.5133 88.7267 98.255 88.9911 98.255 88.9911L97.1307 90.5166L98.242 94.1546H98.1916V94.3793H98.6333V108.134C98.6211 108.15 98.6081 108.158 98.602 108.174H98.1725V108.302H98.0211V108.431H97.8064V108.575H98.362C97.8186 109.844 98.1786 112.173 98.1786 112.173H98.1725V112.301H98.0211V112.438H97.8064V112.574H100.105V112.438H99.8898V112.301H99.7385V112.173H99.7446C99.7446 112.173 100.092 109.844 99.5558 108.575H100.105V108.431H99.8898V108.302H99.7385V108.174H99.309C99.3028 108.158 99.2906 108.15 99.2906 108.142V94.3793H99.7263V94.1546H99.6758L100.787 90.525L99.6567 88.9911Z" fill="#023047"/>
<path d="M92.8554 110.816L92.6345 110.704L92.672 109.603C92.9059 109.676 92.8554 110.816 92.8554 110.816ZM92.5145 110.704H92.3189C92.3884 110.623 92.4389 110.526 92.4893 110.422H92.5207L92.5145 110.704ZM90.4372 110.422H90.5442C90.5442 110.526 90.5503 110.623 90.5503 110.704H90.4372C90.4433 110.663 90.4495 110.615 90.4495 110.567C90.4495 110.51 90.4433 110.471 90.4372 110.422ZM87.1347 110.704C87.1347 110.663 87.147 110.559 87.1661 110.422H87.3365C87.3365 110.471 87.3304 110.51 87.3304 110.567C87.3304 110.615 87.3365 110.663 87.3365 110.704H87.1347ZM76.9682 109.106C76.9934 109.081 77.0057 109.057 77.0309 109.041V109.194C77.0125 109.161 76.9934 109.129 76.9682 109.106ZM77.0309 112.189H76.7214C76.8413 112.101 76.943 112.005 77.0309 111.875V112.189ZM90.3486 109.86H90.4808C90.4999 109.997 90.519 110.134 90.532 110.254H90.4303C90.412 110.125 90.3799 109.989 90.3486 109.86ZM87.2861 109.86H87.4374C87.3931 109.989 87.3678 110.125 87.3556 110.254H87.1913C87.2165 110.141 87.2479 110.005 87.2861 109.86ZM87.6331 109.113C87.7026 109.106 87.7722 109.106 87.8417 109.097C87.6965 109.258 87.5826 109.467 87.4947 109.692H87.3426C87.4122 109.491 87.507 109.298 87.6331 109.113ZM89.8625 109.017C89.9634 109.017 90.0642 109.025 90.1651 109.033C90.2981 109.234 90.3868 109.467 90.4433 109.699H90.292C90.1904 109.427 90.0451 109.202 89.8625 109.017ZM92.5337 109.395C92.5207 109.355 92.5016 109.323 92.4832 109.282C92.5207 109.291 92.5398 109.298 92.5398 109.298L92.5337 109.395ZM92.6972 109.314C92.7041 108.873 92.6972 108.792 92.6972 108.792L92.565 108.785C92.565 108.785 92.3693 108.712 92.0155 108.624C91.9528 108.487 91.8832 108.383 91.8641 108.295C91.8259 108.118 91.5042 107.812 90.2347 107.468C88.9721 107.114 86.6296 106.994 86.3322 106.905C86.0357 106.809 86.0991 106.849 85.2966 106.191C85.0314 105.982 84.7914 105.749 84.5262 105.517C84.5767 105.452 84.6279 105.388 84.6783 105.316C84.8488 105.38 85.0253 105.412 85.2087 105.412C86.4209 105.412 87.4 104.168 87.4 102.618C87.4 102.465 87.3808 102.32 87.3617 102.176C88.1512 101.75 88.7069 100.755 88.7069 99.5903C88.7069 98.3376 88.0565 97.2859 87.1722 96.9328C87.2417 95.6076 86.5722 94.4191 85.6001 94.05C85.4671 92.7973 84.6783 91.7777 83.6488 91.657C83.2506 91.6012 82.8654 91.7135 82.5246 91.9061C82.2028 91.5607 81.7863 91.336 81.3376 91.2802C80.5481 91.1831 79.8159 91.6409 79.3803 92.396C79.109 92.1874 78.7994 92.0429 78.4647 92.0024C77.2586 91.8496 76.1913 92.9822 76.0713 94.5154C76.0713 94.572 76.0777 94.6201 76.0713 94.6767C75.9829 94.9656 75.9261 95.2866 75.9198 95.616C75.2504 96.0256 74.7642 96.8442 74.6884 97.8561C74.6569 98.2573 74.7011 98.651 74.7958 99.0125C74.7895 99.0767 74.7832 99.1409 74.7832 99.2211C74.7832 99.831 74.941 100.401 75.2126 100.859C75.1621 100.955 75.1052 101.044 75.0673 101.14C74.7389 101.196 74.4485 101.413 74.2591 101.742C74.1075 101.63 73.9433 101.55 73.7539 101.525C73.0908 101.445 72.5036 102.063 72.4404 102.915C72.4404 102.947 72.4404 102.971 72.4404 103.003C72.3899 103.163 72.3583 103.341 72.3583 103.517C72.0742 103.685 71.8532 103.999 71.7396 104.384L71.0639 104.834V105.805H71.7585C71.7901 106.03 71.8595 106.231 71.9605 106.415C71.9416 106.447 71.9227 106.488 71.9038 106.528C71.4933 106.552 71.1586 106.593 71.026 106.632C70.8808 106.729 70.7102 106.978 70.7166 107.379C70.7229 107.436 70.7229 107.5 70.7229 107.556C70.7229 107.885 70.7229 108.415 70.6724 108.463C70.6219 108.495 70.2619 108.503 70.2241 109.106C70.1736 109.699 69.8894 110.374 71.5753 110.567C73.2614 110.752 74.0318 110.864 74.0318 110.864C74.0318 110.864 74.0507 110.205 74.3349 109.563C74.398 109.628 74.4737 109.676 74.5496 109.708C74.4611 109.965 74.4043 110.238 74.4043 110.535C74.4043 111.418 74.8716 112.157 75.503 112.397C75.4841 112.655 75.4652 112.832 75.4399 112.871C75.7872 112.871 76.2039 112.871 76.2039 112.871C76.2039 112.871 76.1787 112.719 76.1471 112.486H78.0795V112.189H77.183V111.651C77.3534 111.33 77.4604 110.944 77.4604 110.535C77.4604 110.118 77.3534 109.732 77.183 109.419V108.865C77.1891 108.873 77.2013 108.873 77.2082 108.873C77.8961 109.732 77.6813 111.314 77.6813 111.314L81.6663 111.282C81.6219 111.989 81.5776 112.502 81.5211 112.575C82.1394 112.575 82.9098 112.575 82.9098 112.575C82.9098 112.575 82.815 112.053 82.7271 111.274L86.0357 111.242C86.0548 112.197 86.0923 113.289 86.0923 113.289H86.2627L86.2 111.306H86.3575L86.3957 112.871H86.5348L86.5096 111.314H87.4435C87.6713 112.044 88.233 112.559 88.8895 112.559C89.5468 112.559 90.1086 112.037 90.3356 111.298L91.0372 111.29L92.4763 111.274L92.4259 112.799H92.5772L92.6215 111.282H92.8424L92.7668 113.241L92.9502 113.257L93.0068 111.29C93.0068 111.29 93.1336 109.443 92.6972 109.314Z" fill="#023047"/>
<path d="M193.863 106.962C194.077 106.938 194.292 106.857 194.482 106.745C194.532 106.849 194.576 106.946 194.608 107.05C194.317 107.01 194.065 106.986 193.863 106.962ZM200.171 96.7563C200.247 95.4149 199.571 94.2104 198.593 93.8497C198.454 92.5726 197.658 91.5446 196.616 91.4246C196.212 91.368 195.821 91.4728 195.48 91.6814C195.151 91.3283 194.735 91.0952 194.274 91.0394C193.478 90.9347 192.739 91.4086 192.29 92.1629C192.019 91.9543 191.704 91.8098 191.369 91.7701C190.15 91.6256 189.071 92.7575 188.951 94.3075C188.951 94.3633 188.957 94.4198 188.951 94.4756C188.862 94.7645 188.805 95.0863 188.798 95.4233C188.123 95.8406 187.625 96.6676 187.548 97.6879C187.523 98.0968 187.561 98.4904 187.662 98.8596C187.656 98.9245 187.643 98.9964 187.643 99.069C187.643 99.6873 187.807 100.257 188.079 100.723C187.852 101.117 187.706 101.59 187.662 102.104C187.662 102.112 187.662 102.128 187.662 102.128L186.444 102.883H186.942L186.772 102.987H186.557L184.259 104.497C183.185 104.665 182.251 105.083 181.278 106.456C181.278 106.456 180.678 106.464 179.996 106.48C180.249 106.119 180.407 105.637 180.407 105.115C180.407 105.003 180.388 104.89 180.375 104.777C180.968 104.465 181.386 103.718 181.386 102.842C181.386 101.911 180.9 101.124 180.23 100.859C180.287 99.8638 179.788 98.9727 179.061 98.6991C178.961 97.7598 178.367 96.997 177.597 96.9084C177.3 96.8686 177.009 96.9412 176.757 97.0933C176.51 96.8365 176.202 96.66 175.86 96.6195C175.273 96.5476 174.723 96.8847 174.396 97.4548C174.193 97.302 173.966 97.1896 173.707 97.1659C172.81 97.0536 172.009 97.8966 171.92 99.0445C171.92 99.085 171.926 99.1248 171.92 99.1653C171.85 99.3816 171.813 99.6231 171.813 99.8715C171.308 100.176 170.941 100.787 170.884 101.55C170.859 101.847 170.89 102.144 170.96 102.409C170.96 102.465 170.954 102.521 170.954 102.569C170.954 103.036 171.074 103.453 171.276 103.798C171.111 104.095 170.998 104.433 170.966 104.818C170.923 105.404 171.074 105.958 171.345 106.376C171.541 107.259 172.166 107.909 172.917 107.909C173.316 107.909 173.669 107.725 173.947 107.436C173.978 107.468 174.01 107.5 174.042 107.532C174.338 108.07 174.824 108.431 175.374 108.431C175.608 108.431 175.822 108.367 176.018 108.263C176.214 108.632 176.239 109.057 176.233 109.298C176.144 110.599 176.1 112.446 175.999 112.575C176.467 112.575 177.041 112.575 177.041 112.575C177.041 112.575 176.504 109.403 176.858 107.797C176.953 107.829 177.048 107.837 177.155 107.837C177.395 107.837 177.622 107.773 177.83 107.653C177.83 107.981 177.824 108.423 177.78 108.464C177.729 108.496 177.369 108.503 177.332 109.106C177.281 109.7 176.997 110.374 178.683 110.567C180.375 110.752 181.14 110.864 181.14 110.864C181.14 110.864 181.227 108.303 183.204 108.351C185.186 108.399 184.789 111.314 184.789 111.314L188.18 111.29V112.221H187.365V112.486H189.133V112.221H188.312V111.29L193.945 111.233L194.242 110.896V110.752C194.242 110.752 194.261 109.836 194.716 109.146C194.709 109.25 194.703 109.355 194.696 109.459C194.532 109.772 194.437 110.157 194.437 110.567C194.437 110.88 194.495 111.162 194.596 111.426C194.557 112.053 194.513 112.502 194.463 112.575C195.088 112.575 195.865 112.575 195.865 112.575C195.865 112.575 195.858 112.566 195.852 112.543C195.903 112.55 195.953 112.559 195.997 112.559C196.856 112.559 197.557 111.667 197.557 110.567C197.557 109.467 196.856 108.568 195.997 108.568C195.808 108.568 195.631 108.624 195.467 108.696C195.461 108.632 195.461 108.576 195.455 108.512C195.643 108.439 195.852 108.391 196.098 108.391C197.892 108.391 197.645 110.953 197.645 110.953C197.645 110.953 198.808 110.977 199.135 110.92C199.464 110.864 199.761 110.189 199.729 109.804C199.698 109.427 199.596 109.122 199.249 109.082C199.199 108.672 199.009 108.464 198.978 108.295C198.934 108.118 198.612 107.813 197.342 107.468C196.831 107.331 196.136 107.219 195.48 107.138C195.505 106.769 195.549 106.432 195.618 106.126C195.745 106.159 195.877 106.183 196.016 106.183C196.673 106.183 197.248 105.814 197.658 105.235C197.822 105.292 198.005 105.332 198.188 105.332C199.414 105.332 200.405 104.071 200.405 102.505C200.405 102.353 200.386 102.2 200.367 102.056C201.169 101.63 201.731 100.618 201.731 99.4458C201.731 98.1771 201.068 97.1178 200.171 96.7563Z" fill="#023047"/>
<path d="M67.0097 103.669C67.054 102.835 66.6309 102.088 66.0247 101.855C65.9363 101.068 65.4374 100.426 64.787 100.353C64.5408 100.313 64.2945 100.377 64.0798 100.506C63.8777 100.289 63.6188 100.144 63.3346 100.112C62.8358 100.048 62.3749 100.337 62.097 100.811C61.9265 100.682 61.7308 100.595 61.5224 100.57C60.7583 100.474 60.089 101.18 60.0132 102.152C60.0132 102.184 60.0196 102.216 60.0196 102.256C59.9564 102.433 59.9248 102.634 59.9248 102.842C59.5018 103.099 59.186 103.621 59.1418 104.255C59.1229 104.512 59.1481 104.754 59.205 104.986C59.205 105.027 59.205 105.066 59.205 105.114C59.205 105.5 59.306 105.854 59.4702 106.151C59.3312 106.399 59.2365 106.681 59.2113 107.002C59.1734 107.5 59.306 107.958 59.5333 108.311C59.6912 109.057 60.2279 109.603 60.8594 109.603C61.1878 109.603 61.4845 109.451 61.7182 109.202C61.7434 109.234 61.775 109.258 61.8003 109.291C62.0465 109.748 62.4569 110.045 62.9242 110.045C63.12 110.045 63.2968 109.989 63.461 109.9C63.6251 110.214 63.6504 110.575 63.6441 110.776C63.5683 111.868 63.5367 113.418 63.4484 113.53C63.8398 113.53 64.3197 113.53 64.3197 113.53C64.3197 113.53 63.8714 110.856 64.1682 109.515C64.2503 109.539 64.3323 109.547 64.4208 109.547C64.8249 109.547 65.1912 109.323 65.4374 108.961C65.5447 108.993 65.6585 109.017 65.7721 109.017C66.5362 109.017 67.1487 108.23 67.1487 107.259C67.1487 107.154 67.1423 107.066 67.1297 106.978C67.6286 106.705 67.9822 106.078 67.9822 105.348C67.9822 104.553 67.5654 103.902 67.0097 103.669Z" fill="#023047"/>
<path d="M54.4505 101.004C54.5073 100.016 54.0084 99.1408 53.2886 98.8764C53.1876 97.9447 52.6066 97.1896 51.8488 97.1017C51.5521 97.0612 51.2679 97.1338 51.0153 97.2859C50.7691 97.0291 50.4723 96.861 50.1313 96.8205C49.5504 96.7402 49.0073 97.0857 48.6853 97.6474C48.4832 97.4953 48.2559 97.3822 48.0096 97.3501C47.1193 97.2378 46.3237 98.0808 46.2416 99.2134C46.2352 99.2532 46.2416 99.2937 46.2416 99.3334C46.1721 99.5505 46.1342 99.7836 46.1279 100.024C45.6353 100.329 45.2691 100.94 45.2186 101.687C45.1934 101.983 45.2249 102.273 45.2943 102.537C45.2943 102.585 45.2817 102.642 45.2817 102.69C45.2817 103.148 45.4017 103.565 45.5974 103.902C45.4396 104.192 45.326 104.537 45.3007 104.914C45.2501 105.493 45.4017 106.039 45.6733 106.448C45.8626 107.323 46.4878 107.965 47.2266 107.965C47.6118 107.965 47.9591 107.781 48.2432 107.492C48.2748 107.524 48.3064 107.564 48.3379 107.596C48.6284 108.126 49.1083 108.48 49.6577 108.48C49.8787 108.48 50.0934 108.415 50.2892 108.311C50.4786 108.68 50.5038 109.106 50.4976 109.339C50.4092 110.623 50.365 112.446 50.2702 112.575C50.7312 112.575 51.2932 112.575 51.2932 112.575C51.2932 112.575 50.7628 109.443 51.1163 107.853C51.2111 107.885 51.3058 107.893 51.4069 107.893C51.8867 107.893 52.3099 107.628 52.6066 107.203C52.7329 107.251 52.8655 107.275 52.9981 107.275C53.8948 107.275 54.6146 106.352 54.6146 105.203C54.6146 105.099 54.6083 104.987 54.5957 104.882C55.1766 104.561 55.587 103.83 55.587 102.971C55.587 102.04 55.1071 101.261 54.4505 101.004Z" fill="#023047"/>
<path d="M183.04 108.584C182.193 108.584 181.511 109.451 181.511 110.535C181.511 111.611 182.193 112.486 183.04 112.486C183.886 112.486 184.567 111.611 184.567 110.535C184.567 109.451 183.886 108.584 183.04 108.584Z" fill="#023047"/>
<path d="M11.8336 105.212H18.3376V104.152L13.7722 101.156H13.5132L13.3049 101.028H13.911L11.7578 99.7034L9.60453 101.028H10.2044L9.99607 101.156H9.73713L7.43866 102.666C7.43235 102.666 7.42603 102.666 7.42603 102.658C7.34394 101.967 6.91456 101.413 6.34624 101.341C6.12523 101.309 5.91686 101.373 5.7211 101.477C5.5443 101.285 5.31697 101.156 5.06439 101.133C4.635 101.076 4.23088 101.325 3.99092 101.742C3.83937 101.63 3.66887 101.55 3.48576 101.525C2.82272 101.445 2.23548 102.063 2.17232 102.915C2.16601 102.947 2.17232 102.971 2.17232 103.004C2.12181 103.164 2.09024 103.341 2.09024 103.517C1.71768 103.742 1.45247 104.2 1.40827 104.754C1.38932 104.978 1.41458 105.196 1.4651 105.396C1.4651 105.428 1.45879 105.468 1.45879 105.508C1.45879 105.846 1.54719 106.159 1.69242 106.416C1.57244 106.625 1.49035 106.873 1.47141 107.163C1.43353 107.589 1.54719 107.997 1.74925 108.303C1.88817 108.954 2.34913 109.435 2.90482 109.435C3.19528 109.435 3.45418 109.298 3.66256 109.082C3.68151 109.106 3.70677 109.138 3.73202 109.162C3.94671 109.555 4.30665 109.82 4.71709 109.82C4.88127 109.82 5.03914 109.772 5.18437 109.692C5.32329 109.965 5.34223 110.278 5.34223 110.455C5.27277 111.41 5.24751 112.767 5.17174 112.871C5.51904 112.871 5.9358 112.871 5.9358 112.871C5.9358 112.871 5.53798 110.535 5.80319 109.355C5.86634 109.371 5.94211 109.387 6.01789 109.387C6.3715 109.387 6.68723 109.186 6.90824 108.865C7.00295 108.897 7.10399 108.921 7.20502 108.921C7.86807 108.921 8.4111 108.231 8.4111 107.379C8.4111 107.291 8.39849 107.211 8.39214 107.131C8.82786 106.898 9.13098 106.352 9.13098 105.709C9.13098 105.533 9.11202 105.372 9.06785 105.212H11.6757V112.165H10.697V112.486H12.806V112.165H11.8336V105.212Z" fill="#023047"/>
<path d="M114.173 111.097L117.254 108.945H114.451V108.191H113.876V108.142C113.895 108.046 113.895 107.942 113.895 107.845C113.895 107.781 113.895 107.725 113.889 107.669C114.116 107.821 114.362 107.909 114.634 107.909C115.026 107.909 115.379 107.725 115.657 107.436C115.688 107.468 115.72 107.5 115.758 107.532C116.055 108.07 116.541 108.431 117.09 108.431C117.324 108.431 117.533 108.367 117.728 108.263C117.924 108.632 117.949 109.057 117.949 109.298C117.912 109.861 117.873 110.511 117.848 111.097H114.173ZM111.288 109.845L113.087 111.097H111.205C111.193 110.64 111.212 110.19 111.288 109.845ZM113.75 98.4828C113.744 98.4904 113.744 98.4904 113.744 98.4988V98.4828H113.75ZM122.552 100.916L122.344 101.044H122.275C122.212 101.004 122.142 100.956 122.072 100.916H122.552ZM125.893 101.044L125.684 100.916H126.284L124.118 99.5826L122.003 100.892C121.985 100.876 121.965 100.867 121.946 100.86C122.003 99.8638 121.505 98.9727 120.772 98.6991C120.671 97.7598 120.084 96.997 119.313 96.9091C119.01 96.8686 118.726 96.9412 118.467 97.0933C118.227 96.8365 117.918 96.66 117.577 96.6195C116.983 96.5476 116.44 96.8847 116.106 97.4548C115.903 97.302 115.676 97.1896 115.423 97.1659C114.761 97.0857 114.148 97.519 113.839 98.226V98.1289H113.7V97.7758H113.567V98.1289H113.422V98.4828H113.516V98.8275H113.251V99.1813H113.516V99.5268H113.441V99.8799H111.963L112.904 100.53C112.734 100.819 112.626 101.165 112.595 101.55C112.575 101.847 112.601 102.128 112.67 102.393C112.475 102.063 112.178 101.839 111.836 101.799C111.616 101.775 111.408 101.823 111.218 101.935C111.035 101.751 110.814 101.622 110.562 101.59C110.125 101.542 109.722 101.791 109.482 102.209C109.336 102.088 109.166 102.015 108.976 101.992C108.313 101.911 107.726 102.53 107.663 103.373C107.663 103.405 107.663 103.428 107.663 103.461C107.612 103.622 107.581 103.798 107.581 103.975C107.208 104.208 106.943 104.657 106.892 105.212C106.88 105.444 106.905 105.653 106.956 105.854C106.956 105.894 106.95 105.926 106.95 105.966C106.95 106.311 107.037 106.616 107.183 106.874C107.063 107.09 106.975 107.339 106.962 107.621C106.924 108.054 107.037 108.455 107.24 108.76C107.378 109.411 107.846 109.893 108.396 109.893C108.679 109.893 108.944 109.756 109.153 109.54C109.172 109.572 109.197 109.595 109.223 109.62C109.443 110.013 109.797 110.278 110.202 110.278C110.372 110.278 110.529 110.23 110.675 110.15C110.814 110.422 110.839 110.736 110.833 110.921C110.827 110.977 110.82 111.033 110.82 111.097H108.048V111.45H108.282V112.51H110.75C110.719 112.952 110.694 113.281 110.662 113.329C111.003 113.329 111.426 113.329 111.426 113.329C111.426 113.329 111.369 112.992 111.313 112.51H117.734C117.728 112.543 117.722 112.566 117.715 112.575C118.183 112.575 118.751 112.575 118.751 112.575C118.751 112.575 118.745 112.55 118.745 112.51H118.985V111.45H119.213V111.097H118.562C118.448 110.053 118.373 108.688 118.568 107.797C118.663 107.829 118.764 107.837 118.865 107.837C119.345 107.837 119.78 107.564 120.084 107.138C120.21 107.179 120.342 107.211 120.481 107.211C121.372 107.211 122.105 106.288 122.117 105.147H124.037V112.165H123.058V112.486H125.179V112.165H124.194V105.147H130.756V104.079L126.151 101.044H125.893Z" fill="#023047"/>
<path d="M157.794 112.165V109.788C157.895 110.037 157.908 110.294 157.908 110.455C157.87 111.001 157.845 111.667 157.813 112.165H157.794ZM156.165 101.028L156.095 101.068C156.076 101.052 156.051 101.044 156.039 101.028H156.165ZM159.474 101.156L159.266 101.028H159.865L157.712 99.7033L155.792 100.883C155.774 100.876 155.755 100.867 155.735 100.86C155.792 99.8638 155.294 98.9727 154.568 98.6991C154.466 97.7598 153.873 96.997 153.103 96.9091C152.799 96.8686 152.509 96.9412 152.256 97.0933C152.01 96.8365 151.707 96.66 151.366 96.6195C150.772 96.5476 150.23 96.8847 149.901 97.4548C149.699 97.302 149.465 97.1896 149.212 97.1659C148.316 97.0536 147.514 97.8966 147.425 99.0445C147.425 99.085 147.425 99.1248 147.425 99.1653C147.356 99.3816 147.318 99.6231 147.312 99.8715C146.807 100.177 146.44 100.787 146.39 101.55C146.378 101.63 146.378 101.719 146.378 101.807C146.27 101.742 146.15 101.694 146.024 101.678C145.809 101.655 145.607 101.71 145.424 101.815C145.247 101.63 145.032 101.51 144.786 101.477C144.363 101.429 143.978 101.671 143.738 102.072C143.593 101.96 143.435 101.887 143.252 101.871C142.607 101.783 142.033 102.393 141.976 103.212C141.97 103.236 141.976 103.268 141.976 103.3C141.926 103.453 141.894 103.622 141.894 103.798C141.534 104.015 141.275 104.456 141.231 104.994C141.212 105.212 141.237 105.42 141.288 105.613C141.288 105.653 141.281 105.685 141.281 105.725C141.281 106.046 141.376 106.352 141.515 106.593C141.395 106.809 141.307 107.05 141.294 107.331C141.263 107.749 141.37 108.142 141.56 108.439C141.699 109.073 142.146 109.54 142.683 109.54C142.967 109.54 143.22 109.403 143.422 109.194C143.447 109.21 143.466 109.242 143.486 109.266C143.7 109.652 144.047 109.909 144.439 109.909C144.603 109.909 144.754 109.861 144.899 109.78C145.032 110.053 145.052 110.358 145.052 110.527C144.988 111.458 144.957 112.775 144.887 112.872C145.222 112.872 145.626 112.872 145.626 112.872C145.626 112.872 145.241 110.599 145.493 109.459C145.563 109.475 145.638 109.491 145.708 109.491C146.055 109.491 146.358 109.291 146.573 108.986C146.662 109.018 146.756 109.041 146.858 109.041C147.425 109.041 147.899 108.519 148.006 107.829C148.139 107.877 148.278 107.909 148.424 107.909C148.815 107.909 149.169 107.725 149.452 107.436C149.484 107.468 149.516 107.5 149.547 107.532C149.844 108.07 150.324 108.431 150.88 108.431C151.107 108.431 151.322 108.367 151.524 108.263C151.713 108.632 151.738 109.057 151.738 109.298C151.643 110.599 151.606 112.446 151.505 112.575C151.972 112.575 152.54 112.575 152.54 112.575C152.54 112.575 152.003 109.403 152.357 107.797C152.458 107.829 152.553 107.837 152.66 107.837C153.14 107.837 153.569 107.564 153.873 107.138C153.923 107.154 153.98 107.17 154.03 107.179C154.005 107.612 154.113 107.997 154.315 108.303C154.46 108.953 154.915 109.435 155.47 109.435C155.761 109.435 156.02 109.298 156.228 109.082C156.254 109.106 156.272 109.138 156.304 109.162C156.519 109.556 156.872 109.82 157.276 109.82C157.409 109.82 157.522 109.788 157.636 109.74V112.165H156.664V112.486H157.794C157.775 112.695 157.756 112.839 157.737 112.872C158.078 112.872 158.501 112.872 158.501 112.872C158.501 112.872 158.476 112.719 158.444 112.486H158.773V112.165H158.401C158.306 111.378 158.192 110.125 158.368 109.355C158.438 109.371 158.508 109.387 158.583 109.387C158.943 109.387 159.259 109.186 159.48 108.865C159.568 108.897 159.669 108.921 159.771 108.921C160.434 108.921 160.977 108.23 160.977 107.379C160.977 107.291 160.964 107.211 160.958 107.131C161.393 106.898 161.703 106.352 161.703 105.709C161.703 105.533 161.678 105.372 161.633 105.212H164.292V104.151L159.733 101.156H159.474Z" fill="#023047"/>
<path d="M208.803 110.84V110.455C208.803 110.455 209.106 110.535 209.573 110.134C210.04 109.732 209.535 109.612 210.495 109.435C211.449 109.258 212.27 109.322 212.32 109.186C212.32 109.177 212.314 109.17 212.314 109.161C212.415 109.138 212.516 109.081 212.598 108.985C212.636 109.001 212.68 109.017 212.724 109.025C213.015 109.057 213.28 108.785 213.305 108.407C213.311 108.367 213.311 108.334 213.305 108.295C213.507 108.214 213.665 107.989 213.684 107.708C213.71 107.395 213.564 107.114 213.35 107.002C213.35 107.002 213.35 106.994 213.35 106.985C213.381 106.656 213.21 106.351 212.964 106.263C212.932 105.958 212.744 105.701 212.491 105.677C212.446 105.669 212.409 105.677 212.371 105.685C212.314 105.476 212.188 105.307 212.017 105.251C211.985 104.938 211.796 104.681 211.544 104.657C211.443 104.641 211.348 104.665 211.259 104.722C211.184 104.633 211.083 104.576 210.975 104.56C210.779 104.537 210.603 104.649 210.495 104.834C210.425 104.786 210.35 104.754 210.268 104.745C210.11 104.722 209.965 104.794 209.858 104.922C209.794 104.729 209.674 104.569 209.517 104.512C209.485 104.207 209.289 103.95 209.037 103.926C208.936 103.91 208.841 103.934 208.759 103.983C208.683 103.902 208.582 103.838 208.468 103.83C208.272 103.806 208.096 103.918 207.988 104.103C207.919 104.055 207.85 104.015 207.761 104.006C207.515 103.974 207.287 104.168 207.205 104.464C207.111 104.32 206.972 104.232 206.814 104.232C206.713 104.232 206.625 104.272 206.549 104.328C206.46 104.255 206.353 104.207 206.246 104.207C206.05 104.207 205.879 104.336 205.785 104.537C205.715 104.496 205.639 104.464 205.557 104.464C205.26 104.464 205.02 104.777 205.02 105.155C205.02 105.243 205.033 105.316 205.052 105.396H205.046C204.976 105.348 204.907 105.307 204.825 105.299C204.629 105.275 204.453 105.388 204.345 105.572C204.275 105.524 204.2 105.484 204.118 105.476C203.82 105.444 203.562 105.717 203.53 106.094C203.524 106.183 203.537 106.255 203.549 106.327C203.353 106.415 203.214 106.632 203.189 106.914C203.17 107.162 203.259 107.395 203.404 107.524C203.303 107.636 203.233 107.805 203.221 107.981C203.189 108.367 203.404 108.696 203.7 108.736C203.726 108.736 203.745 108.728 203.77 108.728C203.878 108.84 204.124 109.009 204.641 109.033C205.431 109.065 205.576 109.186 206.182 109.716C206.763 110.23 206.865 110.51 206.902 110.84H202.154V112.486H214V110.84H208.803Z" fill="#023047"/>
<path d="M35.0465 110.84V108.656C35.1033 108.696 35.1728 108.72 35.2422 108.736C35.2738 108.736 35.2864 108.728 35.3117 108.728C35.419 108.84 35.6716 109.009 36.1831 109.034C36.9724 109.066 37.1176 109.186 37.7239 109.716C38.3048 110.23 38.4121 110.511 38.4437 110.84H35.0465ZM40.3444 110.84V110.455C40.3444 110.455 40.6538 110.535 41.1148 110.134C41.5821 109.732 41.0769 109.612 42.0367 109.435C42.9902 109.258 43.8111 109.323 43.8616 109.186C43.8616 109.178 43.8616 109.17 43.8553 109.162C43.9626 109.138 44.0636 109.082 44.1394 108.986C44.1773 109.002 44.2215 109.018 44.2657 109.025C44.5625 109.057 44.8214 108.785 44.853 108.407C44.853 108.367 44.853 108.335 44.8466 108.295C45.0487 108.214 45.2066 107.99 45.2255 107.708C45.2508 107.395 45.1056 107.115 44.8909 107.002C44.8909 107.002 44.8972 106.994 44.8972 106.986C44.9161 106.657 44.7519 106.352 44.512 106.263C44.4804 105.958 44.2847 105.701 44.0321 105.677C43.9942 105.669 43.95 105.677 43.9121 105.685C43.8616 105.476 43.7289 105.308 43.5585 105.251C43.5269 104.939 43.3375 104.681 43.0849 104.657C42.9838 104.641 42.8955 104.665 42.8071 104.722C42.725 104.633 42.6239 104.577 42.5166 104.561C42.3272 104.537 42.144 104.649 42.0367 104.834C41.9735 104.786 41.8915 104.754 41.8094 104.745C41.6578 104.722 41.5063 104.794 41.3989 104.923C41.3357 104.729 41.2221 104.569 41.0579 104.513C41.0264 104.207 40.8306 103.95 40.578 103.927C40.4833 103.911 40.3886 103.934 40.3002 103.983C40.2244 103.902 40.1234 103.838 40.016 103.831C39.8203 103.806 39.6372 103.918 39.5362 104.103C39.4667 104.055 39.3909 104.015 39.3025 104.007C39.0562 103.975 38.8289 104.168 38.7468 104.465C38.6521 104.32 38.5132 104.232 38.3616 104.232C38.2606 104.232 38.1659 104.272 38.0901 104.328C38.0017 104.256 37.8943 104.207 37.787 104.207C37.6039 104.207 37.446 104.328 37.3449 104.513L36.5052 103.95H36.3094L36.1579 103.863H36.6062L34.9896 102.858L33.3668 103.863H33.8152L33.6636 103.95H33.4679L32.767 104.408C32.7796 103.734 32.4323 103.148 31.9334 102.963C31.8639 102.297 31.4408 101.742 30.8915 101.678C30.6768 101.655 30.4684 101.71 30.2917 101.815C30.1085 101.63 29.8938 101.509 29.6539 101.477C29.2308 101.429 28.8393 101.671 28.5993 102.072C28.4604 101.96 28.2963 101.887 28.1131 101.871C27.469 101.783 26.8944 102.393 26.8375 103.212C26.8375 103.236 26.8375 103.268 26.8375 103.3C26.787 103.453 26.7618 103.622 26.7555 103.798C26.4018 104.015 26.1366 104.456 26.0924 104.995C26.0798 105.212 26.1051 105.42 26.1556 105.613C26.1493 105.653 26.143 105.685 26.143 105.725C26.143 106.046 26.2377 106.352 26.3766 106.593C26.263 106.809 26.1809 107.05 26.1556 107.331C26.1304 107.749 26.2314 108.142 26.4271 108.439C26.5661 109.074 27.0144 109.539 27.5511 109.539C27.8352 109.539 28.0878 109.403 28.2899 109.194C28.3089 109.21 28.3278 109.242 28.353 109.266C28.5677 109.652 28.9088 109.909 29.3066 109.909C29.4707 109.909 29.6223 109.861 29.7612 109.78C29.9001 110.053 29.9191 110.358 29.9191 110.527C29.8559 111.458 29.8244 112.775 29.7486 112.871C30.0832 112.871 30.4874 112.871 30.4874 112.871C30.4874 112.871 30.1085 110.599 30.3548 109.459C30.4305 109.475 30.5 109.491 30.5757 109.491C30.9168 109.491 31.2262 109.291 31.4408 108.986C31.5293 109.018 31.624 109.041 31.725 109.041C32.3691 109.041 32.8932 108.367 32.8932 107.548C32.8932 107.459 32.8806 107.379 32.8743 107.307C33.0006 107.235 33.1205 107.131 33.2215 107.01H34.7371C34.7434 107.203 34.8129 107.371 34.9265 107.5V107.564C34.8381 107.676 34.775 107.821 34.7624 107.981C34.7497 108.198 34.8129 108.399 34.9265 108.544V110.84H33.7015V112.486H45.5412V110.84H40.3444Z" fill="#023047"/>
<path d="M24.6394 108.945H21.8357V108.19H21.2611V107.427H21.4695V106.664H21.4127V106.11L23.6543 104.545H21.318V103.991H21.198V103.428H21.6147V102.883H21.198V102.32H21.3495V101.767H21.1159V101.22H21.2611V100.867L22.6818 99.8799H21.2106V99.526H21.1285V99.1813H21.3937V98.8275H21.1285V98.4828H21.2232V98.1289H21.078V97.7758H20.9517V98.1289H20.8064V98.4828H20.9012V98.8275H20.636V99.1813H20.9012V99.526H20.8191V99.8799H19.3478L20.7623 100.867V101.22H20.9138V101.767H20.6802V102.32H20.838V102.883H20.415V103.428H20.838V103.991H20.7117V104.545H18.369L20.617 106.11V106.664H20.5602V107.427H20.7686V108.19H20.1939V108.945H17.3903L20.4718 111.097H15.4327V111.45H15.6664V112.51H26.3632V111.45H26.5969V111.097H21.5579L24.6394 108.945Z" fill="#023047"/>
</g>
</g>
</g>
<defs>
<clipPath id="clip0_3_1606">
<rect width="214" height="113.11" fill="white" transform="translate(0 0.560059)"/>
</clipPath>
<clipPath id="clip1_3_1606">
<rect width="214" height="113.11" fill="white" transform="translate(0 0.560059)"/>
</clipPath>
<clipPath id="clip2_3_1606">
<rect width="214" height="113.114" fill="white" transform="translate(0 0.557922)"/>
</clipPath>
</defs>
</svg>
