<svg width="214" height="115" viewBox="0 0 214 115" fill="none" xmlns="http://www.w3.org/2000/svg">
<g clip-path="url(#clip0_3_1624)">
<g clip-path="url(#clip1_3_1624)">
<g clip-path="url(#clip2_3_1624)">
<path d="M213.619 106.439C206.717 105.086 199.456 103.805 191.8 102.599V91.1471H187.735V96.4148H182.346V96.1597L182.043 95.9221H179.549V86.8678H177.337V80.5941H176.164V53.941C176.164 53.7039 175.673 53.648 175.673 53.648V47.7967C175.444 47.5036 174.916 47.6132 174.916 47.6132V42.9474H174.745V42.6925H174.007V41.8134H173.82V41.5763H172.797V41.3011L172.175 39.7645V39.0532H172.003V38.7043H171.853V38.4851H171.626V32.2289L171.381 31.8264V26.8697H171.002L170.869 26.6326V20.3764H170.018V26.6505L169.944 26.8876H169.528V31.9002L169.28 32.267V38.5768H169.053V38.7961H168.921V39.2165H168.79V39.8562L168.165 40.9366V41.3011H167.883V41.5584H167.107V41.8336H166.976V42.6746H166.427V42.8378H166.048V47.6132C165.197 47.649 165.235 47.8504 165.235 47.8504V53.5384C164.819 53.5943 164.761 53.9052 164.761 53.9052V80.5941H163.552V86.848H161.397V90.7084H159.639V85.0005H156.461V92.0259H154.326V52.3865H152.908V55.6432H152.302V54.3615H151.792V52.3865H148.03L147.936 39.089L147.424 52.3865H143.359V55.3322H142.755V52.0756H142.035V82.386H138.803V90.2705H137.214C137.044 86.1725 136.628 75.4719 136.968 75.3802C137.385 75.2527 137.421 74.812 137.421 74.812L136.211 64.4403C136.211 64.4403 136.193 63.125 134.662 63.0691C133.129 63.0333 132.828 64.6617 132.828 64.6617C132.828 64.6617 129.879 74.8501 129.784 75.161C129.708 75.4898 130.2 75.7649 130.2 75.7649L130.124 77.6841L129.897 78.3619L130.011 78.563L130.029 78.7998L129.839 79.3123L129.935 79.4601L129.499 85.8618H127.967L127.931 84.4522L125.378 84.2153L125.265 83.2649L123.09 83.0257L122.391 75.2527L122.618 74.7762C122.618 74.7762 122.125 69.9114 122.352 69.672C122.579 69.4349 122.183 68.7214 122.297 68.245C122.409 67.7708 122.618 66.6368 122.618 66.6368C122.995 66.5272 123.261 66.0507 123.261 66.0507C123.374 65.3931 122.882 62.1923 122.882 62.1923C123.261 60.3448 122.278 55.8982 122.278 55.8982C122.713 55.4776 123.035 53.2275 123.035 53.2275L123.583 53.1738L125.32 50.2661C126.626 49.5525 128.252 47.3024 128.252 47.3024C128.629 47.119 129.064 46.4054 129.064 46.4054C129.178 46.1683 128.687 44.9784 128.687 44.9784L129.178 43.9719L128.914 43.2047L129.235 42.9675L129.064 42.3815L123.639 40.6615L123.47 41.4846L122.826 41.3571L121.521 43.368C121.313 42.4732 119.953 41.8872 119.953 41.8872C120.122 40.9366 119.46 39.93 119.251 38.9235C119.025 37.917 118.816 36.7829 118.647 36.4363C118.476 36.0717 118.212 35.9061 118.005 35.6132C117.796 35.3201 117.192 34.9556 117.192 34.9556C117.021 34.7543 116.813 34.6066 116.586 34.497L116.001 31.5714C116.001 31.5714 116.209 31.3879 116.322 31.0413C116.436 30.6923 116.056 29.1937 115.887 28.8448C115.716 28.4981 115.887 28.0775 115.887 28.0775C116.001 28.3706 116.436 28.0217 116.436 28.0217L116.264 26.9614L116.378 26.5409L120.292 26.0108L116.549 25.7178L116.436 24.7113L120.461 22.2777L116.396 24.0537C116.396 23.7607 115.906 22.9196 115.906 22.9196L118.136 18.6944L115.262 22.3694C115.094 22.0227 114.016 21.7118 114.016 21.7118V17.084L113.145 21.7118C112.766 21.5843 111.898 22.0585 111.898 22.0585L109.723 18.2538L111.141 22.5349C110.593 22.772 110.158 23.6689 110.158 23.6689L109.987 23.4855L108.247 23.0292C108.154 22.7899 108.078 22.6087 108.078 22.6087C108.078 21.4747 107.812 17.377 107.586 16.4241C107.377 15.4736 107.586 11.6152 107.586 11.6152C107.417 8.76104 106.51 7.99163 106.51 7.99163L106.565 7.40783C107.058 7.0589 106.886 6.63839 106.886 6.63839C108.948 5.7437 107.812 4.68124 107.812 4.68124L107.756 3.78655C107.548 3.25421 106.715 3.12671 106.715 3.12671C107.15 2.65028 106.715 1.939 106.452 1.40665C106.188 0.876544 105.848 0.749052 105.848 0.749052C105.79 0.0355319 105.146 0.0914503 105.146 0.0914503C105.26 0.272627 104.883 0.511958 104.883 0.511958C104.769 0.163026 104.239 0.272627 104.239 0.272627C104.031 0.511958 104.181 1.22548 104.181 1.22548C103.918 0.932466 103.541 1.51625 103.541 1.51625C103.918 1.33508 104.031 1.80927 103.804 2.1761C103.578 2.52279 104.069 3.18263 104.069 3.18263C103.804 3.18263 103.314 3.65682 103.314 3.65682L103.201 4.55375C102.009 5.37687 103.749 6.32749 103.749 6.32749C103.201 6.67642 104.013 7.81046 104.013 7.81046C103.52 8.04753 103.955 8.81473 103.955 8.81473C103.691 8.9445 104.163 9.63783 104.163 9.63783C103.52 10.0606 104.769 12.0177 104.769 12.0177C104.013 12.2549 104.938 14.1024 104.938 14.1024C104.617 14.5229 105.052 15.053 105.052 15.053C104.448 18.8577 104.825 21.052 104.996 21.7118C105.165 22.3694 105.165 24.51 105.165 24.51C104.411 25.096 103.275 27.4177 103.275 27.4177C102.518 29.1378 103.501 31.0413 103.881 31.2224C104.258 31.4058 103.881 31.6429 103.881 31.6429C103.881 31.6429 103.71 32.0656 103.768 32.3565C103.823 32.6495 103.823 32.7769 103.559 33.3093C103.293 33.8394 103.673 34.0765 103.728 34.6066C103.786 35.1367 104.542 35.3201 104.751 35.7966C104.978 36.2708 104.485 36.0896 104.316 36.4542C104.145 36.8031 104.58 37.2236 104.466 37.4607C104.353 37.6978 104.411 37.6441 104.638 37.6978C104.865 37.7537 104.751 37.9371 104.524 38.2838C104.316 38.6305 104.089 38.814 103.881 39.1807C103.654 39.5275 104.258 39.6013 104.43 39.7846C104.598 39.9658 104.43 39.7846 104.43 40.0754C104.43 40.3685 104.807 40.8449 104.978 41.0283C105.146 41.2117 105.299 41.0283 105.413 41.3213C105.526 41.6121 106.053 43.7526 106.053 43.7526C105.355 44.4661 104.05 49.0403 104.05 49.0403C103.823 50.814 106.283 50.4115 106.283 50.4115C105.903 50.8319 106.169 52.1851 106.169 52.1851C105.413 52.8987 105.034 55.0393 105.034 55.0393C104.769 55.8065 105.64 56.5759 105.64 56.5759C105.26 57.2894 105.753 60.0137 105.848 60.857C105.961 61.6801 106.111 63.5277 105.961 64.3687C105.79 65.1918 105.318 66.3795 105.318 66.3795C104.656 67.3861 105.487 67.679 105.487 67.679C103.749 71.4838 104.069 76.5319 104.031 76.7154C103.976 76.8989 103.918 77.1899 103.918 77.1899L103.749 78.1426C103.087 79.3306 103.749 79.9163 103.749 79.9163C103.427 80.0435 103.483 81.5803 103.483 81.5803L102.84 83.0075L101.216 82.9519L97.6776 90.3238V91.1646H96.0723V86.7582H95.5605V79.6413H94.54V73.5863H92.7632V70.8619L91.9118 69.6362C91.7428 68.245 90.4747 68.245 90.4747 68.245C89.5494 68.4843 89.2837 69.6362 89.2837 69.6362L88.5267 70.6964V73.7161H86.4095V83.4842H82.7791V71.9602L81.8721 67.2944V47.8862L80.2644 50.7581L78.7535 51.3263V37.114H78.5821V34.1325H78.3925V37.1319L77.6172 51.8922L73.5727 53.7397L70.6966 53.1738V71.6493L69.8475 77.2279V90.8539L69.6578 91.0374H61.2819V92.2986H60.9232V95.0996H60.0347V78.4358H58.2184V95.9762H56.5918V87.3804H55.1943V81.728C55.1365 81.1957 54.5326 81.1957 54.5326 81.1957V79.2027H53.8523V77.0444H54.211V75.9841H53.1512V52.4245H53.5677V51.9123H52.5265V45.4906H52.0545V45.0343H51.7514V43.7168H51.638V43.406H51.4691V41.8134H51.2609V41.5226H51.0897C51.0897 41.5226 51.0897 40.4423 51.0897 40.0754C51.0897 39.7108 50.5806 39.7108 50.5806 39.7108V38.1183H50.2775V37.5703H50.1456V36.1992H49.9559V35.7228H49.787V33.8752H49.6157V31.681H49.426V27.2164H49.1808V25.3689H49.0119V27.2164H48.8777V31.681H48.6903V33.8931H48.519V35.7228H48.3502V36.2171H48.1604V37.5882H47.9892V38.0646H47.6676V39.7108C47.2534 39.7108 47.1192 40.0039 47.1192 40.0039V41.5405H46.9503V41.7597H46.6842V43.406H46.5523V43.7168H46.3649V44.9605H46.0039V45.5085H45.4556V51.966H44.2455V52.4424H44.7198V76.0557H43.7365V77.0802H44.1136V79.1669H43.3755V81.1424C42.7716 81.1782 42.7137 81.5986 42.7137 81.5986V87.4337H41.2977V95.9762H39.0649V86.7765H36.7974V96.4148H32.7135V92.9025H29.0832V99.0491H18.2107V103.935C12.3315 105.068 6.37344 106.365 0.380737 107.757V114.194H213.619V106.439ZM109.552 27.8383C109.383 27.7846 109.231 27.1807 109.175 26.8339C109.135 26.5588 109.402 26.3575 109.438 26.1741C109.458 26.7243 109.723 27.5474 109.723 27.5474C109.723 27.5474 109.723 27.8942 109.552 27.8383ZM109.552 25.1496L109.175 24.9864C109.062 24.6576 108.796 24.2169 108.645 23.962C108.587 23.8703 108.531 23.7607 108.474 23.613L109.892 24.1253C109.61 24.3265 109.552 25.1496 109.552 25.1496ZM114.885 34.0586C114.564 33.5821 114.714 31.8644 114.714 31.8644C114.6 32.9984 115.32 33.0521 115.32 33.0521L115.584 34.1504C115.168 34.0586 114.885 34.0586 114.885 34.0586Z" fill="#023047"/>
</g>
</g>
</g>
<defs>
<clipPath id="clip0_3_1624">
<rect width="214" height="114.23" fill="white"/>
</clipPath>
<clipPath id="clip1_3_1624">
<rect width="214" height="114.23" fill="white"/>
</clipPath>
<clipPath id="clip2_3_1624">
<rect width="214" height="114.235" fill="white" transform="translate(0 -0.00244141)"/>
</clipPath>
</defs>
</svg>
