<svg width="47" height="46" viewBox="0 0 47 46" fill="none" xmlns="http://www.w3.org/2000/svg">
<g clip-path="url(#clip0_1_2698)">
<g clip-path="url(#clip1_1_2698)">
<g clip-path="url(#clip2_1_2698)">
<mask id="mask0_1_2698" style="mask-type:luminance" maskUnits="userSpaceOnUse" x="1" y="0" width="46" height="46">
<path d="M1.16016 0.559814H46.1602V45.5598H1.16016V0.559814Z" fill="white"/>
</mask>
<g mask="url(#mask0_1_2698)">
<path fill-rule="evenodd" clip-rule="evenodd" d="M25.2791 37.6634H16.4179V39.6253H25.2604V40.7727H16.4179V42.7337H25.2791V37.6634ZM34.8217 12.5159C36.2937 14.8723 37.1822 17.6253 37.2842 20.5735H36.2319C35.9122 20.5735 35.6553 20.8313 35.6553 21.1477C35.6553 21.4641 35.9122 21.722 36.2319 21.722H37.2861C37.0802 27.6682 33.695 33.0003 28.3475 35.7346C28.0641 35.8792 27.9533 36.2249 28.0984 36.5071C28.2436 36.7893 28.5907 36.9007 28.8741 36.7561C31.7092 35.3059 34.1029 33.1126 35.7916 30.4134C37.4283 27.8001 38.3374 24.8059 38.4374 21.722H39.9133C40.232 21.722 40.4889 21.4641 40.4889 21.1477C40.4889 20.8313 40.232 20.5735 39.9133 20.5735H38.4374C38.3334 17.3606 37.3567 14.3626 35.7357 11.8079L34.8217 12.5159ZM22.8235 17.4387C22.2341 17.1262 21.5614 16.9485 20.8485 16.9485C18.5243 16.9485 16.6337 18.8313 16.6337 21.1468C16.6337 23.4622 18.5243 25.345 20.8485 25.345C23.1716 25.345 25.0623 23.4622 25.0623 21.1468C25.0623 20.8059 25.0211 20.4749 24.9447 20.1575L21.9095 22.5061C21.6055 22.7415 21.2329 22.8684 20.8495 22.8684C20.315 22.8684 19.8119 22.6233 19.4834 22.2024C18.898 21.4514 19.0353 20.3704 19.7894 19.7864C20.8004 19.0052 21.8115 18.222 22.8235 17.4387ZM29.3017 12.427C27.4669 13.847 25.6331 15.2649 23.7993 16.6848C22.952 16.1272 21.938 15.8011 20.8495 15.8011C17.8899 15.8011 15.4824 18.1995 15.4824 21.1477C15.4824 24.096 17.8899 26.4944 20.8495 26.4944C23.8091 26.4944 26.2156 24.096 26.2156 21.1477C26.2156 20.5364 26.1126 19.9505 25.9224 19.4026L31.4022 15.1624C32.377 16.8977 32.934 18.8968 32.934 21.0227C32.934 21.0276 32.934 21.0305 32.934 21.0354C33.0497 25.9632 30.8227 28.553 28.6672 31.0579C27.2129 32.7483 25.8351 34.3509 25.3732 36.5149H16.3248C15.8638 34.3509 14.4841 32.7483 13.0308 31.0579C10.8763 28.553 8.6482 25.9632 8.76293 21.0354C8.76391 21.0305 8.76391 21.0276 8.76391 21.0227C8.76391 14.3831 14.185 8.9827 20.8495 8.9827C24.1356 8.9827 27.1197 10.2972 29.3017 12.427ZM33.6136 9.09012C33.3096 9.32645 33.0036 9.5618 32.6996 9.79813C29.8293 6.82548 25.8459 4.92606 21.4251 4.77372V5.82255C21.4251 6.13993 21.1672 6.39676 20.8495 6.39676C20.5317 6.39676 20.2728 6.13895 20.2728 5.82255V4.77372C11.6608 5.07059 4.70991 11.9934 4.41179 20.5735H5.46501C5.78274 20.5735 6.04065 20.8313 6.04065 21.1477C6.04065 21.4641 5.78274 21.722 5.46501 21.722H4.41081C4.61577 27.6682 8.00097 33.0003 13.3485 35.7346C13.6319 35.8792 13.7427 36.2249 13.5986 36.5071C13.4966 36.7053 13.2936 36.8196 13.0857 36.8196C12.9964 36.8196 12.9072 36.7991 12.8219 36.7552C9.9858 35.305 7.594 33.1116 5.90336 30.4124C4.26862 27.7991 3.35858 24.805 3.25855 21.721H1.78268C1.46396 21.721 1.20703 21.4632 1.20703 21.1468C1.20703 20.8303 1.46396 20.5725 1.78268 20.5725H3.25855C3.55765 11.3606 11.0243 3.92118 20.2719 3.6243V2.1536C20.2719 1.83719 20.5308 1.57938 20.8485 1.57938C21.1662 1.57938 21.4241 1.83719 21.4241 2.1536V3.6243C26.2146 3.77958 30.5275 5.84891 33.6136 9.09012ZM37.7333 8.80887L21.2015 21.5999C21.0956 21.6819 20.972 21.722 20.8485 21.722C20.6759 21.722 20.5062 21.6448 20.3935 21.4993C20.1983 21.2503 20.2434 20.8889 20.4945 20.6946C26.0057 16.4309 31.516 12.1663 37.0262 7.9036L37.9736 3.67411C38.003 3.54423 38.0775 3.42801 38.1824 3.34598L41.5794 0.717081C41.7716 0.568643 42.0364 0.555948 42.2404 0.685831C42.4463 0.814738 42.5483 1.05888 42.4953 1.29521L41.6539 5.04715L45.5128 5.16532C45.755 5.17215 45.9678 5.33036 46.0423 5.56083C46.1169 5.79227 46.0394 6.04325 45.8482 6.19266L42.4512 8.82157C42.3502 8.89969 42.2256 8.94169 42.0982 8.94169C42.0923 8.94169 42.0864 8.94169 42.0805 8.94169L37.7333 8.80887ZM24.4592 43.8811H17.2358L18.3341 44.972C18.7313 45.3655 19.1804 45.5579 19.7041 45.5579H21.9919C22.5166 45.5579 22.9647 45.3655 23.3619 44.972L24.4592 43.8811Z" fill="#00D280"/>
</g>
</g>
</g>
</g>
<defs>
<clipPath id="clip0_1_2698">
<rect width="46" height="45" fill="white" transform="translate(0.660156 0.559814)"/>
</clipPath>
<clipPath id="clip1_1_2698">
<rect width="46" height="45" fill="white" transform="translate(0.660156 0.559814)"/>
</clipPath>
<clipPath id="clip2_1_2698">
<rect width="46" height="45" fill="white" transform="translate(0.660156 0.559814)"/>
</clipPath>
</defs>
</svg>
