<svg width="56" height="56" viewBox="0 0 56 56" fill="none" xmlns="http://www.w3.org/2000/svg">
<g clip-path="url(#clip0_1_2515)">
<g clip-path="url(#clip1_1_2515)">
<mask id="mask0_1_2515" style="mask-type:luminance" maskUnits="userSpaceOnUse" x="1" y="42" width="12" height="14">
<path d="M1.99072 42.3494H12.6852V55.5001H1.99072V42.3494Z" fill="white"/>
</mask>
<g mask="url(#mask0_1_2515)">
<path d="M7.4423 42.4512C4.57295 42.4512 2.2395 45.3774 2.2395 48.9741C2.2395 52.5723 4.57295 55.4985 7.4423 55.4985C9.50719 55.4985 11.2964 53.9806 12.1343 51.7878C12.4601 50.9344 12.6439 49.982 12.6439 48.9741C12.6439 47.9691 12.4625 47.0138 12.1355 46.1618C11.2976 43.969 9.50838 42.4512 7.4423 42.4512ZM10.3188 47.2642L6.69274 51.8118C6.57099 51.9648 6.40748 52.0428 6.24514 52.0428C6.08282 52.0428 5.9205 51.9648 5.79517 51.8118L4.56221 50.2639C4.31394 49.9534 4.31394 49.448 4.56221 49.1375C4.80928 48.827 5.21151 48.827 5.45977 49.1375L6.24395 50.1215L9.42006 46.1378C9.66832 45.8273 10.0706 45.8273 10.3188 46.1378C10.5659 46.4483 10.5659 46.9537 10.3188 47.2642Z" fill="#0575AD"/>
</g>
<path d="M13.6406 46.6463C13.8185 47.3842 13.914 48.1657 13.914 48.9741C13.914 49.7825 13.8185 50.564 13.6418 51.3003H24.5558C22.4576 50.2415 20.5228 48.6741 18.8554 46.6448H13.6406V46.6463Z" fill="#0575AD"/>
<path d="M45.5139 28.0659C45.4136 28.0659 45.3194 28.1154 45.2501 28.204L43.6387 30.2497C43.6375 30.2527 43.6364 30.2543 43.6352 30.2557L41.8341 32.543C41.6646 32.759 41.729 33.0155 41.7542 33.089C41.7899 33.197 41.883 33.3799 42.1063 33.3829H42.8963C43.0909 33.3829 43.2735 33.4954 43.3953 33.6844C43.5146 33.8749 43.56 34.1239 43.5146 34.3609C42.8737 37.7971 41.3042 40.9182 39.0984 43.1396C38.3488 43.8924 37.5384 44.5329 36.6826 45.0504H42.925C45.2776 42.0116 46.8042 38.2155 47.3424 34.0534C47.3926 33.6664 47.6588 33.3829 47.9703 33.3829H48.9264C49.1328 33.3799 49.2295 33.2255 49.2713 33.092C49.3226 32.939 49.3274 32.7125 49.1925 32.5415L45.7753 28.2009C45.7085 28.1154 45.6153 28.0659 45.5139 28.0659Z" fill="#0575AD"/>
<mask id="mask1_1_2515" style="mask-type:luminance" maskUnits="userSpaceOnUse" x="14" y="33" width="42" height="21">
<path d="M14.825 33.134H55.8601V53.8681H14.825V33.134Z" fill="white"/>
</mask>
<g mask="url(#mask1_1_2515)">
<path d="M55.7097 48.6456L52.2484 44.362C52.0753 44.1489 51.8712 44.23 51.8127 44.26C51.7256 44.305 51.58 44.4219 51.5776 44.7024V45.8528C51.5776 46.2923 51.2923 46.6492 50.9426 46.6492H31.1532C24.9549 46.6492 19.702 40.9932 18.6517 33.4954L17.9618 34.3713C17.9557 34.3804 17.9498 34.3864 17.9438 34.3939C17.6347 34.7748 17.2277 34.9848 16.7932 34.9848C16.5724 34.9848 16.3575 34.9308 16.1594 34.8288C15.9613 34.7223 15.7798 34.5709 15.6247 34.3729L14.8823 33.4294C15.3502 37.9845 16.977 42.0402 19.3856 45.1329C19.5146 45.2124 19.6208 45.3428 19.6841 45.5063C22.6334 49.1075 26.6725 51.3033 31.152 51.3033H50.9414C51.2911 51.3033 51.5764 51.6603 51.5764 52.0997V53.2606C51.5788 53.5186 51.7029 53.6401 51.8091 53.6925C51.9297 53.7556 52.1112 53.763 52.2472 53.5935L55.7085 49.31C55.779 49.2215 55.8184 49.1045 55.8184 48.977C55.8196 48.851 55.779 48.734 55.7097 48.6456Z" fill="#0575AD"/>
</g>
<mask id="mask2_1_2515" style="mask-type:luminance" maskUnits="userSpaceOnUse" x="0" y="3" width="30" height="31">
<path d="M0.860107 3.95264H29.186V33.5179H0.860107V3.95264Z" fill="white"/>
</mask>
<g mask="url(#mask2_1_2515)">
<path d="M16.7953 33.3859C16.8955 33.3859 16.9886 33.3364 17.0591 33.251C17.0591 33.251 17.0591 33.251 17.0615 33.2494L18.6728 31.2022C18.674 31.2007 18.6752 31.1991 18.6763 31.1977L20.4774 28.9088C20.6469 28.6914 20.5825 28.4364 20.5574 28.3614C20.5216 28.2534 20.4285 28.0705 20.2053 28.0674H19.4152C19.2206 28.0674 19.038 27.955 18.9162 27.7659C18.7969 27.5755 18.7515 27.328 18.7969 27.0895C19.414 23.7808 20.8343 20.8576 22.9015 18.6348C24.6478 16.7585 26.7174 15.5361 28.9506 15.0471L28.2536 14.1832C28.2512 14.1802 28.2476 14.1772 28.2452 14.1742C28.0984 13.9897 27.9826 13.7752 27.9015 13.5443V13.5428L27.9003 13.5413V13.5398V13.5383V13.5368V13.5323L27.8991 13.5307V13.5293L27.8979 13.5263C27.8131 13.2788 27.7689 13.0073 27.7678 12.7284C27.7678 12.7254 27.7678 12.7239 27.7678 12.7239V12.7223V12.7209V12.7148V12.7119C27.7689 12.4359 27.8131 12.1689 27.8943 11.9199C27.9779 11.6739 28.0984 11.4474 28.256 11.2525L29.0043 10.3271C26.3606 10.7635 23.8994 11.9964 21.7915 13.8322H5.41569C3.62532 13.8322 2.16916 12.0069 2.16916 9.76159C2.16916 7.51633 3.62532 5.6895 5.41569 5.6895H6.74294C6.70117 5.43153 6.67968 5.16605 6.67968 4.89308C6.67968 4.6216 6.70117 4.35612 6.74294 4.09814H5.41569C2.92708 4.10115 0.900391 6.64191 0.900391 9.76462C0.900391 12.8873 2.92708 15.4296 5.41569 15.4296H20.1862C17.4851 18.4743 15.5826 22.6395 14.9667 27.3985C14.9165 27.784 14.6503 28.0674 14.3389 28.0674H13.3816V28.069C13.1752 28.0719 13.0784 28.2279 13.0366 28.3584C12.9853 28.5114 12.9805 28.7379 13.1155 28.9088L16.5314 33.2494C16.6007 33.3364 16.6938 33.3859 16.7953 33.3859Z" fill="#0575AD"/>
</g>
<path d="M29.1395 13.0494L30.7735 15.0728C30.7759 15.0757 30.7771 15.0773 30.7795 15.0802L32.6021 17.336C32.7751 17.549 32.9793 17.468 33.0378 17.4365C33.1248 17.3915 33.2705 17.2745 33.2729 16.994V16.0027C33.2729 15.7597 33.3624 15.5302 33.5128 15.3787C33.6656 15.2287 33.8637 15.1717 34.0522 15.2287C36.6913 16.0012 39.0223 17.783 40.7948 20.3763C42.2903 22.5661 43.2667 25.1624 43.6558 27.961L44.3433 27.0882C44.3457 27.0852 44.3481 27.0821 44.3504 27.0791L44.3516 27.0776C44.3528 27.0762 44.354 27.0746 44.3552 27.0732C44.5104 26.8812 44.6906 26.7297 44.8876 26.6307C45.0821 26.5287 45.2934 26.4762 45.5119 26.4762C45.7338 26.4762 45.9486 26.5332 46.1468 26.6352C46.3449 26.7417 46.5275 26.8932 46.6827 27.0911L47.4215 28.0286C46.4858 19.1314 40.9953 11.8916 33.81 10.4262C33.5021 10.3632 33.2753 10.0302 33.2753 9.64027V8.44038C33.2729 8.1824 33.1488 8.0609 33.0437 8.00691C32.922 7.94392 32.7406 7.93642 32.6045 8.10741L31.1388 9.92077C31.1328 9.93122 31.1244 9.9402 31.1161 9.94927L29.1431 12.391C29.0787 12.4705 29.0405 12.5725 29.0345 12.6835C29.0333 12.6955 29.0333 12.7105 29.0333 12.7225C29.0309 12.8455 29.0703 12.9639 29.1395 13.0494Z" fill="#0575AD"/>
<path d="M9.90017 7.34407C10.9768 7.34407 11.8517 6.24768 11.8529 4.8978V4.8948C11.8529 3.54492 10.9768 2.44702 9.90017 2.44702C8.82357 2.44702 7.94629 3.54492 7.94629 4.8948V4.8978C7.94867 6.24768 8.82357 7.34407 9.90017 7.34407Z" fill="#0575AD"/>
<path d="M29.0305 4.8976C29.0305 4.95759 29.0186 5.07158 28.9411 5.17207L25.7028 9.1767C25.5894 9.31769 25.4379 9.31169 25.3376 9.2577C25.2517 9.21569 25.1467 9.11371 25.1455 8.90223V0.900463C25.1479 0.679983 25.2529 0.577993 25.34 0.534497C25.3627 0.520998 25.4152 0.5 25.4772 0.5C25.5465 0.5 25.6277 0.526997 25.7028 0.61699L28.9411 4.62312C29.0198 4.72211 29.0305 4.8376 29.0305 4.8976Z" fill="#0575AD"/>
<path d="M23.8775 4.10136V5.69271H13.0613C13.1019 5.43473 13.1258 5.16926 13.1258 4.89478C13.1258 4.62331 13.1019 4.35783 13.0613 4.09985H23.8775V4.10136Z" fill="#0575AD"/>
</g>
</g>
<defs>
<clipPath id="clip0_1_2515">
<rect width="55" height="55" fill="white" transform="translate(0.860107 0.5)"/>
</clipPath>
<clipPath id="clip1_1_2515">
<rect width="55" height="55" fill="white" transform="translate(0.860107 0.5)"/>
</clipPath>
</defs>
</svg>
