<svg width="56" height="56" viewBox="0 0 56 56" fill="none" xmlns="http://www.w3.org/2000/svg">
<g clip-path="url(#clip0_51_2015)">
<g clip-path="url(#clip1_51_2015)">
<mask id="mask0_51_2015" style="mask-type:luminance" maskUnits="userSpaceOnUse" x="1" y="42" width="12" height="14">
<path d="M1.99023 42.3494H12.6847V55.5001H1.99023V42.3494Z" fill="white"/>
</mask>
<g mask="url(#mask0_51_2015)">
<path d="M7.44108 42.4512C4.57173 42.4512 2.23828 45.3774 2.23828 48.9741C2.23828 52.5723 4.57173 55.4985 7.44108 55.4985C9.50597 55.4985 11.2951 53.9806 12.1331 51.7878C12.4589 50.9344 12.6426 49.982 12.6426 48.9741C12.6426 47.9691 12.4612 47.0138 12.1343 46.1618C11.2963 43.969 9.50716 42.4512 7.44108 42.4512ZM10.3176 47.2642L6.69152 51.8118C6.56977 51.9648 6.40625 52.0428 6.24392 52.0428C6.0816 52.0428 5.91928 51.9648 5.79395 51.8118L4.56099 50.2639C4.31272 49.9534 4.31272 49.448 4.56099 49.1375C4.80806 48.827 5.21029 48.827 5.45855 49.1375L6.24273 50.1215L9.41884 46.1378C9.6671 45.8273 10.0694 45.8273 10.3176 46.1378C10.5647 46.4483 10.5647 46.9537 10.3176 47.2642Z" fill="white"/>
</g>
<path d="M13.6406 46.6463C13.8185 47.3842 13.914 48.1657 13.914 48.9741C13.914 49.7825 13.8185 50.564 13.6418 51.3003H24.5558C22.4576 50.2415 20.5228 48.6741 18.8554 46.6448H13.6406V46.6463Z" fill="white"/>
<path d="M45.5129 28.0659C45.4126 28.0659 45.3184 28.1154 45.2492 28.204L43.6378 30.2497C43.6366 30.2527 43.6354 30.2543 43.6342 30.2557L41.8331 32.543C41.6636 32.759 41.7281 33.0155 41.7532 33.089C41.7889 33.197 41.8821 33.3799 42.1053 33.3829H42.8954C43.09 33.3829 43.2726 33.4954 43.3943 33.6844C43.5136 33.8749 43.559 34.1239 43.5136 34.3609C42.8727 37.7971 41.3032 40.9182 39.0974 43.1396C38.3479 43.8924 37.5374 44.5329 36.6816 45.0504H42.924C45.2766 42.0116 46.8032 38.2155 47.3415 34.0534C47.3916 33.6664 47.6578 33.3829 47.9693 33.3829H48.9254C49.1318 33.3799 49.2285 33.2255 49.2703 33.092C49.3216 32.939 49.3264 32.7125 49.1915 32.5415L45.7743 28.2009C45.7075 28.1154 45.6144 28.0659 45.5129 28.0659Z" fill="white"/>
<mask id="mask1_51_2015" style="mask-type:luminance" maskUnits="userSpaceOnUse" x="14" y="33" width="42" height="21">
<path d="M14.8242 33.134H55.8594V53.8681H14.8242V33.134Z" fill="white"/>
</mask>
<g mask="url(#mask1_51_2015)">
<path d="M55.7083 48.6456L52.2469 44.362C52.0739 44.1489 51.8697 44.23 51.8112 44.26C51.7242 44.305 51.5785 44.4219 51.5761 44.7024V45.8528C51.5761 46.2923 51.2909 46.6492 50.9412 46.6492H31.1517C24.9535 46.6492 19.7005 40.9932 18.6502 33.4954L17.9603 34.3713C17.9543 34.3804 17.9483 34.3864 17.9423 34.3939C17.6332 34.7748 17.2262 34.9848 16.7917 34.9848C16.5709 34.9848 16.3561 34.9308 16.158 34.8288C15.9599 34.7223 15.7784 34.5709 15.6233 34.3729L14.8809 33.4294C15.3487 37.9845 16.9755 42.0402 19.3842 45.1329C19.5131 45.2124 19.6193 45.3428 19.6826 45.5063C22.6319 49.1075 26.671 51.3033 31.1505 51.3033H50.94C51.2897 51.3033 51.5749 51.6603 51.5749 52.0997V53.2606C51.5773 53.5186 51.7014 53.6401 51.8077 53.6925C51.9282 53.7556 52.1097 53.763 52.2458 53.5935L55.7071 49.31C55.7776 49.2215 55.8169 49.1045 55.8169 48.977C55.8181 48.851 55.7776 48.734 55.7083 48.6456Z" fill="white"/>
</g>
<mask id="mask2_51_2015" style="mask-type:luminance" maskUnits="userSpaceOnUse" x="0" y="3" width="30" height="31">
<path d="M0.859375 3.95264H29.1853V33.5179H0.859375V3.95264Z" fill="white"/>
</mask>
<g mask="url(#mask2_51_2015)">
<path d="M16.7953 33.3859C16.8955 33.3859 16.9886 33.3364 17.0591 33.251C17.0591 33.251 17.0591 33.251 17.0615 33.2494L18.6728 31.2022C18.674 31.2007 18.6752 31.1991 18.6763 31.1977L20.4774 28.9088C20.6469 28.6914 20.5825 28.4364 20.5574 28.3614C20.5216 28.2534 20.4285 28.0705 20.2053 28.0674H19.4152C19.2206 28.0674 19.038 27.955 18.9162 27.7659C18.7969 27.5755 18.7515 27.328 18.7969 27.0895C19.414 23.7808 20.8343 20.8576 22.9015 18.6348C24.6478 16.7585 26.7174 15.5361 28.9506 15.0471L28.2536 14.1832C28.2512 14.1802 28.2476 14.1772 28.2452 14.1742C28.0984 13.9897 27.9826 13.7752 27.9015 13.5443V13.5428L27.9003 13.5413V13.5398V13.5383V13.5368V13.5323L27.8991 13.5307V13.5293L27.8979 13.5263C27.8131 13.2788 27.7689 13.0073 27.7678 12.7284C27.7678 12.7254 27.7678 12.7239 27.7678 12.7239V12.7223V12.7209V12.7148V12.7119C27.7689 12.4359 27.8131 12.1689 27.8943 11.9199C27.9779 11.6739 28.0984 11.4474 28.256 11.2525L29.0043 10.3271C26.3606 10.7635 23.8994 11.9964 21.7915 13.8322H5.41569C3.62532 13.8322 2.16916 12.0069 2.16916 9.76159C2.16916 7.51633 3.62532 5.6895 5.41569 5.6895H6.74294C6.70117 5.43153 6.67968 5.16605 6.67968 4.89308C6.67968 4.6216 6.70117 4.35612 6.74294 4.09814H5.41569C2.92708 4.10115 0.900391 6.64191 0.900391 9.76462C0.900391 12.8873 2.92708 15.4296 5.41569 15.4296H20.1862C17.4851 18.4743 15.5826 22.6395 14.9667 27.3985C14.9165 27.784 14.6503 28.0674 14.3389 28.0674H13.3816V28.069C13.1752 28.0719 13.0784 28.2279 13.0366 28.3584C12.9853 28.5114 12.9805 28.7379 13.1155 28.9088L16.5314 33.2494C16.6007 33.3364 16.6938 33.3859 16.7953 33.3859Z" fill="white"/>
</g>
<path d="M29.1395 13.0494L30.7735 15.0728C30.7759 15.0757 30.7771 15.0773 30.7795 15.0802L32.6021 17.336C32.7751 17.549 32.9793 17.468 33.0378 17.4365C33.1248 17.3915 33.2705 17.2745 33.2729 16.994V16.0027C33.2729 15.7597 33.3624 15.5302 33.5128 15.3787C33.6656 15.2287 33.8637 15.1717 34.0522 15.2287C36.6913 16.0012 39.0223 17.783 40.7948 20.3763C42.2903 22.5661 43.2667 25.1624 43.6558 27.961L44.3433 27.0882C44.3457 27.0852 44.3481 27.0821 44.3504 27.0791L44.3516 27.0776C44.3528 27.0762 44.354 27.0746 44.3552 27.0732C44.5104 26.8812 44.6906 26.7297 44.8876 26.6307C45.0821 26.5287 45.2934 26.4762 45.5119 26.4762C45.7338 26.4762 45.9486 26.5332 46.1468 26.6352C46.3449 26.7417 46.5275 26.8932 46.6827 27.0911L47.4215 28.0286C46.4858 19.1314 40.9953 11.8916 33.81 10.4262C33.5021 10.3632 33.2753 10.0302 33.2753 9.64027V8.44038C33.2729 8.1824 33.1488 8.0609 33.0437 8.00691C32.922 7.94392 32.7406 7.93642 32.6045 8.10741L31.1388 9.92077C31.1328 9.93122 31.1244 9.9402 31.1161 9.94927L29.1431 12.391C29.0787 12.4705 29.0405 12.5725 29.0345 12.6835C29.0333 12.6955 29.0333 12.7105 29.0333 12.7225C29.0309 12.8455 29.0703 12.9639 29.1395 13.0494Z" fill="white"/>
<path d="M9.8992 7.34407C10.9758 7.34407 11.8507 6.24768 11.8519 4.8978V4.8948C11.8519 3.54492 10.9758 2.44702 9.8992 2.44702C8.82259 2.44702 7.94531 3.54492 7.94531 4.8948V4.8978C7.9477 6.24768 8.82259 7.34407 9.8992 7.34407Z" fill="white"/>
<path d="M29.0295 4.8976C29.0295 4.95759 29.0176 5.07158 28.9401 5.17207L25.7019 9.1767C25.5885 9.31769 25.4369 9.31169 25.3367 9.2577C25.2507 9.21569 25.1457 9.11371 25.1445 8.90223V0.900463C25.1469 0.679983 25.252 0.577993 25.339 0.534497C25.3617 0.520998 25.4142 0.5 25.4763 0.5C25.5456 0.5 25.6267 0.526997 25.7019 0.61699L28.9401 4.62312C29.0188 4.72211 29.0295 4.8376 29.0295 4.8976Z" fill="white"/>
<path d="M23.8768 4.10136V5.69271H13.0605C13.1012 5.43473 13.1251 5.16926 13.1251 4.89478C13.1251 4.62331 13.1012 4.35783 13.0605 4.09985H23.8768V4.10136Z" fill="white"/>
</g>
</g>
<defs>
<clipPath id="clip0_51_2015">
<rect width="55" height="55" fill="white" transform="translate(0.859375 0.5)"/>
</clipPath>
<clipPath id="clip1_51_2015">
<rect width="55" height="55" fill="white" transform="translate(0.859375 0.5)"/>
</clipPath>
</defs>
</svg>
