<svg width="57" height="56" viewBox="0 0 57 56" fill="none" xmlns="http://www.w3.org/2000/svg">
<g clip-path="url(#clip0_1_2503)">
<g clip-path="url(#clip1_1_2503)">
<mask id="mask0_1_2503" style="mask-type:luminance" maskUnits="userSpaceOnUse" x="0" y="0" width="56" height="56">
<path d="M0.864746 0.5H55.8647V55.5H0.864746V0.5Z" fill="white"/>
</mask>
<g mask="url(#mask0_1_2503)">
<path d="M49.9733 39.7862C49.9733 39.9154 49.9485 40.0411 49.8972 40.1621C49.8475 40.2813 49.7762 40.3889 49.6852 40.48C49.5925 40.5727 49.4865 40.644 49.3656 40.6935C49.2464 40.7432 49.1206 40.7681 48.9897 40.7681H5.77593C5.64513 40.7681 5.52094 40.7432 5.40006 40.6935C5.27918 40.644 5.17321 40.5727 5.08214 40.48C4.98942 40.3889 4.91822 40.2813 4.86854 40.1621C4.81886 40.0411 4.79403 39.9154 4.79403 39.7862V12.2862C4.79403 12.1554 4.81886 12.0296 4.86854 11.9103C4.91822 11.7895 4.98942 11.6834 5.08214 11.5908C5.17321 11.4996 5.27918 11.4285 5.40006 11.3788C5.52094 11.3291 5.64513 11.3043 5.77593 11.3043H8.72331C9.33597 9.83222 10.197 8.52249 11.3064 7.375H4.79403C4.53572 7.375 4.28072 7.39984 4.02737 7.45117C3.77404 7.50084 3.52897 7.57536 3.29053 7.6747C3.0521 7.7724 2.82525 7.89327 2.61165 8.03733C2.39639 8.17973 2.19769 8.34366 2.01555 8.5258C1.83341 8.70794 1.67114 8.90664 1.52707 9.12024C1.38468 9.3355 1.2638 9.56235 1.16445 9.80078C1.0651 10.0392 0.990589 10.2843 0.940914 10.5376C0.89124 10.791 0.864746 11.046 0.864746 11.3043V42.7319C0.864746 42.9903 0.89124 43.2452 0.940914 43.4985C0.990589 43.7519 1.0651 43.9969 1.16445 44.2354C1.2638 44.4739 1.38468 44.7007 1.52707 44.9143C1.67114 45.1296 1.83341 45.3282 2.01555 45.5103C2.19769 45.6925 2.39639 45.8548 2.61165 45.9988C2.82525 46.1413 3.0521 46.2621 3.29053 46.3615C3.52897 46.4608 3.77404 46.5354 4.02737 46.5851C4.28072 46.6364 4.53572 46.6612 4.79403 46.6612H49.9733C50.23 46.6612 50.4866 46.6364 50.7383 46.5851C50.9917 46.5354 51.2383 46.4608 51.4768 46.3615C51.7136 46.2621 51.9404 46.1413 52.1557 45.9988C52.3693 45.8548 52.568 45.6925 52.7501 45.5103C52.9322 45.3282 53.0962 45.1296 53.2386 44.9143C53.3827 44.7007 53.5035 44.4739 53.6029 44.2354C53.7006 43.9969 53.7751 43.7519 53.8265 43.4985C53.8761 43.2452 53.901 42.9903 53.901 42.7319V36.8388H49.9733V39.7862ZM39.169 44.6957H36.2233V42.7319H39.169V44.6957ZM44.0802 44.6957H41.1328V42.7319H44.0802V44.6957ZM48.9897 44.6957H46.044V42.7319H48.9897V44.6957ZM37.2052 11.3043C37.086 9.94158 36.7581 8.63178 36.2233 7.375H49.9733C50.23 7.375 50.4866 7.39984 50.7383 7.45117C50.9917 7.50084 51.2383 7.57536 51.4768 7.6747C51.7136 7.7724 51.9404 7.89327 52.1557 8.03733C52.3693 8.17973 52.568 8.34366 52.7501 8.5258C52.9322 8.70794 53.0962 8.90664 53.2386 9.12024C53.3827 9.3355 53.5035 9.56235 53.6029 9.80078C53.7006 10.0392 53.7751 10.2843 53.8265 10.5376C53.8761 10.791 53.901 11.046 53.901 11.3043V17.1957H49.9733V12.2862C49.9733 12.1554 49.9485 12.0296 49.8972 11.9103C49.8475 11.7895 49.7762 11.6834 49.6852 11.5908C49.5925 11.4996 49.4865 11.4285 49.3656 11.3788C49.2464 11.3291 49.1206 11.3043 48.9897 11.3043H37.2052ZM37.2052 52.5543V54.5181C37.2052 54.6489 37.1804 54.7731 37.1307 54.894C37.0794 55.0148 37.0098 55.1208 36.9171 55.2119C36.8244 55.3046 36.7184 55.3758 36.5992 55.4255C36.4783 55.4752 36.3525 55.5 36.2233 55.5H18.544C18.4132 55.5 18.289 55.4752 18.1681 55.4255C18.0473 55.3758 17.9413 55.3046 17.8502 55.2119C17.7575 55.1208 17.6863 55.0148 17.6366 54.894C17.5869 54.7731 17.5621 54.6489 17.5621 54.5181V52.5543C17.5621 52.3605 17.5803 52.1685 17.6184 51.9781C17.6565 51.7893 17.7128 51.6054 17.7857 51.4267C17.8602 51.2479 17.9512 51.0773 18.0588 50.9167C18.1665 50.7561 18.2874 50.607 18.4248 50.4696C18.5623 50.3339 18.7112 50.2113 18.8718 50.1037C19.0325 49.9961 19.2014 49.9049 19.3802 49.8321C19.5591 49.7575 19.7445 49.7013 19.9332 49.6632C20.1237 49.6267 20.3141 49.6069 20.5078 49.6069H22.4733V47.6431H32.294V49.6069H34.2578C34.4516 49.6069 34.6436 49.6267 34.8324 49.6632C35.0229 49.7013 35.2067 49.7575 35.3855 49.8321C35.5642 49.9049 35.7348 49.9961 35.8954 50.1037C36.056 50.2113 36.2051 50.3339 36.3425 50.4696C36.4783 50.607 36.6008 50.7561 36.7084 50.9167C36.8161 51.0773 36.9072 51.2479 36.98 51.4267C37.0546 51.6054 37.1108 51.7893 37.1489 51.9781C37.1854 52.1685 37.2052 52.3605 37.2052 52.5543ZM8.72331 16.2138C8.72331 15.828 8.74153 15.4439 8.7796 15.0597C8.81769 14.6755 8.87399 14.2931 8.9485 13.9155C9.02466 13.5364 9.1174 13.1621 9.22999 12.7929C9.34258 12.4236 9.47174 12.061 9.6191 11.7033C9.76815 11.3474 9.93205 10.9996 10.1142 10.6585C10.2963 10.3174 10.4951 9.98787 10.7086 9.66667C10.9239 9.34544 11.1524 9.0358 11.3974 8.73774C11.6425 8.4397 11.9009 8.15324 12.174 7.88003C12.4473 7.60682 12.7337 7.34851 13.0318 7.10345C13.3299 6.85839 13.6395 6.62988 13.9607 6.41462C14.2819 6.20102 14.6114 6.00232 14.9525 5.82018C15.2936 5.63804 15.6413 5.47411 15.9974 5.32509C16.355 5.17771 16.7177 5.04856 17.0869 4.93596C17.4561 4.82337 17.8303 4.73065 18.2095 4.65447C18.5871 4.57996 18.9696 4.52366 19.3537 4.48557C19.7379 4.4475 20.122 4.42928 20.5078 4.42928C20.6386 4.42928 20.7645 4.45412 20.8837 4.50379C21.0046 4.55347 21.1105 4.62467 21.2033 4.71574C21.2943 4.80846 21.3655 4.91444 21.4152 5.03532C21.4649 5.15453 21.4897 5.28038 21.4897 5.41119V15.2319H31.3121C31.4429 15.2319 31.5671 15.2568 31.688 15.3065C31.8088 15.3561 31.9148 15.4273 32.0059 15.52C32.0986 15.6111 32.1698 15.7187 32.2195 15.8379C32.2692 15.9588 32.294 16.0846 32.294 16.2138C32.294 16.5996 32.2758 16.9854 32.2378 17.3696C32.1996 17.7538 32.1433 18.1346 32.0672 18.5138C31.9926 18.8929 31.8983 19.2655 31.7873 19.6348C31.6747 20.0057 31.5439 20.3683 31.3965 20.7243C31.2492 21.0803 31.0836 21.4297 30.9031 21.7708C30.7209 22.1102 30.5223 22.4414 30.3071 22.7626C30.0934 23.0838 29.8633 23.3935 29.6182 23.6916C29.3732 23.9896 29.1149 24.2744 28.8416 24.5476C28.5684 24.8208 28.2836 25.0791 27.9855 25.3242C27.6875 25.5693 27.3779 25.7994 27.0567 26.013C26.7354 26.2283 26.4043 26.427 26.0648 26.6091C25.7237 26.7896 25.3743 26.9552 25.0183 27.1026C24.6623 27.2499 24.2997 27.3807 23.9288 27.4934C23.5595 27.6043 23.187 27.6986 22.8078 27.7731C22.4286 27.8493 22.0477 27.9056 21.6636 27.9437C21.2795 27.9818 20.8936 28 20.5078 28C20.122 28 19.7379 27.9818 19.3537 27.9437C18.9696 27.9056 18.5871 27.8493 18.2095 27.7731C17.8303 27.6986 17.4561 27.6043 17.0869 27.4934C16.7177 27.3807 16.355 27.2499 15.9974 27.1026C15.6413 26.9552 15.2936 26.7896 14.9525 26.6091C14.6114 26.427 14.2819 26.2283 13.9607 26.013C13.6395 25.7994 13.3299 25.5693 13.0318 25.3242C12.7337 25.0791 12.4473 24.8208 12.174 24.5476C11.9009 24.2744 11.6425 23.9896 11.3974 23.6916C11.1524 23.3935 10.9239 23.0838 10.7086 22.7626C10.4951 22.4414 10.2963 22.1102 10.1142 21.7708C9.93205 21.4297 9.76815 21.0803 9.6191 20.7243C9.47174 20.3683 9.34258 20.0057 9.22999 19.6348C9.1174 19.2655 9.02466 18.8929 8.9485 18.5138C8.87399 18.1346 8.81769 17.7538 8.7796 17.3696C8.74153 16.9854 8.72331 16.5996 8.72331 16.2138ZM23.4552 12.2862V1.48191C23.4552 1.3511 23.48 1.22691 23.5297 1.10603C23.5794 0.985158 23.6506 0.879185 23.7416 0.788114C23.8344 0.695387 23.9404 0.624187 24.0613 0.574512C24.1821 0.524838 24.3063 0.5 24.4371 0.5C24.8229 0.5 25.2088 0.518214 25.5929 0.556298C25.977 0.594383 26.3579 0.650681 26.7354 0.726848C27.1146 0.801362 27.4888 0.895743 27.8581 1.00668C28.2273 1.11928 28.59 1.25009 28.9476 1.39746C29.3036 1.54483 29.6529 1.71041 29.9925 1.8909C30.3336 2.07304 30.663 2.27173 30.9843 2.48699C31.3055 2.7006 31.6152 2.93075 31.9132 3.17582C32.2113 3.42089 32.4977 3.67919 32.7709 3.9524C33.0441 4.22562 33.3025 4.51042 33.5475 4.80846C33.7925 5.10652 34.0227 5.41781 34.2363 5.73738C34.4516 6.05861 34.6486 6.38978 34.8307 6.72923C35.0129 7.07033 35.1785 7.41971 35.3258 7.77571C35.4732 8.13172 35.6024 8.49434 35.7149 8.86524C35.8276 9.2345 35.9203 9.60706 35.9965 9.98622C36.071 10.3654 36.1273 10.7462 36.1654 11.1304C36.2034 11.5146 36.2233 11.9004 36.2233 12.2862C36.2233 12.4154 36.1985 12.5412 36.1472 12.6621C36.0975 12.7813 36.0262 12.8889 35.9352 12.98C35.8425 13.0727 35.7365 13.144 35.6156 13.1935C35.4964 13.2432 35.3706 13.2681 35.2397 13.2681H24.4371C24.3063 13.2681 24.1821 13.2432 24.0613 13.1935C23.9404 13.144 23.8344 13.0727 23.7416 12.98C23.6506 12.8889 23.5794 12.7813 23.5297 12.6621C23.48 12.5412 23.4552 12.4154 23.4552 12.2862ZM38.1871 26.0362C38.3179 26.0362 38.4421 26.0611 38.563 26.1107C38.6838 26.1603 38.7898 26.2316 38.8809 26.3227C38.9736 26.4154 39.0448 26.5213 39.0945 26.6422C39.1442 26.7631 39.169 26.8873 39.169 27.0181V32.9112H33.276V27.0181C33.276 26.8873 33.3008 26.7631 33.3504 26.6422C33.4001 26.5213 33.4713 26.4154 33.5641 26.3227C33.6551 26.2316 33.7627 26.1603 33.882 26.1107C34.0029 26.0611 34.1287 26.0362 34.2578 26.0362H38.1871ZM53.901 18.1793C54.0318 18.1793 54.1559 18.2041 54.2768 18.2538C54.3977 18.3035 54.5037 18.3746 54.5964 18.4658C54.6875 18.5584 54.7587 18.6645 54.8083 18.7853C54.858 18.9046 54.8828 19.0304 54.8828 19.1612V32.9112H48.9897V19.1612C48.9897 19.0304 49.0146 18.9046 49.0659 18.7853C49.1156 18.6645 49.1868 18.5584 49.2779 18.4658C49.3706 18.3746 49.4766 18.3035 49.5974 18.2538C49.7167 18.2041 49.8425 18.1793 49.9733 18.1793H53.901ZM46.044 22.1069C46.1748 22.1069 46.2991 22.1318 46.4199 22.1815C46.5408 22.2311 46.6467 22.3023 46.7379 22.395C46.8305 22.4861 46.9018 22.5937 46.9515 22.7129C47.0011 22.8339 47.026 22.9596 47.026 23.0888V32.9112H41.1328V23.0888C41.1328 22.9596 41.1577 22.8339 41.2073 22.7129C41.2587 22.5937 41.3282 22.4861 41.4209 22.395C41.5137 22.3023 41.6197 22.2311 41.7389 22.1815C41.8597 22.1318 41.9856 22.1069 42.1147 22.1069H46.044ZM55.8647 33.8931V35.8569H32.294V33.8931H55.8647ZM16.5802 31.9293H8.72331V29.9638H16.5802V31.9293ZM8.72331 33.8931H16.5802V35.8569H8.72331V33.8931Z" fill="#0575AD"/>
</g>
</g>
</g>
<defs>
<clipPath id="clip0_1_2503">
<rect width="55.91" height="55" fill="white" transform="translate(0.409912 0.5)"/>
</clipPath>
<clipPath id="clip1_1_2503">
<rect width="55.9167" height="55" fill="white" transform="translate(0.406494 0.5)"/>
</clipPath>
</defs>
</svg>
