<svg width="57" height="56" viewBox="0 0 57 56" fill="none" xmlns="http://www.w3.org/2000/svg">
<g clip-path="url(#clip0_51_2002)">
<g clip-path="url(#clip1_51_2002)">
<g clip-path="url(#clip2_51_2002)">
<mask id="mask0_51_2002" style="mask-type:luminance" maskUnits="userSpaceOnUse" x="0" y="0" width="56" height="56">
<path d="M0.865234 0.5H55.8652V55.5H0.865234V0.5Z" fill="white"/>
</mask>
<g mask="url(#mask0_51_2002)">
<path d="M49.9738 39.7862C49.9738 39.9154 49.949 40.0412 49.8976 40.1621C49.848 40.2813 49.7767 40.3889 49.6857 40.48C49.5929 40.5727 49.487 40.644 49.3661 40.6935C49.2469 40.7432 49.121 40.7681 48.9902 40.7681H5.77642C5.64561 40.7681 5.52142 40.7432 5.40055 40.6935C5.27967 40.644 5.1737 40.5727 5.08263 40.48C4.9899 40.3889 4.91871 40.2813 4.86902 40.1621C4.81935 40.0412 4.79452 39.9154 4.79452 39.7862V12.2862C4.79452 12.1554 4.81935 12.0296 4.86902 11.9103C4.91871 11.7895 4.9899 11.6834 5.08263 11.5908C5.1737 11.4996 5.27967 11.4285 5.40055 11.3788C5.52142 11.3291 5.64561 11.3043 5.77642 11.3043H8.7238C9.33645 9.83222 10.1975 8.52249 11.3069 7.375H4.79452C4.53621 7.375 4.28121 7.39984 4.02786 7.45117C3.77452 7.50084 3.52946 7.57536 3.29102 7.6747C3.05258 7.7724 2.82574 7.89327 2.61214 8.03733C2.39687 8.17973 2.19818 8.34366 2.01604 8.5258C1.83389 8.70794 1.67163 8.90664 1.52756 9.12024C1.38517 9.3355 1.26429 9.56235 1.16494 9.80078C1.06559 10.0392 0.991077 10.2843 0.941402 10.5376C0.891728 10.791 0.865234 11.046 0.865234 11.3043V42.7319C0.865234 42.9903 0.891728 43.2452 0.941402 43.4985C0.991077 43.7519 1.06559 43.9969 1.16494 44.2354C1.26429 44.4739 1.38517 44.7007 1.52756 44.9143C1.67163 45.1296 1.83389 45.3282 2.01604 45.5104C2.19818 45.6925 2.39687 45.8548 2.61214 45.9988C2.82574 46.1413 3.05258 46.2621 3.29102 46.3615C3.52946 46.4608 3.77452 46.5354 4.02786 46.5851C4.28121 46.6364 4.53621 46.6612 4.79452 46.6612H49.9738C50.2305 46.6612 50.4871 46.6364 50.7388 46.5851C50.9921 46.5354 51.2388 46.4608 51.4773 46.3615C51.7141 46.2621 51.9409 46.1413 52.1562 45.9988C52.3698 45.8548 52.5684 45.6925 52.7506 45.5104C52.9327 45.3282 53.0967 45.1296 53.2391 44.9143C53.3832 44.7007 53.504 44.4739 53.6034 44.2354C53.7011 43.9969 53.7756 43.7519 53.8269 43.4985C53.8766 43.2452 53.9015 42.9903 53.9015 42.7319V36.8388H49.9738V39.7862ZM39.1695 44.6957H36.2238V42.7319H39.1695V44.6957ZM44.0807 44.6957H41.1333V42.7319H44.0807V44.6957ZM48.9902 44.6957H46.0445V42.7319H48.9902V44.6957ZM37.2057 11.3043C37.0865 9.94158 36.7586 8.63178 36.2238 7.375H49.9738C50.2305 7.375 50.4871 7.39984 50.7388 7.45117C50.9921 7.50084 51.2388 7.57536 51.4773 7.6747C51.7141 7.7724 51.9409 7.89327 52.1562 8.03733C52.3698 8.17973 52.5684 8.34366 52.7506 8.5258C52.9327 8.70794 53.0967 8.90664 53.2391 9.12024C53.3832 9.3355 53.504 9.56235 53.6034 9.80078C53.7011 10.0392 53.7756 10.2843 53.8269 10.5376C53.8766 10.791 53.9015 11.046 53.9015 11.3043V17.1957H49.9738V12.2862C49.9738 12.1554 49.949 12.0296 49.8976 11.9103C49.848 11.7895 49.7767 11.6834 49.6857 11.5908C49.5929 11.4996 49.487 11.4285 49.3661 11.3788C49.2469 11.3291 49.121 11.3043 48.9902 11.3043H37.2057ZM37.2057 52.5543V54.5181C37.2057 54.6489 37.1809 54.7731 37.1312 54.894C37.0799 55.0148 37.0103 55.1208 36.9176 55.2119C36.8249 55.3046 36.7189 55.3758 36.5997 55.4255C36.4788 55.4752 36.353 55.5 36.2238 55.5H18.5445C18.4137 55.5 18.2895 55.4752 18.1686 55.4255C18.0478 55.3758 17.9418 55.3046 17.8507 55.2119C17.758 55.1208 17.6868 55.0148 17.6371 54.894C17.5874 54.7731 17.5626 54.6489 17.5626 54.5181V52.5543C17.5626 52.3605 17.5808 52.1685 17.6189 51.9781C17.657 51.7893 17.7133 51.6055 17.7862 51.4267C17.8607 51.2479 17.9517 51.0773 18.0593 50.9167C18.167 50.7561 18.2879 50.607 18.4253 50.4696C18.5628 50.3338 18.7117 50.2113 18.8723 50.1037C19.033 49.9961 19.2019 49.9049 19.3807 49.8321C19.5596 49.7575 19.745 49.7013 19.9337 49.6632C20.1242 49.6267 20.3146 49.6069 20.5083 49.6069H22.4738V47.6431H32.2945V49.6069H34.2583C34.4521 49.6069 34.6441 49.6267 34.8329 49.6632C35.0234 49.7013 35.2071 49.7575 35.386 49.8321C35.5647 49.9049 35.7353 49.9961 35.8959 50.1037C36.0565 50.2113 36.2056 50.3338 36.343 50.4696C36.4788 50.607 36.6013 50.7561 36.7089 50.9167C36.8166 51.0773 36.9077 51.2479 36.9805 51.4267C37.0551 51.6055 37.1113 51.7893 37.1494 51.9781C37.1859 52.1685 37.2057 52.3605 37.2057 52.5543ZM8.7238 16.2138C8.7238 15.828 8.74201 15.4439 8.78009 15.0597C8.81818 14.6755 8.87448 14.2931 8.94899 13.9155C9.02515 13.5364 9.11788 13.1621 9.23048 12.7929C9.34307 12.4236 9.47223 12.061 9.61958 11.7033C9.76863 11.3474 9.93253 10.9996 10.1147 10.6585C10.2968 10.3174 10.4956 9.98787 10.7091 9.66667C10.9244 9.34544 11.1529 9.0358 11.3979 8.73774C11.643 8.4397 11.9014 8.15324 12.1745 7.88003C12.4478 7.60682 12.7342 7.34851 13.0322 7.10345C13.3303 6.85839 13.64 6.62988 13.9612 6.41462C14.2824 6.20102 14.6119 6.00232 14.953 5.82018C15.2941 5.63804 15.6418 5.47411 15.9978 5.32509C16.3555 5.17771 16.7182 5.04856 17.0874 4.93596C17.4566 4.82337 17.8308 4.73065 18.21 4.65447C18.5876 4.57996 18.97 4.52366 19.3542 4.48558C19.7384 4.4475 20.1225 4.42928 20.5083 4.42928C20.6391 4.42928 20.765 4.45412 20.8842 4.50379C21.005 4.55347 21.111 4.62467 21.2038 4.71574C21.2948 4.80846 21.366 4.91444 21.4157 5.03532C21.4654 5.15453 21.4902 5.28038 21.4902 5.41119V15.2319H31.3126C31.4434 15.2319 31.5676 15.2568 31.6885 15.3065C31.8093 15.3561 31.9153 15.4273 32.0064 15.52C32.0991 15.6111 32.1703 15.7187 32.22 15.8379C32.2697 15.9589 32.2945 16.0846 32.2945 16.2138C32.2945 16.5996 32.2763 16.9854 32.2382 17.3696C32.2001 17.7538 32.1438 18.1346 32.0677 18.5138C31.9931 18.8929 31.8988 19.2655 31.7878 19.6348C31.6752 20.0057 31.5444 20.3683 31.397 20.7243C31.2497 21.0803 31.0841 21.4297 30.9036 21.7708C30.7214 22.1102 30.5228 22.4414 30.3076 22.7626C30.0939 23.0838 29.8638 23.3935 29.6187 23.6916C29.3737 23.9896 29.1153 24.2744 28.8421 24.5476C28.5689 24.8208 28.2841 25.0791 27.986 25.3242C27.688 25.5693 27.3784 25.7994 27.0572 26.013C26.7359 26.2283 26.4048 26.427 26.0653 26.6091C25.7242 26.7896 25.3748 26.9552 25.0188 27.1026C24.6628 27.2499 24.3002 27.3807 23.9293 27.4934C23.56 27.6043 23.1874 27.6986 22.8083 27.7731C22.4291 27.8493 22.0482 27.9056 21.6641 27.9437C21.28 27.9818 20.8941 28 20.5083 28C20.1225 28 19.7384 27.9818 19.3542 27.9437C18.97 27.9056 18.5876 27.8493 18.21 27.7731C17.8308 27.6986 17.4566 27.6043 17.0874 27.4934C16.7182 27.3807 16.3555 27.2499 15.9978 27.1026C15.6418 26.9552 15.2941 26.7896 14.953 26.6091C14.6119 26.427 14.2824 26.2283 13.9612 26.013C13.64 25.7994 13.3303 25.5693 13.0322 25.3242C12.7342 25.0791 12.4478 24.8208 12.1745 24.5476C11.9014 24.2744 11.643 23.9896 11.3979 23.6916C11.1529 23.3935 10.9244 23.0838 10.7091 22.7626C10.4956 22.4414 10.2968 22.1102 10.1147 21.7708C9.93253 21.4297 9.76863 21.0803 9.61958 20.7243C9.47223 20.3683 9.34307 20.0057 9.23048 19.6348C9.11788 19.2655 9.02515 18.8929 8.94899 18.5138C8.87448 18.1346 8.81818 17.7538 8.78009 17.3696C8.74201 16.9854 8.7238 16.5996 8.7238 16.2138ZM23.4557 12.2862V1.48191C23.4557 1.3511 23.4805 1.22691 23.5302 1.10603C23.5799 0.985158 23.6511 0.879185 23.7421 0.788114C23.8349 0.695387 23.9409 0.624187 24.0618 0.574512C24.1826 0.524838 24.3068 0.5 24.4376 0.5C24.8234 0.5 25.2092 0.518214 25.5934 0.556298C25.9775 0.594383 26.3584 0.650681 26.7359 0.726848C27.1151 0.801362 27.4893 0.895743 27.8586 1.00668C28.2278 1.11928 28.5905 1.25009 28.9481 1.39746C29.3041 1.54483 29.6534 1.71041 29.993 1.89089C30.3341 2.07304 30.6635 2.27173 30.9848 2.48699C31.306 2.7006 31.6156 2.93075 31.9137 3.17582C32.2118 3.42089 32.4982 3.67919 32.7714 3.9524C33.0446 4.22562 33.303 4.51042 33.548 4.80846C33.793 5.10652 34.0232 5.41781 34.2368 5.73738C34.4521 6.05861 34.6491 6.38978 34.8312 6.72923C35.0134 7.07033 35.179 7.41971 35.3263 7.77571C35.4737 8.13172 35.6029 8.49434 35.7154 8.86524C35.8281 9.2345 35.9208 9.60706 35.9969 9.98622C36.0715 10.3654 36.1278 10.7462 36.1659 11.1304C36.2039 11.5146 36.2238 11.9004 36.2238 12.2862C36.2238 12.4154 36.199 12.5412 36.1476 12.6621C36.098 12.7813 36.0267 12.8889 35.9357 12.98C35.8429 13.0727 35.737 13.144 35.6161 13.1935C35.4969 13.2432 35.371 13.2681 35.2402 13.2681H24.4376C24.3068 13.2681 24.1826 13.2432 24.0618 13.1935C23.9409 13.144 23.8349 13.0727 23.7421 12.98C23.6511 12.8889 23.5799 12.7813 23.5302 12.6621C23.4805 12.5412 23.4557 12.4154 23.4557 12.2862ZM38.1876 26.0362C38.3184 26.0362 38.4426 26.0611 38.5635 26.1107C38.6843 26.1603 38.7903 26.2316 38.8814 26.3227C38.9741 26.4154 39.0453 26.5213 39.095 26.6422C39.1447 26.7631 39.1695 26.8873 39.1695 27.0181V32.9112H33.2765V27.0181C33.2765 26.8873 33.3013 26.7631 33.3509 26.6422C33.4006 26.5213 33.4718 26.4154 33.5646 26.3227C33.6556 26.2316 33.7632 26.1603 33.8825 26.1107C34.0034 26.0611 34.1291 26.0362 34.2583 26.0362H38.1876ZM53.9015 18.1793C54.0323 18.1793 54.1564 18.2041 54.2773 18.2538C54.3982 18.3035 54.5042 18.3746 54.5968 18.4658C54.688 18.5584 54.7592 18.6645 54.8088 18.7853C54.8585 18.9046 54.8833 19.0304 54.8833 19.1612V32.9112H48.9902V19.1612C48.9902 19.0304 49.0151 18.9046 49.0664 18.7853C49.1161 18.6645 49.1873 18.5584 49.2783 18.4658C49.3711 18.3746 49.4771 18.3035 49.5979 18.2538C49.7172 18.2041 49.843 18.1793 49.9738 18.1793H53.9015ZM46.0445 22.1069C46.1753 22.1069 46.2995 22.1318 46.4204 22.1815C46.5413 22.2311 46.6472 22.3023 46.7384 22.395C46.831 22.4861 46.9023 22.5937 46.9519 22.7129C47.0016 22.8339 47.0265 22.9596 47.0265 23.0888V32.9112H41.1333V23.0888C41.1333 22.9596 41.1581 22.8339 41.2078 22.7129C41.2592 22.5937 41.3287 22.4861 41.4214 22.395C41.5142 22.3023 41.6201 22.2311 41.7394 22.1815C41.8602 22.1318 41.9861 22.1069 42.1152 22.1069H46.0445ZM55.8652 33.8931V35.8569H32.2945V33.8931H55.8652ZM16.5807 31.9293H8.7238V29.9638H16.5807V31.9293ZM8.7238 33.8931H16.5807V35.8569H8.7238V33.8931Z" fill="white"/>
</g>
</g>
</g>
</g>
<defs>
<clipPath id="clip0_51_2002">
<rect width="55.91" height="55" fill="white" transform="translate(0.410156 0.5)"/>
</clipPath>
<clipPath id="clip1_51_2002">
<rect width="55.91" height="55" fill="white" transform="translate(0.410156 0.5)"/>
</clipPath>
<clipPath id="clip2_51_2002">
<rect width="55.9167" height="55" fill="white" transform="translate(0.40625 0.5)"/>
</clipPath>
</defs>
</svg>
