<svg width="66" height="65" viewBox="0 0 66 65" fill="none" xmlns="http://www.w3.org/2000/svg">
<rect x="0.5" width="65" height="65" rx="8" fill="#00D280" fill-opacity="0.2"/>
<g clip-path="url(#clip0_1_2388)">
<g clip-path="url(#clip1_1_2388)">
<g clip-path="url(#clip2_1_2388)">
<mask id="mask0_1_2388" style="mask-type:luminance" maskUnits="userSpaceOnUse" x="35" y="24" width="17" height="29">
<path d="M35.0322 24.366H51.6585V52.0993H35.0322V24.366Z" fill="white"/>
</mask>
<g mask="url(#mask0_1_2388)">
<path d="M50.9138 44.0086C51.1225 43.8135 51.283 43.589 51.3962 43.3353C51.5084 43.0815 51.566 42.8173 51.5678 42.5428V35.6553C51.5678 35.4628 51.5391 35.2738 51.4825 35.089C51.4259 34.9034 51.3424 34.729 51.2338 34.565C51.1253 34.4019 50.9944 34.2551 50.8414 34.1257C50.6892 33.9953 50.5195 33.8874 50.3348 33.802L44.3931 31.0354C44.1212 30.9128 43.8355 30.8437 43.5339 30.8264C43.2333 30.81 42.9402 30.8472 42.6553 30.9386V26.513C42.6553 26.3766 42.6405 26.2419 42.6126 26.1081C42.5839 25.9752 42.5412 25.8448 42.4855 25.7188C42.4299 25.5937 42.3612 25.4737 42.2795 25.3606C42.1979 25.2475 42.1061 25.1422 42.0021 25.0464C41.8991 24.9497 41.7859 24.8642 41.6644 24.7883C41.5429 24.7124 41.4148 24.6484 41.2794 24.5967C41.1439 24.544 41.0047 24.5051 40.8618 24.4784C40.718 24.4516 40.5733 24.4387 40.4267 24.4387C40.2801 24.4387 40.1354 24.4516 39.9925 24.4784C39.8487 24.5051 39.7095 24.544 39.5741 24.5967C39.4386 24.6484 39.3106 24.7124 39.189 24.7883C39.0674 24.8642 38.9542 24.9497 38.8513 25.0464C38.7474 25.1422 38.6555 25.2475 38.5738 25.3606C38.4932 25.4737 38.4245 25.5937 38.3679 25.7188C38.3122 25.8448 38.2695 25.9752 38.2417 26.1081C38.2129 26.2419 38.199 26.3766 38.199 26.513V33.4281C37.9996 33.366 37.7955 33.3297 37.5857 33.3203C37.3761 33.3108 37.1691 33.3272 36.9641 33.3712C36.76 33.4152 36.5652 33.4843 36.3815 33.5784C36.1977 33.6733 36.0308 33.789 35.8814 33.9263C35.6726 34.1179 35.5111 34.3398 35.3979 34.5909C35.2847 34.843 35.2281 35.1054 35.2281 35.3781V42.5428C35.2291 42.8173 35.2866 43.0815 35.3998 43.3353C35.513 43.589 35.6735 43.8135 35.8814 44.0086L36.7136 44.7829V45.1843H35.9704C35.8721 45.1834 35.7765 45.2007 35.6847 45.2352C35.5938 45.2698 35.513 45.3198 35.4434 45.3846C35.3729 45.4502 35.32 45.5252 35.282 45.6099C35.2449 45.6953 35.2264 45.7842 35.2281 45.8757V51.4081C35.2264 51.4995 35.2449 51.5885 35.282 51.6739C35.32 51.7585 35.3729 51.8336 35.4434 51.8992C35.513 51.964 35.5938 52.014 35.6847 52.0486C35.7765 52.0831 35.8721 52.1004 35.9704 52.0995H50.8246C50.9239 52.1004 51.0186 52.0831 51.1105 52.0486C51.2023 52.014 51.283 51.964 51.3526 51.8992C51.4222 51.8336 51.476 51.7585 51.5131 51.6739C51.5502 51.5885 51.5688 51.4995 51.5678 51.4081V45.8757C51.5688 45.7842 51.5502 45.6953 51.5131 45.6099C51.476 45.5252 51.4222 45.4502 51.3526 45.3846C51.283 45.3198 51.2023 45.2698 51.1105 45.2352C51.0186 45.2007 50.9239 45.1834 50.8246 45.1843H50.0824V44.7829L50.9138 44.0086ZM38.9413 49.3337C38.8429 49.3337 38.7483 49.3157 38.6573 49.2811C38.5664 49.2457 38.4857 49.1956 38.4162 49.1309C38.3466 49.0662 38.2927 48.991 38.2556 48.9065C38.2176 48.8219 38.199 48.7338 38.199 48.6415C38.199 48.5499 38.2176 48.4619 38.2556 48.3773C38.2927 48.2927 38.3466 48.2176 38.4162 48.1529C38.4857 48.0881 38.5664 48.0381 38.6573 48.0027C38.7483 47.9682 38.8429 47.95 38.9413 47.95C39.0396 47.95 39.1343 47.9682 39.2252 48.0027C39.317 48.0381 39.3969 48.0881 39.4664 48.1529C39.536 48.2176 39.5898 48.2927 39.6279 48.3773C39.665 48.4619 39.6845 48.5499 39.6845 48.6415C39.6854 48.7338 39.6668 48.8228 39.6297 48.9073C39.5926 48.9927 39.5388 49.0679 39.4683 49.1326C39.3986 49.1982 39.318 49.2474 39.2271 49.2829C39.1352 49.3173 39.0405 49.3346 38.9413 49.3337ZM49.8597 43.0271L48.8196 44.0086C48.6685 44.139 48.5942 44.3004 48.597 44.4928V45.1843H38.199V44.4928C38.2009 44.3004 38.1267 44.139 37.9754 44.0086L36.9362 43.0271C36.7851 42.8959 36.7108 42.7344 36.7136 42.5428V35.3781C36.7146 35.1917 36.7841 35.0303 36.9214 34.8948C37.0281 34.7973 37.1552 34.736 37.3019 34.7092C37.4485 34.6833 37.5914 34.6962 37.7296 34.748C37.8678 34.8007 37.98 34.8845 38.0645 34.9984C38.1498 35.1132 38.1944 35.2392 38.199 35.3781V38.9605C38.199 39.052 38.2176 39.1401 38.2556 39.2255C38.2927 39.3101 38.3466 39.3844 38.4162 39.45C38.4857 39.5147 38.5664 39.5648 38.6573 39.5993C38.7483 39.6347 38.8429 39.6519 38.9413 39.6519C39.0396 39.6519 39.1343 39.6347 39.2252 39.5993C39.317 39.5648 39.3969 39.5147 39.4664 39.45C39.536 39.3844 39.5898 39.3101 39.6279 39.2255C39.665 39.1401 39.6845 39.052 39.6845 38.9605V26.513C39.6845 26.4215 39.703 26.3335 39.7411 26.2489C39.7782 26.1634 39.832 26.0891 39.9015 26.0244C39.9711 25.9596 40.0519 25.9096 40.1428 25.8743C40.2337 25.8388 40.3284 25.8216 40.4267 25.8216C40.5251 25.8216 40.6196 25.8388 40.7106 25.8743C40.8025 25.9096 40.8822 25.9596 40.9518 26.0244C41.0214 26.0891 41.0753 26.1634 41.1133 26.2489C41.1504 26.3335 41.1698 26.4215 41.1698 26.513V38.9605C41.1698 39.052 41.1885 39.1401 41.2264 39.2255C41.2636 39.3101 41.3174 39.3844 41.387 39.45C41.4566 39.5147 41.5373 39.5648 41.6282 39.5993C41.7192 39.6347 41.8138 39.6519 41.9121 39.6519C42.0104 39.6519 42.1051 39.6347 42.197 39.5993C42.2879 39.5648 42.3677 39.5147 42.4373 39.45C42.5069 39.3844 42.5606 39.3101 42.5987 39.2255C42.6358 39.1401 42.6553 39.052 42.6553 38.9605V32.9025C42.6534 32.7816 42.685 32.6677 42.7481 32.5615C42.8121 32.4554 42.8993 32.3707 43.0115 32.3077C43.122 32.2447 43.2417 32.2111 43.3715 32.2059C43.5015 32.2007 43.624 32.2257 43.7389 32.2801L44.1407 32.4605V34.811C44.1407 34.9034 44.1593 34.9915 44.1973 35.0761C44.2344 35.1607 44.2883 35.2357 44.3579 35.3005C44.4274 35.3652 44.5081 35.4153 44.5991 35.4507C44.69 35.4852 44.7846 35.5034 44.8829 35.5034C44.9813 35.5034 45.0769 35.4852 45.1678 35.4507C45.2587 35.4153 45.3386 35.3652 45.4081 35.3005C45.4777 35.2357 45.5315 35.1607 45.5696 35.0761C45.6067 34.9915 45.6262 34.9034 45.6262 34.811V33.1519L47.1115 33.8434V36.1948C47.1115 36.2863 47.1301 36.3744 47.1681 36.4589C47.2053 36.5435 47.2591 36.6186 47.3287 36.6834C47.3983 36.7481 47.4789 36.7982 47.5699 36.8336C47.6609 36.868 47.7555 36.8862 47.8538 36.8862C47.9521 36.8862 48.0478 36.868 48.1387 36.8336C48.2296 36.7982 48.3094 36.7481 48.379 36.6834C48.4485 36.6186 48.5023 36.5435 48.5404 36.4589C48.5785 36.3744 48.597 36.2863 48.597 36.1948V34.5348L49.6816 35.0467C49.8069 35.1028 49.9052 35.1857 49.9775 35.2961C50.0509 35.4058 50.0852 35.5258 50.0824 35.6553V42.5428C50.0852 42.7344 50.011 42.8959 49.8597 43.0271Z" fill="#00D280"/>
</g>
<path d="M52.9178 24.8073C52.8965 24.6744 52.8389 24.5561 52.7434 24.4551C52.6487 24.3532 52.5318 24.2833 52.3926 24.2454L50.8822 23.8345C50.6437 23.0247 50.3014 22.2539 49.8551 21.5228L50.6113 20.2383C50.6809 20.12 50.7106 19.9932 50.7003 19.8585C50.691 19.7238 50.6428 19.6021 50.5565 19.4942C49.8208 18.5714 48.9579 17.7678 47.967 17.0833C47.8501 17.003 47.7192 16.9581 47.5755 16.9486C47.4307 16.94 47.2944 16.9676 47.1673 17.0315L45.7876 17.735C45.0026 17.3207 44.1751 17.0021 43.3048 16.7794L42.8632 15.3732C42.8223 15.2438 42.7481 15.135 42.6385 15.0461C42.5291 14.958 42.4029 14.9037 42.26 14.8838C41.0381 14.7129 39.8171 14.7129 38.5952 14.8838C38.4523 14.9037 38.3261 14.958 38.2166 15.0461C38.108 15.135 38.0329 15.2438 37.9921 15.3732L37.5514 16.7794C36.6802 17.0021 35.8526 17.3207 35.0676 17.735L33.688 17.0315C33.5609 16.9659 33.4245 16.9383 33.2798 16.9477C33.135 16.9564 33.0042 17.0021 32.8882 17.0833C31.8982 17.7678 31.0354 18.5714 30.2997 19.4942C30.2124 19.6021 30.1642 19.7238 30.1549 19.8585C30.1447 19.9932 30.1744 20.12 30.244 20.2383L31.0002 21.5228C30.5548 22.2539 30.2124 23.0247 29.973 23.8345L28.4635 24.2454C28.3244 24.2833 28.2074 24.3532 28.1119 24.4542C28.0163 24.5561 27.9579 24.6735 27.9365 24.8073C27.7555 25.9441 27.7555 27.0819 27.9365 28.2187C27.9579 28.3525 28.0163 28.4699 28.1119 28.5718C28.2074 28.6736 28.3244 28.7435 28.4635 28.7807L29.973 29.1916C30.2124 30.0021 30.5548 30.7729 31.0002 31.5041L30.244 32.7885C30.1744 32.9068 30.1447 33.0328 30.1549 33.1675C30.1642 33.3022 30.2124 33.4239 30.2997 33.5327C30.8239 34.1896 31.4158 34.7886 32.0745 35.3298C32.1488 35.3911 32.2323 35.4361 32.326 35.4663C32.4188 35.4965 32.5143 35.5085 32.6136 35.5025C32.7119 35.4973 32.8047 35.474 32.8938 35.4335C32.982 35.3937 33.059 35.3385 33.1249 35.2703C33.1897 35.2012 33.2389 35.1236 33.2705 35.0364C33.302 34.9491 33.3151 34.8603 33.3094 34.7687C33.3029 34.6773 33.2779 34.5901 33.2343 34.5072C33.1916 34.4252 33.1323 34.3536 33.059 34.2931C32.596 33.9134 32.1701 33.4999 31.7814 33.0544L32.5059 31.8235C32.57 31.7147 32.6006 31.5982 32.5969 31.4739C32.5941 31.3496 32.557 31.2339 32.4874 31.1286C31.9391 30.3077 31.5485 29.4264 31.3137 28.4854C31.2832 28.3628 31.2219 28.2567 31.13 28.1652C31.0372 28.0737 30.9268 28.0107 30.7978 27.9761L29.3468 27.5816C29.266 26.8695 29.266 26.1573 29.3468 25.4453L30.7978 25.0508C30.9268 25.0153 31.0372 24.9523 31.13 24.8608C31.2219 24.7702 31.2832 24.6631 31.3137 24.5415C31.5485 23.5996 31.9391 22.7192 32.4874 21.8983C32.557 21.7921 32.5941 21.6773 32.5969 21.553C32.6006 21.4287 32.57 21.3113 32.5059 21.2026L31.7814 19.9724C32.2656 19.4165 32.8057 18.9133 33.4013 18.4618L34.7234 19.1377C34.8412 19.1964 34.9666 19.2249 35.1002 19.2214C35.2338 19.2189 35.3571 19.1843 35.4712 19.1196C36.3527 18.6094 37.2981 18.2452 38.3094 18.0276C38.4412 17.9991 38.5562 17.9422 38.6536 17.8567C38.752 17.7704 38.8198 17.6668 38.8568 17.546L39.2799 16.1967C40.0454 16.1216 40.8099 16.1216 41.5753 16.1967L41.9984 17.546C42.0365 17.6668 42.1042 17.7704 42.2016 17.8567C42.2999 17.9422 42.414 17.9991 42.5458 18.0276C43.5571 18.2452 44.5035 18.6094 45.3849 19.1196C45.4981 19.1852 45.6215 19.2197 45.7551 19.2232C45.8897 19.2258 46.0149 19.1973 46.1317 19.1377L47.4549 18.4618C48.0505 18.9124 48.5905 19.4157 49.0748 19.9707L48.3492 21.2026C48.2852 21.3113 48.2555 21.4287 48.2583 21.553C48.2621 21.6773 48.2982 21.7921 48.3687 21.8983C48.9171 22.7183 49.3076 23.5996 49.5424 24.5415C49.5721 24.6631 49.6324 24.7702 49.7252 24.8608C49.817 24.9523 49.9275 25.0153 50.0573 25.0508L51.5076 25.4453C51.5873 26.1573 51.5873 26.8695 51.5076 27.5816L50.0573 27.9761C49.9275 28.0107 49.817 28.0737 49.7252 28.1652C49.6324 28.2567 49.5721 28.3628 49.5424 28.4854C49.381 29.1345 49.1426 29.7587 48.8252 30.3569C48.7816 30.4398 48.7566 30.5269 48.75 30.6185C48.7435 30.7099 48.7557 30.7997 48.7872 30.8869C48.8188 30.9741 48.8679 31.0517 48.9328 31.1217C48.9978 31.1908 49.0748 31.2451 49.1639 31.2857C49.252 31.3263 49.3457 31.3496 49.445 31.3556C49.5433 31.3608 49.6398 31.3496 49.7326 31.3194C49.8263 31.2892 49.9098 31.2443 49.9841 31.183C50.0583 31.1217 50.1168 31.05 50.1604 30.9671C50.461 30.3966 50.7013 29.8044 50.8822 29.1916L52.3926 28.7807C52.5318 28.7427 52.6487 28.6736 52.7434 28.5718C52.8389 28.4699 52.8965 28.3525 52.9178 28.2187C53.0996 27.0819 53.1006 25.9441 52.9178 24.8073Z" fill="#00D280"/>
<path d="M45.2019 29.8777C45.2873 29.9234 45.3782 29.9518 45.4756 29.964C45.573 29.9761 45.6695 29.97 45.7651 29.9467C45.8597 29.9234 45.9469 29.8837 46.0249 29.8276C46.1037 29.7723 46.1678 29.705 46.2169 29.6264C46.3189 29.4615 46.4127 29.2933 46.498 29.1215C46.5834 28.9489 46.6604 28.7736 46.7281 28.594C46.7968 28.4153 46.8561 28.2341 46.9063 28.0502C46.9564 27.8664 46.9981 27.6808 47.0297 27.4934C47.0621 27.3053 47.0854 27.117 47.0983 26.928C47.1123 26.7382 47.116 26.5491 47.1113 26.3592C47.1067 26.1693 47.0919 25.9803 47.0686 25.792C47.0446 25.603 47.012 25.4157 46.9703 25.2301C46.9276 25.0445 46.8765 24.8606 46.8172 24.6793C46.7569 24.4981 46.6882 24.3194 46.6103 24.1442C46.5333 23.969 46.447 23.7972 46.3524 23.6288C46.2577 23.4606 46.1557 23.2965 46.0453 23.1368C45.9339 22.978 45.8161 22.8235 45.6908 22.6742C45.5646 22.5248 45.432 22.3807 45.2919 22.2425C45.1518 22.1044 45.0061 21.9724 44.853 21.8472C44.7 21.7212 44.5413 21.6029 44.3771 21.4907C44.2129 21.3785 44.0431 21.2731 43.8677 21.1756C43.6933 21.078 43.5142 20.9883 43.3305 20.9054C43.1468 20.8234 42.9594 20.7492 42.7683 20.6827C42.5772 20.6162 42.3841 20.5575 42.1875 20.5075C41.9908 20.4583 41.7913 20.4168 41.5908 20.3832C41.3905 20.3504 41.1882 20.3262 40.985 20.3098C40.7818 20.2943 40.5786 20.2873 40.3745 20.2891C40.1704 20.2899 39.9672 20.3003 39.7649 20.3193C39.5617 20.3383 39.3604 20.3659 39.16 20.4013C38.9596 20.4376 38.7619 20.4824 38.5662 20.5351C38.3705 20.5877 38.1774 20.649 37.9872 20.7181C37.798 20.7871 37.6114 20.8648 37.4296 20.9494C37.2478 21.0349 37.0696 21.1272 36.8971 21.2283C36.7236 21.3284 36.5556 21.4354 36.3933 21.5502C36.2309 21.665 36.0741 21.7859 35.9238 21.9136C35.7726 22.0414 35.6287 22.1761 35.4915 22.3159C35.3541 22.4557 35.2233 22.6016 35.1008 22.7527C34.9775 22.9047 34.8615 23.0608 34.7538 23.2214C34.6462 23.3828 34.547 23.5477 34.4551 23.7178C34.3633 23.887 34.2806 24.0604 34.2055 24.2374C34.1313 24.4135 34.0654 24.5931 34.0088 24.7752C33.9522 24.9573 33.904 25.1421 33.865 25.3285C33.826 25.5149 33.7963 25.7023 33.7769 25.8913C33.7565 26.0795 33.7453 26.2694 33.7434 26.4594C33.7416 26.6492 33.749 26.8382 33.7657 27.0273C33.7824 27.2163 33.8084 27.4045 33.8446 27.5918C33.8798 27.7783 33.9234 27.9639 33.9772 28.1469C34.0311 28.3299 34.0932 28.5103 34.1647 28.6882C34.2361 28.866 34.3159 29.0403 34.4041 29.2113C34.4921 29.3821 34.5887 29.5496 34.6935 29.7119C34.7984 29.875 34.9106 30.033 35.0312 30.1867C35.1519 30.3395 35.279 30.4871 35.4145 30.6295C35.4794 30.6986 35.5564 30.7529 35.6445 30.7935C35.7336 30.8341 35.8263 30.8574 35.9247 30.8626C36.023 30.8686 36.1196 30.8565 36.2124 30.8263C36.306 30.797 36.3896 30.7513 36.4628 30.6908C36.5371 30.6304 36.5955 30.5587 36.6391 30.4758C36.6828 30.3938 36.7069 30.3067 36.7134 30.2151C36.7189 30.1237 36.706 30.0338 36.6744 29.9476C36.6419 29.8604 36.5937 29.7827 36.5278 29.7136C36.4239 29.6032 36.3246 29.4884 36.2309 29.3692C36.1372 29.2501 36.05 29.1275 35.9683 29.0006C35.8876 28.8737 35.8124 28.7442 35.7438 28.6113C35.6752 28.4783 35.613 28.3429 35.5573 28.2047C35.5026 28.0658 35.4534 27.9259 35.4126 27.7835C35.3708 27.641 35.3365 27.4969 35.3087 27.3519C35.2818 27.2069 35.2613 27.0601 35.2483 26.9134C35.2354 26.7666 35.2289 26.619 35.2308 26.4714C35.2317 26.3238 35.2409 26.1771 35.2567 26.0303C35.2725 25.8836 35.2957 25.7377 35.3253 25.5927C35.356 25.4476 35.3931 25.3043 35.4376 25.1628C35.4812 25.0212 35.5323 24.8814 35.5907 24.7441C35.6483 24.6069 35.7131 24.4722 35.7846 24.341C35.8551 24.2089 35.9331 24.0803 36.0165 23.9551C36.101 23.83 36.1901 23.7083 36.2866 23.5909C36.3822 23.4735 36.4832 23.3604 36.59 23.2507C36.6967 23.142 36.8089 23.0375 36.9259 22.9383C37.0427 22.839 37.1643 22.7449 37.2914 22.656C37.4176 22.5671 37.5474 22.4833 37.682 22.4057C37.8165 22.3271 37.9548 22.2555 38.0968 22.189C38.2387 22.1225 38.3825 22.063 38.53 22.0094C38.6775 21.9551 38.8278 21.9076 38.98 21.8662C39.1322 21.8256 39.2862 21.7911 39.4421 21.7625C39.597 21.735 39.7538 21.7133 39.9115 21.6987C40.0692 21.684 40.227 21.6763 40.3856 21.6754C40.5443 21.6737 40.702 21.6797 40.8607 21.6918C41.0184 21.7039 41.1752 21.7229 41.331 21.7488C41.4869 21.7738 41.6419 21.8066 41.795 21.8446C41.9481 21.8834 42.0984 21.9292 42.2468 21.981C42.3952 22.0319 42.541 22.0897 42.6839 22.1536C42.8267 22.2184 42.9659 22.2883 43.1013 22.3643C43.2377 22.4393 43.3694 22.5213 43.4975 22.6086C43.6255 22.6957 43.749 22.7881 43.8677 22.8856C43.9865 22.9832 44.0997 23.0851 44.2091 23.1929C44.3177 23.2999 44.4206 23.4113 44.519 23.5279C44.6165 23.6435 44.7083 23.7635 44.7946 23.8879C44.8799 24.0121 44.9597 24.139 45.034 24.2702C45.1072 24.4005 45.1741 24.5343 45.2344 24.6708C45.2947 24.8071 45.3485 24.9452 45.3948 25.0868C45.4422 25.2275 45.4821 25.3699 45.5145 25.5141C45.5471 25.6591 45.573 25.8042 45.5916 25.9509C45.6101 26.0977 45.6212 26.2444 45.625 26.392C45.6287 26.5396 45.6259 26.6864 45.6157 26.834C45.6046 26.9816 45.5869 27.1275 45.5629 27.2733C45.5377 27.4192 45.5053 27.5633 45.4663 27.7066C45.4274 27.8491 45.3819 27.9906 45.329 28.1297C45.2761 28.2686 45.2158 28.405 45.1499 28.5388C45.084 28.6734 45.0108 28.8038 44.9319 28.9316C44.8827 29.011 44.8512 29.0965 44.8382 29.1871C44.8252 29.2786 44.8317 29.3683 44.8568 29.4564C44.8818 29.5453 44.9245 29.6264 44.9839 29.699C45.0442 29.7714 45.1166 29.8311 45.2019 29.8777Z" fill="#00D280"/>
<path d="M19.5014 21.263L20.7011 21.5901C20.7948 21.616 20.8913 21.6238 20.9896 21.6142C21.0871 21.6039 21.1789 21.5771 21.2652 21.5331C21.3524 21.4891 21.4257 21.4321 21.4878 21.3605C21.5491 21.2888 21.5945 21.2094 21.6224 21.1213C21.6493 21.0333 21.6586 20.9435 21.6475 20.8529C21.6372 20.7614 21.6084 20.6759 21.5612 20.5957C21.5139 20.5154 21.4517 20.4463 21.3756 20.3885C21.2986 20.3315 21.2132 20.2892 21.1186 20.2633L20.393 20.0648C20.3671 19.754 20.3671 19.4424 20.393 19.1308L21.1186 18.9322C21.2476 18.8969 21.358 18.8338 21.4508 18.7423C21.5426 18.6517 21.6038 18.5447 21.6335 18.423C21.7736 17.8619 22.0065 17.337 22.3331 16.8476C22.4027 16.7423 22.4398 16.6275 22.4426 16.5032C22.4463 16.3789 22.4157 16.2623 22.3517 16.1536L21.9898 15.5407C22.2078 15.3024 22.4444 15.0823 22.6996 14.8786L23.3592 15.2153C23.4762 15.2748 23.6014 15.3033 23.735 15.3007C23.8686 15.2973 23.9921 15.2627 24.1052 15.1971C24.6303 14.8941 25.1944 14.6766 25.7957 14.5463C25.9274 14.5186 26.0415 14.4617 26.1399 14.3762C26.2382 14.2908 26.306 14.1872 26.344 14.0672L26.5555 13.393C26.8905 13.3688 27.2254 13.3688 27.5604 13.393L27.7729 14.0672C27.8108 14.1872 27.8786 14.2908 27.976 14.3762C28.0744 14.4625 28.1895 14.5186 28.3202 14.5463C28.9224 14.6766 29.4856 14.8941 30.0108 15.198C30.1248 15.2627 30.2482 15.2973 30.3818 15.3007C30.5154 15.3033 30.6407 15.2748 30.7576 15.2153L31.8506 14.6576C31.9378 14.6136 32.0129 14.5566 32.076 14.485C32.1382 14.4133 32.1846 14.3331 32.2124 14.245C32.2412 14.1561 32.2495 14.0663 32.2393 13.974C32.2291 13.8825 32.1994 13.7961 32.1521 13.715C32.1048 13.6339 32.0417 13.5648 31.9647 13.507C31.8868 13.4491 31.8005 13.4077 31.7049 13.3827C31.6093 13.3568 31.5129 13.3499 31.4145 13.3602C31.3162 13.3714 31.2234 13.3991 31.1371 13.4448L30.4097 13.816C29.9856 13.6028 29.5431 13.4319 29.081 13.3041L28.8481 12.5626C28.8073 12.4331 28.7322 12.3235 28.6236 12.2354C28.5142 12.1465 28.388 12.0922 28.2442 12.0723C27.4537 11.9635 26.6632 11.9635 25.8727 12.0723C25.7288 12.0922 25.6027 12.1465 25.4932 12.2354C25.3837 12.3235 25.3095 12.4331 25.2687 12.5626L25.0358 13.3041C24.5737 13.4319 24.1312 13.6028 23.7072 13.816L22.9798 13.4448C22.8527 13.3792 22.7162 13.3507 22.5716 13.3602C22.4268 13.3697 22.296 13.4146 22.18 13.4957C21.5389 13.9394 20.9804 14.4599 20.5044 15.0573C20.4181 15.1652 20.3699 15.2869 20.3596 15.4216C20.3494 15.5562 20.3791 15.6831 20.4487 15.8014L20.8477 16.4781C20.6194 16.8726 20.4366 17.2852 20.2993 17.7151L19.5014 17.9326C19.3632 17.9706 19.2463 18.0397 19.1507 18.1415C19.0561 18.2425 18.9976 18.3599 18.9763 18.4929C18.8575 19.2292 18.8575 19.9655 18.9763 20.701C18.9976 20.8348 19.0551 20.9522 19.1507 21.054C19.2453 21.1559 19.3632 21.2258 19.5014 21.263Z" fill="#00D280"/>
<path d="M27.0587 16.1406C26.8148 16.1406 26.5735 16.1631 26.3342 16.2071C26.0956 16.252 25.8628 16.3176 25.6382 16.4048C25.4128 16.4911 25.1985 16.5981 24.9962 16.7242C24.794 16.8502 24.6065 16.9935 24.434 17.154C24.2614 17.3146 24.1074 17.489 23.9719 17.678C23.8365 17.8662 23.7224 18.0656 23.6286 18.2754C23.5349 18.4851 23.4644 18.7009 23.4171 18.9236C23.3689 19.1463 23.3447 19.3708 23.3447 19.5978C23.3447 19.6893 23.3633 19.7782 23.4013 19.8628C23.4394 19.9474 23.4931 20.0216 23.5627 20.0872C23.6324 20.152 23.7121 20.202 23.803 20.2366C23.8939 20.272 23.9896 20.2892 24.0879 20.2892C24.1862 20.2892 24.2809 20.272 24.3718 20.2366C24.4627 20.202 24.5434 20.152 24.6131 20.0872C24.6827 20.0216 24.7364 19.9474 24.7736 19.8628C24.8115 19.7782 24.8302 19.6893 24.8302 19.5978C24.8302 19.5072 24.8367 19.4174 24.8496 19.3267C24.8626 19.237 24.8812 19.1489 24.9072 19.0609C24.9322 18.9737 24.9628 18.8882 25.0009 18.8045C25.0379 18.7208 25.0806 18.6396 25.1298 18.5611C25.1781 18.4825 25.2319 18.4074 25.2912 18.3358C25.3506 18.2633 25.4147 18.1951 25.4842 18.1312C25.5529 18.0673 25.6253 18.0078 25.7032 17.9525C25.7802 17.8973 25.861 17.8472 25.9454 17.8014C26.0298 17.7566 26.117 17.716 26.207 17.6815C26.2961 17.6469 26.3889 17.6176 26.4826 17.5943C26.5762 17.571 26.6719 17.5528 26.7683 17.5416C26.8648 17.5295 26.9613 17.5235 27.0587 17.5235C27.1561 17.5235 27.2535 17.5295 27.3501 17.5408C27.4466 17.5528 27.5421 17.5701 27.6358 17.5934C27.7296 17.6167 27.8214 17.6461 27.9114 17.6806C28.0014 17.7151 28.0886 17.7548 28.173 17.8006C28.2584 17.8463 28.3503 17.8748 28.4477 17.8869C28.5451 17.899 28.6416 17.893 28.7362 17.8696C28.8318 17.8455 28.9181 17.8058 28.996 17.7505C29.0748 17.6944 29.1379 17.6271 29.1871 17.5477C29.2363 17.4683 29.2679 17.3828 29.2808 17.2922C29.2938 17.2015 29.2873 17.1117 29.2614 17.0237C29.2363 16.9348 29.1936 16.8545 29.1333 16.7811C29.0739 16.7086 29.0016 16.6491 28.9162 16.6033C28.3409 16.2943 27.7221 16.1398 27.0587 16.1406Z" fill="#00D280"/>
<path d="M32.7386 45.1636C32.2468 45.3363 31.7458 45.4779 31.2337 45.5866C31.1019 45.6142 30.9869 45.6712 30.8885 45.7575C30.7902 45.8438 30.7224 45.9465 30.6853 46.0674L30.1203 47.8664C29.0691 47.9777 28.0178 47.9777 26.9666 47.8664L26.4025 46.0674C26.3654 45.9474 26.2977 45.8438 26.1993 45.7575C26.101 45.6712 25.9868 45.6142 25.8551 45.5866C24.5701 45.3104 23.3686 44.8477 22.2487 44.1994C22.1346 44.1347 22.0112 44.1002 21.8776 44.0976C21.744 44.0941 21.6187 44.1226 21.5019 44.1822L19.7418 45.0816C18.9151 44.4687 18.1719 43.7774 17.5132 43.0074L18.4781 41.3672C18.543 41.2584 18.5727 41.142 18.5699 41.0176C18.5662 40.8933 18.5291 40.7777 18.4595 40.6715C17.7646 39.6296 17.2673 38.5108 16.9695 37.3153C16.9398 37.1936 16.8786 37.0865 16.7867 36.996C16.6939 36.9044 16.5835 36.8414 16.4536 36.806L14.5219 36.2794C14.4022 35.3006 14.4022 34.3226 14.5219 33.3437L16.4536 32.8163C16.5835 32.7817 16.6939 32.7187 16.7867 32.6272C16.8786 32.5366 16.9398 32.4295 16.9695 32.3078C17.2673 31.1123 17.7646 29.9935 18.4595 28.9508C18.5301 28.8454 18.5662 28.7298 18.5699 28.6055C18.5727 28.4812 18.543 28.3647 18.4781 28.2559L17.5132 26.6158C18.1719 25.8458 18.9151 25.1544 19.7418 24.5415L21.5019 25.4409C21.6187 25.5005 21.744 25.529 21.8776 25.5256C22.0112 25.523 22.1346 25.4884 22.2487 25.4228C23.3686 24.7754 24.5701 24.3127 25.8551 24.0365C25.9868 24.0081 26.101 23.9519 26.1993 23.8656C26.2977 23.7793 26.3654 23.6757 26.4025 23.5557L26.9666 21.7559C27.4908 21.7006 28.017 21.673 28.5439 21.6722C28.6423 21.6722 28.7369 21.6549 28.8279 21.6195C28.9188 21.585 28.9994 21.5349 29.0691 21.4702C29.1387 21.4054 29.1924 21.3303 29.2296 21.2457C29.2676 21.1611 29.2862 21.0731 29.2862 20.9807C29.2862 20.8892 29.2676 20.8012 29.2296 20.7166C29.1924 20.632 29.1387 20.5569 29.0691 20.4922C28.9994 20.4274 28.9188 20.3774 28.8279 20.342C28.7369 20.3074 28.6423 20.2893 28.5439 20.2893C27.7849 20.2902 27.0306 20.342 26.281 20.4464C26.1372 20.4663 26.011 20.5198 25.9015 20.6087C25.792 20.6976 25.7169 20.8072 25.677 20.9367L25.0962 22.7857C23.9531 23.0689 22.8685 23.4866 21.8442 24.0374L20.0313 23.1111C19.9041 23.0464 19.7678 23.0179 19.623 23.0274C19.4783 23.0369 19.3475 23.0818 19.2315 23.1621C18.0068 24.0081 16.9407 25.0007 16.0324 26.1401C15.9452 26.2489 15.8969 26.3706 15.8867 26.5053C15.8775 26.64 15.9071 26.766 15.9767 26.8843L16.9723 28.5744C16.3803 29.5283 15.9322 30.5374 15.6269 31.6008L13.6396 32.1429C13.5004 32.1801 13.3835 32.2499 13.2879 32.3518C13.1924 32.4537 13.1348 32.5711 13.1135 32.7049C12.8899 34.1093 12.8899 35.5138 13.1135 36.9182C13.1348 37.052 13.1924 37.1694 13.2879 37.2713C13.3835 37.3732 13.5004 37.443 13.6396 37.4802L15.6269 38.0223C15.9322 39.0857 16.3803 40.0948 16.9723 41.0487L15.9767 42.738C15.9071 42.8571 15.8775 42.9831 15.8867 43.1178C15.8969 43.2525 15.9452 43.3742 16.0315 43.4821C16.9407 44.6215 18.0068 45.6142 19.2306 46.4611C19.3475 46.5413 19.4783 46.5862 19.623 46.5957C19.7678 46.6052 19.9041 46.5767 20.0313 46.512L21.8442 45.5857C22.8685 46.1365 23.9531 46.5534 25.0962 46.8374L25.677 48.6864C25.7169 48.8159 25.792 48.9255 25.9015 49.0136C26.0101 49.1025 26.1362 49.1568 26.2801 49.1767C27.7896 49.3864 29.2982 49.3864 30.8078 49.1767C30.9507 49.1568 31.0768 49.1025 31.1863 49.0136C31.2958 48.9255 31.3709 48.8159 31.4109 48.6864L31.9916 46.8374C32.4212 46.7312 32.8452 46.6043 33.2618 46.4576C33.3536 46.4257 33.4363 46.3782 33.5077 46.3152C33.58 46.253 33.6357 46.1796 33.6766 46.0959C33.7174 46.0122 33.7387 45.925 33.7424 45.8335C33.7452 45.742 33.7294 45.6531 33.6951 45.5667C33.6599 45.4813 33.6088 45.4053 33.5421 45.338C33.4743 45.2715 33.3963 45.2189 33.3064 45.1809C33.2164 45.1429 33.1226 45.123 33.0243 45.1196C32.926 45.117 32.8304 45.1317 32.7386 45.1636Z" fill="#00D280"/>
<path d="M25.8703 29.1055C25.9612 29.0692 26.041 29.0174 26.1097 28.9518C26.1784 28.8853 26.2312 28.8094 26.2674 28.7239C26.3036 28.6384 26.3203 28.5496 26.3185 28.458C26.3175 28.3657 26.2962 28.2776 26.2573 28.1939C26.2173 28.1093 26.1616 28.035 26.0902 27.9712C26.0197 27.9082 25.9381 27.8598 25.8453 27.8262C25.7534 27.7925 25.6578 27.777 25.5595 27.7796C25.4602 27.7813 25.3665 27.8011 25.2756 27.8382C25.0121 27.9453 24.756 28.0652 24.5055 28.1973C24.2559 28.3294 24.0147 28.4735 23.7809 28.6298C23.5471 28.7852 23.3235 28.9526 23.1083 29.1305C22.8939 29.3083 22.6898 29.4965 22.4968 29.695C22.3038 29.8927 22.122 30.0999 21.9522 30.3157C21.7824 30.5315 21.6247 30.755 21.4808 30.9864C21.3361 31.2177 21.2053 31.4551 21.0875 31.6994C20.9696 31.9437 20.8666 32.1931 20.7776 32.4478C20.6885 32.7016 20.6134 32.9597 20.553 33.2213C20.4937 33.4837 20.4482 33.7469 20.4185 34.0137C20.3879 34.2796 20.373 34.5463 20.373 34.8138C20.373 35.0815 20.3888 35.3482 20.4185 35.6149C20.4491 35.8808 20.4946 36.1441 20.5549 36.4065C20.6152 36.668 20.6904 36.9261 20.7794 37.18C20.8685 37.4346 20.9724 37.6832 21.0902 37.9275C21.2081 38.1717 21.3389 38.4092 21.4836 38.6405C21.6284 38.8719 21.7861 39.0954 21.9559 39.3112C22.1257 39.5271 22.3075 39.7333 22.5015 39.9319C22.6944 40.1296 22.8985 40.3177 23.1138 40.4955C23.3282 40.6734 23.5527 40.8399 23.7865 40.9953C24.0203 41.1515 24.2615 41.2958 24.512 41.4279C24.7616 41.5599 25.0186 41.679 25.2821 41.7861C25.5455 41.8922 25.8146 41.9863 26.0883 42.0666C26.363 42.1469 26.6404 42.2142 26.9224 42.2668C27.2035 42.3204 27.4875 42.3592 27.7742 42.3842C28.0599 42.4093 28.3466 42.4205 28.6343 42.4179C28.9219 42.4153 29.2085 42.398 29.4934 42.367C29.7792 42.3359 30.0621 42.291 30.3424 42.2315C30.6226 42.1728 30.8991 42.1003 31.1709 42.014C31.4437 41.9285 31.71 41.8292 31.9707 41.717C32.2314 41.6048 32.4856 41.4796 32.7324 41.3432C32.9792 41.206 33.2176 41.0566 33.4478 40.8961C33.5257 40.8408 33.5906 40.7743 33.6407 40.6949C33.6908 40.6164 33.7224 40.5318 33.7363 40.4403C33.7502 40.3496 33.7455 40.2599 33.7205 40.1709C33.6964 40.083 33.6546 40.0018 33.5953 39.9284C33.5359 39.8551 33.4635 39.7946 33.379 39.748C33.2946 39.7014 33.2028 39.6721 33.1054 39.6591C33.008 39.6461 32.9115 39.6513 32.8159 39.6747C32.7213 39.697 32.6341 39.7359 32.5552 39.7911C32.3669 39.9223 32.172 40.0441 31.9697 40.1563C31.7684 40.2685 31.5606 40.3704 31.3472 40.4627C31.1338 40.5542 30.9149 40.6354 30.6921 40.7053C30.4695 40.776 30.2441 40.8348 30.0148 40.8831C29.7848 40.9315 29.5537 40.9678 29.32 40.9936C29.0861 41.0187 28.8523 41.0325 28.6166 41.0351C28.3819 41.0367 28.1472 41.0281 27.9134 41.0074C27.6786 40.9867 27.4467 40.9547 27.2166 40.9107C26.9855 40.8676 26.7583 40.8123 26.5346 40.7467C26.3101 40.6811 26.0902 40.6043 25.875 40.5171C25.6587 40.4291 25.4491 40.3315 25.245 40.2236C25.0399 40.1158 24.8423 39.9975 24.6512 39.8697C24.46 39.7428 24.2763 39.6065 24.101 39.4606C23.9256 39.3147 23.7587 39.161 23.6 38.9996C23.4422 38.8373 23.2929 38.6681 23.1537 38.492C23.0155 38.3151 22.8865 38.1321 22.7677 37.943C22.6499 37.754 22.5423 37.5598 22.4458 37.3595C22.3502 37.1601 22.2648 36.9564 22.1916 36.7483C22.1182 36.5403 22.057 36.3288 22.0079 36.1147C21.9587 35.9007 21.9216 35.6848 21.8965 35.4673C21.8724 35.2498 21.8594 35.0314 21.8594 34.8121C21.8594 34.5938 21.8715 34.3754 21.8965 34.1569C21.9216 33.9395 21.9578 33.7236 22.0069 33.5096C22.0561 33.2955 22.1173 33.084 22.1906 32.876C22.2639 32.6679 22.3483 32.4642 22.4439 32.2648C22.5404 32.0645 22.648 31.8703 22.7658 31.6813C22.8837 31.4914 23.0126 31.3083 23.1519 31.1323C23.2901 30.9553 23.4395 30.7861 23.5972 30.6238C23.7549 30.4624 23.9219 30.3079 24.0973 30.1629C24.2736 30.017 24.4564 29.8806 24.6475 29.7528C24.8386 29.6251 25.0363 29.5068 25.2404 29.399C25.4454 29.291 25.6551 29.1926 25.8703 29.1055Z" fill="#00D280"/>
</g>
</g>
</g>
<defs>
<clipPath id="clip0_1_2388">
<rect width="41" height="40.09" fill="white" transform="translate(12.5 12)"/>
</clipPath>
<clipPath id="clip1_1_2388">
<rect width="41" height="40.09" fill="white" transform="translate(12.5 12)"/>
</clipPath>
<clipPath id="clip2_1_2388">
<rect width="41" height="40.1087" fill="white" transform="translate(12.5 11.9907)"/>
</clipPath>
</defs>
</svg>
