<svg width="66" height="65" viewBox="0 0 66 65" fill="none" xmlns="http://www.w3.org/2000/svg">
<rect x="0.5" width="65" height="65" rx="8" fill="#00D280" fill-opacity="0.2"/>
<g clip-path="url(#clip0_1_2435)">
<g clip-path="url(#clip1_1_2435)">
<g clip-path="url(#clip2_1_2435)">
<path d="M34.5663 48.4916L33.3128 49.8035V32.487C33.3128 32.0931 33.0625 31.8311 32.6861 31.8311C32.3106 31.8311 32.0595 32.0931 32.0595 32.487V49.869L30.806 48.5571C30.5557 48.2951 30.1794 48.2951 29.929 48.5571C29.6786 48.8199 29.6786 49.213 29.929 49.4759L32.248 51.9023C32.4984 52.1652 32.8747 52.1652 33.1251 51.9023L35.4441 49.4759C35.6945 49.213 35.6945 48.8199 35.4441 48.5571C35.1929 48.2295 34.8174 48.2295 34.5663 48.4916Z" fill="#00D280"/>
<mask id="mask0_1_2435" style="mask-type:luminance" maskUnits="userSpaceOnUse" x="12" y="11" width="42" height="29">
<path d="M12.9456 11.9907H53.0543V39.4534H12.9456V11.9907Z" fill="white"/>
</mask>
<g mask="url(#mask0_1_2435)">
<path d="M47.8529 25.9932C49.1063 22.5825 47.6644 19.4338 45.5339 17.728C43.4034 15.9576 40.0813 15.3016 37.199 17.466C34.6922 12.4805 28.3626 10.4472 23.349 13.4648C19.7141 15.6947 17.834 19.8924 18.3981 24.0909C15.202 25.0089 12.9456 28.0921 12.9456 31.5683C12.9456 35.8323 16.2668 39.3086 20.3408 39.3086H26.4191C26.7955 39.3086 27.0459 39.0465 27.0459 38.6526C27.0459 38.2595 26.7955 37.9967 26.4191 37.9967H20.3408C16.9561 37.9967 14.199 35.1109 14.199 31.5683C14.199 28.6825 16.0165 26.1898 18.6484 25.4028C18.8988 26.3208 19.2125 27.1086 19.6515 27.8955C19.8392 28.2231 20.2156 28.2886 20.5285 28.1576C20.8423 27.961 20.9049 27.5672 20.7789 27.2396C18.3355 22.779 19.8392 17.1376 24.0384 14.6457C28.4879 11.9556 34.2533 13.9234 36.2586 18.4495C35.0052 19.8269 34.2533 21.6637 34.2533 23.566C34.2533 23.9599 34.5036 24.2219 34.88 24.2219C35.2563 24.2219 35.5067 23.9599 35.5067 23.566C35.5067 18.7779 40.8332 15.6292 44.782 18.8434C46.6621 20.3518 47.9155 23.304 46.4109 26.3208C46.2231 26.7146 46.4735 27.2396 46.9125 27.3051C49.6704 27.4362 51.8009 29.7978 51.8009 32.6836C51.8009 35.6358 49.4818 38.0622 46.6621 38.0622H39.5799C39.2043 38.0622 38.9531 38.325 38.9531 38.7181C38.9531 39.1121 39.2043 39.3741 39.5799 39.3741H46.6621C50.2337 39.3741 53.0543 36.3572 53.0543 32.6836C53.0543 29.3385 50.7978 26.6491 47.8529 25.9932Z" fill="#00D280"/>
</g>
<path d="M30.1784 43.8344V35.3727C30.1784 34.9796 29.928 34.7168 29.5517 34.7168H26.2304C25.8549 34.7168 25.6038 34.9796 25.6038 35.3727C25.6038 35.7666 25.8549 36.0286 26.2304 36.0286H28.925V43.1785H20.5902L21.8435 41.8666C22.0947 41.6045 22.0947 41.2107 21.8435 40.9486C21.5932 40.6858 21.2169 40.6858 20.9665 40.9486L18.6475 43.375C18.3971 43.6379 18.3971 44.0309 18.6475 44.2938L20.9665 46.7203C21.2169 46.9831 21.5932 46.9831 21.8435 46.7203C22.0947 46.4581 22.0947 46.0643 21.8435 45.8022L20.5902 44.4904H29.4891C29.8654 44.4904 30.1784 44.1628 30.1784 43.8344Z" fill="#00D280"/>
<path d="M46.7243 43.375L44.4053 40.9486C44.155 40.6858 43.7786 40.6858 43.5282 40.9486C43.2771 41.2107 43.2771 41.6045 43.5282 41.8666L44.7816 43.1785H36.446V36.0286H39.1414C39.5169 36.0286 39.768 35.7666 39.768 35.3727C39.768 34.9796 39.5169 34.7168 39.1414 34.7168H35.8193C35.4437 34.7168 35.1926 34.9796 35.1926 35.3727V43.8344C35.1926 44.2283 35.4437 44.4904 35.8193 44.4904H44.7191L43.4656 45.8022C43.2145 46.0643 43.2145 46.4581 43.4656 46.7203C43.716 46.9831 44.0923 46.9831 44.3427 46.7203L46.6618 44.2938C46.9121 44.0309 46.9121 43.6379 46.7243 43.375Z" fill="#00D280"/>
<path d="M22.7222 34.7168C22.3458 34.7168 22.0955 34.9796 22.0955 35.3727C22.0955 35.7666 22.3458 36.0286 22.7222 36.0286H24.2259C24.6023 36.0286 24.8526 35.7666 24.8526 35.3727C24.8526 34.9796 24.6023 34.7168 24.2259 34.7168H22.7222Z" fill="#00D280"/>
<path d="M42.5873 36.0286C42.9636 36.0286 43.2139 35.7666 43.2139 35.3727C43.2139 34.9796 42.9636 34.7168 42.5873 34.7168H41.0835C40.7072 34.7168 40.4568 34.9796 40.4568 35.3727C40.4568 35.7666 40.7072 36.0286 41.0835 36.0286H42.5873Z" fill="#00D280"/>
</g>
</g>
</g>
<defs>
<clipPath id="clip0_1_2435">
<rect width="41" height="40.09" fill="white" transform="translate(12.5 12)"/>
</clipPath>
<clipPath id="clip1_1_2435">
<rect width="41" height="40.09" fill="white" transform="translate(12.5 12)"/>
</clipPath>
<clipPath id="clip2_1_2435">
<rect width="41" height="40.1087" fill="white" transform="translate(12.5 11.9907)"/>
</clipPath>
</defs>
</svg>
