<svg width="47" height="46" viewBox="0 0 47 46" fill="none" xmlns="http://www.w3.org/2000/svg">
<g clip-path="url(#clip0_1_2731)">
<g clip-path="url(#clip1_1_2731)">
<g clip-path="url(#clip2_1_2731)">
<mask id="mask0_1_2731" style="mask-type:luminance" maskUnits="userSpaceOnUse" x="22" y="0" width="3" height="4">
<path d="M22.6494 0.559814H24.4607V3.23732H22.6494V0.559814Z" fill="white"/>
</mask>
<g mask="url(#mask0_1_2731)">
<path d="M23.5619 3.06412C23.8988 3.06412 24.2517 2.80739 24.2517 2.49102V1.12867C24.2517 0.813132 23.8988 0.556396 23.5619 0.556396C23.2249 0.556396 22.8711 0.812304 22.8711 1.12867V2.49102C22.8711 2.80739 23.2249 3.06412 23.5619 3.06412Z" fill="#00D280"/>
</g>
<path d="M28.4897 4.87239C28.6463 4.87239 28.8028 4.81691 28.9213 4.7051L29.9473 3.74193C30.1861 3.51749 30.1861 3.15475 29.9473 2.93114C29.7094 2.70753 29.3229 2.70753 29.085 2.93114L28.059 3.89431C27.8202 4.11875 27.8202 4.48149 28.059 4.7051C28.1775 4.81691 28.3341 4.87239 28.4897 4.87239Z" fill="#00D280"/>
<path d="M18.3368 4.86784C18.4562 4.97964 18.6119 5.03596 18.7684 5.03596C18.9241 5.03596 19.0806 4.97964 19.2 4.86784C19.4379 4.64423 19.4379 4.28149 19.2 4.05788L18.1732 3.0947C17.9353 2.8711 17.5488 2.8711 17.3109 3.0947C17.0721 3.31831 17.0721 3.68106 17.3109 3.90466L18.3368 4.86784Z" fill="#00D280"/>
<path d="M15.4559 11.0572C15.3507 10.5595 15.2976 10.0411 15.2976 9.51683C15.2976 8.93627 15.3648 8.3582 15.4984 7.79835C15.5727 7.48944 15.3657 7.18301 15.0367 7.11345C14.7104 7.04554 14.3813 7.2385 14.3079 7.54741C14.154 8.18925 14.0762 8.8518 14.0762 9.51683C14.0762 10.1156 14.1372 10.7086 14.2584 11.28C14.3159 11.5525 14.5706 11.7413 14.8563 11.7413C14.8952 11.7413 14.935 11.738 14.9757 11.7305C15.3065 11.6693 15.5214 11.3678 15.4559 11.0572Z" fill="#00D280"/>
<path d="M31.9145 12.7359C31.6129 12.5943 31.2459 12.7103 31.0955 12.9935C29.6769 15.6743 26.8158 17.3398 23.63 17.3415C20.4434 17.3398 17.5832 15.6743 16.1636 12.9935C16.0133 12.7103 15.6462 12.5943 15.3455 12.7359C15.0439 12.8767 14.921 13.1914 15.0705 13.4755C16.697 16.5472 19.9738 18.4297 23.6247 18.4297H23.6274H23.6327H23.6345C27.2863 18.4297 30.5631 16.5472 32.1896 13.4755C32.339 13.1914 32.2161 12.8767 31.9145 12.7359Z" fill="#00D280"/>
<path d="M32.9983 11.2807C33.1203 10.7034 33.1831 10.1097 33.1831 9.51667C33.1831 8.85082 33.1044 8.18579 32.9496 7.53981C32.8762 7.2309 32.549 7.0371 32.2209 7.10667C31.8919 7.17624 31.6849 7.48266 31.7592 7.79157C31.8936 8.35474 31.9626 8.93529 31.9626 9.51667C31.9626 10.0343 31.9078 10.5527 31.8008 11.0563C31.7344 11.3668 31.9493 11.6683 32.2801 11.7304C32.3199 11.7378 32.3606 11.7412 32.4004 11.7412C32.6852 11.742 32.9399 11.5532 32.9983 11.2807Z" fill="#00D280"/>
<mask id="mask1_1_2731" style="mask-type:luminance" maskUnits="userSpaceOnUse" x="16" y="20" width="15" height="26">
<path d="M16.7637 20.4104H30.3486V45.5597H16.7637V20.4104Z" fill="white"/>
</mask>
<g mask="url(#mask1_1_2731)">
<path d="M29.5277 20.4666H17.6427C17.2765 20.4666 16.8555 20.8724 16.8555 21.2186V44.8615C16.8555 45.2052 17.2765 45.4669 17.6427 45.4669H29.5277C29.893 45.4669 30.1715 45.2052 30.1715 44.8615V21.2186C30.1715 20.8724 29.8938 20.4666 29.5277 20.4666Z" fill="#00D280"/>
</g>
<path d="M18.9591 9.00633L21.1366 10.5277C21.2984 10.6378 21.3657 10.8515 21.3046 11.0296L20.4724 13.4412C20.3344 13.8396 20.82 14.1758 21.1808 13.929L23.3592 12.4466C23.5201 12.3364 23.7386 12.3373 23.9004 12.4474L26.0779 13.9332C26.4388 14.1791 26.9243 13.8487 26.7863 13.4503L25.9541 11.0469C25.8931 10.8689 25.9603 10.6743 26.1213 10.5641L28.2996 9.00633C28.6605 8.76036 28.4747 8.15164 28.029 8.15164H25.3368C25.1378 8.15164 24.9609 8.1036 24.899 7.92555L24.0676 5.55861C23.9296 5.16025 23.3291 5.17848 23.1911 5.57684L22.3598 7.91644C22.2978 8.09449 22.121 8.15164 21.922 8.15164H19.2297C18.784 8.15164 18.5983 8.76036 18.9591 9.00633Z" fill="#00D280"/>
<mask id="mask2_1_2731" style="mask-type:luminance" maskUnits="userSpaceOnUse" x="1" y="32" width="14" height="14">
<path d="M1.16016 32.4954H14.4983V45.56H1.16016V32.4954Z" fill="white"/>
</mask>
<g mask="url(#mask2_1_2731)">
<path d="M14.488 33.2217C14.488 32.8763 14.1899 32.5964 13.822 32.5964H1.83786C1.46993 32.5964 1.17188 32.8763 1.17188 33.2217V44.9347C1.17188 45.28 1.46993 45.5599 1.83786 45.5599H13.822C14.1899 45.5599 14.488 45.28 14.488 44.9347V33.2217Z" fill="#00D280"/>
</g>
<path d="M6.51339 25.6885C6.61598 25.7589 6.65843 25.8823 6.61952 25.9957L6.33208 26.8264C6.24452 27.079 6.5523 27.2885 6.78137 27.1328L7.53402 26.6194C7.63662 26.5498 7.77547 26.5498 7.87718 26.6194L8.63072 27.1328C8.8589 27.2885 9.16669 27.079 9.08001 26.8264L8.79257 25.9957C8.75366 25.8823 8.79611 25.7589 8.89782 25.6885L9.65136 25.1526C9.88042 24.9969 9.76279 24.6334 9.47978 24.6334H8.54935C8.42288 24.6334 8.31055 24.5804 8.27164 24.4669L7.9842 23.6478C7.89664 23.3952 7.51545 23.401 7.42877 23.6536L7.14045 24.4644C7.10153 24.5771 6.98921 24.6334 6.86274 24.6334H5.93231C5.64929 24.6334 5.53166 24.9969 5.76073 25.1526L6.51339 25.6885Z" fill="#00D280"/>
<path d="M7.70517 30.56C10.6778 30.56 13.095 28.2899 13.095 25.5006C13.095 22.7105 10.6778 20.4412 7.70517 20.4412C4.73348 20.4412 2.31543 22.7113 2.31543 25.5006C2.31543 28.2899 4.73348 30.56 7.70517 30.56ZM7.70517 21.5866C10.0082 21.5866 11.8744 23.3391 11.8744 25.5006C11.8744 27.6622 10.0082 29.4138 7.70517 29.4138C5.40299 29.4138 3.53684 27.6622 3.53684 25.5006C3.53684 23.3391 5.40299 21.5866 7.70517 21.5866Z" fill="#00D280"/>
<mask id="mask3_1_2731" style="mask-type:luminance" maskUnits="userSpaceOnUse" x="32" y="32" width="15" height="14">
<path d="M32.6113 32.4954H46.1599V45.56H32.6113V32.4954Z" fill="white"/>
</mask>
<g mask="url(#mask3_1_2731)">
<path d="M46.149 33.2217C46.149 32.8763 45.8509 32.5964 45.483 32.5964H33.4989C33.131 32.5964 32.833 32.8763 32.833 33.2217V44.9347C32.833 45.28 33.131 45.5599 33.4989 45.5599H45.483C45.8509 45.5599 46.149 45.28 46.149 44.9347V33.2217Z" fill="#00D280"/>
</g>
<path d="M38.2692 25.6885C38.3718 25.7589 38.4142 25.8823 38.3753 25.9957L38.0879 26.8264C38.0003 27.079 38.3081 27.2885 38.5372 27.1328L39.2898 26.6194C39.3924 26.5498 39.5313 26.5498 39.633 26.6194L40.3856 27.1328C40.6147 27.2885 40.9225 27.079 40.8358 26.8264L40.5484 25.9957C40.5086 25.8823 40.5519 25.7589 40.6536 25.6885L41.4072 25.1526C41.6353 24.9969 41.5177 24.6334 41.2356 24.6334H40.3043C40.1778 24.6334 40.0664 24.5804 40.0274 24.4669L39.7391 23.6478C39.6524 23.3952 39.2712 23.401 39.1837 23.6536L38.8962 24.4644C38.8573 24.5771 38.745 24.6334 38.6185 24.6334H37.6881C37.4051 24.6334 37.2875 24.9969 37.5165 25.1526L38.2692 25.6885Z" fill="#00D280"/>
<path d="M39.4611 30.56C42.4328 30.56 44.8508 28.2899 44.8508 25.5006C44.8508 22.7105 42.4328 20.4412 39.4611 20.4412C36.4894 20.4412 34.0713 22.7105 34.0713 25.5006C34.0713 28.2899 36.4894 30.56 39.4611 30.56ZM39.4611 21.5866C41.7641 21.5866 43.6303 23.3391 43.6303 25.5006C43.6303 27.6622 41.7641 29.4138 39.4611 29.4138C37.1589 29.4138 35.2919 27.6622 35.2919 25.5006C35.2919 23.3391 37.1589 21.5866 39.4611 21.5866Z" fill="#00D280"/>
</g>
</g>
</g>
<defs>
<clipPath id="clip0_1_2731">
<rect width="46" height="45" fill="white" transform="translate(0.660156 0.559814)"/>
</clipPath>
<clipPath id="clip1_1_2731">
<rect width="46" height="45" fill="white" transform="translate(0.660156 0.559814)"/>
</clipPath>
<clipPath id="clip2_1_2731">
<rect width="46" height="45" fill="white" transform="translate(0.660156 0.559814)"/>
</clipPath>
</defs>
</svg>
