<svg width="91" height="56" viewBox="0 0 91 56" fill="none" xmlns="http://www.w3.org/2000/svg">
<g clip-path="url(#clip0_51_1975)">
<g clip-path="url(#clip1_51_1975)">
<g clip-path="url(#clip2_51_1975)">
<path d="M31.0453 41.054L26.591 46.7403C25.6471 47.9437 25.912 49.6638 27.1809 50.5618L27.4938 50.7823C28.0067 51.1452 28.6087 51.3197 29.2059 51.3197C30.0847 51.3197 30.9539 50.9407 31.5174 50.2219L35.9717 44.5378C36.9156 43.3344 36.6508 41.6143 35.3818 40.7163L35.0689 40.4959C34.556 40.133 33.954 39.9585 33.3568 39.9585C32.478 39.9585 31.6088 40.3373 31.0453 41.054Z" fill="white"/>
<mask id="mask0_51_1975" style="mask-type:luminance" maskUnits="userSpaceOnUse" x="33" y="46" width="10" height="10">
<path d="M33.2715 46.0239H42.296V55.3642H33.2715V46.0239Z" fill="white"/>
</mask>
<g mask="url(#mask0_51_1975)">
<path d="M36.838 47.0246L33.7993 50.9012C32.9566 51.9761 33.195 53.5124 34.3267 54.314L35.1333 54.8835C35.5908 55.2074 36.1278 55.3635 36.6622 55.3635C37.4472 55.3635 38.2225 55.0259 38.7257 54.3828L41.7619 50.5085C42.6047 49.4314 42.3687 47.895 41.237 47.0957L40.4305 46.524C39.9705 46.2001 39.4361 46.0439 38.9015 46.0439C38.1166 46.0439 37.3388 46.3839 36.838 47.0246Z" fill="white"/>
</g>
<path d="M20.5911 34.3684L19.3656 33.5026C18.9562 33.2109 18.4722 33.0708 17.9931 33.0708C17.2877 33.0708 16.5894 33.3739 16.1391 33.9504L14.0948 36.5593C13.3364 37.5262 13.5507 38.9064 14.5668 39.6253L15.7924 40.4934C16.204 40.7828 16.6857 40.9229 17.1648 40.9229C17.8703 40.9229 18.5685 40.6197 19.0212 40.0433L21.0654 37.4343C21.8215 36.4675 21.6096 35.0873 20.5911 34.3684Z" fill="white"/>
<path d="M29.658 34.7731C29.1091 34.3849 28.4662 34.1965 27.8258 34.1965C26.8867 34.1965 25.9549 34.6031 25.3529 35.3702L19.9185 42.3082C18.9072 43.5966 19.1913 45.4361 20.5494 46.3961C21.0983 46.7842 21.7412 46.9725 22.3792 46.9725C23.2268 46.9725 24.0671 46.6418 24.6667 46.0126C24.7558 45.8679 24.8545 45.7255 24.9628 45.5854L27.544 42.2921L29.4173 39.9013C29.5449 39.7383 29.6869 39.5821 29.8363 39.4374L30.2865 38.861C31.2978 37.5703 31.0136 35.7307 29.658 34.7731Z" fill="white"/>
<mask id="mask1_51_1975" style="mask-type:luminance" maskUnits="userSpaceOnUse" x="0" y="1" width="23" height="29">
<path d="M0.777344 1.44263H22.1225V29.3256H0.777344V1.44263Z" fill="white"/>
</mask>
<g mask="url(#mask1_51_1975)">
<path d="M14.3371 2.40263L1.23379 24.6818C0.817244 25.3869 1.08451 26.2803 1.82611 26.6753L6.35278 29.0775C7.09679 29.4725 8.03584 29.2199 8.44999 28.5149L21.5557 6.23334C21.9698 5.52829 21.7049 4.6372 20.9609 4.2422L16.4343 1.83767C15.6927 1.44495 14.7536 1.69757 14.3371 2.40263Z" fill="white"/>
</g>
<mask id="mask2_51_1975" style="mask-type:luminance" maskUnits="userSpaceOnUse" x="69" y="2" width="21" height="29">
<path d="M69.25 2.67139H89.9643V30.3177H69.25V2.67139Z" fill="white"/>
</mask>
<g mask="url(#mask2_51_1975)">
<path d="M69.4467 7.26462L82.5524 29.5439C82.9665 30.2512 83.9056 30.5015 84.6471 30.1088L89.1738 27.7043C89.9178 27.3115 90.1827 26.4181 89.7686 25.7132L76.6628 3.43391C76.2487 2.72656 75.3097 2.47394 74.5657 2.86895L70.039 5.27349C69.2974 5.6662 69.0301 6.55957 69.4467 7.26462Z" fill="white"/>
</g>
<path d="M74.7927 37.4481C74.8289 36.4192 74.3233 35.4409 73.4588 34.8208L66.6592 29.9245C64.2008 28.2778 61.1357 26.3923 57.5457 24.3185C52.4869 21.3972 47.717 18.8687 45.5066 17.7135C45.1599 17.5321 44.7554 17.4862 44.375 17.5803L41.8901 18.2004C41.5241 18.2899 41.2063 18.5036 40.9945 18.7998L40.992 18.8043C40.3009 19.7644 39.5352 20.6439 38.7119 21.4225C37.7463 22.3343 36.7205 23.0921 35.6659 23.6731C34.3994 24.3713 33.0968 24.8123 31.7918 24.9822C31.5029 25.0189 31.2115 25.0373 30.9274 25.0373C29.9041 25.0373 28.9505 24.7893 28.1704 24.3162C27.1688 23.7122 26.5284 22.8257 26.314 21.7555C26.0684 20.5154 26.4056 19.1007 27.347 17.4287C28.0092 16.2506 28.8374 15.1735 29.4394 14.3858C29.5887 14.1929 29.7162 14.0275 29.8198 13.8897C30.234 13.327 30.7204 12.684 31.2621 12.0133C31.4017 11.8411 31.2548 11.5953 31.0285 11.6207C29.8873 11.7447 27.306 11.623 23.2441 9.2322C22.8853 9.01862 22.4086 9.13574 22.2015 9.48713L10.9451 28.6269C10.7091 29.0265 10.7669 29.5272 11.0871 29.8716L14.0727 33.0616C14.1137 33.1052 14.1594 33.1442 14.21 33.1787L14.511 32.7975C14.9203 32.2738 15.4644 31.8444 16.0809 31.5596C16.6731 31.2841 17.3353 31.1393 17.9951 31.1393C18.4526 31.1393 18.9028 31.206 19.3339 31.3392C19.7841 31.477 20.2031 31.6836 20.5834 31.9524L21.8066 32.8181C22.2761 33.1511 22.6638 33.56 22.9576 34.04C23.0274 34.1525 23.09 34.2673 23.1478 34.3844C23.2248 34.5406 23.4487 34.5636 23.5571 34.4257L23.7184 34.2168C24.2024 33.6013 24.8404 33.096 25.5652 32.7607C26.2635 32.4369 27.058 32.2647 27.8189 32.2647C28.3534 32.2647 28.8904 32.3451 29.3984 32.5013C29.9258 32.6643 30.4217 32.9055 30.8696 33.2224C31.421 33.6128 31.8761 34.0951 32.2228 34.6577C32.5551 35.1997 32.7741 35.79 32.8705 36.4123C32.9355 36.8441 32.9427 37.2758 32.8874 37.7054C32.8657 37.8798 33.0102 38.0337 33.1956 38.0268C33.2509 38.0268 33.3063 38.0246 33.3617 38.0246C33.8697 38.0246 34.385 38.1026 34.8738 38.2519C35.3819 38.4081 35.8538 38.6423 36.2824 38.9454L36.5953 39.166C38.1292 40.2499 38.8057 42.0298 38.5 43.7086C38.4615 43.9222 38.6371 44.1151 38.866 44.1127C38.8779 44.1127 38.89 44.1127 38.902 44.1127C39.386 44.1127 39.8628 44.184 40.3202 44.3264C40.797 44.4711 41.24 44.6915 41.6421 44.974L42.4487 45.5459C44.4858 46.9882 44.9095 49.7257 43.3926 51.6617L42.9953 52.1693C42.8075 52.408 42.8509 52.7502 43.1037 52.9271C43.1494 52.957 43.1976 52.9822 43.2482 53.0006C44.1534 53.306 52.8818 56.1216 55.3473 52.1693C55.5086 51.9097 55.4003 51.5721 55.1138 51.4412L46.973 47.6587C46.4819 47.429 46.2266 46.8986 46.3854 46.4025C46.501 46.0396 46.8333 45.7112 47.6375 45.6791C47.7242 45.6768 47.8085 45.6951 47.8832 45.7319L56.2575 49.8818C57.1965 50.348 58.2655 50.5432 59.3178 50.4192C60.606 50.2677 62.0098 49.636 62.1325 47.6358C62.1662 47.1098 61.8797 46.6137 61.4029 46.3474L50.9531 40.5646C50.5461 40.3395 50.3271 39.8963 50.4041 39.4553C50.4764 39.0396 50.7099 38.6193 51.3528 38.5964C51.5622 38.5895 51.7693 38.6423 51.9499 38.7433L62.9295 44.804C63.481 45.1095 64.1117 45.2565 64.7498 45.2289C65.8478 45.1807 67.4489 44.8638 68.0822 43.5065C68.6384 42.3123 68.1496 40.909 66.9698 40.2385L54.95 33.3855C54.5937 33.1833 54.3866 32.809 54.4131 32.4163C54.4492 31.8995 54.7261 31.3139 55.8409 31.4839C55.9782 31.5045 56.1083 31.5504 56.2262 31.6171L69.8808 39.3496C70.8945 39.9238 72.1394 40.0203 73.2253 39.5771C74.0343 39.2486 74.7519 38.624 74.7927 37.4481Z" fill="white"/>
<path d="M79.7836 29.1049L68.3875 9.72852C68.2961 9.57465 68.1059 9.50115 67.9276 9.55168C67.109 9.78364 66.0856 10.0179 65.9364 10.0363C65.4957 10.0868 65.0551 10.1121 64.6121 10.1121C63.1121 10.1121 61.612 9.82957 60.1962 9.36796C56.8926 8.28855 52.7874 7.97852 49.1275 7.97852C46.4163 7.97852 43.9507 8.14847 42.2316 8.30234C40.8158 8.42865 39.4386 8.52741 38.066 8.91324C36.7755 9.2738 35.6727 10.1098 34.7722 11.0353C34.5339 11.281 34.3003 11.529 34.0715 11.784C33.1469 12.8083 32.2946 13.9038 31.4807 15.0015C30.2913 16.6091 26.4869 21.0117 29.2608 22.6882C29.7544 22.9845 30.3394 23.1061 30.9269 23.1061C31.1244 23.1061 31.3219 23.0924 31.5145 23.0671C33.7344 22.78 35.7209 21.5215 37.2787 20.0517C38.0324 19.3397 38.7114 18.5497 39.3109 17.716C39.4144 17.5714 39.8214 16.7171 39.9947 16.6734L43.8015 15.7249L45.0752 15.4079C45.1088 15.401 45.145 15.3965 45.1787 15.3965C45.2461 15.3965 45.3135 15.4126 45.3737 15.4425C47.3361 16.4529 64.4483 25.3706 74.2674 33.4224L74.2698 33.4248C74.4046 33.535 74.6045 33.535 74.7418 33.427L79.7596 29.5067C79.8487 29.3873 79.8583 29.2312 79.7836 29.1049Z" fill="white"/>
</g>
</g>
</g>
<defs>
<clipPath id="clip0_51_1975">
<rect width="90.58" height="55" fill="white" transform="translate(0.0800781 0.5)"/>
</clipPath>
<clipPath id="clip1_51_1975">
<rect width="90.58" height="55" fill="white" transform="translate(0.0800781 0.5)"/>
</clipPath>
<clipPath id="clip2_51_1975">
<rect width="90.5882" height="55" fill="white" transform="translate(0.0761719 0.5)"/>
</clipPath>
</defs>
</svg>
