<svg width="91" height="56" viewBox="0 0 91 56" fill="none" xmlns="http://www.w3.org/2000/svg">
<g clip-path="url(#clip0_1_2476)">
<g clip-path="url(#clip1_1_2476)">
<path d="M31.0456 41.054L26.5912 46.7403C25.6474 47.9437 25.9122 49.6638 27.1811 50.5618L27.4941 50.7823C28.007 51.1452 28.609 51.3197 29.2061 51.3197C30.0849 51.3197 30.9541 50.9407 31.5176 50.2219L35.972 44.5378C36.9158 43.3344 36.6511 41.6143 35.3821 40.7163L35.0691 40.4959C34.5562 40.133 33.9542 39.9585 33.3571 39.9585C32.4783 39.9585 31.6091 40.3373 31.0456 41.054Z" fill="#0575AD"/>
<mask id="mask0_1_2476" style="mask-type:luminance" maskUnits="userSpaceOnUse" x="33" y="46" width="10" height="10">
<path d="M33.2712 46.0239H42.2958V55.3642H33.2712V46.0239Z" fill="white"/>
</mask>
<g mask="url(#mask0_1_2476)">
<path d="M36.8385 47.0246L33.7998 50.9012C32.9571 51.9761 33.1954 53.5124 34.3272 54.314L35.1338 54.8835C35.5913 55.2074 36.1282 55.3635 36.6627 55.3635C37.4477 55.3635 38.223 55.0259 38.7262 54.3828L41.7624 50.5085C42.6052 49.4314 42.3692 47.895 41.2375 47.0957L40.431 46.524C39.971 46.2001 39.4365 46.0439 38.902 46.0439C38.1171 46.0439 37.3393 46.3839 36.8385 47.0246Z" fill="#0575AD"/>
</g>
<path d="M20.5911 34.3684L19.3656 33.5026C18.9562 33.2109 18.4722 33.0708 17.9931 33.0708C17.2877 33.0708 16.5894 33.3739 16.1391 33.9504L14.0948 36.5593C13.3364 37.5262 13.5507 38.9064 14.5668 39.6253L15.7924 40.4934C16.204 40.7828 16.6857 40.9229 17.1648 40.9229C17.8703 40.9229 18.5685 40.6197 19.0212 40.0433L21.0654 37.4343C21.8215 36.4675 21.6096 35.0873 20.5911 34.3684Z" fill="#0575AD"/>
<path d="M29.6585 34.7731C29.1096 34.3849 28.4667 34.1965 27.8262 34.1965C26.8871 34.1965 25.9554 34.6031 25.3534 35.3702L19.919 42.3082C18.9077 43.5966 19.1918 45.4361 20.5498 46.3961C21.0988 46.7842 21.7417 46.9725 22.3797 46.9725C23.2273 46.9725 24.0676 46.6418 24.6672 46.0126C24.7563 45.8679 24.8549 45.7255 24.9633 45.5854L27.5444 42.2921L29.4178 39.9013C29.5454 39.7383 29.6874 39.5821 29.8368 39.4374L30.287 38.861C31.2983 37.5703 31.0141 35.7307 29.6585 34.7731Z" fill="#0575AD"/>
<mask id="mask1_1_2476" style="mask-type:luminance" maskUnits="userSpaceOnUse" x="0" y="1" width="23" height="29">
<path d="M0.777344 1.44263H22.1225V29.3256H0.777344V1.44263Z" fill="white"/>
</mask>
<g mask="url(#mask1_1_2476)">
<path d="M14.3373 2.40263L1.23404 24.6818C0.817488 25.3869 1.08475 26.2803 1.82635 26.6753L6.35303 29.0775C7.09704 29.4725 8.03608 29.2199 8.45023 28.5149L21.5559 6.23334C21.97 5.52829 21.7052 4.6372 20.9612 4.2422L16.4345 1.83767C15.6929 1.44495 14.7538 1.69757 14.3373 2.40263Z" fill="#0575AD"/>
</g>
<mask id="mask2_1_2476" style="mask-type:luminance" maskUnits="userSpaceOnUse" x="69" y="2" width="21" height="29">
<path d="M69.2493 2.67139H89.9636V30.3177H69.2493V2.67139Z" fill="white"/>
</mask>
<g mask="url(#mask2_1_2476)">
<path d="M69.446 7.26463L82.5516 29.5439C82.9657 30.2512 83.9048 30.5015 84.6464 30.1088L89.1731 27.7043C89.9171 27.3115 90.182 26.4181 89.7678 25.7132L76.6621 3.43391C76.248 2.72656 75.309 2.47394 74.565 2.86895L70.0383 5.27349C69.2966 5.6662 69.0294 6.55957 69.446 7.26463Z" fill="#0575AD"/>
</g>
<path d="M74.7932 37.4481C74.8293 36.4192 74.3238 35.4409 73.4593 34.8208L66.6597 29.9245C64.2013 28.2778 61.1362 26.3923 57.5462 24.3185C52.4874 21.3972 47.7175 18.8687 45.5071 17.7135C45.1604 17.5321 44.7559 17.4862 44.3755 17.5803L41.8906 18.2004C41.5246 18.2899 41.2068 18.5036 40.995 18.7998L40.9925 18.8043C40.3014 19.7644 39.5357 20.6439 38.7123 21.4225C37.7468 22.3343 36.721 23.0921 35.6664 23.6731C34.3999 24.3713 33.0973 24.8123 31.7923 24.9822C31.5034 25.0189 31.212 25.0373 30.9279 25.0373C29.9046 25.0373 28.951 24.7893 28.1709 24.3162C27.1693 23.7122 26.5289 22.8257 26.3145 21.7555C26.0689 20.5154 26.406 19.1007 27.3475 17.4287C28.0097 16.2506 28.8379 15.1735 29.4399 14.3858C29.5891 14.1929 29.7167 14.0275 29.8203 13.8897C30.2345 13.327 30.7208 12.684 31.2625 12.0133C31.4022 11.8411 31.2553 11.5953 31.029 11.6207C29.8878 11.7447 27.3065 11.623 23.2446 9.2322C22.8858 9.01862 22.4091 9.13574 22.202 9.48713L10.9455 28.6269C10.7096 29.0265 10.7673 29.5272 11.0876 29.8716L14.0732 33.0616C14.1142 33.1052 14.1599 33.1442 14.2105 33.1787L14.5115 32.7975C14.9208 32.2738 15.4649 31.8444 16.0814 31.5596C16.6736 31.284 17.3358 31.1393 17.9956 31.1393C18.453 31.1393 18.9033 31.206 19.3343 31.3392C19.7846 31.477 20.2036 31.6836 20.5839 31.9524L21.8071 32.8181C22.2766 33.1511 22.6643 33.56 22.9581 34.04C23.0279 34.1525 23.0905 34.2673 23.1483 34.3844C23.2253 34.5406 23.4492 34.5636 23.5576 34.4257L23.7189 34.2168C24.2029 33.6013 24.8409 33.096 25.5657 32.7607C26.264 32.4369 27.0585 32.2647 27.8194 32.2647C28.3539 32.2647 28.8909 32.3451 29.3989 32.5013C29.9263 32.6643 30.4222 32.9055 30.8701 33.2224C31.4215 33.6128 31.8766 34.0951 32.2233 34.6577C32.5556 35.1997 32.7746 35.79 32.871 36.4123C32.9359 36.8441 32.9432 37.2758 32.8878 37.7054C32.8662 37.8798 33.0107 38.0337 33.1961 38.0268C33.2514 38.0268 33.3068 38.0246 33.3621 38.0246C33.8702 38.0246 34.3855 38.1026 34.8743 38.2519C35.3824 38.4081 35.8543 38.6423 36.2829 38.9454L36.5958 39.166C38.1297 40.2499 38.8062 42.0298 38.5004 43.7085C38.4619 43.9222 38.6376 44.1151 38.8665 44.1127C38.8784 44.1127 38.8905 44.1127 38.9025 44.1127C39.3865 44.1127 39.8633 44.184 40.3207 44.3264C40.7975 44.4711 41.2405 44.6915 41.6426 44.974L42.4492 45.5459C44.4863 46.9882 44.91 49.7257 43.3931 51.6617L42.9958 52.1693C42.808 52.408 42.8514 52.7502 43.1042 52.9271C43.1499 52.957 43.1981 52.9822 43.2487 53.0006C44.1539 53.306 52.8823 56.1216 55.3478 52.1693C55.5091 51.9097 55.4007 51.5721 55.1143 51.4412L46.9735 47.6587C46.4823 47.429 46.2271 46.8986 46.3859 46.4025C46.5015 46.0396 46.8338 45.7112 47.638 45.6791C47.7247 45.6768 47.809 45.6951 47.8837 45.7319L56.258 49.8818C57.197 50.348 58.266 50.5432 59.3183 50.4192C60.6064 50.2677 62.0102 49.636 62.133 47.6358C62.1667 47.1098 61.8802 46.6137 61.4034 46.3474L50.9536 40.5646C50.5466 40.3395 50.3276 39.8963 50.4046 39.4553C50.4768 39.0396 50.7104 38.6193 51.3533 38.5964C51.5627 38.5895 51.7698 38.6423 51.9504 38.7433L62.93 44.804C63.4814 45.1095 64.1122 45.2565 64.7503 45.2289C65.8483 45.1807 67.4494 44.8638 68.0827 43.5065C68.6389 42.3123 68.1501 40.909 66.9703 40.2385L54.9505 33.3855C54.5942 33.1833 54.3871 32.809 54.4136 32.4163C54.4497 31.8995 54.7266 31.3139 55.8414 31.4839C55.9787 31.5045 56.1087 31.5504 56.2267 31.6171L69.8813 39.3496C70.895 39.9238 72.1398 40.0203 73.2258 39.5771C74.0348 39.2486 74.7523 38.624 74.7932 37.4481Z" fill="#0575AD"/>
<path d="M79.7841 29.1049L68.388 9.72852C68.2966 9.57465 68.1063 9.50115 67.9281 9.55168C67.1094 9.78364 66.0861 10.0179 65.9369 10.0363C65.4962 10.0868 65.0556 10.1121 64.6125 10.1121C63.1126 10.1121 61.6125 9.82957 60.1967 9.36796C56.8931 8.28855 52.7879 7.97852 49.128 7.97852C46.4168 7.97852 43.9512 8.14847 42.2321 8.30234C40.8163 8.42865 39.439 8.52741 38.0665 8.91324C36.776 9.2738 35.6732 10.1098 34.7727 11.0353C34.5343 11.281 34.3008 11.529 34.072 11.784C33.1474 12.8083 32.2951 13.9038 31.4812 15.0015C30.2918 16.6091 26.4874 21.0117 29.2612 22.6882C29.7548 22.9845 30.3399 23.1061 30.9274 23.1061C31.1249 23.1061 31.3223 23.0924 31.5149 23.0671C33.7349 22.78 35.7214 21.5215 37.2792 20.0517C38.0329 19.3397 38.7119 18.5497 39.3114 17.716C39.4149 17.5714 39.8219 16.7171 39.9952 16.6734L43.8019 15.7249L45.0757 15.4079C45.1093 15.401 45.1455 15.3965 45.1792 15.3965C45.2466 15.3965 45.314 15.4126 45.3742 15.4425C47.3366 16.4529 64.4488 25.3706 74.2678 33.4224L74.2703 33.4248C74.4051 33.535 74.605 33.535 74.7423 33.427L79.7601 29.5067C79.8492 29.3873 79.8588 29.2312 79.7841 29.1049Z" fill="#0575AD"/>
</g>
</g>
<defs>
<clipPath id="clip0_1_2476">
<rect width="90.58" height="55" fill="white" transform="translate(0.0800781 0.5)"/>
</clipPath>
<clipPath id="clip1_1_2476">
<rect width="90.5882" height="55" fill="white" transform="translate(0.0759277 0.5)"/>
</clipPath>
</defs>
</svg>
