<svg width="66" height="65" viewBox="0 0 66 65" fill="none" xmlns="http://www.w3.org/2000/svg">
<rect x="0.5" width="65" height="65" rx="8" fill="#00D280" fill-opacity="0.2"/>
<g clip-path="url(#clip0_1_2406)">
<g clip-path="url(#clip1_1_2406)">
<g clip-path="url(#clip2_1_2406)">
<path d="M32.6389 41.9193C27.0751 41.9193 22.5481 37.4752 22.5481 32.0128C22.5481 29.1322 23.8224 26.3998 26.043 24.5149L26.9854 25.5858C25.0813 27.2016 23.9895 29.5441 23.9895 32.0128C23.9895 36.6954 27.8697 40.5033 32.6381 40.5033C37.4065 40.5033 41.2866 36.6947 41.2866 32.0128C41.2866 27.3308 37.4065 23.5214 32.6381 23.5214C32.2009 23.5214 31.7622 23.5541 31.3359 23.6172L31.1208 22.2187C31.6184 22.1443 32.129 22.1062 32.6381 22.1062C38.2019 22.1062 42.7288 26.551 42.7288 32.0135C42.7288 37.476 38.2019 41.9201 32.6381 41.9201L32.6389 41.9193Z" fill="#00D280"/>
<path d="M28.8153 24.3946L28.1763 23.1253C28.5484 22.9445 28.9368 22.7848 29.3306 22.6519L29.8018 23.988C29.4653 24.1028 29.1342 24.2396 28.8153 24.3946Z" fill="#00D280"/>
<mask id="mask0_1_2406" style="mask-type:luminance" maskUnits="userSpaceOnUse" x="41" y="50" width="3" height="3">
<path d="M41.0444 50.1052H43.0251V52.0995H41.0444V50.1052Z" fill="white"/>
</mask>
<g mask="url(#mask0_1_2406)">
<path d="M41.6791 52.0791L41.095 50.7854C41.4865 50.6144 41.871 50.4336 42.2479 50.2412L42.9117 51.4976C42.5078 51.7036 42.097 51.8974 41.6791 52.0791Z" fill="#00D280"/>
</g>
<mask id="mask1_1_2406" style="mask-type:luminance" maskUnits="userSpaceOnUse" x="43" y="40" width="11" height="11">
<path d="M43.8167 40.1816H53.054V50.6886H43.8167V40.1816Z" fill="white"/>
</mask>
<g mask="url(#mask1_1_2406)">
<path d="M44.6243 50.5282L43.8499 49.3334C47.3346 47.1544 50.062 44.0503 51.7386 40.3572L53.0546 40.9333C51.2627 44.8818 48.3482 48.1994 44.6243 50.5282Z" fill="#00D280"/>
</g>
<path d="M23.0239 13.7867L22.3608 12.5304C22.733 12.3403 23.1136 12.161 23.4974 11.9907L24.0885 13.2813C23.728 13.4401 23.3744 13.6089 23.0239 13.7867Z" fill="#00D280"/>
<mask id="mask2_1_2406" style="mask-type:luminance" maskUnits="userSpaceOnUse" x="12" y="13" width="10" height="10">
<path d="M12.9465 13.3306H21.4365V22.4755H12.9465V13.3306Z" fill="white"/>
</mask>
<g mask="url(#mask2_1_2406)">
<path d="M14.2179 22.3082L12.9482 21.6379C14.7533 18.3453 17.4033 15.5377 20.6142 13.5212L21.391 14.7138C18.3859 16.6002 15.9054 19.227 14.2179 22.3082Z" fill="#00D280"/>
</g>
<path d="M28.1985 35.0233L25.1331 32.0135L28.2318 28.9695L29.2515 29.9705L27.171 32.0135L29.2175 34.0223L28.1985 35.0233Z" fill="#00D280"/>
<path d="M37.0559 35.0454L36.0369 34.0444L38.1058 32.0135L36.0369 29.9819L37.0559 28.981L40.1437 32.0135L37.0559 35.0454Z" fill="#00D280"/>
<path d="M28.8186 37.2288L35.1127 26.0994L36.3731 26.7865L30.079 37.9159L28.8186 37.2288Z" fill="#00D280"/>
<path d="M36.2422 50.4114H29.035V47.1697C27.2369 46.7593 25.5432 46.0471 23.9865 45.0462L21.8279 47.166L17.2057 42.6276L19.3644 40.5078C18.3446 38.9779 17.6189 37.3156 17.2019 35.5516H13.8997V28.4762H17.2019C17.6189 26.7121 18.3446 25.0484 19.3644 23.5191L17.2057 21.4002L21.8279 16.8619L23.9865 18.9809C25.5432 17.9807 27.2369 17.2685 29.035 16.8581V13.6165H36.2422V16.8581C38.0403 17.2685 39.7338 17.9807 41.2906 18.9809L43.4492 16.8619L48.0714 21.4002L45.9127 23.5191C46.9325 25.0492 47.6582 26.7121 48.0753 28.4762H51.3775V35.5516H48.0753C47.6582 37.3156 46.9325 38.9786 45.9127 40.5078L48.0714 42.6276L43.4492 47.166L41.2906 45.0462C39.7338 46.0471 38.0403 46.7593 36.2422 47.1697V50.4114ZM30.4764 48.9962H34.8007V46.0129L35.3848 45.9019C37.3965 45.5212 39.272 44.7308 40.9602 43.555L41.4577 43.2091L43.4492 45.1639L46.0334 42.6269L44.0419 40.6713L44.3947 40.1841C45.5924 38.5249 46.3963 36.6825 46.7855 34.7095L46.8977 34.1356H49.9368V29.8907H46.8977L46.7855 29.3169C46.3971 27.343 45.5924 25.5022 44.3947 23.8422L44.0419 23.3551L46.0334 21.3994L43.4492 18.8616L41.4577 20.8172L40.9602 20.4714C39.272 19.2956 37.3965 18.5059 35.3848 18.1236L34.8007 18.0134V15.0302H30.4764V18.0134L29.8922 18.1236C27.8806 18.5051 26.0052 19.2956 24.3161 20.4714L23.8194 20.8172L21.8279 18.8616L19.2437 21.3994L21.2352 23.3551L20.8824 23.8422C19.6847 25.5014 18.8808 27.343 18.4916 29.3169L18.3795 29.8907H15.3403V34.1356H18.3795L18.4916 34.7095C18.88 36.6825 19.6847 38.5242 20.8824 40.1841L21.2352 40.6713L19.2437 42.6269L21.8279 45.1639L23.8194 43.2091L24.3161 43.555C26.0052 44.7308 27.8806 45.5205 29.8922 45.9019L30.4764 46.0129V48.9962Z" fill="#00D280"/>
</g>
</g>
</g>
<defs>
<clipPath id="clip0_1_2406">
<rect width="41" height="40.09" fill="white" transform="translate(12.5 12)"/>
</clipPath>
<clipPath id="clip1_1_2406">
<rect width="41" height="40.09" fill="white" transform="translate(12.5 12)"/>
</clipPath>
<clipPath id="clip2_1_2406">
<rect width="41" height="40.1087" fill="white" transform="translate(12.5 11.9907)"/>
</clipPath>
</defs>
</svg>
