<svg width="56" height="56" viewBox="0 0 56 56" fill="none" xmlns="http://www.w3.org/2000/svg">
<g clip-path="url(#clip0_51_2105)">
<g clip-path="url(#clip1_51_2105)">
<path d="M10.8198 41.1485C13.9693 41.1485 16.5224 38.8833 16.5224 36.0879C16.5224 33.2925 13.9693 31.0273 10.8198 31.0273C7.67027 31.0273 5.11719 33.2925 5.11719 36.0879C5.11719 38.8833 7.67027 41.1485 10.8198 41.1485Z" fill="white"/>
<mask id="mask0_51_2105" style="mask-type:luminance" maskUnits="userSpaceOnUse" x="1" y="42" width="19" height="11">
<path d="M1.3125 42.4229H19.1324V52.7272H1.3125V42.4229Z" fill="white"/>
</mask>
<g mask="url(#mask0_51_2105)">
<path d="M15.7059 42.4812C14.3143 43.3237 12.6268 43.8179 10.8189 43.8179C9.00932 43.8179 7.32187 43.3237 5.93028 42.4812C3.1784 43.8525 1.3125 46.4661 1.3125 49.4656V50.508C1.3125 51.6405 2.35189 52.5511 3.61513 52.5511H15.853V52.0722C15.853 49.392 16.9832 46.9325 18.8303 45.0657C18.0414 43.9955 16.9629 43.1127 15.7059 42.4812Z" fill="white"/>
</g>
<path d="M40.1953 36.0879C40.1953 38.8833 42.7484 41.1485 45.8979 41.1485C49.0473 41.1485 51.6004 38.8833 51.6004 36.0879C51.6004 33.2925 49.0473 31.0273 45.8979 31.0273C42.7484 31.0273 40.1953 33.2925 40.1953 36.0879Z" fill="white"/>
<mask id="mask1_51_2105" style="mask-type:luminance" maskUnits="userSpaceOnUse" x="37" y="42" width="19" height="11">
<path d="M37.5645 42.4226H55.4094V52.727H37.5645V42.4226Z" fill="white"/>
</mask>
<g mask="url(#mask1_51_2105)">
<path d="M50.7918 42.481C49.3987 43.3234 47.7128 43.8175 45.9032 43.8175C44.0874 43.8175 42.4078 43.3234 41.0162 42.481C39.7655 43.107 38.6932 43.9827 37.9043 45.0473C39.7514 46.9156 40.8816 49.3737 40.8816 52.0664V52.5452H53.1069C54.3827 52.5452 55.4095 51.6403 55.4095 50.5008V49.4597C55.397 46.4658 53.5421 43.8523 50.7918 42.481Z" fill="white"/>
</g>
<path d="M22.6543 38.6892C22.6543 41.4846 25.2074 43.7498 28.3569 43.7498C31.5064 43.7498 34.0595 41.4846 34.0595 38.6892C34.0595 35.8939 31.5064 33.6287 28.3569 33.6287C25.2074 33.6287 22.6543 35.8939 22.6543 38.6892Z" fill="white"/>
<mask id="mask2_51_2105" style="mask-type:luminance" maskUnits="userSpaceOnUse" x="18" y="44" width="20" height="12">
<path d="M18.7305 44.9102H37.9655V55.1618H18.7305V44.9102Z" fill="white"/>
</mask>
<g mask="url(#mask2_51_2105)">
<path d="M33.2484 45.0823C31.8505 45.9248 30.1694 46.4203 28.3614 46.4203C26.5519 46.4203 24.866 45.9248 23.4729 45.0823C20.7225 46.4536 18.8613 49.0617 18.8613 52.0611V53.109C18.8613 54.2361 19.8944 55.1521 21.1639 55.1521H35.5651C36.8346 55.1521 37.8678 54.2361 37.8678 53.109V52.0611C37.8615 49.0617 36.0003 46.4536 33.2484 45.0823Z" fill="white"/>
</g>
<mask id="mask3_51_2105" style="mask-type:luminance" maskUnits="userSpaceOnUse" x="15" y="1" width="27" height="21">
<path d="M15.125 1.06348H41.5731V21.8139H15.125V1.06348Z" fill="white"/>
</mask>
<g mask="url(#mask3_51_2105)">
<path d="M18.7859 16.6811C19.2727 19.5389 22.0512 21.7305 25.4057 21.7305C26.4639 21.7305 27.4642 21.5084 28.3564 21.1157C29.2472 21.5029 30.249 21.7305 31.3072 21.7305C34.6617 21.7305 37.4324 19.5389 37.927 16.6811C40.0747 15.6914 41.5508 13.6983 41.5508 11.3984C41.5508 9.0985 40.0747 7.10674 37.927 6.11572C37.4386 3.2634 34.6679 1.07178 31.3072 1.07178C30.249 1.07178 29.2472 1.29386 28.3564 1.68665C27.4642 1.29386 26.4639 1.07178 25.4057 1.07178C22.0512 1.07178 19.2805 3.2634 18.7859 6.12127C16.6304 7.1123 15.1621 9.10405 15.1621 11.404C15.1559 13.7039 16.6304 15.697 18.7859 16.6811ZM35.0781 9.44549C36.2975 9.44549 37.2852 10.3227 37.2852 11.404C37.2852 12.4866 36.2975 13.3624 35.0781 13.3624C33.8602 13.3624 32.8725 12.4866 32.8725 11.404C32.8725 10.3227 33.8602 9.44549 35.0781 9.44549ZM28.3564 9.44549C29.5743 9.44549 30.562 10.3227 30.562 11.404C30.562 12.4866 29.5743 13.3568 28.3564 13.3568C27.1371 13.3568 26.1493 12.4796 26.1493 11.3984C26.1493 10.3171 27.1371 9.44549 28.3564 9.44549ZM21.6333 9.44549C22.8527 9.44549 23.8404 10.3227 23.8404 11.404C23.8404 12.4866 22.8527 13.3624 21.6333 13.3624C20.4154 13.3624 19.4277 12.4866 19.4277 11.404C19.4277 10.3227 20.4154 9.44549 21.6333 9.44549Z" fill="white"/>
</g>
<path d="M14.8929 29.774C15.9182 29.774 16.7588 29.0342 16.7588 28.1182C16.7588 27.2021 15.9244 26.4609 14.8929 26.4609C13.8598 26.4609 13.0254 27.2021 13.0254 28.1182C13.0317 29.0342 13.866 29.774 14.8929 29.774Z" fill="white"/>
<path d="M19.2874 22.2996C17.9913 22.2996 16.9395 23.2337 16.9395 24.383C16.9395 25.5336 17.9913 26.4677 19.2874 26.4677C20.582 26.4677 21.6339 25.5336 21.6339 24.383C21.6339 23.2337 20.5882 22.2996 19.2874 22.2996Z" fill="white"/>
<path d="M39.9512 28.1182C39.9512 29.0342 40.7855 29.774 41.8186 29.774C42.8517 29.774 43.6845 29.0342 43.6845 28.1182C43.6845 27.2021 42.8517 26.4609 41.8186 26.4609C40.7855 26.4609 39.9512 27.2077 39.9512 28.1182Z" fill="white"/>
<path d="M37.4262 22.2996C36.1301 22.2996 35.0781 23.2337 35.0781 24.383C35.0781 25.5336 36.1301 26.4677 37.4262 26.4677C38.7223 26.4677 39.7742 25.5336 39.7742 24.383C39.7742 23.2337 38.7223 22.2996 37.4262 22.2996Z" fill="white"/>
<path d="M28.3559 23.1311C27.0598 23.1311 26.0078 24.0652 26.0078 25.2144C26.0078 26.3651 27.0598 27.2978 28.3559 27.2978C29.652 27.2978 30.7039 26.3651 30.7039 25.2144C30.7039 24.0652 29.652 23.1311 28.3559 23.1311Z" fill="white"/>
<path d="M28.3558 28.5847C27.3289 28.5847 26.4883 29.3245 26.4883 30.242C26.4883 31.1581 27.3226 31.8979 28.3558 31.8979C29.3873 31.8979 30.2216 31.1581 30.2216 30.242C30.2216 29.3245 29.3873 28.5847 28.3558 28.5847Z" fill="white"/>
</g>
</g>
<defs>
<clipPath id="clip0_51_2105">
<rect width="55" height="55" fill="white" transform="translate(0.861328 0.5)"/>
</clipPath>
<clipPath id="clip1_51_2105">
<rect width="55" height="55" fill="white" transform="translate(0.861328 0.5)"/>
</clipPath>
</defs>
</svg>
