<svg width="56" height="56" viewBox="0 0 56 56" fill="none" xmlns="http://www.w3.org/2000/svg">
<g clip-path="url(#clip0_1_2605)">
<g clip-path="url(#clip1_1_2605)">
<path d="M10.818 41.1485C13.9676 41.1485 16.5206 38.8833 16.5206 36.0879C16.5206 33.2925 13.9676 31.0273 10.818 31.0273C7.66856 31.0273 5.11548 33.2925 5.11548 36.0879C5.11548 38.8833 7.66856 41.1485 10.818 41.1485Z" fill="#0575AD"/>
<mask id="mask0_1_2605" style="mask-type:luminance" maskUnits="userSpaceOnUse" x="1" y="42" width="19" height="11">
<path d="M1.31152 42.4229H19.1315V52.7272H1.31152V42.4229Z" fill="white"/>
</mask>
<g mask="url(#mask0_1_2605)">
<path d="M15.705 42.4812C14.3133 43.3237 12.6259 43.8179 10.8179 43.8179C9.00834 43.8179 7.3209 43.3237 5.92931 42.4812C3.17742 43.8525 1.31152 46.4661 1.31152 49.4656V50.508C1.31152 51.6405 2.35092 52.5511 3.61415 52.5511H15.852V52.0722C15.852 49.392 16.9822 46.9325 18.8293 45.0657C18.0404 43.9955 16.9619 43.1127 15.705 42.4812Z" fill="#0575AD"/>
</g>
<path d="M40.1938 36.0879C40.1938 38.8833 42.7469 41.1485 45.8964 41.1485C49.0459 41.1485 51.599 38.8833 51.599 36.0879C51.599 33.2925 49.0459 31.0273 45.8964 31.0273C42.7469 31.0273 40.1938 33.2925 40.1938 36.0879Z" fill="#0575AD"/>
<mask id="mask1_1_2605" style="mask-type:luminance" maskUnits="userSpaceOnUse" x="37" y="42" width="19" height="11">
<path d="M37.5637 42.4226H55.4087V52.727H37.5637V42.4226Z" fill="white"/>
</mask>
<g mask="url(#mask1_1_2605)">
<path d="M50.7911 42.481C49.3979 43.3234 47.712 43.8175 45.9025 43.8175C44.0866 43.8175 42.4071 43.3234 41.0155 42.481C39.7647 43.107 38.6925 43.9827 37.9036 45.0473C39.7507 46.9156 40.8809 49.3737 40.8809 52.0664V52.5452H53.1062C54.3819 52.5452 55.4088 51.6403 55.4088 50.5008V49.4597C55.3963 46.4658 53.5413 43.8523 50.7911 42.481Z" fill="#0575AD"/>
</g>
<path d="M22.6523 38.6892C22.6523 41.4846 25.2054 43.7498 28.3549 43.7498C31.5045 43.7498 34.0575 41.4846 34.0575 38.6892C34.0575 35.8939 31.5045 33.6287 28.3549 33.6287C25.2054 33.6287 22.6523 35.8939 22.6523 38.6892Z" fill="#0575AD"/>
<mask id="mask2_1_2605" style="mask-type:luminance" maskUnits="userSpaceOnUse" x="18" y="44" width="20" height="12">
<path d="M18.7297 44.9102H37.9648V55.1618H18.7297V44.9102Z" fill="white"/>
</mask>
<g mask="url(#mask2_1_2605)">
<path d="M33.2472 45.0823C31.8493 45.9248 30.1682 46.4203 28.3601 46.4203C26.5506 46.4203 24.8648 45.9248 23.4716 45.0823C20.7213 46.4536 18.8601 49.0617 18.8601 52.0611V53.109C18.8601 54.2361 19.8932 55.1521 21.1627 55.1521H35.5639C36.8334 55.1521 37.8666 54.2361 37.8666 53.109V52.0611C37.8603 49.0617 35.9991 46.4536 33.2472 45.0823Z" fill="#0575AD"/>
</g>
<mask id="mask3_1_2605" style="mask-type:luminance" maskUnits="userSpaceOnUse" x="15" y="1" width="27" height="21">
<path d="M15.123 1.06348H41.5712V21.8139H15.123V1.06348Z" fill="white"/>
</mask>
<g mask="url(#mask3_1_2605)">
<path d="M18.783 16.6811C19.2698 19.5389 22.0483 21.7305 25.4028 21.7305C26.461 21.7305 27.4613 21.5084 28.3535 21.1157C29.2442 21.5029 30.2461 21.7305 31.3042 21.7305C34.6588 21.7305 37.4294 19.5389 37.9241 16.6811C40.0718 15.6914 41.5478 13.6983 41.5478 11.3984C41.5478 9.0985 40.0718 7.10674 37.9241 6.11572C37.4356 3.2634 34.665 1.07178 31.3042 1.07178C30.2461 1.07178 29.2442 1.29386 28.3535 1.68665C27.4613 1.29386 26.461 1.07178 25.4028 1.07178C22.0483 1.07178 19.2776 3.2634 18.783 6.12127C16.6275 7.1123 15.1592 9.10405 15.1592 11.404C15.153 13.7039 16.6275 15.697 18.783 16.6811ZM35.0752 9.44549C36.2945 9.44549 37.2823 10.3227 37.2823 11.404C37.2823 12.4866 36.2945 13.3624 35.0752 13.3624C33.8573 13.3624 32.8696 12.4866 32.8696 11.404C32.8696 10.3227 33.8573 9.44549 35.0752 9.44549ZM28.3535 9.44549C29.5714 9.44549 30.5591 10.3227 30.5591 11.404C30.5591 12.4866 29.5714 13.3568 28.3535 13.3568C27.1341 13.3568 26.1464 12.4796 26.1464 11.3984C26.1464 10.3171 27.1341 9.44549 28.3535 9.44549ZM21.6304 9.44549C22.8497 9.44549 23.8375 10.3227 23.8375 11.404C23.8375 12.4866 22.8497 13.3624 21.6304 13.3624C20.4125 13.3624 19.4248 12.4866 19.4248 11.404C19.4248 10.3227 20.4125 9.44549 21.6304 9.44549Z" fill="#0575AD"/>
</g>
<path d="M14.8907 29.774C15.916 29.774 16.7566 29.0342 16.7566 28.1182C16.7566 27.2021 15.9222 26.4609 14.8907 26.4609C13.8576 26.4609 13.0232 27.2021 13.0232 28.1182C13.0295 29.0342 13.8638 29.774 14.8907 29.774Z" fill="#0575AD"/>
<path d="M19.285 22.2996C17.9889 22.2996 16.937 23.2337 16.937 24.383C16.937 25.5336 17.9889 26.4677 19.285 26.4677C20.5795 26.4677 21.6315 25.5336 21.6315 24.383C21.6315 23.2337 20.5858 22.2996 19.285 22.2996Z" fill="#0575AD"/>
<path d="M39.95 28.1182C39.95 29.0342 40.7842 29.774 41.8174 29.774C42.8505 29.774 43.6833 29.0342 43.6833 28.1182C43.6833 27.2021 42.8505 26.4609 41.8174 26.4609C40.7842 26.4609 39.95 27.2077 39.95 28.1182Z" fill="#0575AD"/>
<path d="M37.4245 22.2996C36.1284 22.2996 35.0764 23.2337 35.0764 24.383C35.0764 25.5336 36.1284 26.4677 37.4245 26.4677C38.7206 26.4677 39.7725 25.5336 39.7725 24.383C39.7725 23.2337 38.7206 22.2996 37.4245 22.2996Z" fill="#0575AD"/>
<path d="M28.3542 23.1311C27.058 23.1311 26.0061 24.0652 26.0061 25.2144C26.0061 26.3651 27.058 27.2978 28.3542 27.2978C29.6503 27.2978 30.7022 26.3651 30.7022 25.2144C30.7022 24.0652 29.6503 23.1311 28.3542 23.1311Z" fill="#0575AD"/>
<path d="M28.3536 28.5847C27.3267 28.5847 26.4861 29.3245 26.4861 30.242C26.4861 31.1581 27.3204 31.8979 28.3536 31.8979C29.3851 31.8979 30.2194 31.1581 30.2194 30.242C30.2194 29.3245 29.3851 28.5847 28.3536 28.5847Z" fill="#0575AD"/>
</g>
</g>
<defs>
<clipPath id="clip0_1_2605">
<rect width="55" height="55" fill="white" transform="translate(0.859863 0.5)"/>
</clipPath>
<clipPath id="clip1_1_2605">
<rect width="55" height="55" fill="white" transform="translate(0.859863 0.5)"/>
</clipPath>
</defs>
</svg>
