<svg width="57" height="56" viewBox="0 0 57 56" fill="none" xmlns="http://www.w3.org/2000/svg">
<g clip-path="url(#clip0_51_2054)">
<g clip-path="url(#clip1_51_2054)">
<g clip-path="url(#clip2_51_2054)">
<mask id="mask0_51_2054" style="mask-type:luminance" maskUnits="userSpaceOnUse" x="0" y="0" width="56" height="56">
<path d="M0.865234 0.5H55.8652V55.5H0.865234V0.5Z" fill="white"/>
</mask>
<g mask="url(#mask0_51_2054)">
<path fill-rule="evenodd" clip-rule="evenodd" d="M3.48333 8.11515C1.95777 7.57701 0.865234 6.12319 0.865234 4.41935C0.865234 2.25684 2.62562 0.5 4.79404 0.5C6.96247 0.5 8.72286 2.25684 8.72286 4.41935C8.72286 6.12319 7.62865 7.57701 6.1031 8.11515V10.4102L12.2703 16.5599C15.383 10.8854 21.427 7.03224 28.3652 7.03224C35.3035 7.03224 41.3458 10.8854 44.4602 16.5599L50.6274 10.4102V8.11515C49.1018 7.57701 48.0077 6.12319 48.0077 4.41935C48.0077 2.25684 49.768 0.5 51.9364 0.5C54.1049 0.5 55.8652 2.25684 55.8652 4.41935C55.8652 6.12319 54.771 7.57701 53.2455 8.11515V10.9499C53.2455 11.296 53.1089 11.6288 52.8624 11.8739L45.611 19.1065C46.3138 21.0455 46.6986 23.1385 46.6986 25.3192C46.6986 25.758 46.6819 26.1935 46.6519 26.624H48.2324C48.7721 25.1023 50.2276 24.0128 51.9364 24.0128C54.1049 24.0128 55.8652 25.7679 55.8652 27.9304C55.8652 30.0946 54.1049 31.8498 51.9364 31.8498C50.2276 31.8498 48.7721 30.7586 48.2324 29.237H46.2755C45.8176 31.3266 45.0015 33.2838 43.8939 35.0389L52.8624 43.9854C53.1089 44.2304 53.2455 44.5632 53.2455 44.9093V47.7441C54.771 48.2839 55.8652 49.7361 55.8652 51.4399C55.8652 53.6024 54.1049 55.3593 51.9364 55.3593C49.768 55.3593 48.0077 53.6024 48.0077 51.4399C48.0077 49.7361 49.1018 48.2839 50.6274 47.7441V45.4508L42.3251 37.1683C40.3482 39.4815 37.8067 41.298 34.9122 42.4024V50.1368C34.9122 51.6204 34.0711 52.9782 32.742 53.6405L30.1223 54.947C29.0164 55.5 27.714 55.5 26.6082 54.947L23.9884 53.6405C22.6577 52.9782 21.8167 51.6204 21.8167 50.1368V42.4024C18.9238 41.298 16.3823 39.4815 14.4054 37.1683L6.1031 45.4508V47.7441C7.62865 48.2839 8.72286 49.7361 8.72286 51.4399C8.72286 53.6024 6.96247 55.3593 4.79404 55.3593C2.62562 55.3593 0.865234 53.6024 0.865234 51.4399C0.865234 49.7361 1.95777 48.2839 3.48333 47.7441V44.9093C3.48333 44.5632 3.62156 44.2304 3.86805 43.9854L12.8365 35.0389C11.729 33.2838 10.9129 31.3266 10.4549 29.237H8.49802C7.95841 30.7586 6.5028 31.8498 4.79404 31.8498C2.62562 31.8498 0.865234 30.0946 0.865234 27.9304C0.865234 25.7679 2.62562 24.0128 4.79404 24.0128C6.5028 24.0128 7.95841 25.1023 8.49802 26.624H10.0769C10.0469 26.1935 10.0319 25.758 10.0319 25.3192C10.0319 23.1385 10.415 21.0455 11.1178 19.1065L3.86805 11.8739C3.62156 11.6288 3.48333 11.296 3.48333 10.9499V8.11515ZM51.9364 5.7258C52.6592 5.7258 53.2455 5.13964 53.2455 4.41935C53.2455 3.69741 52.6592 3.11289 51.9364 3.11289C51.2136 3.11289 50.6274 3.69741 50.6274 4.41935C50.6274 5.13964 51.2136 5.7258 51.9364 5.7258ZM50.6274 27.9304C50.6274 28.6524 51.2136 29.237 51.9364 29.237C52.6592 29.237 53.2455 28.6524 53.2455 27.9304C53.2455 27.2102 52.6592 26.624 51.9364 26.624C51.2136 26.624 50.6274 27.2102 50.6274 27.9304ZM24.4364 48.8303V50.1368C24.4364 50.6319 24.7163 51.0839 25.1609 51.3041L27.779 52.6106C28.1471 52.7944 28.5818 52.7944 28.9498 52.6106L31.5695 51.3041C32.0126 51.0839 32.2941 50.6319 32.2941 50.1368V48.8303H24.4364ZM4.79404 50.1335C4.07124 50.1335 3.48333 50.7196 3.48333 51.4399C3.48333 52.1619 4.07124 52.7463 4.79404 52.7463C5.51685 52.7463 6.1031 52.1619 6.1031 51.4399C6.1031 50.7196 5.51685 50.1335 4.79404 50.1335ZM22.1115 27.447L25.2974 31.3663C25.549 31.6743 25.9253 31.8515 26.3217 31.8498C26.7181 31.8465 27.0928 31.666 27.341 31.3564L34.629 22.2129C35.077 21.6482 34.9838 20.827 34.4175 20.3765C33.8512 19.9295 33.0285 20.0239 32.5771 20.5868L26.305 28.4571L24.1433 25.8011C23.6887 25.2414 22.8626 25.157 22.3013 25.6106C21.74 26.0644 21.6551 26.8889 22.1115 27.447ZM4.79404 5.7258C5.51685 5.7258 6.1031 5.13964 6.1031 4.41935C6.1031 3.69741 5.51685 3.11289 4.79404 3.11289C4.07124 3.11289 3.48333 3.69741 3.48333 4.41935C3.48333 5.13964 4.07124 5.7258 4.79404 5.7258ZM6.1031 27.9304C6.1031 27.2102 5.51685 26.624 4.79404 26.624C4.07124 26.624 3.48333 27.2102 3.48333 27.9304C3.48333 28.6524 4.07124 29.237 4.79404 29.237C5.51685 29.237 6.1031 28.6524 6.1031 27.9304ZM51.9364 50.1335C51.2136 50.1335 50.6274 50.7196 50.6274 51.4399C50.6274 52.1619 51.2136 52.7463 51.9364 52.7463C52.6592 52.7463 53.2455 52.1619 53.2455 51.4399C53.2455 50.7196 52.6592 50.1335 51.9364 50.1335ZM32.2941 46.2175C32.2941 44.6394 32.2941 43.1839 32.2941 43.1839C31.0266 43.4605 29.7143 43.6062 28.3652 43.6062C27.0162 43.6062 25.7021 43.4605 24.4364 43.1839V46.2175H32.2941Z" fill="white"/>
</g>
</g>
</g>
</g>
<defs>
<clipPath id="clip0_51_2054">
<rect width="55.91" height="55" fill="white" transform="translate(0.410156 0.5)"/>
</clipPath>
<clipPath id="clip1_51_2054">
<rect width="55.91" height="55" fill="white" transform="translate(0.410156 0.5)"/>
</clipPath>
<clipPath id="clip2_51_2054">
<rect width="55.9167" height="55" fill="white" transform="translate(0.40625 0.5)"/>
</clipPath>
</defs>
</svg>
