<svg width="57" height="56" viewBox="0 0 57 56" fill="none" xmlns="http://www.w3.org/2000/svg">
<g clip-path="url(#clip0_1_2554)">
<g clip-path="url(#clip1_1_2554)">
<g clip-path="url(#clip2_1_2554)">
<mask id="mask0_1_2554" style="mask-type:luminance" maskUnits="userSpaceOnUse" x="0" y="0" width="56" height="56">
<path d="M0.864746 0.5H55.8647V55.5H0.864746V0.5Z" fill="white"/>
</mask>
<g mask="url(#mask0_1_2554)">
<path fill-rule="evenodd" clip-rule="evenodd" d="M3.48284 8.11515C1.95728 7.57701 0.864746 6.12319 0.864746 4.41935C0.864746 2.25684 2.62513 0.5 4.79355 0.5C6.96198 0.5 8.72237 2.25684 8.72237 4.41935C8.72237 6.12319 7.62816 7.57701 6.10261 8.11515V10.4102L12.2698 16.5599C15.3825 10.8854 21.4265 7.03224 28.3647 7.03224C35.303 7.03224 41.3453 10.8854 44.4597 16.5599L50.6269 10.4102V8.11515C49.1013 7.57701 48.0072 6.12319 48.0072 4.41935C48.0072 2.25684 49.7675 0.5 51.9359 0.5C54.1044 0.5 55.8647 2.25684 55.8647 4.41935C55.8647 6.12319 54.7705 7.57701 53.245 8.11515V10.9499C53.245 11.296 53.1084 11.6288 52.8619 11.8739L45.6105 19.1065C46.3134 21.0455 46.6981 23.1385 46.6981 25.3192C46.6981 25.758 46.6814 26.1935 46.6514 26.624H48.2319C48.7716 25.1023 50.2272 24.0128 51.9359 24.0128C54.1044 24.0128 55.8647 25.7679 55.8647 27.9304C55.8647 30.0946 54.1044 31.8498 51.9359 31.8498C50.2272 31.8498 48.7716 30.7586 48.2319 29.2369H46.275C45.8171 31.3266 45.001 33.2838 43.8934 35.0389L52.8619 43.9854C53.1084 44.2304 53.245 44.5633 53.245 44.9093V47.7441C54.7705 48.2839 55.8647 49.7361 55.8647 51.4399C55.8647 53.6024 54.1044 55.3593 51.9359 55.3593C49.7675 55.3593 48.0072 53.6024 48.0072 51.4399C48.0072 49.7361 49.1013 48.2839 50.6269 47.7441V45.4508L42.3246 37.1683C40.3477 39.4815 37.8062 41.298 34.9117 42.4024V50.1368C34.9117 51.6204 34.0706 52.9782 32.7416 53.6405L30.1218 54.947C29.0159 55.5 27.7135 55.5 26.6077 54.947L23.9879 53.6405C22.6572 52.9782 21.8162 51.6204 21.8162 50.1368V42.4024C18.9233 41.298 16.3818 39.4815 14.4049 37.1683L6.10261 45.4508V47.7441C7.62816 48.2839 8.72237 49.7361 8.72237 51.4399C8.72237 53.6024 6.96198 55.3593 4.79355 55.3593C2.62513 55.3593 0.864746 53.6024 0.864746 51.4399C0.864746 49.7361 1.95728 48.2839 3.48284 47.7441V44.9093C3.48284 44.5633 3.62107 44.2304 3.86756 43.9854L12.836 35.0389C11.7285 33.2838 10.9124 31.3266 10.4545 29.2369H8.49753C7.95792 30.7586 6.50231 31.8498 4.79355 31.8498C2.62513 31.8498 0.864746 30.0946 0.864746 27.9304C0.864746 25.7679 2.62513 24.0128 4.79355 24.0128C6.50231 24.0128 7.95792 25.1023 8.49753 26.624H10.0764C10.0464 26.1935 10.0314 25.758 10.0314 25.3192C10.0314 23.1385 10.4145 21.0455 11.1173 19.1065L3.86756 11.8739C3.62107 11.6288 3.48284 11.296 3.48284 10.9499V8.11515ZM51.9359 5.7258C52.6587 5.7258 53.245 5.13964 53.245 4.41935C53.245 3.69741 52.6587 3.11289 51.9359 3.11289C51.2131 3.11289 50.6269 3.69741 50.6269 4.41935C50.6269 5.13964 51.2131 5.7258 51.9359 5.7258ZM50.6269 27.9304C50.6269 28.6524 51.2131 29.2369 51.9359 29.2369C52.6587 29.2369 53.245 28.6524 53.245 27.9304C53.245 27.2102 52.6587 26.624 51.9359 26.624C51.2131 26.624 50.6269 27.2102 50.6269 27.9304ZM24.4359 48.8303V50.1368C24.4359 50.6319 24.7158 51.0839 25.1604 51.3041L27.7785 52.6106C28.1466 52.7944 28.5813 52.7944 28.9493 52.6106L31.569 51.3041C32.0121 51.0839 32.2936 50.6319 32.2936 50.1368V48.8303H24.4359ZM4.79355 50.1335C4.07075 50.1335 3.48284 50.7196 3.48284 51.4399C3.48284 52.1619 4.07075 52.7463 4.79355 52.7463C5.51636 52.7463 6.10261 52.1619 6.10261 51.4399C6.10261 50.7196 5.51636 50.1335 4.79355 50.1335ZM22.111 27.447L25.2969 31.3663C25.5485 31.6743 25.9249 31.8515 26.3212 31.8498C26.7176 31.8465 27.0923 31.666 27.3405 31.3564L34.6285 22.2129C35.0765 21.6482 34.9833 20.827 34.417 20.3765C33.8507 19.9295 33.028 20.0239 32.5766 20.5868L26.3045 28.4571L24.1429 25.8011C23.6882 25.2414 22.8621 25.157 22.3008 25.6106C21.7395 26.0644 21.6547 26.8889 22.111 27.447ZM4.79355 5.7258C5.51636 5.7258 6.10261 5.13964 6.10261 4.41935C6.10261 3.69741 5.51636 3.11289 4.79355 3.11289C4.07075 3.11289 3.48284 3.69741 3.48284 4.41935C3.48284 5.13964 4.07075 5.7258 4.79355 5.7258ZM6.10261 27.9304C6.10261 27.2102 5.51636 26.624 4.79355 26.624C4.07075 26.624 3.48284 27.2102 3.48284 27.9304C3.48284 28.6524 4.07075 29.2369 4.79355 29.2369C5.51636 29.2369 6.10261 28.6524 6.10261 27.9304ZM51.9359 50.1335C51.2131 50.1335 50.6269 50.7196 50.6269 51.4399C50.6269 52.1619 51.2131 52.7463 51.9359 52.7463C52.6587 52.7463 53.245 52.1619 53.245 51.4399C53.245 50.7196 52.6587 50.1335 51.9359 50.1335ZM32.2936 46.2175C32.2936 44.6394 32.2936 43.1839 32.2936 43.1839C31.0261 43.4605 29.7138 43.6062 28.3647 43.6062C27.0157 43.6062 25.7016 43.4605 24.4359 43.1839V46.2175H32.2936Z" fill="#0575AD"/>
</g>
</g>
</g>
</g>
<defs>
<clipPath id="clip0_1_2554">
<rect width="55.91" height="55" fill="white" transform="translate(0.409912 0.5)"/>
</clipPath>
<clipPath id="clip1_1_2554">
<rect width="55.91" height="55" fill="white" transform="translate(0.409912 0.5)"/>
</clipPath>
<clipPath id="clip2_1_2554">
<rect width="55.9167" height="55" fill="white" transform="translate(0.406494 0.5)"/>
</clipPath>
</defs>
</svg>
