<svg width="47" height="46" viewBox="0 0 47 46" fill="none" xmlns="http://www.w3.org/2000/svg">
<g clip-path="url(#clip0_1_2709)">
<g clip-path="url(#clip1_1_2709)">
<g clip-path="url(#clip2_1_2709)">
<mask id="mask0_1_2709" style="mask-type:luminance" maskUnits="userSpaceOnUse" x="0" y="0" width="46" height="46">
<path d="M0.830078 0.559814H45.8301V45.5598H0.830078V0.559814Z" fill="white"/>
</mask>
<g mask="url(#mask0_1_2709)">
<path fill-rule="evenodd" clip-rule="evenodd" d="M33.008 12.6204V14.7409C32.3874 14.6686 31.7565 14.6316 31.1164 14.6316C30.4762 14.6316 29.8454 14.6686 29.2247 14.7409V12.6204H28.4326C28.0463 12.6204 27.7313 12.26 27.7313 11.8181V10.5749C27.7313 10.1331 28.0463 9.77362 28.4326 9.77362H33.8001C34.1864 9.77362 34.5004 10.1331 34.5004 10.5749V11.8181C34.5004 12.26 34.1864 12.6204 33.8001 12.6204H33.008ZM17.5031 36.4386H15.4457C15.0316 36.4386 14.6953 36.1024 14.6953 35.6883C14.6953 35.2742 15.0316 34.9388 15.4457 34.9388H16.9788C16.6036 33.6391 16.4026 32.2662 16.4026 30.8461C16.4026 22.7198 22.9901 16.1314 31.1164 16.1314C39.2426 16.1314 45.8301 22.7198 45.8301 30.8461C45.8301 38.9723 39.2426 45.5598 31.1164 45.5598C24.9698 45.5598 19.7042 41.7913 17.5031 36.4386ZM31.1164 19.3422C24.7632 19.3422 19.6125 24.4929 19.6125 30.8461C19.6125 37.1983 24.7632 42.349 31.1164 42.349C37.4695 42.349 42.6202 37.1983 42.6202 30.8461C42.6202 24.4929 37.4695 19.3422 31.1164 19.3422ZM33.3193 31.5955C33.0071 32.5126 32.1391 33.1722 31.1164 33.1722C29.8315 33.1722 28.7893 32.1309 28.7893 30.8461C28.7893 29.8233 29.4489 28.9544 30.366 28.6422V25.4554C30.366 25.0423 30.7023 24.706 31.1164 24.706C31.5304 24.706 31.8667 25.0423 31.8667 25.4554V28.6422C32.5476 28.8747 33.0877 29.4139 33.3193 30.0957H36.5061C36.9201 30.0957 37.2564 30.432 37.2564 30.8461C37.2564 31.2592 36.9201 31.5955 36.5061 31.5955H33.3193ZM31.1164 30.0188C30.6596 30.0188 30.2891 30.3893 30.2891 30.8461C30.2891 31.3018 30.6596 31.6724 31.1164 31.6724C31.5731 31.6724 31.9427 31.3018 31.9427 30.8461C31.9427 30.3893 31.5731 30.0188 31.1164 30.0188ZM30.366 21.6869C30.366 21.2728 30.7023 20.9365 31.1164 20.9365C31.5304 20.9365 31.8667 21.2728 31.8667 21.6869V22.6791C31.8667 23.0931 31.5304 23.4294 31.1164 23.4294C30.7023 23.4294 30.366 23.0931 30.366 22.6791V21.6869ZM37.0619 23.8389C37.3546 23.5462 37.8308 23.5462 38.1226 23.8389C38.4153 24.1316 38.4153 24.6069 38.1226 24.8996L37.4213 25.6018C37.1286 25.8945 36.6533 25.8945 36.3606 25.6018C36.0679 25.3091 36.0679 24.8338 36.3606 24.5411L37.0619 23.8389ZM38.1226 36.7916C38.4153 37.0843 38.4153 37.5596 38.1226 37.8523C37.8308 38.145 37.3546 38.145 37.0619 37.8523L36.3606 37.1501C36.0679 36.8574 36.0679 36.3821 36.3606 36.0894C36.6533 35.7966 37.1286 35.7966 37.4213 36.0894L38.1226 36.7916ZM25.1699 37.8523C24.8772 38.145 24.4019 38.145 24.1092 37.8523C23.8165 37.5596 23.8165 37.0843 24.1092 36.7916L24.8114 36.0894C25.1041 35.7966 25.5794 35.7966 25.8721 36.0894C26.1648 36.3821 26.1648 36.8574 25.8721 37.1501L25.1699 37.8523ZM21.9572 31.5955C21.5431 31.5955 21.2078 31.2592 21.2078 30.8461C21.2078 30.432 21.5431 30.0957 21.9572 30.0957H22.9503C23.3644 30.0957 23.6997 30.432 23.6997 30.8461C23.6997 31.2592 23.3644 31.5955 22.9503 31.5955H21.9572ZM24.1092 24.8996C23.8165 24.6069 23.8165 24.1316 24.1092 23.8389C24.4019 23.5462 24.8772 23.5462 25.1699 23.8389L25.8721 24.5411C26.1648 24.8338 26.1648 25.3091 25.8721 25.6018C25.5794 25.8945 25.1041 25.8945 24.8114 25.6018L24.1092 24.8996ZM40.2755 30.0957C40.6887 30.0957 41.025 30.432 41.025 30.8461C41.025 31.2592 40.6887 31.5955 40.2755 31.5955H39.2824C38.8683 31.5955 38.5321 31.2592 38.5321 30.8461C38.5321 30.432 38.8683 30.0957 39.2824 30.0957H40.2755ZM31.8667 40.0043C31.8667 40.4184 31.5304 40.7547 31.1164 40.7547C30.7023 40.7547 30.366 40.4184 30.366 40.0043V39.0121C30.366 38.598 30.7023 38.2618 31.1164 38.2618C31.5304 38.2618 31.8667 38.598 31.8667 39.0121V40.0043ZM5.73621 26.7524C5.32211 26.7524 4.98584 26.417 4.98584 26.0029C4.98584 25.5888 5.32211 25.2526 5.73621 25.2526H9.09064C9.50473 25.2526 9.84101 25.5888 9.84101 26.0029C9.84101 26.417 9.50473 26.7524 9.09064 26.7524H5.73621ZM11.78 26.7524C11.3659 26.7524 11.0305 26.417 11.0305 26.0029C11.0305 25.5888 11.3659 25.2526 11.78 25.2526H15.1344C15.5485 25.2526 15.8848 25.5888 15.8848 26.0029C15.8848 26.417 15.5485 26.7524 15.1344 26.7524H11.78ZM8.73676 29.9817C8.32267 29.9817 7.98639 29.6455 7.98639 29.2314C7.98639 28.8173 8.32267 28.481 8.73676 28.481H12.0912C12.5053 28.481 12.8407 28.8173 12.8407 29.2314C12.8407 29.6455 12.5053 29.9817 12.0912 29.9817H8.73676ZM5.18223 33.2102C4.76814 33.2102 4.43186 32.8739 4.43186 32.4598C4.43186 32.0457 4.76814 31.7104 5.18223 31.7104H8.34675C8.76085 31.7104 9.09713 32.0457 9.09713 32.4598C9.09713 32.8739 8.76085 33.2102 8.34675 33.2102H5.18223ZM11.0361 33.2102C10.622 33.2102 10.2866 32.8739 10.2866 32.4598C10.2866 32.0457 10.622 31.7104 11.0361 31.7104H14.3905C14.8046 31.7104 15.1409 32.0457 15.1409 32.4598C15.1409 32.8739 14.8046 33.2102 14.3905 33.2102H11.0361ZM8.73676 36.4386C8.32267 36.4386 7.98639 36.1024 7.98639 35.6883C7.98639 35.2742 8.32267 34.9388 8.73676 34.9388H12.0912C12.5053 34.9388 12.8407 35.2742 12.8407 35.6883C12.8407 36.1024 12.5053 36.4386 12.0912 36.4386H8.73676ZM18.3916 20.7957L18.2378 20.6419C17.9645 20.3687 17.9645 19.924 18.2378 19.6507L19.921 17.9665C20.1943 17.6942 20.6399 17.6942 20.9122 17.9665L21.0669 18.1213C20.0748 18.9059 19.1762 19.8036 18.3916 20.7957ZM41.1658 18.1213L41.3205 17.9665C41.5928 17.6942 42.0384 17.6942 42.3108 17.9665L43.9949 19.6507C44.2682 19.924 44.2682 20.3687 43.9949 20.6419L43.8412 20.7957C43.0565 19.8036 42.1579 18.9059 41.1658 18.1213ZM10.3218 19.5442C5.09515 19.5442 0.830078 15.2791 0.830078 10.0515C0.830078 4.82488 5.09515 0.559814 10.3218 0.559814C15.5494 0.559814 19.8145 4.82488 19.8145 10.0515C19.8145 15.2791 15.5494 19.5442 10.3218 19.5442ZM10.3218 17.508C14.4285 17.508 17.7783 14.1573 17.7783 10.0515C17.7783 5.9458 14.4285 2.59507 10.3218 2.59507C6.21607 2.59507 2.86627 5.9458 2.86627 10.0515C2.86627 14.1573 6.21607 17.508 10.3218 17.508ZM10.3218 16.0082C7.04241 16.0082 4.36609 13.3318 4.36609 10.0515C4.36609 6.77214 7.04241 4.09582 10.3218 4.09582C13.6021 4.09582 16.2785 6.77214 16.2785 10.0515C16.2785 13.3318 13.6021 16.0082 10.3218 16.0082ZM9.57236 6.40992C9.47509 6.43679 9.3806 6.46828 9.28796 6.50441C8.40512 6.85181 7.7724 7.617 7.82242 8.65455C7.8882 9.9978 9.07675 10.5842 10.206 10.7704C10.4793 10.8149 10.7711 10.8779 11.0287 10.9946C11.2695 11.1039 11.4844 11.2642 11.5224 11.568C11.5558 11.8469 11.3705 12.0136 11.1546 12.1192C10.9193 12.235 10.6405 12.2887 10.3839 12.2943C9.82619 12.3082 9.23886 12.0803 9.0962 11.5087C8.99615 11.1076 8.58854 10.8621 8.18742 10.9622C7.78537 11.0622 7.5408 11.4698 7.64085 11.8719C7.88542 12.8557 8.65895 13.481 9.57236 13.7043V13.9071C9.57236 14.3212 9.90864 14.6575 10.3227 14.6575C10.7359 14.6575 11.0722 14.3212 11.0722 13.9071V13.7154C12.169 13.4736 13.1686 12.6889 13.0111 11.3874C12.8444 10.022 11.5984 9.4781 10.4497 9.29005C10.2004 9.24929 9.93643 9.18814 9.70761 9.07605C9.50937 8.97878 9.33335 8.8389 9.32038 8.58136C9.30464 8.24138 9.54735 8.01442 9.83731 7.90047C10.3811 7.68648 11.1407 7.81524 11.4242 8.49058C11.5845 8.87225 12.0245 9.05197 12.4062 8.8917C12.7879 8.73144 12.9676 8.29141 12.8073 7.90974C12.4581 7.0797 11.7985 6.59335 11.0722 6.40251V6.19593C11.0722 5.78183 10.7359 5.44648 10.3227 5.44648C9.90864 5.44648 9.57236 5.78183 9.57236 6.19593V6.40992Z" fill="#00D280"/>
</g>
</g>
</g>
</g>
<defs>
<clipPath id="clip0_1_2709">
<rect width="46" height="45" fill="white" transform="translate(0.330078 0.559814)"/>
</clipPath>
<clipPath id="clip1_1_2709">
<rect width="46" height="45" fill="white" transform="translate(0.330078 0.559814)"/>
</clipPath>
<clipPath id="clip2_1_2709">
<rect width="46" height="45" fill="white" transform="translate(0.330078 0.559814)"/>
</clipPath>
</defs>
</svg>
