<svg width="47" height="46" viewBox="0 0 47 46" fill="none" xmlns="http://www.w3.org/2000/svg">
<g clip-path="url(#clip0_1_2680)">
<g clip-path="url(#clip1_1_2680)">
<g clip-path="url(#clip2_1_2680)">
<path d="M31.3498 34.2923L34.5626 31.0795L32.95 29.4669C33.7722 28.2348 34.3635 26.836 34.6642 25.3311H36.9432V20.7877H34.6642C34.3635 19.2836 33.7722 17.8848 32.95 16.6527L34.5626 15.0401L31.3498 11.8273L29.7372 13.4399C28.5051 12.6177 27.1063 12.0256 25.6022 11.7257V9.44669H21.0588V11.7257C19.5547 12.0264 18.1551 12.6177 16.923 13.4399L15.3104 11.8273L12.0976 15.0401L13.7102 16.6527C12.888 17.8848 12.2967 19.2836 11.9968 20.7877H9.71696V25.3311H11.9968C12.2967 26.8352 12.888 28.2348 13.7102 29.4669L12.0976 31.0795L15.3104 34.2923L16.923 32.6797C18.1551 33.5019 19.5547 34.0932 21.0588 34.3931V36.6729H25.6022V34.3931C27.1063 34.0932 28.5051 33.5019 29.7372 32.6797L31.3498 34.2923ZM23.3301 30.1387C19.4206 30.1387 16.2512 26.9693 16.2512 23.0598C16.2512 19.1503 19.4206 15.9809 23.3301 15.9809C27.2396 15.9809 30.409 19.1503 30.409 23.0598C30.409 26.9693 27.2396 30.1387 23.3301 30.1387ZM26.0648 23.0598C26.0648 24.5701 24.8404 25.7945 23.3301 25.7945C21.8198 25.7945 20.5954 24.5701 20.5954 23.0598C20.5954 21.5495 21.8198 20.3251 23.3301 20.3251C24.8404 20.3251 26.0648 21.5495 26.0648 23.0598ZM42.6203 25.7418C46.0966 33.419 41.0519 42.994 32.7842 43.9944V45.1064C32.7842 45.4738 32.3611 45.6985 32.0573 45.4637L27.7115 42.1059C27.4783 41.9254 27.4783 41.5728 27.7115 41.3922L32.0573 38.0345C32.3611 37.7997 32.7842 38.0244 32.7842 38.3917V39.4053C40.4226 38.174 42.3786 31.1221 42.6203 25.7418ZM20.6481 42.35C12.9709 45.8263 3.39589 40.7816 2.39546 32.5139H1.28344C0.916125 32.5139 0.691396 32.0908 0.926199 31.787L4.28395 27.4412C4.46451 27.208 4.8171 27.208 4.99766 27.4412L8.35541 31.787C8.59022 32.0908 8.36549 32.5139 7.99817 32.5131H6.98457C8.21593 40.1523 15.2678 42.1083 20.6481 42.35ZM45.734 14.3326L42.3762 18.6784C42.1957 18.9116 41.8431 18.9116 41.6625 18.6784L38.3048 14.3326C38.07 14.0288 38.2947 13.6057 38.662 13.6057H39.6756C38.4443 5.96727 31.3924 4.01136 26.0121 3.76958C33.6893 0.293269 43.2643 5.33803 44.2647 13.6057H45.3767C45.7441 13.6057 45.9688 14.0288 45.734 14.3326ZM4.03985 20.3778C0.563533 12.7006 5.6083 3.12562 13.876 2.12519V1.01318C13.876 0.645861 14.2991 0.421133 14.6029 0.655935L18.9487 4.01368C19.1819 4.19424 19.1819 4.54683 18.9487 4.72739L14.6029 8.08514C14.2991 8.31995 13.876 8.09522 13.8768 7.7279V6.7143C6.23754 7.94566 4.28163 14.9975 4.03985 20.3778Z" fill="#00D280"/>
</g>
</g>
</g>
<defs>
<clipPath id="clip0_1_2680">
<rect width="46" height="45" fill="white" transform="translate(0.330078 0.559814)"/>
</clipPath>
<clipPath id="clip1_1_2680">
<rect width="46" height="45" fill="white" transform="translate(0.330078 0.559814)"/>
</clipPath>
<clipPath id="clip2_1_2680">
<rect width="46" height="45" fill="white" transform="translate(0.330078 0.559814)"/>
</clipPath>
</defs>
</svg>
