<svg width="47" height="46" viewBox="0 0 47 46" fill="none" xmlns="http://www.w3.org/2000/svg">
<g clip-path="url(#clip0_1_2687)">
<g clip-path="url(#clip1_1_2687)">
<g clip-path="url(#clip2_1_2687)">
<mask id="mask0_1_2687" style="mask-type:luminance" maskUnits="userSpaceOnUse" x="1" y="0" width="46" height="46">
<path d="M1.47998 0.559814H46.48V45.5598H1.47998V0.559814Z" fill="white"/>
</mask>
<g mask="url(#mask0_1_2687)">
<path d="M18.4622 16.4774H15.1932C16.4991 14.7372 18.2976 13.4137 20.3541 12.6945C19.4916 13.7982 18.8858 15.1485 18.4622 16.4774ZM13.0256 22.3306H17.514C17.56 20.7712 17.7522 19.2868 18.0639 17.935H14.2695C13.5672 19.2623 13.1291 20.7513 13.0256 22.3306ZM24.7092 12.205V16.4774H27.9674C27.4206 14.9271 26.3283 12.7565 24.7092 12.205ZM23.2516 33.9138V29.6422H19.9933C20.5402 31.1925 21.6317 33.3623 23.2516 33.9138ZM20.3541 33.4244C19.4916 32.3214 18.8858 30.9703 18.4622 29.6422H15.1932C16.4991 31.3824 18.2976 32.7052 20.3541 33.4244ZM14.2695 28.1846H18.0639C17.7522 26.8328 17.56 25.3484 17.514 23.7882H13.0256C13.1298 25.3683 13.5672 26.8573 14.2695 28.1846ZM28.9884 23.7882H24.7092V28.1846H28.4025C28.7334 26.855 28.9402 25.3676 28.9884 23.7882ZM24.7092 33.9138C26.3283 33.3631 27.4206 31.1925 27.9667 29.6422H24.7092V33.9138ZM23.2516 23.7882H18.9716C19.0206 25.3676 19.2266 26.855 19.5583 28.1846H23.2516V23.7882ZM33.3106 14.8383H34.0252C34.4281 14.8383 34.7544 14.512 34.7544 14.1099V7.81088H38.4592C38.7548 8.60362 39.5192 9.16888 40.4146 9.16888C41.5673 9.16888 42.501 8.23444 42.501 7.08248C42.501 5.92976 41.5673 4.99608 40.4146 4.99608C39.5192 4.99608 38.7548 5.56058 38.4592 6.35332H34.0252C33.6231 6.35332 33.2968 6.6796 33.2968 7.08248V13.3807H31.7887C32.1326 13.6588 32.4612 13.9544 32.7737 14.2661C32.9582 14.4515 33.1375 14.6422 33.3106 14.8383ZM29.8961 28.1846H33.6912C34.3928 26.8573 34.831 25.3683 34.9343 23.7882H30.4468C30.4 25.3484 30.2078 26.8328 29.8961 28.1846ZM33.6912 17.935H29.8961C30.2078 19.2868 30.4008 20.7712 30.4468 22.3306H34.9343C34.831 20.7513 34.3928 19.2623 33.6912 17.935ZM40.4146 36.9515C39.5192 36.9515 38.7548 37.516 38.4592 38.3087H34.7544V32.0097C34.7544 31.6076 34.4281 31.2813 34.0252 31.2813H33.3098C33.1375 31.4774 32.9582 31.6681 32.7737 31.8527C32.4612 32.1652 32.1318 32.4608 31.7879 32.7389H33.2968V39.0379C33.2968 39.44 33.6231 39.7663 34.0252 39.7663H38.4592C38.7548 40.559 39.5192 41.1235 40.4146 41.1235C41.5673 41.1235 42.501 40.1899 42.501 39.0371C42.501 37.8852 41.5673 36.9515 40.4146 36.9515ZM29.4978 16.4774H32.7668C31.4609 14.7364 29.6624 13.4137 27.6059 12.6945C28.4684 13.7982 29.0742 15.1485 29.4978 16.4774ZM23.2516 17.935H19.5583C19.2266 19.2646 19.0206 20.7513 18.9716 22.3306H23.2516V17.935ZM23.2516 12.205C21.6317 12.7565 20.5402 14.9271 19.9933 16.4774H23.2516V12.205ZM41.7726 23.789C42.0682 24.5817 42.8326 25.1462 43.728 25.1462C44.8807 25.1462 45.8144 24.2118 45.8144 23.0598C45.8144 21.9078 44.8807 20.9734 43.728 20.9734C42.8326 20.9734 42.0682 21.5379 41.7726 22.3314H36.3942C36.4088 22.5719 36.4157 22.8147 36.4157 23.0598C36.4157 23.3041 36.4088 23.5477 36.3942 23.789H41.7726ZM38.0042 13.3945C37.6021 13.3945 37.2758 13.7208 37.2758 14.1229V18.7652H35.6543C35.8282 19.2386 35.9745 19.7249 36.0909 20.2228H38.0042C38.4071 20.2228 38.7334 19.8965 38.7334 19.4944V14.8513H42.4382C42.7338 15.6448 43.4982 16.2093 44.3936 16.2093C45.5463 16.2093 46.48 15.2756 46.48 14.1229C46.48 12.971 45.5463 12.0365 44.3936 12.0365C43.4982 12.0365 42.7338 12.601 42.4382 13.3937L38.0042 13.3945ZM44.3936 29.9103C43.4982 29.9103 42.7338 30.4748 42.4382 31.2683H38.7334V26.6252C38.7334 26.2231 38.4071 25.8968 38.0042 25.8968H36.0909C35.9745 26.3947 35.8282 26.881 35.6543 27.3544H37.2758V31.9967C37.2758 32.3996 37.6021 32.7259 38.0042 32.7259H42.4382C42.7338 33.5186 43.4982 34.0831 44.3936 34.0831C45.5463 34.0831 46.48 33.1494 46.48 31.9967C46.48 30.8447 45.5463 29.9103 44.3936 29.9103ZM28.4025 17.935H24.7092V22.3306H28.9884C28.9402 20.7513 28.7341 19.2646 28.4025 17.935ZM9.83399 23.0598C9.83399 15.2473 16.1675 8.91382 23.98 8.91382C25.2798 8.91382 26.539 9.08999 27.7346 9.41857V0.559814H20.2254V4.32743C17.7392 4.82375 15.4268 5.80108 13.3902 7.16061L10.7248 4.49517L5.41534 9.8046L8.08078 12.47C6.72125 14.5066 5.74315 16.819 5.2476 19.3052H1.47998V26.8144H5.2476C5.74315 29.3006 6.72125 31.613 8.08078 33.6496L5.41534 36.315L10.7248 41.6244L13.3902 38.959C15.4268 40.3185 17.7392 41.2966 20.2254 41.7922V45.5598H27.7346V36.701C26.539 37.0296 25.2798 37.2058 23.98 37.2058C16.1675 37.2058 9.83399 30.8723 9.83399 23.0598ZM29.4978 29.6422C29.0742 30.9711 28.4684 32.3214 27.6059 33.4251C29.6624 32.7059 31.4609 31.3824 32.7668 29.6422H29.4978Z" fill="#00D280"/>
</g>
</g>
</g>
</g>
<defs>
<clipPath id="clip0_1_2687">
<rect width="46" height="45" fill="white" transform="translate(0.97998 0.559814)"/>
</clipPath>
<clipPath id="clip1_1_2687">
<rect width="46" height="45" fill="white" transform="translate(0.97998 0.559814)"/>
</clipPath>
<clipPath id="clip2_1_2687">
<rect width="46" height="45" fill="white" transform="translate(0.97998 0.559814)"/>
</clipPath>
</defs>
</svg>
