<svg width="56" height="56" viewBox="0 0 56 56" fill="none" xmlns="http://www.w3.org/2000/svg">
<g clip-path="url(#clip0_1_2579)">
<path d="M4.92446 10.9227L6.26051 11.5896C6.37591 11.6468 6.50593 11.6779 6.63433 11.6779C6.65385 11.6779 6.67009 11.6681 6.6896 11.6664C3.33485 6.31508 2.89762 3.62634 3.5689 2.9513C4.25318 2.26318 7.42589 2.60478 14.9514 7.90708C15.4275 7.5246 15.946 7.19444 16.5035 6.93292L16.5539 6.9084C9.05938 1.52766 4.27269 -0.224526 2.34013 1.71888C0.854546 3.21118 1.57946 6.45892 4.47585 11.3739L4.92446 10.9227Z" fill="#0575AD"/>
<path d="M42.0235 7.91245C49.5538 2.60525 52.7281 2.26364 53.4125 2.95177C53.8952 3.43884 53.8204 5.12564 52.1593 8.40607L53.7066 9.1988C55.6083 5.44437 55.9139 2.99753 54.6396 1.71772C52.7054 -0.224056 47.9236 1.52812 40.4307 6.9056L40.4746 6.92685C41.0386 7.19 41.5489 7.53161 42.0235 7.91245Z" fill="#0575AD"/>
<path d="M52.7344 10.9835L51.2325 10.1106C50.9156 10.6614 50.5678 11.2335 50.1956 11.8252L51.6616 12.7602C52.0468 12.1488 52.406 11.5556 52.7344 10.9835Z" fill="#0575AD"/>
<path d="M50.502 14.5287L49.0668 13.5464C48.6865 14.1103 48.285 14.6856 47.864 15.2741L49.2733 16.2923C49.7024 15.6908 50.1135 15.1024 50.502 14.5287Z" fill="#0575AD"/>
<path d="M18.3167 26.5388C17.7901 25.957 17.2732 25.3784 16.7662 24.803L15.4658 25.9586C15.9779 26.5405 16.4996 27.1256 17.0327 27.714L18.3167 26.5388Z" fill="#0575AD"/>
<path d="M18.647 29.4678C19.1898 30.0497 19.7425 30.6349 20.3033 31.2217L21.5548 30.0105C20.9989 29.4302 20.4528 28.85 19.9148 28.2747L18.647 29.4678Z" fill="#0575AD"/>
<mask id="mask0_1_2579" style="mask-type:luminance" maskUnits="userSpaceOnUse" x="1" y="28" width="55" height="28">
<path d="M1.31079 28.8547H55.4028V55.0492H1.31079V28.8547Z" fill="white"/>
</mask>
<g mask="url(#mask0_1_2579)">
<path d="M42.7502 31.841C42.5957 32.4212 42.3991 32.9639 42.1877 33.4902C51.8847 44.9676 54.6331 51.821 53.4141 53.0453C51.779 54.6879 42.3779 49.6569 29.7684 38.0651C31.2637 36.661 32.7525 35.2162 34.2137 33.7484C35.4165 32.5389 36.5965 31.3113 37.7472 30.0888L36.5185 28.8547C35.3693 30.0774 34.1877 31.3049 32.985 32.5144C31.4523 34.0557 29.952 35.5071 28.4924 36.8784C27.0312 35.5071 25.5326 34.0557 23.9983 32.5144L23.2408 31.7478L22.0056 32.9737L22.7696 33.7484C24.2308 35.2162 25.7195 36.661 27.2149 38.0651C14.6069 49.6569 5.20748 54.6879 3.57075 53.0453C2.35334 51.821 5.09696 44.9741 14.7841 33.5065C14.5354 32.8935 14.3242 32.2414 14.1551 31.55C10.0543 36.3391 -1.43863 50.4791 2.34197 54.2776C2.8442 54.7811 3.54799 55.0197 4.42243 55.0181C9.15061 55.0181 18.8687 48.1025 28.4924 39.2501C38.1178 48.1042 47.8342 55.0197 52.5641 55.0181C53.4369 55.0181 54.1407 54.7811 54.6429 54.2776C58.4252 50.4775 46.9273 36.3358 42.8281 31.5468L42.7502 31.841Z" fill="#0575AD"/>
</g>
<path d="M28.4918 53.3019C30.5884 53.3019 32.3422 51.7998 32.7453 49.8123H24.2366C24.6412 51.7998 26.395 53.3019 28.4918 53.3019Z" fill="#0575AD"/>
<path d="M15.2541 17.8514L15.4735 17.7779V17.2842L15.2541 17.2123C14.5438 16.9769 13.9717 16.4457 13.6824 15.7511C13.3963 15.0581 13.4208 14.2767 13.7539 13.605L13.8612 13.386L13.5231 13.0444L13.3037 13.1539C12.6357 13.4857 11.8555 13.5119 11.168 13.2241C10.4788 12.9348 9.94728 12.3595 9.7149 11.6452L9.64176 11.4246H9.1509L9.07938 11.6452C8.84533 12.3595 8.31545 12.9348 7.62468 13.2241C6.93714 13.5151 6.1586 13.4873 5.48895 13.1539L5.27115 13.0444L4.93145 13.3844L5.04035 13.605C5.37193 14.2767 5.39793 15.0581 5.11024 15.7511C4.82255 16.4441 4.25042 16.9769 3.54014 17.2123L3.31909 17.2842V17.7779L3.54014 17.8497C4.25042 18.0852 4.82255 18.6163 5.11024 19.311C5.39793 20.004 5.37193 20.7853 5.04035 21.4571L4.93145 21.6794L5.27115 22.0194L5.48895 21.9114C6.15697 21.5764 6.93552 21.5502 7.62468 21.8396C8.31545 22.1305 8.84533 22.7059 9.07938 23.4202L9.1509 23.6375C9.3118 23.6375 9.4841 23.6375 9.64338 23.6375L9.7149 23.4202C9.94899 22.7059 10.4788 22.1305 11.168 21.8396C11.8571 21.5502 12.6357 21.5764 13.3053 21.9114L13.5231 22.0194L13.8628 21.6794L13.7539 21.4587C13.4224 20.7869 13.3963 20.0056 13.684 19.3126C13.9717 18.618 14.5438 18.0852 15.2541 17.8514ZM9.39632 19.2767C8.44223 19.2767 7.66044 18.4921 7.66044 17.531C7.66044 16.5716 8.44223 15.7871 9.39632 15.7871C10.352 15.7871 11.1322 16.5716 11.1322 17.531C11.1322 18.4921 10.352 19.2767 9.39632 19.2767Z" fill="#0575AD"/>
<path d="M48.232 23.9594L48.4514 23.8858V23.3921L48.232 23.3203C47.5217 23.0849 46.9496 22.5537 46.6602 21.859C46.3742 21.1676 46.4002 20.3847 46.7318 19.7129L46.839 19.4923L46.501 19.1523L46.2832 19.2602C45.6135 19.5936 44.8349 19.6198 44.1458 19.3321C43.4567 19.0428 42.9268 18.4674 42.6927 17.7532L42.6212 17.5325H42.1304L42.0589 17.7532C41.8248 18.4674 41.2949 19.0428 40.6042 19.3321C39.915 19.6214 39.1365 19.5936 38.4685 19.2602L38.2506 19.1523L37.9109 19.4923L38.0198 19.7129C38.3514 20.3847 38.3774 21.166 38.0897 21.859C37.8021 22.5537 37.2283 23.0865 36.518 23.3203L36.2986 23.3938V23.8858L36.5197 23.9594C37.2299 24.1931 37.8021 24.7259 38.0897 25.4189C38.3774 26.1119 38.3514 26.8949 38.0198 27.5666L37.9109 27.7856L38.2506 28.1273L38.4685 28.0177C39.1365 27.6843 39.915 27.6581 40.6058 27.9475C41.2949 28.2351 41.8248 28.8105 42.0589 29.5248L42.1304 29.7438C42.2913 29.7438 42.4635 29.7438 42.6229 29.7438L42.6944 29.5248C42.9301 28.8105 43.4583 28.2351 44.1491 27.9459C44.8366 27.6582 45.6151 27.6843 46.2848 28.0177L46.5026 28.1273L46.8423 27.7856L46.7334 27.565C46.4018 26.8932 46.3758 26.1119 46.6618 25.4189C46.9496 24.7259 47.5217 24.1931 48.232 23.9594ZM42.3742 25.3846C41.4201 25.3846 40.6383 24.5984 40.6383 23.639C40.6383 22.6795 41.4201 21.895 42.3742 21.895C43.3299 21.895 44.1117 22.6795 44.1117 23.639C44.1117 24.5984 43.3299 25.3846 42.3742 25.3846Z" fill="#0575AD"/>
<path d="M36.4635 26.7905C36.5724 26.5715 36.5805 26.3181 36.4863 26.091C36.392 25.867 36.2051 25.6921 35.9743 25.617L34.5619 25.1479V22.1305L35.9743 21.6631C36.2051 21.5863 36.392 21.4114 36.4863 21.1875C36.5789 20.9619 36.5708 20.7086 36.4635 20.4896L35.7987 19.146L37.9036 17.031L39.2397 17.6978C39.4575 17.8074 39.711 17.8156 39.9354 17.7207C40.1596 17.6276 40.3319 17.4396 40.4083 17.2075L40.8732 15.7871H42.9862C43.1552 15.2232 43.2494 14.6397 43.2494 14.0382C43.2494 11.6273 41.85 9.49594 39.7402 8.50871C39.5697 10.5682 38.505 12.4641 36.8 13.659L35.8069 12.2288C37.2047 11.2481 38.0401 9.64139 38.0401 7.93174C38.0401 5.04359 35.7029 2.69482 32.8293 2.69482C31.5322 2.69482 30.3132 3.16719 29.3574 4.02857V20.228C30.2287 19.3356 31.3762 18.7063 32.6862 18.4857L32.9739 20.2084C30.8788 20.5615 29.3574 22.3708 29.3574 24.5104V27.1289H36.2962L36.4635 26.7905Z" fill="#0575AD"/>
<path d="M24.1501 46.321H32.8328V48.0667H24.1501V46.321Z" fill="#0575AD"/>
<path d="M40.6761 30.8883L40.4079 30.0711C40.3868 30.0073 40.3429 29.9567 40.3088 29.9011L39.631 30.6285C38.2738 32.0864 36.8631 33.5526 35.4392 34.9828C34.4364 35.9896 33.3912 37.0128 32.3169 38.0409C33.2596 38.8892 34.173 39.6918 35.0589 40.4485C35.4896 39.9238 35.9496 39.4024 36.4225 38.8761C37.9211 37.2008 39.5546 35.3375 40.5526 32.8922L40.5754 32.8367C40.6599 32.6275 40.7281 32.4379 40.7947 32.2499C40.8923 31.9704 40.9898 31.6893 41.0678 31.3934L41.0695 31.3902C40.9134 31.3215 40.8224 31.2071 40.7216 31.0061L40.6761 30.8883Z" fill="#0575AD"/>
<path d="M17.2394 8.5133C15.9699 9.10989 14.9476 10.1266 14.3413 11.3965L15.9732 13.0375L15.3084 14.3812C15.2012 14.6002 15.193 14.8551 15.2857 15.079C15.38 15.3062 15.5669 15.4795 15.7976 15.5547L17.2118 16.0221V19.0411L15.7976 19.5101C15.5653 19.5869 15.38 19.7586 15.2857 19.9858C15.193 20.2097 15.2012 20.4647 15.3084 20.6837L15.9732 22.0273L16.9192 22.3395C16.9192 22.3395 22.0001 27.9507 22.4145 28.3871V27.1269H27.6238V24.5052C27.6206 22.1008 25.675 20.146 23.2825 20.146C22.5185 20.146 21.7693 20.3487 21.1126 20.7295L20.2431 19.2193C21.163 18.6848 22.2146 18.402 23.2825 18.402C24.9826 18.402 26.5202 19.1081 27.6238 20.2424V4.03316C26.6664 3.17014 25.4491 2.69287 24.1504 2.69287C21.2784 2.69287 18.9411 5.04164 18.9411 7.92815C18.9411 9.63943 19.7766 11.2462 21.1744 12.2269L20.1813 13.6587C18.4779 12.4639 17.4133 10.5695 17.2394 8.5133Z" fill="#0575AD"/>
<path d="M15.8412 31.1365C15.9826 31.7233 16.1679 32.3003 16.3906 32.8495L16.5287 33.1927C17.5348 35.4908 19.1049 37.2512 20.5579 38.8759C21.0293 39.4038 21.491 39.9236 21.9217 40.4482C22.8058 39.6915 23.7209 38.8889 24.662 38.0407C23.5892 37.0125 16.9253 30.1738 16.9253 30.1738L15.7517 28.8891C15.664 28.7926 15.5827 28.6979 15.4966 28.603C15.5274 29.3304 15.5974 30.0251 15.7274 30.6707L15.8412 31.1365Z" fill="#0575AD"/>
<path d="M23.7249 29.7622L25.23 31.2871C26.3466 32.4084 27.4307 33.4692 28.4904 34.4842C29.5502 33.4675 30.6376 32.4051 31.7558 31.2806C32.5506 30.4813 33.3324 29.6755 34.1045 28.8713H22.8716L23.7249 29.7622Z" fill="#0575AD"/>
<path d="M25.0977 44.5769H31.8852C30.7442 43.6044 29.6097 42.6074 28.4914 41.5989C27.3732 42.6074 26.2371 43.6044 25.0977 44.5769Z" fill="#0575AD"/>
</g>
<defs>
<clipPath id="clip0_1_2579">
<rect width="55" height="55" fill="white" transform="translate(0.859863 0.5)"/>
</clipPath>
</defs>
</svg>
