<svg width="56" height="56" viewBox="0 0 56 56" fill="none" xmlns="http://www.w3.org/2000/svg">
<g clip-path="url(#clip0_51_2077)">
<g clip-path="url(#clip1_51_2077)">
<g clip-path="url(#clip2_51_2077)">
<path d="M4.92641 10.9227L6.26246 11.5896C6.37786 11.6468 6.50788 11.6779 6.63629 11.6779C6.6558 11.6779 6.67205 11.6681 6.69155 11.6664C3.3368 6.31508 2.89958 3.62634 3.57086 2.9513C4.25513 2.26318 7.42785 2.60478 14.9533 7.90708C15.4295 7.5246 15.948 7.19444 16.5055 6.93292L16.5559 6.9084C9.06134 1.52766 4.27464 -0.224526 2.34209 1.71888C0.856499 3.21118 1.58141 6.45892 4.47781 11.3739L4.92641 10.9227Z" fill="white"/>
<path d="M42.0245 7.91245C49.5548 2.60525 52.7291 2.26364 53.4134 2.95177C53.8962 3.43884 53.8213 5.12564 52.1603 8.40607L53.7076 9.1988C55.6093 5.44437 55.9149 2.99753 54.6406 1.71772C52.7064 -0.224057 47.9245 1.52812 40.4316 6.9056L40.4756 6.92685C41.0395 7.19 41.5499 7.53161 42.0245 7.91245Z" fill="white"/>
<path d="M52.7361 10.9835L51.2342 10.1106C50.9173 10.6614 50.5695 11.2335 50.1973 11.8252L51.6633 12.7602C52.0485 12.1488 52.4077 11.5556 52.7361 10.9835Z" fill="white"/>
<path d="M50.5032 14.5287L49.068 13.5464C48.6877 14.1103 48.2862 14.6856 47.8652 15.2741L49.2745 16.2923C49.7036 15.6908 50.1147 15.1024 50.5032 14.5287Z" fill="white"/>
<path d="M18.3177 26.5388C17.791 25.957 17.2742 25.3784 16.7671 24.803L15.4668 25.9586C15.9788 26.5405 16.5005 27.1256 17.0337 27.714L18.3177 26.5388Z" fill="white"/>
<path d="M18.6484 29.4678C19.1913 30.0497 19.7439 30.6349 20.3047 31.2217L21.5562 30.0105C21.0004 29.4302 20.4542 28.85 19.9162 28.2747L18.6484 29.4678Z" fill="white"/>
<mask id="mask0_51_2077" style="mask-type:luminance" maskUnits="userSpaceOnUse" x="1" y="28" width="55" height="28">
<path d="M1.3125 28.8547H55.4045V55.0492H1.3125V28.8547Z" fill="white"/>
</mask>
<g mask="url(#mask0_51_2077)">
<path d="M42.7521 31.841C42.5977 32.4212 42.401 32.9639 42.1897 33.4902C51.8866 44.9676 54.6351 51.821 53.4161 53.0453C51.7809 54.6879 42.3798 49.6569 29.7703 38.0651C31.2657 36.661 32.7545 35.2162 34.2157 33.7484C35.4184 32.5389 36.5984 31.3113 37.7492 30.0888L36.5204 28.8547C35.3713 30.0774 34.1897 31.3049 32.9869 32.5144C31.4542 34.0557 29.954 35.5071 28.4944 36.8784C27.0332 35.5071 25.5346 34.0557 24.0003 32.5144L23.2428 31.7478L22.0076 32.9737L22.7715 33.7484C24.2327 35.2162 25.7215 36.661 27.2169 38.0651C14.6089 49.6569 5.20944 54.6879 3.5727 53.0453C2.3553 51.821 5.09891 44.9741 14.7861 33.5065C14.5374 32.8935 14.3261 32.2414 14.1571 31.55C10.0562 36.3391 -1.43667 50.4791 2.34393 54.2776C2.84616 54.7811 3.54994 55.0197 4.42439 55.0181C9.15257 55.0181 18.8707 48.1025 28.4944 39.2501C38.1198 48.1042 47.8362 55.0197 52.566 55.0181C53.4389 55.0181 54.1426 54.7811 54.6448 54.2776C58.4271 50.4775 46.9292 36.3358 42.8301 31.5468L42.7521 31.841Z" fill="white"/>
</g>
<path d="M28.4935 53.3019C30.5902 53.3019 32.3439 51.7998 32.7471 49.8123H24.2383C24.6429 51.7998 26.3967 53.3019 28.4935 53.3019Z" fill="white"/>
<path d="M15.2554 17.8514L15.4747 17.7779V17.2842L15.2554 17.2123C14.5451 16.9769 13.973 16.4457 13.6836 15.7511C13.3975 15.0581 13.422 14.2767 13.7551 13.605L13.8624 13.386L13.5243 13.0444L13.3049 13.1539C12.6369 13.4857 11.8567 13.5119 11.1692 13.2241C10.48 12.9348 9.9485 12.3595 9.71612 11.6452L9.64298 11.4246H9.15212L9.0806 11.6452C8.84655 12.3595 8.31667 12.9348 7.6259 13.2241C6.93837 13.5151 6.15982 13.4873 5.49017 13.1539L5.27237 13.0444L4.93267 13.3844L5.04157 13.605C5.37315 14.2767 5.39915 15.0581 5.11146 15.7511C4.82377 16.4441 4.25164 16.9769 3.54136 17.2123L3.32031 17.2842V17.7779L3.54136 17.8497C4.25164 18.0852 4.82377 18.6163 5.11146 19.311C5.39915 20.004 5.37315 20.7853 5.04157 21.4571L4.93267 21.6794L5.27237 22.0194L5.49017 21.9114C6.1582 21.5764 6.93674 21.5502 7.6259 21.8396C8.31667 22.1305 8.84655 22.7059 9.0806 23.4202L9.15212 23.6375C9.31302 23.6375 9.48532 23.6375 9.6446 23.6375L9.71612 23.4202C9.95021 22.7059 10.48 22.1305 11.1692 21.8396C11.8584 21.5502 12.6369 21.5764 13.3066 21.9114L13.5243 22.0194L13.864 21.6794L13.7551 21.4587C13.4236 20.7869 13.3975 20.0056 13.6853 19.3126C13.973 18.618 14.5451 18.0852 15.2554 17.8514ZM9.39754 19.2767C8.44345 19.2767 7.66166 18.4921 7.66166 17.531C7.66166 16.5716 8.44345 15.7871 9.39754 15.7871C10.3532 15.7871 11.1334 16.5716 11.1334 17.531C11.1334 18.4921 10.3532 19.2767 9.39754 19.2767Z" fill="white"/>
<path d="M48.2342 23.9594L48.4536 23.8858V23.3921L48.2342 23.3203C47.5239 23.0849 46.9518 22.5537 46.6624 21.859C46.3764 21.1676 46.4024 20.3847 46.734 19.7129L46.8412 19.4923L46.5032 19.1523L46.2854 19.2602C45.6157 19.5936 44.8371 19.6198 44.148 19.3321C43.4589 19.0428 42.929 18.4674 42.6949 17.7532L42.6234 17.5325H42.1326L42.0611 17.7532C41.827 18.4674 41.2971 19.0428 40.6064 19.3321C39.9172 19.6214 39.1387 19.5936 38.4707 19.2602L38.2528 19.1523L37.9131 19.4923L38.022 19.7129C38.3536 20.3847 38.3796 21.166 38.0919 21.859C37.8043 22.5537 37.2305 23.0865 36.5202 23.3203L36.3008 23.3938V23.8858L36.5219 23.9594C37.2321 24.1931 37.8043 24.7259 38.0919 25.4189C38.3796 26.1119 38.3536 26.8949 38.022 27.5666L37.9131 27.7856L38.2528 28.1273L38.4707 28.0177C39.1387 27.6843 39.9172 27.6582 40.608 27.9475C41.2971 28.2351 41.827 28.8105 42.0611 29.5248L42.1326 29.7438C42.2935 29.7438 42.4657 29.7438 42.6251 29.7438L42.6966 29.5248C42.9323 28.8105 43.4605 28.2351 44.1513 27.9459C44.8388 27.6582 45.6173 27.6843 46.287 28.0177L46.5048 28.1273L46.8445 27.7856L46.7356 27.565C46.404 26.8932 46.378 26.1119 46.664 25.4189C46.9518 24.7259 47.5239 24.1931 48.2342 23.9594ZM42.3764 25.3846C41.4223 25.3846 40.6405 24.5984 40.6405 23.639C40.6405 22.6795 41.4223 21.895 42.3764 21.895C43.3321 21.895 44.1138 22.6795 44.1138 23.639C44.1138 24.5984 43.3321 25.3846 42.3764 25.3846Z" fill="white"/>
<path d="M36.4655 26.7905C36.5744 26.5715 36.5825 26.3181 36.4883 26.091C36.394 25.867 36.2071 25.6921 35.9762 25.617L34.5638 25.1479V22.1305L35.9762 21.6631C36.2071 21.5863 36.394 21.4114 36.4883 21.1875C36.5809 20.9619 36.5728 20.7086 36.4655 20.4896L35.8007 19.146L37.9056 17.031L39.2416 17.6978C39.4594 17.8074 39.713 17.8156 39.9373 17.7207C40.1616 17.6276 40.3339 17.4396 40.4102 17.2075L40.8751 15.7871H42.9881C43.1572 15.2232 43.2514 14.6397 43.2514 14.0382C43.2514 11.6273 41.8519 9.49594 39.7422 8.50871C39.5716 10.5682 38.507 12.4641 36.802 13.659L35.8089 12.2288C37.2067 11.2481 38.0421 9.64139 38.0421 7.93174C38.0421 5.04359 35.7048 2.69482 32.8312 2.69482C31.5341 2.69482 30.3151 3.16719 29.3594 4.02857V20.228C30.2306 19.3356 31.3781 18.7063 32.6881 18.4857L32.9759 20.2084C30.8807 20.5615 29.3594 22.3708 29.3594 24.5104V27.1289H36.2981L36.4655 26.7905Z" fill="white"/>
<path d="M24.1523 46.321H32.8349V48.0667H24.1523V46.321Z" fill="white"/>
<path d="M40.6776 30.8883L40.4094 30.0711C40.3883 30.0073 40.3444 29.9567 40.3102 29.9011L39.6325 30.6285C38.2753 32.0864 36.8645 33.5526 35.4406 34.9828C34.4378 35.9896 33.3927 37.0128 32.3184 38.0409C33.261 38.8892 34.1745 39.6918 35.0603 40.4485C35.491 39.9238 35.9511 39.4024 36.424 38.8761C37.9226 37.2008 39.5561 35.3375 40.554 32.8922L40.5768 32.8367C40.6613 32.6275 40.7296 32.4379 40.7962 32.2499C40.8938 31.9704 40.9912 31.6893 41.0693 31.3934L41.0709 31.3902C40.9149 31.3215 40.8239 31.2071 40.7231 31.0061L40.6776 30.8883Z" fill="white"/>
<path d="M17.2398 8.5133C15.9704 9.10989 14.9481 10.1266 14.3418 11.3965L15.9737 13.0375L15.3089 14.3812C15.2017 14.6002 15.1935 14.8551 15.2862 15.079C15.3805 15.3062 15.5674 15.4795 15.7981 15.5547L17.2123 16.0221V19.0411L15.7981 19.5101C15.5658 19.5869 15.3805 19.7586 15.2862 19.9858C15.1935 20.2097 15.2017 20.4647 15.3089 20.6837L15.9737 22.0273L16.9197 22.3395C16.9197 22.3395 22.0006 27.9507 22.415 28.3871V27.1269H27.6243V24.5052C27.6211 22.1008 25.6755 20.146 23.283 20.146C22.519 20.146 21.7698 20.3487 21.1131 20.7295L20.2436 19.2193C21.1635 18.6848 22.2151 18.402 23.283 18.402C24.9831 18.402 26.5207 19.1081 27.6243 20.2424V4.03316C26.6669 3.17014 25.4495 2.69287 24.1509 2.69287C21.2789 2.69287 18.9416 5.04164 18.9416 7.92815C18.9416 9.63943 19.7771 11.2462 21.1749 12.2269L20.1818 13.6587C18.4784 12.4639 17.4138 10.5695 17.2398 8.5133Z" fill="white"/>
<path d="M15.8427 31.1365C15.984 31.7233 16.1693 32.3003 16.392 32.8495L16.5302 33.1927C17.5363 35.4908 19.1063 37.2512 20.5594 38.8759C21.0308 39.4038 21.4924 39.9236 21.9231 40.4482C22.8073 39.6915 23.7224 38.8889 24.6635 38.0407C23.5907 37.0125 16.9268 30.1738 16.9268 30.1738L15.7532 28.8891C15.6655 28.7926 15.5842 28.6979 15.498 28.603C15.5289 29.3304 15.5989 30.0251 15.7289 30.6707L15.8427 31.1365Z" fill="white"/>
<path d="M23.7264 29.7622L25.2315 31.2871C26.3481 32.4084 27.4322 33.4692 28.4919 34.4842C29.5517 33.4675 30.639 32.4051 31.7573 31.2806C32.5521 30.4813 33.3339 29.6755 34.1059 28.8713H22.873L23.7264 29.7622Z" fill="white"/>
<path d="M25.0996 44.5769H31.8872C30.7461 43.6044 29.6117 42.6074 28.4934 41.5989C27.3752 42.6074 26.239 43.6044 25.0996 44.5769Z" fill="white"/>
</g>
</g>
</g>
<defs>
<clipPath id="clip0_51_2077">
<rect width="55" height="55" fill="white" transform="translate(0.861328 0.5)"/>
</clipPath>
<clipPath id="clip1_51_2077">
<rect width="55" height="55" fill="white" transform="translate(0.861328 0.5)"/>
</clipPath>
<clipPath id="clip2_51_2077">
<rect width="55" height="55" fill="white" transform="translate(0.861328 0.5)"/>
</clipPath>
</defs>
</svg>
