<svg width="55" height="56" viewBox="0 0 55 56" fill="none" xmlns="http://www.w3.org/2000/svg">
<g clip-path="url(#clip0_51_2140)">
<g clip-path="url(#clip1_51_2140)">
<g clip-path="url(#clip2_51_2140)">
<path d="M27.39 29.8092V30.2032C27.39 30.2484 27.356 30.2825 27.3109 30.2825H23.6711C23.6259 30.2825 23.5918 30.2484 23.5918 30.2032V29.8092C23.5918 29.7641 23.6259 29.73 23.6711 29.73H27.3109C27.356 29.73 27.39 29.7641 27.39 29.8092Z" fill="white"/>
<path d="M37.9838 40.9674C37.9838 41.181 37.8153 41.3615 37.5897 41.3615H30.2188C30.3311 41.3615 30.4443 41.3053 30.5226 41.215C30.6018 41.1248 30.6248 41.0005 30.6018 40.8882L30.5346 40.5723H37.5897C37.8153 40.5834 37.9838 40.7528 37.9838 40.9674Z" fill="white"/>
<path d="M30.5348 41.215C30.4556 41.3053 30.3543 41.3615 30.2299 41.3615H20.2329C20.1206 41.3615 20.0083 41.3053 19.9291 41.215C19.8499 41.1248 19.8278 41.0005 19.8499 40.8882L19.9181 40.5723H30.5458L30.613 40.8882C30.636 41.0115 30.6019 41.1248 30.5348 41.215Z" fill="white"/>
<path d="M20.2326 41.3615H12.7944C12.5798 41.3615 12.4004 41.192 12.4004 40.9674C12.4004 40.7528 12.5688 40.5723 12.7944 40.5723H19.9177L19.8496 40.8882C19.8275 41.0005 19.8606 41.1248 19.9287 41.215C20.008 41.3053 20.1092 41.3615 20.2326 41.3615Z" fill="white"/>
<path d="M42.4127 30.4516L41.1844 30.6652L39.1328 25.5483L39.9781 24.9959L40.1586 24.8726L40.4173 25.5033L42.1529 29.8309L42.4127 30.4516Z" fill="white"/>
<path d="M40.4075 30.8008L37.3191 31.3193L35.8652 27.6794L38.4693 25.9768L40.4075 30.8008Z" fill="white"/>
<path d="M42.7167 29.1333L41.2969 25.6167C42.1872 25.4583 43.0887 25.9316 43.4386 26.7999C43.7987 27.6673 43.4717 28.6369 42.7167 29.1333Z" fill="white"/>
<path d="M38.3692 35.997L37.2301 36.4592L35.709 32.672L36.847 32.2097L38.3692 35.997Z" fill="white"/>
<path d="M29.7465 40.5835H20.707L22.0035 34.2834H28.4499L29.7465 40.5835Z" fill="white"/>
<path d="M36.5524 31.4886L35.0534 32.0972C34.1178 32.4692 33.047 32.018 32.6749 31.0825C32.4944 30.6313 32.4944 30.136 32.6869 29.6847C32.8784 29.2345 33.2385 28.8846 33.6896 28.7041L35.1887 28.0955L36.5524 31.4886Z" fill="white"/>
<path d="M39.3483 23.0125C39.3373 21.8965 39.3263 20.7363 39.3263 19.5973C39.3263 19.4289 39.3263 19.2374 39.3373 19.0458C39.3713 16.6673 39.247 14.695 37.2978 14.6499H14.0689C13.3249 14.6609 12.4796 14.7061 11.9161 15.1793C11.1841 15.8 11.127 16.9833 11.127 18.031C11.127 20.7694 11.127 23.5199 11.1389 26.2583V30.3724C11.1389 31.2739 11.1841 32.1192 11.6454 32.6937C12.266 33.4377 13.4492 33.5059 14.5081 33.5059H21.6314C21.6424 33.5059 21.6655 33.5059 21.6765 33.5059H28.7546C28.7656 33.5059 28.7887 33.5059 28.7998 33.5059H35.179L34.9534 32.9304C34.7499 32.9755 34.5473 32.9985 34.3558 32.9985C34.0069 32.9985 33.6569 32.9304 33.33 32.7839C32.6883 32.5143 32.192 32.0068 31.9323 31.3531C31.6735 30.7104 31.6846 30.0004 31.9553 29.3577C32.226 28.7159 32.7334 28.2196 33.3862 27.9609L35.0657 27.2841C35.0887 27.25 35.1218 27.2169 35.156 27.1939L38.4128 25.0641L38.4358 25.053L39.3483 24.4554C39.3603 23.9821 39.3603 23.4979 39.3483 23.0125ZM25.1027 15.9795C25.1027 15.766 25.2722 15.5854 25.4968 15.5854C25.7114 15.5854 25.8919 15.7549 25.8919 15.9795V18.1554C25.8919 18.369 25.7224 18.5495 25.4968 18.5495C25.2832 18.5495 25.1027 18.381 25.1027 18.1554V15.9795ZM19.9187 23.6212H17.7428C17.5293 23.6212 17.3488 23.4527 17.3488 23.2271C17.3488 23.0125 17.5182 22.832 17.7428 22.832H19.9187C20.1323 22.832 20.3128 23.0015 20.3128 23.2271C20.3128 23.4527 20.1323 23.6212 19.9187 23.6212ZM21.0909 20.8036C21.0227 20.9279 20.8874 20.9951 20.752 20.9951C20.6848 20.9951 20.6176 20.973 20.5604 20.9389L18.6784 19.846C18.4869 19.7326 18.4307 19.496 18.532 19.3155C18.6453 19.124 18.882 19.0678 19.0614 19.1691L20.9436 20.2631C21.1361 20.3754 21.2032 20.612 21.0909 20.8036ZM21.5191 16.521C21.7106 16.4086 21.9473 16.4758 22.0485 16.6673L23.1415 18.5495C23.2547 18.741 23.1866 18.9776 22.9951 19.0788C22.9389 19.113 22.8717 19.136 22.8035 19.136C22.6682 19.136 22.5328 19.0678 22.4656 18.9445L21.3726 17.0614C21.2594 16.8699 21.3276 16.6332 21.5191 16.521ZM29.4194 23.0807C29.4194 24.1626 28.9913 25.1764 28.2021 25.9204C27.7178 26.3827 27.3458 27.9158 27.2556 28.9526H27.3117C27.785 28.9526 28.168 29.3356 28.168 29.8089V30.203C28.168 30.6763 27.785 31.0603 27.3117 31.0603H27.041C27.019 31.8936 26.3311 32.5703 25.4968 32.5703C24.6515 32.5703 23.9757 31.8936 23.9537 31.0603H23.6829C23.2096 31.0603 22.8266 30.6763 22.8266 30.203V29.8089C22.8266 29.3356 23.2096 28.9526 23.6829 28.9526H23.7391C23.6598 27.9158 23.2768 26.3827 22.7925 25.9094C22.0144 25.1654 21.5862 24.1506 21.5862 23.0807C21.5862 22.0439 21.9923 21.0633 22.7133 20.3302C23.4463 19.5973 24.4149 19.1812 25.4407 19.1581C26.4895 19.136 27.4812 19.5411 28.2473 20.2961C29.0023 21.0402 29.4194 22.0208 29.4194 23.0807ZM28.4619 19.1812C28.3937 19.3045 28.2583 19.3727 28.1229 19.3727C28.0558 19.3727 27.9876 19.3496 27.9314 19.3155C27.7399 19.2032 27.6838 18.9666 27.785 18.7861L28.878 16.904C28.9913 16.7125 29.2279 16.6563 29.4084 16.7576C29.5999 16.8699 29.6561 17.1065 29.5548 17.287L28.4619 19.1812ZM29.9829 21.4232C29.8476 21.4232 29.7123 21.356 29.6451 21.2317C29.5318 21.0402 29.5999 20.8036 29.7914 20.7022L31.6735 19.6093C31.865 19.496 32.1017 19.5642 32.203 19.7557C32.3163 19.9472 32.2481 20.1839 32.0566 20.2851L30.1744 21.3781C30.1184 21.4012 30.0501 21.4232 29.9829 21.4232ZM32.7555 24.1175H30.5805C30.366 24.1175 30.1855 23.9481 30.1855 23.7225C30.1855 23.5089 30.355 23.3284 30.5805 23.3284H32.7555C32.9701 23.3284 33.1495 23.4979 33.1495 23.7225C33.1385 23.9481 32.9701 24.1175 32.7555 24.1175Z" fill="white"/>
<path d="M26.2636 31.0605C26.2405 31.4657 25.9026 31.7926 25.4965 31.7926C25.0914 31.7926 24.7536 31.4657 24.7305 31.0605H26.2636Z" fill="white"/>
<path d="M28.6402 23.0688C28.6402 23.9372 28.2913 24.7484 27.6716 25.346C26.9617 26.0218 26.5666 27.8257 26.4885 28.9407H24.5161C24.4369 27.8257 24.0418 26.0218 23.3319 25.346C22.7122 24.7484 22.3633 23.9372 22.3633 23.0688C22.3633 21.3672 23.749 19.9473 25.4627 19.9243C26.2959 19.9133 27.0971 20.2402 27.7047 20.8378C28.0095 21.1416 28.2462 21.4916 28.4156 21.8636C28.55 22.2466 28.6402 22.6527 28.6402 23.0688Z" fill="white"/>
<mask id="mask0_51_2140" style="mask-type:luminance" maskUnits="userSpaceOnUse" x="0" y="0" width="55" height="55">
<path d="M0.306641 0.551025H54.405V54.6493H0.306641V0.551025Z" fill="white"/>
</mask>
<g mask="url(#mask0_51_2140)">
<path d="M27.3558 54.6493C23.7039 54.6493 20.1653 53.9284 16.8294 52.5196C13.6056 51.1669 10.7208 49.2167 8.23008 46.7259C5.73934 44.2352 3.78906 41.3504 2.4364 38.1267C1.02759 34.7907 0.306641 31.2521 0.306641 27.6002C0.306641 23.9483 1.02759 20.4098 2.4364 17.0737C3.78906 13.85 5.73934 10.9652 8.23008 8.47446C10.7208 5.98373 13.6056 4.03344 16.8294 2.68079C20.1653 1.27198 23.7039 0.551025 27.3558 0.551025C31.0077 0.551025 34.5463 1.27198 37.8823 2.68079C41.095 4.03344 43.9798 5.98373 46.4816 8.47446C48.9723 10.9652 50.9226 13.85 52.2752 17.0737C53.6841 20.4098 54.405 23.9483 54.405 27.6002C54.405 31.2521 53.6841 34.7907 52.2752 38.1267C50.9115 41.3504 48.9613 44.2352 46.4816 46.7259C43.9908 49.2167 41.106 51.1669 37.8823 52.5196C34.5463 53.9284 31.0077 54.6493 27.3558 54.6493ZM27.3558 1.48656C12.9519 1.48656 1.24217 13.2073 1.24217 27.6002C1.24217 42.0042 12.9639 53.7139 27.3558 53.7139C41.7598 53.7139 53.4695 41.9921 53.4695 27.6002C53.4695 13.1962 41.7598 1.48656 27.3558 1.48656Z" fill="white"/>
</g>
</g>
</g>
</g>
<defs>
<clipPath id="clip0_51_2140">
<rect width="54.09" height="55" fill="white" transform="translate(0.310547 0.5)"/>
</clipPath>
<clipPath id="clip1_51_2140">
<rect width="54.09" height="55" fill="white" transform="translate(0.310547 0.5)"/>
</clipPath>
<clipPath id="clip2_51_2140">
<rect width="54.0984" height="55" fill="white" transform="translate(0.306641 0.5)"/>
</clipPath>
</defs>
</svg>
