<svg width="55" height="56" viewBox="0 0 55 56" fill="none" xmlns="http://www.w3.org/2000/svg">
<g clip-path="url(#clip0_1_2641)">
<g clip-path="url(#clip1_1_2641)">
<path d="M27.3891 29.8092V30.2032C27.3891 30.2484 27.355 30.2825 27.3099 30.2825H23.6701C23.6249 30.2825 23.5908 30.2484 23.5908 30.2032V29.8092C23.5908 29.7641 23.6249 29.73 23.6701 29.73H27.3099C27.355 29.73 27.3891 29.7641 27.3891 29.8092Z" fill="#0575AD"/>
<path d="M37.9825 40.9674C37.9825 41.181 37.8141 41.3615 37.5884 41.3615H30.2175C30.3299 41.3615 30.4431 41.3053 30.5214 41.215C30.6005 41.1248 30.6236 41.0005 30.6005 40.8882L30.5334 40.5723H37.5884C37.8141 40.5834 37.9825 40.7528 37.9825 40.9674Z" fill="#0575AD"/>
<path d="M30.5338 41.215C30.4546 41.3053 30.3533 41.3615 30.2289 41.3615H20.2319C20.1196 41.3615 20.0073 41.3053 19.9281 41.215C19.8489 41.1248 19.8268 41.0005 19.8489 40.8882L19.9171 40.5723H30.5448L30.6121 40.8882C30.635 41.0115 30.601 41.1248 30.5338 41.215Z" fill="#0575AD"/>
<path d="M20.2328 41.3615H12.7947C12.5801 41.3615 12.4006 41.192 12.4006 40.9674C12.4006 40.7528 12.5691 40.5723 12.7947 40.5723H19.918L19.8498 40.8882C19.8277 41.0005 19.8608 41.1248 19.929 41.215C20.0082 41.3053 20.1095 41.3615 20.2328 41.3615Z" fill="#0575AD"/>
<path d="M42.4127 30.4516L41.1844 30.6652L39.1328 25.5483L39.9781 24.9959L40.1586 24.8726L40.4173 25.5033L42.1529 29.8309L42.4127 30.4516Z" fill="#0575AD"/>
<path d="M40.4075 30.8008L37.3191 31.3193L35.8652 27.6794L38.4693 25.9768L40.4075 30.8008Z" fill="#0575AD"/>
<path d="M42.7169 29.1333L41.2971 25.6167C42.1875 25.4583 43.0889 25.9316 43.4389 26.7999C43.7989 27.6673 43.472 28.6369 42.7169 29.1333Z" fill="#0575AD"/>
<path d="M38.3677 35.997L37.2286 36.4592L35.7075 32.672L36.8456 32.2097L38.3677 35.997Z" fill="#0575AD"/>
<path d="M29.745 40.5835H20.7056L22.002 34.2834H28.4485L29.745 40.5835Z" fill="#0575AD"/>
<path d="M36.5517 31.4886L35.0526 32.0972C34.1171 32.4692 33.0462 32.018 32.6742 31.0825C32.4937 30.6313 32.4937 30.136 32.6862 29.6847C32.8777 29.2345 33.2377 28.8846 33.6889 28.7041L35.188 28.0955L36.5517 31.4886Z" fill="#0575AD"/>
<path d="M39.3468 23.0125C39.3358 21.8965 39.3248 20.7363 39.3248 19.5973C39.3248 19.4289 39.3248 19.2374 39.3358 19.0458C39.3699 16.6673 39.2455 14.695 37.2963 14.6499H14.0674C13.3234 14.6609 12.4781 14.7061 11.9146 15.1793C11.1827 15.8 11.1255 16.9833 11.1255 18.031C11.1255 20.7694 11.1255 23.5199 11.1375 26.2583V30.3724C11.1375 31.2739 11.1827 32.1192 11.6439 32.6937C12.2645 33.4377 13.4478 33.5059 14.5066 33.5059H21.6299C21.6409 33.5059 21.664 33.5059 21.675 33.5059H28.7532C28.7642 33.5059 28.7873 33.5059 28.7983 33.5059H35.1775L34.9519 32.9304C34.7484 32.9755 34.5458 32.9985 34.3543 32.9985C34.0054 32.9985 33.6555 32.9304 33.3285 32.7839C32.6868 32.5143 32.1905 32.0068 31.9308 31.3531C31.672 30.7104 31.6831 30.0004 31.9538 29.3577C32.2246 28.7159 32.7319 28.2196 33.3847 27.9609L35.0643 27.2841C35.0873 27.25 35.1204 27.2169 35.1545 27.1939L38.4114 25.0641L38.4343 25.053L39.3468 24.4554C39.3589 23.9821 39.3589 23.4979 39.3468 23.0125ZM25.1013 15.9795C25.1013 15.766 25.2708 15.5854 25.4954 15.5854C25.71 15.5854 25.8905 15.7549 25.8905 15.9795V18.1554C25.8905 18.369 25.721 18.5495 25.4954 18.5495C25.2818 18.5495 25.1013 18.381 25.1013 18.1554V15.9795ZM19.9173 23.6212H17.7414C17.5278 23.6212 17.3473 23.4527 17.3473 23.2271C17.3473 23.0125 17.5168 22.832 17.7414 22.832H19.9173C20.1309 22.832 20.3113 23.0015 20.3113 23.2271C20.3113 23.4527 20.1309 23.6212 19.9173 23.6212ZM21.0894 20.8036C21.0212 20.9279 20.8859 20.9951 20.7505 20.9951C20.6833 20.9951 20.6161 20.973 20.559 20.9389L18.6769 19.846C18.4854 19.7326 18.4292 19.496 18.5306 19.3155C18.6438 19.124 18.8805 19.0678 19.0599 19.1691L20.9421 20.2631C21.1346 20.3754 21.2018 20.612 21.0894 20.8036ZM21.5176 16.521C21.7091 16.4086 21.9458 16.4758 22.047 16.6673L23.14 18.5495C23.2533 18.741 23.1851 18.9776 22.9936 19.0788C22.9374 19.113 22.8702 19.136 22.8021 19.136C22.6667 19.136 22.5313 19.0678 22.4641 18.9445L21.3712 17.0614C21.2579 16.8699 21.3261 16.6332 21.5176 16.521ZM29.4179 23.0807C29.4179 24.1626 28.9898 25.1764 28.2006 25.9204C27.7164 26.3827 27.3444 27.9158 27.2541 28.9526H27.3103C27.7835 28.9526 28.1666 29.3356 28.1666 29.8089V30.203C28.1666 30.6763 27.7835 31.0603 27.3103 31.0603H27.0395C27.0175 31.8936 26.3297 32.5703 25.4954 32.5703C24.6501 32.5703 23.9742 31.8936 23.9522 31.0603H23.6814C23.2082 31.0603 22.8252 30.6763 22.8252 30.203V29.8089C22.8252 29.3356 23.2082 28.9526 23.6814 28.9526H23.7376C23.6584 27.9158 23.2753 26.3827 22.7911 25.9094C22.013 25.1654 21.5848 24.1506 21.5848 23.0807C21.5848 22.0439 21.9909 21.0633 22.7118 20.3302C23.4449 19.5973 24.4134 19.1812 25.4392 19.1581C26.4881 19.136 27.4797 19.5411 28.2458 20.2961C29.0008 21.0402 29.4179 22.0208 29.4179 23.0807ZM28.4604 19.1812C28.3922 19.3045 28.2568 19.3727 28.1215 19.3727C28.0543 19.3727 27.9861 19.3496 27.93 19.3155C27.7385 19.2032 27.6823 18.9666 27.7835 18.7861L28.8765 16.904C28.9898 16.7125 29.2264 16.6563 29.4069 16.7576C29.5985 16.8699 29.6546 17.1065 29.5534 17.287L28.4604 19.1812ZM29.9815 21.4232C29.8461 21.4232 29.7108 21.356 29.6436 21.2317C29.5303 21.0402 29.5985 20.8036 29.79 20.7022L31.672 19.6093C31.8636 19.496 32.1002 19.5642 32.2015 19.7557C32.3148 19.9472 32.2467 20.1839 32.0552 20.2851L30.173 21.3781C30.1169 21.4012 30.0486 21.4232 29.9815 21.4232ZM32.754 24.1175H30.5791C30.3646 24.1175 30.1841 23.9481 30.1841 23.7225C30.1841 23.5089 30.3535 23.3284 30.5791 23.3284H32.754C32.9686 23.3284 33.148 23.4979 33.148 23.7225C33.137 23.9481 32.9686 24.1175 32.754 24.1175Z" fill="#0575AD"/>
<path d="M26.2626 31.0605C26.2396 31.4657 25.9016 31.7926 25.4955 31.7926C25.0904 31.7926 24.7526 31.4657 24.7295 31.0605H26.2626Z" fill="#0575AD"/>
<path d="M28.6395 23.0688C28.6395 23.9372 28.2906 24.7484 27.6709 25.346C26.961 26.0218 26.5659 27.8257 26.4877 28.9407H24.5154C24.4361 27.8257 24.041 26.0218 23.3312 25.346C22.7115 24.7484 22.3625 23.9372 22.3625 23.0688C22.3625 21.3672 23.7483 19.9473 25.4619 19.9243C26.2951 19.9133 27.0963 20.2402 27.7039 20.8378C28.0088 21.1416 28.2455 21.4916 28.4149 21.8636C28.5492 22.2466 28.6395 22.6527 28.6395 23.0688Z" fill="#0575AD"/>
<mask id="mask0_1_2641" style="mask-type:luminance" maskUnits="userSpaceOnUse" x="0" y="0" width="55" height="55">
<path d="M0.305908 0.551025H54.4043V54.6493H0.305908V0.551025Z" fill="white"/>
</mask>
<g mask="url(#mask0_1_2641)">
<path d="M27.3551 54.6493C23.7032 54.6493 20.1646 53.9284 16.8286 52.5196C13.6049 51.1669 10.7201 49.2167 8.22934 46.7259C5.73861 44.2352 3.78833 41.3504 2.43567 38.1267C1.02686 34.7907 0.305908 31.2521 0.305908 27.6002C0.305908 23.9483 1.02686 20.4098 2.43567 17.0737C3.78833 13.85 5.73861 10.9652 8.22934 8.47446C10.7201 5.98373 13.6049 4.03344 16.8286 2.68079C20.1646 1.27198 23.7032 0.551025 27.3551 0.551025C31.007 0.551025 34.5456 1.27198 37.8815 2.68079C41.0943 4.03344 43.9791 5.98373 46.4808 8.47446C48.9715 10.9652 50.9219 13.85 52.2745 17.0737C53.6833 20.4098 54.4043 23.9483 54.4043 27.6002C54.4043 31.2521 53.6833 34.7907 52.2745 38.1267C50.9108 41.3504 48.9605 44.2352 46.4808 46.7259C43.9901 49.2167 41.1053 51.1669 37.8815 52.5196C34.5456 53.9284 31.007 54.6493 27.3551 54.6493ZM27.3551 1.48656C12.9511 1.48656 1.24144 13.2073 1.24144 27.6002C1.24144 42.0042 12.9631 53.7139 27.3551 53.7139C41.759 53.7139 53.4687 41.9921 53.4687 27.6002C53.4687 13.1962 41.759 1.48656 27.3551 1.48656Z" fill="#0575AD"/>
</g>
</g>
</g>
<defs>
<clipPath id="clip0_1_2641">
<rect width="54.09" height="55" fill="white" transform="translate(0.310059 0.5)"/>
</clipPath>
<clipPath id="clip1_1_2641">
<rect width="54.0984" height="55" fill="white" transform="translate(0.305908 0.5)"/>
</clipPath>
</defs>
</svg>
