<svg width="55" height="56" viewBox="0 0 55 56" fill="none" xmlns="http://www.w3.org/2000/svg">
<g clip-path="url(#clip0_1_2542)">
<g clip-path="url(#clip1_1_2542)">
<g clip-path="url(#clip2_1_2542)">
<mask id="mask0_1_2542" style="mask-type:luminance" maskUnits="userSpaceOnUse" x="0" y="1" width="55" height="55">
<path d="M0.305908 1.23755H54.4043V55.3359H0.305908V1.23755Z" fill="white"/>
</mask>
<g mask="url(#mask0_1_2542)">
<path fill-rule="evenodd" clip-rule="evenodd" d="M29.4075 55.3084H0.312988L3.25282 37.6032L12.0316 32.9094L19.4559 47.8887C19.6663 48.3171 20.1008 48.4316 20.4285 48.1452C20.5133 48.0743 20.5761 47.9757 20.6287 47.8749L28.0428 32.9232L28.148 32.9805C28.148 33.024 28.148 33.0676 28.148 33.1225V44.1227C28.148 45.165 28.6878 46.0355 29.4177 46.2622C29.4075 46.2783 29.4075 55.2649 29.4075 55.3084ZM29.3328 14.2926C29.3328 7.37218 25.176 1.75068 20.0363 1.75068C11.7991 1.66592 7.65238 15.4906 13.4692 23.1509C19.1486 30.983 29.3973 25.3912 29.3328 14.2926ZM54.1754 32.7949C46.9837 32.7949 36.9472 32.7949 29.7555 32.7949C29.6401 32.7949 29.5347 32.9232 29.5347 33.095V44.0952C29.5347 44.1799 29.5551 44.251 29.5976 44.3082C29.6824 44.4663 29.988 44.3793 30.1051 44.393H34.8645C34.9375 43.495 34.5471 41.7266 35.5621 41.6693H38.7769C39.792 41.7266 39.4118 43.5087 39.4745 44.393H44.4563C44.531 43.495 44.1389 41.7266 45.1539 41.6693H48.3687C49.3838 41.7266 49.0036 43.5087 49.0663 44.393H53.8155C53.9853 44.3655 54.3978 44.4938 54.3859 44.0952V33.095C54.3978 32.9369 54.3027 32.7949 54.1754 32.7949ZM49.0782 49.3594C49.0782 49.8862 48.7609 50.3009 48.3789 50.3009H45.1641C44.7737 50.3009 44.4665 49.8725 44.4665 49.3594V46.292H39.4864V49.3594C39.4864 49.8862 39.169 50.3009 38.7871 50.3009H35.5723C35.1819 50.3009 34.8747 49.8725 34.8747 49.3594V46.292H30.8248C30.8452 46.3631 30.7823 55.2649 30.8452 55.3084C36.2597 55.3359 47.6185 55.3084 53.0959 55.3222C53.1179 55.3222 53.1383 55.2947 53.1383 55.2649V46.3058H49.0884V49.3594H49.0782ZM36.2597 43.5523C36.2597 44.6358 36.2597 47.2907 36.2597 48.4018H38.0691C38.0691 47.2748 38.0691 44.6518 38.0691 43.5523H36.2597ZM45.8634 43.5523V48.4018H47.6711C47.6711 47.2748 47.6711 44.6518 47.6711 43.5523H45.8634ZM54.3978 3.97728V17.03C54.3978 18.5281 53.4778 19.7697 52.3661 19.7697H34.8747V3.97728C34.8747 2.46539 35.7845 1.23755 36.9047 1.23755H52.3661C53.488 1.23755 54.3978 2.47914 54.3978 3.97728ZM51.076 13.5778C51.076 13.0509 50.7586 12.6363 50.3784 12.6363H38.9144C37.9945 12.6363 38.0047 14.5193 38.9144 14.5354H50.3784C50.7586 14.5354 51.076 14.107 51.076 13.5778ZM51.076 7.42944C51.076 6.90257 50.7586 6.48795 50.3784 6.48795H38.9144C37.9945 6.48795 38.0047 8.37094 38.9144 8.38469H50.3784C50.7586 8.37094 51.076 7.94258 51.076 7.42944Z" fill="#0575AD"/>
</g>
</g>
</g>
</g>
<defs>
<clipPath id="clip0_1_2542">
<rect width="54.09" height="55" fill="white" transform="translate(0.310059 0.5)"/>
</clipPath>
<clipPath id="clip1_1_2542">
<rect width="54.09" height="55" fill="white" transform="translate(0.310059 0.5)"/>
</clipPath>
<clipPath id="clip2_1_2542">
<rect width="54.0984" height="55" fill="white" transform="translate(0.305908 0.5)"/>
</clipPath>
</defs>
</svg>
