<svg width="55" height="56" viewBox="0 0 55 56" fill="none" xmlns="http://www.w3.org/2000/svg">
<g clip-path="url(#clip0_51_2042)">
<g clip-path="url(#clip1_51_2042)">
<g clip-path="url(#clip2_51_2042)">
<mask id="mask0_51_2042" style="mask-type:luminance" maskUnits="userSpaceOnUse" x="0" y="1" width="55" height="55">
<path d="M0.306641 1.23755H54.405V55.3359H0.306641V1.23755Z" fill="white"/>
</mask>
<g mask="url(#mask0_51_2042)">
<path fill-rule="evenodd" clip-rule="evenodd" d="M29.409 55.3084H0.314453L3.25428 37.6032L12.033 32.9094L19.4573 47.8887C19.6678 48.3171 20.1023 48.4316 20.4299 48.1452C20.5148 48.0743 20.5776 47.9757 20.6302 47.8749L28.0443 32.9232L28.1495 32.9805C28.1495 33.024 28.1495 33.0676 28.1495 33.1225V44.1227C28.1495 45.165 28.6893 46.0355 29.4192 46.2622C29.409 46.2783 29.409 55.2649 29.409 55.3084ZM29.3342 14.2926C29.3342 7.37218 25.1774 1.75068 20.0378 1.75068C11.8005 1.66592 7.65385 15.4906 13.4707 23.1509C19.15 30.983 29.3988 25.3912 29.3342 14.2926ZM54.1768 32.7949C46.9852 32.7949 36.9487 32.7949 29.7569 32.7949C29.6415 32.7949 29.5362 32.9232 29.5362 33.095V44.0952C29.5362 44.1799 29.5566 44.251 29.5991 44.3082C29.6839 44.4663 29.9895 44.3793 30.1066 44.393H34.866C34.9389 43.495 34.5486 41.7266 35.5636 41.6693H38.7784C39.7934 41.7266 39.4132 43.5087 39.476 44.393H44.4578C44.5325 43.495 44.1403 41.7266 45.1554 41.6693H48.3702C49.3853 41.7266 49.005 43.5087 49.0678 44.393H53.817C53.9868 44.3655 54.3993 44.4938 54.3874 44.0952V33.095C54.3993 32.9369 54.3042 32.7949 54.1768 32.7949ZM49.0797 49.3594C49.0797 49.8862 48.7623 50.3009 48.3804 50.3009H45.1656C44.7752 50.3009 44.468 49.8725 44.468 49.3594V46.292H39.4879V49.3594C39.4879 49.8862 39.1705 50.3009 38.7886 50.3009H35.5738C35.1834 50.3009 34.8762 49.8725 34.8762 49.3594V46.292H30.8263C30.8467 46.3631 30.7838 55.2649 30.8467 55.3084C36.2612 55.3359 47.6199 55.3084 53.0974 55.3222C53.1194 55.3222 53.1398 55.2947 53.1398 55.2649V46.3058H49.0899V49.3594H49.0797ZM36.2612 43.5523C36.2612 44.6358 36.2612 47.2907 36.2612 48.4018H38.0706C38.0706 47.2748 38.0706 44.6518 38.0706 43.5523H36.2612ZM45.8649 43.5523V48.4018H47.6726C47.6726 47.2748 47.6726 44.6518 47.6726 43.5523H45.8649ZM54.3993 3.97728V17.03C54.3993 18.5281 53.4792 19.7697 52.3675 19.7697H34.8762V3.97728C34.8762 2.46539 35.7859 1.23755 36.9062 1.23755H52.3675C53.4894 1.23755 54.3993 2.47914 54.3993 3.97728ZM51.0775 13.5778C51.0775 13.0509 50.7601 12.6363 50.3799 12.6363H38.9159C37.9959 12.6363 38.0061 14.5193 38.9159 14.5354H50.3799C50.7601 14.5354 51.0775 14.107 51.0775 13.5778ZM51.0775 7.42944C51.0775 6.90257 50.7601 6.48795 50.3799 6.48795H38.9159C37.9959 6.48795 38.0061 8.37094 38.9159 8.38469H50.3799C50.7601 8.37094 51.0775 7.94258 51.0775 7.42944Z" fill="white"/>
</g>
</g>
</g>
</g>
<defs>
<clipPath id="clip0_51_2042">
<rect width="54.09" height="55" fill="white" transform="translate(0.310547 0.5)"/>
</clipPath>
<clipPath id="clip1_51_2042">
<rect width="54.09" height="55" fill="white" transform="translate(0.310547 0.5)"/>
</clipPath>
<clipPath id="clip2_51_2042">
<rect width="54.0984" height="55" fill="white" transform="translate(0.306641 0.5)"/>
</clipPath>
</defs>
</svg>
