<svg width="56" height="56" viewBox="0 0 56 56" fill="none" xmlns="http://www.w3.org/2000/svg">
<g clip-path="url(#clip0_51_1963)">
<g clip-path="url(#clip1_51_1963)">
<g clip-path="url(#clip2_51_1963)">
<mask id="mask0_51_1963" style="mask-type:luminance" maskUnits="userSpaceOnUse" x="0" y="0" width="56" height="56">
<path d="M0.859375 0.5H55.8594V55.5H0.859375V0.5Z" fill="white"/>
</mask>
<g mask="url(#mask0_51_1963)">
<path fill-rule="evenodd" clip-rule="evenodd" d="M7.12828 0.53125H38.092C41.5399 0.53125 44.3609 3.47977 44.3609 7.08695V25.7377C44.0168 25.9166 43.6954 26.1665 43.4299 26.4931L27.4092 46.0088H7.12828C3.67855 46.0088 0.859375 43.0621 0.859375 39.4549V7.08695C0.859375 3.47977 3.67855 0.53125 7.12828 0.53125ZM47.4508 26.5917L51.7442 30.4433C52.1651 30.8173 52.7834 30.79 53.1171 30.3831L54.8079 28.3268C56.3327 26.4712 55.6463 24.2416 54.1948 22.937C52.7433 21.6252 50.5162 21.2439 48.9913 23.1049L47.3006 25.1612C46.9617 25.568 47.0299 26.2158 47.4508 26.5917ZM29.4441 46.912L31.1244 46.4723C31.4109 46.401 31.6973 46.4668 31.9366 46.662C32.1811 46.8573 32.2685 47.1364 32.3208 47.4393L32.4571 48.2347C32.5025 48.523 32.5759 48.784 32.7995 48.9792C33.0178 49.1799 33.2781 49.2127 33.554 49.2237L34.3296 49.2401C34.6265 49.251 34.9025 49.2949 35.1208 49.5174C35.3444 49.7401 35.4527 50.0229 35.4213 50.3276L35.2606 52.1339L28.6161 55.4747C28.2843 55.6426 27.893 55.5824 27.5961 55.316C27.3009 55.0496 27.1856 54.6573 27.2957 54.2887L29.4441 46.912ZM46.3224 27.8634L48.518 29.8339L50.7136 31.8027C51.1084 32.1512 51.166 32.7587 50.8481 33.1456L36.499 50.6268C37.3007 48.5814 35.9575 48.1691 34.3401 48.0048C34.1375 47.9903 33.9454 47.9027 33.7986 47.7659C33.6484 47.6308 33.5331 47.4503 33.4859 47.2386C33.0912 45.591 32.4921 44.2681 30.6773 45.4067L45.0316 27.9291C45.3495 27.5386 45.9311 27.5113 46.3224 27.8634ZM27.1489 7.64709C28.1323 7.95727 29.0737 8.36963 29.9699 8.86591C30.1515 8.96809 30.2406 9.17974 30.1881 9.39321C29.8074 11.008 30.2196 12.787 31.4265 14.0532C32.6387 15.3158 34.3401 15.7464 35.8912 15.3486C36.0885 15.2939 36.2911 15.3869 36.3889 15.5822C36.864 16.5128 37.2588 17.498 37.5557 18.5252C37.6169 18.7314 37.5348 18.943 37.3584 19.058C35.9942 19.9173 35.0789 21.4847 35.0789 23.2728C35.0789 25.0572 35.9942 26.6245 37.3584 27.4839C37.5348 27.597 37.6169 27.8105 37.5557 28.0166C37.2588 29.0439 36.864 30.0292 36.3889 30.9597C36.2911 31.1549 36.0885 31.248 35.8912 31.1933C34.3401 30.7955 32.6387 31.2261 31.4265 32.4869C30.2196 33.755 29.8074 35.534 30.1881 37.1487C30.2406 37.3603 30.1515 37.5738 29.9699 37.6759C29.0737 38.1722 28.1323 38.5846 27.1489 38.8948C26.9516 38.9605 26.7489 38.8729 26.6389 38.6886C25.8179 37.2636 24.3193 36.3057 22.6127 36.3057C20.901 36.3057 19.4024 37.2636 18.5796 38.6886C18.4713 38.8729 18.2687 38.9605 18.0713 38.8948C17.0879 38.5846 16.1447 38.1722 15.2504 37.6759C15.0687 37.5738 14.9797 37.3603 15.032 37.1487C15.4111 35.534 15.0006 33.755 13.7936 32.4869C12.5814 31.2261 10.8802 30.7955 9.33435 31.1933C9.13173 31.248 8.92911 31.1549 8.82955 30.9652C8.3562 30.0346 7.96144 29.0439 7.66451 28.0166C7.60162 27.8105 7.68547 27.597 7.86188 27.4839C9.22606 26.6245 10.1414 25.0572 10.1414 23.2728C10.1414 21.4847 9.22606 19.9173 7.86188 19.058C7.68547 18.943 7.60162 18.7314 7.66451 18.5252C7.96144 17.498 8.3562 16.5128 8.82955 15.5822C8.92911 15.3869 9.13173 15.2939 9.33435 15.3486C10.8802 15.7464 12.5814 15.3158 13.7936 14.0532C15.0006 12.787 15.4111 11.008 15.032 9.39321C14.9797 9.17974 15.0687 8.96809 15.2556 8.86591C16.1447 8.36963 17.0879 7.95727 18.0713 7.64709C18.2687 7.58141 18.4713 7.66899 18.5796 7.85328C19.4024 9.27826 20.901 10.2362 22.6127 10.2362C24.3193 10.2362 25.8179 9.27826 26.6389 7.85328C26.7489 7.66899 26.9516 7.58141 27.1489 7.64709ZM22.6127 17.9869C25.4005 17.9869 27.6642 20.3534 27.6642 23.2728C27.6642 26.1884 25.4005 28.5549 22.6127 28.5549C19.8181 28.5549 17.5561 26.1884 17.5561 23.2728C17.5561 20.3534 19.8181 17.9869 22.6127 17.9869ZM22.6127 15.7993C26.5568 15.7993 29.7567 19.1456 29.7567 23.2728C29.7567 27.3963 26.5568 30.7407 22.6127 30.7407C18.6634 30.7407 15.4635 27.3963 15.4635 23.2728C15.4635 19.1456 18.6634 15.7993 22.6127 15.7993Z" fill="white"/>
</g>
</g>
</g>
</g>
<defs>
<clipPath id="clip0_51_1963">
<rect width="55" height="55" fill="white" transform="translate(0.859375 0.5)"/>
</clipPath>
<clipPath id="clip1_51_1963">
<rect width="55" height="55" fill="white" transform="translate(0.859375 0.5)"/>
</clipPath>
<clipPath id="clip2_51_1963">
<rect width="55" height="55" fill="white" transform="translate(0.859375 0.5)"/>
</clipPath>
</defs>
</svg>
