<svg width="56" height="56" viewBox="0 0 56 56" fill="none" xmlns="http://www.w3.org/2000/svg">
<g clip-path="url(#clip0_1_2463)">
<g clip-path="url(#clip1_1_2463)">
<g clip-path="url(#clip2_1_2463)">
<mask id="mask0_1_2463" style="mask-type:luminance" maskUnits="userSpaceOnUse" x="0" y="0" width="56" height="56">
<path d="M0.860107 0.5H55.8601V55.5H0.860107V0.5Z" fill="white"/>
</mask>
<g mask="url(#mask0_1_2463)">
<path fill-rule="evenodd" clip-rule="evenodd" d="M7.12901 0.531006H38.0927C41.5407 0.531006 44.3616 3.47952 44.3616 7.08671V25.7375C44.0175 25.9163 43.6961 26.1663 43.4307 26.4929L27.4099 46.0086H7.12901C3.67928 46.0086 0.860107 43.0618 0.860107 39.4547V7.08671C0.860107 3.47952 3.67928 0.531006 7.12901 0.531006ZM47.4515 26.5914L51.7449 30.4431C52.1659 30.8171 52.7841 30.7898 53.1178 30.3829L54.8086 28.3266C56.3335 26.471 55.647 24.2414 54.1955 22.9368C52.744 21.6249 50.5169 21.2436 48.9921 23.1046L47.3013 25.161C46.9624 25.5678 47.0306 26.2155 47.4515 26.5914ZM29.4448 46.9117L31.1251 46.472C31.4116 46.4008 31.6981 46.4665 31.9373 46.6618C32.1819 46.857 32.2692 47.1361 32.3216 47.439L32.4579 48.2345C32.5033 48.5228 32.5766 48.7838 32.8003 48.9789C33.0185 49.1797 33.2789 49.2125 33.5548 49.2235L34.3304 49.2399C34.6273 49.2508 34.9033 49.2946 35.1215 49.5172C35.3451 49.7398 35.4535 50.0226 35.422 50.3273L35.2613 52.1336L28.6169 55.4744C28.285 55.6423 27.8937 55.5821 27.5968 55.3157C27.3016 55.0494 27.1863 54.657 27.2964 54.2884L29.4448 46.9117ZM46.3231 27.8631L48.5187 29.8337L50.7143 31.8024C51.1091 32.1509 51.1668 32.7585 50.8489 33.1453L36.4997 50.6265C37.3015 48.5812 35.9583 48.1689 34.3408 48.0046C34.1382 47.99 33.9461 47.9025 33.7993 47.7656C33.6491 47.6306 33.5339 47.45 33.4867 47.2383C33.0919 45.5907 32.4928 44.2679 30.678 45.4065L45.0324 27.9289C45.3503 27.5384 45.9319 27.511 46.3231 27.8631ZM27.1497 7.64685C28.1331 7.95703 29.0745 8.36938 29.9706 8.86566C30.1522 8.96784 30.2413 9.17949 30.1889 9.39297C29.8082 11.0077 30.2203 12.7867 31.4273 14.0529C32.6395 15.3155 34.3408 15.7462 35.8919 15.3483C36.0893 15.2936 36.2918 15.3867 36.3896 15.5819C36.8648 16.5125 37.2596 17.4977 37.5565 18.525C37.6176 18.7311 37.5355 18.9428 37.3591 19.0577C35.9949 19.9171 35.0796 21.4844 35.0796 23.2726C35.0796 25.0569 35.9949 26.6243 37.3591 27.4836C37.5355 27.5967 37.6176 27.8102 37.5565 28.0164C37.2596 29.0436 36.8648 30.0289 36.3896 30.9594C36.2918 31.1547 36.0893 31.2477 35.8919 31.193C34.3408 30.7953 32.6395 31.2258 31.4273 32.4866C30.2203 33.7547 29.8082 35.5337 30.1889 37.1484C30.2413 37.3601 30.1522 37.5736 29.9706 37.6757C29.0745 38.172 28.1331 38.5844 27.1497 38.8946C26.9523 38.9602 26.7496 38.8727 26.6396 38.6883C25.8186 37.2634 24.32 36.3055 22.6134 36.3055C20.9017 36.3055 19.4031 37.2634 18.5804 38.6883C18.472 38.8727 18.2694 38.9602 18.0721 38.8946C17.0887 38.5844 16.1454 38.172 15.2511 37.6757C15.0694 37.5736 14.9804 37.3601 15.0328 37.1484C15.4118 35.5337 15.0013 33.7547 13.7944 32.4866C12.5822 31.2258 10.8809 30.7953 9.33508 31.193C9.13247 31.2477 8.92985 31.1547 8.83029 30.9649C8.35693 30.0343 7.96217 29.0436 7.66524 28.0164C7.60236 27.8102 7.6862 27.5967 7.86262 27.4836C9.22679 26.6243 10.1421 25.0569 10.1421 23.2726C10.1421 21.4844 9.22679 19.9171 7.86262 19.0577C7.6862 18.9428 7.60236 18.7311 7.66524 18.525C7.96217 17.4977 8.35693 16.5125 8.83029 15.5819C8.92985 15.3867 9.13247 15.2936 9.33508 15.3483C10.8809 15.7462 12.5822 15.3155 13.7944 14.0529C15.0013 12.7867 15.4118 11.0077 15.0328 9.39297C14.9804 9.17949 15.0694 8.96784 15.2564 8.86566C16.1454 8.36938 17.0887 7.95703 18.0721 7.64685C18.2694 7.58117 18.472 7.66875 18.5804 7.85303C19.4031 9.27802 20.9017 10.2359 22.6134 10.2359C24.32 10.2359 25.8186 9.27802 26.6396 7.85303C26.7496 7.66875 26.9523 7.58117 27.1497 7.64685ZM22.6134 17.9867C25.4012 17.9867 27.6649 20.3532 27.6649 23.2726C27.6649 26.1882 25.4012 28.5547 22.6134 28.5547C19.8188 28.5547 17.5568 26.1882 17.5568 23.2726C17.5568 20.3532 19.8188 17.9867 22.6134 17.9867ZM22.6134 15.7991C26.5575 15.7991 29.7575 19.1454 29.7575 23.2726C29.7575 27.3961 26.5575 30.7405 22.6134 30.7405C18.6642 30.7405 15.4643 27.3961 15.4643 23.2726C15.4643 19.1454 18.6642 15.7991 22.6134 15.7991Z" fill="#0575AD"/>
</g>
</g>
</g>
</g>
<defs>
<clipPath id="clip0_1_2463">
<rect width="55" height="55" fill="white" transform="translate(0.860107 0.5)"/>
</clipPath>
<clipPath id="clip1_1_2463">
<rect width="55" height="55" fill="white" transform="translate(0.860107 0.5)"/>
</clipPath>
<clipPath id="clip2_1_2463">
<rect width="55" height="55" fill="white" transform="translate(0.860107 0.5)"/>
</clipPath>
</defs>
</svg>
