<svg width="47" height="46" viewBox="0 0 47 46" fill="none" xmlns="http://www.w3.org/2000/svg">
<g clip-path="url(#clip0_1_2720)">
<g clip-path="url(#clip1_1_2720)">
<g clip-path="url(#clip2_1_2720)">
<mask id="mask0_1_2720" style="mask-type:luminance" maskUnits="userSpaceOnUse" x="1" y="0" width="46" height="46">
<path d="M1.47998 0.559814H46.48V45.5598H1.47998V0.559814Z" fill="white"/>
</mask>
<g mask="url(#mask0_1_2720)">
<path fill-rule="evenodd" clip-rule="evenodd" d="M26.1643 35.6652C25.9265 36.0642 25.5896 35.8944 25.307 35.7324C25.456 35.4532 25.6508 35.1379 25.7473 34.8397C26.0687 35.0215 26.3935 35.2594 26.1643 35.6652ZM33.5342 19.8096C33 20.0258 32.4485 20.2275 31.91 20.436C31.8919 20.4429 31.8798 20.4739 31.8867 20.4912L35.1335 28.8649C35.1404 28.883 35.1705 28.895 35.1878 28.8882C35.7263 28.6796 36.2692 28.4573 36.8094 28.2565C36.8181 28.2479 36.825 28.2324 36.825 28.2204L33.5704 19.8251C33.5618 19.8156 33.5463 19.8096 33.5342 19.8096ZM16.405 19.9629L14.8239 19.2641C14.8032 19.2547 14.7791 19.2615 14.7696 19.2831L11.1385 27.4983C11.1299 27.519 11.1368 27.5431 11.1583 27.5526L12.7395 28.2514C12.7602 28.2609 12.7843 28.254 12.7938 28.2324L16.424 20.0172C16.4335 19.9966 16.4266 19.9724 16.405 19.9629ZM30.67 23.1072C29.6688 23.6276 28.8278 23.2907 27.8661 22.8978C26.8933 22.4997 25.7533 22.0335 24.2247 23.0822C22.9563 23.949 21.9887 25.1304 20.5704 26.036C21.5725 26.8072 22.7323 26.3376 23.8387 25.8895C25.1148 25.3734 26.3401 24.8771 27.5749 25.5802L31.8617 28.0248C32.0056 28.1066 32.1357 28.2031 32.2503 28.3108L33.1663 27.9283L31.1896 22.8289L30.67 23.1072ZM21.8836 32.5865C21.6957 32.4865 21.4553 32.5149 21.2924 32.6502L20.2438 34.682C20.249 34.8707 20.3515 35.0431 20.5195 35.1327C20.7367 35.249 21.015 35.193 21.1735 35.006L22.1558 33.1172C22.18 32.9053 22.0731 32.6881 21.8836 32.5865ZM24.0696 33.7557C23.8826 33.6567 23.6439 33.6842 23.4811 33.8186L22.5384 35.6307C22.5376 35.8186 22.6427 36.015 22.8142 36.1004C23.0692 36.2365 23.3941 36.14 23.5311 35.8849L24.2859 34.4727C24.4203 34.2219 24.3221 33.891 24.0696 33.7557ZM19.6975 31.4172C19.5286 31.3275 19.3227 31.337 19.1607 31.4387C18.7402 32.1668 18.3102 32.8863 17.9138 33.6274C17.7768 33.8833 17.8742 34.2081 18.1292 34.3451C18.3765 34.477 18.6833 34.3917 18.8315 34.1556L19.9689 31.9531C19.9948 31.7394 19.8888 31.5197 19.6975 31.4172ZM17.6708 29.9489C17.4192 29.8145 17.0892 29.9118 16.9539 30.1643C16.692 30.6554 16.4292 31.1457 16.1672 31.6369C16.0302 31.8919 16.1276 32.2168 16.3826 32.3538C16.5472 32.4417 16.7575 32.4296 16.916 32.334L17.9155 30.6037C18.0077 30.359 17.9026 30.0721 17.6708 29.9489ZM31.1241 29.325L26.8364 26.8813C26.2324 26.5375 25.3354 26.9003 24.4014 27.2786C22.6005 28.0075 20.7013 28.7753 18.9065 26.4651C18.5756 26.0395 18.6945 25.413 19.1607 25.1407C20.4833 24.3687 21.295 23.6845 22.3911 22.6505C21.7086 22.4997 21.0796 22.6471 20.4911 22.7849C19.5639 23.0021 18.7109 23.202 17.7475 22.6703L17.0349 22.3412L14.8239 27.3432C15.0272 27.4328 15.234 27.531 15.44 27.6112C16.0112 27.8326 16.2525 28.2281 16.3887 28.6736C17.5287 27.9972 19.0038 28.5909 19.3666 29.8627C20.1912 29.8282 20.9573 30.3013 21.2942 31.057C22.2006 30.9027 23.1063 31.3861 23.4802 32.2263C24.2066 32.1022 24.9468 32.3883 25.4026 32.9613C25.755 33.0431 27.1389 33.9091 27.5516 34.1426C27.8127 34.2435 28.0695 34.2167 28.2177 33.9548C28.3513 33.7109 28.2608 33.4145 28.0204 33.2792C26.964 32.6864 25.9101 32.0824 24.8529 31.4878C24.4927 31.2853 24.3634 30.8286 24.5659 30.4685C24.7684 30.1074 25.2251 29.979 25.5853 30.1807L29.4689 32.3659C29.6989 32.4986 30.0057 32.3969 30.1306 32.1703C30.2625 31.9299 30.1685 31.6334 29.9316 31.5007C28.9441 30.9476 27.9575 30.3944 26.9752 29.8325C26.6159 29.6266 26.4909 29.1691 26.6969 28.8097C26.9019 28.4504 27.3595 28.3255 27.7188 28.5314C28.6977 29.0915 29.6808 29.643 30.664 30.1936C30.8966 30.3263 31.1948 30.2298 31.3232 30.0006C31.4619 29.761 31.3568 29.4577 31.1241 29.325ZM18.0146 16.3189C18.0146 12.8714 20.809 10.0761 24.2566 10.0761C27.7041 10.0761 30.4994 12.8714 30.4994 16.3189C30.4994 18.3732 29.5068 20.1956 27.9756 21.333C26.8442 20.8953 25.5284 20.5653 23.793 21.5838C22.4996 20.8763 21.4226 21.0375 20.4411 21.2589C18.9651 20.1172 18.0146 18.3292 18.0146 16.3189ZM20.7324 16.7842L22.784 18.8359C23.1459 19.1969 23.7318 19.1969 24.0937 18.8359C25.3302 17.5985 26.553 16.3482 27.7834 15.1057C28.1427 14.7438 28.141 14.1596 27.78 13.7994C27.4181 13.4401 26.8313 13.4409 26.472 13.8037L23.4371 16.8695L22.0421 15.4745C21.6802 15.1126 21.0943 15.1126 20.7324 15.4745C20.3713 15.8355 20.3713 16.4223 20.7324 16.7842ZM46.48 20.0146V26.105L42.7515 27.5405C42.2785 29.5267 41.4909 31.4241 40.4207 33.1629L42.0432 36.8164L37.7366 41.123L34.084 39.5005C32.3451 40.5716 30.4469 41.3591 28.4598 41.8322L27.0252 45.5598H20.9348L19.5002 41.8313C17.5131 41.3583 15.6157 40.5707 13.8769 39.5005L10.2234 41.123L5.91673 36.8164L7.53926 33.1638C6.4682 31.4249 5.68063 29.5267 5.20758 27.5396L1.47998 26.105V20.0146L5.20844 18.58C5.68063 16.5929 6.4682 14.6955 7.53926 12.9567L5.91673 9.3032L10.2234 4.99656L13.8769 6.61995C15.6157 5.5489 17.5131 4.76133 19.5002 4.28827L20.9348 0.559814H27.0252L28.4598 4.28827C30.4469 4.76133 32.3443 5.5489 34.0831 6.61995L37.7366 4.99656L42.0432 9.3032L40.4207 12.9558C41.4918 14.6947 42.2793 16.5929 42.7524 18.58L46.48 20.0146ZM40.3897 23.0598C40.3897 13.9959 33.0439 6.64925 23.98 6.64925C14.9161 6.64925 7.56942 13.9959 7.56942 23.0598C7.56942 32.1237 14.9161 39.4704 23.98 39.4704C33.0439 39.4704 40.3897 32.1237 40.3897 23.0598Z" fill="#00D280"/>
</g>
</g>
</g>
</g>
<defs>
<clipPath id="clip0_1_2720">
<rect width="46" height="45" fill="white" transform="translate(0.97998 0.559814)"/>
</clipPath>
<clipPath id="clip1_1_2720">
<rect width="46" height="45" fill="white" transform="translate(0.97998 0.559814)"/>
</clipPath>
<clipPath id="clip2_1_2720">
<rect width="46" height="45" fill="white" transform="translate(0.97998 0.559814)"/>
</clipPath>
</defs>
</svg>
