<svg width="56" height="56" viewBox="0 0 56 56" fill="none" xmlns="http://www.w3.org/2000/svg">
<g clip-path="url(#clip0_1_2566)">
<g clip-path="url(#clip1_1_2566)">
<g clip-path="url(#clip2_1_2566)">
<mask id="mask0_1_2566" style="mask-type:luminance" maskUnits="userSpaceOnUse" x="0" y="0" width="56" height="56">
<path d="M0.859863 0.5H55.8599V55.5H0.859863V0.5Z" fill="white"/>
</mask>
<g mask="url(#mask0_1_2566)">
<path fill-rule="evenodd" clip-rule="evenodd" d="M6.46077 40.8044L26.1786 3.91001C26.6598 3.01175 27.4566 2.51023 28.4251 2.51023C29.2784 2.51023 30.0027 2.89234 30.5037 3.63138C30.7737 4.02809 31.2905 4.11433 31.6588 3.82376C32.0272 3.53186 32.107 2.97328 31.8369 2.57524C30.0715 -0.0306051 26.3136 0.0927873 24.7483 3.01573L5.01088 39.9447L4.90775 38.7771C4.86479 38.2862 4.46211 37.9266 4.00787 37.973C3.55362 38.0195 3.2197 38.4546 3.26267 38.9442L3.6101 42.8517C3.65429 43.5217 4.27304 43.8733 4.78131 43.6186L8.10954 41.9468C8.5245 41.7398 8.70496 41.2091 8.51467 40.7607C8.32316 40.3135 7.83208 40.1172 7.41713 40.3242L6.46077 40.8044ZM44.6182 51.2994H5.34235C3.39402 51.2994 2.23633 49.1646 2.9582 47.3947C3.14235 46.9435 2.95206 46.4155 2.53465 46.2165C2.11602 46.0174 1.6274 46.2231 1.44325 46.6756C0.236439 49.6343 2.22896 53.0893 5.34235 53.0893H44.6182L43.7503 53.7527C43.3771 54.0367 43.2862 54.5939 43.5489 54.9973C43.8116 55.4006 44.3286 55.4975 44.7017 55.2135L47.658 52.9553C48.1847 52.5798 48.1847 51.8089 47.658 51.4322L44.7017 49.174C44.3286 48.89 43.8116 48.9869 43.5489 49.3902C43.2862 49.7949 43.3771 50.3521 43.7503 50.636L44.6182 51.2994ZM34.0172 10.1672L33.9141 11.3388C33.8711 11.8284 33.4672 12.1893 33.0142 12.1428C32.56 12.0963 32.2261 11.6612 32.2691 11.1702L32.6189 7.22303C32.673 6.60872 33.2794 6.24385 33.7876 6.49727V6.49594L37.1159 8.16904C37.5308 8.37602 37.7113 8.90675 37.521 9.35388C37.3295 9.80229 36.8385 9.99736 36.4235 9.79175L35.4635 9.30877L55.1849 46.2085C56.7845 49.2031 54.8718 52.881 51.778 53.0787C51.3226 53.1079 50.9309 52.7324 50.904 52.2402C50.8769 51.7466 51.2256 51.3246 51.681 51.2955C53.5766 51.1748 54.7258 48.9152 53.7546 47.0961L34.0172 10.1672ZM36.0847 36.0624C36.1141 36.0067 36.1718 35.9788 36.2295 35.9921L37.7924 36.3503C38.1975 35.9908 38.6579 35.7002 39.1587 35.4972L39.6511 33.8587C39.6695 33.7962 39.721 33.7564 39.78 33.7564H41.9137C41.9738 33.7564 42.0241 33.7962 42.0426 33.8587L42.5361 35.4972C43.0358 35.7002 43.4961 35.9908 43.9013 36.3503L45.4641 35.9921C45.5231 35.9788 45.5795 36.0067 45.6102 36.0624L46.6759 38.058C46.7066 38.1136 46.6991 38.1814 46.6599 38.2291L45.5918 39.5108C45.6777 40.076 45.6777 40.6505 45.5905 41.2157L46.6599 42.4974C46.6991 42.5452 46.7066 42.6129 46.6759 42.6685L45.6102 44.6641C45.5795 44.7199 45.5231 44.7477 45.4641 44.7344L43.9025 44.3762C43.4961 44.7357 43.0358 45.0263 42.5349 45.2294L42.0426 46.8693C42.0241 46.9303 41.9726 46.9701 41.9137 46.9701H39.78C39.721 46.9701 39.6695 46.9303 39.6511 46.8693L39.1587 45.2294C38.6579 45.0263 38.1975 44.7357 37.7924 44.3762L36.2295 44.7344C36.1718 44.7477 36.1141 44.7199 36.0847 44.6641L35.0178 42.6685C34.9871 42.6129 34.9945 42.5452 35.0337 42.4974L36.1018 41.2157C36.0159 40.6519 36.0159 40.0747 36.1018 39.5108L35.7483 39.0849L35.2277 38.5382C35.1602 38.4679 35.1418 38.3644 35.1799 38.2716L36.0847 36.0624ZM40.8468 38.3804C39.8328 38.3804 39.0114 39.268 39.0114 40.3626C39.0114 41.4585 39.8328 42.3462 40.8468 42.3462C41.8609 42.3462 42.6834 41.4585 42.6834 40.3626C42.6834 39.268 41.8609 38.3804 40.8468 38.3804ZM24.9521 33.3213C25.3167 33.4128 25.6432 33.5375 25.9416 33.6915C26.3541 33.9011 26.5308 34.4344 26.3369 34.8803C26.1417 35.326 25.6494 35.5171 25.2357 35.3062C24.6525 35.0076 23.7207 34.802 23.059 35.0992L23.0602 35.1005C22.9387 35.1549 22.757 35.2756 22.7619 35.342C22.7655 35.3924 22.946 35.5224 23.0664 35.5848V35.5835C23.631 35.8396 24.1946 35.6087 25.0994 36.0146C25.4628 36.1779 25.8028 36.4538 26.014 36.7311C26.2644 37.0602 26.4498 37.5498 26.4228 37.9704C26.3664 38.8249 25.8458 39.459 25.1018 39.7961C24.9312 39.8744 24.7569 39.9367 24.5789 39.9818C24.5751 40.474 24.2056 40.8708 23.7501 40.8708C23.3021 40.8708 22.9374 40.4873 22.9227 40.0084C22.4538 39.9274 22.0019 39.7801 21.5624 39.5652C21.1462 39.3622 20.9609 38.8329 21.1475 38.383C21.3353 37.9332 21.8251 37.7328 22.2426 37.9359C22.7791 38.1986 23.5415 38.383 24.143 38.2543C24.3419 38.2119 24.7642 38.0394 24.7618 37.9054C24.7606 37.8549 24.5924 37.725 24.4781 37.6705C23.9196 37.4092 23.3155 37.6387 22.4255 37.234L22.4267 37.2327C20.6319 36.3849 20.6871 34.2301 22.4317 33.45L22.4329 33.4513C22.5925 33.3769 22.7557 33.3173 22.9215 33.2734C22.9215 32.7786 23.2922 32.3779 23.7501 32.3779C24.1983 32.3779 24.5641 32.7627 24.5789 33.2443C24.7078 33.2656 24.8318 33.2921 24.9521 33.3213ZM25.1264 24.5949C25.0675 24.6081 25.011 24.5802 24.9816 24.5245L23.9147 22.529C23.884 22.472 23.8914 22.4056 23.9306 22.3579L24.9987 21.0762C24.9128 20.511 24.9128 19.9351 24.9987 19.3713L24.6452 18.9453L24.1246 18.3987C24.0571 18.327 24.0387 18.2235 24.0767 18.1307L24.9816 15.9216C25.011 15.8659 25.0687 15.838 25.1264 15.8526L26.6892 16.2108C27.0944 15.8499 27.5547 15.5607 28.0556 15.3577L28.548 13.7177C28.5664 13.6567 28.6179 13.6169 28.6768 13.6169H30.8106C30.8695 13.6169 30.921 13.6567 30.9394 13.7177L31.4318 15.3577C31.9327 15.5607 32.393 15.8499 32.7982 16.2108L34.361 15.8526C34.4199 15.838 34.4764 15.8659 34.5058 15.9216L35.5727 17.9184C35.6034 17.9741 35.596 18.0405 35.5568 18.0882L34.4887 19.3699C34.5746 19.9351 34.5746 20.511 34.4887 21.0748L35.5568 22.3566C35.596 22.4056 35.6034 22.472 35.5727 22.5277L34.5071 24.5245C34.4764 24.5802 34.4199 24.6068 34.361 24.5935L32.7994 24.2353C32.3943 24.5962 31.9327 24.8868 31.4318 25.0884L30.9394 26.7284C30.921 26.7894 30.8707 26.8292 30.8106 26.8292H28.6768C28.6179 26.8292 28.5664 26.7894 28.548 26.7284L28.0556 25.0884C27.5547 24.8854 27.0944 24.5962 26.6892 24.2353L25.1264 24.5949ZM29.7437 22.2066C28.7296 22.2066 27.9083 21.319 27.9083 20.2231C27.9083 19.1271 28.7296 18.2395 29.7437 18.2395C30.7578 18.2395 31.5803 19.1271 31.5803 20.2231C31.5803 21.319 30.7578 22.2066 29.7437 22.2066ZM20.5914 28.3803C20.9363 28.225 21.285 28.0963 21.6349 27.9968C21.9234 27.9397 22.1738 27.7168 22.2708 27.3944L22.849 25.4733H24.6513L25.2295 27.3944H25.2307C25.3154 27.6744 25.5278 27.9039 25.8114 27.9822C26.4695 28.1639 27.335 28.5328 27.9144 28.9203C28.1551 29.0901 28.4706 29.1206 28.7444 28.9693L30.4128 28.0512L31.6859 29.4271L30.8363 31.2289C30.7136 31.4929 30.7123 31.8167 30.8621 32.09C31.1948 32.6977 31.595 33.6609 31.7362 34.3389C31.7902 34.6507 31.9953 34.9213 32.2935 35.0262L34.0725 35.6511V37.5975L32.2935 38.2224L32.2948 38.2251C32.0345 38.3167 31.8222 38.5449 31.7497 38.8514C31.5816 39.5625 31.2402 40.498 30.8818 41.1229C30.7246 41.3829 30.6963 41.7239 30.8363 42.0198L31.6859 43.8229L30.4128 45.1974L28.7444 44.2793V44.2807C28.5 44.1467 28.2005 44.1467 27.9476 44.3072C27.3853 44.6668 26.4928 45.0993 25.8654 45.2519C25.5769 45.3103 25.3265 45.5318 25.2295 45.8542L24.6513 47.7755H22.849L22.2708 45.8542L22.2683 45.8556C22.1836 45.5743 21.9725 45.3448 21.6876 45.2665C21.0296 45.0847 20.1641 44.7158 19.5859 44.3284C19.3453 44.1586 19.0297 44.1281 18.7547 44.2793L17.0863 45.1974L15.8133 43.8229L16.664 42.0198H16.6628C16.7868 41.7557 16.7868 41.432 16.6383 41.16C16.3055 40.551 15.9053 39.5877 15.7641 38.9098C15.7101 38.598 15.5039 38.3273 15.2055 38.2224L13.4266 37.5975V35.6511L15.2055 35.0262V35.0248C15.4646 34.9333 15.6769 34.7038 15.7494 34.3973C15.9176 33.6861 16.2588 32.7508 16.6174 32.1258C16.7758 31.8657 16.8027 31.5261 16.664 31.2289L15.8133 29.4271L17.0863 28.0512L18.7547 28.9693H18.7559C18.999 29.1021 19.2986 29.1033 19.5515 28.9415C19.8842 28.7292 20.2317 28.5408 20.5914 28.3803ZM23.7501 30.7897C26.7334 30.7897 29.1508 33.4021 29.1508 36.625C29.1508 39.8465 26.7334 42.459 23.7501 42.459C20.7669 42.459 18.3496 39.8465 18.3496 36.625C18.3496 33.4021 20.7669 30.7897 23.7501 30.7897Z" fill="#0575AD"/>
</g>
</g>
</g>
</g>
<defs>
<clipPath id="clip0_1_2566">
<rect width="55" height="55" fill="white" transform="translate(0.859863 0.5)"/>
</clipPath>
<clipPath id="clip1_1_2566">
<rect width="55" height="55" fill="white" transform="translate(0.859863 0.5)"/>
</clipPath>
<clipPath id="clip2_1_2566">
<rect width="55" height="55" fill="white" transform="translate(0.859863 0.5)"/>
</clipPath>
</defs>
</svg>
