<svg width="56" height="56" viewBox="0 0 56 56" fill="none" xmlns="http://www.w3.org/2000/svg">
<g clip-path="url(#clip0_51_2066)">
<g clip-path="url(#clip1_51_2066)">
<g clip-path="url(#clip2_51_2066)">
<mask id="mask0_51_2066" style="mask-type:luminance" maskUnits="userSpaceOnUse" x="0" y="0" width="56" height="56">
<path d="M0.861328 0.5H55.8613V55.5H0.861328V0.5Z" fill="white"/>
</mask>
<g mask="url(#mask0_51_2066)">
<path fill-rule="evenodd" clip-rule="evenodd" d="M6.46223 40.8044L26.18 3.91001C26.6613 3.01175 27.458 2.51023 28.4266 2.51023C29.2799 2.51023 30.0042 2.89234 30.5051 3.63138C30.7752 4.02809 31.292 4.11433 31.6603 3.82376C32.0286 3.53186 32.1085 2.97328 31.8383 2.57524C30.0729 -0.0306051 26.315 0.0927873 24.7497 3.01573L5.01234 39.9447L4.90922 38.7771C4.86625 38.2862 4.46357 37.9266 4.00933 37.973C3.55509 38.0195 3.22117 38.4546 3.26413 38.9442L3.61157 42.8517C3.65576 43.5217 4.27451 43.8733 4.78277 43.6186L8.11101 41.9468C8.52596 41.7398 8.70643 41.2091 8.51614 40.7607C8.32463 40.3135 7.83355 40.1172 7.41859 40.3242L6.46223 40.8044ZM44.6197 51.2994H5.34382C3.39549 51.2994 2.23779 49.1646 2.95967 47.3947C3.14382 46.9435 2.95353 46.4155 2.53611 46.2165C2.11748 46.0174 1.62886 46.2231 1.44471 46.6756C0.237904 49.6343 2.23042 53.0893 5.34382 53.0893H44.6197L43.7518 53.7527C43.3785 54.0367 43.2877 54.5939 43.5504 54.9973C43.8131 55.4006 44.33 55.4975 44.7032 55.2135L47.6594 52.9553C48.1862 52.5798 48.1862 51.8089 47.6594 51.4322L44.7032 49.1739C44.33 48.89 43.8131 48.9869 43.5504 49.3902C43.2877 49.7949 43.3785 50.3521 43.7518 50.636L44.6197 51.2994ZM34.0187 10.1672L33.9156 11.3388C33.8726 11.8284 33.4687 12.1893 33.0157 12.1428C32.5615 12.0963 32.2275 11.6612 32.2705 11.1702L32.6203 7.22303C32.6744 6.60872 33.2809 6.24385 33.7891 6.49727V6.49594L37.1174 8.16904C37.5323 8.37602 37.7128 8.90675 37.5225 9.35388C37.331 9.80229 36.8399 9.99736 36.425 9.79175L35.4649 9.30877L55.1864 46.2085C56.786 49.2031 54.8732 52.881 51.7795 53.0787C51.3241 53.1079 50.9324 52.7324 50.9055 52.2402C50.8784 51.7466 51.2271 51.3246 51.6825 51.2955C53.5781 51.1748 54.7272 48.9152 53.7561 47.0961L34.0187 10.1672ZM36.0862 36.0624C36.1156 36.0067 36.1732 35.9788 36.231 35.9921L37.7938 36.3503C38.199 35.9908 38.6593 35.7002 39.1602 35.4972L39.6525 33.8587C39.671 33.7962 39.7225 33.7564 39.7814 33.7564H41.9152C41.9753 33.7564 42.0256 33.7962 42.044 33.8587L42.5376 35.4972C43.0372 35.7002 43.4976 35.9908 43.9028 36.3503L45.4656 35.9921C45.5245 35.9788 45.581 36.0067 45.6117 36.0624L46.6773 38.058C46.708 38.1136 46.7006 38.1814 46.6614 38.2291L45.5933 39.5108C45.6792 40.076 45.6792 40.6505 45.592 41.2157L46.6614 42.4974C46.7006 42.5452 46.708 42.6129 46.6773 42.6685L45.6117 44.6641C45.581 44.7199 45.5245 44.7477 45.4656 44.7344L43.904 44.3762C43.4976 44.7357 43.0372 45.0263 42.5364 45.2293L42.044 46.8693C42.0256 46.9303 41.9741 46.9701 41.9152 46.9701H39.7814C39.7225 46.9701 39.671 46.9303 39.6525 46.8693L39.1602 45.2293C38.6593 45.0263 38.199 44.7357 37.7938 44.3762L36.231 44.7344C36.1732 44.7477 36.1156 44.7199 36.0862 44.6641L35.0193 42.6685C34.9885 42.6129 34.996 42.5452 35.0352 42.4974L36.1033 41.2157C36.0174 40.6519 36.0174 40.0747 36.1033 39.5108L35.7497 39.0849L35.2292 38.5382C35.1617 38.4679 35.1433 38.3644 35.1813 38.2716L36.0862 36.0624ZM40.8482 38.3804C39.8342 38.3804 39.0129 39.268 39.0129 40.3626C39.0129 41.4585 39.8342 42.3462 40.8482 42.3462C41.8624 42.3462 42.6849 41.4585 42.6849 40.3626C42.6849 39.268 41.8624 38.3804 40.8482 38.3804ZM24.9535 33.3213C25.3182 33.4128 25.6447 33.5375 25.9431 33.6915C26.3556 33.9011 26.5323 34.4344 26.3383 34.8803C26.1432 35.326 25.6508 35.5171 25.2371 35.3062C24.654 35.0076 23.7222 34.802 23.0604 35.0992L23.0617 35.1005C22.9402 35.1549 22.7585 35.2756 22.7633 35.342C22.767 35.3924 22.9475 35.5224 23.0678 35.5848V35.5834C23.6325 35.8396 24.1961 35.6087 25.1008 36.0146C25.4643 36.1779 25.8043 36.4538 26.0155 36.7311C26.2659 37.0602 26.4513 37.5498 26.4243 37.9704C26.3678 38.8249 25.8473 39.459 25.1033 39.7961C24.9326 39.8744 24.7584 39.9367 24.5803 39.9818C24.5766 40.474 24.2071 40.8708 23.7516 40.8708C23.3035 40.8708 22.9389 40.4873 22.9242 40.0084C22.4552 39.9274 22.0034 39.7801 21.5639 39.5652C21.1477 39.3622 20.9624 38.8328 21.149 38.383C21.3368 37.9332 21.8266 37.7328 22.244 37.9359C22.7806 38.1986 23.543 38.383 24.1445 38.2543C24.3434 38.2119 24.7657 38.0394 24.7632 37.9054C24.762 37.855 24.5938 37.725 24.4796 37.6705C23.9211 37.4092 23.317 37.6387 22.427 37.234L22.4282 37.2327C20.6334 36.3849 20.6885 34.2301 22.4331 33.45L22.4343 33.4513C22.5939 33.3769 22.7572 33.3173 22.9229 33.2734C22.9229 32.7786 23.2937 32.3779 23.7516 32.3779C24.1997 32.3779 24.5656 32.7627 24.5803 33.2443C24.7092 33.2656 24.8333 33.2921 24.9535 33.3213ZM25.1279 24.5949C25.0689 24.6081 25.0125 24.5802 24.983 24.5245L23.9161 22.529C23.8854 22.472 23.8928 22.4056 23.9321 22.3579L25.0002 21.0762C24.9143 20.511 24.9143 19.9351 25.0002 19.3713L24.6466 18.9453L24.126 18.3987C24.0586 18.327 24.0402 18.2235 24.0782 18.1307L24.983 15.9216C25.0125 15.8659 25.0701 15.838 25.1279 15.8526L26.6907 16.2108C27.0959 15.8499 27.5562 15.5607 28.0571 15.3577L28.5494 13.7177C28.5678 13.6567 28.6194 13.6169 28.6783 13.6169H30.812C30.871 13.6169 30.9225 13.6567 30.9409 13.7177L31.4333 15.3577C31.9341 15.5607 32.3945 15.8499 32.7996 16.2108L34.3625 15.8526C34.4214 15.838 34.4779 15.8659 34.5073 15.9216L35.5742 17.9184C35.6049 17.9741 35.5975 18.0405 35.5583 18.0882L34.4902 19.3699C34.576 19.9351 34.576 20.511 34.4902 21.0748L35.5583 22.3566C35.5975 22.4056 35.6049 22.472 35.5742 22.5277L34.5086 24.5245C34.4779 24.5802 34.4214 24.6068 34.3625 24.5935L32.8008 24.2353C32.3958 24.5962 31.9341 24.8868 31.4333 25.0884L30.9409 26.7284C30.9225 26.7894 30.8722 26.8292 30.812 26.8292H28.6783C28.6194 26.8292 28.5678 26.7894 28.5494 26.7284L28.0571 25.0884C27.5562 24.8854 27.0959 24.5962 26.6907 24.2353L25.1279 24.5949ZM29.7451 22.2066C28.7311 22.2066 27.9098 21.319 27.9098 20.2231C27.9098 19.1271 28.7311 18.2395 29.7451 18.2395C30.7592 18.2395 31.5818 19.1271 31.5818 20.2231C31.5818 21.319 30.7592 22.2066 29.7451 22.2066ZM20.5928 28.3803C20.9378 28.225 21.2865 28.0963 21.6364 27.9968C21.9249 27.9397 22.1753 27.7168 22.2723 27.3944L22.8505 25.4733H24.6528L25.231 27.3944H25.2322C25.3169 27.6744 25.5293 27.9039 25.8129 27.9822C26.471 28.1639 27.3365 28.5328 27.9159 28.9203C28.1565 29.0901 28.4721 29.1206 28.7459 28.9693L30.4143 28.0512L31.6874 29.4271L30.8378 31.2289C30.715 31.4929 30.7138 31.8167 30.8635 32.09C31.1963 32.6977 31.5965 33.6609 31.7377 34.3389C31.7917 34.6507 31.9967 34.9213 32.295 35.0262L34.074 35.6511V37.5976L32.295 38.2224L32.2963 38.2251C32.036 38.3167 31.8237 38.5449 31.7512 38.8514C31.583 39.5625 31.2417 40.498 30.8833 41.1229C30.726 41.3829 30.6978 41.7239 30.8378 42.0198L31.6874 43.8229L30.4143 45.1974L28.7459 44.2793V44.2807C28.5015 44.1467 28.202 44.1467 27.9491 44.3072C27.3868 44.6668 26.4943 45.0993 25.8669 45.2519C25.5784 45.3103 25.328 45.5318 25.231 45.8542L24.6528 47.7755H22.8505L22.2723 45.8542L22.2698 45.8556C22.1851 45.5743 21.974 45.3448 21.6891 45.2665C21.0311 45.0847 20.1656 44.7158 19.5874 44.3285C19.3467 44.1586 19.0312 44.1281 18.7562 44.2793L17.0878 45.1974L15.8147 43.8229L16.6655 42.0198H16.6643C16.7882 41.7557 16.7882 41.432 16.6397 41.16C16.307 40.551 15.9068 39.5877 15.7656 38.9098C15.7116 38.598 15.5053 38.3273 15.207 38.2224L13.4281 37.5976V35.6511L15.207 35.0262V35.0248C15.466 34.9333 15.6784 34.7038 15.7508 34.3973C15.919 33.6861 16.2603 32.7508 16.6188 32.1258C16.7772 31.8657 16.8042 31.5261 16.6655 31.2289L15.8147 29.4271L17.0878 28.0512L18.7562 28.9693H18.7574C19.0005 29.1021 19.3001 29.1034 19.553 28.9415C19.8856 28.7292 20.2331 28.5408 20.5928 28.3803ZM23.7516 30.7897C26.7349 30.7897 29.1522 33.4021 29.1522 36.625C29.1522 39.8465 26.7349 42.459 23.7516 42.459C20.7684 42.459 18.351 39.8465 18.351 36.625C18.351 33.4021 20.7684 30.7897 23.7516 30.7897Z" fill="white"/>
</g>
</g>
</g>
</g>
<defs>
<clipPath id="clip0_51_2066">
<rect width="55" height="55" fill="white" transform="translate(0.861328 0.5)"/>
</clipPath>
<clipPath id="clip1_51_2066">
<rect width="55" height="55" fill="white" transform="translate(0.861328 0.5)"/>
</clipPath>
<clipPath id="clip2_51_2066">
<rect width="55" height="55" fill="white" transform="translate(0.861328 0.5)"/>
</clipPath>
</defs>
</svg>
