<svg width="46" height="46" viewBox="0 0 46 46" fill="none" xmlns="http://www.w3.org/2000/svg">
<g clip-path="url(#clip0_1_3335)">
<g clip-path="url(#clip1_1_3335)">
<g clip-path="url(#clip2_1_3335)">
<path d="M29.6464 7.43994C26.4305 7.43994 23.814 9.79522 23.814 12.6909C23.814 15.5854 26.4305 17.9407 29.6464 17.9407C32.8637 17.9407 35.4802 15.5854 35.4802 12.6909C35.4802 9.79522 32.8637 7.43994 29.6464 7.43994ZM29.6464 16.4409C27.3467 16.4409 25.4802 14.7606 25.4802 12.6909C25.4802 10.62 27.3467 8.94096 29.6464 8.94096C31.9475 8.94096 33.814 10.62 33.814 12.6909C33.814 14.7606 31.9475 16.4409 29.6464 16.4409Z" fill="#00D280"/>
<path d="M26.5056 19.7084C25.8054 20.4654 24.4545 20.938 22.9801 20.938C21.5056 20.938 20.1548 20.4654 19.4545 19.7084C19.1633 19.3934 18.6377 19.3486 18.2798 19.6111C17.9304 19.8737 17.8806 20.3463 18.1718 20.6677C19.1974 21.7781 20.9886 22.4377 22.9801 22.4377C24.9716 22.4377 26.7627 21.7781 27.7883 20.6677C28.0795 20.3527 28.0383 19.8737 27.6804 19.6111C27.3224 19.3486 26.7968 19.3934 26.5056 19.7084Z" fill="#00D280"/>
<path d="M32.146 12.6902C32.146 12.8374 32.1304 12.9834 32.0991 13.1282C32.0665 13.2729 32.0196 13.4138 31.9557 13.5508C31.8932 13.6866 31.8165 13.8172 31.7256 13.9402C31.6347 14.0631 31.531 14.1758 31.4145 14.2808C31.298 14.3846 31.1716 14.4781 31.0352 14.56C30.8989 14.642 30.7554 14.7124 30.6034 14.7688C30.4514 14.8251 30.2952 14.8674 30.1347 14.8969C29.9727 14.925 29.8108 14.9391 29.646 14.9391C29.4827 14.9391 29.3193 14.925 29.1588 14.8969C28.9983 14.8674 28.842 14.8251 28.69 14.7688C28.5381 14.7124 28.3946 14.642 28.2582 14.56C28.1204 14.4781 27.9954 14.3846 27.879 14.2808C27.7625 14.1758 27.6588 14.0631 27.5679 13.9402C27.477 13.8172 27.4003 13.6866 27.3364 13.5508C27.2739 13.4138 27.227 13.2729 27.1943 13.1282C27.1631 12.9834 27.146 12.8374 27.146 12.6902C27.146 12.5416 27.1631 12.3956 27.1943 12.2509C27.227 12.1061 27.2739 11.9653 27.3364 11.8282C27.4003 11.6925 27.477 11.5618 27.5679 11.4402C27.6588 11.3172 27.7625 11.2032 27.879 11.0982C27.9954 10.9945 28.1204 10.901 28.2582 10.819C28.3946 10.737 28.5381 10.6679 28.69 10.6116C28.842 10.5539 28.9983 10.5117 29.1588 10.4835C29.3193 10.454 29.4827 10.4399 29.646 10.4399C29.8108 10.4399 29.9727 10.454 30.1347 10.4835C30.2952 10.5117 30.4514 10.5539 30.6034 10.6116C30.7554 10.6679 30.8989 10.737 31.0352 10.819C31.1716 10.901 31.298 10.9945 31.4145 11.0982C31.531 11.2032 31.6347 11.3172 31.7256 11.4402C31.8165 11.5618 31.8932 11.6925 31.9557 11.8282C32.0196 11.9653 32.0665 12.1061 32.0991 12.2509C32.1304 12.3956 32.146 12.5416 32.146 12.6902Z" fill="#00D280"/>
<path d="M18.814 12.6902C18.814 12.8374 18.7969 12.9834 18.7657 13.1282C18.733 13.2729 18.6861 13.4138 18.6236 13.5508C18.5597 13.6866 18.483 13.8172 18.3921 13.9402C18.3012 14.0631 18.1975 14.1758 18.081 14.2808C17.9646 14.3846 17.8396 14.4781 17.7018 14.56C17.5654 14.642 17.4219 14.7124 17.27 14.7688C17.118 14.8251 16.9617 14.8674 16.8012 14.8969C16.6407 14.925 16.4773 14.9391 16.314 14.9391C16.1492 14.9391 15.9873 14.925 15.8253 14.8969C15.6648 14.8674 15.5086 14.8251 15.3566 14.7688C15.2046 14.7124 15.0611 14.642 14.9248 14.56C14.7884 14.4781 14.662 14.3846 14.5455 14.2808C14.429 14.1758 14.3253 14.0631 14.2344 13.9402C14.1435 13.8172 14.0668 13.6866 14.0043 13.5508C13.9404 13.4138 13.8935 13.2729 13.8609 13.1282C13.8296 12.9834 13.814 12.8374 13.814 12.6902C13.814 12.5416 13.8296 12.3956 13.8609 12.2509C13.8935 12.1061 13.9404 11.9653 14.0043 11.8282C14.0668 11.6925 14.1435 11.5618 14.2344 11.4402C14.3253 11.3172 14.429 11.2032 14.5455 11.0982C14.662 10.9945 14.7884 10.901 14.9248 10.819C15.0611 10.737 15.2046 10.6679 15.3566 10.6116C15.5086 10.5539 15.6648 10.5117 15.8253 10.4835C15.9873 10.454 16.1492 10.4399 16.314 10.4399C16.4773 10.4399 16.6407 10.454 16.8012 10.4835C16.9617 10.5117 17.118 10.5539 17.27 10.6116C17.4219 10.6679 17.5654 10.737 17.7018 10.819C17.8396 10.901 17.9646 10.9945 18.081 11.0982C18.1975 11.2032 18.3012 11.3172 18.3921 11.4402C18.483 11.5618 18.5597 11.6925 18.6236 11.8282C18.6861 11.9653 18.733 12.1061 18.7657 12.2509C18.7969 12.3956 18.814 12.5416 18.814 12.6902Z" fill="#00D280"/>
<path d="M22.1462 12.6909C22.1462 9.79522 19.5297 7.43994 16.3138 7.43994C13.0965 7.43994 10.48 9.79522 10.48 12.6909C10.48 15.5854 13.0965 17.9407 16.3138 17.9407C19.5297 17.9407 22.1462 15.5854 22.1462 12.6909ZM16.3138 16.4409C14.0127 16.4409 12.1462 14.7606 12.1462 12.6909C12.1462 10.62 14.0127 8.94096 16.3138 8.94096C18.6135 8.94096 20.48 10.62 20.48 12.6909C20.48 14.7606 18.6135 16.4409 16.3138 16.4409Z" fill="#00D280"/>
<mask id="mask0_1_3335" style="mask-type:luminance" maskUnits="userSpaceOnUse" x="0" y="0" width="46" height="46">
<path d="M0.47998 0.689941H45.48V45.6899H0.47998V0.689941Z" fill="white"/>
</mask>
<g mask="url(#mask0_1_3335)">
<path d="M42.98 7.75449V5.93968C42.98 3.04522 40.3635 0.689941 37.1462 0.689941H8.81379C5.59646 0.689941 2.97998 3.04522 2.97998 5.93968V7.75449C1.51265 8.33979 0.47998 9.65254 0.47998 11.1894V14.1902C0.47998 16.2598 2.34646 17.9402 4.64617 17.9402H7.14617V23.1899C7.14617 24.4271 8.27117 25.4402 9.64617 25.4402H14.6462V28.4396H9.64617C8.27117 28.4396 7.14617 29.4822 7.14617 30.7655V33.6894H5.47998C4.56379 33.6894 3.81379 34.3643 3.81379 35.1904V41.1894C3.81379 42.0155 4.56379 42.6904 5.47998 42.6904H7.14617V43.3654C7.14617 44.6474 8.27117 45.6899 9.64617 45.6899H36.3138C37.6888 45.6899 38.8138 44.6474 38.8138 43.3654V42.6904H40.48C41.3962 42.6904 42.1462 42.0155 42.1462 41.1894V35.1904C42.1462 34.3643 41.3962 33.6894 40.48 33.6894H38.8138V32.1896C38.8138 31.7772 38.4388 31.4404 37.98 31.4404C37.5212 31.4404 37.1462 31.7772 37.1462 32.1896V43.3654C37.1462 43.8226 36.7712 44.1902 36.3138 44.1902H9.64617C9.18879 44.1902 8.81379 43.8226 8.81379 43.3654V30.7655C8.81379 30.307 9.18879 29.9394 9.64617 29.9394H17.98C18.4388 29.9394 18.8138 29.6026 18.8138 29.1902C18.8138 28.7778 18.4388 28.4396 17.98 28.4396H16.3138V25.4402H29.6462V26.1894C29.6462 26.6018 30.0212 26.9399 30.48 26.9399C30.9388 26.9399 31.3138 26.6018 31.3138 26.1894V25.4402H36.3138C37.6888 25.4402 38.8138 24.4271 38.8138 23.1899V17.9402H41.3138V24.6896C41.3138 26.7593 39.4473 28.4396 37.1462 28.4396H28.6632C28.3138 27.57 27.3962 26.9399 26.3138 26.9399H22.98C21.605 26.9399 20.48 27.953 20.48 29.1902C20.48 30.4273 21.605 31.4404 22.98 31.4404H26.3138C27.3962 31.4404 28.3138 30.8103 28.6632 29.9394H37.1462C40.3635 29.9394 42.98 27.5854 42.98 24.6896V17.6251C44.4473 17.0398 45.48 15.727 45.48 14.1902V11.1894C45.48 9.65254 44.4473 8.33979 42.98 7.75449ZM37.1462 23.1899C37.1462 23.6023 36.7712 23.9404 36.3138 23.9404H9.64617C9.18879 23.9404 8.81379 23.6023 8.81379 23.1899V6.6902C8.81379 6.2778 9.18879 5.93968 9.64617 5.93968H36.3138C36.7712 5.93968 37.1462 6.2778 37.1462 6.6902V23.1899ZM41.3138 7.43943H38.8138V6.6902C38.8138 5.453 37.6888 4.43994 36.3138 4.43994H9.64617C8.27117 4.43994 7.14617 5.453 7.14617 6.6902V7.43943H4.64617V5.93968C4.64617 3.87001 6.51265 2.18968 8.81379 2.18968H37.1462C39.4473 2.18968 41.3138 3.87001 41.3138 5.93968V7.43943Z" fill="#00D280"/>
</g>
<path d="M31.314 34.4399H14.6464C14.189 34.4399 13.814 34.778 13.814 35.1904C13.814 35.6028 14.189 35.9396 14.6464 35.9396H31.314C31.7714 35.9396 32.1464 35.6028 32.1464 35.1904C32.1464 34.778 31.7714 34.4399 31.314 34.4399Z" fill="#00D280"/>
<path d="M31.314 38.9399H14.6464C14.189 38.9399 13.814 39.2767 13.814 39.6891C13.814 40.1015 14.189 40.4396 14.6464 40.4396H31.314C31.7714 40.4396 32.1464 40.1015 32.1464 39.6891C32.1464 39.2767 31.7714 38.9399 31.314 38.9399Z" fill="#00D280"/>
</g>
</g>
</g>
<defs>
<clipPath id="clip0_1_3335">
<rect width="45" height="45" fill="white" transform="translate(0.47998 0.689941)"/>
</clipPath>
<clipPath id="clip1_1_3335">
<rect width="45" height="45" fill="white" transform="translate(0.47998 0.689941)"/>
</clipPath>
<clipPath id="clip2_1_3335">
<rect width="45" height="45" fill="white" transform="translate(0.47998 0.689941)"/>
</clipPath>
</defs>
</svg>
