<svg width="56" height="56" viewBox="0 0 56 56" fill="none" xmlns="http://www.w3.org/2000/svg">
<g clip-path="url(#clip0_1_3103)">
<g clip-path="url(#clip1_1_3103)">
<g clip-path="url(#clip2_1_3103)">
<path d="M36.1471 8.75C32.2167 8.75 29.0187 11.6287 29.0187 15.168C29.0187 18.7056 32.2167 21.5842 36.1471 21.5842C40.0795 21.5842 43.2774 18.7056 43.2774 15.168C43.2774 11.6287 40.0795 8.75 36.1471 8.75ZM36.1471 19.7513C33.3365 19.7513 31.0551 17.6975 31.0551 15.168C31.0551 12.6368 33.3365 10.5846 36.1471 10.5846C38.9597 10.5846 41.241 12.6368 41.241 15.168C41.241 17.6975 38.9597 19.7513 36.1471 19.7513Z" fill="#0575AD"/>
<path d="M32.3091 23.745C31.4531 24.6701 29.8021 25.2477 28 25.2477C26.198 25.2477 24.547 24.6701 23.691 23.745C23.3351 23.3599 22.6927 23.3051 22.2553 23.626C21.8281 23.9468 21.7674 24.5245 22.1233 24.9174C23.3767 26.2745 25.566 27.0807 28 27.0807C30.4341 27.0807 32.6233 26.2745 33.8768 24.9174C34.2326 24.5323 34.1823 23.9468 33.7448 23.626C33.3074 23.3051 32.665 23.3599 32.3091 23.745Z" fill="#0575AD"/>
<path d="M39.2029 15.167C39.2029 15.3471 39.1838 15.5255 39.1456 15.7024C39.1057 15.8793 39.0484 16.0515 38.9703 16.219C38.8938 16.3849 38.8002 16.5446 38.689 16.6948C38.5779 16.8451 38.4512 16.9828 38.3088 17.1112C38.1665 17.238 38.0119 17.3523 37.8453 17.4525C37.6786 17.5526 37.5033 17.6387 37.3174 17.7077C37.1317 17.7765 36.9408 17.8281 36.7445 17.8641C36.5466 17.8986 36.3487 17.9158 36.1473 17.9158C35.9477 17.9158 35.748 17.8986 35.5519 17.8641C35.3557 17.8281 35.1647 17.7765 34.9789 17.7077C34.7931 17.6387 34.6179 17.5526 34.4511 17.4525C34.2827 17.3523 34.13 17.238 33.9877 17.1112C33.8453 16.9828 33.7185 16.8451 33.6074 16.6948C33.4963 16.5446 33.4025 16.3849 33.3244 16.219C33.248 16.0515 33.1907 15.8793 33.1508 15.7024C33.1126 15.5255 33.0918 15.3471 33.0918 15.167C33.0918 14.9855 33.1126 14.807 33.1508 14.6301C33.1907 14.4533 33.248 14.2811 33.3244 14.1136C33.4025 13.9477 33.4963 13.788 33.6074 13.6393C33.7185 13.489 33.8453 13.3497 33.9877 13.2213C34.13 13.0945 34.2827 12.9803 34.4511 12.8801C34.6179 12.7799 34.7931 12.6954 34.9789 12.6265C35.1647 12.5561 35.3557 12.5044 35.5519 12.47C35.748 12.434 35.9477 12.4167 36.1473 12.4167C36.3487 12.4167 36.5466 12.434 36.7445 12.47C36.9408 12.5044 37.1317 12.5561 37.3174 12.6265C37.5033 12.6954 37.6786 12.7799 37.8453 12.8801C38.0119 12.9803 38.1665 13.0945 38.3088 13.2213C38.4512 13.3497 38.5779 13.489 38.689 13.6393C38.8002 13.788 38.8938 13.9477 38.9703 14.1136C39.0484 14.2811 39.1057 14.4533 39.1456 14.6301C39.1838 14.807 39.2029 14.9855 39.2029 15.167Z" fill="#0575AD"/>
<path d="M22.9079 15.167C22.9079 15.3471 22.8871 15.5255 22.8489 15.7024C22.8089 15.8793 22.7516 16.0515 22.6752 16.219C22.5971 16.3849 22.5034 16.5446 22.3923 16.6948C22.2812 16.8451 22.1544 16.9828 22.012 17.1112C21.8697 17.238 21.7169 17.3523 21.5485 17.4525C21.3818 17.5526 21.2065 17.6387 21.0208 17.7077C20.8349 17.7765 20.644 17.8281 20.4478 17.8641C20.2517 17.8986 20.052 17.9158 19.8524 17.9158C19.651 17.9158 19.453 17.8986 19.2551 17.8641C19.0589 17.8281 18.868 17.7765 18.6822 17.7077C18.4964 17.6387 18.3211 17.5526 18.1544 17.4525C17.9878 17.3523 17.8332 17.238 17.6909 17.1112C17.5485 16.9828 17.4217 16.8451 17.3106 16.6948C17.1995 16.5446 17.1058 16.3849 17.0294 16.219C16.9513 16.0515 16.894 15.8793 16.854 15.7024C16.8159 15.5255 16.7968 15.3471 16.7968 15.167C16.7968 14.9855 16.8159 14.807 16.854 14.6301C16.894 14.4533 16.9513 14.2811 17.0294 14.1136C17.1058 13.9477 17.1995 13.788 17.3106 13.6393C17.4217 13.489 17.5485 13.3497 17.6909 13.2213C17.8332 13.0945 17.9878 12.9803 18.1544 12.8801C18.3211 12.7799 18.4964 12.6954 18.6822 12.6265C18.868 12.5561 19.0589 12.5044 19.2551 12.47C19.453 12.434 19.651 12.4167 19.8524 12.4167C20.052 12.4167 20.2517 12.434 20.4478 12.47C20.644 12.5044 20.8349 12.5561 21.0208 12.6265C21.2065 12.6954 21.3818 12.7799 21.5485 12.8801C21.7169 12.9803 21.8697 13.0945 22.012 13.2213C22.1544 13.3497 22.2812 13.489 22.3923 13.6393C22.5034 13.788 22.5971 13.9477 22.6752 14.1136C22.7516 14.2811 22.8089 14.4533 22.8489 14.6301C22.8871 14.807 22.9079 14.9855 22.9079 15.167Z" fill="#0575AD"/>
<path d="M26.9806 15.168C26.9806 11.6287 23.7827 8.75 19.8521 8.75C15.9198 8.75 12.7219 11.6287 12.7219 15.168C12.7219 18.7056 15.9198 21.5842 19.8521 21.5842C23.7827 21.5842 26.9806 18.7056 26.9806 15.168ZM19.8521 19.7513C17.0396 19.7513 14.7584 17.6975 14.7584 15.168C14.7584 12.6368 17.0396 10.5846 19.8521 10.5846C22.6629 10.5846 24.9441 12.6368 24.9441 15.168C24.9441 17.6975 22.6629 19.7513 19.8521 19.7513Z" fill="#0575AD"/>
<mask id="mask0_1_3103" style="mask-type:luminance" maskUnits="userSpaceOnUse" x="0" y="0" width="56" height="56">
<path d="M0.5 0.5H55.5V55.5H0.5V0.5Z" fill="white"/>
</mask>
<g mask="url(#mask0_1_3103)">
<path d="M52.4445 9.13445V6.91636C52.4445 3.37867 49.2465 0.5 45.3143 0.5H10.6857C6.75347 0.5 3.55555 3.37867 3.55555 6.91636V9.13445C1.76215 9.84982 0.5 11.4543 0.5 13.3327V17.0003C0.5 19.5299 2.78125 21.5836 5.59201 21.5836H8.64757V28C8.64757 29.5121 10.0226 30.7503 11.7031 30.7503H17.8143V34.4164H11.7031C10.0226 34.4164 8.64757 35.6906 8.64757 37.259V40.8327H6.61111C5.49132 40.8327 4.57466 41.6577 4.57466 42.6673V49.9994C4.57466 51.009 5.49132 51.834 6.61111 51.834H8.64757V52.6589C8.64757 54.2258 10.0226 55.5 11.7031 55.5H44.2969C45.9774 55.5 47.3524 54.2258 47.3524 52.6589V51.834H49.3889C50.5087 51.834 51.4253 51.009 51.4253 49.9994V42.6673C51.4253 41.6577 50.5087 40.8327 49.3889 40.8327H47.3524V38.9997C47.3524 38.4957 46.8941 38.084 46.3333 38.084C45.7726 38.084 45.3143 38.4957 45.3143 38.9997V52.6589C45.3143 53.2177 44.8559 53.6669 44.2969 53.6669H11.7031C11.1441 53.6669 10.6857 53.2177 10.6857 52.6589V37.259C10.6857 36.6986 11.1441 36.2494 11.7031 36.2494H21.8889C22.4497 36.2494 22.908 35.8377 22.908 35.3336C22.908 34.8296 22.4497 34.4164 21.8889 34.4164H19.8524V30.7503H36.1476V31.666C36.1476 32.1701 36.6059 32.5833 37.1667 32.5833C37.7274 32.5833 38.1857 32.1701 38.1857 31.666V30.7503H44.2969C45.9774 30.7503 47.3524 29.5121 47.3524 28V21.5836H50.408V29.8331C50.408 32.3626 48.1267 34.4164 45.3143 34.4164H34.9462C34.5191 33.3535 33.3976 32.5833 32.0747 32.5833H28C26.3195 32.5833 24.9445 33.8215 24.9445 35.3336C24.9445 36.8457 26.3195 38.084 28 38.084H32.0747C33.3976 38.084 34.5191 37.3138 34.9462 36.2494H45.3143C49.2465 36.2494 52.4445 33.3723 52.4445 29.8331V21.1986C54.2378 20.4832 55.5 18.8787 55.5 17.0003V13.3327C55.5 11.4543 54.2378 9.84982 52.4445 9.13445ZM45.3143 28C45.3143 28.5041 44.8559 28.9173 44.2969 28.9173H11.7031C11.1441 28.9173 10.6857 28.5041 10.6857 28V7.83365C10.6857 7.32961 11.1441 6.91636 11.7031 6.91636H44.2969C44.8559 6.91636 45.3143 7.32961 45.3143 7.83365V28ZM50.408 8.74938H47.3524V7.83365C47.3524 6.32152 45.9774 5.08333 44.2969 5.08333H11.7031C10.0226 5.08333 8.64757 6.32152 8.64757 7.83365V8.74938H5.59201V6.91636C5.59201 4.38676 7.87326 2.33302 10.6857 2.33302H45.3143C48.1267 2.33302 50.408 4.38676 50.408 6.91636V8.74938Z" fill="#0575AD"/>
</g>
<path d="M38.1857 41.75H17.8142C17.2551 41.75 16.7968 42.1632 16.7968 42.6673C16.7968 43.1713 17.2551 43.5831 17.8142 43.5831H38.1857C38.7447 43.5831 39.203 43.1713 39.203 42.6673C39.203 42.1632 38.7447 41.75 38.1857 41.75Z" fill="#0575AD"/>
<path d="M38.1857 47.25H17.8142C17.2551 47.25 16.7968 47.6617 16.7968 48.1658C16.7968 48.6697 17.2551 49.0831 17.8142 49.0831H38.1857C38.7447 49.0831 39.203 48.6697 39.203 48.1658C39.203 47.6617 38.7447 47.25 38.1857 47.25Z" fill="#0575AD"/>
</g>
</g>
</g>
<defs>
<clipPath id="clip0_1_3103">
<rect width="55" height="55" fill="white" transform="translate(0.5 0.5)"/>
</clipPath>
<clipPath id="clip1_1_3103">
<rect width="55" height="55" fill="white" transform="translate(0.5 0.5)"/>
</clipPath>
<clipPath id="clip2_1_3103">
<rect width="55" height="55" fill="white" transform="translate(0.5 0.5)"/>
</clipPath>
</defs>
</svg>
