<svg width="56" height="55" viewBox="0 0 56 55" fill="none" xmlns="http://www.w3.org/2000/svg">
<g clip-path="url(#clip0_1_3103)">
<g clip-path="url(#clip1_1_3103)">
<g clip-path="url(#clip2_1_3103)">
<path d="M36.1471 8.25C32.2167 8.25 29.0187 11.1287 29.0187 14.668C29.0187 18.2056 32.2167 21.0842 36.1471 21.0842C40.0795 21.0842 43.2774 18.2056 43.2774 14.668C43.2774 11.1287 40.0795 8.25 36.1471 8.25ZM36.1471 19.2513C33.3365 19.2513 31.0551 17.1975 31.0551 14.668C31.0551 12.1368 33.3365 10.0846 36.1471 10.0846C38.9597 10.0846 41.241 12.1368 41.241 14.668C41.241 17.1975 38.9597 19.2513 36.1471 19.2513Z" fill="white"/>
<path d="M32.3091 23.245C31.4531 24.1701 29.8021 24.7477 28 24.7477C26.198 24.7477 24.547 24.1701 23.691 23.245C23.3351 22.8599 22.6927 22.8051 22.2553 23.126C21.8281 23.4468 21.7674 24.0245 22.1233 24.4174C23.3767 25.7745 25.566 26.5807 28 26.5807C30.4341 26.5807 32.6233 25.7745 33.8768 24.4174C34.2326 24.0323 34.1823 23.4468 33.7448 23.126C33.3074 22.8051 32.665 22.8599 32.3091 23.245Z" fill="white"/>
<path d="M39.2029 14.667C39.2029 14.8471 39.1838 15.0255 39.1456 15.2024C39.1057 15.3793 39.0484 15.5515 38.9703 15.719C38.8938 15.8849 38.8002 16.0446 38.689 16.1948C38.5779 16.3451 38.4512 16.4828 38.3088 16.6112C38.1665 16.738 38.0119 16.8523 37.8453 16.9525C37.6786 17.0526 37.5033 17.1387 37.3174 17.2077C37.1317 17.2765 36.9408 17.3281 36.7445 17.3641C36.5466 17.3986 36.3487 17.4158 36.1473 17.4158C35.9477 17.4158 35.748 17.3986 35.5519 17.3641C35.3557 17.3281 35.1647 17.2765 34.9789 17.2077C34.7931 17.1387 34.6179 17.0526 34.4511 16.9525C34.2827 16.8523 34.13 16.738 33.9877 16.6112C33.8453 16.4828 33.7185 16.3451 33.6074 16.1948C33.4963 16.0446 33.4025 15.8849 33.3244 15.719C33.248 15.5515 33.1907 15.3793 33.1508 15.2024C33.1126 15.0255 33.0918 14.8471 33.0918 14.667C33.0918 14.4855 33.1126 14.307 33.1508 14.1301C33.1907 13.9533 33.248 13.7811 33.3244 13.6136C33.4025 13.4477 33.4963 13.288 33.6074 13.1393C33.7185 12.989 33.8453 12.8497 33.9877 12.7213C34.13 12.5945 34.2827 12.4803 34.4511 12.3801C34.6179 12.2799 34.7931 12.1954 34.9789 12.1265C35.1647 12.0561 35.3557 12.0044 35.5519 11.97C35.748 11.934 35.9477 11.9167 36.1473 11.9167C36.3487 11.9167 36.5466 11.934 36.7445 11.97C36.9408 12.0044 37.1317 12.0561 37.3174 12.1265C37.5033 12.1954 37.6786 12.2799 37.8453 12.3801C38.0119 12.4803 38.1665 12.5945 38.3088 12.7213C38.4512 12.8497 38.5779 12.989 38.689 13.1393C38.8002 13.288 38.8938 13.4477 38.9703 13.6136C39.0484 13.7811 39.1057 13.9533 39.1456 14.1301C39.1838 14.307 39.2029 14.4855 39.2029 14.667Z" fill="white"/>
<path d="M22.9079 14.667C22.9079 14.8471 22.8871 15.0255 22.8489 15.2024C22.8089 15.3793 22.7516 15.5515 22.6752 15.719C22.5971 15.8849 22.5034 16.0446 22.3923 16.1948C22.2812 16.3451 22.1544 16.4828 22.012 16.6112C21.8697 16.738 21.7169 16.8523 21.5485 16.9525C21.3818 17.0526 21.2065 17.1387 21.0208 17.2077C20.8349 17.2765 20.644 17.3281 20.4478 17.3641C20.2517 17.3986 20.052 17.4158 19.8524 17.4158C19.651 17.4158 19.453 17.3986 19.2551 17.3641C19.0589 17.3281 18.868 17.2765 18.6822 17.2077C18.4964 17.1387 18.3211 17.0526 18.1544 16.9525C17.9878 16.8523 17.8332 16.738 17.6909 16.6112C17.5485 16.4828 17.4217 16.3451 17.3106 16.1948C17.1995 16.0446 17.1058 15.8849 17.0294 15.719C16.9513 15.5515 16.894 15.3793 16.854 15.2024C16.8159 15.0255 16.7968 14.8471 16.7968 14.667C16.7968 14.4855 16.8159 14.307 16.854 14.1301C16.894 13.9533 16.9513 13.7811 17.0294 13.6136C17.1058 13.4477 17.1995 13.288 17.3106 13.1393C17.4217 12.989 17.5485 12.8497 17.6909 12.7213C17.8332 12.5945 17.9878 12.4803 18.1544 12.3801C18.3211 12.2799 18.4964 12.1954 18.6822 12.1265C18.868 12.0561 19.0589 12.0044 19.2551 11.97C19.453 11.934 19.651 11.9167 19.8524 11.9167C20.052 11.9167 20.2517 11.934 20.4478 11.97C20.644 12.0044 20.8349 12.0561 21.0208 12.1265C21.2065 12.1954 21.3818 12.2799 21.5485 12.3801C21.7169 12.4803 21.8697 12.5945 22.012 12.7213C22.1544 12.8497 22.2812 12.989 22.3923 13.1393C22.5034 13.288 22.5971 13.4477 22.6752 13.6136C22.7516 13.7811 22.8089 13.9533 22.8489 14.1301C22.8871 14.307 22.9079 14.4855 22.9079 14.667Z" fill="white"/>
<path d="M26.9806 14.668C26.9806 11.1287 23.7827 8.25 19.8521 8.25C15.9198 8.25 12.7219 11.1287 12.7219 14.668C12.7219 18.2056 15.9198 21.0842 19.8521 21.0842C23.7827 21.0842 26.9806 18.2056 26.9806 14.668ZM19.8521 19.2513C17.0396 19.2513 14.7584 17.1975 14.7584 14.668C14.7584 12.1368 17.0396 10.0846 19.8521 10.0846C22.6629 10.0846 24.9441 12.1368 24.9441 14.668C24.9441 17.1975 22.6629 19.2513 19.8521 19.2513Z" fill="white"/>
<mask id="mask0_1_3103" style="mask-type:luminance" maskUnits="userSpaceOnUse" x="0" y="0" width="56" height="55">
<path d="M0.5 0H55.5V55H0.5V0Z" fill="white"/>
</mask>
<g mask="url(#mask0_1_3103)">
<path d="M52.4445 8.63445V6.41636C52.4445 2.87867 49.2465 0 45.3143 0H10.6857C6.75347 0 3.55555 2.87867 3.55555 6.41636V8.63445C1.76215 9.34982 0.5 10.9543 0.5 12.8327V16.5003C0.5 19.0299 2.78125 21.0836 5.59201 21.0836H8.64757V27.5C8.64757 29.0121 10.0226 30.2503 11.7031 30.2503H17.8143V33.9164H11.7031C10.0226 33.9164 8.64757 35.1906 8.64757 36.759V40.3327H6.61111C5.49132 40.3327 4.57466 41.1577 4.57466 42.1673V49.4994C4.57466 50.509 5.49132 51.334 6.61111 51.334H8.64757V52.1589C8.64757 53.7258 10.0226 55 11.7031 55H44.2969C45.9774 55 47.3524 53.7258 47.3524 52.1589V51.334H49.3889C50.5087 51.334 51.4253 50.509 51.4253 49.4994V42.1673C51.4253 41.1577 50.5087 40.3327 49.3889 40.3327H47.3524V38.4997C47.3524 37.9957 46.8941 37.584 46.3333 37.584C45.7726 37.584 45.3143 37.9957 45.3143 38.4997V52.1589C45.3143 52.7177 44.8559 53.1669 44.2969 53.1669H11.7031C11.1441 53.1669 10.6857 52.7177 10.6857 52.1589V36.759C10.6857 36.1986 11.1441 35.7494 11.7031 35.7494H21.8889C22.4497 35.7494 22.908 35.3377 22.908 34.8336C22.908 34.3296 22.4497 33.9164 21.8889 33.9164H19.8524V30.2503H36.1476V31.166C36.1476 31.6701 36.6059 32.0833 37.1667 32.0833C37.7274 32.0833 38.1857 31.6701 38.1857 31.166V30.2503H44.2969C45.9774 30.2503 47.3524 29.0121 47.3524 27.5V21.0836H50.408V29.3331C50.408 31.8626 48.1267 33.9164 45.3143 33.9164H34.9462C34.5191 32.8535 33.3976 32.0833 32.0747 32.0833H28C26.3195 32.0833 24.9445 33.3215 24.9445 34.8336C24.9445 36.3457 26.3195 37.584 28 37.584H32.0747C33.3976 37.584 34.5191 36.8138 34.9462 35.7494H45.3143C49.2465 35.7494 52.4445 32.8723 52.4445 29.3331V20.6986C54.2378 19.9832 55.5 18.3787 55.5 16.5003V12.8327C55.5 10.9543 54.2378 9.34982 52.4445 8.63445ZM45.3143 27.5C45.3143 28.0041 44.8559 28.4173 44.2969 28.4173H11.7031C11.1441 28.4173 10.6857 28.0041 10.6857 27.5V7.33365C10.6857 6.82961 11.1441 6.41636 11.7031 6.41636H44.2969C44.8559 6.41636 45.3143 6.82961 45.3143 7.33365V27.5ZM50.408 8.24938H47.3524V7.33365C47.3524 5.82152 45.9774 4.58333 44.2969 4.58333H11.7031C10.0226 4.58333 8.64757 5.82152 8.64757 7.33365V8.24938H5.59201V6.41636C5.59201 3.88676 7.87326 1.83302 10.6857 1.83302H45.3143C48.1267 1.83302 50.408 3.88676 50.408 6.41636V8.24938Z" fill="white"/>
</g>
<path d="M38.1857 41.25H17.8142C17.2551 41.25 16.7968 41.6632 16.7968 42.1673C16.7968 42.6713 17.2551 43.0831 17.8142 43.0831H38.1857C38.7447 43.0831 39.203 42.6713 39.203 42.1673C39.203 41.6632 38.7447 41.25 38.1857 41.25Z" fill="white"/>
<path d="M38.1857 46.75H17.8142C17.2551 46.75 16.7968 47.1617 16.7968 47.6658C16.7968 48.1697 17.2551 48.5831 17.8142 48.5831H38.1857C38.7447 48.5831 39.203 48.1697 39.203 47.6658C39.203 47.1617 38.7447 46.75 38.1857 46.75Z" fill="white"/>
</g>
</g>
</g>
<defs>
<clipPath id="clip0_1_3103">
<rect width="55" height="55" fill="white" transform="translate(0.5)"/>
</clipPath>
<clipPath id="clip1_1_3103">
<rect width="55" height="55" fill="white" transform="translate(0.5)"/>
</clipPath>
<clipPath id="clip2_1_3103">
<rect width="55" height="55" fill="white" transform="translate(0.5)"/>
</clipPath>
</defs>
</svg>
