<svg width="56" height="56" viewBox="0 0 56 56" fill="none" xmlns="http://www.w3.org/2000/svg">
<g clip-path="url(#clip0_1_3134)">
<g clip-path="url(#clip1_1_3134)">
<g clip-path="url(#clip2_1_3134)">
<mask id="mask0_1_3134" style="mask-type:luminance" maskUnits="userSpaceOnUse" x="0" y="0" width="56" height="56">
<path d="M55.5051 0.5H0.505127V55.5H55.5051V0.5Z" fill="white"/>
</mask>
<g mask="url(#mask0_1_3134)">
<path d="M29.1168 41.3605C27.1151 40.6627 25.1556 39.8596 23.2221 38.9778C25.0318 40.0804 26.9245 41.0395 28.9003 41.8552C29.3945 42.0583 29.8889 42.2588 30.3927 42.4414C30.6446 42.534 30.8937 42.6216 31.1457 42.7206L31.9177 42.9832L31.9968 43.0085C31.9586 43.0364 31.9233 43.0669 31.8905 43.0999C31.7884 43.2065 31.7012 43.3219 31.6277 43.445C31.4861 43.6911 31.3704 43.9473 31.2832 44.2151C31.2574 44.2798 31.2342 44.3483 31.2138 44.413L31.1621 44.6148L31.0572 45.0156C30.9972 45.2859 30.9578 45.5548 30.9088 45.8263C30.8611 46.0978 30.8448 46.3668 30.8162 46.6396C30.7876 46.9124 30.7767 47.1788 30.763 47.4541C30.7495 47.7294 30.7413 47.9933 30.7372 48.2686L30.7467 49.0806C30.7467 49.6198 30.7957 50.159 30.8353 50.6982C30.876 51.2387 30.9374 51.7779 31.015 52.3171C31.1566 53.3917 31.369 54.4549 31.6536 55.5041C31.7326 54.4257 31.6999 53.346 31.6972 52.2677L31.6182 49.0616L31.5951 48.2636V47.4694C31.5801 46.9289 31.5951 46.4074 31.5951 45.8784L31.6263 45.088L31.6563 44.6934L31.674 44.4955L31.7026 44.3039C31.723 44.1745 31.7326 44.0387 31.7612 43.9132C31.7898 43.7876 31.8156 43.6556 31.8538 43.5337C31.8892 43.4094 31.9382 43.2889 31.9995 43.1735C32.0254 43.1266 32.0553 43.0808 32.0894 43.0377C33.052 43.3523 34.0297 43.6416 35.0184 43.8954C36.0764 44.1656 37.1467 44.3763 38.2306 44.5284C38.812 44.5919 39.3894 44.5716 39.9654 44.4676C40.5563 44.3635 41.1024 44.1567 41.6034 43.8471C42.1223 43.5237 42.5199 43.0999 42.7949 42.5772C43.0523 42.0633 43.1721 41.5241 43.1544 40.9583C43.1081 39.9751 42.8386 39.0476 42.3497 38.176C42.4055 38.1304 42.4572 38.0872 42.509 38.0377C42.6316 37.926 42.7446 37.8056 42.8467 37.6774C43.0564 37.4135 43.2021 37.1229 43.2865 36.8033C43.3668 36.4849 43.3764 36.1651 43.311 35.8428C43.2811 35.6881 43.2389 35.5371 43.1844 35.3886C43.1258 35.2428 43.0523 35.1057 42.991 34.9661C42.9516 34.8799 42.8821 34.8392 42.7827 34.8431C41.9834 34.8672 41.1813 34.9027 40.3807 34.9332C39.5814 34.9636 38.7794 35.0106 37.9773 35.0588C38.7794 35.1083 39.58 35.1476 40.3807 35.1831C41.1269 35.2135 41.8745 35.2465 42.6207 35.2693C42.656 35.3557 42.6928 35.4496 42.72 35.5308C42.7568 35.6564 42.7827 35.7832 42.7963 35.9139C42.8317 36.1676 42.8086 36.4176 42.7255 36.6611C42.6438 36.9048 42.5158 37.1242 42.3402 37.3197C42.2544 37.4186 42.1604 37.51 42.0583 37.5949C41.9616 37.6774 41.8581 37.7509 41.7464 37.8144C41.6729 37.8563 41.6239 37.9147 41.598 37.992C41.5736 38.0682 41.5776 38.143 41.613 38.2153C42.0365 39.0984 42.3688 40.0322 42.3551 40.9507C42.362 41.1714 42.3388 41.3884 42.2857 41.6028C42.2339 41.8172 42.1536 42.0215 42.046 42.2169C41.9385 42.4135 41.8064 42.5924 41.6497 42.7573C41.4932 42.9222 41.3175 43.0656 41.1214 43.1887C40.3316 43.6734 39.3022 43.8154 38.3164 43.7279C37.2705 43.5845 36.2343 43.3892 35.209 43.1431C34.1782 42.9096 33.1541 42.6305 32.1384 42.3324C31.1225 42.0342 30.1162 41.7043 29.1168 41.3605ZM42.7555 33.955C42.7949 33.7127 42.8086 33.4691 42.7949 33.2242C42.7949 32.9869 42.7623 32.7497 42.7351 32.5138C42.7078 32.279 42.6792 32.0443 42.6438 31.8096C42.6097 31.5736 42.5771 31.3338 42.5376 31.1157C42.5349 31.0877 42.5349 31.061 42.5376 31.0344C42.5404 30.9811 42.5539 30.9317 42.5771 30.8835C42.6002 30.8365 42.6329 30.7946 42.6751 30.7591C42.716 30.7236 42.7637 30.6969 42.8154 30.6779C42.8685 30.6602 42.923 30.6526 42.9802 30.655H43.0005C43.2933 30.6652 43.6201 30.655 43.9279 30.655C44.237 30.655 44.5501 30.6335 44.8566 30.6005C45.1643 30.5751 45.4679 30.5257 45.7675 30.4547C46.0807 30.3823 46.3735 30.2631 46.6417 30.0956C46.4974 30.4089 46.2727 30.6576 45.9649 30.8429C45.6681 31.0306 45.3467 31.1702 45.0023 31.2602C44.6673 31.3542 44.3255 31.415 43.9782 31.4404C43.7849 31.4569 43.6119 31.4657 43.4282 31.467C43.4282 31.5647 43.4282 31.6612 43.4282 31.7602C43.4282 32.0189 43.4105 32.2765 43.3723 32.5327C43.3382 32.7903 43.2729 33.0415 43.1803 33.2864C43.0918 33.5376 42.9502 33.7609 42.7555 33.955ZM5.16739 27.9375C5.28994 28.2864 5.41113 28.6328 5.53641 28.9817V28.9715C5.8387 29.9585 6.23223 30.9139 6.63256 31.8578L7.86625 34.6743C8.28702 35.5865 8.63833 36.5216 8.91747 37.4795C9.0836 38.4412 9.07271 39.4003 8.8848 40.3569C8.54165 42.3057 7.8254 44.2138 6.9689 46.0509C6.08517 47.9007 5.06799 49.6832 3.91463 51.3986C5.34169 49.8355 6.55358 48.1393 7.55171 46.311C7.68107 46.0839 7.80089 45.8543 7.91664 45.6221C8.03238 45.3899 8.15902 45.159 8.26387 44.9218L8.58114 44.2024C8.68191 43.9638 8.7745 43.7203 8.87254 43.483C9.25793 42.5074 9.54522 41.5076 9.73588 40.4838C9.95368 39.4244 9.95781 38.3637 9.74808 37.3032C9.45804 36.2564 9.00054 35.3341 8.558 34.3978C8.1168 33.4602 7.62796 32.5568 7.15682 31.6434C6.91852 31.1892 6.68159 30.7325 6.45418 30.2732C6.22678 29.8152 5.99938 29.3584 5.79649 28.8903V28.8789C5.66849 28.6176 5.53368 28.3549 5.39479 28.0923L5.55683 28.2052H10.1839C10.222 28.2953 10.2628 28.3854 10.305 28.4729C10.4113 28.6847 10.5174 28.9004 10.6346 29.1085C10.8538 29.498 11.0975 29.8736 11.3672 30.2351C11.4884 30.8023 11.6926 31.3414 11.9786 31.854C12.1324 32.1306 12.319 32.3882 12.5368 32.6241C12.7724 32.8817 13.0543 33.0821 13.3839 33.2267C13.7365 33.3803 14.1042 33.4234 14.4854 33.3536C14.574 33.3397 14.661 33.3193 14.7455 33.2915C14.8299 33.2661 14.9117 33.2344 14.9906 33.1976C15.0724 33.1646 15.1499 33.124 15.2248 33.0796C15.3024 33.0339 15.3746 32.9819 15.4399 32.9222C15.5789 32.8055 15.6878 32.6685 15.7641 32.5086C15.8322 32.3552 15.8676 32.1953 15.8703 32.0291C15.8703 31.7208 15.7831 31.4366 15.6075 31.1765C15.6497 31.4493 15.6306 31.7196 15.5517 31.9859C15.4794 32.2194 15.3297 32.3958 15.1022 32.5162C14.8817 32.6254 14.6461 32.685 14.3956 32.6965C14.1614 32.7066 13.9435 32.6571 13.7419 32.5468C13.5268 32.4287 13.343 32.2777 13.1904 32.095C13.0189 31.8997 12.8691 31.6903 12.7397 31.467C12.4715 31.0002 12.2496 30.513 12.0738 30.0093L12.0548 29.9547C12.044 29.9218 12.0262 29.8925 11.999 29.8672C11.6735 29.5411 11.3535 29.1922 11.0349 28.8459L10.5434 28.3232L10.4167 28.1938H15.3692C16.2556 27.9451 17.0046 27.496 17.6146 26.8451C17.6813 26.9061 17.748 26.9695 17.8175 27.0253L17.8515 27.0557C17.8896 27.0887 17.9346 27.1027 17.9863 27.0988C18.2845 27.0735 18.5841 27.0392 18.8823 27.005C19.0117 26.9923 19.1411 26.9771 19.2677 26.9606C19.2949 26.9923 19.3181 27.0266 19.3453 27.0595C19.8355 27.6761 20.421 28.1988 21.1032 28.6276C21.4504 28.837 21.8236 28.9918 22.2212 29.0958C22.3002 29.1149 22.3832 29.1313 22.4635 29.144L22.4853 29.1542C22.8544 29.4383 23.2493 29.6833 23.6728 29.8901C24.0962 30.0956 24.5374 30.2592 24.9963 30.3798C25.4565 30.5003 25.9249 30.5751 26.4016 30.6043C26.8782 30.6335 27.352 30.617 27.8246 30.5536H27.8872L50.3224 29.4244C50.3224 29.4244 52.7584 29.3775 52.7584 28.0237C55.0025 27.6634 55.0584 25.3252 55.0584 25.3252C55.5226 21.1867 55.6071 17.0418 55.3103 12.8893C55.2544 11.495 53.875 11.1486 53.5945 11.1194L52.9722 11.0166C52.9136 10.905 52.8442 10.7997 52.7638 10.7008C52.4261 10.2961 52.0054 9.99282 51.5016 9.78978C51.0141 9.59189 50.5076 9.44853 49.9847 9.36099C49.4781 9.25822 48.9702 9.16814 48.4623 9.08821C47.4397 8.92708 46.4184 8.7926 45.393 8.6873C44.3677 8.58326 43.3424 8.49319 42.3088 8.42214C41.3216 8.35997 40.3344 8.31429 39.3485 8.28257L39.3253 8.25847C38.4703 7.00498 37.4286 5.90628 36.2016 4.96109C34.8808 3.93977 33.4415 3.09353 31.8837 2.41985C30.3287 1.73855 28.711 1.2336 27.0293 0.903739C25.3367 0.568798 23.6292 0.454614 21.9039 0.558649C20.1882 0.665221 18.5052 0.945606 16.8548 1.396C15.2044 1.85527 13.6398 2.49598 12.161 3.31683C10.6836 4.13135 9.35189 5.11714 8.16583 6.2742C6.98524 7.42746 6.02253 8.72028 5.2736 10.154C6.16687 8.8332 7.2249 7.63934 8.44769 6.57362C9.67181 5.5079 11.02 4.60458 12.4933 3.86364C13.9544 3.13033 15.4822 2.55433 17.0781 2.13312C18.6753 1.71191 20.3012 1.4569 21.957 1.36809C22.7768 1.31353 23.5965 1.31353 24.4162 1.36809C26.6466 1.84385 30.5548 3.38153 34.3253 8.29526C32.871 8.34094 31.4194 8.43228 29.9678 8.56677C32.0226 8.71774 34.072 8.79514 36.1199 8.90298C37.1426 8.96134 38.1666 8.9994 39.1878 9.06537L42.2516 9.24553C44.2982 9.35464 46.3354 9.51196 48.3711 9.69087C48.8858 9.74037 49.3923 9.79106 49.8934 9.84441C50.3918 9.88749 50.8779 9.98136 51.3532 10.1247C51.8244 10.2668 52.2356 10.5016 52.5868 10.8276C52.6373 10.8758 52.6835 10.9265 52.7257 10.9812C49.7777 10.5257 46.8133 10.211 43.8312 10.0372C39.1361 9.78088 32.2378 9.6604 32.2378 9.6604C32.2378 9.6604 27.5441 8.91567 27.5441 17.9692C27.5441 28.0935 30.4444 28.7875 30.4444 28.7875H33.914C35.4459 27.8906 37.0337 27.09 38.6785 26.3884L49.9561 26.1499L52.2015 28.0491L27.5454 29.1707C27.5454 29.1707 24.9473 26.9809 25.1066 19.5703C25.2672 12.161 24.6641 9.81388 27.1505 8.77991C26.8291 8.73551 26.5078 8.7317 26.1864 8.7685C25.7861 8.7685 19.4393 8.88522 13.3334 11.3275H13.3198L13.2518 11.3605C12.4211 11.6929 11.6123 12.0659 10.8253 12.4795V15.9088C10.8253 15.9088 10.8048 16.1232 11.1139 16.2184C11.2214 16.2945 11.3426 16.3427 11.4775 16.3604L12.7669 16.3275C12.8201 16.8083 12.8895 17.2866 12.9822 17.7662C13.2027 18.9093 13.5214 20.0283 13.9367 21.122C14.3493 22.227 14.8708 23.2838 15.5013 24.2937C15.6483 24.5272 15.8049 24.7568 15.9669 24.9826C15.5503 25.3772 15.0505 25.6259 14.4663 25.7261C13.6276 25.8923 10.9968 25.9266 9.11356 25.9279C8.97331 25.2389 8.89842 24.5437 8.88752 23.8421C8.88752 23.4564 8.93519 23.077 9.03322 22.7041C9.10811 22.373 9.28103 22.095 9.55063 21.8692C9.57923 21.8438 9.61058 21.8248 9.64596 21.8096L9.74404 21.7537C9.82297 21.7322 9.88833 21.7068 9.97688 21.6853L10.2737 21.6371L10.4249 21.6117H10.5706C10.9668 21.5736 11.3522 21.6168 11.728 21.7411C12.4674 21.9822 13.102 22.5809 13.5377 23.3245C13.4873 22.8817 13.3348 22.4731 13.0788 22.0976C12.8119 21.6967 12.4552 21.3846 12.0085 21.1626C11.551 20.9367 11.0621 20.8302 10.5434 20.8441H10.3513L10.158 20.8657L9.79171 20.91C9.65283 20.9406 9.51662 20.9786 9.38315 21.0255L9.19118 21.1245C9.12174 21.155 9.05773 21.1917 8.99782 21.2374C8.88344 21.3199 8.78131 21.415 8.69143 21.5216L8.56207 21.6802L8.46404 21.8477C8.40004 21.9568 8.34966 22.071 8.31017 22.1915C8.26523 22.3044 8.23255 22.4199 8.2094 22.5379C8.12225 22.9882 8.11545 23.4411 8.18625 23.8941C8.29927 24.6172 8.5471 25.2986 8.9311 25.9368C7.86625 25.9368 7.08329 25.9266 7.08329 25.9266C7.08329 25.9266 5.24364 25.2808 3.72944 22.3298C3.72944 22.3298 3.03362 18.2128 3.084 17.0151V16.5596C3.148 16.5724 3.21473 16.585 3.2869 16.5952L10.4957 16.4163C10.4181 16.3059 10.3663 16.1866 10.3432 16.056V12.2055L10.4807 12.1243C10.6727 12.0113 11.2365 11.7348 11.8996 11.4163L3.8874 11.7754C3.93642 11.3008 3.91463 10.2098 2.66733 10.1793C1.07142 10.1412 0.959766 10.2466 0.837214 12.1573C0.7133 14.0667 0.549898 17.6012 1.08096 20.6094C1.59976 23.4564 2.41133 25.9227 5.16739 27.9375ZM53.024 12.8005L54.2332 13.1316C54.6661 24.191 53.1655 24.9357 53.1655 24.9357C53.6912 21.7982 53.024 12.8005 53.024 12.8005ZM18.2056 22.7688C17.6705 21.4404 17.1925 20.0828 16.7281 18.714C16.4681 17.9477 16.2107 17.1788 15.956 16.4074L17.6255 16.4632C17.6255 16.4632 19.6707 16.5254 19.7116 18.587L20.1228 24.923C20.1228 24.923 20.2249 26.5013 21.0392 27.8004C20.692 27.4198 20.3815 27.0151 20.1065 26.5863C19.3535 25.3658 18.7189 24.0933 18.2056 22.7688ZM16.4149 23.837C15.9043 22.8271 15.4522 21.7969 15.0178 20.7503C14.5849 19.7035 14.2009 18.6391 13.8169 17.5645L13.3797 16.3186L15.4359 16.3884C15.5285 17.2397 15.6729 18.0872 15.8471 18.9271C16.1494 20.3658 16.5729 21.7741 17.1189 23.1494C17.6242 24.4575 18.3022 25.6829 19.1533 26.8261C19.062 26.8147 18.9708 26.802 18.8809 26.7931C18.625 26.764 18.3703 26.736 18.1103 26.7119C17.7998 26.2539 17.5029 25.7946 17.2251 25.3277C16.9474 24.8596 16.6723 24.3407 16.4149 23.837Z" fill="#0575AD"/>
</g>
</g>
</g>
</g>
<defs>
<clipPath id="clip0_1_3134">
<rect width="55.91" height="55" fill="white" transform="translate(0.0500488 0.5)"/>
</clipPath>
<clipPath id="clip1_1_3134">
<rect width="55.91" height="55" fill="white" transform="translate(0.0500488 0.5)"/>
</clipPath>
<clipPath id="clip2_1_3134">
<rect width="55.9167" height="55" fill="white" transform="translate(0.0467529 0.5)"/>
</clipPath>
</defs>
</svg>
