<svg width="46" height="46" viewBox="0 0 46 46" fill="none" xmlns="http://www.w3.org/2000/svg">
<g clip-path="url(#clip0_1_3354)">
<g clip-path="url(#clip1_1_3354)">
<mask id="mask0_1_3354" style="mask-type:luminance" maskUnits="userSpaceOnUse" x="0" y="0" width="46" height="46">
<path d="M0.160034 0.689941H45.16V45.6899H0.160034V0.689941Z" fill="white"/>
</mask>
<g mask="url(#mask0_1_3354)">
<path fill-rule="evenodd" clip-rule="evenodd" d="M39.977 3.88406L44.1054 2.29286L39.977 0.70166L35.8485 2.29286L39.977 3.88406ZM19.7384 10.378V5.68093C19.7384 5.35249 19.4755 5.08782 19.1493 5.08782H11.7902V6.27404H18.5602V10.7064C18.945 10.5789 19.3393 10.4705 19.7384 10.378ZM25.5898 10.378C25.9889 10.4705 26.3832 10.5789 26.768 10.7064V6.27404H33.538V5.08782H26.1789C25.8527 5.08782 25.5898 5.35249 25.5898 5.68093V10.378ZM25.5898 36.223V40.92C25.5898 41.2485 25.8527 41.5132 26.1789 41.5132H33.538V40.3269H26.768V35.8945C26.3832 36.0205 25.9889 36.1321 25.5898 36.223ZM18.5602 40.3253H11.7902V41.5116H19.1493C19.4755 41.5116 19.7384 41.2469 19.7384 40.9185V36.223C19.3393 36.1305 18.945 36.0205 18.5602 35.8929V40.3253ZM4.76215 40.1659L0.164917 38.3945V43.8984L4.76215 45.6713V40.1659ZM5.35125 39.1232L1.22277 37.532L5.35125 35.9408L9.48132 37.532L5.35125 39.1232ZM10.5391 43.9V38.3945L5.94194 40.1659V45.6729L10.5391 43.9ZM40.5661 40.1659V45.6713L45.1649 43.8984V38.3945L40.5661 40.1659ZM39.3879 40.1659L34.789 38.3945V43.8984L39.3879 45.6713V40.1659ZM39.977 35.9408L44.1054 37.532L39.977 39.1232L35.8485 37.532L39.977 35.9408ZM23.3759 25.3269C23.3759 24.9315 23.0576 24.6111 22.6649 24.6111C22.2721 24.6111 21.9523 24.9315 21.9523 25.3269C21.9523 25.7208 22.2721 26.0428 22.6649 26.0428C23.0576 26.0428 23.3759 25.7223 23.3759 25.3269ZM27.9557 21.8273C28.2962 21.8273 28.5733 22.1063 28.5733 22.4491V30.1133C28.5733 30.4577 28.2962 30.7383 27.9557 30.7383H17.374C17.032 30.7383 16.7548 30.4577 16.7548 30.1133V22.4491C16.7548 22.1047 17.032 21.8273 17.374 21.8273H27.9557ZM24.5557 25.3269C24.5557 26.1672 24.0078 26.8831 23.254 27.1334V28.4105C23.254 28.7373 22.9911 29.0036 22.6649 29.0036C22.3387 29.0036 22.0742 28.7373 22.0742 28.4105V27.1334C21.3204 26.8831 20.774 26.1672 20.774 25.3269C20.774 24.2778 21.6213 23.4248 22.6649 23.4248C23.7069 23.4248 24.5557 24.2778 24.5557 25.3269ZM22.6649 14.0578C20.3829 14.0578 18.5269 15.9264 18.5269 18.2223V20.6394H26.8029V18.2223C26.8029 15.9264 24.9469 14.0578 22.6649 14.0578ZM22.6649 11.2373C29.2749 11.2373 34.6513 16.6487 34.6513 23.3005C34.6513 29.9507 29.2749 35.362 22.6649 35.362C16.0549 35.362 10.6769 29.9507 10.6769 23.3005C10.6769 16.6487 16.0549 11.2373 22.6649 11.2373ZM22.6649 12.8716C25.5962 12.8716 27.9811 15.2711 27.9811 18.2223V20.641C28.9613 20.6554 29.7531 21.4605 29.7531 22.4491V30.1133C29.7531 31.113 28.9471 31.9245 27.9557 31.9245H17.374C16.3811 31.9245 15.575 31.113 15.575 30.1133V22.4491C15.575 21.4605 16.3684 20.6554 17.3471 20.641V18.2223C17.3471 15.2727 19.732 12.8716 22.6649 12.8716ZM5.35125 3.88406L9.48132 2.29286L5.35125 0.70166L1.22277 2.29286L5.35125 3.88406ZM4.76215 10.4338L0.164917 8.66084V3.15542L4.76215 4.92679V10.4338ZM10.5391 8.66084L5.94194 10.4338V4.92838L10.5391 3.15702V8.66084ZM39.3879 10.4338L34.789 8.66084V3.15542L39.3879 4.92679V10.4338ZM45.1649 3.15542V8.66084L40.5661 10.4322V4.92838L45.1649 3.15542Z" fill="#00D280"/>
</g>
</g>
</g>
<defs>
<clipPath id="clip0_1_3354">
<rect width="45" height="45" fill="white" transform="translate(0.160034 0.689941)"/>
</clipPath>
<clipPath id="clip1_1_3354">
<rect width="45" height="45" fill="white" transform="translate(0.160034 0.689941)"/>
</clipPath>
</defs>
</svg>
