<svg width="46" height="46" viewBox="0 0 46 46" fill="none" xmlns="http://www.w3.org/2000/svg">
<g clip-path="url(#clip0_1_3402)">
<g clip-path="url(#clip1_1_3402)">
<mask id="mask0_1_3402" style="mask-type:luminance" maskUnits="userSpaceOnUse" x="0" y="0" width="46" height="37">
<path d="M0.47998 0.189941H45.4795V36.1973H0.47998V0.189941Z" fill="white"/>
</mask>
<g mask="url(#mask0_1_3402)">
<path d="M44.1455 29.9327H1.81493V3.28268C1.81493 2.29929 2.58933 1.52488 3.57272 1.52488H42.3838C43.3701 1.52488 44.1455 2.29929 44.1455 3.28268V29.9327ZM42.3877 0.189941H3.57272C1.88621 0.189941 0.47998 1.59617 0.47998 3.28268V33.0967C0.47998 34.7832 1.88621 36.1895 3.57272 36.1895H42.3838C44.0733 36.1895 45.4795 34.7832 45.4795 33.0967V3.28268C45.4795 1.59617 44.0733 0.189941 42.3838 0.189941H42.3877Z" fill="#00D280"/>
</g>
<mask id="mask1_1_3402" style="mask-type:luminance" maskUnits="userSpaceOnUse" x="12" y="37" width="21" height="9">
<path d="M12.0981 37.4478H32.3478V45.1899H12.0981V37.4478Z" fill="white"/>
</mask>
<g mask="url(#mask1_1_3402)">
<path d="M32.3323 43.0112V44.4887C32.3323 44.8403 32.0491 45.1919 31.6292 45.1919H12.9243C12.5728 45.1919 12.2212 44.9087 12.2212 44.4887V42.9429C12.2212 41.6763 13.1362 40.6939 14.3306 40.482L16.3725 37.5298H28.2533L30.2952 40.482C31.4173 40.7622 32.3323 41.7485 32.3323 43.0112Z" fill="#00D280"/>
</g>
<path d="M12.4331 10.5248V4.61962C12.4331 4.26806 12.7173 3.9165 13.1362 3.9165C16.7915 3.9165 19.7485 6.86861 19.7485 10.5248C19.7485 10.8763 19.4643 11.2279 19.0454 11.2279H13.1362C12.7847 11.2279 12.4331 10.9476 12.4331 10.5248Z" fill="#00D280"/>
<path d="M17.0033 13.266C17.0033 16.9251 14.0512 19.8772 10.3959 19.8772C6.74069 19.8772 3.78369 16.9251 3.78369 13.266C3.78369 9.6108 6.74069 6.65869 10.3959 6.65869C10.7475 6.65869 11.0991 6.93798 11.0991 7.36181V12.6351H16.3724C16.724 12.6351 17.0033 12.9183 17.0033 13.266Z" fill="#00D280"/>
<path d="M28.0464 18.6118V27.9632C28.0464 28.3148 27.7622 28.6663 27.3432 28.6663H24.3862C24.0347 28.6663 23.6831 28.387 23.6831 27.9632V18.6118C23.6831 18.2602 23.9673 17.9087 24.3862 17.9087H27.4106C27.7622 17.9087 28.0464 18.2602 28.0464 18.6118Z" fill="#00D280"/>
<path d="M35.0053 23.393V27.9633C35.0053 28.3148 34.7212 28.6664 34.3022 28.6664H31.2778C30.9263 28.6664 30.5747 28.3871 30.5747 27.9633V23.393C30.5747 23.0415 30.8589 22.6899 31.2778 22.6899H34.3022C34.7212 22.6899 35.0053 23.0415 35.0053 23.393Z" fill="#00D280"/>
<path d="M21.0825 22.6899V28.0316C21.0825 28.3871 20.7993 28.7347 20.3794 28.7347H17.355C17.0034 28.7347 16.6519 28.4554 16.6519 28.0316V22.6899C16.6519 22.3383 16.9361 21.9868 17.355 21.9868H20.3794C20.7993 21.9868 21.0825 22.271 21.0825 22.6899Z" fill="#00D280"/>
<path d="M41.9643 15.2368V27.9642C41.9643 28.3157 41.685 28.6673 41.2612 28.6673H38.2368C37.8902 28.6673 37.5337 28.388 37.5337 27.9642V15.2368C37.5337 14.8852 37.8179 14.5337 38.2368 14.5337H41.2612C41.685 14.6049 41.9643 14.8852 41.9643 15.2368Z" fill="#00D280"/>
<path d="M34.6536 17.4159C36.5511 19.7371 33.2474 22.7615 31.138 20.6522C30.5023 20.0887 30.2953 19.2459 30.5023 18.3992C30.5023 18.3309 30.5023 18.3309 30.5746 18.2596L27.4105 16.078C26.5678 16.7811 25.2289 16.8534 24.3149 15.9383L21.2944 17.6961C21.646 19.2459 20.519 20.6522 18.9731 20.6522C17.6392 20.6522 16.5806 19.5975 16.5806 18.2596C16.5806 17.4881 16.9361 16.785 17.4946 16.3612C18.1304 15.9383 18.8335 15.7303 19.604 15.9383C19.9555 16.0096 20.3071 16.2215 20.5913 16.5018L23.6118 14.744C23.5434 14.5321 23.5434 14.3925 23.5434 14.1806C23.5434 12.8456 24.5981 11.7909 25.9369 11.7909C27.4828 11.7909 28.6771 13.2655 28.2533 14.8837V14.955L31.4173 17.1366C32.0492 16.6454 32.8958 16.5018 33.6712 16.7127L38.0969 10.1738C37.7454 9.75389 37.5335 9.25878 37.5335 8.69921C37.5335 7.92383 37.8899 7.29298 38.4485 6.80177C39.7835 5.74319 41.8244 6.44631 42.2483 8.13574C42.384 8.83886 42.2483 9.61033 41.8244 10.1738C41.261 10.8769 40.2786 11.2997 39.2239 10.9482L34.6536 17.4159Z" fill="#00D280"/>
</g>
</g>
<defs>
<clipPath id="clip0_1_3402">
<rect width="45" height="45" fill="white" transform="translate(0.47998 0.189941)"/>
</clipPath>
<clipPath id="clip1_1_3402">
<rect width="45" height="45" fill="white" transform="translate(0.47998 0.189941)"/>
</clipPath>
</defs>
</svg>
