<svg width="56" height="56" viewBox="0 0 56 56" fill="none" xmlns="http://www.w3.org/2000/svg">
<g clip-path="url(#clip0_1_3184)">
<g clip-path="url(#clip1_1_3184)">
<g clip-path="url(#clip2_1_3184)">
<mask id="mask0_1_3184" style="mask-type:luminance" maskUnits="userSpaceOnUse" x="0" y="1" width="56" height="44">
<path d="M0.945862 1.07397H55.0442V44.362H0.945862V1.07397Z" fill="white"/>
</mask>
<g mask="url(#mask0_1_3184)">
<path d="M53.4406 36.8307H2.55073V4.79206C2.55073 3.60984 3.48172 2.67884 4.66395 2.67884H51.3226C52.5084 2.67884 53.4406 3.60984 53.4406 4.79206V36.8307ZM51.3273 1.07397H4.66395C2.63644 1.07397 0.945862 2.76455 0.945862 4.79206V40.6346C0.945862 42.6621 2.63644 44.3526 4.66395 44.3526H51.3226C53.3536 44.3526 55.0442 42.6621 55.0442 40.6346V4.79206C55.0442 2.76455 53.3536 1.07397 51.3226 1.07397H51.3273Z" fill="#0575AD"/>
</g>
<mask id="mask1_1_3184" style="mask-type:luminance" maskUnits="userSpaceOnUse" x="14" y="45" width="26" height="11">
<path d="M14.9133 45.8655H39.2576V55.173H14.9133V45.8655Z" fill="white"/>
</mask>
<g mask="url(#mask1_1_3184)">
<path d="M39.2388 52.5521V54.3284C39.2388 54.751 38.8984 55.1736 38.3935 55.1736H15.9066C15.4839 55.1736 15.0613 54.8332 15.0613 54.3284V52.4699C15.0613 50.9472 16.1613 49.7661 17.5971 49.5114L20.0519 45.9624H34.335L36.7898 49.5114C38.1387 49.8484 39.2388 51.0341 39.2388 52.5521Z" fill="#0575AD"/>
</g>
<path d="M15.3157 13.4988V6.39949C15.3157 5.97684 15.6574 5.5542 16.161 5.5542C20.5553 5.5542 24.1102 9.10322 24.1102 13.4988C24.1102 13.9213 23.7686 14.344 23.2649 14.344H16.161C15.7383 14.344 15.3157 14.0071 15.3157 13.4988Z" fill="#0575AD"/>
<path d="M20.8104 16.7942C20.8104 21.1932 17.2614 24.7422 12.8671 24.7422C8.47275 24.7422 4.91785 21.1932 4.91785 16.7942C4.91785 12.3998 8.47275 8.85083 12.8671 8.85083C13.2897 8.85083 13.7124 9.18659 13.7124 9.6961V16.0358H20.052C20.4747 16.0358 20.8104 16.3763 20.8104 16.7942Z" fill="#0575AD"/>
<path d="M34.0858 23.2205V34.4629C34.0858 34.8855 33.7442 35.3082 33.2405 35.3082H29.6856C29.2629 35.3082 28.8403 34.9724 28.8403 34.4629V23.2205C28.8403 22.7979 29.182 22.3752 29.6856 22.3752H33.3216C33.7442 22.3752 34.0858 22.7979 34.0858 23.2205Z" fill="#0575AD"/>
<path d="M42.4515 28.9686V34.463C42.4515 34.8856 42.1099 35.3083 41.6062 35.3083H37.9703C37.5477 35.3083 37.1251 34.9725 37.1251 34.463V28.9686C37.1251 28.546 37.4667 28.1233 37.9703 28.1233H41.6062C42.1099 28.1233 42.4515 28.546 42.4515 28.9686Z" fill="#0575AD"/>
<path d="M25.714 28.1234V34.5452C25.714 34.9726 25.3734 35.3905 24.8687 35.3905H21.2327C20.81 35.3905 20.3875 35.0547 20.3875 34.5452V28.1234C20.3875 27.7008 20.7291 27.2781 21.2327 27.2781H24.8687C25.3734 27.2781 25.714 27.6197 25.714 28.1234Z" fill="#0575AD"/>
<path d="M50.8181 19.1632V34.4641C50.8181 34.8867 50.4823 35.3094 49.9728 35.3094H46.3369C45.9201 35.3094 45.4916 34.9736 45.4916 34.4641V19.1632C45.4916 18.7406 45.8333 18.3179 46.3369 18.3179H49.9728C50.4823 18.4036 50.8181 18.7406 50.8181 19.1632Z" fill="#0575AD"/>
<path d="M42.0294 21.7831C44.3106 24.5738 40.3388 28.2096 37.803 25.6738C37.0387 24.9964 36.7898 23.9832 37.0387 22.9653C37.0387 22.8832 37.0387 22.8832 37.1256 22.7975L33.3218 20.1748C32.3087 21.0201 30.699 21.1069 29.6002 20.0069L25.969 22.1201C26.3916 23.9832 25.0368 25.6738 23.1784 25.6738C21.5746 25.6738 20.3021 24.4059 20.3021 22.7975C20.3021 21.87 20.7294 21.0247 21.4009 20.5152C22.1652 20.0069 23.0105 19.7568 23.9368 20.0069C24.3594 20.0925 24.782 20.3473 25.1237 20.6843L28.7549 18.571C28.6727 18.3163 28.6727 18.1484 28.6727 17.8936C28.6727 16.2888 29.9407 15.0208 31.5502 15.0208C33.4087 15.0208 34.8445 16.7936 34.335 18.7389V18.8247L38.1387 21.4473C38.8984 20.8569 39.9162 20.6843 40.8484 20.9378L46.169 13.0767C45.7463 12.5719 45.4916 11.9766 45.4916 11.304C45.4916 10.3718 45.9201 9.61342 46.5916 9.02285C48.1965 7.75023 50.6502 8.59551 51.1597 10.6265C51.3229 11.4718 51.1597 12.3993 50.6502 13.0767C49.9728 13.922 48.7917 14.4303 47.5238 14.0076L42.0294 21.7831Z" fill="#0575AD"/>
</g>
</g>
</g>
<defs>
<clipPath id="clip0_1_3184">
<rect width="54.09" height="55" fill="white" transform="translate(0.950012 0.5)"/>
</clipPath>
<clipPath id="clip1_1_3184">
<rect width="54.09" height="55" fill="white" transform="translate(0.950012 0.5)"/>
</clipPath>
<clipPath id="clip2_1_3184">
<rect width="54.0984" height="55" fill="white" transform="translate(0.945862 0.5)"/>
</clipPath>
</defs>
</svg>
