<svg width="56" height="55" viewBox="0 0 56 55" fill="none" xmlns="http://www.w3.org/2000/svg">
<g clip-path="url(#clip0_1_3184)">
<g clip-path="url(#clip1_1_3184)">
<g clip-path="url(#clip2_1_3184)">
<mask id="mask0_1_3184" style="mask-type:luminance" maskUnits="userSpaceOnUse" x="0" y="0" width="56" height="44">
<path d="M0.945862 0.573975H55.0442V43.862H0.945862V0.573975Z" fill="white"/>
</mask>
<g mask="url(#mask0_1_3184)">
<path d="M53.4406 36.3307H2.55073V4.29206C2.55073 3.10984 3.48172 2.17884 4.66395 2.17884H51.3226C52.5084 2.17884 53.4406 3.10984 53.4406 4.29206V36.3307ZM51.3273 0.573975H4.66395C2.63644 0.573975 0.945862 2.26455 0.945862 4.29206V40.1346C0.945862 42.1621 2.63644 43.8526 4.66395 43.8526H51.3226C53.3536 43.8526 55.0442 42.1621 55.0442 40.1346V4.29206C55.0442 2.26455 53.3536 0.573975 51.3226 0.573975H51.3273Z" fill="white"/>
</g>
<mask id="mask1_1_3184" style="mask-type:luminance" maskUnits="userSpaceOnUse" x="14" y="45" width="26" height="10">
<path d="M14.9133 45.3655H39.2576V54.673H14.9133V45.3655Z" fill="white"/>
</mask>
<g mask="url(#mask1_1_3184)">
<path d="M39.2388 52.0521V53.8284C39.2388 54.251 38.8984 54.6736 38.3935 54.6736H15.9066C15.4839 54.6736 15.0613 54.3332 15.0613 53.8284V51.9699C15.0613 50.4472 16.1613 49.2661 17.5971 49.0114L20.0519 45.4624H34.335L36.7898 49.0114C38.1387 49.3484 39.2388 50.5341 39.2388 52.0521Z" fill="white"/>
</g>
<path d="M15.3157 12.9988V5.89949C15.3157 5.47684 15.6574 5.0542 16.161 5.0542C20.5553 5.0542 24.1102 8.60322 24.1102 12.9988C24.1102 13.4213 23.7686 13.844 23.2649 13.844H16.161C15.7383 13.844 15.3157 13.5071 15.3157 12.9988Z" fill="white"/>
<path d="M20.8104 16.2942C20.8104 20.6932 17.2614 24.2422 12.8671 24.2422C8.47275 24.2422 4.91785 20.6932 4.91785 16.2942C4.91785 11.8998 8.47275 8.35083 12.8671 8.35083C13.2897 8.35083 13.7124 8.68659 13.7124 9.1961V15.5358H20.052C20.4747 15.5358 20.8104 15.8763 20.8104 16.2942Z" fill="white"/>
<path d="M34.0858 22.7205V33.9629C34.0858 34.3855 33.7442 34.8082 33.2405 34.8082H29.6856C29.2629 34.8082 28.8403 34.4724 28.8403 33.9629V22.7205C28.8403 22.2979 29.182 21.8752 29.6856 21.8752H33.3216C33.7442 21.8752 34.0858 22.2979 34.0858 22.7205Z" fill="white"/>
<path d="M42.4515 28.4686V33.963C42.4515 34.3856 42.1099 34.8083 41.6062 34.8083H37.9703C37.5477 34.8083 37.1251 34.4725 37.1251 33.963V28.4686C37.1251 28.046 37.4667 27.6233 37.9703 27.6233H41.6062C42.1099 27.6233 42.4515 28.046 42.4515 28.4686Z" fill="white"/>
<path d="M25.714 27.6234V34.0452C25.714 34.4726 25.3734 34.8905 24.8687 34.8905H21.2327C20.81 34.8905 20.3875 34.5547 20.3875 34.0452V27.6234C20.3875 27.2008 20.7291 26.7781 21.2327 26.7781H24.8687C25.3734 26.7781 25.714 27.1197 25.714 27.6234Z" fill="white"/>
<path d="M50.8181 18.6632V33.9641C50.8181 34.3867 50.4823 34.8094 49.9728 34.8094H46.3369C45.9201 34.8094 45.4916 34.4736 45.4916 33.9641V18.6632C45.4916 18.2406 45.8333 17.8179 46.3369 17.8179H49.9728C50.4823 17.9036 50.8181 18.2406 50.8181 18.6632Z" fill="white"/>
<path d="M42.0294 21.2831C44.3106 24.0738 40.3388 27.7096 37.803 25.1738C37.0387 24.4964 36.7898 23.4832 37.0387 22.4653C37.0387 22.3832 37.0387 22.3832 37.1256 22.2975L33.3218 19.6748C32.3087 20.5201 30.699 20.6069 29.6002 19.5069L25.969 21.6201C26.3916 23.4832 25.0368 25.1738 23.1784 25.1738C21.5746 25.1738 20.3021 23.9059 20.3021 22.2975C20.3021 21.37 20.7294 20.5247 21.4009 20.0152C22.1652 19.5069 23.0105 19.2568 23.9368 19.5069C24.3594 19.5925 24.782 19.8473 25.1237 20.1843L28.7549 18.071C28.6727 17.8163 28.6727 17.6484 28.6727 17.3936C28.6727 15.7888 29.9407 14.5208 31.5502 14.5208C33.4087 14.5208 34.8445 16.2936 34.335 18.2389V18.3247L38.1387 20.9473C38.8984 20.3569 39.9162 20.1843 40.8484 20.4378L46.169 12.5767C45.7463 12.0719 45.4916 11.4766 45.4916 10.804C45.4916 9.87179 45.9201 9.11342 46.5916 8.52285C48.1965 7.25023 50.6502 8.09551 51.1597 10.1265C51.3229 10.9718 51.1597 11.8993 50.6502 12.5767C49.9728 13.422 48.7917 13.9303 47.5238 13.5076L42.0294 21.2831Z" fill="white"/>
</g>
</g>
</g>
<defs>
<clipPath id="clip0_1_3184">
<rect width="54.09" height="55" fill="white" transform="translate(0.950012)"/>
</clipPath>
<clipPath id="clip1_1_3184">
<rect width="54.09" height="55" fill="white" transform="translate(0.950012)"/>
</clipPath>
<clipPath id="clip2_1_3184">
<rect width="54.0984" height="55" fill="white" transform="translate(0.945862)"/>
</clipPath>
</defs>
</svg>
