<svg width="58" height="46" viewBox="0 0 58 46" fill="none" xmlns="http://www.w3.org/2000/svg">
<g clip-path="url(#clip0_1_3313)">
<g clip-path="url(#clip1_1_3313)">
<path d="M23.8223 27.3413H29.536V25.1919H23.9294C23.9106 25.8104 23.8831 26.4498 23.8469 27.1054C23.8411 27.1855 23.8324 27.2642 23.8223 27.3413Z" fill="#00D280"/>
<path d="M21.2722 29.6071C21.2201 29.6071 21.1666 29.6056 21.113 29.6026C20.5935 29.5715 20.1173 29.3801 19.7266 29.079V37.65H54.589V36.7645H51.7032V28.0688H23.6095C23.1985 28.9796 22.3027 29.6071 21.2722 29.6071Z" fill="#00D280"/>
<path d="M18.8902 4.95684C18.8902 6.48177 18.2736 7.85836 17.2852 8.84185C17.3112 8.9531 17.3373 9.06435 17.3633 9.17561C17.6123 9.18451 17.9249 9.22159 18.2809 9.31505C19.4025 8.06158 20.4734 6.77993 21.4894 5.47158C21.6616 5.50866 21.8338 5.5413 22.0061 5.57838C22.5184 7.53498 23.1117 9.48712 23.7934 11.4303C25.012 9.7927 26.1509 8.11795 27.2118 6.41353C27.3854 6.43282 27.5591 6.44913 27.7342 6.46693C28.3131 8.02746 28.9499 9.57909 29.6402 11.1188C29.9905 11.0847 30.3494 11.0476 30.7199 11.0061C31.5245 9.60134 32.2785 8.18025 32.9819 6.74433C33.157 6.74581 33.3307 6.74581 33.5058 6.74433C34.0963 7.95033 34.7244 9.14594 35.3872 10.3312C36.0225 10.217 36.681 10.0909 37.3598 9.94846C37.8562 8.79289 38.3222 7.63288 38.7535 6.46693C38.9286 6.44913 39.1037 6.43282 39.2774 6.41353C39.8331 7.30802 40.412 8.1936 41.0126 9.07029C41.9026 8.82849 42.8101 8.56 43.7276 8.26184C43.9968 7.36884 44.2472 6.47435 44.4816 5.57838C44.6538 5.54278 44.8275 5.50866 44.9997 5.47158C45.4759 6.0857 45.965 6.69241 46.4629 7.29318C47.5801 6.863 48.7003 6.38535 49.8132 5.85726C49.9218 5.2639 50.0245 4.67203 50.1186 4.08016C50.2865 4.02675 50.4558 3.97335 50.6237 3.91698C50.9551 4.26261 51.2894 4.60379 51.6281 4.94349C52.9798 4.22256 54.304 3.41708 55.579 2.52259C55.592 2.34014 55.6051 2.1562 55.6166 1.97374C55.8902 1.8521 56.1637 1.73343 56.4358 1.60586C56.3967 1.51834 56.3576 1.42934 56.3185 1.34033C44.4802 6.8452 31.2481 7.90434 18.8713 4.52369C18.8829 4.66758 18.8902 4.81147 18.8902 4.95684Z" fill="#00D280"/>
<path d="M34.4034 11.0776C30.9605 11.6368 27.9545 11.8682 25.8097 11.9602C23.6649 12.0507 22.3885 12.0017 22.3856 12.0032L22.3711 12.383C22.3755 12.3815 23.8328 12.4364 26.2309 12.3192L29.2455 16.848L31.5611 11.8638C31.852 11.8282 32.1457 11.7911 32.4453 11.7511L35.8318 15.9728L37.6858 10.8506C38.0707 10.769 38.46 10.6831 38.8522 10.5926L42.5629 14.4864L43.9957 9.17741C44.3517 9.0617 44.7077 8.94303 45.0638 8.81991L49.2419 12.2539L50.0422 6.79953C50.3925 6.63339 50.7413 6.4628 51.09 6.28776L55.7892 8.9905L55.714 3.57464C56.1756 3.26016 56.6315 2.93529 57.0801 2.59708L56.8631 2.2915C49.9091 7.52491 41.2865 9.95916 34.4034 11.0776Z" fill="#00D280"/>
<mask id="mask0_1_3313" style="mask-type:luminance" maskUnits="userSpaceOnUse" x="1" y="10" width="23" height="36">
<path d="M1.58008 10.2446H23.0686V45.6902H1.58008V10.2446Z" fill="white"/>
</mask>
<g mask="url(#mask0_1_3313)">
<path d="M8.65754 43.3427C8.65754 44.6377 9.67784 45.6879 10.9355 45.6879C12.1932 45.6879 13.2135 44.6377 13.2135 43.3427V26.2169H14.0673V43.3427C14.0673 44.6377 15.0876 45.6879 16.3438 45.6879C17.6029 45.6879 18.6218 44.6377 18.6218 43.3427V14.8927C18.7318 15.1241 18.8417 15.3882 18.9503 15.6967C19.4698 17.1786 19.9055 19.6099 19.904 23.4059C19.9055 24.4532 19.8722 25.6013 19.7998 26.8637C19.7535 27.7003 20.3729 28.4183 21.1863 28.4672C21.2152 28.4687 21.2442 28.4702 21.2731 28.4702C22.0474 28.4702 22.6972 27.8472 22.7435 27.0402C22.8173 25.7259 22.852 24.517 22.852 23.4059C22.8448 17.6815 21.9562 14.5115 20.7449 12.6053C20.1399 11.6604 19.4322 11.0537 18.7781 10.717C18.1485 10.3907 17.5957 10.3165 17.2628 10.3121C17.2411 10.3121 17.2194 10.3091 17.1977 10.3091H10.0816C10.0599 10.3091 10.0396 10.3106 10.0179 10.3121C9.72704 10.3165 9.26538 10.3714 8.72845 10.6087C8.3623 10.7659 7.973 11.0092 7.58948 11.3519C7.08729 11.7984 6.59378 12.414 6.17119 13.2298C5.41863 14.6732 4.83539 16.7262 4.57199 19.7582C4.57199 19.7627 4.57199 19.7671 4.57199 19.7701C4.53147 20.2359 4.49963 20.7269 4.47648 21.2416C4.44464 21.9195 4.42727 22.639 4.42727 23.4074C4.42727 24.517 4.462 25.7259 4.53726 27.0402C4.58212 27.8472 5.23193 28.4702 6.0062 28.4702C6.03515 28.4702 6.06409 28.4687 6.09449 28.4672C6.90638 28.4183 7.52725 27.6988 7.47949 26.8637C7.40713 25.6013 7.37529 24.4532 7.37529 23.4074C7.37529 22.553 7.397 21.7712 7.43607 21.0503C7.45633 20.6958 7.47949 20.3546 7.50843 20.0297V20.0267C7.52146 19.8651 7.53738 19.7093 7.55185 19.555C7.78485 17.2691 8.22626 15.8006 8.65754 14.8883V20.6646L7.79499 21.2654C7.78341 21.4983 7.77328 21.7341 7.76604 21.973L8.60544 21.3885L11.9109 26.4142L5.73412 30.7235L2.42864 25.6977L4.0727 24.5511C4.06691 24.3212 4.06401 24.0942 4.06257 23.8702L1.66016 25.545L5.58651 31.5141L7.55185 30.142L8.65754 29.3721V43.3427ZM12.9399 11.8622H14.3394L14.6896 13.2847L14.6361 13.3708C14.3481 13.6185 13.995 13.7431 13.6404 13.7431C13.2844 13.7431 12.9312 13.6185 12.6432 13.3722L12.5897 13.2847L12.9399 11.8622ZM12.898 14.1718C13.1367 14.2638 13.3886 14.3127 13.6389 14.3127H13.6404C13.8922 14.3127 14.1426 14.2638 14.3814 14.1718L15.3901 21.8216L13.6404 24.0987L11.8907 21.8216L12.898 14.1718Z" fill="#00D280"/>
</g>
<mask id="mask1_1_3313" style="mask-type:luminance" maskUnits="userSpaceOnUse" x="9" y="0" width="9" height="10">
<path d="M9.36035 0.689941H17.8817V9.48497H9.36035V0.689941Z" fill="white"/>
</mask>
<g mask="url(#mask1_1_3313)">
<path d="M17.7849 4.95914C17.7849 5.2395 17.7574 5.5169 17.7053 5.79133C17.6518 6.06575 17.5736 6.33276 17.4694 6.59236C17.3652 6.85047 17.2378 7.09671 17.0859 7.3296C16.9354 7.5625 16.7632 7.77907 16.5707 7.97636C16.3782 8.17514 16.1683 8.35166 15.9426 8.50742C15.7168 8.66317 15.4766 8.79519 15.2262 8.902C14.9744 9.0088 14.7153 9.09039 14.4476 9.14527C14.1813 9.20016 13.9121 9.22686 13.64 9.22686C13.3679 9.22686 13.0973 9.20016 12.831 9.14527C12.5633 9.09039 12.3042 9.0088 12.0538 8.902C11.802 8.79519 11.5632 8.66317 11.3375 8.50742C11.1103 8.35166 10.9004 8.17514 10.7079 7.97636C10.5169 7.77907 10.3446 7.5625 10.1927 7.3296C10.0422 7.09671 9.91482 6.85047 9.81062 6.59236C9.70642 6.33276 9.62682 6.06575 9.57472 5.79133C9.52117 5.5169 9.49512 5.2395 9.49512 4.95914C9.49512 4.67878 9.52117 4.40139 9.57472 4.12548C9.62682 3.85105 9.70642 3.58404 9.81062 3.32444C9.91482 3.06633 10.0422 2.82009 10.1927 2.5872C10.3446 2.35431 10.5169 2.13773 10.7079 1.94044C10.9004 1.74167 11.1103 1.56514 11.3375 1.40939C11.5632 1.25363 11.802 1.12161 12.0538 1.0148C12.3042 0.908 12.5633 0.826413 12.831 0.771528C13.0973 0.716642 13.3679 0.689941 13.64 0.689941C13.9121 0.689941 14.1813 0.716642 14.4476 0.771528C14.7153 0.826413 14.9744 0.908 15.2262 1.0148C15.4766 1.12161 15.7168 1.25363 15.9426 1.40939C16.1683 1.56514 16.3782 1.74167 16.5707 1.94044C16.7632 2.13773 16.9354 2.35431 17.0859 2.5872C17.2378 2.82009 17.3652 3.06633 17.4694 3.32444C17.5736 3.58404 17.6518 3.85105 17.7053 4.12548C17.7574 4.40139 17.7849 4.67878 17.7849 4.95914Z" fill="#00D280"/>
</g>
<path d="M7.89258 23.4276L8.19505 23.2095L10.2212 26.1986L9.91871 26.4151L7.89258 23.4276Z" fill="#00D280"/>
<path d="M7.78125 25.4028C7.78994 25.6357 7.79862 25.8701 7.80875 26.1074L8.62933 27.3178L8.9318 27.0998L7.78125 25.4028Z" fill="#00D280"/>
<path d="M41.0186 25.1919H49.2476V27.3413H41.0186V25.1919Z" fill="#00D280"/>
</g>
</g>
<defs>
<clipPath id="clip0_1_3313">
<rect width="57" height="45" fill="white" transform="translate(0.830078 0.689941)"/>
</clipPath>
<clipPath id="clip1_1_3313">
<rect width="57" height="45" fill="white" transform="translate(0.830078 0.689941)"/>
</clipPath>
</defs>
</svg>
