<svg width="66" height="65" viewBox="0 0 66 65" fill="none" xmlns="http://www.w3.org/2000/svg">
<rect x="0.5" width="65" height="65" rx="8" fill="#00D280" fill-opacity="0.2"/>
<g clip-path="url(#clip0_1_3031)">
<g clip-path="url(#clip1_1_3031)">
<g clip-path="url(#clip2_1_3031)">
<path d="M28.8343 35.7357C28.6943 35.7357 28.5544 35.7301 28.415 35.7183C28.276 35.7066 28.1376 35.6892 28.0002 35.6657C27.8628 35.6421 27.7273 35.613 27.5934 35.5778C27.459 35.5429 27.3277 35.5025 27.1983 35.4563C27.0689 35.4102 26.9421 35.3584 26.8188 35.3018C26.6955 35.2448 26.5751 35.1826 26.4589 35.1156C26.3421 35.0485 26.2298 34.9768 26.1216 34.9001C26.0133 34.8236 25.9097 34.7426 25.8105 34.6573C25.7114 34.5716 25.6177 34.4824 25.5287 34.3888C25.4395 34.2956 25.3565 34.1986 25.2785 34.098C25.2005 33.9975 25.1285 33.8939 25.0625 33.7873C24.9965 33.6811 24.9367 33.5719 24.8828 33.46C24.829 33.3486 24.7817 33.2346 24.7414 33.1193C24.7006 33.0035 24.6663 32.8864 24.6387 32.7676C24.6115 32.6492 24.5908 32.5296 24.5767 32.4095C24.5632 32.2893 24.5562 32.1684 24.5562 32.0478C24.5562 31.9268 24.5627 31.8062 24.5763 31.6857C24.5898 31.5656 24.6105 31.4459 24.6377 31.3271C24.6649 31.2087 24.6986 31.0917 24.7393 30.9759C24.7796 30.8601 24.8269 30.7466 24.8803 30.6347C24.9336 30.5228 24.9935 30.4136 25.0595 30.307C25.1254 30.2004 25.1969 30.0968 25.2749 29.9963C25.3524 29.8957 25.4355 29.7987 25.5246 29.7051C25.6132 29.6115 25.7068 29.5218 25.806 29.4365C25.9047 29.3509 26.0084 29.2698 26.1166 29.1928C26.2248 29.1163 26.3371 29.044 26.4533 28.977C26.5696 28.9099 26.6894 28.8477 26.8132 28.7907C26.9366 28.7337 27.0629 28.6819 27.1923 28.6353C27.3217 28.5892 27.4531 28.5483 27.5869 28.5135C27.7208 28.4782 27.8567 28.4486 27.9936 28.4252C28.1311 28.4016 28.2695 28.3838 28.4089 28.3716C28.5479 28.3598 28.6878 28.3538 28.8277 28.3538C28.9677 28.3538 29.1072 28.3598 29.2466 28.3716C29.386 28.3834 29.5244 28.4012 29.6614 28.4247C29.7987 28.4482 29.9346 28.4774 30.0685 28.5126C30.2025 28.5474 30.3343 28.5884 30.4632 28.6344C30.5926 28.6806 30.7194 28.7324 30.8427 28.7894C30.9661 28.8464 31.0858 28.9082 31.2026 28.9753C31.3189 29.0426 31.4311 29.1145 31.5394 29.1911C31.6476 29.2677 31.7513 29.3491 31.8505 29.4344C31.9492 29.5201 32.0433 29.6093 32.1319 29.7029C32.2209 29.7965 32.304 29.893 32.3821 29.9936C32.4595 30.0941 32.5315 30.1977 32.5975 30.3044C32.6635 30.411 32.7234 30.5203 32.7772 30.6321C32.8306 30.7439 32.8779 30.8575 32.9181 30.9733C32.9589 31.089 32.9932 31.2061 33.0203 31.3245C33.0475 31.4433 33.0681 31.5625 33.0817 31.683C33.0958 31.8032 33.1023 31.9238 33.1023 32.0447C33.1023 32.1658 33.0953 32.2858 33.0817 32.406C33.0677 32.5265 33.047 32.6457 33.0198 32.7641C32.9922 32.8826 32.9584 32.9996 32.9177 33.1149C32.8768 33.2307 32.83 33.3443 32.7762 33.4557C32.7228 33.5671 32.6629 33.6764 32.597 33.7825C32.531 33.8891 32.4595 33.9928 32.3821 34.0929C32.304 34.1934 32.2209 34.2904 32.1324 34.3835C32.0438 34.4771 31.9501 34.5663 31.851 34.6521C31.7524 34.7374 31.6492 34.8183 31.5409 34.895C31.4332 34.972 31.321 35.0438 31.2047 35.1108C31.0883 35.1782 30.9691 35.2401 30.8457 35.2975C30.7225 35.3545 30.5961 35.4058 30.4672 35.4525C30.3379 35.499 30.2065 35.5395 30.0731 35.5747C29.9392 35.61 29.8038 35.6395 29.6669 35.6635C29.5299 35.687 29.3915 35.7052 29.2526 35.717C29.1137 35.7292 28.9743 35.7353 28.8343 35.7357ZM28.8343 29.7016C28.7452 29.7016 28.6566 29.7051 28.568 29.7125C28.4799 29.7199 28.3918 29.7307 28.3047 29.746C28.2176 29.7608 28.1311 29.779 28.046 29.8012C27.9609 29.8234 27.8773 29.8491 27.7953 29.8782C27.7132 29.9079 27.6328 29.9405 27.5542 29.9766C27.4757 30.0123 27.3997 30.052 27.3257 30.0946C27.2517 30.1368 27.1802 30.1825 27.1113 30.2312C27.0428 30.2795 26.9768 30.3313 26.9139 30.3853C26.851 30.4397 26.7911 30.4963 26.7347 30.5555C26.6783 30.6146 26.625 30.6765 26.5757 30.74C26.5263 30.804 26.4805 30.8697 26.4388 30.9371C26.3964 31.005 26.3582 31.0742 26.3245 31.1451C26.2903 31.2161 26.2601 31.2884 26.2344 31.3615C26.2082 31.435 26.1865 31.5094 26.169 31.5847C26.1519 31.6601 26.1388 31.7357 26.1297 31.8124C26.1211 31.8885 26.1166 31.9651 26.1166 32.0422C26.1161 32.1187 26.1206 32.1954 26.1291 32.2719C26.1377 32.3481 26.1508 32.4238 26.1679 32.4996C26.185 32.5748 26.2067 32.6492 26.2323 32.7224C26.258 32.7959 26.2877 32.8681 26.3219 32.9391C26.3557 33.01 26.3934 33.0796 26.4352 33.1471C26.477 33.215 26.5228 33.2807 26.5721 33.3447C26.6215 33.4087 26.6743 33.47 26.7307 33.5297C26.7871 33.5888 26.8464 33.6459 26.9094 33.7002C26.9718 33.7547 27.0377 33.806 27.1062 33.8548C27.1752 33.9036 27.2461 33.9492 27.3202 33.9919C27.3942 34.0349 27.4702 34.0742 27.5487 34.1107C27.6267 34.1468 27.7073 34.1794 27.7893 34.209C27.8714 34.2386 27.9549 34.2643 28.04 34.2865C28.125 34.3091 28.2111 34.3278 28.2982 34.3426C28.3853 34.3579 28.4733 34.3692 28.5615 34.3766C28.6501 34.384 28.7386 34.3879 28.8277 34.3879C28.9163 34.3879 29.0055 34.3844 29.0935 34.377C29.1821 34.3692 29.2702 34.3583 29.3573 34.3431C29.4443 34.3283 29.5304 34.3095 29.6156 34.2874C29.7006 34.2652 29.7842 34.2395 29.8662 34.2099C29.9483 34.1808 30.0288 34.1481 30.1073 34.1119C30.1854 34.0754 30.2618 34.0363 30.3358 33.9936C30.4098 33.951 30.4808 33.9052 30.5498 33.8565C30.6183 33.8077 30.6841 33.7564 30.7471 33.702C30.81 33.648 30.8694 33.5911 30.9258 33.5319C30.9822 33.4727 31.035 33.4108 31.0849 33.3468C31.1342 33.2834 31.1795 33.2176 31.2218 33.1498C31.2636 33.0823 31.3013 33.0126 31.3355 32.9417C31.3697 32.8708 31.3995 32.7985 31.4252 32.7254C31.4513 32.6519 31.4725 32.5775 31.4901 32.5022C31.5072 32.4268 31.5203 32.3512 31.5294 32.2745C31.5379 32.198 31.5425 32.1213 31.5425 32.0447C31.5419 31.9682 31.5379 31.8915 31.5288 31.8154C31.5203 31.7392 31.5072 31.6635 31.4896 31.5882C31.4725 31.5133 31.4508 31.4389 31.4252 31.3658C31.3995 31.2923 31.3693 31.22 31.3355 31.1495C31.3013 31.0786 31.2636 31.0094 31.2218 30.9419C31.18 30.874 31.1342 30.8088 31.0854 30.7448C31.036 30.6812 30.9832 30.6195 30.9268 30.5603C30.8704 30.5011 30.8111 30.4445 30.7486 30.3901C30.6857 30.3357 30.6202 30.2843 30.5518 30.2356C30.4833 30.1868 30.4118 30.1412 30.3384 30.0985C30.2649 30.0559 30.1888 30.0167 30.1103 29.9801C30.0323 29.944 29.9523 29.9114 29.8702 29.8818C29.7886 29.8522 29.7051 29.8265 29.62 29.8039C29.5355 29.7816 29.4494 29.763 29.3623 29.7478C29.2757 29.7325 29.1882 29.7212 29.0996 29.7134C29.0114 29.7055 28.9229 29.7016 28.8343 29.7016Z" fill="#00D280"/>
<path d="M30.3004 40.7675H27.3662C27.3149 40.7675 27.2645 40.7631 27.2142 40.7544C27.1639 40.7457 27.1151 40.7331 27.0677 40.7161C27.0204 40.6992 26.9756 40.6782 26.9328 40.6539C26.8905 40.6291 26.8508 40.6012 26.8145 40.5699C26.7783 40.5386 26.7461 40.5046 26.7179 40.4681C26.6892 40.4311 26.665 40.3923 26.6454 40.3514C26.6257 40.3105 26.6112 40.2683 26.6011 40.2252C26.5911 40.1817 26.586 40.1377 26.586 40.0938V37.4421L26.0011 37.2341L23.8381 39.1089C23.7651 39.172 23.6805 39.2208 23.5849 39.2547C23.4892 39.289 23.3896 39.3061 23.2864 39.3061C23.1827 39.3061 23.0835 39.289 22.9879 39.2547C22.8928 39.2208 22.8082 39.172 22.7352 39.1089L20.6603 37.3168C20.624 37.2854 20.5913 37.2514 20.5631 37.2144C20.5344 37.1779 20.5108 37.1387 20.4912 37.0978C20.4715 37.0573 20.4569 37.0152 20.4469 36.9716C20.4368 36.9281 20.4318 36.8846 20.4318 36.8402C20.4318 36.7962 20.4368 36.7522 20.4469 36.7087C20.4569 36.6657 20.4715 36.6234 20.4912 36.5825C20.5108 36.5416 20.5344 36.5029 20.5631 36.4659C20.5913 36.4293 20.624 36.3954 20.6603 36.3641L22.8258 34.4874L22.5842 33.9818H19.5141C19.4633 33.9818 19.4124 33.9779 19.3621 33.9691C19.3118 33.9604 19.2629 33.9474 19.2156 33.9308C19.1683 33.9139 19.1235 33.8929 19.0807 33.8686C19.0384 33.8438 18.9987 33.8159 18.9624 33.7846C18.9262 33.7532 18.894 33.7193 18.8658 33.6823C18.8371 33.6458 18.8129 33.607 18.7933 33.5661C18.7737 33.5252 18.7591 33.483 18.749 33.4395C18.7389 33.3959 18.7339 33.3524 18.7339 33.308V30.7812C18.7339 30.7368 18.7389 30.6933 18.749 30.6498C18.7591 30.6062 18.7737 30.5641 18.7933 30.5236C18.8129 30.4827 18.8371 30.4435 18.8658 30.4069C18.894 30.3699 18.9262 30.336 18.9624 30.3047C18.9987 30.2733 19.0384 30.2455 19.0807 30.2211C19.1235 30.1963 19.1683 30.1754 19.2156 30.1589C19.2629 30.1419 19.3118 30.1288 19.3621 30.1201C19.4124 30.1119 19.4633 30.1075 19.5141 30.1075H22.5842L22.8258 29.6018L20.6553 27.727C20.619 27.6956 20.5868 27.6616 20.5581 27.6251C20.5299 27.5881 20.5058 27.5494 20.4861 27.5085C20.4665 27.4676 20.4519 27.4253 20.4418 27.3823C20.4318 27.3387 20.4267 27.2952 20.4267 27.2508C20.4267 27.2064 20.4318 27.1629 20.4418 27.1194C20.4519 27.0759 20.4665 27.0341 20.4861 26.9931C20.5058 26.9522 20.5299 26.9136 20.5581 26.8766C20.5868 26.84 20.619 26.8056 20.6553 26.7742L22.7302 24.9821C22.7664 24.9507 22.8061 24.9229 22.8485 24.8985C22.8913 24.8737 22.936 24.8529 22.9833 24.8363C23.0307 24.8193 23.0795 24.8062 23.1299 24.798C23.1797 24.7893 23.2305 24.7849 23.2818 24.7849C23.3332 24.7849 23.3835 24.7893 23.4339 24.798C23.4842 24.8062 23.5331 24.8193 23.5803 24.8363C23.6276 24.8529 23.6725 24.8737 23.7153 24.8985C23.7575 24.9229 23.7968 24.9507 23.833 24.9821L26.0041 26.857L26.589 26.6489V23.9959C26.589 23.9515 26.594 23.9075 26.6041 23.8645C26.6141 23.8209 26.6288 23.7787 26.6484 23.7378C26.6681 23.6969 26.6922 23.6582 26.7204 23.6212C26.7491 23.5846 26.7813 23.5507 26.8175 23.5194C26.8538 23.488 26.893 23.4602 26.9358 23.4353C26.9786 23.411 27.0234 23.3901 27.0708 23.3731C27.1181 23.3562 27.1668 23.3435 27.2172 23.3348C27.267 23.3261 27.3179 23.3218 27.3693 23.3218H30.3034C30.3548 23.3218 30.4056 23.3261 30.4559 23.3348C30.5058 23.3435 30.5546 23.3562 30.6019 23.3731C30.6492 23.3901 30.6945 23.411 30.7368 23.4353C30.7796 23.4602 30.8189 23.488 30.8551 23.5194C30.8913 23.5507 30.9235 23.5846 30.9522 23.6212C30.9805 23.6582 31.0046 23.6969 31.0242 23.7378C31.0438 23.7787 31.0584 23.8209 31.0685 23.8645C31.0786 23.9075 31.0836 23.9515 31.0836 23.9959V26.6471L31.6685 26.8552L33.8386 24.9803C33.9115 24.9172 33.9961 24.8685 34.0917 24.8346C34.1874 24.8002 34.2871 24.7832 34.3902 24.7832C34.494 24.7832 34.5936 24.8002 34.6893 24.8346C34.7849 24.8685 34.869 24.9172 34.9425 24.9803L37.0164 26.773C37.0526 26.8038 37.0854 26.8382 37.1135 26.8748C37.1417 26.9118 37.1658 26.9505 37.1855 26.9915C37.2052 27.0324 37.2197 27.0742 37.2298 27.1177C37.2398 27.1612 37.2449 27.2047 37.2449 27.249C37.2449 27.2934 37.2398 27.337 37.2298 27.3805C37.2197 27.424 37.2052 27.4658 37.1855 27.5067C37.1658 27.5476 37.1417 27.5864 37.1135 27.6234C37.0854 27.6599 37.0526 27.6943 37.0164 27.7252L34.8418 29.6018L35.0829 30.1075H38.1524C38.2038 30.1075 38.2547 30.1119 38.305 30.1201C38.3553 30.1288 38.4037 30.1419 38.4509 30.1589C38.4983 30.1754 38.5436 30.1963 38.5859 30.2211C38.6287 30.2455 38.668 30.2733 38.7041 30.3047C38.7404 30.336 38.7726 30.3699 38.8013 30.4069C38.8295 30.4435 38.8537 30.4827 38.8733 30.5236C38.8929 30.5641 38.908 30.6062 38.9176 30.6498C38.9277 30.6933 38.9327 30.7368 38.9327 30.7812V33.308C38.9327 33.3524 38.9277 33.3959 38.9176 33.4395C38.908 33.483 38.8929 33.5252 38.8733 33.5661C38.8537 33.607 38.8295 33.6458 38.8013 33.6823C38.7726 33.7193 38.7404 33.7532 38.7041 33.7846C38.668 33.8159 38.6287 33.8438 38.5859 33.8686C38.5436 33.8929 38.4983 33.9139 38.4509 33.9308C38.4037 33.9474 38.3553 33.9604 38.305 33.9691C38.2547 33.9779 38.2038 33.9818 38.1524 33.9818H35.0829L34.8418 34.4874L37.0118 36.3624C37.0481 36.3936 37.0803 36.4276 37.1084 36.4641C37.1371 36.5011 37.1613 36.5399 37.1805 36.5808C37.2001 36.6217 37.2152 36.6639 37.2253 36.707C37.2348 36.7505 37.2398 36.7945 37.2398 36.8384C37.2398 36.8828 37.2348 36.9268 37.2253 36.9699C37.2152 37.0134 37.2001 37.0556 37.1805 37.0965C37.1613 37.137 37.1371 37.1761 37.1084 37.2128C37.0803 37.2497 37.0481 37.2836 37.0118 37.315L34.9374 39.1071C34.9012 39.1385 34.8619 39.1663 34.8191 39.1912C34.7769 39.216 34.7315 39.2365 34.6843 39.2534C34.6369 39.2703 34.5881 39.2834 34.5377 39.2922C34.4874 39.3004 34.4366 39.3047 34.3858 39.3047C34.3343 39.3047 34.2835 39.3004 34.2332 39.2922C34.1829 39.2834 34.1341 39.2703 34.0867 39.2534C34.0394 39.2365 33.9946 39.216 33.9518 39.1912C33.909 39.1663 33.8698 39.1385 33.8335 39.1071L31.664 37.2323L31.0786 37.4403V40.092C31.0791 40.136 31.074 40.18 31.064 40.2235C31.0544 40.267 31.0398 40.3088 31.0202 40.3497C31.0005 40.3906 30.9769 40.4297 30.9482 40.4667C30.92 40.5033 30.8878 40.5377 30.8516 40.5691C30.8153 40.6003 30.7761 40.6282 30.7337 40.653C30.691 40.6774 30.6462 40.6983 30.5989 40.7152C30.5516 40.7327 30.5027 40.7453 30.4529 40.754C30.4025 40.7627 30.3517 40.7675 30.3004 40.7675ZM28.1465 39.4196H29.5207V36.9921C29.5207 36.9255 29.5317 36.8606 29.5538 36.7967C29.5765 36.7331 29.6093 36.6735 29.6521 36.6178C29.6948 36.5625 29.7462 36.5138 29.8055 36.4715C29.8654 36.4293 29.9309 36.3954 30.0023 36.3698L31.5477 35.8165C31.6192 35.7909 31.6932 35.7748 31.7702 35.7682C31.8467 35.7622 31.9233 35.7652 31.9988 35.7783C32.0743 35.7913 32.1462 35.8135 32.2142 35.8449C32.2821 35.8766 32.3435 35.9158 32.3984 35.9628L34.3858 37.6797L35.3608 36.8372L33.3734 35.1207C33.3191 35.0736 33.2738 35.0206 33.2371 34.9619C33.2008 34.903 33.1751 34.8413 33.1605 34.776C33.1454 34.7107 33.1414 34.645 33.1489 34.5789C33.1565 34.5123 33.1751 34.4487 33.2048 34.3869L33.8406 33.0556C33.8698 32.993 33.9086 32.9359 33.9579 32.8837C34.0067 32.8315 34.0636 32.7866 34.128 32.7492C34.1925 32.7114 34.2624 32.6831 34.3364 32.6634C34.4109 32.6439 34.4874 32.6343 34.5649 32.6343H37.3753V31.4549H34.5649C34.4879 31.4549 34.4124 31.4453 34.3384 31.4262C34.2644 31.4071 34.1955 31.3787 34.131 31.3417C34.0666 31.3047 34.0102 31.2604 33.9614 31.2086C33.912 31.1572 33.8728 31.1006 33.8436 31.0389L33.1998 29.6998C33.1701 29.6384 33.1519 29.5744 33.1445 29.5082C33.1369 29.4421 33.1404 29.376 33.1555 29.3106C33.1706 29.2454 33.1962 29.1836 33.2325 29.1248C33.2688 29.0661 33.3141 29.0134 33.3684 28.966L35.3557 27.2495L34.3807 26.4074L32.3934 28.1239C32.3385 28.1708 32.2776 28.2105 32.2097 28.2418C32.1412 28.2732 32.0697 28.2953 31.9937 28.3084C31.9182 28.3215 31.8417 28.3249 31.7652 28.3183C31.6882 28.3118 31.6142 28.2958 31.5432 28.2705L29.9974 27.7169C29.9259 27.6917 29.8604 27.6577 29.801 27.6155C29.7411 27.5733 29.6898 27.5241 29.647 27.4688C29.6042 27.4136 29.5715 27.354 29.5493 27.29C29.5267 27.2265 29.5156 27.1612 29.5156 27.0946V24.6696H28.1465V27.0972C28.1465 27.1637 28.1353 27.2291 28.1127 27.2926C28.0906 27.3565 28.0579 27.4162 28.0151 27.4715C27.9718 27.5268 27.921 27.5755 27.861 27.6177C27.8016 27.6604 27.7362 27.6939 27.6647 27.7196L26.1188 28.2727C26.0479 28.2984 25.9739 28.3145 25.8969 28.321C25.8199 28.3275 25.7439 28.324 25.6684 28.3109C25.5923 28.2979 25.5203 28.2757 25.4524 28.2444C25.3844 28.2126 25.323 28.1734 25.2686 28.1264L23.2814 26.4095L22.3063 27.2522L24.2936 28.9685C24.348 29.0156 24.3933 29.0686 24.4296 29.1275C24.4657 29.1862 24.4915 29.248 24.5066 29.3133C24.5216 29.3785 24.5252 29.4442 24.5176 29.5108C24.51 29.577 24.4919 29.6405 24.4623 29.7024L23.8265 31.0341C23.7968 31.0955 23.7575 31.152 23.7088 31.2034C23.6599 31.2552 23.6035 31.2996 23.5391 31.3366C23.4751 31.3736 23.4062 31.4014 23.3322 31.421C23.2582 31.4401 23.1827 31.4501 23.1057 31.4501H20.2943V32.6343H23.1057C23.1827 32.6343 23.2582 32.6439 23.3322 32.6634C23.4062 32.6826 23.4751 32.711 23.5391 32.7479C23.6035 32.7849 23.6599 32.8293 23.7088 32.8807C23.7575 32.9324 23.7968 32.9886 23.8265 33.0504L24.4663 34.3861C24.4955 34.4478 24.5141 34.5118 24.5216 34.578C24.5292 34.6441 24.5257 34.7098 24.5106 34.7751C24.4955 34.8404 24.4698 34.9022 24.4336 34.961C24.3973 35.0197 24.352 35.0728 24.2976 35.1198L22.3099 36.8363L23.2854 37.6788L25.2727 35.9623C25.3271 35.9149 25.3885 35.8758 25.4564 35.844C25.5243 35.8127 25.5964 35.7904 25.6719 35.7774C25.7479 35.7644 25.8239 35.7613 25.9009 35.7679C25.9774 35.7739 26.0514 35.7901 26.1229 35.8157L27.6687 36.3689C27.7397 36.3945 27.8052 36.4285 27.8651 36.4707C27.9244 36.5129 27.9758 36.5617 28.0186 36.6169C28.0619 36.6726 28.0941 36.7323 28.1167 36.7958C28.1389 36.8598 28.1505 36.9246 28.1505 36.9916L28.1465 39.4196Z" fill="#00D280"/>
<path d="M41.212 40.2542C41.1178 40.2542 41.0268 40.2403 40.9387 40.2121L35.1665 38.3507C35.1187 38.3354 35.0728 38.3158 35.0291 38.2927C34.9858 38.2693 34.945 38.2427 34.9078 38.2122C34.87 38.1822 34.8363 38.1491 34.8066 38.1135C34.7764 38.0773 34.7507 38.0395 34.7296 37.999C34.7084 37.9585 34.6918 37.9172 34.6797 37.8741C34.6682 37.831 34.6616 37.7871 34.6596 37.7431C34.6576 37.6987 34.6611 37.6547 34.6692 37.6108C34.6772 37.5673 34.6903 37.5246 34.7084 37.4832C34.7266 37.442 34.7487 37.4023 34.7759 37.3644C34.8025 37.327 34.8338 37.2918 34.8685 37.2596C34.9032 37.2269 34.942 37.1978 34.9833 37.1721C35.0251 37.146 35.0688 37.1238 35.1156 37.1055C35.1624 37.0872 35.2108 37.0729 35.2606 37.0629C35.3105 37.0524 35.3608 37.0468 35.4122 37.045C35.4635 37.0437 35.5143 37.0463 35.5647 37.0533C35.6155 37.0607 35.6648 37.072 35.7126 37.0872L41.2412 38.8681L46.3509 37.5664C46.4003 37.5542 46.4501 37.546 46.5009 37.5421C46.5522 37.5381 46.6031 37.5381 46.6539 37.5429C46.7053 37.5477 46.7551 37.5564 46.8039 37.5699C46.8528 37.583 46.8996 37.6004 46.9449 37.6212C46.9897 37.6425 47.032 37.6674 47.0712 37.6956C47.1105 37.724 47.1463 37.7553 47.1785 37.7897C47.2106 37.8241 47.2383 37.8611 47.2625 37.9002C47.2862 37.9394 47.3053 37.9803 47.3199 38.0225C47.334 38.0652 47.3435 38.1082 47.3486 38.1526C47.3531 38.1965 47.3526 38.2405 47.3471 38.2845C47.3416 38.3285 47.3315 38.3715 47.3159 38.4138C47.3007 38.4559 47.2807 38.4968 47.2564 38.5356C47.2318 38.5744 47.2031 38.6109 47.1704 38.6449C47.1377 38.6787 47.1009 38.7097 47.0612 38.7376C47.0214 38.7654 46.9786 38.7894 46.9333 38.8098C46.888 38.8307 46.8407 38.8472 46.7919 38.8594L41.4285 40.2251C41.3574 40.2433 41.2855 40.253 41.212 40.2542Z" fill="#00D280"/>
<path d="M35.5205 27.112C35.4279 27.112 35.3378 27.0981 35.2507 27.0703C35.1642 27.0429 35.0851 27.0033 35.0146 26.9515C34.9442 26.8997 34.8863 26.8388 34.8405 26.7691C34.7952 26.6994 34.765 26.625 34.7499 26.5459C34.7353 26.4671 34.7368 26.3883 34.7545 26.3095C34.772 26.2312 34.8047 26.1576 34.8526 26.0893C34.9009 26.0205 34.9608 25.9614 35.0333 25.9118C35.1058 25.8617 35.1859 25.8238 35.2739 25.7986L41.1151 24.1144C41.2796 24.0673 41.4437 24.0673 41.6083 24.1144L47.1611 25.7146C47.2119 25.7268 47.2607 25.7433 47.3075 25.7646C47.3543 25.7856 47.3982 25.8104 47.4394 25.8386C47.4807 25.8673 47.5179 25.8996 47.5512 25.9344C47.5849 25.9696 47.6141 26.0075 47.6387 26.048C47.6634 26.088 47.683 26.1303 47.6982 26.1738C47.7128 26.2177 47.7223 26.2621 47.7269 26.3078C47.7309 26.3531 47.7299 26.3984 47.7238 26.4436C47.7172 26.4888 47.7057 26.5332 47.6891 26.5764C47.6725 26.6199 47.6508 26.6612 47.6246 26.7003C47.598 26.74 47.5672 26.7765 47.532 26.8109C47.4973 26.8448 47.4585 26.8753 47.4163 26.9028C47.374 26.9301 47.3292 26.9532 47.2814 26.9728C47.2335 26.9924 47.1837 27.0072 47.1328 27.0181C47.0815 27.0285 47.0292 27.035 46.9768 27.0364C46.924 27.0381 46.8716 27.035 46.8193 27.0276C46.7674 27.0198 46.7166 27.008 46.6677 26.9915L41.3617 25.4644L35.7673 27.0755C35.6872 27.0995 35.6051 27.1112 35.5205 27.112Z" fill="#00D280"/>
<path d="M48.12 32.7188H38.1527C38.1018 32.7188 38.051 32.7144 38.0007 32.7062C37.9503 32.6974 37.9015 32.6844 37.8542 32.6678C37.8069 32.6509 37.7621 32.6299 37.7193 32.6052C37.677 32.5808 37.6372 32.5529 37.601 32.5217C37.5647 32.4903 37.5326 32.4563 37.5044 32.4193C37.4757 32.3828 37.4515 32.344 37.4318 32.3032C37.4128 32.2623 37.3976 32.22 37.3875 32.1765C37.3775 32.133 37.3729 32.0895 37.3729 32.0451C37.3729 32.0007 37.3775 31.9572 37.3875 31.9136C37.3976 31.8701 37.4128 31.8279 37.4318 31.7874C37.4515 31.7465 37.4757 31.7074 37.5044 31.6708C37.5326 31.6338 37.5647 31.5999 37.601 31.5685C37.6372 31.5372 37.677 31.5093 37.7193 31.485C37.7621 31.4601 37.8069 31.4397 37.8542 31.4228C37.9015 31.4057 37.9503 31.3927 38.0007 31.3844C38.051 31.3757 38.1018 31.3713 38.1527 31.3713H48.12C48.1713 31.3713 48.2221 31.3757 48.2725 31.3844C48.3223 31.3927 48.3712 31.4057 48.4185 31.4228C48.4657 31.4397 48.5111 31.4601 48.5534 31.485C48.5961 31.5093 48.6354 31.5372 48.6716 31.5685C48.7079 31.5999 48.7401 31.6338 48.7688 31.6708C48.797 31.7074 48.8212 31.7465 48.8408 31.7874C48.8604 31.8279 48.875 31.8701 48.8851 31.9136C48.8952 31.9572 48.9002 32.0007 48.9002 32.0451C48.9002 32.0895 48.8952 32.133 48.8851 32.1765C48.875 32.22 48.8604 32.2623 48.8408 32.3032C48.8212 32.344 48.797 32.3828 48.7688 32.4193C48.7401 32.4563 48.7079 32.4903 48.6716 32.5217C48.6354 32.5529 48.5961 32.5808 48.5534 32.6052C48.5111 32.6299 48.4657 32.6509 48.4185 32.6678C48.3712 32.6844 48.3223 32.6974 48.2725 32.7062C48.2221 32.7144 48.1713 32.7188 48.12 32.7188Z" fill="#00D280"/>
<path d="M48.8019 29.5914C48.7083 29.5914 48.6146 29.5875 48.521 29.5796C48.4274 29.5718 48.3348 29.5596 48.2426 29.5439C48.1505 29.5283 48.0594 29.5082 47.9699 29.4847C47.8797 29.4613 47.7916 29.4342 47.705 29.4029C47.618 29.372 47.5334 29.3372 47.4503 29.2989C47.3678 29.2611 47.2872 29.2193 47.2092 29.174C47.1312 29.1292 47.0556 29.0808 46.9832 29.0295C46.9107 28.9782 46.8413 28.9237 46.7748 28.8663C46.7084 28.8088 46.6455 28.7488 46.586 28.6861C46.5261 28.6234 46.4702 28.5582 46.4184 28.4912C46.366 28.4237 46.3177 28.3541 46.2734 28.2827C46.2291 28.2108 46.1894 28.1378 46.1531 28.0629C46.1174 27.988 46.0857 27.9115 46.0585 27.834C46.0314 27.7565 46.0087 27.6778 45.9901 27.5981C45.9719 27.5189 45.9578 27.4388 45.9487 27.3579C45.9397 27.2774 45.9352 27.1964 45.9352 27.1151C45.9352 27.0341 45.9397 26.9531 45.9487 26.8726C45.9578 26.7917 45.9719 26.7116 45.9901 26.632C46.0087 26.5523 46.0314 26.474 46.0585 26.3965C46.0857 26.3186 46.1174 26.2424 46.1531 26.1676C46.1894 26.0927 46.2291 26.0192 46.2734 25.9478C46.3177 25.8764 46.366 25.8068 46.4184 25.7393C46.4702 25.6719 46.5261 25.6071 46.586 25.5443C46.6455 25.4817 46.7084 25.4216 46.7748 25.3642C46.8413 25.3067 46.9107 25.2523 46.9832 25.201C47.0556 25.1497 47.1312 25.1013 47.2092 25.0561C47.2872 25.0112 47.3678 24.9694 47.4503 24.9312C47.5334 24.8929 47.618 24.8585 47.705 24.8272C47.7916 24.7963 47.8797 24.7688 47.9699 24.7454C48.0594 24.7218 48.1505 24.7022 48.2426 24.6865C48.3348 24.6705 48.4274 24.6587 48.521 24.6509C48.6146 24.6426 48.7083 24.6387 48.8019 24.6387C48.896 24.6387 48.9897 24.6426 49.0833 24.6509C49.1764 24.6587 49.269 24.6705 49.3611 24.6865C49.4532 24.7022 49.5443 24.7218 49.6345 24.7454C49.724 24.7688 49.8126 24.7963 49.8993 24.8272C49.9858 24.8585 50.0709 24.8929 50.1535 24.9312C50.2365 24.9694 50.3166 25.0112 50.3951 25.0561C50.4731 25.1013 50.548 25.1497 50.621 25.201C50.6936 25.2523 50.763 25.3067 50.8294 25.3642C50.8959 25.4216 50.9588 25.4817 51.0182 25.5443C51.0777 25.6071 51.1335 25.6719 51.1859 25.7393C51.2382 25.8068 51.286 25.8764 51.3303 25.9478C51.3746 26.0192 51.4149 26.0927 51.4507 26.1676C51.4869 26.2424 51.518 26.3186 51.5458 26.3965C51.5729 26.474 51.5956 26.5523 51.6137 26.632C51.6323 26.7116 51.6459 26.7917 51.6549 26.8726C51.6646 26.9531 51.6691 27.0341 51.6691 27.1151C51.6691 27.1964 51.664 27.2769 51.6549 27.3579C51.6454 27.4383 51.6319 27.5185 51.6132 27.5981C51.5951 27.6778 51.5724 27.7561 51.5448 27.8336C51.5176 27.9115 51.4859 27.9877 51.4501 28.0624C51.4138 28.1373 51.3741 28.2105 51.3298 28.2818C51.2855 28.3536 51.2372 28.4228 51.1849 28.4903C51.133 28.5577 51.0771 28.6226 51.0172 28.6853C50.9579 28.7479 50.8949 28.808 50.8284 28.8654C50.762 28.9229 50.6925 28.9773 50.6201 29.0286C50.5476 29.08 50.4721 29.1283 50.394 29.1735C50.316 29.2184 50.2355 29.2602 50.1529 29.2985C50.0704 29.3367 49.9853 29.3711 49.8987 29.4025C49.8122 29.4334 49.7236 29.4608 49.6339 29.4843C49.5443 29.5078 49.4532 29.5278 49.3611 29.5435C49.269 29.5596 49.1764 29.5713 49.0827 29.5792C48.9897 29.5875 48.896 29.5914 48.8019 29.5914ZM48.8019 25.9865C48.7163 25.9865 48.6312 25.9939 48.5471 26.0083C48.4631 26.0227 48.3811 26.044 48.302 26.0722C48.2225 26.101 48.1475 26.1354 48.076 26.1767C48.0045 26.2181 47.9386 26.2646 47.8782 26.3173C47.8173 26.3695 47.7634 26.4265 47.7156 26.4883C47.6678 26.5497 47.6275 26.615 47.5948 26.6833C47.5621 26.7516 47.5369 26.8221 47.5203 26.8948C47.5037 26.9675 47.4951 27.041 47.4951 27.1151C47.4951 27.1894 47.5037 27.2626 47.5203 27.3352C47.5369 27.408 47.5621 27.4785 47.5948 27.5472C47.6275 27.6155 47.6678 27.6808 47.7156 27.7422C47.7634 27.804 47.8173 27.861 47.8782 27.9132C47.9386 27.9658 48.0045 28.0124 48.076 28.0538C48.1475 28.0947 48.2225 28.1295 48.302 28.1578C48.3811 28.1861 48.4631 28.2078 48.5471 28.2222C48.6312 28.2366 48.7163 28.244 48.8019 28.244C48.888 28.244 48.973 28.2366 49.0571 28.2222C49.1411 28.2078 49.2227 28.1861 49.3023 28.1578C49.3812 28.1295 49.4567 28.0947 49.5282 28.0538C49.5992 28.0124 49.6652 27.9658 49.7261 27.9132C49.7865 27.861 49.8409 27.804 49.8887 27.7422C49.936 27.6808 49.9763 27.6155 50.0095 27.5472C50.0422 27.4785 50.0668 27.408 50.0835 27.3352C50.1006 27.2626 50.1086 27.1894 50.1086 27.1151C50.1086 27.041 50.1001 26.9675 50.0835 26.8953C50.0668 26.8225 50.0417 26.7516 50.009 26.6833C49.9763 26.615 49.936 26.5502 49.8881 26.4883C49.8403 26.4265 49.7865 26.3695 49.7255 26.3173C49.6652 26.265 49.5992 26.2181 49.5278 26.1772C49.4563 26.1358 49.3812 26.101 49.3017 26.0727C49.2227 26.0444 49.1411 26.0227 49.0571 26.0083C48.9726 25.9939 48.888 25.9865 48.8019 25.9865Z" fill="#00D280"/>
<mask id="mask0_1_3031" style="mask-type:luminance" maskUnits="userSpaceOnUse" x="47" y="29" width="7" height="6">
<path d="M47.2164 29.7341H53.054V34.8591H47.2164V29.7341Z" fill="white"/>
</mask>
<g mask="url(#mask0_1_3031)">
<path d="M50.1933 34.753C50.0992 34.753 50.0056 34.7491 49.9124 34.7412C49.8188 34.7334 49.7262 34.7212 49.6341 34.7056C49.5419 34.6899 49.4508 34.6698 49.3613 34.6464C49.2711 34.6229 49.183 34.5959 49.0959 34.5646C49.0094 34.5337 48.9243 34.4988 48.8417 34.4606C48.7586 34.4227 48.6786 34.3809 48.6006 34.3356C48.5221 34.2908 48.4471 34.2425 48.3746 34.1911C48.3016 34.1398 48.2322 34.0854 48.1657 34.0279C48.0998 33.9705 48.0363 33.9105 47.977 33.8478C47.9175 33.785 47.8616 33.7198 47.8093 33.6523C47.7574 33.5853 47.7091 33.5157 47.6648 33.4443C47.6205 33.3726 47.5802 33.2994 47.5445 33.2245C47.5083 33.1497 47.4771 33.0731 47.4499 32.9956C47.4222 32.9182 47.3996 32.8394 47.3815 32.7598C47.3629 32.6805 47.3492 32.6001 47.3402 32.5195C47.3306 32.439 47.326 32.3581 47.326 32.2767C47.326 32.1957 47.3306 32.1147 47.3402 32.0343C47.3492 31.9533 47.3629 31.8732 47.3815 31.7936C47.3996 31.7139 47.4222 31.6356 47.4499 31.5581C47.4771 31.4802 47.5083 31.4041 47.5445 31.3292C47.5802 31.2544 47.6205 31.1808 47.6648 31.1094C47.7091 31.038 47.7574 30.9684 47.8093 30.901C47.8616 30.8335 47.9175 30.7687 47.977 30.706C48.0363 30.6433 48.0998 30.5833 48.1657 30.5258C48.2322 30.4684 48.3016 30.414 48.3746 30.3626C48.4471 30.3113 48.5221 30.263 48.6006 30.2177C48.6786 30.1729 48.7586 30.1311 48.8417 30.0928C48.9243 30.0545 49.0094 30.0201 49.0959 29.9888C49.183 29.9579 49.2711 29.9304 49.3613 29.907C49.4508 29.8835 49.5419 29.8638 49.6341 29.8482C49.7262 29.8321 49.8188 29.8203 49.9124 29.8125C50.0056 29.8042 50.0992 29.8003 50.1933 29.8003C50.287 29.8003 50.3806 29.8042 50.4741 29.8125C50.5678 29.8203 50.6604 29.8321 50.7526 29.8482C50.8447 29.8638 50.9357 29.8835 51.0254 29.907C51.1154 29.9304 51.2036 29.9579 51.2901 29.9888C51.3772 30.0201 51.4618 30.0545 51.5449 30.0928C51.6274 30.1311 51.708 30.1729 51.786 30.2177C51.8639 30.263 51.9395 30.3113 52.012 30.3626C52.0845 30.414 52.1539 30.4684 52.2204 30.5258C52.2868 30.5833 52.3497 30.6433 52.4096 30.706C52.4691 30.7687 52.5249 30.8335 52.5773 30.901C52.6291 30.9684 52.6774 31.038 52.7217 31.1094C52.766 31.1808 52.8058 31.2544 52.8421 31.3292C52.8778 31.4041 52.9094 31.4802 52.9366 31.5581C52.9638 31.6356 52.987 31.7139 53.0052 31.7936C53.0233 31.8732 53.0373 31.9533 53.0464 32.0343C53.0554 32.1147 53.06 32.1957 53.06 32.2767C53.06 32.3581 53.0554 32.4386 53.0459 32.5195C53.0368 32.6001 53.0227 32.6801 53.0046 32.7598C52.986 32.8394 52.9634 32.9177 52.9357 32.9952C52.9085 33.0726 52.8767 33.1493 52.841 33.2241C52.8048 33.2989 52.7651 33.3721 52.7208 33.4434C52.6765 33.5148 52.6281 33.5845 52.5757 33.6519C52.5239 33.7194 52.4681 33.7842 52.4081 33.8469C52.3487 33.9096 52.2858 33.9696 52.2194 34.0266C52.1529 34.0841 52.0835 34.1384 52.011 34.1899C51.9385 34.2417 51.863 34.2895 51.785 34.3347C51.7069 34.38 51.6269 34.4213 51.5439 34.4597C51.4613 34.498 51.3762 34.5328 51.2897 34.5637C51.203 34.595 51.115 34.622 51.0249 34.646C50.9353 34.6694 50.8441 34.689 50.752 34.7051C50.6604 34.7208 50.5673 34.733 50.4741 34.7408C50.3806 34.7491 50.287 34.753 50.1933 34.753ZM50.1933 31.1482C50.1072 31.1482 50.0227 31.1556 49.9381 31.17C49.8541 31.1843 49.7725 31.2056 49.6929 31.2339C49.6139 31.2622 49.5384 31.297 49.4674 31.3383C49.3959 31.3797 49.33 31.4263 49.2691 31.4785C49.2087 31.5311 49.1543 31.5882 49.1065 31.6496C49.0592 31.7113 49.0189 31.7766 48.9857 31.8449C48.9529 31.9133 48.9283 31.9838 48.9117 32.0565C48.8951 32.1291 48.8865 32.2027 48.8865 32.2767C48.8865 32.3511 48.8951 32.4242 48.9117 32.4968C48.9283 32.5696 48.9529 32.6401 48.9857 32.7088C49.0189 32.7772 49.0592 32.8424 49.1065 32.9038C49.1543 32.9656 49.2087 33.0226 49.2691 33.0749C49.33 33.1275 49.3959 33.1741 49.4674 33.2154C49.5384 33.2563 49.6139 33.2911 49.6929 33.3194C49.7725 33.3477 49.8541 33.3694 49.9381 33.3839C50.0227 33.3982 50.1072 33.4056 50.1933 33.4056C50.2789 33.4056 50.364 33.3982 50.448 33.3839C50.5321 33.3694 50.6141 33.3477 50.6931 33.3194C50.7726 33.2911 50.8477 33.2563 50.9192 33.2154C50.9906 33.1741 51.0566 33.1275 51.1169 33.0749C51.1779 33.0226 51.2323 32.9656 51.2796 32.9038C51.3274 32.8424 51.3677 32.7772 51.4004 32.7088C51.4331 32.6401 51.4582 32.5696 51.4749 32.4968C51.4915 32.4242 51.5 32.3511 51.5 32.2767C51.5 32.2027 51.4915 32.1295 51.4744 32.0569C51.4578 31.9842 51.4326 31.9137 51.3998 31.8449C51.3671 31.7766 51.3268 31.7118 51.2791 31.6499C51.2312 31.5886 51.1774 31.5316 51.1165 31.4793C51.0561 31.4267 50.9901 31.3801 50.9186 31.3388C50.8477 31.2979 50.7722 31.2631 50.6931 31.2343C50.6136 31.2061 50.5321 31.1848 50.448 31.17C50.364 31.1556 50.2789 31.1482 50.1933 31.1482Z" fill="#00D280"/>
</g>
<path d="M48.457 39.9145C48.3628 39.9145 48.2692 39.9106 48.1756 39.9028C48.0824 39.8949 47.9893 39.8828 47.8972 39.8671C47.8051 39.8514 47.7144 39.8314 47.6244 39.8079C47.5347 39.7844 47.4461 39.757 47.3596 39.7261C47.273 39.6952 47.1879 39.6603 47.1054 39.6221C47.0223 39.5842 46.9417 39.5424 46.8638 39.4971C46.7858 39.4523 46.7107 39.404 46.6377 39.3527C46.5653 39.3013 46.4958 39.247 46.4293 39.1895C46.3629 39.1321 46.3 39.072 46.2406 39.0093C46.1807 38.9467 46.1253 38.8813 46.073 38.8139C46.0206 38.7468 45.9723 38.6772 45.9285 38.6058C45.8842 38.5341 45.8439 38.4609 45.8082 38.3861C45.7719 38.3113 45.7403 38.2346 45.7131 38.1572C45.6859 38.0797 45.6633 38.0009 45.6446 37.9213C45.6264 37.8421 45.6129 37.7616 45.6033 37.681C45.5943 37.6005 45.5897 37.5196 45.5897 37.4382C45.5897 37.3573 45.5943 37.2763 45.6033 37.1958C45.6129 37.1149 45.6264 37.0347 45.6446 36.9551C45.6633 36.8755 45.6859 36.7971 45.7131 36.7197C45.7403 36.6418 45.7719 36.5656 45.8082 36.4908C45.8439 36.4159 45.8842 36.3424 45.9285 36.271C45.9723 36.1996 46.0206 36.13 46.073 36.0625C46.1253 35.995 46.1807 35.9302 46.2406 35.8676C46.3 35.8049 46.3629 35.7448 46.4293 35.6873C46.4958 35.6299 46.5653 35.5755 46.6377 35.5241C46.7107 35.4728 46.7858 35.4245 46.8638 35.3792C46.9417 35.3344 47.0223 35.2927 47.1054 35.2544C47.1879 35.216 47.273 35.1816 47.3596 35.1503C47.4461 35.1194 47.5347 35.092 47.6244 35.0685C47.7144 35.045 47.8051 35.0255 47.8972 35.0098C47.9893 34.9936 48.0824 34.9819 48.1756 34.974C48.2692 34.9658 48.3628 34.9619 48.457 34.9619C48.5505 34.9619 48.6442 34.9658 48.7378 34.974C48.831 34.9819 48.9241 34.9936 49.0162 35.0098C49.1083 35.0255 49.1989 35.045 49.289 35.0685C49.3786 35.092 49.4672 35.1194 49.5538 35.1503C49.6409 35.1816 49.7255 35.216 49.808 35.2544C49.8911 35.2927 49.9716 35.3344 50.0496 35.3792C50.1276 35.4245 50.2031 35.4728 50.2756 35.5241C50.3481 35.5755 50.4176 35.6299 50.4841 35.6873C50.5505 35.7448 50.6134 35.8049 50.6727 35.8676C50.7326 35.9302 50.7885 35.995 50.8404 36.0625C50.8927 36.13 50.9411 36.1996 50.9853 36.271C51.0296 36.3424 51.0695 36.4159 51.1056 36.4908C51.1414 36.5656 51.1731 36.6418 51.2003 36.7197C51.2275 36.7971 51.2501 36.8755 51.2688 36.9551C51.2869 37.0347 51.3005 37.1149 51.31 37.1958C51.3191 37.2763 51.3237 37.3573 51.3237 37.4382C51.3237 37.5196 51.3191 37.6001 51.3096 37.681C51.3005 37.7616 51.2864 37.8416 51.2678 37.9213C51.2496 38.0005 51.2265 38.0793 51.1993 38.1567C51.1721 38.2342 51.1404 38.3108 51.1047 38.3857C51.0684 38.4606 51.0282 38.5336 50.9839 38.605C50.9396 38.6763 50.8917 38.746 50.8394 38.8135C50.787 38.8809 50.7311 38.9458 50.6718 39.0084C50.6124 39.0711 50.5495 39.1312 50.483 39.1882C50.4166 39.2456 50.3471 39.3 50.2746 39.3514C50.2021 39.4032 50.1266 39.4511 50.0486 39.4963C49.9706 39.5415 49.89 39.5829 49.8075 39.6212C49.7249 39.6595 49.6398 39.6943 49.5533 39.7252C49.4667 39.7566 49.3781 39.7835 49.2885 39.8075C49.1989 39.831 49.1078 39.8505 49.0156 39.8667C48.9236 39.8824 48.831 39.8945 48.7378 39.9023C48.6442 39.9106 48.5505 39.9145 48.457 39.9145ZM48.457 36.3097C48.3709 36.3097 48.2857 36.3171 48.2017 36.3315C48.1176 36.3458 48.0361 36.3671 47.9566 36.3955C47.8775 36.4237 47.802 36.4586 47.7305 36.4999C47.6596 36.5412 47.5931 36.5878 47.5328 36.6401C47.4718 36.6927 47.418 36.7497 47.3702 36.8111C47.3223 36.8729 47.282 36.9381 47.2493 37.0065C47.2166 37.0748 47.1919 37.1453 47.1748 37.218C47.1582 37.2907 47.1502 37.3642 47.1502 37.4382C47.1502 37.5127 47.1582 37.5857 47.1748 37.6585C47.1919 37.7311 47.2166 37.8016 47.2493 37.8703C47.282 37.9387 47.3223 38.0039 47.3702 38.0653C47.418 38.1271 47.4718 38.1842 47.5328 38.2364C47.5931 38.2891 47.6596 38.3356 47.7305 38.3769C47.802 38.4179 47.8775 38.4527 47.9566 38.481C48.0361 38.5092 48.1176 38.5311 48.2017 38.5454C48.2857 38.5598 48.3709 38.5672 48.457 38.5672C48.5425 38.5672 48.6276 38.5598 48.7116 38.5454C48.7957 38.5311 48.8777 38.5092 48.9568 38.481C49.0358 38.4527 49.1114 38.4179 49.1827 38.3769C49.2542 38.3356 49.3202 38.2891 49.3806 38.2364C49.4415 38.1842 49.4954 38.1271 49.5432 38.0653C49.5911 38.0039 49.6313 37.9387 49.6641 37.8703C49.6968 37.8016 49.7214 37.7311 49.7385 37.6585C49.7551 37.5857 49.7637 37.5127 49.7637 37.4382C49.7632 37.3642 49.7546 37.2911 49.738 37.2184C49.7214 37.1458 49.6962 37.0753 49.6635 37.0065C49.6308 36.9381 49.5905 36.8733 49.5427 36.8115C49.4949 36.7501 49.441 36.6931 49.3801 36.641C49.3197 36.5883 49.2533 36.5417 49.1823 36.5003C49.1108 36.4594 49.0358 36.4246 48.9563 36.3958C48.8772 36.3676 48.7957 36.3463 48.7116 36.3315C48.6276 36.3171 48.5425 36.3097 48.457 36.3097Z" fill="#00D280"/>
<mask id="mask1_1_3031" style="mask-type:luminance" maskUnits="userSpaceOnUse" x="12" y="11" width="32" height="42">
<path d="M12.9457 11.9907H43.3508V52.0994H12.9457V11.9907Z" fill="white"/>
</mask>
<g mask="url(#mask1_1_3031)">
<path d="M42.4643 52.0916H13.7298C13.679 52.0916 13.6281 52.0872 13.5778 52.0785C13.5274 52.0698 13.4786 52.0571 13.4313 52.0402C13.384 52.0233 13.3392 52.0028 13.2964 51.978C13.2541 51.9536 13.2143 51.9253 13.1781 51.8944C13.1424 51.8631 13.1096 51.8287 13.0815 51.7922C13.0528 51.7552 13.0286 51.7164 13.0095 51.6755C12.9898 51.6346 12.9747 51.5924 12.9647 51.5493C12.9546 51.5058 12.9501 51.4618 12.9501 51.4179V12.6722C12.9501 12.6283 12.9546 12.5843 12.9647 12.5408C12.9747 12.4977 12.9898 12.4555 13.0095 12.4146C13.0286 12.3737 13.0528 12.3349 13.0815 12.298C13.1096 12.2614 13.1424 12.2275 13.1781 12.1961C13.2143 12.1648 13.2541 12.1369 13.2964 12.1121C13.3392 12.0878 13.384 12.0669 13.4313 12.0499C13.4786 12.0329 13.5274 12.0203 13.5778 12.0116C13.6281 12.0029 13.679 11.9985 13.7298 11.9985H42.4643C42.5156 11.9985 42.5664 12.0029 42.6163 12.0116C42.6666 12.0203 42.7155 12.0329 42.7628 12.0499C42.8101 12.0669 42.8549 12.0878 42.8976 12.1121C42.9404 12.1369 42.9797 12.1648 43.016 12.1961C43.0522 12.2275 43.0845 12.2614 43.1132 12.298C43.1413 12.3349 43.1655 12.3737 43.1851 12.4146C43.2047 12.4555 43.2193 12.4977 43.2294 12.5408C43.2395 12.5843 43.2445 12.6283 43.2445 12.6722C43.2445 27.8034 43.2445 36.2868 43.2445 51.4179C43.2445 51.4618 43.2395 51.5058 43.2294 51.5493C43.2193 51.5924 43.2047 51.6346 43.1851 51.6755C43.1655 51.7164 43.1413 51.7552 43.1132 51.7922C43.0845 51.8287 43.0522 51.8631 43.016 51.8944C42.9797 51.9253 42.9404 51.9536 42.8976 51.978C42.8549 52.0028 42.8101 52.0233 42.7628 52.0402C42.7155 52.0571 42.6666 52.0698 42.6163 52.0785C42.5664 52.0872 42.5156 52.0916 42.4643 52.0916ZM14.51 50.7437H41.684V13.3464H14.51V50.7437Z" fill="#00D280"/>
</g>
<mask id="mask2_1_3031" style="mask-type:luminance" maskUnits="userSpaceOnUse" x="12" y="17" width="32" height="2">
<path d="M12.9457 17.2559H43.3508V18.7042H12.9457V17.2559Z" fill="white"/>
</mask>
<g mask="url(#mask2_1_3031)">
<path d="M42.4638 18.6328H13.7303C13.6795 18.6328 13.6286 18.6285 13.5783 18.6197C13.5279 18.6115 13.4791 18.5984 13.4318 18.5814C13.3845 18.5645 13.3397 18.544 13.2969 18.5192C13.2546 18.4948 13.2148 18.467 13.1786 18.4357C13.1424 18.4043 13.1101 18.3704 13.082 18.3334C13.0533 18.2968 13.0291 18.2577 13.0095 18.2167C12.9903 18.1758 12.9752 18.1341 12.9652 18.0905C12.9551 18.047 12.9501 18.0035 12.9501 17.9591C12.9501 17.9147 12.9551 17.8712 12.9652 17.8277C12.9752 17.7841 12.9903 17.7419 13.0095 17.701C13.0291 17.6601 13.0533 17.6214 13.082 17.5848C13.1101 17.5478 13.1424 17.5139 13.1786 17.4825C13.2148 17.4512 13.2546 17.4234 13.2969 17.3986C13.3397 17.3742 13.3845 17.3533 13.4318 17.3363C13.4791 17.3198 13.5279 17.3067 13.5783 17.298C13.6286 17.2893 13.6795 17.2854 13.7303 17.2854H42.4638C42.5151 17.2854 42.566 17.2893 42.6158 17.298C42.6662 17.3067 42.7149 17.3198 42.7623 17.3363C42.8096 17.3533 42.8544 17.3742 42.8972 17.399C42.94 17.4234 42.9792 17.4512 43.0155 17.4825C43.0518 17.5139 43.0839 17.5478 43.1126 17.5848C43.1408 17.6214 43.165 17.6601 43.1846 17.701C43.2043 17.7419 43.2189 17.7841 43.2289 17.8277C43.239 17.8712 43.244 17.9147 43.244 17.9591C43.244 18.0035 43.239 18.047 43.2289 18.0905C43.2189 18.1341 43.2043 18.1758 43.1846 18.2167C43.165 18.2577 43.1408 18.2968 43.1126 18.3334C43.0839 18.3704 43.0518 18.4043 43.0155 18.4357C42.9792 18.467 42.94 18.4948 42.8972 18.5192C42.8544 18.544 42.8096 18.5645 42.7623 18.5814C42.7149 18.5984 42.6662 18.6115 42.6158 18.6197C42.566 18.6285 42.5151 18.6328 42.4638 18.6328Z" fill="#00D280"/>
</g>
<mask id="mask3_1_3031" style="mask-type:luminance" maskUnits="userSpaceOnUse" x="12" y="45" width="32" height="2">
<path d="M12.9457 45.3328H43.3508V46.8925H12.9457V45.3328Z" fill="white"/>
</mask>
<g mask="url(#mask3_1_3031)">
<path d="M13.7293 46.8048C13.6785 46.8048 13.6276 46.8005 13.5773 46.7922C13.527 46.7839 13.4781 46.7713 13.4308 46.7543C13.3835 46.7378 13.3387 46.7169 13.2959 46.6925C13.2531 46.6681 13.2139 46.6403 13.1776 46.6094C13.1409 46.5781 13.1087 46.5441 13.08 46.5076C13.0513 46.471 13.0271 46.4323 13.0075 46.3914C12.9873 46.3509 12.9722 46.3087 12.9622 46.2656C12.9521 46.2221 12.9466 46.1785 12.9466 46.1341C12.9461 46.0897 12.9511 46.0463 12.9607 46.0028C12.9702 45.9592 12.9848 45.917 13.0045 45.8761C13.0236 45.8352 13.0472 45.7964 13.0754 45.7594C13.1036 45.7224 13.1358 45.6885 13.1721 45.6572C13.2078 45.6254 13.2471 45.5976 13.2894 45.5727C13.3316 45.5479 13.3764 45.5271 13.4238 45.5096C13.4711 45.4927 13.5194 45.4796 13.5697 45.4709C13.6201 45.4617 13.6704 45.4574 13.7218 45.457C13.7927 45.457 20.9165 45.3939 27.9828 45.3616C32.1346 45.3443 35.4554 45.339 37.8524 45.3491C42.6832 45.3695 42.7205 45.4013 43.0089 45.648C43.083 45.712 43.1403 45.786 43.1806 45.8695C43.2214 45.9531 43.2415 46.0402 43.242 46.1307C43.242 46.175 43.237 46.219 43.2269 46.2621C43.2169 46.3056 43.2022 46.3479 43.1826 46.3888C43.163 46.4297 43.1389 46.4684 43.1106 46.5049C43.0819 46.5419 43.0497 46.5759 43.0135 46.6072C42.9773 46.6385 42.938 46.6664 42.8952 46.6912C42.8529 46.7156 42.8076 46.7365 42.7603 46.7534C42.713 46.7704 42.6642 46.783 42.6138 46.7917C42.564 46.8005 42.5132 46.8048 42.4618 46.8048C42.3757 46.8048 42.2917 46.7926 42.2101 46.7682C40.7045 46.6233 24.4552 46.7095 13.7353 46.8048H13.7293ZM41.6816 46.1307C41.6805 46.2647 41.7228 46.3874 41.8084 46.4989C41.7248 46.387 41.6831 46.2643 41.6835 46.1307H41.6816Z" fill="#00D280"/>
</g>
<path d="M29.2693 15.9719H22.668C22.6172 15.9719 22.5663 15.9676 22.5161 15.9593C22.4657 15.9506 22.4168 15.9375 22.3695 15.9206C22.3222 15.904 22.2774 15.8831 22.2347 15.8583C22.1923 15.8339 22.1526 15.8061 22.1168 15.7748C22.0806 15.7434 22.0478 15.7095 22.0197 15.6725C21.991 15.6359 21.9668 15.5968 21.9477 15.5563C21.9281 15.5154 21.913 15.4732 21.9029 15.4296C21.8934 15.3861 21.8883 15.3426 21.8883 15.2982C21.8883 15.2538 21.8934 15.2103 21.9029 15.1668C21.913 15.1233 21.9281 15.081 21.9477 15.0406C21.9668 14.9997 21.991 14.9605 22.0197 14.9239C22.0478 14.8869 22.0806 14.853 22.1168 14.8217C22.1526 14.7903 22.1923 14.7625 22.2347 14.7381C22.2774 14.7133 22.3222 14.6924 22.3695 14.6759C22.4168 14.6589 22.4657 14.6458 22.5161 14.6371C22.5663 14.6289 22.6172 14.6245 22.668 14.6245H29.2652C29.3165 14.6245 29.3674 14.6289 29.4172 14.6371C29.4676 14.6458 29.5164 14.6589 29.5637 14.6759C29.611 14.6924 29.6558 14.7133 29.6986 14.7381C29.7414 14.7625 29.7807 14.7903 29.8169 14.8217C29.8532 14.853 29.8854 14.8869 29.9141 14.9239C29.9422 14.9605 29.9665 14.9997 29.9861 15.0406C30.0057 15.081 30.0203 15.1233 30.0304 15.1668C30.0404 15.2103 30.0454 15.2538 30.0454 15.2982C30.0454 15.3426 30.0404 15.3861 30.0304 15.4296C30.0203 15.4732 30.0057 15.5154 29.9861 15.5563C29.9665 15.5968 29.9422 15.6359 29.9141 15.6725C29.8854 15.7095 29.8532 15.7434 29.8169 15.7748C29.7807 15.8061 29.7414 15.8339 29.6986 15.8583C29.6558 15.8831 29.611 15.904 29.5637 15.9206C29.5164 15.9375 29.4676 15.9506 29.4172 15.9593C29.3674 15.9676 29.3165 15.9719 29.2652 15.9719H29.2693Z" fill="#00D280"/>
<path d="M33.5196 15.9719H31.7644C31.7135 15.9719 31.6627 15.9676 31.6123 15.9593C31.562 15.9506 31.5131 15.9375 31.4659 15.9206C31.4186 15.904 31.3737 15.8831 31.3309 15.8583C31.2887 15.8339 31.2488 15.8061 31.2127 15.7748C31.1764 15.7434 31.1442 15.7095 31.116 15.6725C31.0873 15.6359 31.0631 15.5968 31.0435 15.5563C31.0239 15.5154 31.0093 15.4732 30.9992 15.4296C30.9891 15.3861 30.9841 15.3426 30.9841 15.2982C30.9841 15.2538 30.9891 15.2103 30.9992 15.1668C31.0093 15.1233 31.0239 15.081 31.0435 15.0406C31.0631 14.9997 31.0873 14.9605 31.116 14.9239C31.1442 14.8869 31.1764 14.853 31.2127 14.8217C31.2488 14.7903 31.2887 14.7625 31.3309 14.7381C31.3737 14.7133 31.4186 14.6924 31.4659 14.6759C31.5131 14.6589 31.562 14.6458 31.6123 14.6371C31.6627 14.6289 31.7135 14.6245 31.7644 14.6245H33.5196C33.571 14.6245 33.6218 14.6289 33.6721 14.6371C33.7225 14.6458 33.7708 14.6589 33.8181 14.6759C33.8655 14.6924 33.9107 14.7133 33.953 14.7381C33.9958 14.7625 34.0351 14.7903 34.0713 14.8217C34.1075 14.853 34.1398 14.8869 34.1684 14.9239C34.1971 14.9605 34.2208 14.9997 34.2404 15.0406C34.26 15.081 34.2752 15.1233 34.2847 15.1668C34.2948 15.2103 34.2998 15.2538 34.2998 15.2982C34.2998 15.3426 34.2948 15.3861 34.2847 15.4296C34.2752 15.4732 34.26 15.5154 34.2404 15.5563C34.2208 15.5968 34.1971 15.6359 34.1684 15.6725C34.1398 15.7095 34.1075 15.7434 34.0713 15.7748C34.0351 15.8061 33.9958 15.8339 33.953 15.8583C33.9107 15.8831 33.8655 15.904 33.8181 15.9206C33.7708 15.9375 33.7225 15.9506 33.6721 15.9593C33.6218 15.9676 33.571 15.9719 33.5196 15.9719Z" fill="#00D280"/>
<path d="M31.3951 49.4199H24.7979C24.747 49.4199 24.6962 49.4156 24.6458 49.4068C24.5955 49.3981 24.5466 49.3855 24.4994 49.3685C24.4521 49.3516 24.4072 49.3311 24.3645 49.3063C24.3222 49.282 24.2824 49.2536 24.2467 49.2228C24.2104 49.1914 24.1777 49.157 24.1496 49.1205C24.1209 49.0835 24.0967 49.0448 24.0775 49.0039C24.0579 48.963 24.0428 48.9207 24.0327 48.8777C24.0232 48.8341 24.0182 48.7901 24.0182 48.7462C24.0182 48.7018 24.0232 48.6579 24.0327 48.6147C24.0428 48.5712 24.0579 48.529 24.0775 48.4881C24.0967 48.4472 24.1209 48.4085 24.1496 48.3719C24.1777 48.335 24.2104 48.301 24.2467 48.2696C24.2824 48.2383 24.3222 48.2104 24.3645 48.1857C24.4072 48.1612 24.4521 48.1404 24.4994 48.1235C24.5466 48.1064 24.5955 48.0939 24.6458 48.0851C24.6962 48.0764 24.747 48.072 24.7979 48.072H31.3951C31.4464 48.072 31.4972 48.0764 31.547 48.0851C31.5974 48.0939 31.6462 48.1064 31.6936 48.1235C31.7409 48.1404 31.7856 48.1612 31.8284 48.1857C31.8713 48.2104 31.9105 48.2383 31.9468 48.2696C31.983 48.301 32.0152 48.335 32.0439 48.3719C32.0721 48.4085 32.0963 48.4472 32.1159 48.4881C32.1356 48.529 32.1501 48.5712 32.1602 48.6147C32.1702 48.6579 32.1753 48.7018 32.1753 48.7462C32.1753 48.7901 32.1702 48.8341 32.1602 48.8777C32.1501 48.9207 32.1356 48.963 32.1159 49.0039C32.0963 49.0448 32.0721 49.0835 32.0439 49.1205C32.0152 49.157 31.983 49.1914 31.9468 49.2228C31.9105 49.2536 31.8713 49.282 31.8284 49.3063C31.7856 49.3311 31.7409 49.3516 31.6936 49.3685C31.6462 49.3855 31.5974 49.3981 31.547 49.4068C31.4972 49.4156 31.4464 49.4199 31.3951 49.4199Z" fill="#00D280"/>
</g>
</g>
</g>
<defs>
<clipPath id="clip0_1_3031">
<rect width="41" height="40.09" fill="white" transform="translate(12.5 12)"/>
</clipPath>
<clipPath id="clip1_1_3031">
<rect width="41" height="40.09" fill="white" transform="translate(12.5 12)"/>
</clipPath>
<clipPath id="clip2_1_3031">
<rect width="41" height="40.1087" fill="white" transform="translate(12.5 11.9907)"/>
</clipPath>
</defs>
</svg>
