<svg width="56" height="56" viewBox="0 0 56 56" fill="none" xmlns="http://www.w3.org/2000/svg">
<g clip-path="url(#clip0_1_3219)">
<g clip-path="url(#clip1_1_3219)">
<g clip-path="url(#clip2_1_3219)">
<path fill-rule="evenodd" clip-rule="evenodd" d="M49.2661 29.1833H46.4537V27.5173H49.2661C49.2051 27.7887 49.1792 28.0601 49.1792 28.3431C49.1792 28.6405 49.2025 28.9119 49.2661 29.1833Z" fill="#0575AD"/>
<path fill-rule="evenodd" clip-rule="evenodd" d="M37.9217 47.1871L36.5154 44.7577L37.958 43.9319L39.3642 46.3613C39.1058 46.447 38.8449 46.5586 38.5994 46.695C38.3398 46.83 38.1189 47.0014 37.9217 47.1871Z" fill="#0575AD"/>
<path fill-rule="evenodd" clip-rule="evenodd" d="M16.6476 46.3489L18.0526 43.9194L19.4951 44.7452L18.0915 47.1747C17.8942 46.9903 17.6591 46.8176 17.4137 46.6812C17.1657 46.5463 16.9073 46.4359 16.6476 46.3489Z" fill="#0575AD"/>
<path fill-rule="evenodd" clip-rule="evenodd" d="M40.6952 20.0568L45.998 16.999C46.0837 17.2574 46.1954 17.5185 46.3317 17.7638C46.4784 18.0092 46.6408 18.2326 46.8252 18.4299L41.5223 21.4995C41.2756 21.0061 41.0042 20.5256 40.6952 20.0568Z" fill="#0575AD"/>
<path fill-rule="evenodd" clip-rule="evenodd" d="M46.011 39.7011L40.6952 36.6316C40.8431 36.3966 40.9912 36.1628 41.1275 35.9279C41.2639 35.6928 41.3989 35.4474 41.5223 35.2007L46.8381 38.2715C46.6524 38.4689 46.481 38.7039 46.3447 38.9493C46.1954 39.183 46.0837 39.4427 46.011 39.7011Z" fill="#0575AD"/>
<path fill-rule="evenodd" clip-rule="evenodd" d="M27.1661 49.615V43.4863C27.7206 43.5123 28.275 43.5123 28.832 43.4863V49.615C28.5607 49.5539 28.2893 49.5293 28.0062 49.5293C27.7102 49.5293 27.4375 49.5539 27.1661 49.615Z" fill="#0575AD"/>
<path fill-rule="evenodd" clip-rule="evenodd" d="M9.16241 38.2593L14.4653 35.1885C14.712 35.6819 14.995 36.1636 15.2911 36.6323L9.98821 39.6902C9.90255 39.4318 9.79084 39.1707 9.65451 38.9253C9.52206 38.6916 9.3481 38.4696 9.16241 38.2593Z" fill="#0575AD"/>
<path fill-rule="evenodd" clip-rule="evenodd" d="M36.5137 11.9423L37.9186 9.51294C38.116 9.69733 38.3509 9.87 38.5976 10.0063C38.8431 10.1531 39.1027 10.2647 39.3611 10.34L37.9562 12.7694L36.5137 11.9423Z" fill="#0575AD"/>
<path fill-rule="evenodd" clip-rule="evenodd" d="M9.5455 29.1831H6.73309C6.79412 28.9117 6.81878 28.6403 6.81878 28.3573C6.81878 28.0742 6.78113 27.7898 6.73309 27.5315H9.5455V29.1831Z" fill="#0575AD"/>
<path fill-rule="evenodd" clip-rule="evenodd" d="M18.0543 12.7816L16.6494 10.3522C16.9078 10.2666 17.1674 10.1549 17.4141 10.0185C17.6595 9.87183 17.8816 9.71079 18.092 9.52515L19.4969 11.9545L18.0543 12.7816Z" fill="#0575AD"/>
<path fill-rule="evenodd" clip-rule="evenodd" d="M14.4783 21.4986L9.16241 18.4291C9.3481 18.2317 9.51945 17.9967 9.65586 17.75C9.80382 17.5047 9.91418 17.2449 9.98956 16.9866L15.3054 20.056C15.1573 20.2911 15.0093 20.5248 14.8729 20.7598C14.7366 21.0052 14.6016 21.2532 14.4783 21.4986Z" fill="#0575AD"/>
<path fill-rule="evenodd" clip-rule="evenodd" d="M27.1661 13.2136V7.08618C27.4375 7.1472 27.7089 7.18486 27.992 7.18486C28.275 7.18486 28.5594 7.1472 28.8178 7.09787V13.2265C28.2776 13.1772 27.7206 13.1772 27.1661 13.2136Z" fill="#0575AD"/>
<path fill-rule="evenodd" clip-rule="evenodd" d="M28.6468 22.363C27.6119 22.363 26.7966 22.5851 26.268 22.8072C25.7136 23.0292 24.8865 24.9885 24.8865 28.4788C24.8865 31.969 25.711 33.9284 26.268 34.1633C26.9459 34.4347 28.0677 34.7307 29.5232 34.5581C29.609 34.4854 29.7453 34.053 29.5479 33.5479C29.3753 33.1051 28.9558 32.5987 27.908 32.7468C27.7847 32.7584 27.1303 32.8194 26.5135 32.2533C25.7746 31.5743 25.441 30.3044 25.5136 28.4918C25.441 26.6791 25.772 25.4092 26.5135 24.7301C27.1303 24.1627 27.7847 24.212 27.908 24.2367C28.9558 24.3731 29.3753 23.8797 29.5479 23.4343C29.7453 22.9292 29.596 22.4981 29.5232 22.4241C29.2142 22.376 28.9182 22.363 28.6468 22.363Z" fill="#0575AD"/>
<path fill-rule="evenodd" clip-rule="evenodd" d="M25.4522 18.8629C22.9111 19.5407 20.8038 21.169 19.4846 23.4374C18.177 25.7058 17.8187 28.3572 18.4977 30.8982C19.1756 33.4393 20.8038 35.548 23.0709 36.8671C25.3393 38.1734 27.992 38.5318 30.5331 37.854C33.0741 37.1749 35.1827 35.548 36.5007 33.2796C37.8082 31.0112 38.1666 28.3585 37.4888 25.8174C36.8097 23.2776 35.1827 21.169 32.9144 19.8498C31.3978 18.9733 29.7202 18.5305 28.0179 18.5305C27.1662 18.5163 26.3027 18.6279 25.4522 18.8629ZM29.7202 20.7613C30.337 20.8353 30.8421 21.2417 31.1134 21.8702C31.4965 22.7713 31.3108 23.9308 30.681 24.7683C30.2993 25.2747 29.4112 26.0745 27.7465 25.8772C27.5856 25.9148 27.0805 26.4199 27.1791 28.4416C27.1791 28.4676 27.1791 28.4909 27.1791 28.5156C27.0921 30.5373 27.5856 31.0436 27.7465 31.08C29.3982 30.8826 30.2863 31.6851 30.681 32.1889C31.3224 33.0277 31.4965 34.1858 31.1134 35.087C30.855 35.7155 30.3499 36.1232 29.7319 36.1959C29.3631 36.2452 28.9931 36.2569 28.6594 36.2569C27.3635 36.2569 26.3403 35.9739 25.6496 35.6908C23.4046 34.7897 23.2332 29.9322 23.2332 28.4767C23.2332 27.0081 23.4046 22.1636 25.6496 21.2625C26.513 20.908 27.9076 20.5509 29.7202 20.7613Z" fill="#0575AD"/>
<path fill-rule="evenodd" clip-rule="evenodd" d="M25.0222 17.2578C27.9814 16.4684 31.0756 16.876 33.7386 18.4043C36.4018 19.9339 38.3027 22.4126 39.0909 25.3848C39.8803 28.344 39.4726 31.4394 37.9443 34.1026C36.4148 36.7656 33.936 38.6666 30.9639 39.4547C29.9771 39.7131 28.9656 39.8494 27.9671 39.8494C25.9817 39.8494 24.0082 39.3301 22.2436 38.3082C19.5935 36.7786 17.6808 34.2999 16.8927 31.3278C16.1032 28.3686 16.5109 25.2731 18.0392 22.61C19.5831 19.9469 22.0605 18.0472 25.0222 17.2578ZM17.5601 14.9777L18.965 17.4201C19.1624 17.7538 19.1013 18.1836 18.8052 18.442C17.8185 19.3561 16.968 20.4169 16.2902 21.5985C15.6111 22.771 15.1177 24.0409 14.81 25.3471C14.723 25.7301 14.3893 25.9885 13.9945 25.9885H11.1717V30.6863H14.0335C14.4165 30.6863 14.7607 30.9577 14.8489 31.3278C15.4527 34.0026 16.8329 36.3826 18.8326 38.2329C19.1156 38.4913 19.1766 38.9236 18.9922 39.2548L17.5743 41.6972L21.6437 44.0538L23.0616 41.6114C23.259 41.2777 23.6536 41.118 24.0237 41.2297C26.6258 42.0309 29.3876 42.0309 32.0026 41.2297C32.0884 41.2037 32.1624 41.1921 32.2481 41.1921C32.5441 41.1921 32.8155 41.3388 32.9635 41.6114L34.3814 44.0655L38.4521 41.7101L37.0459 39.2678C36.8485 38.9341 36.9095 38.5029 37.2055 38.2446C38.1924 37.3318 39.0442 36.2709 39.7219 35.0881C40.3997 33.9168 40.8932 32.6457 41.2021 31.3394C41.2878 30.9577 41.6215 30.6993 42.0162 30.6993H44.8417V26.0015H42.0162C41.6345 26.0015 41.2904 25.7301 41.2021 25.3601C40.5971 22.684 39.2168 20.3052 37.2185 18.455C36.9355 18.1966 36.8745 17.7642 37.0588 17.4318L38.4767 14.9894L34.4061 12.6341L32.9895 15.0764C32.7921 15.4101 32.3974 15.5698 32.0273 15.4582C29.4253 14.6557 26.6765 14.6557 24.0484 15.4582C23.6796 15.5698 23.2849 15.4205 23.0876 15.0764L21.6697 12.6211L17.5601 14.9777Z" fill="#0575AD"/>
<mask id="mask0_1_3219" style="mask-type:luminance" maskUnits="userSpaceOnUse" x="25" y="1" width="6" height="5">
<path d="M25.8806 1.30127H30.2018V5.60172H25.8806V1.30127Z" fill="white"/>
</mask>
<g mask="url(#mask0_1_3219)">
<path fill-rule="evenodd" clip-rule="evenodd" d="M25.8965 3.40994C25.8965 4.56946 26.8327 5.51862 28.0051 5.51862C29.1634 5.51862 30.1008 4.58244 30.1008 3.40994C30.1008 2.25043 29.1634 1.30127 28.0051 1.30127C26.8469 1.31425 25.8965 2.25043 25.8965 3.40994Z" fill="#0575AD"/>
</g>
<path fill-rule="evenodd" clip-rule="evenodd" d="M13.7133 7.79926C14.2925 8.79776 15.5883 9.15484 16.5868 8.56275C17.597 7.98364 17.9307 6.70078 17.3503 5.69059C16.7712 4.69079 15.4883 4.33371 14.4781 4.91282C13.4783 5.50491 13.1342 6.80076 13.7133 7.79926Z" fill="#0575AD"/>
<path fill-rule="evenodd" clip-rule="evenodd" d="M5.35258 17.7025C6.36276 18.2816 7.64563 17.9375 8.22603 16.9377C8.80513 15.9276 8.46105 14.6446 7.44826 14.0642C6.44975 13.4851 5.15521 13.8305 4.5761 14.829C4.00868 15.8276 4.35277 17.1234 5.35258 17.7025Z" fill="#0575AD"/>
<path fill-rule="evenodd" clip-rule="evenodd" d="M3.05948 30.4522C4.21899 30.4522 5.16815 29.5161 5.16815 28.3436C5.16815 27.1853 4.23067 26.2478 3.05948 26.2478C1.89997 26.2478 0.950806 27.1853 0.950806 28.3436C0.961193 29.5031 1.89997 30.4522 3.05948 30.4522Z" fill="#0575AD"/>
<path fill-rule="evenodd" clip-rule="evenodd" d="M7.46085 42.6373C8.46065 42.0582 8.81772 40.7623 8.22563 39.7651C7.64523 38.7536 6.36237 38.4199 5.35218 39.0003C4.35238 39.5794 3.9953 40.8623 4.5757 41.8724C5.16779 42.871 6.44937 43.2177 7.46085 42.6373Z" fill="#0575AD"/>
<path fill-rule="evenodd" clip-rule="evenodd" d="M17.3503 50.9973C17.9307 49.9871 17.5853 48.7043 16.5868 48.1239C15.5766 47.5448 14.2925 47.8889 13.7133 48.9016C13.1342 49.9015 13.4783 51.1947 14.4781 51.7738C15.4896 52.3412 16.7712 51.9959 17.3503 50.9973Z" fill="#0575AD"/>
<mask id="mask1_1_3219" style="mask-type:luminance" maskUnits="userSpaceOnUse" x="25" y="51" width="6" height="5">
<path d="M25.8806 51.1396H30.2018V55.3985H25.8806V51.1396Z" fill="white"/>
</mask>
<g mask="url(#mask1_1_3219)">
<path fill-rule="evenodd" clip-rule="evenodd" d="M30.1017 53.2905C30.1017 52.1324 29.1656 51.1819 27.9931 51.1819C26.8336 51.1819 25.8974 52.1194 25.8974 53.2905C25.8974 54.4501 26.8336 55.3993 27.9931 55.3993C29.163 55.3876 30.1017 54.4501 30.1017 53.2905Z" fill="#0575AD"/>
</g>
<path fill-rule="evenodd" clip-rule="evenodd" d="M42.2857 48.888C41.7053 47.8883 40.4107 47.5312 39.4122 48.1233C38.4008 48.7037 38.0684 49.9865 38.6475 50.9967C39.2279 51.9965 40.5107 52.3536 41.5209 51.7732C42.5207 51.1811 42.8648 49.8982 42.2857 48.888Z" fill="#0575AD"/>
<path fill-rule="evenodd" clip-rule="evenodd" d="M50.6461 38.9995C49.6346 38.4191 48.3518 38.7645 47.7727 39.763C47.1935 40.7732 47.5377 42.0573 48.5492 42.6364C49.549 43.2155 50.8435 42.8715 51.4226 41.8716C52.0017 40.8614 51.6576 39.5786 50.6461 38.9995Z" fill="#0575AD"/>
<mask id="mask2_1_3219" style="mask-type:luminance" maskUnits="userSpaceOnUse" x="50" y="26" width="6" height="5">
<path d="M50.8113 26.2107H55.0494V30.532H50.8113V26.2107Z" fill="white"/>
</mask>
<g mask="url(#mask2_1_3219)">
<path fill-rule="evenodd" clip-rule="evenodd" d="M52.9412 26.2495C51.7816 26.2495 50.8324 27.1869 50.8324 28.3582C50.8324 29.5177 51.7699 30.4539 52.9412 30.4539C54.1007 30.4539 55.0498 29.5177 55.0498 28.3582C55.0368 27.1869 54.1007 26.2495 52.9412 26.2495Z" fill="#0575AD"/>
</g>
<path fill-rule="evenodd" clip-rule="evenodd" d="M48.5494 14.064C47.551 14.6444 47.1939 15.9389 47.7859 16.9374C48.3651 17.9476 49.6479 18.2813 50.6581 17.7022C51.6579 17.1218 52.015 15.8389 51.4359 14.8287C50.8438 13.8315 49.5493 13.4848 48.5494 14.064Z" fill="#0575AD"/>
<path fill-rule="evenodd" clip-rule="evenodd" d="M38.6475 5.7026C38.0684 6.71409 38.4125 7.99695 39.4123 8.57606C40.4225 9.15517 41.7054 8.81108 42.2858 7.79959C42.8649 6.79979 42.5208 5.50523 41.521 4.92613C40.5225 4.34702 39.2279 4.69241 38.6475 5.7026Z" fill="#0575AD"/>
</g>
</g>
</g>
<defs>
<clipPath id="clip0_1_3219">
<rect width="55" height="55" fill="white" transform="translate(0.5 0.5)"/>
</clipPath>
<clipPath id="clip1_1_3219">
<rect width="55" height="55" fill="white" transform="translate(0.5 0.5)"/>
</clipPath>
<clipPath id="clip2_1_3219">
<rect width="55" height="55" fill="white" transform="translate(0.5 0.5)"/>
</clipPath>
</defs>
</svg>
