<svg width="66" height="65" viewBox="0 0 66 65" fill="none" xmlns="http://www.w3.org/2000/svg">
<rect x="0.5" width="65" height="65" rx="8" fill="#00D280" fill-opacity="0.2"/>
<g clip-path="url(#clip0_1_3011)">
<g clip-path="url(#clip1_1_3011)">
<g clip-path="url(#clip2_1_3011)">
<path d="M32.9996 30.9363C32.3884 30.9363 31.8911 31.4335 31.8911 32.0448C31.8911 32.6561 32.3884 33.1534 32.9996 33.1534C33.611 33.1534 34.1082 32.6561 34.1082 32.0448C34.1082 31.4335 33.611 30.9363 32.9996 30.9363Z" fill="#00D280"/>
<path d="M32.9997 35.3708C31.166 35.3708 29.674 33.8789 29.674 32.045C29.674 30.2112 31.166 28.7198 32.9997 28.7198C34.8336 28.7198 36.3256 30.2112 36.3256 32.045C36.3256 33.8789 34.8336 35.3708 32.9997 35.3708ZM39.1653 27.2053L37.1712 28.3572L36.5748 27.8487C35.5226 26.9501 34.576 26.781 34.1083 26.5834V24.2854H31.8911V26.5834C31.4187 26.7834 30.4752 26.9513 29.4247 27.8487L28.8284 28.3572L26.8342 27.2053L25.7251 29.1252L27.7025 30.267C27.6022 30.8688 27.4568 31.4011 27.4568 32.045C27.4568 32.6889 27.6004 33.2112 27.7025 33.8236L25.7251 34.9655L26.8342 36.8853L28.8284 35.7334L29.4247 36.242C30.477 37.1393 31.4236 37.3091 31.8911 37.5067V39.8051H34.1083V37.5067C34.5814 37.3067 35.5244 37.1387 36.5748 36.242L37.1712 35.7334L39.1653 36.8853L40.2745 34.9655L38.297 33.8236L38.4388 33.0533C38.5095 32.6705 38.5428 32.3501 38.5428 32.045C38.5428 31.4011 38.3991 30.8788 38.297 30.267L40.2745 29.1252L39.1653 27.2053Z" fill="#00D280"/>
<path d="M40.7299 31.4228C40.7501 31.6371 40.7595 31.8436 40.7595 32.0454C40.7595 32.2472 40.7501 32.4543 40.7299 32.6685L43.3031 34.154L39.9774 39.9142L37.3822 38.4157C37.0451 38.6478 36.6926 38.8525 36.3258 39.0282V42.0228H29.6743V39.0282C29.3075 38.8525 28.955 38.6478 28.6179 38.4157L26.0227 39.9142L22.6969 34.154L25.2702 32.6685C25.2499 32.4543 25.2405 32.2472 25.2405 32.0454C25.2405 31.8436 25.2499 31.6371 25.2702 31.4228L22.6969 29.9369L26.0227 24.1773L28.6179 25.6757C28.955 25.4431 29.3075 25.2383 29.6743 25.0633V22.0687H36.3258V25.0633C36.6926 25.2383 37.0451 25.4431 37.3822 25.6757L39.9774 24.1773L43.3031 29.9369L40.7299 31.4228ZM44.2853 29.3695L40.9602 23.6093C40.7501 23.2449 40.3679 23.0414 39.9762 23.0414C39.7839 23.0414 39.5886 23.0906 39.4095 23.1939L37.4611 24.3191V22.0687C37.4611 21.4414 36.9525 20.9333 36.3258 20.9333H29.6743C29.0475 20.9333 28.5389 21.4414 28.5389 22.0687V24.3191L26.5906 23.1939C26.4114 23.0906 26.2161 23.0414 26.0239 23.0414C25.6316 23.0414 25.2499 23.2455 25.0399 23.6093L21.7147 29.3695C21.4002 29.9125 21.5871 30.6069 22.1296 30.9202L24.0785 32.0454L22.1296 33.1712C21.5871 33.4846 21.4002 34.1783 21.7147 34.7214L25.0399 40.4815C25.1906 40.7427 25.4381 40.9326 25.7289 41.011C25.8256 41.0371 25.9247 41.0489 26.0227 41.0489C26.2203 41.0489 26.4161 40.9972 26.5906 40.897L28.5389 39.7718V42.0228C28.5389 42.6494 29.0475 43.1575 29.6743 43.1575H36.3258C36.9525 43.1575 37.4611 42.6494 37.4611 42.0228V39.7718L39.4095 40.897C39.5834 40.9972 39.7797 41.0489 39.9774 41.0489C40.0753 41.0489 40.1744 41.0371 40.2706 41.011C40.5619 40.9326 40.81 40.7427 40.9602 40.4815L44.2853 34.7214C44.5993 34.1783 44.4135 33.4846 43.8705 33.1712L41.9216 32.0454L43.8705 30.9202C44.4135 30.6069 44.5993 29.9125 44.2853 29.3695Z" fill="#00D280"/>
<mask id="mask0_1_3011" style="mask-type:luminance" maskUnits="userSpaceOnUse" x="15" y="26" width="39" height="27">
<path d="M15.2244 26.1174H53.0541V52.0994H15.2244V26.1174Z" fill="white"/>
</mask>
<g mask="url(#mask0_1_3011)">
<path d="M33.0002 50.9646C27.5955 50.9646 22.2946 48.6044 18.5891 44.192V45.348H16.3719V39.8056H21.9148V42.0228H19.6947C22.8306 46.2133 27.7687 48.748 33.0002 48.748C42.2096 48.748 49.7021 41.2549 49.7021 32.0455C49.7021 30.7933 49.5121 29.4722 49.1044 27.8876L51.2516 27.3351C51.7073 29.1049 51.9192 30.6016 51.9192 32.0455C51.9192 42.4626 43.4172 50.9646 33.0002 50.9646ZM52.35 27.052C52.2183 26.5399 51.7578 26.1992 51.2521 26.1992C51.1584 26.1992 51.0628 26.2111 50.9685 26.236L48.8214 26.7885C48.5294 26.8633 48.2794 27.0509 48.1269 27.3108C47.9733 27.5701 47.93 27.8793 48.0053 28.1707C48.3881 29.6597 48.5673 30.8911 48.5673 32.0455C48.5673 40.6293 41.5841 47.6127 33.0002 47.6127C28.961 47.6127 25.0548 45.9688 22.1658 43.1296C22.6721 43.0157 23.0496 42.5635 23.0496 42.0228V39.8056C23.0496 39.1789 22.5415 38.6703 21.9148 38.6703H16.3719C15.7452 38.6703 15.2366 39.1789 15.2366 39.8056V45.348C15.2366 45.9747 15.7452 46.4833 16.3719 46.4833H18.5891C18.76 46.4833 18.9226 46.4454 19.068 46.3777C22.7997 50.0358 27.7777 52.0999 33.0002 52.0999C44.0581 52.0999 53.0545 43.1035 53.0545 32.0455C53.0545 30.5031 52.8308 28.9161 52.35 27.052Z" fill="#00D280"/>
</g>
<mask id="mask1_1_3011" style="mask-type:luminance" maskUnits="userSpaceOnUse" x="12" y="11" width="39" height="27">
<path d="M12.9457 11.9907H50.7755V37.968H12.9457V11.9907Z" fill="white"/>
</mask>
<g mask="url(#mask1_1_3011)">
<path d="M14.7486 36.7561C14.2928 34.9858 14.081 33.4896 14.081 32.0452C14.081 27.0113 16.0542 22.266 19.6376 18.6827C23.2209 15.0993 27.9663 13.126 33 13.126C38.3934 13.126 43.6978 15.4779 47.4111 19.8993V18.7426H49.6283V24.2856H44.0854V22.0683H46.3055C43.1696 17.8779 38.2314 15.3432 33 15.3432C23.7906 15.3432 16.2982 22.8358 16.2982 32.0452C16.2982 33.298 16.4881 34.619 16.8958 36.203L14.7486 36.7561ZM17.8732 36.7804C18.0269 36.5211 18.0702 36.2119 17.9949 35.9199C17.6115 34.4309 17.4329 33.1994 17.4329 32.0452C17.4329 23.4618 24.4161 16.4785 33 16.4785C37.0385 16.4785 40.9453 18.1218 43.8343 20.961C43.3281 21.0755 42.9506 21.5278 42.9506 22.0683V24.2856C42.9506 24.9122 43.4587 25.4203 44.0854 25.4203H49.6283C50.255 25.4203 50.7636 24.9122 50.7636 24.2856V18.7426C50.7636 18.1153 50.255 17.6079 49.6283 17.6079H47.4111C47.2402 17.6079 47.0776 17.6453 46.9322 17.7135C43.1999 14.0548 38.2225 11.9907 33 11.9907C27.663 11.9907 22.6322 14.0821 18.8352 17.8803C15.037 21.6773 12.9457 26.7081 12.9457 32.0452C12.9457 33.5876 13.1688 35.1745 13.6489 37.0386C13.7243 37.33 13.9118 37.5798 14.1718 37.7336C14.3474 37.8368 14.5474 37.8914 14.7486 37.8914C14.843 37.8914 14.9385 37.8795 15.0317 37.8546L17.1789 37.3027C17.4703 37.2273 17.7201 37.0398 17.8732 36.7804Z" fill="#00D280"/>
</g>
</g>
</g>
</g>
<defs>
<clipPath id="clip0_1_3011">
<rect width="41" height="40.09" fill="white" transform="translate(12.5 12)"/>
</clipPath>
<clipPath id="clip1_1_3011">
<rect width="41" height="40.09" fill="white" transform="translate(12.5 12)"/>
</clipPath>
<clipPath id="clip2_1_3011">
<rect width="41" height="40.1087" fill="white" transform="translate(12.5 11.9907)"/>
</clipPath>
</defs>
</svg>
