<svg width="56" height="56" viewBox="0 0 56 56" fill="none" xmlns="http://www.w3.org/2000/svg">
<g clip-path="url(#clip0_1_3284)">
<g clip-path="url(#clip1_1_3284)">
<g clip-path="url(#clip2_1_3284)">
<mask id="mask0_1_3284" style="mask-type:luminance" maskUnits="userSpaceOnUse" x="0" y="0" width="56" height="56">
<path d="M0.950806 0.950928H55.0492V55.0493H0.950806V0.950928Z" fill="white"/>
</mask>
<g mask="url(#mask0_1_3284)">
<path fill-rule="evenodd" clip-rule="evenodd" d="M24.6472 47.5672H15.8756C14.4815 47.5672 13.341 46.4254 13.341 45.0314V35.5437H15.4597V43.2977H22.9258L23.6013 43.9732C24.1292 44.4998 24.9252 44.6487 25.6069 44.3473L26.1175 44.1209C26.3574 44.2328 26.6023 44.3349 26.8508 44.4247L27.0501 44.9427C27.3183 45.6391 27.9877 46.0993 28.7333 46.0993H30.9235C31.6703 46.0993 32.3396 45.6391 32.6066 44.9427L32.8059 44.4247C33.0557 44.3349 33.3005 44.234 33.5393 44.1221L34.0486 44.3473C34.7291 44.6487 35.5263 44.4998 36.053 43.9732L36.7297 43.2977H44.1958V35.5437H46.3145V45.0314C46.3145 46.4254 45.174 47.5672 43.7787 47.5672H35.0109V51.5956H38.8693C40.058 51.5956 41.0312 52.372 41.0312 53.3206V55.0493H18.6268V53.3206C18.6268 52.372 19.6 51.5956 20.7886 51.5956H24.6472V47.5672ZM21.6216 9.71144V2.00046C21.6216 1.42463 22.0952 0.950928 22.6711 0.950928H36.9832C37.559 0.950928 38.0327 1.42463 38.0327 2.00046V9.33735L35.0933 5.40622C34.9407 5.20197 34.7094 5.07155 34.4559 5.04817C34.2024 5.02356 33.9514 5.10846 33.7632 5.27948L29.4789 9.19094L27.1497 6.56772C26.8372 6.21583 26.3057 6.16292 25.9305 6.44714L21.6216 9.71144ZM29.5073 6.71167C30.1421 6.71167 30.6601 6.19491 30.6601 5.56002C30.6601 4.92513 30.1421 4.4022 29.5073 4.4022C28.8686 4.4022 28.3506 4.92513 28.3506 5.56002C28.3506 6.19491 28.8686 6.71167 29.5073 6.71167ZM38.0327 12.3482V14.2073C38.0327 14.788 37.559 15.2617 36.9832 15.2617H22.6711C22.0952 15.2617 21.6216 14.788 21.6216 14.2073V11.9741L26.3549 8.38871L28.1464 10.4066L27.3233 11.1584C26.9553 11.4942 26.9296 12.0652 27.2642 12.433C27.6001 12.7997 28.171 12.8255 28.5389 12.4909L34.2443 7.28258L38.0327 12.3482ZM8.95089 0.950928C13.3668 0.950928 16.9509 4.53509 16.9509 8.95101C16.9509 13.3657 13.3668 16.9511 8.95089 16.9511C4.5362 16.9511 0.950806 13.3657 0.950806 8.95101C0.950806 4.53509 4.5362 0.950928 8.95089 0.950928ZM12.1832 7.9187L8.2434 5.64368C7.87429 5.43082 7.42027 5.43082 7.05114 5.64368C6.68202 5.85654 6.45563 6.25028 6.45563 6.67599V11.2248C6.45563 11.6505 6.68202 12.0442 7.05114 12.2571C7.42027 12.47 7.87429 12.47 8.2434 12.2571L12.1832 9.98328C12.551 9.76923 12.7787 9.37673 12.7787 8.95101C12.7787 8.52528 12.551 8.13156 12.1832 7.9187ZM51.3075 0.979227C51.3727 1.00384 51.4318 1.03829 51.4859 1.08381L54.8966 3.96173C54.9507 4.00725 54.9914 4.05646 55.0209 4.11183H51.6114C51.4453 4.11183 51.3075 3.99618 51.3075 3.85468V0.979227ZM55.0492 5.91437V16.6287C55.0492 16.8059 54.904 16.9511 54.7268 16.9511H43.0269C42.8485 16.9511 42.7046 16.8059 42.7046 16.6287V1.27329C42.7046 1.09489 42.8485 0.950928 43.0269 0.950928H49.5037C49.5037 0.95954 49.5037 0.969383 49.5037 0.979227V3.85468C49.5037 4.89683 50.3773 5.91561 51.6114 5.91561H55.0209C55.0295 5.91561 55.0393 5.91437 55.0492 5.91437ZM46.2099 14.382H51.5425C52.0408 14.382 52.4444 13.9784 52.4444 13.4814C52.4444 12.983 52.0408 12.5795 51.5425 12.5795H46.2099C45.7129 12.5795 45.3093 12.983 45.3093 13.4814C45.3093 13.9784 45.7129 14.382 46.2099 14.382ZM46.2099 8.68647H51.5425C52.0408 8.68647 52.4444 8.2829 52.4444 7.78459C52.4444 7.28751 52.0408 6.8827 51.5425 6.8827H46.2099C45.7129 6.8827 45.3093 7.28751 45.3093 7.78459C45.3093 8.2829 45.7129 8.68647 46.2099 8.68647ZM46.2099 11.5348H51.5425C52.0408 11.5348 52.4444 11.1301 52.4444 10.633C52.4444 10.1347 52.0408 9.73109 51.5425 9.73109H46.2099C45.7129 9.73109 45.3093 10.1347 45.3093 10.633C45.3093 11.1301 45.7129 11.5348 46.2099 11.5348ZM34.5531 36.1983H37.9244V37.2946L36.5832 37.8113C36.4135 38.5262 36.1293 39.2078 35.7442 39.8341L36.3273 41.1494L34.7782 42.6985L33.463 42.1153C32.8392 42.5016 32.155 42.7846 31.4402 42.9544L30.9235 44.2955H28.7333L28.2166 42.9544C27.5005 42.7846 26.8188 42.4992 26.1913 42.1153L24.8772 42.6985L23.3281 41.1494L23.9126 39.8341C23.5262 39.2103 23.2445 38.5262 23.0723 37.8113L21.7299 37.2946V36.1983H25.1048C25.1048 38.808 27.2175 40.9243 29.8272 40.9243C32.4368 40.9243 34.5531 38.808 34.5531 36.1983ZM26.9074 36.1983H32.7494C32.7494 37.8126 31.4415 39.1205 29.8272 39.1205C28.214 39.1205 26.9074 37.8113 26.9074 36.1983ZM30.729 34.563C30.729 35.0614 30.3254 35.465 29.8272 35.465C29.3301 35.465 28.9265 35.0614 28.9265 34.563V20.176C28.9265 19.6776 29.3301 19.2741 29.8272 19.2741C30.3254 19.2741 30.729 19.6776 30.729 20.176V34.563ZM26.0067 31.9374C26.5038 31.9374 26.9074 32.341 26.9074 32.8393V34.563C26.9074 35.0614 26.5038 35.465 26.0067 35.465C25.5084 35.465 25.1048 35.0614 25.1048 34.563V33.7399H8.53378C8.03546 33.7399 7.63189 33.3364 7.63189 32.8393V20.176C7.63189 19.6776 8.0367 19.2741 8.53378 19.2741C9.03209 19.2741 9.43566 19.6776 9.43566 20.176V31.9374H26.0067ZM33.6488 31.9374H50.2198V20.176C50.2198 19.6776 50.6234 19.2741 51.1205 19.2741C51.6188 19.2741 52.0224 19.6776 52.0224 20.176V32.8393C52.0224 33.3364 51.6188 33.7399 51.1205 33.7399H34.5507V34.563C34.5507 35.0614 34.1471 35.465 33.6488 35.465C33.1517 35.465 32.7468 35.0614 32.7468 34.563V32.8393C32.7468 32.341 33.1517 31.9374 33.6488 31.9374ZM13.341 30.1337V27.5928C13.341 26.1988 14.4815 25.057 15.8756 25.057H27.1227V27.1794H15.8129C15.6184 27.1794 15.4597 27.3357 15.4597 27.5301V30.1337H13.341ZM32.5328 25.057H43.7787C45.174 25.057 46.3145 26.1988 46.3145 27.5928V30.1337H44.1958V27.5301C44.1958 27.3357 44.0371 27.1794 43.8439 27.1794H32.5328V25.057Z" fill="#0575AD"/>
</g>
</g>
</g>
</g>
<defs>
<clipPath id="clip0_1_3284">
<rect width="55" height="55" fill="white" transform="translate(0.5 0.5)"/>
</clipPath>
<clipPath id="clip1_1_3284">
<rect width="55" height="55" fill="white" transform="translate(0.5 0.5)"/>
</clipPath>
<clipPath id="clip2_1_3284">
<rect width="55" height="55" fill="white" transform="translate(0.5 0.5)"/>
</clipPath>
</defs>
</svg>
