<svg width="56" height="56" viewBox="0 0 56 56" fill="none" xmlns="http://www.w3.org/2000/svg">
<g clip-path="url(#clip0_1_3146)">
<g clip-path="url(#clip1_1_3146)">
<g clip-path="url(#clip2_1_3146)">
<path d="M25.4405 48.6355C25.1397 48.5257 24.8302 48.5806 24.5328 48.7472C25.1553 47.1036 25.6688 45.2183 25.0083 44.5823C24.1386 43.7453 23.3639 43.9506 22.4009 45.1166C22.7068 44.2553 22.7553 43.4223 22.1449 42.8494C20.7133 41.5004 18.4396 44.0013 17.5508 45.2C17.6303 44.1841 17.2222 42.9855 15.9133 42.8311C14.0823 42.6157 13.6967 45.4113 14.6321 46.3662C15.4154 47.1686 16.3301 47.2052 16.937 46.6404C16.7727 47.7335 17.001 49.1556 18.0522 49.5924C19.1416 50.0454 19.9128 49.7509 20.3104 49.2043C20.0562 50.6062 20.39 51.7479 21.1853 52.1563C21.9305 52.5383 22.4735 52.4529 22.8504 52.1786C22.8746 52.6622 23.0285 53.0848 23.3605 53.3448C24.8094 54.4845 26.2445 52.8917 26.4728 51.8272C26.701 50.7646 27.0659 49.2226 25.4405 48.6334V48.6355Z" fill="#0575AD"/>
<path d="M44.5243 29.9327C44.3583 28.7869 44.1733 27.7588 43.9917 26.8669C42.5687 26.9706 41.4154 26.9136 40.8224 26.5926C37.7239 24.9145 33.1384 21.7756 29.7979 22.3465C26.459 22.9174 22.7225 27.7344 23.0268 28.6974C23.3312 29.6604 22.8452 35.1559 24.9409 35.4404C27.0348 35.7268 28.705 32.0862 28.4025 30.3735C28.4025 30.3735 29.6768 30.4467 30.1938 29.697C30.1938 29.697 33.7159 30.8733 36.8438 35.1559C39.9717 39.4366 43.0702 42.3277 43.0702 42.3277C43.0702 42.3277 43.7999 42.1895 44.9462 41.9701C45.3231 37.1937 44.96 32.9252 44.5261 29.9327H44.5243Z" fill="#0575AD"/>
<mask id="mask0_1_3146" style="mask-type:luminance" maskUnits="userSpaceOnUse" x="11" y="21" width="33" height="35">
<path d="M11.0148 21.7229H43.7702V55.4989H11.0148V21.7229Z" fill="white"/>
</mask>
<g mask="url(#mask0_1_3146)">
<path d="M43.3175 44.1266C43.2346 44.1428 43.1516 44.151 43.0685 44.151C42.7193 44.151 42.3787 44.0128 42.102 43.7548C41.9706 43.6329 38.8513 40.7053 35.6647 36.3413C34.2296 34.3788 32.7063 33.1557 31.6826 32.4752C31.1812 32.142 30.7455 31.9023 30.4152 31.7376C30.2389 31.8372 30.0573 31.9165 29.8775 31.9774C29.6528 33.1639 29.1254 34.328 28.5444 35.1671C27.6021 36.5303 26.4038 37.28 25.1727 37.28C25.0344 37.28 24.8961 37.2718 24.7595 37.2536C23.9831 37.1459 23.3053 36.6929 22.7987 35.9371C22.4529 35.419 22.1918 34.7709 22.0034 33.9583C21.7215 32.7352 21.6575 31.3272 21.6108 30.3013C21.5935 29.9315 21.5711 29.4338 21.5451 29.251C21.2495 28.1864 21.7595 27.1767 21.9307 26.8394C22.5048 25.7017 23.6407 24.2836 24.8943 23.1398C25.2211 22.8432 25.5981 22.5242 26.0165 22.2134C20.895 23.2942 17.6478 27.1665 17.1343 27.3758C16.1522 27.776 14.3401 27.7476 12.26 27.5139C12.1182 28.2555 11.9782 29.0783 11.8485 29.9661C11.3938 33.1192 11.0186 37.6842 11.5027 42.7694C11.9055 42.8568 12.3741 42.9625 12.924 43.0905C13.4444 41.7882 14.4905 40.9938 15.7148 40.9938C15.8305 40.9938 15.9481 41.0019 16.0674 41.0141C16.8801 41.1117 17.5891 41.4835 18.1181 42.0828C18.1492 42.0564 18.1804 42.03 18.2115 42.0015C19.2593 41.0954 20.2622 40.6363 21.1889 40.6363C21.9013 40.6363 22.5688 40.9085 23.1168 41.4245C23.2932 41.5911 23.5388 41.8653 23.748 42.2555C23.8223 42.2493 23.8966 42.2453 23.971 42.2453C24.6747 42.2453 25.356 42.5582 25.9923 43.1697C26.5248 43.6816 27.092 44.6995 26.7755 46.6316C26.7427 46.8328 26.7012 47.042 26.651 47.2594C27.7369 47.9582 28.0706 49.0391 28.1726 49.6892C28.3248 50.6583 28.1312 51.5562 27.9911 52.2125L27.979 52.2714C27.9305 52.4969 27.8579 52.7244 27.7664 52.9479C27.7767 52.9561 27.7871 52.9642 27.7957 52.9723C29.5957 54.4554 31.0671 55.4875 31.7086 55.2315C33.531 54.5083 33.3183 52.7244 33.3183 52.7244C33.3183 52.7244 35.2013 53.5636 36.4929 52.7244C37.7828 51.8874 37.0238 49.8883 37.0238 49.8883C37.0238 49.8883 37.7223 50.6014 39.332 49.7115C40.9418 48.8176 40.0911 46.1785 40.0911 46.1785C40.0911 46.1785 40.698 46.9282 41.8513 46.9627C42.9233 46.9953 43.8622 45.7052 43.5043 44.09C43.3815 44.1144 43.3159 44.1266 43.3159 44.1266H43.3175Z" fill="#0575AD"/>
</g>
<path d="M48.9625 27.295C48.8432 26.6673 48.3297 26.2589 47.7885 26.3564C47.0259 26.4905 46.272 26.6103 45.5527 26.7038C45.7429 27.6607 45.9124 28.6399 46.0559 29.6253C46.464 32.431 46.8669 36.7644 46.528 41.6668C47.3043 41.5164 48.1654 41.3519 49.0627 41.1792C49.5487 41.0858 49.9135 40.6063 49.9377 40.0273C50.1434 34.8872 49.559 30.3912 48.9642 27.295H48.9625Z" fill="#0575AD"/>
<path d="M10.318 29.663C10.4321 28.8748 10.5636 28.0865 10.7088 27.3104C9.85462 27.1845 8.97973 27.0382 8.11866 26.8797C7.57227 26.7801 7.05182 27.1967 6.93598 27.8346C6.33771 31.1259 5.79479 35.8087 6.11639 41.0991C6.15444 41.7045 6.55903 42.1881 7.0743 42.2389C8.53536 42.379 8.81201 42.2937 9.91512 42.4664C9.47424 37.2776 9.88579 32.6617 10.3197 29.663H10.318Z" fill="#0575AD"/>
<path d="M0.93757 18.5586H18.0657C18.3925 18.5586 18.6017 18.1502 18.453 17.8109L16.3055 12.9188C16.2294 12.7481 16.0808 12.6404 15.9165 12.6404H3.08507C2.92081 12.6404 2.77211 12.7481 2.69603 12.9188L0.54853 17.8109C0.39983 18.1522 0.610777 18.5586 0.93757 18.5586ZM7.31264 16.7667L7.60659 15.2612C7.63252 15.1291 7.73454 15.0337 7.85038 15.0337H11.0872C11.203 15.0337 11.305 15.1291 11.331 15.2612L11.6232 16.7667C11.6595 16.9516 11.5402 17.1263 11.3811 17.1263H8.93277H7.55644C7.39563 17.1263 7.27633 16.9516 7.31264 16.7667Z" fill="#0575AD"/>
<mask id="mask1_1_3146" style="mask-type:luminance" maskUnits="userSpaceOnUse" x="2" y="0" width="15" height="12">
<path d="M2.60461 0.5H16.3265V11.3225H2.60461V0.5Z" fill="white"/>
</mask>
<g mask="url(#mask1_1_3146)">
<path d="M15.0539 0.575195H3.94986C3.30492 0.575195 2.78101 1.19281 2.78101 1.95062V9.43921C2.78101 10.1991 3.30492 10.8146 3.94986 10.8146H15.0539C15.6989 10.8146 16.2227 10.1991 16.2227 9.43921V1.95062C16.2227 1.19281 15.6989 0.575195 15.0539 0.575195ZM14.6684 8.99022H4.33371V2.40163H14.6684V8.99022Z" fill="#0575AD"/>
</g>
<mask id="mask2_1_3146" style="mask-type:luminance" maskUnits="userSpaceOnUse" x="37" y="12" width="19" height="7">
<path d="M37.13 12.363H55.4995V18.6043H37.13V12.363Z" fill="white"/>
</mask>
<g mask="url(#mask2_1_3146)">
<path d="M37.9337 18.5605H55.0619C55.3887 18.5605 55.5996 18.1521 55.4492 17.8128L53.3017 12.9206C53.2274 12.75 53.0768 12.6423 52.9143 12.6423H40.0813C39.917 12.6423 39.7682 12.75 39.6939 12.9206L37.5464 17.8128C37.396 18.1542 37.6069 18.5605 37.9337 18.5605ZM44.3105 16.7686L44.6027 15.2632C44.6287 15.1311 44.7307 15.0356 44.8466 15.0356H48.0833C48.2009 15.0356 48.3012 15.1311 48.3271 15.2632L48.6211 16.7686C48.6574 16.9534 48.5381 17.1281 48.3773 17.1281H45.9307H44.5526C44.3935 17.1281 44.2742 16.9534 44.3105 16.7686Z" fill="#0575AD"/>
</g>
<mask id="mask3_1_3146" style="mask-type:luminance" maskUnits="userSpaceOnUse" x="39" y="0" width="15" height="12">
<path d="M39.3438 0.5H53.5083V11.3225H39.3438V0.5Z" fill="white"/>
</mask>
<g mask="url(#mask3_1_3146)">
<path d="M52.049 0.575195H40.9467C40.3017 0.575195 39.7761 1.19281 39.7761 1.95062V9.43921C39.7761 10.1991 40.3017 10.8146 40.9467 10.8146H52.049C52.6957 10.8146 53.2196 10.1991 53.2196 9.43921V1.95062C53.2196 1.19281 52.6957 0.575195 52.049 0.575195ZM51.6652 8.99022H41.3305V2.40163H51.6652V8.99022Z" fill="#0575AD"/>
</g>
<mask id="mask4_1_3146" style="mask-type:luminance" maskUnits="userSpaceOnUse" x="21" y="0" width="14" height="10">
<path d="M21.1957 0.5H34.9176V9.24212H21.1957V0.5Z" fill="white"/>
</mask>
<g mask="url(#mask4_1_3146)">
<path d="M34.4507 3.90952L30.2801 0.770648C29.9188 0.50044 29.4398 0.622338 29.2081 1.04898C28.9764 1.47156 29.0818 2.03636 29.4433 2.30859L31.3781 3.76528H22.297C21.8682 3.76528 21.5206 4.17363 21.5206 4.67748C21.5206 5.18132 21.8682 5.58968 22.297 5.58968H31.3781L29.4433 7.04636C29.0818 7.31861 28.9764 7.8834 29.2081 8.30801C29.3551 8.58025 29.6058 8.72856 29.8617 8.72856C30.0052 8.72856 30.1504 8.68184 30.2801 8.58431L34.4507 5.44747C34.6737 5.27885 34.8085 4.98832 34.8085 4.67748C34.8085 4.36664 34.6737 4.07612 34.4507 3.90952Z" fill="#0575AD"/>
</g>
<path d="M21.8786 15.2251L26.0491 18.364C26.4105 18.6342 26.8912 18.5123 27.1228 18.0857C27.3546 17.6631 27.2491 17.0982 26.8877 16.826L24.9512 15.3693H34.0322C34.461 15.3693 34.8085 14.9609 34.8085 14.4571C34.8085 13.9533 34.461 13.5449 34.0322 13.5449H24.9512L26.8877 12.0883C27.2491 11.816 27.3546 11.2512 27.1228 10.8266C26.9742 10.5543 26.7234 10.406 26.4675 10.406C26.3241 10.406 26.1805 10.4528 26.0491 10.5503L21.8786 13.6871C21.6556 13.8558 21.5206 14.1463 21.5206 14.4571C21.5206 14.768 21.6556 15.0585 21.8786 15.2251Z" fill="#0575AD"/>
</g>
</g>
</g>
<defs>
<clipPath id="clip0_1_3146">
<rect width="55" height="55" fill="white" transform="translate(0.5 0.5)"/>
</clipPath>
<clipPath id="clip1_1_3146">
<rect width="55" height="55" fill="white" transform="translate(0.5 0.5)"/>
</clipPath>
<clipPath id="clip2_1_3146">
<rect width="55" height="55" fill="white" transform="translate(0.5 0.5)"/>
</clipPath>
</defs>
</svg>
