<svg width="46" height="46" viewBox="0 0 46 46" fill="none" xmlns="http://www.w3.org/2000/svg">
<g clip-path="url(#clip0_1_3365)">
<g clip-path="url(#clip1_1_3365)">
<path d="M21.2355 40.0741C20.9894 39.9844 20.7362 40.0292 20.4928 40.1655C21.0021 38.8208 21.4223 37.2782 20.8819 36.7579C20.1703 36.0731 19.5365 36.241 18.7485 37.1951C18.9989 36.4903 19.0385 35.8088 18.5391 35.34C17.3678 34.2363 15.5075 36.2825 14.7803 37.2633C14.8454 36.4321 14.5115 35.4514 13.4406 35.3251C11.9424 35.1489 11.627 37.4361 12.3923 38.2174C13.0332 38.874 13.7815 38.9039 14.2781 38.4418C14.1437 39.3361 14.3304 40.4997 15.1906 40.857C16.0818 41.2277 16.7128 40.9867 17.0382 40.5396C16.8302 41.6865 17.1032 42.6207 17.754 42.9548C18.3637 43.2673 18.8079 43.1975 19.1163 42.9731C19.1361 43.3687 19.2621 43.7144 19.5337 43.9272C20.7192 44.8597 21.8934 43.5565 22.0801 42.6855C22.2669 41.8162 22.5654 40.5545 21.2355 40.0725V40.0741Z" fill="#00D280"/>
<path d="M36.8492 24.7711C36.7134 23.8336 36.5621 22.9925 36.4135 22.2628C35.2492 22.3475 34.3056 22.301 33.8204 22.0384C31.2853 20.6653 27.5335 18.0972 24.8003 18.5643C22.0685 19.0314 19.0114 22.9725 19.2604 23.7605C19.5094 24.5484 19.1118 29.0447 20.8264 29.2774C22.5396 29.5118 23.9062 26.5331 23.6587 25.1318C23.6587 25.1318 24.7013 25.1916 25.1243 24.5783C25.1243 24.5783 28.006 25.5407 30.5652 29.0447C33.1244 32.5471 35.6595 34.9125 35.6595 34.9125C35.6595 34.9125 36.2565 34.7994 37.1944 34.6199C37.5028 30.712 37.2057 27.2196 36.8507 24.7711H36.8492Z" fill="#00D280"/>
<mask id="mask0_1_3365" style="mask-type:luminance" maskUnits="userSpaceOnUse" x="9" y="18" width="28" height="28">
<path d="M9.43262 18.0571H36.2326V45.6919H9.43262V18.0571Z" fill="white"/>
</mask>
<g mask="url(#mask0_1_3365)">
<path d="M35.8622 36.3865C35.7943 36.3998 35.7264 36.4064 35.6585 36.4064C35.3727 36.4064 35.094 36.2934 34.8677 36.0823C34.7602 35.9825 32.2081 33.5872 29.6008 30.0167C28.4266 28.411 27.1803 27.4103 26.3428 26.8535C25.9325 26.5809 25.576 26.3847 25.3058 26.2501C25.1615 26.3315 25.0129 26.3964 24.8658 26.4462C24.6819 27.417 24.2504 28.3695 23.7751 29.056C23.0041 30.1713 22.0237 30.7847 21.0164 30.7847C20.9033 30.7847 20.7901 30.778 20.6783 30.7631C20.0431 30.675 19.4886 30.3043 19.0741 29.686C18.7911 29.2621 18.5775 28.7318 18.4233 28.0669C18.1927 27.0663 18.1404 25.9143 18.1022 25.0749C18.088 24.7724 18.0696 24.3651 18.0484 24.2155C17.8065 23.3445 18.2238 22.5183 18.3639 22.2424C18.8336 21.3116 19.763 20.1513 20.7887 19.2155C21.0561 18.9728 21.3645 18.7118 21.7068 18.4575C17.5165 19.3418 14.8597 22.51 14.4395 22.6812C13.636 23.0087 12.1534 22.9854 10.4515 22.7943C10.3355 23.401 10.2209 24.0742 10.1148 24.8006C9.74274 27.3804 9.43575 31.1155 9.83187 35.2761C10.1615 35.3476 10.5449 35.434 10.9948 35.5387C11.4206 34.4732 12.2765 33.8233 13.2781 33.8233C13.3729 33.8233 13.4691 33.8299 13.5667 33.8399C14.2316 33.9197 14.8116 34.2239 15.2445 34.7142C15.27 34.6926 15.2954 34.671 15.3209 34.6478C16.1782 33.9064 16.9987 33.5307 17.757 33.5307C18.3398 33.5307 18.8859 33.7535 19.3344 34.1757C19.4787 34.312 19.6796 34.5364 19.8507 34.8555C19.9116 34.8506 19.9724 34.8472 20.0332 34.8472C20.609 34.8472 21.1664 35.1032 21.687 35.6035C22.1227 36.0224 22.5867 36.8552 22.3279 38.436C22.301 38.6006 22.267 38.7718 22.226 38.9497C23.1144 39.5215 23.3875 40.4058 23.4709 40.9377C23.5954 41.7306 23.437 42.4653 23.3224 43.0022L23.3125 43.0504C23.2729 43.2349 23.2135 43.4211 23.1385 43.6039C23.147 43.6106 23.1555 43.6172 23.1625 43.6239C24.6352 44.8373 25.8391 45.6817 26.364 45.4723C27.8551 44.8805 27.6811 43.4211 27.6811 43.4211C27.6811 43.4211 29.2217 44.1076 30.2784 43.4211C31.3338 42.7362 30.7127 41.1006 30.7127 41.1006C30.7127 41.1006 31.2843 41.684 32.6013 40.956C33.9184 40.2246 33.2224 38.0653 33.2224 38.0653C33.2224 38.0653 33.719 38.6787 34.6626 38.707C35.5397 38.7336 36.3078 37.678 36.015 36.3565C35.9146 36.3765 35.8608 36.3865 35.8608 36.3865H35.8622Z" fill="#00D280"/>
</g>
<path d="M40.4812 22.6141C40.3836 22.1005 39.9634 21.7664 39.5206 21.8462C38.8967 21.9559 38.2799 22.054 37.6914 22.1304C37.847 22.9133 37.9857 23.7146 38.1031 24.5207C38.437 26.8163 38.7666 30.3619 38.4893 34.3729C39.1245 34.2499 39.829 34.1152 40.5633 33.9739C40.9608 33.8975 41.2593 33.5052 41.2791 33.0314C41.4474 28.826 40.9693 25.1474 40.4826 22.6141H40.4812Z" fill="#00D280"/>
<path d="M8.86274 24.5496C8.9561 23.9046 9.06362 23.2597 9.18246 22.6247C8.4836 22.5217 7.76776 22.402 7.06325 22.2723C6.6162 22.1909 6.19038 22.5316 6.0956 23.0536C5.60612 25.7464 5.1619 29.5779 5.42503 33.9064C5.45616 34.4017 5.7872 34.7974 6.20877 34.8389C7.40419 34.9536 7.63054 34.8837 8.53311 35.0251C8.17237 30.7796 8.50906 27.0031 8.86415 24.5496H8.86274Z" fill="#00D280"/>
<path d="M1.18809 15.4656H15.202C15.4694 15.4656 15.6406 15.1315 15.5189 14.8539L13.7619 10.8512C13.6996 10.7116 13.578 10.6235 13.4436 10.6235H2.94514C2.81074 10.6235 2.68908 10.7116 2.62683 10.8512L0.869784 14.8539C0.748121 15.1332 0.920713 15.4656 1.18809 15.4656ZM6.40406 13.9995L6.64456 12.7678C6.66578 12.6597 6.74924 12.5816 6.84403 12.5816H9.49233C9.58712 12.5816 9.67058 12.6597 9.6918 12.7678L9.93089 13.9995C9.9606 14.1508 9.86298 14.2937 9.73283 14.2937H7.72963H6.60353C6.47197 14.2937 6.37435 14.1508 6.40406 13.9995Z" fill="#00D280"/>
<mask id="mask1_1_3365" style="mask-type:luminance" maskUnits="userSpaceOnUse" x="2" y="0" width="12" height="10">
<path d="M2.55176 0.689941H13.7788V9.54473H2.55176V0.689941Z" fill="white"/>
</mask>
<g mask="url(#mask1_1_3365)">
<path d="M12.7378 0.750488H3.65262C3.12494 0.750488 2.69629 1.25581 2.69629 1.87583V8.00287C2.69629 8.62455 3.12494 9.12821 3.65262 9.12821H12.7378C13.2655 9.12821 13.6941 8.62455 13.6941 8.00287V1.87583C13.6941 1.25581 13.2655 0.750488 12.7378 0.750488ZM12.4223 7.63551H3.96668V2.24485H12.4223V7.63551Z" fill="#00D280"/>
</g>
<mask id="mask2_1_3365" style="mask-type:luminance" maskUnits="userSpaceOnUse" x="30" y="10" width="16" height="6">
<path d="M30.8008 10.3931H45.8305V15.4994H30.8008V10.3931Z" fill="white"/>
</mask>
<g mask="url(#mask2_1_3365)">
<path d="M31.4589 15.4656H45.4729C45.7402 15.4656 45.9128 15.1315 45.7898 14.8539L44.0327 10.8512C43.9719 10.7116 43.8488 10.6235 43.7158 10.6235H33.216C33.0816 10.6235 32.9599 10.7116 32.8991 10.8512L31.142 14.8539C31.019 15.1332 31.1916 15.4656 31.4589 15.4656ZM36.6763 13.9995L36.9154 12.7678C36.9366 12.6597 37.0201 12.5816 37.1149 12.5816H39.7632C39.8594 12.5816 39.9414 12.6597 39.9626 12.7678L40.2031 13.9995C40.2329 14.1508 40.1352 14.2937 40.0037 14.2937H38.0019H36.8744C36.7442 14.2937 36.6466 14.1508 36.6763 13.9995Z" fill="#00D280"/>
</g>
<mask id="mask3_1_3365" style="mask-type:luminance" maskUnits="userSpaceOnUse" x="32" y="0" width="13" height="10">
<path d="M32.6113 0.689941H44.2005V9.54473H32.6113V0.689941Z" fill="white"/>
</mask>
<g mask="url(#mask3_1_3365)">
<path d="M43.0064 0.750488H33.9227C33.395 0.750488 32.965 1.25581 32.965 1.87583V8.00287C32.965 8.62455 33.395 9.12821 33.9227 9.12821H43.0064C43.5355 9.12821 43.9642 8.62455 43.9642 8.00287V1.87583C43.9642 1.25581 43.5355 0.750488 43.0064 0.750488ZM42.6924 7.63551H34.2368V2.24485H42.6924V7.63551Z" fill="#00D280"/>
</g>
<mask id="mask4_1_3365" style="mask-type:luminance" maskUnits="userSpaceOnUse" x="17" y="0" width="12" height="8">
<path d="M17.7627 0.689941H28.9897V7.84259H17.7627V0.689941Z" fill="white"/>
</mask>
<g mask="url(#mask4_1_3365)">
<path d="M28.6074 3.48095L25.1952 0.912779C24.8995 0.6917 24.5076 0.791434 24.3181 1.14051C24.1285 1.48625 24.2148 1.94836 24.5105 2.1711L26.0935 3.36293H18.6635C18.3127 3.36293 18.0283 3.69704 18.0283 4.10928C18.0283 4.52151 18.3127 4.85563 18.6635 4.85563H26.0935L24.5105 6.04746C24.2148 6.2702 24.1285 6.7323 24.3181 7.07971C24.4383 7.30245 24.6434 7.4238 24.8528 7.4238C24.9702 7.4238 25.0891 7.38556 25.1952 7.30578L28.6074 4.73927C28.7899 4.6013 28.9002 4.3636 28.9002 4.10928C28.9002 3.85495 28.7899 3.61725 28.6074 3.48095Z" fill="#00D280"/>
</g>
<path d="M18.3212 12.7382L21.7334 15.3064C22.0291 15.5275 22.4224 15.4277 22.6119 15.0787C22.8015 14.7329 22.7152 14.2708 22.4195 14.0481L20.8351 12.8562H28.2651C28.6159 12.8562 28.9002 12.5221 28.9002 12.1099C28.9002 11.6977 28.6159 11.3635 28.2651 11.3635H20.8351L22.4195 10.1718C22.7152 9.94901 22.8015 9.4869 22.6119 9.13949C22.4903 8.91675 22.2851 8.79541 22.0758 8.79541C21.9584 8.79541 21.8409 8.83364 21.7334 8.91343L18.3212 11.4799C18.1387 11.6179 18.0283 11.8556 18.0283 12.1099C18.0283 12.3642 18.1387 12.6019 18.3212 12.7382Z" fill="#00D280"/>
</g>
</g>
<defs>
<clipPath id="clip0_1_3365">
<rect width="45" height="45" fill="white" transform="translate(0.830078 0.689941)"/>
</clipPath>
<clipPath id="clip1_1_3365">
<rect width="45" height="45" fill="white" transform="translate(0.830078 0.689941)"/>
</clipPath>
</defs>
</svg>
