<svg width="56" height="56" viewBox="0 0 56 56" fill="none" xmlns="http://www.w3.org/2000/svg">
<g clip-path="url(#clip0_1_3122)">
<g clip-path="url(#clip1_1_3122)">
<g clip-path="url(#clip2_1_3122)">
<mask id="mask0_1_3122" style="mask-type:luminance" maskUnits="userSpaceOnUse" x="0" y="0" width="56" height="56">
<path d="M0.5 0.5H55.5V55.5H0.5V0.5Z" fill="white"/>
</mask>
<g mask="url(#mask0_1_3122)">
<path fill-rule="evenodd" clip-rule="evenodd" d="M49.1646 4.404L54.2105 2.4592L49.1646 0.514404L44.1187 2.4592L49.1646 4.404ZM24.4285 12.341V6.60018C24.4285 6.19875 24.1072 5.87527 23.7085 5.87527H14.7141V7.3251H22.9885V12.7424C23.4588 12.5866 23.9407 12.4541 24.4285 12.341ZM31.5803 12.341C32.0681 12.4541 32.55 12.5866 33.0203 12.7424V7.3251H41.2947V5.87527H32.3003C31.9016 5.87527 31.5803 6.19875 31.5803 6.60018V12.341ZM31.5803 43.9294V49.6703C31.5803 50.0717 31.9016 50.3952 32.3003 50.3952H41.2947V48.9454H33.0203V43.528C32.55 43.682 32.0681 43.8184 31.5803 43.9294ZM22.9885 48.9434H14.7141V50.3932H23.7085C24.1072 50.3932 24.4285 50.0697 24.4285 49.6683V43.9294C23.9407 43.8163 23.4588 43.682 22.9885 43.526V48.9434ZM6.12421 48.7486L0.505371 46.5836V53.3104L6.12421 55.4773V48.7486ZM6.84423 47.4741L1.7983 45.5293L6.84423 43.5845L11.8921 45.5293L6.84423 47.4741ZM13.185 53.3124V46.5836L7.56618 48.7486V55.4794L13.185 53.3124ZM49.8846 48.7486V55.4773L55.5054 53.3104V46.5836L49.8846 48.7486ZM48.4446 48.7486L42.8238 46.5836V53.3104L48.4446 55.4773V48.7486ZM49.1646 43.5845L54.2105 45.5293L49.1646 47.4741L44.1187 45.5293L49.1646 43.5845ZM28.8744 30.612C28.8744 30.1288 28.4854 29.7371 28.0054 29.7371C27.5254 29.7371 27.1344 30.1288 27.1344 30.612C27.1344 31.0934 27.5254 31.487 28.0054 31.487C28.4854 31.487 28.8744 31.0953 28.8744 30.612ZM34.4719 26.3346C34.8881 26.3346 35.2268 26.6757 35.2268 27.0946V36.462C35.2268 36.8829 34.8881 37.2259 34.4719 37.2259H21.5388C21.1207 37.2259 20.782 36.8829 20.782 36.462V27.0946C20.782 26.6737 21.1207 26.3346 21.5388 26.3346H34.4719ZM30.3164 30.612C30.3164 31.639 29.6467 32.5139 28.7254 32.8199V34.3808C28.7254 34.7803 28.4041 35.1057 28.0054 35.1057C27.6067 35.1057 27.2834 34.7803 27.2834 34.3808V32.8199C26.3621 32.5139 25.6943 31.639 25.6943 30.612C25.6943 29.3298 26.7299 28.2872 28.0054 28.2872C29.2789 28.2872 30.3164 29.3298 30.3164 30.612ZM28.0054 16.8387C25.2163 16.8387 22.9478 19.1225 22.9478 21.9286V24.8829H33.0629V21.9286C33.0629 19.1225 30.7945 16.8387 28.0054 16.8387ZM28.0054 13.3913C36.0843 13.3913 42.6554 20.0053 42.6554 28.1352C42.6554 36.2632 36.0843 42.8771 28.0054 42.8771C19.9265 42.8771 13.3534 36.2632 13.3534 28.1352C13.3534 20.0053 19.9265 13.3913 28.0054 13.3913ZM28.0054 15.3888C31.588 15.3888 34.5029 18.3215 34.5029 21.9286V24.8848C35.701 24.9023 36.6688 25.8864 36.6688 27.0946V36.462C36.6688 37.6838 35.6836 38.6757 34.4719 38.6757H21.5388C20.3252 38.6757 19.34 37.6838 19.34 36.462V27.0946C19.34 25.8864 20.3097 24.9023 21.5059 24.8848V21.9286C21.5059 18.3236 24.4208 15.3888 28.0054 15.3888ZM6.84423 4.404L11.8921 2.4592L6.84423 0.514404L1.7983 2.4592L6.84423 4.404ZM6.12421 12.4092L0.505371 10.2423V3.51345L6.12421 5.67845V12.4092ZM13.185 10.2423L7.56618 12.4092V5.68039L13.185 3.51539V10.2423ZM48.4446 12.4092L42.8238 10.2423V3.51345L48.4446 5.67845V12.4092ZM55.5054 3.51345V10.2423L49.8846 12.4073V5.68039L55.5054 3.51345Z" fill="white"/>
</g>
</g>
</g>
</g>
<defs>
<clipPath id="clip0_1_3122">
<rect width="55" height="55" fill="white" transform="translate(0.5 0.5)"/>
</clipPath>
<clipPath id="clip1_1_3122">
<rect width="55" height="55" fill="white" transform="translate(0.5 0.5)"/>
</clipPath>
<clipPath id="clip2_1_3122">
<rect width="55" height="55" fill="white" transform="translate(0.5 0.5)"/>
</clipPath>
</defs>
</svg>
