<svg width="56" height="56" viewBox="0 0 56 56" fill="none" xmlns="http://www.w3.org/2000/svg">
<g clip-path="url(#clip0_1_3208)">
<g clip-path="url(#clip1_1_3208)">
<g clip-path="url(#clip2_1_3208)">
<mask id="mask0_1_3208" style="mask-type:luminance" maskUnits="userSpaceOnUse" x="0" y="-12" width="56" height="55">
<path d="M0.945862 -11.1055H55.0442V42.9929H0.945862V-11.1055Z" fill="white"/>
</mask>
<g mask="url(#mask0_1_3208)">
<path fill-rule="evenodd" clip-rule="evenodd" d="M17.4044 19.676C18.6397 18.1185 19.3767 16.1535 19.3767 14.0167C19.3767 8.96384 15.2554 4.86832 10.17 4.86832C5.08565 4.86832 0.964355 8.96384 0.964355 14.0167C0.964355 19.0696 5.08565 23.1651 10.17 23.1651C12.3905 23.1651 14.4258 22.3847 16.0166 21.0848C16.0628 21.0472 16.1301 21.0492 16.1732 21.0901L19.8687 24.5958C19.8929 24.6189 19.9055 24.6472 19.9055 24.6807V28.7762C19.9055 28.8181 19.9255 28.8537 19.9613 28.8768C19.997 28.8988 20.038 28.9009 20.0759 28.882L21.6097 28.1383C21.6508 28.1184 21.676 28.0786 21.676 28.0325V24.2523C21.676 24.0009 21.5698 23.7747 21.4005 23.6144H21.4016L17.4159 19.8332C17.3717 19.7913 17.3665 19.7232 17.4044 19.676ZM12.9613 42.901V30.1128C12.9613 30.0645 12.9182 30.0216 12.8699 30.0216H9.84513C9.79676 30.0216 9.75365 30.0645 9.75365 30.1128V42.901C9.75365 42.9492 9.79676 42.9911 9.84513 42.9911H12.8699C12.9182 42.9911 12.9613 42.9492 12.9613 42.901ZM18.4862 31.2011C19.343 31.0146 20.9695 30.228 22.5129 29.4916C25.1476 28.2357 25.8131 28.0964 27.6287 28.4452C27.6372 28.4463 27.6445 28.4494 27.653 28.4526C27.7559 28.4966 27.8705 28.5217 27.9904 28.5227C27.9977 28.5227 28.0051 28.5238 28.0135 28.5259L28.7684 28.684C30.0815 28.969 34.6675 29.8163 34.6675 31.2597C34.6675 31.4944 34.6592 31.6263 34.5845 31.8599C34.4636 32.2338 34.4363 32.1553 34.2975 32.3113C33.8791 32.7753 33.2724 33.0173 32.6321 32.966L24.8742 32.3459C24.3853 32.3082 23.9574 32.6716 23.9186 33.1577C23.8807 33.6426 24.2466 34.0679 24.7354 34.1056L32.4933 34.7257C33.0895 34.7728 33.6698 34.6775 34.1976 34.4681C34.6328 34.2962 35.0303 34.0459 35.3688 33.7348C35.3783 33.7265 35.3867 33.7201 35.3982 33.7149C35.4277 33.7013 35.456 33.6856 35.4834 33.6688L35.4855 33.6678L45.1537 28.0901C45.6583 27.799 46.2419 27.734 46.7759 27.8649C48.6 28.3122 48.9481 30.6355 47.3468 31.5708C42.6273 34.3256 31.8657 41.069 29.1721 40.9151C24.3738 40.6406 19.5764 39.7723 14.8747 40.4511C14.839 40.4563 14.8065 40.4468 14.7802 40.4237C14.7528 40.3997 14.7391 40.3693 14.7391 40.3348V31.7834C14.7391 31.7206 14.7876 31.6693 14.8506 31.6661C16.0701 31.5938 17.3003 31.4597 18.4862 31.2011ZM36.6263 14.0167C36.6263 16.1535 37.3632 18.1185 38.5975 19.676C38.6354 19.7232 38.6311 19.7913 38.587 19.8332L34.6497 23.5683C34.6476 23.5704 34.6454 23.5715 34.6434 23.5736C34.4478 23.7359 34.3237 23.98 34.3237 24.2523V28.5804C34.3237 28.6275 34.3501 28.6684 34.3921 28.6872C34.9283 28.9323 35.4497 29.2297 35.8997 29.6026C35.9365 29.6319 35.9838 29.6382 36.0259 29.6183C36.069 29.5985 36.0942 29.5586 36.0942 29.5126L36.1016 24.6776C36.1016 24.6441 36.1131 24.6148 36.1373 24.5917L39.8297 21.0901C39.8728 21.0492 39.9401 21.0461 39.9863 21.0848C41.576 22.3847 43.6124 23.1651 45.8318 23.1651C50.9172 23.1651 55.0385 19.0696 55.0385 14.0167C55.0385 8.96384 50.9172 4.86832 45.8318 4.86832C40.7475 4.86832 36.6263 8.96384 36.6263 14.0167ZM42.0796 18.2997V12.0213C42.0796 11.9564 42.1321 11.904 42.1973 11.904H43.8332C43.8984 11.904 43.9521 11.8506 43.9521 11.7867V9.73266C43.9521 8.93661 44.607 8.28508 45.4081 8.28508C46.2092 8.28508 46.8643 8.93661 46.8643 9.73266V11.7867C46.8643 11.8506 46.9179 11.904 46.9831 11.904H47.9566C49.7597 11.904 51.2347 13.3693 51.2347 15.1605C51.2347 16.9516 49.7597 18.417 47.9566 18.417H42.1973C42.1321 18.417 42.0796 18.3646 42.0796 18.2997ZM28.9955 7.14235C28.9355 7.14857 28.8904 7.19888 28.8904 7.25965V27.006C28.8904 27.0427 28.8746 27.0741 28.8462 27.0972C28.8178 27.1202 28.7842 27.1286 28.7474 27.1212L28.1491 26.9987C28.1471 26.9987 28.146 26.9976 28.1439 26.9976L27.2135 26.8573C27.1546 26.8479 27.1125 26.7986 27.1125 26.74V7.25857C27.1125 7.19888 27.0673 7.14857 27.0063 7.14235C22.3898 6.64897 18.7953 2.76507 18.7953 -1.95366C18.7953 -7.00655 22.9166 -11.1021 28.0009 -11.1021C33.0863 -11.1021 37.2076 -7.00655 37.2076 -1.95366C37.2076 2.76507 33.6131 6.64897 28.9955 7.14235ZM33.1578 -1.85106C33.1956 -1.87306 33.2167 -1.90966 33.2167 -1.95366C33.2167 -1.99658 33.1956 -2.03328 33.1578 -2.05528L25.546 -6.42207C25.5081 -6.44407 25.465 -6.44407 25.4272 -6.42207C25.3904 -6.40112 25.3683 -6.36342 25.3683 -6.32047V2.41316C25.3683 2.45707 25.3904 2.49376 25.4272 2.51576C25.465 2.53668 25.5081 2.53668 25.546 2.51576L33.1578 -1.85106ZM12.1791 9.94004C13.6542 9.94004 14.8506 11.1279 14.8506 12.5943C14.8506 14.9845 12.3442 17.7058 10.2194 18.6621C10.1869 18.6767 10.1531 18.6767 10.1217 18.6621C7.99685 17.7058 5.49042 14.9845 5.49042 12.5943C5.49042 11.1279 6.68581 9.94004 8.16191 9.94004C8.91678 9.94004 9.5991 10.2511 10.0848 10.7529C10.108 10.7769 10.1374 10.7885 10.17 10.7885C10.2036 10.7885 10.232 10.7769 10.2551 10.7529C10.7409 10.2511 11.4232 9.94004 12.1791 9.94004Z" fill="white"/>
</g>
</g>
</g>
</g>
<defs>
<clipPath id="clip0_1_3208">
<rect width="54.09" height="55" fill="white" transform="translate(0.950012 0.5)"/>
</clipPath>
<clipPath id="clip1_1_3208">
<rect width="54.09" height="55" fill="white" transform="translate(0.950012 -11.5)"/>
</clipPath>
<clipPath id="clip2_1_3208">
<rect width="54.0984" height="55" fill="white" transform="translate(0.945862 -11.5)"/>
</clipPath>
</defs>
</svg>
