<svg width="66" height="65" viewBox="0 0 66 65" fill="none" xmlns="http://www.w3.org/2000/svg">
<rect x="0.5" width="65" height="65" rx="8" fill="#00D280" fill-opacity="0.2"/>
<g clip-path="url(#clip0_1_2999)">
<g clip-path="url(#clip1_1_2999)">
<g clip-path="url(#clip2_1_2999)">
<mask id="mask0_1_2999" style="mask-type:luminance" maskUnits="userSpaceOnUse" x="12" y="11" width="42" height="42">
<path d="M12.9457 11.9907H53.0544V52.0994H12.9457V11.9907Z" fill="white"/>
</mask>
<g mask="url(#mask0_1_2999)">
<path d="M23.2374 31.7029C23.2374 31.6218 23.2508 31.5431 23.2784 31.4682C23.3065 31.3925 23.3455 31.3259 23.3965 31.2684C23.4482 31.2109 23.5067 31.1662 23.5738 31.1352C23.641 31.1041 23.7102 31.0882 23.7827 31.0882H26.571C26.6429 31.0882 26.7127 31.1041 26.7799 31.1352C26.8464 31.1662 26.9055 31.2109 26.9566 31.2684C27.0076 31.3259 27.0472 31.3925 27.0748 31.4682C27.1023 31.5431 27.1164 31.6218 27.1164 31.7029C27.1164 31.7846 27.1023 31.8633 27.0748 31.9382C27.0472 32.0139 27.0076 32.0805 26.9566 32.138C26.9055 32.1956 26.8464 32.2402 26.7799 32.2712C26.7127 32.3023 26.6429 32.3181 26.571 32.3181H23.7827C23.7102 32.3181 23.641 32.3023 23.5738 32.2712C23.5073 32.2402 23.4482 32.1956 23.3972 32.138C23.3455 32.0805 23.3065 32.0139 23.2784 31.9382C23.2508 31.8633 23.2374 31.7846 23.2374 31.7029ZM24.1985 16.7718H32.308L30.6852 19.2498C30.6422 19.3157 30.612 19.3876 30.5945 19.4671C30.5771 19.5465 30.5737 19.626 30.5845 19.707C30.5952 19.7872 30.6193 19.8629 30.657 19.9325C30.6939 20.0029 30.7416 20.062 30.8001 20.1104C30.8585 20.1588 30.923 20.1929 30.9929 20.2126C31.0634 20.2323 31.1346 20.2361 31.2058 20.2232C31.2776 20.2111 31.3441 20.1838 31.4066 20.1422C31.4684 20.0998 31.5208 20.0453 31.5637 19.9802L33.8281 16.522C33.8301 16.5198 33.8315 16.5167 33.8335 16.5137C33.8368 16.5084 33.8401 16.5024 33.8435 16.4963C33.8536 16.4797 33.863 16.4622 33.8711 16.4448C33.8724 16.441 33.8751 16.438 33.8764 16.4342C33.8778 16.432 33.8778 16.4297 33.8792 16.4274C33.8892 16.404 33.8986 16.3797 33.906 16.3555L33.9067 16.3532C33.9134 16.3298 33.9188 16.3056 33.9235 16.2813C33.9248 16.2753 33.9255 16.2692 33.9261 16.2639C33.9295 16.2412 33.9322 16.2185 33.9335 16.1958C33.9335 16.1928 33.9343 16.1898 33.9343 16.1875C33.9356 16.1625 33.9349 16.1375 33.9335 16.1126C33.9328 16.1057 33.9322 16.0997 33.9315 16.0936C33.9295 16.074 33.9275 16.0543 33.9235 16.0346C33.9228 16.0285 33.9221 16.0225 33.9208 16.0172C33.9155 15.993 33.9094 15.9688 33.902 15.9453C33.9007 15.9415 33.8986 15.9377 33.898 15.9339C33.8906 15.9135 33.8819 15.8931 33.8731 15.8741C33.8704 15.8688 33.8684 15.8643 33.8657 15.859C33.8543 15.8355 33.8416 15.8121 33.8268 15.7901L31.5637 12.3319C31.5208 12.2661 31.4684 12.2123 31.4066 12.17C31.3441 12.1276 31.2776 12.1003 31.2058 12.0882C31.1346 12.0761 31.0634 12.0799 30.9929 12.0996C30.923 12.1193 30.8585 12.1533 30.8001 12.2018C30.7416 12.2502 30.6939 12.3092 30.657 12.3789C30.6193 12.4485 30.5952 12.5242 30.5845 12.6044C30.5737 12.6854 30.5771 12.7656 30.5945 12.8443C30.612 12.9238 30.6422 12.9965 30.6852 13.0616L32.3087 15.5426H24.1985C24.126 15.5426 24.0561 15.5578 23.9896 15.5888C23.9225 15.6206 23.8634 15.6645 23.8123 15.722C23.7613 15.7803 23.7216 15.8461 23.6941 15.9218C23.6665 15.9968 23.6524 16.0755 23.6524 16.1572C23.6524 16.2382 23.6665 16.3169 23.6941 16.3926C23.7216 16.4675 23.7613 16.5341 23.8123 16.5917C23.8634 16.6492 23.9225 16.6939 23.9896 16.7249C24.0561 16.7559 24.126 16.7718 24.1985 16.7718ZM18.5784 19.4322C18.5804 19.4519 18.5831 19.4716 18.5865 19.4913C18.5871 19.4966 18.5885 19.5026 18.5898 19.5087C18.5945 19.5329 18.6013 19.5571 18.6086 19.5806C18.61 19.5844 18.6113 19.5882 18.6127 19.592C18.6194 19.6124 18.6281 19.6328 18.6369 19.6525C18.6395 19.657 18.6416 19.6623 18.6436 19.6669C18.6557 19.6903 18.6684 19.713 18.6825 19.735L20.9462 23.1917C20.9892 23.2568 21.0416 23.3105 21.1033 23.3529C21.1651 23.3945 21.2323 23.4218 21.3035 23.4339C21.3754 23.446 21.4459 23.4422 21.5164 23.4226C21.5863 23.4029 21.6508 23.3688 21.7092 23.3203C21.767 23.2719 21.8147 23.2128 21.8523 23.1432C21.8899 23.0736 21.9134 22.9987 21.9248 22.9177C21.9356 22.8374 21.9322 22.7572 21.9148 22.6785C21.8973 22.5991 21.8671 22.5272 21.8241 22.4613L20.2019 19.9833H28.3121C28.3846 19.9833 28.4538 19.9674 28.5209 19.9363C28.5875 19.9053 28.6466 19.8606 28.6976 19.8031C28.7494 19.7456 28.7883 19.679 28.8159 19.6041C28.844 19.5284 28.8575 19.4504 28.8575 19.3687C28.8575 19.2869 28.844 19.209 28.8159 19.1333C28.7883 19.0583 28.7494 18.9917 28.6976 18.9342C28.6466 18.8759 28.5875 18.832 28.5209 18.8003C28.4538 18.7692 28.3846 18.7541 28.3121 18.7541H20.2019L21.8247 16.2761C21.8678 16.2102 21.898 16.1383 21.9155 16.0588C21.9329 15.9801 21.9362 15.8999 21.9255 15.8189C21.9148 15.7387 21.8906 15.663 21.853 15.5933C21.816 15.5237 21.7677 15.4647 21.7099 15.4162C21.6515 15.3678 21.5869 15.3337 21.5171 15.314C21.4466 15.2944 21.3754 15.2906 21.3042 15.3027C21.2323 15.3148 21.1658 15.3421 21.104 15.3844C21.0416 15.4261 20.9892 15.4806 20.9462 15.5457L18.6819 19.0031C18.6805 19.0061 18.6785 19.0091 18.6772 19.0122C18.6738 19.0175 18.6704 19.0235 18.6671 19.0296C18.6563 19.0462 18.6476 19.0636 18.6389 19.0818C18.6375 19.0856 18.6355 19.0879 18.6342 19.0916C18.6328 19.0954 18.6328 19.0962 18.6315 19.0977C18.6214 19.1219 18.612 19.1461 18.6046 19.1711L18.6039 19.1726C18.5972 19.1961 18.5912 19.2203 18.5871 19.2445C18.5858 19.2506 18.5851 19.2567 18.5838 19.2627C18.5804 19.2847 18.5784 19.3074 18.5771 19.3301C18.5771 19.3331 18.5764 19.3361 18.5764 19.3392C18.5751 19.3641 18.5757 19.3891 18.5771 19.4133C18.5777 19.4194 18.5777 19.4254 18.5784 19.4322ZM53.0153 18.8108V40.9686C53.0153 41.1684 52.9978 41.3659 52.9629 41.5619C52.928 41.758 52.8769 41.948 52.8091 42.1319C52.7412 42.3166 52.658 42.4922 52.5592 42.658C52.4611 42.8237 52.349 42.9773 52.2234 43.1189C52.0984 43.2597 51.9621 43.3861 51.815 43.4973C51.6672 43.6078 51.512 43.7017 51.3481 43.7781C51.1842 43.8545 51.0157 43.9128 50.8417 43.9514C50.6683 43.9908 50.4924 44.0104 50.315 44.0104H48.0407C48.0688 44.1921 48.1239 44.3624 48.2052 44.5221L48.848 45.8012C48.8991 45.9027 48.9226 46.0124 48.9186 46.129C48.9139 46.2463 48.8829 46.3531 48.8246 46.4491C48.1394 47.589 47.3112 48.576 46.3399 49.4109C46.2532 49.4858 46.1552 49.5274 46.0464 49.5357C45.9369 49.544 45.8348 49.5175 45.74 49.457L44.746 48.822C44.6512 48.7591 44.5511 48.7107 44.4457 48.6759C44.3402 48.6411 44.2327 48.6206 44.1226 48.6161C44.0131 48.6115 43.9043 48.6221 43.7968 48.6486C43.6893 48.6744 43.5866 48.7145 43.4879 48.7697C43.3515 48.8432 43.2232 48.909 43.0989 48.9658C42.9021 49.0521 42.7342 49.1845 42.5945 49.3632C42.4555 49.541 42.3594 49.7454 42.3083 49.9762L41.9698 51.3469C41.9423 51.4612 41.8892 51.5581 41.8113 51.6376C41.7334 51.7178 41.6433 51.7677 41.5399 51.7882C40.3792 52.0198 39.2151 52.0463 38.0477 51.8669C37.9396 51.8503 37.8449 51.8011 37.7622 51.7208C37.6803 51.6398 37.6245 51.5399 37.5956 51.4219L37.2887 50.1723C37.2619 50.0527 37.2222 49.9384 37.1698 49.8301C37.1174 49.7219 37.0536 49.622 36.9798 49.5312C36.9052 49.4411 36.8219 49.3616 36.7305 49.2951C36.6385 49.2277 36.5404 49.1739 36.437 49.1338C36.259 49.0627 36.0675 48.9756 35.854 48.8705C35.6572 48.7667 35.4496 48.7213 35.2326 48.7327C35.015 48.7448 34.8128 48.8129 34.6254 48.9377L33.5802 49.6023C33.4868 49.6614 33.3868 49.6879 33.28 49.6803C33.1732 49.6734 33.0765 49.6341 32.9898 49.563C32.5243 49.18 32.0877 48.7584 31.68 48.299C31.2729 47.8396 30.8981 47.3483 30.5569 46.8246C30.4931 46.727 30.4582 46.6179 30.4514 46.4968C30.4454 46.3757 30.4689 46.2629 30.522 46.1578L31.1137 44.9801C31.2246 44.7697 31.285 44.5418 31.2951 44.2973C31.3058 44.0536 31.2655 43.8205 31.1742 43.5987C31.0795 43.3565 31.0022 43.1401 30.9378 42.9357C30.9028 42.8191 30.8552 42.7101 30.7954 42.6065C30.7355 42.5035 30.6658 42.4105 30.5858 42.3272C30.5051 42.2439 30.4172 42.1727 30.3211 42.1137C30.2251 42.0547 30.1243 42.0108 30.0188 41.9798L28.9078 41.6308C28.8709 41.6187 28.8353 41.602 28.8011 41.5809H14.8901C14.786 41.5809 14.6825 41.571 14.5798 41.5506C14.4777 41.5302 14.3776 41.4999 14.2795 41.459C14.1815 41.4189 14.0874 41.3697 13.9974 41.3107C13.9074 41.2517 13.8221 41.1843 13.7428 41.1086C13.6629 41.0329 13.5897 40.9504 13.5232 40.8603C13.456 40.7703 13.3969 40.6741 13.3452 40.572C13.2935 40.4705 13.2498 40.3646 13.2149 40.254C13.1793 40.1436 13.1531 40.0301 13.1349 39.915C13.1175 39.7992 13.1087 39.6826 13.1094 39.5653C13.1101 39.448 13.1195 39.3314 13.1383 39.2157C13.1564 39.1006 13.184 38.9878 13.2202 38.8773C13.2565 38.7675 13.3008 38.6616 13.3539 38.5602C13.4063 38.4588 13.4661 38.3634 13.5339 38.2741C13.6011 38.1848 13.675 38.1031 13.7556 38.0281C13.8362 37.9531 13.9215 37.8866 14.0122 37.8291C14.1029 37.7708 14.1969 37.7223 14.295 37.6837L13.2948 24.6562C13.2914 24.6139 13.2921 24.5714 13.2968 24.5298C13.3015 24.4875 13.3096 24.4459 13.3217 24.4058C13.3344 24.3656 13.3499 24.327 13.3694 24.2899C13.3888 24.2536 13.411 24.2196 13.4365 24.1885C13.4621 24.1567 13.4903 24.1287 13.5212 24.1037C13.5514 24.0795 13.5843 24.0583 13.6192 24.0409C13.6535 24.0243 13.6891 24.0114 13.7267 24.0023C13.7637 23.9933 13.8006 23.9894 13.8389 23.9894H36.5176C36.5552 23.9894 36.5928 23.9933 36.6297 24.0023C36.6667 24.0114 36.703 24.0243 36.7372 24.0409C36.7722 24.0583 36.8044 24.0795 36.8353 24.1037C36.8662 24.1287 36.8944 24.1567 36.92 24.1885C36.9454 24.2196 36.9676 24.2536 36.9871 24.2899C37.0066 24.327 37.022 24.3656 37.0341 24.4058C37.0462 24.4459 37.055 24.4875 37.0596 24.5298C37.0637 24.5714 37.0643 24.6139 37.0617 24.6562L36.6869 29.5397C36.836 29.4398 36.9629 29.3118 37.067 29.1552C37.1718 28.9993 37.245 28.8259 37.2887 28.6367L37.5956 27.3871C37.6245 27.2683 37.6803 27.1684 37.7622 27.0881C37.8449 27.0071 37.9396 26.9579 38.0477 26.9412C38.3238 26.8996 38.6005 26.8694 38.8766 26.8497V18.8108C38.8773 18.611 38.8947 18.4135 38.929 18.2175C38.9639 18.0214 39.015 17.8314 39.0828 17.6468C39.1513 17.4628 39.234 17.2872 39.3327 17.1215C39.4315 16.955 39.543 16.8013 39.6686 16.6605C39.7941 16.519 39.9305 16.3934 40.0776 16.2821C40.2247 16.1708 40.3805 16.077 40.5444 16.0005C40.7076 15.9241 40.877 15.8666 41.0503 15.8272C41.2242 15.7886 41.4002 15.7689 41.5768 15.7682H50.315C50.4924 15.7689 50.6677 15.7886 50.8417 15.8272C51.0157 15.8666 51.1842 15.9241 51.3481 16.0005C51.512 16.077 51.6672 16.1708 51.815 16.2821C51.9621 16.3934 52.0984 16.519 52.2234 16.6605C52.349 16.8013 52.4611 16.955 52.5592 17.1215C52.658 17.2872 52.7412 17.4628 52.8091 17.6468C52.8769 17.8314 52.928 18.0214 52.9629 18.2175C52.9978 18.4135 53.0153 18.611 53.0153 18.8108ZM42.0276 16.9981L42.3319 17.8473H49.5587L49.8637 16.9981H42.0276ZM14.4333 25.2186L15.3818 37.5679H28.5397C28.5687 37.4725 28.6157 37.3893 28.6808 37.3197C28.746 37.25 28.8219 37.2016 28.9086 37.1743L30.0182 36.8284C30.1237 36.7982 30.2251 36.7535 30.3211 36.6944C30.4172 36.6354 30.5059 36.5643 30.5858 36.4803C30.6664 36.3962 30.7363 36.3032 30.7961 36.1995C30.8558 36.0957 30.9035 35.986 30.9384 35.8694C31.0022 35.6681 31.0788 35.4524 31.1728 35.2125C31.2642 34.99 31.3052 34.7568 31.2951 34.5116C31.2843 34.2671 31.2239 34.0393 31.1137 33.8282L30.522 32.6512C30.4689 32.5459 30.4454 32.4332 30.4521 32.3121C30.4582 32.1917 30.4931 32.082 30.5562 31.9843C30.8974 31.4606 31.2723 30.9686 31.68 30.5092C32.0884 30.0506 32.5243 29.629 32.9885 29.2438C33.0751 29.1725 33.1726 29.1324 33.2793 29.1257C33.3868 29.1181 33.4875 29.1446 33.5809 29.2044L34.6261 29.8719C34.7658 29.9643 34.9149 30.0256 35.0748 30.0558C35.2347 30.0861 35.3939 30.0831 35.5523 30.0475L35.9231 25.2193L14.4333 25.2186ZM14.8901 40.3509H28.4444C28.4236 40.0338 28.4115 39.7167 28.4115 39.4026C28.4115 39.2027 28.4175 39.0007 28.4263 38.7978H14.8901C14.7994 38.7993 14.7114 38.8197 14.6281 38.8599C14.5442 38.8993 14.4696 38.956 14.4051 39.028C14.3413 39.1006 14.2909 39.1846 14.256 39.2792C14.2204 39.3731 14.2023 39.4722 14.2009 39.5744C14.2009 39.6258 14.2056 39.6758 14.2144 39.7258C14.2231 39.7758 14.2365 39.8242 14.2533 39.8718C14.2708 39.9188 14.2923 39.9635 14.3171 40.0058C14.3427 40.0482 14.3709 40.0875 14.4031 40.1239C14.4347 40.1595 14.4696 40.192 14.5072 40.22C14.5448 40.2488 14.5845 40.2722 14.6268 40.2919C14.6684 40.3116 14.7114 40.326 14.7558 40.3366C14.8001 40.3464 14.8451 40.3509 14.8901 40.3509ZM47.7284 46.0685L47.2554 45.1276C47.111 44.8491 47.0143 44.5516 46.9652 44.2338C46.9162 43.9159 46.9182 43.5987 46.9713 43.2816C46.972 43.2771 46.9726 43.2717 46.974 43.2665C47.0043 43.0894 47.0486 42.916 47.1076 42.748L47.1103 42.7389C47.1158 42.7246 47.1211 42.7094 47.1265 42.6935C47.1346 42.6685 47.1433 42.6428 47.1519 42.6186C47.2185 42.4142 47.3058 42.2212 47.414 42.0411C47.5214 41.8602 47.6471 41.6967 47.7901 41.5498C47.9326 41.403 48.089 41.2781 48.2589 41.1737C48.4282 41.07 48.6069 40.9897 48.7936 40.9337L49.5829 40.687C49.6702 39.8317 49.6702 38.9772 49.5829 38.1219L48.7929 37.8752C48.6056 37.8185 48.4269 37.7382 48.257 37.6338C48.087 37.5285 47.9305 37.4029 47.7874 37.2553C47.6444 37.1084 47.5187 36.9443 47.4112 36.7626C47.3031 36.5809 47.2158 36.3879 47.1493 36.1828C47.1426 36.1631 47.1346 36.1382 47.1258 36.1139C47.1198 36.095 47.1137 36.076 47.107 36.0564C47.0385 35.8649 46.9901 35.6674 46.9612 35.4638C46.933 35.2601 46.9249 35.0551 46.9377 34.8492C46.9505 34.6433 46.984 34.442 47.0378 34.2452C47.0909 34.0476 47.1641 33.8599 47.2554 33.6813L47.7284 32.739C47.4173 32.2554 47.0734 31.802 46.6979 31.3804C46.4628 31.114 46.2163 30.8627 45.959 30.625L45.284 31.0557C45.1134 31.1677 44.9333 31.254 44.7439 31.316C44.5545 31.3774 44.3611 31.4122 44.1636 31.4205C43.9668 31.4288 43.7713 31.4099 43.5785 31.3637C43.3851 31.3176 43.2003 31.2464 43.0231 31.1487C42.9175 31.0936 42.8001 31.0338 42.6845 30.98C42.5112 30.9013 42.348 30.8014 42.1955 30.6796C42.043 30.5584 41.9047 30.4184 41.781 30.261C41.6568 30.1035 41.5506 29.9318 41.462 29.7463C41.374 29.5609 41.3055 29.3663 41.2571 29.1627L41.0119 28.1704C40.1932 28.038 39.3723 28.0191 38.5495 28.113L38.3399 28.9644C38.2902 29.1786 38.2177 29.383 38.1229 29.5767C38.0289 29.7712 37.9147 29.9491 37.7818 30.1119C37.6481 30.2745 37.4997 30.4161 37.335 30.538C37.1705 30.6591 36.9958 30.7567 36.8104 30.8294C36.6264 30.9035 36.4599 30.9785 36.2979 31.0609L36.2959 31.0617C36.2785 31.0708 36.2616 31.0791 36.2435 31.086C36.0716 31.1692 35.8929 31.229 35.7082 31.2653C35.5242 31.3017 35.3381 31.313 35.1507 31.3009C34.964 31.288 34.7806 31.2517 34.6012 31.1912C34.4219 31.1298 34.2506 31.0466 34.0887 30.9414L33.3559 30.4737C32.7191 31.0383 32.1501 31.6793 31.6484 32.3969L32.0629 33.2226C32.1596 33.4096 32.2355 33.6071 32.2899 33.8153C32.3443 34.0227 32.3765 34.2346 32.386 34.451C32.3953 34.6675 32.3819 34.8817 32.3456 35.0944C32.3094 35.3071 32.2509 35.5122 32.171 35.709C32.0891 35.9202 32.0213 36.1094 31.9655 36.2865C31.9003 36.4961 31.8143 36.6937 31.7069 36.8791C31.5987 37.0646 31.4724 37.2326 31.328 37.3832C31.1836 37.5339 31.025 37.6625 30.8531 37.7693C30.6805 37.8759 30.4992 37.9577 30.3083 38.0145L29.554 38.2498C29.5198 38.6366 29.503 39.0226 29.503 39.4034C29.503 39.7848 29.5198 40.1716 29.554 40.5576L30.3097 40.7945C30.4998 40.8512 30.6812 40.9322 30.8531 41.0389C31.025 41.1457 31.1836 41.2736 31.328 41.4242C31.4718 41.5741 31.5981 41.7421 31.7056 41.9267C31.8137 42.1122 31.8996 42.309 31.9641 42.5179C32.0219 42.6988 32.0891 42.888 32.1723 43.1007C32.2516 43.2975 32.31 43.5026 32.3456 43.7153C32.3819 43.9272 32.3953 44.1415 32.386 44.3579C32.3765 44.5736 32.3443 44.7855 32.2899 44.9929C32.2355 45.2003 32.1603 45.3978 32.0635 45.5848L31.649 46.4105C31.899 46.7678 32.1663 47.1076 32.4518 47.4293C32.7372 47.7503 33.0381 48.0514 33.3559 48.3323L34.088 47.866C34.2546 47.7578 34.4299 47.6723 34.614 47.611C34.798 47.5496 34.9868 47.5141 35.1783 47.5035C35.3703 47.4929 35.5604 47.508 35.7491 47.5489C35.9379 47.5897 36.1199 47.6549 36.2946 47.7449C36.482 47.8381 36.6506 47.9137 36.8071 47.9773C36.9925 48.0499 37.1678 48.1468 37.3331 48.2687C37.4976 48.3898 37.6467 48.5321 37.7804 48.6949C37.914 48.8575 38.0283 49.0361 38.1229 49.2307C38.2177 49.4245 38.2902 49.6296 38.3406 49.8438L38.5495 50.6952C39.3723 50.7884 40.1938 50.7695 41.0126 50.6377L41.2571 49.6462C41.3048 49.4426 41.3734 49.2481 41.4613 49.0627C41.55 48.8772 41.6561 48.7054 41.7797 48.5473C41.9033 48.3898 42.0417 48.2505 42.1942 48.1287C42.3467 48.0068 42.5099 47.907 42.6831 47.8282C42.7886 47.7798 42.8981 47.7245 43.0197 47.6579C43.197 47.561 43.3824 47.4891 43.5759 47.4429C43.7693 47.3968 43.9647 47.3779 44.1615 47.3862C44.359 47.3945 44.5532 47.4293 44.7426 47.4913C44.9327 47.5535 45.1127 47.6404 45.2833 47.7525L45.9584 48.1832C46.2156 47.9455 46.4635 47.6927 46.6972 47.4293C47.0721 47.0062 47.416 46.5529 47.7284 46.0685ZM51.9238 18.8108C51.9231 18.6368 51.9016 18.4672 51.8579 18.3C51.8143 18.1334 51.7505 17.9775 51.6672 17.8314C51.5839 17.6854 51.4838 17.5559 51.3669 17.4416C51.2507 17.3281 51.1224 17.2358 50.9821 17.1631L50.4319 18.6928C50.3902 18.8086 50.3231 18.9017 50.231 18.9721C50.1391 19.0417 50.0376 19.0765 49.9261 19.0765H41.9638C41.8523 19.0765 41.7508 19.0417 41.6588 18.9721C41.5661 18.9017 41.4997 18.8086 41.4579 18.692L40.9099 17.1639C40.7695 17.2358 40.6411 17.3289 40.525 17.4424C40.4081 17.5559 40.308 17.6854 40.2247 17.8314C40.1414 17.9775 40.0783 18.1334 40.0346 18.3C39.9909 18.4665 39.9688 18.6368 39.9688 18.8101V26.8346C40.496 26.855 41.02 26.9171 41.5399 27.0199C41.6433 27.0404 41.7341 27.0904 41.8113 27.1706C41.8892 27.2501 41.9423 27.347 41.9704 27.4605L42.3083 28.8327C42.36 29.0628 42.4561 29.2672 42.5959 29.4458C42.7355 29.6236 42.9035 29.7561 43.1003 29.8424C43.234 29.9045 43.3643 29.9711 43.4851 30.0346C43.5839 30.0899 43.6874 30.1308 43.7955 30.1573C43.903 30.183 44.0118 30.1943 44.1226 30.1898C44.2327 30.1852 44.341 30.1656 44.4464 30.1308C44.5525 30.0959 44.6533 30.0475 44.7479 29.984L45.74 29.3504C45.8355 29.2899 45.9375 29.2634 46.0464 29.2717C46.1552 29.28 46.2532 29.3217 46.3406 29.3966C47.3118 30.2314 48.14 31.2192 48.8252 32.359C48.8837 32.4559 48.9145 32.5626 48.9186 32.6792C48.9226 32.7958 48.8991 32.9048 48.848 33.0061L48.2052 34.286C48.0998 34.4859 48.0393 34.7031 48.0252 34.9354C48.0104 35.1678 48.0433 35.3919 48.1233 35.6068C48.1326 35.6349 48.1408 35.6598 48.1488 35.6841C48.1556 35.7029 48.1615 35.7218 48.1683 35.7415C48.2422 35.9754 48.3604 36.176 48.523 36.3441C48.6848 36.5113 48.8729 36.6263 49.0858 36.6892L50.2223 37.0449C50.3264 37.0774 50.4145 37.1387 50.4857 37.2303C50.5568 37.3212 50.6005 37.4264 50.6166 37.5467C50.7812 38.7842 50.7812 40.0225 50.6166 41.26C50.6005 41.3803 50.5568 41.4863 50.4857 41.5771C50.4138 41.6679 50.3264 41.73 50.2223 41.7618L49.0845 42.1183C48.9192 42.166 48.7688 42.2477 48.6318 42.362C48.4947 42.477 48.3819 42.6163 48.2932 42.7805H50.315C50.4205 42.7805 50.5253 42.7684 50.6287 42.745C50.7321 42.7222 50.8329 42.6875 50.9304 42.642C51.0277 42.5966 51.1204 42.5406 51.2084 42.474C51.2964 42.4081 51.377 42.3333 51.4522 42.2492C51.5268 42.1652 51.5933 42.0736 51.6517 41.9744C51.7109 41.8753 51.7599 41.7709 51.8008 41.6611C51.8412 41.5513 51.8714 41.4379 51.8922 41.3213C51.913 41.2047 51.9231 41.0874 51.9238 40.9678V18.8108ZM46.1989 39.4154C46.1989 39.6592 46.1888 39.9029 46.1672 40.1458C46.1458 40.3888 46.1142 40.6295 46.0719 40.8687C46.0296 41.1086 45.9772 41.3447 45.914 41.5786C45.8509 41.8118 45.7784 42.0411 45.6951 42.2666C45.6125 42.4922 45.5198 42.7124 45.4176 42.9274C45.3156 43.1431 45.2047 43.352 45.0839 43.5548C44.9636 43.7577 44.8346 43.9538 44.6976 44.1422C44.5599 44.3307 44.4148 44.5115 44.2616 44.6841C44.1085 44.8566 43.948 45.0202 43.7807 45.1753C43.6135 45.3297 43.4395 45.475 43.2594 45.6105C43.0795 45.746 42.8934 45.8717 42.7026 45.9867C42.5119 46.1017 42.3157 46.2055 42.1163 46.2993C41.9161 46.3924 41.7119 46.4749 41.505 46.5453C41.2974 46.6164 41.0879 46.6754 40.8756 46.7231C40.6626 46.7708 40.4491 46.8064 40.2335 46.8299C40.0179 46.8541 39.8015 46.8662 39.5852 46.8662C39.3683 46.8662 39.1527 46.8541 38.9371 46.8299C38.7215 46.8064 38.5072 46.7708 38.2949 46.7231C38.0827 46.6754 37.8724 46.6156 37.6655 46.5453C37.4579 46.4741 37.2545 46.3924 37.0543 46.2985C36.8541 46.2055 36.6586 46.101 36.4679 45.9859C36.2764 45.8709 36.091 45.746 35.9111 45.6105C35.731 45.4743 35.5571 45.3297 35.3898 45.1746C35.2226 45.0194 35.062 44.8559 34.9089 44.6834C34.7557 44.5108 34.6106 44.3306 34.473 44.1415C34.3359 43.9529 34.2069 43.7569 34.086 43.5541C33.9658 43.3512 33.8549 43.1423 33.7529 42.9274C33.6507 42.7116 33.558 42.4914 33.4754 42.2659C33.3922 42.0403 33.3196 41.811 33.2565 41.5779C33.1933 41.344 33.1409 41.1078 33.0987 40.8687C33.0563 40.6287 33.0248 40.388 33.0032 40.1451C32.9824 39.9021 32.9717 39.6584 32.9717 39.4147C32.9717 39.1702 32.9824 38.9272 33.0032 38.6843C33.0248 38.4413 33.0563 38.1999 33.0987 37.9607C33.1409 37.7216 33.1933 37.4854 33.2565 37.2515C33.3189 37.0176 33.3922 36.7883 33.4748 36.5628C33.558 36.3372 33.6501 36.117 33.7522 35.902C33.8543 35.6871 33.9658 35.4774 34.086 35.2746C34.2063 35.0717 34.3353 34.8756 34.4722 34.6872C34.61 34.4987 34.7551 34.3179 34.9082 34.1453C35.0613 33.9727 35.2218 33.8092 35.3891 33.6541C35.5563 33.4996 35.7303 33.3544 35.9104 33.2189C36.0904 33.0834 36.2758 32.9577 36.4672 32.8427C36.658 32.7276 36.8535 32.6232 37.0536 32.5301C37.2537 32.4362 37.4573 32.3545 37.6648 32.2834C37.8718 32.213 38.0819 32.1531 38.2943 32.1055C38.5065 32.0578 38.7207 32.0222 38.9363 31.998C39.1513 31.9745 39.3677 31.9624 39.5846 31.9624C39.8009 31.9624 40.0171 31.9745 40.2321 31.9988C40.4477 32.023 40.662 32.0593 40.8742 32.107C41.0865 32.1547 41.2968 32.2138 41.5037 32.2849C41.7105 32.356 41.9147 32.4385 42.1142 32.5316C42.3144 32.6255 42.5099 32.7299 42.7013 32.845C42.892 32.96 43.0774 33.0856 43.2575 33.2211C43.4374 33.3566 43.6114 33.502 43.7787 33.6563C43.9459 33.8115 44.1065 33.975 44.2597 34.1475C44.4128 34.3201 44.5579 34.501 44.6956 34.6894C44.8326 34.878 44.9616 35.074 45.0818 35.2768C45.2028 35.4797 45.3135 35.6886 45.4156 35.9035C45.5177 36.1185 45.6104 36.3387 45.6937 36.5643C45.7763 36.7898 45.8496 37.0191 45.9127 37.253C45.9759 37.4862 46.0282 37.7223 46.0705 37.9622C46.1136 38.2015 46.1451 38.4421 46.1666 38.6851C46.1881 38.928 46.1989 39.171 46.1989 39.4154ZM45.108 39.4154C45.108 39.2118 45.0993 39.0083 45.0811 38.8054C45.0636 38.6025 45.0368 38.4012 45.0019 38.2015C44.9663 38.0016 44.9226 37.804 44.8696 37.6095C44.8172 37.4143 44.7567 37.2228 44.6875 37.0343C44.6183 36.8466 44.5404 36.6619 44.4558 36.4826C44.3705 36.3032 44.2771 36.1283 44.177 35.9587C44.0762 35.7892 43.9688 35.6258 43.8539 35.4683C43.7391 35.3109 43.6182 35.1602 43.4898 35.0165C43.3622 34.8719 43.2279 34.7356 43.0882 34.6062C42.9485 34.4768 42.8034 34.3556 42.6529 34.2429C42.5025 34.1293 42.348 34.025 42.1881 33.9288C42.0289 33.8327 41.8657 33.7456 41.6984 33.6677C41.5312 33.5898 41.3612 33.5216 41.188 33.4619C41.0153 33.4028 40.84 33.3536 40.6626 33.3134C40.4853 33.2741 40.3066 33.2446 40.1267 33.2241C39.9466 33.2044 39.766 33.1946 39.5852 33.1946C39.4046 33.1946 39.2239 33.2044 39.0438 33.2241C38.8639 33.2446 38.6852 33.2741 38.5078 33.3143C38.3305 33.3536 38.1552 33.4036 37.9826 33.4626C37.8093 33.5216 37.6393 33.5905 37.4721 33.6685C37.3048 33.7464 37.1416 33.8334 36.9824 33.9288C36.8225 34.025 36.6681 34.1301 36.5176 34.2429C36.3672 34.3565 36.2221 34.4776 36.0823 34.607C35.9426 34.7364 35.8089 34.8726 35.6807 35.0172C35.553 35.161 35.4315 35.3117 35.3166 35.4691C35.2024 35.6265 35.0943 35.7899 34.9942 35.9596C34.8934 36.1291 34.8007 36.3039 34.7154 36.4833C34.6301 36.6627 34.5528 36.8474 34.4837 37.0351C34.4145 37.2235 34.3534 37.415 34.3009 37.6102C34.2485 37.8048 34.2049 38.0023 34.1693 38.2022C34.1344 38.402 34.1075 38.6033 34.0901 38.8062C34.0719 39.009 34.0631 39.2126 34.0631 39.4162C34.0631 39.6198 34.0719 39.8234 34.0901 40.0262C34.1075 40.2291 34.1344 40.4304 34.1693 40.6303C34.2049 40.8301 34.2485 41.0276 34.3009 41.2222C34.3534 41.4174 34.4145 41.6089 34.4837 41.7973C34.5528 41.985 34.6301 42.1697 34.7154 42.3491C34.8001 42.5285 34.8934 42.7033 34.9935 42.8729C35.0943 43.0424 35.2017 43.2059 35.3166 43.3634C35.4315 43.5208 35.5523 43.6714 35.68 43.816C35.8082 43.9598 35.9419 44.0968 36.0817 44.2262C36.2213 44.3548 36.3665 44.4767 36.5169 44.5895C36.6674 44.703 36.8225 44.8074 36.9817 44.9036C37.1409 44.9997 37.3042 45.0868 37.4714 45.1648C37.6387 45.2427 37.8086 45.3116 37.9819 45.3706C38.1545 45.4297 38.3298 45.4789 38.5072 45.519C38.6845 45.5591 38.8632 45.5886 39.0432 45.6083C39.2232 45.6287 39.4039 45.6385 39.5846 45.6385C39.7653 45.6385 39.9459 45.628 40.126 45.6083C40.306 45.5878 40.4846 45.5576 40.662 45.5182C40.8393 45.4781 41.014 45.4281 41.1873 45.3691C41.3599 45.31 41.5305 45.2411 41.6971 45.1632C41.8644 45.0853 42.0276 44.9975 42.1868 44.9013C42.3467 44.8052 42.5011 44.7008 42.6516 44.5872C42.802 44.4745 42.9471 44.3533 43.0869 44.2239C43.2266 44.0945 43.3602 43.9575 43.4879 43.8137C43.6161 43.6699 43.7371 43.5185 43.8519 43.361C43.9668 43.2036 44.0743 43.0402 44.175 42.8714C44.2758 42.7018 44.3685 42.5269 44.4538 42.3476C44.5391 42.1675 44.6163 41.9835 44.6855 41.7958C44.7547 41.6074 44.8158 41.4158 44.8682 41.2214C44.9213 41.0261 44.965 40.8286 45.0005 40.6287C45.0362 40.4289 45.0623 40.2276 45.0805 40.0247C45.0986 39.8226 45.108 39.6191 45.108 39.4154Z" fill="#00D280" stroke="#00D280" stroke-width="0.538644" stroke-miterlimit="10"/>
</g>
</g>
</g>
</g>
<defs>
<clipPath id="clip0_1_2999">
<rect width="41" height="40.09" fill="white" transform="translate(12.5 12)"/>
</clipPath>
<clipPath id="clip1_1_2999">
<rect width="41" height="40.09" fill="white" transform="translate(12.5 12)"/>
</clipPath>
<clipPath id="clip2_1_2999">
<rect width="41" height="40.1087" fill="white" transform="translate(12.5 11.9907)"/>
</clipPath>
</defs>
</svg>
