<svg width="68" height="56" viewBox="0 0 68 56" fill="none" xmlns="http://www.w3.org/2000/svg">
<g clip-path="url(#clip0_1_3079)">
<g clip-path="url(#clip1_1_3079)">
<g clip-path="url(#clip2_1_3079)">
<path d="M21.4497 43.1824C21.4497 45.0157 20.7085 46.6706 19.5201 47.8529C19.5515 47.9866 19.5828 48.1204 19.6141 48.2542C19.9133 48.2649 20.2892 48.3094 20.7172 48.4218C22.0656 46.9149 23.353 45.3741 24.5745 43.8012C24.7815 43.8458 24.9885 43.8851 25.1955 43.9296C25.8114 46.2818 26.5248 48.6287 27.3442 50.9648C28.8092 48.996 30.1784 46.9827 31.4538 44.9336C31.6625 44.9568 31.8713 44.9764 32.0819 44.9978C32.7778 46.8739 33.5433 48.7392 34.3732 50.5903C34.7943 50.5493 35.2257 50.5047 35.6711 50.4548C36.6385 48.766 37.545 47.0576 38.3906 45.3313C38.6011 45.3331 38.8098 45.3331 39.0203 45.3313C39.7302 46.7812 40.4853 48.2185 41.2821 49.6434C42.046 49.5061 42.8375 49.3545 43.6536 49.1833C44.2503 47.7941 44.8106 46.3995 45.329 44.9978C45.5396 44.9764 45.7501 44.9568 45.9588 44.9336C46.6269 46.009 47.3229 47.0736 48.0449 48.1276C49.1149 47.8369 50.2058 47.5141 51.3089 47.1557C51.6325 46.0821 51.9334 45.0068 52.2153 43.9296C52.4224 43.8868 52.6311 43.8458 52.8382 43.8012C53.4106 44.5395 53.9987 45.2689 54.5972 45.9912C55.9403 45.474 57.287 44.8998 58.625 44.2649C58.7554 43.5516 58.879 42.84 58.992 42.1285C59.1939 42.0643 59.3974 42.0001 59.5993 41.9323C59.9976 42.3478 60.3996 42.758 60.8067 43.1664C62.4317 42.2997 64.0237 41.3314 65.5565 40.256C65.5721 40.0367 65.5878 39.8155 65.6017 39.5962C65.9305 39.45 66.2593 39.3073 66.5864 39.1539C66.5395 39.0487 66.4925 38.9417 66.4455 38.8347C52.2136 45.4526 36.3062 46.7259 21.427 42.6617C21.441 42.8347 21.4497 43.0077 21.4497 43.1824Z" fill="white"/>
<path d="M40.0995 50.5383C35.9603 51.2107 32.3467 51.4889 29.7682 51.5995C27.1898 51.7082 25.6552 51.6494 25.6518 51.6511L25.6344 52.1077C25.6396 52.1059 27.3916 52.1719 30.2745 52.031L33.8986 57.4755L36.6824 51.4835C37.0321 51.4407 37.3853 51.3962 37.7454 51.348L41.8167 56.4233L44.0454 50.2655C44.5082 50.1675 44.9763 50.064 45.4477 49.9553L49.9087 54.6365L51.6312 48.254C52.0591 48.1148 52.4871 47.9722 52.9151 47.8242L57.9381 51.9526L58.9002 45.3953C59.3213 45.1956 59.7405 44.9905 60.1599 44.7801L65.8091 48.0293L65.7187 41.5184C66.2737 41.1403 66.8217 40.7498 67.3611 40.3432L67.1001 39.9758C58.7402 46.2674 48.3742 49.1937 40.0995 50.5383Z" fill="white"/>
<mask id="mask0_1_3079" style="mask-type:luminance" maskUnits="userSpaceOnUse" x="0" y="49" width="27" height="44">
<path d="M0.639404 49.5364H26.4726V92.1487H0.639404V49.5364Z" fill="white"/>
</mask>
<g mask="url(#mask0_1_3079)">
<path d="M9.14751 89.3247C9.14751 90.8815 10.3741 92.1441 11.886 92.1441C13.3979 92.1441 14.6245 90.8815 14.6245 89.3247V68.7363H15.651V89.3247C15.651 90.8815 16.8776 92.1441 18.3878 92.1441C19.9015 92.1441 21.1263 90.8815 21.1263 89.3247V55.1225C21.2586 55.4007 21.3908 55.7181 21.5213 56.0891C22.1459 57.8706 22.6696 60.7935 22.6679 65.3569C22.6696 66.616 22.6295 67.9962 22.5425 69.5139C22.4869 70.5196 23.2316 71.3828 24.2093 71.4416C24.2441 71.4434 24.2789 71.4452 24.3137 71.4452C25.2446 71.4452 26.0258 70.6962 26.0814 69.726C26.1701 68.1461 26.2119 66.6926 26.2119 65.3569C26.2032 58.4752 25.1349 54.6642 23.6787 52.3726C22.9514 51.2366 22.1006 50.5073 21.3142 50.1025C20.5574 49.7102 19.8928 49.621 19.4927 49.6157C19.4665 49.6157 19.4404 49.6121 19.4143 49.6121H10.8595C10.8334 49.6121 10.8091 49.6139 10.783 49.6157C10.4333 49.621 9.8782 49.687 9.23276 49.9723C8.79258 50.1613 8.32455 50.4538 7.8635 50.8657C7.25977 51.4025 6.66648 52.1426 6.15845 53.1234C5.25373 54.8586 4.55257 57.3267 4.23592 60.9717C4.23592 60.9771 4.23592 60.9825 4.23592 60.9861C4.1872 61.546 4.14893 62.1363 4.12109 62.7551C4.08281 63.5701 4.06194 64.4349 4.06194 65.3587C4.06194 66.6926 4.10369 68.1461 4.19416 69.726C4.2481 70.6962 5.02929 71.4452 5.9601 71.4452C5.99491 71.4452 6.0297 71.4434 6.06624 71.4416C7.04229 71.3828 7.78868 70.5178 7.73127 69.5139C7.64428 67.9962 7.606 66.616 7.606 65.3587C7.606 64.3315 7.63209 63.3917 7.67907 62.5251C7.70343 62.0989 7.73127 61.6886 7.76607 61.2981C7.76607 61.2963 7.76607 61.2945 7.76607 61.2945C7.78172 61.1002 7.80086 60.9129 7.81826 60.7275C8.09838 57.9794 8.62903 56.2139 9.14751 55.1171V62.0614L8.11056 62.7837C8.09664 63.0636 8.08446 63.3472 8.07575 63.6343L9.08487 62.9316L13.0586 68.9735L5.63302 74.1541L1.65921 68.1122L3.63568 66.7337C3.62872 66.4572 3.62524 66.1844 3.6235 65.9151L0.735352 67.9285L5.45556 75.1046L7.81826 73.4549L9.14751 72.5294V89.3247ZM14.2957 51.4792H15.9782L16.3991 53.1894L16.3348 53.2928C15.9886 53.5906 15.564 53.7404 15.1378 53.7404C14.7098 53.7404 14.2852 53.5906 13.939 53.2946L13.8746 53.1894L14.2957 51.4792ZM14.2452 54.2558C14.5323 54.3664 14.8351 54.4252 15.136 54.4252H15.1378C15.4405 54.4252 15.7415 54.3664 16.0286 54.2558L17.2413 63.4523L15.1378 66.1898L13.0343 63.4523L14.2452 54.2558Z" fill="white"/>
</g>
<mask id="mask1_1_3079" style="mask-type:luminance" maskUnits="userSpaceOnUse" x="9" y="38" width="12" height="11">
<path d="M9.99304 38.051H20.2373V48.6242H9.99304V38.051Z" fill="white"/>
</mask>
<g mask="url(#mask1_1_3079)">
<path d="M20.1208 43.1834C20.1208 43.5204 20.0878 43.8539 20.0252 44.1838C19.9608 44.5137 19.8669 44.8348 19.7416 45.1468C19.6163 45.4571 19.4632 45.7532 19.2805 46.0331C19.0996 46.3131 18.8925 46.5735 18.6612 46.8107C18.4297 47.0496 18.1775 47.2619 17.9061 47.449C17.6347 47.6363 17.3458 47.795 17.0448 47.9235C16.7421 48.0519 16.4306 48.1499 16.1088 48.2159C15.7887 48.2819 15.4651 48.314 15.1379 48.314C14.8108 48.314 14.4855 48.2819 14.1653 48.2159C13.8435 48.1499 13.5321 48.0519 13.2311 47.9235C12.9284 47.795 12.6413 47.6363 12.3699 47.449C12.0967 47.2619 11.8444 47.0496 11.6131 46.8107C11.3833 46.5735 11.1763 46.3131 10.9936 46.0331C10.8127 45.7532 10.6596 45.4571 10.5343 45.1468C10.409 44.8348 10.3134 44.5137 10.2507 44.1838C10.1863 43.8539 10.155 43.5204 10.155 43.1834C10.155 42.8464 10.1863 42.5129 10.2507 42.1812C10.3134 41.8513 10.409 41.5303 10.5343 41.2182C10.6596 40.9079 10.8127 40.6119 10.9936 40.3319C11.1763 40.0519 11.3833 39.7915 11.6131 39.5544C11.8444 39.3154 12.0967 39.1032 12.3699 38.9159C12.6413 38.7287 12.9284 38.57 13.2311 38.4416C13.5321 38.3132 13.8435 38.2151 14.1653 38.1491C14.4855 38.0831 14.8108 38.051 15.1379 38.051C15.4651 38.051 15.7887 38.0831 16.1088 38.1491C16.4306 38.2151 16.7421 38.3132 17.0448 38.4416C17.3458 38.57 17.6347 38.7287 17.9061 38.9159C18.1775 39.1032 18.4297 39.3154 18.6612 39.5544C18.8925 39.7915 19.0996 40.0519 19.2805 40.3319C19.4632 40.6119 19.6163 40.9079 19.7416 41.2182C19.8669 41.5303 19.9608 41.8513 20.0252 42.1812C20.0878 42.5129 20.1208 42.8464 20.1208 43.1834Z" fill="white"/>
</g>
</g>
</g>
</g>
<defs>
<clipPath id="clip0_1_3079">
<rect width="66.72" height="55" fill="white" transform="translate(0.640015 0.5)"/>
</clipPath>
<clipPath id="clip1_1_3079">
<rect width="66.72" height="55" fill="white" transform="translate(0.640015 38)"/>
</clipPath>
<clipPath id="clip2_1_3079">
<rect width="66.7213" height="55" fill="white" transform="translate(0.639404 38)"/>
</clipPath>
</defs>
</svg>
