<svg width="68" height="56" viewBox="0 0 68 56" fill="none" xmlns="http://www.w3.org/2000/svg">
<g clip-path="url(#clip0_67_5)">
<g clip-path="url(#clip1_67_5)">
<g clip-path="url(#clip2_67_5)">
<path d="M27.3787 32.5916H34.2476V30.0076H27.5074C27.4849 30.7512 27.4518 31.5198 27.4083 32.308C27.4013 32.4043 27.3909 32.4988 27.3787 32.5916Z" fill="white"/>
<path d="M24.3139 35.3156C24.2512 35.3156 24.1868 35.3139 24.1225 35.3103C23.4978 35.2728 22.9254 35.0427 22.4557 34.6807V44.9848H64.3668V43.9201H60.8975V33.4663H27.1237C26.6296 34.5613 25.5526 35.3156 24.3139 35.3156Z" fill="white"/>
<path d="M21.4497 5.68243C21.4497 7.51568 20.7085 9.17059 19.5201 10.3529C19.5515 10.4866 19.5828 10.6204 19.6141 10.7542C19.9133 10.7649 20.2892 10.8094 20.7172 10.9218C22.0656 9.41491 23.353 7.87413 24.5745 6.30124C24.7815 6.34583 24.9885 6.38506 25.1955 6.42965C25.8114 8.78183 26.5248 11.1287 27.3442 13.4648C28.8092 11.496 30.1784 9.48268 31.4538 7.43365C31.6625 7.45683 31.8713 7.47645 32.0819 7.49784C32.7778 9.37389 33.5433 11.2392 34.3732 13.0903C34.7943 13.0493 35.2257 13.0047 35.6711 12.9548C36.6385 11.266 37.545 9.55759 38.3906 7.83132C38.6011 7.83311 38.8098 7.83311 39.0203 7.83132C39.7302 9.28116 40.4853 10.7185 41.2821 12.1434C42.046 12.0061 42.8375 11.8545 43.6536 11.6833C44.2503 10.2941 44.8106 8.89953 45.329 7.49784C45.5396 7.47645 45.7501 7.45683 45.9588 7.43365C46.6269 8.50899 47.3229 9.57364 48.0449 10.6276C49.1149 10.3369 50.2058 10.0141 51.3089 9.65569C51.6325 8.5821 51.9334 7.50676 52.2153 6.42965C52.4224 6.38684 52.6311 6.34583 52.8382 6.30124C53.4106 7.03953 53.9987 7.76891 54.5972 8.49115C55.9403 7.97399 57.287 7.39976 58.625 6.7649C58.7554 6.05158 58.879 5.34004 58.992 4.62849C59.1939 4.5643 59.3974 4.5001 59.5993 4.43233C59.9976 4.84785 60.3996 5.25801 60.8067 5.66638C62.4317 4.7997 64.0237 3.83136 65.5565 2.75602C65.5721 2.53667 65.5878 2.31554 65.6017 2.0962C65.9305 1.94996 66.2593 1.80729 66.5864 1.65393C66.5395 1.54871 66.4925 1.44171 66.4455 1.33472C52.2136 7.9526 36.3062 9.22588 21.427 5.16171C21.441 5.33469 21.4497 5.50767 21.4497 5.68243Z" fill="white"/>
<path d="M40.0995 13.0383C35.9603 13.7107 32.3467 13.9889 29.7682 14.0995C27.1898 14.2082 25.6552 14.1494 25.6518 14.1511L25.6344 14.6077C25.6396 14.6059 27.3916 14.6719 30.2745 14.531L33.8986 19.9755L36.6824 13.9835C37.0321 13.9407 37.3853 13.8962 37.7454 13.848L41.8167 18.9233L44.0454 12.7655C44.5082 12.6675 44.9763 12.564 45.4477 12.4553L49.9087 17.1365L51.6312 10.754C52.0591 10.6148 52.4871 10.4722 52.9151 10.3242L57.9381 14.4526L58.9002 7.89531C59.3213 7.69558 59.7405 7.4905 60.1599 7.28007L65.8091 10.5293L65.7187 4.01839C66.2737 3.64033 66.8217 3.24979 67.3611 2.84318L67.1001 2.47583C58.7402 8.76735 48.3742 11.6937 40.0995 13.0383Z" fill="white"/>
<mask id="mask0_67_5" style="mask-type:luminance" maskUnits="userSpaceOnUse" x="0" y="12" width="27" height="43">
<path d="M0.639404 12.0364H26.4726V54.6487H0.639404V12.0364Z" fill="white"/>
</mask>
<g mask="url(#mask0_67_5)">
<path d="M9.14751 51.8247C9.14751 53.3815 10.3741 54.6441 11.886 54.6441C13.3979 54.6441 14.6245 53.3815 14.6245 51.8247V31.2363H15.651V51.8247C15.651 53.3815 16.8776 54.6441 18.3878 54.6441C19.9015 54.6441 21.1263 53.3815 21.1263 51.8247V17.6225C21.2586 17.9007 21.3908 18.2181 21.5213 18.5891C22.1459 20.3706 22.6696 23.2935 22.6679 27.8569C22.6696 29.116 22.6295 30.4962 22.5425 32.0139C22.4869 33.0196 23.2316 33.8828 24.2093 33.9416C24.2441 33.9434 24.2789 33.9452 24.3137 33.9452C25.2446 33.9452 26.0258 33.1962 26.0814 32.226C26.1701 30.6461 26.2119 29.1926 26.2119 27.8569C26.2032 20.9752 25.1349 17.1642 23.6787 14.8726C22.9514 13.7366 22.1006 13.0073 21.3142 12.6025C20.5574 12.2102 19.8928 12.121 19.4927 12.1157C19.4665 12.1157 19.4404 12.1121 19.4143 12.1121H10.8595C10.8334 12.1121 10.8091 12.1139 10.783 12.1157C10.4333 12.121 9.8782 12.187 9.23276 12.4723C8.79258 12.6613 8.32455 12.9538 7.8635 13.3657C7.25977 13.9025 6.66648 14.6426 6.15845 15.6234C5.25373 17.3586 4.55257 19.8267 4.23592 23.4717C4.23592 23.4771 4.23592 23.4825 4.23592 23.4861C4.1872 24.046 4.14893 24.6363 4.12109 25.2551C4.08281 26.0701 4.06194 26.9349 4.06194 27.8587C4.06194 29.1926 4.10369 30.6461 4.19416 32.226C4.2481 33.1962 5.02929 33.9452 5.9601 33.9452C5.99491 33.9452 6.0297 33.9434 6.06624 33.9416C7.04229 33.8828 7.78868 33.0178 7.73127 32.0139C7.64428 30.4962 7.606 29.116 7.606 27.8587C7.606 26.8315 7.63209 25.8917 7.67907 25.0251C7.70343 24.5989 7.73127 24.1886 7.76607 23.7981C7.76607 23.7963 7.76607 23.7945 7.76607 23.7945C7.78172 23.6002 7.80086 23.4129 7.81827 23.2275C8.09838 20.4794 8.62903 18.7139 9.14751 17.6171V24.5614L8.11056 25.2837C8.09664 25.5636 8.08446 25.8472 8.07575 26.1343L9.08487 25.4316L13.0586 31.4735L5.63302 36.6541L1.65921 30.6122L3.63568 29.2336C3.62872 28.9572 3.62524 28.6844 3.6235 28.4151L0.735352 30.4285L5.45556 37.6046L7.81827 35.9549L9.14751 35.0294V51.8247ZM14.2957 13.9792H15.9782L16.3991 15.6894L16.3348 15.7928C15.9886 16.0906 15.564 16.2404 15.1378 16.2404C14.7098 16.2404 14.2852 16.0906 13.939 15.7946L13.8746 15.6894L14.2957 13.9792ZM14.2452 16.7558C14.5323 16.8664 14.8351 16.9252 15.136 16.9252H15.1378C15.4405 16.9252 15.7415 16.8664 16.0286 16.7558L17.2413 25.9523L15.1378 28.6898L13.0343 25.9523L14.2452 16.7558Z" fill="white"/>
</g>
<mask id="mask1_67_5" style="mask-type:luminance" maskUnits="userSpaceOnUse" x="9" y="0" width="12" height="12">
<path d="M9.99304 0.551025H20.2373V11.1242H9.99304V0.551025Z" fill="white"/>
</mask>
<g mask="url(#mask1_67_5)">
<path d="M20.1208 5.6834C20.1208 6.02045 20.0878 6.35392 20.0252 6.68384C19.9608 7.01375 19.8669 7.33475 19.7416 7.64683C19.6163 7.95713 19.4632 8.25315 19.2805 8.53313C19.0996 8.81312 18.8925 9.07347 18.6612 9.31066C18.4297 9.54962 18.1775 9.76187 17.9061 9.94905C17.6347 10.1363 17.3458 10.295 17.0448 10.4235C16.7421 10.5519 16.4306 10.6499 16.1088 10.7159C15.7887 10.7819 15.4651 10.814 15.1379 10.814C14.8108 10.814 14.4855 10.7819 14.1653 10.7159C13.8435 10.6499 13.5321 10.5519 13.2311 10.4235C12.9284 10.295 12.6413 10.1363 12.3699 9.94905C12.0967 9.76187 11.8444 9.54962 11.6131 9.31066C11.3833 9.07347 11.1763 8.81312 10.9936 8.53313C10.8127 8.25315 10.6596 7.95713 10.5343 7.64683C10.409 7.33475 10.3134 7.01375 10.2507 6.68384C10.1863 6.35392 10.155 6.02045 10.155 5.6834C10.155 5.34636 10.1863 5.01288 10.2507 4.68118C10.3134 4.35126 10.409 4.03027 10.5343 3.71819C10.6596 3.4079 10.8127 3.11186 10.9936 2.83188C11.1763 2.5519 11.3833 2.29154 11.6131 2.05436C11.8444 1.81539 12.0967 1.60318 12.3699 1.41593C12.6413 1.22868 12.9284 1.06997 13.2311 0.941571C13.5321 0.813172 13.8435 0.71509 14.1653 0.649108C14.4855 0.583125 14.8108 0.551025 15.1379 0.551025C15.4651 0.551025 15.7887 0.583125 16.1088 0.649108C16.4306 0.71509 16.7421 0.813172 17.0448 0.941571C17.3458 1.06997 17.6347 1.22868 17.9061 1.41593C18.1775 1.60318 18.4297 1.81539 18.6612 2.05436C18.8925 2.29154 19.0996 2.5519 19.2805 2.83188C19.4632 3.11186 19.6163 3.4079 19.7416 3.71819C19.8669 4.03027 19.9608 4.35126 20.0252 4.68118C20.0878 5.01288 20.1208 5.34636 20.1208 5.6834Z" fill="white"/>
</g>
<path d="M8.22852 27.8871L8.59215 27.625L11.0279 31.2184L10.6643 31.4787L8.22852 27.8871Z" fill="white"/>
<path d="M8.0946 30.2612C8.10505 30.5412 8.11549 30.823 8.12767 31.1083L9.11416 32.5635L9.47778 32.3014L8.0946 30.2612Z" fill="white"/>
<path d="M48.0521 30.0076H57.9448V32.5916H48.0521V30.0076Z" fill="white"/>
</g>
</g>
</g>
<defs>
<clipPath id="clip0_67_5">
<rect width="66.72" height="55" fill="white" transform="translate(0.640015 0.5)"/>
</clipPath>
<clipPath id="clip1_67_5">
<rect width="66.72" height="55" fill="white" transform="translate(0.640015 0.5)"/>
</clipPath>
<clipPath id="clip2_67_5">
<rect width="66.7213" height="55" fill="white" transform="translate(0.639404 0.5)"/>
</clipPath>
</defs>
</svg>
