<svg width="46" height="46" viewBox="0 0 46 46" fill="none" xmlns="http://www.w3.org/2000/svg">
<g clip-path="url(#clip0_1_3424)">
<g clip-path="url(#clip1_1_3424)">
<g clip-path="url(#clip2_1_3424)">
<mask id="mask0_1_3424" style="mask-type:luminance" maskUnits="userSpaceOnUse" x="16" y="0" width="14" height="18">
<path d="M16.1532 0.689941H29.1663V17.1938H16.1532V0.689941Z" fill="white"/>
</mask>
<g mask="url(#mask0_1_3424)">
<path d="M29.088 8.60173C29.088 4.239 26.3435 0.689941 22.97 0.689941C20.0525 0.689941 17.7338 2.56934 16.7469 5.45318H19.7852C20.0007 5.45318 20.1752 5.67934 20.1752 5.95794C20.1752 6.23653 20.0007 6.46269 19.7852 6.46269H16.4674C16.3139 7.16328 16.2313 7.90935 16.2313 8.69333V9.17849H19.6273C19.8428 9.17849 20.0173 9.40465 20.0173 9.68325C20.0173 9.96184 19.8428 10.188 19.6273 10.188H16.2313V12.4748H19.6273C19.8428 12.4748 20.0173 12.701 20.0173 12.9796C20.0173 13.2575 19.8428 13.4837 19.6273 13.4837H16.2313V17.0915H29.088V8.60173Z" fill="#00D280"/>
</g>
<path d="M29.088 18.1001H16.2313V19.3465H29.088V18.1001Z" fill="#00D280"/>
<path d="M23.471 30.2969C25.7697 30.2969 27.6402 27.878 27.6402 24.9051V22.0333C27.6402 21.7547 27.8147 21.5285 28.0303 21.5285C28.2458 21.5285 28.4203 21.7547 28.4203 22.0333V24.9051C28.4203 28.4346 26.1998 31.3058 23.471 31.3058C23.2555 31.3058 23.081 31.0796 23.081 30.801C23.081 30.5224 23.2555 30.2969 23.471 30.2969ZM21.8483 32.1687H23.471C26.5684 32.1687 29.088 28.9103 29.088 24.9051V20.356H16.2313V24.9051C16.2313 28.9103 18.7509 32.1687 21.8483 32.1687Z" fill="#00D280"/>
<mask id="mask1_1_3424" style="mask-type:luminance" maskUnits="userSpaceOnUse" x="0" y="10" width="46" height="36">
<path d="M0.160034 10.7622H45.1594V45.6899H0.160034V10.7622Z" fill="white"/>
</mask>
<g mask="url(#mask1_1_3424)">
<path d="M44.7694 17.6543H42.6716C42.4853 17.6543 42.325 17.8243 42.2893 18.0605L41.5366 22.9577L40.0605 11.3301C40.0116 10.9416 39.7941 10.7647 39.6006 10.7622H39.5962C39.4046 10.7622 39.1885 10.9321 39.1338 11.313L37.709 21.2912L36.7129 15.5254C36.6621 15.2108 36.4861 15.003 36.2657 14.9948C36.0892 14.9853 35.8747 15.1356 35.8097 15.4515L34.7696 19.4807C34.7676 19.4914 34.7652 19.5021 34.7627 19.5104L31.3965 19.4895H31.3946C31.3677 19.4895 31.3413 19.4933 31.3159 19.4996C31.3041 19.5028 31.2929 19.5097 31.2807 19.5142C31.268 19.5192 31.2553 19.5224 31.2431 19.5293C31.2318 19.535 31.222 19.5438 31.2113 19.5514C31.2 19.559 31.1878 19.566 31.1766 19.5754C31.1663 19.5843 31.158 19.5956 31.1482 19.6058C31.1385 19.6165 31.1282 19.6253 31.1194 19.6367C31.1101 19.6487 31.1033 19.662 31.095 19.6752C31.0871 19.6872 31.0783 19.698 31.0715 19.7113C31.0642 19.7251 31.0593 19.7403 31.0534 19.7542C31.0471 19.7687 31.0402 19.782 31.0353 19.7972C31.0304 19.8123 31.0275 19.8288 31.0241 19.8445C31.0202 19.8603 31.0153 19.8755 31.0128 19.8913C31.0099 19.9077 31.0099 19.9241 31.0084 19.9406C31.007 19.9576 31.0045 19.9747 31.0045 19.9917V25.0494C31.0045 30.2889 27.7082 34.5518 23.6563 34.5518H21.6631C17.6112 34.5518 14.3149 30.2889 14.3149 25.0494V19.9917C14.3149 19.9747 14.3124 19.9576 14.311 19.9406C14.3095 19.9241 14.3095 19.9077 14.3066 19.8913C14.3041 19.8755 14.2992 19.8603 14.2953 19.8445C14.2919 19.8288 14.289 19.8123 14.2841 19.7972C14.2792 19.782 14.2724 19.7687 14.266 19.7542C14.2601 19.7403 14.2552 19.7251 14.2479 19.7113C14.2411 19.698 14.2323 19.6872 14.2245 19.6752C14.2166 19.662 14.2093 19.6487 14.2 19.6367C14.1912 19.6253 14.181 19.6165 14.1712 19.6058C14.1614 19.5956 14.1526 19.5843 14.1428 19.5754C14.1316 19.566 14.1194 19.559 14.1076 19.5514C14.0974 19.5438 14.0876 19.535 14.0764 19.5293C14.0646 19.5224 14.0514 19.5192 14.0387 19.5142C14.027 19.5097 14.0157 19.5028 14.003 19.4996C13.9781 19.4933 13.9517 19.4895 13.9248 19.4895H13.9229L10.5572 19.5104C10.5528 19.4952 10.5484 19.4756 10.543 19.4529L9.51662 15.4793C9.44477 15.135 9.22775 14.9891 9.05326 14.9948C8.83282 15.003 8.65735 15.2114 8.60799 15.5191L7.6104 21.2918L6.18563 11.3137C6.13089 10.9289 5.90947 10.7761 5.71934 10.7622C5.52578 10.7647 5.30828 10.9409 5.25891 11.3301L3.78282 22.9571L3.0306 18.0605C2.99394 17.8243 2.83411 17.6543 2.64789 17.6543H0.550075C0.334526 17.6543 0.160034 17.8805 0.160034 18.1591C0.160034 18.4377 0.334526 18.6632 0.550075 18.6632H2.32725L3.28818 24.918C3.36101 25.3892 3.61126 25.5554 3.80677 25.5554C3.80921 25.5554 3.81166 25.5554 3.8141 25.5554C4.01303 25.551 4.26768 25.3722 4.32976 24.8813L5.74133 13.7591L7.06689 23.0411C7.13483 23.5181 7.38654 23.6905 7.58108 23.6937C7.77316 23.6937 8.02733 23.5345 8.10211 23.0739L9.1256 17.1483L9.79668 19.7441C9.89688 20.223 10.1432 20.5205 10.4423 20.5205L13.5348 20.5009V25.0494C13.5348 30.5391 16.8066 35.0572 20.9612 35.519V44.6785H16.357C16.1414 44.6785 15.9669 44.9046 15.9669 45.1832C15.9669 45.4618 16.1414 45.688 16.357 45.688H29.4781C29.6936 45.688 29.8681 45.4618 29.8681 45.1832C29.8681 44.9046 29.6936 44.6785 29.4781 44.6785H24.3582V35.519C28.5128 35.0572 31.7851 30.5391 31.7851 25.0494V20.5009L34.879 20.5205C35.1757 20.5205 35.423 20.223 35.5164 19.7719L36.1933 17.1477L37.2164 23.067C37.2911 23.5301 37.5399 23.6937 37.7325 23.6937C37.7345 23.6937 37.7359 23.6937 37.7379 23.6937C37.9329 23.6905 38.1846 23.5181 38.253 23.0411L39.5781 13.7591L40.9897 24.8813C41.0522 25.3722 41.3064 25.551 41.5053 25.5554C41.5078 25.5554 41.5102 25.5554 41.5127 25.5554C41.7082 25.5554 41.9584 25.3892 42.0308 24.9173L42.9922 18.6632H44.7694C44.9849 18.6632 45.1594 18.4377 45.1594 18.1591C45.1594 17.8805 44.9849 17.6543 44.7694 17.6543Z" fill="#00D280"/>
</g>
</g>
</g>
</g>
<defs>
<clipPath id="clip0_1_3424">
<rect width="45" height="45" fill="white" transform="translate(0.160034 0.689941)"/>
</clipPath>
<clipPath id="clip1_1_3424">
<rect width="45" height="45" fill="white" transform="translate(0.160034 0.689941)"/>
</clipPath>
<clipPath id="clip2_1_3424">
<rect width="45" height="45" fill="white" transform="translate(0.160034 0.689941)"/>
</clipPath>
</defs>
</svg>
