<svg width="56" height="56" viewBox="0 0 56 56" fill="none" xmlns="http://www.w3.org/2000/svg">
<g clip-path="url(#clip0_1_3266)">
<g clip-path="url(#clip1_1_3266)">
<mask id="mask0_1_3266" style="mask-type:luminance" maskUnits="userSpaceOnUse" x="20" y="0" width="16" height="21">
<path d="M20.1776 0.89624H35.8219V20.7373H20.1776V0.89624Z" fill="white"/>
</mask>
<g mask="url(#mask0_1_3266)">
<path d="M35.7281 10.4078C35.7281 5.16292 32.4288 0.89624 28.3731 0.89624C24.8657 0.89624 22.0781 3.15566 20.8918 6.62262H24.5443C24.8034 6.62262 25.0132 6.89451 25.0132 7.22943C25.0132 7.56436 24.8034 7.83625 24.5443 7.83625H20.5556C20.3711 8.67849 20.2718 9.57546 20.2718 10.5179V11.1012H24.3545C24.6136 11.1012 24.8234 11.3731 24.8234 11.708C24.8234 12.0429 24.6136 12.3148 24.3545 12.3148H20.2718V15.0641H24.3545C24.6136 15.0641 24.8234 15.3359 24.8234 15.6709C24.8234 16.0051 24.6136 16.277 24.3545 16.277H20.2718V20.6142H35.7281V10.4078Z" fill="#0575AD"/>
</g>
<path d="M35.7281 21.8276H20.2718V23.3261H35.7281V21.8276Z" fill="#0575AD"/>
<path d="M28.9754 36.4905C31.7389 36.4905 33.9876 33.5825 33.9876 30.0084V26.556C33.9876 26.221 34.1974 25.9492 34.4566 25.9492C34.7157 25.9492 34.9255 26.221 34.9255 26.556V30.0084C34.9255 34.2516 32.256 37.7034 28.9754 37.7034C28.7163 37.7034 28.5065 37.4316 28.5065 37.0966C28.5065 36.7616 28.7163 36.4905 28.9754 36.4905ZM27.0245 38.7408H28.9754C32.699 38.7408 35.7281 34.8235 35.7281 30.0084V24.5396H20.2718V30.0084C20.2718 34.8235 23.3009 38.7408 27.0245 38.7408Z" fill="#0575AD"/>
<mask id="mask1_1_3266" style="mask-type:luminance" maskUnits="userSpaceOnUse" x="0" y="13" width="56" height="42">
<path d="M0.950806 13.0049H55.0492V54.995H0.950806V13.0049Z" fill="white"/>
</mask>
<g mask="url(#mask1_1_3266)">
<path d="M54.5802 21.2926H52.0582C51.8344 21.2926 51.6417 21.4969 51.5988 21.781L50.6939 27.6683L48.9193 13.6896C48.8605 13.2225 48.599 13.0099 48.3663 13.0068H48.3611C48.1307 13.0068 47.871 13.2111 47.8052 13.6691L46.0923 25.6649L44.8948 18.7332C44.8337 18.355 44.6222 18.1052 44.3571 18.0952C44.145 18.0839 43.8871 18.2647 43.8089 18.6443L42.5585 23.4882C42.5561 23.5011 42.5532 23.5141 42.5503 23.5239L38.5035 23.4989H38.501C38.4687 23.4989 38.437 23.5035 38.4064 23.511C38.3924 23.5148 38.3788 23.5232 38.3642 23.5285C38.3489 23.5346 38.3336 23.5383 38.3189 23.5467C38.3054 23.5536 38.2936 23.5642 38.2808 23.5733C38.2672 23.5824 38.2525 23.5907 38.239 23.6022C38.2267 23.6128 38.2166 23.6264 38.2049 23.6386C38.1931 23.6515 38.1808 23.6621 38.1702 23.6758C38.159 23.6903 38.1508 23.7062 38.1408 23.7222C38.1314 23.7366 38.1209 23.7495 38.1127 23.7655C38.1038 23.7821 38.098 23.8004 38.091 23.817C38.0833 23.8345 38.0751 23.8505 38.0691 23.8687C38.0633 23.8869 38.0598 23.9067 38.0556 23.9257C38.0509 23.9447 38.0451 23.9629 38.0422 23.9819C38.0387 24.0016 38.0387 24.0214 38.0369 24.0411C38.0351 24.0617 38.0322 24.0821 38.0322 24.1027V30.1829C38.0322 36.4819 34.0694 41.6068 29.1981 41.6068H26.8019C21.9306 41.6068 17.9678 36.4819 17.9678 30.1829V24.1027C17.9678 24.0821 17.9649 24.0617 17.9631 24.0411C17.9613 24.0214 17.9613 24.0016 17.9578 23.9819C17.9549 23.9629 17.9491 23.9447 17.9443 23.9257C17.9402 23.9067 17.9367 23.8869 17.9308 23.8687C17.9249 23.8505 17.9167 23.8345 17.909 23.817C17.902 23.8004 17.8961 23.7821 17.8873 23.7655C17.8791 23.7495 17.8685 23.7366 17.8591 23.7222C17.8497 23.7062 17.8409 23.6903 17.8298 23.6758C17.8191 23.6621 17.8068 23.6515 17.7951 23.6386C17.7833 23.6264 17.7727 23.6128 17.761 23.6022C17.7474 23.5907 17.7327 23.5824 17.7187 23.5733C17.7063 23.5642 17.6946 23.5536 17.6811 23.5467C17.6669 23.5383 17.6511 23.5346 17.6358 23.5285C17.6218 23.5232 17.6082 23.5148 17.5929 23.511C17.563 23.5035 17.5312 23.4989 17.499 23.4989H17.4965L13.4503 23.5239C13.445 23.5057 13.4398 23.4822 13.4333 23.4549L12.1993 18.6778C12.1129 18.2638 11.8521 18.0884 11.6423 18.0952C11.3773 18.1052 11.1663 18.3557 11.107 18.7256L9.90769 25.6656L8.19479 13.6698C8.12898 13.2074 7.86279 13.0235 7.63422 13.0068C7.40152 13.0099 7.14004 13.2218 7.08069 13.6896L5.30613 27.6676L4.4018 21.781C4.35773 21.4969 4.16559 21.2926 3.94171 21.2926H1.41971C1.16058 21.2926 0.950806 21.5645 0.950806 21.8994C0.950806 22.2344 1.16058 22.5055 1.41971 22.5055H3.55625L4.71147 30.0249C4.79902 30.5915 5.09988 30.7912 5.33492 30.7912C5.33786 30.7912 5.3408 30.7912 5.34374 30.7912C5.58289 30.7859 5.88903 30.571 5.96366 29.9809L7.66065 16.6097L9.25424 27.7686C9.33592 28.342 9.63855 28.5493 9.87244 28.5531C10.1033 28.5531 10.4089 28.3618 10.4988 27.8081L11.7292 20.6843L12.536 23.805C12.6564 24.3806 12.9526 24.7383 13.3122 24.7383L17.03 24.7148V30.1829C17.03 36.7827 20.9634 42.2144 25.958 42.7696V53.781H20.4228C20.1637 53.781 19.9539 54.053 19.9539 54.3879C19.9539 54.7228 20.1637 54.9947 20.4228 54.9947H36.1971C36.4562 54.9947 36.666 54.7228 36.666 54.3879C36.666 54.053 36.4562 53.781 36.1971 53.781H30.0419V42.7696C35.0366 42.2144 38.9706 36.7827 38.9706 30.1829V24.7148L42.6901 24.7383C43.0467 24.7383 43.3441 24.3806 43.4563 23.8383L44.2702 20.6835L45.5 27.7998C45.5899 28.3564 45.889 28.5531 46.1205 28.5531C46.1228 28.5531 46.1246 28.5531 46.127 28.5531C46.3614 28.5493 46.664 28.342 46.7463 27.7686L48.3393 16.6097L50.0363 29.9809C50.1115 30.571 50.4171 30.7859 50.6562 30.7912C50.6592 30.7912 50.6622 30.7912 50.665 30.7912C50.9001 30.7912 51.201 30.5915 51.2879 30.0242L52.4437 22.5055H54.5802C54.8394 22.5055 55.0492 22.2344 55.0492 21.8994C55.0492 21.5645 54.8394 21.2926 54.5802 21.2926Z" fill="#0575AD"/>
</g>
</g>
</g>
<defs>
<clipPath id="clip0_1_3266">
<rect width="55" height="55" fill="white" transform="translate(0.5 0.5)"/>
</clipPath>
<clipPath id="clip1_1_3266">
<rect width="55" height="55" fill="white" transform="translate(0.5 0.5)"/>
</clipPath>
</defs>
</svg>
