<svg width="48" height="43" viewBox="0 0 48 43" fill="none" xmlns="http://www.w3.org/2000/svg">
<g clip-path="url(#clip0_31_64)">
<g clip-path="url(#clip1_31_64)">
<g clip-path="url(#clip2_31_64)">
<mask id="mask0_31_64" style="mask-type:luminance" maskUnits="userSpaceOnUse" x="3" y="0" width="42" height="43">
<path d="M3 0.419922H45V42.4199H3V0.419922Z" fill="white"/>
</mask>
<g mask="url(#mask0_31_64)">
<path d="M11.387 0.476318C11.292 0.479099 11.2009 0.483734 11.1059 0.490222C11.0981 0.491149 11.0896 0.49393 11.0825 0.494857C10.6987 0.505979 10.3561 0.780343 10.2004 1.19282C10.1989 1.19653 10.1965 1.20023 10.195 1.20487C10.195 1.20487 10.1965 1.20487 10.1934 1.21321C10.1934 1.21321 10.1895 1.21506 10.1895 1.21599C10.1872 1.22155 10.1872 1.22711 10.1794 1.2438C10.1786 1.2475 10.1771 1.25121 10.1747 1.25492C9.96141 1.80828 9.83449 2.44785 9.71304 3.15044C9.66243 3.44242 9.4927 3.68713 9.25991 3.80021C9.24901 3.80576 9.22487 3.81967 9.18595 3.84006C8.95237 3.95685 8.6861 3.92719 8.47434 3.76035C7.97216 3.36456 7.49879 3.01419 7.01918 2.80285C7.00283 2.7973 6.98571 2.7908 6.96858 2.78247C6.61432 2.62211 6.21025 2.7148 5.93386 3.02623C5.92841 3.03273 5.92218 3.03922 5.91673 3.04663C5.83731 3.13005 5.77347 3.19586 5.70807 3.26909C5.70652 3.27001 5.7034 3.27187 5.70028 3.27373L5.69872 3.27836C5.69639 3.27928 5.69562 3.28021 5.69406 3.28299C5.65045 3.33305 5.60919 3.38125 5.56715 3.43315C5.56559 3.43593 5.56403 3.43685 5.56326 3.43871L5.55937 3.44149L5.55547 3.44613C5.55469 3.44798 5.55392 3.4489 5.55236 3.45076C5.50954 3.49989 5.46982 3.54809 5.427 3.59907C5.42545 3.60092 5.42389 3.6037 5.42156 3.60555L5.42 3.60741L5.41844 3.61019L5.41533 3.61668C5.34915 3.69732 5.28842 3.77982 5.22458 3.86324C5.22069 3.87065 5.21524 3.87714 5.21056 3.88363C4.94741 4.21268 4.86722 4.69467 5.00346 5.11826C5.01047 5.14051 5.01592 5.16369 5.02059 5.18685C5.19889 5.75413 5.49241 6.31119 5.82408 6.90905C5.96422 7.16025 5.98991 7.47817 5.89104 7.75531C5.87157 7.80908 5.85833 7.84059 5.856 7.85079C5.75946 8.127 5.55392 8.32815 5.30711 8.38839C4.71772 8.53206 4.18208 8.68501 3.71727 8.93619C3.71493 8.93619 3.71182 8.93805 3.70792 8.93898V8.93619L3.69469 8.94824C3.69157 8.94918 3.68612 8.95196 3.683 8.95473L3.66354 8.96586C3.31552 9.14939 3.08351 9.55722 3.07417 10.0133C3.07417 10.0225 3.07339 10.0328 3.07183 10.0411C3.06716 10.155 3.06171 10.2626 3.05859 10.3757C3.05859 10.3775 3.05859 10.3803 3.05859 10.3822V10.3868C3.05859 10.3886 3.05859 10.3924 3.05859 10.3961C3.05859 10.4656 3.05859 10.5323 3.05859 10.6037C3.05859 10.6065 3.05859 10.6084 3.05859 10.6112V10.6241C3.05859 10.6268 3.05859 10.6296 3.05859 10.6334C3.05859 10.7048 3.05859 10.7696 3.05859 10.8392C3.05859 10.8419 3.05859 10.8456 3.05859 10.8484V10.8531C3.05859 10.8558 3.05859 10.8576 3.05859 10.8595C3.06093 10.9736 3.0656 11.0811 3.07183 11.1941C3.07339 11.2025 3.07339 11.2127 3.07417 11.2219C3.08351 11.678 3.31552 12.0858 3.66354 12.2702L3.683 12.2842C3.68768 12.286 3.6939 12.2888 3.70247 12.2935L3.70792 12.2981C3.71104 12.2981 3.71337 12.299 3.71727 12.2999C4.18208 12.552 4.71772 12.7041 5.30711 12.8477C5.55392 12.9071 5.75946 13.1082 5.856 13.3854C5.85989 13.3956 5.87157 13.427 5.89104 13.4808C5.98991 13.758 5.96422 14.0759 5.82408 14.3271C5.49241 14.9259 5.19889 15.4848 5.02059 16.052C5.01592 16.0753 5.01047 16.0984 5.00346 16.1206C4.86722 16.5443 4.94741 17.0262 5.21056 17.3544C5.21524 17.3599 5.2199 17.3655 5.22536 17.3729C5.28842 17.4563 5.34915 17.5388 5.41533 17.6204L5.41844 17.6278L5.42078 17.6296L5.42156 17.6287C5.42389 17.6306 5.42545 17.6334 5.427 17.6352C5.46905 17.6862 5.50954 17.7326 5.55236 17.7835C5.55313 17.7863 5.55392 17.7881 5.55547 17.7909L5.56326 17.7946C5.56403 17.7974 5.56559 17.7993 5.56715 17.802C5.60919 17.8531 5.65045 17.9012 5.69406 17.9522C5.69562 17.9531 5.69795 17.955 5.69951 17.9569L5.70184 17.9615C5.7034 17.9625 5.70652 17.9633 5.70885 17.9661C5.77425 18.0394 5.83887 18.1061 5.91751 18.1886C5.92296 18.196 5.92918 18.2025 5.93463 18.209C6.2118 18.5204 6.61667 18.6131 6.97091 18.4527C6.98804 18.4463 7.00361 18.4388 7.02074 18.4324C7.50112 18.221 7.97293 17.8706 8.47667 17.4749C8.68688 17.308 8.95393 17.2783 9.18672 17.3952C9.22565 17.4155 9.25057 17.4294 9.26069 17.435C9.49426 17.5481 9.66399 17.7918 9.71537 18.0847C9.83605 18.7864 9.96374 19.4279 10.1763 19.9803C10.1778 19.983 10.1794 19.9868 10.1817 19.9914C10.1895 20.009 10.188 20.0136 10.1911 20.0192L10.195 20.0211C10.1989 20.0294 10.195 20.0294 10.1965 20.0294C10.1989 20.0332 10.2004 20.0368 10.2028 20.0415C10.3577 20.4539 10.7003 20.7302 11.0841 20.7422C11.0919 20.7422 11.1005 20.7431 11.1082 20.7441C11.2032 20.7505 11.2935 20.7552 11.3885 20.758C11.3909 20.758 11.3924 20.758 11.3948 20.758H11.3986C11.4002 20.758 11.4033 20.758 11.4057 20.758C11.4687 20.758 11.5279 20.758 11.5894 20.758C11.5941 20.758 11.5995 20.758 11.605 20.758C11.6665 20.758 11.7241 20.758 11.7848 20.758C11.7887 20.758 11.7934 20.758 11.798 20.758H11.8004C11.8931 20.7552 11.981 20.7505 12.0752 20.7441C12.083 20.7431 12.0916 20.7431 12.0986 20.7422C12.4825 20.7302 12.825 20.4539 12.9807 20.0415C12.9869 20.0266 12.9947 20.0118 13.0025 19.9969C13.0025 19.996 13.0025 19.9942 13.0025 19.9924C13.0025 19.9924 13.0033 19.9914 13.0041 19.9905C13.0056 19.9886 13.0064 19.9877 13.0079 19.9858C13.222 19.4315 13.3474 18.7883 13.4673 18.0838C13.5172 17.7909 13.6877 17.5471 13.9212 17.4341C13.9422 17.4239 13.9694 17.4091 14.003 17.3924C14.2366 17.2756 14.5028 17.3052 14.713 17.4712C15.2168 17.8679 15.6855 18.2155 16.1612 18.4268C16.1799 18.4324 16.1985 18.4388 16.2172 18.4472C16.5754 18.6103 16.9787 18.5176 17.2566 18.2016C17.2628 18.196 17.2683 18.1886 17.2737 18.183C17.3477 18.1052 17.4162 18.0292 17.4848 17.9513L17.4957 17.9402L17.6202 17.7918L17.7751 17.6102L17.7674 17.6148C17.8312 17.536 17.8865 17.4591 17.9589 17.3627C17.9643 17.3563 17.9698 17.3488 17.976 17.3424C18.2384 17.0123 18.3178 16.5266 18.1823 16.1058C18.1769 16.0892 18.1714 16.0715 18.1667 16.0548C18.166 16.0539 18.1652 16.053 18.1628 16.0502C17.9846 15.4792 17.6919 14.9129 17.3594 14.315C17.2208 14.0657 17.1959 13.7505 17.2932 13.4753C17.3026 13.4493 17.3135 13.4168 17.3228 13.3862C17.4177 13.1082 17.6241 12.9043 17.8725 12.8441C18.4634 12.7003 18.9998 12.5493 19.4646 12.2962C19.4677 12.2953 19.47 12.2944 19.474 12.2916C19.4896 12.2842 19.4935 12.2842 19.4981 12.2805L19.502 12.2758C19.5091 12.273 19.5075 12.274 19.5091 12.274C19.5121 12.2712 19.5152 12.2693 19.5191 12.2675C19.8663 12.0821 20.0969 11.6752 20.1062 11.2191C20.107 11.2099 20.1085 11.1997 20.11 11.1905C20.1155 11.0736 20.1186 10.9652 20.1218 10.8493C20.1218 10.8484 20.1218 10.8475 20.1218 10.8456C20.1218 10.7696 20.1218 10.6982 20.1218 10.6223C20.1218 10.6195 20.1218 10.6176 20.1218 10.6157C20.1218 10.6129 20.1218 10.6112 20.1218 10.6084C20.1218 10.5323 20.1218 10.461 20.1218 10.3858C20.1218 10.3858 20.1218 10.384 20.1218 10.3831C20.1202 10.2682 20.117 10.1588 20.11 10.0429C20.1093 10.0336 20.107 10.0234 20.1062 10.0142C20.0969 9.55815 19.8663 9.14846 19.5191 8.96401C19.5161 8.96215 19.5129 8.96123 19.5091 8.95937C19.5091 8.95937 19.5091 8.95937 19.502 8.95473L19.4981 8.95196C19.4935 8.9501 19.4896 8.9501 19.474 8.94083C19.4716 8.93898 19.4686 8.93619 19.4646 8.93435C18.9998 8.68037 18.4634 8.53021 17.8725 8.38655C17.6257 8.32722 17.4177 8.12516 17.3228 7.84615C17.3135 7.81557 17.3026 7.78405 17.2932 7.75809C17.1959 7.48188 17.2208 7.1658 17.3594 6.91554C17.6919 6.31768 17.9861 5.75227 18.1652 5.18037C18.1652 5.17944 18.166 5.17759 18.1667 5.17574C18.1714 5.15905 18.1769 5.14144 18.1823 5.12476C18.3186 4.70394 18.2384 4.2201 17.976 3.89104C17.9698 3.88363 17.9643 3.87714 17.9589 3.87065C17.8865 3.77425 17.8312 3.6964 17.7674 3.61576L17.6202 3.43871L17.4957 3.29319L17.4816 3.28484C17.4139 3.20698 17.3446 3.12913 17.2714 3.05127C17.2651 3.04478 17.2597 3.03922 17.2543 3.03273C16.9764 2.71758 16.573 2.62767 16.2141 2.78895C16.1954 2.7973 16.1775 2.80378 16.158 2.80935C15.6816 3.02161 15.2128 3.3692 14.7107 3.76499C14.4997 3.93183 14.2334 3.96149 13.9999 3.84469C13.9671 3.82709 13.9391 3.8104 13.9181 3.80021C13.6853 3.68713 13.5156 3.44335 13.4642 3.15044C13.3443 2.446 13.2182 1.8055 13.0056 1.25121C13.0041 1.24843 13.0033 1.24658 13.0018 1.2438C13.0018 1.2438 13.0002 1.24287 12.9993 1.24194V1.23916C12.9916 1.22341 12.9846 1.20857 12.9776 1.19282C12.8227 0.780343 12.48 0.505979 12.0962 0.494857C12.0885 0.49393 12.0799 0.492076 12.0721 0.490222C11.9779 0.483734 11.8907 0.479099 11.7973 0.476318H11.7949C11.7918 0.476318 11.7864 0.476318 11.7817 0.476318C11.721 0.476318 11.6641 0.476318 11.6019 0.476318C11.5972 0.476318 11.5925 0.476318 11.5871 0.476318C11.5248 0.476318 11.4656 0.476318 11.4033 0.476318C11.401 0.476318 11.3986 0.476318 11.3955 0.476318H11.3932C11.3916 0.476318 11.3885 0.476318 11.387 0.476318ZM11.5037 6.95725C11.5326 6.95725 11.5614 6.95725 11.5894 6.95725C13.289 6.95725 14.6663 8.59602 14.6663 10.6167C14.6663 12.6373 13.289 14.2751 11.5894 14.2751C9.89056 14.2751 8.51248 12.6373 8.51248 10.6167C8.51171 8.63495 9.83761 7.01286 11.5037 6.95725ZM20.94 9.74354C20.958 9.81493 20.9704 9.8881 20.975 9.9623C20.975 9.96687 20.975 9.97154 20.975 9.97621C20.975 9.98171 20.9813 9.98358 20.9813 9.98918H20.975C20.982 10.1125 20.9906 10.2403 20.9922 10.3719C20.9922 10.4499 20.9922 10.5305 20.9922 10.6084C20.9922 10.6129 20.9922 10.6195 20.9922 10.6241C20.9922 10.6362 20.9922 10.6473 20.9922 10.6574C20.9922 10.7242 20.9922 10.7946 20.9922 10.8614C20.9922 10.866 20.9922 10.8716 20.9922 10.8772C20.9906 10.9911 20.9829 11.1172 20.975 11.2507H20.9813C20.9813 11.2563 20.975 11.2581 20.975 11.2636C20.975 11.2664 20.975 11.2683 20.975 11.2711C20.9704 11.3424 20.9603 11.412 20.944 11.4815H43.4858V32.2146H12.2862V21.7469C12.2309 21.7553 12.1811 21.7766 12.1251 21.7776C12.1228 21.7776 12.1212 21.7776 12.1188 21.7776C12.1149 21.7776 12.111 21.7776 12.1072 21.7776C12.0129 21.7832 11.9171 21.7971 11.8152 21.8007C11.8074 21.8007 11.8004 21.8007 11.7934 21.8007C11.7288 21.8016 11.6626 21.8007 11.598 21.8007C11.5964 21.8007 11.5941 21.8007 11.5925 21.8007C11.5287 21.8007 11.4609 21.8007 11.3971 21.8007C11.3955 21.8007 11.3932 21.8007 11.3916 21.8007C11.3839 21.8007 11.3761 21.8007 11.3698 21.8007C11.3675 21.8007 11.3659 21.8007 11.3644 21.8007C11.2593 21.798 11.1581 21.7841 11.0615 21.7776C11.0592 21.7776 11.0553 21.7776 11.0537 21.7776C10.9735 21.7757 10.9011 21.7469 10.8248 21.7313V34.9387C10.8248 35.848 11.4461 36.5868 12.2107 36.5868H24.428C24.393 36.9409 24.3556 37.2939 24.3229 37.648C24.2482 38.4165 24.1773 39.1561 23.9383 39.78C23.8223 40.083 23.6666 40.3463 23.479 40.5057C23.4174 40.5586 23.3489 40.5984 23.278 40.6309H21.7389C21.4936 40.6309 21.2935 40.8663 21.2935 41.1601C21.2935 41.2204 21.3021 41.2787 21.3192 41.3362L21.5535 42.1232C21.615 42.3354 21.784 42.4772 21.9708 42.4772H33.802C33.9896 42.4772 34.1578 42.3354 34.2193 42.1232L34.4537 41.3362C34.5354 41.0619 34.4148 40.7588 34.1827 40.6614C34.136 40.6411 34.0854 40.6309 34.0356 40.6309H32.4948C32.424 40.5984 32.3562 40.5586 32.2954 40.5057C32.1078 40.3463 31.9522 40.083 31.8369 39.78C31.5979 39.1561 31.5263 38.4165 31.4523 37.648C31.4188 37.2939 31.3814 36.9409 31.3464 36.5868H43.5645C44.3291 36.5868 44.948 35.848 44.948 34.9387V11.3851C44.948 10.4758 44.3291 9.7426 43.5645 9.7426L20.94 9.74354ZM27.8888 14.0907C26.8976 14.0898 25.9065 14.2298 24.9396 14.5199C21.9475 15.4153 19.3244 17.689 17.677 20.7765C17.3313 21.4253 17.3313 22.3096 17.677 22.9575C19.3244 26.0469 21.9475 28.3206 24.9396 29.2169C27.5182 29.989 30.2736 29.7202 32.7097 28.4578C34.9239 27.3112 36.8081 25.373 38.0958 22.9575C38.44 22.3096 38.44 21.4262 38.0958 20.7793C36.8073 18.3619 34.9239 16.4266 32.7097 15.2809C31.1876 14.4911 29.5393 14.0935 27.8888 14.0907ZM27.7813 16.7769C27.8148 16.7769 27.8483 16.7769 27.881 16.7769C27.8833 16.7769 27.8849 16.7769 27.8872 16.7769C30.2517 16.7769 32.1694 19.0571 32.1694 21.8693C32.1694 24.6815 30.2517 26.9618 27.8872 26.9618C25.5219 26.9627 23.6028 24.6825 23.6028 21.8693C23.6028 19.1044 25.4565 16.8437 27.7813 16.7769ZM27.8872 18.1905C26.1783 18.1905 24.7932 19.8357 24.7932 21.8674C24.7932 21.8684 24.7932 21.8684 24.7932 21.8693C24.7932 23.9011 26.1783 25.5464 27.8872 25.5464C29.5938 25.5464 30.9789 23.8992 30.9789 21.8693C30.9789 19.845 29.6047 18.2006 27.902 18.1905C27.8966 18.1905 27.8926 18.1905 27.8872 18.1905ZM27.6435 19.0497C27.6474 19.0497 27.6489 19.0497 27.6529 19.0497C27.6544 19.0497 27.6583 19.0497 27.6606 19.0497C27.6778 19.0497 27.6925 19.0497 27.709 19.0497C27.8358 19.0552 27.9347 19.1025 28.0009 19.1887C28.1621 19.3982 28.1091 19.8125 27.86 20.2806C27.7354 20.1657 27.5844 20.1035 27.4271 20.1018C27.4255 20.1018 27.4255 20.1018 27.4232 20.1018C27.0292 20.1018 26.7093 20.4817 26.7093 20.9516C26.7093 21.126 26.7559 21.2956 26.84 21.4383C26.3838 21.7516 25.9828 21.8072 25.8061 21.5792C25.5538 21.2501 25.8403 20.4493 26.4453 19.7912C26.8439 19.3546 27.3033 19.071 27.6435 19.0497Z" fill="#00D280"/>
</g>
</g>
</g>
</g>
<defs>
<clipPath id="clip0_31_64">
<rect width="48" height="42" fill="white" transform="translate(0 0.419922)"/>
</clipPath>
<clipPath id="clip1_31_64">
<rect width="48" height="42" fill="white" transform="translate(0 0.419922)"/>
</clipPath>
<clipPath id="clip2_31_64">
<rect width="42.9333" height="42" fill="white" transform="translate(2.5332 0.419922)"/>
</clipPath>
</defs>
</svg>
