<svg width="31" height="31" viewBox="0 0 31 31" fill="none" xmlns="http://www.w3.org/2000/svg">
<g clip-path="url(#clip0_31_182)">
<g clip-path="url(#clip1_31_182)">
<g clip-path="url(#clip2_31_182)">
<path fill-rule="evenodd" clip-rule="evenodd" d="M18.0879 6.74803C19.0226 6.9698 19.9151 7.34042 20.7337 7.84456L22.4524 7.08106L24.4789 9.10683L23.7149 10.8257C24.2189 11.6444 24.5897 12.5376 24.812 13.4722L26.5662 14.1475V17.0127L24.812 17.688C24.5897 18.6226 24.2189 19.5158 23.7149 20.3338L24.4789 22.0534L22.4524 24.0791L20.7337 23.3156C19.9158 23.8198 19.0226 24.1904 18.0879 24.4129L17.4124 26.1671H14.5473L13.8718 24.4122C12.937 24.1904 12.0446 23.8198 11.2267 23.3156L9.5072 24.0791L7.48071 22.0534L8.24468 20.3345C7.74076 19.5158 7.36993 18.6234 7.14758 17.688L5.39345 17.0127V14.1475L7.14758 13.4722C7.36993 12.5376 7.74076 11.6444 8.24468 10.8265L7.48071 9.1076L9.5072 7.08106L11.226 7.84456C12.0446 7.34119 12.937 6.9698 13.8718 6.74803L14.5473 4.99314H17.4124L18.0879 6.74803ZM15.9798 9.66161C12.7116 9.66161 10.0619 12.3112 10.0619 15.5801C10.0619 18.849 12.7116 21.4986 15.9798 21.4986C19.248 21.4986 21.8977 18.849 21.8977 15.5801C21.8977 12.3112 19.248 9.66161 15.9798 9.66161ZM15.9798 10.63C13.2463 10.63 11.0298 12.8461 11.0298 15.5801C11.0298 18.3141 13.2455 20.5302 15.9798 20.5302C18.7141 20.5302 20.9299 18.3141 20.9299 15.5801C20.9299 12.8461 18.7141 10.63 15.9798 10.63ZM15.2659 16.0597L14.0518 14.845C13.7371 14.5304 13.2271 14.5304 12.9116 14.845C12.597 15.1596 12.597 15.6706 12.9116 15.9853L14.6981 17.7709C15.0127 18.0855 15.5228 18.0855 15.8375 17.7709C16.9138 16.6943 17.9786 15.6062 19.0495 14.5242C19.3627 14.2089 19.3611 13.7001 19.0465 13.3871C18.7318 13.074 18.221 13.0747 17.9086 13.3909L15.2659 16.0597ZM16.0198 29.6162C9.13483 29.6408 3.20232 24.6316 2.11753 17.7732C1.11044 11.4089 4.61178 5.13739 10.5166 2.65199L9.85418 3.90045C9.72954 4.13602 9.82033 4.42838 10.0565 4.55268C10.2927 4.67623 10.5843 4.58568 10.7089 4.35011L11.953 2.00436C12.1153 1.72965 11.9684 1.369 11.6537 1.28997L9.05559 0.638496C8.79708 0.57404 8.53473 0.731344 8.4701 0.990704C8.40471 1.2493 8.56243 1.51173 8.8217 1.57618L9.92573 1.85319C3.73241 4.58031 0.101048 11.2032 1.1643 17.9243C2.32449 25.2562 8.6586 30.6061 16.0198 30.58C16.286 30.58 16.5022 30.3644 16.5022 30.0981C16.5022 29.8319 16.286 29.6162 16.0198 29.6162ZM23.1379 29.584L22.0331 29.3062C28.2534 26.5722 31.8601 19.9693 30.7953 13.2359C29.6351 5.90243 23.3026 0.553322 15.9398 0.580179C15.6736 0.580179 15.4574 0.7958 15.4574 1.06207C15.4574 1.32833 15.6736 1.54472 15.9398 1.54472C22.8279 1.5194 28.7565 6.52627 29.8421 13.3871C30.8515 19.7652 27.374 26.0113 21.4422 28.5097L22.1054 27.2597C22.2301 27.0242 22.1393 26.7318 21.9031 26.6075C21.6669 26.484 21.3753 26.5745 21.2507 26.8101L20.0066 29.1558C19.8443 29.4313 19.9912 29.7912 20.3059 29.8702L22.904 30.5217C23.1625 30.5861 23.4249 30.4288 23.4895 30.1702C23.5549 29.9109 23.3972 29.6485 23.1379 29.584Z" fill="#00D280"/>
</g>
</g>
</g>
<defs>
<clipPath id="clip0_31_182">
<rect width="30" height="30" fill="white" transform="translate(0.980469 0.580078)"/>
</clipPath>
<clipPath id="clip1_31_182">
<rect width="30" height="30" fill="white" transform="translate(0.980469 0.580078)"/>
</clipPath>
<clipPath id="clip2_31_182">
<rect width="30" height="30" fill="white" transform="translate(0.980469 0.580078)"/>
</clipPath>
</defs>
</svg>
