<svg width="48" height="43" viewBox="0 0 48 43" fill="none" xmlns="http://www.w3.org/2000/svg">
<g clip-path="url(#clip0_31_75)">
<g clip-path="url(#clip1_31_75)">
<g clip-path="url(#clip2_31_75)">
<path d="M25.5149 36.5623C24.6762 37.3582 23.3167 37.3582 22.4789 36.5623C22.4342 36.5205 22.3926 36.4765 22.3526 36.4324C22.2451 36.3101 22.1549 36.1786 22.0819 36.0413C21.6779 35.2768 21.8105 34.3137 22.4789 33.6791C23.2681 32.9294 24.5186 32.8854 25.3627 33.5477C25.4152 33.5887 25.4654 33.6328 25.5149 33.6791C25.5823 33.7432 25.6451 33.8111 25.7016 33.8821C26.3425 34.6787 26.2798 35.8359 25.5149 36.5623ZM28.3908 34.6115L27.7044 34.2353C27.589 34.1725 27.4996 34.0747 27.4494 33.959L27.3129 33.644C27.2627 33.5275 27.2548 33.3983 27.2902 33.2766L27.4345 32.7772L27.5004 32.551L27.5302 32.4479L27.3552 32.2814L26.9128 31.8589L26.8336 31.7827L26.7245 31.8104L25.9589 32.0059C25.831 32.038 25.6953 32.029 25.573 31.9805L25.2426 31.8499C25.1194 31.8014 25.0175 31.7155 24.9524 31.6065L24.5601 30.9518L24.5045 30.8585H24.3914L23.6297 30.8562L23.5167 30.8555L23.4603 30.9488L23.0642 31.6005C22.9982 31.7096 22.8954 31.7947 22.773 31.8425L22.4412 31.9715C22.3189 32.0193 22.1823 32.0275 22.0545 31.9939L21.2903 31.7947L21.1821 31.7663L21.1014 31.8417L20.5608 32.3516L20.4808 32.427L20.5106 32.5308L20.7162 33.2572C20.7499 33.3789 20.7413 33.5081 20.6902 33.6238L20.5522 33.9381C20.5012 34.0546 20.4102 34.1509 20.2949 34.2136L19.6061 34.5853L19.5081 34.6384L19.5072 34.7451L19.5049 35.4693V35.5761L19.6021 35.6298L20.2893 36.0062C20.4039 36.0689 20.4941 36.1659 20.5443 36.2832L20.68 36.5974C20.7303 36.7139 20.7388 36.8431 20.7036 36.964L20.4934 37.6905L20.4635 37.7935L20.5428 37.8697L20.7381 38.0556L21.0802 38.3825L21.1594 38.4587L21.2684 38.4311L21.4394 38.3877L22.034 38.2362C22.1627 38.2033 22.2984 38.2115 22.4201 38.2608L22.7511 38.3915C22.8735 38.44 22.9755 38.5259 23.0414 38.6356L23.4328 39.2896L23.4885 39.383H23.6015L24.364 39.3852L24.4762 39.3859L24.5327 39.2926L24.9289 38.6409C24.9955 38.5319 25.0983 38.4467 25.2207 38.3989L25.5525 38.2698C25.6749 38.222 25.8106 38.2138 25.9384 38.2474L26.7026 38.4467L26.8116 38.4759L26.8917 38.4004L27.4321 37.8898L27.5121 37.8144L27.4831 37.7114L27.2776 36.9842C27.2431 36.8625 27.2525 36.7333 27.3034 36.6176L27.4416 36.3033C27.4925 36.1876 27.5828 36.0905 27.6981 36.0278L28.3877 35.656L28.4857 35.603V35.4954L28.488 34.772L28.4889 34.6652L28.3908 34.6115Z" fill="#00D280"/>
<mask id="mask0_31_75" style="mask-type:luminance" maskUnits="userSpaceOnUse" x="3" y="0" width="42" height="43">
<path d="M3 0.419922H45V42.4199H3V0.419922Z" fill="white"/>
</mask>
<g mask="url(#mask0_31_75)">
<path d="M40.7583 29.1769C39.4889 27.925 37.6956 27.1469 35.7117 27.1469H33.1495C32.5384 27.1492 32.2285 27.86 32.6584 28.2698C34.3969 29.9332 35.4732 32.2126 35.4732 34.7279V34.7951C35.2323 34.9646 34.9867 35.1287 34.7365 35.2885V34.7279C34.7365 30.0378 30.6862 26.222 25.7071 26.222H22.2929C17.3146 26.222 13.2642 30.0378 13.2642 34.7279V35.2885C13.014 35.1287 12.7685 34.9646 12.5277 34.7951V34.7279C12.5277 32.2126 13.6031 29.9332 15.3424 28.2698C15.7723 27.86 15.4624 27.1492 14.8513 27.1469H12.2892C10.302 27.1469 8.50947 27.9272 7.23938 29.1792C5.63588 26.5318 4.7196 23.4656 4.7196 20.2052C4.7196 10.1875 13.3678 2.04001 24 2.04001C34.6306 2.04001 43.2812 10.1875 43.2812 20.2052C43.2812 23.4656 42.3626 26.5295 40.7583 29.1769ZM24 41.2627C20.3435 41.2627 17.3687 38.4601 17.3687 35.0152C17.3687 31.5697 20.3435 28.7671 24 28.7671C27.6565 28.7671 30.6313 31.5697 30.6313 35.0152C30.6313 38.4601 27.6565 41.2627 24 41.2627ZM24 0.419922C12.4194 0.419922 3 9.29685 3 20.2052C3 24.0121 4.14693 27.5711 6.13639 30.5933C7.49277 32.659 9.2414 34.474 11.2873 35.941C11.9188 36.3965 12.5794 36.8175 13.2642 37.202C13.338 37.2461 13.4141 37.2871 13.4879 37.329C14.7085 37.9956 16.0053 38.5511 17.364 38.9767L17.3647 38.9774C18.7612 41.0448 21.2127 42.4199 24 42.4199C26.7873 42.4199 29.2388 41.0448 30.6344 38.9774L30.6367 38.9767C31.9955 38.5511 33.2915 37.9956 34.5121 37.329C34.5867 37.2871 34.662 37.2461 34.7365 37.202C35.4214 36.8175 36.0819 36.3965 36.7134 35.941C38.757 34.474 40.5081 32.659 41.8636 30.5933C43.8539 27.5711 45 24.0121 45 20.2052C45 9.29685 35.5783 0.419922 24 0.419922Z" fill="#00D280"/>
</g>
<path d="M33.4566 16.0625C32.3535 16.0625 31.3369 16.4036 30.5108 16.9778C30.2417 17.1651 30.1076 17.4787 30.1688 17.7901C30.2378 18.1417 30.2739 18.5046 30.2739 18.8748C30.2739 20.1403 29.8565 21.3147 29.145 22.2801C28.9598 22.5316 28.9262 22.8616 29.0838 23.1297C29.9389 24.5833 31.5746 25.5673 33.4535 25.5688C36.0854 25.5703 38.3149 23.5716 38.4553 21.0758C38.6091 18.3328 36.3121 16.0625 33.4566 16.0625Z" fill="#00D280"/>
<path d="M17.7259 18.8748C17.7259 18.5046 17.7628 18.1417 17.8317 17.7901C17.8921 17.4787 17.758 17.1651 17.4889 16.9778C16.6628 16.4036 15.6461 16.0625 14.5431 16.0625C11.6876 16.0625 9.39065 18.3328 9.5444 21.0758C9.68483 23.5709 11.9143 25.5703 14.5463 25.5688C16.4252 25.5673 18.0609 24.5833 18.9167 23.1297C19.0736 22.8616 19.0398 22.5316 18.8548 22.2808C18.144 21.3147 17.7259 20.1403 17.7259 18.8748Z" fill="#00D280"/>
<path d="M23.9981 13.6179C20.9456 13.6179 18.4619 15.9765 18.4619 18.8746C18.4619 21.7737 20.9456 24.1321 23.9981 24.1321C27.0513 24.1321 29.535 21.7737 29.535 18.8746C29.535 15.9765 27.0513 13.6179 23.9981 13.6179Z" fill="#00D280"/>
</g>
</g>
</g>
<defs>
<clipPath id="clip0_31_75">
<rect width="48" height="42" fill="white" transform="translate(0 0.419922)"/>
</clipPath>
<clipPath id="clip1_31_75">
<rect width="48" height="42" fill="white" transform="translate(0 0.419922)"/>
</clipPath>
<clipPath id="clip2_31_75">
<rect width="42.9333" height="42" fill="white" transform="translate(2.5332 0.419922)"/>
</clipPath>
</defs>
</svg>
