<svg width="48" height="43" viewBox="0 0 48 43" fill="none" xmlns="http://www.w3.org/2000/svg">
<g clip-path="url(#clip0_31_27)">
<g clip-path="url(#clip1_31_27)">
<g clip-path="url(#clip2_31_27)">
<path d="M30.2539 33.1565C29.4431 33.1565 28.6523 32.9877 27.903 32.6565C27.4583 32.4597 27.0422 32.2127 26.6547 31.9127C25.3033 32.594 23.799 32.9738 22.2117 32.9738C16.3459 32.9738 11.5913 27.783 11.5913 21.3829C11.5913 14.9827 16.3459 9.79358 22.2117 9.79358C27.6771 9.79358 32.1772 14.2983 32.7663 20.0922C33.4771 20.4312 34.1177 20.9094 34.6725 21.5141C35.519 22.4391 36.1024 23.6017 36.3585 24.8751C36.5615 25.8876 36.5501 26.9345 36.3284 27.9345L36.8518 28.5064L40.5897 28.5736C41.0373 26.7549 40.9758 27.0017 41.4235 25.1845L37.7627 22.9641C37.7627 21.5454 37.7627 21.2204 37.7627 19.8015L41.4235 17.5828C40.9758 15.764 41.0373 16.0109 40.5897 14.1921L36.4028 14.2686C35.7522 13.039 35.6034 12.7577 34.9543 11.528L37.1077 7.6107C35.888 6.27942 36.0524 6.46067 34.8341 5.12939L31.242 7.47944C30.1166 6.77005 29.8592 6.60755 28.731 5.89816L28.8011 1.32775C27.1352 0.840243 27.361 0.907432 25.6951 0.419922L23.6603 4.41532C22.3604 4.41532 22.063 4.41532 20.7617 4.41532L18.7283 0.419922C17.0623 0.907432 17.2883 0.840243 15.6224 1.32775L15.691 5.89816C14.5657 6.60755 14.3083 6.77005 13.1815 7.47944L9.58932 5.12939C8.36956 6.46067 8.53543 6.27942 7.31567 7.6107L9.4692 11.5295C8.82 12.7577 8.66985 13.039 8.02064 14.2686L3.83224 14.1937C3.38609 16.0125 3.44758 15.7655 3 17.5843L6.66074 19.8031C6.66074 21.2219 6.66074 21.5469 6.66074 22.9657L3 25.1845C3.44758 27.0033 3.38609 26.7563 3.83224 28.5751L8.02064 28.5002C8.66985 29.7284 8.82 30.0096 9.4692 31.2393L7.31567 35.1581C8.53543 36.4894 8.36956 36.3082 9.58932 37.6394L13.1815 35.2893C14.3068 35.9988 14.5642 36.1613 15.691 36.8707L15.6224 41.441C17.2883 41.9285 17.0623 41.8614 18.7283 42.3489L20.7617 38.3535C22.063 38.3535 22.3604 38.3535 23.6603 38.3535L25.6951 42.3489C27.361 41.8614 27.1352 41.9285 28.8011 41.441L28.731 36.8707C29.8578 36.1613 30.1152 35.9988 31.242 35.2893L34.8341 37.6394C35.0758 37.3753 35.2631 37.1707 35.4176 37.0019L31.7196 32.9675C31.2406 33.0925 30.7501 33.1565 30.2539 33.1565Z" fill="#00D280"/>
<mask id="mask0_31_27" style="mask-type:luminance" maskUnits="userSpaceOnUse" x="24" y="20" width="21" height="23">
<path d="M24.9551 20.4209H44.9977V42.4213H24.9551V20.4209Z" fill="white"/>
</mask>
<g mask="url(#mask0_31_27)">
<path d="M44.0944 37.9243L35.2243 28.2445C35.8721 26.2226 35.4575 23.885 33.976 22.2694C32.4044 20.5537 30.0864 20.149 28.1617 21.0537L31.5335 24.735L28.7795 27.7413L25.4061 24.0601C24.5768 26.1616 24.9485 28.6898 26.5201 30.407C28.0001 32.0227 30.1422 32.4758 31.9955 31.768L40.8656 41.4479C41.7579 42.4213 43.2036 42.4213 44.0944 41.4479C44.9868 40.476 44.9868 38.8978 44.0944 37.9243Z" fill="#00D280"/>
</g>
<path d="M15.6027 26.0565V19.0626H17.0599V17.0532H15.6027V15.1125H14.5274V17.0532H13.0703V19.0626H14.5274V26.0565H15.6027Z" fill="#00D280"/>
<path d="M19.2669 26.0565V24.4065H20.724V22.397H19.2669V15.1125H18.193V22.397H16.7344V24.4065H18.193V26.0565H19.2669Z" fill="#00D280"/>
<path d="M22.9407 26.0565V20.4032H24.3978V18.3923H22.9407V15.1125H21.8668V18.3923H20.4082V20.4032H21.8668V26.0565H22.9407Z" fill="#00D280"/>
</g>
</g>
</g>
<defs>
<clipPath id="clip0_31_27">
<rect width="48" height="42" fill="white" transform="translate(0 0.419922)"/>
</clipPath>
<clipPath id="clip1_31_27">
<rect width="48" height="42" fill="white" transform="translate(0 0.419922)"/>
</clipPath>
<clipPath id="clip2_31_27">
<rect width="42.9333" height="42" fill="white" transform="translate(2.5332 0.419922)"/>
</clipPath>
</defs>
</svg>
