<svg width="31" height="27" viewBox="0 0 31 27" fill="none" xmlns="http://www.w3.org/2000/svg">
<g clip-path="url(#clip0_31_174)">
<g clip-path="url(#clip1_31_174)">
<g clip-path="url(#clip2_31_174)">
<path fill-rule="evenodd" clip-rule="evenodd" d="M11.5638 2.62211C11.5221 2.62211 11.4803 2.64603 11.4379 2.66995C11.3335 2.71778 11.2494 2.78953 11.1659 2.86196C11.1026 2.95762 11.04 3.05397 10.9982 3.17356C10.9773 3.22139 10.9564 3.2699 10.9564 3.31774C10.9355 3.36557 10.9355 3.38948 10.9355 3.43731V4.37346H20.3644V3.43731C20.3644 3.38948 20.3644 3.36557 20.3436 3.31774C20.3436 3.2699 20.3227 3.22139 20.3013 3.17356C20.2594 3.07789 20.1968 2.95762 20.1127 2.88588C20.0291 2.78953 19.945 2.71778 19.8406 2.66995C19.7988 2.64603 19.7565 2.62211 19.7147 2.62211C19.6729 2.59751 19.652 2.59751 19.6102 2.59751H11.6688C11.6265 2.59751 11.6057 2.59751 11.5638 2.62211ZM9.34297 3.43731C9.34297 3.24599 9.36386 3.07789 9.40562 2.90979C9.42651 2.7417 9.48976 2.5736 9.55241 2.40619C9.65684 2.0939 9.84599 1.83015 10.0554 1.5903C10.2648 1.34977 10.4952 1.13384 10.7679 1.01426C10.9141 0.941828 11.0609 0.870079 11.2076 0.846163C11.3544 0.798331 11.5012 0.774414 11.6688 0.774414H19.6102C19.7774 0.774414 19.9241 0.798331 20.0709 0.846163C20.2177 0.870079 20.3644 0.941828 20.5112 1.01426C20.7833 1.13384 21.0137 1.34977 21.2237 1.5903C21.454 1.80623 21.6217 2.0939 21.7471 2.40619C21.8103 2.54968 21.8729 2.71778 21.8938 2.88588C21.9356 3.07789 21.9571 3.24599 21.9571 3.43731V4.37346H27.7402C28.955 4.37346 30.1914 5.76539 30.1914 7.15664V9.67672L17.4729 14.4518C17.3888 14.404 17.3053 14.3793 17.242 14.3554C17.1585 14.3315 17.0535 14.3315 16.9699 14.3315H14.3296C14.246 14.3315 14.1409 14.3315 14.0574 14.3554C13.9942 14.3793 13.9107 14.404 13.848 14.4279L1.12891 9.67672V7.15664C1.12891 5.76539 2.34437 4.37346 3.55983 4.37346H9.34297V3.43731ZM14.3087 15.5553H16.9908C17.0117 15.5553 17.0326 15.5553 17.0535 15.5553C17.0749 15.5792 17.1167 15.6031 17.1376 15.6517C17.1794 15.6756 17.2002 15.7234 17.2211 15.7473C17.2211 15.7712 17.2211 15.7712 17.2211 15.7952L17.242 15.8191V16.8509L17.2211 16.8748C17.2211 16.8994 17.2211 16.9233 17.2211 16.9233C17.2002 16.9712 17.1794 17.019 17.1376 17.0429C17.1167 17.0914 17.0749 17.1153 17.0326 17.1393C17.0326 17.1393 17.0117 17.1393 16.9908 17.1393L16.9699 17.1632H14.3296L14.3087 17.1393C14.2878 17.1393 14.2668 17.1393 14.2668 17.1393C14.2251 17.1153 14.1833 17.0914 14.1618 17.0429C14.1201 17.019 14.0992 16.9712 14.0783 16.9233C14.0783 16.9233 14.0783 16.8994 14.0783 16.8748V15.7952C14.0783 15.7712 14.0783 15.7712 14.0783 15.7473C14.0992 15.7234 14.1201 15.6756 14.1618 15.6517C14.1833 15.6031 14.2251 15.5792 14.246 15.5553C14.2668 15.5553 14.2878 15.5553 14.3087 15.5553ZM18.2689 15.5075C18.2689 15.4836 18.248 15.4597 18.248 15.435L30.1914 10.9483V23.57C30.1914 24.9619 28.955 26.3771 27.7402 26.3771H3.55983C2.34437 26.3771 1.12891 24.9619 1.12891 23.57V10.9483L13.0514 15.435C13.0514 15.4597 13.0306 15.4836 13.0306 15.5075C13.0097 15.6031 13.0097 15.7234 13.0097 15.8191V16.8509C13.0097 16.9472 13.0097 17.0668 13.0306 17.1632C13.0514 17.2588 13.0723 17.3552 13.1147 17.4508C13.1773 17.6189 13.2824 17.7631 13.4076 17.9067C13.5335 18.0508 13.6594 18.1711 13.8056 18.2428C13.8898 18.2907 13.9733 18.3146 14.0574 18.3392C14.1409 18.3631 14.246 18.387 14.3296 18.387H16.9699C17.0535 18.387 17.1585 18.3631 17.242 18.3392C17.3261 18.3146 17.4096 18.2907 17.4938 18.2428C17.6405 18.1711 17.7659 18.0508 17.8918 17.9067C18.0177 17.7631 18.1221 17.6189 18.1854 17.4508C18.2271 17.3552 18.248 17.2588 18.2689 17.1632C18.2897 17.0668 18.3107 16.9472 18.3107 16.8509V15.8191C18.3107 15.7234 18.2897 15.6031 18.2689 15.5075Z" fill="#00D280"/>
</g>
</g>
</g>
<defs>
<clipPath id="clip0_31_174">
<rect width="30" height="26.25" fill="white" transform="translate(0.660156 0.450195)"/>
</clipPath>
<clipPath id="clip1_31_174">
<rect width="30" height="26.25" fill="white" transform="translate(0.660156 0.450195)"/>
</clipPath>
<clipPath id="clip2_31_174">
<rect width="30" height="26.25" fill="white" transform="translate(0.660156 0.450195)"/>
</clipPath>
</defs>
</svg>
