<svg width="61" height="61" viewBox="0 0 61 61" fill="none" xmlns="http://www.w3.org/2000/svg">
<g clip-path="url(#clip0_1_22457)">
<g clip-path="url(#clip1_1_22457)">
<mask id="mask0_1_22457" style="mask-type:luminance" maskUnits="userSpaceOnUse" x="0" y="0" width="61" height="61">
<path d="M60.1099 0.859863H0.109863V60.8599H60.1099V0.859863Z" fill="white"/>
</mask>
<g mask="url(#mask0_1_22457)">
<path d="M16.0942 47.4067C16.0942 47.4536 16.1411 47.5004 16.1411 47.5473L17.1723 48.5786C17.2192 48.6254 17.2661 48.6254 17.3129 48.6254H20.8286C20.8754 48.6254 20.9223 48.5786 20.9692 48.5786L22.0004 47.5473C22.0473 47.5004 22.0473 47.4536 22.0473 47.4067V36.2504C22.0473 36.2036 22.0942 36.1567 22.0942 36.1098L26.5473 31.8442C26.5942 31.7973 26.641 31.7973 26.641 31.8442L37.9379 48.5317C37.9848 48.5785 38.0317 48.5786 38.0786 48.5786H43.0473C43.0942 48.5786 43.1411 48.5317 43.1879 48.4848L44.0786 46.7504V46.6098L30.9067 27.5317C30.8598 27.4848 30.9067 27.4379 30.9067 27.391L43.0473 15.2973C43.0942 15.2504 43.0942 15.2035 43.0942 15.1567V14.9223C43.0942 14.8754 43.0942 14.8286 43.0473 14.7817L42.3442 13.1879C42.3442 13.141 42.2973 13.0942 42.2504 13.0942H37.3286C37.2817 13.0942 37.2348 13.1411 37.1879 13.1411L22.1411 28.2817C22.0942 28.3286 22.0942 28.2817 22.0942 28.2348V14.4067C22.0942 14.3598 22.0473 14.3129 22.0473 14.266L21.016 13.1879C20.9692 13.141 20.9223 13.1411 20.8754 13.1411H17.3129C17.2661 13.1411 17.2192 13.1879 17.1723 13.1879L16.1411 14.3129C16.0942 14.3598 16.0942 14.4067 16.0942 14.4535V47.4067Z" fill="white"/>
</g>
</g>
</g>
<defs>
<clipPath id="clip0_1_22457">
<rect width="60" height="60" fill="white" transform="translate(0.109863 0.859863)"/>
</clipPath>
<clipPath id="clip1_1_22457">
<rect width="60" height="60" fill="white" transform="translate(0.109863 0.859863)"/>
</clipPath>
</defs>
</svg>
