<svg width="48" height="43" viewBox="0 0 48 43" fill="none" xmlns="http://www.w3.org/2000/svg">
<g clip-path="url(#clip0_31_42)">
<g clip-path="url(#clip1_31_42)">
<g clip-path="url(#clip2_31_42)">
<mask id="mask0_31_42" style="mask-type:luminance" maskUnits="userSpaceOnUse" x="3" y="0" width="42" height="43">
<path d="M3 0.419922H45V42.4199H3V0.419922Z" fill="white"/>
</mask>
<g mask="url(#mask0_31_42)">
<path d="M20.9142 41.8679C20.906 42.0082 20.9307 42.1393 20.9637 42.2693H16.2994C16.7018 41.8865 17.1857 41.3915 17.7118 40.7571C18.9684 42.419 19.5595 41.9802 20.7254 40.5428C20.7913 40.5792 20.8574 40.6073 20.9225 40.6354L20.9142 41.8679ZM28.4455 16.5851V11.9445C28.4455 11.7292 28.594 11.5618 28.7828 11.5618H32.8642C33.053 11.5618 33.2006 11.7292 33.2006 11.9445V16.5851C33.2006 16.7993 33.053 16.9678 32.8642 16.9678H28.7828C28.6013 16.9678 28.4455 16.7993 28.4455 16.5851ZM29.5628 13.5128C29.5628 13.7926 29.7598 14.0172 30.0064 14.0172H31.6406C31.8872 14.0172 32.0842 13.7926 32.0842 13.5128C32.0842 13.2331 31.8872 13.0085 31.6406 13.0085H30.0064C29.7598 13.0085 29.5628 13.2331 29.5628 13.5128ZM29.5628 15.025C29.5628 15.3059 29.7598 15.5294 30.0064 15.5294H31.6406C31.8872 15.5294 32.0842 15.3059 32.0842 15.025C32.0842 14.7453 31.8872 14.5217 31.6406 14.5217H30.0064C29.7598 14.5217 29.5628 14.7453 29.5628 15.025ZM26.7701 19.2548C26.5813 19.2548 26.4336 19.0874 26.4336 18.872V9.65647C26.4336 9.44222 26.5813 9.26438 26.7701 9.26438H34.876C35.0648 9.26438 35.2133 9.44222 35.2133 9.65647V18.872C35.2133 19.0874 35.0648 19.2548 34.876 19.2548H26.7701ZM27.5583 16.5851C27.5583 17.3505 28.1091 17.9756 28.7828 17.9756H32.8642C33.5379 17.9756 34.0878 17.3505 34.0878 16.5851V11.9445C34.0878 11.1697 33.5379 10.553 32.8642 10.553H28.7828C28.1091 10.553 27.5583 11.1697 27.5583 11.9445V16.5851ZM44.8628 24.6327C44.157 22.588 42.8592 19.909 41.6521 18.0504C43.5245 14.5029 41.8986 10.4968 40.2479 6.60402C39.3607 4.64359 37.8988 3.07421 36.1079 2.18707C29.7764 -0.912181 22.7629 0.731047 19.0499 5.86665L22.5566 9.86238H25.5465C25.4722 9.03141 26.0148 8.25661 26.7701 8.26596H34.876C35.5497 8.26596 36.0996 8.89101 36.0996 9.65647V18.872C36.0996 19.6375 35.5497 20.2636 34.876 20.2636H26.7701C26.1128 20.2636 25.5712 19.6656 25.5465 18.9282H25.3328L20.2735 24.6795C19.9537 25.0809 19.4523 25.1184 19.0096 25.0903L20.2817 27.7975L20.7749 28.3581C20.8409 28.33 20.906 28.3019 20.9719 28.2644L20.9802 27.0133C20.9802 26.2853 21.5063 25.6884 22.1461 25.6884L24.0928 25.6977C24.7335 25.6977 25.2596 26.2946 25.2596 27.0226L25.2513 28.2831C25.3164 28.3112 25.3824 28.3393 25.4401 28.3767L26.2284 27.4896C26.6802 26.9759 27.4437 26.9852 27.8873 27.499L29.2502 29.058C29.7021 29.553 29.7021 30.4495 29.242 30.9445L28.4537 31.8316C28.4868 31.9056 28.5115 31.9804 28.5362 32.0553L29.6361 32.0646C30.2603 32.0553 30.8194 32.6814 30.8028 33.3907L30.7946 35.7431C30.7039 36.4067 30.2364 36.9288 29.6205 36.9194L28.5197 36.9101C28.495 36.985 28.462 37.0598 28.4372 37.1348L29.2099 38.0219C29.6691 38.5439 29.6691 39.3843 29.2099 39.8981L27.8213 41.4664C27.386 41.9801 26.5977 41.9708 26.1706 41.457L25.3906 40.5616C25.3246 40.598 25.2596 40.6261 25.1936 40.6542C25.1771 40.9256 25.2265 42.0176 25.1441 42.2693H36.2481C35.821 41.9802 34.9998 41.3364 34.4251 40.1685C33.7679 38.8435 33.2583 35.7151 34.843 35.9116C35.4599 36.0323 35.9851 36.1166 36.3874 36.1727C39.0317 36.5554 39.7878 36.2944 40.1654 36.1352C41.6603 35.5757 42.0957 33.3719 41.126 32.0553C41.7337 31.4209 42.4815 30.151 42.7446 29.3668C42.6209 29.0112 41.8162 26.5369 42.6126 26.3883C43.2286 26.2104 45.2165 25.6789 44.8628 24.6327ZM25.5547 39.4686C25.1853 39.7025 24.7994 39.8793 24.4053 40.001L24.3971 41.9053C24.3889 42.055 24.3229 42.1955 24.2165 42.2693H21.9169C21.8014 42.2048 21.7198 42.055 21.7198 41.8959L21.7272 39.9917C21.333 39.87 20.9472 39.6838 20.5778 39.4498L19.3872 40.7852C19.2387 40.9537 19.0014 40.9443 18.8529 40.7758C18.5165 40.3931 17.8263 39.5996 17.49 39.2168C17.3424 39.0484 17.3498 38.778 17.49 38.6095L18.6888 37.2648C18.4835 36.8456 18.3277 36.4067 18.2205 35.9585L16.5367 35.9491C16.3644 35.9491 16.2251 35.8181 16.1838 35.6402C16.1756 35.6038 16.1674 35.5664 16.1674 35.5196L16.1756 33.3252C16.1756 33.1015 16.3397 32.8956 16.5533 32.8956L18.2287 32.905C18.3442 32.4567 18.5 32.0178 18.7136 31.5977L17.5394 30.2446C17.391 30.0761 17.3992 29.8058 17.5394 29.6373L18.9106 28.0877C19.0581 27.9191 19.2965 27.9191 19.4441 28.0877L20.6274 29.4501C20.9885 29.2171 21.3825 29.0299 21.7767 28.9093L21.785 27.0039C21.785 26.7709 21.9573 26.5744 22.1625 26.5744L24.0928 26.5838C24.2981 26.5838 24.4704 26.7804 24.4704 27.0133L24.4621 28.928C24.8563 29.0486 25.2431 29.2358 25.6042 29.4687L26.803 28.1251C26.9506 27.966 27.1889 27.966 27.3374 28.1344L28.7003 29.6934C28.8479 29.8608 28.8396 30.1323 28.7003 30.2998L27.5014 31.6445C27.7068 32.0646 27.8626 32.5036 27.9772 32.9517L29.6526 32.9612C29.8258 32.9612 29.9734 33.0922 30.0146 33.269C30.0228 33.3064 30.0312 33.3438 30.0312 33.3907L30.0228 35.5945C30.0146 35.8274 29.8579 36.0147 29.6444 36.0147L27.9689 36.0052C27.8626 36.4618 27.6985 36.8913 27.4849 37.3115L28.6425 38.675C28.791 38.8435 28.791 39.1139 28.6425 39.2824L27.2632 40.8226C27.1238 40.9807 26.8772 40.9807 26.7288 40.8133L25.5547 39.4686ZM24.9305 32.0927C22.0727 29.4137 18.5742 33.9783 21.235 36.8268C24.0681 39.4966 27.6078 34.9777 24.9305 32.0927ZM19.3954 24.1845H16.0528L13.1703 27.4709C13.0878 27.5645 12.9732 27.6206 12.8577 27.6206H7.33093C6.84607 29.1797 4.7765 28.7876 4.76825 27.1163C4.76825 25.4449 6.84607 25.0528 7.33093 26.6119H12.6771L14.8045 24.1938H11.6919C11.2153 25.7528 9.1292 25.3607 9.13744 23.6894C9.13744 22.0181 11.2153 21.626 11.6919 23.186H19.2149L24.5117 17.1633C24.6922 16.921 25.3412 17.051 25.6454 17.0146V18.0223H25.013L19.7154 24.0451C19.6255 24.1283 19.5183 24.1845 19.3954 24.1845ZM10.8789 23.68C10.8789 23.0363 10.0164 23.0363 10.0164 23.68C10.0247 24.3248 10.8789 24.3248 10.8789 23.68ZM6.52527 27.1069C6.52527 26.4631 5.66372 26.4631 5.65547 27.1069C5.66372 27.7517 6.52527 27.7517 6.52527 27.1069ZM3.47866 2.01962C3.47866 0.348321 5.55648 -0.0437656 6.03309 1.51522H13.4902C13.679 1.51522 13.843 1.64626 13.909 1.85115L14.7797 4.60614H16.6275C16.7421 4.60614 16.8575 4.65295 16.9391 4.75487L22.2368 10.7776H25.6372V11.7854H22.048C21.9325 11.7854 21.8179 11.7292 21.7354 11.6366L16.4386 5.62328H8.92388C8.43904 7.18226 6.36946 6.79018 6.36121 5.11887C6.36121 3.44757 8.43904 3.05548 8.92388 4.6155H13.843L13.1859 2.5334H6.03309C5.54823 4.09238 3.47042 3.69094 3.47866 2.01962ZM8.11915 5.10952C8.11915 4.46574 7.25668 4.46574 7.24844 5.10952C7.25668 5.75432 8.1109 5.75432 8.11915 5.10952ZM4.35764 2.01962C4.35764 2.6634 5.22011 2.6634 5.22836 2.01962C5.22836 1.37481 4.36589 1.37481 4.35764 2.01962ZM4.34113 15.7635C3.61798 15.7635 3.01855 15.0905 3.01855 14.2596C3.01855 12.5883 5.09638 12.1962 5.58123 13.7551H17.5798L14.5084 10.2638H7.33093C6.85432 11.8228 4.76825 11.4401 4.76825 9.76876C4.76825 8.09748 6.83782 7.7054 7.32268 9.26438H14.689C14.8045 9.26438 14.9191 9.32054 15.0015 9.41414L18.8364 13.7739H25.6454V14.7733H18.8364L15.1656 18.9469C15.0831 19.0405 14.9686 19.0967 14.8531 19.0967H7.33093C6.84607 20.6556 4.7765 20.2636 4.76825 18.5923C4.76825 16.921 6.84607 16.5382 7.33093 18.0878H14.6643L17.5715 14.7827H5.58123C5.39242 15.3526 4.90756 15.7635 4.34113 15.7635ZM6.52527 18.5923C6.52527 17.9475 5.66372 17.9475 5.65547 18.5829C5.66372 19.2267 6.52527 19.2267 6.52527 18.5923ZM6.52527 9.76876C6.52527 9.12502 5.66372 9.12502 5.65547 9.76876C5.66372 10.4136 6.52527 10.4136 6.52527 9.76876ZM4.7765 14.2689C4.7765 13.6252 3.91402 13.6252 3.90577 14.2689C3.90577 14.9138 4.76825 14.9138 4.7765 14.2689Z" fill="#00D280"/>
</g>
</g>
</g>
</g>
<defs>
<clipPath id="clip0_31_42">
<rect width="48" height="42" fill="white" transform="translate(0 0.419922)"/>
</clipPath>
<clipPath id="clip1_31_42">
<rect width="48" height="42" fill="white" transform="translate(0 0.419922)"/>
</clipPath>
<clipPath id="clip2_31_42">
<rect width="42.9333" height="42" fill="white" transform="translate(2.5332 0.419922)"/>
</clipPath>
</defs>
</svg>
