<svg width="61" height="61" viewBox="0 0 61 61" fill="none" xmlns="http://www.w3.org/2000/svg">
<g clip-path="url(#clip0_1_22447)">
<g clip-path="url(#clip1_1_22447)">
<mask id="mask0_1_22447" style="mask-type:luminance" maskUnits="userSpaceOnUse" x="0" y="0" width="61" height="61">
<path d="M60.1099 0.859863H0.109863V60.8599H60.1099V0.859863Z" fill="white"/>
</mask>
<g mask="url(#mask0_1_22447)">
<path fill-rule="evenodd" clip-rule="evenodd" d="M41.3599 38.1068V25.4951L30.8599 31.4405V44.0521L41.3599 38.1068ZM18.8599 38.1068L29.3599 44.0521V31.4405L18.8599 25.4951V38.1068ZM19.6399 24.2042L30.1099 30.1321L40.5799 24.2042L30.1099 18.2755L19.6399 24.2042ZM42.4774 39.2068L30.4774 46.0014C30.3634 46.0656 30.2367 46.098 30.1099 46.098C29.9831 46.098 29.8564 46.0656 29.7424 46.0014L17.7424 39.2068C17.5061 39.0724 17.3599 38.821 17.3599 38.5484V24.2042C17.3599 23.9316 17.5061 23.6802 17.7424 23.5458L29.7424 16.7512C29.9704 16.6221 30.2494 16.6221 30.4774 16.7512L42.4774 23.5458C42.7137 23.6802 42.8599 23.9316 42.8599 24.2042V38.5484C42.8599 38.821 42.7137 39.0724 42.4774 39.2068ZM50.7326 27.076L49.2619 27.372C49.4794 28.4689 49.6099 29.9215 49.6099 31.2578C49.6099 40.3399 43.2379 48.3848 34.4584 50.3877L34.7891 51.8599C44.2466 49.703 51.1099 41.039 51.1099 31.2578C51.1099 29.8067 50.9719 28.2825 50.7326 27.076ZM10.6099 31.2578C10.6099 29.9321 10.7404 28.626 10.9969 27.3765L9.52761 27.0715C9.25011 28.4206 9.10986 29.8294 9.10986 31.2578C9.10986 41.039 15.9732 49.703 25.4307 51.8599L25.7614 50.3877C16.9819 48.3848 10.6099 40.3399 10.6099 31.2578ZM14.8752 19.0146L13.7037 18.0724C17.8444 12.8533 23.8242 9.85986 30.1099 9.85986C36.6019 9.85986 42.9056 13.147 46.9706 18.6529L45.7669 19.5544C41.9831 14.4297 36.1302 11.3698 30.1099 11.3698C24.2824 11.3698 18.7301 14.1564 14.8752 19.0146Z" fill="white"/>
</g>
</g>
</g>
<defs>
<clipPath id="clip0_1_22447">
<rect width="60" height="60" fill="white" transform="translate(0.109863 0.859863)"/>
</clipPath>
<clipPath id="clip1_1_22447">
<rect width="60" height="60" fill="white" transform="translate(0.109863 0.859863)"/>
</clipPath>
</defs>
</svg>
