<svg width="48" height="43" viewBox="0 0 48 43" fill="none" xmlns="http://www.w3.org/2000/svg">
<g clip-path="url(#clip0_31_53)">
<g clip-path="url(#clip1_31_53)">
<g clip-path="url(#clip2_31_53)">
<mask id="mask0_31_53" style="mask-type:luminance" maskUnits="userSpaceOnUse" x="3" y="0" width="42" height="43">
<path d="M3 0.419922H45V42.4199H3V0.419922Z" fill="white"/>
</mask>
<g mask="url(#mask0_31_53)">
<path fill-rule="evenodd" clip-rule="evenodd" d="M25.1096 26.3692V25.3211C25.1096 25.0476 25.3118 24.8152 25.5848 24.776C27.3972 24.519 29.1335 23.8054 30.6059 22.7143C30.8274 22.5511 31.1353 22.5731 31.3311 22.7653L32.0801 23.5072C32.2879 23.7132 32.5664 23.8272 32.8641 23.8272C33.1619 23.8272 33.4404 23.7132 33.649 23.5072C33.8568 23.3013 33.9717 23.0251 33.9717 22.7298C33.9717 22.4345 33.8568 22.1583 33.649 21.9523L32.9 21.2104C32.7052 21.0163 32.683 20.71 32.8485 20.4913C33.9497 19.0329 34.6693 17.3121 34.9303 15.5156C34.969 15.244 35.2042 15.0443 35.4799 15.0443H36.536C37.1482 15.0443 37.6454 14.5503 37.6454 13.9434C37.6454 13.3372 37.1482 12.8441 36.536 12.8441H35.4799C35.2042 12.8441 34.969 12.6427 34.9303 12.3729C34.6693 10.5764 33.9505 8.85467 32.8494 7.39634C32.6849 7.17668 32.707 6.87042 32.9009 6.6772L33.65 5.93527C34.0829 5.50597 34.0829 4.80779 33.65 4.37941C33.4414 4.17342 33.1629 4.05949 32.865 4.05949C32.5673 4.05949 32.2888 4.17342 32.081 4.37941L31.3319 5.12134C31.1372 5.31548 30.8283 5.33735 30.6068 5.17329C29.1362 4.08136 27.3991 3.3686 25.5857 3.11066C25.3127 3.07238 25.1104 2.83905 25.1104 2.56561V1.51743C25.1104 0.911312 24.6123 0.418213 24.0011 0.418213C23.3899 0.418213 22.8908 0.911312 22.8908 1.51743V2.56561C22.8908 2.83905 22.6886 3.07238 22.4156 3.11066C20.6022 3.3686 18.8669 4.08136 17.3954 5.17329C17.1748 5.33735 16.866 5.31548 16.6702 5.12134L15.922 4.37941C15.7134 4.17342 15.434 4.05949 15.1371 4.05949C14.8393 4.05949 14.5609 4.17342 14.3531 4.37941C13.9193 4.80871 13.9193 5.50597 14.3531 5.93527L15.1013 6.6772C15.2962 6.87042 15.3182 7.17668 15.1528 7.39634C14.0516 8.85467 13.332 10.5755 13.0718 12.3729C13.0333 12.6427 12.7989 12.8441 12.5231 12.8441H11.4662C10.855 12.8441 10.3568 13.3372 10.3568 13.9434C10.3568 14.5495 10.855 15.0443 11.4662 15.0443H12.5231C12.7989 15.0443 13.0333 15.2449 13.0718 15.5156C13.3329 17.3121 14.0526 19.0329 15.1528 20.4913C15.3182 20.71 15.2962 21.0163 15.1013 21.2104L14.3531 21.9523C14.1445 22.1583 14.0296 22.4345 14.0296 22.7298C14.0296 23.0251 14.1445 23.3013 14.3531 23.5072C14.5609 23.7132 14.8393 23.8272 15.1371 23.8272C15.434 23.8272 15.7134 23.7132 15.922 23.5072L16.6702 22.7653C16.7777 22.6587 16.9202 22.6041 17.0636 22.6041C17.1794 22.6041 17.2961 22.6405 17.3954 22.7143C18.8678 23.8054 20.604 24.519 22.4156 24.776C22.6886 24.8152 22.8908 25.0476 22.8908 25.3211V26.3692C22.8908 26.9753 23.389 27.4685 24.0011 27.4685C24.6114 27.4685 25.1096 26.9753 25.1096 26.3692ZM38.9506 21.5549C38.9506 20.6909 38.2419 19.9881 37.3706 19.9881H34.5342C34.7437 19.6318 34.9331 19.2644 35.1031 18.888H37.3706C38.854 18.888 40.0608 20.0839 40.0608 21.5541V31.1598H38.9506V21.5549ZM23.445 28.5185V31.1608H24.5553V28.5185C24.378 28.564 24.1923 28.5878 24.0001 28.5878C23.809 28.5878 23.6224 28.564 23.445 28.5185ZM9.04981 31.1608H7.93951V21.5549C7.93951 20.0847 9.14632 18.8889 10.6298 18.8889H12.8972C13.0673 19.2653 13.2584 19.6318 13.4662 19.989H10.6298C9.75844 19.989 9.04981 20.6918 9.04981 21.5558V31.1608ZM40.1041 34.5532C40.1041 34.8568 39.8549 35.1029 39.5489 35.1029H35.5287C35.2217 35.1029 34.9735 34.8568 34.9735 34.5532C34.9735 34.2488 35.2217 34.0027 35.5287 34.0027H39.548C39.8549 34.0027 40.1041 34.2488 40.1041 34.5532ZM41.0066 35.3261V32.2792H34.0287V42.4182H44.9818V35.8758H41.5627C41.2557 35.8758 41.0066 35.6297 41.0066 35.3261ZM35.5287 36.799H42.0425C42.3504 36.799 42.5976 37.0452 42.5976 37.3487C42.5976 37.6522 42.3504 37.8992 42.0425 37.8992H35.5287C35.2217 37.8992 34.9735 37.6522 34.9735 37.3487C34.9735 37.0452 35.2217 36.799 35.5287 36.799ZM35.5287 39.5946H42.0425C42.3504 39.5946 42.5976 39.8415 42.5976 40.145C42.5976 40.4486 42.3504 40.6955 42.0425 40.6955H35.5287C35.2217 40.6955 34.9735 40.4486 34.9735 40.145C34.9735 39.8406 35.2217 39.5946 35.5287 39.5946ZM42.1169 32.9764L44.105 34.7757H42.1169V32.9764ZM11.1068 34.7757H13.0957L11.1068 32.9764V34.7757ZM13.9717 42.4173H3.01855V32.2792H9.99741V35.3261C9.99741 35.6297 10.2456 35.8758 10.5526 35.8758H13.9717V42.4173ZM11.0323 36.799H4.51855C4.21065 36.799 3.9634 37.0452 3.9634 37.3487C3.9634 37.6522 4.21065 37.8992 4.51855 37.8992H11.0323C11.3393 37.8992 11.5875 37.6522 11.5875 37.3487C11.5875 37.0452 11.3384 36.799 11.0323 36.799ZM4.51855 39.5946C4.21065 39.5946 3.9634 39.8415 3.9634 40.145C3.9634 40.4486 4.21065 40.6955 4.51855 40.6955H11.0323C11.3393 40.6955 11.5875 40.4486 11.5875 40.145C11.5875 39.8415 11.3384 39.5946 11.0323 39.5946H4.51855ZM8.53693 35.1029C8.843 35.1029 9.09208 34.8568 9.09208 34.5532C9.09208 34.2488 8.843 34.0027 8.53693 34.0027H4.51855C4.21065 34.0027 3.9634 34.2497 3.9634 34.5532C3.9634 34.8568 4.21065 35.1029 4.51855 35.1029H8.53693ZM25.502 35.3261V32.2792H18.5232V42.4182H29.4763V35.8758H26.0572C25.7511 35.8758 25.502 35.6297 25.502 35.3261ZM20.024 34.0027H24.0424C24.3495 34.0027 24.5976 34.2497 24.5976 34.5532C24.5976 34.8568 24.3495 35.1029 24.0424 35.1029H20.024C19.7171 35.1029 19.4689 34.8568 19.4689 34.5532C19.468 34.2488 19.7171 34.0027 20.024 34.0027ZM20.024 36.799H26.5379C26.8448 36.799 27.093 37.0452 27.093 37.3487C27.093 37.6522 26.8448 37.8992 26.5379 37.8992H20.024C19.7171 37.8992 19.4689 37.6522 19.4689 37.3487C19.468 37.0452 19.7171 36.799 20.024 36.799ZM20.024 39.5946H26.5379C26.8448 39.5946 27.093 39.8415 27.093 40.145C27.093 40.4486 26.8448 40.6955 26.5379 40.6955H20.024C19.7171 40.6955 19.4689 40.4486 19.4689 40.145C19.468 39.8406 19.7171 39.5946 20.024 39.5946ZM28.6004 34.7757H26.6123V32.9764L28.6004 34.7757ZM26.4321 11.7285C26.4321 11.425 26.6812 11.1788 26.9873 11.1788H28.3789C29.4524 11.1788 30.3255 12.0448 30.3255 13.1084V13.1358C30.3255 14.1995 29.4524 15.0653 28.3789 15.0653H27.5424V16.1572C27.5424 16.4617 27.2942 16.7078 26.9873 16.7078C26.6812 16.7078 26.4321 16.4608 26.4321 16.1572V11.7285ZM27.5424 13.9643V12.2799H28.3789C28.8412 12.2799 29.2152 12.6518 29.2152 13.1094V13.1367C29.2152 13.5934 28.8412 13.9652 28.3789 13.9652H27.5424V13.9643ZM22.7262 11.7285C22.7262 11.425 22.9753 11.1788 23.2814 11.1788C23.5884 11.1788 23.8365 11.425 23.8365 11.7285V15.6068H25.2695C25.5764 15.6068 25.8246 15.8537 25.8246 16.1572C25.8246 16.4617 25.5764 16.7078 25.2695 16.7078H23.2814C22.9753 16.7078 22.7262 16.4608 22.7262 16.1572V11.7285ZM18.7851 13.6699V16.1572C18.7851 16.4617 18.536 16.7078 18.23 16.7078C17.9239 16.7078 17.6748 16.4608 17.6748 16.1572V11.7285C17.6748 11.4833 17.8393 11.2664 18.0783 11.1998C18.3173 11.1315 18.5728 11.2308 18.7014 11.4395L20.4285 14.2158V11.7285C20.4285 11.425 20.6776 11.1788 20.9836 11.1788C21.2906 11.1788 21.5388 11.425 21.5388 11.7285V16.1572C21.5388 16.4043 21.3734 16.6193 21.1343 16.6859C21.0838 16.7014 21.0333 16.7078 20.9827 16.7078C20.7934 16.7078 20.6133 16.6112 20.5094 16.4462L18.7851 13.6699ZM33.5489 13.9434C33.5489 19.1624 29.2658 23.4079 24.0001 23.4079C18.7355 23.4079 14.4515 19.1624 14.4515 13.9434C14.4515 8.72433 18.7355 4.47876 24.0001 4.47876C29.2658 4.47876 33.5489 8.72433 33.5489 13.9434Z" fill="#00D280"/>
</g>
</g>
</g>
</g>
<defs>
<clipPath id="clip0_31_53">
<rect width="48" height="42" fill="white" transform="translate(0 0.419922)"/>
</clipPath>
<clipPath id="clip1_31_53">
<rect width="48" height="42" fill="white" transform="translate(0 0.419922)"/>
</clipPath>
<clipPath id="clip2_31_53">
<rect width="42.9333" height="42" fill="white" transform="translate(2.5332 0.419922)"/>
</clipPath>
</defs>
</svg>
