<svg width="61" height="61" viewBox="0 0 61 61" fill="none" xmlns="http://www.w3.org/2000/svg">
<g clip-path="url(#clip0_1_22483)">
<g clip-path="url(#clip1_1_22483)">
<g clip-path="url(#clip2_1_22483)">
<mask id="mask0_1_22483" style="mask-type:luminance" maskUnits="userSpaceOnUse" x="0" y="0" width="61" height="61">
<path d="M60.73 0.859863H0.72998V60.8599H60.73V0.859863Z" fill="white"/>
</mask>
<g mask="url(#mask0_1_22483)">
<path d="M23.5396 29.1553C20.8553 27.6056 18.7575 25.2134 17.5713 22.3498C16.3852 19.4862 16.1771 16.3112 16.9793 13.3173C17.7815 10.3234 19.5492 7.67784 22.0082 5.79097C24.4673 3.9041 27.4802 2.88135 30.5797 2.88135C33.6792 2.88135 36.6921 3.9041 39.1512 5.79097C41.6102 7.67784 43.3779 10.3234 44.1801 13.3173C44.9823 16.3112 44.7742 19.4862 43.5881 22.3498C42.4019 25.2134 40.304 27.6056 37.6198 29.1553L33.3805 21.8126C34.4484 21.196 35.283 20.2443 35.7549 19.1051C36.2267 17.9659 36.3095 16.7028 35.9904 15.5118C35.6712 14.3207 34.968 13.2682 33.9897 12.5176C33.0115 11.7669 31.8128 11.36 30.5797 11.36C29.3467 11.36 28.148 11.7669 27.1698 12.5176C26.1915 13.2682 25.4883 14.3207 25.1691 15.5118C24.85 16.7028 24.9328 17.9659 25.4046 19.1051C25.8765 20.2443 26.7111 21.196 27.779 21.8126L23.5396 29.1553Z" fill="white"/>
<path d="M53.6896 32.5645C56.3739 34.1142 58.4718 36.5064 59.6579 39.37C60.844 42.2336 61.0521 45.4086 60.2499 48.4025C59.4477 51.3964 57.68 54.0419 55.221 55.9288C52.762 57.8157 49.7491 58.8384 46.6495 58.8384C43.55 58.8384 40.5371 57.8157 38.0781 55.9288C35.6191 54.0419 33.8514 51.3964 33.0491 48.4025C32.2469 45.4086 32.455 42.2336 33.6412 39.37C34.8273 36.5064 36.9252 34.1142 39.6095 32.5645L43.8487 39.9072C42.7809 40.5238 41.9463 41.4755 41.4744 42.6147C41.0025 43.7539 40.9197 45.017 41.2389 46.208C41.558 47.3991 42.2612 48.4516 43.2395 49.2022C44.2178 49.9529 45.4164 50.3598 46.6495 50.3598C47.8826 50.3598 49.0812 49.9529 50.0595 49.2022C51.0377 48.4516 51.741 47.3991 52.0601 46.208C52.3793 45.017 52.2965 43.7539 51.8246 42.6147C51.3527 41.4755 50.5181 40.5238 49.4502 39.9072L53.6896 32.5645Z" fill="white"/>
<path d="M28.8937 44.7586C28.8937 47.8581 27.8709 50.8711 25.984 53.3301C24.0971 55.7892 21.4515 57.5569 18.4576 58.3592C15.4637 59.1614 12.2887 58.9533 9.42498 57.7671C6.56136 56.581 4.16914 54.4831 2.61935 51.7988C1.06956 49.1145 0.448817 45.9938 0.853386 42.9208C1.25796 39.8477 2.66524 36.994 4.85696 34.8023C7.04868 32.6106 9.90235 31.2033 12.9754 30.7987C16.0485 30.3941 19.1692 31.0149 21.8535 32.5646L17.6141 39.9075C16.5462 39.2909 15.3047 39.044 14.0821 39.2049C12.8596 39.3659 11.7243 39.9257 10.8524 40.7977C9.98039 41.6696 9.42054 42.8049 9.25959 44.0274C9.09864 45.25 9.34559 46.4915 9.96214 47.5594C10.5787 48.6272 11.5304 49.4619 12.6697 49.9337C13.8089 50.4056 15.072 50.4884 16.2631 50.1693C17.4542 49.8501 18.5066 49.1469 19.2573 48.1686C20.008 47.1903 20.4148 45.9916 20.4148 44.7585L28.8937 44.7586Z" fill="white"/>
</g>
</g>
</g>
</g>
<defs>
<clipPath id="clip0_1_22483">
<rect width="60" height="60" fill="white" transform="translate(0.72998 0.859863)"/>
</clipPath>
<clipPath id="clip1_1_22483">
<rect width="60" height="60" fill="white" transform="translate(0.72998 0.859863)"/>
</clipPath>
<clipPath id="clip2_1_22483">
<rect width="60" height="60" fill="white" transform="translate(0.72998 0.859863)"/>
</clipPath>
</defs>
</svg>
