<svg width="58" height="62" viewBox="0 0 58 62" fill="none" xmlns="http://www.w3.org/2000/svg">
<g clip-path="url(#clip0_1_22528)">
<g clip-path="url(#clip1_1_22528)">
<mask id="mask0_1_22528" style="mask-type:luminance" maskUnits="userSpaceOnUse" x="0" y="1" width="57" height="61">
<path d="M56.541 1.10986H0.957031V61.1099H56.541V1.10986Z" fill="white"/>
</mask>
<g mask="url(#mask0_1_22528)">
<path d="M18.682 48.8345C18.682 50.7275 17.1332 52.4484 15.0681 52.4484C13.0031 52.4484 11.4543 50.8996 11.4543 48.8345V33.3467C11.4543 31.4538 13.0031 29.7329 15.0681 29.7329C17.1332 29.7329 18.682 31.2817 18.682 33.3467V48.8345ZM29.0072 52.9646C29.0072 54.8576 27.4584 56.5784 25.3933 56.5784C23.3283 56.5784 21.9516 55.0297 21.9516 52.9646V29.3887C21.9516 27.4958 23.5004 25.7749 25.5654 25.7749C27.6305 25.7749 29.1793 27.3237 29.1793 29.3887V52.9646H29.0072ZM8.18467 45.3928C8.18467 47.2858 6.63589 49.0066 4.57085 49.0066C2.50581 49.0066 0.957031 47.4578 0.957031 45.3928V36.9606C0.957031 35.0676 2.50581 33.3467 4.57085 33.3467C6.63589 33.3467 8.18467 35.0676 8.18467 36.9606V45.3928ZM39.3324 56.7505C39.3324 58.6435 37.7836 60.3644 35.7185 60.3644C33.8256 60.3644 32.2768 58.6435 32.2768 56.7505V25.4308C32.2768 23.5378 33.8256 21.8169 35.8906 21.8169C37.7836 21.8169 39.5045 23.3657 39.5045 25.4308V56.7505H39.3324Z" fill="white"/>
<path d="M50.6917 55.2013C50.0033 55.2013 49.4871 55.0292 48.7987 54.8571L44.4965 53.4804C43.8082 53.3083 43.2919 52.4479 43.6361 51.7595C43.8082 51.0712 44.6686 50.5549 45.357 50.8991L49.8312 52.2758C50.6917 52.6199 51.7242 52.4479 52.5846 51.7595C53.445 51.2433 53.7892 50.2107 53.7892 49.3503V20.6118C53.7892 19.2351 52.9288 18.0305 51.7242 17.6863L9.56294 4.9519C8.70251 4.60773 7.66999 4.77982 6.80956 5.29608C6.12121 5.98442 5.60495 6.84486 5.60495 7.87738V27.6674C5.60495 28.5278 4.9166 29.0441 4.22826 29.0441C3.36782 29.0441 2.85156 28.3557 2.85156 27.6674V7.87738C2.85156 5.98442 3.712 4.26356 5.26078 3.23104C6.80956 2.02643 8.70251 1.85434 10.4234 2.3706L52.4125 15.105C54.8217 15.7934 56.5426 18.2026 56.5426 20.7839V49.5224C56.5426 51.4153 55.6822 53.1362 54.1334 54.3408C53.1009 54.685 51.8963 55.2013 50.6917 55.2013Z" fill="white"/>
</g>
</g>
</g>
<defs>
<clipPath id="clip0_1_22528">
<rect width="57" height="61" fill="white" transform="translate(0.25 0.609863)"/>
</clipPath>
<clipPath id="clip1_1_22528">
<rect width="57" height="61" fill="white" transform="translate(0.25 0.609863)"/>
</clipPath>
</defs>
</svg>
