<svg width="31" height="31" viewBox="0 0 31 31" fill="none" xmlns="http://www.w3.org/2000/svg">
<g clip-path="url(#clip0_31_225)">
<g clip-path="url(#clip1_31_225)">
<g clip-path="url(#clip2_31_225)">
<mask id="mask0_31_225" style="mask-type:luminance" maskUnits="userSpaceOnUse" x="1" y="0" width="30" height="30">
<path d="M1.42188 0.611328H30.5395V29.729H1.42188V0.611328Z" fill="white"/>
</mask>
<g mask="url(#mask0_31_225)">
<path d="M29.2712 12.2848C28.6671 11.6987 28.0621 11.1089 27.4545 10.515C27.4365 9.69245 27.4153 8.86987 27.3897 8.04733C27.3559 6.94618 26.8814 5.89504 26.0662 5.07883C25.2508 4.26231 24.2015 3.79024 23.1033 3.75541C22.2818 3.72977 21.4597 3.70824 20.6373 3.69146C20.0456 3.08675 19.4567 2.48297 18.8721 1.87984C18.087 1.06964 17.0649 0.618164 15.9783 0.618164C14.8918 0.618798 13.8716 1.07345 13.0875 1.87984C12.5021 2.48392 11.9131 3.08928 11.3194 3.69494C10.4973 3.71204 9.67587 3.73326 8.85346 3.7589C6.59065 3.83647 4.64158 5.78486 4.56449 8.05081C4.53889 8.87336 4.5174 9.69589 4.50067 10.5184C3.89563 11.1118 3.29059 11.7013 2.68492 12.2874C1.88114 13.0719 1.42871 14.0945 1.42871 15.1811C1.42871 16.2677 1.87862 17.2869 2.68492 18.0729C3.28901 18.6584 3.89405 19.2469 4.50161 19.8374C4.5174 20.6609 4.53889 21.4844 4.56543 22.3069C4.59987 23.4107 5.07631 24.4592 5.88798 25.2764C6.69965 26.0935 7.7527 26.565 8.85441 26.5998C9.67682 26.6255 10.4989 26.6467 11.3213 26.6638C11.9131 27.2675 12.5011 27.8703 13.0865 28.4745C13.8716 29.2843 14.8934 29.7362 15.9819 29.7362C17.0703 29.7362 18.0896 29.2843 18.8775 28.4751C19.462 27.8713 20.0509 27.2666 20.6436 26.6609C21.4657 26.6441 22.2872 26.622 23.1096 26.596C25.3724 26.5187 27.3212 24.5685 27.3986 22.3054C27.4233 21.4825 27.4457 20.66 27.4624 19.8374C28.0683 19.2444 28.6725 18.6546 29.2756 18.0685C30.0766 17.2869 30.5299 16.2626 30.529 15.1811C30.529 14.0999 30.0766 13.07 29.2712 12.2848Z" fill="#00D280"/>
</g>
<mask id="mask1_31_225" style="mask-type:luminance" maskUnits="userSpaceOnUse" x="1" y="0" width="23" height="23">
<path d="M1.42188 0.611328H23.4218V22.2982H1.42188V0.611328Z" fill="white"/>
</mask>
<g mask="url(#mask1_31_225)">
<path d="M20.6373 3.69146C20.0456 3.08675 19.4567 2.48297 18.8721 1.87984C18.087 1.06964 17.0649 0.618164 15.9783 0.618164C14.8918 0.618798 13.8716 1.07345 13.0875 1.87984C12.5021 2.48392 11.9131 3.08928 11.3194 3.69494C10.4973 3.71204 9.67587 3.73326 8.85346 3.7589C6.59065 3.83647 4.64158 5.78486 4.56449 8.05081C4.53889 8.87336 4.5174 9.69589 4.50066 10.5184C3.89563 11.1118 3.29059 11.7013 2.68491 12.2874C1.88114 13.0719 1.42871 14.0945 1.42871 15.1811C1.42871 16.2677 1.87862 17.2869 2.68491 18.0729C3.28901 18.6584 3.89405 19.2469 4.50161 19.8374C4.51582 20.5488 4.53352 21.2603 4.55564 21.9717C5.55466 22.1657 6.56916 22.2636 7.58683 22.2636C16.3233 22.2652 23.4066 15.1644 23.4066 6.40541C23.4066 5.51891 23.333 4.634 23.1867 3.75985L23.1042 3.75541C22.2818 3.72977 21.4597 3.70919 20.6373 3.69146Z" fill="#00D280"/>
</g>
<path d="M23.2155 13.3333C20.7648 15.887 18.2738 18.4981 15.8246 21.0879C15.4218 21.5147 14.8623 21.7566 14.2765 21.7582H14.2677C13.6822 21.7537 13.1236 21.5128 12.7179 21.0904C11.4087 19.735 10.095 18.3844 8.77682 17.0388C8.37398 16.6323 8.15156 16.0811 8.16041 15.5093C8.16831 14.9365 8.4059 14.3913 8.82042 13.9975C9.67885 13.1651 11.0469 13.1819 11.886 14.0355C12.6683 14.8403 13.4525 15.648 14.2376 16.4572C16.182 14.4145 18.1365 12.3594 20.0593 10.3363C20.8763 9.47451 22.2381 9.46119 23.1136 10.2917C23.989 11.1234 24.038 12.4768 23.2155 13.3333Z" fill="white"/>
</g>
</g>
</g>
<defs>
<clipPath id="clip0_31_225">
<rect width="30" height="30" fill="white" transform="translate(0.980469 0.169922)"/>
</clipPath>
<clipPath id="clip1_31_225">
<rect width="30" height="30" fill="white" transform="translate(0.980469 0.169922)"/>
</clipPath>
<clipPath id="clip2_31_225">
<rect width="30" height="30" fill="white" transform="translate(0.980469 0.169922)"/>
</clipPath>
</defs>
</svg>
