<svg width="61" height="61" viewBox="0 0 61 61" fill="none" xmlns="http://www.w3.org/2000/svg">
<g clip-path="url(#clip0_1_22472)">
<g clip-path="url(#clip1_1_22472)">
<g clip-path="url(#clip2_1_22472)">
<mask id="mask0_1_22472" style="mask-type:luminance" maskUnits="userSpaceOnUse" x="0" y="0" width="61" height="61">
<path d="M60.48 0.859863H0.47998V60.8599H60.48V0.859863Z" fill="white"/>
</mask>
<g mask="url(#mask0_1_22472)">
<path d="M48.1264 18.4917L43.7703 22.8478C51.0305 30.108 51.0305 41.9317 43.7703 49.1918C36.5102 56.452 24.6865 56.452 17.4263 49.1918C10.1661 41.9317 10.1661 30.108 17.4263 22.8478L29.0426 11.2316L30.4946 9.57205V0.859863L12.8628 18.4917C10.546 20.7851 8.70685 23.5151 7.4517 26.5237C6.19655 29.5323 5.55029 32.7599 5.55029 36.0198C5.55029 39.2797 6.19655 42.5073 7.4517 45.516C8.70685 48.5246 10.546 51.2545 12.8628 53.5479C15.1562 55.8647 17.8861 57.7038 20.8947 58.959C23.9034 60.2141 27.1309 60.8604 30.3909 60.8604C33.6508 60.8604 36.8784 60.2141 39.887 58.959C42.8956 57.7038 45.6256 55.8647 47.919 53.5479C57.8758 43.7986 57.8758 28.0336 48.1264 18.4917Z" fill="white"/>
<path d="M39.4161 17.2478C41.2491 17.2478 42.735 15.7618 42.735 13.9288C42.735 12.0958 41.2491 10.6099 39.4161 10.6099C37.5831 10.6099 36.0972 12.0958 36.0972 13.9288C36.0972 15.7618 37.5831 17.2478 39.4161 17.2478Z" fill="white"/>
</g>
</g>
</g>
</g>
<defs>
<clipPath id="clip0_1_22472">
<rect width="60" height="60" fill="white" transform="translate(0.47998 0.859863)"/>
</clipPath>
<clipPath id="clip1_1_22472">
<rect width="60" height="60" fill="white" transform="translate(0.47998 0.859863)"/>
</clipPath>
<clipPath id="clip2_1_22472">
<rect width="60" height="60" fill="white" transform="translate(0.47998 0.859863)"/>
</clipPath>
</defs>
</svg>
