<svg width="61" height="61" viewBox="0 0 61 61" fill="none" xmlns="http://www.w3.org/2000/svg">
<g clip-path="url(#clip0_1_22466)">
<g clip-path="url(#clip1_1_22466)">
<path d="M34.5651 35.5368C34.2239 35.5368 33.8976 35.7937 33.5882 36.3168C33.2901 36.8549 33.1157 37.4961 33.1157 38.1787C33.1157 38.2368 33.1176 38.2968 33.1195 38.3549V38.3474C34.4457 37.9749 35.1089 37.2868 35.1089 36.283C35.1089 35.7862 34.9289 35.5387 34.5651 35.5387V35.5368ZM41.2382 35.5218C40.7207 35.5218 40.2295 35.9618 39.7645 36.8418C39.3576 37.5412 39.1045 38.3737 39.0707 39.2643V39.2736C39.0707 39.2886 39.0689 39.3074 39.0689 39.3243C39.0689 39.5605 39.1476 39.7799 39.2789 39.9543L39.277 39.9524C39.3951 40.1118 39.5807 40.213 39.7926 40.213C39.7945 40.213 39.7982 40.213 39.8001 40.213C40.3176 40.213 40.807 39.7724 41.2645 38.8893C41.6695 38.1862 41.9207 37.348 41.9526 36.4555V36.4462C41.9545 36.4274 41.9545 36.4068 41.9545 36.3843C41.9545 36.1536 41.8814 35.938 41.7557 35.7636L41.7576 35.7674C41.6414 35.6174 41.4614 35.5236 41.2589 35.5236C41.2514 35.5236 41.2439 35.5236 41.2364 35.5236L41.2382 35.5218ZM30.3164 31.3105C30.1289 31.3105 29.8476 31.7886 29.482 32.743C29.0732 33.8511 28.702 35.1955 28.4339 36.5774L28.4057 36.748C29.0432 36.043 29.5795 35.2311 29.9826 34.3461L30.007 34.288C30.3557 33.6074 30.577 32.8068 30.6201 31.9611V31.948C30.6201 31.9349 30.6201 31.9199 30.6201 31.9049C30.6201 31.753 30.5882 31.6105 30.532 31.4793L30.5339 31.4868C30.4751 31.3693 30.4026 31.3105 30.3164 31.3105ZM42.1476 29.863H42.5357V32.3136H42.1476V29.863ZM38.767 29.863H39.1551V32.3136H38.7632L38.767 29.863ZM37.3551 29.7918C37.3607 29.7918 37.3664 29.7918 37.3739 29.7918C37.5389 29.7918 37.6964 29.8293 37.8351 29.8949L37.8295 29.8911C38.0376 29.9886 38.1951 30.1668 38.2664 30.3824L38.2682 30.388C38.2945 30.4743 38.3151 30.5755 38.3226 30.6786V30.6824H37.9289C37.9176 30.5268 37.8501 30.3899 37.747 30.2886C37.6476 30.2005 37.5164 30.148 37.372 30.148C37.3626 30.148 37.3551 30.148 37.3476 30.148C37.3439 30.148 37.3401 30.148 37.3364 30.148C37.2051 30.148 37.0832 30.193 36.9857 30.2661L36.9876 30.2643C36.8807 30.3505 36.7982 30.4649 36.7551 30.5961L36.7532 30.6018C36.7026 30.748 36.6726 30.9168 36.6726 31.093C36.6726 31.1043 36.6726 31.1155 36.6726 31.1286C36.6726 31.1399 36.6726 31.1493 36.6726 31.1624C36.6726 31.3293 36.7026 31.4905 36.7589 31.6387L36.7551 31.6293C36.8039 31.7587 36.8864 31.8655 36.9895 31.9443L36.9914 31.9462C37.0889 32.0174 37.2126 32.0586 37.3457 32.0586C37.3514 32.0586 37.3551 32.0586 37.3607 32.0586C37.6926 32.0586 37.8932 31.8618 37.9607 31.468H38.3526C38.3395 31.6593 38.2851 31.8355 38.197 31.9893L38.2007 31.9837C38.1201 32.1224 38.0039 32.233 37.8632 32.3043L37.8595 32.3061C37.7189 32.3774 37.5539 32.4186 37.3776 32.4186C37.3682 32.4186 37.3607 32.4186 37.3532 32.4186C37.3457 32.4186 37.3382 32.4186 37.3289 32.4186C37.1264 32.4186 36.9351 32.3605 36.7739 32.2611L36.7776 32.263C36.6126 32.1524 36.4832 31.9986 36.4026 31.8205L36.4007 31.813C36.3164 31.6218 36.2676 31.3968 36.2676 31.1624C36.2676 31.1493 36.2676 31.138 36.2676 31.1249C36.2676 31.1174 36.2676 31.108 36.2676 31.0987C36.2676 30.913 36.2957 30.7349 36.3464 30.568L36.3426 30.5811C36.3914 30.418 36.4682 30.2755 36.5676 30.1518L36.5657 30.1537C36.6595 30.0374 36.7757 29.9436 36.9107 29.8818L36.9164 29.8799C37.0439 29.8199 37.1939 29.7862 37.3532 29.7862C37.357 29.7862 37.3607 29.7862 37.3645 29.7862L37.3551 29.7918ZM34.9289 29.7918C34.9401 29.7918 34.9532 29.7918 34.9664 29.7918C35.1276 29.7918 35.2814 29.8255 35.422 29.8837L35.4145 29.8799C35.5439 29.9324 35.647 30.0224 35.7182 30.1349L35.7201 30.1368C35.7857 30.2474 35.8251 30.3805 35.8251 30.523C35.8251 30.5305 35.8251 30.5362 35.8251 30.5437V30.5418H35.4126C35.3976 30.2812 35.2364 30.1499 34.9251 30.1499C34.9139 30.1499 34.9007 30.148 34.8876 30.148C34.7601 30.148 34.6401 30.1837 34.5389 30.2474L34.5426 30.2455C34.4564 30.3018 34.402 30.3993 34.402 30.508C34.402 30.5118 34.402 30.5174 34.402 30.5212C34.402 30.6055 34.4432 30.6824 34.507 30.7274C34.6064 30.7949 34.7245 30.8455 34.8539 30.868H34.8595L35.2345 30.9599C35.437 30.9955 35.6151 31.0836 35.7614 31.2074L35.7595 31.2055C35.8607 31.3105 35.9245 31.453 35.9245 31.6105C35.9245 31.6218 35.9245 31.6311 35.9245 31.6424C35.9245 31.6462 35.9245 31.6499 35.9245 31.6555C35.9245 31.8037 35.8795 31.9405 35.8007 32.053L35.8026 32.0511C35.7145 32.173 35.5926 32.2668 35.452 32.3211L35.4464 32.323C35.2964 32.383 35.1239 32.4186 34.942 32.4186C34.9326 32.4186 34.9251 32.4186 34.9157 32.4186H34.9176C34.8951 32.4205 34.867 32.4205 34.8407 32.4205C34.597 32.4205 34.372 32.3418 34.1901 32.2086L34.1939 32.2105C34.0364 32.0605 33.937 31.8487 33.937 31.6143C33.937 31.603 33.937 31.5899 33.937 31.5786V31.5805H34.3495C34.3551 31.6537 34.3701 31.7193 34.3907 31.783L34.3889 31.7774C34.4076 31.8262 34.4357 31.8693 34.4695 31.9049C34.5839 32.0005 34.732 32.0586 34.8951 32.0586C34.9139 32.0586 34.9326 32.0587 34.9514 32.0568C34.9626 32.0568 34.9739 32.0568 34.9851 32.0568C35.1257 32.0568 35.2551 32.0174 35.3676 31.948L35.3639 31.9499C35.4595 31.8918 35.5214 31.7886 35.5214 31.6705C35.5214 31.6668 35.5214 31.6649 35.5214 31.6612C35.5214 31.5805 35.4876 31.5093 35.4332 31.4605C35.3526 31.3968 35.2532 31.3518 35.1464 31.333H35.1426L34.777 31.2449C34.6289 31.2093 34.5051 31.168 34.3851 31.1211L34.4057 31.1286C34.3176 31.0911 34.2426 31.0424 34.1751 30.9843C34.117 30.9318 34.0701 30.8661 34.0401 30.793L34.0382 30.7893C34.0139 30.7199 34.0007 30.6393 34.0007 30.5549C34.0007 30.5493 34.0007 30.5418 34.0007 30.5361V30.538C34.0007 30.5305 34.0007 30.523 34.0007 30.5155C34.0007 30.3037 34.1001 30.1162 34.2557 29.9943L34.2576 29.9924C34.4301 29.8649 34.6476 29.788 34.882 29.788C34.9007 29.788 34.9195 29.788 34.9401 29.7899L34.9289 29.7918ZM43.2745 29.188H43.6626V29.863H44.0657V30.1799H43.6626V31.8599C43.6589 31.8749 43.657 31.8899 43.657 31.9068C43.657 32.0062 43.7376 32.0868 43.837 32.0868C43.8539 32.0868 43.8689 32.0849 43.8839 32.0811C43.8914 32.0811 43.897 32.0811 43.9064 32.0811C43.9626 32.0811 44.017 32.0718 44.0695 32.0568L44.0657 32.0586V32.3887C43.9701 32.4074 43.8614 32.4187 43.7489 32.4205C43.7376 32.4205 43.7245 32.4224 43.7114 32.4224C43.5932 32.4224 43.4826 32.3849 43.3945 32.3193L43.3964 32.3211C43.3214 32.2555 43.2745 32.1618 43.2745 32.0549C43.2745 32.0474 43.2745 32.0399 43.2745 32.0324V30.1836H42.9445V29.8649H43.2745V29.188ZM42.1476 28.9012H42.5357V29.3924H42.1476V28.9012ZM39.7682 28.9012H40.1564V30.928L41.2345 29.8612H41.692L40.8389 30.7086L41.842 32.3118H41.3789L40.5426 30.9637L40.1582 31.3518V32.3118H39.7701L39.7682 28.9012ZM38.767 28.9012H39.1551V29.3924H38.7632L38.767 28.9012ZM9.98199 28.063C9.88449 28.0593 9.77199 28.0555 9.65761 28.0555C7.72449 28.0555 5.97136 28.8205 4.68136 30.0655L4.68324 30.0636C3.46449 31.6255 2.72949 33.6168 2.72949 35.7805C2.72949 38.6905 4.06074 41.2893 6.14574 43.0012L6.16261 43.0143C8.21011 44.7224 10.8707 45.7574 13.7714 45.7574C15.7176 45.7574 17.557 45.2905 19.1789 44.4636L19.1114 44.4955C19.8482 42.9524 20.2776 41.1393 20.2776 39.2286C20.2776 36.3186 19.282 33.6411 17.6132 31.5186L17.6339 31.5449C15.6857 29.518 12.997 28.213 10.0064 28.0649L9.98199 28.063ZM50.3057 34.9218C49.4507 36.8493 48.4045 38.5087 47.1557 39.9937L47.182 39.9618C47.1651 40.0649 47.1557 40.183 47.1539 40.3049C47.1539 40.3199 47.1539 40.3386 47.1539 40.3555C47.1539 40.7136 47.2776 41.0418 47.4857 41.3024L47.4839 41.2986C47.6676 41.5424 47.9545 41.6961 48.2789 41.6961C48.9726 41.6961 49.9532 41.0774 51.2189 39.853C51.217 39.9468 51.2114 40.0405 51.2114 40.1362C51.2114 40.4787 51.2395 40.9986 51.2957 41.6961L53.0132 41.293C53.0132 40.8243 53.0207 40.4568 53.0357 40.183C53.0695 39.7237 53.1239 39.3093 53.2007 38.9024L53.1895 38.9718C53.2457 38.6868 53.3714 38.4355 53.5476 38.2312L53.5457 38.233L53.9807 37.7268C54.2676 37.393 54.5564 37.0893 54.8601 36.8024L54.8657 36.7968C54.9801 36.6918 55.1039 36.5924 55.2332 36.5005L55.2445 36.493C55.3251 36.4349 55.4245 36.3974 55.5295 36.3862C55.6589 36.3862 55.7264 36.4687 55.7264 36.6337C55.6495 37.0705 55.522 37.4624 55.3495 37.8261L55.3607 37.798C55.0101 38.5387 54.7664 39.3993 54.6782 40.3068L54.6764 40.3387C54.6745 40.3593 54.6745 40.3855 54.6745 40.4099C54.6745 40.7549 54.7945 41.0718 54.997 41.3193L54.9951 41.3174C55.1901 41.5405 55.4751 41.6811 55.792 41.6811C55.807 41.6811 55.822 41.6811 55.8351 41.6811H55.8332C57.1007 41.4599 58.1789 40.7699 58.9007 39.8005L58.9101 39.7874V38.8949C58.0639 39.8937 57.4514 40.3936 57.0726 40.3949C56.8176 40.3949 56.6901 40.2374 56.6901 39.9261C56.7801 39.3561 56.9395 38.8443 57.1626 38.368L57.1476 38.4037C57.4814 37.6874 57.7176 36.8568 57.8132 35.983L57.817 35.9474C57.817 35.9361 57.817 35.923 57.817 35.9099C57.817 35.638 57.7176 35.3905 57.5526 35.1993L57.5545 35.2012C57.3989 35.0193 57.1682 34.903 56.9114 34.903C56.9057 34.903 56.8982 34.903 56.8926 34.903C56.3807 34.9443 55.9232 35.1449 55.5614 35.4524L55.5651 35.4487C54.8207 36.0505 54.1589 36.6955 53.5607 37.3968L53.5439 37.4174C53.7764 36.4236 54.0464 35.5799 54.3726 34.7643L54.3295 34.8861L52.4339 35.2518C52.0889 35.9568 51.7701 36.793 51.5245 37.6612L51.4982 37.7699C51.4157 38.0755 51.3407 38.4561 51.2882 38.8443L51.2826 38.8949C50.9164 39.2636 50.5339 39.6149 50.1351 39.9487C49.9889 40.063 49.8014 40.1343 49.5989 40.1362C49.5932 40.1362 49.5857 40.1362 49.5801 40.1362C49.4226 40.1362 49.282 40.0611 49.192 39.9449C49.0982 39.8118 49.0401 39.6449 49.0401 39.4668C49.0401 39.4518 49.0401 39.4349 49.042 39.4199C49.0495 39.1312 49.0964 38.8574 49.1789 38.5968L49.1732 38.6174C49.2614 38.3136 49.4545 37.7437 49.7564 36.9055L50.4782 34.9161L50.3057 34.9218ZM39.2357 15.7011C34.0345 15.9561 29.4014 18.2043 26.0507 21.6937L26.0451 21.6993C19.1807 28.5637 21.1645 41.6849 23.4951 44.0174C25.3814 45.9018 38.947 48.3355 45.8151 41.4674C46.2939 40.9861 46.7501 40.4837 47.1839 39.9599C47.4051 38.9737 47.8026 38.1055 48.3445 37.3461L48.3295 37.3687C47.9657 37.558 47.542 37.7024 47.0976 37.7774L47.0714 37.7811C46.6214 38.5462 46.0964 39.2043 45.4907 39.7818L45.487 39.7855C44.9432 40.3255 44.362 40.8299 43.7489 41.2911L43.7057 41.3212C43.4207 41.5312 43.0682 41.6624 42.6857 41.6774H42.682C41.862 41.6774 41.4764 40.9555 41.5251 39.5118C41.1107 40.1362 40.6382 40.6761 40.1001 41.143L40.0907 41.1505C39.7289 41.4655 39.2564 41.6624 38.7389 41.6755H38.737C38.2514 41.6699 37.8276 41.4187 37.5782 41.0418L37.5745 41.0362C37.3307 40.7043 37.1676 40.2993 37.1226 39.8586V39.8493C36.622 40.3574 36.0632 40.8093 35.4595 41.1918L35.422 41.2143C34.9364 41.5049 34.3514 41.6755 33.7251 41.6755C33.712 41.6755 33.6989 41.6755 33.6857 41.6755C33.6576 41.6774 33.6276 41.6774 33.5939 41.6774C32.9639 41.6774 32.3939 41.4187 31.9851 41.0005C31.6739 40.6743 31.4582 40.2524 31.3851 39.7855L31.3832 39.7724V39.7818C30.8357 40.3068 30.2301 40.7793 29.5795 41.1862L29.5326 41.2143C29.1014 41.488 28.5782 41.6586 28.0157 41.6755H28.012C27.9989 41.6755 27.9839 41.6755 27.9689 41.6755C27.442 41.6755 26.9732 41.4243 26.677 41.0343L26.6732 41.0305C26.3526 40.5899 26.1595 40.0368 26.1595 39.4405C26.1595 39.3918 26.1614 39.3411 26.1632 39.2924V39.2999C26.2101 37.8861 26.4651 36.5474 26.9001 35.2912L26.872 35.3868C27.3707 33.7593 27.9539 32.3662 28.6532 31.0424L28.5895 31.1774L30.562 30.4462C30.6032 30.4293 30.652 30.4199 30.7007 30.4161H30.7026C30.8507 30.4161 30.9745 30.5268 31.0701 30.7443C31.162 30.9843 31.2145 31.2618 31.2145 31.5505C31.2145 31.5805 31.2145 31.6087 31.2126 31.6387V31.6349C31.2107 32.7543 30.9407 33.8099 30.4626 34.7436L30.4814 34.7043C29.8401 35.9155 29.0807 36.958 28.1957 37.8768L28.1995 37.873C28.157 38.4118 28.1357 38.7818 28.1357 38.983C28.1339 39.013 28.1339 39.0468 28.1339 39.0805C28.1339 39.4387 28.2276 39.7743 28.3907 40.0649L28.3851 40.0555C28.5145 40.2918 28.762 40.4511 29.0451 40.4511C29.3826 40.438 29.6901 40.3255 29.9451 40.1437L29.9395 40.1474C30.4626 39.7668 30.9239 39.3637 31.3476 38.9249L31.3514 38.9211C31.4264 37.8861 31.8407 36.9599 32.4839 36.2418L32.4801 36.2455C33.0651 35.4637 33.9745 34.9518 35.0039 34.9124H35.0095C35.0339 34.9105 35.0639 34.9105 35.092 34.9105C35.5007 34.9105 35.8739 35.053 36.1701 35.2893L36.1664 35.2874C36.4345 35.5143 36.6032 35.8499 36.6032 36.2268C36.6032 36.2399 36.6032 36.253 36.6032 36.2661C36.6032 37.3399 35.4639 38.208 33.1851 38.8743C33.3914 39.8811 33.9351 40.3874 34.8089 40.3874C35.1707 40.3874 35.5082 40.2843 35.7932 40.108L35.7857 40.1136C36.2901 39.763 36.7326 39.3786 37.1282 38.9549L37.132 38.9493C37.2182 38.308 37.432 37.7324 37.7489 37.2262L37.7376 37.2449C38.1576 36.5512 38.7089 35.9793 39.3614 35.5462L39.3801 35.533C39.8714 35.1674 40.4807 34.9293 41.1407 34.8824H41.152C41.1745 34.8805 41.1989 34.8805 41.2232 34.8805C41.8101 34.8805 42.3107 35.248 42.5076 35.7655L42.5114 35.7749L44.0976 34.8993H44.5326L43.8482 37.1737C43.5932 37.8599 43.4076 38.6568 43.3214 39.4837L43.3176 39.5268C43.3176 39.9711 43.4751 40.1943 43.7901 40.1943C44.0545 40.1699 44.287 40.0518 44.4576 39.8736C44.7014 39.6586 45.0426 39.3305 45.4814 38.8893V38.8912C45.802 38.5443 46.1039 38.1655 46.3776 37.768L46.4001 37.7343C46.0195 37.6143 45.7439 37.2674 45.7326 36.8568C45.7514 36.3786 45.9014 35.938 46.147 35.5686L46.1414 35.578C46.3532 35.1712 46.7714 34.8993 47.2532 34.8993C47.257 34.8993 47.2607 34.8993 47.2645 34.8993C47.2851 34.8955 47.3095 34.8955 47.3339 34.8955C47.632 34.8955 47.8757 35.1374 47.8757 35.4374C47.8757 35.4674 47.8739 35.4955 47.8682 35.5236V35.5199C47.827 36.0337 47.7032 36.508 47.5082 36.943L47.5195 36.9149C48.3795 36.8212 49.1301 36.1637 49.7714 34.9424L50.3057 34.9218C51.2976 33.0449 51.8789 30.8155 51.8789 28.4549C51.8789 24.8793 50.5457 21.6149 48.3482 19.1324L48.3614 19.1474C46.1489 17.0062 43.132 15.688 39.8057 15.688C39.6051 15.688 39.4064 15.6936 39.2076 15.703L39.2357 15.7011Z" fill="white"/>
</g>
</g>
<defs>
<clipPath id="clip0_1_22466">
<rect width="60" height="60" fill="white" transform="translate(0.799805 0.859863)"/>
</clipPath>
<clipPath id="clip1_1_22466">
<rect width="60" height="60" fill="white" transform="translate(0.799805 0.859863)"/>
</clipPath>
</defs>
</svg>
