<svg width="31" height="31" viewBox="0 0 31 31" fill="none" xmlns="http://www.w3.org/2000/svg">
<g clip-path="url(#clip0_31_212)">
<g clip-path="url(#clip1_31_212)">
<path d="M30.5507 15.0004C30.5507 14.9945 30.5451 14.9887 30.5451 14.9828L25.7058 3.53442L21.0363 5.46285C21.0947 4.91867 21.0947 4.14834 20.7959 3.59242C20.7725 3.54908 20.7477 3.50672 20.722 3.46468C20.696 3.42297 20.6689 3.38159 20.6405 3.34151C20.6122 3.3011 20.5825 3.26167 20.5518 3.2229C20.5212 3.18445 20.4895 3.14665 20.4565 3.10982C20.4235 3.073 20.3896 3.03748 20.3546 3.00262C20.3196 2.96775 20.2837 2.93386 20.2467 2.90095C20.2098 2.86836 20.1719 2.83643 20.133 2.80612C20.094 2.77549 20.0545 2.74584 20.0139 2.71749C19.9733 2.68914 19.9318 2.66209 19.8896 2.63602C19.8477 2.61028 19.8045 2.58552 19.7609 2.56205C19.7174 2.53859 19.6732 2.51643 19.6284 2.49525C19.5832 2.4744 19.5377 2.45485 19.4918 2.43627C19.4456 2.41802 19.3991 2.40108 19.352 2.38544C19.3048 2.3698 19.2573 2.35546 19.2095 2.34242C19.1617 2.32972 19.1132 2.31799 19.0647 2.30788C19.0162 2.29778 18.9671 2.28898 18.9179 2.28149C18.8691 2.27399 18.8197 2.26813 18.7702 2.26357C18.7207 2.259 18.6712 2.25607 18.6214 2.25444C18.572 2.25249 18.5222 2.25216 18.4727 2.25346C18.4229 2.25477 18.3734 2.25705 18.3239 2.26129C18.2745 2.2652 18.225 2.27074 18.1759 2.27725C18.1267 2.2841 18.0776 2.29257 18.0291 2.30202C17.9803 2.31179 17.9318 2.32287 17.8837 2.33526C17.8358 2.34764 17.788 2.36132 17.7408 2.37664C17.6937 2.39163 17.6468 2.40825 17.6003 2.42584C17.5542 2.44377 17.5083 2.46299 17.4635 2.48352C17.4183 2.50372 17.3738 2.52556 17.3299 2.54869C17.286 2.5715 17.2428 2.59594 17.2003 2.62136C17.1577 2.64678 17.1162 2.6735 17.0753 2.70152C17.0344 2.72922 16.9942 2.75822 16.9552 2.78853C16.916 2.81851 16.8777 2.84979 16.8401 2.88237C16.8029 2.91463 16.7666 2.94787 16.7313 2.98241C16.6957 3.01695 16.6614 3.05247 16.6281 3.08864C16.5948 3.12514 16.5624 3.16261 16.5314 3.20074C16.5004 3.23919 16.4704 3.27829 16.4417 3.31837C16.4127 3.35813 16.385 3.39919 16.3586 3.44057C16.3322 3.48228 16.3072 3.52464 16.2831 3.56766C16.2593 3.61067 16.2366 3.65433 16.2151 3.69865C16.1937 3.74297 16.1739 3.78761 16.1551 3.83323C16.1363 3.87885 16.1188 3.9248 16.103 3.97107C16.0868 4.01767 16.0723 4.06459 16.0588 4.11184C16.0456 4.15909 16.0337 4.20667 16.0232 4.25489C16.0126 4.30279 16.0037 4.35102 15.9961 4.39957C15.9882 4.44813 15.9823 4.49668 15.9773 4.54556C15.9727 4.59444 15.9691 4.64332 15.9675 4.69252C15.9655 4.74173 15.9648 4.79061 15.9658 4.83981C15.9668 4.88869 15.9691 4.93789 15.9731 4.98677C15.977 5.03565 15.9823 5.08453 15.9889 5.13308C15.9958 5.18196 16.0037 5.23019 16.0133 5.27842C16.0229 5.32664 16.0337 5.37455 16.0463 5.42212C16.0585 5.4697 16.0723 5.51695 16.0875 5.56354C16.1027 5.61047 16.1192 5.65674 16.137 5.70236C16.1548 5.74831 16.1739 5.7936 16.1944 5.83824C16.2151 5.88289 16.2369 5.9272 16.26 5.97054C16.2831 6.01388 16.3075 6.0569 16.3329 6.09893C16.3586 6.14097 16.3853 6.18203 16.4134 6.22276C16.4414 6.26316 16.4707 6.30292 16.5011 6.3417C16.5314 6.3808 16.5631 6.4186 16.5954 6.45575C16.6281 6.49257 16.6617 6.52874 16.6967 6.56393C16.7313 6.59913 16.7669 6.63302 16.8039 6.66625C16.8405 6.69916 16.8781 6.7311 16.9166 6.76206C16.9552 6.79301 16.9948 6.82267 17.035 6.85134C17.0753 6.88002 17.1165 6.90771 17.1584 6.93378C17.2006 6.96018 17.2432 6.98527 17.2867 7.00906L12.295 9.0649C12.1819 8.71395 12.016 8.38972 11.797 8.09189C11.86 8.05767 11.9167 8.01531 11.9668 7.96448C12.0295 7.90452 12.078 7.83478 12.1126 7.75527C12.1472 7.67609 12.1651 7.59332 12.166 7.50697L12.1426 5.59613H12.541C12.6377 5.59483 12.7195 5.55996 12.7871 5.49186C12.8214 5.45927 12.8478 5.42147 12.8662 5.37813C12.8847 5.33479 12.8933 5.28982 12.8926 5.2429L12.8224 0.169922L12.1192 0.181653L12.1835 4.90107L2.79212 4.97048L2.72781 0.169922L2.02465 0.181653L2.08896 5.32958C2.09028 5.3752 2.10018 5.41854 2.11832 5.46025C2.13679 5.50196 2.16218 5.53878 2.19516 5.57071C2.22781 5.60232 2.26541 5.62709 2.30796 5.64436C2.3505 5.66195 2.3947 5.67075 2.44054 5.6714H2.85083C2.85083 5.68867 2.87424 7.58224 2.87424 7.58224C2.87721 7.68619 2.9036 7.78362 2.95307 7.87519C3.00254 7.96708 3.06982 8.04301 3.15524 8.10362L2.89766 8.50899C2.79806 8.66507 2.66316 9.05317 2.66316 9.05317H2.65723L1.63217 12.8344L1.90163 13.6569L1.5207 13.8247C1.34392 13.9019 1.18891 14.0098 1.05599 14.1483C0.922748 14.2868 0.821826 14.4455 0.753225 14.624C0.685614 14.8023 0.654941 14.9871 0.660878 15.1774C0.667145 15.368 0.70936 15.5501 0.788515 15.7241L5.99689 27.2247L10.8771 25.0649C10.9207 25.0463 10.9609 25.0225 10.9975 24.9935C11.0345 24.9642 11.0671 24.931 11.0948 24.8932C11.1225 24.8554 11.145 24.8146 11.1618 24.771C11.1786 24.7276 11.1891 24.6823 11.1938 24.6361C11.1981 24.5895 11.1964 24.5432 11.1882 24.4973C11.1802 24.4513 11.1661 24.407 11.1459 24.365C11.1258 24.3226 11.1004 24.2838 11.0698 24.2483C11.0391 24.2128 11.0041 24.1818 10.9652 24.1558C10.3382 23.7214 9.9045 23.2521 9.77587 22.8699C9.76334 22.8344 9.75245 22.7982 9.74256 22.7621C9.73233 22.7256 9.72343 22.6891 9.71584 22.6522C9.70826 22.6154 9.70166 22.5783 9.69605 22.5411C9.69078 22.5036 9.68649 22.4662 9.68352 22.4287C9.68022 22.3912 9.67857 22.3538 9.67759 22.316C9.67693 22.2782 9.67726 22.2407 9.6789 22.2032C9.68055 22.1654 9.68319 22.1279 9.68715 22.0905C9.69111 22.053 9.69605 22.0155 9.70232 21.9784C9.70859 21.9412 9.71584 21.9044 9.72442 21.8676C9.73299 21.8311 9.74256 21.7946 9.75344 21.7584C9.764 21.7222 9.77587 21.6867 9.78906 21.6512C9.80192 21.6157 9.81611 21.5808 9.83128 21.5463C9.84645 21.5117 9.86261 21.4775 9.87976 21.444C9.89724 21.4104 9.91538 21.3775 9.93484 21.3449C9.95397 21.3126 9.97441 21.2807 9.99585 21.2494C10.017 21.2181 10.0394 21.1878 10.0625 21.1579C10.0856 21.1279 10.1096 21.0989 10.1347 21.0705C10.1598 21.0418 10.1855 21.0145 10.2122 20.9874C10.2389 20.9607 10.2666 20.9346 10.295 20.9095C10.3234 20.8845 10.3524 20.86 10.3821 20.8366C10.4121 20.8131 10.4424 20.7906 10.4737 20.7691C10.5051 20.7476 10.5371 20.7271 10.5694 20.7072C10.602 20.6876 10.635 20.6691 10.6687 20.6515C10.7023 20.6339 10.7366 20.6172 10.7713 20.6016C10.8059 20.586 10.8412 20.5716 10.8768 20.5583C10.9124 20.5449 10.9484 20.5325 10.9847 20.5211C11.0209 20.51 11.0579 20.4999 11.0948 20.4908C11.1318 20.4817 11.169 20.4739 11.2063 20.467C11.2439 20.4602 11.2815 20.4546 11.3194 20.4501C11.3574 20.4458 11.3953 20.4423 11.4332 20.4403C11.4711 20.438 11.5094 20.437 11.5473 20.437C11.5856 20.4374 11.6235 20.4387 11.6614 20.441C11.6997 20.4436 11.7376 20.4472 11.7752 20.4517C11.8132 20.4566 11.8507 20.4625 11.888 20.4693C11.9256 20.4765 11.9629 20.4846 11.9998 20.4937C12.0368 20.5029 12.0734 20.5133 12.1097 20.525C12.1459 20.5364 12.1819 20.5488 12.2172 20.5625C12.2528 20.5762 12.2877 20.5909 12.3224 20.6068C12.357 20.6225 12.391 20.6394 12.4246 20.6573C12.4583 20.6749 12.4912 20.6938 12.5236 20.7137C12.5559 20.7336 12.5875 20.7544 12.6185 20.7763C12.6499 20.7981 12.6802 20.8206 12.7099 20.8444C12.7396 20.8678 12.7683 20.8923 12.7966 20.9177C12.8247 20.9431 12.8521 20.9692 12.8788 20.9962C12.9052 21.0233 12.9309 21.0513 12.9556 21.0796C12.9804 21.1083 13.0044 21.1376 13.0275 21.1676C13.0503 21.1976 13.0724 21.2282 13.0935 21.2598C13.1146 21.2911 13.1347 21.3231 13.1538 21.3556C13.173 21.3882 13.1911 21.4215 13.2079 21.455C13.2251 21.4886 13.2409 21.5228 13.2561 21.5577C13.2709 21.5922 13.2848 21.6274 13.2976 21.6626C13.3102 21.6981 13.322 21.734 13.3326 21.7701C13.3428 21.8063 13.3524 21.8428 13.3606 21.8796C13.3689 21.9165 13.3761 21.9536 13.3821 21.9907C13.388 22.0279 13.3926 22.065 13.3966 22.1025C13.4002 22.14 13.4025 22.1778 13.4038 22.2153C13.4051 22.2531 13.4055 22.2905 13.4045 22.3283C13.4035 22.3658 13.4012 22.4036 13.3979 22.4411C13.3946 22.4786 13.39 22.516 13.3844 22.5532C13.3788 22.5903 13.3718 22.6275 13.3639 22.6643C13.356 22.7011 13.3468 22.7376 13.3365 22.7738C13.3263 22.8103 13.3151 22.8461 13.3026 22.8816C13.29 22.9172 13.2765 22.9524 13.262 22.9872C13.2472 23.0221 13.2317 23.0563 13.2148 23.0902C13.1928 23.1348 13.1782 23.1818 13.1707 23.231C13.1634 23.2802 13.1634 23.3294 13.1713 23.3783C13.1792 23.4275 13.1941 23.4744 13.2165 23.5187C13.2386 23.5633 13.2673 23.6038 13.3019 23.6396C13.3369 23.6754 13.3761 23.7054 13.4203 23.7295C13.4642 23.7533 13.511 23.7703 13.5602 23.7804C13.6093 23.7901 13.6591 23.7924 13.7092 23.7875C13.759 23.7823 13.8072 23.7699 13.8534 23.7504L17.9077 21.9552C18.1056 21.8705 18.2636 21.7392 18.3823 21.5613L18.9974 21.3123C19.0327 21.5991 19.1036 21.877 19.2108 22.1459C19.318 22.4147 19.4578 22.6656 19.63 22.8989C19.567 22.9351 19.5103 22.9797 19.4601 23.0322C19.3965 23.0928 19.347 23.1632 19.3127 23.2437C19.2781 23.3242 19.2609 23.4079 19.2609 23.4956L19.2903 25.4005H18.8919C18.7952 25.4018 18.7135 25.4367 18.6458 25.5048C18.6112 25.5367 18.5852 25.5745 18.5677 25.6182C18.5502 25.6619 18.5429 25.7072 18.5462 25.7538L18.6109 30.1258H19.3137L19.2494 26.1015L28.6408 26.0262L28.7054 30.1317H29.4082L29.3439 25.6785C29.3429 25.6329 29.333 25.5889 29.3149 25.5469C29.2968 25.5048 29.271 25.4677 29.2384 25.4354C29.2057 25.4031 29.1681 25.3777 29.1256 25.3598C29.083 25.3419 29.0385 25.3324 28.9923 25.3311H28.5824C28.5824 25.3197 28.588 25.3021 28.588 25.2907L28.559 23.4258C28.559 23.3212 28.5339 23.2228 28.4841 23.1306C28.4343 23.0384 28.3654 22.9631 28.2776 22.9048C28.4125 22.6907 28.5177 22.5284 28.5356 22.4935C28.6371 22.3397 28.7113 22.1739 28.7582 21.9956L28.7697 21.9552H28.7757L29.801 18.1678L29.426 16.9983L29.7658 16.8591C29.8096 16.8415 29.8522 16.822 29.8941 16.8001C29.9356 16.7783 29.9762 16.7545 30.0158 16.7288C30.055 16.703 30.0933 16.6753 30.1299 16.646C30.1665 16.6163 30.2014 16.5854 30.2351 16.5525C30.2684 16.5196 30.3004 16.485 30.3304 16.4492C30.3604 16.413 30.3888 16.3759 30.4152 16.3371C30.4415 16.2983 30.4659 16.2582 30.4884 16.2172C30.5108 16.1761 30.5309 16.1341 30.5491 16.0911C30.5672 16.048 30.5834 16.0041 30.5972 15.9594C30.6111 15.9148 30.6226 15.8695 30.6318 15.8239C30.6411 15.7782 30.6483 15.732 30.6529 15.6857C30.6576 15.6391 30.6599 15.5925 30.6602 15.5459C30.6602 15.4993 30.6579 15.4527 30.6533 15.4061C30.6487 15.3598 30.6417 15.3136 30.6328 15.2676C30.6236 15.222 30.612 15.1767 30.5985 15.1321C30.5847 15.0874 30.5688 15.0434 30.5507 15.0004ZM3.35445 9.17472C3.38512 9.06979 3.42997 8.97138 3.48934 8.87949C3.48934 8.87949 3.67074 8.5898 3.87588 8.2773L11.0002 8.2193C11.1529 8.37897 11.2838 8.55396 11.3933 8.74524C11.5035 8.93619 11.5892 9.13724 11.6506 9.3484L6.00283 11.8445L5.94412 11.9429C5.54571 12.6376 4.82508 12.9446 4.81914 12.9446L4.56156 13.0488C4.56156 13.0488 4.96558 15.4635 5.07705 16.1644C5.11003 16.3726 5.10739 16.5805 5.06914 16.7881C5.03088 16.9956 4.95931 17.1912 4.85443 17.3746C4.81716 17.4274 4.77428 17.4747 4.72547 17.5174C4.67666 17.5597 4.62323 17.5959 4.56551 17.6255C4.50813 17.6552 4.44777 17.6777 4.38445 17.693C4.32145 17.7083 4.25747 17.7161 4.19217 17.7161C4.01077 17.7106 3.93459 17.6177 3.90523 17.5656L2.76277 14.0391L2.54608 13.3731L2.36436 12.8172L3.35445 9.17472ZM17.7788 21.1966C17.7389 21.2533 17.6861 21.2941 17.6205 21.3182L14.0292 22.9106C14.0414 22.8631 14.0519 22.8152 14.0611 22.7669C14.0704 22.7187 14.0783 22.6705 14.0846 22.6219C14.0908 22.5731 14.0958 22.5245 14.0994 22.4756C14.103 22.4267 14.105 22.3775 14.1057 22.3287C14.1063 22.2798 14.1057 22.2306 14.1034 22.1817C14.1011 22.1328 14.0974 22.0839 14.0925 22.0351C14.0875 21.9862 14.0809 21.9376 14.073 21.8894C14.0651 21.8409 14.0559 21.7926 14.045 21.745C14.0341 21.6971 14.0222 21.6496 14.0087 21.6023C13.9952 21.5551 13.98 21.5085 13.9638 21.4622C13.9477 21.4159 13.9299 21.37 13.9111 21.3247C13.8919 21.2794 13.8718 21.2348 13.8504 21.1904C13.8286 21.1464 13.8059 21.1028 13.7818 21.0601C13.7577 21.0171 13.7323 20.975 13.7056 20.9337C13.6789 20.8923 13.6512 20.8519 13.6222 20.8121C13.5931 20.7724 13.5631 20.7333 13.5318 20.6951C13.5005 20.657 13.4681 20.6199 13.4348 20.5837C13.4015 20.5475 13.3669 20.5123 13.3313 20.4781C13.296 20.4439 13.2594 20.4107 13.2221 20.3784C13.1845 20.3465 13.1462 20.3155 13.107 20.2855C13.0678 20.2555 13.0275 20.2265 12.9866 20.1988C12.9457 20.1715 12.9038 20.1448 12.8613 20.1197C12.8187 20.0942 12.7755 20.0705 12.7317 20.0476C12.6878 20.0248 12.6433 20.0033 12.5981 19.9831C12.5529 19.9629 12.5071 19.9437 12.4609 19.9261C12.4147 19.9085 12.3679 19.8922 12.3207 19.8775C12.2732 19.8626 12.2257 19.8489 12.1776 19.8368C12.1298 19.8244 12.0813 19.8137 12.0325 19.8042C11.984 19.7948 11.9352 19.7866 11.886 19.7801C11.8366 19.7736 11.7874 19.7684 11.738 19.7645C11.6885 19.7606 11.639 19.7583 11.5895 19.7573C11.5397 19.7563 11.4903 19.7567 11.4408 19.7586C11.391 19.7606 11.3415 19.7638 11.2924 19.7684C11.2429 19.7733 11.1938 19.7791 11.1446 19.7866C11.0958 19.7941 11.047 19.8033 10.9985 19.8134C10.95 19.8238 10.9019 19.8355 10.8541 19.8485C10.8062 19.8616 10.7587 19.8759 10.7119 19.8919C10.6647 19.9075 10.6182 19.9248 10.5724 19.943C10.5265 19.9616 10.481 19.9812 10.4361 20.0024C10.3916 20.0235 10.3474 20.0457 10.3039 20.0692C10.2604 20.0929 10.2175 20.1177 10.1756 20.1438C10.1334 20.1698 10.0922 20.1969 10.0519 20.2252C10.0113 20.2536 9.97178 20.2832 9.93319 20.3139C9.89427 20.3445 9.85667 20.3761 9.81973 20.409C9.78279 20.4419 9.74718 20.4758 9.71222 20.5107C9.67726 20.5456 9.64361 20.5814 9.61063 20.6179C9.57798 20.6547 9.54632 20.6925 9.51565 20.7313C9.48531 20.7698 9.45562 20.8092 9.42759 20.8496C9.39923 20.89 9.37218 20.9311 9.34646 20.9728C9.3204 21.0148 9.29599 21.0572 9.27258 21.1005C9.24916 21.1438 9.22739 21.1875 9.20662 21.2321C9.18584 21.2768 9.16638 21.3218 9.14824 21.3674C9.1301 21.413 9.11328 21.4593 9.09778 21.5059C9.08228 21.5525 9.06842 21.5994 9.05556 21.6466C9.04303 21.6942 9.03182 21.7418 9.02192 21.79C9.01203 21.8379 9.00345 21.8861 8.99653 21.9347C8.9896 21.9833 8.98399 22.0321 8.9797 22.0807C8.97542 22.1296 8.97278 22.1788 8.97146 22.2276C8.97014 22.2765 8.97047 22.3257 8.97179 22.3746C8.97344 22.4238 8.97641 22.4727 8.98102 22.5212C8.98531 22.5701 8.99125 22.619 8.9985 22.6672C9.00576 22.7158 9.01434 22.764 9.02456 22.8122C9.03478 22.8601 9.04633 22.9077 9.05919 22.955C9.07205 23.0025 9.08623 23.0495 9.10207 23.0961C9.30127 23.6692 9.83425 24.1789 10.3207 24.5494L6.34254 26.3097L1.42109 15.4403C1.37987 15.3507 1.3581 15.2565 1.35579 15.1578C1.35381 15.0594 1.37162 14.9642 1.40955 14.873C1.44418 14.7811 1.49596 14.6996 1.5639 14.6283C1.63184 14.5569 1.71133 14.5015 1.80203 14.4618L2.11238 14.323L3.26078 17.8611C3.30366 17.9426 3.35643 18.0169 3.41942 18.0843C3.48274 18.1515 3.55365 18.2095 3.63248 18.258C3.7113 18.3063 3.79541 18.3434 3.88445 18.3695C3.9735 18.3955 4.0642 18.4096 4.15721 18.4112C4.15721 18.4112 5.07111 18.4285 5.44611 17.7393V17.7279C5.59288 17.4737 5.69314 17.2022 5.74624 16.9142C5.79967 16.6265 5.80297 16.3377 5.75646 16.0484C5.66873 15.4925 5.42863 14.0391 5.32903 13.4542C5.56319 13.3258 5.77823 13.1714 5.97447 12.9912C6.1707 12.811 6.34221 12.6102 6.48897 12.3886L12.4355 9.75377C12.4355 9.75377 12.5998 9.66123 12.7287 9.69023C12.8125 9.73226 12.8728 9.79581 12.9101 9.88118L14.7498 14.0391C14.7686 14.0851 14.794 14.1274 14.8263 14.1656C14.8586 14.2037 14.8962 14.2363 14.9388 14.2627C14.9813 14.2891 15.0272 14.3086 15.076 14.3207C15.1245 14.3331 15.1743 14.3376 15.2244 14.3344C15.2745 14.3311 15.323 14.3207 15.3698 14.3031C15.417 14.2852 15.4602 14.2614 15.4998 14.2307C15.5394 14.2004 15.5737 14.1649 15.6027 14.1242C15.6317 14.0838 15.6538 14.0398 15.6696 13.9929C15.6891 13.9212 15.7125 13.8511 15.7405 13.7823C15.7686 13.7139 15.8006 13.6471 15.8368 13.5823C15.8731 13.5174 15.9134 13.4552 15.9572 13.3952C16.0011 13.3353 16.0486 13.2782 16.0994 13.2238C16.1505 13.1697 16.2046 13.1189 16.262 13.071C16.319 13.0234 16.3791 12.9794 16.442 12.9387C16.5047 12.8983 16.5697 12.8618 16.637 12.8292C16.7042 12.7966 16.7732 12.7683 16.8438 12.7438C16.9147 12.7197 16.9866 12.6998 17.0598 12.6842C17.133 12.6686 17.2069 12.6575 17.2814 12.651C17.356 12.6441 17.4308 12.6422 17.5057 12.6444C17.5806 12.6467 17.6551 12.6536 17.729 12.665C17.8028 12.6764 17.8761 12.692 17.948 12.7122C18.0202 12.7324 18.0908 12.7569 18.1597 12.7855C18.2286 12.8142 18.2959 12.8468 18.3609 12.8836C18.4259 12.9205 18.4882 12.9609 18.5482 13.0052C18.6082 13.0495 18.6653 13.0974 18.7194 13.1486C18.7735 13.1997 18.8243 13.2541 18.8718 13.3115C18.9189 13.3685 18.9628 13.4285 19.0027 13.4914C19.0426 13.5539 19.0786 13.6184 19.1105 13.6856C19.1425 13.7524 19.1702 13.8211 19.1937 13.8912C19.2174 13.9616 19.2362 14.0329 19.251 14.1056C19.2656 14.1783 19.2758 14.2516 19.2814 14.3252C19.287 14.3992 19.288 14.4728 19.2847 14.5468C19.2811 14.6208 19.2731 14.6944 19.2606 14.7674C19.2481 14.8401 19.2309 14.9121 19.2095 14.9831C19.1881 15.0542 19.1623 15.1233 19.1323 15.191C19.102 15.2591 19.068 15.3246 19.0297 15.3885C18.9918 15.4521 18.9496 15.5133 18.9041 15.572C18.8582 15.6306 18.8091 15.6863 18.7567 15.7388C18.7039 15.7916 18.6482 15.8408 18.5894 15.8867C18.5307 15.933 18.4697 15.9751 18.4057 16.0138C17.8959 16.2973 17.0054 16.2279 16.6482 16.1875C16.6013 16.1823 16.5548 16.183 16.5083 16.1898C16.4618 16.1963 16.4173 16.209 16.3741 16.2273C16.3309 16.2455 16.2907 16.269 16.2537 16.2977C16.2168 16.326 16.1841 16.3589 16.1558 16.3961C16.1558 16.4016 15.9859 16.5929 16.0974 16.923L17.8375 20.7564C17.853 20.7922 17.8639 20.8297 17.8691 20.8682C17.8747 20.9069 17.8747 20.9457 17.8698 20.9845C17.8645 21.0233 17.8543 21.0607 17.8388 21.0966C17.8233 21.1324 17.8035 21.166 17.7788 21.1966ZM28.0784 21.8161C28.0481 21.921 28.0029 22.0194 27.9435 22.1113V22.123C27.9435 22.123 27.7681 22.4069 27.5629 22.7194L27.4927 22.8295H20.4915L20.4328 22.7715C20.3206 22.6532 20.2194 22.5265 20.1297 22.3906C20.04 22.2547 19.9631 22.1123 19.8985 21.9634C19.8342 21.8141 19.7834 21.6607 19.7461 21.5026C19.7088 21.3446 19.6857 21.1846 19.6772 21.0229L24.7506 18.9322C24.6395 19.1291 24.534 19.3376 24.4344 19.5462L25.0729 19.8414C25.2018 19.5693 25.3423 19.3031 25.4888 19.0482C25.6388 18.7931 25.8304 18.5728 26.063 18.388C26.2318 18.2509 26.4155 18.1368 26.6138 18.0462L26.8717 17.9419L26.8304 17.6699C26.8248 17.664 26.807 17.5366 26.7721 17.3456C26.6665 16.7203 26.4439 15.365 26.3558 14.8323C26.3232 14.624 26.3258 14.4161 26.3638 14.2086C26.402 14.0013 26.4736 13.8058 26.5785 13.622C26.6157 13.5689 26.6586 13.521 26.7074 13.4783C26.7559 13.4353 26.8093 13.3988 26.8667 13.3685C26.9244 13.3385 26.9848 13.3154 27.0481 13.2994C27.1111 13.2835 27.1754 13.2753 27.2407 13.2747C27.4221 13.2805 27.4983 13.3731 27.5277 13.4311L28.559 16.6043L28.7757 17.2703L29.0685 18.1795L28.0784 21.8161Z" fill="#00D280"/>
<path d="M7.90234 27.6996L8.527 27.3809L9.33833 28.935L8.71367 29.2537L7.90234 27.6996Z" fill="#00D280"/>
<path d="M2.83203 28.9643L3.64336 27.4102L4.26835 27.7289L3.45669 29.2829L2.83203 28.9643Z" fill="#00D280"/>
<path d="M5.69922 30.1525L5.74243 28.4043L6.44525 28.4212L6.40205 30.1695L5.69922 30.1525Z" fill="#00D280"/>
<path d="M22.7656 1.46908L23.3902 1.15039L24.2019 2.70441L23.5769 3.0231L22.7656 1.46908Z" fill="#00D280"/>
<path d="M27.8398 2.72785L28.6511 1.17383L29.2761 1.49252L28.4644 3.04654L27.8398 2.72785Z" fill="#00D280"/>
<path d="M25.6211 1.99433L25.6643 0.246094L26.3672 0.263038L26.324 2.01127L25.6211 1.99433Z" fill="#00D280"/>
</g>
</g>
<defs>
<clipPath id="clip0_31_212">
<rect width="30" height="30" fill="white" transform="translate(0.660156 0.169922)"/>
</clipPath>
<clipPath id="clip1_31_212">
<rect width="30" height="30" fill="white" transform="translate(0.660156 0.169922)"/>
</clipPath>
</defs>
</svg>
