<svg width="31" height="26" viewBox="0 0 31 26" fill="none" xmlns="http://www.w3.org/2000/svg">
<g clip-path="url(#clip0_31_243)">
<g clip-path="url(#clip1_31_243)">
<g clip-path="url(#clip2_31_243)">
<mask id="mask0_31_243" style="mask-type:luminance" maskUnits="userSpaceOnUse" x="0" y="1" width="26" height="23">
<path d="M0.771484 1.49316H25.2325V23.3928H0.771484V1.49316Z" fill="white"/>
</mask>
<g mask="url(#mask0_31_243)">
<path d="M21.9234 19.5353L20.6262 18.1008H2.46343C2.24557 18.1008 2.06878 17.9045 2.06878 17.6638V3.43486C2.06878 3.19531 2.24557 2.99895 2.46343 2.99895H23.5245C23.7412 2.99895 23.9185 3.19531 23.9185 3.43486V14.693L25.2164 16.1281V3.43486C25.2164 2.40353 24.4572 1.56396 23.5245 1.56396H2.46343C1.53063 1.56396 0.771484 2.40353 0.771484 3.43486V17.6638C0.771484 18.6962 1.53063 19.5353 2.46343 19.5353H10.2217V20.9057H9.54428C8.32234 20.9057 7.33234 21.9999 7.33234 23.3513H18.6555C18.6555 21.9999 17.665 20.9057 16.4436 20.9057H15.7656V19.5353H21.9234Z" fill="#00D280"/>
</g>
<path d="M4.5876 4.98188C4.5876 4.58686 4.29798 4.26611 3.94077 4.26611C3.58356 4.26611 3.29395 4.58686 3.29395 4.98188C3.29395 5.37691 3.58356 5.69707 3.94077 5.69707C4.29798 5.69707 4.5876 5.37691 4.5876 4.98188Z" fill="#00D280"/>
<path d="M6.93526 4.98188C6.93526 4.58686 6.64565 4.26611 6.28844 4.26611C5.93122 4.26611 5.6416 4.58686 5.6416 4.98188C5.6416 5.37691 5.93122 5.69707 6.28844 5.69707C6.64565 5.69707 6.93526 5.37691 6.93526 4.98188Z" fill="#00D280"/>
<path d="M8.63511 5.69707C8.9918 5.69707 9.28191 5.37691 9.28191 4.98188C9.28191 4.58686 8.9918 4.26611 8.63511 4.26611C8.2779 4.26611 7.98828 4.58686 7.98828 4.98188C7.98828 5.37691 8.2779 5.69707 8.63511 5.69707Z" fill="#00D280"/>
<path d="M20.7497 5.54965L21.4625 4.61219C21.1074 4.39222 20.6987 4.26611 20.263 4.26611C19.3078 4.26611 18.4785 4.87132 18.0703 5.75292L19.1482 6.07194C19.4013 5.69534 19.807 5.45177 20.263 5.45177C20.434 5.45177 20.5978 5.48688 20.7497 5.54965Z" fill="#00D280"/>
<path d="M22.7189 6.98531C22.7189 6.3375 22.5136 5.74093 22.1698 5.27393L21.458 6.21081C21.5786 6.43827 21.6478 6.70258 21.6478 6.98531C21.6478 7.04808 21.6447 7.11027 21.6379 7.17131L22.6009 7.8197C22.6784 7.55596 22.7189 7.27668 22.7189 6.98531Z" fill="#00D280"/>
<path d="M19.5402 9.59312L19.7123 8.40286C19.2356 8.17656 18.895 7.66291 18.8705 7.06001L17.8077 6.74561C17.8015 6.82564 17.7979 6.90741 17.7979 6.98976C17.7979 8.21399 18.5325 9.25222 19.5402 9.59312Z" fill="#00D280"/>
<path d="M22.15 8.73109L21.2173 8.104C20.977 8.35737 20.6546 8.51688 20.2985 8.5284L20.1279 9.71118C20.1711 9.71286 20.2142 9.71462 20.2584 9.71462C21.0181 9.71462 21.6982 9.33169 22.15 8.73109Z" fill="#00D280"/>
<path d="M5.23828 16.8234H6.21633V9.8374H5.23828V16.8234Z" fill="#00D280"/>
<path d="M7.18945 16.8278H8.16698V8.09521H7.18945V16.8278Z" fill="#00D280"/>
<path d="M10.1216 12.4468H9.14355V16.8243H10.1216V12.4468Z" fill="#00D280"/>
<path d="M3.29395 16.826H4.27199V12.1294H3.29395V16.826Z" fill="#00D280"/>
<path d="M18.1585 11.1367H11.959V12.4542H16.6266C16.845 12.0817 17.2251 11.8392 17.6437 11.8392C17.966 11.8392 18.1205 11.5335 18.1585 11.1367Z" fill="#00D280"/>
<path d="M11.959 13.5479V14.0378H16.3974C16.3833 13.876 16.3797 13.7125 16.3865 13.5479H11.959Z" fill="#00D280"/>
<path d="M11.959 15.4314H16.7603C16.687 15.273 16.6241 15.1095 16.5716 14.9419H11.959V15.4314Z" fill="#00D280"/>
<path d="M11.959 16.8253H17.8589C17.6946 16.6975 17.5381 16.5535 17.3925 16.3923C17.3759 16.3733 17.3592 16.3549 17.3427 16.3364H11.959V16.8253Z" fill="#00D280"/>
<path d="M28.4759 23.2606C28.1582 23.6119 27.7334 23.7731 27.3164 23.7444C26.9633 23.7202 26.616 23.559 26.3461 23.2606C25.7591 22.6111 25.7591 21.5539 26.3461 20.9043C26.9327 20.2542 27.8889 20.2542 28.4759 20.9043C28.7458 21.202 28.8914 21.5856 28.9132 21.9766C28.9402 22.4378 28.7946 22.9094 28.4759 23.2606ZM29.1654 20.142C28.4858 19.3905 27.5067 19.1664 26.6482 19.4711L22.0664 14.4025C22.2884 13.536 22.0913 12.5663 21.4746 11.8845C20.897 11.2453 20.091 11.0132 19.348 11.1883C19.2809 11.2044 19.256 11.2948 19.3043 11.3477L20.8601 13.0678C20.9516 13.1697 20.9516 13.3338 20.8601 13.4352L19.5944 14.8351C19.5024 14.937 19.3537 14.937 19.2622 14.8351L17.707 13.115C17.6592 13.0614 17.577 13.0897 17.563 13.1628C17.4044 13.9851 17.6135 14.8771 18.1916 15.5156C18.8073 16.1974 19.6844 16.4157 20.468 16.1698L25.0509 21.2383C24.7748 22.1867 24.9766 23.2704 25.6566 24.0231C26.6243 25.0936 28.1977 25.0936 29.1654 24.0231C30.1325 22.9538 30.1325 21.2124 29.1654 20.142Z" fill="#00D280"/>
</g>
</g>
</g>
<defs>
<clipPath id="clip0_31_243">
<rect width="30" height="24.7" fill="white" transform="translate(0.330078 0.810059)"/>
</clipPath>
<clipPath id="clip1_31_243">
<rect width="30" height="24.7" fill="white" transform="translate(0.330078 0.810059)"/>
</clipPath>
<clipPath id="clip2_31_243">
<rect width="30" height="24.7059" fill="white" transform="translate(0.330078 0.807129)"/>
</clipPath>
</defs>
</svg>
