<svg width="31" height="31" viewBox="0 0 31 31" fill="none" xmlns="http://www.w3.org/2000/svg">
<g clip-path="url(#clip0_31_190)">
<g clip-path="url(#clip1_31_190)">
<g clip-path="url(#clip2_31_190)">
<path d="M18.7542 14.9051L18.6885 14.9676L18.1607 15.9669C18.0286 16.2791 17.633 16.4663 17.2374 16.4663C16.3797 16.4663 15.4564 15.9044 15.4564 14.5929C15.4564 13.9059 15.7863 13.2189 16.248 12.6569C15.7863 12.4697 15.1925 12.5322 14.7969 12.9066L14.6648 13.0317L12.4221 15.1549L11.4327 16.0919C10.9053 16.5914 10.9053 17.3409 11.4327 17.8403L12.0925 18.4648C12.686 17.9029 13.5436 17.9029 14.137 18.4648C14.7308 19.0268 14.7308 19.8388 14.137 20.4008L14.7969 21.0253C15.3243 21.5251 16.1819 21.5251 16.6436 21.0253L17.3031 20.4008C17.8308 20.9631 18.7542 20.9631 19.348 20.4008C19.8757 19.9013 19.9418 19.0268 19.348 18.4648L20.0075 17.8403C20.5352 17.3409 20.5352 16.5289 20.0075 16.0919L18.7542 14.9051Z" fill="#00D280"/>
<path d="M30.0974 5.53712L27.393 1.2279C26.9974 0.60341 26.1397 0.416194 25.4802 0.728437L24.6226 1.2279C23.897 1.60266 23.6331 2.4772 24.0952 3.10169L26.8652 7.41058C27.2612 8.03507 28.1185 8.22261 28.778 7.91037L29.6357 7.47309C30.2952 7.09834 30.559 6.22412 30.0974 5.53712Z" fill="#00D280"/>
<mask id="mask0_31_190" style="mask-type:luminance" maskUnits="userSpaceOnUse" x="0" y="22" width="9" height="9">
<path d="M0.330078 22.1934H8.74061V30.5814H0.330078V22.1934Z" fill="white"/>
</mask>
<g mask="url(#mask0_31_190)">
<path d="M7.2098 27.0841C7.2098 26.2096 7.80324 25.4604 8.66089 25.2103V23.5866H7.0777C7.0777 22.8374 6.4182 22.2129 5.6266 22.2129C4.835 22.2129 4.17551 22.8374 4.17551 23.5866H1.86711V25.7101C1.07551 25.7101 0.416016 26.3346 0.416016 27.0841C0.416016 27.8333 1.07551 28.4578 1.86711 28.4578V29.3323C1.86711 30.0193 2.46055 30.5813 3.1861 30.5813H8.59484V28.9576C7.80324 28.7078 7.2098 27.9583 7.2098 27.0841Z" fill="#00D280"/>
</g>
<mask id="mask1_31_190" style="mask-type:luminance" maskUnits="userSpaceOnUse" x="7" y="23" width="12" height="8">
<path d="M7.76367 23.5312H18.1219V30.5786H7.76367V23.5312Z" fill="white"/>
</mask>
<g mask="url(#mask1_31_190)">
<path d="M16.6414 25.7075V24.8333C16.6414 24.1463 16.0476 23.584 15.3221 23.584H14.3987C14.3987 24.3335 13.7392 24.958 12.9476 24.958C12.156 24.958 11.4965 24.3335 11.4965 23.584H9.25382V25.7075C8.46257 25.7075 7.80273 26.332 7.80273 27.0815C7.80273 27.8307 8.46257 28.4552 9.25382 28.4552V30.5787H15.3221C16.0476 30.5787 16.6414 30.0167 16.6414 29.3297V28.4552C17.433 28.4552 18.0925 27.8307 18.0925 27.0815C18.0925 26.332 17.4991 25.7075 16.6414 25.7075Z" fill="#00D280"/>
</g>
<path d="M1.93352 21.462V22.9607H3.64848C3.91234 22.149 4.70394 21.587 5.6273 21.587C6.55066 21.587 7.34226 22.149 7.60613 22.9607H9.32109V21.462C10.1127 21.462 10.7722 20.8375 10.7722 20.088C10.7722 19.3388 10.1127 18.714 9.32109 18.714V17.8398C9.32109 17.1528 8.72765 16.5908 8.00175 16.5908H7.07839C7.07839 15.8413 6.4189 15.2168 5.6273 15.2168C4.8357 15.2168 4.17621 15.8413 4.17621 16.5908H3.25285C2.5273 16.5908 1.93352 17.1528 1.93352 17.8398V18.714C1.53789 18.714 1.14226 18.9016 0.878394 19.1513C0.614528 19.401 0.482422 19.7133 0.482422 20.088C0.482422 20.8375 1.07621 21.462 1.93352 21.462Z" fill="#00D280"/>
<path d="M23.3697 3.16406L15.9825 5.66234L7.6055 4.28834C7.27558 5.4748 8.3971 5.59982 8.3971 5.59982L11.1672 6.41153L4.63726 7.09853C4.96718 8.47253 6.22046 8.2228 6.22046 8.2228L11.0354 7.97307L4.43945 10.7208C4.76936 11.72 6.1544 11.595 6.1544 11.595L12.4865 9.34675L11.4311 11.033C11.2333 11.3453 11.2333 11.72 11.4311 12.0948L12.5526 14.0307L13.8716 12.7818L13.6077 11.845C13.542 11.5328 13.6077 11.2206 13.8716 11.033L15.5208 9.7215C16.4442 8.97232 17.3675 9.84653 17.6975 9.90905C18.357 10.2835 18.5548 11.0955 18.027 11.6575C17.2358 12.5942 16.1143 13.2812 16.1143 14.5927C16.1143 15.717 16.8398 15.8417 17.2358 15.8417C17.3675 15.8417 17.4997 15.7795 17.5654 15.6545L18.1591 14.5302C19.0825 13.9057 23.6336 10.2835 25.019 8.41002C25.2829 8.03526 25.7445 7.72301 26.2062 7.66083L23.5018 3.41412C23.4358 3.35161 23.4358 3.28909 23.3697 3.16406Z" fill="#00D280"/>
</g>
</g>
</g>
<defs>
<clipPath id="clip0_31_190">
<rect width="30" height="30" fill="white" transform="translate(0.330078 0.580078)"/>
</clipPath>
<clipPath id="clip1_31_190">
<rect width="30" height="30" fill="white" transform="translate(0.330078 0.580078)"/>
</clipPath>
<clipPath id="clip2_31_190">
<rect width="30" height="30" fill="white" transform="translate(0.330078 0.580078)"/>
</clipPath>
</defs>
</svg>
