<svg width="61" height="61" viewBox="0 0 61 61" fill="none" xmlns="http://www.w3.org/2000/svg">
<g clip-path="url(#clip0_1_22439)">
<g clip-path="url(#clip1_1_22439)">
<path d="M26.3093 33.1596L34.4093 28.4599L42.409 33.1596L34.4093 37.7599L26.3093 33.2599V33.1596ZM2.00928 19.2602L34.4093 0.859863L58.5096 14.5596L50.5099 28.4599L34.4103 19.2602L10.1102 33.0602L2.00928 19.2602Z" fill="white"/>
<path d="M26.3109 51.5594V42.3597L34.3106 37.7594L42.4106 33.1591V42.3588L34.4109 46.9591V56.1588L26.3109 60.8594V51.5594ZM26.3109 33.1591L18.2109 28.5588L10.1108 33.0588V23.8591L34.4109 10.0591V28.4594L26.3109 33.1591ZM50.4112 23.8591V19.2588L58.5112 14.5591L58.6115 23.7588L50.5115 28.4585L50.4112 23.8591Z" fill="white"/>
<path d="M18.2093 55.9591V28.5597L26.209 24.0597L26.3093 33.1601L34.4093 37.6601V46.9601L26.3093 42.6597V60.8594L18.2093 55.9591ZM6.00959 30.6597L2.00928 28.2597V19.2597L10.1093 23.8601V33.0597L6.00959 30.6597ZM34.4093 19.2597V10.0591L50.4096 19.2588L50.5099 28.4585L34.4103 19.2588L34.4093 19.2597Z" fill="white"/>
</g>
</g>
<defs>
<clipPath id="clip0_1_22439">
<rect width="60" height="60" fill="white" transform="translate(0.310059 0.859863)"/>
</clipPath>
<clipPath id="clip1_1_22439">
<rect width="60" height="60" fill="white" transform="translate(0.310059 0.859863)"/>
</clipPath>
</defs>
</svg>
