<svg width="61" height="35" viewBox="0 0 61 35" fill="none" xmlns="http://www.w3.org/2000/svg">
<g clip-path="url(#clip0_1_22495)">
<g clip-path="url(#clip1_1_22495)">
<path d="M31.4917 23.1419C31.4917 23.0669 31.5167 23.0076 31.5667 22.9544C31.6167 22.9013 31.6792 22.8794 31.7511 22.8794C31.8261 22.8794 31.8855 22.9044 31.9386 22.9544C31.9917 23.0044 32.0136 23.0669 32.0136 23.1419C32.0136 23.2169 31.9886 23.2763 31.9386 23.3263C31.8886 23.3763 31.8261 23.4013 31.7511 23.4013C31.6792 23.4013 31.6198 23.3763 31.5667 23.3263C31.5167 23.2763 31.4917 23.2169 31.4917 23.1419ZM31.5511 25.4138V23.7326H31.948V25.4138H31.5511Z" fill="white"/>
<path d="M32.7276 25.4141H32.3276V23.7328H32.7182V23.9578C32.7744 23.861 32.8463 23.7922 32.9369 23.7485C33.0276 23.7047 33.1213 23.686 33.2151 23.686C33.3182 23.686 33.4088 23.7047 33.4838 23.7391C33.5588 23.7735 33.6213 23.8203 33.6713 23.8828C33.7213 23.9453 33.7588 24.0141 33.7838 24.0953C33.8088 24.1766 33.8213 24.261 33.8213 24.3547V25.4172H33.4213V24.4235C33.4213 24.3203 33.3963 24.2328 33.3432 24.1578C33.2901 24.086 33.2026 24.0485 33.0744 24.0485C32.9588 24.0485 32.8713 24.086 32.8151 24.1641C32.7557 24.2422 32.7276 24.336 32.7276 24.4453V25.4141Z" fill="white"/>
<path d="M35.033 25.4142H34.633L33.9487 23.7329H34.3893L34.8362 24.9361L35.2705 23.7329H35.6924L35.033 25.4142Z" fill="white"/>
<path d="M37.2862 24.9352C37.2644 25.0102 37.23 25.0789 37.1862 25.1414C37.1425 25.2071 37.0894 25.2633 37.0238 25.3102C36.9581 25.3571 36.8862 25.3977 36.8019 25.4227C36.7175 25.4508 36.6269 25.4633 36.5269 25.4633C36.4112 25.4633 36.3019 25.4446 36.1988 25.4039C36.0956 25.3633 36.005 25.3039 35.9269 25.2289C35.8487 25.1539 35.7862 25.0571 35.7394 24.9446C35.6925 24.8321 35.6675 24.7071 35.6675 24.5633C35.6675 24.4289 35.6894 24.3102 35.7362 24.2008C35.78 24.0914 35.8425 24.0008 35.9175 23.9227C35.9925 23.8446 36.08 23.7852 36.18 23.7446C36.28 23.7008 36.38 23.6821 36.4862 23.6821C36.6144 23.6821 36.73 23.7039 36.8331 23.7446C36.9362 23.7852 37.0206 23.8446 37.0925 23.9196C37.1612 23.9946 37.2175 24.0883 37.2519 24.1946C37.2894 24.3008 37.3081 24.4227 37.3081 24.5539C37.3081 24.5852 37.3081 24.6133 37.305 24.6383C37.3019 24.6633 37.2987 24.6758 37.2987 24.6821H36.0706C36.0738 24.7477 36.0862 24.8039 36.1112 24.8571C36.1362 24.9102 36.1706 24.9571 36.2113 24.9946C36.2519 25.0352 36.3019 25.0633 36.355 25.0852C36.4081 25.1071 36.4675 25.1164 36.53 25.1164C36.6519 25.1164 36.7456 25.0883 36.8112 25.0321C36.8769 24.9758 36.9237 24.9071 36.9519 24.8227L37.2862 24.9352ZM36.9019 24.3883C36.8988 24.3414 36.8894 24.2946 36.8737 24.2477C36.855 24.2039 36.83 24.1633 36.7956 24.1289C36.7612 24.0946 36.7175 24.0664 36.6675 24.0446C36.6175 24.0227 36.5581 24.0133 36.4894 24.0133C36.4269 24.0133 36.3706 24.0227 36.3206 24.0446C36.2706 24.0664 36.23 24.0946 36.1956 24.1321C36.1613 24.1664 36.1331 24.2071 36.1112 24.2539C36.0894 24.2977 36.08 24.3446 36.0769 24.3883H36.9019Z" fill="white"/>
<path d="M37.7526 24.8607C37.7588 24.9357 37.7901 25.0044 37.8463 25.0607C37.9026 25.1169 37.9838 25.1482 38.0932 25.1482C38.1776 25.1482 38.2401 25.1294 38.2807 25.0919C38.3244 25.0544 38.3432 25.0076 38.3432 24.9544C38.3432 24.9076 38.3276 24.8701 38.2963 24.8357C38.2651 24.8044 38.2151 24.7794 38.1463 24.7669L37.8963 24.7107C37.7463 24.6794 37.6338 24.6169 37.5588 24.5294C37.4838 24.4419 37.4463 24.3388 37.4463 24.2201C37.4463 24.1451 37.4619 24.0763 37.4932 24.0107C37.5244 23.9451 37.5682 23.8888 37.6244 23.8388C37.6807 23.7888 37.7432 23.7513 37.8182 23.7201C37.8932 23.6888 37.9744 23.6763 38.0619 23.6763C38.1807 23.6763 38.2776 23.6919 38.3557 23.7263C38.4338 23.7607 38.4994 23.8013 38.5494 23.8482C38.5994 23.8951 38.6369 23.9482 38.6619 24.0013C38.6869 24.0544 38.7026 24.1044 38.7088 24.1451L38.3713 24.2419C38.3651 24.2201 38.3588 24.1919 38.3463 24.1638C38.3338 24.1326 38.3182 24.1076 38.2932 24.0794C38.2682 24.0544 38.2369 24.0326 38.1994 24.0169C38.1619 23.9982 38.1151 23.9919 38.0588 23.9919C37.9869 23.9919 37.9307 24.0107 37.8838 24.0482C37.8401 24.0857 37.8151 24.1326 37.8151 24.1857C37.8151 24.2326 37.8307 24.2701 37.8588 24.2982C37.8901 24.3294 37.9307 24.3482 37.9838 24.3607L38.2401 24.4138C38.3994 24.4482 38.5182 24.5107 38.5994 24.6013C38.6807 24.6919 38.7213 24.8013 38.7213 24.9232C38.7213 24.9888 38.7088 25.0513 38.6807 25.1138C38.6557 25.1763 38.6151 25.2357 38.5619 25.2857C38.5088 25.3388 38.4432 25.3794 38.3619 25.4107C38.2807 25.4419 38.1869 25.4576 38.0807 25.4576C37.9588 25.4576 37.8557 25.4388 37.7713 25.4044C37.6869 25.3701 37.6151 25.3263 37.5619 25.2763C37.5057 25.2232 37.4651 25.1701 37.4369 25.1107C37.4088 25.0513 37.3932 24.9982 37.3901 24.9513L37.7526 24.8607Z" fill="white"/>
<path d="M39.4964 23.7322H39.8464V24.0884H39.4964V24.8697C39.4964 24.9447 39.5152 24.9978 39.5495 25.029C39.5839 25.0634 39.637 25.079 39.712 25.079C39.7402 25.079 39.7683 25.0759 39.7964 25.0728C39.8245 25.0697 39.8433 25.0665 39.8527 25.0634V25.3947C39.8402 25.3978 39.8152 25.4072 39.7777 25.4165C39.737 25.4259 39.6808 25.4322 39.6089 25.4322C39.4527 25.4322 39.3277 25.3884 39.2402 25.3009C39.1495 25.2134 39.1058 25.0915 39.1058 24.9322V24.0853H38.7964V23.729H38.8839C38.9745 23.729 39.0402 23.704 39.0808 23.654C39.1214 23.604 39.1433 23.5415 39.1433 23.4665V23.2134H39.5058V23.7322H39.4964Z" fill="white"/>
<path d="M40.1128 25.4133V23.7321H40.4972V23.9446C40.5441 23.8602 40.6159 23.7946 40.7128 23.7508C40.8066 23.7071 40.9003 23.6821 40.9972 23.6821C41.1066 23.6821 41.2066 23.7071 41.2972 23.7571C41.3878 23.8071 41.4534 23.8821 41.5003 23.9789C41.5659 23.8696 41.6472 23.7914 41.7409 23.7477C41.8347 23.7039 41.9347 23.6821 42.0472 23.6821C42.1222 23.6821 42.1972 23.6946 42.2691 23.7196C42.3409 23.7446 42.4034 23.7821 42.4597 23.8352C42.5159 23.8883 42.5597 23.9539 42.5941 24.0352C42.6284 24.1164 42.6441 24.2102 42.6441 24.3227V25.4133H42.2566V24.3883C42.2566 24.2883 42.2316 24.2071 42.1784 24.1414C42.1253 24.0758 42.0441 24.0446 41.9316 24.0446C41.8253 24.0446 41.7409 24.0821 41.6784 24.1539C41.6159 24.2258 41.5847 24.3133 41.5847 24.4196V25.4164H41.1909V24.3914C41.1909 24.2946 41.1659 24.2133 41.1159 24.1477C41.0659 24.0821 40.9816 24.0477 40.8659 24.0477C40.7566 24.0477 40.6722 24.0821 40.6097 24.1539C40.5472 24.2227 40.5159 24.3133 40.5159 24.4227V25.4196H40.1128V25.4133Z" fill="white"/>
<path d="M44.4777 24.9352C44.4558 25.0102 44.4214 25.0789 44.3777 25.1414C44.3339 25.2071 44.2808 25.2633 44.2152 25.3102C44.1495 25.3571 44.0777 25.3977 43.9933 25.4227C43.9089 25.4508 43.8183 25.4633 43.7183 25.4633C43.6027 25.4633 43.4933 25.4446 43.3902 25.4039C43.287 25.3633 43.1964 25.3039 43.1183 25.2289C43.0402 25.1508 42.9777 25.0571 42.9308 24.9446C42.8839 24.8321 42.8589 24.7071 42.8589 24.5633C42.8589 24.4289 42.8808 24.3102 42.9277 24.2008C42.9714 24.0914 43.0339 24.0008 43.1089 23.9227C43.1839 23.8446 43.2714 23.7852 43.3714 23.7446C43.4714 23.7008 43.5714 23.6821 43.6777 23.6821C43.8058 23.6821 43.9214 23.7039 44.0245 23.7446C44.1277 23.7852 44.212 23.8446 44.2839 23.9196C44.3527 23.9946 44.4089 24.0883 44.4433 24.1946C44.4808 24.3008 44.4995 24.4227 44.4995 24.5539C44.4995 24.5852 44.4995 24.6133 44.4964 24.6383C44.4933 24.6633 44.4902 24.6758 44.4902 24.6821H43.262C43.2652 24.7477 43.2777 24.8039 43.3027 24.8571C43.3277 24.9102 43.362 24.9571 43.4027 24.9946C43.4433 25.0352 43.4933 25.0633 43.5464 25.0852C43.5995 25.1071 43.6589 25.1164 43.7214 25.1164C43.8433 25.1164 43.937 25.0883 44.0027 25.0321C44.0683 24.9758 44.1152 24.9071 44.1433 24.8227L44.4777 24.9352ZM44.0964 24.3883C44.0933 24.3414 44.0839 24.2946 44.0683 24.2477C44.0495 24.2039 44.0245 24.1633 43.9902 24.1289C43.9558 24.0946 43.912 24.0664 43.862 24.0446C43.812 24.0227 43.7527 24.0133 43.6839 24.0133C43.6214 24.0133 43.5652 24.0227 43.5152 24.0446C43.4652 24.0664 43.4245 24.0946 43.3902 24.1321C43.3558 24.1664 43.3277 24.2071 43.3058 24.2539C43.2839 24.2977 43.2745 24.3446 43.2714 24.3883H44.0964Z" fill="white"/>
<path d="M45.1417 25.4141H44.7417V23.7328H45.1323V23.9578C45.1886 23.861 45.2605 23.7922 45.3511 23.7485C45.4417 23.7047 45.5355 23.686 45.6292 23.686C45.7323 23.686 45.823 23.7047 45.898 23.7391C45.973 23.7735 46.0355 23.8203 46.0855 23.8828C46.1355 23.9453 46.173 24.0141 46.198 24.0953C46.223 24.1766 46.2355 24.261 46.2355 24.3547V25.4172H45.8355V24.4235C45.8355 24.3203 45.8105 24.2328 45.7573 24.1578C45.7042 24.086 45.6167 24.0485 45.4886 24.0485C45.373 24.0485 45.2855 24.086 45.2292 24.1641C45.1698 24.2422 45.1417 24.336 45.1417 24.4453V25.4141Z" fill="white"/>
<path d="M47.094 23.7322H47.444V24.0884H47.094V24.8697C47.094 24.9447 47.1127 24.9978 47.1471 25.029C47.1815 25.0634 47.2346 25.079 47.3096 25.079C47.3377 25.079 47.3658 25.0759 47.394 25.0728C47.4221 25.0697 47.4408 25.0665 47.4502 25.0634V25.3947C47.4377 25.3978 47.4127 25.4072 47.3752 25.4165C47.3346 25.4259 47.2783 25.4322 47.2065 25.4322C47.0502 25.4322 46.9252 25.3884 46.8377 25.3009C46.7471 25.2134 46.7033 25.0915 46.7033 24.9322V24.0853H46.394V23.729H46.4815C46.5721 23.729 46.6377 23.704 46.6783 23.654C46.719 23.604 46.7408 23.5415 46.7408 23.4665V23.2134H47.1033V23.7322H47.094Z" fill="white"/>
<path d="M47.9089 24.8607C47.9152 24.9357 47.9464 25.0044 48.0027 25.0607C48.0589 25.1169 48.1402 25.1482 48.2495 25.1482C48.3339 25.1482 48.3964 25.1294 48.437 25.0919C48.4808 25.0544 48.4995 25.0076 48.4995 24.9544C48.4995 24.9076 48.4839 24.8701 48.4527 24.8357C48.4214 24.8044 48.3714 24.7794 48.3027 24.7669L48.0527 24.7107C47.9027 24.6794 47.7902 24.6169 47.7152 24.5294C47.6402 24.4419 47.6027 24.3388 47.6027 24.2201C47.6027 24.1451 47.6183 24.0763 47.6495 24.0107C47.6808 23.9451 47.7245 23.8888 47.7808 23.8388C47.837 23.7888 47.8995 23.7513 47.9745 23.7201C48.0495 23.6919 48.1308 23.6763 48.2183 23.6763C48.337 23.6763 48.4339 23.6919 48.512 23.7263C48.5902 23.7607 48.6558 23.8013 48.7058 23.8482C48.7558 23.8951 48.7933 23.9482 48.8183 24.0013C48.8433 24.0544 48.8589 24.1044 48.8652 24.1451L48.5277 24.2419C48.5214 24.2201 48.5152 24.1919 48.5027 24.1638C48.4902 24.1326 48.4745 24.1076 48.4495 24.0794C48.4245 24.0544 48.3933 24.0326 48.3558 24.0169C48.3183 23.9982 48.2714 23.9919 48.2152 23.9919C48.1433 23.9919 48.087 24.0107 48.0402 24.0482C47.9964 24.0857 47.9714 24.1326 47.9714 24.1857C47.9714 24.2326 47.987 24.2701 48.0152 24.2982C48.0464 24.3294 48.087 24.3482 48.1402 24.3607L48.3964 24.4138C48.5558 24.4482 48.6745 24.5107 48.7558 24.6013C48.837 24.6919 48.8777 24.8013 48.8777 24.9232C48.8777 24.9888 48.8652 25.0513 48.837 25.1138C48.812 25.1763 48.7714 25.2357 48.7183 25.2857C48.6652 25.3388 48.5995 25.3794 48.5183 25.4107C48.437 25.4419 48.3433 25.4576 48.237 25.4576C48.1152 25.4576 48.012 25.4388 47.9277 25.4044C47.8433 25.3701 47.7714 25.3263 47.7183 25.2763C47.662 25.2232 47.6214 25.1701 47.5933 25.1107C47.5652 25.0513 47.5495 24.9982 47.5464 24.9513L47.9089 24.8607Z" fill="white"/>
<path d="M25.8417 23.3447L26.7822 21.2915L23.7729 15.0884H25.6667L27.6917 19.5415L29.5854 15.0884H31.3636L26.8822 24.979C26.0416 24.979 25.4948 24.1134 25.8417 23.3447Z" fill="white"/>
<path d="M34.7909 14.8735C35.3253 14.8735 35.8034 14.9735 36.2503 15.1641C36.6972 15.3516 37.0753 15.611 37.4066 15.9453C37.7378 16.2766 37.9847 16.6672 38.1722 17.1172C38.3597 17.5641 38.4472 18.0703 38.4472 18.6078C38.4472 19.1422 38.3597 19.6485 38.1722 20.0985C37.9847 20.561 37.7378 20.9516 37.4066 21.2828C37.0753 21.6141 36.6972 21.8766 36.2503 22.0641C35.8034 22.2516 35.3253 22.3547 34.7909 22.3547C34.2691 22.3547 33.7941 22.2547 33.3441 22.0641C32.8972 21.8766 32.5066 21.6172 32.1878 21.2828C31.8691 20.9516 31.6097 20.561 31.4347 20.0985C31.2472 19.636 31.1597 19.1453 31.1597 18.6078C31.1597 18.0735 31.2472 17.5672 31.4347 17.1172C31.6222 16.6703 31.8691 16.2797 32.1878 15.9453C32.5066 15.6141 32.8972 15.3516 33.3441 15.1641C33.7941 14.9578 34.2722 14.8735 34.7909 14.8735ZM34.7909 20.8453C35.0503 20.8453 35.2972 20.8016 35.5284 20.7016C35.7597 20.6016 35.9753 20.4547 36.1659 20.2672C36.3534 20.0797 36.4972 19.8485 36.6003 19.5578C36.7003 19.2828 36.7597 18.9516 36.7597 18.5891C36.7597 18.2266 36.7003 17.8953 36.6003 17.6203C36.5003 17.3453 36.3534 17.1141 36.1659 16.9266C35.9784 16.7391 35.7753 16.5953 35.5284 16.5078C35.2972 16.4203 35.0503 16.3641 34.7909 16.3641C34.5316 16.3641 34.2847 16.4078 34.0534 16.5078C33.8222 16.5953 33.6066 16.7391 33.4316 16.9266C33.2566 17.1141 33.1128 17.3453 32.9972 17.6203C32.8816 17.8953 32.8222 18.2141 32.8222 18.5891C32.8222 18.9516 32.8816 19.2828 32.9972 19.5578C33.1128 19.8328 33.2566 20.0797 33.4316 20.2672C33.6066 20.4547 33.8222 20.5985 34.0534 20.7016C34.2847 20.786 34.5316 20.8453 34.7909 20.8453Z" fill="white"/>
<path d="M39.4917 22.1325V13.02C39.4917 12.2668 40.098 11.6606 40.8511 11.6606H41.1698V20.8137C41.1698 21.5356 40.5761 22.1293 39.8542 22.1293H39.4917V22.1325Z" fill="white"/>
<path d="M45.8534 14.8735C46.3878 14.8735 46.8659 14.9735 47.3128 15.1641C47.7597 15.3547 48.1378 15.611 48.4691 15.9453C48.8003 16.2766 49.0472 16.6672 49.2347 17.1172C49.4222 17.5641 49.5097 18.0703 49.5097 18.6078C49.5097 19.1422 49.4222 19.6485 49.2347 20.0985C49.0472 20.561 48.8003 20.9516 48.4691 21.2828C48.1378 21.6141 47.7597 21.8766 47.3128 22.0641C46.8659 22.2516 46.3878 22.3547 45.8534 22.3547C45.3316 22.3547 44.8566 22.2547 44.4066 22.0641C43.9597 21.8766 43.5691 21.6172 43.2503 21.2828C42.9316 20.9516 42.6722 20.561 42.4972 20.0985C42.3097 19.636 42.2222 19.1453 42.2222 18.6078C42.2222 18.0735 42.3097 17.5672 42.4972 17.1172C42.6847 16.6703 42.9316 16.2797 43.2503 15.9453C43.5691 15.6141 43.9597 15.3516 44.4066 15.1641C44.8566 14.9578 45.3347 14.8735 45.8534 14.8735ZM45.8534 20.8453C46.1128 20.8453 46.3597 20.8016 46.5909 20.7016C46.8222 20.6016 47.0378 20.4547 47.2284 20.2672C47.4191 20.0797 47.5597 19.8485 47.6628 19.5578C47.7628 19.2828 47.8222 18.9516 47.8222 18.5891C47.8222 18.2266 47.7628 17.8953 47.6628 17.6203C47.5628 17.3453 47.4159 17.1141 47.2284 16.9266C47.0409 16.7391 46.8378 16.5953 46.5909 16.5078C46.3597 16.4203 46.1128 16.3641 45.8534 16.3641C45.5941 16.3641 45.3472 16.4078 45.1159 16.5078C44.8847 16.5953 44.6691 16.7391 44.4941 16.9266C44.3191 17.1141 44.1753 17.3453 44.0597 17.6203C43.9441 17.8953 43.8847 18.2141 43.8847 18.5891C43.8847 18.9516 43.9441 19.2828 44.0597 19.5578C44.1753 19.8328 44.3191 20.0797 44.4941 20.2672C44.6691 20.4547 44.8847 20.5985 45.1159 20.7016C45.3472 20.786 45.5941 20.8453 45.8534 20.8453Z" fill="white"/>
<path d="M17.487 18.6282C16.6402 18.6157 15.9714 17.9064 15.9714 17.0626V13.9376C15.9714 13.7064 15.8402 13.4939 15.6339 13.3876L12.8652 11.9657C12.1152 11.5782 11.7933 10.6595 12.1683 9.90008C12.5495 9.1282 13.4902 8.81883 14.2527 9.21258L18.5464 11.4189C18.8558 11.5782 19.0527 11.897 19.0527 12.247V17.0876C19.0527 17.947 18.3495 18.6407 17.487 18.6282Z" fill="white"/>
<path d="M21.4292 12.0787C22.4561 12.0787 23.2886 11.2462 23.2886 10.2192C23.2886 9.19233 22.4561 8.35986 21.4292 8.35986C20.4023 8.35986 19.5698 9.19233 19.5698 10.2192C19.5698 11.2462 20.4023 12.0787 21.4292 12.0787Z" fill="white"/>
</g>
</g>
<defs>
<clipPath id="clip0_1_22495">
<rect width="60" height="34" fill="white" transform="translate(0.72998 0.359863)"/>
</clipPath>
<clipPath id="clip1_1_22495">
<rect width="60" height="34" fill="white" transform="translate(0.72998 0.359863)"/>
</clipPath>
</defs>
</svg>
