<svg width="41" height="41" viewBox="0 0 41 41" fill="none" xmlns="http://www.w3.org/2000/svg">
<g clip-path="url(#clip0_3_2222)">
<mask id="mask0_3_2222" style="mask-type:luminance" maskUnits="userSpaceOnUse" x="0" y="0" width="41" height="41">
<path d="M40.5786 0.25H0.578613V40.25H40.5786V0.25Z" fill="white"/>
</mask>
<g mask="url(#mask0_3_2222)">
<path d="M25.1035 14.6974L21.0998 18.4224L17.3848 10.9287L19.3073 6.61869C19.8073 5.74369 20.5873 5.75369 21.0748 6.61869L25.1035 14.6974Z" fill="#FFA000"/>
<path d="M17.3847 10.9287L21.0997 18.4225L6.13721 32.3412L17.3847 10.9287Z" fill="#F57F17"/>
<path d="M29.4822 9.00373C30.1972 8.31623 30.9372 8.55123 31.126 9.52498L35.021 32.1562L22.111 39.9062C21.661 40.1562 20.461 40.2637 20.461 40.2637C20.461 40.2637 19.3685 40.1337 18.9522 39.8887L6.13721 32.3412L29.4822 9.00373Z" fill="#FFCA28"/>
<path d="M17.3849 10.9288L6.13867 32.3413L11.1474 1.04754C11.3324 0.0725362 11.8874 -0.0212138 12.3824 0.838786L17.3849 10.9288Z" fill="#FFA000"/>
</g>
</g>
<defs>
<clipPath id="clip0_3_2222">
<rect width="41" height="40" fill="white" transform="translate(0 0.25)"/>
</clipPath>
</defs>
</svg>
