<svg width="41" height="61" viewBox="0 0 41 61" fill="none" xmlns="http://www.w3.org/2000/svg">
<mask id="mask0_3_2156" style="mask-type:luminance" maskUnits="userSpaceOnUse" x="0" y="0" width="41" height="61">
<path d="M40.6176 0.015625H0.115631V60.7556H40.6176V0.015625Z" fill="white"/>
</mask>
<g mask="url(#mask0_3_2156)">
<path fill-rule="evenodd" clip-rule="evenodd" d="M2.43254 32.2304C2.51835 33.7321 4.02002 33.0455 4.70649 32.5736C5.35006 32.1018 5.56458 32.4878 5.60749 31.5869C5.65039 30.9861 5.69329 30.4284 5.69329 29.8278C4.70649 29.742 3.63387 29.9565 2.81869 30.5572C2.43254 30.8575 1.61736 31.8443 2.43254 32.2304Z" fill="#F6D2A2"/>
<path d="M3.24763 33.3031C2.94729 33.3031 2.38954 33.1745 2.30373 32.3164C2.0463 32.1448 1.9605 31.9302 1.9605 31.8014C1.91759 31.2867 2.47535 30.6859 2.77569 30.4714C3.46215 29.9566 4.36315 29.6992 5.30706 29.6992H5.86481V29.8278C5.90772 30.2998 5.86481 30.7717 5.82191 31.2009C5.82191 31.3295 5.82191 31.4582 5.779 31.587C5.7361 32.2306 5.60739 32.3164 5.30706 32.445C5.17833 32.4879 5.04962 32.5309 4.8351 32.7025C4.62058 32.8311 3.89121 33.3031 3.24763 33.3031ZM5.30706 29.9566C4.40606 29.9566 3.59087 30.214 2.94729 30.6859C2.64696 30.9005 2.21792 31.4153 2.26083 31.7586C2.26083 31.8872 2.34663 32.016 2.51825 32.1018L2.60406 32.1448V32.2306C2.64696 32.9169 2.99021 33.0029 3.24763 33.0029C3.67668 33.0029 4.27733 32.7025 4.66348 32.445C4.92091 32.2734 5.09254 32.2306 5.22125 32.1876C5.43577 32.1018 5.47866 32.1018 5.52158 31.587C5.52158 31.4582 5.52158 31.3295 5.56448 31.2009C5.60739 30.8147 5.60739 30.3856 5.60739 29.9996C5.47866 29.9566 5.39285 29.9566 5.30706 29.9566Z" fill="black"/>
<path fill-rule="evenodd" clip-rule="evenodd" d="M2.43231 32.2304C2.64683 32.1447 2.90427 32.1018 3.03298 31.8873L2.43231 32.2304Z" fill="#C6B198"/>
<path d="M2.43254 32.3592C2.38963 32.3592 2.30382 32.3164 2.30382 32.2734C2.26092 32.1876 2.30382 32.1018 2.38963 32.1018C2.43254 32.1018 2.47544 32.0589 2.47544 32.0589C2.64706 31.9731 2.81867 31.9302 2.90448 31.8015C2.94739 31.7586 3.03321 31.7157 3.119 31.7586C3.16192 31.8015 3.20481 31.8873 3.16192 31.9731C2.99029 32.1876 2.77577 32.2734 2.60415 32.3164L2.51834 32.3592H2.43254Z" fill="black"/>
<path fill-rule="evenodd" clip-rule="evenodd" d="M5.95079 14.0821C0.115765 12.4517 4.44913 5.0293 9.12573 8.07549L5.95079 14.0821Z" fill="#6AD7E5"/>
<path d="M6.03628 14.2536L5.90755 14.2107C2.90424 13.3526 2.94714 11.2074 3.03295 10.5639C3.24747 8.93351 4.79203 7.21735 6.85146 7.21735C7.66665 7.21735 8.43892 7.47476 9.21121 7.98961L9.33992 8.07542L6.03628 14.2536ZM6.85146 7.51768C4.92076 7.51768 3.50491 9.10512 3.29037 10.6068C3.07585 12.1513 4.01976 13.3526 5.86465 13.9104L8.91088 8.11832C8.26731 7.73219 7.58084 7.51768 6.85146 7.51768Z" fill="black"/>
<path fill-rule="evenodd" clip-rule="evenodd" d="M31.8221 7.51777C36.4129 4.29997 40.6175 11.5937 35.2544 13.4385L31.8221 7.51777Z" fill="#6AD7E5"/>
<path d="M35.2116 13.6101L31.6505 7.47483L31.7791 7.38902C32.5943 6.83127 33.4096 6.53094 34.2247 6.53094C36.1983 6.53094 37.6142 8.1613 37.9146 9.74875C38.0432 10.3923 38.1719 12.5804 35.3402 13.5243L35.2116 13.6101ZM32.0365 7.60355L35.3402 13.3098C37.0135 12.7091 37.8716 11.422 37.6142 9.87746C37.3568 8.41873 36.0267 6.91708 34.2247 6.91708C33.4954 6.87417 32.766 7.08869 32.0365 7.60355Z" fill="black"/>
<path fill-rule="evenodd" clip-rule="evenodd" d="M32.852 50.9367C34.0103 51.666 36.1555 53.8542 34.3965 54.9269C32.7232 56.4713 31.7793 53.2107 30.2776 52.7815C30.9212 51.9236 31.7363 51.1083 32.852 50.9367Z" fill="#F6D2A2"/>
<path d="M33.4952 55.4844C32.8087 55.4844 32.2081 54.7979 31.6932 54.1544C31.2212 53.6396 30.7493 53.0817 30.2345 52.9101L30.0199 52.8673L30.1487 52.6957C30.6635 51.9662 31.5216 51.0223 32.8087 50.8079H32.8517L32.8946 50.8507C33.624 51.3227 35.2114 52.6527 35.1685 53.897C35.1685 54.369 34.9111 54.7551 34.4391 55.0553C34.1388 55.3557 33.8384 55.4844 33.4952 55.4844ZM30.4919 52.6957C31.0068 52.9101 31.4358 53.4679 31.8649 53.9398C32.3797 54.5834 32.8946 55.1413 33.4524 55.1413C33.7098 55.1413 33.9672 55.0125 34.2246 54.7551H34.2675C34.6537 54.4976 34.8681 54.1974 34.8681 53.8112C34.8681 52.8243 33.624 51.5802 32.7659 51.0223C31.9935 51.2369 31.2212 51.7518 30.4919 52.6957ZM34.3963 55.0553C34.3533 55.0553 34.3104 55.0125 34.2675 54.9695C34.1817 54.7979 34.0959 54.5834 34.053 54.4118C33.9243 54.0686 33.7956 53.7254 33.5382 53.4679C33.4952 53.4251 33.4952 53.3393 33.5382 53.2535C33.581 53.2105 33.6668 53.2105 33.7526 53.2535C34.053 53.5537 34.2246 53.9398 34.3533 54.326L34.5679 54.8409C34.6107 54.9267 34.5679 55.0125 34.5249 55.0553H34.3963Z" fill="black"/>
<path fill-rule="evenodd" clip-rule="evenodd" d="M11.9144 53.4252C10.5414 53.6396 9.76911 54.8839 8.61069 55.5274C7.53807 56.171 7.10903 55.3129 7.02322 55.1413C6.85161 55.0555 6.85161 55.2271 6.59418 54.9697C5.60737 53.3822 7.62388 52.2238 8.6965 51.4516C10.1982 51.1083 11.1421 52.3955 11.9144 53.4252Z" fill="#F6D2A2"/>
<path d="M7.88131 55.8706C7.32356 55.8706 7.02323 55.3987 6.93741 55.2271H6.89452C6.76579 55.2271 6.67998 55.1842 6.50837 55.0125V54.9697C5.56446 53.468 7.19485 52.3096 8.26745 51.5373L8.6536 51.2799H8.73941C8.91102 51.2371 9.03974 51.2371 9.21135 51.2371C10.4985 51.2371 11.3137 52.3526 12.0002 53.2535L12.2147 53.5538L11.9573 53.5968C11.1421 53.7254 10.5414 54.2403 9.94074 54.7551C9.5546 55.0983 9.16845 55.3987 8.73941 55.6562C8.39616 55.7848 8.13874 55.8706 7.88131 55.8706ZM6.93741 54.9697C6.98031 54.9697 7.02322 54.9697 7.10904 55.0125H7.15193L7.19485 55.0555C7.28064 55.1842 7.49518 55.5703 7.92422 55.5703C8.13874 55.5703 8.35327 55.4845 8.56779 55.3558C8.99683 55.1413 9.38297 54.7981 9.72622 54.4977C10.284 54.0258 10.8846 53.5109 11.6569 53.2964C11.0133 52.4383 10.2411 51.4944 9.16845 51.4944C9.03974 51.4944 8.91103 51.4944 8.78231 51.5373L8.43908 51.7948C7.32356 52.567 5.9506 53.5538 6.76579 54.8409C6.8087 54.9267 6.8516 54.9697 6.93741 54.9697ZM7.02322 55.27C6.93741 55.27 6.8516 55.1842 6.89452 55.0983C6.93741 54.6693 7.15193 54.369 7.36646 54.0258C7.49517 53.8542 7.58098 53.6826 7.66679 53.5109C7.7097 53.4251 7.7955 53.4251 7.83841 53.4251C7.92422 53.468 7.92422 53.5538 7.92422 53.5968C7.83841 53.8112 7.7097 53.9828 7.58098 54.1546C7.36646 54.4548 7.19483 54.7123 7.15193 55.0555C7.15193 55.2271 7.10904 55.27 7.02322 55.27Z" fill="black"/>
<path fill-rule="evenodd" clip-rule="evenodd" d="M6.20789 12.0656C5.43562 11.6795 4.87785 11.1217 5.34981 10.2208C5.77885 9.40558 6.59404 9.49139 7.36632 9.87753L6.20789 12.0656ZM34.053 11.2934C34.8253 10.9072 35.3831 10.3495 34.9111 9.44848C34.482 8.6333 33.6668 8.71911 32.8945 9.10525L34.053 11.2934Z" fill="black"/>
<path fill-rule="evenodd" clip-rule="evenodd" d="M39.3303 32.016C39.2445 33.5177 37.7428 32.8311 37.0565 32.3592C36.4128 31.8872 36.1984 32.2734 36.1554 31.3725C36.1126 30.7718 36.0696 30.214 36.0696 29.6133C37.0565 29.5275 38.129 29.7421 38.9441 30.3428C39.3733 30.686 40.1456 31.6299 39.3303 32.016Z" fill="#F6D2A2"/>
<path d="M38.5581 33.0886C37.9146 33.0886 37.1851 32.6166 36.9707 32.4878C36.7561 32.3592 36.6273 32.2733 36.4987 32.2305C36.1554 32.1017 36.0696 32.0159 36.0268 31.3724C36.0268 31.2436 36.0268 31.115 35.9838 30.9862C35.941 30.5572 35.898 30.0853 35.941 29.6133V29.4846H36.4987C37.4426 29.4846 38.3436 29.7419 39.0301 30.2569C39.3304 30.4714 39.8882 31.072 39.8452 31.5869C39.8452 31.7585 39.7594 31.9731 39.502 32.1017C39.4162 32.9598 38.8585 33.0886 38.5581 33.0886ZM36.1984 29.7849C36.1984 30.1711 36.1983 30.6 36.2413 30.9862C36.2413 31.115 36.2413 31.2436 36.2841 31.3724C36.3271 31.8873 36.3699 31.8873 36.5845 31.9731C36.7133 32.0159 36.8849 32.1017 37.1423 32.2305C37.5284 32.4878 38.129 32.7882 38.5581 32.7882C38.8155 32.7882 39.1587 32.7024 39.2017 32.0159V31.9301L39.2875 31.8873C39.4591 31.8013 39.5449 31.7155 39.5449 31.5439C39.5878 31.2008 39.1587 30.6858 38.8585 30.4714C38.2149 29.9995 37.3568 29.7419 36.4987 29.7419C36.4129 29.7849 36.3271 29.7849 36.1984 29.7849Z" fill="black"/>
<path fill-rule="evenodd" clip-rule="evenodd" d="M39.3303 32.016C39.1157 31.9302 38.8583 31.8873 38.7296 31.6729L39.3303 32.016Z" fill="#C6B198"/>
<path d="M39.3304 32.1876H39.2874L39.2017 32.1446C38.9872 32.0588 38.7727 32.016 38.6439 31.8015C38.6011 31.7586 38.6011 31.6299 38.6869 31.5869C38.7297 31.5441 38.8585 31.5441 38.9014 31.6299C38.9872 31.7586 39.1588 31.8015 39.3304 31.8873C39.3732 31.8873 39.4162 31.9302 39.4162 31.9302C39.502 31.973 39.545 32.0588 39.502 32.1018C39.4592 32.1446 39.3732 32.1876 39.3304 32.1876Z" fill="black"/>
<path fill-rule="evenodd" clip-rule="evenodd" d="M20.3239 4.47156C26.1588 4.47156 31.6077 5.28673 34.4824 10.9072C37.0566 17.1712 36.1127 23.95 36.5418 30.6002C36.885 36.3064 37.6144 42.8707 34.9972 48.1479C32.2084 53.6826 25.2579 55.0983 19.5516 54.8839C15.0466 54.7123 9.64058 53.2534 7.0663 49.1347C4.10589 44.3294 5.47884 37.1645 5.69336 31.8014C5.95078 25.4517 3.97718 19.059 6.07951 12.8808C8.18182 6.40224 14.0168 4.94349 20.3239 4.47156Z" fill="#6AD7E5"/>
<path d="M20.538 55.0555H19.4655C17.7063 55.0125 15.0462 54.7121 12.4291 53.6396C9.89769 52.6099 8.0528 51.1511 6.85147 49.2205C4.44881 45.3163 4.87785 39.9532 5.26399 35.1907C5.34981 33.9895 5.43562 32.874 5.47852 31.8015C5.56433 29.5703 5.3927 27.2535 5.17818 25.0655C4.83495 21.0326 4.49172 16.8708 5.82176 12.8378C6.85147 9.83453 8.69636 7.68931 11.4852 6.31639C13.6733 5.24379 16.3763 4.64313 20.2376 4.3428C25.9869 4.2999 31.6932 5.11508 34.5679 10.8213C36.4556 15.412 36.4556 20.346 36.4985 25.1084C36.4985 26.9104 36.4985 28.7552 36.6273 30.5572C36.6701 31.1149 36.7131 31.6727 36.7131 32.2304C37.0563 37.4647 37.4424 43.3855 35.0397 48.1908C33.8384 50.6363 31.7362 52.4383 28.8615 53.5966C26.5447 54.5405 23.6271 55.0555 20.538 55.0555ZM20.3234 4.60023C14.274 5.07218 8.35313 6.4022 6.16499 12.9236C4.83495 16.9136 5.17818 21.0326 5.52143 25.0226C5.69304 27.2535 5.90757 29.5275 5.82176 31.8015C5.77885 32.874 5.69304 33.9895 5.60724 35.1907C5.2211 39.9102 4.79205 45.2303 7.1518 49.0489C8.13861 50.6363 11.3135 54.4118 19.5083 54.7121H20.581C30.0629 54.7121 33.581 50.5076 34.8681 48.0192C37.2279 43.2997 36.8417 37.3789 36.5414 32.1876C36.4985 31.6297 36.4556 31.072 36.4556 30.5142C36.3698 28.7124 36.3269 26.8674 36.3269 25.0655C36.284 20.346 36.284 15.412 34.4391 10.8642C33.152 8.33288 31.2212 6.61672 28.5612 5.62992C25.8153 4.72894 22.7262 4.60023 20.3234 4.60023Z" fill="black"/>
<path fill-rule="evenodd" clip-rule="evenodd" d="M21.3533 12.2801C22.383 18.3725 32.3369 16.7421 30.921 10.6068C29.6339 5.11509 21.0101 6.65965 21.3533 12.2801Z" fill="white"/>
<path d="M26.0729 16.2703C24.1422 16.2703 21.6966 15.2406 21.1817 12.323C21.0959 10.9501 21.5249 9.7059 22.426 8.762C23.4127 7.6894 24.9144 7.08875 26.459 7.08875C28.261 7.08875 30.4063 8.03263 31.0068 10.6498C31.3502 12.1085 31.0926 13.3956 30.2775 14.4253C29.3765 15.5408 27.7891 16.2703 26.0729 16.2703ZM21.4821 12.2801C21.6966 13.4814 22.2544 14.4253 23.1553 15.1118C23.9276 15.7125 25.0002 16.0127 26.0729 16.0127C27.6603 16.0127 29.205 15.3264 30.0629 14.2537C30.8352 13.3098 31.0498 12.0656 30.7494 10.6927C30.1917 8.24715 28.1751 7.38907 26.459 7.38907C25.0002 7.38907 23.5843 7.98973 22.6405 8.97653C21.8253 9.8346 21.3963 10.993 21.4821 12.2801Z" fill="black"/>
<path fill-rule="evenodd" clip-rule="evenodd" d="M9.46873 13.267C10.8417 18.5442 19.2939 17.2142 18.9935 11.894C18.6074 5.54424 8.13869 6.74556 9.46873 13.267Z" fill="white"/>
<path d="M13.9736 16.785C12.1287 16.785 9.9835 15.8841 9.29702 13.3098C8.99669 11.8082 9.29702 10.4352 10.1551 9.40554C11.099 8.24714 12.6436 7.56067 14.3169 7.56067C16.5479 7.56067 18.9077 8.89069 19.0793 11.894C19.1651 13.1382 18.779 14.2537 17.9208 15.1547C17.0199 16.1415 15.5182 16.785 13.9736 16.785ZM14.3169 7.861C12.7294 7.861 11.2706 8.50455 10.3696 9.57716C9.55445 10.564 9.29702 11.8082 9.59735 13.224C10.198 15.6266 12.2574 16.4847 13.9736 16.4847C15.4324 16.4847 16.8482 15.9269 17.7492 14.9402C18.5216 14.125 18.9077 13.0524 18.8218 11.894C18.736 10.0491 17.4919 7.861 14.3169 7.861Z" fill="black"/>
<path fill-rule="evenodd" clip-rule="evenodd" d="M22.5548 19.5737C22.5548 20.346 22.7263 21.247 22.5976 22.1051C22.3832 22.4912 21.997 22.5341 21.6537 22.6628C21.1817 22.577 20.7955 22.2767 20.5811 21.8477C20.4524 20.9038 20.624 19.9599 20.6669 19.016L22.5548 19.5737Z" fill="white"/>
<path d="M21.6537 22.8344C21.0959 22.7486 20.6669 22.4055 20.4524 21.9335C20.3666 21.247 20.4094 20.6034 20.4524 19.9599C20.4952 19.6595 20.4953 19.3593 20.4953 19.059V18.8874L22.6834 19.5738V19.6595C22.6834 19.9171 22.7263 20.1745 22.7263 20.4748C22.7692 21.0326 22.8121 21.6331 22.7263 22.1909V22.2339C22.5547 22.577 22.2544 22.6628 21.954 22.7916C21.8682 22.7486 21.7824 22.7916 21.6537 22.8344ZM20.7097 21.8047C20.8813 22.1909 21.2247 22.4484 21.6108 22.5342C21.6966 22.4912 21.7824 22.4912 21.8253 22.4484C22.0828 22.3626 22.2972 22.2767 22.426 22.0623C22.5118 21.5473 22.4688 20.9896 22.426 20.4319C22.426 20.1745 22.383 19.9171 22.383 19.7025L20.7527 19.1876C20.7527 19.4451 20.7097 19.7025 20.7097 19.9171C20.6669 20.6034 20.624 21.2042 20.7097 21.8047Z" fill="black"/>
<path fill-rule="evenodd" clip-rule="evenodd" d="M13.2444 12.4087C13.2444 13.2668 12.6008 13.9533 11.8285 13.9533C11.0563 13.9533 10.4127 13.2668 10.4127 12.4087C10.4127 11.5507 11.0563 10.8642 11.8285 10.8642C12.6008 10.8642 13.2444 11.5507 13.2444 12.4087Z" fill="black"/>
<path fill-rule="evenodd" clip-rule="evenodd" d="M12.7723 12.752C12.7723 12.9665 12.6007 13.1381 12.429 13.1381C12.2574 13.1381 12.0858 12.9665 12.0858 12.752C12.0858 12.5375 12.2574 12.3658 12.429 12.3658C12.6436 12.3658 12.7723 12.5375 12.7723 12.752Z" fill="white"/>
<path fill-rule="evenodd" clip-rule="evenodd" d="M25.2146 12.0226C25.2146 12.8807 24.5711 13.5672 23.7987 13.5672C23.0264 13.5672 22.3829 12.8807 22.3829 12.0226C22.3829 11.1646 23.0264 10.4781 23.7987 10.4781C24.5711 10.4781 25.2146 11.1646 25.2146 12.0226Z" fill="black"/>
<path fill-rule="evenodd" clip-rule="evenodd" d="M24.7858 12.3659C24.7858 12.5804 24.657 12.752 24.4424 12.752C24.2708 12.752 24.0992 12.5804 24.0992 12.3659C24.0992 12.1513 24.228 11.9797 24.4424 11.9797C24.6142 11.9797 24.7858 12.1513 24.7858 12.3659ZM18.4358 19.4879C17.7922 20.9896 18.7791 24.0357 20.4952 21.8047C20.3666 20.8608 20.5382 19.9169 20.5811 18.973L18.4358 19.4879Z" fill="white"/>
<path d="M19.3368 22.7488C19.0365 22.7488 18.7361 22.5772 18.5216 22.2338C18.0498 21.5475 17.9638 20.2603 18.3071 19.4451L18.35 19.3593L20.7097 18.7586V18.9303L20.6669 19.8742C20.6239 20.5178 20.5811 21.1184 20.6669 21.7619V21.8049L20.6239 21.8477C20.195 22.4484 19.7658 22.7488 19.3368 22.7488ZM18.5645 19.6167C18.3071 20.346 18.3929 21.5045 18.7791 22.0623C18.9507 22.3196 19.1223 22.4484 19.3368 22.4484C19.6372 22.4484 19.9804 22.191 20.3236 21.7619C20.2378 21.1184 20.2808 20.4748 20.3666 19.8742L20.4094 19.1448L18.5645 19.6167Z" fill="black"/>
<path fill-rule="evenodd" clip-rule="evenodd" d="M18.6505 16.5705C17.4922 16.6563 16.5483 18.0721 17.1488 19.1446C17.9641 20.6034 19.7232 19.016 20.8387 19.1446C22.1258 19.1876 23.1555 20.5176 24.1852 19.4022C25.3437 18.1579 23.6704 16.9566 22.4261 16.3989L18.6505 16.5705Z" fill="#F6D2A2"/>
<path d="M23.2842 20.0029C22.8981 20.0029 22.5119 19.8311 22.1258 19.6595C21.7396 19.4879 21.3106 19.3163 20.8387 19.3163H20.7099C20.3667 19.3163 19.9805 19.4451 19.5516 19.6167C19.0796 19.7883 18.6077 19.9171 18.1785 19.9171C17.6637 19.9171 17.2776 19.7025 17.0202 19.2305C16.7198 18.7156 16.7628 18.1151 17.063 17.5573C17.4064 16.9138 18.0069 16.5276 18.6505 16.4418L22.4691 16.2701H22.5119C23.4558 16.6562 24.5285 17.3857 24.7429 18.2437C24.8289 18.6728 24.7001 19.1018 24.3569 19.4879C24.0136 19.8741 23.6704 20.0029 23.2842 20.0029ZM20.8816 19.059C21.3536 19.059 21.8255 19.2734 22.2545 19.4451C22.6407 19.6167 22.9839 19.7453 23.3272 19.7453C23.6274 19.7453 23.885 19.6167 24.1424 19.3593C24.4427 19.059 24.5285 18.7156 24.4855 18.3724C24.3139 17.6431 23.2842 16.9566 22.4691 16.6134L18.7364 16.785C18.1785 16.828 17.6637 17.214 17.3634 17.7289C17.106 18.2009 17.106 18.7156 17.3206 19.1448C17.535 19.5309 17.7925 19.7025 18.2215 19.7025C18.6077 19.7025 19.0366 19.5309 19.4658 19.4021C19.9377 19.2305 20.3239 19.1018 20.7529 19.1018C20.7529 19.016 20.7958 19.016 20.8816 19.059Z" fill="#231F20"/>
<path fill-rule="evenodd" clip-rule="evenodd" d="M18.5217 16.5275C18.4358 14.5111 22.2972 14.2536 22.7263 15.9269C23.1983 17.6431 18.6933 18.0291 18.5217 16.5275Z" fill="black"/>
</g>
</svg>
