<svg width="41" height="29" viewBox="0 0 41 29" fill="none" xmlns="http://www.w3.org/2000/svg">
<g clip-path="url(#clip0_3_2203)">
<mask id="mask0_3_2203" style="mask-type:luminance" maskUnits="userSpaceOnUse" x="0" y="0" width="41" height="28">
<path d="M40.7053 0.25H0.705322V27.594H40.7053V0.25Z" fill="white"/>
</mask>
<g mask="url(#mask0_3_2203)">
<path d="M22.2345 27.4228C23.1761 27.2883 24.2523 27.0192 24.7903 26.7503C25.3284 26.4811 25.732 26.0777 25.732 25.8086L25.463 25.2705C25.1939 24.867 24.9248 24.3289 24.2523 22.8492C23.9833 22.1766 23.3745 20.4145 23.1761 19.6208C22.9706 18.4345 22.9517 17.1714 23.1761 15.9887C23.3714 15.297 23.6397 14.6283 24.1178 14.1055C24.6542 13.3958 25.2836 12.6958 26.1356 12.3567C28.7878 11.3009 31.92 8.99375 33.5341 6.43797C34.0722 5.49625 34.3289 5.09266 34.525 4.55453C35.0103 3.22328 35.4386 1.80922 35.4173 0.384531V0.25H5.6886V0.519062C5.66672 4.04406 7.75031 7.22109 10.2623 9.53187C11.6077 10.7425 13.2217 11.6841 15.105 12.3567C15.7775 12.6258 16.0467 12.7603 16.5847 13.2983C17.2573 14.1055 17.7953 15.047 18.0644 16.1233C18.2273 17.678 18.1055 19.3209 17.6608 20.8314L17.3919 21.6384C17.2573 22.1766 16.8538 22.9837 16.1811 24.3289C15.5086 25.6742 15.5086 25.8086 15.5086 25.943C15.7775 26.7503 17.3919 27.2883 19.8133 27.5573C20.3513 27.5573 21.1583 27.5573 22.2345 27.4228ZM10.9348 22.8492C11.8766 22.7147 12.6838 22.4456 12.9527 22.042V21.9077L12.8183 21.5041C11.8766 19.7552 11.3386 18.2755 11.3386 16.7958C11.3386 15.9887 11.473 15.5852 11.742 14.9125C12.1456 14.24 12.2802 14.0228 12.9527 13.7539C13.2217 13.6163 13.5428 13.5644 13.6773 13.4817C14.0289 13.3778 14.4323 13.1638 14.4323 13.1638C14.4323 13.1638 14.1909 13.1119 13.9188 12.9773C13.1117 12.7083 12.8181 12.4913 12.1456 12.0877C9.99328 10.877 8.64813 9.66625 7.30297 7.91766C6.89938 7.245 6.69047 6.94781 6.49578 6.67672L6.36141 6.43781C6.22672 6.30344 0.84594 6.30344 0.711409 6.43781C0.620315 8.32109 1.52297 9.98031 2.72922 11.4152C4.1386 13.0911 5.28516 13.5672 6.36141 13.8364C7.30313 14.1055 7.43766 14.24 7.8411 14.7781C8.11016 15.4506 8.24469 15.8542 8.24469 16.6612C8.37922 17.872 7.97563 19.0827 7.1686 20.8314L6.63047 21.9075C6.63047 22.042 6.89953 22.3111 7.1686 22.4456C7.8411 22.8492 9.72422 23.1181 10.9348 22.8492ZM32.8614 22.8492C33.9377 22.7147 34.6103 22.4456 34.7448 22.042C34.7448 21.9077 34.7448 21.773 34.3412 20.9659C33.4948 19.2953 32.9109 17.3097 33.3995 15.4506C33.6789 14.6981 34.038 13.9139 34.8792 13.7831C36.2245 13.3797 37.3006 12.7603 38.6458 11.4152C39.453 10.608 40.2038 9.24641 40.4145 8.45578C40.5836 7.82187 40.7962 7.06391 40.6636 6.43781C40.5292 6.30344 35.0138 6.30344 34.8792 6.43781L34.6103 6.70688C34.4756 7.11047 33.9377 7.91766 33.5341 8.32109C32.9959 8.99375 31.3819 10.608 30.8437 11.0116C29.8516 12.0278 27.9477 12.7127 26.9427 13.1638C27.0772 13.2983 27.7497 13.7019 28.288 13.8364C29.3641 14.24 29.3641 14.24 29.7677 14.9125C30.0366 15.5852 30.1711 15.9887 30.1711 16.7958C30.2455 18.663 29.2936 20.392 28.557 21.9075C29.5131 22.9842 31.5211 22.9569 32.8614 22.8492Z" fill="#7AB852"/>
</g>
</g>
<defs>
<clipPath id="clip0_3_2203">
<rect width="41" height="28" fill="white" transform="translate(0 0.25)"/>
</clipPath>
</defs>
</svg>
