<svg width="41" height="41" viewBox="0 0 41 41" fill="none" xmlns="http://www.w3.org/2000/svg">
<g clip-path="url(#clip0_3_2194)">
<mask id="mask0_3_2194" style="mask-type:luminance" maskUnits="userSpaceOnUse" x="0" y="0" width="41" height="41">
<path d="M40.4214 0.25H0.421387V40.25H40.4214V0.25Z" fill="white"/>
</mask>
<g mask="url(#mask0_3_2194)">
<path d="M1.75645 26.9264C2.08463 26.9547 2.3941 27.0814 2.68703 27.2246C2.89116 27.3299 3.02957 27.5297 3.09834 27.7447C3.27114 28.2235 3.17408 28.7797 2.86026 29.1784C2.66483 29.4148 2.42675 29.6367 2.11945 29.7099C1.66287 29.8448 1.15972 29.6794 0.828486 29.3495C0.433709 28.912 0.28964 28.2339 0.559934 27.6959C0.771468 27.2394 1.2546 26.929 1.75645 26.9264ZM5.75732 22.4163C6.36407 22.7697 6.93861 23.2024 7.36516 23.7664C7.65112 24.1464 7.90444 24.5534 8.10727 24.9839C8.2509 25.2985 8.36407 25.6354 8.37147 25.9841C8.38061 26.3192 8.17386 26.6143 7.93795 26.8328C7.66897 27.0522 7.4052 27.2833 7.09922 27.4505C6.70574 27.6572 6.24307 27.7595 5.80172 27.6768C5.26026 27.5863 4.75319 27.3264 4.34274 26.9651C4.49029 26.8707 4.65525 26.7392 4.65525 26.5469C4.68529 26.1869 4.33186 25.874 3.98191 25.9005C3.84873 25.9593 3.76429 26.0881 3.66853 26.1921C3.44829 25.847 3.27506 25.4417 3.3151 25.0248C3.42653 24.2844 3.66984 23.5506 4.11249 22.9399C4.15906 22.8842 4.16385 22.8106 4.17038 22.7419C4.39454 22.5904 4.54601 22.3397 4.8089 22.2457C5.13012 22.1264 5.48093 22.2391 5.75732 22.4163ZM21.6698 15.9244C21.8927 16.1442 22.0489 16.4333 22.1086 16.7406C22.1821 17.1697 22.1591 17.6145 22.0089 18.0254C21.8844 18.4333 21.6764 18.8755 21.2707 19.0639C21.2659 18.8276 21.2124 18.5965 21.1723 18.3645C21.0008 17.4505 20.7345 16.5516 20.3449 15.7064C20.2748 15.5449 20.1961 15.3869 20.0916 15.2446C20.697 15.1854 21.2224 15.5654 21.6698 15.9244ZM23.8653 14.2639C24.1878 14.3136 24.4694 14.5442 24.5982 14.842C24.7689 15.242 24.6613 15.7525 24.3075 16.0185C23.9863 16.2674 23.4957 16.2587 23.1911 15.9863C23.3451 15.8426 23.5192 15.6446 23.4679 15.4187C23.3142 15.2206 23.0087 15.2489 22.8111 15.363C22.7641 15.0439 22.8751 14.6988 23.1279 14.4916C23.3229 14.3083 23.6019 14.23 23.8653 14.2639ZM11.2746 11.4975C11.4117 11.5471 11.5471 11.6224 11.6281 11.749C11.4252 11.7852 11.2363 11.8679 11.0452 11.9401C10.2909 12.2361 9.54971 12.5669 8.83806 12.9543C8.52468 13.1262 8.21086 13.3033 7.94056 13.5392C7.74688 13.7112 7.51837 13.8452 7.35428 14.0485C7.29813 13.521 7.40433 12.9625 7.72555 12.5316C7.86527 12.3036 8.09247 12.1564 8.27528 11.9675C8.52816 11.7347 8.84154 11.5754 9.16537 11.4653C9.38257 11.4278 9.58627 11.3281 9.80868 11.319C10.3018 11.302 10.8054 11.3325 11.2746 11.4975ZM5.93795 6.54817C6.2126 6.61476 6.50248 6.72183 6.66831 6.96514C6.95732 7.37298 6.91031 7.95187 6.61216 8.34186L6.58953 8.31922C6.5225 8.25219 6.45721 8.18081 6.37626 8.13032C6.28703 8.07156 6.1447 8.12162 6.12033 8.22782C6.08855 8.38364 6.16342 8.5325 6.23828 8.66438C5.97495 8.71835 5.68855 8.75448 5.43436 8.64436C5.05351 8.48767 4.75928 8.11422 4.72664 7.70029C4.74753 7.35861 4.93425 7.04175 5.17234 6.80323C5.38474 6.63522 5.66113 6.50247 5.93795 6.54817Z" fill="#9B99A6"/>
<path d="M4.65524 26.5468C4.65524 26.7392 4.49028 26.8707 4.34272 26.9651C4.13728 27.0913 3.92531 27.2063 3.72423 27.3394C3.51487 27.4735 3.32205 27.6332 3.09833 27.7447C3.02956 27.5296 2.89115 27.3299 2.68701 27.2245C2.9412 26.8167 3.35774 26.5512 3.66851 26.1921C3.76427 26.0881 3.84871 25.9592 3.9819 25.9005C4.33184 25.8739 4.68527 26.1869 4.65524 26.5468ZM23.4679 15.4187C23.5192 15.6446 23.3451 15.8426 23.191 15.9862C22.8537 16.2678 22.499 16.5364 22.1086 16.7405C22.0489 16.4332 21.8927 16.1442 21.6698 15.9244C22.0263 15.6907 22.4454 15.5806 22.8111 15.3629C23.0087 15.2489 23.3142 15.2206 23.4679 15.4187ZM6.37624 8.1303C6.4572 8.18079 6.52249 8.25217 6.58951 8.3192C6.71139 8.46849 6.85284 8.59907 6.98429 8.73966C7.51922 9.32769 8.00061 9.96142 8.50812 10.5725C8.74098 10.8563 8.97167 11.1418 9.19931 11.43L9.16536 11.4652C8.84153 11.5753 8.52814 11.7347 8.27526 11.9675C8.16645 11.8557 8.09245 11.7185 8.00975 11.588C7.56013 10.8702 7.12357 10.1438 6.71748 9.40037C6.57428 9.14444 6.38538 8.91768 6.23826 8.66436C6.1634 8.53247 6.08854 8.38362 6.12031 8.2278C6.14468 8.12159 6.28701 8.07154 6.37624 8.1303Z" fill="#F79727"/>
<path d="M12.641 11.5589C13.1825 11.4723 13.7322 11.4953 14.2784 11.504C15.8824 11.6133 17.4824 12.23 18.6428 13.3613C18.806 13.4736 18.9056 13.6485 19.0497 13.7809C19.4597 14.2209 19.7727 14.7384 20.0917 15.2446C20.1962 15.3869 20.275 15.5449 20.345 15.7064C20.7346 16.5517 21.001 17.4505 21.1725 18.3645C21.2125 18.5965 21.266 18.8276 21.2708 19.064C21.2512 19.4714 21.3418 19.8788 21.2856 20.2853C21.2582 20.5056 21.283 20.7293 21.2425 20.9478C21.1799 21.3582 20.9997 21.7365 20.8177 22.1051C20.7307 22.2888 20.5392 22.3806 20.379 22.4895C20.2158 22.5957 19.9994 22.6927 19.8097 22.5952C19.5098 22.4246 19.3653 22.0834 19.2969 21.7604C19.2216 21.4609 19.2478 21.151 19.2434 20.8459C19.196 19.9937 19.1485 19.1349 18.9596 18.2997C18.833 17.7521 18.6162 17.2002 18.1936 16.8128C17.9259 16.5869 17.6195 16.4046 17.2904 16.2844C16.7981 16.1382 16.285 16.0533 15.7705 16.0642C15.1494 16.0503 14.5374 16.1804 13.9398 16.3367C13.3352 16.4938 12.7642 16.7515 12.2001 17.0157C11.7522 17.2054 11.3287 17.4444 10.8982 17.6694C10.6571 17.7996 10.4186 17.9362 10.2014 18.1038C9.80837 18.4037 9.38573 18.6757 9.06364 19.0566C8.74068 19.4374 8.45385 19.8727 8.35592 20.3702C8.23274 21.1023 8.37289 21.8553 8.63361 22.543C8.93176 23.3021 9.37703 24.0007 9.9285 24.6009C10.3098 25.0788 10.8173 25.4287 11.3096 25.7822C11.579 25.9589 11.7557 26.2714 11.7579 26.5948C11.7326 26.8646 11.5268 27.0762 11.3144 27.2237C11.0854 27.3652 10.8177 27.457 10.5466 27.4488C9.91152 27.4431 9.27126 27.3674 8.66843 27.1619C8.41424 27.0766 8.18051 26.9447 7.93807 26.8329C8.17398 26.6144 8.38073 26.3193 8.37159 25.9841C8.36419 25.6355 8.25102 25.2986 8.10739 24.9839C7.90456 24.5534 7.65124 24.1465 7.36528 23.7665C6.93873 23.2024 6.36419 22.7698 5.75744 22.4163C5.48106 22.2392 5.13024 22.1264 4.80902 22.2457C4.54613 22.3397 4.39466 22.5904 4.1705 22.7419C4.10478 22.5508 4.13568 22.3449 4.10913 22.1478C4.07605 21.9175 4.09433 21.6847 4.07213 21.454C4.03688 21.1358 4.05385 20.815 4.04819 20.4955C4.03905 19.871 4.0508 19.2429 4.147 18.6244C4.24014 18.0503 4.47605 17.5114 4.7433 16.9991C5.03318 16.4568 5.40314 15.9589 5.82099 15.5079C6.0495 15.2451 6.29324 14.9939 6.56484 14.7754C6.80902 14.5121 7.12589 14.3262 7.3544 14.0485C7.51849 13.8453 7.747 13.7112 7.94068 13.5393C8.21098 13.3034 8.5248 13.1262 8.83818 12.9543C9.54983 12.5669 10.2911 12.2361 11.0454 11.9402C11.2364 11.8679 11.4253 11.7852 11.6282 11.7491C11.9725 11.7234 12.2972 11.5893 12.641 11.5589Z" fill="#787880"/>
<path d="M31.5406 24.1425C31.7186 24.3998 31.7195 24.7262 31.7151 25.0265C32.1051 24.5512 32.5856 24.1177 33.1828 23.9306C33.9558 23.6916 34.8294 23.7922 35.5267 24.2039C36.005 24.4777 36.3859 24.9038 36.6409 25.3891C37.0122 26.0729 37.128 26.8664 37.1106 27.6359C37.0905 28.4707 36.8742 29.3212 36.3863 30.0085C35.9201 30.6661 35.1658 31.1101 34.3623 31.188C33.7499 31.2455 33.094 31.1628 32.5787 30.8041C32.2466 30.5908 31.9819 30.2957 31.7173 30.0076C31.7125 30.9147 31.7186 31.8218 31.7143 32.7288C31.7073 33.0587 31.6677 33.4239 31.4335 33.6777C31.249 33.8779 30.9573 33.9249 30.6984 33.8971C30.4929 33.8801 30.2705 33.7982 30.166 33.6089C30.0268 33.3543 29.9989 33.0566 29.9915 32.7715C29.9906 30.116 29.9915 27.4609 29.9906 24.8054C29.9919 24.5142 30.0494 24.1908 30.2762 23.9867C30.6357 23.6712 31.2738 23.736 31.5406 24.1425ZM15.2816 21.2485C15.5462 21.4627 15.6198 21.8226 15.6228 22.1469C15.6268 23.0596 15.625 23.9724 15.6237 24.8851C15.938 24.5377 16.2914 24.2074 16.7297 24.0255C17.2777 23.7974 17.8958 23.7499 18.4764 23.8618C19.0836 23.9784 19.6407 24.3558 19.9436 24.899C20.2448 25.3747 20.281 25.9549 20.2923 26.5029C20.2944 27.6638 20.2918 28.8246 20.2936 29.9854C20.2979 30.2675 20.2779 30.566 20.1264 30.8124C19.8322 31.309 19.0026 31.3499 18.6666 30.8807C18.5082 30.6453 18.4777 30.3519 18.4759 30.0755C18.4751 29.0588 18.476 28.042 18.4755 27.0252C18.4707 26.5451 18.4342 26.0368 18.1826 25.615C17.9602 25.2633 17.5045 25.1767 17.1184 25.2037C16.4333 25.2389 15.8361 25.7996 15.709 26.4655C15.6464 26.7932 15.6329 27.1284 15.6255 27.4614C15.6228 28.3462 15.6272 29.2311 15.6233 30.1164C15.6198 30.422 15.5571 30.7558 15.3273 30.9761C15.1062 31.195 14.7684 31.2381 14.4738 31.185C14.2836 31.1515 14.1038 31.0483 13.9941 30.8877C13.8392 30.6648 13.8022 30.3845 13.7991 30.1195C13.7996 27.5645 13.7996 25.01 13.7996 22.455C13.7983 22.1299 13.7804 21.7839 13.9367 21.4866C14.1765 21.0061 14.8816 20.9338 15.2816 21.2485ZM40.0864 24.0394C40.3101 24.2426 40.3893 24.556 40.3854 24.8494C40.3854 26.6043 40.3863 28.3597 40.385 30.1147C40.3832 30.4102 40.3206 30.7301 40.1038 30.9465C39.8644 31.1993 39.4714 31.2655 39.1489 31.1528C38.8977 31.0644 38.7092 30.8424 38.6313 30.5917C38.5378 30.3118 38.5669 30.0137 38.563 29.7243C38.5647 28.0707 38.5582 26.4176 38.566 24.7645C38.5669 24.3636 38.7959 23.9314 39.2098 23.8348C39.511 23.7586 39.8583 23.8178 40.0864 24.0394ZM26.0464 23.7982C26.6823 23.8648 27.3691 24.022 27.817 24.5138C28.2479 24.9965 28.3445 25.6746 28.378 26.2975C28.3933 27.1062 28.3745 27.9153 28.3724 28.724C28.3741 29.1558 28.4864 29.5758 28.6122 29.9854C28.6714 30.2226 28.7732 30.4868 28.6496 30.721C28.486 31.0296 28.1312 31.2376 27.7795 31.2006C27.6046 31.1811 27.4501 31.0827 27.3238 30.9652C27.0766 30.7323 26.8925 30.4437 26.7114 30.1591C26.1199 30.6235 25.4522 31.0374 24.6971 31.1541C24.032 31.2581 23.3099 31.2233 22.7184 30.8729C22.2165 30.5895 21.8466 30.0803 21.7469 29.5114C21.6694 29.0579 21.733 28.5695 21.9728 28.1721C22.1878 27.8139 22.523 27.5354 22.9034 27.3669C23.3029 27.1824 23.7447 27.1301 24.17 27.0335C24.9826 26.8698 25.7926 26.6905 26.5891 26.4607C26.5704 26.0764 26.5208 25.6629 26.2814 25.3473C26.0516 25.0844 25.6755 25.0431 25.3478 25.0274C24.8921 25.0209 24.388 25.0444 24.0176 25.3443C23.676 25.5989 23.5084 26.0033 23.2533 26.3319C23.1423 26.4707 22.9447 26.472 22.7824 26.4742C22.449 26.4781 22.1108 26.2387 22.0542 25.901C22.0111 25.595 22.0995 25.2829 22.2505 25.0178C22.5195 24.529 23.017 24.22 23.5249 24.0259C24.3284 23.7312 25.2041 23.7273 26.0464 23.7982ZM26.5943 27.5502C25.8757 27.7935 25.1227 27.904 24.3889 28.0894C24.1073 28.1665 23.8279 28.3193 23.6598 28.5639C23.4466 28.923 23.5397 29.4218 23.8544 29.6929C24.146 29.9693 24.5765 30.0176 24.9591 29.9667C25.5201 29.8957 26.0964 29.6098 26.3732 29.0966C26.6048 28.6174 26.5865 28.0694 26.5943 27.5502ZM33.2472 25.1889C32.7541 25.2851 32.3341 25.6359 32.099 26.0729C31.8213 26.6043 31.7787 27.2233 31.8126 27.8117C31.8487 28.3985 32.0516 29.0061 32.5073 29.4009C32.909 29.7717 33.5119 29.9049 34.0333 29.7404C34.4063 29.622 34.7193 29.3495 34.9138 29.0126C35.2616 28.4307 35.319 27.7256 35.262 27.064C35.2076 26.4825 34.9952 25.8788 34.5334 25.4966C34.1826 25.1998 33.6942 25.0931 33.2472 25.1889ZM40.0516 21.3299C40.4289 21.5867 40.4742 22.1517 40.2609 22.5273C39.9593 23.0174 39.1959 23.0679 38.798 22.6701C38.5804 22.4607 38.5277 22.1317 38.5813 21.8453C38.644 21.514 38.9308 21.2559 39.2507 21.1758C39.5232 21.1105 39.8248 21.1623 40.0516 21.3299Z" fill="#464646"/>
</g>
</g>
<defs>
<clipPath id="clip0_3_2194">
<rect width="41" height="40" fill="white" transform="translate(0 0.25)"/>
</clipPath>
</defs>
</svg>
