<svg width="41" height="41" viewBox="0 0 41 41" fill="none" xmlns="http://www.w3.org/2000/svg">
<g clip-path="url(#clip0_3_2148)">
<mask id="mask0_3_2148" style="mask-type:luminance" maskUnits="userSpaceOnUse" x="0" y="0" width="41" height="41">
<path d="M40.989 0.375H0.989014V40.375H40.989V0.375Z" fill="white"/>
</mask>
<g mask="url(#mask0_3_2148)">
<path d="M2.22026 32.42C2.22026 32.42 2.74776 27.2163 6.43901 21.0613C10.1315 14.9063 16.4265 10.2488 21.5428 9.79004C31.7228 8.77004 40.8678 17.8963 40.8678 17.8963C40.8678 17.8963 40.5678 18.1063 40.2503 18.3713C30.264 10.9875 24.164 14.4675 22.2453 15.4C13.454 20.3063 16.1078 32.42 16.1078 32.42H2.22276H2.22026ZM31.1603 10.775C30.5978 10.5475 30.0353 10.3375 29.4553 10.1438L29.5253 8.98129C30.6315 9.29879 31.0715 9.51004 31.229 9.59754L31.159 10.7763L31.1603 10.775ZM29.489 14.505C30.0515 14.54 30.6328 14.61 31.2303 14.7338L31.1603 15.8238C30.5803 15.6988 30.0003 15.63 29.4203 15.6113L29.4903 14.505H29.489ZM22.9853 9.01629C22.4765 9.01629 21.9665 9.03504 21.4565 9.08879L21.1215 8.05129C21.7028 7.98129 22.2653 7.94629 22.809 7.94629L23.1615 9.01879H22.9865L22.9853 9.01629ZM23.8303 15.4888C24.2678 15.2963 24.7803 15.1013 25.3765 14.9263L25.764 16.0888C25.2515 16.245 24.7428 16.4563 24.2328 16.7013L23.829 15.4888H23.8303ZM15.8478 10.8638C15.3903 11.0938 14.9503 11.3575 14.494 11.6388L13.6853 10.4075C14.1603 10.1263 14.6165 9.88254 15.0565 9.65254L15.8478 10.8638ZM19.4515 18.7763C19.7665 18.3725 20.1365 17.9688 20.539 17.5988L21.3315 18.795C20.944 19.1988 20.594 19.6038 20.294 20.045L19.4515 18.7763ZM16.9015 24.4388C17.0415 23.8063 17.2015 23.155 17.429 22.505L18.694 23.5075C18.519 24.1925 18.394 24.8788 18.3253 25.5638L16.9015 24.4388ZM9.20151 16.0875C8.77651 16.525 8.37401 17 8.00401 17.475L6.65151 16.315C7.05526 15.875 7.49401 15.435 7.95151 14.9963L9.20151 16.0863V16.0875ZM3.88901 23.945C3.60901 24.595 3.23901 25.4575 3.01151 26.055L0.989014 25.3175C1.16401 24.8425 1.53401 23.9625 1.86776 23.205L3.89026 23.945H3.88901ZM16.639 28.9038L18.5365 29.5888C18.6415 30.4175 18.799 31.1888 18.9578 31.8763L16.8478 31.12C16.7603 30.5925 16.6728 29.8363 16.6378 28.905L16.639 28.9038Z" fill="#CC0000"/>
</g>
</g>
<defs>
<clipPath id="clip0_3_2148">
<rect width="41" height="40" fill="white" transform="translate(0 0.375)"/>
</clipPath>
</defs>
</svg>
