<svg width="41" height="41" viewBox="0 0 41 41" fill="none" xmlns="http://www.w3.org/2000/svg">
<g clip-path="url(#clip0_3_2142)">
<mask id="mask0_3_2142" style="mask-type:luminance" maskUnits="userSpaceOnUse" x="0" y="0" width="41" height="41">
<path d="M40.2947 0.375H0.294678V40.375H40.2947V0.375Z" fill="white"/>
</mask>
<g mask="url(#mask0_3_2142)">
<path d="M36.6696 2.47818C36.1093 3.82142 35.3921 5.0936 34.5327 6.26818C32.6567 4.38433 30.4249 2.89222 27.9671 1.8786C25.5092 0.86497 22.8744 0.350057 20.2159 0.363793C17.5573 0.377529 14.9279 0.919641 12.4807 1.95861C10.0335 2.99758 7.81724 4.51267 5.9608 6.4158C4.10435 8.31893 2.64475 10.5721 1.66687 13.0444C0.688992 15.5166 0.212338 18.1586 0.264622 20.8167C0.316906 23.4749 0.897085 26.0961 1.97143 28.528C3.04577 30.9598 4.59284 33.1539 6.52269 34.9826L7.26394 35.6369C10.0926 38.0204 13.5255 39.5749 17.1828 40.1285C20.8401 40.682 24.5793 40.2131 27.9866 38.7735C31.3939 37.3339 34.3366 34.9798 36.4891 31.9716C38.6415 28.9634 39.9199 25.4184 40.1827 21.7288C40.7296 16.6226 39.2296 10.1594 36.6696 2.47818ZM9.37582 35.0988C9.16237 35.3625 8.87549 35.557 8.55148 35.6577C8.22746 35.7584 7.88087 35.7606 7.55556 35.6643C7.23025 35.5679 6.94083 35.3772 6.72392 35.1163C6.50702 34.8554 6.37238 34.536 6.33703 34.1986C6.30169 33.8611 6.36723 33.5208 6.52536 33.2206C6.68349 32.9204 6.92711 32.6739 7.22539 32.5122C7.52368 32.3505 7.86322 32.2809 8.20106 32.3122C8.5389 32.3436 8.85985 32.4744 9.12332 32.6882C9.47622 32.9745 9.70103 33.3893 9.74837 33.8412C9.79571 34.2932 9.66172 34.7455 9.37582 35.0988ZM36.5871 29.0926C31.6371 35.6863 21.0683 33.4613 14.2921 33.7813C14.2921 33.7813 13.0908 33.8519 11.8814 34.0501C11.8814 34.0501 12.3377 33.8563 12.9208 33.6357C17.6796 31.9794 19.9289 31.6607 22.8196 30.1732C28.2621 27.4063 33.6458 21.3469 34.7646 15.0482C32.6939 21.1076 26.4064 26.3182 20.6833 28.4344C16.7608 29.8801 9.67457 31.2882 9.67457 31.2882L9.38894 31.1351C4.56769 28.7913 4.41894 18.3494 13.1871 14.9819C17.0264 13.5032 20.6996 14.3151 24.8458 13.3257C29.2733 12.2738 34.3958 8.95693 36.4802 4.62818C38.8114 11.5532 41.6202 22.3919 36.5839 29.0969L36.5871 29.0926Z" fill="#68BD45"/>
</g>
</g>
<defs>
<clipPath id="clip0_3_2142">
<rect width="41" height="40" fill="white" transform="translate(0 0.375)"/>
</clipPath>
</defs>
</svg>
