<svg width="41" height="42" viewBox="0 0 41 42" fill="none" xmlns="http://www.w3.org/2000/svg">
<g clip-path="url(#clip0_3_2209)">
<mask id="mask0_3_2209" style="mask-type:luminance" maskUnits="userSpaceOnUse" x="0" y="0" width="41" height="42">
<path d="M41 0.75H0V41.75H41V0.75Z" fill="white"/>
</mask>
<g mask="url(#mask0_3_2209)">
<path d="M20.4998 41.7501C31.8216 41.7501 40.9999 32.5719 40.9999 21.2501C40.9999 9.92819 31.8216 0.75 20.4998 0.75C9.17795 0.75 -0.000244141 9.92819 -0.000244141 21.2501C-0.000244141 32.5719 9.17795 41.7501 20.4998 41.7501Z" fill="#1A171B"/>
<path d="M29.4618 8.33505C27.3781 8.4076 25.5612 9.55447 24.2091 11.1443C22.7119 12.8855 21.7147 14.9492 20.9954 17.0562C19.7112 16.0035 18.7202 14.6405 16.6734 14.0463C15.8609 13.7961 15 13.7452 14.1636 13.8981C13.3272 14.051 12.5399 14.4031 11.8683 14.9245C11.1397 15.4694 10.6365 16.2922 10.3988 17.0654C9.7814 19.0767 11.0471 20.8657 11.6244 21.5079L12.8839 22.8569C13.1433 23.1193 13.7684 23.8139 13.4628 24.8018C13.1325 25.8776 11.8343 26.5769 10.5038 26.1647C9.90952 25.9841 9.05593 25.5411 9.24734 24.9175C9.32451 24.6628 9.50974 24.4699 9.60698 24.2508C9.69651 24.0608 9.73973 23.9189 9.76751 23.834C10.0114 23.0405 9.67799 22.008 8.82902 21.7456C8.03563 21.5016 7.22372 21.6946 6.90883 22.718C6.55381 23.8787 7.10641 25.9841 10.0809 26.8856C13.5662 27.9569 16.5129 26.0582 16.9312 23.5824C17.1936 22.0327 16.4944 20.8811 15.2132 19.4147L14.1682 18.2602C13.5508 17.6427 13.3193 16.5499 13.9737 15.7226C14.5263 15.0233 15.3135 14.7254 16.6024 15.0742C18.4856 15.5836 19.3222 16.8911 20.7238 17.9453C20.1465 19.8408 19.7667 21.7425 19.4271 23.4496L19.2188 24.7215C18.2186 29.9697 17.4544 32.8514 15.4679 34.5047C15.0666 34.7886 14.4955 35.2147 13.6341 35.2455C13.1819 35.261 13.0368 34.9492 13.0322 34.8133C13.0213 34.4969 13.2884 34.3503 13.4643 34.2082C13.7299 34.0632 14.1312 33.8223 14.1034 33.0552C14.0725 32.1476 13.3223 31.3573 12.2356 31.3958C11.4207 31.4237 10.1796 32.1908 10.226 33.5939C10.2753 35.0448 11.626 36.13 13.6635 36.0605C14.7517 36.0235 17.1828 35.582 19.58 32.7311C22.3692 29.4648 23.1487 25.7233 23.7367 22.9819L24.3912 19.3638L25.5674 19.4472C29.0404 19.5197 30.7785 17.7214 30.8047 16.4125C30.8202 15.6207 30.2845 14.8412 29.5328 14.8582C28.9926 14.8736 28.3181 15.2317 28.1559 15.9757C27.997 16.7057 29.2612 17.3649 28.2733 18.0039C27.571 18.4578 26.313 18.7788 24.541 18.5179L24.8651 16.7367C25.5227 13.3593 26.3315 9.20407 29.4109 9.10528C29.6347 9.09448 30.4559 9.1161 30.4759 9.65788C30.4822 9.83848 30.4374 9.88479 30.2244 10.3C30.0082 10.6087 29.9264 10.8989 29.9373 11.2153C29.9681 12.0797 30.6226 12.6447 31.5703 12.6108C32.8407 12.569 33.2065 11.3342 33.1849 10.6967C33.1339 9.20562 31.5611 8.2625 29.4803 8.33196L29.4618 8.33505Z" fill="white"/>
</g>
</g>
<defs>
<clipPath id="clip0_3_2209">
<rect width="41" height="41" fill="white" transform="translate(0 0.75)"/>
</clipPath>
</defs>
</svg>
