<svg width="41" height="43" viewBox="0 0 41 43" fill="none" xmlns="http://www.w3.org/2000/svg">
<g clip-path="url(#clip0_3_2134)">
<path d="M41.0046 32.4496C39.5133 32.8288 38.5908 32.4662 37.7631 31.2236L31.877 23.0809L31.0263 21.9535L24.1524 31.2505C23.367 32.3689 22.5432 32.8557 21.0774 32.4599L29.8795 20.6456L21.6846 9.97402C23.094 9.69986 24.0677 9.8395 24.9326 11.1014L31.0378 19.3452L37.1877 11.1462C37.9758 10.0278 38.8227 9.6025 40.2371 10.015L37.0596 14.2273L32.7547 19.832C32.2422 20.4726 32.3126 20.9107 32.7841 21.5295L41.0046 32.4496ZM0.0148887 20.4483L0.734951 16.9073C2.69526 9.89971 10.7287 6.98778 16.2688 11.3179C19.5066 13.8647 20.3112 17.4671 20.151 21.5026H1.90089C1.6267 28.7664 6.85548 33.1503 13.5218 30.9135C15.8602 30.1283 17.2375 28.2975 17.9268 26.0069C18.2766 24.8591 18.8557 24.6797 19.9345 25.0077C19.3835 27.8722 18.1407 30.2653 15.5141 31.7629C11.5897 34.0049 5.98808 33.2798 3.0412 30.1641C1.28589 28.3565 0.560701 26.0659 0.235264 23.6164C0.184014 23.2116 0.0815137 22.826 0.00463867 22.4378C0.011472 21.7751 0.0148887 21.1123 0.0148887 20.4495V20.4483ZM1.9342 19.9615H18.4265C18.3188 14.709 15.0477 10.9784 10.5775 10.9463C5.67033 10.9079 2.14689 14.5501 1.9342 19.9615Z" fill="black"/>
</g>
<defs>
<clipPath id="clip0_3_2134">
<rect width="41" height="42.02" fill="white" transform="translate(0.00463867)"/>
</clipPath>
</defs>
</svg>
