<svg width="56" height="56" viewBox="0 0 56 56" fill="none" xmlns="http://www.w3.org/2000/svg">
<g clip-path="url(#clip0_1_1327)">
<g clip-path="url(#clip1_1_1327)">
<g clip-path="url(#clip2_1_1327)">
<mask id="mask0_1_1327" style="mask-type:luminance" maskUnits="userSpaceOnUse" x="0" y="33" width="26" height="23">
<path d="M0.920898 33.4805H25.5843V55.0491H0.920898V33.4805Z" fill="white"/>
</mask>
<g mask="url(#mask0_1_1327)">
<path d="M24.2188 48.2317C24.2188 49.8048 22.968 51.117 21.4683 51.117H3.38025L4.96417 49.7178C5.21433 49.4554 5.29728 49.106 5.04712 48.7565C4.79695 48.4941 4.46384 48.4071 4.13073 48.6695L1.21305 51.204C1.13011 51.291 1.1301 51.291 1.1301 51.378C1.1301 51.378 1.1301 51.4664 1.04584 51.4664C1.04584 51.5534 0.962891 51.6405 0.962891 51.7288C0.962891 51.8159 0.962891 51.9029 1.04584 51.9899C1.04584 51.9899 1.04584 52.0783 1.1301 52.0783C1.1301 52.1653 1.21305 52.1653 1.21305 52.2523L4.13073 54.7868C4.21368 54.8738 4.3809 54.9622 4.54679 54.9622C4.71401 54.9622 4.88122 54.8738 5.04712 54.6998C5.29728 54.4374 5.21433 54.0009 4.96417 53.7385L3.38025 52.4277H21.4683C23.7185 52.4277 25.4683 50.5051 25.4683 48.2317V33.812H24.2188V48.2317Z" fill="#0575AD"/>
</g>
<path d="M18.1334 39.1435V33.7251H16.8839V39.1435C16.8839 40.7167 15.6331 42.0275 14.1335 42.0275H6.63123L8.21515 40.6283C8.46531 40.3673 8.54826 40.0165 8.2981 39.667C8.04794 39.406 7.71482 39.3175 7.38171 39.58L4.46404 42.1145C4.29682 42.2015 4.21387 42.3769 4.21387 42.6393C4.21387 42.8134 4.29682 42.9887 4.46404 43.1628L7.38171 45.6972C7.46466 45.7857 7.63188 45.8727 7.79778 45.8727C7.96499 45.8727 8.1322 45.7857 8.2981 45.6102C8.54826 45.3479 8.46531 44.9114 8.21515 44.6489L6.63123 43.2512H14.1335C16.3836 43.3382 18.1334 41.5026 18.1334 39.1435Z" fill="#0575AD"/>
<path d="M47.64 45.6971C47.8072 45.8725 47.9731 45.9595 48.1404 45.9595C48.3063 45.9595 48.3905 45.8725 48.5564 45.7855L51.4741 43.251C51.6413 43.1626 51.7243 42.9015 51.7243 42.7262C51.7243 42.5507 51.6413 42.3767 51.4741 42.2013L48.5564 39.6668C48.3063 39.4058 47.8902 39.4928 47.64 39.7552C47.3898 40.0163 47.4728 40.4541 47.723 40.7165L49.3069 42.1143H41.806C40.305 42.1143 39.0542 40.8035 39.0542 39.2303V33.8989H37.8047V39.2303C37.8047 41.5895 39.6388 43.425 41.806 43.425H49.3069L47.723 44.8242C47.4728 44.9982 47.3898 45.436 47.64 45.6971Z" fill="#0575AD"/>
<mask id="mask1_1_1327" style="mask-type:luminance" maskUnits="userSpaceOnUse" x="30" y="33" width="26" height="23">
<path d="M30.3027 33.4805H55.0187V55.0491H30.3027V33.4805Z" fill="white"/>
</mask>
<g mask="url(#mask1_1_1327)">
<path d="M54.8922 51.4664C54.8922 51.378 54.8079 51.378 54.8079 51.291L51.8916 48.7565C51.6414 48.4941 51.224 48.5825 51.0581 48.8435C50.808 49.106 50.891 49.5438 51.1411 49.8048L52.725 51.204H34.471C32.9701 51.204 31.7192 49.8932 31.7192 48.32V33.812H30.4697V48.2317C30.4697 50.5922 32.3038 52.4277 34.471 52.4277H52.5578L50.9738 53.8255C50.7237 54.0879 50.6408 54.4374 50.891 54.7868C50.9738 54.9622 51.224 55.0492 51.3913 55.0492C51.5572 55.0492 51.6414 54.9622 51.8073 54.8738L54.725 52.3393C54.8079 52.3393 54.8079 52.2523 54.8079 52.1653C54.8079 52.1653 54.8079 52.1653 54.8079 52.0782C54.8079 51.9899 54.8922 51.9029 54.8922 51.8159C54.9751 51.7288 54.8922 51.6404 54.8922 51.4664Z" fill="#0575AD"/>
</g>
<mask id="mask2_1_1327" style="mask-type:luminance" maskUnits="userSpaceOnUse" x="38" y="0" width="18" height="19">
<path d="M38.0547 0.950928H55.0184V18.9837H38.0547V0.950928Z" fill="white"/>
</mask>
<g mask="url(#mask2_1_1327)">
<path d="M54.4747 7.85549L53.3081 7.59307C53.1409 7.15661 52.975 6.71878 52.8078 6.28232L53.3911 5.23399C53.5583 4.97157 53.5583 4.62213 53.3081 4.3597L51.6413 2.61112C51.3911 2.34869 51.058 2.34869 50.8078 2.5241L49.8072 3.22299C49.3898 2.96056 48.9737 2.78653 48.5563 2.69951L48.3062 1.47578C48.2233 1.12634 47.973 0.950928 47.7229 0.950928H45.3055C44.9724 0.950928 44.7223 1.21335 44.7223 1.47578L44.4721 2.69951C44.0561 2.87355 43.5557 3.04895 43.2226 3.22299L42.2219 2.5241C41.9718 2.34869 41.6387 2.34869 41.3886 2.61112L39.7217 4.44672C39.4715 4.70914 39.4715 5.05859 39.6387 5.32101L40.305 6.36933C40.0548 6.80717 39.8876 7.24362 39.8046 7.68008L38.638 7.85549C38.3049 7.94251 38.1377 8.20493 38.1377 8.46736V11.0019C38.1377 11.3512 38.3879 11.6137 38.638 11.6137L39.8046 11.8761C39.9718 12.3126 40.1377 12.7491 40.305 13.1869L39.6387 14.3222C39.4715 14.5846 39.4715 14.9341 39.7217 15.1966L41.3886 17.0321C41.6387 17.2946 41.9718 17.2946 42.2219 17.1191L43.2226 16.4203C43.6387 16.6826 44.0561 16.8567 44.4721 16.9451L44.7223 18.1675C44.8066 18.5183 45.0553 18.6923 45.3055 18.6923H47.7229C48.0573 18.6923 48.3062 18.4298 48.3062 18.1675L48.5563 16.9451H48.6406C49.0566 16.8567 49.474 16.6826 49.8072 16.4203L50.8078 17.1191C51.058 17.2946 51.3911 17.2946 51.6413 17.0321L53.3911 15.1966C53.6412 14.9341 53.6412 14.5846 53.474 14.3222L52.8078 13.2739C53.0579 12.8374 53.2252 12.3996 53.3081 11.9632L54.4747 11.7007C54.8077 11.6137 54.975 11.3512 54.975 11.0889V8.55437C54.975 8.20493 54.7248 7.94251 54.4747 7.85549ZM46.5564 12.575C46.0561 12.575 45.64 12.3996 45.1396 12.1372C44.6393 11.8761 44.3062 11.3512 44.0561 10.8264C43.8888 10.477 43.8888 10.1275 43.8888 9.77807C43.8888 8.29195 45.0553 6.9812 46.5564 6.9812C47.973 6.9812 49.2239 8.20493 49.2239 9.77807C49.1409 11.2642 47.973 12.575 46.5564 12.575Z" fill="#0575AD"/>
</g>
<path d="M29.0535 23.2364C30.8033 23.2364 32.3043 21.7516 32.3043 19.829C32.3043 17.9063 30.8863 16.4202 29.0535 16.4202C27.2194 16.4202 25.8027 17.9063 25.8027 19.829C25.8027 21.7516 27.3023 23.2364 29.0535 23.2364Z" fill="#0575AD"/>
<path d="M22.3019 21.576C22.4678 22.2748 22.7179 22.9751 23.1353 23.674C23.3012 23.9365 23.2182 24.1975 23.1353 24.3729L22.3848 25.5095L23.7185 26.9074L24.8021 26.1215C24.9694 25.946 25.3025 25.946 25.4684 26.1215C26.1359 26.5579 26.8021 26.8204 27.4696 26.9944C27.7198 27.0827 27.8857 27.2568 27.97 27.5192L28.2188 28.917H30.0529L30.3031 27.5192C30.3861 27.2568 30.5532 27.0827 30.8034 26.9944C31.4697 26.8204 32.1371 26.5579 32.8034 26.1215C33.0536 25.946 33.3037 26.033 33.4709 26.1215L34.5545 26.9074L35.8883 25.5095L35.1378 24.3729C34.9706 24.1975 34.9706 23.848 35.1378 23.674C35.5539 22.9751 35.804 22.2748 35.9713 21.576C36.0542 21.3135 36.2214 21.1395 36.4716 21.0525L37.8053 20.7901V18.8674L36.3043 18.6051C36.0542 18.5181 35.8883 18.3426 35.804 18.0801C35.6381 17.3813 35.388 16.6824 34.9706 15.9836C34.8047 15.7211 34.8877 15.4587 34.9706 15.2832L35.7211 14.1479L34.3873 12.8372L33.3037 13.6231C33.1378 13.7985 32.8034 13.7985 32.6375 13.6231C31.97 13.1867 31.3038 12.9242 30.6362 12.7488C30.3861 12.6617 30.2202 12.4864 30.1372 12.2253L29.887 10.8262H28.053L27.8857 12.2253C27.8028 12.4864 27.6355 12.6617 27.3854 12.7488C26.6362 12.9242 25.9687 13.1867 25.3854 13.6231C25.1353 13.7985 24.8851 13.7101 24.7192 13.6231L23.6356 12.8372L22.3019 14.1479L23.0511 15.2832C23.2182 15.4587 23.2182 15.8081 23.0511 15.9836C22.635 16.6824 22.3848 17.3813 22.2176 18.0801C22.1346 18.3426 21.9674 18.5181 21.7186 18.6051L20.4678 18.8674V20.7901L21.8015 21.0525C22.0517 21.0525 22.3019 21.3135 22.3019 21.576ZM29.0536 15.1092C31.5539 15.1092 33.5539 17.2059 33.5539 19.8288C33.5539 22.4503 31.5539 24.5483 29.0536 24.5483C26.5519 24.5483 24.552 22.4503 24.552 19.8288C24.552 17.2059 26.6362 15.1092 29.0536 15.1092Z" fill="#0575AD"/>
<mask id="mask3_1_1327" style="mask-type:luminance" maskUnits="userSpaceOnUse" x="0" y="2" width="55" height="31">
<path d="M0.920898 2.71875H54.5715V32.7734H0.920898V2.71875Z" fill="white"/>
</mask>
<g mask="url(#mask3_1_1327)">
<path d="M7.71464 32.4132H7.79759L46.1396 32.5886C50.6412 32.5016 54.3094 28.568 54.3094 23.8484C54.3094 21.6634 53.5589 19.6537 52.2251 18.0806C51.892 18.343 51.5576 18.43 51.1415 18.43C50.8084 18.43 50.3911 18.343 50.0579 18.0806L49.6405 17.8182C49.6405 17.8182 49.6405 17.8182 49.5576 17.8182V18.343C49.3904 19.3043 48.6412 20.0032 47.7235 20.0032H45.3062C44.3897 20.0032 43.6393 19.3043 43.4734 18.43L43.3891 17.9065C43.3891 17.9065 43.3891 17.9065 43.3061 17.9065L42.8901 18.1676C42.5557 18.43 42.2226 18.5184 41.8065 18.5184C41.3062 18.5184 40.8059 18.256 40.4728 17.9065L38.8045 16.158C38.1383 15.459 38.0554 14.4108 38.5557 13.6235L38.8888 13.187C38.8888 13.187 38.8888 13.187 38.8888 13.0986L38.3885 13.0116C37.4721 12.8376 36.8046 12.0503 36.8046 11.089V8.55451C36.8046 7.94265 37.0547 7.33078 37.555 6.98134C35.721 4.44686 32.8875 2.96069 29.8027 2.96069C25.8027 2.96069 22.3017 5.40817 20.8008 9.2534C19.6342 8.64153 18.3834 8.29209 17.0497 8.29209C13.1326 8.29209 9.71459 11.176 8.88119 15.1967C4.46384 15.459 0.962891 19.2173 0.962891 23.9368C0.962891 28.0445 3.79762 31.6272 7.71464 32.4132ZM19.2169 18.343C19.2169 17.9935 19.467 17.7312 19.7172 17.7312L21.2182 17.4687C21.3841 16.8568 21.6342 16.3334 21.8844 15.8085L21.0509 14.4978C20.8837 14.2353 20.8837 13.8859 21.1338 13.6235L23.1352 11.5255C23.3853 11.2644 23.7185 11.2644 23.9686 11.4384L25.2181 12.3128C25.7184 12.0503 26.3017 11.7878 26.802 11.6138L27.0522 10.0406C27.1364 9.69125 27.3853 9.51582 27.6355 9.51582H30.4702C30.8033 9.51582 31.0535 9.77826 31.0535 10.0406L31.3036 11.6138C31.8869 11.7878 32.3872 12.0503 32.8875 12.3128L34.137 11.4384C34.3872 11.2644 34.7203 11.2644 34.9705 11.5255L36.9718 13.6235C37.222 13.8859 37.222 14.2353 37.0547 14.4978L36.3043 15.7215C36.5544 16.245 36.8046 16.8568 36.9718 17.3817L38.4715 17.6442C38.8045 17.7312 38.9718 17.9935 38.9718 18.256V21.3139C38.9718 21.6634 38.7216 21.9258 38.4715 21.9258L36.9718 22.1882C36.8046 22.8001 36.5544 23.3249 36.3043 23.8484L37.1377 25.1606C37.3049 25.4216 37.3049 25.771 37.0547 26.0335L35.0548 28.1315C34.8046 28.394 34.4715 28.394 34.2213 28.2185L32.9705 27.3442C32.4702 27.6066 31.8869 27.869 31.3866 28.0445L31.1365 29.6177C31.0535 29.967 30.8033 30.1412 30.5532 30.1412H27.7197C27.3853 30.1412 27.1364 29.8787 27.1364 29.6177L26.8863 28.0445C26.3017 27.869 25.8027 27.6066 25.3024 27.3442L24.0516 28.2185C23.8014 28.394 23.4683 28.394 23.2182 28.1315L21.2182 26.0335C20.9679 25.771 20.9679 25.4216 21.1338 25.1606L21.9673 23.8484C21.7185 23.3249 21.4683 22.7131 21.3011 22.1882L19.8001 21.9258C19.467 21.8388 19.3011 21.5764 19.3011 21.3139V18.343H19.2169Z" fill="#0575AD"/>
</g>
</g>
</g>
</g>
<defs>
<clipPath id="clip0_1_1327">
<rect width="55" height="55" fill="white" transform="translate(0.469727 0.5)"/>
</clipPath>
<clipPath id="clip1_1_1327">
<rect width="55" height="55" fill="white" transform="translate(0.469727 0.5)"/>
</clipPath>
<clipPath id="clip2_1_1327">
<rect width="55" height="55" fill="white" transform="translate(0.469727 0.5)"/>
</clipPath>
</defs>
</svg>
