<svg width="66" height="65" viewBox="0 0 66 65" fill="none" xmlns="http://www.w3.org/2000/svg">
<rect x="0.5" width="65" height="65" rx="8" fill="#00D280" fill-opacity="0.2"/>
<g clip-path="url(#clip0_1_1281)">
<g clip-path="url(#clip1_1_1281)">
<g clip-path="url(#clip2_1_1281)">
<mask id="mask0_1_1281" style="mask-type:luminance" maskUnits="userSpaceOnUse" x="12" y="12" width="42" height="41">
<path d="M12.9458 12.0334H53.0545V52.0567H12.9458V12.0334Z" fill="white"/>
</mask>
<g mask="url(#mask0_1_1281)">
<path fill-rule="evenodd" clip-rule="evenodd" d="M29.9804 43.1547C30.2414 43.415 30.2414 43.8373 29.9804 44.0978C29.7194 44.3582 29.2962 44.3582 29.0353 44.0978L28.1272 43.1917C27.8656 42.9312 27.8656 42.5089 28.1272 42.2486C28.3882 41.9875 28.8114 41.9875 29.0723 42.2486L29.9804 43.1547ZM25.4151 38.5991C25.6761 38.8595 25.6761 39.2818 25.4151 39.5422C25.1542 39.8026 24.731 39.8026 24.47 39.5422L24.1755 39.2483L23.969 39.605C23.7858 39.9232 23.3788 40.0326 23.0603 39.8504C22.7419 39.6676 22.6318 39.2614 22.8149 38.9432L23.4261 37.8865C23.6182 37.4684 24.1749 37.3615 24.5065 37.693L25.4151 38.5991ZM33.2707 42.9647C33.1756 43.3201 32.8098 43.5309 32.4537 43.436C32.0975 43.3409 31.8857 42.976 31.9808 42.6207L32.3136 41.3825C32.4088 41.0271 32.7745 40.8162 33.1306 40.9112C33.4868 41.0062 33.6987 41.3711 33.6035 41.7265L33.2707 42.9647ZM35.7775 33.6297C35.6824 33.985 35.3166 34.1964 34.9599 34.1015C34.6037 34.0065 34.3925 33.6416 34.4876 33.2856L34.8197 32.048C34.9149 31.6927 35.2813 31.4812 35.6374 31.5762C35.9936 31.6711 36.2048 32.0367 36.1097 32.3921L35.7775 33.6297ZM34.9419 36.7416C34.8468 37.0969 34.481 37.3078 34.1249 37.2128C33.7681 37.1179 33.5569 36.7529 33.652 36.3975L33.9841 35.1593C34.0793 34.8039 34.4457 34.5931 34.8018 34.6881C35.158 34.783 35.3692 35.148 35.2741 35.5034L34.9419 36.7416ZM40.8318 29.6302C41.1879 29.7252 41.3993 30.0901 41.3041 30.4455C41.2089 30.8009 40.8432 31.0123 40.487 30.9173L39.2461 30.5858C38.8901 30.4909 38.6787 30.1253 38.7739 29.7699C38.8691 29.4146 39.2348 29.2037 39.591 29.2987L40.8318 29.6302ZM37.7133 28.7964C38.0694 28.8914 38.2813 29.2563 38.1861 29.6117C38.0909 29.9676 37.7246 30.1785 37.3685 30.0835L36.7723 29.9241L36.6131 30.5184C36.5179 30.8737 36.1516 31.0846 35.7955 30.9896C35.4393 30.8947 35.2281 30.5297 35.3232 30.1743L35.6553 28.9361C35.7505 28.5808 36.1169 28.3699 36.4724 28.4649L37.7133 28.7964ZM45.9687 28.6489C45.7856 28.9666 45.3785 29.0765 45.06 28.8937C44.741 28.711 44.6315 28.3048 44.814 27.9871L45.4563 26.8767C45.6395 26.5589 46.0465 26.449 46.3649 26.6318C46.684 26.8146 46.7935 27.2207 46.6109 27.5385L45.9687 28.6489ZM47.5824 25.8619C47.398 26.1797 46.9898 26.2883 46.6714 26.1038C46.353 25.9199 46.244 25.5125 46.4284 25.1947L47.0706 24.0849C47.2556 23.7666 47.6632 23.6579 47.9823 23.8424C48.3007 24.0264 48.4096 24.4338 48.2247 24.7515L47.5824 25.8619ZM43.8426 29.6642C44.0269 29.3459 44.4351 29.2377 44.7536 29.4217C45.0726 29.6057 45.181 30.0131 44.9966 30.3314L44.3544 31.4411C44.1999 31.7069 43.8892 31.8265 43.605 31.7506L42.3641 31.4197C42.0079 31.3247 41.7967 30.9591 41.8918 30.6038C41.987 30.2484 42.3528 30.0375 42.7089 30.1325L43.4559 30.332L43.8426 29.6642ZM49.262 19.9607C50.1849 19.9607 50.9332 20.7073 50.9332 21.6283C50.9332 22.5493 50.1849 23.296 49.262 23.296C49.1758 23.296 49.0914 23.2894 49.0094 23.2774C48.8035 23.4249 48.5221 23.4483 48.2882 23.3145C48.0529 23.1795 47.9314 22.9232 47.9571 22.6706C47.7279 22.385 47.5908 22.0231 47.5908 21.6283C47.5908 20.7073 48.339 19.9607 49.262 19.9607ZM20.4165 43.2048C20.3339 43.1928 20.2495 43.1863 20.1639 43.1863C19.2409 43.1863 18.4927 43.9329 18.4927 44.8539C18.4927 45.7749 19.2409 46.5216 20.1639 46.5216C21.0869 46.5216 21.8351 45.7749 21.8351 44.8539C21.8351 44.71 21.8171 44.5708 21.783 44.4382L26.052 41.1209L26.7523 41.8203C27.0133 42.0807 27.4364 42.0807 27.6974 41.8203C27.9584 41.5592 27.9584 41.137 27.6974 40.8766L27.1144 40.2954L28.363 39.3248C28.6013 39.4544 28.8737 39.5285 29.164 39.5285C29.5979 39.5285 29.993 39.3636 30.2899 39.0931L38.6871 42.8476C38.6871 42.8536 38.6871 42.8596 38.6871 42.8662C38.6871 43.7871 39.4354 44.5338 40.3583 44.5338C41.2813 44.5338 42.0295 43.7871 42.0295 42.8662C42.0295 42.6349 41.9823 42.4151 41.8972 42.215L50.4029 33.2814C50.5812 33.3466 50.774 33.3818 50.9751 33.3818C51.898 33.3818 52.6463 32.6351 52.6463 31.7141C52.6463 30.7931 51.898 30.0465 50.9751 30.0465C50.052 30.0465 49.3039 30.7931 49.3039 31.7141C49.3039 31.9447 49.3512 32.1651 49.4362 32.3646L40.9305 41.2989C40.7522 41.2337 40.5595 41.1985 40.3583 41.1985C39.9243 41.1985 39.5293 41.3633 39.2318 41.6339L34.229 39.3971L34.4385 38.6153C34.5336 38.2593 34.3224 37.8943 33.9662 37.7994C33.6101 37.7043 33.2437 37.9158 33.1486 38.2712L32.9948 38.8452L30.8352 37.8794C30.8352 37.8734 30.8352 37.8668 30.8352 37.8609C30.8352 36.9399 30.0869 36.1932 29.164 36.1932C28.2409 36.1932 27.4928 36.9399 27.4928 37.8609C27.4928 38.0042 27.5107 38.1434 27.5448 38.2759L22.448 42.2366L22.997 41.2875C23.1819 40.9697 23.073 40.5624 22.7545 40.3778C22.4354 40.1938 22.0278 40.3026 21.8429 40.6203L21.2006 41.7301C21.0163 42.0485 21.1252 42.4552 21.4437 42.6398C21.5603 42.7072 21.6897 42.7353 21.8147 42.7282L21.1988 43.2072C21.1791 43.1928 21.1587 43.1797 21.1378 43.1678C20.9037 43.034 20.6218 43.0572 20.4165 43.2048ZM32.7823 44.5619C32.7422 44.3098 32.5578 44.0924 32.295 44.0224C32.0323 43.9526 31.7647 44.0487 31.6037 44.247C31.4343 44.2656 31.2727 44.3098 31.1224 44.3749C30.8837 44.2835 30.6023 44.3337 30.4096 44.526C30.2168 44.7184 30.1665 44.999 30.2581 45.2374C30.1689 45.4417 30.1193 45.6668 30.1193 45.904C30.1193 46.825 30.8674 47.5716 31.7905 47.5716C32.7134 47.5716 33.4617 46.825 33.4617 45.904C33.4617 45.3539 33.1941 44.8653 32.7823 44.5619ZM31.9071 14.2996C28.7126 14.2996 26.122 16.8846 26.122 20.073C26.122 23.2607 28.7126 25.8458 31.9071 25.8458C35.1023 25.8458 37.6929 23.2607 37.6929 20.073C37.6923 16.8846 35.1023 14.2996 31.9071 14.2996ZM31.9071 12.0334C27.458 12.0334 23.8505 15.6327 23.8505 20.073C23.8505 21.7878 24.3892 23.3772 25.3061 24.6823C24.4646 25.4976 23.6224 26.3128 22.7808 27.1281L22.6899 27.0344C22.4091 26.7458 21.9428 26.7387 21.6538 27.0188L17.2297 31.3032C16.9406 31.5828 16.9334 32.048 17.2142 32.3365L18.8111 33.979C19.0919 34.2676 19.5582 34.2747 19.8473 33.9946L24.2712 29.7109C24.5604 29.4307 24.5675 28.9655 24.2868 28.6769L24.1958 28.5837L26.6739 26.1844C28.0818 27.3862 29.9092 28.1125 31.9078 28.1125C36.3569 28.1125 39.9644 24.5126 39.9644 20.073C39.9638 15.6327 36.3569 12.0334 31.9071 12.0334ZM15.1503 49.8568V12.0334H12.9458V52.0567H53.0545V49.8568H15.1503Z" fill="#00D280"/>
</g>
</g>
</g>
</g>
<defs>
<clipPath id="clip0_1_1281">
<rect width="41" height="40.09" fill="white" transform="translate(12.5 12)"/>
</clipPath>
<clipPath id="clip1_1_1281">
<rect width="41" height="40.09" fill="white" transform="translate(12.5 12)"/>
</clipPath>
<clipPath id="clip2_1_1281">
<rect width="41" height="40.1087" fill="white" transform="translate(12.5 11.9907)"/>
</clipPath>
</defs>
</svg>
