<svg width="56" height="56" viewBox="0 0 56 56" fill="none" xmlns="http://www.w3.org/2000/svg">
<g clip-path="url(#clip0_1_1327)">
<g clip-path="url(#clip1_1_1327)">
<g clip-path="url(#clip2_1_1327)">
<mask id="mask0_1_1327" style="mask-type:luminance" maskUnits="userSpaceOnUse" x="0" y="33" width="26" height="23">
<path d="M0.920898 33.4805H25.5843V55.0491H0.920898V33.4805Z" fill="white"/>
</mask>
<g mask="url(#mask0_1_1327)">
<path d="M24.2193 48.2317C24.2193 49.8048 22.9685 51.117 21.4688 51.117H3.38074L4.96466 49.7178C5.21482 49.4554 5.29777 49.106 5.04761 48.7565C4.79744 48.4941 4.46433 48.4071 4.13122 48.6695L1.21354 51.204C1.13059 51.291 1.13059 51.291 1.13059 51.378C1.13059 51.378 1.13059 51.4664 1.04633 51.4664C1.04633 51.5534 0.963379 51.6405 0.963379 51.7288C0.963379 51.8159 0.963379 51.9029 1.04633 51.9899C1.04633 51.9899 1.04633 52.0783 1.13059 52.0783C1.13059 52.1653 1.21354 52.1653 1.21354 52.2523L4.13122 54.7868C4.21417 54.8738 4.38139 54.9622 4.54728 54.9622C4.7145 54.9622 4.88171 54.8738 5.04761 54.6998C5.29777 54.4374 5.21482 54.0009 4.96466 53.7385L3.38074 52.4277H21.4688C23.719 52.4277 25.4688 50.5051 25.4688 48.2317V33.812H24.2193V48.2317Z" fill="white"/>
</g>
<path d="M18.1339 39.1435V33.7251H16.8844V39.1435C16.8844 40.7167 15.6336 42.0275 14.134 42.0275H6.63171L8.21564 40.6283C8.4658 40.3673 8.54875 40.0165 8.29859 39.667C8.04842 39.406 7.71531 39.3175 7.3822 39.58L4.46452 42.1145C4.29731 42.2015 4.21436 42.3769 4.21436 42.6393C4.21436 42.8134 4.29731 42.9887 4.46452 43.1628L7.3822 45.6972C7.46515 45.7857 7.63237 45.8727 7.79826 45.8727C7.96548 45.8727 8.13269 45.7857 8.29859 45.6102C8.54875 45.3479 8.4658 44.9114 8.21564 44.6489L6.63171 43.2512H14.134C16.3841 43.3382 18.1339 41.5026 18.1339 39.1435Z" fill="white"/>
<path d="M47.641 45.6971C47.8082 45.8725 47.9741 45.9595 48.1413 45.9595C48.3072 45.9595 48.3915 45.8725 48.5574 45.7855L51.4751 43.251C51.6423 43.1626 51.7253 42.9015 51.7253 42.7262C51.7253 42.5507 51.6423 42.3767 51.4751 42.2013L48.5574 39.6668C48.3072 39.4058 47.8911 39.4928 47.641 39.7552C47.3908 40.0163 47.4738 40.4541 47.724 40.7165L49.3079 42.1143H41.807C40.306 42.1143 39.0552 40.8035 39.0552 39.2303V33.8989H37.8057V39.2303C37.8057 41.5895 39.6398 43.425 41.807 43.425H49.3079L47.724 44.8242C47.4738 44.9982 47.3908 45.436 47.641 45.6971Z" fill="white"/>
<mask id="mask1_1_1327" style="mask-type:luminance" maskUnits="userSpaceOnUse" x="30" y="33" width="26" height="23">
<path d="M30.3037 33.4805H55.0197V55.0491H30.3037V33.4805Z" fill="white"/>
</mask>
<g mask="url(#mask1_1_1327)">
<path d="M54.8936 51.4664C54.8936 51.378 54.8094 51.378 54.8094 51.291L51.8931 48.7565C51.6429 48.4941 51.2255 48.5825 51.0596 48.8435C50.8095 49.106 50.8924 49.5438 51.1425 49.8048L52.7264 51.204H34.4725C32.9715 51.204 31.7207 49.8932 31.7207 48.32V33.812H30.4712V48.2317C30.4712 50.5922 32.3053 52.4277 34.4725 52.4277H52.5593L50.9753 53.8255C50.7252 54.0879 50.6422 54.4374 50.8924 54.7868C50.9753 54.9622 51.2255 55.0492 51.3927 55.0492C51.5586 55.0492 51.6429 54.9622 51.8088 54.8738L54.7265 52.3393C54.8094 52.3393 54.8094 52.2523 54.8094 52.1653C54.8094 52.1653 54.8094 52.1653 54.8094 52.0782C54.8094 51.9899 54.8936 51.9029 54.8936 51.8159C54.9766 51.7288 54.8936 51.6404 54.8936 51.4664Z" fill="white"/>
</g>
<mask id="mask2_1_1327" style="mask-type:luminance" maskUnits="userSpaceOnUse" x="38" y="0" width="18" height="19">
<path d="M38.0557 0.950928H55.0194V18.9837H38.0557V0.950928Z" fill="white"/>
</mask>
<g mask="url(#mask2_1_1327)">
<path d="M54.4757 7.85549L53.3091 7.59307C53.1419 7.15661 52.976 6.71878 52.8088 6.28232L53.3921 5.23399C53.5592 4.97157 53.5592 4.62213 53.3091 4.3597L51.6423 2.61112C51.392 2.34869 51.059 2.34869 50.8088 2.5241L49.8081 3.22299C49.3908 2.96056 48.9747 2.78653 48.5573 2.69951L48.3072 1.47578C48.2242 1.12634 47.974 0.950928 47.7239 0.950928H45.3065C44.9734 0.950928 44.7233 1.21335 44.7233 1.47578L44.473 2.69951C44.057 2.87355 43.5567 3.04895 43.2236 3.22299L42.2229 2.5241C41.9728 2.34869 41.6396 2.34869 41.3895 2.61112L39.7227 4.44672C39.4725 4.70914 39.4725 5.05859 39.6397 5.32101L40.3059 6.36933C40.0557 6.80717 39.8886 7.24362 39.8056 7.68008L38.639 7.85549C38.3059 7.94251 38.1387 8.20493 38.1387 8.46736V11.0019C38.1387 11.3512 38.3889 11.6137 38.639 11.6137L39.8056 11.8761C39.9728 12.3126 40.1387 12.7491 40.3059 13.1869L39.6397 14.3222C39.4725 14.5846 39.4725 14.9341 39.7227 15.1966L41.3895 17.0321C41.6396 17.2946 41.9728 17.2946 42.2229 17.1191L43.2236 16.4203C43.6397 16.6826 44.057 16.8567 44.473 16.9451L44.7233 18.1675C44.8076 18.5183 45.0563 18.6923 45.3065 18.6923H47.7239C48.0583 18.6923 48.3072 18.4298 48.3072 18.1675L48.5573 16.9451H48.6416C49.0576 16.8567 49.475 16.6826 49.8081 16.4203L50.8088 17.1191C51.059 17.2946 51.392 17.2946 51.6423 17.0321L53.3921 15.1966C53.6422 14.9341 53.6422 14.5846 53.475 14.3222L52.8088 13.2739C53.0589 12.8374 53.2262 12.3996 53.3091 11.9632L54.4757 11.7007C54.8087 11.6137 54.976 11.3512 54.976 11.0889V8.55437C54.976 8.20493 54.7258 7.94251 54.4757 7.85549ZM46.5574 12.575C46.057 12.575 45.6409 12.3996 45.1406 12.1372C44.6403 11.8761 44.3071 11.3512 44.057 10.8264C43.8898 10.477 43.8898 10.1275 43.8898 9.77807C43.8898 8.29195 45.0563 6.9812 46.5574 6.9812C47.974 6.9812 49.2249 8.20493 49.2249 9.77807C49.1419 11.2642 47.974 12.575 46.5574 12.575Z" fill="white"/>
</g>
<path d="M29.054 23.2364C30.8038 23.2364 32.3048 21.7516 32.3048 19.829C32.3048 17.9063 30.8868 16.4202 29.054 16.4202C27.2199 16.4202 25.8032 17.9063 25.8032 19.829C25.8032 21.7516 27.3028 23.2364 29.054 23.2364Z" fill="white"/>
<path d="M22.3024 21.576C22.4683 22.2748 22.7184 22.9751 23.1358 23.674C23.3017 23.9365 23.2187 24.1975 23.1358 24.3729L22.3853 25.5095L23.719 26.9074L24.8026 26.1215C24.9699 25.946 25.3029 25.946 25.4688 26.1215C26.1364 26.5579 26.8026 26.8204 27.4701 26.9944C27.7203 27.0827 27.8862 27.2568 27.9705 27.5192L28.2193 28.917H30.0534L30.3036 27.5192C30.3866 27.2568 30.5537 27.0827 30.8039 26.9944C31.4702 26.8204 32.1376 26.5579 32.8039 26.1215C33.0541 25.946 33.3042 26.033 33.4714 26.1215L34.555 26.9074L35.8888 25.5095L35.1383 24.3729C34.9711 24.1975 34.9711 23.848 35.1383 23.674C35.5544 22.9751 35.8045 22.2748 35.9718 21.576C36.0547 21.3135 36.2219 21.1395 36.4721 21.0525L37.8058 20.7901V18.8674L36.3048 18.6051C36.0547 18.5181 35.8888 18.3426 35.8045 18.0801C35.6386 17.3813 35.3885 16.6824 34.9711 15.9836C34.8052 15.7211 34.8882 15.4587 34.9711 15.2832L35.7216 14.1479L34.3878 12.8372L33.3042 13.6231C33.1383 13.7985 32.8039 13.7985 32.638 13.6231C31.9705 13.1867 31.3043 12.9242 30.6367 12.7488C30.3866 12.6617 30.2207 12.4864 30.1377 12.2253L29.8875 10.8262H28.0535L27.8862 12.2253C27.8033 12.4864 27.636 12.6617 27.3859 12.7488C26.6367 12.9242 25.9692 13.1867 25.3859 13.6231C25.1358 13.7985 24.8856 13.7101 24.7197 13.6231L23.6361 12.8372L22.3024 14.1479L23.0515 15.2832C23.2187 15.4587 23.2187 15.8081 23.0515 15.9836C22.6354 16.6824 22.3853 17.3813 22.2181 18.0801C22.1351 18.3426 21.9679 18.5181 21.7191 18.6051L20.4683 18.8674V20.7901L21.802 21.0525C22.0522 21.0525 22.3024 21.3135 22.3024 21.576ZM29.0541 15.1092C31.5544 15.1092 33.5544 17.2059 33.5544 19.8288C33.5544 22.4503 31.5544 24.5483 29.0541 24.5483C26.5524 24.5483 24.5525 22.4503 24.5525 19.8288C24.5525 17.2059 26.6367 15.1092 29.0541 15.1092Z" fill="white"/>
<mask id="mask3_1_1327" style="mask-type:luminance" maskUnits="userSpaceOnUse" x="0" y="2" width="55" height="31">
<path d="M0.920898 2.71875H54.5715V32.7734H0.920898V2.71875Z" fill="white"/>
</mask>
<g mask="url(#mask3_1_1327)">
<path d="M7.71513 32.4132H7.79808L46.14 32.5886C50.6417 32.5016 54.3099 28.568 54.3099 23.8484C54.3099 21.6634 53.5594 19.6537 52.2256 18.0806C51.8925 18.343 51.5581 18.43 51.142 18.43C50.8089 18.43 50.3915 18.343 50.0584 18.0806L49.641 17.8182C49.641 17.8182 49.641 17.8182 49.5581 17.8182V18.343C49.3909 19.3043 48.6417 20.0032 47.7239 20.0032H45.3067C44.3902 20.0032 43.6398 19.3043 43.4739 18.43L43.3896 17.9065C43.3896 17.9065 43.3896 17.9065 43.3066 17.9065L42.8906 18.1676C42.5562 18.43 42.223 18.5184 41.807 18.5184C41.3067 18.5184 40.8064 18.256 40.4732 17.9065L38.805 16.158C38.1388 15.459 38.0559 14.4108 38.5562 13.6235L38.8893 13.187C38.8893 13.187 38.8893 13.187 38.8893 13.0986L38.389 13.0116C37.4726 12.8376 36.8051 12.0503 36.8051 11.089V8.55451C36.8051 7.94265 37.0552 7.33078 37.5555 6.98134C35.7215 4.44686 32.888 2.96069 29.8031 2.96069C25.8032 2.96069 22.3022 5.40817 20.8013 9.2534C19.6347 8.64153 18.3839 8.29209 17.0502 8.29209C13.1331 8.29209 9.71507 11.176 8.88168 15.1967C4.46433 15.459 0.963379 19.2173 0.963379 23.9368C0.963379 28.0445 3.79811 31.6272 7.71513 32.4132ZM19.2174 18.343C19.2174 17.9935 19.4675 17.7312 19.7177 17.7312L21.2186 17.4687C21.3845 16.8568 21.6347 16.3334 21.8849 15.8085L21.0514 14.4978C20.8842 14.2353 20.8842 13.8859 21.1343 13.6235L23.1357 11.5255C23.3858 11.2644 23.719 11.2644 23.9691 11.4384L25.2186 12.3128C25.7189 12.0503 26.3022 11.7878 26.8025 11.6138L27.0527 10.0406C27.1369 9.69125 27.3858 9.51582 27.636 9.51582H30.4707C30.8038 9.51582 31.054 9.77826 31.054 10.0406L31.3041 11.6138C31.8874 11.7878 32.3877 12.0503 32.888 12.3128L34.1375 11.4384C34.3877 11.2644 34.7208 11.2644 34.971 11.5255L36.9723 13.6235C37.2225 13.8859 37.2225 14.2353 37.0552 14.4978L36.3048 15.7215C36.5549 16.245 36.8051 16.8568 36.9723 17.3817L38.472 17.6442C38.805 17.7312 38.9723 17.9935 38.9723 18.256V21.3139C38.9723 21.6634 38.7221 21.9258 38.472 21.9258L36.9723 22.1882C36.8051 22.8001 36.5549 23.3249 36.3048 23.8484L37.1382 25.1606C37.3054 25.4216 37.3054 25.771 37.0552 26.0335L35.0553 28.1315C34.8051 28.394 34.472 28.394 34.2218 28.2185L32.971 27.3442C32.4706 27.6066 31.8874 27.869 31.3871 28.0445L31.1369 29.6177C31.054 29.967 30.8038 30.1412 30.5537 30.1412H27.7202C27.3858 30.1412 27.1369 29.8787 27.1369 29.6177L26.8868 28.0445C26.3022 27.869 25.8032 27.6066 25.3029 27.3442L24.052 28.2185C23.8019 28.394 23.4688 28.394 23.2187 28.1315L21.2186 26.0335C20.9684 25.771 20.9684 25.4216 21.1343 25.1606L21.9678 23.8484C21.719 23.3249 21.4688 22.7131 21.3016 22.1882L19.8006 21.9258C19.4675 21.8388 19.3016 21.5764 19.3016 21.3139V18.343H19.2174Z" fill="white"/>
</g>
</g>
</g>
</g>
<defs>
<clipPath id="clip0_1_1327">
<rect width="55" height="55" fill="white" transform="translate(0.470215 0.5)"/>
</clipPath>
<clipPath id="clip1_1_1327">
<rect width="55" height="55" fill="white" transform="translate(0.470215 0.5)"/>
</clipPath>
<clipPath id="clip2_1_1327">
<rect width="55" height="55" fill="white" transform="translate(0.470215 0.5)"/>
</clipPath>
</defs>
</svg>
