<svg width="56" height="56" viewBox="0 0 56 56" fill="none" xmlns="http://www.w3.org/2000/svg">
<g clip-path="url(#clip0_1_1358)">
<g clip-path="url(#clip1_1_1358)">
<g clip-path="url(#clip2_1_1358)">
<mask id="mask0_1_1358" style="mask-type:luminance" maskUnits="userSpaceOnUse" x="0" y="0" width="56" height="56">
<path d="M0.474609 0.5H55.4746V55.5H0.474609V0.5Z" fill="white"/>
</mask>
<g mask="url(#mask0_1_1358)">
<path d="M1.51284 45.1045H22.3041V51.7197H11.9084V55.5H44.0393V51.7197H33.6437V45.1045H54.4334C54.5595 45.1045 54.6798 45.0806 54.7956 45.0317C54.9114 44.9842 55.0138 44.9159 55.1029 44.8269C55.1904 44.7393 55.2587 44.6369 55.3076 44.5211C55.3551 44.4053 55.3789 44.2852 55.3789 44.1589V8.24927C55.3789 8.12311 55.3551 8.00289 55.3076 7.88711C55.2587 7.77135 55.1904 7.66894 55.1029 7.57987C55.0138 7.4923 54.9114 7.42403 54.7956 7.37505C54.6798 7.32756 54.5595 7.30381 54.4334 7.30381H33.6437V4.46891H42.319C42.3561 4.5728 42.3978 4.67374 42.4467 4.77318C42.4957 4.87263 42.5506 4.9691 42.61 5.06112C42.6694 5.15463 42.7346 5.24368 42.8059 5.32828C42.8756 5.41289 42.9513 5.49452 43.03 5.57022C43.1102 5.64739 43.1948 5.71864 43.2823 5.78543C43.3699 5.85222 43.4619 5.91308 43.5569 5.96947C43.6519 6.02439 43.7513 6.07486 43.8522 6.11938C43.9532 6.16392 44.0571 6.2025 44.1625 6.23367C44.2679 6.26633 44.3747 6.29304 44.4831 6.31233C44.5914 6.33311 44.7013 6.34647 44.8111 6.35241C44.9224 6.35984 45.0323 6.35984 45.1421 6.3539C45.2534 6.34796 45.3617 6.33608 45.4716 6.31827C45.58 6.29898 45.6868 6.27374 45.7936 6.24258C45.8991 6.21141 46.0029 6.1743 46.1053 6.13126C46.2063 6.08822 46.3042 6.03776 46.4008 5.98432C46.4972 5.92941 46.5892 5.86855 46.6782 5.80324C46.7659 5.73645 46.8519 5.66669 46.932 5.591C47.0123 5.5153 47.0879 5.43515 47.1592 5.35055C47.2304 5.26595 47.2972 5.17838 47.358 5.08636C47.4189 4.99433 47.4738 4.89785 47.5228 4.7999C47.5733 4.70045 47.6163 4.59952 47.6549 4.49563C47.692 4.39173 47.7247 4.28634 47.7499 4.17948C47.7751 4.07261 47.7945 3.96279 47.8077 3.85295C47.8211 3.7446 47.8271 3.63328 47.8271 3.52345C47.8271 3.41361 47.8211 3.30229 47.8077 3.19394C47.7945 3.08412 47.7751 2.97428 47.7499 2.86742C47.7247 2.76055 47.692 2.65517 47.6549 2.55127C47.6163 2.44737 47.5733 2.34645 47.5228 2.247C47.4738 2.14904 47.4189 2.05257 47.358 1.96054C47.2972 1.86853 47.2304 1.78095 47.1592 1.69635C47.0879 1.61175 47.0123 1.5316 46.932 1.45591C46.8519 1.38021 46.7659 1.31045 46.6782 1.24366C46.5892 1.17835 46.4972 1.11898 46.4008 1.06406C46.3042 1.00915 46.2063 0.958682 46.1053 0.915639C46.0029 0.872596 45.8991 0.83549 45.7936 0.804321C45.6868 0.773152 45.58 0.74792 45.4716 0.728625C45.3617 0.710815 45.2534 0.69894 45.1421 0.693003C45.0323 0.687067 44.9224 0.687067 44.8111 0.694488C44.7013 0.700424 44.5914 0.715267 44.4831 0.734562C44.3747 0.753857 44.2679 0.780574 44.1625 0.813226C44.0571 0.844396 43.9532 0.882987 43.8522 0.927514C43.7513 0.972041 43.6519 1.0225 43.5569 1.07742C43.4619 1.13382 43.3699 1.19468 43.2823 1.26147C43.1948 1.32826 43.1102 1.3995 43.03 1.47668C42.9513 1.55238 42.8756 1.63402 42.8059 1.71861C42.7346 1.80321 42.6694 1.89227 42.61 1.98578C42.5506 2.0778 42.4957 2.17427 42.4467 2.27372C42.3978 2.37316 42.3561 2.47409 42.319 2.57799H32.6982C32.5736 2.57799 32.4533 2.60174 32.3375 2.65072C32.2218 2.69821 32.1194 2.76648 32.0304 2.85554C31.9413 2.94459 31.873 3.04553 31.8255 3.16129C31.778 3.27707 31.7543 3.39877 31.7543 3.52345V7.30381H24.1935V3.52345C24.1935 3.39877 24.1698 3.27707 24.1208 3.16129C24.0733 3.04553 24.005 2.94459 23.9159 2.85554C23.8284 2.76648 23.726 2.69821 23.6102 2.65072C23.4944 2.60174 23.3742 2.57799 23.248 2.57799H13.6287C13.5916 2.47409 13.5485 2.37316 13.4996 2.27372C13.4506 2.17427 13.3972 2.0778 13.3363 1.98578C13.2769 1.89227 13.2116 1.80321 13.1419 1.71861C13.0721 1.63402 12.9964 1.55238 12.9163 1.47668C12.8361 1.3995 12.753 1.32826 12.6654 1.26147C12.5764 1.19468 12.4844 1.13382 12.3894 1.07742C12.2943 1.0225 12.1964 0.972041 12.0955 0.927514C11.9946 0.882987 11.8906 0.844396 11.7853 0.813226C11.6799 0.780574 11.573 0.753857 11.4632 0.734562C11.3548 0.715267 11.245 0.700424 11.1352 0.694488C11.0253 0.687067 10.9155 0.687067 10.8042 0.693003C10.6944 0.69894 10.5845 0.710815 10.4761 0.728625C10.3663 0.74792 10.2594 0.773152 10.1541 0.804321C10.0472 0.83549 9.94336 0.872596 9.84243 0.915639C9.74151 0.958682 9.64205 1.00915 9.54553 1.06406C9.45056 1.11898 9.35853 1.17835 9.26952 1.24366C9.18043 1.31045 9.09583 1.38021 9.01567 1.45591C8.93405 1.5316 8.85835 1.61175 8.7871 1.69635C8.71586 1.78095 8.65056 1.86853 8.5897 1.96054C8.52885 2.05257 8.47393 2.14904 8.42346 2.247C8.37449 2.34645 8.32996 2.44737 8.29286 2.55127C8.25426 2.65517 8.2231 2.76055 8.19786 2.86742C8.17114 2.97428 8.15185 3.08412 8.13997 3.19394C8.12662 3.30229 8.12068 3.41361 8.12068 3.52345C8.12068 3.63328 8.12662 3.7446 8.13997 3.85295C8.15185 3.96279 8.17114 4.07261 8.19786 4.17948C8.2231 4.28634 8.25426 4.39173 8.29286 4.49563C8.32996 4.59952 8.37449 4.70045 8.42346 4.7999C8.47393 4.89785 8.52885 4.99433 8.5897 5.08636C8.65056 5.17838 8.71586 5.26595 8.7871 5.35055C8.85835 5.43515 8.93405 5.5153 9.01567 5.591C9.09583 5.66669 9.18043 5.73645 9.26952 5.80324C9.35853 5.86855 9.45056 5.92941 9.54553 5.98432C9.64205 6.03776 9.74151 6.08822 9.84243 6.13126C9.94336 6.1743 10.0472 6.21141 10.1541 6.24258C10.2594 6.27374 10.3663 6.29898 10.4761 6.31827C10.5845 6.33608 10.6944 6.34796 10.8042 6.3539C10.9155 6.35984 11.0253 6.35984 11.1352 6.35241C11.245 6.34647 11.3548 6.33311 11.4632 6.31233C11.573 6.29304 11.6799 6.26633 11.7853 6.23367C11.8906 6.2025 11.9946 6.16392 12.0955 6.11938C12.1964 6.07486 12.2943 6.02439 12.3894 5.96947C12.4844 5.91308 12.5764 5.85222 12.6654 5.78543C12.753 5.71864 12.8361 5.64739 12.9163 5.57022C12.9964 5.49452 13.0721 5.41289 13.1419 5.32828C13.2116 5.24368 13.2769 5.15463 13.3363 5.06112C13.3972 4.9691 13.4506 4.87263 13.4996 4.77318C13.5485 4.67374 13.5916 4.5728 13.6287 4.46891H22.3041V7.30381H1.51284C1.38816 7.30381 1.26646 7.32756 1.15069 7.37505C1.03492 7.42403 0.933993 7.4923 0.844936 7.57987C0.755882 7.66894 0.687606 7.77135 0.640111 7.88711C0.592615 8.00289 0.567383 8.12311 0.567383 8.24927V44.1589C0.567383 44.2852 0.592615 44.4053 0.640111 44.5211C0.687606 44.6369 0.755882 44.7393 0.844936 44.8269C0.933993 44.9159 1.03492 44.9842 1.15069 45.0317C1.26646 45.0806 1.38816 45.1045 1.51284 45.1045ZM24.1935 9.19324H31.7543V19.7492L31.1205 20.3829C30.7197 20.1647 30.3011 19.9911 29.8633 19.8634V17.6994H26.0829V19.8634C25.6466 19.9911 25.2266 20.1647 24.8273 20.3829L24.1935 19.7492V9.19324ZM27.9739 22.4238C28.2218 22.4238 28.4681 22.4475 28.7116 22.4965C28.9549 22.5455 29.191 22.6167 29.4195 22.7117C29.6496 22.8067 29.8678 22.9224 30.0741 23.0605C30.2803 23.1985 30.4704 23.3558 30.647 23.531C30.8221 23.7062 30.978 23.8976 31.116 24.1039C31.254 24.3103 31.3713 24.5284 31.4663 24.757C31.5613 24.987 31.6325 25.2231 31.6815 25.4665C31.729 25.7098 31.7543 25.9562 31.7543 26.2041C31.7543 26.452 31.729 26.6984 31.6815 26.9418C31.6325 27.1852 31.5613 27.4212 31.4663 27.6498C31.3713 27.8799 31.254 28.098 31.116 28.3044C30.978 28.5106 30.8221 28.7006 30.647 28.8773C30.4704 29.0524 30.2803 29.2098 30.0741 29.3462C29.8678 29.4843 29.6496 29.6015 29.4195 29.6965C29.191 29.7916 28.9549 29.8628 28.7116 29.9117C28.4681 29.9592 28.2218 29.9845 27.9739 29.9845C27.7261 29.9845 27.4797 29.9592 27.2362 29.9117C26.9928 29.8628 26.7568 29.7916 26.5268 29.6965C26.2982 29.6015 26.08 29.4843 25.8737 29.3462C25.6674 29.2098 25.4759 29.0524 25.3007 28.8773C25.1257 28.7006 24.9683 28.5106 24.8303 28.3044C24.6923 28.098 24.5765 27.8799 24.4814 27.6498C24.3865 27.4212 24.3152 27.1852 24.2663 26.9418C24.2172 26.6984 24.1935 26.452 24.1935 26.2041C24.1935 25.9562 24.2172 25.7098 24.2663 25.4665C24.3152 25.2231 24.3865 24.987 24.4814 24.757C24.5765 24.5284 24.6923 24.3103 24.8303 24.1039C24.9683 23.8976 25.1257 23.7062 25.3007 23.531C25.4759 23.3558 25.6674 23.1985 25.8737 23.0605C26.08 22.9224 26.2982 22.8067 26.5268 22.7117C26.7568 22.6167 26.9928 22.5455 27.2362 22.4965C27.4797 22.4475 27.7261 22.4238 27.9739 22.4238ZM2.45831 9.19324H22.3041V19.8442L20.621 21.5258L22.1527 23.0575C21.9345 23.4568 21.7608 23.8769 21.6332 24.3132H19.4677V25.2586H9.8483C9.81127 25.1548 9.76818 25.0539 9.71923 24.9544C9.67175 24.8549 9.61675 24.7585 9.55744 24.6665C9.49658 24.573 9.43131 24.4839 9.36155 24.3993C9.2917 24.3147 9.21608 24.2331 9.13591 24.1574C9.05724 24.0802 8.97264 24.0089 8.88507 23.9421C8.79601 23.8754 8.70547 23.8145 8.609 23.7581C8.514 23.7031 8.41605 23.6527 8.31512 23.6082C8.21419 23.5636 8.11029 23.525 8.00491 23.4924C7.89953 23.4612 7.79267 23.4346 7.68432 23.4152C7.57448 23.3944 7.46613 23.3811 7.35481 23.3752C7.24498 23.3677 7.13514 23.3663 7.02383 23.3722C6.914 23.3781 6.80416 23.3915 6.69581 23.4093C6.58746 23.4286 6.47911 23.4538 6.37373 23.485C6.26835 23.5162 6.16446 23.5533 6.06204 23.5964C5.96111 23.6394 5.86167 23.6883 5.76668 23.7432C5.6702 23.7982 5.57817 23.859 5.48912 23.9243C5.40007 23.9896 5.31547 24.0609 5.23532 24.1366C5.15517 24.2123 5.07947 24.2924 5.00823 24.377C4.93698 24.4616 4.8702 24.5492 4.80934 24.6412C4.74849 24.7332 4.69357 24.8297 4.64311 24.9276C4.59412 25.0256 4.5496 25.128 4.51249 25.2305C4.4739 25.3344 4.44274 25.4412 4.4175 25.5481C4.39079 25.6549 4.37298 25.7633 4.35961 25.8732C4.34626 25.983 4.34032 26.0928 4.34032 26.2041C4.34032 26.3139 4.34626 26.4238 4.35961 26.5336C4.37298 26.6435 4.39079 26.7518 4.4175 26.8601C4.44274 26.967 4.4739 27.0724 4.51249 27.1763C4.5496 27.2802 4.59412 27.3811 4.64311 27.4806C4.69357 27.5785 4.74849 27.6735 4.80934 27.767C4.8702 27.859 4.93698 27.9466 5.00823 28.0312C5.07947 28.1158 5.15517 28.196 5.23532 28.2716C5.31547 28.3474 5.40007 28.4171 5.48912 28.4825C5.57817 28.5492 5.6702 28.6086 5.76668 28.6635C5.86167 28.7184 5.96111 28.7674 6.06204 28.8119C6.16446 28.855 6.26835 28.892 6.37373 28.9233C6.47911 28.9545 6.58746 28.9797 6.69581 28.9974C6.80416 29.0168 6.914 29.0286 7.02383 29.0346C7.13514 29.0405 7.24498 29.0405 7.35481 29.0331C7.46613 29.0257 7.57448 29.0123 7.68432 28.9931C7.79267 28.9737 7.89953 28.947 8.00491 28.9143C8.11029 28.8831 8.21419 28.8446 8.31512 28.8001C8.41605 28.7555 8.514 28.705 8.609 28.6487C8.70547 28.5938 8.79601 28.5314 8.88507 28.4661C8.97264 28.3993 9.05724 28.3281 9.13591 28.2509C9.21608 28.1752 9.2917 28.0935 9.36155 28.0089C9.43131 27.9228 9.49658 27.8338 9.55744 27.7418C9.61675 27.6483 9.67175 27.5533 9.71923 27.4539C9.76818 27.3544 9.81127 27.2535 9.8483 27.1495H19.4677V28.0935H21.6332C21.7608 28.5314 21.9345 28.95 22.1527 29.3507L20.621 30.9285L23.2955 33.6031L24.8273 32.0728C25.2266 32.291 25.6466 32.4632 26.0829 32.5923V34.7088H29.8633V32.5448C30.3011 32.4172 30.7197 32.2435 31.1205 32.0253L32.6982 33.5556L35.3253 30.9285L33.795 29.3982C34.0162 28.9826 34.1898 28.5477 34.3146 28.0935H36.4786V27.1495H46.0994C46.135 27.2535 46.1781 27.3544 46.227 27.4539C46.2761 27.5533 46.3294 27.6483 46.3903 27.7418C46.4497 27.8338 46.515 27.9228 46.5847 28.0089C46.656 28.0935 46.7302 28.1752 46.8104 28.2509C46.8905 28.3281 46.9737 28.3993 47.0627 28.4661C47.1502 28.5314 47.2422 28.5938 47.3373 28.6487C47.4323 28.705 47.5303 28.7555 47.6327 28.8001C47.7336 28.8446 47.836 28.8831 47.9414 28.9143C48.0482 28.947 48.1551 28.9737 48.2634 28.9931C48.3718 29.0123 48.4816 29.0257 48.5915 29.0331C48.7013 29.0405 48.8126 29.0405 48.9224 29.0346C49.0323 29.0286 49.1421 29.0168 49.252 28.9974C49.3603 28.9797 49.4672 28.9545 49.5741 28.9233C49.6794 28.892 49.7833 28.855 49.8843 28.8119C49.9867 28.7674 50.0846 28.7184 50.1811 28.6635C50.2761 28.6086 50.3695 28.5492 50.4572 28.4825C50.5462 28.4171 50.6308 28.3474 50.7125 28.2716C50.7926 28.196 50.8683 28.1158 50.9395 28.0312C51.0108 27.9466 51.0761 27.859 51.1369 27.767C51.1978 27.6735 51.2542 27.5785 51.3032 27.4806C51.3536 27.3811 51.3967 27.2802 51.4353 27.1763C51.4724 27.0724 51.505 26.967 51.5302 26.8601C51.5554 26.7518 51.5748 26.6435 51.5882 26.5336C51.6 26.4238 51.6074 26.3139 51.6074 26.2041C51.6074 26.0928 51.6 25.983 51.5882 25.8732C51.5748 25.7633 51.5554 25.6549 51.5302 25.5481C51.505 25.4412 51.4724 25.3344 51.4353 25.2305C51.3967 25.128 51.3536 25.0256 51.3032 24.9276C51.2542 24.8297 51.1978 24.7332 51.1369 24.6412C51.0761 24.5492 51.0108 24.4616 50.9395 24.377C50.8683 24.2924 50.7926 24.2123 50.7125 24.1366C50.6308 24.0609 50.5462 23.9896 50.4572 23.9243C50.3695 23.859 50.2761 23.7982 50.1811 23.7432C50.0846 23.6883 49.9867 23.6394 49.8843 23.5964C49.7833 23.5533 49.6794 23.5162 49.5741 23.485C49.4672 23.4538 49.3603 23.4286 49.252 23.4093C49.1421 23.3915 49.0323 23.3781 48.9224 23.3722C48.8126 23.3663 48.7013 23.3677 48.5915 23.3752C48.4816 23.3811 48.3718 23.3944 48.2634 23.4152C48.1551 23.4346 48.0482 23.4612 47.9414 23.4924C47.836 23.525 47.7336 23.5636 47.6327 23.6082C47.5303 23.6527 47.4323 23.7031 47.3373 23.7581C47.2422 23.8145 47.1502 23.8754 47.0627 23.9421C46.9737 24.0089 46.8905 24.0802 46.8104 24.1574C46.7302 24.2331 46.656 24.3147 46.5847 24.3993C46.515 24.4839 46.4497 24.573 46.3903 24.6665C46.331 24.7585 46.2761 24.8549 46.227 24.9544C46.1781 25.0539 46.135 25.1548 46.0994 25.2586H36.4786V24.3132H34.3146C34.1854 23.8769 34.0133 23.4568 33.795 23.0575L35.3253 21.5258L33.6437 19.8442V9.19324H53.4894V39.4346H2.45831V9.19324Z" fill="#0575AD"/>
</g>
<path d="M5.29409 13.9182H10.0184V21.4774C10.0184 21.6036 10.0436 21.7238 10.0912 21.8396C10.1387 21.9554 10.207 22.0578 10.296 22.1469C10.3851 22.2344 10.486 22.3027 10.6018 22.3517C10.7175 22.3992 10.8392 22.4229 10.9639 22.4229H16.6337C16.7599 22.4229 16.88 22.3992 16.9958 22.3517C17.1116 22.3027 17.2141 22.2344 17.3031 22.1469C17.3906 22.0578 17.4589 21.9554 17.5079 21.8396C17.5554 21.7238 17.5792 21.6036 17.5792 21.4774C17.5792 21.3528 17.5554 21.2326 17.5079 21.1168C17.4589 21.0011 17.3906 20.8986 17.3031 20.8096C17.2141 20.7205 17.1116 20.6523 16.9958 20.6047C16.88 20.5572 16.7599 20.5335 16.6337 20.5335H11.9093V12.9728C11.9093 12.8481 11.8856 12.7264 11.8366 12.6106C11.7891 12.4948 11.7208 12.3939 11.6318 12.3048C11.5442 12.2158 11.4418 12.1475 11.326 12.1C11.2103 12.0511 11.0901 12.0273 10.9639 12.0273H5.29409C5.16942 12.0273 5.04771 12.0511 4.93193 12.1C4.81616 12.1475 4.71375 12.2158 4.62618 12.3048C4.53713 12.3939 4.46885 12.4948 4.42136 12.6106C4.37237 12.7264 4.34863 12.8481 4.34863 12.9728C4.34863 13.0975 4.37237 13.2192 4.42136 13.3349C4.46885 13.4507 4.53713 13.5531 4.62618 13.6407C4.71375 13.7297 4.81616 13.798 4.93193 13.8455C5.04771 13.8945 5.16942 13.9182 5.29409 13.9182Z" fill="#0575AD"/>
<path d="M49.7099 12.0273H44.04C43.9139 12.0273 43.7937 12.0511 43.6779 12.1C43.5622 12.1475 43.4597 12.2158 43.3707 12.3048C43.2831 12.3939 43.2148 12.4948 43.1658 12.6106C43.1183 12.7264 43.0946 12.8481 43.0946 12.9728V20.5335H38.3688C38.2441 20.5335 38.1239 20.5572 38.0081 20.6047C37.8923 20.6523 37.7899 20.7205 37.7009 20.8096C37.6133 20.8986 37.545 21.0011 37.496 21.1168C37.4485 21.2326 37.4248 21.3528 37.4248 21.4774C37.4248 21.6036 37.4485 21.7238 37.496 21.8396C37.545 21.9554 37.6133 22.0578 37.7009 22.1469C37.7899 22.2344 37.8923 22.3027 38.0081 22.3517C38.1239 22.3992 38.2441 22.4229 38.3688 22.4229H44.04C44.1647 22.4229 44.285 22.3992 44.4007 22.3517C44.5165 22.3027 44.6189 22.2344 44.708 22.1469C44.797 22.0578 44.8653 21.9554 44.9128 21.8396C44.9603 21.7238 44.984 21.6036 44.984 21.4774V13.9182H49.7099C49.8345 13.9182 49.9563 13.8945 50.072 13.8455C50.1877 13.798 50.2887 13.7297 50.3778 13.6407C50.4668 13.5531 50.5351 13.4507 50.5825 13.3349C50.6301 13.2192 50.6553 13.0975 50.6553 12.9728C50.6553 12.8481 50.6301 12.7264 50.5825 12.6106C50.5351 12.4948 50.4668 12.3939 50.3778 12.3048C50.2887 12.2158 50.1877 12.1475 50.072 12.1C49.9563 12.0511 49.8345 12.0273 49.7099 12.0273Z" fill="#0575AD"/>
</g>
</g>
</g>
<defs>
<clipPath id="clip0_1_1358">
<rect width="55.91" height="55" fill="white" transform="translate(0.0195312 0.5)"/>
</clipPath>
<clipPath id="clip1_1_1358">
<rect width="55.91" height="55" fill="white" transform="translate(0.0195312 0.5)"/>
</clipPath>
<clipPath id="clip2_1_1358">
<rect width="55.9167" height="55" fill="white" transform="translate(0.0166016 0.5)"/>
</clipPath>
</defs>
</svg>
