<svg width="56" height="56" viewBox="0 0 56 56" fill="none" xmlns="http://www.w3.org/2000/svg">
<g clip-path="url(#clip0_1_1358)">
<g clip-path="url(#clip1_1_1358)">
<g clip-path="url(#clip2_1_1358)">
<mask id="mask0_1_1358" style="mask-type:luminance" maskUnits="userSpaceOnUse" x="0" y="0" width="56" height="56">
<path d="M0.475098 0.5H55.4751V55.5H0.475098V0.5Z" fill="white"/>
</mask>
<g mask="url(#mask0_1_1358)">
<path d="M1.51382 45.1045H22.305V51.7197H11.9094V55.5H44.0403V51.7197H33.6447V45.1045H54.4344C54.5605 45.1045 54.6808 45.0806 54.7966 45.0317C54.9123 44.9842 55.0147 44.9159 55.1038 44.8269C55.1914 44.7393 55.2597 44.6369 55.3086 44.5211C55.3561 44.4053 55.3798 44.2852 55.3798 44.1589V8.24927C55.3798 8.12311 55.3561 8.00289 55.3086 7.88711C55.2597 7.77135 55.1914 7.66894 55.1038 7.57987C55.0147 7.4923 54.9123 7.42403 54.7966 7.37505C54.6808 7.32756 54.5605 7.30381 54.4344 7.30381H33.6447V4.46891H42.32C42.3571 4.5728 42.3987 4.67374 42.4477 4.77318C42.4966 4.87263 42.5515 4.9691 42.6109 5.06112C42.6703 5.15463 42.7356 5.24368 42.8068 5.32828C42.8766 5.41289 42.9523 5.49452 43.031 5.57022C43.1112 5.64739 43.1958 5.71864 43.2833 5.78543C43.3709 5.85222 43.4629 5.91308 43.5579 5.96947C43.6529 6.02439 43.7523 6.07486 43.8532 6.11938C43.9541 6.16392 44.0581 6.2025 44.1635 6.23367C44.2688 6.26633 44.3757 6.29304 44.4841 6.31233C44.5924 6.33311 44.7022 6.34647 44.812 6.35241C44.9234 6.35984 45.0332 6.35984 45.1431 6.3539C45.2543 6.34796 45.3627 6.33608 45.4726 6.31827C45.5809 6.29898 45.6877 6.27374 45.7946 6.24258C45.9 6.21141 46.0039 6.1743 46.1063 6.13126C46.2073 6.08822 46.3052 6.03776 46.4017 5.98432C46.4982 5.92941 46.5902 5.86855 46.6792 5.80324C46.7668 5.73645 46.8529 5.66669 46.933 5.591C47.0132 5.5153 47.0889 5.43515 47.1602 5.35055C47.2314 5.26595 47.2981 5.17838 47.359 5.08636C47.4199 4.99433 47.4748 4.89785 47.5238 4.7999C47.5742 4.70045 47.6173 4.59952 47.6559 4.49563C47.6929 4.39173 47.7257 4.28634 47.7509 4.17948C47.7761 4.07261 47.7954 3.96279 47.8087 3.85295C47.8221 3.7446 47.8281 3.63328 47.8281 3.52345C47.8281 3.41361 47.8221 3.30229 47.8087 3.19394C47.7954 3.08412 47.7761 2.97428 47.7509 2.86742C47.7257 2.76055 47.6929 2.65517 47.6559 2.55127C47.6173 2.44737 47.5742 2.34645 47.5238 2.247C47.4748 2.14904 47.4199 2.05257 47.359 1.96054C47.2981 1.86853 47.2314 1.78095 47.1602 1.69635C47.0889 1.61175 47.0132 1.5316 46.933 1.45591C46.8529 1.38021 46.7668 1.31045 46.6792 1.24366C46.5902 1.17835 46.4982 1.11898 46.4017 1.06406C46.3052 1.00915 46.2073 0.958682 46.1063 0.915639C46.0039 0.872596 45.9 0.83549 45.7946 0.804321C45.6877 0.773152 45.5809 0.74792 45.4726 0.728625C45.3627 0.710815 45.2543 0.69894 45.1431 0.693003C45.0332 0.687067 44.9234 0.687067 44.812 0.694488C44.7022 0.700424 44.5924 0.715267 44.4841 0.734562C44.3757 0.753857 44.2688 0.780574 44.1635 0.813226C44.0581 0.844396 43.9541 0.882987 43.8532 0.927514C43.7523 0.972041 43.6529 1.0225 43.5579 1.07742C43.4629 1.13382 43.3709 1.19468 43.2833 1.26147C43.1958 1.32826 43.1112 1.3995 43.031 1.47668C42.9523 1.55238 42.8766 1.63402 42.8068 1.71861C42.7356 1.80321 42.6703 1.89227 42.6109 1.98578C42.5515 2.0778 42.4966 2.17427 42.4477 2.27372C42.3987 2.37316 42.3571 2.47409 42.32 2.57799H32.6992C32.5745 2.57799 32.4543 2.60174 32.3385 2.65072C32.2227 2.69821 32.1203 2.76648 32.0313 2.85554C31.9422 2.94459 31.8739 3.04553 31.8265 3.16129C31.779 3.27707 31.7552 3.39877 31.7552 3.52345V7.30381H24.1945V3.52345C24.1945 3.39877 24.1707 3.27707 24.1218 3.16129C24.0743 3.04553 24.006 2.94459 23.9169 2.85554C23.8294 2.76648 23.727 2.69821 23.6112 2.65072C23.4954 2.60174 23.3752 2.57799 23.249 2.57799H13.6297C13.5926 2.47409 13.5495 2.37316 13.5005 2.27372C13.4516 2.17427 13.3982 2.0778 13.3373 1.98578C13.2779 1.89227 13.2126 1.80321 13.1429 1.71861C13.0731 1.63402 12.9974 1.55238 12.9173 1.47668C12.8371 1.3995 12.754 1.32826 12.6664 1.26147C12.5774 1.19468 12.4853 1.13382 12.3904 1.07742C12.2953 1.0225 12.1974 0.972041 12.0965 0.927514C11.9956 0.882987 11.8916 0.844396 11.7863 0.813226C11.6809 0.780574 11.574 0.753857 11.4642 0.734562C11.3558 0.715267 11.246 0.700424 11.1362 0.694488C11.0263 0.687067 10.9165 0.687067 10.8052 0.693003C10.6954 0.69894 10.5855 0.710815 10.4771 0.728625C10.3673 0.74792 10.2604 0.773152 10.1551 0.804321C10.0482 0.83549 9.94434 0.872596 9.84341 0.915639C9.74249 0.958682 9.64303 1.00915 9.5465 1.06406C9.45154 1.11898 9.3595 1.17835 9.27049 1.24366C9.1814 1.31045 9.0968 1.38021 9.01665 1.45591C8.93502 1.5316 8.85932 1.61175 8.78808 1.69635C8.71684 1.78095 8.65153 1.86853 8.59068 1.96054C8.52983 2.05257 8.47491 2.14904 8.42444 2.247C8.37546 2.34645 8.33094 2.44737 8.29383 2.55127C8.25524 2.65517 8.22407 2.76055 8.19884 2.86742C8.17212 2.97428 8.15283 3.08412 8.14095 3.19394C8.12759 3.30229 8.12165 3.41361 8.12165 3.52345C8.12165 3.63328 8.12759 3.7446 8.14095 3.85295C8.15283 3.96279 8.17212 4.07261 8.19884 4.17948C8.22407 4.28634 8.25524 4.39173 8.29383 4.49563C8.33094 4.59952 8.37546 4.70045 8.42444 4.7999C8.47491 4.89785 8.52983 4.99433 8.59068 5.08636C8.65153 5.17838 8.71684 5.26595 8.78808 5.35055C8.85932 5.43515 8.93502 5.5153 9.01665 5.591C9.0968 5.66669 9.1814 5.73645 9.27049 5.80324C9.3595 5.86855 9.45154 5.92941 9.5465 5.98432C9.64303 6.03776 9.74249 6.08822 9.84341 6.13126C9.94434 6.1743 10.0482 6.21141 10.1551 6.24258C10.2604 6.27374 10.3673 6.29898 10.4771 6.31827C10.5855 6.33608 10.6954 6.34796 10.8052 6.3539C10.9165 6.35984 11.0263 6.35984 11.1362 6.35241C11.246 6.34647 11.3558 6.33311 11.4642 6.31233C11.574 6.29304 11.6809 6.26633 11.7863 6.23367C11.8916 6.2025 11.9956 6.16392 12.0965 6.11938C12.1974 6.07486 12.2953 6.02439 12.3904 5.96947C12.4853 5.91308 12.5774 5.85222 12.6664 5.78543C12.754 5.71864 12.8371 5.64739 12.9173 5.57022C12.9974 5.49452 13.0731 5.41289 13.1429 5.32828C13.2126 5.24368 13.2779 5.15463 13.3373 5.06112C13.3982 4.9691 13.4516 4.87263 13.5005 4.77318C13.5495 4.67374 13.5926 4.5728 13.6297 4.46891H22.305V7.30381H1.51382C1.38914 7.30381 1.26744 7.32756 1.15167 7.37505C1.03589 7.42403 0.934969 7.4923 0.845912 7.57987C0.756858 7.66894 0.688583 7.77135 0.641088 7.88711C0.593592 8.00289 0.568359 8.12311 0.568359 8.24927V44.1589C0.568359 44.2852 0.593592 44.4053 0.641088 44.5211C0.688583 44.6369 0.756858 44.7393 0.845912 44.8269C0.934969 44.9159 1.03589 44.9842 1.15167 45.0317C1.26744 45.0806 1.38914 45.1045 1.51382 45.1045ZM24.1945 9.19324H31.7552V19.7492L31.1214 20.3829C30.7207 20.1647 30.3021 19.9911 29.8643 19.8634V17.6994H26.0839V19.8634C25.6476 19.9911 25.2276 20.1647 24.8283 20.3829L24.1945 19.7492V9.19324ZM27.9749 22.4238C28.2228 22.4238 28.4691 22.4475 28.7125 22.4965C28.9559 22.5455 29.192 22.6167 29.4205 22.7117C29.6506 22.8067 29.8687 22.9224 30.0751 23.0605C30.2813 23.1985 30.4713 23.3558 30.648 23.531C30.8231 23.7062 30.979 23.8976 31.117 24.1039C31.255 24.3103 31.3722 24.5284 31.4673 24.757C31.5623 24.987 31.6335 25.2231 31.6824 25.4665C31.73 25.7098 31.7552 25.9562 31.7552 26.2041C31.7552 26.452 31.73 26.6984 31.6824 26.9418C31.6335 27.1852 31.5623 27.4212 31.4673 27.6498C31.3722 27.8799 31.255 28.098 31.117 28.3044C30.979 28.5106 30.8231 28.7006 30.648 28.8773C30.4713 29.0524 30.2813 29.2098 30.0751 29.3462C29.8687 29.4843 29.6506 29.6015 29.4205 29.6965C29.192 29.7916 28.9559 29.8628 28.7125 29.9117C28.4691 29.9592 28.2228 29.9845 27.9749 29.9845C27.727 29.9845 27.4806 29.9592 27.2372 29.9117C26.9938 29.8628 26.7577 29.7916 26.5278 29.6965C26.2991 29.6015 26.081 29.4843 25.8746 29.3462C25.6684 29.2098 25.4769 29.0524 25.3017 28.8773C25.1266 28.7006 24.9692 28.5106 24.8313 28.3044C24.6932 28.098 24.5775 27.8799 24.4824 27.6498C24.3874 27.4212 24.3162 27.1852 24.2673 26.9418C24.2182 26.6984 24.1945 26.452 24.1945 26.2041C24.1945 25.9562 24.2182 25.7098 24.2673 25.4665C24.3162 25.2231 24.3874 24.987 24.4824 24.757C24.5775 24.5284 24.6932 24.3103 24.8313 24.1039C24.9692 23.8976 25.1266 23.7062 25.3017 23.531C25.4769 23.3558 25.6684 23.1985 25.8746 23.0605C26.081 22.9224 26.2991 22.8067 26.5278 22.7117C26.7577 22.6167 26.9938 22.5455 27.2372 22.4965C27.4806 22.4475 27.727 22.4238 27.9749 22.4238ZM2.45929 9.19324H22.305V19.8442L20.6219 21.5258L22.1537 23.0575C21.9354 23.4568 21.7618 23.8769 21.6342 24.3132H19.4687V25.2586H9.84928C9.81224 25.1548 9.76916 25.0539 9.72021 24.9544C9.67273 24.8549 9.61773 24.7585 9.55842 24.6665C9.49755 24.573 9.43229 24.4839 9.36253 24.3993C9.29268 24.3147 9.21705 24.2331 9.13688 24.1574C9.05821 24.0802 8.97361 24.0089 8.88604 23.9421C8.79699 23.8754 8.70645 23.8145 8.60997 23.7581C8.51498 23.7031 8.41702 23.6527 8.3161 23.6082C8.21516 23.5636 8.11127 23.525 8.00589 23.4924C7.90051 23.4612 7.79364 23.4346 7.68529 23.4152C7.57546 23.3944 7.46711 23.3811 7.35579 23.3752C7.24595 23.3677 7.13612 23.3663 7.02481 23.3722C6.91497 23.3781 6.80514 23.3915 6.69679 23.4093C6.58844 23.4286 6.48009 23.4538 6.37471 23.485C6.26933 23.5162 6.16543 23.5533 6.06301 23.5964C5.96209 23.6394 5.86265 23.6883 5.76765 23.7432C5.67118 23.7982 5.57915 23.859 5.4901 23.9243C5.40104 23.9896 5.31644 24.0609 5.2363 24.1366C5.15615 24.2123 5.08045 24.2924 5.0092 24.377C4.93796 24.4616 4.87117 24.5492 4.81032 24.6412C4.74947 24.7332 4.69455 24.8297 4.64409 24.9276C4.5951 25.0256 4.55058 25.128 4.51347 25.2305C4.47488 25.3344 4.44371 25.4412 4.41848 25.5481C4.39177 25.6549 4.37395 25.7633 4.36059 25.8732C4.34723 25.983 4.34129 26.0928 4.34129 26.2041C4.34129 26.3139 4.34723 26.4238 4.36059 26.5336C4.37395 26.6435 4.39177 26.7518 4.41848 26.8601C4.44371 26.967 4.47488 27.0724 4.51347 27.1763C4.55058 27.2802 4.5951 27.3811 4.64409 27.4806C4.69455 27.5785 4.74947 27.6735 4.81032 27.767C4.87117 27.859 4.93796 27.9466 5.0092 28.0312C5.08045 28.1158 5.15615 28.196 5.2363 28.2716C5.31644 28.3474 5.40104 28.4171 5.4901 28.4825C5.57915 28.5492 5.67118 28.6086 5.76765 28.6635C5.86265 28.7184 5.96209 28.7674 6.06301 28.8119C6.16543 28.855 6.26933 28.892 6.37471 28.9233C6.48009 28.9545 6.58844 28.9797 6.69679 28.9974C6.80514 29.0168 6.91497 29.0286 7.02481 29.0346C7.13612 29.0405 7.24595 29.0405 7.35579 29.0331C7.46711 29.0257 7.57546 29.0123 7.68529 28.9931C7.79364 28.9737 7.90051 28.947 8.00589 28.9143C8.11127 28.8831 8.21516 28.8446 8.3161 28.8001C8.41702 28.7555 8.51498 28.705 8.60997 28.6487C8.70645 28.5938 8.79699 28.5314 8.88604 28.4661C8.97361 28.3993 9.05821 28.3281 9.13688 28.2509C9.21705 28.1752 9.29268 28.0935 9.36253 28.0089C9.43229 27.9228 9.49755 27.8338 9.55842 27.7418C9.61773 27.6483 9.67273 27.5533 9.72021 27.4539C9.76916 27.3544 9.81224 27.2535 9.84928 27.1495H19.4687V28.0935H21.6342C21.7618 28.5314 21.9354 28.95 22.1537 29.3507L20.6219 30.9285L23.2965 33.6031L24.8283 32.0728C25.2276 32.291 25.6476 32.4632 26.0839 32.5923V34.7088H29.8643V32.5448C30.3021 32.4172 30.7207 32.2435 31.1214 32.0253L32.6992 33.5556L35.3263 30.9285L33.796 29.3982C34.0172 28.9826 34.1908 28.5477 34.3156 28.0935H36.4795V27.1495H46.1004C46.136 27.2535 46.1791 27.3544 46.228 27.4539C46.2771 27.5533 46.3304 27.6483 46.3913 27.7418C46.4507 27.8338 46.5159 27.9228 46.5857 28.0089C46.657 28.0935 46.7312 28.1752 46.8114 28.2509C46.8915 28.3281 46.9746 28.3993 47.0637 28.4661C47.1512 28.5314 47.2432 28.5938 47.3383 28.6487C47.4333 28.705 47.5312 28.7555 47.6336 28.8001C47.7346 28.8446 47.837 28.8831 47.9424 28.9143C48.0492 28.947 48.156 28.9737 48.2644 28.9931C48.3727 29.0123 48.4826 29.0257 48.5925 29.0331C48.7023 29.0405 48.8136 29.0405 48.9234 29.0346C49.0333 29.0286 49.1431 29.0168 49.2529 28.9974C49.3613 28.9797 49.4682 28.9545 49.575 28.9233C49.6804 28.892 49.7843 28.855 49.8852 28.8119C49.9876 28.7674 50.0855 28.7184 50.1821 28.6635C50.277 28.6086 50.3705 28.5492 50.4582 28.4825C50.5472 28.4171 50.6318 28.3474 50.7135 28.2716C50.7936 28.196 50.8693 28.1158 50.9405 28.0312C51.0117 27.9466 51.0771 27.859 51.1379 27.767C51.1987 27.6735 51.2552 27.5785 51.3042 27.4806C51.3546 27.3811 51.3977 27.2802 51.4362 27.1763C51.4734 27.0724 51.506 26.967 51.5312 26.8601C51.5564 26.7518 51.5758 26.6435 51.5891 26.5336C51.601 26.4238 51.6084 26.3139 51.6084 26.2041C51.6084 26.0928 51.601 25.983 51.5891 25.8732C51.5758 25.7633 51.5564 25.6549 51.5312 25.5481C51.506 25.4412 51.4734 25.3344 51.4362 25.2305C51.3977 25.128 51.3546 25.0256 51.3042 24.9276C51.2552 24.8297 51.1987 24.7332 51.1379 24.6412C51.0771 24.5492 51.0117 24.4616 50.9405 24.377C50.8693 24.2924 50.7936 24.2123 50.7135 24.1366C50.6318 24.0609 50.5472 23.9896 50.4582 23.9243C50.3705 23.859 50.277 23.7982 50.1821 23.7432C50.0855 23.6883 49.9876 23.6394 49.8852 23.5964C49.7843 23.5533 49.6804 23.5162 49.575 23.485C49.4682 23.4538 49.3613 23.4286 49.2529 23.4093C49.1431 23.3915 49.0333 23.3781 48.9234 23.3722C48.8136 23.3663 48.7023 23.3677 48.5925 23.3752C48.4826 23.3811 48.3727 23.3944 48.2644 23.4152C48.156 23.4346 48.0492 23.4612 47.9424 23.4924C47.837 23.525 47.7346 23.5636 47.6336 23.6082C47.5312 23.6527 47.4333 23.7031 47.3383 23.7581C47.2432 23.8145 47.1512 23.8754 47.0637 23.9421C46.9746 24.0089 46.8915 24.0802 46.8114 24.1574C46.7312 24.2331 46.657 24.3147 46.5857 24.3993C46.5159 24.4839 46.4507 24.573 46.3913 24.6665C46.332 24.7585 46.2771 24.8549 46.228 24.9544C46.1791 25.0539 46.136 25.1548 46.1004 25.2586H36.4795V24.3132H34.3156C34.1864 23.8769 34.0143 23.4568 33.796 23.0575L35.3263 21.5258L33.6447 19.8442V9.19324H53.4904V39.4346H2.45929V9.19324Z" fill="white"/>
</g>
<path d="M5.29409 13.9182H10.0184V21.4774C10.0184 21.6036 10.0436 21.7238 10.0912 21.8396C10.1387 21.9554 10.207 22.0578 10.296 22.1469C10.3851 22.2344 10.486 22.3027 10.6018 22.3517C10.7175 22.3992 10.8392 22.4229 10.9639 22.4229H16.6337C16.7599 22.4229 16.88 22.3992 16.9958 22.3517C17.1116 22.3027 17.2141 22.2344 17.3031 22.1469C17.3906 22.0578 17.4589 21.9554 17.5079 21.8396C17.5554 21.7238 17.5792 21.6036 17.5792 21.4774C17.5792 21.3528 17.5554 21.2326 17.5079 21.1168C17.4589 21.0011 17.3906 20.8986 17.3031 20.8096C17.2141 20.7205 17.1116 20.6523 16.9958 20.6047C16.88 20.5572 16.7599 20.5335 16.6337 20.5335H11.9093V12.9728C11.9093 12.8481 11.8856 12.7264 11.8366 12.6106C11.7891 12.4948 11.7208 12.3939 11.6318 12.3048C11.5442 12.2158 11.4418 12.1475 11.326 12.1C11.2103 12.0511 11.0901 12.0273 10.9639 12.0273H5.29409C5.16942 12.0273 5.04771 12.0511 4.93193 12.1C4.81616 12.1475 4.71375 12.2158 4.62618 12.3048C4.53713 12.3939 4.46885 12.4948 4.42136 12.6106C4.37237 12.7264 4.34863 12.8481 4.34863 12.9728C4.34863 13.0975 4.37237 13.2192 4.42136 13.3349C4.46885 13.4507 4.53713 13.5531 4.62618 13.6407C4.71375 13.7297 4.81616 13.798 4.93193 13.8455C5.04771 13.8945 5.16942 13.9182 5.29409 13.9182Z" fill="white"/>
<path d="M49.7094 12.0273H44.0395C43.9134 12.0273 43.7932 12.0511 43.6774 12.1C43.5617 12.1475 43.4592 12.2158 43.3702 12.3048C43.2826 12.3939 43.2143 12.4948 43.1653 12.6106C43.1178 12.7264 43.0941 12.8481 43.0941 12.9728V20.5335H38.3683C38.2436 20.5335 38.1234 20.5572 38.0076 20.6047C37.8918 20.6523 37.7894 20.7205 37.7004 20.8096C37.6128 20.8986 37.5445 21.0011 37.4955 21.1168C37.4481 21.2326 37.4243 21.3528 37.4243 21.4774C37.4243 21.6036 37.4481 21.7238 37.4955 21.8396C37.5445 21.9554 37.6128 22.0578 37.7004 22.1469C37.7894 22.2344 37.8918 22.3027 38.0076 22.3517C38.1234 22.3992 38.2436 22.4229 38.3683 22.4229H44.0395C44.1642 22.4229 44.2845 22.3992 44.4002 22.3517C44.516 22.3027 44.6184 22.2344 44.7075 22.1469C44.7965 22.0578 44.8648 21.9554 44.9123 21.8396C44.9598 21.7238 44.9835 21.6036 44.9835 21.4774V13.9182H49.7094C49.8341 13.9182 49.9558 13.8945 50.0715 13.8455C50.1872 13.798 50.2882 13.7297 50.3773 13.6407C50.4663 13.5531 50.5346 13.4507 50.5821 13.3349C50.6296 13.2192 50.6548 13.0975 50.6548 12.9728C50.6548 12.8481 50.6296 12.7264 50.5821 12.6106C50.5346 12.4948 50.4663 12.3939 50.3773 12.3048C50.2882 12.2158 50.1872 12.1475 50.0715 12.1C49.9558 12.0511 49.8341 12.0273 49.7094 12.0273Z" fill="white"/>
</g>
</g>
</g>
<defs>
<clipPath id="clip0_1_1358">
<rect width="55.91" height="55" fill="white" transform="translate(0.0200195 0.5)"/>
</clipPath>
<clipPath id="clip1_1_1358">
<rect width="55.91" height="55" fill="white" transform="translate(0.0200195 0.5)"/>
</clipPath>
<clipPath id="clip2_1_1358">
<rect width="55.9167" height="55" fill="white" transform="translate(0.0166016 0.5)"/>
</clipPath>
</defs>
</svg>
