<svg width="56" height="56" viewBox="0 0 56 56" fill="none" xmlns="http://www.w3.org/2000/svg">
<g clip-path="url(#clip0_1_1462)">
<g clip-path="url(#clip1_1_1462)">
<mask id="mask0_1_1462" style="mask-type:luminance" maskUnits="userSpaceOnUse" x="0" y="0" width="56" height="56">
<path d="M0.920898 0.950928H55.0193V55.0493H0.920898V0.950928Z" fill="white"/>
</mask>
<g mask="url(#mask0_1_1462)">
<path fill-rule="evenodd" clip-rule="evenodd" d="M16.0703 52.0245H21.2163C22.0071 52.0245 22.6617 51.3241 22.6617 50.4668V49.2693H33.27V50.4668C33.27 51.3241 33.9237 52.0245 34.7239 52.0245H39.8689C41.3913 52.0245 42.7072 52.577 43.8183 53.6828C44.0409 53.9133 44.1103 54.2363 43.9976 54.5392C43.8868 54.8441 43.6192 55.0373 43.3186 55.0373H12.6122C12.3116 55.0373 12.0533 54.8441 11.9415 54.5392C11.8298 54.2363 11.8984 53.9133 12.1219 53.6828C13.2227 52.577 14.5478 52.0245 16.0703 52.0245ZM18.8935 4.47206H25.1534C25.2539 4.47206 25.3356 4.55356 25.3356 4.65218V5.47935C25.3356 5.57797 25.2539 5.65948 25.1534 5.65948H18.8935C18.794 5.65948 18.7114 5.57897 18.7114 5.47935V4.65218C18.7114 4.55255 18.7931 4.47206 18.8935 4.47206ZM13.1917 1.37166H13.6622C13.7946 1.37166 13.9026 1.48739 13.9026 1.62827V22.2814C13.9026 22.8732 13.9928 23.0442 14.5742 23.0442H26.3303C26.8177 23.0442 27.4676 22.9305 27.8856 22.4958C27.9325 22.4465 28.0067 22.4465 28.0537 22.4958C28.4717 22.9305 29.1225 23.0442 29.609 23.0442H41.3651C41.9464 23.0442 42.0366 22.8732 42.0366 22.2814V1.62827C42.0366 1.48739 42.1456 1.37166 42.277 1.37166H42.7476C43.0979 1.37166 43.3843 1.67858 43.3843 2.05393V22.9054C43.3843 23.7607 42.957 24.7891 41.9202 24.7891H28.8577C28.5383 24.7891 28.295 24.455 28.2425 24.2286L28.2049 24.0626C28.1955 24.0223 28.1738 23.3753 27.9701 23.3903C27.7653 23.3753 27.7438 24.0223 27.7343 24.0626L27.6968 24.2286C27.6441 24.455 27.401 24.7891 27.0816 24.7891H14.0191C12.9831 24.7891 12.5548 23.7607 12.5548 22.9054V2.05393C12.5548 1.67858 12.8413 1.37166 13.1917 1.37166ZM16.1398 22.0903H15.6806C15.4607 22.0903 15.2814 21.897 15.2814 21.6615V1.39179C15.2814 1.15531 15.4607 0.964111 15.6806 0.964111H25.4164C26.3847 0.964111 27.2657 1.38776 27.9025 2.07003C27.9626 2.13544 28.0208 2.20185 28.0781 2.27229C28.1335 2.20185 28.1927 2.13544 28.2527 2.07003C28.8905 1.38776 29.7706 0.964111 30.7398 0.964111H40.4737C40.6945 0.964111 40.8739 1.15531 40.8739 1.39179V21.6615C40.8739 21.897 40.6945 22.0903 40.4737 22.0903H30.4956C29.4343 22.0903 28.8163 22.0852 28.2782 21.2168C28.2321 21.1423 28.1608 21.1011 28.0781 21.1021C27.9954 21.1021 27.9231 21.1444 27.8771 21.2178C27.3868 22.0218 26.8355 22.0872 25.7207 22.0903H16.1398ZM27.2187 7.89345V4.73368C27.2187 4.20337 27.0168 3.72035 26.689 3.36915C26.3631 3.01997 25.9114 2.80161 25.4164 2.80161H17.1579C17.0696 2.80161 16.9973 2.87808 16.9973 2.97267V19.4074C16.9973 19.5031 17.0696 19.5796 17.1579 19.5796H26.8205C27.0403 19.5796 27.2187 19.3863 27.2187 19.1508V7.89345ZM38.9983 2.80161H30.7398C30.2439 2.80161 29.7931 3.01997 29.4663 3.36915C29.1384 3.72035 28.9356 4.20337 28.9356 4.73368V19.1508C28.9356 19.3863 29.115 19.5796 29.3357 19.5796H38.9983C39.0856 19.5796 39.1579 19.5031 39.1579 19.4074V2.97267C39.1579 2.87808 39.0856 2.80161 38.9983 2.80161ZM31.2085 4.47206H37.4692C37.5688 4.47206 37.6514 4.55356 37.6514 4.65218V5.47935C37.6514 5.57797 37.5688 5.65948 37.4692 5.65948H31.2085C31.1099 5.65948 31.0272 5.57897 31.0272 5.47935V4.65218C31.0272 4.55255 31.109 4.47206 31.2085 4.47206ZM31.2085 16.1129H35.4809C35.5805 16.1129 35.6622 16.1944 35.6622 16.293V17.1212C35.6622 17.2198 35.5796 17.3013 35.4809 17.3013H31.2085C31.1099 17.3013 31.0272 17.2198 31.0272 17.1212V16.293C31.0272 16.1934 31.109 16.1129 31.2085 16.1129ZM31.2085 13.2026H37.4692C37.5688 13.2026 37.6514 13.2841 37.6514 13.3828V14.2099C37.6514 14.3086 37.5688 14.3901 37.4692 14.3901H31.2085C31.1099 14.3901 31.0272 14.3096 31.0272 14.2099V13.3828C31.0272 13.2831 31.109 13.2026 31.2085 13.2026ZM31.2085 10.2925H37.4692C37.5688 10.2925 37.6514 10.374 37.6514 10.4735V11.3008C37.6514 11.3994 37.5688 11.4799 37.4692 11.4799H31.2085C31.1099 11.4799 31.0272 11.3994 31.0272 11.3008V10.4735C31.0272 10.374 31.109 10.2925 31.2085 10.2925ZM31.2085 7.38226H37.4692C37.5688 7.38226 37.6514 7.46276 37.6514 7.56238V8.38955C37.6514 8.48817 37.5688 8.56968 37.4692 8.56968H31.2085C31.1099 8.56968 31.0272 8.48817 31.0272 8.38955V7.56238C31.0272 7.46276 31.109 7.38226 31.2085 7.38226ZM18.8935 16.1129H23.1651C23.2656 16.1129 23.3473 16.1944 23.3473 16.293V17.1212C23.3473 17.2198 23.2647 17.3013 23.1651 17.3013H18.8935C18.794 17.3013 18.7114 17.2198 18.7114 17.1212V16.293C18.7114 16.1934 18.7931 16.1129 18.8935 16.1129ZM18.8935 13.2026H25.1534C25.2539 13.2026 25.3356 13.2841 25.3356 13.3828V14.2099C25.3356 14.3086 25.2539 14.3901 25.1534 14.3901H18.8935C18.794 14.3901 18.7114 14.3096 18.7114 14.2099V13.3828C18.7114 13.2831 18.7931 13.2026 18.8935 13.2026ZM18.8935 10.2925H25.1534C25.2539 10.2925 25.3356 10.374 25.3356 10.4735V11.3008C25.3356 11.3994 25.2539 11.4799 25.1534 11.4799H18.8935C18.794 11.4799 18.7114 11.3994 18.7114 11.3008V10.4735C18.7114 10.374 18.7931 10.2925 18.8935 10.2925ZM18.8935 7.38226H25.1534C25.2539 7.38226 25.3356 7.46276 25.3356 7.56238V8.38955C25.3356 8.48817 25.2539 8.56968 25.1534 8.56968H18.8935C18.794 8.56968 18.7114 8.48817 18.7114 8.38955V7.56238C18.7114 7.46276 18.7931 7.38226 18.8935 7.38226ZM8.56417 28.9421V30.0048H9.98986C10.0453 30.0048 10.096 30.0219 10.1364 30.0571C10.1815 30.0923 10.2106 30.1376 10.2294 30.1869C10.2529 30.2423 10.2641 30.3047 10.2716 30.364C10.2801 30.4355 10.282 30.5109 10.282 30.5843C10.282 30.6588 10.2811 30.7364 10.2716 30.8108C10.2641 30.8692 10.2529 30.9295 10.2312 30.9788C10.2087 31.0362 10.1778 31.0845 10.1336 31.1127C10.0904 31.1459 10.0415 31.1609 9.98986 31.1609H8.56417V32.435H10.2942C10.3487 32.435 10.4003 32.4531 10.4407 32.4873C10.4849 32.5225 10.5149 32.5708 10.5355 32.6241C10.5572 32.6775 10.5684 32.7388 10.5759 32.7972C10.5854 32.8717 10.5863 32.9502 10.5863 33.0256C10.5863 33.1011 10.5854 33.1796 10.5759 33.2551C10.5684 33.3134 10.5572 33.3738 10.5355 33.4282C10.5149 33.4825 10.4858 33.5288 10.4436 33.562C10.4003 33.5983 10.3487 33.6164 10.2942 33.6164H7.68789C7.57236 33.6164 7.46529 33.5791 7.37701 33.4976C7.27182 33.4 7.23895 33.2561 7.23895 33.1142V28.2629C7.23895 28.121 7.27182 27.9771 7.37701 27.8794C7.46529 27.7979 7.57236 27.7607 7.68789 27.7607H10.2811C10.3337 27.7607 10.3825 27.7768 10.4304 27.8131C10.4717 27.8472 10.4999 27.8956 10.5225 27.9549C10.5403 28.0093 10.5525 28.0646 10.5591 28.123C10.5684 28.1984 10.5703 28.2789 10.5703 28.3554C10.5703 28.4309 10.5684 28.5053 10.5591 28.5798C10.5525 28.6382 10.5403 28.6996 10.5196 28.7539C10.4999 28.8032 10.4727 28.8485 10.4304 28.8877C10.3872 28.924 10.3355 28.9421 10.2811 28.9421H8.56417ZM13.3016 31.3048C13.3016 31.4307 13.295 31.5998 13.2433 31.7184C13.1907 31.8322 13.0987 31.8996 12.9794 31.8996H11.3076C11.1845 31.8996 11.0897 31.8322 11.039 31.7145C10.9882 31.5987 10.9808 31.4307 10.9808 31.3048C10.9808 31.1801 10.9882 31.0151 11.039 30.9014C11.0897 30.7857 11.1864 30.7182 11.3076 30.7182H12.9794C13.0339 30.7182 13.0864 30.7313 13.1306 30.7604C13.1813 30.7916 13.217 30.839 13.2442 30.8963C13.2696 30.9537 13.2827 31.0181 13.2903 31.0784C13.2997 31.1539 13.3016 31.2294 13.3016 31.3048ZM15.3809 32.3917H16.8761C16.9325 32.3917 16.986 32.4078 17.0273 32.444C17.0743 32.4792 17.1034 32.5285 17.1232 32.5818C17.1448 32.6382 17.1551 32.7017 17.1626 32.763C17.1711 32.8405 17.1729 32.92 17.1729 32.9975C17.1729 33.0759 17.1711 33.1564 17.1626 33.2329C17.1551 33.2933 17.1438 33.3526 17.1251 33.4101C17.1053 33.4684 17.0762 33.5228 17.0302 33.5589C16.9851 33.5973 16.9335 33.6164 16.8761 33.6164H14.4963C14.3807 33.6164 14.2736 33.5791 14.1854 33.4976C14.081 33.4 14.0482 33.2561 14.0482 33.1142V28.0606C14.0482 27.9982 14.067 27.9388 14.1074 27.8865C14.1459 27.8402 14.1975 27.81 14.252 27.7889C14.3111 27.7667 14.3798 27.7567 14.4436 27.7476C14.5329 27.7376 14.6239 27.7335 14.7151 27.7335C14.8052 27.7335 14.8991 27.7366 14.9884 27.7476C15.0513 27.7567 15.1179 27.7667 15.1772 27.7889C15.2316 27.81 15.2833 27.8402 15.3246 27.8915C15.3612 27.9398 15.3809 27.9982 15.3809 28.0606V32.3917ZM19.0692 28.9421V30.0048H20.4949C20.5503 30.0048 20.6011 30.0219 20.6415 30.0571C20.6856 30.0923 20.7157 30.1376 20.7344 30.1869C20.7589 30.2423 20.7691 30.3047 20.7767 30.364C20.7852 30.4355 20.787 30.5109 20.787 30.5843C20.787 30.6588 20.7852 30.7364 20.7767 30.8108C20.7691 30.8692 20.7579 30.9295 20.7363 30.9788C20.7138 31.0362 20.6828 31.0845 20.6377 31.1127C20.5954 31.1459 20.5475 31.1609 20.4949 31.1609H19.0692V32.435H20.7993C20.8528 32.435 20.9044 32.4531 20.9458 32.4873C20.9899 32.5225 21.02 32.5708 21.0406 32.6241C21.0632 32.6775 21.0734 32.7388 21.081 32.7972C21.0895 32.8717 21.0913 32.9502 21.0913 33.0256C21.0913 33.1011 21.0895 33.1796 21.081 33.2551C21.0734 33.3134 21.0632 33.3738 21.0406 33.4282C21.02 33.4825 20.9908 33.5288 20.9477 33.562C20.9054 33.5983 20.8528 33.6164 20.7993 33.6164H18.193C18.0774 33.6164 17.9704 33.5791 17.8821 33.4976C17.7769 33.4 17.744 33.2561 17.744 33.1142V28.2629C17.744 28.121 17.7769 27.9771 17.8821 27.8794C17.9704 27.7979 18.0774 27.7607 18.193 27.7607H20.7861C20.8378 27.7607 20.8875 27.7768 20.9345 27.8131C20.9758 27.8472 21.0049 27.8956 21.0275 27.9549C21.0453 28.0093 21.0566 28.0646 21.0641 28.123C21.0734 28.1984 21.0744 28.2789 21.0744 28.3554C21.0744 28.4309 21.0734 28.5053 21.0641 28.5798C21.0566 28.6382 21.0462 28.6996 21.0247 28.7539C21.0049 28.8032 20.9786 28.8485 20.9345 28.8877C20.8913 28.924 20.8405 28.9421 20.7861 28.9421H19.0692ZM24.7702 32.3484H23.0092L22.7142 33.3306C22.7002 33.3829 22.6823 33.4312 22.6551 33.4704C22.6194 33.5298 22.5668 33.5661 22.5067 33.5922C22.4438 33.6184 22.3705 33.6285 22.3029 33.6344C22.2071 33.6415 22.1094 33.6435 22.0127 33.6435C21.9122 33.6435 21.8079 33.6415 21.7084 33.6294C21.622 33.6184 21.5355 33.5891 21.4774 33.5177C21.4191 33.4452 21.4032 33.3526 21.4172 33.2591C21.4285 33.1716 21.4557 33.079 21.483 32.9924L23.0825 28.0576C23.1003 28.0002 23.1247 27.9449 23.1585 27.8985C23.1999 27.8372 23.2609 27.801 23.3275 27.7768C23.4008 27.7527 23.4816 27.7446 23.5577 27.7396C23.6694 27.7335 23.7831 27.7335 23.8948 27.7335C24.0216 27.7335 24.1494 27.7335 24.2771 27.7396C24.3588 27.7436 24.449 27.7517 24.5288 27.7768C24.5974 27.7979 24.6631 27.8342 24.7129 27.9006C24.7486 27.9539 24.773 28.0112 24.7899 28.0707L26.395 33.0035C26.4222 33.089 26.4486 33.1836 26.4607 33.2732C26.4739 33.3688 26.457 33.4644 26.3866 33.5388C26.3218 33.6012 26.2325 33.6234 26.1489 33.6314C26.0437 33.6425 25.9339 33.6435 25.8287 33.6435C25.7207 33.6435 25.6108 33.6435 25.5018 33.6375C25.4342 33.6324 25.3591 33.6264 25.2943 33.6043C25.2341 33.5841 25.1797 33.5519 25.144 33.5026C25.1131 33.4604 25.0923 33.4121 25.0801 33.3647L24.7702 32.3484ZM28.4021 31.3371V33.3165C28.4021 33.3799 28.3833 33.4392 28.3458 33.4846C28.3082 33.5359 28.2556 33.5661 28.1946 33.5891C28.1353 33.6093 28.0715 33.6203 28.0105 33.6294C27.9203 33.6404 27.8283 33.6435 27.7391 33.6435C27.6489 33.6435 27.5569 33.6395 27.4676 33.6294C27.4057 33.6203 27.3408 33.6093 27.277 33.5882C27.2206 33.5661 27.1652 33.5338 27.1286 33.4815C27.0957 33.4332 27.0769 33.3768 27.0769 33.3165V28.2629C27.0769 28.121 27.1097 27.9771 27.215 27.8794C27.3032 27.7979 27.4103 27.7607 27.5267 27.7607H28.8717C28.9863 27.7607 29.1028 27.7618 29.2164 27.7698C29.2991 27.7748 29.3817 27.7819 29.4691 27.7919C29.6738 27.8231 29.8767 27.8784 30.0664 27.966C30.2411 28.0455 30.4007 28.1551 30.5351 28.299C30.6665 28.441 30.7661 28.605 30.8337 28.7922C30.907 28.9944 30.9342 29.2138 30.9342 29.4311C30.9342 29.6163 30.9136 29.8045 30.8619 29.9826C30.814 30.1477 30.7426 30.3006 30.645 30.4385C30.5482 30.5753 30.4289 30.689 30.2946 30.7836C30.2299 30.8299 30.1612 30.8702 30.0917 30.9064V30.9074C30.1744 30.9758 30.2448 31.0564 30.3088 31.1429C30.3782 31.2375 30.4392 31.3381 30.4928 31.4427C30.5538 31.5625 30.6074 31.6873 30.6544 31.81L31.0967 32.9139C31.1258 32.9954 31.1596 33.085 31.1794 33.1656C31.1925 33.2159 31.2056 33.2722 31.2056 33.3245C31.2056 33.3768 31.1962 33.4282 31.1728 33.4735C31.1399 33.5378 31.0835 33.5741 31.0159 33.5983C30.9502 33.6194 30.8779 33.6294 30.8102 33.6344C30.7013 33.6415 30.5914 33.6435 30.4834 33.6435C30.3904 33.6435 30.2965 33.6415 30.2035 33.6344C30.1387 33.6285 30.0673 33.6174 30.0072 33.5922C29.9499 33.5681 29.8982 33.5338 29.8597 33.4754C29.8372 33.4382 29.8203 33.399 29.8072 33.3598L29.3395 32.1189C29.2906 31.9962 29.2381 31.8724 29.1807 31.7537C29.1384 31.6671 29.0868 31.5836 29.0239 31.5132C28.9713 31.4548 28.9112 31.4115 28.8417 31.3814C28.7647 31.3481 28.6782 31.3371 28.5956 31.3371H28.4021ZM33.1479 29.895C33.1517 30.0631 33.1526 30.2312 33.1526 30.4002V33.3124C33.1526 33.3688 33.1367 33.4251 33.1047 33.4754C33.0709 33.5248 33.023 33.5579 32.9714 33.5811C32.915 33.6073 32.8493 33.6203 32.7892 33.6285C32.7056 33.6404 32.6182 33.6435 32.5346 33.6435C32.4501 33.6435 32.3647 33.6395 32.281 33.6285C32.2218 33.6203 32.1571 33.6083 32.1045 33.5831C32.0481 33.5579 31.9974 33.5207 31.9683 33.4674C31.9411 33.4211 31.926 33.3678 31.926 33.3124V28.3121C31.926 28.1532 31.9692 28.0032 32.0847 27.8966C32.1871 27.802 32.3111 27.7607 32.4454 27.7607H33.0108C33.1075 27.7607 33.209 27.7667 33.3029 27.793C33.3865 27.816 33.4645 27.8543 33.5339 27.9096C33.6091 27.966 33.6711 28.0424 33.7227 28.124C33.7829 28.2175 33.8335 28.3202 33.8786 28.4209L34.8883 30.4556C34.9465 30.5773 35.0029 30.6981 35.062 30.8189C35.1203 30.9386 35.1757 31.0583 35.2302 31.1801C35.2395 31.2022 35.2489 31.2244 35.2593 31.2475C35.2565 31.0593 35.2555 30.8731 35.2555 30.686V28.0736C35.2555 28.0133 35.2734 27.956 35.3063 27.9106C35.3391 27.8613 35.3889 27.8271 35.4415 27.802C35.4997 27.7748 35.5664 27.7618 35.6293 27.7546C35.7129 27.7446 35.7984 27.7426 35.882 27.7426C35.9637 27.7426 36.0463 27.7446 36.1271 27.7546C36.191 27.7618 36.2577 27.7748 36.3149 27.805C36.3647 27.8312 36.4126 27.8684 36.4399 27.9187C36.468 27.965 36.4821 28.0184 36.4821 28.0736V33.0739C36.4821 33.1545 36.468 33.2329 36.438 33.3124C36.4089 33.3809 36.3694 33.4402 36.3168 33.4906C36.2652 33.5388 36.2041 33.5751 36.1374 33.5952C36.0764 33.6153 36.0125 33.6254 35.9487 33.6254H35.4969C35.4039 33.6254 35.3091 33.6164 35.2151 33.5901C35.1268 33.563 35.047 33.5147 34.9775 33.4513C34.9005 33.3809 34.8366 33.2943 34.7831 33.2028C34.7145 33.086 34.6535 32.9612 34.5971 32.8425L33.3067 30.2392C33.2531 30.1255 33.1996 30.0108 33.1479 29.895ZM38.895 33.3165C38.895 33.3789 38.8743 33.4372 38.8348 33.4906C38.7972 33.5368 38.7447 33.5671 38.6864 33.5891C38.6282 33.6093 38.5634 33.6203 38.5024 33.6294C38.4122 33.6404 38.3183 33.6435 38.2281 33.6435C38.1389 33.6435 38.0459 33.6395 37.9566 33.6294C37.8947 33.6203 37.828 33.6093 37.766 33.5882C37.7106 33.5671 37.658 33.5368 37.6185 33.4865C37.581 33.4382 37.5613 33.3789 37.5613 33.3165V28.0606C37.5613 27.9982 37.581 27.9388 37.6204 27.8865C37.6599 27.8382 37.7144 27.808 37.7707 27.7879C37.8299 27.7667 37.8956 27.7567 37.9576 27.7476C38.0468 27.7376 38.1389 27.7335 38.2281 27.7335C38.3183 27.7335 38.4122 27.7366 38.5024 27.7476C38.5643 27.7567 38.6301 27.7667 38.6902 27.7889C38.7447 27.81 38.7972 27.8402 38.8386 27.8915C38.8743 27.9398 38.895 27.9982 38.895 28.0606V33.3165ZM41.196 29.895C41.1988 30.0631 41.2007 30.2312 41.2007 30.4002V33.3124C41.2007 33.3688 41.1857 33.4251 41.1528 33.4754C41.119 33.5248 41.0711 33.5579 41.0194 33.5811C40.9622 33.6073 40.8973 33.6203 40.8372 33.6285C40.7536 33.6404 40.6663 33.6435 40.5818 33.6435C40.4982 33.6435 40.4127 33.6395 40.33 33.6285C40.269 33.6203 40.206 33.6083 40.1526 33.5831C40.0962 33.5579 40.0455 33.5207 40.0154 33.4674C39.9891 33.4211 39.9741 33.3678 39.9741 33.3124V28.3121C39.9741 28.1532 40.0173 28.0032 40.1328 27.8966C40.2352 27.802 40.3591 27.7607 40.4935 27.7607H41.0589C41.1557 27.7607 41.2571 27.7667 41.3509 27.793C41.4345 27.816 41.5116 27.8543 41.582 27.9096C41.6571 27.966 41.7192 28.0424 41.7708 28.124C41.8309 28.2175 41.8817 28.3202 41.9267 28.4209L42.9364 30.4556C42.9945 30.5773 43.0519 30.6981 43.1101 30.8189C43.1684 30.9386 43.2237 31.0583 43.2782 31.1801C43.2876 31.2022 43.297 31.2244 43.3073 31.2475C43.3036 31.0593 43.3036 30.8731 43.3036 30.686V28.0736C43.3036 28.0133 43.3214 27.956 43.3543 27.9106C43.3881 27.8613 43.4379 27.8271 43.4895 27.802C43.5478 27.7748 43.6144 27.7618 43.6784 27.7546C43.76 27.7446 43.8464 27.7426 43.93 27.7426C44.0118 27.7426 44.0954 27.7446 44.1752 27.7546C44.2391 27.7618 44.3057 27.7748 44.3631 27.805C44.4137 27.8312 44.4607 27.8684 44.4879 27.9187C44.5161 27.965 44.5292 28.0184 44.5292 28.0736V33.0739C44.5292 33.1545 44.5171 33.2329 44.486 33.3124C44.4569 33.3809 44.4175 33.4402 44.3649 33.4906C44.3132 33.5388 44.2522 33.5751 44.1855 33.5952C44.1235 33.6153 44.0606 33.6254 43.9967 33.6254H43.545C43.4519 33.6254 43.3571 33.6164 43.2641 33.5901C43.1759 33.563 43.0951 33.5147 43.0247 33.4513C42.9486 33.3809 42.8856 33.2943 42.8312 33.2028C42.7626 33.086 42.7015 32.9612 42.6452 32.8425L41.3556 30.2392C41.3003 30.1255 41.2476 30.0108 41.196 29.895ZM48.7163 32.3615V31.3019H47.87C47.7583 31.3019 47.6775 31.2244 47.6333 31.1178C47.5882 31.007 47.5816 30.8491 47.5816 30.7303C47.5816 30.6568 47.5835 30.5814 47.5929 30.5089C47.5995 30.4535 47.6118 30.3942 47.6324 30.3388C47.653 30.2916 47.6813 30.2462 47.7217 30.2101C47.7649 30.1738 47.8165 30.1547 47.87 30.1547H49.6245C49.6817 30.1547 49.74 30.1658 49.7935 30.1919C49.847 30.2171 49.8931 30.2543 49.9307 30.3016C49.9692 30.3499 49.9983 30.4073 50.0143 30.4646C50.0339 30.5291 50.0415 30.5964 50.0415 30.6639V32.8817C50.0415 32.9813 50.0255 33.08 49.987 33.1685C49.9391 33.2812 49.8452 33.3526 49.7419 33.3949C49.6329 33.4443 49.5184 33.4825 49.4057 33.5177C49.2694 33.561 49.1314 33.5952 48.9923 33.6244C48.8496 33.6536 48.7059 33.6757 48.5613 33.6908C48.4166 33.7049 48.271 33.7129 48.1255 33.7129C47.731 33.7129 47.3356 33.6566 46.9637 33.5127C46.6321 33.3838 46.3316 33.1907 46.0809 32.925C45.831 32.6573 45.6497 32.3394 45.5267 31.9851C45.3915 31.5907 45.3379 31.1681 45.3379 30.7494C45.3379 30.3137 45.3962 29.878 45.5399 29.4694C45.6704 29.1021 45.8573 28.7701 46.1165 28.4923C46.372 28.2156 46.6772 28.0133 47.0181 27.8755C47.3891 27.7255 47.7836 27.6641 48.179 27.6641C48.3922 27.6641 48.6063 27.6772 48.8167 27.7154C48.9858 27.7466 49.1558 27.7858 49.3202 27.8422C49.4442 27.8855 49.5728 27.9369 49.6874 28.0073C49.7625 28.0525 49.8499 28.1089 49.9071 28.1753C49.9692 28.2417 50.003 28.3263 50.0217 28.4138C50.0471 28.5245 50.049 28.6584 50.049 28.773C50.049 28.8485 50.0481 28.928 50.0396 29.0035C50.0321 29.0639 50.0226 29.1252 50.003 29.1816C49.9832 29.2379 49.9569 29.2893 49.9128 29.3225C49.8705 29.3567 49.8217 29.3738 49.77 29.3738C49.6864 29.3738 49.5973 29.3184 49.5286 29.2732C49.4366 29.2128 49.3361 29.1615 49.2366 29.1152C49.0938 29.0488 48.9454 28.9965 48.797 28.9542C48.6082 28.8988 48.4073 28.8807 48.2119 28.8807C47.9968 28.8807 47.7836 28.9179 47.5845 29.0085C47.4023 29.092 47.2426 29.2098 47.1102 29.3678C46.9721 29.5328 46.8726 29.725 46.805 29.9344C46.727 30.1738 46.696 30.4264 46.696 30.6789C46.696 30.9466 46.7242 31.2204 46.8069 31.4729C46.8735 31.6792 46.9702 31.8704 47.1093 32.0314C47.2379 32.1803 47.3948 32.2901 47.5714 32.3645C47.7658 32.446 47.9733 32.4792 48.1809 32.4792C48.2889 32.4792 48.395 32.4662 48.5002 32.44C48.5753 32.4219 48.6467 32.3957 48.7163 32.3615ZM23.8798 29.4261L23.3426 31.1841H24.4227L23.8798 29.4261ZM28.4021 28.9159V30.199H28.805C28.9225 30.199 29.0436 30.1859 29.1563 30.1477C29.2408 30.1185 29.3225 30.0752 29.3902 30.0128C29.4493 29.9584 29.4925 29.894 29.5216 29.8176C29.5545 29.732 29.5677 29.6394 29.5677 29.5469C29.5677 29.413 29.5442 29.2772 29.4747 29.1645C29.4042 29.0528 29.2887 28.9924 29.1704 28.9572C29.1178 28.9431 29.0605 28.9351 29.0079 28.928C28.9206 28.9169 28.8275 28.9159 28.7393 28.9159H28.4021ZM53.1136 4.82828C54.1589 4.82828 55.0193 5.74904 55.0193 6.87005V44.6866C55.0193 45.8066 54.1589 46.7274 53.1136 46.7274H2.82561C1.78028 46.7274 0.920898 45.8066 0.920898 44.6866V6.87005C0.920898 5.74904 1.78028 4.82828 2.82561 4.82828H10.3449C10.5308 4.82828 10.683 4.9913 10.683 5.19055V7.52314C10.683 7.72137 10.5308 7.88439 10.3449 7.88439H4.97921C4.23442 7.88439 3.62394 8.53144 3.62394 9.32742V36.5809C3.62394 37.0266 3.96957 37.3969 4.38564 37.3969H51.5536C51.9696 37.3969 52.3069 37.0266 52.3069 36.5809V8.7015C52.3069 8.24565 51.9696 7.88439 51.5536 7.88439H45.5943C45.4083 7.88439 45.2562 7.72238 45.2562 7.52314V5.19055C45.2562 4.9913 45.4083 4.82828 45.5943 4.82828H53.1136ZM27.9701 41.706C28.6341 41.706 29.1751 42.2846 29.1751 42.997C29.1751 43.7084 28.6341 44.2871 27.9701 44.2871C27.3051 44.2871 26.7641 43.7084 26.7641 42.997C26.7641 42.2846 27.3051 41.706 27.9701 41.706Z" fill="#0575AD"/>
</g>
</g>
</g>
<defs>
<clipPath id="clip0_1_1462">
<rect width="55" height="55" fill="white" transform="translate(0.469727 0.5)"/>
</clipPath>
<clipPath id="clip1_1_1462">
<rect width="55" height="55" fill="white" transform="translate(0.469727 0.5)"/>
</clipPath>
</defs>
</svg>
