<svg width="56" height="56" viewBox="0 0 56 56" fill="none" xmlns="http://www.w3.org/2000/svg">
<g clip-path="url(#clip0_1_1461)">
<g clip-path="url(#clip1_1_1461)">
<g clip-path="url(#clip2_1_1461)">
<mask id="mask0_1_1461" style="mask-type:luminance" maskUnits="userSpaceOnUse" x="0" y="0" width="56" height="56">
<path d="M0.92041 0.950928H55.0188V55.0493H0.92041V0.950928Z" fill="white"/>
</mask>
<g mask="url(#mask0_1_1461)">
<path fill-rule="evenodd" clip-rule="evenodd" d="M16.0698 52.0245H21.2158C22.0066 52.0245 22.6612 51.3241 22.6612 50.4668V49.2693H33.2695V50.4668C33.2695 51.3241 33.9232 52.0245 34.7234 52.0245H39.8684C41.3909 52.0245 42.7067 52.577 43.8178 53.6828C44.0404 53.9133 44.1098 54.2363 43.9971 54.5392C43.8863 54.8441 43.6187 55.0373 43.3181 55.0373H12.6117C12.3111 55.0373 12.0529 54.8441 11.9411 54.5392C11.8293 54.2363 11.8979 53.9133 12.1214 53.6828C13.2222 52.577 14.5473 52.0245 16.0698 52.0245ZM18.8931 4.47206H25.1529C25.2534 4.47206 25.3351 4.55356 25.3351 4.65218V5.47935C25.3351 5.57797 25.2534 5.65948 25.1529 5.65948H18.8931C18.7935 5.65948 18.7109 5.57897 18.7109 5.47935V4.65218C18.7109 4.55255 18.7926 4.47206 18.8931 4.47206ZM13.1912 1.37166H13.6617C13.7941 1.37166 13.9021 1.48739 13.9021 1.62827V22.2814C13.9021 22.8732 13.9923 23.0442 14.5737 23.0442H26.3298C26.8172 23.0442 27.4671 22.9305 27.8851 22.4958C27.932 22.4465 28.0062 22.4465 28.0532 22.4958C28.4712 22.9305 29.122 23.0442 29.6085 23.0442H41.3646C41.9459 23.0442 42.0361 22.8732 42.0361 22.2814V1.62827C42.0361 1.48739 42.1451 1.37166 42.2765 1.37166H42.7471C43.0974 1.37166 43.3838 1.67858 43.3838 2.05393V22.9054C43.3838 23.7607 42.9566 24.7891 41.9197 24.7891H28.8572C28.5378 24.7891 28.2945 24.455 28.242 24.2286L28.2044 24.0626C28.195 24.0223 28.1734 23.3753 27.9696 23.3903C27.7648 23.3753 27.7433 24.0223 27.7338 24.0626L27.6963 24.2286C27.6436 24.455 27.4005 24.7891 27.0811 24.7891H14.0186C12.9826 24.7891 12.5544 23.7607 12.5544 22.9054V2.05393C12.5544 1.67858 12.8408 1.37166 13.1912 1.37166ZM16.1394 22.0903H15.6801C15.4602 22.0903 15.2809 21.897 15.2809 21.6615V1.39179C15.2809 1.15531 15.4602 0.964111 15.6801 0.964111H25.4159C26.3842 0.964111 27.2652 1.38776 27.902 2.07003C27.9621 2.13544 28.0204 2.20185 28.0776 2.27229C28.1331 2.20185 28.1922 2.13544 28.2523 2.07003C28.89 1.38776 29.7701 0.964111 30.7393 0.964111H40.4733C40.694 0.964111 40.8734 1.15531 40.8734 1.39179V21.6615C40.8734 21.897 40.694 22.0903 40.4733 22.0903H30.4951C29.4339 22.0903 28.8158 22.0852 28.2777 21.2168C28.2316 21.1423 28.1603 21.1011 28.0776 21.1021C27.9949 21.1021 27.9226 21.1444 27.8766 21.2178C27.3863 22.0218 26.8351 22.0872 25.7202 22.0903H16.1394ZM27.2183 7.89345V4.73368C27.2183 4.20337 27.0163 3.72035 26.6885 3.36915C26.3626 3.01997 25.9109 2.80161 25.4159 2.80161H17.1574C17.0691 2.80161 16.9968 2.87808 16.9968 2.97267V19.4074C16.9968 19.5031 17.0691 19.5796 17.1574 19.5796H26.82C27.0398 19.5796 27.2183 19.3863 27.2183 19.1508V7.89345ZM38.9978 2.80161H30.7393C30.2434 2.80161 29.7926 3.01997 29.4658 3.36915C29.1379 3.72035 28.9351 4.20337 28.9351 4.73368V19.1508C28.9351 19.3863 29.1145 19.5796 29.3352 19.5796H38.9978C39.0851 19.5796 39.1574 19.5031 39.1574 19.4074V2.97267C39.1574 2.87808 39.0851 2.80161 38.9978 2.80161ZM31.208 4.47206H37.4687C37.5683 4.47206 37.6509 4.55356 37.6509 4.65218V5.47935C37.6509 5.57797 37.5683 5.65948 37.4687 5.65948H31.208C31.1094 5.65948 31.0267 5.57897 31.0267 5.47935V4.65218C31.0267 4.55255 31.1085 4.47206 31.208 4.47206ZM31.208 16.1129H35.4804C35.58 16.1129 35.6617 16.1944 35.6617 16.293V17.1212C35.6617 17.2198 35.5791 17.3013 35.4804 17.3013H31.208C31.1094 17.3013 31.0267 17.2198 31.0267 17.1212V16.293C31.0267 16.1934 31.1085 16.1129 31.208 16.1129ZM31.208 13.2026H37.4687C37.5683 13.2026 37.6509 13.2841 37.6509 13.3828V14.2099C37.6509 14.3086 37.5683 14.3901 37.4687 14.3901H31.208C31.1094 14.3901 31.0267 14.3096 31.0267 14.2099V13.3828C31.0267 13.2831 31.1085 13.2026 31.208 13.2026ZM31.208 10.2925H37.4687C37.5683 10.2925 37.6509 10.374 37.6509 10.4735V11.3008C37.6509 11.3994 37.5683 11.4799 37.4687 11.4799H31.208C31.1094 11.4799 31.0267 11.3994 31.0267 11.3008V10.4735C31.0267 10.374 31.1085 10.2925 31.208 10.2925ZM31.208 7.38226H37.4687C37.5683 7.38226 37.6509 7.46276 37.6509 7.56238V8.38955C37.6509 8.48817 37.5683 8.56968 37.4687 8.56968H31.208C31.1094 8.56968 31.0267 8.48817 31.0267 8.38955V7.56238C31.0267 7.46276 31.1085 7.38226 31.208 7.38226ZM18.8931 16.1129H23.1646C23.2651 16.1129 23.3468 16.1944 23.3468 16.293V17.1212C23.3468 17.2198 23.2642 17.3013 23.1646 17.3013H18.8931C18.7935 17.3013 18.7109 17.2198 18.7109 17.1212V16.293C18.7109 16.1934 18.7926 16.1129 18.8931 16.1129ZM18.8931 13.2026H25.1529C25.2534 13.2026 25.3351 13.2841 25.3351 13.3828V14.2099C25.3351 14.3086 25.2534 14.3901 25.1529 14.3901H18.8931C18.7935 14.3901 18.7109 14.3096 18.7109 14.2099V13.3828C18.7109 13.2831 18.7926 13.2026 18.8931 13.2026ZM18.8931 10.2925H25.1529C25.2534 10.2925 25.3351 10.374 25.3351 10.4735V11.3008C25.3351 11.3994 25.2534 11.4799 25.1529 11.4799H18.8931C18.7935 11.4799 18.7109 11.3994 18.7109 11.3008V10.4735C18.7109 10.374 18.7926 10.2925 18.8931 10.2925ZM18.8931 7.38226H25.1529C25.2534 7.38226 25.3351 7.46276 25.3351 7.56238V8.38955C25.3351 8.48817 25.2534 8.56968 25.1529 8.56968H18.8931C18.7935 8.56968 18.7109 8.48817 18.7109 8.38955V7.56238C18.7109 7.46276 18.7926 7.38226 18.8931 7.38226ZM8.56368 28.9421V30.0048H9.98937C10.0448 30.0048 10.0955 30.0219 10.1359 30.0571C10.181 30.0923 10.2101 30.1376 10.2289 30.1869C10.2524 30.2423 10.2636 30.3047 10.2711 30.364C10.2796 30.4355 10.2815 30.5109 10.2815 30.5843C10.2815 30.6588 10.2806 30.7364 10.2711 30.8108C10.2636 30.8692 10.2524 30.9295 10.2307 30.9788C10.2082 31.0362 10.1773 31.0845 10.1331 31.1127C10.0899 31.1459 10.041 31.1609 9.98937 31.1609H8.56368V32.435H10.2937C10.3482 32.435 10.3998 32.4531 10.4402 32.4873C10.4844 32.5225 10.5144 32.5708 10.535 32.6241C10.5567 32.6775 10.568 32.7388 10.5754 32.7972C10.5849 32.8717 10.5858 32.9502 10.5858 33.0256C10.5858 33.1011 10.5849 33.1796 10.5754 33.2551C10.568 33.3134 10.5567 33.3738 10.535 33.4282C10.5144 33.4825 10.4853 33.5288 10.4431 33.562C10.3998 33.5983 10.3482 33.6164 10.2937 33.6164H7.6874C7.57188 33.6164 7.46481 33.5791 7.37653 33.4976C7.27133 33.4 7.23846 33.2561 7.23846 33.1142V28.2629C7.23846 28.121 7.27133 27.9771 7.37653 27.8794C7.46481 27.7979 7.57188 27.7607 7.6874 27.7607H10.2806C10.3332 27.7607 10.382 27.7768 10.4299 27.8131C10.4712 27.8472 10.4994 27.8956 10.522 27.9549C10.5398 28.0093 10.552 28.0646 10.5586 28.123C10.568 28.1984 10.5698 28.2789 10.5698 28.3554C10.5698 28.4309 10.568 28.5053 10.5586 28.5798C10.552 28.6382 10.5398 28.6996 10.5191 28.7539C10.4994 28.8032 10.4722 28.8485 10.4299 28.8877C10.3867 28.924 10.3351 28.9421 10.2806 28.9421H8.56368ZM13.3011 31.3048C13.3011 31.4307 13.2945 31.5998 13.2428 31.7184C13.1902 31.8322 13.0982 31.8996 12.9789 31.8996H11.3071C11.184 31.8996 11.0892 31.8322 11.0385 31.7145C10.9878 31.5987 10.9803 31.4307 10.9803 31.3048C10.9803 31.1801 10.9878 31.0151 11.0385 30.9014C11.0892 30.7857 11.1859 30.7182 11.3071 30.7182H12.9789C13.0334 30.7182 13.086 30.7313 13.1301 30.7604C13.1808 30.7916 13.2165 30.839 13.2437 30.8963C13.2691 30.9537 13.2822 31.0181 13.2898 31.0784C13.2992 31.1539 13.3011 31.2294 13.3011 31.3048ZM15.3805 32.3917H16.8756C16.932 32.3917 16.9855 32.4078 17.0268 32.444C17.0738 32.4792 17.1029 32.5285 17.1227 32.5818C17.1443 32.6382 17.1546 32.7017 17.1621 32.763C17.1706 32.8405 17.1725 32.92 17.1725 32.9975C17.1725 33.0759 17.1706 33.1564 17.1621 33.2329C17.1546 33.2933 17.1433 33.3526 17.1246 33.4101C17.1048 33.4684 17.0757 33.5228 17.0297 33.5589C16.9846 33.5973 16.933 33.6164 16.8756 33.6164H14.4958C14.3802 33.6164 14.2731 33.5791 14.1849 33.4976C14.0806 33.4 14.0477 33.2561 14.0477 33.1142V28.0606C14.0477 27.9982 14.0665 27.9388 14.1069 27.8865C14.1454 27.8402 14.1971 27.81 14.2515 27.7889C14.3107 27.7667 14.3793 27.7567 14.4431 27.7476C14.5324 27.7376 14.6234 27.7335 14.7146 27.7335C14.8048 27.7335 14.8986 27.7366 14.9879 27.7476C15.0508 27.7567 15.1174 27.7667 15.1767 27.7889C15.2311 27.81 15.2828 27.8402 15.3241 27.8915C15.3607 27.9398 15.3805 27.9982 15.3805 28.0606V32.3917ZM19.0687 28.9421V30.0048H20.4945C20.5498 30.0048 20.6006 30.0219 20.641 30.0571C20.6851 30.0923 20.7152 30.1376 20.7339 30.1869C20.7584 30.2423 20.7686 30.3047 20.7762 30.364C20.7847 30.4355 20.7865 30.5109 20.7865 30.5843C20.7865 30.6588 20.7847 30.7364 20.7762 30.8108C20.7686 30.8692 20.7574 30.9295 20.7358 30.9788C20.7133 31.0362 20.6823 31.0845 20.6372 31.1127C20.5949 31.1459 20.547 31.1609 20.4945 31.1609H19.0687V32.435H20.7988C20.8523 32.435 20.9039 32.4531 20.9453 32.4873C20.9894 32.5225 21.0195 32.5708 21.0401 32.6241C21.0627 32.6775 21.073 32.7388 21.0805 32.7972C21.089 32.8717 21.0908 32.9502 21.0908 33.0256C21.0908 33.1011 21.089 33.1796 21.0805 33.2551C21.073 33.3134 21.0627 33.3738 21.0401 33.4282C21.0195 33.4825 20.9904 33.5288 20.9472 33.562C20.9049 33.5983 20.8523 33.6164 20.7988 33.6164H18.1925C18.0769 33.6164 17.9699 33.5791 17.8816 33.4976C17.7764 33.4 17.7435 33.2561 17.7435 33.1142V28.2629C17.7435 28.121 17.7764 27.9771 17.8816 27.8794C17.9699 27.7979 18.0769 27.7607 18.1925 27.7607H20.7856C20.8373 27.7607 20.887 27.7768 20.934 27.8131C20.9753 27.8472 21.0044 27.8956 21.027 27.9549C21.0448 28.0093 21.0561 28.0646 21.0636 28.123C21.073 28.1984 21.0739 28.2789 21.0739 28.3554C21.0739 28.4309 21.073 28.5053 21.0636 28.5798C21.0561 28.6382 21.0457 28.6996 21.0242 28.7539C21.0044 28.8032 20.9781 28.8485 20.934 28.8877C20.8908 28.924 20.8401 28.9421 20.7856 28.9421H19.0687ZM24.7697 32.3484H23.0087L22.7138 33.3306C22.6997 33.3829 22.6818 33.4312 22.6546 33.4704C22.6189 33.5298 22.5663 33.5661 22.5062 33.5922C22.4433 33.6184 22.37 33.6285 22.3024 33.6344C22.2066 33.6415 22.1089 33.6435 22.0122 33.6435C21.9117 33.6435 21.8074 33.6415 21.7079 33.6294C21.6215 33.6184 21.535 33.5891 21.4769 33.5177C21.4186 33.4452 21.4027 33.3526 21.4167 33.2591C21.428 33.1716 21.4552 33.079 21.4825 32.9924L23.082 28.0576C23.0998 28.0002 23.1242 27.9449 23.158 27.8985C23.1994 27.8372 23.2604 27.801 23.327 27.7768C23.4004 27.7527 23.4811 27.7446 23.5572 27.7396C23.669 27.7335 23.7826 27.7335 23.8944 27.7335C24.0211 27.7335 24.1489 27.7335 24.2767 27.7396C24.3583 27.7436 24.4485 27.7517 24.5283 27.7768C24.5969 27.7979 24.6626 27.8342 24.7124 27.9006C24.7481 27.9539 24.7726 28.0112 24.7894 28.0707L26.3945 33.0035C26.4217 33.089 26.4481 33.1836 26.4602 33.2732C26.4734 33.3688 26.4565 33.4644 26.3861 33.5388C26.3213 33.6012 26.232 33.6234 26.1485 33.6314C26.0432 33.6425 25.9334 33.6435 25.8282 33.6435C25.7202 33.6435 25.6103 33.6435 25.5014 33.6375C25.4337 33.6324 25.3586 33.6264 25.2938 33.6043C25.2337 33.5841 25.1792 33.5519 25.1435 33.5026C25.1126 33.4604 25.0918 33.4121 25.0797 33.3647L24.7697 32.3484ZM28.4017 31.3371V33.3165C28.4017 33.3799 28.3828 33.4392 28.3453 33.4846C28.3077 33.5359 28.2551 33.5661 28.1941 33.5891C28.1349 33.6093 28.071 33.6203 28.01 33.6294C27.9198 33.6404 27.8278 33.6435 27.7386 33.6435C27.6484 33.6435 27.5564 33.6395 27.4671 33.6294C27.4052 33.6203 27.3403 33.6093 27.2765 33.5882C27.2201 33.5661 27.1647 33.5338 27.1281 33.4815C27.0952 33.4332 27.0764 33.3768 27.0764 33.3165V28.2629C27.0764 28.121 27.1092 27.9771 27.2145 27.8794C27.3027 27.7979 27.4099 27.7607 27.5263 27.7607H28.8712C28.9858 27.7607 29.1023 27.7618 29.2159 27.7698C29.2986 27.7748 29.3812 27.7819 29.4686 27.7919C29.6733 27.8231 29.8762 27.8784 30.0659 27.966C30.2406 28.0455 30.4002 28.1551 30.5346 28.299C30.666 28.441 30.7656 28.605 30.8332 28.7922C30.9065 28.9944 30.9337 29.2138 30.9337 29.4311C30.9337 29.6163 30.9131 29.8045 30.8614 29.9826C30.8135 30.1477 30.7421 30.3006 30.6445 30.4385C30.5477 30.5753 30.4284 30.689 30.2941 30.7836C30.2294 30.8299 30.1608 30.8702 30.0912 30.9064V30.9074C30.1739 30.9758 30.2443 31.0564 30.3083 31.1429C30.3777 31.2375 30.4387 31.3381 30.4923 31.4427C30.5533 31.5625 30.6069 31.6873 30.6539 31.81L31.0962 32.9139C31.1253 32.9954 31.1591 33.085 31.1789 33.1656C31.192 33.2159 31.2051 33.2722 31.2051 33.3245C31.2051 33.3768 31.1957 33.4282 31.1723 33.4735C31.1394 33.5378 31.083 33.5741 31.0154 33.5983C30.9497 33.6194 30.8774 33.6294 30.8098 33.6344C30.7008 33.6415 30.5909 33.6435 30.4829 33.6435C30.3899 33.6435 30.296 33.6415 30.203 33.6344C30.1382 33.6285 30.0668 33.6174 30.0068 33.5922C29.9494 33.5681 29.8977 33.5338 29.8592 33.4754C29.8367 33.4382 29.8198 33.399 29.8067 33.3598L29.339 32.1189C29.2901 31.9962 29.2376 31.8724 29.1802 31.7537C29.1379 31.6671 29.0863 31.5836 29.0234 31.5132C28.9708 31.4548 28.9107 31.4115 28.8412 31.3814C28.7642 31.3481 28.6777 31.3371 28.5951 31.3371H28.4017ZM33.1474 29.895C33.1512 30.0631 33.1521 30.2312 33.1521 30.4002V33.3124C33.1521 33.3688 33.1362 33.4251 33.1042 33.4754C33.0704 33.5248 33.0226 33.5579 32.9709 33.5811C32.9145 33.6073 32.8488 33.6203 32.7887 33.6285C32.7051 33.6404 32.6177 33.6435 32.5341 33.6435C32.4497 33.6435 32.3642 33.6395 32.2805 33.6285C32.2214 33.6203 32.1566 33.6083 32.104 33.5831C32.0476 33.5579 31.9969 33.5207 31.9678 33.4674C31.9406 33.4211 31.9255 33.3678 31.9255 33.3124V28.3121C31.9255 28.1532 31.9687 28.0032 32.0842 27.8966C32.1866 27.802 32.3106 27.7607 32.4449 27.7607H33.0103C33.107 27.7607 33.2085 27.7667 33.3024 27.793C33.386 27.816 33.464 27.8543 33.5334 27.9096C33.6086 27.966 33.6706 28.0424 33.7222 28.124C33.7824 28.2175 33.833 28.3202 33.8781 28.4209L34.8878 30.4556C34.946 30.5773 35.0024 30.6981 35.0615 30.8189C35.1198 30.9386 35.1752 31.0583 35.2297 31.1801C35.2391 31.2022 35.2484 31.2244 35.2588 31.2475C35.256 31.0593 35.255 30.8731 35.255 30.686V28.0736C35.255 28.0133 35.2729 27.956 35.3058 27.9106C35.3386 27.8613 35.3884 27.8271 35.441 27.802C35.4992 27.7748 35.5659 27.7618 35.6288 27.7546C35.7124 27.7446 35.7979 27.7426 35.8815 27.7426C35.9632 27.7426 36.0458 27.7446 36.1266 27.7546C36.1905 27.7618 36.2572 27.7748 36.3144 27.805C36.3642 27.8312 36.4121 27.8684 36.4394 27.9187C36.4675 27.965 36.4816 28.0184 36.4816 28.0736V33.0739C36.4816 33.1545 36.4675 33.2329 36.4375 33.3124C36.4084 33.3809 36.3689 33.4402 36.3163 33.4906C36.2647 33.5388 36.2036 33.5751 36.1369 33.5952C36.0759 33.6153 36.012 33.6254 35.9482 33.6254H35.4964C35.4034 33.6254 35.3086 33.6164 35.2146 33.5901C35.1264 33.563 35.0466 33.5147 34.977 33.4513C34.9 33.3809 34.8361 33.2943 34.7826 33.2028C34.714 33.086 34.653 32.9612 34.5966 32.8425L33.3062 30.2392C33.2527 30.1255 33.1991 30.0108 33.1474 29.895ZM38.8945 33.3165C38.8945 33.3789 38.8738 33.4372 38.8343 33.4906C38.7967 33.5368 38.7442 33.5671 38.6859 33.5891C38.6277 33.6093 38.563 33.6203 38.5019 33.6294C38.4117 33.6404 38.3178 33.6435 38.2276 33.6435C38.1384 33.6435 38.0454 33.6395 37.9561 33.6294C37.8942 33.6203 37.8275 33.6093 37.7655 33.5882C37.7101 33.5671 37.6575 33.5368 37.618 33.4865C37.5805 33.4382 37.5608 33.3789 37.5608 33.3165V28.0606C37.5608 27.9982 37.5805 27.9388 37.6199 27.8865C37.6594 27.8382 37.7139 27.808 37.7702 27.7879C37.8294 27.7667 37.8951 27.7567 37.9571 27.7476C38.0463 27.7376 38.1384 27.7335 38.2276 27.7335C38.3178 27.7335 38.4117 27.7366 38.5019 27.7476C38.5639 27.7567 38.6296 27.7667 38.6897 27.7889C38.7442 27.81 38.7967 27.8402 38.8381 27.8915C38.8738 27.9398 38.8945 27.9982 38.8945 28.0606V33.3165ZM41.1956 29.895C41.1984 30.0631 41.2002 30.2312 41.2002 30.4002V33.3124C41.2002 33.3688 41.1852 33.4251 41.1523 33.4754C41.1185 33.5248 41.0706 33.5579 41.0189 33.5811C40.9617 33.6073 40.8968 33.6203 40.8367 33.6285C40.7531 33.6404 40.6658 33.6435 40.5813 33.6435C40.4977 33.6435 40.4122 33.6395 40.3295 33.6285C40.2685 33.6203 40.2056 33.6083 40.1521 33.5831C40.0957 33.5579 40.045 33.5207 40.015 33.4674C39.9886 33.4211 39.9736 33.3678 39.9736 33.3124V28.3121C39.9736 28.1532 40.0168 28.0032 40.1323 27.8966C40.2347 27.802 40.3587 27.7607 40.493 27.7607H41.0584C41.1552 27.7607 41.2566 27.7667 41.3505 27.793C41.434 27.816 41.5111 27.8543 41.5816 27.9096C41.6567 27.966 41.7187 28.0424 41.7704 28.124C41.8304 28.2175 41.8812 28.3202 41.9262 28.4209L42.9359 30.4556C42.9941 30.5773 43.0514 30.6981 43.1096 30.8189C43.1679 30.9386 43.2233 31.0583 43.2777 31.1801C43.2871 31.2022 43.2966 31.2244 43.3068 31.2475C43.3031 31.0593 43.3031 30.8731 43.3031 30.686V28.0736C43.3031 28.0133 43.3209 27.956 43.3538 27.9106C43.3876 27.8613 43.4374 27.8271 43.4891 27.802C43.5473 27.7748 43.6139 27.7618 43.6779 27.7546C43.7596 27.7446 43.8459 27.7426 43.9295 27.7426C44.0113 27.7426 44.0949 27.7446 44.1747 27.7546C44.2386 27.7618 44.3052 27.7748 44.3626 27.805C44.4132 27.8312 44.4602 27.8684 44.4874 27.9187C44.5156 27.965 44.5287 28.0184 44.5287 28.0736V33.0739C44.5287 33.1545 44.5166 33.2329 44.4855 33.3124C44.4564 33.3809 44.417 33.4402 44.3644 33.4906C44.3127 33.5388 44.2517 33.5751 44.185 33.5952C44.123 33.6153 44.0601 33.6254 43.9962 33.6254H43.5445C43.4515 33.6254 43.3566 33.6164 43.2636 33.5901C43.1754 33.563 43.0946 33.5147 43.0242 33.4513C42.9481 33.3809 42.8851 33.2943 42.8307 33.2028C42.7622 33.086 42.701 32.9612 42.6447 32.8425L41.3551 30.2392C41.2998 30.1255 41.2471 30.0108 41.1956 29.895ZM48.7158 32.3615V31.3019H47.8695C47.7578 31.3019 47.677 31.2244 47.6328 31.1178C47.5877 31.007 47.5811 30.8491 47.5811 30.7303C47.5811 30.6568 47.583 30.5814 47.5924 30.5089C47.599 30.4535 47.6113 30.3942 47.6319 30.3388C47.6526 30.2916 47.6808 30.2462 47.7212 30.2101C47.7644 30.1738 47.816 30.1547 47.8695 30.1547H49.624C49.6812 30.1547 49.7395 30.1658 49.793 30.1919C49.8465 30.2171 49.8926 30.2543 49.9302 30.3016C49.9687 30.3499 49.9978 30.4073 50.0138 30.4646C50.0334 30.5291 50.041 30.5964 50.041 30.6639V32.8817C50.041 32.9813 50.025 33.08 49.9865 33.1685C49.9386 33.2812 49.8447 33.3526 49.7414 33.3949C49.6324 33.4443 49.5179 33.4825 49.4052 33.5177C49.2689 33.561 49.1309 33.5952 48.9919 33.6244C48.8491 33.6536 48.7054 33.6757 48.5608 33.6908C48.4162 33.7049 48.2705 33.7129 48.125 33.7129C47.7305 33.7129 47.3351 33.6566 46.9632 33.5127C46.6316 33.3838 46.3311 33.1907 46.0804 32.925C45.8305 32.6573 45.6492 32.3394 45.5262 31.9851C45.391 31.5907 45.3374 31.1681 45.3374 30.7494C45.3374 30.3137 45.3957 29.878 45.5394 29.4694C45.6699 29.1021 45.8568 28.7701 46.116 28.4923C46.3715 28.2156 46.6767 28.0133 47.0176 27.8755C47.3886 27.7255 47.7831 27.6641 48.1785 27.6641C48.3917 27.6641 48.6059 27.6772 48.8162 27.7154C48.9853 27.7466 49.1553 27.7858 49.3197 27.8422C49.4437 27.8855 49.5723 27.9369 49.6869 28.0073C49.762 28.0525 49.8494 28.1089 49.9067 28.1753C49.9687 28.2417 50.0025 28.3263 50.0213 28.4138C50.0466 28.5245 50.0485 28.6584 50.0485 28.773C50.0485 28.8485 50.0476 28.928 50.0391 29.0035C50.0316 29.0639 50.0222 29.1252 50.0025 29.1816C49.9828 29.2379 49.9564 29.2893 49.9123 29.3225C49.87 29.3567 49.8212 29.3738 49.7695 29.3738C49.6859 29.3738 49.5968 29.3184 49.5281 29.2732C49.4361 29.2128 49.3356 29.1615 49.2361 29.1152C49.0933 29.0488 48.9449 28.9965 48.7966 28.9542C48.6078 28.8988 48.4068 28.8807 48.2114 28.8807C47.9964 28.8807 47.7831 28.9179 47.584 29.0085C47.4018 29.092 47.2421 29.2098 47.1097 29.3678C46.9716 29.5328 46.8721 29.725 46.8045 29.9344C46.7265 30.1738 46.6956 30.4264 46.6956 30.6789C46.6956 30.9466 46.7237 31.2204 46.8064 31.4729C46.873 31.6792 46.9697 31.8704 47.1088 32.0314C47.2374 32.1803 47.3943 32.2901 47.5709 32.3645C47.7653 32.446 47.9728 32.4792 48.1804 32.4792C48.2884 32.4792 48.3945 32.4662 48.4997 32.44C48.5748 32.4219 48.6463 32.3957 48.7158 32.3615ZM23.8793 29.4261L23.3421 31.1841H24.4222L23.8793 29.4261ZM28.4017 28.9159V30.199H28.8045C28.922 30.199 29.0431 30.1859 29.1558 30.1477C29.2404 30.1185 29.3221 30.0752 29.3897 30.0128C29.4488 29.9584 29.492 29.894 29.5211 29.8176C29.554 29.732 29.5672 29.6394 29.5672 29.5469C29.5672 29.413 29.5437 29.2772 29.4742 29.1645C29.4037 29.0528 29.2882 28.9924 29.1699 28.9572C29.1173 28.9431 29.06 28.9351 29.0074 28.928C28.9201 28.9169 28.827 28.9159 28.7388 28.9159H28.4017ZM53.1132 4.82828C54.1584 4.82828 55.0188 5.74904 55.0188 6.87005V44.6866C55.0188 45.8066 54.1584 46.7274 53.1132 46.7274H2.82512C1.77979 46.7274 0.92041 45.8066 0.92041 44.6866V6.87005C0.92041 5.74904 1.77979 4.82828 2.82512 4.82828H10.3444C10.5304 4.82828 10.6825 4.9913 10.6825 5.19055V7.52314C10.6825 7.72137 10.5304 7.88439 10.3444 7.88439H4.97872C4.23393 7.88439 3.62345 8.53144 3.62345 9.32742V36.5809C3.62345 37.0266 3.96908 37.3969 4.38515 37.3969H51.5531C51.9692 37.3969 52.3064 37.0266 52.3064 36.5809V8.7015C52.3064 8.24565 51.9692 7.88439 51.5531 7.88439H45.5938C45.4078 7.88439 45.2557 7.72238 45.2557 7.52314V5.19055C45.2557 4.9913 45.4078 4.82828 45.5938 4.82828H53.1132ZM27.9696 41.706C28.6336 41.706 29.1746 42.2846 29.1746 42.997C29.1746 43.7084 28.6336 44.2871 27.9696 44.2871C27.3046 44.2871 26.7636 43.7084 26.7636 42.997C26.7636 42.2846 27.3046 41.706 27.9696 41.706Z" fill="white"/>
</g>
</g>
</g>
</g>
<defs>
<clipPath id="clip0_1_1461">
<rect width="55" height="55" fill="white" transform="translate(0.469727 0.5)"/>
</clipPath>
<clipPath id="clip1_1_1461">
<rect width="55" height="55" fill="white" transform="translate(0.469727 0.5)"/>
</clipPath>
<clipPath id="clip2_1_1461">
<rect width="55" height="55" fill="white" transform="translate(0.469727 0.5)"/>
</clipPath>
</defs>
</svg>
