<svg width="66" height="65" viewBox="0 0 66 65" fill="none" xmlns="http://www.w3.org/2000/svg">
<rect x="0.5" width="65" height="65" rx="8" fill="#00D280" fill-opacity="0.2"/>
<g clip-path="url(#clip0_1_1257)">
<g clip-path="url(#clip1_1_1257)">
<g clip-path="url(#clip2_1_1257)">
<mask id="mask0_1_1257" style="mask-type:luminance" maskUnits="userSpaceOnUse" x="13" y="11" width="40" height="42">
<path d="M13.1875 11.9907H52.8115V52.0994H13.1875V11.9907Z" fill="white"/>
</mask>
<g mask="url(#mask0_1_1257)">
<path d="M51.5391 19.5512H42.8733V20.8071H51.5391V44.5891H14.4034V20.8015H26.476V19.5456H14.4034C13.7223 19.5456 13.167 20.107 13.167 20.7958V47.0777C13.167 47.7665 13.7223 48.3273 14.4034 48.3273H29.861C29.7898 49.4276 29.4985 49.9552 28.9271 50.8328H24.9267V52.0824H41.0214V50.8328H37.021C36.4495 49.9609 36.1639 49.4276 36.087 48.3273H51.5447C52.2258 48.3273 52.7811 47.7665 52.7811 47.0777V20.8015C52.7811 20.1127 52.2258 19.5512 51.5391 19.5512ZM51.5391 47.0883H14.4034V45.8387H51.5447V47.0883H51.5391ZM30.3829 50.8384C30.7789 50.144 31.0262 49.4495 31.0919 48.3329H34.8395C34.9058 49.4495 35.1587 50.1383 35.5484 50.8384H30.3829ZM39.1585 35.1948H18.1126V25.1846H21.8273V26.4399H19.3489V33.9502H37.9172V26.4343H35.4388V25.179H39.1535V35.1948H39.1585ZM18.1126 41.4555H35.4443V42.7058H18.1126V41.4555ZM29.8778 38.9501V40.2003H21.8273V38.9501H29.8778ZM20.5909 38.9501V40.2003H18.1126V38.9501H20.5909ZM39.1585 40.2003H31.1142V38.9501H39.1585V40.2003ZM39.1585 37.7004H18.1126V36.4501H39.1585V37.7004ZM28.5751 33.1397L34.2135 31.7119V24.1621L28.6414 25.5679L23.0693 24.1621V31.7119L28.4159 33.0619C28.4381 33.0669 28.4598 33.0669 28.4822 33.0669L28.5751 33.1397ZM24.3112 25.8063V25.7674L24.4761 25.812L28.026 26.7065V31.673L24.3112 30.7339V25.8063ZM32.9771 25.7674V30.7395L29.2624 31.6787V26.7122L32.8123 25.8176L32.9771 25.7674ZM40.4004 42.7058H47.83V38.9501H40.4004V42.7058ZM41.6368 40.2003H46.5879V41.4499H41.6368V40.2003ZM40.4004 37.7004H47.83V27.6845H40.4004V37.7004ZM41.6368 28.9398H46.5879V36.4501H41.6368V28.9398ZM27.9876 20.1792L27.6795 22.6847H38.2629L37.9556 20.1792L37.7411 18.4515L39.9226 17.5406C40.2139 17.9904 40.4004 18.6071 40.4004 19.5569V20.1848H41.6368V19.5569C41.6368 18.4459 41.4119 17.6517 41.0766 17.057L43.4781 16.0514L32.9716 11.9963L22.4594 16.0457L28.2014 18.4459L27.9876 20.1792ZM32.9716 13.3351L38.3621 15.4128L40.1314 16.0959L38.9335 16.5959L37.5874 17.1624L37.5211 16.6128L37.1858 16.4736C37.1202 16.446 35.5484 15.8017 32.9771 15.8017C30.4052 15.8017 28.8335 16.446 28.7678 16.4736L28.4325 16.6128L28.3662 17.1624L25.8166 16.0959L32.9716 13.3351ZM29.3888 18.9458L29.4712 18.3016L29.5481 17.6573L29.5642 17.5124C30.1139 17.3462 31.3119 17.0457 32.9716 17.0457C34.6306 17.0457 35.8286 17.3462 36.3783 17.5124L36.395 17.6573L36.4774 18.3016L36.5543 18.9458L36.708 20.1792L36.8617 21.4288H29.0808L29.2345 20.1792L29.3888 18.9458ZM44.7306 25.1846V26.4343C43.4942 26.4343 44.7306 26.4343 43.4942 26.4343V25.1846H44.7306ZM47.2089 25.1846V26.4343C45.9726 26.4343 47.2089 26.4343 45.9726 26.4343V25.1846H47.2089ZM41.0159 25.1846H42.2522V26.4343C41.0159 26.4343 42.2522 26.4343 41.0159 26.4343V25.1846Z" fill="#00D280"/>
</g>
</g>
</g>
</g>
<defs>
<clipPath id="clip0_1_1257">
<rect width="41" height="40.09" fill="white" transform="translate(12.5 12)"/>
</clipPath>
<clipPath id="clip1_1_1257">
<rect width="41" height="40.09" fill="white" transform="translate(12.5 12)"/>
</clipPath>
<clipPath id="clip2_1_1257">
<rect width="41" height="40.1087" fill="white" transform="translate(12.5 11.9907)"/>
</clipPath>
</defs>
</svg>
