<svg width="46" height="46" viewBox="0 0 46 46" fill="none" xmlns="http://www.w3.org/2000/svg">
<g clip-path="url(#clip0_1_1488)">
<g clip-path="url(#clip1_1_1488)">
<g clip-path="url(#clip2_1_1488)">
<path fill-rule="evenodd" clip-rule="evenodd" d="M12.6126 23.6439C12.3747 23.6585 12.1343 23.6654 11.8931 23.6654C5.47874 23.6654 0.280273 18.467 0.280273 12.0527C0.280273 5.63841 5.47874 0.439941 11.8931 0.439941C18.3074 0.439941 23.5058 5.63841 23.5058 12.0527C23.5058 12.2939 23.4989 12.5343 23.4843 12.7722C23.2516 12.7558 23.0173 12.748 22.7803 12.748C22.5278 12.748 22.2771 12.7575 22.0289 12.7756C22.0462 12.5369 22.0548 12.2957 22.0548 12.0527C22.0548 6.44063 17.506 1.89186 11.8931 1.89186C6.28096 1.89186 1.73219 6.44063 1.73219 12.0527C1.73219 14.8453 2.85753 17.3744 4.68083 19.2106C5.68641 16.1896 8.53596 14.0112 11.8931 14.0112C13.438 14.0112 14.8762 14.4731 16.0765 15.2658C13.9387 17.1348 12.5884 19.881 12.5884 22.9399C12.5884 23.1769 12.5962 23.4112 12.6126 23.6439ZM32.948 22.2359C33.1859 22.2213 33.4263 22.2144 33.6675 22.2144C40.0818 22.2144 45.2803 27.4128 45.2803 33.8271C45.2803 40.2414 40.0818 45.4399 33.6675 45.4399C27.2532 45.4399 22.0548 40.2414 22.0548 33.8271C22.0548 33.5859 22.0617 33.3455 22.0763 33.1076C22.309 33.124 22.5433 33.1318 22.7803 33.1318C23.0328 33.1318 23.2835 33.1223 23.5317 33.1042C23.5144 33.3429 23.5058 33.5841 23.5058 33.8271C23.5058 36.6198 24.632 39.1488 26.4545 40.9851C27.4609 37.964 30.3105 35.7857 33.6675 35.7857C37.0246 35.7857 39.8742 37.964 40.8797 40.9851C42.703 39.1488 43.8284 36.6198 43.8284 33.8271C43.8284 28.2142 39.2796 23.6654 33.6675 23.6654C33.4245 23.6654 33.1833 23.674 32.9446 23.6913C32.9627 23.4431 32.9722 23.1924 32.9722 22.9399C32.9722 22.7029 32.9644 22.4686 32.948 22.2359ZM31.8089 27.6705C32.3604 27.3637 32.9946 27.1879 33.6675 27.1879C35.7829 27.1879 37.5123 28.9182 37.5123 31.0336C37.5123 33.1481 35.7829 34.8784 33.6675 34.8784C31.5521 34.8784 29.8228 33.1481 29.8228 31.0336C29.8228 30.7544 29.8529 30.483 29.9098 30.221C30.6681 29.4783 31.3109 28.6183 31.8089 27.6705ZM11.8931 13.1039C9.77763 13.1039 8.04825 11.3745 8.04825 9.25916C8.04825 7.14375 9.77763 5.41438 11.8931 5.41438C14.0085 5.41438 15.7378 7.14375 15.7378 9.25916C15.7378 11.3745 14.0085 13.1039 11.8931 13.1039ZM12.1378 31.791C12.0887 31.8039 12.0464 31.8358 12.0215 31.8806C11.9956 31.9246 11.9896 31.9771 12.0025 32.0262C12.8392 35.0869 14.4445 39.3599 19.9385 39.5383C20.0169 39.5409 20.0858 39.5909 20.1117 39.665C20.1384 39.7382 20.1169 39.8209 20.0574 39.8726C16.0256 43.3047 9.0745 41.9855 6.6937 33.4454C6.66527 33.3446 6.56186 33.2851 6.46019 33.3127C6.08191 33.4135 5.20732 33.6479 4.69462 33.7849C4.6231 33.8047 4.54641 33.7806 4.49902 33.7237C4.45077 33.6669 4.44043 33.5876 4.47145 33.5204L7.85265 26.2461C7.87764 26.1927 7.92503 26.1539 7.98276 26.1402C8.03963 26.1272 8.09995 26.1402 8.14562 26.1772L14.0972 30.9509C14.1532 30.9957 14.1791 31.0689 14.1644 31.1396C14.1498 31.2102 14.0964 31.2662 14.0266 31.2843L12.1378 31.791ZM33.4228 14.0888C33.4719 14.0759 33.5142 14.044 33.5391 13.9992C33.565 13.9552 33.571 13.9027 33.5581 13.8536C32.7214 10.7929 31.1161 6.5199 25.6221 6.34154C25.5437 6.33895 25.4748 6.28897 25.4489 6.21487C25.4222 6.14163 25.4437 6.05891 25.5032 6.00721C29.535 2.57517 36.4861 3.89439 38.8669 12.4344C38.8953 12.5352 38.9987 12.5947 39.1004 12.5671C39.4787 12.4663 40.3533 12.2319 40.866 12.0949C40.9375 12.0751 41.0142 12.0992 41.0615 12.1561C41.1098 12.2129 41.1201 12.2922 41.0891 12.3594L37.7079 19.6337C37.6829 19.6871 37.6355 19.7259 37.5778 19.7396C37.5209 19.7526 37.4606 19.7396 37.415 19.7026L31.4634 14.9289C31.4074 14.8841 31.3815 14.8109 31.3962 14.7402C31.4108 14.6696 31.4642 14.6136 31.534 14.5955L33.4228 14.0888ZM22.7803 14.2C27.6039 14.2 31.5202 18.1163 31.5202 22.9399C31.5202 27.7635 27.6039 31.6798 22.7803 31.6798C17.9567 31.6798 14.0404 27.7635 14.0404 22.9399C14.0404 18.1163 17.9567 14.2 22.7803 14.2ZM22.9811 17.5536C22.9294 17.4933 22.8596 17.4614 22.7803 17.4614C22.6993 17.4614 22.6312 17.4933 22.5795 17.5536L18.945 21.8344C18.8769 21.9154 18.8623 22.0196 18.9054 22.1161C18.9493 22.2109 19.0406 22.2695 19.1458 22.2695H20.839V27.8919C20.839 28.1823 21.0751 28.4184 21.3663 28.4184H24.1943C24.4856 28.4184 24.7216 28.1823 24.7216 27.8919V22.2695H26.4148C26.52 22.2695 26.6113 22.2109 26.6552 22.1161C26.6983 22.0196 26.6837 21.9154 26.6156 21.8344L22.9811 17.5536Z" fill="#00D280"/>
</g>
</g>
</g>
<defs>
<clipPath id="clip0_1_1488">
<rect width="45" height="45" fill="white" transform="translate(0.280273 0.439941)"/>
</clipPath>
<clipPath id="clip1_1_1488">
<rect width="45" height="45" fill="white" transform="translate(0.280273 0.439941)"/>
</clipPath>
<clipPath id="clip2_1_1488">
<rect width="45" height="45" fill="white" transform="translate(0.280273 0.439941)"/>
</clipPath>
</defs>
</svg>
