<svg width="56" height="56" viewBox="0 0 56 56" fill="none" xmlns="http://www.w3.org/2000/svg">
<g clip-path="url(#clip0_1_1401)">
<g clip-path="url(#clip1_1_1401)">
<g clip-path="url(#clip2_1_1401)">
<mask id="mask0_1_1401" style="mask-type:luminance" maskUnits="userSpaceOnUse" x="0" y="0" width="56" height="56">
<path d="M0.469727 0.5H55.4697V55.5H0.469727V0.5Z" fill="white"/>
</mask>
<g mask="url(#mask0_1_1401)">
<path d="M10.8274 34.3889C10.8274 33.1391 11.984 32.1238 13.4072 32.1238C14.8291 32.1238 15.987 33.1391 15.987 34.3889C15.987 35.6375 14.8291 36.6541 13.4072 36.6541C11.984 36.6541 10.8274 35.6375 10.8274 34.3889ZM41.4766 39.2493C40.0548 39.2493 38.8969 40.2659 38.8969 41.5145C38.8969 42.7642 40.0548 43.7796 41.4766 43.7796C42.8985 43.7796 44.0563 42.7642 44.0563 41.5145C44.0563 40.2659 42.8985 39.2493 41.4766 39.2493ZM42.9542 37.9517C42.9542 39.2002 44.1121 40.2168 45.534 40.2168C46.9572 40.2168 48.1137 39.2002 48.1137 37.9517C48.1137 36.7019 46.9572 35.6865 45.534 35.6865C44.1121 35.6865 42.9542 36.7019 42.9542 37.9517ZM11.9296 37.9517C11.9296 36.7019 10.7717 35.6865 9.34989 35.6865C7.92666 35.6865 6.77014 36.7019 6.77014 37.9517C6.77014 39.2002 7.92666 40.2168 9.34989 40.2168C10.7717 40.2168 11.9296 39.2002 11.9296 37.9517ZM55.4352 18.5136V22.4077C55.4352 22.8813 54.997 23.2652 54.4582 23.2652H49.6811C49.1423 23.2652 48.7055 22.8813 48.7055 22.4077V18.5136C48.7055 18.2757 48.8185 18.0472 49.0172 17.8858L51.0935 16.1935V10.9408L49.1437 11.7612V16.8022C49.1437 17.4265 48.745 17.9815 48.1042 18.2518L39.4602 21.8875C38.6329 22.2355 37.7894 22.4555 36.9403 22.5512V24.6681C36.9403 26.4358 35.3035 27.8733 33.2911 27.8733H30.1155C29.1794 27.8733 28.4175 28.5418 28.4175 29.3634V32.1357H31.3768C32.4544 32.1357 33.3538 31.7279 33.9783 30.9553C35.8165 28.683 38.6778 27.3219 41.6331 27.3147C41.6399 27.3147 41.6467 27.3147 41.6535 27.3147C44.3257 27.3147 46.6959 28.4163 48.3314 30.4194C49.9913 32.4502 51.6622 36.6014 52.6731 39.8102C53.3166 41.8565 54.7616 46.9238 54.2568 49.7618C53.8528 52.0294 52.2812 53.834 49.9437 54.7119C47.5245 55.6197 44.7272 55.335 42.4603 53.9512C40.2112 52.5784 38.3281 50.7353 36.5076 48.9533C36.0273 48.4833 35.5294 47.9966 35.0368 47.5301C34.4001 46.9274 33.6354 46.6332 32.698 46.6332H32.6966H22.1872H22.1859C21.2484 46.6332 20.4838 46.9274 19.8469 47.5301C19.3545 47.9966 18.8564 48.4833 18.3762 48.9533C16.5557 50.7353 14.6725 52.5784 12.4235 53.9512C11.033 54.8004 9.44238 55.2358 7.86135 55.2358C6.86675 55.2358 5.87486 55.0623 4.94012 54.7119C2.60259 53.834 1.03109 52.0294 0.626981 49.7618C0.120833 46.925 1.5658 41.8565 2.21073 39.8102C3.22167 36.6014 4.8925 32.4502 6.55108 30.4194C8.19198 28.4114 10.5689 27.31 13.2507 27.3147C16.2059 27.3219 19.0674 28.683 20.9056 30.9553C21.53 31.7279 22.4294 32.1357 23.5071 32.1357H26.465V29.3634C26.465 27.5958 28.1032 26.1583 30.1155 26.1583H33.2911C34.2272 26.1583 34.9878 25.4898 34.9878 24.6681V22.5524C34.1388 22.4555 33.2953 22.2355 32.468 21.8875L23.824 18.2518C23.1832 17.9815 22.7845 17.4265 22.7845 16.8022V11.7612L18.0959 9.78793C17.6346 9.59416 17.3598 9.24131 17.3598 8.84429C17.3598 8.46995 17.6101 8.13269 18.0129 7.96287L35.2518 0.711737C35.7444 0.504835 36.3634 0.580181 36.758 0.74642L53.8337 7.92819C54.2936 8.12193 54.5684 8.47593 54.5684 8.87299C54.5684 9.24614 54.3181 9.5846 53.9153 9.75324L53.0459 10.1192V16.1935L55.1222 17.8858C55.3208 18.0472 55.4352 18.2757 55.4352 18.5136ZM23.5071 33.8495C21.794 33.8495 20.3055 33.1749 19.3136 31.9479C17.8401 30.1253 15.5719 29.0345 13.2453 29.0298C13.2398 29.0298 13.2344 29.0298 13.2304 29.0298C11.2044 29.0298 9.39745 29.8777 8.13891 31.4181C6.89396 32.9417 5.30613 36.4149 4.09246 40.2671C2.83933 44.246 2.25019 47.7837 2.55633 49.4975C2.85294 51.1682 4.00266 52.4946 5.70751 53.1356C7.50351 53.809 9.59748 53.5877 11.3092 52.5437C13.3705 51.2842 15.0971 49.5956 16.9231 47.8088C17.4087 47.3328 17.9109 46.8413 18.4156 46.3641C19.4129 45.4193 20.7178 44.9194 22.1859 44.9194H22.1872H32.6966H32.698C34.1661 44.9194 35.4709 45.4193 36.4682 46.3641C36.973 46.8413 37.475 47.3328 37.9608 47.8088C39.7881 49.5956 41.5134 51.2842 43.5747 52.5437C45.2863 53.5877 47.3803 53.809 49.1763 53.1356C50.8812 52.4946 52.0309 51.1682 52.3275 49.4975C52.6336 47.7837 52.0445 44.2472 50.7914 40.2671C49.5777 36.4149 47.9898 32.9417 46.7463 31.4181C45.4877 29.8777 43.6795 29.0298 41.6535 29.0298C41.6481 29.0298 41.6439 29.0298 41.6385 29.0298C39.3119 29.0345 37.0437 30.1253 35.5702 31.9479C34.5783 33.1749 33.0898 33.8507 31.3768 33.8507H23.5071V33.8495ZM51.0935 8.67686L35.9648 2.31313L20.4048 8.85864L35.9648 15.4042L48.1831 10.2639L35.9145 9.71499C35.3756 9.69105 34.962 9.28802 34.9892 8.8144C35.0164 8.34199 35.4736 7.97841 36.0137 8.00233L51.0935 8.67686ZM17.4645 35.6865C16.0414 35.6865 14.8848 36.7019 14.8848 37.9517C14.8848 39.2002 16.0414 40.2168 17.4645 40.2168C18.8864 40.2168 20.0443 39.2002 20.0443 37.9517C20.0443 36.7019 18.8864 35.6865 17.4645 35.6865ZM20.9531 40.4369V42.8659C20.9531 43.5213 21.5586 44.0534 22.3043 44.0534H32.5783C33.3238 44.0534 33.9307 43.5213 33.9307 42.8659V40.4369C33.9307 39.7827 33.3238 39.2505 32.5783 39.2505H22.3043C21.5586 39.2505 20.9531 39.7827 20.9531 40.4369ZM37.4193 40.2168C38.8411 40.2168 39.999 39.2002 39.999 37.9517C39.999 36.7019 38.8411 35.6865 37.4193 35.6865C35.996 35.6865 34.8395 36.7019 34.8395 37.9517C34.8395 39.2002 35.996 40.2168 37.4193 40.2168ZM41.4766 36.6541C42.8985 36.6541 44.0563 35.6375 44.0563 34.3889C44.0563 33.1391 42.8985 32.1238 41.4766 32.1238C40.0548 32.1238 38.8969 33.1391 38.8969 34.3889C38.8969 35.6375 40.0548 36.6541 41.4766 36.6541ZM13.4072 39.2493C11.984 39.2493 10.8274 40.2659 10.8274 41.5145C10.8274 42.7642 11.984 43.7796 13.4072 43.7796C14.8291 43.7796 15.987 42.7642 15.987 41.5145C15.987 40.2659 14.8291 39.2493 13.4072 39.2493Z" fill="#0575AD"/>
</g>
</g>
</g>
</g>
<defs>
<clipPath id="clip0_1_1401">
<rect width="55.84" height="55" fill="white" transform="translate(0.0498047 0.5)"/>
</clipPath>
<clipPath id="clip1_1_1401">
<rect width="55.84" height="55" fill="white" transform="translate(0.0498047 0.5)"/>
</clipPath>
<clipPath id="clip2_1_1401">
<rect width="55.8462" height="55" fill="white" transform="translate(0.046875 0.5)"/>
</clipPath>
</defs>
</svg>
