<svg width="56" height="56" viewBox="0 0 56 56" fill="none" xmlns="http://www.w3.org/2000/svg">
<g clip-path="url(#clip0_1_1402)">
<g clip-path="url(#clip1_1_1402)">
<mask id="mask0_1_1402" style="mask-type:luminance" maskUnits="userSpaceOnUse" x="0" y="0" width="56" height="56">
<path d="M0.469727 0.5H55.4697V55.5H0.469727V0.5Z" fill="white"/>
</mask>
<g mask="url(#mask0_1_1402)">
<path d="M10.8279 34.3889C10.8279 33.1391 11.9845 32.1238 13.4077 32.1238C14.8296 32.1238 15.9874 33.1391 15.9874 34.3889C15.9874 35.6375 14.8296 36.6541 13.4077 36.6541C11.9845 36.6541 10.8279 35.6375 10.8279 34.3889ZM41.4771 39.2493C40.0553 39.2493 38.8974 40.2659 38.8974 41.5145C38.8974 42.7642 40.0553 43.7796 41.4771 43.7796C42.8989 43.7796 44.0568 42.7642 44.0568 41.5145C44.0568 40.2659 42.8989 39.2493 41.4771 39.2493ZM42.9547 37.9517C42.9547 39.2002 44.1126 40.2168 45.5345 40.2168C46.9577 40.2168 48.1142 39.2002 48.1142 37.9517C48.1142 36.7019 46.9577 35.6865 45.5345 35.6865C44.1126 35.6865 42.9547 36.7019 42.9547 37.9517ZM11.9301 37.9517C11.9301 36.7019 10.7722 35.6865 9.35038 35.6865C7.92715 35.6865 6.77063 36.7019 6.77063 37.9517C6.77063 39.2002 7.92715 40.2168 9.35038 40.2168C10.7722 40.2168 11.9301 39.2002 11.9301 37.9517ZM55.4356 18.5136V22.4077C55.4356 22.8813 54.9975 23.2652 54.4587 23.2652H49.6816C49.1428 23.2652 48.706 22.8813 48.706 22.4077V18.5136C48.706 18.2757 48.819 18.0472 49.0177 17.8858L51.0939 16.1935V10.9408L49.1441 11.7612V16.8022C49.1441 17.4265 48.7455 17.9815 48.1047 18.2518L39.4607 21.8875C38.6334 22.2355 37.7899 22.4555 36.9408 22.5512V24.6681C36.9408 26.4358 35.304 27.8733 33.2916 27.8733H30.116C29.1799 27.8733 28.4179 28.5418 28.4179 29.3634V32.1357H31.3773C32.4549 32.1357 33.3542 31.7279 33.9788 30.9553C35.817 28.683 38.6783 27.3219 41.6336 27.3147C41.6404 27.3147 41.6471 27.3147 41.654 27.3147C44.3262 27.3147 46.6964 28.4163 48.3318 30.4194C49.9918 32.4502 51.6626 36.6014 52.6735 39.8102C53.3171 41.8565 54.7621 46.9238 54.2573 49.7618C53.8533 52.0294 52.2817 53.834 49.9442 54.7119C47.525 55.6197 44.7276 55.335 42.4608 53.9512C40.2117 52.5784 38.3286 50.7353 36.5081 48.9533C36.0278 48.4833 35.5299 47.9966 35.0373 47.5301C34.4006 46.9274 33.6359 46.6332 32.6985 46.6332H32.6971H22.1877H22.1864C21.2489 46.6332 20.4842 46.9274 19.8474 47.5301C19.355 47.9966 18.8569 48.4833 18.3766 48.9533C16.5561 50.7353 14.673 52.5784 12.424 53.9512C11.0335 54.8004 9.44287 55.2358 7.86184 55.2358C6.86724 55.2358 5.87535 55.0623 4.94061 54.7119C2.60308 53.834 1.03157 52.0294 0.627469 49.7618C0.121321 46.925 1.56629 41.8565 2.21122 39.8102C3.22216 36.6014 4.89299 32.4502 6.55157 30.4194C8.19247 28.4114 10.5694 27.31 13.2512 27.3147C16.2064 27.3219 19.0679 28.683 20.9061 30.9553C21.5305 31.7279 22.4299 32.1357 23.5076 32.1357H26.4655V29.3634C26.4655 27.5958 28.1037 26.1583 30.116 26.1583H33.2916C34.2277 26.1583 34.9883 25.4898 34.9883 24.6681V22.5524C34.1393 22.4555 33.2958 22.2355 32.4685 21.8875L23.8245 18.2518C23.1836 17.9815 22.785 17.4265 22.785 16.8022V11.7612L18.0964 9.78793C17.6351 9.59416 17.3602 9.24131 17.3602 8.84429C17.3602 8.46995 17.6106 8.13269 18.0134 7.96287L35.2523 0.711737C35.7449 0.504835 36.3639 0.580181 36.7585 0.74642L53.8342 7.92819C54.2941 8.12193 54.5689 8.47593 54.5689 8.87299C54.5689 9.24614 54.3186 9.5846 53.9158 9.75324L53.0464 10.1192V16.1935L55.1227 17.8858C55.3213 18.0472 55.4356 18.2757 55.4356 18.5136ZM23.5076 33.8495C21.7945 33.8495 20.306 33.1749 19.3141 31.9479C17.8406 30.1253 15.5724 29.0345 13.2458 29.0298C13.2403 29.0298 13.2349 29.0298 13.2308 29.0298C11.2049 29.0298 9.39794 29.8777 8.1394 31.4181C6.89445 32.9417 5.30661 36.4149 4.09295 40.2671C2.83982 44.246 2.25068 47.7837 2.55682 49.4975C2.85343 51.1682 4.00315 52.4946 5.708 53.1356C7.504 53.809 9.59797 53.5877 11.3097 52.5437C13.371 51.2842 15.0975 49.5956 16.9235 47.8088C17.4092 47.3328 17.9113 46.8413 18.4161 46.3641C19.4134 45.4193 20.7183 44.9194 22.1864 44.9194H22.1877H32.6971H32.6985C34.1665 44.9194 35.4714 45.4193 36.4687 46.3641C36.9735 46.8413 37.4755 47.3328 37.9613 47.8088C39.7886 49.5956 41.5139 51.2842 43.5752 52.5437C45.2868 53.5877 47.3808 53.809 49.1768 53.1356C50.8816 52.4946 52.0314 51.1682 52.328 49.4975C52.6341 47.7837 52.045 44.2472 50.7919 40.2671C49.5782 36.4149 47.9903 32.9417 46.7467 31.4181C45.4882 29.8777 43.6799 29.0298 41.654 29.0298C41.6486 29.0298 41.6444 29.0298 41.639 29.0298C39.3124 29.0345 37.0442 30.1253 35.5707 31.9479C34.5788 33.1749 33.0903 33.8507 31.3773 33.8507H23.5076V33.8495ZM51.0939 8.67686L35.9653 2.31313L20.4053 8.85864L35.9653 15.4042L48.1836 10.2639L35.915 9.71499C35.3761 9.69105 34.9625 9.28802 34.9897 8.8144C35.0169 8.34199 35.4741 7.97841 36.0142 8.00233L51.0939 8.67686ZM17.465 35.6865C16.0419 35.6865 14.8853 36.7019 14.8853 37.9517C14.8853 39.2002 16.0419 40.2168 17.465 40.2168C18.8869 40.2168 20.0448 39.2002 20.0448 37.9517C20.0448 36.7019 18.8869 35.6865 17.465 35.6865ZM20.9536 40.4369V42.8659C20.9536 43.5213 21.5591 44.0534 22.3047 44.0534H32.5787C33.3243 44.0534 33.9312 43.5213 33.9312 42.8659V40.4369C33.9312 39.7827 33.3243 39.2505 32.5787 39.2505H22.3047C21.5591 39.2505 20.9536 39.7827 20.9536 40.4369ZM37.4198 40.2168C38.8416 40.2168 39.9995 39.2002 39.9995 37.9517C39.9995 36.7019 38.8416 35.6865 37.4198 35.6865C35.9965 35.6865 34.84 36.7019 34.84 37.9517C34.84 39.2002 35.9965 40.2168 37.4198 40.2168ZM41.4771 36.6541C42.8989 36.6541 44.0568 35.6375 44.0568 34.3889C44.0568 33.1391 42.8989 32.1238 41.4771 32.1238C40.0553 32.1238 38.8974 33.1391 38.8974 34.3889C38.8974 35.6375 40.0553 36.6541 41.4771 36.6541ZM13.4077 39.2493C11.9845 39.2493 10.8279 40.2659 10.8279 41.5145C10.8279 42.7642 11.9845 43.7796 13.4077 43.7796C14.8296 43.7796 15.9874 42.7642 15.9874 41.5145C15.9874 40.2659 14.8296 39.2493 13.4077 39.2493Z" fill="white"/>
</g>
</g>
</g>
<defs>
<clipPath id="clip0_1_1402">
<rect width="55.84" height="55" fill="white" transform="translate(0.0498047 0.5)"/>
</clipPath>
<clipPath id="clip1_1_1402">
<rect width="55.8462" height="55" fill="white" transform="translate(0.046875 0.5)"/>
</clipPath>
</defs>
</svg>
