<svg width="46" height="46" viewBox="0 0 46 46" fill="none" xmlns="http://www.w3.org/2000/svg">
<g clip-path="url(#clip0_1_1532)">
<g clip-path="url(#clip1_1_1532)">
<g clip-path="url(#clip2_1_1532)">
<mask id="mask0_1_1532" style="mask-type:luminance" maskUnits="userSpaceOnUse" x="0" y="0" width="46" height="46">
<path d="M0.280273 0.439941H45.2803V45.4399H0.280273V0.439941Z" fill="white"/>
</mask>
<g mask="url(#mask0_1_1532)">
<path fill-rule="evenodd" clip-rule="evenodd" d="M2.07451 31.1046H5.81524C6.07213 31.1046 6.28135 31.315 6.28135 31.572V39.6353C6.28135 39.8923 6.07213 40.1027 5.81524 40.1027H2.07451C1.81895 40.1027 1.60974 39.8923 1.60974 39.6353V31.572C1.60974 31.315 1.81895 31.1046 2.07451 31.1046ZM37.44 27.3799C38.3047 27.5863 39.1296 27.9312 39.8857 28.3986L41.4747 27.6902L43.3484 29.5692L42.6426 31.1645C43.1087 31.9236 43.4517 32.7519 43.6569 33.6201L45.2777 34.246V36.9054L43.6569 37.5326C43.4503 38.3995 43.1087 39.2278 42.6426 39.9869L43.3484 41.5822L41.4747 43.4625L39.887 42.7541C39.1296 43.2215 38.3047 43.5651 37.44 43.7728L36.8163 45.4001H34.168L33.543 43.7715C32.6784 43.5651 31.8534 43.2215 31.0973 42.7541L29.5083 43.4625L27.6347 41.5822L28.3404 39.9882C27.8757 39.2278 27.5327 38.3995 27.3275 37.5326L25.7054 36.9054V34.246L27.3275 33.6201C27.5327 32.7532 27.8757 31.9236 28.3404 31.1645L27.6347 29.5692L29.5083 27.6902L31.0973 28.3986C31.8534 27.9312 32.6797 27.5863 33.543 27.3799L34.168 25.7526H36.8163L37.44 27.3799ZM35.4922 30.9395C32.9405 30.9395 30.8722 33.0142 30.8722 35.5764C30.8722 38.1372 32.9405 40.2132 35.4922 40.2132C38.0438 40.2132 40.1108 38.1372 40.1108 35.5764C40.1108 33.0142 38.0438 30.9395 35.4922 30.9395ZM38.841 0.661177L39.8367 3.2939C39.8672 3.3738 39.936 3.4244 40.0208 3.4284L42.824 3.56556C43.0134 3.57488 43.0915 3.81592 42.9432 3.93577L40.7557 5.70024C40.6908 5.75351 40.663 5.83607 40.6855 5.9173L41.4217 8.63658C41.4721 8.82036 41.2681 8.9695 41.1079 8.8643L38.7602 7.32222C38.69 7.27561 38.6039 7.27561 38.5324 7.32222L36.1847 8.8643C36.0258 8.9695 35.8206 8.82036 35.8709 8.63658L36.6071 5.9173C36.6296 5.83607 36.6031 5.75351 36.5369 5.70024L34.3494 3.93577C34.2011 3.81592 34.2793 3.57488 34.4699 3.56556L37.2732 3.4284C37.3566 3.4244 37.4268 3.3738 37.4559 3.2939L38.453 0.661177C38.5192 0.482733 38.7734 0.482733 38.841 0.661177ZM1.36212 27.3679C6.52631 25.5621 11.8481 23.2424 17.1129 20.2288C21.9342 17.4709 26.7078 14.1337 31.2734 10.0815L31.0324 11.7447C30.9742 12.1535 31.2562 12.5317 31.6641 12.589C32.0706 12.6476 32.4466 12.3639 32.5049 11.9551L33.0425 8.23841C33.1087 7.77765 32.7379 7.36483 32.2692 7.3888L28.5324 7.59255C28.1233 7.61253 27.8081 7.96409 27.8293 8.37424C27.8492 8.78573 28.1987 9.10267 28.6092 9.08136L30.2565 8.99214C25.7795 12.9618 21.1013 16.2311 16.3807 18.9317C11.1966 21.8974 5.95825 24.1825 0.873511 25.959C0.485534 26.0948 0.281615 26.5196 0.416678 26.9085C0.551742 27.2973 0.974146 27.5037 1.36212 27.3679ZM40.5173 12.6129H36.7766C36.5197 12.6129 36.3105 12.822 36.3105 13.0803V24.2571H37.8399L38.5642 26.1454C39.0436 26.3026 39.511 26.4983 39.9625 26.7274L40.9821 26.2719V13.0803C40.9821 12.822 40.7729 12.6129 40.5173 12.6129ZM28.1008 17.0408C27.8439 17.0408 27.6347 17.2512 27.6347 17.5082V27.4545L29.1786 25.9057L31.0218 26.7274C31.4363 26.5156 31.8667 26.3345 32.3076 26.1827V17.5082C32.3076 17.2512 32.0984 17.0408 31.8415 17.0408H28.1008ZM23.167 21.4686C23.4225 21.4686 23.6317 21.679 23.6317 21.936V39.6353C23.6317 39.8923 23.4225 40.1027 23.167 40.1027H19.4262C19.1694 40.1027 18.9601 39.8923 18.9601 39.6353V21.936C18.9601 21.679 19.1694 21.4686 19.4262 21.4686H23.167ZM14.4911 26.3918C14.748 26.3918 14.9572 26.6009 14.9572 26.8592C14.9572 31.4002 14.9572 35.093 14.9572 39.6353C14.9572 39.8923 14.748 40.1027 14.4911 40.1027C13.2438 40.1027 11.9977 40.1027 10.7504 40.1027C10.4935 40.1027 10.2843 39.8923 10.2843 39.6353C10.2843 35.093 10.2843 31.4002 10.2843 26.8592C10.2843 26.6009 10.4935 26.3918 10.7504 26.3918C11.9977 26.3918 13.2438 26.3918 14.4911 26.3918Z" fill="#00D280"/>
</g>
</g>
</g>
</g>
<defs>
<clipPath id="clip0_1_1532">
<rect width="45" height="45" fill="white" transform="translate(0.280273 0.439941)"/>
</clipPath>
<clipPath id="clip1_1_1532">
<rect width="45" height="45" fill="white" transform="translate(0.280273 0.439941)"/>
</clipPath>
<clipPath id="clip2_1_1532">
<rect width="45" height="45" fill="white" transform="translate(0.280273 0.439941)"/>
</clipPath>
</defs>
</svg>
