<svg width="64" height="56" viewBox="0 0 64 56" fill="none" xmlns="http://www.w3.org/2000/svg">
<g clip-path="url(#clip0_1_1304)">
<g clip-path="url(#clip1_1_1304)">
<mask id="mask0_1_1304" style="mask-type:luminance" maskUnits="userSpaceOnUse" x="1" y="1" width="62" height="54">
<path d="M1.22168 1.29175H62.8596V54.8157H1.22168V1.29175Z" fill="white"/>
</mask>
<g mask="url(#mask0_1_1304)">
<path fill-rule="evenodd" clip-rule="evenodd" d="M58.1212 1.30396H5.96016C3.35424 1.30396 1.22168 3.33835 1.22168 5.82535V36.9348C1.22168 39.4219 3.35424 41.4563 5.96016 41.4563H22.354V48.64H15.1423C12.9196 48.64 11.1016 50.0277 11.1016 51.7222V54.8028H52.9797V51.7222C52.9797 50.0277 51.1617 48.64 48.939 48.64H41.7273V41.4563H58.1212C60.727 41.4563 62.8596 39.4219 62.8596 36.9348V5.82535C62.8596 3.33835 60.727 1.30396 58.1212 1.30396ZM58.8975 33.8386H5.18379V29.5537C4.16993 29.5365 3.15278 29.5458 2.13727 29.5458V9.58876C3.15278 9.58876 4.16829 9.58249 5.18379 9.59189V5.71259C5.18379 5.36648 5.48025 5.08458 5.84059 5.08458H58.2407C58.601 5.08458 58.8975 5.36648 58.8975 5.71259V33.8386ZM49.0226 10.353C47.4305 9.5261 45.6664 9.10639 43.85 9.10639C37.8569 9.10639 32.9988 13.7437 32.9988 19.4616C32.9988 21.3472 33.5197 23.1655 34.5368 24.7833C34.8268 25.2468 34.6695 25.8467 34.183 26.1239C33.6982 26.4011 33.0692 26.2508 32.7794 25.7872C31.5787 23.8781 30.9449 21.6886 30.9449 19.4616C30.9449 12.6599 36.7234 7.14717 43.85 7.14717C46.0923 7.14717 48.2969 7.7047 50.2428 8.76497C50.341 8.45801 50.5949 8.20273 50.9438 8.10876C51.4876 7.95998 52.0559 8.26224 52.2115 8.7822L52.8126 10.7931C53.0043 11.4368 52.4785 12.0648 51.789 12.0413L49.6712 12.1133C49.1061 12.1322 48.6327 11.7109 48.6114 11.1705C48.5999 10.8385 48.7638 10.5394 49.0226 10.353ZM37.4572 30.1598C37.359 30.4667 37.1051 30.722 36.7562 30.816C36.2124 30.9632 35.6441 30.6625 35.4885 30.141L34.8874 28.1301C34.6957 27.488 35.2214 26.86 35.911 26.8835L38.0288 26.8114C38.5939 26.7926 39.0673 27.2139 39.0886 27.7527C39.1001 28.0847 38.9379 28.3853 38.6774 28.5702C40.2711 29.3971 42.0352 29.8168 43.85 29.8168C49.8431 29.8168 54.7012 25.1811 54.7012 19.4616C54.7012 17.6276 54.2016 15.8407 53.2336 14.2542C52.9502 13.786 53.1173 13.1877 53.607 12.9168C54.0968 12.6474 54.7241 12.8056 55.0074 13.2738C56.1557 15.1547 56.7551 17.2847 56.7551 19.4616C56.7551 26.2633 50.9766 31.7776 43.85 31.7776C41.6061 31.7776 39.4047 31.22 37.4572 30.1598ZM50.459 17.9566C50.2919 17.2894 50.0151 16.652 49.6384 16.0678L50.21 14.84L48.6933 13.3928L47.4076 13.9379C46.795 13.5793 46.1267 13.3146 45.4273 13.1548L44.9212 11.9019H42.7771L42.2727 13.1548C41.5733 13.3146 40.905 13.5793 40.2924 13.9379L39.0067 13.3928L37.49 14.84L38.0616 16.0678C37.6849 16.652 37.4081 17.2894 37.241 17.9566L35.9291 18.4389V20.4858L37.241 20.9666C37.4081 21.6354 37.6849 22.2728 38.0616 22.857L37.49 24.0848L39.0067 25.5304L40.2924 24.9853C40.905 25.3456 41.5733 25.6102 42.2727 25.7684L42.7771 27.0213H44.9229L45.4273 25.7699C46.1267 25.6102 46.795 25.3456 47.4076 24.9853L48.6933 25.5319L50.21 24.0848L49.6384 22.857C50.0151 22.2728 50.2919 21.6354 50.459 20.9682L51.7709 20.4858V18.4389L50.459 17.9566ZM43.85 23.0308C41.7846 23.0308 40.1107 21.4333 40.1107 19.4616C40.1107 17.4915 41.7846 15.894 43.85 15.894C45.9154 15.894 47.5893 17.4915 47.5893 19.4616C47.5893 21.4333 45.9154 23.0308 43.85 23.0308ZM17.6368 12.9951V29.3251C20.7439 27.9798 24.9125 27.5851 29.0252 27.5851V11.5496C23.2172 11.5496 21.4123 12.0178 17.6368 12.9951ZM20.3361 14.4626C22.2508 14.0162 24.0706 13.7735 26.0377 13.6795C26.6028 13.6545 27.0827 14.071 27.1106 14.6097C27.1367 15.1485 26.6994 15.6073 26.1343 15.6325C24.3032 15.7202 22.5997 15.9472 20.8177 16.3623C20.2673 16.4891 19.7137 16.1664 19.5811 15.6418C19.4484 15.1172 19.7858 14.5894 20.3361 14.4626ZM20.3279 17.8704C22.2279 17.4115 24.0755 17.1704 26.0295 17.067C26.5946 17.0388 27.0795 17.4507 27.1089 17.991C27.1401 18.5297 26.7076 18.9917 26.1426 19.0215C24.3195 19.1171 22.5981 19.3426 20.8242 19.7702C20.2755 19.9001 19.7187 19.5822 19.5811 19.0575C19.4435 18.5329 19.7776 18.002 20.3279 17.8704ZM26.1474 22.409C24.3408 22.5109 22.5866 22.7348 20.8324 23.1702C20.2853 23.3049 19.7268 22.9917 19.586 22.4686C19.4435 21.9455 19.7727 21.413 20.3198 21.2783C22.2116 20.8084 24.0771 20.5657 26.0262 20.4561C26.5913 20.4248 27.0761 20.8351 27.1106 21.3754C27.1433 21.9141 26.7109 22.3777 26.1474 22.409ZM26.1507 25.7966C24.3555 25.903 22.5785 26.127 20.8373 26.5686C20.2903 26.7065 19.7284 26.3948 19.5843 25.8718C19.4401 25.3487 19.7678 24.8146 20.3148 24.6768C22.1936 24.2007 24.0853 23.9596 26.0213 23.8436C26.5881 23.8092 27.0745 24.2195 27.1089 24.7582C27.1449 25.2985 26.7158 25.7621 26.1507 25.7966ZM4.19122 11.5496V27.5851C8.30401 27.5851 12.4741 27.9798 15.5812 29.3251V12.9951C11.8059 12.0178 10.0009 11.5496 4.19122 11.5496ZM7.17877 13.6795C9.14754 13.7735 10.9656 14.0162 12.882 14.4626C13.4323 14.5894 13.7697 15.1172 13.6371 15.6418C13.5044 16.1664 12.9508 16.4891 12.4004 16.3623C10.6184 15.9457 8.91496 15.7202 7.08377 15.6325C6.51869 15.6073 6.08137 15.1485 6.10758 14.6097C6.13378 14.071 6.61369 13.6545 7.17877 13.6795ZM13.6321 25.8718C13.488 26.3948 12.9279 26.7065 12.3808 26.5686C10.6397 26.127 8.86255 25.9047 7.06739 25.7966C6.50232 25.7621 6.07317 25.2985 6.10758 24.7582C6.14361 24.2195 6.63007 23.8092 7.19514 23.8436C9.13279 23.9596 11.0246 24.2007 12.9016 24.6768C13.4504 24.8146 13.7763 25.3487 13.6321 25.8718ZM6.10758 21.3754C6.14197 20.8351 6.62679 20.4248 7.19187 20.4561C9.13935 20.5657 11.0066 20.8084 12.8984 21.2783C13.4454 21.413 13.7747 21.9455 13.6321 22.4686C13.4913 22.9917 12.9328 23.3049 12.384 23.1702C10.6315 22.7348 8.87728 22.5109 7.07066 22.409C6.50559 22.3777 6.07481 21.9141 6.10758 21.3754ZM13.6371 19.0575C13.4995 19.5822 12.9426 19.9017 12.3923 19.7702C10.62 19.3426 8.89858 19.1171 7.07558 19.0215C6.5105 18.9917 6.07645 18.5297 6.10758 17.991C6.13869 17.4507 6.62187 17.0388 7.18696 17.0685C9.14263 17.1704 10.9902 17.4115 12.8902 17.8704C13.4405 18.002 13.7747 18.5329 13.6371 19.0575Z" fill="#0575AD"/>
</g>
</g>
</g>
<defs>
<clipPath id="clip0_1_1304">
<rect width="62.58" height="55" fill="white" transform="translate(0.75 0.5)"/>
</clipPath>
<clipPath id="clip1_1_1304">
<rect width="62.58" height="55" fill="white" transform="translate(0.75 0.5)"/>
</clipPath>
</defs>
</svg>
