<svg width="64" height="56" viewBox="0 0 64 56" fill="none" xmlns="http://www.w3.org/2000/svg">
<g clip-path="url(#clip0_1_1304)">
<g clip-path="url(#clip1_1_1304)">
<mask id="mask0_1_1304" style="mask-type:luminance" maskUnits="userSpaceOnUse" x="1" y="1" width="62" height="54">
<path d="M1.22119 1.29175H62.8591V54.8157H1.22119V1.29175Z" fill="white"/>
</mask>
<g mask="url(#mask0_1_1304)">
<path fill-rule="evenodd" clip-rule="evenodd" d="M58.1207 1.30396H5.95967C3.35375 1.30396 1.22119 3.33835 1.22119 5.82535V36.9348C1.22119 39.4219 3.35375 41.4563 5.95967 41.4563H22.3535V48.64H15.1418C12.9191 48.64 11.1011 50.0277 11.1011 51.7222V54.8028H52.9792V51.7222C52.9792 50.0277 51.1612 48.64 48.9385 48.64H41.7268V41.4563H58.1207C60.7265 41.4563 62.8591 39.4219 62.8591 36.9348V5.82535C62.8591 3.33835 60.7265 1.30396 58.1207 1.30396ZM58.897 33.8386H5.18331V29.5537C4.16944 29.5365 3.15229 29.5458 2.13678 29.5458V9.58876C3.15229 9.58876 4.1678 9.58249 5.18331 9.59189V5.71259C5.18331 5.36648 5.47977 5.08458 5.8401 5.08458H58.2402C58.6005 5.08458 58.897 5.36648 58.897 5.71259V33.8386ZM49.0221 10.353C47.43 9.5261 45.6659 9.10639 43.8495 9.10639C37.8564 9.10639 32.9983 13.7437 32.9983 19.4616C32.9983 21.3472 33.5192 23.1655 34.5363 24.7833C34.8263 25.2468 34.669 25.8467 34.1825 26.1239C33.6977 26.4011 33.0688 26.2508 32.7789 25.7872C31.5783 23.8781 30.9444 21.6886 30.9444 19.4616C30.9444 12.6599 36.7229 7.14717 43.8495 7.14717C46.0918 7.14717 48.2965 7.7047 50.2423 8.76497C50.3406 8.45801 50.5944 8.20273 50.9433 8.10876C51.4871 7.95998 52.0554 8.26224 52.211 8.7822L52.8121 10.7931C53.0038 11.4368 52.4781 12.0648 51.7885 12.0413L49.6707 12.1133C49.1056 12.1322 48.6322 11.7109 48.6109 11.1705C48.5994 10.8385 48.7633 10.5394 49.0221 10.353ZM37.4567 30.1598C37.3585 30.4667 37.1046 30.722 36.7557 30.816C36.2119 30.9632 35.6436 30.6625 35.488 30.141L34.8869 28.1301C34.6952 27.488 35.221 26.86 35.9105 26.8835L38.0283 26.8114C38.5934 26.7926 39.0668 27.2139 39.0881 27.7527C39.0996 28.0847 38.9374 28.3853 38.6769 28.5702C40.2706 29.3971 42.0347 29.8168 43.8495 29.8168C49.8426 29.8168 54.7007 25.1811 54.7007 19.4616C54.7007 17.6276 54.2011 15.8407 53.2331 14.2542C52.9497 13.786 53.1168 13.1877 53.6065 12.9168C54.0963 12.6474 54.7236 12.8056 55.0069 13.2738C56.1552 15.1547 56.7546 17.2847 56.7546 19.4616C56.7546 26.2633 50.9761 31.7776 43.8495 31.7776C41.6056 31.7776 39.4042 31.22 37.4567 30.1598ZM50.4585 17.9566C50.2914 17.2894 50.0146 16.652 49.6379 16.0678L50.2095 14.84L48.6928 13.3928L47.4071 13.9379C46.7945 13.5793 46.1262 13.3146 45.4268 13.1548L44.9207 11.9019H42.7766L42.2722 13.1548C41.5728 13.3146 40.9045 13.5793 40.292 13.9379L39.0062 13.3928L37.4895 14.84L38.0611 16.0678C37.6844 16.652 37.4076 17.2894 37.2405 17.9566L35.9286 18.4389V20.4858L37.2405 20.9666C37.4076 21.6354 37.6844 22.2728 38.0611 22.857L37.4895 24.0848L39.0062 25.5304L40.292 24.9853C40.9045 25.3456 41.5728 25.6102 42.2722 25.7684L42.7766 27.0213H44.9224L45.4268 25.7699C46.1262 25.6102 46.7945 25.3456 47.4071 24.9853L48.6928 25.5319L50.2095 24.0848L49.6379 22.857C50.0146 22.2728 50.2914 21.6354 50.4585 20.9682L51.7705 20.4858V18.4389L50.4585 17.9566ZM43.8495 23.0308C41.7841 23.0308 40.1102 21.4333 40.1102 19.4616C40.1102 17.4915 41.7841 15.894 43.8495 15.894C45.9149 15.894 47.5888 17.4915 47.5888 19.4616C47.5888 21.4333 45.9149 23.0308 43.8495 23.0308ZM17.6363 12.9951V29.3251C20.7434 27.9798 24.912 27.5851 29.0247 27.5851V11.5496C23.2167 11.5496 21.4118 12.0178 17.6363 12.9951ZM20.3356 14.4626C22.2503 14.0162 24.0701 13.7735 26.0372 13.6795C26.6023 13.6545 27.0822 14.071 27.1101 14.6097C27.1362 15.1485 26.6989 15.6073 26.1338 15.6325C24.3027 15.7202 22.5992 15.9472 20.8172 16.3623C20.2668 16.4891 19.7132 16.1664 19.5806 15.6418C19.4479 15.1172 19.7853 14.5894 20.3356 14.4626ZM20.3274 17.8704C22.2274 17.4115 24.075 17.1704 26.029 17.067C26.5941 17.0388 27.079 17.4507 27.1084 17.991C27.1396 18.5297 26.7071 18.9917 26.1421 19.0215C24.319 19.1171 22.5976 19.3426 20.8238 19.7702C20.275 19.9001 19.7182 19.5822 19.5806 19.0575C19.443 18.5329 19.7771 18.002 20.3274 17.8704ZM26.1469 22.409C24.3403 22.5109 22.5861 22.7348 20.8319 23.1702C20.2849 23.3049 19.7263 22.9917 19.5855 22.4686C19.443 21.9455 19.7722 21.413 20.3193 21.2783C22.2111 20.8084 24.0766 20.5657 26.0257 20.4561C26.5908 20.4248 27.0756 20.8351 27.1101 21.3754C27.1428 21.9141 26.7104 22.3777 26.1469 22.409ZM26.1502 25.7966C24.355 25.903 22.578 26.127 20.8368 26.5686C20.2898 26.7065 19.7279 26.3948 19.5838 25.8718C19.4397 25.3487 19.7673 24.8146 20.3143 24.6768C22.1931 24.2007 24.0848 23.9596 26.0208 23.8436C26.5876 23.8092 27.074 24.2195 27.1084 24.7582C27.1444 25.2985 26.7153 25.7621 26.1502 25.7966ZM4.19073 11.5496V27.5851C8.30352 27.5851 12.4736 27.9798 15.5807 29.3251V12.9951C11.8054 12.0178 10.0004 11.5496 4.19073 11.5496ZM7.17828 13.6795C9.14705 13.7735 10.9651 14.0162 12.8815 14.4626C13.4319 14.5894 13.7693 15.1172 13.6366 15.6418C13.5039 16.1664 12.9503 16.4891 12.3999 16.3623C10.6179 15.9457 8.91447 15.7202 7.08328 15.6325C6.5182 15.6073 6.08088 15.1485 6.10709 14.6097C6.13329 14.071 6.6132 13.6545 7.17828 13.6795ZM13.6317 25.8718C13.4875 26.3948 12.9274 26.7065 12.3803 26.5686C10.6392 26.127 8.86206 25.9047 7.0669 25.7966C6.50183 25.7621 6.07268 25.2985 6.10709 24.7582C6.14312 24.2195 6.62958 23.8092 7.19466 23.8436C9.13231 23.9596 11.0241 24.2007 12.9011 24.6768C13.4499 24.8146 13.7758 25.3487 13.6317 25.8718ZM6.10709 21.3754C6.14148 20.8351 6.62631 20.4248 7.19138 20.4561C9.13886 20.5657 11.0061 20.8084 12.8979 21.2783C13.4449 21.413 13.7742 21.9455 13.6317 22.4686C13.4908 22.9917 12.9323 23.3049 12.3835 23.1702C10.631 22.7348 8.87679 22.5109 7.07018 22.409C6.5051 22.3777 6.07433 21.9141 6.10709 21.3754ZM13.6366 19.0575C13.499 19.5822 12.9421 19.9017 12.3918 19.7702C10.6196 19.3426 8.89809 19.1171 7.07509 19.0215C6.51001 18.9917 6.07597 18.5297 6.10709 17.991C6.1382 17.4507 6.62139 17.0388 7.18647 17.0685C9.14214 17.1704 10.9897 17.4115 12.8897 17.8704C13.44 18.002 13.7742 18.5329 13.6366 19.0575Z" fill="white"/>
</g>
</g>
</g>
<defs>
<clipPath id="clip0_1_1304">
<rect width="62.58" height="55" fill="white" transform="translate(0.75 0.5)"/>
</clipPath>
<clipPath id="clip1_1_1304">
<rect width="62.58" height="55" fill="white" transform="translate(0.75 0.5)"/>
</clipPath>
</defs>
</svg>
