<svg width="38" height="56" viewBox="0 0 38 56" fill="none" xmlns="http://www.w3.org/2000/svg">
<g clip-path="url(#clip0_1_1316)">
<g clip-path="url(#clip1_1_1316)">
<mask id="mask0_1_1316" style="mask-type:luminance" maskUnits="userSpaceOnUse" x="0" y="0" width="38" height="56">
<path d="M0.866211 0.5H37.0745V55.5H0.866211V0.5Z" fill="white"/>
</mask>
<g mask="url(#mask0_1_1316)">
<path d="M29.5278 0.544922H31.3143C34.4967 0.544922 37.0745 3.00396 37.0745 6.03591V49.9638C37.0745 52.9958 34.4967 55.4548 31.3143 55.4548H6.62647C3.44578 55.4548 0.866211 52.9958 0.866211 49.9638V6.03591C0.866211 3.00396 3.44578 0.544922 6.62647 0.544922H7.95836L8.56957 2.43426C9.18921 4.34452 11.7166 5.89268 14.217 5.89268H23.2691C25.7678 5.89268 28.2969 4.34452 28.9148 2.43426L29.5278 0.544922ZM10.1422 1.97078L9.68088 0.544922H27.8052L27.3422 1.97078C26.9499 3.18098 25.0859 4.32359 23.2691 4.32359H14.217C12.4002 4.32359 10.5346 3.18098 10.1422 1.97078ZM9.91829 51.5329H29.6693C30.1238 51.5329 30.4909 51.1804 30.4909 50.7476C30.4909 50.3146 30.1238 49.9638 29.6693 49.9638H9.91829C9.46367 49.9638 9.0966 50.3146 9.0966 50.7476C9.0966 51.1804 9.46367 51.5329 9.91829 51.5329ZM8.16041 24.3998V27.4817C7.7462 27.6201 7.44985 27.9902 7.44985 28.4247V32.094C7.44985 32.2162 7.55592 32.3161 7.68726 32.3161H9.34412C9.47545 32.3161 9.58154 32.2162 9.58154 32.094V28.4247C9.58154 27.9902 9.28519 27.6201 8.87097 27.4817V24.7136L18.9367 29.1521C19.3744 29.3452 19.8796 29.3452 20.3191 29.1521L31.4069 24.2614C31.8194 24.0795 31.9996 23.6129 31.8093 23.2202C31.7268 23.0512 31.5854 22.916 31.4069 22.8372L20.3191 17.948C19.8796 17.7533 19.3744 17.7533 18.9367 17.948L7.84722 22.8372C7.4347 23.019 7.25453 23.4857 7.44648 23.8784C7.52731 24.0474 7.67043 24.1841 7.84722 24.2614L8.16041 24.3998ZM13.3701 28.127C13.3701 28.8126 13.3701 29.2986 13.3701 29.5882V32.905C13.3701 34.6383 14.8434 36.0432 16.6619 36.0432H22.6276C24.4444 36.0432 25.9177 34.6383 25.9177 32.905V29.5882C25.9177 29.2503 25.9177 28.7578 25.9177 28.1142L20.3006 30.5136C19.8729 30.697 19.3829 30.697 18.9553 30.5136L13.3701 28.127Z" fill="#0575AD"/>
</g>
</g>
</g>
<defs>
<clipPath id="clip0_1_1316">
<rect width="36.66" height="55" fill="white" transform="translate(0.639648 0.5)"/>
</clipPath>
<clipPath id="clip1_1_1316">
<rect width="36.6667" height="55" fill="white" transform="translate(0.636719 0.5)"/>
</clipPath>
</defs>
</svg>
