<svg width="46" height="46" viewBox="0 0 46 46" fill="none" xmlns="http://www.w3.org/2000/svg">
<g clip-path="url(#clip0_1_1517)">
<g clip-path="url(#clip1_1_1517)">
<mask id="mask0_1_1517" style="mask-type:luminance" maskUnits="userSpaceOnUse" x="0" y="0" width="38" height="46">
<path d="M0.719727 0.439941H37.9098V45.4399H0.719727V0.439941Z" fill="white"/>
</mask>
<g mask="url(#mask0_1_1517)">
<path d="M4.50699 0.595459C2.40148 0.595459 0.657227 2.04364 0.657227 3.79742V42.1516C0.657227 43.9045 2.3947 45.3422 4.50699 45.3422H33.9356C36.0411 45.3422 37.7921 43.9045 37.7921 42.1516V31.5087C37.7921 30.9201 37.2168 30.4379 36.5021 30.4427C35.7931 30.4427 35.2188 30.9201 35.2188 31.5087V35.4646H3.22373V3.79742C3.22373 3.18702 3.7719 2.7266 4.50699 2.7266H33.9356C34.6706 2.7266 35.2188 3.18702 35.2188 3.79742V5.72295C35.2188 6.31077 35.7931 6.79376 36.5021 6.79376C37.2168 6.79376 37.7921 6.31641 37.7921 5.72295V3.79742C37.7921 2.04364 36.0411 0.595459 33.9356 0.595459H4.50699ZM19.8595 39.1496C20.6682 39.1496 21.3297 39.693 21.3297 40.3704C21.3297 41.0469 20.6682 41.5911 19.8595 41.5911C19.0508 41.5911 18.3961 41.0469 18.3961 40.3704C18.3961 39.6987 19.0508 39.1496 19.8595 39.1496Z" fill="#00D280"/>
</g>
<mask id="mask1_1_1517" style="mask-type:luminance" maskUnits="userSpaceOnUse" x="11" y="8" width="35" height="23">
<path d="M11.877 8.49048H45.72V30.9904H11.877V8.49048Z" fill="white"/>
</mask>
<g mask="url(#mask1_1_1517)">
<path d="M36.5483 8.56934C34.1755 8.56934 31.9702 9.11846 30.1252 10.0562V30.2992C31.7426 29.0728 34.0021 28.2842 36.5483 28.2842C39.2959 28.2842 41.7084 29.1889 43.3393 30.5871C44.1684 31.2975 45.6114 30.8097 45.6114 29.8275V12.3042C45.6114 12.0212 45.4778 11.743 45.2376 11.5382C43.0982 9.70708 39.9903 8.56934 36.5483 8.56934ZM20.8219 8.56934C17.4864 8.56934 14.3185 9.92883 12.367 11.5439C12.1258 11.7487 11.9922 12.0212 11.9922 12.3091V29.8275C11.9922 30.8097 13.4362 31.2975 14.2652 30.5871C15.9029 29.1889 18.3154 28.2842 21.0621 28.2842C23.6489 28.2842 25.9346 29.0946 27.5587 30.3597V10.0957C25.6876 9.13539 23.4213 8.56934 20.8219 8.56934Z" fill="#00D280"/>
</g>
</g>
</g>
<defs>
<clipPath id="clip0_1_1517">
<rect width="45" height="45" fill="white" transform="translate(0.719727 0.439941)"/>
</clipPath>
<clipPath id="clip1_1_1517">
<rect width="45" height="45" fill="white" transform="translate(0.719727 0.439941)"/>
</clipPath>
</defs>
</svg>
