<svg width="38" height="56" viewBox="0 0 38 56" fill="none" xmlns="http://www.w3.org/2000/svg">
<g clip-path="url(#clip0_34_1276)">
<g clip-path="url(#clip1_34_1276)">
<g clip-path="url(#clip2_34_1276)">
<mask id="mask0_34_1276" style="mask-type:luminance" maskUnits="userSpaceOnUse" x="0" y="0" width="38" height="56">
<path d="M0.866211 0.0600586H37.0745V55.0601H0.866211V0.0600586Z" fill="white"/>
</mask>
<g mask="url(#mask0_34_1276)">
<path d="M29.5278 0.10498H31.3143C34.4967 0.10498 37.0745 2.56402 37.0745 5.59597V49.5239C37.0745 52.5559 34.4967 55.0149 31.3143 55.0149H6.62647C3.44578 55.0149 0.866211 52.5559 0.866211 49.5239V5.59597C0.866211 2.56402 3.44578 0.10498 6.62647 0.10498H7.95836L8.56957 1.99432C9.18921 3.90458 11.7166 5.45274 14.217 5.45274H23.2691C25.7678 5.45274 28.2969 3.90458 28.9148 1.99432L29.5278 0.10498ZM10.1422 1.53084L9.68088 0.10498H27.8052L27.3422 1.53084C26.9499 2.74104 25.0859 3.88365 23.2691 3.88365H14.217C12.4002 3.88365 10.5346 2.74104 10.1422 1.53084ZM9.91829 51.0929H29.6693C30.1238 51.0929 30.4909 50.7405 30.4909 50.3076C30.4909 49.8747 30.1238 49.5239 29.6693 49.5239H9.91829C9.46367 49.5239 9.0966 49.8747 9.0966 50.3076C9.0966 50.7405 9.46367 51.0929 9.91829 51.0929ZM8.16041 23.9599V27.0417C7.7462 27.1801 7.44985 27.5503 7.44985 27.9848V31.654C7.44985 31.7763 7.55592 31.8761 7.68726 31.8761H9.34412C9.47545 31.8761 9.58154 31.7763 9.58154 31.654V27.9848C9.58154 27.5503 9.28519 27.1801 8.87097 27.0417V24.2737L18.9367 28.7122C19.3744 28.9053 19.8796 28.9053 20.3191 28.7122L31.4069 23.8215C31.8194 23.6396 31.9996 23.1729 31.8093 22.7802C31.7268 22.6113 31.5854 22.4761 31.4069 22.3972L20.3191 17.5081C19.8796 17.3134 19.3744 17.3134 18.9367 17.5081L7.84722 22.3972C7.4347 22.5791 7.25453 23.0458 7.44648 23.4385C7.52731 23.6074 7.67043 23.7442 7.84722 23.8215L8.16041 23.9599ZM13.3701 27.687C13.3701 28.3726 13.3701 28.8586 13.3701 29.1483V32.4651C13.3701 34.1983 14.8434 35.6033 16.6619 35.6033H22.6276C24.4444 35.6033 25.9177 34.1983 25.9177 32.4651V29.1483C25.9177 28.8103 25.9177 28.3179 25.9177 27.6742L20.3006 30.0737C19.8729 30.2571 19.3829 30.2571 18.9553 30.0737L13.3701 27.687Z" fill="#0575AD"/>
</g>
</g>
</g>
</g>
<defs>
<clipPath id="clip0_34_1276">
<rect width="36.66" height="55" fill="white" transform="translate(0.639648 0.0600586)"/>
</clipPath>
<clipPath id="clip1_34_1276">
<rect width="36.66" height="55" fill="white" transform="translate(0.639648 0.0600586)"/>
</clipPath>
<clipPath id="clip2_34_1276">
<rect width="36.6667" height="55" fill="white" transform="translate(0.636719 0.0600586)"/>
</clipPath>
</defs>
</svg>
