<svg width="46" height="46" viewBox="0 0 46 46" fill="none" xmlns="http://www.w3.org/2000/svg">
<g clip-path="url(#clip0_34_1477)">
<g clip-path="url(#clip1_34_1477)">
<g clip-path="url(#clip2_34_1477)">
<mask id="mask0_34_1477" style="mask-type:luminance" maskUnits="userSpaceOnUse" x="0" y="0" width="38" height="46">
<path d="M0.720703 0.439941H37.9108V45.4399H0.720703V0.439941Z" fill="white"/>
</mask>
<g mask="url(#mask0_34_1477)">
<path d="M4.50796 0.595459C2.40245 0.595459 0.658203 2.04364 0.658203 3.79742V42.1516C0.658203 43.9045 2.39567 45.3422 4.50796 45.3422H33.9366C36.0421 45.3422 37.7931 43.9045 37.7931 42.1516V31.5087C37.7931 30.9201 37.2178 30.4379 36.5031 30.4427C35.7941 30.4427 35.2198 30.9201 35.2198 31.5087V35.4646H3.2247V3.79742C3.2247 3.18702 3.77287 2.7266 4.50796 2.7266H33.9366C34.6716 2.7266 35.2198 3.18702 35.2198 3.79742V5.72295C35.2198 6.31077 35.7941 6.79376 36.5031 6.79376C37.2178 6.79376 37.7931 6.31641 37.7931 5.72295V3.79742C37.7931 2.04364 36.0421 0.595459 33.9366 0.595459H4.50796ZM19.8605 39.1496C20.6692 39.1496 21.3307 39.693 21.3307 40.3704C21.3307 41.0469 20.6692 41.5911 19.8605 41.5911C19.0518 41.5911 18.3971 41.0469 18.3971 40.3704C18.3971 39.6987 19.0518 39.1496 19.8605 39.1496Z" fill="#00D280"/>
</g>
<mask id="mask1_34_1477" style="mask-type:luminance" maskUnits="userSpaceOnUse" x="11" y="8" width="35" height="23">
<path d="M11.8779 8.49048H45.7209V30.9904H11.8779V8.49048Z" fill="white"/>
</mask>
<g mask="url(#mask1_34_1477)">
<path d="M36.5493 8.56934C34.1765 8.56934 31.9712 9.11846 30.1262 10.0562V30.2992C31.7436 29.0728 34.0031 28.2842 36.5493 28.2842C39.2969 28.2842 41.7094 29.1889 43.3403 30.5871C44.1694 31.2975 45.6124 30.8097 45.6124 29.8275V12.3042C45.6124 12.0212 45.4788 11.743 45.2386 11.5382C43.0992 9.70708 39.9913 8.56934 36.5493 8.56934ZM20.8229 8.56934C17.4874 8.56934 14.3195 9.92883 12.368 11.5439C12.1268 11.7487 11.9932 12.0212 11.9932 12.3091V29.8275C11.9932 30.8097 13.4372 31.2975 14.2662 30.5871C15.9039 29.1889 18.3164 28.2842 21.0631 28.2842C23.6499 28.2842 25.9356 29.0946 27.5597 30.3597V10.0957C25.6886 9.13539 23.4223 8.56934 20.8229 8.56934Z" fill="#00D280"/>
</g>
</g>
</g>
</g>
<defs>
<clipPath id="clip0_34_1477">
<rect width="45" height="45" fill="white" transform="translate(0.720703 0.439941)"/>
</clipPath>
<clipPath id="clip1_34_1477">
<rect width="45" height="45" fill="white" transform="translate(0.720703 0.439941)"/>
</clipPath>
<clipPath id="clip2_34_1477">
<rect width="45" height="45" fill="white" transform="translate(0.720703 0.439941)"/>
</clipPath>
</defs>
</svg>
