<svg width="38" height="56" viewBox="0 0 38 56" fill="none" xmlns="http://www.w3.org/2000/svg">
<g clip-path="url(#clip0_1_1315)">
<g clip-path="url(#clip1_1_1315)">
<g clip-path="url(#clip2_1_1315)">
<mask id="mask0_1_1315" style="mask-type:luminance" maskUnits="userSpaceOnUse" x="0" y="0" width="38" height="56">
<path d="M0.865723 0.5H37.0741V55.5H0.865723V0.5Z" fill="white"/>
</mask>
<g mask="url(#mask0_1_1315)">
<path d="M29.5273 0.544922H31.3138C34.4962 0.544922 37.0741 3.00396 37.0741 6.03591V49.9638C37.0741 52.9958 34.4962 55.4548 31.3138 55.4548H6.62598C3.4453 55.4548 0.865723 52.9958 0.865723 49.9638V6.03591C0.865723 3.00396 3.4453 0.544922 6.62598 0.544922H7.95787L8.56909 2.43426C9.18873 4.34452 11.7161 5.89268 14.2165 5.89268H23.2686C25.7673 5.89268 28.2964 4.34452 28.9143 2.43426L29.5273 0.544922ZM10.1417 1.97078L9.68039 0.544922H27.8047L27.3417 1.97078C26.9494 3.18098 25.0854 4.32359 23.2686 4.32359H14.2165C12.3997 4.32359 10.5341 3.18098 10.1417 1.97078ZM9.91781 51.5329H29.6688C30.1233 51.5329 30.4904 51.1804 30.4904 50.7476C30.4904 50.3146 30.1233 49.9638 29.6688 49.9638H9.91781C9.46318 49.9638 9.09612 50.3146 9.09612 50.7476C9.09612 51.1804 9.46318 51.5329 9.91781 51.5329ZM8.15992 24.3998V27.4817C7.74571 27.6201 7.44936 27.9902 7.44936 28.4247V32.094C7.44936 32.2162 7.55544 32.3161 7.68678 32.3161H9.34363C9.47496 32.3161 9.58105 32.2162 9.58105 32.094V28.4247C9.58105 27.9902 9.2847 27.6201 8.87049 27.4817V24.7136L18.9362 29.1521C19.374 29.3452 19.8791 29.3452 20.3186 29.1521L31.4064 24.2614C31.8189 24.0795 31.9991 23.6129 31.8088 23.2202C31.7263 23.0512 31.5849 22.916 31.4064 22.8372L20.3186 17.948C19.8791 17.7533 19.374 17.7533 18.9362 17.948L7.84674 22.8372C7.43421 23.019 7.25405 23.4857 7.446 23.8784C7.52682 24.0474 7.66994 24.1841 7.84674 24.2614L8.15992 24.3998ZM13.3696 28.127C13.3696 28.8126 13.3696 29.2986 13.3696 29.5882V32.905C13.3696 34.6383 14.8429 36.0432 16.6614 36.0432H22.6271C24.4439 36.0432 25.9172 34.6383 25.9172 32.905V29.5882C25.9172 29.2503 25.9172 28.7578 25.9172 28.1142L20.3001 30.5136C19.8724 30.697 19.3824 30.697 18.9548 30.5136L13.3696 28.127Z" fill="white"/>
</g>
</g>
</g>
</g>
<defs>
<clipPath id="clip0_1_1315">
<rect width="36.66" height="55" fill="white" transform="translate(0.640137 0.5)"/>
</clipPath>
<clipPath id="clip1_1_1315">
<rect width="36.66" height="55" fill="white" transform="translate(0.640137 0.5)"/>
</clipPath>
<clipPath id="clip2_1_1315">
<rect width="36.6667" height="55" fill="white" transform="translate(0.636719 0.5)"/>
</clipPath>
</defs>
</svg>
