<svg width="79" height="46" viewBox="0 0 79 46" fill="none" xmlns="http://www.w3.org/2000/svg">
<g clip-path="url(#clip0_1_1561)">
<g clip-path="url(#clip1_1_1561)">
<mask id="mask0_1_1561" style="mask-type:luminance" maskUnits="userSpaceOnUse" x="1" y="0" width="77" height="46">
<path d="M1.20996 0.439941H77.21V45.4399H1.20996V0.439941Z" fill="white"/>
</mask>
<g mask="url(#mask0_1_1561)">
<path d="M64.8159 39.0186H45.77C45.7143 40.5759 44.3632 41.8407 42.7241 41.8407H35.8094C34.1633 41.8407 32.8332 40.5759 32.7634 39.0186H13.6118V5.10097H64.8159V39.0186ZM69.7195 39.0805C69.7553 38.8161 69.7763 38.542 69.7763 38.2621V5.88546C69.7763 2.86667 67.4272 0.416382 64.5058 0.416382H13.901C11.0025 0.416382 8.65145 2.86667 8.65145 5.88546V38.2621C8.65145 38.542 8.66541 38.8161 8.69334 39.0805H1.21338V39.9347C1.21338 42.9807 3.56146 45.4037 6.45992 45.4037H71.9609C74.8593 45.4037 77.2073 42.9807 77.2073 39.9347V39.0805H69.7195Z" fill="#00D280"/>
</g>
<path d="M22.4424 14.3909L24.275 32.1065C29.005 31.8441 33.759 32.6034 38.5409 34.491V17.0833C32.6901 14.9496 27.3629 14.1536 22.4424 14.3909Z" fill="#00D280"/>
<path d="M39.8862 17.0833V34.491C44.6682 32.6034 49.4222 31.8441 54.1522 32.1065L55.9848 14.3909C51.0643 14.1536 45.737 14.9496 39.8862 17.0833Z" fill="#00D280"/>
<path d="M26.4381 12.8796C30.3556 13.1266 34.4096 13.9789 38.5415 15.4336V14.5871C34.5722 11.761 30.0973 9.85893 26.2666 9.62939L26.4381 12.8796Z" fill="#00D280"/>
<path d="M52.161 9.62939C48.3283 9.85893 43.8556 11.761 39.8862 14.5871V15.4336C44.0181 13.9789 48.0722 13.1266 51.9896 12.8796L52.161 9.62939Z" fill="#00D280"/>
</g>
</g>
<defs>
<clipPath id="clip0_1_1561">
<rect width="77.92" height="45" fill="white" transform="translate(0.25 0.439941)"/>
</clipPath>
<clipPath id="clip1_1_1561">
<rect width="77.9268" height="45" fill="white" transform="translate(0.246582 0.439941)"/>
</clipPath>
</defs>
</svg>
