<svg width="47" height="56" viewBox="0 0 47 56" fill="none" xmlns="http://www.w3.org/2000/svg">
<g clip-path="url(#clip0_1_1372)">
<g clip-path="url(#clip1_1_1372)">
<g clip-path="url(#clip2_1_1372)">
<mask id="mask0_1_1372" style="mask-type:luminance" maskUnits="userSpaceOnUse" x="16" y="0" width="16" height="8">
<path d="M16.3364 0.950928H31.5949V7.92589H16.3364V0.950928Z" fill="white"/>
</mask>
<g mask="url(#mask0_1_1372)">
<path d="M31.5949 3.85275L29.24 3.84952C28.768 3.84952 28.3508 3.57748 28.2061 3.18128C27.7243 1.86854 25.9788 0.950928 23.9656 0.950928C21.9513 0.950928 20.2057 1.86854 19.7252 3.18128C19.5805 3.57748 19.1633 3.84952 18.6902 3.84952H16.3364V7.71322H31.5949V3.85275Z" fill="white"/>
</g>
<path d="M17.7149 14.5101C18.1868 14.6267 18.5153 15.0077 18.5153 15.4417V23.1702C18.5153 23.7024 18.025 24.1364 17.4254 24.1364C16.8244 24.1364 16.3354 23.7024 16.3354 23.1702V18.9287L15.0874 20.7704C14.6957 21.3512 13.6144 21.3512 13.2227 20.7704L11.9758 18.9287V23.1702C11.9758 23.7024 11.4857 24.1364 10.886 24.1364C10.2851 24.1364 9.79609 23.7024 9.79609 23.1702V15.4417C9.79609 15.0077 10.1233 14.6267 10.5965 14.5101C11.0648 14.3967 11.5708 14.5738 11.8178 14.9441L14.1556 18.3932L16.4923 14.9441C16.7393 14.5705 17.2502 14.3924 17.7149 14.5101ZM20.6951 45.3895H38.1333C38.733 45.3895 39.2232 45.8235 39.2232 46.3546C39.2232 46.8868 38.733 47.3208 38.1333 47.3208H20.6951C20.0941 47.3208 19.6052 46.8868 19.6052 46.3546C19.6052 45.8235 20.0941 45.3895 20.6951 45.3895ZM20.6951 37.661H38.1333C38.733 37.661 39.2232 38.095 39.2232 38.6272C39.2232 39.1583 38.733 39.5923 38.1333 39.5923H20.6951C20.0941 39.5923 19.6052 39.1583 19.6052 38.6272C19.6052 38.095 20.0941 37.661 20.6951 37.661ZM20.6951 29.9325H38.1333C38.733 29.9325 39.2232 30.3665 39.2232 30.8987C39.2232 31.4309 38.733 31.8649 38.1333 31.8649H20.6951C20.0941 31.8649 19.6052 31.4309 19.6052 30.8987C19.6052 30.3665 20.0941 29.9325 20.6951 29.9325ZM21.4018 14.536C21.9638 14.3513 22.5938 14.604 22.8067 15.1017L25.0546 20.4196L27.3025 15.1017C27.5154 14.604 28.1406 14.3513 28.7075 14.536C29.2695 14.7249 29.554 15.283 29.3461 15.7818L26.0764 23.5092C25.9146 23.8838 25.5095 24.1364 25.0546 24.1364C24.5984 24.1364 24.1946 23.8838 24.0328 23.5092L20.7631 15.7818C20.5539 15.283 20.8398 14.7249 21.4018 14.536ZM31.594 20.2716V15.4417C31.594 14.9096 32.0829 14.4755 32.6839 14.4755H34.3187C36.4219 14.4755 38.1333 15.9923 38.1333 17.8567C38.1333 19.7211 36.4219 21.2378 34.3187 21.2378H33.7738V23.1702C33.7738 23.7024 33.2836 24.1364 32.6839 24.1364C32.0829 24.1364 31.594 23.7024 31.594 23.1702V20.2716ZM16.1177 44.0347L12.848 47.9027C12.6607 48.125 12.3712 48.2643 12.0562 48.2838C12.027 48.287 12.0051 48.287 11.9795 48.287C11.69 48.287 11.4139 48.1855 11.2047 48.0042L10.1148 47.0379C9.69392 46.6612 9.69392 46.0491 10.1148 45.6723C10.5405 45.2945 11.2351 45.2945 11.6608 45.6723L11.8603 45.8494L14.3771 42.8796C14.7347 42.4499 15.4195 42.3668 15.9012 42.6831C16.3817 43.0037 16.4802 43.6083 16.1177 44.0347ZM10.1148 37.9438C10.5405 37.566 11.2302 37.566 11.6559 37.9438L11.8603 38.1209L14.3722 35.1511C14.7347 34.7214 15.4195 34.634 15.8964 34.9546C16.3817 35.2763 16.4802 35.8798 16.1177 36.3062L12.848 40.1699C12.6607 40.3966 12.3676 40.5359 12.0562 40.5553C12.027 40.5585 12.0014 40.5585 11.9758 40.5585C11.6864 40.5585 11.4091 40.4571 11.2047 40.2756L10.1148 39.3094C9.68905 38.9327 9.68905 38.3206 10.1148 37.9438ZM10.1148 30.2153C10.5405 29.8375 11.2302 29.8375 11.6559 30.2153L11.8566 30.3924L14.3722 27.4226C14.7347 26.9961 15.4159 26.9055 15.8964 27.2272C16.378 27.5478 16.4802 28.1513 16.1141 28.5777L12.848 32.4414C12.657 32.6681 12.3676 32.8074 12.0525 32.8268C12.027 32.83 12.0014 32.83 11.9758 32.83C11.6864 32.83 11.4091 32.7286 11.2047 32.5472L10.1148 31.581C9.68905 31.2043 9.68905 30.5932 10.1148 30.2153ZM14.4573 8.67944H5.43652V51.1856H42.4929V8.67944H33.4708C33.0926 9.25268 32.3944 9.6456 31.594 9.6456H16.3354C15.5351 9.6456 14.8368 9.25268 14.4573 8.67944Z" fill="white"/>
<path d="M35.9528 17.857C35.9528 17.057 35.2205 16.4082 34.3179 16.4082H33.7729V19.3057H34.3179C35.2205 19.3057 35.9528 18.6569 35.9528 17.857Z" fill="white"/>
<mask id="mask1_1_1372" style="mask-type:luminance" maskUnits="userSpaceOnUse" x="1" y="4" width="46" height="52">
<path d="M1.07715 4.60962H46.8527V55.0494H1.07715V4.60962Z" fill="white"/>
</mask>
<g mask="url(#mask1_1_1372)">
<path d="M42.4931 4.81519H33.774V6.7465H42.4931C43.6937 6.7465 44.6729 7.61445 44.6729 8.67889V51.1851C44.6729 52.2484 43.6937 53.1164 42.4931 53.1164H5.43672C4.23614 53.1164 3.25694 52.2484 3.25694 51.1851V8.67889C3.25694 7.61445 4.23614 6.7465 5.43672 6.7465H14.1558V4.81519H5.43672C3.03069 4.81519 1.07715 6.54678 1.07715 8.67889V51.1851C1.07715 53.3172 3.03069 55.0488 5.43672 55.0488H42.4931C44.898 55.0488 46.8527 53.3172 46.8527 51.1851V8.67889C46.8527 6.54678 44.898 4.81519 42.4931 4.81519Z" fill="white"/>
</g>
</g>
</g>
</g>
<defs>
<clipPath id="clip0_1_1372">
<rect width="45.97" height="55" fill="white" transform="translate(0.97998 0.5)"/>
</clipPath>
<clipPath id="clip1_1_1372">
<rect width="45.97" height="55" fill="white" transform="translate(0.97998 0.5)"/>
</clipPath>
<clipPath id="clip2_1_1372">
<rect width="45.9836" height="55" fill="white" transform="translate(0.973145 0.5)"/>
</clipPath>
</defs>
</svg>
