<svg width="46" height="46" viewBox="0 0 46 46" fill="none" xmlns="http://www.w3.org/2000/svg">
<g clip-path="url(#clip0_1_1544)">
<g clip-path="url(#clip1_1_1544)">
<path d="M12.7725 14.6758V33.1217H14.0121C15.585 33.1217 16.8634 31.9017 16.8634 30.4027V17.3968C16.8634 15.8978 15.585 14.6758 14.0121 14.6758H12.7725Z" fill="#00D280"/>
<mask id="mask0_1_1544" style="mask-type:luminance" maskUnits="userSpaceOnUse" x="18" y="0" width="28" height="35">
<path d="M18.8477 0.9375H45.4996V34.2848H18.8477V0.9375Z" fill="white"/>
</mask>
<g mask="url(#mask0_1_1544)">
<path d="M18.9082 31.2917C22.0277 34.3528 29.7446 34.0875 29.8202 34.0836H40.6905C41.3287 34.0836 41.6716 33.5256 42.2509 32.1909C42.9733 30.5256 45.4972 18.7553 45.4972 17.5499C45.4972 16.7333 44.8337 16.0674 44.0202 16.0674H38.1889C35.5788 15.9615 33.5819 14.7784 33.4986 14.7288C33.1122 14.4975 32.9214 14.0377 33.0299 13.5983L33.9324 9.99469C34.067 9.45225 34.2268 8.89815 34.3876 8.33627C34.8118 6.86352 35.2476 5.34216 35.266 3.94232C35.2776 3.01007 35.0287 1.82312 34.4515 1.42553C33.7803 0.958915 32.8603 1.12903 32.3983 1.80271L26.9408 10.0666C24.691 12.4094 20.4259 14.8601 18.9062 15.698V31.2917H18.9082Z" fill="#00D280"/>
</g>
<mask id="mask1_1_1544" style="mask-type:luminance" maskUnits="userSpaceOnUse" x="0" y="0" width="28" height="46">
<path d="M0.5 0.439941H27.7737V45.4399H0.5V0.439941Z" fill="white"/>
</mask>
<g mask="url(#mask1_1_1544)">
<path d="M14.3804 44.7369L15.8409 45.3221L17.3014 44.7369C21.5066 43.0532 25.1064 40.0192 27.5877 36.1016C24.7733 35.9519 20.5923 35.3317 17.9764 33.1823C17.0864 34.3829 15.6462 35.1761 14.0124 35.1761H11.75C11.1853 35.1761 10.7272 34.7163 10.7272 34.1496V13.6487C10.7272 13.082 11.1853 12.6222 11.75 12.6222H14.0124C15.4031 12.6222 16.6525 13.1977 17.5445 14.1066C18.3735 13.6614 23.1898 11.0211 25.3582 8.78725L26.626 6.84692C25.6304 6.48626 24.6997 6.07117 23.8057 5.59095C20.1265 3.61173 17.0476 1.42254 15.8021 0.500977C14.6215 1.27672 11.8643 3.0761 8.81448 4.92603C6.23732 6.48821 3.44323 7.52059 0.498047 8.00081V23.6741C0.498047 32.95 6.07559 41.4152 14.3785 44.7388L14.3804 44.7369Z" fill="#00D280"/>
</g>
</g>
</g>
<defs>
<clipPath id="clip0_1_1544">
<rect width="45" height="45" fill="white" transform="translate(0.5 0.439941)"/>
</clipPath>
<clipPath id="clip1_1_1544">
<rect width="45" height="45" fill="white" transform="translate(0.5 0.439941)"/>
</clipPath>
</defs>
</svg>
