<svg width="46" height="46" viewBox="0 0 46 46" fill="none" xmlns="http://www.w3.org/2000/svg">
<g clip-path="url(#clip0_1_1496)">
<g clip-path="url(#clip1_1_1496)">
<mask id="mask0_1_1496" style="mask-type:luminance" maskUnits="userSpaceOnUse" x="0" y="0" width="46" height="46">
<path d="M0.5 0.439941H45.5V45.3946H0.5V0.439941Z" fill="white"/>
</mask>
<g mask="url(#mask0_1_1496)">
<path d="M45.3174 22.6838C45.3174 22.6753 45.3088 22.6668 45.3088 22.6583L38.0628 5.50297L31.0714 8.39265C31.1586 7.57694 31.1586 6.42276 30.7117 5.59006C30.6416 5.45977 30.5636 5.33444 30.4785 5.21407C30.3934 5.09299 30.3019 4.97757 30.2032 4.86711C30.1045 4.75665 30.0001 4.65185 29.8892 4.55414C29.7784 4.45571 29.6618 4.36366 29.5402 4.27869C29.4187 4.19372 29.2928 4.11654 29.1619 4.04573C29.031 3.97563 28.8966 3.91261 28.7586 3.85738C28.6205 3.80286 28.4797 3.75542 28.3359 3.71718C28.1922 3.67824 28.047 3.64779 27.8997 3.62584C27.7523 3.60318 27.6043 3.58973 27.4556 3.58477C27.3068 3.57982 27.158 3.58336 27.01 3.59539C26.8613 3.60672 26.7139 3.62726 26.568 3.65629C26.4221 3.68532 26.2784 3.72214 26.1368 3.76817C25.9952 3.81348 25.8565 3.86659 25.7213 3.92819C25.5861 3.98909 25.4545 4.05848 25.3272 4.13495C25.1999 4.21142 25.0776 4.29427 24.9604 4.3849C24.8431 4.47554 24.7308 4.57255 24.625 4.67593C24.5191 4.77931 24.419 4.88835 24.326 5.00306C24.233 5.11777 24.1465 5.23743 24.0671 5.36206C23.9885 5.48739 23.9162 5.61626 23.8526 5.74867C23.7882 5.88179 23.7324 6.01774 23.6845 6.15723C23.6359 6.29672 23.5966 6.43834 23.5651 6.58208C23.5336 6.72653 23.5107 6.87169 23.4964 7.01826C23.4821 7.16483 23.4764 7.31141 23.4793 7.45869C23.4821 7.60597 23.4936 7.75254 23.5136 7.89841C23.5336 8.04427 23.5622 8.18872 23.5994 8.33175C23.6366 8.47408 23.6817 8.61428 23.7353 8.75164C23.7889 8.88901 23.8504 9.02284 23.9198 9.15313C23.9885 9.28341 24.0657 9.40945 24.1494 9.53124C24.2338 9.65303 24.3246 9.76916 24.4218 9.88033C24.5198 9.99149 24.6235 10.0963 24.7337 10.1954C24.8438 10.2953 24.9589 10.3873 25.0805 10.4737C25.2014 10.5593 25.3265 10.6379 25.4567 10.7094L17.9825 13.7896C17.8131 13.2642 17.5649 12.7785 17.2374 12.3324C17.3318 12.2807 17.4161 12.2177 17.4912 12.1412C17.5849 12.0513 17.6579 11.9465 17.7094 11.8275C17.7616 11.7093 17.788 11.5853 17.7895 11.4558L17.7544 8.59232H18.3509C18.4953 8.5902 18.6183 8.53851 18.7199 8.43584C18.8272 8.33458 18.8801 8.20996 18.8772 8.06268L18.7721 0.461426L17.7194 0.479128L17.8159 7.55074L3.75373 7.65483L3.65718 0.461426L2.60447 0.479128L2.70101 8.19297C2.70316 8.26094 2.71746 8.32609 2.74464 8.38911C2.77253 8.45142 2.81043 8.50665 2.85978 8.55409C2.90913 8.60153 2.96491 8.63906 3.02856 8.66455C3.09221 8.69075 3.15872 8.7042 3.22737 8.70491H3.84169C3.84169 8.73111 3.87674 11.5684 3.87674 11.5684C3.88174 11.7241 3.92108 11.8707 3.99474 12.0074C4.06911 12.1447 4.16995 12.2587 4.29725 12.3494L3.91178 12.9569C3.76231 13.1913 3.56064 13.7726 3.56064 13.7726H3.55205L2.01661 19.4387L2.41996 20.6707L1.84997 20.9228C1.58536 21.0382 1.35294 21.1997 1.15412 21.4071C0.954594 21.6146 0.803695 21.8525 0.700712 22.1202C0.599875 22.3878 0.553389 22.664 0.562686 22.9493C0.571983 23.2354 0.635633 23.508 0.753634 23.7686L8.55245 41.0019L15.86 37.7652C15.9923 37.7093 16.101 37.6236 16.1854 37.5082C16.2705 37.3928 16.3198 37.2646 16.3334 37.123C16.347 36.9807 16.3234 36.8454 16.2619 36.7166C16.2011 36.5877 16.1103 36.4829 15.9915 36.4029C15.0525 35.7522 14.4032 35.049 14.2108 34.4769C14.1736 34.37 14.1443 34.261 14.1207 34.1505C14.0978 34.0393 14.0814 33.9282 14.0721 33.8156C14.0628 33.703 14.0606 33.5897 14.0656 33.4771C14.0706 33.3645 14.0821 33.2519 14.1007 33.1408C14.1193 33.0289 14.145 32.9191 14.1772 32.8108C14.2094 32.7025 14.248 32.5962 14.2938 32.4929C14.3388 32.3895 14.391 32.2889 14.4489 32.1912C14.5069 32.0942 14.5705 32.0008 14.6399 31.9108C14.7093 31.8216 14.7844 31.7359 14.8645 31.6559C14.9445 31.5752 15.0289 31.5001 15.1183 31.4293C15.2077 31.3592 15.3014 31.2948 15.3987 31.236C15.4967 31.1773 15.5975 31.1241 15.7012 31.0774C15.8049 31.0307 15.9114 30.9903 16.0209 30.957C16.1296 30.9231 16.2404 30.8961 16.3527 30.8756C16.465 30.8558 16.578 30.8423 16.6924 30.836C16.8061 30.8289 16.9205 30.8296 17.0342 30.8367C17.148 30.8437 17.261 30.8579 17.3732 30.8792C17.4855 30.9004 17.5964 30.928 17.7051 30.9627C17.8138 30.9967 17.9196 31.0378 18.0233 31.0852C18.127 31.1326 18.2278 31.1858 18.3251 31.2452C18.4217 31.3047 18.5146 31.3706 18.604 31.4414C18.6927 31.5122 18.7771 31.5879 18.8565 31.6687C18.9359 31.7501 19.0102 31.8358 19.0796 31.9257C19.1483 32.0156 19.2112 32.1098 19.2684 32.2075C19.3256 32.3052 19.3771 32.4058 19.4214 32.5099C19.4665 32.614 19.5044 32.7202 19.5359 32.8285C19.5673 32.9375 19.5924 33.0473 19.6103 33.1592C19.6281 33.2703 19.6389 33.3829 19.6431 33.4955C19.6467 33.6088 19.6439 33.7214 19.6339 33.834C19.6238 33.9466 19.6067 34.0577 19.5831 34.1682C19.5595 34.2787 19.5287 34.387 19.4915 34.4939C19.4543 34.6008 19.41 34.7049 19.3599 34.8062C19.327 34.8734 19.3049 34.9435 19.2942 35.0172C19.2827 35.0908 19.2834 35.1645 19.2949 35.2381C19.3063 35.3117 19.3292 35.3818 19.3621 35.4491C19.3957 35.5157 19.4386 35.5759 19.4908 35.6297C19.5423 35.6835 19.6017 35.7281 19.6675 35.7642C19.7333 35.8003 19.8033 35.8258 19.877 35.8407C19.9507 35.8555 20.025 35.8591 20.1001 35.8513C20.1752 35.8435 20.2467 35.8251 20.3161 35.7954L26.3864 33.1054C26.6832 32.9786 26.9199 32.7825 27.0973 32.5155L28.0184 32.1424C28.0713 32.5722 28.1779 32.9885 28.3381 33.3914C28.4983 33.7943 28.7078 34.1703 28.966 34.5201C28.8709 34.5746 28.7865 34.6405 28.7114 34.7198C28.6155 34.8104 28.5419 34.9159 28.4904 35.0363C28.4382 35.1567 28.4132 35.2827 28.4132 35.4137L28.4568 38.2687H27.8603C27.7159 38.2708 27.5929 38.3225 27.492 38.4252C27.3826 38.5257 27.3325 38.6503 27.3426 38.7976L27.4391 45.3495H28.4918L28.3953 39.3188L42.4582 39.2055L42.5547 45.358H43.6067L43.5109 38.685C43.5087 38.6164 43.4944 38.5512 43.4673 38.4882C43.4401 38.4252 43.4015 38.3692 43.3528 38.3204C43.3035 38.2722 43.247 38.2347 43.1833 38.2078C43.1197 38.1802 43.0532 38.166 42.9845 38.1646H42.3702C42.3702 38.1469 42.3788 38.1214 42.3788 38.1037L42.3352 35.3096C42.3352 35.1531 42.298 35.0051 42.2229 34.8671C42.1485 34.729 42.0455 34.6157 41.9139 34.5286C42.1156 34.2078 42.2737 33.965 42.3001 33.9126C42.4525 33.6817 42.5633 33.4332 42.6334 33.1663L42.6506 33.1054H42.6599L44.1946 27.4308L43.6332 25.6776L44.1424 25.4694C44.2733 25.4163 44.3984 25.3512 44.5164 25.274C44.6344 25.1968 44.7438 25.1083 44.8447 25.0099C44.9455 24.9107 45.0356 24.8038 45.1143 24.687C45.1937 24.5709 45.2609 24.4476 45.3152 24.3188C45.3696 24.1892 45.4111 24.0554 45.439 23.918C45.4669 23.7806 45.4812 23.6419 45.4812 23.5017C45.4812 23.3615 45.4676 23.2227 45.4404 23.0846C45.4125 22.9472 45.3717 22.8134 45.3174 22.6838ZM4.59619 13.9546C4.64124 13.7974 4.70847 13.6501 4.79786 13.512C4.79786 13.512 5.06962 13.0787 5.37643 12.6099L16.0437 12.5228C16.2726 12.7622 16.4686 13.0249 16.6323 13.3109C16.7975 13.597 16.9263 13.8986 17.0178 14.2152L8.56103 17.9552L8.47307 18.1025C7.87663 19.1441 6.79745 19.6037 6.78887 19.6037L6.40268 19.7601C6.40268 19.7601 7.00842 23.3784 7.17505 24.4285C7.2244 24.7408 7.22011 25.0523 7.1629 25.3632C7.10568 25.674 6.99912 25.9665 6.84179 26.2419C6.72879 26.402 6.58433 26.5273 6.40912 26.6179C6.2339 26.7086 6.04796 26.7539 5.85058 26.7539C5.5781 26.7454 5.46439 26.6066 5.42077 26.528L3.7101 21.2436L3.38542 20.2459L3.11366 19.4125L4.59619 13.9546ZM26.194 31.9689C26.1339 32.0546 26.0553 32.1148 25.9566 32.1509L20.5793 34.5371C20.6151 34.3948 20.6429 34.2503 20.6623 34.1045C20.6816 33.9586 20.6923 33.8127 20.6937 33.6655C20.6959 33.5182 20.6894 33.3716 20.6744 33.2257C20.6587 33.0792 20.6351 32.934 20.6029 32.791C20.5707 32.6472 20.5307 32.5056 20.4813 32.3668C20.4327 32.228 20.3762 32.0921 20.3111 31.9597C20.2467 31.8273 20.1745 31.6991 20.0951 31.5752C20.015 31.4513 19.9285 31.3316 19.8348 31.2176C19.7411 31.1036 19.641 30.9953 19.5344 30.8926C19.4279 30.7899 19.3163 30.6936 19.1983 30.6037C19.081 30.5138 18.958 30.4309 18.8307 30.3552C18.7034 30.2794 18.5718 30.2114 18.4367 30.1505C18.3008 30.0896 18.1628 30.0372 18.0212 29.9919C17.8796 29.9473 17.7358 29.9112 17.5899 29.8829C17.444 29.8546 17.2967 29.8347 17.1487 29.8227C17.0006 29.8114 16.8519 29.8085 16.7031 29.8142C16.5551 29.8199 16.4071 29.834 16.2604 29.8567C16.1131 29.8786 15.9679 29.9098 15.8249 29.9487C15.6819 29.9884 15.541 30.0351 15.4037 30.0911C15.2657 30.1463 15.1319 30.2093 15.001 30.2801C14.8709 30.3502 14.745 30.4281 14.6242 30.5138C14.5026 30.5988 14.3867 30.6908 14.2766 30.7892C14.1657 30.8877 14.0613 30.9917 13.9634 31.1022C13.8654 31.2127 13.7738 31.3281 13.6894 31.4492C13.6043 31.5702 13.5271 31.6956 13.457 31.8252C13.3869 31.9547 13.3254 32.0878 13.2711 32.2252C13.2167 32.3619 13.1702 32.5014 13.1323 32.6437C13.0944 32.786 13.0651 32.9298 13.0437 33.0749C13.0229 33.2208 13.01 33.3674 13.0065 33.5139C13.0022 33.6612 13.0072 33.8078 13.0201 33.9544C13.0336 34.1009 13.0558 34.2461 13.0858 34.3898C13.1159 34.5336 13.1545 34.6759 13.2017 34.8154C13.4999 35.6743 14.298 36.4376 15.0261 36.9927L9.06951 39.631L1.70122 23.3437C1.639 23.2092 1.6061 23.0683 1.60324 22.9203C1.60038 22.7723 1.62684 22.63 1.68334 22.4933C1.73555 22.356 1.81279 22.2335 1.91434 22.1266C2.01661 22.0196 2.13532 21.9368 2.2712 21.8773L2.73606 21.6691L4.4553 26.9705C4.51967 27.093 4.59905 27.2042 4.69345 27.3055C4.78785 27.406 4.89369 27.4931 5.01169 27.5653C5.13041 27.6383 5.25556 27.6935 5.3893 27.7324C5.52232 27.7714 5.65891 27.7926 5.79766 27.7955C5.79766 27.7955 7.16647 27.8209 7.72787 26.7886V26.7709C7.94743 26.3899 8.09761 25.9842 8.17699 25.5523C8.25709 25.1203 8.2621 24.6884 8.19273 24.255C8.06114 23.4216 7.70141 21.2436 7.55194 20.367C8.26424 19.9768 8.84281 19.4443 9.28907 18.771L18.1935 14.8227C18.1935 14.8227 18.4388 14.6839 18.6319 14.7271C18.7571 14.7901 18.8479 14.8857 18.9037 15.0132L21.6585 21.2436C21.6864 21.313 21.725 21.376 21.7729 21.4333C21.8215 21.4907 21.8773 21.5388 21.941 21.5785C22.0046 21.6189 22.0733 21.6479 22.1462 21.6663C22.2199 21.684 22.2935 21.6911 22.3686 21.6861C22.4437 21.6812 22.5167 21.6656 22.5867 21.6394C22.6568 21.6125 22.7219 21.5764 22.7813 21.5311C22.8406 21.4857 22.8921 21.4319 22.9357 21.3717C22.9787 21.3108 23.0123 21.245 23.0359 21.1742C23.0645 21.0673 23.1002 20.9618 23.1417 20.8591C23.1839 20.7564 23.2318 20.6566 23.2862 20.5596C23.3405 20.4619 23.4006 20.3684 23.4664 20.2792C23.5322 20.1892 23.603 20.1036 23.6795 20.0221C23.7553 19.9407 23.8368 19.8649 23.9227 19.7934C24.0085 19.7219 24.0979 19.6561 24.1923 19.5952C24.286 19.5343 24.3832 19.4797 24.4841 19.4309C24.5849 19.382 24.6879 19.3395 24.7937 19.3034C24.8996 19.2666 25.0076 19.2369 25.117 19.2135C25.2271 19.1901 25.3372 19.1739 25.4488 19.1632C25.5611 19.1533 25.6727 19.1505 25.7849 19.154C25.8965 19.1576 26.0081 19.1675 26.1189 19.1845C26.2298 19.2015 26.3392 19.2255 26.4472 19.2553C26.5552 19.2857 26.661 19.3226 26.764 19.365C26.8677 19.4082 26.9678 19.4571 27.0651 19.5123C27.1623 19.5675 27.256 19.6284 27.3461 19.695C27.4355 19.7609 27.5213 19.8324 27.6022 19.9096C27.683 19.986 27.7588 20.0675 27.8303 20.1531C27.9011 20.2388 27.9662 20.3287 28.0263 20.4229C28.0863 20.5164 28.14 20.6134 28.1879 20.7139C28.2358 20.8145 28.2773 20.9172 28.3123 21.0227C28.3474 21.1275 28.376 21.2351 28.3981 21.3434C28.4203 21.4525 28.4353 21.5622 28.4439 21.6727C28.4525 21.7831 28.4539 21.8936 28.4482 22.0048C28.4432 22.1152 28.431 22.2257 28.4124 22.3347C28.3938 22.4445 28.3681 22.5521 28.3359 22.6583C28.3037 22.7645 28.2651 22.8686 28.2201 22.9699C28.175 23.0718 28.1242 23.1703 28.067 23.2659C28.0098 23.3615 27.9469 23.4528 27.8782 23.5406C27.8103 23.6284 27.7366 23.712 27.6579 23.7905C27.5793 23.8699 27.4956 23.9435 27.4076 24.0129C27.3197 24.0816 27.2281 24.1446 27.1323 24.2027C26.3692 24.6282 25.0355 24.5234 24.5005 24.4632C24.3582 24.4469 24.2216 24.4668 24.09 24.5227C23.9591 24.5786 23.8497 24.6629 23.7639 24.7755C23.7639 24.784 23.5093 25.0708 23.6759 25.565L26.2813 31.3097C26.3292 31.4187 26.3456 31.5327 26.3299 31.651C26.3142 31.7692 26.2684 31.8754 26.194 31.9689ZM41.6157 32.8972C41.5699 33.0544 41.5027 33.2024 41.414 33.3397V33.3574C41.414 33.3574 41.1509 33.7823 40.8441 34.251L40.7382 34.416H30.2554L30.1674 34.3289C29.8292 33.9721 29.5624 33.5684 29.3679 33.1181C29.1734 32.6671 29.0625 32.1976 29.0361 31.7083L36.6332 28.5758C36.4666 28.871 36.3085 29.1833 36.159 29.4956L37.1152 29.9381C37.3083 29.5303 37.5193 29.1316 37.7381 28.75C37.9627 28.3676 38.2495 28.0376 38.5977 27.7601C38.8509 27.5547 39.1255 27.3841 39.4223 27.2481L39.8085 27.0923L39.747 26.6845C39.7384 26.676 39.712 26.4848 39.6598 26.1987C39.5017 25.2612 39.1684 23.2312 39.0368 22.4324C38.9875 22.1202 38.9911 21.8086 39.0483 21.4978C39.1055 21.1869 39.2128 20.8938 39.3701 20.6191C39.4824 20.4576 39.6261 20.3309 39.8014 20.2388C39.9766 20.1475 40.1632 20.1 40.3613 20.0986C40.6331 20.1071 40.7475 20.2459 40.7911 20.3323L42.3352 25.0878L42.6599 26.0854L43.0982 27.4478L41.6157 32.8972Z" fill="#00D280"/>
</g>
<path d="M11.4043 41.7138L12.3397 41.2358L13.5548 43.5647L12.6194 44.0419L11.4043 41.7138Z" fill="#00D280"/>
<path d="M3.81152 43.6072L5.02658 41.2783L5.96201 41.7555L4.74695 44.0844L3.81152 43.6072Z" fill="#00D280"/>
<mask id="mask1_1_1496" style="mask-type:luminance" maskUnits="userSpaceOnUse" x="7" y="42" width="3" height="4">
<path d="M7.96875 42.6758H9.25032V45.4402H7.96875V42.6758Z" fill="white"/>
</mask>
<g mask="url(#mask1_1_1496)">
<path d="M8.10352 45.3894L8.1686 42.7695L9.2206 42.795L9.15623 45.4149L8.10352 45.3894Z" fill="#00D280"/>
</g>
<path d="M33.6611 2.4084L34.5966 1.93115L35.8116 4.25932L34.8762 4.73728L33.6611 2.4084Z" fill="#00D280"/>
<path d="M41.2568 4.2947L42.4719 1.96582L43.4073 2.44377L42.193 4.77195L41.2568 4.2947Z" fill="#00D280"/>
<path d="M37.9375 3.19363L38.0019 0.57373L39.0546 0.599221L38.9895 3.21912L37.9375 3.19363Z" fill="#00D280"/>
</g>
</g>
<defs>
<clipPath id="clip0_1_1496">
<rect width="45" height="45" fill="white" transform="translate(0.5 0.439941)"/>
</clipPath>
<clipPath id="clip1_1_1496">
<rect width="45" height="45" fill="white" transform="translate(0.5 0.439941)"/>
</clipPath>
</defs>
</svg>
