<svg width="60" height="56" viewBox="0 0 60 56" fill="none" xmlns="http://www.w3.org/2000/svg">
<g clip-path="url(#clip0_1_1431)">
<g clip-path="url(#clip1_1_1431)">
<g clip-path="url(#clip2_1_1431)">
<mask id="mask0_1_1431" style="mask-type:luminance" maskUnits="userSpaceOnUse" x="5" y="0" width="15" height="16">
<path d="M5.02441 0.950684H19.2902V15.7994H5.02441V0.950684Z" fill="white"/>
</mask>
<g mask="url(#mask0_1_1431)">
<path d="M12.1117 15.5931C15.9992 15.5931 19.1455 12.3186 19.1455 8.27189C19.1455 4.23328 15.9992 0.950684 12.1117 0.950684C8.23095 0.950684 5.0791 4.23328 5.0791 8.27189C5.0791 12.3186 8.22538 15.5931 12.1117 15.5931Z" fill="#0575AD"/>
</g>
<path d="M19.9575 19.8152C18.5922 18.4122 16.7511 17.5854 14.7293 17.5854H9.5011C5.72845 17.5854 2.53313 20.5168 2.07618 24.4498L1.3484 30.775C1.25813 31.5832 1.75743 32.3601 2.53313 32.5479C5.56573 33.2297 8.7722 33.5625 12.1057 33.5625C13.1344 33.5625 14.1576 33.5428 15.1561 33.4488L15.8482 27.6188C16.2149 24.4684 17.7374 21.7192 19.9575 19.8152Z" fill="#0575AD"/>
<mask id="mask1_1_1431" style="mask-type:luminance" maskUnits="userSpaceOnUse" x="40" y="0" width="15" height="16">
<path d="M40.6895 0.950684H54.9552V15.7994H40.6895V0.950684Z" fill="white"/>
</mask>
<g mask="url(#mask1_1_1431)">
<path d="M47.7251 15.5931C51.6126 15.5931 54.7589 12.3186 54.7589 8.27189C54.7589 4.23328 51.6126 0.950684 47.7251 0.950684C43.8388 0.950684 40.6914 4.23328 40.6914 8.27189C40.6914 12.3186 43.8388 15.5931 47.7251 15.5931Z" fill="#0575AD"/>
</g>
<mask id="mask2_1_1431" style="mask-type:luminance" maskUnits="userSpaceOnUse" x="39" y="17" width="20" height="17">
<path d="M39.833 17.5806H58.5926V33.6097H39.833V17.5806Z" fill="white"/>
</mask>
<g mask="url(#mask2_1_1431)">
<path d="M57.7553 24.4496C57.3094 20.5223 54.103 17.5852 50.3481 17.5852H45.1021C43.0804 17.5852 41.2392 18.4119 39.8906 19.815C42.1051 21.7131 43.6276 24.4624 43.9888 27.6186L44.6809 33.4486C45.6727 33.5425 46.7026 33.5623 47.7313 33.5623C51.0636 33.5623 54.2712 33.2295 57.3038 32.5476C58.0862 32.3656 58.5788 31.5887 58.4886 30.7747L57.7553 24.4496Z" fill="#0575AD"/>
</g>
<path d="M32.5271 21.2864H27.2978C23.5251 21.2864 20.3432 24.2234 19.8851 28.1379L19.1451 34.4758C19.0548 35.2898 19.5664 36.0737 20.3365 36.2418C20.5048 36.2801 20.6797 36.3114 20.8548 36.3485C23.1584 33.9065 26.366 32.3911 29.9091 32.3911C33.4477 32.3911 36.6664 33.9065 38.9768 36.3485C39.1396 36.3114 39.3201 36.2801 39.4816 36.2418C40.2641 36.0737 40.7701 35.2898 40.6731 34.4758L39.9453 28.1379C39.4939 24.2234 36.3053 21.2864 32.5271 21.2864Z" fill="#0575AD"/>
<path d="M29.9158 19.2882C33.8021 19.2882 36.9496 16.0068 36.9496 11.967C36.9496 7.9272 33.7965 4.64575 29.9158 4.64575C26.035 4.64575 22.8877 7.9214 22.8877 11.967C22.8877 16.0068 26.035 19.2882 29.9158 19.2882Z" fill="#0575AD"/>
<mask id="mask3_1_1431" style="mask-type:luminance" maskUnits="userSpaceOnUse" x="20" y="35" width="20" height="21">
<path d="M20.7168 35.9841H39.2623V55.0489H20.7168V35.9841Z" fill="white"/>
</mask>
<g mask="url(#mask3_1_1431)">
<path d="M29.9163 36.1731C24.9099 36.1731 20.8486 40.4007 20.8486 45.6116C20.8486 50.8225 24.9099 55.0489 29.9163 55.0489C34.9216 55.0489 38.9829 50.8225 38.9829 45.6116C38.9829 40.4007 34.9216 36.1731 29.9163 36.1731ZM34.5549 44.3269L29.5787 49.5064C29.2966 49.8009 28.9233 49.9517 28.5499 49.9517C28.1777 49.9517 27.8043 49.8079 27.5212 49.5064L25.0481 46.9323C24.4831 46.3444 24.4831 45.3855 25.0481 44.7976C25.6142 44.2086 26.5349 44.2086 27.1 44.7976L28.5443 46.3062L32.4975 42.1922C33.0626 41.6031 33.9832 41.6031 34.5494 42.1922C35.12 42.78 35.12 43.732 34.5549 44.3269Z" fill="#0575AD"/>
</g>
</g>
</g>
</g>
<defs>
<clipPath id="clip0_1_1431">
<rect width="58.59" height="55" fill="white" transform="translate(0.669922 0.5)"/>
</clipPath>
<clipPath id="clip1_1_1431">
<rect width="58.59" height="55" fill="white" transform="translate(0.669922 0.5)"/>
</clipPath>
<clipPath id="clip2_1_1431">
<rect width="58.6066" height="55" fill="white" transform="translate(0.662109 0.5)"/>
</clipPath>
</defs>
</svg>
