<svg width="60" height="56" viewBox="0 0 60 56" fill="none" xmlns="http://www.w3.org/2000/svg">
<g clip-path="url(#clip0_1_1431)">
<g clip-path="url(#clip1_1_1431)">
<g clip-path="url(#clip2_1_1431)">
<mask id="mask0_1_1431" style="mask-type:luminance" maskUnits="userSpaceOnUse" x="5" y="0" width="15" height="16">
<path d="M5.02344 0.950684H19.2893V15.7994H5.02344V0.950684Z" fill="white"/>
</mask>
<g mask="url(#mask0_1_1431)">
<path d="M12.1107 15.5931C15.9982 15.5931 19.1445 12.3186 19.1445 8.27189C19.1445 4.23328 15.9982 0.950684 12.1107 0.950684C8.22998 0.950684 5.07812 4.23328 5.07812 8.27189C5.07812 12.3186 8.22441 15.5931 12.1107 15.5931Z" fill="white"/>
</g>
<path d="M19.9575 19.8152C18.5922 18.4122 16.7511 17.5854 14.7293 17.5854H9.5011C5.72845 17.5854 2.53313 20.5168 2.07618 24.4498L1.3484 30.775C1.25813 31.5832 1.75743 32.3601 2.53313 32.5479C5.56573 33.2297 8.7722 33.5625 12.1057 33.5625C13.1344 33.5625 14.1576 33.5428 15.1561 33.4488L15.8482 27.6188C16.2149 24.4684 17.7374 21.7192 19.9575 19.8152Z" fill="white"/>
<mask id="mask1_1_1431" style="mask-type:luminance" maskUnits="userSpaceOnUse" x="40" y="0" width="15" height="16">
<path d="M40.6885 0.950684H54.9542V15.7994H40.6885V0.950684Z" fill="white"/>
</mask>
<g mask="url(#mask1_1_1431)">
<path d="M47.7241 15.5931C51.6116 15.5931 54.7579 12.3186 54.7579 8.27189C54.7579 4.23328 51.6116 0.950684 47.7241 0.950684C43.8379 0.950684 40.6904 4.23328 40.6904 8.27189C40.6904 12.3186 43.8379 15.5931 47.7241 15.5931Z" fill="white"/>
</g>
<mask id="mask2_1_1431" style="mask-type:luminance" maskUnits="userSpaceOnUse" x="39" y="17" width="20" height="17">
<path d="M39.8325 17.5806H58.5921V33.6097H39.8325V17.5806Z" fill="white"/>
</mask>
<g mask="url(#mask2_1_1431)">
<path d="M57.7543 24.4496C57.3084 20.5223 54.102 17.5852 50.3471 17.5852H45.1011C43.0794 17.5852 41.2382 18.4119 39.8896 19.815C42.1042 21.7131 43.6267 24.4624 43.9878 27.6186L44.6799 33.4486C45.6718 33.5425 46.7016 33.5623 47.7303 33.5623C51.0627 33.5623 54.2703 33.2295 57.3028 32.5476C58.0853 32.3656 58.5778 31.5887 58.4876 30.7747L57.7543 24.4496Z" fill="white"/>
</g>
<path d="M32.5271 21.2864H27.2978C23.5251 21.2864 20.3432 24.2234 19.8851 28.1379L19.1451 34.4758C19.0548 35.2898 19.5664 36.0737 20.3365 36.2418C20.5048 36.2801 20.6797 36.3114 20.8548 36.3485C23.1584 33.9065 26.366 32.3911 29.9091 32.3911C33.4477 32.3911 36.6664 33.9065 38.9768 36.3485C39.1396 36.3114 39.3201 36.2801 39.4816 36.2418C40.2641 36.0737 40.7701 35.2898 40.6731 34.4758L39.9453 28.1379C39.4939 24.2234 36.3053 21.2864 32.5271 21.2864Z" fill="white"/>
<path d="M29.9153 19.2882C33.8016 19.2882 36.9491 16.0068 36.9491 11.967C36.9491 7.9272 33.7961 4.64575 29.9153 4.64575C26.0346 4.64575 22.8872 7.9214 22.8872 11.967C22.8872 16.0068 26.0346 19.2882 29.9153 19.2882Z" fill="white"/>
<mask id="mask3_1_1431" style="mask-type:luminance" maskUnits="userSpaceOnUse" x="20" y="35" width="20" height="21">
<path d="M20.7158 35.9841H39.2614V55.0489H20.7158V35.9841Z" fill="white"/>
</mask>
<g mask="url(#mask3_1_1431)">
<path d="M29.9158 36.1731C24.9094 36.1731 20.8481 40.4007 20.8481 45.6116C20.8481 50.8225 24.9094 55.0489 29.9158 55.0489C34.9211 55.0489 38.9825 50.8225 38.9825 45.6116C38.9825 40.4007 34.9211 36.1731 29.9158 36.1731ZM34.5544 44.3269L29.5782 49.5064C29.2961 49.8009 28.9228 49.9517 28.5494 49.9517C28.1772 49.9517 27.8038 49.8079 27.5207 49.5064L25.0476 46.9323C24.4826 46.3444 24.4826 45.3855 25.0476 44.7976C25.6138 44.2086 26.5344 44.2086 27.0995 44.7976L28.5438 46.3062L32.4971 42.1922C33.0621 41.6031 33.9827 41.6031 34.5489 42.1922C35.1195 42.78 35.1195 43.732 34.5544 44.3269Z" fill="white"/>
</g>
</g>
</g>
</g>
<defs>
<clipPath id="clip0_1_1431">
<rect width="58.59" height="55" fill="white" transform="translate(0.669922 0.5)"/>
</clipPath>
<clipPath id="clip1_1_1431">
<rect width="58.59" height="55" fill="white" transform="translate(0.669922 0.5)"/>
</clipPath>
<clipPath id="clip2_1_1431">
<rect width="58.6066" height="55" fill="white" transform="translate(0.661621 0.5)"/>
</clipPath>
</defs>
</svg>
