<svg width="55" height="56" viewBox="0 0 55 56" fill="none" xmlns="http://www.w3.org/2000/svg">
<g clip-path="url(#clip0_1_1413)">
<g clip-path="url(#clip1_1_1413)">
<g clip-path="url(#clip2_1_1413)">
<mask id="mask0_1_1413" style="mask-type:luminance" maskUnits="userSpaceOnUse" x="27" y="30" width="29" height="26">
<path d="M27.9648 30.9651H55.014V55.0493H27.9648V30.9651Z" fill="white"/>
</mask>
<g mask="url(#mask0_1_1413)">
<path d="M53.1503 46.0679C51.8906 44.9081 50.1757 44.4568 48.5234 44.8403L40.5152 38.3177C40.8578 36.0857 40.0044 33.8434 38.2499 32.4158C37.0087 31.4045 35.4458 30.9076 33.8539 31.0187C32.9889 31.0795 32.2876 31.6361 32.0252 32.472C31.7651 33.3044 32.031 34.1953 32.7021 34.7412L34.7132 36.3792C34.9233 36.5511 35.0557 36.7954 35.0847 37.0666C35.1126 37.3379 35.0348 37.6056 34.8641 37.8184C34.6934 38.03 34.4507 38.1621 34.1802 38.1913C33.9108 38.2206 33.6461 38.1411 33.4347 37.9693L31.4237 36.3324C30.7526 35.7853 29.8319 35.7093 29.0783 36.1407C28.3213 36.5733 27.9253 37.3789 28.0472 38.244C28.2725 39.8352 29.0806 41.2674 30.323 42.2798C32.0774 43.7074 34.4333 44.0791 36.5314 43.2748L44.5408 49.7963C44.5175 51.3793 45.2188 52.9003 46.4449 53.8988C47.3623 54.6458 48.5129 55.048 49.6821 55.048C49.9179 55.048 50.1559 55.0316 50.3916 54.9989C51.8175 54.7967 53.0586 54.0297 53.8889 52.8372C55.3612 50.7234 55.0441 47.8122 53.1503 46.0679ZM48.4386 48.8691C48.7532 48.4786 49.2131 48.2764 49.6775 48.2764C50.0293 48.2764 50.3835 48.3933 50.6772 48.6318C51.36 49.1871 51.4656 50.1985 50.9141 50.8847C50.3614 51.5734 49.3571 51.6798 48.6754 51.1232C48.3445 50.8543 48.1379 50.472 48.0926 50.0465C48.0484 49.6209 48.1704 49.2035 48.4386 48.8691Z" fill="white"/>
</g>
<mask id="mask1_1_1413" style="mask-type:luminance" maskUnits="userSpaceOnUse" x="0" y="0" width="47" height="56">
<path d="M0.915527 0.950928H46.3938V55.0493H0.915527V0.950928Z" fill="white"/>
</mask>
<g mask="url(#mask1_1_1413)">
<path d="M41.1293 30.17C42.9406 30.17 44.5731 29.2335 45.4974 27.6646C46.4205 26.0956 46.453 24.2039 45.5821 22.6045L35.246 3.60604C34.3415 1.94352 32.6764 0.950928 30.792 0.950928C28.9098 0.950928 27.2448 1.94352 26.3391 3.60604L25.5867 4.9903L24.8389 4.23855C24.7589 4.15787 24.6497 4.11227 24.5371 4.11227C24.4244 4.11227 24.3164 4.15787 24.2364 4.23855L22.1695 6.31844C21.2337 5.75842 20.2282 5.3387 19.1739 5.06863V2.12825C19.1739 1.89091 18.9835 1.69918 18.7478 1.69918H13.9524C13.7167 1.69918 13.5252 1.89091 13.5252 2.12825V5.06863C12.4709 5.3387 11.4664 5.75842 10.5295 6.31844L8.46385 4.23855C8.38374 4.15787 8.27459 4.11227 8.16196 4.11227C8.04818 4.11227 7.94019 4.15787 7.86008 4.23855L4.46848 7.65126C4.30244 7.81962 4.30244 8.09202 4.46848 8.25921L6.53525 10.3391C5.97908 11.2815 5.56224 12.2927 5.29403 13.3543H2.37268C2.13698 13.3543 1.94539 13.5472 1.94539 13.7834V18.6108C1.94539 18.8481 2.13698 19.0398 2.37268 19.0398H5.29403C5.44729 19.6478 5.65397 20.2417 5.90477 20.8158C4.41623 22.9178 3.54076 25.4888 3.54076 28.2632C3.54076 31.9916 5.12567 35.3551 7.65339 37.7063L1.44147 49.9776C0.572962 51.6915 1.25221 53.7948 2.95556 54.6682C3.44902 54.9219 3.9843 55.0505 4.52421 55.0505C4.88415 55.0505 5.24642 54.9932 5.5994 54.8774C6.47836 54.5898 7.19476 53.9749 7.61508 53.1436L13.8235 40.8793C14.6316 41.0419 15.4676 41.1272 16.3211 41.1272C22.7258 41.1272 28.0436 36.363 28.962 30.17H41.1293ZM30.792 20.1166C31.4085 20.1166 31.909 20.6217 31.909 21.2413C31.909 21.8609 31.4085 22.3649 30.792 22.3649C30.1777 22.3649 29.6761 21.8609 29.6761 21.2413C29.6761 20.6217 30.1777 20.1166 30.792 20.1166ZM31.909 15.9194C31.909 16.5378 31.4085 17.0429 30.792 17.0429C30.1777 17.0429 29.6761 16.5378 29.6761 15.9194V11.4475C29.6761 10.8278 30.1777 10.3239 30.792 10.3239C31.4085 10.3239 31.909 10.8278 31.909 11.4475V15.9194ZM27.088 4.01875C27.8404 2.63566 29.2256 1.80907 30.792 1.80907C32.3606 1.80907 33.7447 2.63566 34.497 4.01875L44.8332 23.0172C45.5578 24.3477 45.5311 25.9214 44.7635 27.2273C43.9949 28.5321 42.6364 29.3119 41.1293 29.3119H29.0608C29.0886 28.9647 29.1037 28.6163 29.1037 28.2632C29.1037 27.7137 29.0677 27.1724 29.0015 26.6416H41.1293C41.6982 26.6416 42.1917 26.3587 42.4809 25.8665C42.7711 25.3731 42.7804 24.8025 42.5075 24.2998L32.1713 5.30129C31.8904 4.7857 31.376 4.47939 30.792 4.47939C30.2091 4.47939 29.6935 4.78687 29.4148 5.30129L22.9162 17.2452C22.1614 16.7857 21.3556 16.4046 20.5103 16.1077L27.088 4.01875ZM16.3489 11.845C18.1242 11.845 19.715 12.9393 20.3663 14.5854L19.679 15.8493C18.6084 15.5546 17.4834 15.3968 16.3211 15.3968C14.8163 15.3968 13.3707 15.661 12.0284 16.1451C12.0563 13.7705 13.9826 11.845 16.3489 11.845ZM6.85571 52.7543C6.53873 53.3797 5.99766 53.8439 5.33467 54.0614C4.67167 54.2788 3.96456 54.2216 3.34221 53.9024C2.05918 53.2441 1.54713 51.6588 2.20199 50.3681L5.69345 43.4678L10.3471 45.854L6.85571 52.7543ZM16.3211 40.2691C9.74571 40.2691 4.39417 34.8829 4.39417 28.2632C4.39417 21.6424 9.74571 16.2561 16.3211 16.2561C22.8988 16.2561 28.2503 21.6424 28.2503 28.2632C28.2503 34.8829 22.8988 40.2691 16.3211 40.2691Z" fill="white"/>
</g>
<path d="M16.3209 18.6584C11.0611 18.6584 6.78125 22.9679 6.78125 28.263C6.78125 33.5579 11.0611 37.8651 16.3209 37.8651C21.5819 37.8651 25.8629 33.5579 25.8629 28.263C25.8629 22.9679 21.5819 18.6584 16.3209 18.6584ZM16.3209 37.0057C11.5313 37.0057 7.63466 33.0845 7.63466 28.263C7.63466 23.4414 11.5313 19.5178 16.3209 19.5178C21.1117 19.5178 25.0095 23.4414 25.0095 28.263C25.0095 33.0845 21.1117 37.0057 16.3209 37.0057Z" fill="white"/>
<path d="M12.9764 22.4301C10.9142 23.6309 9.63232 25.8663 9.63232 28.263C9.63232 30.5323 10.7574 32.6344 12.6431 33.8866C12.7139 33.9344 12.7964 33.9567 12.8776 33.9567C13.0147 33.9567 13.1516 33.8889 13.234 33.7649C13.363 33.5662 13.3095 33.2997 13.1121 33.1687C11.468 32.0779 10.4858 30.2435 10.4858 28.263C10.4858 26.1714 11.6039 24.2213 13.4047 23.1737C13.6079 23.0544 13.6788 22.7914 13.5603 22.5869C13.442 22.3811 13.1818 22.311 12.9764 22.4301Z" fill="white"/>
</g>
</g>
</g>
<defs>
<clipPath id="clip0_1_1413">
<rect width="54.09" height="55" fill="white" transform="translate(0.919922 0.5)"/>
</clipPath>
<clipPath id="clip1_1_1413">
<rect width="54.09" height="55" fill="white" transform="translate(0.919922 0.5)"/>
</clipPath>
<clipPath id="clip2_1_1413">
<rect width="54.0984" height="55" fill="white" transform="translate(0.915527 0.5)"/>
</clipPath>
</defs>
</svg>
