<svg width="66" height="65" viewBox="0 0 66 65" fill="none" xmlns="http://www.w3.org/2000/svg">
<rect x="0.5" width="65" height="65" rx="8" fill="#00D280" fill-opacity="0.2"/>
<g clip-path="url(#clip0_1_1269)">
<g clip-path="url(#clip1_1_1269)">
<g clip-path="url(#clip2_1_1269)">
<mask id="mask0_1_1269" style="mask-type:luminance" maskUnits="userSpaceOnUse" x="13" y="11" width="40" height="38">
<path d="M13.0303 11.9951H52.9704V48.8951H13.0303V11.9951Z" fill="white"/>
</mask>
<g mask="url(#mask0_1_1269)">
<path d="M49.3546 11.9963H16.646C14.6524 11.9963 13.0303 13.6383 13.0303 15.6574V36.3538C13.0303 38.3723 14.6524 40.0147 16.646 40.0147H26.2825V43.4899H22.4037C20.6513 43.4899 19.2258 44.7024 19.2258 46.192V48.242C19.2258 48.6023 19.5142 48.8943 19.8696 48.8943H46.1311C46.4869 48.8943 46.7754 48.6023 46.7754 48.242V46.192C46.7754 44.7024 45.3494 43.4899 43.597 43.4899H39.7183V40.0147H49.3546C51.3482 40.0147 52.9704 38.3723 52.9704 36.3538V15.6574C52.9704 13.6383 51.3482 11.9963 49.3546 11.9963ZM45.4868 46.192V47.5899H20.5139V46.192C20.5139 45.4344 21.3797 44.7943 22.4037 44.7943H43.597C44.6215 44.7943 45.4868 45.4344 45.4868 46.192ZM38.4302 43.4899H27.5705V40.0147H38.4302V43.4899ZM51.6818 36.3538C51.6818 37.6534 50.638 38.7104 49.3546 38.7104H16.646C15.3626 38.7104 14.3189 37.6534 14.3189 36.3538V15.6574C14.3189 14.3577 15.3626 13.3012 16.646 13.3012H49.3546C50.638 13.3012 51.6818 14.3582 51.6818 15.6574V36.3538ZM49.4293 14.5121H16.5713C15.9893 14.5121 15.5151 14.9921 15.5151 15.5817V34.2948C15.5151 34.6551 15.8036 34.947 16.1594 34.947H49.8412C50.1971 34.947 50.4856 34.6551 50.4856 34.2948V15.5817C50.4856 14.9921 50.012 14.5121 49.4293 14.5121ZM49.197 24.2858H39.0615C38.8514 21.3153 36.5512 18.9214 33.6446 18.6095V15.8165H49.197V24.2858ZM33.0003 29.5799C30.3589 29.5799 28.2101 27.4039 28.2101 24.7295C28.2101 22.0552 30.3589 19.8792 33.0003 19.8792C35.6419 19.8792 37.7911 22.0552 37.7911 24.7295C37.7911 27.4039 35.6419 29.5799 33.0003 29.5799ZM32.356 15.8165V18.6095C29.4495 18.9214 27.1493 21.3153 26.9392 24.2858H16.8037V15.8165H32.356ZM16.8037 25.5902H26.9823C27.3677 28.3659 29.5869 30.5524 32.356 30.8496V33.6426H16.8037V25.5902ZM33.6446 33.6426V30.8496C36.4137 30.5524 38.633 28.3659 39.0185 25.5902H49.197V33.6426H33.6446ZM36.657 26.1237V22.6371C36.657 22.2768 36.3686 21.9848 36.0128 21.9848C34.8606 21.9848 34.2054 22.5152 33.6789 22.941C33.4443 23.1306 33.2348 23.2992 33.0003 23.4142C32.7659 23.2992 32.5563 23.1306 32.3218 22.941C31.7952 22.5152 31.1401 21.9848 29.9879 21.9848C29.632 21.9848 29.3436 22.2768 29.3436 22.6371V26.1237C29.3436 26.4839 29.632 26.7758 29.9879 26.7758C31.1971 26.7758 32.0868 26.9712 32.6315 27.3566C32.7414 27.4344 32.8707 27.4742 33.0003 27.4742C33.1025 27.4742 33.2047 27.4495 33.2981 27.4002C33.323 27.3871 33.3464 27.3724 33.3692 27.3562C33.9144 26.9708 34.8035 26.7758 36.0128 26.7758C36.3686 26.7758 36.657 26.4839 36.657 26.1237ZM32.356 25.7886C31.8643 25.6264 31.2915 25.5271 30.6322 25.4893V23.3937C30.9632 23.5118 31.2205 23.7198 31.5178 23.9603C31.762 24.1577 32.0292 24.3741 32.356 24.5473V25.7886ZM35.3685 25.4893C34.7091 25.5271 34.1364 25.6264 33.6446 25.7886V24.5453C33.971 24.3725 34.2391 24.1577 34.483 23.9603C34.7802 23.7198 35.0375 23.5118 35.369 23.3932L35.3685 25.4893ZM40.2349 23.4142H45.8282C46.0108 23.4142 46.185 23.3354 46.3069 23.1978C46.4294 23.0603 46.488 22.8765 46.4683 22.6922C46.3443 21.5206 45.6627 20.5387 44.7061 20.0036C44.952 19.6597 45.0978 19.237 45.0978 18.7807C45.0978 17.627 44.1707 16.6887 43.0315 16.6887C41.8918 16.6887 40.9653 17.627 40.9653 18.7807C40.9653 19.237 41.1106 19.6597 41.3564 20.0036C40.4004 20.5387 39.7183 21.5206 39.5943 22.6922C39.5751 22.8765 39.6337 23.0603 39.7556 23.1978C39.878 23.3354 40.0523 23.4142 40.2349 23.4142ZM42.2534 18.7807C42.2534 18.3464 42.6025 17.993 43.0315 17.993C43.4606 17.993 43.8092 18.3464 43.8092 18.7807C43.8092 19.2149 43.4606 19.5678 43.032 19.5683C43.0315 19.5683 43.0311 19.5683 43.0311 19.5683C42.602 19.5678 42.2534 19.2149 42.2534 18.7807ZM43.0311 20.8727H43.032C43.8865 20.8732 44.6324 21.3715 44.9841 22.1098H41.0784C41.4307 21.3715 42.1761 20.8732 43.0311 20.8727ZM44.7061 29.5689C44.952 29.2244 45.0978 28.8022 45.0978 28.3459C45.0978 27.1923 44.1707 26.2534 43.0315 26.2534C41.8918 26.2534 40.9653 27.1923 40.9653 28.3459C40.9653 28.8022 41.1106 29.2244 41.3564 29.5689C40.4004 30.104 39.7183 31.0859 39.5943 32.2575C39.5751 32.4417 39.6337 32.6256 39.7556 32.7631C39.878 32.9007 40.0523 32.9795 40.2349 32.9795H45.8282C46.0108 32.9795 46.185 32.9007 46.3069 32.7631C46.4294 32.6256 46.488 32.4417 46.4683 32.2575C46.3443 31.0859 45.6627 30.104 44.7061 29.5689ZM42.2534 28.3459C42.2534 27.9117 42.6025 27.5583 43.0315 27.5583C43.4606 27.5583 43.8092 27.9111 43.8092 28.3459C43.8092 28.7802 43.4606 29.1336 43.0315 29.1336C42.6025 29.1336 42.2534 28.7802 42.2534 28.3459ZM41.0784 31.6745C41.4307 30.9363 42.1766 30.438 43.0315 30.438C43.8865 30.438 44.6319 30.9363 44.9841 31.6745H41.0784ZM24.6442 29.5689C24.8901 29.2244 25.0358 28.8022 25.0358 28.3459C25.0358 27.1923 24.1088 26.2534 22.9691 26.2534C21.83 26.2534 20.9029 27.1923 20.9029 28.3459C20.9029 28.8022 21.0487 29.2244 21.2946 29.5689C20.338 30.104 19.6564 31.0859 19.5324 32.2575C19.5127 32.4417 19.5713 32.6256 19.6937 32.7631C19.8156 32.9007 19.9899 32.9795 20.1725 32.9795H25.7658C25.9483 32.9795 26.1227 32.9007 26.2451 32.7631C26.367 32.6256 26.4256 32.4417 26.4065 32.2575C26.2825 31.0859 25.6008 30.104 24.6442 29.5689ZM22.1915 28.3459C22.1915 27.9117 22.5406 27.5583 22.9691 27.5583C23.3981 27.5583 23.7473 27.9111 23.7473 28.3459C23.7473 28.7802 23.3981 29.1336 22.9691 29.1336C22.5402 29.1336 22.1915 28.7802 22.1915 28.3459ZM21.0165 31.6745C21.3688 30.9363 22.1147 30.438 22.9691 30.438C23.824 30.438 24.57 30.9363 24.9223 31.6745H21.0165ZM20.173 23.4142H25.7658C25.9489 23.4142 26.1227 23.3354 26.2451 23.1978C26.367 23.0603 26.4256 22.8765 26.4065 22.6922C26.2825 21.5206 25.6008 20.5387 24.6442 20.0036C24.8901 19.6597 25.0358 19.237 25.0358 18.7807C25.0358 17.627 24.1088 16.6887 22.9691 16.6887C21.83 16.6887 20.9029 17.627 20.9029 18.7807C20.9029 19.237 21.0487 19.6597 21.2946 20.0036C20.338 20.5387 19.6564 21.5206 19.5324 22.6926C19.5127 22.8765 19.5718 23.0603 19.6937 23.1978C19.8161 23.3354 19.9899 23.4142 20.173 23.4142ZM22.1915 18.7807C22.1915 18.3464 22.5406 17.993 22.9691 17.993C23.3981 17.993 23.7473 18.3464 23.7473 18.7807C23.7473 19.2149 23.3987 19.5678 22.9702 19.5683C22.9697 19.5683 22.9697 19.5683 22.9691 19.5683C22.5406 19.5678 22.1915 19.2149 22.1915 18.7807ZM22.9686 20.8727C22.9692 20.8727 22.9697 20.8727 22.9702 20.8727C23.8246 20.8732 24.57 21.3715 24.9223 22.1098H21.0165C21.3688 21.3715 22.1142 20.8732 22.9686 20.8727Z" fill="#00D280"/>
</g>
</g>
</g>
</g>
<defs>
<clipPath id="clip0_1_1269">
<rect width="41" height="36.89" fill="white" transform="translate(12.5 12)"/>
</clipPath>
<clipPath id="clip1_1_1269">
<rect width="41" height="36.89" fill="white" transform="translate(12.5 12)"/>
</clipPath>
<clipPath id="clip2_1_1269">
<rect width="41" height="36.9" fill="white" transform="translate(12.5 11.9951)"/>
</clipPath>
</defs>
</svg>
