<svg width="56" height="56" viewBox="0 0 56 56" fill="none" xmlns="http://www.w3.org/2000/svg">
<g clip-path="url(#clip0_1_1392)">
<mask id="mask0_1_1392" style="mask-type:luminance" maskUnits="userSpaceOnUse" x="0" y="0" width="56" height="56">
<path d="M0.549805 0.5H55.5498V55.5H0.549805V0.5Z" fill="white"/>
</mask>
<g mask="url(#mask0_1_1392)">
<path d="M36.2689 19.6321H37.6071V24.1015H36.2689V19.6321ZM24.3475 12.7041H22.3952V3.96713C22.3952 2.05891 23.8582 0.498047 25.6467 0.498047H51.4205C53.209 0.498047 54.672 2.06003 54.672 3.96713V24.794C54.672 26.7011 53.2079 28.2631 51.4205 28.2631H39.5488L45.4609 39.2128L46.4122 39.215C45.5761 39.5173 44.8362 40.0417 44.2559 40.724C44.2252 40.6823 44.1988 40.6383 44.1745 40.591L38.5341 30.142L32.8778 40.6169C32.8049 40.7522 32.7056 40.8616 32.5893 40.9405C31.9857 40.1522 31.1803 39.5477 30.2564 39.215L31.6073 39.2117L37.5183 28.2631H25.6467C23.8603 28.2631 22.3952 26.7022 22.3952 24.7951V20.1283H25.5357C26.3866 20.1283 27.2037 19.7979 27.839 19.1979L32.5248 15.2924C34.0354 14.0338 34.3038 11.7038 33.1241 10.0921C31.9434 8.48054 29.7586 8.19408 28.248 9.45267L24.3475 12.7041ZM51.3222 24.1015H50.9057V12.4729C50.9057 12.05 50.745 11.6677 50.485 11.3902C50.226 11.1139 49.8666 10.9414 49.4702 10.9414H47.4692C47.0739 10.9414 46.7146 11.1139 46.4545 11.3902C46.1955 11.6677 46.0338 12.05 46.0338 12.4729V24.1015H45.1395V15.9488C45.1395 15.527 44.9788 15.1435 44.7188 14.8672C44.462 14.592 44.1026 14.4217 43.7051 14.4217V14.4183H41.7031C41.3109 14.4183 40.9526 14.5909 40.6905 14.8683L40.6894 14.8672C40.4314 15.1413 40.2719 15.5247 40.2719 15.9488H40.2687V24.1015H39.3744V19.278C39.3744 18.8562 39.2127 18.4728 38.9537 18.1964C38.6937 17.919 38.3343 17.7476 37.939 17.7476H35.938C35.5416 17.7476 35.1822 17.919 34.9232 18.1964C34.6632 18.4728 34.5025 18.8562 34.5025 19.278V24.1015H34.0861C33.5977 24.1015 33.2024 24.5234 33.2024 25.0443C33.2024 25.5643 33.5977 25.9861 34.0861 25.9861C39.8311 25.9861 45.5772 25.9861 51.3222 25.9861C51.8105 25.9861 52.2058 25.5643 52.2058 25.0443C52.2058 24.5234 51.8105 24.1015 51.3222 24.1015ZM48.0337 7.75988C46.1216 9.09966 44.1882 10.2749 42.257 11.3057C39.7486 12.6455 37.2339 13.7507 34.7689 14.6653C34.3091 14.8368 34.067 15.3725 34.2267 15.862C34.3873 16.3514 34.8894 16.6108 35.3482 16.4394C37.8703 15.5022 40.4537 14.3676 43.0434 12.9838C45.0433 11.9157 47.0401 10.7034 49.0104 9.32296C49.1161 9.53729 49.299 9.70872 49.5337 9.78538C49.9987 9.93541 50.4903 9.65567 50.6309 9.15948L51.0749 7.59973C51.2714 7.01216 50.8846 6.38623 50.3011 6.34676L48.7641 6.18887C48.281 6.14037 47.8509 6.51931 47.8054 7.03584C47.7811 7.31102 47.8709 7.57041 48.0337 7.75988ZM32.6961 3.32992C32.6961 3.85097 33.0914 4.27276 33.5787 4.27276H42.6946C43.1819 4.27276 43.5773 3.85097 43.5773 3.32992C43.5773 2.81001 43.1819 2.38822 42.6946 2.38822H33.5787C33.0914 2.38822 32.6961 2.81001 32.6961 3.32992ZM32.6961 6.86328C32.6961 7.38433 33.0914 7.80612 33.5787 7.80612H42.6946C43.1819 7.80612 43.5773 7.38433 43.5773 6.86328C43.5773 6.34337 43.1819 5.92158 42.6946 5.92158H33.5787C33.0914 5.92158 32.6961 6.34337 32.6961 6.86328ZM28.4869 3.32992C28.4869 3.85097 28.8822 4.27276 29.3706 4.27276H30.6295C31.1168 4.27276 31.5132 3.85097 31.5132 3.32992C31.5132 2.81001 31.1168 2.38822 30.6295 2.38822H29.3706C28.8822 2.38822 28.4869 2.81001 28.4869 3.32992ZM28.4869 6.86328C28.4869 7.38433 28.8822 7.80612 29.3706 7.80612H30.6295C31.1168 7.80612 31.5132 7.38433 31.5132 6.86328C31.5132 6.34337 31.1168 5.92158 30.6295 5.92158H29.3706C28.8822 5.92158 28.4869 6.34337 28.4869 6.86328ZM42.035 24.1015H43.3733V16.3029H42.035V24.1015ZM47.8012 24.1015H49.1394V12.8259H47.8012V24.1015ZM27.5113 40.8131C25.6529 40.8131 24.1467 42.4191 24.1467 44.4017C24.1467 46.3832 25.6529 47.9903 27.5113 47.9903C29.3695 47.9903 30.8758 46.3832 30.8758 44.4017C30.8758 42.4191 29.3695 40.8131 27.5113 40.8131ZM10.9918 12.6421C13.5361 12.6421 15.5984 9.75044 15.5984 6.18435C15.5984 2.61829 13.5361 1.07209 10.9918 1.07209C8.44857 1.07209 6.38628 2.61829 6.38628 6.18435C6.38628 9.75044 8.44751 12.6421 10.9918 12.6421ZM28.3051 54.4593C28.637 52.5646 29.4182 50.8606 30.5186 49.4632C29.916 49.2715 29.2765 49.1678 28.6158 49.1678C25.4141 49.1678 22.7419 51.579 22.1055 54.7921C22.0697 54.9714 22.1076 55.1417 22.2165 55.2838C22.3254 55.427 22.4734 55.5026 22.6457 55.5026H28.3305C28.2533 55.1654 28.2428 54.8113 28.3051 54.4593ZM25.5357 18.2438C25.986 18.2438 26.3961 18.0577 26.7016 17.7544L31.4371 13.8071C32.1802 13.189 32.3113 12.0444 31.7321 11.2515C31.1517 10.4598 30.0788 10.3188 29.3357 10.938L24.9554 14.5887H5.9381C3.5756 14.5887 0.635974 16.2059 0.622233 19.0603L0.569381 30.345C0.560924 32.1765 1.75644 33.7588 3.36314 34.4479V19.0603C3.36314 18.5393 3.75953 18.1175 4.24683 18.1175C4.73518 18.1175 5.13051 18.5393 5.13051 19.0603V53.9744H9.92946V35.7719C9.92946 35.252 10.3248 34.8302 10.8121 34.8302C11.3005 34.8302 11.6958 35.252 11.6958 35.7719V53.9744H16.8277L16.8774 21.4129L19.334 18.2438H25.5357ZM34.0839 41.695C34.0839 44.2167 36.0014 46.2626 38.366 46.2626C40.7317 46.2626 42.6481 44.2167 42.6481 41.695C42.6481 39.1722 40.7317 37.1275 38.366 37.1275C36.0014 37.1275 34.0839 39.1722 34.0839 41.695ZM54.672 39.241L49.726 39.2252C50.7017 39.5838 51.5453 40.2481 52.1552 41.1097L54.672 41.1176C55.1582 41.1176 55.5514 40.697 55.5514 40.1793C55.5514 39.6605 55.1571 39.241 54.672 39.241ZM44.6913 44.4017C44.6913 46.3832 46.1976 47.9903 48.056 47.9903C49.9142 47.9903 51.4205 46.3832 51.4205 44.4017C51.4205 42.4191 49.9142 40.8131 48.056 40.8131C46.1976 40.8131 44.6913 42.4191 44.6913 44.4017ZM38.366 47.44C34.2235 47.44 30.7754 50.6136 30.0419 54.8056C30.0101 54.9838 30.0513 55.1496 30.1591 55.2894C30.268 55.4293 30.4139 55.5026 30.5841 55.5026H46.148C46.3181 55.5026 46.4651 55.4293 46.5729 55.2894C46.6818 55.1496 46.7219 54.9838 46.6913 54.8056C45.9567 50.6136 42.5086 47.44 38.366 47.44ZM26.9553 39.2218L17.9524 39.241C17.4673 39.241 17.0729 39.6605 17.0729 40.1793C17.0729 40.697 17.4673 41.1176 17.9524 41.1176L24.5209 41.1041C25.1319 40.2413 25.9775 39.5782 26.9553 39.2218ZM48.056 49.1678C47.4122 49.1678 46.7906 49.2659 46.2019 49.4475C47.3086 50.8482 48.0951 52.5579 48.428 54.4593C48.4893 54.8113 48.4787 55.1654 48.4016 55.5026H54.0261C54.1984 55.5026 54.3464 55.427 54.4542 55.2838C54.5631 55.1417 54.6011 54.9714 54.5663 54.791C53.9299 51.579 51.2566 49.1678 48.056 49.1678Z" fill="#0575AD"/>
</g>
</g>
<defs>
<clipPath id="clip0_1_1392">
<rect width="55.8462" height="55" fill="white" transform="translate(0.126953 0.5)"/>
</clipPath>
</defs>
</svg>
