<svg width="56" height="56" viewBox="0 0 56 56" fill="none" xmlns="http://www.w3.org/2000/svg">
<g clip-path="url(#clip0_1_1390)">
<g clip-path="url(#clip1_1_1390)">
<g clip-path="url(#clip2_1_1390)">
<mask id="mask0_1_1390" style="mask-type:luminance" maskUnits="userSpaceOnUse" x="0" y="0" width="56" height="56">
<path d="M0.549805 0.5H55.5498V55.5H0.549805V0.5Z" fill="white"/>
</mask>
<g mask="url(#mask0_1_1390)">
<path d="M36.2694 19.6321H37.6076V24.1015H36.2694V19.6321ZM24.348 12.7041H22.3957V3.96713C22.3957 2.05891 23.8587 0.498047 25.6472 0.498047H51.421C53.2095 0.498047 54.6724 2.06003 54.6724 3.96713V24.794C54.6724 26.7011 53.2084 28.2631 51.421 28.2631H39.5493L45.4614 39.2128L46.4127 39.215C45.5766 39.5173 44.8367 40.0417 44.2564 40.724C44.2257 40.6823 44.1993 40.6383 44.175 40.591L38.5346 30.142L32.8783 40.6169C32.8054 40.7522 32.706 40.8616 32.5898 40.9405C31.9862 40.1522 31.1808 39.5477 30.2568 39.215L31.6078 39.2117L37.5188 28.2631H25.6472C23.8608 28.2631 22.3957 26.7022 22.3957 24.7951V20.1283H25.5362C26.387 20.1283 27.2042 19.7979 27.8395 19.1979L32.5253 15.2924C34.0359 14.0338 34.3043 11.7038 33.1246 10.0921C31.9439 8.48054 29.7591 8.19408 28.2485 9.45267L24.348 12.7041ZM51.3227 24.1015H50.9062V12.4729C50.9062 12.05 50.7455 11.6677 50.4855 11.3902C50.2265 11.1139 49.8671 10.9414 49.4707 10.9414H47.4697C47.0744 10.9414 46.715 11.1139 46.455 11.3902C46.196 11.6677 46.0343 12.05 46.0343 12.4729V24.1015H45.14V15.9488C45.14 15.527 44.9793 15.1435 44.7193 14.8672C44.4625 14.592 44.1031 14.4217 43.7056 14.4217V14.4183H41.7036C41.3114 14.4183 40.9531 14.5909 40.6909 14.8683L40.6899 14.8672C40.4319 15.1413 40.2723 15.5247 40.2723 15.9488H40.2692V24.1015H39.3749V19.278C39.3749 18.8561 39.2132 18.4728 38.9542 18.1964C38.6942 17.919 38.3348 17.7476 37.9395 17.7476H35.9385C35.5421 17.7476 35.1827 17.919 34.9237 18.1964C34.6637 18.4728 34.503 18.8561 34.503 19.278V24.1015H34.0865C33.5982 24.1015 33.2029 24.5234 33.2029 25.0443C33.2029 25.5643 33.5982 25.9861 34.0865 25.9861C39.8316 25.9861 45.5776 25.9861 51.3227 25.9861C51.811 25.9861 52.2063 25.5643 52.2063 25.0443C52.2063 24.5234 51.811 24.1015 51.3227 24.1015ZM48.0342 7.75988C46.1221 9.09966 44.1887 10.2749 42.2575 11.3057C39.7491 12.6455 37.2344 13.7507 34.7694 14.6653C34.3096 14.8368 34.0675 15.3725 34.2272 15.862C34.3878 16.3514 34.8899 16.6108 35.3487 16.4394C37.8708 15.5022 40.4542 14.3676 43.0439 12.9838C45.0438 11.9157 47.0406 10.7034 49.0109 9.32296C49.1166 9.53729 49.2995 9.70872 49.5342 9.78538C49.9992 9.93541 50.4908 9.65567 50.6314 9.15948L51.0754 7.59973C51.2719 7.01216 50.8851 6.38623 50.3016 6.34676L48.7646 6.18887C48.2815 6.14037 47.8513 6.51931 47.8059 7.03584C47.7816 7.31102 47.8714 7.57041 48.0342 7.75988ZM32.6966 3.32992C32.6966 3.85097 33.0919 4.27276 33.5792 4.27276H42.6951C43.1824 4.27276 43.5778 3.85097 43.5778 3.32992C43.5778 2.81001 43.1824 2.38822 42.6951 2.38822H33.5792C33.0919 2.38822 32.6966 2.81001 32.6966 3.32992ZM32.6966 6.86328C32.6966 7.38433 33.0919 7.80612 33.5792 7.80612H42.6951C43.1824 7.80612 43.5778 7.38433 43.5778 6.86328C43.5778 6.34337 43.1824 5.92158 42.6951 5.92158H33.5792C33.0919 5.92158 32.6966 6.34337 32.6966 6.86328ZM28.4874 3.32992C28.4874 3.85097 28.8827 4.27276 29.3711 4.27276H30.63C31.1173 4.27276 31.5137 3.85097 31.5137 3.32992C31.5137 2.81001 31.1173 2.38822 30.63 2.38822H29.3711C28.8827 2.38822 28.4874 2.81001 28.4874 3.32992ZM28.4874 6.86328C28.4874 7.38433 28.8827 7.80612 29.3711 7.80612H30.63C31.1173 7.80612 31.5137 7.38433 31.5137 6.86328C31.5137 6.34337 31.1173 5.92158 30.63 5.92158H29.3711C28.8827 5.92158 28.4874 6.34337 28.4874 6.86328ZM42.0355 24.1015H43.3738V16.3029H42.0355V24.1015ZM47.8017 24.1015H49.1399V12.8259H47.8017V24.1015ZM27.5118 40.8131C25.6534 40.8131 24.1472 42.4191 24.1472 44.4017C24.1472 46.3832 25.6534 47.9903 27.5118 47.9903C29.37 47.9903 30.8763 46.3832 30.8763 44.4017C30.8763 42.4191 29.37 40.8131 27.5118 40.8131ZM10.9923 12.6421C13.5366 12.6421 15.5989 9.75044 15.5989 6.18435C15.5989 2.61829 13.5366 1.07209 10.9923 1.07209C8.44906 1.07209 6.38677 2.61829 6.38677 6.18435C6.38677 9.75044 8.448 12.6421 10.9923 12.6421ZM28.3056 54.4593C28.6375 52.5646 29.4186 50.8606 30.5191 49.4632C29.9165 49.2715 29.277 49.1678 28.6163 49.1678C25.4146 49.1678 22.7424 51.579 22.106 54.7921C22.0701 54.9714 22.1081 55.1417 22.217 55.2838C22.3259 55.427 22.4739 55.5026 22.6462 55.5026H28.331C28.2538 55.1654 28.2433 54.8113 28.3056 54.4593ZM25.5362 18.2438C25.9865 18.2438 26.3966 18.0577 26.7021 17.7544L31.4376 13.8071C32.1807 13.189 32.3118 12.0444 31.7325 11.2515C31.1522 10.4598 30.0793 10.3188 29.3362 10.938L24.9559 14.5887H5.93859C3.57609 14.5887 0.636463 16.2059 0.622721 19.0603L0.569869 30.345C0.561412 32.1765 1.75693 33.7588 3.36363 34.4479V19.0603C3.36363 18.5393 3.76002 18.1175 4.24732 18.1175C4.73567 18.1175 5.131 18.5393 5.131 19.0603V53.9744H9.92995V35.7719C9.92995 35.252 10.3253 34.8302 10.8126 34.8302C11.301 34.8302 11.6963 35.252 11.6963 35.7719V53.9744H16.8282L16.8779 21.4129L19.3344 18.2438H25.5362ZM34.0844 41.695C34.0844 44.2167 36.0019 46.2626 38.3665 46.2626C40.7321 46.2626 42.6486 44.2167 42.6486 41.695C42.6486 39.1722 40.7321 37.1275 38.3665 37.1275C36.0019 37.1275 34.0844 39.1722 34.0844 41.695ZM54.6724 39.241L49.7265 39.2252C50.7022 39.5838 51.5457 40.2481 52.1556 41.1097L54.6724 41.1176C55.1586 41.1176 55.5519 40.697 55.5519 40.1793C55.5519 39.6605 55.1576 39.241 54.6724 39.241ZM44.6918 44.4017C44.6918 46.3832 46.1981 47.9903 48.0565 47.9903C49.9147 47.9903 51.421 46.3832 51.421 44.4017C51.421 42.4191 49.9147 40.8131 48.0565 40.8131C46.1981 40.8131 44.6918 42.4191 44.6918 44.4017ZM38.3665 47.44C34.224 47.44 30.7759 50.6136 30.0423 54.8056C30.0106 54.9838 30.0518 55.1496 30.1596 55.2894C30.2685 55.4293 30.4144 55.5026 30.5846 55.5026H46.1485C46.3186 55.5026 46.4656 55.4293 46.5734 55.2894C46.6823 55.1496 46.7224 54.9838 46.6918 54.8056C45.9571 50.6136 42.5091 47.44 38.3665 47.44ZM26.9557 39.2218L17.9529 39.241C17.4677 39.241 17.0734 39.6605 17.0734 40.1793C17.0734 40.697 17.4677 41.1176 17.9529 41.1176L24.5214 41.1041C25.1324 40.2413 25.978 39.5782 26.9557 39.2218ZM48.0565 49.1678C47.4127 49.1678 46.7911 49.2659 46.2024 49.4475C47.309 50.8482 48.0955 52.5579 48.4285 54.4593C48.4898 54.8113 48.4792 55.1654 48.4021 55.5026H54.0266C54.1989 55.5026 54.3468 55.427 54.4546 55.2838C54.5635 55.1417 54.6016 54.9714 54.5668 54.791C53.9304 51.579 51.2571 49.1678 48.0565 49.1678Z" fill="white"/>
</g>
</g>
</g>
</g>
<defs>
<clipPath id="clip0_1_1390">
<rect width="55.84" height="55" fill="white" transform="translate(0.129883 0.5)"/>
</clipPath>
<clipPath id="clip1_1_1390">
<rect width="55.84" height="55" fill="white" transform="translate(0.129883 0.5)"/>
</clipPath>
<clipPath id="clip2_1_1390">
<rect width="55.8462" height="55" fill="white" transform="translate(0.126953 0.5)"/>
</clipPath>
</defs>
</svg>
