<svg width="31" height="31" viewBox="0 0 31 31" fill="none" xmlns="http://www.w3.org/2000/svg">
<g clip-path="url(#clip0_31_894)">
<g clip-path="url(#clip1_31_894)">
<g clip-path="url(#clip2_31_894)">
<path d="M27.7412 12.4813C27.7412 12.7487 27.9729 12.9658 28.2582 12.9658H29.2926C29.5779 12.9658 29.8095 12.7487 29.8095 12.4813V11.5127H27.7412V12.4813Z" fill="#00D280"/>
<path d="M25.1597 13.9343C25.4455 13.9343 25.6772 13.7172 25.6772 13.4503V11.5127H23.6084V13.4503C23.6084 13.7172 23.8401 13.9343 24.1258 13.9343H25.1597Z" fill="#00D280"/>
<mask id="mask0_31_894" style="mask-type:luminance" maskUnits="userSpaceOnUse" x="1" y="27" width="10" height="3">
<path d="M1.77539 27.9678H10.2123V29.916H1.77539V27.9678Z" fill="white"/>
</mask>
<g mask="url(#mask0_31_894)">
<path d="M7.57699 27.9756H4.47436V28.9442H1.88867V29.9127H10.1627V28.9442H7.57699V27.9756Z" fill="#00D280"/>
</g>
<mask id="mask1_31_894" style="mask-type:luminance" maskUnits="userSpaceOnUse" x="20" y="27" width="9" height="3">
<path d="M20.4492 27.9717H28.8861V29.9199H20.4492V27.9717Z" fill="white"/>
</mask>
<g mask="url(#mask1_31_894)">
<path d="M26.1805 27.9795H23.0779V28.9481H20.4922V29.9166H28.7662V28.9481H26.1805V27.9795Z" fill="#00D280"/>
</g>
<path d="M4.02148 11.9971C4.75359 13.485 6.13212 14.638 7.82327 15.1282C7.31574 14.3313 6.95463 13.2185 6.7503 11.9971H4.02148Z" fill="#00D280"/>
<path d="M7.78027 11.9971C8.15927 14.1412 8.99966 15.3873 9.64797 15.3873C10.2967 15.3873 11.1367 14.1412 11.5162 11.9971H7.78027Z" fill="#00D280"/>
<path d="M6.53915 9.57511C6.53915 9.09062 6.56552 8.60348 6.61213 8.12207H3.64085C3.51232 8.58759 3.43652 9.07297 3.43652 9.57511C3.43652 10.0773 3.51232 10.5627 3.64085 11.0282H6.61213C6.56552 10.5468 6.53915 10.0592 6.53915 9.57511Z" fill="#00D280"/>
<path d="M7.56934 9.57511C7.56934 10.0896 7.59618 10.5724 7.64137 11.0282H11.6348C11.6795 10.5724 11.7064 10.0896 11.7064 9.57511C11.7064 9.06017 11.6795 8.57789 11.6343 8.12207H7.6409C7.59618 8.57789 7.56934 9.06017 7.56934 9.57511Z" fill="#00D280"/>
<path d="M19.9873 8.6084H30.3296V10.5454H19.9873V8.6084Z" fill="#00D280"/>
<path d="M11.4902 15.1282C13.1809 14.6376 14.5595 13.485 15.292 11.9971H12.5632C12.3589 13.2185 11.9973 14.3313 11.4902 15.1282Z" fill="#00D280"/>
<path d="M7.82327 4.02637C6.13212 4.5166 4.75359 5.66959 4.02148 7.15749H6.7503C6.95463 5.93611 7.31574 4.82283 7.82327 4.02637Z" fill="#00D280"/>
<path d="M11.5162 7.15674C11.1367 5.0127 10.2967 3.7666 9.64797 3.7666C8.99966 3.7666 8.15927 5.0127 7.78027 7.15674H11.5162Z" fill="#00D280"/>
<mask id="mask2_31_894" style="mask-type:luminance" maskUnits="userSpaceOnUse" x="0" y="0" width="20" height="19">
<path d="M0.330078 0.858398H19.0112V18.3671H0.330078V0.858398Z" fill="white"/>
</mask>
<g mask="url(#mask2_31_894)">
<path d="M17.7056 7.83657C17.5008 7.00131 17.1482 6.2062 16.6581 5.47286L16.5042 5.2421L17.0639 4.19239L15.3973 2.63129L14.2764 3.15592L14.0301 3.01164C13.2477 2.55187 12.3984 2.22227 11.5062 2.03033L11.2237 1.96988L10.8278 0.858398H8.47053L8.07506 1.96944L7.79258 2.03033C6.9009 2.22227 6.05159 2.55231 5.26866 3.01164L5.02243 3.15592L3.90147 2.63129L2.23486 4.19239L2.7951 5.2421L2.64116 5.47242C2.15012 6.20576 1.79796 7.00087 1.59317 7.83613L1.52867 8.10131L0.341797 8.47195V10.6799L1.5282 11.0505L1.5927 11.3152C1.79749 12.1509 2.15012 12.9461 2.64021 13.6794L2.79463 13.9097L2.23439 14.9599L3.901 16.5205L5.02196 15.9963L5.26819 16.1406C6.05112 16.5999 6.90043 16.93 7.79211 17.1215L8.07506 17.1824L8.471 18.2934H10.8287L11.2242 17.1824L11.5072 17.1215C12.3988 16.93 13.2482 16.5995 14.0311 16.1406L14.2768 15.9963L15.3983 16.5205L17.0644 14.9599L16.5046 13.9097L16.6586 13.6794C17.1496 12.9461 17.5018 12.1509 17.7061 11.3152L17.7711 11.0505L18.957 10.6794V8.47151L17.7711 8.10131L17.7056 7.83657ZM9.6494 16.3559C5.65753 16.3559 2.41047 13.3145 2.41047 9.57593C2.41047 5.83688 5.65753 2.79543 9.6494 2.79543C13.6413 2.79543 16.8888 5.83688 16.8888 9.57593C16.8888 13.3145 13.6413 16.3559 9.6494 16.3559Z" fill="#00D280"/>
</g>
<path d="M12.7517 9.57511C12.7517 10.0592 12.7253 10.5468 12.6787 11.0282H15.65C15.779 10.5627 15.8543 10.0773 15.8543 9.57511C15.8543 9.07297 15.779 8.58759 15.65 8.12207H12.6787C12.7253 8.60348 12.7517 9.09062 12.7517 9.57511Z" fill="#00D280"/>
<path d="M11.4902 4.02637C11.9973 4.82283 12.3589 5.93611 12.5632 7.15749H15.292C14.5595 5.66959 13.1809 4.5166 11.4902 4.02637Z" fill="#00D280"/>
<path d="M1.35742 26.5265C1.35742 26.7931 1.58953 27.0106 1.87437 27.0106H10.1484C10.4332 27.0106 10.6653 26.7931 10.6653 26.5265V26.042H1.35742V26.5265Z" fill="#00D280"/>
<path d="M10.1484 21.2002H1.87437C1.58953 21.2002 1.35742 21.4178 1.35742 21.6847V25.0749H10.6653V21.6847C10.6653 21.4178 10.4332 21.2002 10.1484 21.2002Z" fill="#00D280"/>
<path d="M19.9873 26.5265C19.9873 26.7931 20.2194 27.0106 20.5043 27.0106H28.7783C29.0631 27.0106 29.2952 26.7931 29.2952 26.5265V26.042H19.9873V26.5265Z" fill="#00D280"/>
<path d="M28.7783 21.2002H20.5043C20.2194 21.2002 19.9873 21.4178 19.9873 21.6847V25.0749H29.2952V21.6847C29.2952 21.4178 29.0631 21.2002 28.7783 21.2002Z" fill="#00D280"/>
<path d="M13.7794 23.6215H12.7451V24.59H14.8138V18.7783H13.7794V23.6215Z" fill="#00D280"/>
<path d="M16.8889 18.7783H15.8545V24.59H17.9233V23.6215H16.8889V18.7783Z" fill="#00D280"/>
</g>
</g>
</g>
<defs>
<clipPath id="clip0_31_894">
<rect width="30" height="30" fill="white" transform="translate(0.330078 0.389648)"/>
</clipPath>
<clipPath id="clip1_31_894">
<rect width="30" height="30" fill="white" transform="translate(0.330078 0.389648)"/>
</clipPath>
<clipPath id="clip2_31_894">
<rect width="30" height="30" fill="white" transform="translate(0.330078 0.389648)"/>
</clipPath>
</defs>
</svg>
