<svg width="48" height="42" viewBox="0 0 48 42" fill="none" xmlns="http://www.w3.org/2000/svg">
<g clip-path="url(#clip0_31_730)">
<mask id="mask0_31_730" style="mask-type:luminance" maskUnits="userSpaceOnUse" x="2" y="0" width="44" height="42">
<path d="M2.5 0H45.5V41.5028H2.5V0Z" fill="white"/>
</mask>
<g mask="url(#mask0_31_730)">
<path fill-rule="evenodd" clip-rule="evenodd" d="M36.681 34.3075C35.4969 35.2887 33.9585 35.8817 32.2768 35.8817C28.5396 35.8817 25.5104 32.9541 25.5104 29.3424C25.5104 25.7306 28.5396 22.803 32.2768 22.803C36.014 22.803 39.0433 25.7306 39.0433 29.3424C39.0433 30.7343 38.5934 32.0237 37.8271 33.0838L39.942 35.0819L40.019 35.0058C40.2536 34.7718 40.646 34.7661 40.8885 34.9926L44.6052 38.4784C44.8477 38.7049 44.8535 39.0827 44.6169 39.3186L43.2751 40.6541C43.0404 40.8882 42.65 40.8938 42.4056 40.6673L38.6908 37.1815C38.4464 36.955 38.4415 36.5753 38.6781 36.3413L38.7531 36.2661L36.681 34.3075ZM32.2768 24.6855C29.6156 24.6855 27.4578 26.7701 27.4578 29.3424C27.4578 31.9147 29.6156 33.9992 32.2768 33.9992C34.938 33.9992 37.0958 31.9147 37.0958 29.3424C37.0958 26.7701 34.938 24.6855 32.2768 24.6855ZM34.4327 10.9622H31.4891C31.2495 10.9622 31.0558 10.7742 31.0558 10.543V7.69907L34.4327 10.9622ZM4.91205 14.7252C4.27133 16.6227 3.92371 18.6481 3.92371 20.7514C3.92371 31.4654 12.9249 40.1645 24.0108 40.1645C27.1316 40.1645 30.0869 39.4756 32.7228 38.2454C33.0675 38.0846 33.4813 38.2247 33.6478 38.5574C33.8143 38.8901 33.6693 39.2904 33.3255 39.4512C30.5075 40.766 27.3478 41.5028 24.0108 41.5028C12.1605 41.5028 2.53906 32.2051 2.53906 20.7514C2.53906 18.3595 2.95874 16.0607 3.73091 13.9217L3.69878 13.9442C3.38621 14.1576 2.95387 14.0852 2.73283 13.7835C2.51277 13.4818 2.58678 13.0636 2.89934 12.8503L4.88576 11.4941C5.08829 11.3569 5.3512 11.3334 5.57613 11.433C5.80009 11.5336 5.95296 11.7422 5.97536 11.98L6.19737 14.3211C6.23243 14.6886 5.95102 15.0147 5.57029 15.0485C5.29667 15.073 5.04447 14.9395 4.91205 14.7252ZM43.1057 26.7889C43.7503 24.8885 44.0979 22.8594 44.0979 20.7514C44.0979 10.0374 35.0977 1.33925 24.0108 1.33925C20.89 1.33925 17.9347 2.02815 15.2988 3.25744C14.9551 3.41815 14.5403 3.27812 14.3738 2.94542C14.2083 2.61272 14.3524 2.21235 14.6971 2.05164C17.5151 0.737765 20.6748 0 24.0108 0C35.8621 0 45.4835 9.29866 45.4835 20.7514C45.4835 23.1386 45.0658 25.4317 44.2966 27.5661L44.316 27.5529C44.6276 27.3387 45.06 27.4091 45.282 27.7099C45.504 28.0106 45.431 28.4289 45.1194 28.6431L43.1388 30.0078C42.9372 30.1459 42.6743 30.1704 42.4494 30.0707C42.2235 29.9721 42.0706 29.7643 42.0472 29.5256L41.8155 27.1855C41.7785 26.818 42.0579 26.4909 42.4387 26.4562C42.7181 26.4298 42.9752 26.568 43.1057 26.7889ZM25.5581 33.8047H14.0223C13.9083 33.8047 13.7973 33.7605 13.7165 33.6816C13.6357 33.6035 13.5899 33.4973 13.5899 33.3864V8.11729C13.5899 8.00639 13.6357 7.90019 13.7165 7.82125C13.7973 7.74324 13.9083 7.69907 14.0223 7.69907H29.6711V10.9622C29.6711 11.7009 30.2904 12.3005 31.0558 12.3005H34.4327V21.7429C33.7462 21.5615 33.0227 21.4647 32.2768 21.4647C27.7743 21.4647 24.1257 24.991 24.1257 29.3424C24.1257 30.9993 24.6544 32.5359 25.5581 33.8047ZM17.8432 16.4479H30.1813C30.5631 16.4479 30.8737 16.1472 30.8737 15.7778C30.8737 15.4085 30.5631 15.1087 30.1813 15.1087H17.8432C17.4615 15.1087 17.1509 15.4085 17.1509 15.7778C17.1509 16.1472 17.4615 16.4479 17.8432 16.4479ZM17.8432 23.4722H25.228C25.6097 23.4722 25.9203 23.1724 25.9203 22.803C25.9203 22.4337 25.6097 22.1339 25.228 22.1339H17.8432C17.4615 22.1339 17.1509 22.4337 17.1509 22.803C17.1509 23.1724 17.4615 23.4722 17.8432 23.4722ZM17.8432 12.9339H26.6983C27.081 12.9339 27.3906 12.6341 27.3906 12.2638C27.3906 11.8945 27.081 11.5947 26.6983 11.5947H17.8432C17.4615 11.5947 17.1509 11.8945 17.1509 12.2638C17.1509 12.6341 17.4615 12.9339 17.8432 12.9339ZM17.8432 30.5002H22.4353C22.817 30.5002 23.1276 30.2004 23.1276 29.8311C23.1276 29.4617 22.817 29.1619 22.4353 29.1619H17.8432C17.4615 29.1619 17.1509 29.4617 17.1509 29.8311C17.1509 30.2004 17.4615 30.5002 17.8432 30.5002ZM17.8432 26.9862H23.1452C23.5278 26.9862 23.8375 26.6864 23.8375 26.3171C23.8375 25.9477 23.5278 25.6479 23.1452 25.6479H17.8432C17.4615 25.6479 17.1509 25.9477 17.1509 26.3171C17.1509 26.6864 17.4615 26.9862 17.8432 26.9862ZM17.8432 19.9591H30.1813C30.5631 19.9591 30.8737 19.6584 30.8737 19.289C30.8737 18.9197 30.5631 18.6199 30.1813 18.6199H17.8432C17.4615 18.6199 17.1509 18.9197 17.1509 19.289C17.1509 19.6584 17.4615 19.9591 17.8432 19.9591Z" fill="#00D280"/>
</g>
</g>
<defs>
<clipPath id="clip0_31_730">
<rect width="43" height="42" fill="white" transform="translate(2.5)"/>
</clipPath>
</defs>
</svg>
