<svg width="31" height="30" viewBox="0 0 31 30" fill="none" xmlns="http://www.w3.org/2000/svg">
<g clip-path="url(#clip0_31_839)">
<g clip-path="url(#clip1_31_839)">
<path fill-rule="evenodd" clip-rule="evenodd" d="M17.7279 2.20342C23.2441 3.07942 27.6006 7.43562 28.4766 12.9514L25.7687 13.3851C25.0782 9.03608 21.6436 5.60185 17.2946 4.91103L17.7279 2.20342ZM20.0626 19.9142H11.2964C10.8834 19.9142 10.5857 19.5262 10.6927 19.1272C11.2841 16.9268 13.2925 15.3067 15.6797 15.3067C18.0669 15.3067 20.0753 16.9268 20.6663 19.1272C20.7737 19.5266 20.476 19.9142 20.0626 19.9142ZM15.6797 9.46075C14.2376 9.46075 13.069 10.6293 13.069 12.071C13.069 13.5131 14.2376 14.6817 15.6797 14.6817C17.1214 14.6817 18.2904 13.5127 18.2904 12.071C18.2904 10.6293 17.1214 9.46075 15.6797 9.46075ZM8.58334 14.8767L1.04174 13.6697C0.831598 13.6361 0.679688 13.8046 0.679688 13.9782V16.0217C0.679688 16.1954 0.831598 16.3639 1.04174 16.3303L8.58334 15.1233C8.72295 15.1013 8.72295 14.8987 8.58334 14.8767ZM15.5564 22.0963L14.3494 29.6379C14.3158 29.8481 14.4843 30 14.6579 30H16.7014C16.8751 30 17.0436 29.8481 17.01 29.6379L15.803 22.0963C15.7809 21.9567 15.5784 21.9567 15.5564 22.0963ZM22.776 15.1233L30.318 16.3303C30.5278 16.3639 30.6797 16.1954 30.6797 16.0217V13.9782C30.6797 13.8046 30.5278 13.6361 30.318 13.6697L22.776 14.8767C22.6364 14.8987 22.6364 15.1013 22.776 15.1233ZM15.803 7.90365L17.01 0.362052C17.0436 0.15191 16.8751 0 16.7014 0H14.6579C14.4843 0 14.3158 0.15191 14.3494 0.362052L15.5564 7.90365C15.5784 8.04326 15.7809 8.04326 15.803 7.90365ZM25.7687 16.6149C25.0779 20.9639 21.6436 24.3982 17.2946 25.089L17.7283 27.7969C23.2441 26.9209 27.6003 22.5644 28.4763 17.0482L25.7687 16.6149ZM14.0648 25.089C9.71577 24.3982 6.28154 20.9639 5.59071 16.6149L2.88274 17.0486C3.75875 22.5644 8.1153 26.9206 13.6314 27.7966L14.0648 25.089ZM5.59071 13.3851L2.88274 12.9514C3.75875 7.43562 8.1153 3.07942 13.6314 2.20342L14.0648 4.91103C9.71577 5.60185 6.28118 9.03608 5.59071 13.3851Z" fill="#00D280"/>
</g>
</g>
<defs>
<clipPath id="clip0_31_839">
<rect width="30" height="30" fill="white" transform="translate(0.679688)"/>
</clipPath>
<clipPath id="clip1_31_839">
<rect width="30" height="30" fill="white" transform="translate(0.679688)"/>
</clipPath>
</defs>
</svg>
