<svg width="31" height="26" viewBox="0 0 31 26" fill="none" xmlns="http://www.w3.org/2000/svg">
<g clip-path="url(#clip0_31_862)">
<g clip-path="url(#clip1_31_862)">
<g clip-path="url(#clip2_31_862)">
<mask id="mask0_31_862" style="mask-type:luminance" maskUnits="userSpaceOnUse" x="19" y="9" width="12" height="17">
<path d="M19.5264 9.66992H30.3492V25.0771H19.5264V9.66992Z" fill="white"/>
</mask>
<g mask="url(#mask0_31_862)">
<path d="M27.9846 9.70239H21.8967C21.2879 9.70239 20.7331 9.92181 20.3166 10.2799C20.909 11.0213 21.2953 11.9187 21.4005 12.9063C21.4026 12.9351 21.4073 12.9638 21.41 12.9945H23.7701C24.6737 12.9945 25.4088 13.6834 25.4088 14.5304V16.1212C26.2168 16.3188 26.814 17.0058 26.814 17.822C26.814 18.7898 25.9732 19.5778 24.9407 19.5778C23.908 19.5778 23.0677 18.7898 23.0677 17.822C23.0677 17.0058 23.6649 16.3188 24.4724 16.1212V14.5304C24.4724 14.1683 24.1564 13.8721 23.7701 13.8721H21.41C21.4073 13.9028 21.4026 13.9336 21.4005 13.9642C21.2552 15.3248 20.5713 16.5184 19.5557 17.3658V22.8694C19.5557 24.0784 20.6067 25.064 21.8967 25.064H27.9846C29.275 25.064 30.3262 24.0784 30.3262 22.8694V11.897C30.3262 10.688 29.275 9.70239 27.9846 9.70239ZM27.7504 23.3082H22.1308C21.8735 23.3082 21.6626 23.1106 21.6626 22.8694C21.6626 22.6282 21.8735 22.4306 22.1308 22.4306H27.7504C28.0083 22.4306 28.2187 22.6282 28.2187 22.8694C28.2187 23.1106 28.0083 23.3082 27.7504 23.3082ZM24.0042 17.822C24.0042 18.3069 24.4232 18.7001 24.9407 18.7001C25.4585 18.7001 25.8776 18.3069 25.8776 17.822C25.8776 17.3371 25.4585 16.9444 24.9407 16.9444C24.4232 16.9444 24.0042 17.3371 24.0042 17.822Z" fill="#00D280"/>
</g>
<mask id="mask1_31_862" style="mask-type:luminance" maskUnits="userSpaceOnUse" x="0" y="0" width="31" height="20">
<path d="M0.349609 0.923096H30.3496V19.8131H0.349609V0.923096Z" fill="white"/>
</mask>
<g mask="url(#mask1_31_862)">
<path d="M17.9235 19.7958H4.34318C2.14796 19.7958 0.362305 18.1223 0.362305 16.0653V4.65404C0.362305 2.59665 2.14796 0.923096 4.34318 0.923096H26.3529C28.5476 0.923096 30.3333 2.59665 30.3333 4.65404V8.3845C30.3333 8.62669 30.1239 8.82332 29.865 8.82332C29.6061 8.82332 29.3968 8.62669 29.3968 8.3845V4.65404C29.3968 3.08104 28.0313 1.80123 26.3529 1.80123H4.34318C2.66479 1.80123 1.29926 3.08104 1.29926 4.65404V16.0653C1.29926 17.6383 2.66479 18.9182 4.34318 18.9182H17.9235C18.1825 18.9182 18.3917 19.1148 18.3917 19.3569C18.3917 19.5992 18.1825 19.7958 17.9235 19.7958Z" fill="#00D280"/>
</g>
<mask id="mask2_31_862" style="mask-type:luminance" maskUnits="userSpaceOnUse" x="9" y="20" width="11" height="6">
<path d="M9.93945 20.4446H19.0041V25.0747H9.93945V20.4446Z" fill="white"/>
</mask>
<g mask="url(#mask2_31_862)">
<path d="M18.4759 25.0614H11.7789C11.1659 25.0614 10.5972 24.7756 10.2579 24.2976C9.91919 23.8206 9.85785 23.2194 10.0941 22.6909L10.9698 20.723C11.0692 20.4991 11.3434 20.3931 11.5823 20.4867C11.8212 20.5799 11.9338 20.8369 11.8344 21.0608L10.9587 23.0291C10.8414 23.2912 10.8704 23.5759 11.0379 23.8117C11.2055 24.048 11.4755 24.1837 11.7789 24.1837H18.4759C18.7349 24.1837 18.9441 24.3804 18.9441 24.6225C18.9441 24.8648 18.7349 25.0614 18.4759 25.0614Z" fill="#00D280"/>
</g>
<path d="M20.474 12.9938C20.2372 10.7768 18.2374 9.04321 15.8138 9.04321C13.3901 9.04321 11.3909 10.7768 11.1541 12.9938C11.1377 13.1384 11.1309 13.283 11.1309 13.4326C11.1309 13.5817 11.1377 13.7263 11.1541 13.8715C11.3909 16.088 13.3901 17.8215 15.8138 17.8215C18.2374 17.8215 20.2372 16.088 20.474 13.8715C20.4904 13.7263 20.4973 13.5817 20.4973 13.4326C20.4973 13.283 20.4904 13.1384 20.474 12.9938ZM18.2517 12.6445L15.5585 15.1681C15.4676 15.2539 15.3482 15.298 15.2288 15.298C15.1093 15.298 14.9899 15.2539 14.8984 15.1681L13.6105 13.9611C13.4255 13.7902 13.4255 13.5138 13.6105 13.3425C13.7934 13.1691 14.0883 13.1691 14.2706 13.3425L15.2288 14.238L17.5911 12.026C17.7739 11.8525 18.0689 11.8525 18.2517 12.026C18.4367 12.1968 18.4367 12.4732 18.2517 12.6445Z" fill="#00D280"/>
<path d="M11.1343 13.4314C11.1343 13.5805 11.1412 13.7252 11.1575 13.8703H7.85635C6.95217 13.8703 6.21711 13.1813 6.21711 12.3339V10.7431C5.40964 10.5455 4.8125 9.85858 4.8125 9.04233C4.8125 8.07459 5.65272 7.28711 6.68532 7.28711C7.7179 7.28711 8.55866 8.07459 8.55866 9.04233C8.55866 9.85858 7.96151 10.5455 7.15352 10.7431V12.3339C7.15352 12.6959 7.47006 12.9926 7.85635 12.9926H11.1575C11.1412 13.1373 11.1343 13.2818 11.1343 13.4314Z" fill="#00D280"/>
</g>
</g>
</g>
<defs>
<clipPath id="clip0_31_862">
<rect width="30" height="25" fill="white" transform="translate(0.349609 0.5)"/>
</clipPath>
<clipPath id="clip1_31_862">
<rect width="30" height="25" fill="white" transform="translate(0.349609 0.5)"/>
</clipPath>
<clipPath id="clip2_31_862">
<rect width="30" height="25" fill="white" transform="translate(0.349609 0.5)"/>
</clipPath>
</defs>
</svg>
