<svg width="30" height="32" viewBox="0 0 30 32" fill="none" xmlns="http://www.w3.org/2000/svg">
<g clip-path="url(#clip0_31_846)">
<g clip-path="url(#clip1_31_846)">
<g clip-path="url(#clip2_31_846)">
<mask id="mask0_31_846" style="mask-type:luminance" maskUnits="userSpaceOnUse" x="0" y="0" width="28" height="32">
<path d="M0 0.753906H27.6654V31.2445H0V0.753906Z" fill="white"/>
</mask>
<g mask="url(#mask0_31_846)">
<path d="M19.5762 24.5181C18.9939 24.5181 18.4259 24.3965 17.8879 24.1563C17.5693 24.0133 17.2701 23.8331 16.992 23.6163C16.0213 24.11 14.9408 24.3855 13.8011 24.3855C9.58966 24.3855 6.17498 20.6184 6.17498 15.9716C6.17498 11.3255 9.58966 7.55836 13.8011 7.55836C17.7264 7.55836 20.9578 10.8284 21.3805 15.0339C21.8905 15.2811 22.3506 15.6277 22.749 16.0669C23.3575 16.7387 23.7765 17.5831 23.9598 18.5069C24.1056 19.2423 24.0969 20.0018 23.9386 20.7281L24.3145 21.1424L26.9985 21.1921C27.3196 19.872 27.2759 20.0508 27.5964 18.7313L24.9679 17.1198C24.9679 16.0897 24.9679 15.8542 24.9679 14.824L27.5964 13.2125C27.2759 11.8924 27.3196 12.0719 26.9985 10.7517L23.9922 10.807C23.5252 9.91489 23.418 9.71052 22.951 8.81776L24.4978 5.97376C23.6218 5.00781 23.7409 5.13831 22.865 4.17236L20.2857 5.87848C19.4777 5.3634 19.2925 5.24533 18.4833 4.73025L18.5332 1.41329C17.3361 1.05909 17.4989 1.10742 16.3024 0.753906L14.8423 3.65383C13.9084 3.65383 13.6945 3.65383 12.7606 3.65383L11.3004 0.753906C10.104 1.10742 10.2661 1.05909 9.0697 1.41329L9.11958 4.73025C8.31095 5.24533 8.12578 5.3634 7.31653 5.87848L4.73791 4.17236C3.86195 5.13831 3.98041 5.00781 3.10507 5.97376L4.65125 8.81845C4.18428 9.71052 4.07767 9.91489 3.6107 10.8077L0.603756 10.7524C0.282675 12.0726 0.326941 11.8937 0.00585938 13.2139L2.63498 14.8247C2.63498 15.8549 2.63498 16.091 2.63498 17.1212L0.00585938 18.732C0.326941 20.0522 0.282675 19.8727 0.603756 21.1928L3.6107 21.1383C4.07767 22.0297 4.18428 22.234 4.65125 23.1268L3.10507 25.9722C3.98041 26.9381 3.86195 26.8069 4.73791 27.7736L7.31653 26.0668C8.12516 26.5818 8.31033 26.6999 9.11958 27.215L9.0697 30.5326C10.2661 30.8862 10.104 30.8378 11.3004 31.192L12.7606 28.2921C13.6945 28.2921 13.9084 28.2921 14.8423 28.2921L16.3024 31.192C17.4989 30.8378 17.3361 30.8862 18.5332 30.5326L18.4833 27.215C19.2919 26.6999 19.4765 26.5818 20.2857 26.0668L22.865 27.7736C23.0389 27.5809 23.1736 27.4332 23.2846 27.3103L20.6292 24.3814C20.2851 24.4725 19.9328 24.5181 19.5762 24.5181Z" fill="#00D280"/>
</g>
<path d="M29.52 27.9789L23.1495 20.9514C23.6158 19.4835 23.3172 17.7864 22.2542 16.614C21.1245 15.3677 19.4605 15.0742 18.0776 15.7309L20.5004 18.4036L18.5215 20.5862L16.0994 17.9141C15.504 19.4386 15.7708 21.2752 16.8993 22.5208C17.9629 23.6939 19.501 24.0233 20.8308 23.5089L27.2013 30.537C27.8416 31.2434 28.8797 31.2434 29.52 30.537C30.1603 29.8307 30.1603 28.6852 29.52 27.9789Z" fill="#00D280"/>
<path d="M9.053 19.3663V14.29H10.0998V12.8311H9.053V11.4219H8.28116V12.8311H7.23438V14.29H8.28116V19.3663H9.053Z" fill="#00D280"/>
<path d="M11.6819 19.3663V18.169H12.7287V16.7101H11.6819V11.4219H10.9107V16.7101H9.86328V18.169H10.9107V19.3663H11.6819Z" fill="#00D280"/>
<path d="M14.3225 19.3663V15.2629H15.3687V13.8033H14.3225V11.4219H13.5513V13.8033H12.5039V15.2629H13.5513V19.3663H14.3225Z" fill="#00D280"/>
</g>
</g>
</g>
<defs>
<clipPath id="clip0_31_846">
<rect width="30" height="32" fill="white"/>
</clipPath>
<clipPath id="clip1_31_846">
<rect width="30" height="32" fill="white"/>
</clipPath>
<clipPath id="clip2_31_846">
<rect width="30" height="32" fill="white"/>
</clipPath>
</defs>
</svg>
