<svg width="44" height="42" viewBox="0 0 44 42" fill="none" xmlns="http://www.w3.org/2000/svg">
<g clip-path="url(#clip0_31_694)">
<path d="M9.29694 8.46728C9.29694 7.75569 8.69434 7.17407 7.95708 7.17407H4.60744C3.87017 7.17407 3.26758 7.75569 3.26758 8.46728V11.7003C3.26758 12.4119 3.87017 12.9935 4.60744 12.9935H7.95708C8.69434 12.9935 9.29694 12.4119 9.29694 11.7003V8.46728Z" fill="#00D280"/>
<path d="M16.6641 8.46728C16.6641 7.75569 16.0615 7.17407 15.3243 7.17407H11.9746C11.2374 7.17407 10.6348 7.75569 10.6348 8.46728V11.7003C10.6348 12.4119 11.2374 12.9935 11.9746 12.9935H15.3243C16.0615 12.9935 16.6641 12.4119 16.6641 11.7003V8.46728ZM11.9746 11.7003V8.46728H15.3243V11.7003H11.9746Z" fill="#00D280"/>
<path d="M9.29694 15.5815C9.29694 14.8699 8.69434 14.2883 7.95708 14.2883H4.60744C3.87017 14.2883 3.26758 14.8699 3.26758 15.5815V18.8145C3.26758 19.5261 3.87017 20.1077 4.60744 20.1077H7.95708C8.69434 20.1077 9.29694 19.5261 9.29694 18.8145V15.5815ZM4.60744 18.8145V15.5815H7.95708V18.8145H4.60744Z" fill="#00D280"/>
<path d="M16.6641 15.5815C16.6641 14.8699 16.0615 14.2883 15.3243 14.2883H11.9746C11.2374 14.2883 10.6348 14.8699 10.6348 15.5815V18.8145C10.6348 19.5261 11.2374 20.1077 11.9746 20.1077H15.3243C16.0615 20.1077 16.6641 19.5261 16.6641 18.8145V15.5815Z" fill="#00D280"/>
<path d="M40.3222 4.56805C40.4557 4.24421 40.4557 3.92145 40.3222 3.59761L39.0827 0.817324C38.948 0.526518 38.6799 0.267658 38.3786 0.137675C38.0442 0.00879578 37.7087 0.00879578 37.3743 0.137675L34.4925 1.367C34.1913 1.49587 33.923 1.75473 33.7895 2.04553C33.6548 2.36939 33.6548 2.69214 33.7895 3.01599L35.029 5.79628C35.1625 6.08818 35.4306 6.34594 35.732 6.47592C35.8997 6.54091 36.0332 6.57286 36.2011 6.57286C36.3688 6.57286 36.5366 6.54091 36.7032 6.47592L39.5849 5.27965C39.9536 5.11773 40.1875 4.85887 40.3222 4.56805Z" fill="#00D280"/>
<path d="M37.816 13.8781C38.3855 13.4254 38.4528 12.5849 37.9507 12.0672L35.7731 9.60962C35.538 9.35079 35.2036 9.18997 34.8681 9.15692C34.4995 9.12498 34.1651 9.25385 33.8969 9.48078L31.3507 11.5825C30.7812 12.0352 30.7138 12.8757 31.216 13.3934L33.3935 15.8509C33.6286 16.1087 33.9631 16.2706 34.2986 16.3026C34.3318 16.3026 34.3659 16.3026 34.3991 16.3026C34.7346 16.3026 35.0358 16.2056 35.2699 15.9799L37.816 13.8781ZM34.3991 15.0094L32.2214 12.5518L34.7677 10.4501L36.9452 12.9077L34.3991 15.0094Z" fill="#00D280"/>
<path d="M27.0625 8.28301L30.1451 9.54316C30.815 9.80204 31.6196 9.51122 31.8866 8.86461L33.1934 5.88936C33.4947 5.24276 33.1603 4.46728 32.4904 4.20842L29.3747 2.91522C28.7048 2.6244 27.9002 2.94716 27.6331 3.59375L26.3263 6.56902C26.2259 6.79482 26.2259 7.02175 26.259 7.24755C26.3263 7.70029 26.6277 8.08913 27.0625 8.28301Z" fill="#00D280"/>
<path d="M33.5538 19.2791C33.2857 19.0202 32.9512 18.8914 32.6157 18.8914C32.2813 18.8914 31.9127 19.0202 31.6776 19.2791L29.2991 21.5747C29.031 21.8336 28.8975 22.1574 28.8975 22.4802C28.8975 22.836 29.031 23.1598 29.2991 23.3856L31.6776 25.6812C31.9458 25.9401 32.2813 26.069 32.6157 26.069C32.9512 26.069 33.3199 25.9401 33.5538 25.6812L35.9323 23.3856C36.2005 23.1268 36.3352 22.804 36.3352 22.4802C36.3352 22.1244 36.2005 21.8017 35.9323 21.5747L33.5538 19.2791Z" fill="#00D280"/>
<mask id="mask0_31_694" style="mask-type:luminance" maskUnits="userSpaceOnUse" x="35" y="14" width="9" height="9">
<path d="M35.8428 14.9502H43.4779V22.2821H35.8428V14.9502Z" fill="white"/>
</mask>
<g mask="url(#mask0_31_694)">
<path d="M40.7281 15.3342C40.2248 14.8495 39.354 14.8495 38.8518 15.3342L36.5065 17.5979C36.0043 18.0825 36.0043 18.923 36.5065 19.4077L38.8518 21.6713C39.1201 21.9302 39.4213 22.0602 39.79 22.0602C40.1586 22.0602 40.493 21.9302 40.7281 21.6713L43.0723 19.4077C43.3405 19.1499 43.4752 18.858 43.4752 18.5033C43.4752 18.1475 43.3405 17.8236 43.0723 17.5979L40.7281 15.3342Z" fill="#00D280"/>
</g>
<path d="M33.6224 28.1685C33.4878 28.4924 33.4878 28.8481 33.6224 29.171L34.9623 32.1462C35.0959 32.4701 35.3641 32.6958 35.6996 32.8248C35.8673 32.8897 36.034 32.9228 36.2018 32.9228C36.3695 32.9228 36.5704 32.8897 36.7382 32.8248L39.8196 31.5316C40.1551 31.4027 40.3891 31.1438 40.5238 30.8199C40.6573 30.4972 40.6573 30.1414 40.5238 29.8186L39.1839 26.8434C39.0492 26.5195 38.7811 26.2937 38.4466 26.1648C38.1111 26.0349 37.7424 26.0349 37.4081 26.1648L34.3255 27.458C34.0242 27.5869 33.756 27.8458 33.6224 28.1685ZM37.9445 27.3611L39.2843 30.3352L36.2018 31.6284L34.8619 28.6543L37.9445 27.3611Z" fill="#00D280"/>
<path d="M9.29694 22.7026C9.29694 21.991 8.69434 21.4082 7.95708 21.4082H4.60744C3.87017 21.4082 3.26758 21.991 3.26758 22.7026V25.9355C3.26758 26.6471 3.87017 27.2287 4.60744 27.2287H7.95708C8.69434 27.2287 9.29694 26.6471 9.29694 25.9355V22.7026Z" fill="#00D280"/>
<path d="M16.6641 22.7026C16.6641 21.991 16.0615 21.4082 15.3243 21.4082H11.9746C11.2374 21.4082 10.6348 21.991 10.6348 22.7026V25.9355C10.6348 26.6471 11.2374 27.2287 11.9746 27.2287H15.3243C16.0615 27.2287 16.6641 26.6471 16.6641 25.9355V22.7026ZM11.9746 25.9355V22.7026H15.3243V25.9355H11.9746Z" fill="#00D280"/>
<path d="M7.95708 28.5283H4.60744C3.87017 28.5283 3.26758 29.1111 3.26758 29.8227V33.0556C3.26758 33.7672 3.87017 34.3489 4.60744 34.3489H7.95708C8.69434 34.3489 9.29694 33.7672 9.29694 33.0556V29.8227C9.29694 29.1111 8.69434 28.5283 7.95708 28.5283ZM4.60744 33.0556V29.8227H7.95708V33.0556H4.60744Z" fill="#00D280"/>
<path d="M15.3243 28.5283H11.9746C11.2374 28.5283 10.6348 29.1111 10.6348 29.8227V33.0556C10.6348 33.7672 11.2374 34.3489 11.9746 34.3489H15.3243C16.0615 34.3489 16.6641 33.7672 16.6641 33.0556V29.8227C16.6641 29.1111 16.0615 28.5283 15.3243 28.5283Z" fill="#00D280"/>
<path d="M17.9883 33.0556C17.9883 33.7672 18.5909 34.3489 19.3281 34.3489H22.6778C23.4151 34.3489 23.9845 33.7992 24.0177 33.1206L23.1468 32.7649C22.979 32.6999 22.8456 32.6029 22.7109 32.5379V33.0876H19.3281V29.8227H21.5388C21.5718 29.6607 21.6061 29.4988 21.6723 29.3699L22.0409 28.5283H19.3281C18.5909 28.5283 17.9883 29.1111 17.9883 29.8227V33.0556Z" fill="#00D280"/>
<path d="M17.9883 25.9375C17.9883 26.6491 18.5909 27.2307 19.3281 27.2307H22.6105L22.979 26.3902C23.18 25.9055 23.5486 25.4847 23.9845 25.2259V22.7044C23.9845 21.9928 23.3819 21.4102 22.6446 21.4102H19.3281C18.5909 21.4102 17.9883 21.9928 17.9883 22.7044V25.9375Z" fill="#00D280"/>
<path d="M23.0748 13.5175L21.7692 16.4928C21.4668 17.1394 21.8023 17.9149 22.4722 18.1738L25.5548 19.435C26.2247 19.6939 27.0282 19.402 27.2964 18.7554L28.6031 15.7812C28.9045 15.1346 28.5689 14.358 27.899 14.0991L24.8175 12.839C24.1807 12.5471 23.343 12.9029 23.0748 13.5175ZM26.0901 18.2706L23.0086 17.0094L24.3143 14.0352L27.3968 15.2965L26.0901 18.2706Z" fill="#00D280"/>
<path d="M28.509 32.1121L29.8158 29.1369C30.117 28.4903 29.7815 27.7136 29.1116 27.4559L26.0301 26.1947C25.6946 26.0647 25.326 26.0647 24.9916 26.1947C24.6561 26.3235 24.3878 26.5824 24.2543 26.9063C24.2543 26.9063 22.8802 30.0742 22.8802 30.2042C22.814 30.7208 23.048 31.2386 23.484 31.4975C23.5501 31.5294 26.7663 32.8557 26.7663 32.8557C27.4031 33.0814 28.2077 32.7587 28.509 32.1121Z" fill="#00D280"/>
<mask id="mask1_31_694" style="mask-type:luminance" maskUnits="userSpaceOnUse" x="0" y="0" width="27" height="42">
<path d="M0.523438 0H26.7818V41.4566H0.523438V0Z" fill="white"/>
</mask>
<g mask="url(#mask1_31_694)">
<path d="M4.58551 41.455H22.6774C24.8882 41.455 26.6985 39.709 26.6985 37.5751V34.1469C26.5307 34.1149 26.3629 34.0499 26.2293 34.018L25.3574 33.6621V35.0205C25.3574 36.4426 24.1521 37.6071 22.6774 37.6071H4.58551C3.11086 37.6071 1.90556 36.4426 1.90556 35.0205V3.94342C1.90556 2.52122 3.11086 1.35679 4.58551 1.35679H8.63966L9.30965 2.13234C10.3483 3.26482 11.8218 3.94342 13.2965 3.94342C14.7711 3.94342 16.2446 3.26482 17.2833 2.13234L17.9532 1.35679H22.6774C24.1521 1.35679 25.3574 2.52122 25.3574 3.94342V5.49562L26.396 3.10288C26.4303 3.00593 26.4633 2.94094 26.5307 2.87704C26.0285 1.2268 24.4864 0.0634766 22.6774 0.0634766H4.58551C2.37353 0.0634766 0.564453 1.80956 0.564453 3.94342V37.5751C0.564453 39.709 2.37353 41.455 4.58551 41.455ZM4.58551 38.8684H22.6774C23.683 38.8684 24.6211 38.5127 25.3242 37.8979C25.1564 39.1912 24.0174 40.1617 22.6774 40.1617H4.58551C3.21129 40.1617 2.10645 39.1593 1.93867 37.8979C2.64176 38.5127 3.57996 38.8684 4.58551 38.8684ZM16.1773 1.35679C15.4069 2.19734 14.3683 2.65011 13.2965 2.65011C12.2247 2.65011 11.2191 2.19734 10.4145 1.35679H16.1773Z" fill="#00D280"/>
</g>
<path d="M17.9883 18.8145C17.9883 19.5261 18.5909 20.1077 19.3281 20.1077H22.6778C22.9129 20.1077 23.1468 20.0439 23.3477 19.9469L21.9747 19.3961C21.6392 19.2672 21.3379 19.0734 21.1028 18.8145H19.3281V15.5815H20.7353L21.3049 14.2883H19.3281C18.5909 14.2883 17.9883 14.8699 17.9883 15.5815V18.8145Z" fill="#00D280"/>
<path d="M22.6778 7.17407H19.3281C18.5909 7.17407 17.9883 7.75569 17.9883 8.46728V11.7003C17.9883 12.4119 18.5909 12.9935 19.3281 12.9935H21.8401C22.2087 12.1211 23.0464 11.5383 24.0177 11.4414V8.46728C24.0177 7.75569 23.4151 7.17407 22.6778 7.17407Z" fill="#00D280"/>
<path d="M25.3555 8.5293V11.6334L26.6965 12.1842V9.53169L26.5287 9.43476C26.0596 9.24089 25.658 8.91814 25.3555 8.5293Z" fill="#00D280"/>
<path d="M25.3555 24.808C25.3897 24.808 25.4229 24.808 25.456 24.808C25.8245 24.808 26.1601 24.8718 26.4945 25.0018L26.6965 25.0658V20.7654C26.4945 20.7984 26.2936 20.8304 26.0928 20.8304C25.8245 20.8304 25.5906 20.7984 25.3555 20.7334V24.808Z" fill="#00D280"/>
</g>
<defs>
<clipPath id="clip0_31_694">
<rect width="43.9091" height="42" fill="white" transform="translate(0.0458984)"/>
</clipPath>
</defs>
</svg>
