<svg width="44" height="42" viewBox="0 0 44 42" fill="none" xmlns="http://www.w3.org/2000/svg">
<path d="M2.96346 25.4322H39.7854C40.001 24.1387 40.3519 21.8493 40.3519 20.9933C40.3519 20.1364 40.001 17.8478 39.7854 16.5544H2.96346L2.42839 20.9933L2.96346 25.4322ZM40.8642 26.7606H1.82645L1.13086 20.9933L1.82645 15.2251H40.8642L40.9602 15.7715C40.9877 15.9308 41.6393 19.673 41.6393 20.9933C41.6393 22.3136 40.9877 26.0558 40.9602 26.2143L40.8642 26.7606Z" fill="#00D280"/>
<path d="M17.6303 18.4314L16.1903 24.0341H14.7904L14.031 20.9437L13.3134 24.0341H11.8545L10.4121 18.4314H11.9795L12.7397 21.656L13.4803 18.4314H14.788L15.5946 21.6624L16.3547 18.4314H17.6303Z" fill="#00D280"/>
<path d="M24.9614 18.4314L23.5213 24.0341H22.1214L21.3621 20.9437L20.6453 24.0341H19.1855L17.7432 18.4314H19.3114L20.0708 21.656L20.8112 18.4314H22.1198L22.9257 21.6624L23.6858 18.4314H24.9614Z" fill="#00D280"/>
<path d="M32.2963 18.4314L30.8563 24.0341H29.4564L28.697 20.9437L27.9801 24.0341H26.5205L25.0781 18.4314H26.6464L27.4049 21.656L28.1462 18.4314H29.4541L30.2598 21.6624L31.0208 18.4314H32.2963Z" fill="#00D280"/>
<path d="M7.38108 31.7545C8.21914 31.2894 10.055 30.3805 12.736 29.6601C12.4621 28.5227 12.2465 27.3275 12.086 26.095H4.63086C5.22261 28.1592 6.16139 30.0707 7.38108 31.7545Z" fill="#00D280"/>
<path d="M21.8994 11.9391V15.8913H28.8501C28.6392 14.2929 28.3355 12.8083 27.9546 11.4644C25.7686 11.7441 23.7431 11.8887 21.8994 11.9391Z" fill="#00D280"/>
<path d="M20.3401 11.9638C18.1588 11.9638 16.2718 11.8353 14.7168 11.6622C14.6499 11.6549 14.5854 11.6467 14.5193 11.6394C14.1605 12.9379 13.8733 14.3631 13.6719 15.894H20.6242V11.963C20.5289 11.963 20.4337 11.9638 20.3401 11.9638Z" fill="#00D280"/>
<path d="M7.43932 10.1519C6.19129 11.8543 5.23205 13.7942 4.63086 15.8894H12.086C12.2883 14.3283 12.5825 12.83 12.9658 11.4283C10.1352 11.0015 8.25692 10.4323 7.43932 10.1519Z" fill="#00D280"/>
<path d="M14.251 29.2967C14.4769 29.2487 14.7067 29.2024 14.9419 29.1576C16.7951 28.8088 18.6962 28.6316 20.6242 28.6276V26.095H13.6719C13.8206 27.2218 14.0141 28.2934 14.251 29.2967Z" fill="#00D280"/>
<path d="M14.3454 34.4353C13.8465 33.3663 13.4153 32.1931 13.0535 30.9404C10.7134 31.5713 9.04063 32.355 8.18457 32.8078C10.4876 35.536 13.5727 37.544 17.0748 38.4561C16.0575 37.4757 15.1345 36.1245 14.3454 34.4353Z" fill="#00D280"/>
<path d="M28.1548 34.4393C27.3483 36.1685 26.4002 37.5423 25.3545 38.5276C28.9369 37.6578 32.096 35.6441 34.4509 32.8833C32.6963 32.1444 31.0055 31.5753 29.3901 31.1428C29.0408 32.3216 28.6277 33.4264 28.1548 34.4393Z" fill="#00D280"/>
<path d="M14.5723 30.58C15.9492 35.3959 18.2853 38.4542 20.6119 38.9355V29.9614C18.5433 29.9639 16.7313 30.1703 15.2246 30.4508C15.0026 30.4915 14.7855 30.5353 14.5723 30.58Z" fill="#00D280"/>
<path d="M21.8994 29.9871V38.9368C24.1946 38.462 26.4999 35.4777 27.8832 30.7724C25.732 30.2952 23.728 30.0586 21.8994 29.9871Z" fill="#00D280"/>
<path d="M21.8994 3.05884V10.62C23.6275 10.5713 25.5176 10.4396 27.5557 10.1867C26.1526 6.08089 24.0217 3.49707 21.8994 3.05884Z" fill="#00D280"/>
<path d="M14.3422 7.55997C15.1314 5.86985 16.0543 4.51874 17.0717 3.53833C13.6254 4.43581 10.5844 6.39501 8.29395 9.0566C9.24521 9.35092 10.9549 9.80854 13.3256 10.1565C13.6254 9.2387 13.9646 8.36884 14.3422 7.55997Z" fill="#00D280"/>
<path d="M14.9035 10.3558C16.4726 10.529 18.3911 10.6534 20.6133 10.642V3.05884C18.4619 3.50276 16.3026 6.15162 14.9004 10.3558H14.9035Z" fill="#00D280"/>
<path d="M21.8994 28.6495C22.6155 28.6764 23.3347 28.7251 24.0563 28.7991C25.4397 28.9406 26.8317 29.1707 28.2277 29.4853C28.4843 28.4276 28.6935 27.2925 28.8517 26.095H21.8994V28.6495Z" fill="#00D280"/>
<path d="M29.5107 11.2422C29.9182 12.6957 30.2283 14.2574 30.44 15.8865H38.091C37.4851 13.7745 36.5158 11.821 35.2529 10.1082C33.2442 10.5942 31.3267 10.965 29.5107 11.2422Z" fill="#00D280"/>
<path d="M28.1548 7.5581C28.5081 8.31414 28.8268 9.12221 29.1115 9.97339C30.7671 9.72625 32.5099 9.39865 34.3329 8.97588C31.9906 6.28585 28.8771 4.32502 25.3545 3.46899C26.4002 4.45428 27.3483 5.82897 28.1548 7.5581Z" fill="#00D280"/>
<path d="M29.7295 29.8593C31.2537 30.2699 32.7804 30.7845 34.3023 31.3975L32.6513 26.8105L37.1815 28.5479C37.5356 27.7592 37.8362 26.9397 38.0786 26.095H30.4275C30.2583 27.4007 30.0254 28.6617 29.7295 29.8593Z" fill="#00D280"/>
<mask id="mask0_31_658" style="mask-type:luminance" maskUnits="userSpaceOnUse" x="1" y="0" width="41" height="42">
<path d="M1 0H41.8925V41.9902H1V0Z" fill="white"/>
</mask>
<g mask="url(#mask0_31_658)">
<path d="M21.3508 0C10.133 0 1.00684 9.4179 1.00684 20.9951C1.00684 32.5716 10.133 41.9902 21.3508 41.9902C27.0234 41.9902 32.1602 39.5804 35.8538 35.7024L35.2549 34.0382C31.8132 37.9414 26.8543 40.395 21.3508 40.395C12.6967 40.395 5.39369 34.3268 3.21718 26.0983C2.78676 24.4715 2.55227 22.7609 2.55227 20.9951C2.55227 19.2284 2.78676 17.5187 3.21718 15.891C5.39369 7.66259 12.6967 1.59431 21.3508 1.59431C30.0049 1.59431 37.3071 7.66259 39.4844 15.891C39.9149 17.5187 40.1493 19.2284 40.1493 20.9951C40.1493 22.7609 39.9149 24.4715 39.4844 26.0983C39.2161 27.1138 38.8691 28.0951 38.4512 29.0374L39.9078 29.5951C41.055 26.969 41.694 24.0577 41.694 20.9951C41.694 9.4179 32.5685 0 21.3508 0Z" fill="#00D280"/>
</g>
<mask id="mask1_31_658" style="mask-type:luminance" maskUnits="userSpaceOnUse" x="34" y="28" width="9" height="10">
<path d="M34.4648 28.6399H42.9994V37.5409H34.4648V28.6399Z" fill="white"/>
</mask>
<g mask="url(#mask1_31_658)">
<path d="M43.0122 36.4025L39.8626 33.1516L42.3395 31.7046L34.498 28.6982L37.4116 36.7903L38.8138 34.2337L41.9634 37.4846L43.0122 36.4025Z" fill="#00D280"/>
</g>
</svg>
