<svg width="30" height="31" viewBox="0 0 30 31" fill="none" xmlns="http://www.w3.org/2000/svg">
<g clip-path="url(#clip0_31_886)">
<g clip-path="url(#clip1_31_886)">
<g clip-path="url(#clip2_31_886)">
<path fill-rule="evenodd" clip-rule="evenodd" d="M14.9392 3.98185C16.6096 3.98185 17.9638 5.2507 17.9638 6.81557C17.9638 8.28038 17.0696 8.30852 16.703 9.93769C16.6722 9.93558 16.6415 9.93452 16.6104 9.93452H15.3877V7.58446L16.4605 7.00423C16.6744 6.88819 16.7471 6.63177 16.6233 6.4313C16.4994 6.23118 16.2259 6.16273 16.012 6.27878L14.938 6.85935L13.8645 6.27878C13.6505 6.16342 13.3777 6.23256 13.2546 6.43304C13.1319 6.63317 13.2057 6.88888 13.4192 7.00423L14.4906 7.58342V9.93452H13.2676C13.2365 9.93452 13.2057 9.93558 13.1749 9.93769C12.8083 8.30852 11.9141 8.28038 11.9141 6.81557C11.9141 5.2507 13.2684 3.98185 14.9392 3.98185ZM20.2737 13.7908L20.7757 11.9383L22.3293 13.3933L20.3515 13.8637C20.3045 13.8748 20.2619 13.8349 20.2737 13.7908ZM28.4987 7.96734L26.5681 6.15856L21.2213 11.1673L23.1519 12.9761C21.6298 14.4023 25.9126 10.3897 28.4987 7.96734ZM29.1331 7.37322L27.2019 5.56444L27.6535 5.14126C28.1847 4.64407 29.0533 4.64407 29.5846 5.14126C30.1154 5.63879 30.1154 6.45284 29.5846 6.95003C29.4485 7.07754 29.2973 7.2193 29.1331 7.37322ZM13.2676 10.775H16.6104C16.8854 10.775 17.1104 10.9859 17.1104 11.2433V12.2544C17.1104 12.5122 16.8854 12.7231 16.6104 12.7231H16.0965V13.1929C16.0965 13.4357 15.8841 13.6348 15.6246 13.6348H14.2533C13.9938 13.6348 13.7814 13.4357 13.7814 13.1929V12.7231H13.2676C12.9925 12.7231 12.7675 12.5122 12.7675 12.2544V11.2433C12.7675 10.9859 12.9925 10.775 13.2676 10.775ZM29.6758 11.9983H25.4641L23.2951 14.0305L20.5725 14.6781C19.8685 14.8453 19.2257 14.2431 19.4044 13.584L19.834 11.9983H18.0076V12.2544C18.0076 12.8673 17.5549 13.3835 16.9465 13.525C16.7901 14.0715 16.2566 14.4749 15.6246 14.4749H14.2533C13.6213 14.4749 13.0878 14.0715 12.931 13.525C12.323 13.3835 11.8704 12.8673 11.8704 12.2544V11.9983H4.64184V25.8765C4.64184 26.1086 4.44128 26.2969 4.19364 26.2969H1.87742C0.851286 26.2969 0.00976562 27.0849 0.00976562 28.0462C0.00976562 29.0076 0.850914 29.7973 1.87742 29.7973H29.6758C29.7811 29.7973 29.8681 29.7143 29.8681 29.6157V12.1787C29.8681 12.08 29.7811 11.9983 29.6758 11.9983ZM19.6528 21.6801C18.6593 21.6801 18.1606 22.8079 18.8632 23.4659C18.9925 23.5873 18.9925 23.7838 18.8632 23.9048L18.1495 24.5733C18.0202 24.6945 17.8104 24.6945 17.6809 24.5733C16.9785 23.9152 15.7748 24.3822 15.7748 25.313C15.7748 25.4846 15.6264 25.6235 15.4434 25.6235H14.4342C14.2515 25.6235 14.1031 25.4846 14.1031 25.313C14.1031 24.3811 12.9002 23.9145 12.197 24.5733C12.0676 24.6945 11.8574 24.6945 11.728 24.5733L11.0147 23.9048C10.8854 23.7835 10.8854 23.5873 11.0147 23.4659C11.7173 22.8079 11.2186 21.6801 10.2251 21.6801C10.042 21.6801 9.89371 21.5412 9.89371 21.3698V20.4245C9.89371 20.2532 10.042 20.1139 10.2251 20.1139C11.2186 20.1139 11.7173 18.9864 11.0147 18.3283C10.8854 18.2071 10.8854 18.0104 11.0147 17.8892L11.728 17.2207C11.8574 17.0995 12.0676 17.0995 12.197 17.2207C12.8994 17.8788 14.1031 17.4118 14.1031 16.481C14.1031 16.3097 14.2515 16.1707 14.4342 16.1707H15.4434C15.6264 16.1707 15.7748 16.3097 15.7748 16.481C15.7748 17.4118 16.9785 17.8788 17.6809 17.2207C17.8104 17.0995 18.0202 17.0995 18.1495 17.2207L18.8632 17.8892C18.9925 18.0104 18.9925 18.2071 18.8632 18.3283C18.1606 18.9864 18.6593 20.1139 19.6528 20.1139C19.8359 20.1139 19.9842 20.2532 19.9842 20.4245V21.3695C19.9842 21.5412 19.8359 21.6801 19.6528 21.6801ZM14.9387 18.6261C16.2778 18.6261 17.3629 19.6427 17.3629 20.897C17.3629 22.1512 16.2778 23.1679 14.9387 23.1679C13.6001 23.1679 12.5146 22.1512 12.5146 20.897C12.5146 19.6427 13.6001 18.6261 14.9387 18.6261ZM3.55268 25.4564C2.98252 25.4564 2.41199 25.4568 1.84183 25.4568C1.13155 25.4658 0.528024 25.709 0.0101363 26.1405V11.5783C0.0101363 10.6169 0.851286 9.8289 1.87742 9.8289H3.55268C3.65833 9.8289 3.74507 9.91025 3.74507 10.0089V25.2764C3.74507 25.3752 3.65796 25.4564 3.55268 25.4564ZM15.3873 2.31552C15.3873 2.54761 15.1868 2.73558 14.9392 2.73558C14.6911 2.73558 14.4906 2.54761 14.4906 2.31552V1.40453C14.4906 1.17244 14.6911 0.984131 14.9392 0.984131C15.1868 0.984131 15.3873 1.17244 15.3873 1.40453V2.31552ZM19.8585 5.21874C19.6449 5.33374 19.3718 5.26459 19.249 5.06447C19.1259 4.864 19.1998 4.60828 19.4137 4.49328L20.2559 4.03779C20.4694 3.92278 20.7427 3.99157 20.8654 4.19205C20.9884 4.39218 20.9146 4.64824 20.7008 4.76324L19.8585 5.21874ZM18.0379 3.20636C17.9141 3.40648 17.6405 3.47494 17.4266 3.35889C17.2127 3.24284 17.1397 2.98643 17.2636 2.7863L17.7499 1.99727C17.8737 1.7968 18.1477 1.72834 18.3612 1.84439C18.5751 1.96044 18.6481 2.21685 18.5244 2.41732L18.0379 3.20636ZM10.4642 4.49328C10.6781 4.60828 10.752 4.864 10.6289 5.06447C10.5061 5.26459 10.2333 5.33374 10.0194 5.21874L9.17715 4.76324C8.96327 4.64824 8.8895 4.39252 9.01259 4.19205C9.13524 3.99157 9.40806 3.92278 9.62203 4.03779L10.4642 4.49328ZM12.6144 2.7863C12.7382 2.98643 12.6652 3.24284 12.4513 3.35889C12.2374 3.47494 11.9638 3.40648 11.84 3.20636L11.3536 2.41732C11.2298 2.21685 11.3028 1.96044 11.5164 1.84439C11.7302 1.72834 12.0042 1.7968 12.128 1.99727L12.6144 2.7863Z" fill="#00D280"/>
</g>
</g>
</g>
<defs>
<clipPath id="clip0_31_886">
<rect width="30" height="30" fill="white" transform="translate(0.00976562 0.389648)"/>
</clipPath>
<clipPath id="clip1_31_886">
<rect width="30" height="30" fill="white" transform="translate(0.00976562 0.389648)"/>
</clipPath>
<clipPath id="clip2_31_886">
<rect width="30" height="30" fill="white" transform="translate(0.00976562 0.389648)"/>
</clipPath>
</defs>
</svg>
