<svg width="48" height="42" viewBox="0 0 48 42" fill="none" xmlns="http://www.w3.org/2000/svg">
<g clip-path="url(#clip0_31_756)">
<g clip-path="url(#clip1_31_756)">
<mask id="mask0_31_756" style="mask-type:luminance" maskUnits="userSpaceOnUse" x="0" y="0" width="39" height="38">
<path d="M0 0.360107H38.6339V37.7264H0V0.360107Z" fill="white"/>
</mask>
<g mask="url(#mask0_31_756)">
<path fill-rule="evenodd" clip-rule="evenodd" d="M38.4008 3.48996H36.8027V2.69655C36.8027 2.24114 36.4369 1.86974 35.9872 1.86974H2.46635C2.00861 1.86974 1.65082 2.24114 1.65082 2.69655V23.724C1.65082 24.1794 2.01661 24.5508 2.46635 24.5508H20.8249V31.0307H17.2959L16.0975 35.8914H20.8249V37.5116H12.0369C11.5872 37.5116 11.2373 37.1483 11.2373 36.7009C11.2373 36.2709 11.5951 35.8914 12.0449 35.8914H14.1167C14.3006 35.8914 14.4665 35.7477 14.5084 35.5787L15.6318 31.0307H2.46635C1.13512 31.0307 0.0527344 29.9337 0.0527344 28.609V2.67124C0.0527344 1.32932 1.11813 0.249512 2.46635 0.249512H35.9872C37.3194 0.249512 38.4008 1.34653 38.4008 2.67124V3.48996ZM19.2267 29.4105C20.1093 29.4105 20.8249 28.6848 20.8249 27.7913C20.8249 26.8966 20.1093 26.1711 19.2267 26.1711C18.3442 26.1711 17.6286 26.8966 17.6286 27.7913C17.6286 28.6848 18.3442 29.4105 19.2267 29.4105Z" fill="#00D280"/>
</g>
<path fill-rule="evenodd" clip-rule="evenodd" d="M44.8092 11.5818H43.2111V8.34143H24.0375V34.2625H30.4287V39.122H24.845C23.5138 39.122 22.4404 38.0422 22.4404 36.6842V7.53993C22.4404 6.18994 23.5048 5.10205 24.845 5.10205H42.4046C43.7358 5.10205 44.8092 6.18184 44.8092 7.53993V11.5818Z" fill="#00D280"/>
<path fill-rule="evenodd" clip-rule="evenodd" d="M34.427 13.2114H45.594C46.9251 13.2114 47.9994 14.2912 47.9994 15.6492V38.3129C47.9994 39.6629 46.9341 40.7508 45.594 40.7508H34.427C33.0948 40.7508 32.0215 39.671 32.0215 38.3129V15.6492C32.0215 14.2993 33.0868 13.2114 34.427 13.2114ZM33.6194 34.2712H46.4014V16.4517H33.6194V34.2712ZM40.0104 39.1307C40.8919 39.1307 41.6084 38.4051 41.6084 37.5115C41.6084 36.6169 40.8919 35.8913 40.0104 35.8913C39.128 35.8913 38.4125 36.6169 38.4125 37.5115C38.4125 38.4051 39.128 39.1307 40.0104 39.1307Z" fill="#00D280"/>
</g>
</g>
<defs>
<clipPath id="clip0_31_756">
<rect width="48" height="42" fill="white"/>
</clipPath>
<clipPath id="clip1_31_756">
<rect width="48" height="41.28" fill="white" transform="translate(0 0.360107)"/>
</clipPath>
</defs>
</svg>
