<svg width="48" height="42" viewBox="0 0 48 42" fill="none" xmlns="http://www.w3.org/2000/svg">
<g clip-path="url(#clip0_31_741)">
<g clip-path="url(#clip1_31_741)">
<path fill-rule="evenodd" clip-rule="evenodd" d="M23.2018 23.3919C23.2018 22.7555 22.9888 22.1448 22.6084 21.6952C22.2279 21.2448 21.7128 20.9927 21.1753 20.9927C18.041 20.9927 9.71742 20.9927 6.58381 20.9927C6.0463 20.9927 5.53044 21.2448 5.15 21.6952C4.77025 22.1448 4.55664 22.7555 4.55664 23.3919C4.55664 26.1498 4.55664 32.1491 4.55664 34.907C4.55664 35.5434 4.77025 36.1541 5.15 36.6037C5.53044 37.0541 6.0463 37.3062 6.58381 37.3062C9.71742 37.3062 18.041 37.3062 21.1753 37.3062C21.7128 37.3062 22.2279 37.0541 22.6084 36.6037C22.9888 36.1541 23.2018 35.5434 23.2018 34.907V23.3919ZM7.76561 35.3872H19.9934L13.8792 30.321L7.76561 35.3872ZM6.17823 34.359L12.4656 29.149L6.17823 23.9399V34.359ZM15.2928 29.149L21.5801 34.359V23.9399L15.2928 29.149ZM7.76561 22.9117L13.8792 27.9779L19.9934 22.9117H7.76561Z" fill="#00D280"/>
<path fill-rule="evenodd" clip-rule="evenodd" d="M43.4656 23.3919C43.4656 22.7555 43.2528 22.1448 42.8724 21.6952C42.4919 21.2448 41.9767 20.9927 41.4392 20.9927C38.305 20.9927 29.9813 20.9927 26.8478 20.9927C26.3102 20.9927 25.7943 21.2448 25.4146 21.6952C25.0341 22.1448 24.8213 22.7555 24.8213 23.3919C24.8213 26.1498 24.8213 32.1491 24.8213 34.907C24.8213 35.5434 25.0341 36.1541 25.4146 36.6037C25.7943 37.0541 26.3102 37.3062 26.8478 37.3062C29.9813 37.3062 38.305 37.3062 41.4392 37.3062C41.9767 37.3062 42.4919 37.0541 42.8724 36.6037C43.2528 36.1541 43.4656 35.5434 43.4656 34.907V23.3919ZM28.0295 35.3872H40.2574L34.1431 30.321L28.0295 35.3872ZM26.4422 34.359L32.7296 29.149L26.4422 23.9399V34.359ZM35.5574 29.149L41.8448 34.359V23.9399L35.5574 29.149ZM28.0295 22.9117L34.1431 27.9779L40.2574 22.9117H28.0295Z" fill="#00D280"/>
<path fill-rule="evenodd" clip-rule="evenodd" d="M6.56484 19.0717H41.4223C42.7647 19.0717 43.8544 17.7824 43.8544 16.1931C43.8544 14.6037 42.7647 13.3145 41.4223 13.3145H6.56484C5.22178 13.3145 4.13281 14.6037 4.13281 16.1931C4.13281 17.7824 5.22178 19.0717 6.56484 19.0717Z" fill="#00D280"/>
<mask id="mask0_31_741" style="mask-type:luminance" maskUnits="userSpaceOnUse" x="0" y="0" width="48" height="42">
<path d="M0.480469 0.840088H47.5205V41.145H0.480469V0.840088Z" fill="white"/>
</mask>
<g mask="url(#mask0_31_741)">
<path fill-rule="evenodd" clip-rule="evenodd" d="M47.5128 3.71866C47.5128 2.12854 46.4238 0.840088 45.0808 0.840088H2.92715C1.58409 0.840088 0.495117 2.12854 0.495117 3.71866V38.2656C0.495117 39.8557 1.58409 41.145 2.92715 41.145H45.0808C46.4238 41.145 47.5128 39.8557 47.5128 38.2656V3.71866ZM45.8912 11.3957V38.2656C45.8912 38.7954 45.5282 39.2251 45.0808 39.2251H2.92715C2.47969 39.2251 2.11671 38.7954 2.11671 38.2656V11.3957H45.8912ZM9.00653 4.67818C9.67807 4.67818 10.2226 5.32364 10.2226 6.11788C10.2226 6.91211 9.67807 7.55757 9.00653 7.55757C8.3357 7.55757 7.79122 6.91211 7.79122 6.11788C7.79122 5.32364 8.3357 4.67818 9.00653 4.67818ZM13.0601 4.67818C13.731 4.67818 14.2762 5.32364 14.2762 6.11788C14.2762 6.91211 13.731 7.55757 13.0601 7.55757C12.3886 7.55757 11.8441 6.91211 11.8441 6.11788C11.8441 5.32364 12.3886 4.67818 13.0601 4.67818ZM4.95361 4.67818C5.62514 4.67818 6.16962 5.32364 6.16962 6.11788C6.16962 6.91211 5.62514 7.55757 4.95361 7.55757C4.28208 7.55757 3.7376 6.91211 3.7376 6.11788C3.7376 5.32364 4.28208 4.67818 4.95361 4.67818Z" fill="#00D280"/>
</g>
</g>
</g>
<defs>
<clipPath id="clip0_31_741">
<rect width="48" height="42" fill="white"/>
</clipPath>
<clipPath id="clip1_31_741">
<rect width="48" height="40.32" fill="white" transform="translate(0 0.840088)"/>
</clipPath>
</defs>
</svg>
