<svg width="130" height="33" viewBox="0 0 130 33" fill="none" xmlns="http://www.w3.org/2000/svg">
<g clip-path="url(#clip0_3_2446)">
<path d="M20.2321 0.911705C20.2321 4.15697 20.2906 7.39585 20.2028 10.6347C20.1638 11.9826 19.2897 12.9665 18.8211 14.1291C17.8299 16.595 16.6631 18.9396 15.5498 21.3224C14.9786 22.5489 14.4366 22.5745 13.885 21.3607C12.2786 17.828 10.7016 14.2632 9.10505 10.7241C8.5631 9.52315 8.01627 8.32215 7.44502 7.1467C7.12279 6.48231 6.7029 6.40566 6.08772 6.64841C4.97453 7.08921 4.15916 7.81747 3.88086 9.35706C3.55373 11.1905 3.57815 13.0239 4.2861 14.6849C4.5644 15.3365 5.13564 15.8221 5.77524 15.9817C7.03978 16.2947 7.33761 16.7867 7.49385 18.454C7.69403 20.6133 7.81609 22.7597 7.48409 24.9126C6.94702 28.3879 5.55553 31.007 2.95809 32.3167C2.3136 32.6424 1.55683 32.4827 0.853761 32.6233C0.443638 32.7063 0.018867 32.1824 0.0286318 31.4223C0.0432791 30.2405 0.0139846 29.065 0.0383967 27.8831C0.053044 27.091 0.326459 26.6885 1.02464 26.6374C2.80185 26.5033 4.11033 24.523 4.06151 22.1848C4.05174 21.6418 3.78809 21.3479 3.45121 21.0796C1.2297 19.2781 0.297165 16.4927 0.0872209 13.2475C-0.073899 10.7369 -0.0934286 8.20715 0.760995 5.85626C1.81072 2.95597 3.32426 0.809492 6.00471 0.688114C6.58572 0.662561 7.12279 0.234544 7.73309 0.349533C8.51916 0.490076 9.1197 0.796716 9.55912 1.81245C11.058 5.29409 12.635 8.71184 14.1925 12.1488C14.6954 13.2539 14.754 13.2475 15.2276 12.1552C16.0381 10.277 16.829 8.39243 17.6346 6.50787C18.4403 4.62331 19.2459 2.73876 20.0514 0.85421C20.11 0.873375 20.1686 0.89254 20.2321 0.911705Z" fill="white"/>
<path d="M24.6899 16.5894C24.6899 21.3104 24.6508 26.0249 24.7143 30.746C24.7339 32.0619 24.187 32.8413 23.0592 32.8285C21.4919 32.8094 20.9744 32.3558 20.9744 30.7651C20.9647 21.3295 20.9647 11.8876 20.9695 2.4521C20.9695 0.765577 21.3992 0.343948 22.9859 0.356725C24.3775 0.363113 24.6802 0.720858 24.685 2.43293C24.6899 7.15389 24.6899 11.8685 24.6899 16.5894Z" fill="white"/>
<path d="M25.5451 19.221C25.5646 18.6843 25.5695 18.3202 25.5939 17.9561C25.6916 16.2568 25.7062 16.2121 27.0146 16.0715C29.1385 15.8352 29.6708 13.1201 29.5584 10.6862C29.5292 10.0154 29.3338 9.33826 29.1434 8.70581C28.6796 7.15984 27.6006 6.6935 26.5069 6.48907C25.8234 6.36131 25.6281 6.04189 25.6037 5.21779C25.5646 3.9529 25.5597 2.7008 25.633 1.4423C25.6622 0.944011 25.7989 0.714033 26.1896 0.688479C27.7226 0.60543 29.1141 0.91207 30.3836 2.26C32.0533 4.04234 32.6929 6.33575 33.064 8.98691C33.4644 11.8488 33.2153 14.5703 32.3609 17.164C31.4137 20.0451 29.2411 22.2746 26.6485 22.2426C25.9259 22.2363 25.6086 21.9551 25.6232 21.0097C25.6281 20.3517 25.5695 19.7001 25.5451 19.221Z" fill="white"/>
<path d="M55.1659 12.1742C54.3652 12.96 54.2675 14.0651 53.8281 14.902C53.4766 15.5728 53.3741 16.9143 52.8761 16.8951C52.2609 16.8697 52.212 15.5473 51.8507 14.8445C51.4357 14.0396 51.3332 12.9727 50.5569 12.1998C50.5569 14.5123 50.5228 16.6461 50.5715 18.7797C50.596 19.7316 50.3958 20.0574 49.639 20.019C47.9644 19.9424 48.2476 20.051 48.2427 18.16C48.2329 14.4996 48.2476 10.8391 48.2329 7.18495C48.2279 6.41835 48.2182 5.70286 48.9653 5.5176C50.137 5.22374 50.806 5.51121 51.1525 6.46945C51.6066 7.73434 52.0655 8.99923 52.5148 10.2705C52.6075 10.5388 52.7003 10.8263 52.9591 10.8007C53.1885 10.7752 53.1788 10.4622 53.252 10.245C53.6963 8.97367 54.1406 7.69601 54.6142 6.4439C54.995 5.42816 56.616 5.10874 57.2947 5.83701C57.5436 6.10532 57.4948 6.40558 57.4998 6.71221C57.5046 10.8199 57.4899 14.9276 57.5144 19.0289C57.5193 19.789 57.3142 20.0638 56.7576 19.9999C56.5427 19.9744 56.3182 19.9616 56.1033 19.9999C55.3759 20.1405 55.1268 19.789 55.1513 18.8053C55.2049 16.6525 55.1659 14.506 55.1659 12.1742Z" fill="white"/>
<path d="M41.5874 5.17942C42.8861 5.32635 43.8138 5.8502 44.6633 6.51458C45.0198 6.79567 45.4738 7.37061 44.8782 8.07972C44.6877 8.30969 44.6096 8.69939 44.4925 9.02519C44.2581 9.67679 44.0628 10.0026 43.4622 9.4021C42.9203 8.86549 42.2368 8.50774 41.4702 8.67383C41.1432 8.7441 40.9527 8.92936 40.86 9.29989C40.7574 9.70874 40.7867 10.0473 41.0797 10.3731C41.6655 11.0311 42.4272 11.1589 43.1058 11.408C44.4094 11.8872 45.3859 13.5226 45.4885 14.8003C45.6935 17.3363 44.966 18.9271 43.7552 19.8342C42.2368 20.9714 39.3512 20.0386 38.2381 18.2755C38.0476 17.9752 38.0721 17.8155 38.2087 17.5535C38.4089 17.1575 38.6434 16.7678 38.78 16.3334C39.0876 15.3304 39.4049 15.3304 40.0104 16.0396C40.6255 16.7614 41.4067 17.1703 42.2808 17.0873C42.7348 17.0425 43.0228 16.6976 43.0912 16.1354C43.1693 15.4965 42.9056 15.1068 42.4467 14.8768C41.4116 14.3658 40.2985 14.1039 39.4098 13.1457C38.3308 11.9829 38.2771 10.3987 38.4724 8.83993C38.6384 7.53032 39.1413 6.36765 40.2056 5.81825C40.7379 5.54994 41.231 5.06444 41.5874 5.17942Z" fill="white"/>
<path d="M62.2016 19.9427C59.8629 20.0129 60.2194 20.3387 60.2438 17.4704C60.2731 14.1804 60.2145 10.8904 60.2096 7.6004C60.2096 5.7989 60.2292 5.7989 61.562 5.7989C62.436 5.7989 63.3149 5.85639 64.1839 5.79251C65.9025 5.66474 66.8399 6.9424 67.1231 8.53309C67.4942 10.6221 67.6944 12.8132 66.3322 14.5765C65.9855 15.03 65.634 15.4899 65.0725 15.4197C64.428 15.407 63.7835 15.4134 63.1439 15.3814C62.7534 15.3622 62.5727 15.573 62.5825 16.0777L62.5776 16.084C62.1187 16.1927 62.2408 16.6655 62.231 17.0424C62.2163 18.0134 62.2114 18.978 62.2016 19.9427ZM62.5532 10.7882C62.5581 10.7882 62.5629 10.7882 62.5678 10.7882C62.5678 11.3184 62.5483 11.8423 62.5776 12.3724C62.5923 12.6855 62.6655 13.1455 62.978 13.0368C63.5736 12.8324 64.2669 12.9219 64.7308 12.2191C65.219 11.4718 65.1751 10.5774 64.9114 9.81075C64.5696 8.81417 63.8129 8.59698 63.0317 8.7503C62.2359 8.90361 62.6704 9.76603 62.5629 10.309C62.5288 10.456 62.5532 10.6285 62.5532 10.7882Z" fill="white"/>
<path d="M112.667 12.8387C112.667 10.8072 112.696 8.77573 112.651 6.75064C112.636 6.03515 112.876 5.58797 113.32 5.55602C114.848 5.43465 116.367 5.44742 117.822 6.25874C119.458 7.16588 120.127 9.01849 120.38 11.0308C120.674 13.3945 120.561 15.8157 119.326 17.8088C118.588 18.9971 117.695 19.9873 116.401 19.9873C115.435 19.9873 114.468 19.9425 113.501 20.0064C112.862 20.0447 112.627 19.8084 112.647 18.9268C112.696 16.9017 112.661 14.8702 112.667 12.8387ZM114.141 12.794C114.141 14.1355 114.141 15.4771 114.141 16.8186C114.141 17.1827 114.122 17.6811 114.473 17.7066C115.508 17.7768 116.597 18.0899 117.509 17.1508C118.833 15.7901 119.219 13.9055 118.974 11.8549C118.73 9.79787 117.875 8.26467 116.235 7.63861C114.78 7.08283 114.145 7.65139 114.145 9.63177C114.141 10.6795 114.141 11.7336 114.141 12.794Z" fill="white"/>
<path d="M102.221 12.8003C102.221 10.7689 102.217 8.73739 102.221 6.7123C102.221 5.84988 102.275 5.37075 103.198 5.70294C104.067 6.01597 105.053 5.79238 105.991 5.79876C108.017 5.82432 108.92 6.78895 109.203 9.389C109.418 11.3629 108.935 13.075 107.695 14.2569C107.241 14.6913 107.324 14.966 107.514 15.426C108.041 16.6845 108.535 17.9685 109.096 19.2014C109.379 19.8275 109.252 19.9361 108.769 20C108.051 20.0894 107.558 19.8594 107.241 18.9204C106.855 17.7896 106.362 16.7291 105.898 15.6496C105.615 14.9916 104.326 14.5763 103.838 14.9404C103.564 15.1513 103.647 15.509 103.642 15.8157C103.628 16.9144 103.608 18.0068 103.647 19.1056C103.672 19.8083 103.466 20.0127 102.944 20.0064C102.446 20 102.207 19.8594 102.217 19.1312C102.241 17.023 102.221 14.9085 102.221 12.8003ZM103.628 10.2067C103.628 12.7621 103.628 12.7621 105.605 12.7237C105.883 12.7173 106.166 12.679 106.445 12.6726C106.708 12.6598 106.899 12.5065 107.089 12.2637C107.592 11.6121 107.866 9.96395 107.553 8.96737C107.245 7.98358 106.484 7.7472 105.835 7.63222C103.633 7.22975 103.628 7.28724 103.628 10.2067Z" fill="white"/>
<path d="M91.8581 18.3645C91.8094 18.9011 92.0144 19.5975 91.5164 19.8914C91.1258 20.1213 90.5936 20.1852 90.2567 19.8402C89.9638 19.5399 90.3788 19.1311 90.4716 18.7734C91.37 15.2278 92.2634 11.6823 93.1667 8.14321C93.3375 7.47245 93.5572 6.82722 93.733 6.16284C93.8844 5.58789 94.1481 5.35152 94.6362 5.38986C95.1245 5.42818 95.3882 5.80509 95.5102 6.28421C96.4379 9.93833 97.3167 13.6052 98.2639 17.2529C98.3957 17.764 98.5275 18.3006 98.7082 18.7926C98.8596 19.2014 99.1134 19.7316 98.7034 19.9104C98.2541 20.1085 97.5804 20.3321 97.3264 19.4506C97.1116 18.7095 96.8187 17.9621 96.887 17.1188C96.8968 16.8185 96.7992 16.6333 96.5649 16.5822C95.2222 16.5822 93.8795 16.5822 92.5417 16.5822C92.3122 16.6205 92.2097 16.7993 92.2097 17.0932C92.1804 17.336 92.156 17.5788 92.1267 17.8216C91.8923 17.8662 91.8386 18.0834 91.8581 18.3645ZM94.4312 14.3334C94.5875 14.3334 94.7437 14.3334 94.8999 14.3334C96.1156 14.3334 96.1401 14.276 95.7202 12.7747C95.4273 11.7271 95.1587 10.673 94.8706 9.63169C94.7974 9.35699 94.939 8.8587 94.5777 8.86509C94.2359 8.87788 94.231 9.35699 94.1529 9.70197C93.9284 10.6922 93.7233 11.6951 93.4645 12.6789C93.0251 14.3398 93.0104 14.3334 94.4312 14.3334Z" fill="white"/>
<path d="M29.4486 26.6248C30.3519 26.6248 31.2551 26.6504 32.1583 26.6184C32.9981 26.5865 33.3253 27.1806 33.3497 28.1643C33.374 29.0971 33.374 30.0297 33.3497 30.9625C33.3253 32.1059 32.7784 32.7959 31.8703 32.8087C30.2786 32.8343 28.6919 32.8406 27.1001 32.8087C26.0114 32.7895 25.6501 32.3487 25.5866 31.0007C25.528 29.87 25.5377 28.7329 25.6208 27.5958C25.6745 26.8739 25.9235 26.612 26.4508 26.6248C27.4517 26.644 28.4526 26.6312 29.4486 26.6248Z" fill="white"/>
<path d="M81.2462 12.66C81.3634 15.011 81.7833 16.9274 83.5508 17.8921C84.5907 18.4606 85.284 17.6557 85.9822 16.9977C86.3875 16.6144 86.6218 16.1544 87.0953 16.8252C87.5495 17.4705 87.5983 17.9815 87.0758 18.6395C84.9618 21.297 82.086 20.8243 80.5579 17.3362C79.2395 14.3274 79.3324 10.1366 81.0705 7.36412C82.8331 4.55326 85.3475 4.56604 87.2369 7.12775C87.857 7.96462 86.9977 8.34792 86.7927 8.91009C86.5192 9.65113 86.2995 8.99314 86.1287 8.76315C84.161 6.12478 82.0274 8.13071 81.4855 10.7563C81.3439 11.4207 81.3097 12.1234 81.2462 12.66Z" fill="white"/>
<path d="M69.6744 12.8396C69.6744 10.8464 69.7085 8.85963 69.6596 6.86648C69.6401 5.99767 69.8647 5.67187 70.5092 5.79325C70.6313 5.8188 70.7631 5.8188 70.8803 5.79325C71.7591 5.5952 72.0569 6.00406 72.0228 7.21784C71.9447 10.0159 72.0179 12.8204 71.9837 15.6248C71.974 16.3787 72.1595 16.6151 72.7308 16.5831C73.6633 16.532 74.6007 16.5831 75.5381 16.564C75.9678 16.5512 76.124 16.7428 76.1582 17.3305C76.3096 19.9881 76.3242 19.9817 74.2687 19.9817C73.1164 19.9817 71.9593 19.9051 70.8071 20.0072C69.9282 20.0839 69.5963 19.79 69.6499 18.5635C69.7378 16.6661 69.6744 14.7497 69.6744 12.8396Z" fill="white"/>
<path d="M128.416 17.0937C128.426 16.5124 128.43 15.9311 128.44 15.3434C128.664 14.9409 128.42 14.9217 128.216 14.877L128.21 14.8706C128.152 14.6214 128.328 14.0657 127.834 14.3851C127.649 14.3276 127.464 14.2701 127.279 14.2126C127.269 13.6313 126.975 13.6249 126.648 13.6888C126.482 13.676 126.311 13.6632 126.146 13.6504C126.097 13.0244 125.715 13.2032 125.433 13.1521C125.3 13.1457 125.169 13.1393 125.037 13.1329C125.003 12.8583 124.915 12.6475 124.661 12.6667C124.588 12.6028 124.515 12.5324 124.441 12.4686C124.49 12.1364 124.373 11.9575 124.124 11.9256C124.1 11.7914 124.071 11.6573 124.046 11.5295C124.071 11.2357 123.997 11.0248 123.758 10.9482C123.705 9.98993 123.674 9.03169 123.783 8.07983C124.027 8.02233 124.09 7.81152 124.066 7.51766C124.358 6.73828 124.593 5.88225 125.427 5.85669C126.223 5.85669 127.02 5.85669 127.815 5.85669C128.011 5.88225 128.201 5.90141 128.397 5.92697C128.445 6.17611 128.294 6.69356 128.757 6.38693C129.26 6.50191 129.456 6.91715 129.427 7.54959C129.207 7.6007 129.149 7.80513 129.158 8.06067C129.168 8.61645 129.032 8.89753 128.582 8.55256C128.582 8.20121 128.445 8.03511 128.171 8.06067C128.06 8.02872 127.951 8.00316 127.84 7.97123C127.786 7.72208 127.947 7.1663 127.468 7.53682C126.913 7.54959 126.356 7.56238 125.799 7.57515C125.52 7.54321 125.408 7.72208 125.423 8.06705C124.973 8.09899 125.022 8.46952 125.101 8.86559C125.14 9.38304 124.989 9.93244 125.271 10.4052C125.232 10.7629 125.31 10.9865 125.628 10.9354C125.686 10.9354 125.735 10.9673 125.774 11.0248C125.789 11.3379 125.926 11.4656 126.155 11.4656C126.34 11.4911 126.526 11.5103 126.712 11.5359C126.81 12.0662 126.991 12.3856 127.439 12.0278C127.639 11.9959 127.84 11.9767 128.015 12.1428C128.025 12.5133 128.147 12.7177 128.455 12.6539C128.787 12.6219 129.041 12.7497 129.143 13.2032C129.182 13.7271 129.192 14.2701 129.719 14.3914C129.969 15.4455 129.953 16.506 129.729 17.5665C129.178 17.6942 129.28 18.333 129.153 18.7994L129.158 18.793C128.748 19.1124 128.186 19.1827 128.021 19.9237C127.83 19.9365 127.639 19.9557 127.449 19.9684C127.024 19.6491 126.595 19.6555 126.165 19.9621C125.911 19.9429 125.657 19.9237 125.403 19.9046C125.418 19.253 125.1 19.2338 124.734 19.3168C124.642 19.285 124.554 19.2594 124.461 19.2274C124.451 18.9208 124.319 18.7866 124.095 18.7802H124.09C124.075 18.4609 123.949 18.3011 123.705 18.3011C123.485 18.2373 123.304 18.1478 123.524 17.8093C124.036 17.6878 124.061 17.164 124.09 16.6465C124.212 16.5444 124.339 16.5444 124.461 16.6465C124.427 17.2088 124.656 17.3748 125.042 17.3045L125.037 17.2917C125.037 17.7006 125.213 17.8156 125.491 17.7645C125.589 17.7837 125.682 17.8093 125.779 17.8284C125.853 18.4799 126.243 18.2501 126.537 18.2883C126.833 18.2819 127.127 18.2819 127.425 18.2755C127.674 18.3011 127.825 18.1798 127.84 17.8348C127.854 17.7709 127.889 17.7453 127.937 17.7645C128.245 17.7389 128.664 17.822 128.416 17.0937Z" fill="white"/>
<path d="M49.1103 26.6121C48.998 27.7747 48.2999 27.2637 47.88 27.2445C47.3087 27.2189 47.1525 26.5226 47.0842 25.8711C46.9913 24.9767 47.2794 24.0184 46.8497 23.1752C46.7619 22.9899 46.6252 22.9388 46.4689 22.9452C46.0979 22.9452 45.7269 22.9452 45.3557 22.9452C45.307 23.041 45.2532 23.1432 45.2044 23.239L45.219 23.2901C44.9309 23.4116 44.6477 23.437 44.3597 23.2965C43.9008 22.4724 43.3979 22.7791 42.895 23.2007C42.6508 23.3349 42.4019 23.4562 42.1333 23.3157C41.7037 22.6385 41.0543 22.9708 40.5319 22.7216C40.6149 21.9103 41.1081 22.2616 41.4156 22.2552C42.6802 22.2169 43.9448 22.2041 45.2092 22.2552C45.805 22.2808 46.3811 22.1403 47.0109 22.5491C47.3868 22.7919 48.0459 22.0955 48.6514 22.2233C49.0029 22.2936 49.4081 22.2041 49.1201 22.9388C48.6807 22.9324 48.2413 22.9324 47.8019 22.926C47.7725 22.8941 47.7433 22.8685 47.7139 22.8365C47.7384 22.8749 47.7628 22.9132 47.7871 22.9452C47.797 23.0282 47.8019 23.1113 47.8116 23.1944V23.1752C47.3575 23.3924 47.5187 23.8714 47.5138 24.3059C47.4747 26.5801 47.465 26.5801 49.1103 26.6121Z" fill="white"/>
<path d="M95.748 22.9772C95.9482 22.5428 96.1728 22.1467 96.6268 22.2617C97.6425 22.5236 98.6531 22.2362 99.6637 22.2617C99.8737 22.2681 100.123 22.1914 100.211 22.5619C100.264 22.7919 100.333 23.1816 100.172 23.2327C99.3122 23.5011 99.61 24.3698 99.5368 25.0726C99.4782 25.6347 99.7761 26.6696 99.3025 26.6632C98.6189 26.6504 98.9998 25.6283 98.9802 25.0789C98.9265 23.3413 98.9607 23.3413 97.2567 23.4308C97.1591 23.3157 97.0615 23.2008 96.9637 23.0858C96.9247 23.2199 96.8905 23.3477 96.8515 23.4819C96.4804 23.3796 96.0654 23.5202 95.748 23.1305C95.7529 23.073 95.748 23.0219 95.748 22.9772Z" fill="white"/>
<path d="M100.505 24.593C100.505 24.3055 100.505 24.0245 100.505 23.7369C100.515 22.4465 101.408 21.731 102.273 22.306C102.478 22.4402 102.497 22.6765 102.507 22.9192C102.517 23.2259 102.37 23.3473 102.16 23.3664C102.004 23.3792 101.848 23.3728 101.692 23.3856C101.472 23.3984 101.228 23.4112 101.208 23.7945C101.184 24.2033 101.36 24.3502 101.667 24.3758C101.911 24.395 102.321 24.2097 102.302 24.7846C102.287 25.2254 101.926 25.1041 101.692 25.1233C101.423 25.1487 101.179 25.1807 101.199 25.6471C101.223 26.1198 101.496 26.0879 101.745 26.1007C101.872 26.1071 101.994 26.0943 102.121 26.1071C102.321 26.1326 102.619 26.024 102.585 26.4776C102.566 26.7587 102.346 26.8225 102.151 26.8225C101.965 26.8289 101.775 26.7969 101.589 26.8353C100.73 27.0141 100.368 26.5734 100.505 25.4363C100.535 25.1679 100.51 24.8805 100.505 24.593Z" fill="white"/>
<path d="M81.4435 25.2766C81.7902 24.9763 81.7267 24.51 81.7315 24.0692C81.7609 22.4656 82.0636 22.076 83.1914 22.2038C83.9873 22.2932 84.1435 22.6892 83.9629 24.1905C83.4893 24.6569 82.9766 24.6441 82.4493 24.3949C82.4395 24.0692 82.4298 23.7433 82.42 23.4176C82.4932 23.2067 82.5079 23.0215 82.2833 22.9576C81.922 23.4623 82.2101 24.082 82.1076 24.6249C82.1076 24.8805 82.1076 25.1297 82.1076 25.3851C82.1076 25.7876 82.1027 26.19 82.1027 26.5989C81.8341 26.452 81.7072 27.9596 81.341 26.7139C81.4045 26.5159 81.468 26.3179 81.5315 26.1198C81.6974 25.9984 81.6339 25.9026 81.5118 25.8131C81.4826 25.6343 81.4631 25.4554 81.4435 25.2766Z" fill="white"/>
<path d="M95.7473 22.9777C95.7473 23.0289 95.7473 23.0736 95.7473 23.1184C95.469 23.4953 95.1077 23.342 94.7756 23.3738C94.5169 23.3994 94.2679 23.4122 94.2777 23.8849C94.2875 24.3449 94.5267 24.3769 94.7904 24.3833C94.9466 24.3833 95.1028 24.3833 95.2541 24.4023C95.4251 24.4215 95.5618 24.5302 95.5519 24.7729C95.5422 25.0156 95.3957 25.0987 95.2298 25.1115C95.0442 25.1243 94.8587 25.137 94.6683 25.1243C94.3362 25.1115 94.2435 25.3479 94.2532 25.7375C94.263 26.172 94.4876 26.108 94.7074 26.1336C94.9856 26.1656 95.3274 25.942 95.5325 26.4019C94.307 27.1174 93.9066 26.8619 93.8041 25.3095C93.7699 24.7857 93.7552 24.2554 93.765 23.7316C93.7699 23.1822 93.6576 22.4476 94.2289 22.3325C94.7659 22.2367 95.4495 21.962 95.7473 22.9777Z" fill="white"/>
<path d="M112.464 22.313C112.66 22.5941 112.865 22.773 112.933 23.0157C113.212 23.9803 113.461 24.9641 113.695 25.9479C113.734 26.1141 113.714 26.3759 113.641 26.5101C113.524 26.7146 113.358 26.5803 113.251 26.4271C112.968 26.0054 112.591 25.9799 112.215 26.0502C111.566 26.1715 111.322 25.9223 111.556 25.06C111.727 24.4148 111.839 23.7376 112.025 23.0987C112.108 22.8113 112.304 22.5877 112.464 22.313ZM112.47 25.1302C112.68 25.1046 112.957 25.0472 112.914 24.715C112.879 24.4531 112.665 24.0633 112.499 24.0443C112.234 24.0059 112.152 24.4339 112.113 24.7277C112.069 25.0216 112.265 25.1046 112.47 25.1302Z" fill="white"/>
<path d="M50.235 25.6478C50.2253 25.8905 50.2253 26.1333 50.2058 26.376C50.1862 26.6635 50.0691 26.8168 49.8396 26.7849C49.6199 26.7529 49.5076 26.5868 49.5076 26.3057C49.5076 25.2516 49.4733 24.1977 49.5417 23.15C49.5711 22.6644 49.8835 22.3451 50.3083 22.262C51.0553 22.1215 51.4313 22.7283 51.7584 23.4374C51.9634 23.8782 52.0122 24.2743 51.5533 24.5042C51.5435 24.2041 51.4752 23.9613 51.2067 23.9165C51.1432 23.3608 50.816 23.3608 50.5182 23.4438C50.0739 23.5588 50.2693 24.057 50.2302 24.4085C50.235 24.8109 50.235 25.2262 50.235 25.6478Z" fill="white"/>
<path d="M64.6365 26.9381C64.4706 25.4496 64.4461 24.1082 64.6219 22.7793C64.7195 22.0639 65.2664 22.3513 65.6374 22.2875C66.0232 22.2172 66.2868 22.4088 66.4772 22.8496C66.6335 23.201 66.4381 23.2905 66.2624 23.3351C66.0525 23.3926 65.8328 23.3734 65.6131 23.3798C65.325 23.3926 65.0369 23.3798 65.0516 23.9293C65.0662 24.4083 65.3299 24.3573 65.574 24.402C65.8425 24.4531 66.3064 24.1847 66.2917 24.8044C66.2819 25.3027 65.8523 25.1367 65.6033 25.1239C65.1297 25.1047 65.0223 25.4177 65.0321 25.948C65.0321 26.2099 65.0956 26.5165 64.6365 26.9381Z" fill="white"/>
<path d="M61.6541 23.4433C62.1815 23.5711 61.9666 24.5869 62.5915 24.6763C62.5915 24.2738 62.5818 23.8841 62.5964 23.4881C62.6063 23.1367 62.6453 22.7854 62.6745 22.3638C63.1774 22.6128 63.3289 23.0153 63.3092 23.5967C63.2897 24.2419 63.319 24.8871 63.2995 25.5323C63.2897 25.871 63.4411 26.382 63.1042 26.4842C62.7966 26.58 62.4696 26.3564 62.2254 25.9923C61.8885 25.494 61.8055 24.7402 61.2977 24.4144C61.1904 23.9608 61.6835 23.8649 61.6541 23.4433Z" fill="white"/>
<path d="M40.5277 22.7213C41.0501 22.9705 41.6995 22.6319 42.1291 23.3155C42.007 23.3346 41.8801 23.3346 41.7629 23.3729C41.5041 23.4688 41.0794 23.06 41.011 23.718C40.9426 24.3695 41.3138 24.3887 41.68 24.3887C41.8899 24.3887 42.1633 24.3695 42.134 24.7911C42.1145 25.0978 41.8899 25.0914 41.7043 25.1234C41.4211 25.1681 41.0012 24.9892 41.0208 25.628C41.0452 26.3372 41.5139 26.0369 41.8118 26.1199C42.051 26.1903 42.4709 25.9283 42.4367 26.516C42.4123 26.944 42.0461 26.8035 41.8167 26.8163C40.4496 26.9057 40.4349 26.9057 40.4545 25.0978C40.4642 24.3121 40.3421 23.5072 40.5277 22.7213Z" fill="white"/>
<path d="M119.362 25.6289C118.894 25.5715 118.879 24.8688 118.439 24.5686C118.439 25.1371 118.444 25.6417 118.439 26.1464C118.434 26.4276 118.444 26.7597 118.132 26.7661C117.863 26.7725 117.761 26.5361 117.761 26.204C117.766 25.2265 117.776 24.2555 117.756 23.2781C117.746 22.882 117.99 22.735 118.136 22.486C118.288 22.6712 118.469 22.8245 118.581 23.0417C118.918 23.7061 119.04 24.594 119.747 24.8496C119.802 25.2648 119.782 25.6161 119.362 25.6289Z" fill="white"/>
<path d="M58.5282 24.4082C58.5379 24.2677 58.5477 24.1207 58.5575 23.9802C59.0457 24.0122 58.7675 24.5168 58.8456 24.7979C58.9188 25.0663 59.0604 25.1748 59.2605 25.162C59.4266 25.1492 59.6219 25.0087 59.5291 24.8171C59.2996 24.3507 59.4168 23.5778 58.826 23.4245C58.8846 23.0922 58.8407 22.5812 59.1824 22.5876C59.4363 22.594 59.6414 22.9453 59.6023 23.3861C59.5096 24.421 60.3347 25.0918 60.2565 26.1394C60.2468 26.2736 60.5691 26.4844 60.3103 26.6825C60.0954 26.8485 60.0027 26.5483 59.8904 26.363C59.5633 25.8009 59.1336 25.935 58.7089 26.082C58.5087 26.1522 58.3866 26.7144 58.1083 26.2736C57.9032 25.9478 58.123 25.6795 58.2304 25.3984C58.2841 25.2579 58.3085 25.0918 58.3427 24.9384C58.577 24.8618 58.7479 24.7468 58.5282 24.4082Z" fill="white"/>
<path d="M85.8477 22.6892C86.2724 22.6061 86.5459 22.8617 86.7265 23.3472C86.8242 23.6091 86.7948 24.0307 87.161 23.9797C87.1561 24.069 87.1464 24.1521 87.1415 24.2415C86.8583 24.6121 86.8388 25.1103 86.8096 25.5831C86.7704 26.2411 86.5264 26.618 86.0332 26.7266C85.96 26.5988 85.8868 26.4775 85.8184 26.3561C85.9112 26.1516 85.9844 25.9217 86.1065 25.7556C86.5019 25.219 86.5116 24.5866 86.2871 23.9988C86.0576 23.392 85.5987 23.2897 85.1105 23.443C84.6417 23.4941 84.7198 23.9541 84.7198 24.3438C84.7101 25.1103 84.7101 25.8706 84.7101 26.6372C84.3048 25.3276 84.1828 24.0179 84.7492 22.7212C85.1105 22.7914 85.4815 23.0853 85.8477 22.6892Z" fill="white"/>
<path d="M104.04 25.5647C103.864 25.6221 103.65 25.6221 103.615 25.9288C103.562 26.3505 103.44 26.8105 103.083 26.7082C102.746 26.6124 102.912 26.0949 102.902 25.7628C102.878 25.0025 102.878 24.2359 102.902 23.4757C102.912 23.0605 102.78 22.4344 103.21 22.3513C103.664 22.2684 104.26 21.885 104.577 22.7666C104.475 22.9582 104.231 23.003 104.231 23.3097C103.933 23.5332 103.278 23.1307 103.361 23.9867C103.43 24.7279 103.942 24.6512 104.382 24.5808C104.484 25.028 104.021 25.1623 104.04 25.5647Z" fill="white"/>
<path d="M110.587 26.6126C110.308 26.4081 110.392 26.0504 110.386 25.7438C110.382 25.2647 110.196 25.1178 109.859 25.1242C109.527 25.1306 109.224 25.1433 109.224 25.7311C109.224 25.9291 109.219 26.1335 109.19 26.3315C109.161 26.5424 109.058 26.702 108.883 26.7212C108.682 26.734 108.643 26.5232 108.6 26.3315C108.487 25.8716 108.619 23.0607 108.785 22.5049C109.498 22.8499 108.917 25.0794 110.353 24.3575C110.532 24.4661 110.713 24.5747 110.894 24.677C110.894 24.8175 110.894 24.9644 110.894 25.105C110.323 25.4435 110.68 26.1079 110.587 26.6126Z" fill="white"/>
<path d="M87.1397 24.2424C87.1445 24.1529 87.1543 24.0698 87.1591 23.9805C86.9981 23.1628 87.3789 22.7219 87.8476 22.3514C88.1454 22.1151 88.3554 22.3451 88.5799 22.6006C88.7264 22.7667 88.8826 22.888 88.8143 23.1755C88.7557 23.4183 88.5897 23.3991 88.4335 23.4055C88.2284 23.4183 87.9355 23.316 87.9306 23.7185C87.9306 24.0316 88.1112 24.236 88.3797 24.3893C89.3319 24.9259 89.4735 25.6862 88.8436 26.6124C88.8339 26.293 88.7167 26.1142 88.4676 26.1078C88.5165 25.5903 88.5116 25.1303 87.9598 25.1239C87.5107 25.1239 87.4326 24.5106 87.1397 24.2424Z" fill="white"/>
<path d="M76.1102 25.635C76.0271 25.9863 76.242 26.4463 75.8709 26.7401C75.4315 26.3249 76.1541 25.0281 75.0311 25.06C73.957 25.0919 74.6797 26.3057 74.1279 26.7976C74.1279 25.3411 74.1279 23.9868 74.1279 22.5494C74.6747 23.0157 74.0059 24.8747 75.3242 24.3893C76.1346 24.089 75.412 23.0668 75.8465 22.5877C76.2469 22.9072 76.0419 23.4565 76.1151 23.8973C76.1102 24.4786 76.1102 25.06 76.1102 25.635Z" fill="white"/>
<path d="M70.4762 23.6733C70.6326 24.0246 71.155 24.0374 71.0036 24.6635C70.5983 25.002 70.1443 25.1746 69.5828 25.2704C69.9539 25.7495 70.6081 25.2064 70.6716 26.0689C69.8953 25.9667 69.2459 26.3053 68.6308 26.9377C68.1425 27.4424 67.5614 27.6596 67.1074 26.7652C67.5078 26.2286 68.2401 27.1038 68.5526 26.1903C68.826 26.1136 69.2118 26.235 69.0653 25.5259C68.9725 25.0915 69.1873 24.7721 69.5291 24.6379C69.9246 24.7018 70.2468 24.6763 70.1247 23.9607C70.0515 23.5072 70.2419 23.5392 70.4762 23.6733Z" fill="white"/>
<path d="M91.4165 26.6631C90.8745 25.328 90.9674 24.0056 91.4605 22.696C91.8999 22.9323 92.3393 22.926 92.7787 22.6896C92.9301 22.7215 93.1254 22.7088 93.096 22.9963C93.0717 23.2774 92.9008 23.3923 92.6957 23.3987C92.3979 23.4115 92.1 23.073 91.8071 23.4179C91.3091 23.75 91.3091 24.0759 91.8071 24.4081C92.2612 24.9511 92.6566 24.4592 93.1059 24.2484C93.0228 24.9894 94.0091 25.609 93.1595 26.3629C93.0277 26.3629 92.9008 26.3565 92.769 26.3565C92.9398 25.3472 92.603 24.983 91.8559 25.1556C91.021 25.3089 91.7827 26.2671 91.4165 26.6631Z" fill="white"/>
<path d="M72.3472 26.8353C72.2252 26.8225 72.0982 26.8098 71.9761 26.7906C71.6393 26.7332 71.5856 26.4457 71.6637 26.0879C71.7907 25.4874 71.9664 26.056 72.1226 26.0624C72.4106 26.0815 72.7916 26.3498 72.9234 25.8132C73.0503 25.283 72.7232 25.2063 72.3911 25.0786C71.7809 24.8422 71.5026 24.2736 71.6442 23.4176C71.8736 23.4112 72.0542 22.4657 72.3325 23.3537C71.9761 24.0309 72.4693 24.1714 72.7476 24.3631C73.8071 25.0977 73.8949 25.5768 73.1382 26.7778C72.8697 26.6245 72.5962 26.5096 72.3472 26.8353Z" fill="white"/>
<path d="M55.8151 22.952C55.859 23.3864 55.8346 23.8656 55.9713 24.2489C56.0787 24.5492 56.4254 24.3831 56.6646 24.3895C56.9819 24.3958 57.0845 24.0956 57.1383 23.7634C57.2017 23.38 57.0796 22.9329 57.4653 22.5177C57.4653 23.9679 57.4653 25.3221 57.4653 27.0406C57.0162 26.1782 57.3677 24.6002 56.1715 25.1049C55.5563 25.3669 56.0739 26.1526 55.61 26.6445C55.3414 25.5329 55.6686 24.4405 55.4489 23.4376C55.4879 23.2843 55.527 23.131 55.5661 22.9776C55.6442 22.9712 55.7321 22.9648 55.8151 22.952Z" fill="white"/>
<path d="M115.052 24.7085C114.388 24.8809 114.827 25.5517 114.725 25.9798C114.647 26.2991 114.798 26.7783 114.369 26.7911C113.954 26.8103 113.983 26.3822 113.983 26.0181C113.983 25.2132 114.002 24.4019 113.977 23.597C113.958 23.0028 114.139 22.3767 114.54 22.4215C114.964 22.4726 114.988 23.1562 114.91 23.6991C114.949 24.0377 114.998 24.3699 115.052 24.7085Z" fill="white"/>
<path d="M79.2794 25.6219C79.2306 24.6573 79.6993 23.9547 80.0069 23.1688C80.0752 23.961 80.4903 23.9801 80.954 23.8908C80.9639 24.0504 80.9688 24.2101 80.9785 24.3635C80.5 25.0214 80.9688 25.6475 81.0175 26.2927C80.6172 26.2927 80.2168 26.2927 79.8164 26.2927C79.8507 25.7817 80.0069 25.1045 79.2794 25.6219ZM80.1095 25.2259C80.1241 25.1557 80.1338 25.1109 80.1485 25.0662C80.1241 25.0726 80.1045 25.0853 80.0801 25.0917C80.085 25.1301 80.0947 25.162 80.1095 25.2259Z" fill="white"/>
<path d="M126.516 24.4014C126.608 24.4014 126.701 24.3822 126.794 24.4014C127.033 24.4589 127.443 24.2162 127.434 24.7783C127.424 25.2191 127.058 25.0594 126.833 25.0914C126.711 25.1105 126.589 25.1106 126.467 25.1232C126.154 25.1552 126.179 25.4555 126.169 25.7365C126.16 26.0688 126.306 26.1327 126.516 26.1391C126.824 26.1518 127.13 26.1773 127.434 26.1965C127.428 26.3626 127.428 26.5351 127.424 26.7012C127.301 26.7268 127.184 26.7842 127.062 26.7842C125.754 26.8034 125.749 26.8034 125.754 25.1168C125.759 24.3183 125.798 23.5262 125.823 22.7277C126.228 22.8108 126.125 23.2004 126.13 23.5454C126.135 23.9159 126.032 24.3886 126.516 24.4014Z" fill="white"/>
<path d="M77.3947 23.3987C77.0482 23.8267 77.014 24.3825 77.0579 24.9447C77.136 25.9923 77.5852 26.4267 78.298 25.9732C78.8107 25.6474 78.6936 26.0051 78.7082 26.3501C78.2785 26.497 77.844 26.6503 77.4143 26.7973C76.8334 26.7782 76.6575 26.299 76.638 25.6346C76.638 25.0533 76.6332 24.4784 76.6332 23.897C76.7064 23.5776 76.7796 23.2582 76.848 22.9387C77.0335 23.0921 77.2142 23.2454 77.3947 23.3987Z" fill="white"/>
<path d="M49.1128 26.612C47.4674 26.58 47.4772 26.58 47.5064 24.3122C47.5113 23.8778 47.3502 23.405 47.8042 23.1815C47.7506 23.9289 47.7701 24.5741 48.5854 24.4207C48.7661 24.3889 49.1031 24.3186 49.1079 24.7019C49.1177 25.1555 48.771 25.0596 48.5416 25.0979C48.4195 25.1171 48.2925 25.1107 48.1704 25.1107C47.814 25.1043 47.7945 25.411 47.7945 25.7623C47.7994 26.1968 48.0436 26.0817 48.2388 26.1712C48.5317 26.3117 49.0639 25.6793 49.1128 26.612Z" fill="white"/>
<path d="M125.348 22.7092C125.514 23.3799 125.167 23.4055 124.816 23.4247C124.367 23.5205 124.46 23.974 124.454 24.3574C124.445 25.1559 124.44 25.9481 124.435 26.7466C124.196 26.7913 124.098 26.6317 124.084 26.3441C124.035 25.0984 124.269 23.776 123.547 22.7028C124.147 22.6965 124.748 22.7028 125.348 22.7092Z" fill="white"/>
<path d="M126.518 24.4014C126.039 24.3886 126.137 23.9159 126.137 23.5454C126.132 23.2004 126.234 22.8108 125.829 22.7277C126.142 22.2549 127.475 22.0186 127.695 22.4339C127.782 22.6063 127.807 22.9257 127.749 23.1173C127.636 23.5006 127.323 23.4049 127.095 23.3857C126.464 23.3346 126.186 23.5646 126.518 24.4014Z" fill="white"/>
<path d="M38.3848 26.7144C37.9795 26.7719 38.0381 26.3822 38.0381 26.0755C38.043 25.0344 38.0576 23.9931 38.0674 22.9518C38.2432 22.9454 38.3799 23.0283 38.458 23.2456C38.4726 23.6416 38.2138 24.1847 38.6435 24.3827C38.9706 24.5296 39.3954 24.5808 39.5175 23.9036L39.6005 23.9227L39.6835 23.9164C39.7079 24.0824 39.7323 24.2485 39.7567 24.421C39.7421 24.6637 39.7275 24.9001 39.7127 25.1429L39.7226 25.1237C39.2147 25.2834 38.2627 24.421 38.4189 26.0883C38.414 26.2991 38.3994 26.51 38.3848 26.7144Z" fill="white"/>
<path d="M82.443 24.4017C82.9752 24.6571 83.483 24.6699 83.9566 24.1971C84.4887 24.983 83.7564 25.3855 83.5757 25.8837C83.3854 26.4204 83.0923 25.7751 82.8385 25.6601C82.7262 25.6091 82.5944 25.6346 82.4723 25.6218C82.3454 25.5451 82.2184 25.4684 82.0963 25.3918C82.0963 25.1363 82.0963 24.8871 82.0963 24.6316C82.2672 24.6955 82.3405 24.5102 82.443 24.4017Z" fill="white"/>
<path d="M61.6526 23.4434C61.6868 23.8651 61.1937 23.9545 61.3012 24.4208C61.3012 25.1747 61.3012 25.9285 61.3012 26.6824C61.2035 26.6824 61.1058 26.6824 61.0081 26.6824C60.8129 25.3024 60.8764 23.9098 60.9886 22.4341C61.3842 22.6896 61.6282 22.9516 61.6526 23.4434Z" fill="white"/>
<path d="M50.2338 25.647C50.2338 25.2318 50.229 24.8165 50.229 24.3949C50.5951 24.3693 51.059 24.676 51.2006 23.9031C51.4692 23.9413 51.5375 24.1905 51.5473 24.4908C51.2397 25.1616 51.2787 25.8131 51.5961 26.4967C51.0102 26.5414 50.9223 25.251 50.2338 25.647Z" fill="white"/>
<path d="M128.128 23.9293C127.762 23.0669 128.259 22.7027 128.694 22.345C129.08 22.032 129.387 22.3066 129.671 22.6644C129.788 22.8113 129.9 22.9391 129.846 23.1627C129.788 23.399 129.622 23.3799 129.476 23.431C129.168 23.5268 128.684 23.0797 128.601 23.8974C128.44 23.9102 128.284 23.9229 128.128 23.9293Z" fill="white"/>
<path d="M122.389 22.7086C123.448 23.373 123.643 24.5612 122.955 26.1073C122.95 25.8964 122.906 25.7112 122.741 25.6089C122.745 24.8424 122.842 24.0502 122.394 23.405C122.149 23.1814 122.116 22.9514 122.389 22.7086Z" fill="white"/>
<path d="M68.5595 26.1968C68.247 27.1103 67.5146 26.2287 67.1143 26.7718C66.6993 25.526 66.9728 24.2356 66.958 22.9579C67.0655 22.9515 67.1777 22.9451 67.2852 22.9387C67.2949 23.4243 67.3096 23.9034 67.3144 24.3889C67.3144 26.101 67.3144 26.101 68.5595 26.1968Z" fill="white"/>
<path d="M122.743 25.6155C122.909 25.7113 122.952 25.8966 122.957 26.1138C122.792 26.8356 122.278 27.0592 121.839 27.0976C121.643 27.1167 121 26.9954 121.068 26.2223C121.078 26.0115 121.092 25.7943 121.102 25.5835C121.639 26.3502 122.186 26.2351 122.743 25.6155Z" fill="white"/>
<path d="M116.013 24.8877C116.052 24.1913 115.906 23.4695 116.111 22.7923C116.204 22.7923 116.297 22.7859 116.389 22.7859C116.389 23.9933 116.404 25.1942 116.379 26.4017C116.37 26.8488 116.155 26.7786 115.931 26.587C115.657 26.357 115.657 25.9737 115.574 25.6351C115.964 25.6287 116.048 25.3157 116.013 24.8877Z" fill="white"/>
<path d="M42.8975 23.2004C43.4053 22.7787 43.9033 22.472 44.3622 23.2961C43.8935 23.2899 43.8544 23.6604 43.8447 24.1714C43.8349 25.0146 43.9911 25.8899 43.6201 27.0141C43.3564 25.8771 43.4736 25.0082 43.4638 24.165C43.4589 23.6156 43.4248 23.1812 42.8975 23.2004Z" fill="white"/>
<path d="M107.618 23.4624C107.613 24.3951 107.613 25.3278 107.603 26.2605C107.603 26.516 107.544 26.778 107.31 26.7716C107.076 26.7652 107.022 26.5096 107.017 26.2541C107.007 25.3214 107.007 24.3887 107.002 23.4561C107.203 23.4561 107.408 23.4561 107.618 23.4624Z" fill="white"/>
<path d="M70.4785 23.6738C70.2442 23.5333 70.0537 23.5077 70.1319 23.9677C70.2539 24.6831 69.9317 24.7087 69.5362 24.6448C69.5509 24.1721 69.4971 23.6802 69.5947 23.2393C69.668 22.9008 69.9073 22.3323 70.1562 22.4664C70.4443 22.6197 70.8789 23.0477 70.4785 23.6738Z" fill="white"/>
<path d="M38.4595 23.2453C38.3814 23.0345 38.2447 22.9514 38.0689 22.9514C38.0347 22.204 38.44 22.3317 38.7964 22.2743C39.1821 22.2104 39.3628 22.7022 39.6996 22.7214C39.7582 23.0217 39.7192 23.405 40.0512 23.488C40.0512 23.603 40.0463 23.7244 40.0463 23.8394C39.9242 23.8649 39.8071 23.8841 39.685 23.9097L39.602 23.9161L39.519 23.8969C39.3726 23.1238 38.894 23.2517 38.4595 23.2453Z" fill="white"/>
<path d="M45.2205 23.29L45.2059 23.2389C45.2547 23.1431 45.3085 23.0408 45.3572 22.9451C45.7284 22.9451 46.0994 22.9451 46.4705 22.9451C46.4802 23.0408 46.4948 23.1367 46.5046 23.2325C46.0945 23.3731 46.1433 23.8011 46.1433 24.2036C46.1433 25.0341 46.1433 25.8645 45.9822 26.7078C45.6258 25.6601 45.8016 24.5293 45.7136 23.4497C45.699 23.29 45.655 23.2134 45.533 23.322C45.4304 23.3092 45.328 23.3028 45.2205 23.29Z" fill="white"/>
<path d="M104.039 25.5649C104.019 25.1624 104.483 25.0346 104.366 24.5747C104.673 24.0828 104.791 23.6292 104.219 23.3098C104.219 23.0031 104.463 22.9648 104.566 22.7667C105.337 23.329 105.035 24.2552 104.825 24.9132C104.683 25.3668 104.669 25.8076 104.571 26.2485C104.151 26.325 104.273 25.7118 104.039 25.5649Z" fill="white"/>
<path d="M62.5861 16.0842C62.5764 15.5794 62.7571 15.3686 63.1476 15.3878C63.7921 15.4197 64.4317 15.4134 65.0762 15.4261C64.3976 16.5953 63.4162 15.8669 62.5861 16.0842Z" fill="white"/>
<path d="M88.4697 26.1136C88.7236 26.12 88.8407 26.2989 88.8456 26.6184C88.5674 26.7908 88.3574 27.468 88.0351 27.1039C87.7568 26.7908 86.9659 27.0017 87.2198 26.1264C87.4053 25.4812 87.7911 26.3628 88.1035 26.1328C88.1962 26.069 88.3476 26.12 88.4697 26.1136Z" fill="white"/>
<path d="M128.128 23.9287C128.284 23.9159 128.44 23.9095 128.597 23.8967C128.87 24.5611 129.852 24.0118 129.852 25.1425C129.577 25.1552 129.515 25.4108 129.48 25.6982C129.09 25.0275 128.103 25.1361 128.128 23.9287Z" fill="white"/>
<path d="M77.3958 23.3988C77.2151 23.2455 77.0297 23.0922 76.849 22.9388C77.3323 22.6833 77.718 21.7762 78.3625 22.5491C78.5138 22.728 78.8019 22.7855 78.7043 23.1688C78.6067 23.5457 78.3479 23.3924 78.1428 23.3924C77.8987 23.3988 77.6497 23.3988 77.3958 23.3988Z" fill="white"/>
<path d="M85.8184 26.3501C85.8917 26.4716 85.9649 26.5993 86.0332 26.7206C85.7306 26.9506 85.4034 26.8485 85.0812 26.8229C84.9982 26.6313 84.8518 26.6057 84.7053 26.6057V26.6249C84.7102 25.8647 84.7052 25.098 84.715 24.3315C84.7199 23.9418 84.6418 23.4818 85.1056 23.4307C85.1007 24.1206 85.13 24.8106 85.0861 25.5005C85.0421 26.2544 85.3302 26.4268 85.8184 26.3501Z" fill="white"/>
<path d="M54.5472 23.2457C54.0835 23.3479 54.2299 23.8334 54.2104 24.1975C54.1665 25.028 54.2885 25.8648 54.0005 26.7017C53.6977 25.654 53.8638 24.5297 53.7808 23.4437C53.6489 23.2648 53.5171 23.086 53.3901 22.9071C53.6441 22.8752 53.8979 22.8496 54.1518 22.8176C54.2787 22.9709 54.4105 23.1115 54.5472 23.2457Z" fill="white"/>
<path d="M70.6738 26.0685C70.6105 25.2062 69.9561 25.7491 69.5851 25.27C70.1417 25.1742 70.6006 25.0017 71.0059 24.6631C71.0742 24.9953 71.0059 25.3658 71.2158 25.666C71.4112 25.9408 71.5333 26.4327 71.3184 26.618C70.9473 26.9437 70.8838 26.2921 70.6738 26.0685Z" fill="white"/>
<path d="M38.3842 26.7141C38.399 26.5032 38.4136 26.2988 38.4282 26.088C38.9995 26.0752 39.7611 26.5096 39.7318 25.1233L39.722 25.1425C40.3275 25.1041 40.0882 25.6919 40.098 26.0497C40.1078 26.4265 40.0052 26.7651 39.6488 26.7907C39.224 26.829 38.7993 26.8993 38.3842 26.7141Z" fill="white"/>
<path d="M119.36 25.6282C119.779 25.6154 119.794 25.2641 119.74 24.8552C119.75 24.2164 119.755 23.5776 119.765 22.9387C119.867 22.9515 119.969 22.9643 120.077 22.9835C120.106 23.2965 120.131 23.6095 120.16 23.9226C120.16 24.4911 120.155 25.0597 120.155 25.6282C119.994 25.9413 120.341 26.5929 119.759 26.6184C119.784 26.299 119.667 26.1265 119.422 26.101C119.403 25.9349 119.383 25.7816 119.36 25.6282Z" fill="white"/>
<path d="M72.333 23.3609C72.0547 22.4729 71.8741 23.4184 71.6445 23.4248C71.586 23.067 71.7276 22.8562 71.9179 22.6134C72.2549 22.1919 72.6064 22.096 72.9823 22.4154C73.1434 22.556 73.3876 22.8242 73.2997 23.0862C73.0995 23.6867 72.6699 23.3353 72.333 23.3609Z" fill="white"/>
<path d="M122.386 22.7085C122.113 22.9513 122.147 23.1813 122.396 23.4111C121.884 23.2578 121.473 23.5326 121.103 23.9478C121.093 23.7306 121.083 23.507 121.073 23.2898C121.42 22.1527 121.845 21.961 122.386 22.7085Z" fill="white"/>
<path d="M127.806 5.85635C127.011 5.85635 126.215 5.85635 125.419 5.85635C126.172 5.03226 127.054 5.03226 127.806 5.85635Z" fill="white"/>
<path d="M62.2007 19.9429C62.2104 18.9783 62.2153 18.0072 62.2398 17.0426C62.2495 16.6657 62.1274 16.1929 62.5864 16.0844C62.5913 17.0937 62.6108 18.0966 62.5962 19.106C62.5864 19.4573 62.7378 19.994 62.2007 19.9429Z" fill="white"/>
<path d="M129.479 25.6982C129.514 25.4108 129.576 25.1616 129.851 25.1425C129.86 25.3021 129.874 25.4619 129.884 25.6216C129.703 25.7685 129.689 25.9282 129.865 26.1007C129.88 26.7203 129.586 26.7395 129.235 26.6565C129.079 26.6118 128.927 26.5798 128.801 26.7459C128.517 26.7587 128.092 27.0206 128.102 26.3562C128.112 25.6216 128.503 26.1134 128.747 26.1134C129.03 26.1134 129.397 26.3115 129.479 25.6982Z" fill="white"/>
<path d="M106.29 22.9648C106.226 21.8725 106.866 22.211 107.256 22.2366C107.657 22.2622 108.355 21.7766 108.326 22.9584C107.642 22.7348 106.968 22.722 106.29 22.9648Z" fill="white"/>
<path d="M54.1502 22.8302C53.8963 22.8621 53.6424 22.8876 53.3885 22.9196C53.2177 22.9387 53.0467 22.9515 52.8759 22.9707C52.8661 22.6449 52.8465 22.2105 53.1834 22.2553C53.7693 22.3382 54.4626 21.7569 54.9265 22.6768L54.8777 22.7407C54.6286 22.696 54.3796 22.6449 54.1502 22.8302Z" fill="white"/>
<path d="M110.898 24.6762C110.717 24.5675 110.537 24.459 110.356 24.3567C110.317 24.1204 110.249 23.8904 110.249 23.654C110.243 23.258 110.214 22.7469 110.654 22.7596C111.079 22.766 110.946 23.2771 110.956 23.6029C110.962 23.9606 110.917 24.3184 110.898 24.6762Z" fill="white"/>
<path d="M124.435 26.7399C124.44 25.9414 124.44 25.1492 124.454 24.3507C124.46 23.9737 124.372 23.5138 124.816 23.418C124.811 24.2676 124.816 25.1237 124.797 25.9733C124.791 26.2991 124.918 26.7783 124.435 26.7399Z" fill="white"/>
<path d="M121.072 23.29C121.082 23.5072 121.092 23.7308 121.102 23.948C121.102 24.491 121.102 25.0404 121.102 25.5834C121.092 25.7942 121.077 26.0114 121.067 26.2222C121.004 26.1966 120.94 26.1712 120.882 26.1392C120.872 25.9284 120.852 25.724 120.667 25.6537C120.603 25.5642 120.54 25.4812 120.476 25.3917C120.492 24.8999 120.511 24.4143 120.525 23.9224C120.749 23.7755 120.735 23.2709 121.072 23.29Z" fill="white"/>
<path d="M81.0136 26.2925C80.9649 25.6536 80.4961 25.0213 80.9746 24.3633C81.1308 24.6635 81.2822 24.9702 81.4384 25.2704C81.458 25.4492 81.4775 25.6346 81.497 25.8134C81.5019 25.9156 81.5117 26.0179 81.5166 26.12C81.4531 26.318 81.3896 26.5161 81.3262 26.7141C81.1699 26.6503 81.0576 26.5161 81.0136 26.2925Z" fill="white"/>
<path d="M92.7805 26.356C92.9123 26.356 93.0393 26.3624 93.1711 26.3624C92.6731 27.3271 92.0286 26.8096 91.4231 26.6627C91.7893 26.2666 91.0277 25.3084 91.8674 25.155C91.6625 26.2091 92.0676 26.4838 92.7805 26.356Z" fill="white"/>
<path d="M116.014 24.8871C116.049 25.3151 115.965 25.6282 115.574 25.6346C115.277 25.4428 115.145 25.0915 115.048 24.7082C114.999 24.3697 114.95 24.0374 114.9 23.6989C115.511 23.718 115.424 24.8423 116.014 24.8871Z" fill="white"/>
<path d="M58.8277 23.4243C59.4185 23.5776 59.3013 24.3506 59.5308 24.8169C59.6235 25.0086 59.4233 25.1491 59.2622 25.1619C59.062 25.1747 58.9204 25.0661 58.8472 24.7978C58.7691 24.5166 59.0523 24.012 58.5591 23.9801C58.4957 23.6734 58.5397 23.4499 58.8277 23.4243Z" fill="white"/>
<path d="M106.289 22.9647C106.968 22.7221 107.647 22.7411 108.325 22.9584C108.233 23.4695 107.866 23.3226 107.617 23.4631C107.412 23.4631 107.207 23.4567 106.997 23.4567C106.758 23.297 106.343 23.5716 106.289 22.9647Z" fill="white"/>
<path d="M96.8525 23.4692C96.8916 23.335 96.9258 23.2072 96.9648 23.0731C97.0624 23.1881 97.1602 23.303 97.2578 23.4181C97.1602 24.4594 97.3554 25.5454 96.8525 26.5483C96.8525 25.5262 96.8525 24.4977 96.8525 23.4692Z" fill="white"/>
<path d="M125.351 22.7084C124.75 22.702 124.15 22.702 123.549 22.6956C123.515 22.6318 123.447 22.5295 123.457 22.5167C123.827 22.0185 124.98 22.1398 125.351 22.7084Z" fill="white"/>
<path d="M80.9531 23.8903C80.4892 23.9798 80.0743 23.9607 80.0059 23.1685C80.0546 22.9002 80.1133 22.5361 80.3476 22.5743C80.4942 22.5935 80.748 22.7405 80.7772 23.1046C80.7968 23.3729 80.8896 23.6284 80.9531 23.8903Z" fill="white"/>
<path d="M126.157 19.9618C126.588 19.6616 127.012 19.6488 127.441 19.9682C127.012 20.6134 126.582 20.5751 126.157 19.9618Z" fill="white"/>
<path d="M79.2796 25.6219C80.0071 25.1045 79.8509 25.7816 79.8166 26.2927C79.6067 26.4588 79.4505 26.9954 79.1722 26.676C78.933 26.3948 79.0843 25.9541 79.2796 25.6219Z" fill="white"/>
<path d="M77.4139 26.7972C77.8436 26.6503 78.2781 26.497 78.7077 26.3501C78.2049 27.4616 77.9217 27.5639 77.4139 26.7972Z" fill="white"/>
<path d="M92.7837 22.6895C92.3443 22.9258 91.9049 22.9258 91.4655 22.6958C91.9 21.9357 92.3394 21.9804 92.7837 22.6895Z" fill="white"/>
<path d="M128.013 19.9239C128.179 19.1829 128.741 19.1126 129.151 18.7932C129.028 19.6109 128.545 19.8089 128.013 19.9239Z" fill="white"/>
<path d="M85.8468 22.6897C85.4854 23.0857 85.1095 22.7918 84.7433 22.7152C85.0997 21.9295 85.4708 22.0316 85.8468 22.6897Z" fill="white"/>
<path d="M110.585 26.6119C110.678 26.1073 110.321 25.4429 110.898 25.1044C110.917 25.5387 110.956 25.9795 110.946 26.4139C110.937 26.7206 110.799 26.8483 110.585 26.6119Z" fill="white"/>
<path d="M72.3463 26.8353C72.6002 26.5095 72.8688 26.618 73.1422 26.7841C72.9029 27.4933 72.6393 27.653 72.3463 26.8353Z" fill="white"/>
<path d="M124.081 16.646C124.051 17.1635 124.028 17.6873 123.515 17.8087C123.646 17.3743 123.588 16.7802 124.081 16.646Z" fill="white"/>
<path d="M127.431 12.0276C126.982 12.3789 126.797 12.066 126.703 11.5357C127.035 11.4719 127.333 11.4973 127.431 12.0276Z" fill="white"/>
<path d="M125.427 13.1581C125.711 13.2092 126.091 13.0304 126.14 13.6564C125.735 13.8928 125.589 13.503 125.427 13.1581Z" fill="white"/>
<path d="M129.709 14.3912C129.181 14.2699 129.171 13.7269 129.132 13.203C129.64 13.3371 129.504 14.0079 129.709 14.3912Z" fill="white"/>
<path d="M129.15 18.7993C129.272 18.3331 129.173 17.6942 129.726 17.5664C129.565 18.0072 129.648 18.6333 129.15 18.7993Z" fill="white"/>
<path d="M126.527 18.2948C126.234 18.2565 125.843 18.4864 125.771 17.8349C126.161 17.5985 126.322 18.0138 126.527 18.2948Z" fill="white"/>
<path d="M82.0976 25.3916C82.2246 25.4683 82.3515 25.5449 82.4736 25.6216C82.2881 25.909 82.7275 26.6118 82.0879 26.599C82.0927 26.2029 82.0976 25.7941 82.0976 25.3916Z" fill="white"/>
<path d="M55.5639 22.9835C55.5248 23.1368 55.4858 23.2902 55.4467 23.4435C55.2563 23.4115 55.0659 23.386 54.8755 23.354C54.8755 23.1496 54.8804 22.9452 54.8804 22.7343L54.9292 22.6705C55.1098 22.6705 55.2905 22.6769 55.4711 22.6769L55.5346 22.7535C55.52 22.843 55.5297 22.9133 55.5639 22.9835Z" fill="white"/>
<path d="M54.8799 22.7407C54.8799 22.9451 54.8751 23.1495 54.8751 23.3603C54.7531 23.3987 54.631 23.4243 54.548 23.2517C54.4162 23.1112 54.2794 22.9707 54.1476 22.8364C54.382 22.6448 54.631 22.6959 54.8799 22.7407Z" fill="white"/>
<path d="M124.732 19.3162C125.098 19.2395 125.41 19.2523 125.4 19.9039C125.024 20.0061 124.927 19.5654 124.732 19.3162Z" fill="white"/>
<path d="M126.644 13.6885C126.971 13.6246 127.265 13.631 127.274 14.2123C126.918 14.3464 126.805 13.9695 126.644 13.6885Z" fill="white"/>
<path d="M52.878 22.9645C53.049 22.9453 53.2198 22.9325 53.3908 22.9133C53.5225 23.0922 53.6544 23.271 53.7813 23.4499C53.4786 23.2902 52.9806 23.763 52.878 22.9645Z" fill="white"/>
<path d="M91.8152 24.4081C91.3122 24.0824 91.3122 23.7502 91.8152 23.418C91.8152 23.7502 91.8152 24.0824 91.8152 24.4081Z" fill="white"/>
<path d="M128.415 17.0935C128.664 17.8218 128.244 17.7387 127.922 17.7707C128.107 17.5663 128.152 17.1958 128.415 17.0935Z" fill="white"/>
<path d="M47.7983 22.926C48.2378 22.9324 48.6772 22.9324 49.1166 22.9388C48.7358 23.5073 48.2475 23.1752 47.8033 23.1944C47.7934 23.1113 47.7885 23.0283 47.7788 22.9452L47.7983 22.926Z" fill="white"/>
<path d="M125.032 17.304C124.646 17.3743 124.418 17.2082 124.451 16.646C124.778 16.6716 124.817 17.1188 125.032 17.304Z" fill="white"/>
<path d="M128.751 6.38633C128.287 6.68659 128.439 6.16913 128.39 5.92638C128.653 5.89443 128.683 6.16913 128.751 6.38633Z" fill="white"/>
<path d="M67.2818 22.9384C67.1745 22.9448 67.0621 22.9512 66.9548 22.9576C66.9694 22.7404 66.8766 22.4402 67.15 22.4082C67.1793 22.4082 67.2378 22.7531 67.2818 22.9384Z" fill="white"/>
<path d="M125.094 8.8658C125.016 8.46972 124.967 8.0992 125.416 8.06726C125.406 8.39945 125.323 8.68693 125.094 8.8658Z" fill="white"/>
<path d="M127.832 14.3849C128.325 14.0654 128.15 14.6212 128.208 14.8703C127.939 14.8959 127.822 14.7234 127.832 14.3849Z" fill="white"/>
<path d="M127.458 7.54275C127.937 7.17222 127.776 7.7344 127.83 7.97715C127.575 8.02187 127.507 7.79189 127.458 7.54275Z" fill="white"/>
<path d="M128.446 12.66C128.139 12.7174 128.016 12.5193 128.007 12.1488C128.378 11.9892 128.329 12.4428 128.446 12.66Z" fill="white"/>
<path d="M128.801 26.7467C128.928 26.5807 129.084 26.6126 129.235 26.6574C129.113 26.7979 129.152 27.1428 128.922 27.1236C128.873 27.1236 128.84 26.8809 128.801 26.7467Z" fill="white"/>
<path d="M120.076 22.9771C119.974 22.9643 119.871 22.9515 119.764 22.9323C119.783 22.7279 119.744 22.3893 119.954 22.4148C120.149 22.4404 120.095 22.7599 120.076 22.9771Z" fill="white"/>
<path d="M40.054 23.488C39.7172 23.4049 39.761 23.0216 39.7024 22.7213C40.1321 22.7341 40.1126 23.0983 40.054 23.488Z" fill="white"/>
<path d="M127.427 26.7083C127.433 26.5421 127.433 26.3697 127.437 26.2036C127.642 26.1525 127.832 26.178 127.789 26.5293C127.749 26.8041 127.583 26.7849 127.427 26.7083Z" fill="white"/>
<path d="M39.694 23.9161C39.8161 23.8906 39.9333 23.8714 40.0553 23.8458C40.1139 24.1653 40.0309 24.3697 39.7672 24.4209C39.7428 24.2483 39.7185 24.0822 39.694 23.9161Z" fill="white"/>
<path d="M124.657 12.6726C124.912 12.6535 124.999 12.8579 125.033 13.139C124.745 13.2029 124.686 12.9601 124.657 12.6726Z" fill="white"/>
<path d="M124.114 11.9319C124.369 11.9702 124.48 12.1427 124.432 12.4749C124.207 12.4109 124.09 12.2385 124.114 11.9319Z" fill="white"/>
<path d="M128.217 14.8766C128.426 14.9277 128.665 14.9469 128.441 15.343C128.363 15.1897 128.289 15.03 128.217 14.8766Z" fill="white"/>
<path d="M126.147 11.4594C125.918 11.4658 125.78 11.3317 125.766 11.0187C126.03 10.9676 126.113 11.1784 126.147 11.4594Z" fill="white"/>
<path d="M123.748 10.948C123.987 11.0183 124.066 11.229 124.036 11.5293C123.752 11.491 123.674 11.2866 123.748 10.948Z" fill="white"/>
<path d="M125.62 10.9287C125.303 10.9798 125.225 10.7562 125.264 10.3984C125.468 10.4815 125.542 10.7051 125.62 10.9287Z" fill="white"/>
<path d="M58.5281 24.4077C58.7478 24.7399 58.5769 24.8549 58.3522 24.9379C58.2986 24.7015 58.3279 24.5099 58.5281 24.4077Z" fill="white"/>
<path d="M96.5732 16.5763C96.8076 16.621 96.9053 16.8127 96.8955 17.1129C96.7099 17.0107 96.6269 16.8063 96.5732 16.5763Z" fill="white"/>
<path d="M128.164 8.06664C128.432 8.04109 128.569 8.20719 128.573 8.55854C128.324 8.55216 128.261 8.28385 128.164 8.06664Z" fill="white"/>
<path d="M129.144 8.06734C129.134 7.81181 129.193 7.60739 129.413 7.55627C129.476 7.85652 129.345 7.99068 129.144 8.06734Z" fill="white"/>
<path d="M92.2188 17.0873C92.2188 16.7935 92.3212 16.6146 92.5508 16.5763C92.4873 16.7999 92.4433 17.0491 92.2188 17.0873Z" fill="white"/>
<path d="M125.411 8.07294C125.401 7.72797 125.509 7.5491 125.787 7.58104C125.767 7.87491 125.675 8.08572 125.411 8.07294Z" fill="white"/>
<path d="M124.057 7.52344C124.081 7.81091 124.017 8.02811 123.773 8.0856C123.695 7.74703 123.798 7.56816 124.057 7.52344Z" fill="white"/>
<path d="M55.468 22.6828C55.507 22.5103 55.5118 22.2612 55.7169 22.3443C55.7755 22.3698 55.7902 22.5934 55.8244 22.7339C55.7267 22.7467 55.6291 22.7595 55.5314 22.7659L55.468 22.6828Z" fill="white"/>
<path d="M124.086 18.7804C124.31 18.7868 124.442 18.921 124.452 19.2276C124.228 19.2276 124.164 18.9976 124.086 18.7804Z" fill="white"/>
<path d="M91.8587 18.365C91.8392 18.0839 91.888 17.8667 92.1321 17.8156C92.2199 18.1478 92.0735 18.2819 91.8587 18.365Z" fill="white"/>
<path d="M123.697 18.3013C123.941 18.3013 124.073 18.461 124.083 18.7803C123.809 18.8251 123.726 18.6015 123.697 18.3013Z" fill="white"/>
<path d="M119.429 26.0883C119.674 26.1137 119.791 26.2863 119.766 26.6057C119.526 26.5737 119.424 26.3884 119.429 26.0883Z" fill="white"/>
<path d="M129.865 26.1009C129.689 25.9283 129.709 25.7686 129.884 25.6217C130.04 25.7942 130.04 25.9539 129.865 26.1009Z" fill="white"/>
<path d="M127.831 17.8405C127.817 18.1791 127.665 18.3069 127.416 18.2813C127.49 18.0322 127.592 17.8278 127.831 17.8405Z" fill="white"/>
<path d="M125.481 17.7711C125.204 17.8157 125.023 17.7008 125.028 17.2983C125.179 17.458 125.331 17.6113 125.481 17.7711Z" fill="white"/>
<path d="M46.5096 23.2326C46.4998 23.1367 46.4852 23.0409 46.4754 22.945C46.6317 22.9386 46.7684 22.9834 46.8562 23.175C46.7391 23.1942 46.6219 23.2134 46.5096 23.2326Z" fill="white"/>
<path d="M120.663 25.6539C120.853 25.7305 120.868 25.9349 120.877 26.1394C120.677 26.0756 120.702 25.8392 120.663 25.6539Z" fill="white"/>
<path d="M55.5295 22.7596C55.6272 22.7468 55.7248 22.7341 55.8224 22.7277C55.8372 22.8044 55.8372 22.881 55.8127 22.9513C55.7297 22.964 55.6467 22.9704 55.5589 22.9832C55.5246 22.9129 55.5149 22.8426 55.5295 22.7596Z" fill="white"/>
<path d="M84.7053 26.6119C84.8566 26.6119 84.9982 26.6374 85.0812 26.829C84.925 26.8418 84.7834 26.8164 84.7053 26.6119Z" fill="white"/>
<path d="M45.5317 23.3222C45.6538 23.2136 45.7026 23.2903 45.7123 23.4499C45.6538 23.4052 45.5952 23.3605 45.5317 23.3222Z" fill="white"/>
<path d="M45.3572 22.9387C45.3085 23.0346 45.2547 23.1368 45.2059 23.2326C45.2596 23.1368 45.3085 23.041 45.3572 22.9387Z" fill="white"/>
<path d="M47.7759 22.9516C47.7515 22.9132 47.727 22.8749 47.7026 22.8429C47.7319 22.8749 47.7612 22.9004 47.7905 22.9324C47.7954 22.926 47.7759 22.9516 47.7759 22.9516Z" fill="white"/>
<path d="M82.4411 24.4015C82.3385 24.51 82.2653 24.6953 82.0945 24.6315C82.1969 24.082 81.9089 23.4623 82.2702 22.9641C82.3142 23.1174 82.3629 23.2707 82.4069 23.424C82.4215 23.7499 82.4313 24.0756 82.4411 24.4015Z" fill="white"/>
<path d="M82.415 23.424C82.371 23.2707 82.3223 23.1174 82.2783 22.9641C82.498 23.0279 82.4834 23.2068 82.415 23.424Z" fill="white"/>
<path d="M81.5192 26.1203C81.5143 26.018 81.5046 25.9159 81.4997 25.8136C81.6217 25.9031 81.6852 25.9988 81.5192 26.1203Z" fill="white"/>
<path d="M80.1092 25.226C80.0945 25.1621 80.0848 25.1238 80.0799 25.0919C80.1044 25.0855 80.1239 25.0727 80.1482 25.0663C80.1336 25.111 80.1239 25.1558 80.1092 25.226Z" fill="white"/>
</g>
<defs>
<clipPath id="clip0_3_2446">
<rect width="130" height="32.5" fill="white" transform="translate(0 0.329956)"/>
</clipPath>
</defs>
</svg>
