<svg width="130" height="34" viewBox="0 0 130 34" fill="none" xmlns="http://www.w3.org/2000/svg">
<g clip-path="url(#clip0_3_2435)">
<path d="M17.3329 33.3303C16.7736 32.841 16.5612 32.2079 16.5654 31.3734C16.598 24.5629 16.598 17.7573 16.6143 10.9469C16.6184 9.53681 17.0635 8.95168 18.2476 8.98046C20.3953 9.03801 22.5512 8.76943 24.6866 9.14833C28.1491 9.76702 30.505 13.1291 30.4316 17.2633C30.358 21.2537 27.7163 24.6253 24.3313 25.0954C22.9104 25.292 21.5876 25.0378 20.3096 24.2992C19.5583 23.8628 19.3215 24.0498 19.3132 25.0666C19.2969 27.1289 19.2684 29.196 19.3091 31.2535C19.3255 32.1073 19.1377 32.7835 18.5742 33.3206C18.1577 33.3303 17.7453 33.3303 17.3329 33.3303ZM22.3143 12.2083C21.8448 12.2083 21.3711 12.1986 20.9016 12.2083C19.8032 12.2322 19.3296 12.7549 19.3091 14.0116C19.2929 15.1099 19.2724 16.2129 19.3174 17.3113C19.4153 19.7765 20.9955 21.7477 22.9962 21.9635C25.1112 22.1889 27.0752 20.6398 27.5693 18.3521C28.1083 15.8533 27.1038 13.4888 25.1072 12.5391C24.1967 12.1171 23.2494 12.2275 22.3143 12.2083Z" fill="white"/>
<path d="M33.0692 33.3302C32.5262 32.7882 32.4241 32.0688 32.4282 31.2823C32.4609 24.6781 32.4854 18.0786 32.5099 11.4744C32.518 9.51756 32.8446 9.09071 34.5269 9.14347C36.5848 9.20582 38.6631 8.88927 40.6965 9.32093C43.4933 9.91565 45.3961 11.858 46.1066 15.0907C46.817 18.328 46.0617 21.196 43.8568 23.3591C41.6315 25.5365 39.0918 25.8866 36.4133 24.5629C35.3435 24.0353 35.2129 24.1025 35.2046 25.4693C35.1965 27.431 35.1802 29.3926 35.2129 31.3495C35.2251 32.112 35.0904 32.7643 34.6576 33.3302C34.1308 33.3302 33.6 33.3302 33.0692 33.3302ZM35.2088 15.7813C35.2088 16.3328 35.1843 16.8844 35.2129 17.4311C35.3272 19.8052 36.6624 21.5942 38.6264 22.0449C40.4392 22.4575 42.3746 21.316 43.179 19.364C44.0405 17.2728 43.6322 14.9611 42.146 13.4647C41.0026 12.3184 39.6307 12.2801 38.2303 12.2897C35.2415 12.3089 35.2046 12.3377 35.2088 15.7813Z" fill="white"/>
<path d="M-0.00211334 15.3637C0.287787 15.2103 0.263288 14.8554 0.34495 14.582C1.45964 10.7451 4.64446 8.44297 8.08651 8.99451C11.3163 9.5125 13.8192 12.8026 13.9294 16.7738C13.9907 18.9704 13.954 21.1766 13.9376 23.3732C13.9254 24.5434 13.464 25.2101 12.5371 25.2197C10.4506 25.2485 8.34783 25.3253 6.27362 25.1095C3.22354 24.7929 1.19424 22.8073 0.23879 19.3781C0.18571 19.2006 0.214291 18.956 -0.00211334 18.8744C-0.00211334 17.7042 -0.00211334 16.534 -0.00211334 15.3637ZM11.1652 18.4956C11.161 18.4956 11.1529 18.4956 11.1488 18.4956C11.1488 17.8769 11.1815 17.2582 11.1448 16.6443C10.9896 14.0976 9.26653 12.1744 7.0984 12.0928C5.00785 12.0161 3.09696 13.9153 2.79073 16.3661C2.46816 18.9416 3.72576 21.2053 5.86531 21.8145C7.25356 22.2078 8.67448 22.0111 10.0791 21.9487C10.7405 21.92 11.1121 21.3205 11.157 20.5531C11.1979 19.8721 11.1652 19.1815 11.1652 18.4956Z" fill="white"/>
<path d="M64.9479 18.8408C63.6209 18.8408 62.2979 18.836 60.971 18.8455C60.6892 18.8503 60.3299 18.7448 60.1788 19.1285C59.9951 19.5889 60.2033 19.9966 60.4443 20.3564C61.6609 22.2028 64.0782 22.6776 65.8748 21.4307C66.1238 21.258 66.377 21.0278 66.6506 20.9606C67.3405 20.7976 67.8877 21.1285 68.1654 21.8767C68.4594 22.6681 68.2633 23.3874 67.6673 23.8814C66.0708 25.2051 64.27 25.6033 62.3714 25.2148C58.9662 24.5194 56.6306 20.9271 56.7571 16.6921C56.8674 12.9944 59.5786 9.60348 62.7635 9.17662C66.377 8.69222 69.5373 11.143 70.4193 15.1095C70.4641 15.3108 70.5172 15.5075 70.5418 15.7089C70.8643 18.2748 70.4356 18.86 68.2185 18.86C67.1283 18.86 66.038 18.86 64.9479 18.86C64.9479 18.8552 64.9479 18.8503 64.9479 18.8408ZM63.7433 12.2461C62.3061 12.3421 61.0934 12.9272 60.1625 14.1982C59.9175 14.5291 59.7991 14.9368 59.9543 15.3444C60.1013 15.7329 60.4565 15.6369 60.7342 15.6418C62.6737 15.6754 64.609 15.6993 66.5485 15.7137C66.8955 15.7185 67.3038 15.7521 67.4794 15.3108C67.6509 14.884 67.4059 14.4955 67.1895 14.1885C66.2953 12.9128 65.0867 12.39 63.7433 12.2461Z" fill="white"/>
<path d="M124.379 18.6534C123.056 18.6534 121.729 18.6487 120.406 18.6583C120.096 18.6583 119.7 18.5432 119.545 18.9844C119.381 19.4401 119.577 19.8525 119.826 20.217C121.089 22.0539 123.439 22.4952 125.26 21.2098C125.616 20.9604 125.95 20.6822 126.396 20.7397C127.025 20.8165 127.429 21.2242 127.596 21.9148C127.792 22.7254 127.469 23.3297 126.922 23.7661C125.105 25.2049 123.118 25.507 121.022 24.8356C118.083 23.8956 115.829 20.1595 116.082 16.7158C116.38 12.596 118.915 9.397 122.202 8.98453C125.613 8.55768 128.724 10.8694 129.675 14.5384C129.691 14.6056 129.724 14.6679 129.736 14.7303C130.153 17.1906 130.508 18.9508 127.205 18.6679C126.266 18.5863 125.322 18.6534 124.379 18.6534ZM123.088 15.512C124.06 15.512 125.032 15.536 126.004 15.5072C126.882 15.4784 127.086 14.9988 126.621 14.1116C126.2 13.3107 125.514 12.8934 124.816 12.5241C123.085 11.6128 120.655 12.2507 119.586 13.8958C119.356 14.2459 119.088 14.6439 119.25 15.114C119.414 15.5792 119.826 15.512 120.177 15.512C121.145 15.5216 122.117 15.5169 123.088 15.512Z" fill="white"/>
<path d="M104.625 20.1455C104.625 21.2102 104.649 22.2797 104.617 23.3444C104.584 24.5675 104.131 25.1718 103.114 25.1766C101.028 25.1862 98.9329 25.3396 96.8505 25.0902C93.09 24.6346 90.5544 21.1479 90.7014 16.6827C90.8361 12.5101 93.7842 9.07609 97.3486 8.93221C101.17 8.77874 104.163 11.7379 104.527 16.1312C104.637 17.4597 104.543 18.8073 104.543 20.1455C104.572 20.1455 104.6 20.1455 104.625 20.1455ZM98.6756 21.9776C99.3698 21.9776 99.9292 22.0064 100.484 21.9728C101.35 21.9201 101.84 21.3541 101.861 20.3373C101.885 19.1383 101.905 17.9297 101.84 16.7355C101.701 14.347 100.362 12.606 98.3981 12.16C96.5892 11.7475 94.662 12.9226 93.8168 14.9561C92.9879 16.9513 93.3962 19.311 94.8294 20.7689C95.985 21.9393 97.3731 22.0735 98.6756 21.9776Z" fill="white"/>
<path d="M107.155 10.0593C107.155 7.61806 107.147 5.17205 107.159 2.73083C107.164 1.52701 107.641 0.865149 108.495 0.831576C109.365 0.793208 109.912 1.49344 109.928 2.74522C109.949 4.42865 109.972 6.11687 109.919 7.80031C109.891 8.68759 110.205 8.97056 110.9 8.92739C111.398 8.89861 111.904 8.89861 112.402 8.93219C113.186 8.98495 113.734 9.67079 113.716 10.5341C113.7 11.359 113.178 12.016 112.439 12.0737C111.879 12.1168 111.32 12.0976 110.761 12.088C110.189 12.0784 109.903 12.3086 109.928 13.0568C109.968 14.3613 109.928 15.6707 109.944 16.9801C109.981 19.7618 111.537 21.7042 113.909 21.9488C115.011 22.064 115.591 22.7402 115.489 23.7762C115.391 24.7498 114.688 25.2677 113.64 25.143C109.797 24.6826 107.2 21.3637 107.176 16.8697C107.147 14.6012 107.155 12.3278 107.155 10.0593Z" fill="white"/>
<path d="M78.9732 9.13405C80.3451 9.12446 81.5823 9.62326 82.7337 10.4434C83.5953 11.0573 83.8525 11.9638 83.4361 12.7791C82.995 13.6471 82.2193 13.7815 81.2884 13.1484C79.3733 11.8535 77.1195 12.242 75.7598 14.1124C74.4532 15.911 74.4369 18.4769 75.7231 20.3809C77.0052 22.2801 79.3978 22.7502 81.2189 21.4217C81.7497 21.0332 82.256 20.7694 82.8603 21.1435C83.7708 21.7094 83.8647 23.0763 82.9787 23.8868C81.7497 25.0139 80.292 25.4792 78.7608 25.4024C75.0983 25.2154 72.2973 21.978 72.0238 17.7191C71.7665 13.7191 74.2858 10.0405 77.834 9.26355C78.2096 9.18202 78.5934 9.17722 78.9732 9.13405Z" fill="white"/>
<path d="M51.0043 10.3761C52.3109 9.49358 53.6502 9.04275 55.1079 9.14826C56.0225 9.2154 56.6105 9.85329 56.5777 10.7933C56.5492 11.6854 55.9612 12.3041 55.0875 12.2945C53.9686 12.2801 52.9357 12.5631 51.9802 13.2681C51.2738 13.7909 50.9267 14.4479 50.939 15.4695C50.9758 18.1506 50.9309 20.8364 50.9309 23.5174C50.9309 24.3327 50.6532 24.9466 50 25.2152C49.4691 25.431 48.9505 25.2727 48.5504 24.7595C48.1747 24.2752 48.2278 23.6757 48.2278 23.0953C48.236 19.1386 48.2605 15.1818 48.2523 11.225C48.2523 10.2993 48.3299 9.45042 49.2159 9.16744C50.0898 8.90366 50.7063 9.3449 51.0043 10.3761Z" fill="white"/>
<path d="M88.4283 17.2152C88.4283 19.3111 88.4324 21.4022 88.4283 23.4981C88.4243 24.6636 87.9098 25.4069 87.1135 25.4405C86.2928 25.4741 85.6722 24.6827 85.6722 23.5173C85.6722 19.3639 85.6804 15.2104 85.7049 11.057C85.713 9.91074 86.2683 9.19612 87.0849 9.18173C87.8974 9.16734 88.4487 9.88675 88.4528 11.0378C88.465 13.0954 88.4569 15.1576 88.4569 17.2152C88.4446 17.2152 88.4365 17.2152 88.4283 17.2152Z" fill="white"/>
</g>
<defs>
<clipPath id="clip0_3_2435">
<rect width="130" height="32.5" fill="white" transform="translate(0 0.830078)"/>
</clipPath>
</defs>
</svg>
