<svg width="130" height="44" viewBox="0 0 130 44" fill="none" xmlns="http://www.w3.org/2000/svg">
<g clip-path="url(#clip0_3_2597)">
<path d="M103.349 14.5048C102.794 16.1321 102.239 17.7592 101.688 19.3864C100.25 23.6376 98.799 27.8843 97.389 32.1489C97.15 32.8731 96.8339 33.1816 96.1087 33.1189C95.2052 33.0429 94.2935 33.0609 93.3859 33.1145C92.7782 33.1502 92.5958 32.8955 92.5026 32.2606C91.7004 26.6236 90.8657 20.9868 90.0352 15.3542C89.9906 15.0591 89.8974 14.7685 89.6098 14.4602C89.5125 15.2424 89.3991 16.0203 89.3221 16.8026C88.8197 21.9657 88.3132 27.1333 87.8432 32.3008C87.7865 32.9133 87.6285 33.128 87.0572 33.1145C85.5215 33.0742 83.986 33.0742 82.4544 33.1145C81.8548 33.1324 81.7049 32.9133 81.7697 32.283C82.0615 29.4131 82.3207 26.5342 82.5963 23.6644C83.0785 18.6711 83.5606 13.6779 84.0428 8.68459C84.298 6.05161 84.5614 3.41864 84.7922 0.781192C84.8368 0.258172 85.0151 0.0614814 85.4892 0.0659516C87.5556 0.0793623 89.6219 0.0972434 91.6883 0.0570111C92.4095 0.0436004 92.3933 0.57556 92.4662 1.06729C93.0497 5.07263 93.625 9.08244 94.2003 13.0923C94.646 16.1812 95.0957 19.2746 95.5455 22.3635C95.5739 22.5647 95.5779 22.7793 95.7683 22.9224C96.1613 22.8373 96.1411 22.4172 96.2424 22.1311C98.6531 15.086 101.06 8.04087 103.43 0.982352C103.665 0.276053 103.977 0.0436004 104.65 0.0614814C106.526 0.110654 108.41 0.115124 110.286 0.0614814C111.019 0.0391302 111.193 0.298405 111.112 1.07176C110.634 5.8594 110.192 10.6515 109.731 15.4436C109.252 20.4055 108.77 25.3676 108.288 30.325C108.244 30.7676 108.187 31.2146 108.138 31.6572C107.98 33.1145 107.98 33.1145 106.603 33.1145C105.286 33.1145 103.973 33.0922 102.656 33.1234C102.085 33.1369 101.894 32.9759 101.963 32.3008C102.502 26.9679 103.009 21.6259 103.523 16.2884C103.576 15.7208 103.608 15.1486 103.649 14.5809C103.552 14.5451 103.45 14.5273 103.349 14.5048Z" fill="white"/>
<path d="M6.96058 13.8125C8.87298 13.8125 10.7813 13.8303 12.6896 13.8036C13.2934 13.7945 13.5487 13.9555 13.4433 14.6886C13.3055 15.6363 13.2975 16.6109 13.1759 17.563C13.0868 18.2604 13.3784 18.3676 13.9174 18.3542C15.1693 18.3229 16.4253 18.314 17.6733 18.3587C18.2648 18.3811 18.4957 18.1799 18.5525 17.5139C18.8077 14.5679 19.1116 11.631 19.3912 8.68509C19.6464 6.01635 19.9058 3.34761 20.1449 0.678875C20.1813 0.24526 20.3353 0.0530395 20.7202 0.0664503C24.5976 0.191618 28.4994 -0.340342 32.3445 0.41513C36.854 1.30023 39.3985 4.62163 39.5322 9.66406C39.678 15.1088 38.0411 19.6104 33.5113 22.3864C31.2911 23.7453 28.8438 24.085 26.3318 24.0001C25.9874 23.9867 25.6389 24.027 25.2985 23.9912C24.7151 23.9287 24.4842 24.1432 24.4314 24.8316C24.2371 27.2991 23.9534 29.7578 23.7508 32.2254C23.6982 32.8512 23.5766 33.1328 22.9364 33.1195C21.2145 33.0703 19.4924 33.0837 17.7705 33.115C17.2195 33.1239 17.0615 32.9272 17.1223 32.3416C17.3694 29.9501 17.5557 27.5496 17.8393 25.1625C17.9447 24.2729 17.8151 23.9599 16.9157 23.9778C13.8485 24.0404 10.7773 23.9734 7.71014 24.0225C6.88765 24.0359 6.66075 23.7409 6.78636 22.887C6.9079 22.0734 6.8917 21.2375 7.02946 20.4284C7.16722 19.588 6.85119 19.4404 6.1786 19.4539C4.39585 19.4853 2.60906 19.4271 0.82226 19.4628C0.178041 19.4762 -0.0772166 19.3199 0.0200241 18.5509C0.194247 17.1875 0.323902 15.8197 0.408987 14.4472C0.449504 13.7767 0.797951 13.7856 1.23148 13.7901C3.13983 13.799 5.05223 13.7945 6.96058 13.7945C6.96058 13.7901 6.96058 13.799 6.96058 13.8125ZM28.0496 5.71237C26.3359 5.7079 26.3359 5.7079 26.117 7.61223C26.1089 7.67928 26.0968 7.74633 26.0886 7.81786C25.7726 11.099 25.4606 14.3802 25.1365 17.6613C25.096 18.0503 25.1001 18.2917 25.5538 18.3676C29.1153 18.9756 31.6476 17.2009 32.4862 13.4593C32.6727 12.6234 32.7497 11.7696 32.7456 10.9023C32.7335 7.36636 31.2546 5.72132 28.0496 5.71237Z" fill="white"/>
<path d="M72.8677 30.2715C72.4504 30.2715 72.3734 30.4861 72.268 30.6381C70.5217 33.0966 68.1353 33.6152 65.526 33.1682C63.4677 32.8151 62.2563 31.3041 61.6769 29.1449C61.1298 27.1066 61.3365 25.0547 61.535 22.9984C61.9078 19.1674 62.2927 15.3409 62.6209 11.5054C62.6898 10.7052 62.9289 10.4728 63.646 10.4996C65.1775 10.5622 66.7131 10.5443 68.2487 10.5041C68.8443 10.4907 69.0793 10.6248 69.0023 11.3579C68.585 15.4258 68.2082 19.4937 67.8192 23.5661C67.7868 23.9059 67.7422 24.2501 67.7463 24.5943C67.7747 26.2616 68.3054 27.2004 69.3711 27.5089C70.7486 27.9112 72.0006 27.3524 72.7583 25.9935C73.5079 24.6479 73.5483 23.1146 73.6983 21.6172C74.0427 18.1661 74.3627 14.7106 74.6666 11.2506C74.7153 10.6874 74.9016 10.4907 75.4243 10.5041C77.0815 10.5354 78.7426 10.5309 80.4038 10.5085C80.9063 10.5041 81.0318 10.6695 80.9792 11.2327C80.2904 18.4478 79.634 25.6716 78.9452 32.8866C78.8196 34.183 78.5724 35.4659 78.1713 36.7042C76.9396 40.5263 74.4154 42.6139 70.8215 43.1414C68.5689 43.4722 66.3161 43.432 64.1565 42.4976C61.7295 41.4471 60.3358 39.1181 60.3601 36.3287C60.3682 35.6537 60.5586 35.4346 61.1705 35.4526C62.6736 35.4928 64.1768 35.4615 65.68 35.4659C66.0121 35.4659 66.3566 35.3855 66.4173 35.9755C66.551 37.3166 67.2763 38.0676 68.4878 38.2374C69.8694 38.4252 71.0444 38.0631 71.7818 36.6461C72.1261 35.9845 72.3288 35.2558 72.4138 34.5004C72.5759 33.1146 72.7137 31.7199 72.8677 30.2715Z" fill="white"/>
<path d="M51.6854 30.5126C50.8142 31.7732 49.7811 32.788 48.3954 33.302C44.2059 34.8666 40.2434 32.4929 39.1818 27.6025C38.1932 23.0294 38.7969 18.6172 41.0091 14.5762C43.0147 10.915 46.3371 9.30128 49.8499 10.088C51.1748 10.3831 52.204 11.1475 52.9616 12.3768C53.1116 12.6183 53.1561 12.9669 53.5613 13.0787C53.8166 12.5154 53.7639 11.894 53.7922 11.304C53.8166 10.7765 53.9421 10.4948 54.5013 10.5083C56.1908 10.544 57.8844 10.5306 59.5741 10.5127C60.0278 10.5083 60.1777 10.6647 60.129 11.1743C59.6672 15.8233 59.2215 20.4768 58.7758 25.1305C58.5529 27.455 58.3058 29.7794 58.1317 32.1129C58.0789 32.8372 57.9169 33.1411 57.1957 33.1143C55.6641 33.0517 54.1245 33.0517 52.593 33.1143C51.8231 33.1455 51.6733 32.8461 51.8232 32.0906C51.9204 31.6123 51.8961 31.1027 51.9244 30.6065C51.8474 30.5752 51.7664 30.5439 51.6854 30.5126ZM53.0549 20.6289C53.0346 20.2042 53.0467 19.717 52.99 19.2431C52.755 17.3165 51.9041 16.1721 50.4698 15.801C48.9099 15.4031 47.2609 16.0871 46.4262 17.6696C45.1297 20.1193 44.7853 22.7701 45.4903 25.5193C45.8914 27.0795 46.9611 27.8751 48.4197 27.9109C49.8945 27.9467 51.0169 27.2449 51.7988 25.9037C52.7308 24.3169 52.9941 22.5287 53.0549 20.6289Z" fill="white"/>
<path d="M123.178 23.6461C121.298 23.6461 119.422 23.6685 117.542 23.6328C116.922 23.6194 116.74 23.8473 116.744 24.5224C116.76 27.6605 118.855 29.3233 121.565 28.3265C122.088 28.1342 122.643 27.8616 122.829 27.3341C123.247 26.1495 124.069 26.2166 124.96 26.2478C126.054 26.2836 127.153 26.2836 128.247 26.2478C128.882 26.2255 129.065 26.3775 128.858 27.1285C127.862 30.7583 125.029 33.2885 121.395 33.6685C119.896 33.825 118.397 33.8428 116.91 33.4718C113.77 32.6895 111.699 30.6287 111.055 27.1419C110.188 22.4615 110.816 18.0002 113.401 14.0709C116.063 10.0253 121.954 8.54567 126.026 10.754C128.331 12.0056 129.518 14.1468 129.863 16.8514C130.119 18.8361 129.969 20.8299 129.62 22.8058C129.495 23.512 129.219 23.673 128.62 23.6596C126.812 23.6238 124.997 23.6461 123.178 23.6461ZM120.706 19.2564C121.395 19.2564 122.08 19.2564 122.769 19.2564C124.183 19.2564 124.183 19.2564 124.106 17.6739C123.992 15.2823 122.655 14.0798 120.56 14.4867C118.851 14.8174 117.327 16.8424 117.299 18.7467C117.291 19.3056 117.582 19.2564 117.894 19.2564C118.83 19.2609 119.766 19.2564 120.706 19.2564Z" fill="white"/>
</g>
<defs>
<clipPath id="clip0_3_2597">
<rect width="129.99" height="43.33" fill="white"/>
</clipPath>
</defs>
</svg>
