<svg width="130" height="55" viewBox="0 0 130 55" fill="none" xmlns="http://www.w3.org/2000/svg">
<g clip-path="url(#clip0_3_2369)">
<mask id="mask0_3_2369" style="mask-type:luminance" maskUnits="userSpaceOnUse" x="6" y="0" width="56" height="55">
<path d="M6.6492 0.830078H61.3039V54.9901H6.6492V0.830078Z" fill="white"/>
</mask>
<g mask="url(#mask0_3_2369)">
<path d="M22.625 10.4801C22.625 7.6405 20.4116 5.32957 17.692 5.32957C14.9725 5.32957 12.7591 7.6405 12.7591 10.4801C12.7591 13.3196 14.9725 15.6306 17.692 15.6306C20.4116 15.6306 22.625 13.3196 22.625 10.4801ZM60.2734 23.6349C59.2865 25.9561 57.6421 27.5684 55.5171 28.2978C53.0998 29.1254 50.4194 28.8694 47.9666 27.5767C46.7364 26.9272 45.6061 26.1016 44.4583 25.239C43.3398 24.3991 42.1978 23.4977 41.0636 22.5572C41.0205 22.5225 40.9872 22.4815 40.9617 22.4364C37.5358 20.0436 33.5388 18.7794 29.4005 18.7794C26.9595 18.7794 24.5715 19.2158 22.2993 20.0763V21.2092H35.2536V31.0963H22.2993V45.3329H12.5825V31.0963H10.6283C9.26452 34.0486 8.57383 37.22 8.57383 40.5246C8.57383 45.6628 10.3221 50.6494 13.4969 54.5644L13.1103 54.9702C12.8867 54.7714 12.6591 54.5624 12.4335 54.3453L12.4178 54.3289C8.78183 50.2006 6.7804 44.8371 6.7804 39.2256C6.7804 36.2735 7.32392 33.4032 8.39528 30.701C9.59221 27.6832 11.4523 24.9195 13.7776 22.7109C16.1145 20.4921 18.9381 18.8163 21.9462 17.8657C23.9495 17.2306 26.0392 16.9069 28.1564 16.9069C33.3033 16.9069 38.2753 18.845 42.1586 22.3648C43.2849 23.2824 44.4014 24.1491 45.4746 24.942C46.7285 25.868 47.8057 26.5932 48.985 27.1301C51.636 28.3368 54.7617 28.1543 56.9495 26.6691C58.533 25.5934 59.7437 23.5037 60.1852 21.0761C60.5893 18.8531 60.399 16.2165 59.6652 13.84C58.0111 8.48668 52.7603 5.46683 49.7797 4.1454C45.2451 2.13357 40.0178 1.3653 34.6611 1.92255C31.1272 2.28927 26.2119 3.5185 22.7643 7.25946C23.3138 8.19985 23.6316 9.30204 23.6316 10.4801C23.6316 13.8994 20.967 16.6795 17.692 16.6795C14.4192 16.6795 11.7545 13.8994 11.7545 10.4801C11.7545 7.06076 14.4192 4.28063 17.692 4.28063C19.5385 4.28063 21.1907 5.16362 22.2798 6.54856C22.6308 6.17364 22.992 5.82127 23.357 5.50372C26.5397 2.72155 31.0997 1.14199 36.5467 0.928919C42.3607 0.705608 47.8274 1.9328 52.3521 4.48345C54.7008 5.80693 56.6454 7.41314 58.1327 9.2549C59.6868 11.1807 60.6581 13.5183 61.0151 16.1981C61.3977 19.0724 61.1486 21.5759 60.2734 23.6349Z" fill="white"/>
</g>
<mask id="mask1_3_2369" style="mask-type:luminance" maskUnits="userSpaceOnUse" x="0" y="6" width="23" height="26">
<path d="M0 6.07471H22.2198V31.2494H0V6.07471Z" fill="white"/>
</mask>
<g mask="url(#mask1_3_2369)">
<path d="M21.4771 10.4795C21.4771 12.6614 19.7837 14.4294 17.6939 14.4294C15.6042 14.4294 13.9109 12.6614 13.9109 10.4795C13.9109 8.29762 15.6042 6.52954 17.6939 6.52954C19.7837 6.52954 21.4771 8.29762 21.4771 10.4795ZM22.0265 15.7242V16.4904C18.5612 17.3468 15.4276 19.0964 12.8572 21.4954V15.2202C14.0678 16.5662 15.7867 17.4061 17.6939 17.4061C19.35 17.4061 20.8648 16.7731 22.0265 15.7242ZM-0.0952148 30.8089H6.93726C8.12241 27.1868 10.1827 23.9908 12.8572 21.4934H-0.0952148V30.8089Z" fill="white"/>
</g>
<path d="M62.0454 42.3719H61.488V38.463H61.4723L60.185 42.3719H59.6511L58.3716 38.3975H58.348V42.3719H57.7907V37.6926H58.6778L59.7375 41.0034C59.8513 41.3763 59.92 41.6077 59.9417 41.7H59.9495C60.0064 41.5197 60.0869 41.2698 60.1928 40.946L61.2604 37.6926H62.0454V42.3719Z" fill="white"/>
<path d="M66.3602 42.3719H63.0161V37.6926H66.2581V38.2499H63.6127V39.6841H66.0856V40.2332H63.6127V41.8147H66.3602V42.3719Z" fill="white"/>
<path d="M67.1923 37.6926H68.7386C69.0056 37.6926 69.2352 37.7091 69.4295 37.7418C69.6277 37.7706 69.8161 37.8402 69.9947 37.9549C70.1714 38.0656 70.3264 38.2171 70.4578 38.4138C70.5933 38.6064 70.6973 38.8298 70.7718 39.0858C70.8504 39.3378 70.8896 39.6472 70.8896 40.0119C70.8896 40.7002 70.7326 41.2657 70.4187 41.7082C70.1085 42.1508 69.5707 42.3719 68.8016 42.3719H67.1923V37.6926ZM67.7811 41.8147H68.7467C68.9388 41.8147 69.1116 41.8045 69.2647 41.7819C69.4217 41.7553 69.5787 41.6877 69.7357 41.5771C69.8926 41.4624 70.0222 41.2779 70.1281 41.0198C70.2321 40.7637 70.2852 40.4216 70.2852 39.9955C70.2852 39.7619 70.2635 39.5427 70.2224 39.3398C70.1793 39.1391 70.1067 38.9547 70.0026 38.7908C69.8966 38.6229 69.775 38.4999 69.6337 38.4221C69.4962 38.3401 69.3608 38.2909 69.2255 38.2745C69.094 38.2582 68.927 38.2499 68.723 38.2499H67.7811V41.8147Z" fill="white"/>
<path d="M72.3775 42.3719H71.7809V37.6926H72.3775V42.3719Z" fill="white"/>
<path d="M77.2162 40.8884C77.0905 41.4129 76.8628 41.8062 76.5332 42.0684C76.2075 42.3266 75.8209 42.4536 75.3714 42.4536C74.6374 42.4536 74.1017 42.2139 73.7622 41.7324C73.4266 41.2531 73.2598 40.6753 73.2598 40.0033C73.2598 39.2556 73.4561 38.6716 73.8484 38.2496C74.2449 37.8297 74.7532 37.6187 75.3714 37.6187C75.811 37.6187 76.1839 37.7375 76.4939 37.971C76.802 38.2004 77.0199 38.5364 77.1455 38.979L76.5646 39.1265C76.4645 38.7987 76.3153 38.5529 76.1172 38.3889C75.917 38.225 75.6697 38.1431 75.3714 38.1431C74.8788 38.1431 74.508 38.3132 74.2567 38.6512C74.0055 38.9851 73.8799 39.4338 73.8799 39.9952C73.8799 40.6466 74.0094 41.1302 74.2723 41.4456C74.5393 41.7632 74.8866 41.9209 75.3165 41.9209C75.6657 41.9209 75.9524 41.8226 76.1721 41.626C76.3919 41.4292 76.543 41.1322 76.6274 40.7327L77.2162 40.8884Z" fill="white"/>
<path d="M81.6389 42.3719H80.9717L80.4457 40.946H78.5774L78.0829 42.3719H77.4549L79.174 37.6926H79.8177L81.6389 42.3719ZM80.2652 40.4626C79.8981 39.4464 79.6921 38.8707 79.6449 38.7335C79.5979 38.5983 79.5449 38.4138 79.4881 38.1844H79.4724C79.4193 38.502 79.3428 38.7949 79.2448 39.0613L78.7423 40.4626H80.2652Z" fill="white"/>
<path d="M84.9073 42.3719H82.1049V37.6926H82.6937V41.8147H84.9073V42.3719Z" fill="white"/>
<path d="M91.1196 40.8884C90.9941 41.4129 90.7663 41.8062 90.4367 42.0684C90.1109 42.3266 89.7243 42.4536 89.2748 42.4536C88.5409 42.4536 88.0052 42.2139 87.6656 41.7324C87.33 41.2531 87.1632 40.6753 87.1632 40.0033C87.1632 39.2556 87.3595 38.6716 87.752 38.2496C88.1485 37.8297 88.6567 37.6187 89.2748 37.6187C89.7144 37.6187 90.0873 37.7375 90.3975 37.971C90.7055 38.2004 90.9233 38.5364 91.049 38.979L90.468 39.1265C90.368 38.7987 90.2188 38.5529 90.0207 38.3889C89.8205 38.225 89.5732 38.1431 89.2748 38.1431C88.7823 38.1431 88.4114 38.3132 88.1602 38.6512C87.9089 38.9851 87.7834 39.4338 87.7834 39.9952C87.7834 40.6466 87.913 41.1302 88.1759 41.4456C88.4428 41.7632 88.7901 41.9209 89.2199 41.9209C89.5692 41.9209 89.8558 41.8226 90.0756 41.626C90.2953 41.4292 90.4464 41.1322 90.5308 40.7327L91.1196 40.8884Z" fill="white"/>
<path d="M95.2038 42.3719H91.8597V37.6926H95.1018V38.2499H92.4564V39.6841H94.9291V40.2332H92.4564V41.8147H95.2038V42.3719Z" fill="white"/>
<path d="M99.5563 42.3719H98.944L96.6047 38.7007H96.5968V42.3719H96.0316V37.6926H96.6361L98.9754 41.364H98.9912V37.6926H99.5563V42.3719Z" fill="white"/>
<path d="M103.735 38.2499H102.259V42.3719H101.663V38.2499H100.195V37.6926H103.735V38.2499Z" fill="white"/>
<path d="M107.714 42.3719H104.369V37.6926H107.611V38.2499H104.966V39.6841H107.438V40.2332H104.966V41.8147H107.714V42.3719Z" fill="white"/>
<path d="M112.496 42.3719H111.751C111.299 41.6345 111.021 41.1837 110.91 41.0198C110.804 40.8518 110.692 40.7064 110.572 40.5855C110.456 40.4666 110.347 40.3888 110.244 40.356C110.137 40.3233 109.996 40.3068 109.819 40.3068H109.137V42.3719H108.547V37.6926H110.526C110.796 37.6926 111.024 37.7132 111.208 37.75C111.391 37.789 111.549 37.8647 111.688 37.9795C111.829 38.0943 111.934 38.2417 112.01 38.4221C112.088 38.5983 112.128 38.7827 112.128 38.9793C112.128 39.3297 112.018 39.6143 111.805 39.8315C111.589 40.0446 111.28 40.1798 110.871 40.2332V40.2495C111.17 40.3868 111.447 40.6715 111.711 41.1018L112.496 42.3719ZM109.137 39.7496H110.407C110.663 39.7496 110.865 39.729 111.012 39.6841C111.164 39.6411 111.284 39.5529 111.374 39.4218C111.467 39.2907 111.515 39.1431 111.515 38.9793C111.515 38.7662 111.438 38.5859 111.287 38.4384C111.14 38.2869 110.896 38.209 110.557 38.209H109.137V39.7496Z" fill="white"/>
<path d="M45.2757 31.7139C45.0814 31.6852 44.7497 31.673 44.2789 31.673H43.1408C42.921 31.673 42.7367 31.6771 42.5914 31.6893L42.5836 31.673C42.6091 31.6238 42.6228 31.5705 42.6228 31.509C42.6228 31.4496 42.6169 31.3861 42.6071 31.3205C42.5954 31.2509 42.5697 31.128 42.5287 30.9518C42.4855 30.7715 42.4227 30.5153 42.3403 30.1815L39.0046 18.0203C39.4224 18.0489 39.9267 18.0612 40.5193 18.0612C41.1158 18.0612 41.5024 18.0346 41.6809 17.9792L43.9963 27.2395L46.2489 18.0203C46.347 18.0264 46.4373 18.0325 46.5158 18.0367H46.7277C46.9415 18.053 47.2104 18.0612 47.5362 18.0612C47.8658 18.0612 48.2052 18.0346 48.5565 17.9792L50.8483 27.2395L52.8182 18.0203C53.2108 18.0489 53.7229 18.0612 54.3567 18.0612C54.9886 18.0612 55.3731 18.0346 55.5103 17.9792L52.6928 28.7802C52.3317 30.0216 52.1394 30.7592 52.1197 30.9927C52.0983 31.2222 52.0884 31.382 52.0884 31.468C52.0884 31.5562 52.1001 31.6279 52.1276 31.6811L52.1119 31.7139C51.9019 31.6852 51.5723 31.673 51.123 31.673C50.7305 31.673 50.3715 31.673 50.0477 31.673C49.7279 31.673 49.4983 31.6771 49.3571 31.6893L49.3492 31.673C49.3746 31.6238 49.3884 31.5705 49.3884 31.509C49.3884 31.4496 49.3825 31.3902 49.3727 31.3287C49.3668 31.2632 49.3492 31.1464 49.3178 30.9763C49.2904 30.8022 49.2432 30.542 49.1765 30.1979L48.9174 28.8047L47.3085 22.429L45.778 28.7802C45.4641 30.0811 45.3012 30.8288 45.2913 31.0255C45.2639 31.4025 45.2679 31.6217 45.2992 31.6811L45.2757 31.7139Z" fill="white"/>
<path d="M64.1668 29.2145C64.5749 29.2145 64.8575 29.1735 65.0144 29.0916L65.0537 29.0997L64.9517 31.673H57.6131V17.9875C57.7896 18.0038 57.9859 18.0161 58.2017 18.0203L58.8845 18.0367C59.3437 18.053 59.8421 18.0612 60.3758 18.0612C61.871 18.0612 63.3525 18.0346 64.8182 17.9792C64.7437 18.5816 64.7083 19.3806 64.7083 20.3804C64.7083 20.491 64.7162 20.573 64.7319 20.6263L64.7083 20.659C64.367 20.5566 63.8842 20.5033 63.2563 20.5033H60.1717V23.1174H62.495C63.2112 23.1174 63.6429 23.097 63.7901 23.0519L63.8136 25.5842C63.5036 25.5514 63.1013 25.535 62.6049 25.535H60.1717V29.2145H64.1668Z" fill="white"/>
<path d="M69.8212 31.6724C68.8637 31.6724 68.2277 31.6908 67.9137 31.7298V17.9951C68.0708 18.0402 68.3946 18.0607 68.8872 18.0607C69.3777 18.0607 69.9509 18.0483 70.6063 18.0197V29.2139H72.6394C73.2242 29.2139 73.6952 29.1955 74.0524 29.1565C74.0053 30.7525 73.9818 31.5802 73.9818 31.6396V31.7461C73.342 31.6969 72.2665 31.6724 70.7554 31.6724H69.8212Z" fill="white"/>
<path d="M78.4401 31.6724C77.4823 31.6724 76.8465 31.6908 76.5324 31.7298V17.9951C76.6895 18.0402 77.0133 18.0607 77.5058 18.0607C77.9966 18.0607 78.5695 18.0483 79.2251 18.0197V29.2139H81.2582C81.8429 29.2139 82.314 29.1955 82.6711 29.1565C82.624 30.7525 82.6005 31.5802 82.6005 31.6396V31.7461C81.9607 31.6969 80.8853 31.6724 79.3742 31.6724H78.4401Z" fill="white"/>
<path d="M85.2401 31.673C85.2814 31.4436 85.3028 31.1937 85.3028 30.9191V18.0613H87.2573L92.4531 26.5922V18.7579C92.4531 18.3809 92.4217 18.1495 92.3589 18.0613H95.0039C94.9726 18.3359 94.9568 18.6349 94.9568 18.9627V31.673H92.9162L87.7988 23.4781V31.673H85.2401Z" fill="white"/>
<path d="M105.268 29.2145C105.676 29.2145 105.958 29.1735 106.115 29.0916L106.155 29.0997L106.053 31.673H98.7142V17.9875C98.8907 18.0038 99.087 18.0161 99.3028 18.0203L99.9857 18.0367C100.445 18.053 100.943 18.0612 101.477 18.0612C102.973 18.0612 104.453 18.0346 105.92 17.9792C105.844 18.5816 105.81 19.3806 105.81 20.3804C105.81 20.491 105.817 20.573 105.833 20.6263L105.81 20.659C105.468 20.5566 104.985 20.5033 104.358 20.5033H101.273V23.1174H103.596C104.312 23.1174 104.744 23.097 104.891 23.0519L104.914 25.5842C104.604 25.5514 104.202 25.535 103.706 25.535H101.273V29.2145H105.268Z" fill="white"/>
<path d="M116.886 18.8154L116.697 21.8229L116.627 21.8475C116.144 21.0895 115.324 20.5978 114.163 20.3724C113.794 20.2966 113.442 20.2577 113.102 20.2577C112.767 20.2577 112.478 20.2905 112.239 20.356C112.004 20.4175 111.799 20.5036 111.627 20.6183C111.27 20.8642 111.094 21.1837 111.094 21.577C111.094 22.0974 111.25 22.4867 111.564 22.7489C111.956 23.0604 112.604 23.2815 113.51 23.4127C114.421 23.5398 115.151 23.7118 115.701 23.929C116.25 24.142 116.698 24.4187 117.05 24.7566C117.713 25.3857 118.047 26.2707 118.047 27.4118C118.047 28.9156 117.505 30.0731 116.423 30.8865C115.497 31.5809 114.327 31.9272 112.914 31.9272C111.777 31.9272 110.654 31.7018 109.538 31.2552C109.172 31.1037 108.852 30.9274 108.581 30.7308L108.69 27.3135L108.73 27.2807C109.534 28.7394 110.865 29.4688 112.719 29.4688C114.03 29.4688 114.899 29.1388 115.324 28.4772C115.469 28.2539 115.544 28.0059 115.544 27.7314C115.544 27.4528 115.498 27.2233 115.41 27.0431C115.326 26.8628 115.186 26.7071 114.993 26.576C114.611 26.3199 113.973 26.1478 113.078 26.0596C112.184 25.9674 111.45 25.7974 110.882 25.5516C110.315 25.3057 109.862 25.0025 109.523 24.6419C108.905 23.9864 108.597 23.0726 108.597 21.8967C108.597 20.6838 109.008 19.7005 109.829 18.9465C110.655 18.1884 111.772 17.8074 113.181 17.8074C114.587 17.8074 115.821 18.1434 116.886 18.8154Z" fill="white"/>
<path d="M128.819 18.8154L128.63 21.8229L128.56 21.8475C128.077 21.0895 127.257 20.5978 126.095 20.3724C125.729 20.2966 125.375 20.2577 125.035 20.2577C124.7 20.2577 124.411 20.2905 124.173 20.356C123.937 20.4175 123.733 20.5036 123.56 20.6183C123.203 20.8642 123.026 21.1837 123.026 21.577C123.026 22.0974 123.183 22.4867 123.497 22.7489C123.889 23.0604 124.537 23.2815 125.444 23.4127C126.354 23.5398 127.084 23.7118 127.634 23.929C128.183 24.142 128.633 24.4187 128.983 24.7566C129.647 25.3857 129.98 26.2707 129.98 27.4118C129.98 28.9156 129.438 30.0731 128.355 30.8865C127.429 31.5809 126.259 31.9272 124.847 31.9272C123.711 31.9272 122.586 31.7018 121.473 31.2552C121.105 31.1037 120.785 30.9274 120.515 30.7308L120.625 27.3135L120.665 27.2807C121.468 28.7394 122.799 29.4688 124.651 29.4688C125.964 29.4688 126.833 29.1388 127.257 28.4772C127.402 28.2539 127.477 28.0059 127.477 27.7314C127.477 27.4528 127.431 27.2233 127.342 27.0431C127.259 26.8628 127.119 26.7071 126.927 26.576C126.545 26.3199 125.907 26.1478 125.013 26.0596C124.117 25.9674 123.384 25.7974 122.814 25.5516C122.249 25.3057 121.797 25.0025 121.457 24.6419C120.839 23.9864 120.53 23.0726 120.53 21.8967C120.53 20.6838 120.941 19.7005 121.763 18.9465C122.588 18.1884 123.705 17.8074 125.114 17.8074C126.52 17.8074 127.755 18.1434 128.819 18.8154Z" fill="white"/>
<path d="M38.939 34.9207H84.6324" stroke="white" stroke-width="3"/>
<path d="M84.633 34.9207H129.841" stroke="white" stroke-width="3"/>
</g>
<defs>
<clipPath id="clip0_3_2369">
<rect width="129.98" height="54.16" fill="white" transform="translate(0 0.830078)"/>
</clipPath>
</defs>
</svg>
