<svg width="130" height="33" viewBox="0 0 130 33" fill="none" xmlns="http://www.w3.org/2000/svg">
<g clip-path="url(#clip0_3_2403)">
<path d="M13.9125 2.03955C16.8132 1.49502 19.5396 0.95906 22.2777 0.478846C24.0552 0.165848 24.0552 0.200149 23.4278 2.06098C22.5448 4.66786 21.6619 7.27474 20.7983 9.8902C20.5581 10.6234 20.3645 10.7349 19.8649 10.0703C19.3808 9.42285 19.0168 8.29949 18.3119 8.30378C17.6614 8.30807 17.0107 9.127 16.3679 9.60293C12.0846 12.7715 7.55734 15.3227 2.42983 16.3859C1.26801 16.6261 0.288203 15.9872 0.044221 14.821C-0.180398 13.7362 0.46635 12.69 1.62817 12.4242C6.70921 11.2708 11.1629 8.64679 15.3725 5.4182C15.9147 5.0023 15.9612 4.69788 15.5119 4.20051C15.237 3.90038 15.0124 3.5445 14.7684 3.21007C14.5244 2.88421 14.2843 2.54977 13.9125 2.03955Z" fill="white"/>
<path d="M29.6053 21.4884C29.6053 24.4554 29.6092 27.4225 29.6014 30.3895C29.5975 31.9845 28.9121 32.7563 27.4753 32.8163C27.088 32.8335 26.6969 32.8292 26.3096 32.8163C24.7876 32.7692 24.1176 32.0317 24.1176 30.3766C24.1138 24.4811 24.1138 18.5814 24.1176 12.6859C24.1176 11.1252 24.7798 10.3877 26.178 10.3405C28.7301 10.2548 29.7641 10.3534 29.6247 13.985C29.5279 16.4805 29.6053 18.9887 29.6053 21.4884Z" fill="white"/>
<path d="M106.074 10.3106C105.958 12.8146 106.179 15.2886 106.128 17.7668C106.082 19.9664 106.121 19.9535 104.076 19.8077C103.596 19.7735 103.383 19.632 103.386 19.0617C103.402 14.9498 103.402 10.8423 103.386 6.73048C103.386 6.24169 103.541 6.03159 103.975 5.95441C104.754 5.81721 105.52 5.84294 106.299 5.93297C106.779 5.98872 106.922 6.35316 107.077 6.7562C108.173 9.57747 109.281 12.3945 110.384 15.2115C110.485 15.4644 110.593 15.713 110.807 16.219C110.524 13.2305 110.691 10.5207 110.605 7.81953C110.548 5.97585 111.74 5.75289 112.848 5.84723C113.293 5.88581 113.344 6.21167 113.344 6.60184C113.344 10.748 113.339 14.8942 113.347 19.0403C113.347 19.5205 113.219 19.7992 112.751 19.782C112.72 19.782 112.685 19.7863 112.654 19.7906C110.001 20.0779 109.985 20.0865 108.905 17.4367C107.933 15.0699 107.011 12.686 106.074 10.3106Z" fill="white"/>
<path d="M16.7159 23.5289C16.7159 21.2392 16.7081 18.9496 16.7197 16.6601C16.7275 15.168 17.4014 14.4691 18.7607 14.409C21.6537 14.2805 22.3004 14.6878 22.2269 18.1351C22.1416 22.2083 22.2114 26.2901 22.2036 30.3676C22.1997 32.0055 21.5064 32.7687 20 32.8116C19.6437 32.8202 19.2875 32.8202 18.9272 32.8116C17.3665 32.7687 16.7159 32.0312 16.7159 30.2862C16.712 28.0352 16.7159 25.7842 16.7159 23.5289Z" fill="white"/>
<path d="M53.1578 12.9003C53.1809 13.9508 53.0764 14.8984 52.8169 15.8331C51.7093 19.8334 47.3874 21.3984 44.3627 18.8558C42.9376 17.6552 42.5232 15.8845 42.3373 14.0408C42.1553 12.2358 42.3528 10.4778 43.0383 8.80991C44.0065 6.45599 45.8809 5.57274 48.0341 5.70567C50.5282 5.85573 52.1508 7.33068 52.7783 9.70603C53.0532 10.7779 53.2197 11.8627 53.1578 12.9003ZM50.0789 12.8788C50.0324 11.957 50.1215 11.0223 49.8465 10.1176C49.44 8.7756 48.7815 8.16676 47.7011 8.1882C46.6167 8.20964 45.9468 8.82706 45.6252 10.2034C45.2071 11.9999 45.2535 13.8179 45.6446 15.6144C45.908 16.8278 46.5896 17.4924 47.5617 17.5824C48.4756 17.6681 49.2773 17.0464 49.7304 15.9402C50.137 14.9541 50.0479 13.9122 50.0789 12.8788Z" fill="white"/>
<path d="M101.284 12.8231C101.335 14.8298 101.052 16.622 99.9444 18.0969C98.5232 19.9835 96.5907 20.3051 94.5498 19.8677C92.5088 19.4304 91.2772 17.9598 90.7699 15.7516C90.3323 13.8479 90.3245 11.9485 90.7738 10.0405C91.4012 7.36928 93.2136 5.77 95.7735 5.66709C98.2134 5.56847 100.154 7.09916 100.917 9.68889C101.23 10.7565 101.331 11.8455 101.284 12.8231ZM98.3256 12.9732C98.101 11.987 98.2985 10.928 97.9577 9.93329C97.5511 8.74132 96.9121 8.18393 95.8897 8.18393C94.8634 8.18393 94.1857 8.71989 93.8526 9.94615C93.2949 11.9785 93.3647 14.028 93.934 16.0475C94.205 17.0036 94.8557 17.5052 95.7386 17.5739C96.6255 17.6381 97.2645 17.1622 97.7215 16.3175C98.2791 15.2799 98.1281 14.1094 98.3256 12.9732Z" fill="white"/>
<path d="M128.661 19.9402C127.635 19.9402 126.972 19.3828 126.798 18.2852C126.616 17.1404 126.07 16.7031 125.056 16.9175C124.962 16.9388 124.862 16.9175 124.765 16.9217C124.018 16.9346 123.173 16.7073 122.553 17.0246C121.879 17.3676 121.977 18.4567 121.756 19.2199C121.535 19.9788 121.016 19.7945 120.567 19.8073C118.724 19.8502 118.727 19.8416 119.297 17.9464C120.416 14.2162 121.554 10.4945 122.634 6.75144C122.806 6.15975 123.084 5.94537 123.573 5.88963C123.669 5.87676 123.765 5.87676 123.863 5.86819C126.093 5.71384 126.163 5.76958 126.844 8.10205C127.835 11.5021 128.831 14.8979 129.827 18.2937C130.218 19.6401 129.997 19.9531 128.661 19.9402ZM124.502 9.17395C124.448 9.17824 124.389 9.18253 124.335 9.18682C123.952 10.6918 123.564 12.1967 123.181 13.7017C123.119 13.9461 123.034 14.2891 123.332 14.3105C124.072 14.3663 124.819 14.3491 125.558 14.3149C125.772 14.3063 125.706 14.049 125.663 13.8818C125.277 12.3125 124.889 10.7432 124.502 9.17395Z" fill="white"/>
<path d="M69.315 19.9879C67.9132 20.0693 66.6352 19.6107 65.4037 18.9203C64.8963 18.6373 64.7801 18.3286 65.0009 17.7369C65.5469 16.2534 65.7561 16.1334 67.0418 16.7593C67.8783 17.1667 68.7496 17.4282 69.6713 17.424C70.3414 17.4196 70.9184 17.2181 71.0811 16.412C71.2437 15.6188 70.8448 15.1085 70.2406 14.787C69.5707 14.4311 68.8775 14.1225 68.1958 13.788C65.8451 12.6432 64.9156 11.1597 65.2797 9.13593C65.6359 7.14218 67.4949 5.67152 69.776 5.68009C71.0113 5.68438 72.2003 6.03597 73.362 6.53334C74.2257 6.90207 73.9546 7.51091 73.7068 8.08546C73.4628 8.64714 73.3157 9.48322 72.4094 9.01587C71.4877 8.54423 70.5234 8.28697 69.4893 8.34271C68.862 8.37702 68.3817 8.62999 68.2617 9.31601C68.1417 9.98917 68.587 10.3622 69.0789 10.6066C69.9347 11.0311 70.8138 11.4041 71.6659 11.8414C73.7029 12.8876 74.5123 14.444 74.1831 16.6007C73.9005 18.4529 72.3436 19.8078 70.2871 19.9837C69.9657 20.0093 69.6404 19.9879 69.315 19.9879Z" fill="white"/>
<path d="M57.9382 5.8892C58.8095 5.90635 59.6847 5.76914 60.5601 5.96208C62.9804 6.50233 64.1733 8.2131 64.0571 11.0215C63.9525 13.5255 62.4421 15.2019 60.0836 15.4378C58.1745 15.6264 58.1976 15.6264 58.1667 17.736C58.1318 20.0469 58.6275 19.7383 56.2497 19.8154C55.4325 19.8412 55.1266 19.6268 55.1382 18.6363C55.1924 14.8117 55.1886 10.9829 55.1421 7.15405C55.1304 6.17219 55.3783 5.76914 56.2845 5.87634C56.8306 5.94064 57.3844 5.8892 57.9382 5.8892ZM59.007 8.37174C58.1899 8.14449 57.9962 8.6633 58.0621 9.55084C58.1163 10.2926 58.1202 11.0472 58.0621 11.789C57.9808 12.8094 58.2325 13.1782 59.2394 12.981C60.4593 12.7408 61.1486 12.0034 61.0984 10.6485C61.0441 9.10063 60.4167 8.38031 59.007 8.37174Z" fill="white"/>
<path d="M9.30872 25.5703C9.30872 23.9238 9.29709 22.2774 9.31258 20.6352C9.32808 19.2975 10.0368 18.5386 11.2606 18.4913C14.0296 18.3885 14.9474 18.5042 14.8235 22.213C14.7344 24.9271 14.8119 27.6497 14.8042 30.3681C14.8003 32.0103 14.111 32.7692 12.6006 32.812C12.1474 32.8249 11.6905 32.8422 11.2373 32.8035C9.95546 32.692 9.31646 31.9288 9.30872 30.5053C9.29709 28.8632 9.30872 27.2167 9.30872 25.5703Z" fill="white"/>
<path d="M77.9223 14.1477C77.9223 12.5741 77.903 11.0048 77.934 9.43127C77.9456 8.81813 77.7481 8.59089 77.202 8.64234C76.8147 8.67664 76.4197 8.68522 76.0364 8.64234C75.6414 8.59946 75.0721 8.90389 74.89 8.37651C74.6615 7.71621 74.7235 6.96159 74.8745 6.2627C74.9364 5.97114 75.2425 6.03117 75.4632 6.03117C78.0889 6.02688 80.7146 6.05261 83.3403 6.01402C84.049 6.00544 84.0335 6.52425 84.0723 6.9916C84.1382 7.76767 83.9484 8.45797 83.1351 8.59946C82.6278 8.68951 82.0972 8.68522 81.5822 8.63805C80.9664 8.5866 80.8192 8.86101 80.8231 9.49986C80.8501 12.6084 80.8192 15.7169 80.854 18.8212C80.8617 19.563 80.6681 19.803 79.9827 19.8116C77.9223 19.8374 77.9223 19.8716 77.9223 17.5778C77.9223 16.433 77.9223 15.2925 77.9223 14.1477Z" fill="white"/>
<path d="M1.90643 27.6881C1.90643 26.7621 1.90643 25.8316 1.90643 24.9055C1.90643 24.6911 1.89482 24.4724 1.9258 24.2666C2.11169 22.9202 2.99467 22.4916 5.41901 22.5687C6.56921 22.603 7.35925 23.3019 7.38248 24.4552C7.42896 26.5948 7.39798 28.7343 7.39798 30.8739C7.39798 30.9468 7.39411 31.0153 7.38636 31.0883C7.20434 32.4217 6.27875 32.9062 4.08679 32.8204C2.76618 32.769 2.00325 32.0959 1.91417 30.8995C1.91031 30.8267 1.91031 30.7581 1.91031 30.6853C1.90643 29.6819 1.90643 28.6829 1.90643 27.6881Z" fill="white"/>
<path d="M88.4113 12.879C88.4113 14.8813 88.3842 16.8837 88.4229 18.886C88.4384 19.5934 88.2177 19.7949 87.5941 19.8121C85.468 19.8721 85.4719 19.8978 85.4719 17.5396C85.4719 14.071 85.5106 10.6023 85.4487 7.13787C85.4293 6.09597 85.7972 5.80441 86.6259 5.86015C86.7887 5.87301 86.9513 5.85586 87.114 5.86015C88.3919 5.89016 88.4152 5.9116 88.4152 7.30508C88.4113 9.16162 88.4113 11.0225 88.4113 12.879Z" fill="white"/>
<path d="M37.9625 16.4508C37.9625 19.705 37.947 22.9551 37.9742 26.2093C37.9819 26.9254 37.8231 27.2427 37.1143 27.2384C36.4444 27.2342 36.2198 27.0025 36.2198 26.2437C36.243 19.7008 36.243 13.1621 36.2198 6.61917C36.2159 5.89028 36.3824 5.61587 37.0834 5.62873C37.7418 5.63731 37.9858 5.8131 37.978 6.58915C37.9432 9.87349 37.9625 13.1621 37.9625 16.4508Z" fill="white"/>
<path d="M44.1152 25.1326C44.0067 25.7371 43.9215 26.1488 43.8557 26.5647C43.8053 26.8948 43.6698 27.0706 43.3445 27.0664C43.0463 27.062 42.8372 26.9377 42.7713 26.6118C42.6203 25.8486 42.4848 25.0812 42.3414 24.318C42.3066 24.1293 42.3181 23.9577 42.5195 23.8977C42.7287 23.8335 42.9301 23.8849 42.9882 24.1293C43.1082 24.6053 43.1896 25.0941 43.3483 25.8744C43.4722 25.2355 43.573 24.8624 43.6079 24.4852C43.6426 24.1207 43.7201 23.8806 44.1152 23.8763C44.5141 23.8677 44.5992 24.1421 44.6496 24.4809C44.7155 24.9353 44.7774 25.3856 44.8781 26.0973C45.0098 25.3341 45.1065 24.8196 45.1879 24.3008C45.2344 24.0092 45.366 23.8377 45.6411 23.8849C45.9741 23.945 45.9005 24.2021 45.854 24.4594C45.7378 25.0854 45.6487 25.72 45.5209 26.3417C45.4513 26.6762 45.4009 27.0449 44.9516 27.0664C44.4521 27.0877 44.3785 26.7105 44.3088 26.3203C44.2507 25.9859 44.2003 25.6514 44.1152 25.1326Z" fill="white"/>
<path d="M69.1147 27.0709C68.5686 27.1867 68.286 26.9165 68.3556 26.1919C68.3944 25.8018 68.3789 25.403 68.3595 25.0128C68.3246 24.3139 68.3285 23.748 69.2425 23.8295C69.986 23.8981 70.4508 24.0739 70.2998 25.03C70.2727 25.193 70.3114 25.3773 70.3501 25.5488C70.6057 26.715 70.3308 27.0838 69.1147 27.0709Z" fill="white"/>
<path d="M80.8634 25.4841C80.8401 25.6214 80.8324 25.72 80.8052 25.8143C80.6891 26.2259 81.1073 27.0234 80.4257 26.9891C79.8215 26.9547 80.1701 26.1788 80.1043 25.7414C80.0539 25.3941 80.081 25.0297 80.0965 24.6738C80.112 24.3394 79.9958 23.9277 80.4955 23.8635C80.9214 23.8077 81.0493 24.1335 81.1848 24.4637C81.3397 24.8409 81.4907 25.2226 81.7967 25.5827C81.7967 25.2183 81.7928 24.8496 81.7967 24.4851C81.8006 24.2321 81.8082 23.9362 82.1065 23.9149C82.4589 23.8849 82.3969 24.2236 82.4008 24.4508C82.4124 25.1282 82.4085 25.8058 82.4046 26.4832C82.4008 26.7276 82.424 26.9976 82.1026 27.0534C81.8082 27.1049 81.6185 26.972 81.4636 26.6976C81.2506 26.3073 81.2583 25.7971 80.8634 25.4841Z" fill="white"/>
<path d="M51.6528 25.4762C51.6528 25.3346 51.6645 25.1889 51.6528 25.0516C51.5792 24.2884 51.6567 23.7225 52.5862 23.8425C53.3297 23.9369 53.899 24.0698 53.566 25.1245C53.5311 25.2403 53.5814 25.3947 53.6085 25.5275C53.8564 26.7581 53.6357 27.0712 52.5126 27.0712C51.6528 27.0668 51.6528 27.0668 51.6528 25.4762ZM53.109 26.0336C53.0509 25.7719 52.8882 25.609 52.6366 25.6391C52.3809 25.6648 52.3848 25.9092 52.3887 26.1192C52.3925 26.3336 52.4119 26.5695 52.6907 26.518C52.9192 26.4709 53.1167 26.3636 53.109 26.0336Z" fill="white"/>
<path d="M63.2934 25.3299C63.3787 24.7125 62.9255 23.7178 64.2035 23.8336C65.2454 23.9279 65.6365 24.301 65.6288 25.4843C65.621 26.6377 65.2182 27.0751 64.1533 27.0707C63.2934 27.0707 63.2934 27.0707 63.2934 25.3299ZM63.9983 25.5143C64.1997 25.7587 63.7776 26.3762 64.3933 26.3848C64.8968 26.3933 64.8697 25.8874 64.8658 25.5015C64.862 25.0942 64.9471 24.5154 64.3778 24.5368C63.8085 24.5582 64.1455 25.1499 63.9983 25.5143Z" fill="white"/>
<path d="M54.9037 25.0553C55.0779 24.7467 54.5899 23.9449 55.2445 23.9491C55.8409 23.9535 55.5697 24.7338 55.6356 25.1883C55.6511 25.2912 55.624 25.4027 55.6395 25.5099C55.6936 25.8571 55.4922 26.4146 56.0577 26.3888C56.5767 26.3674 56.4488 25.84 56.4682 25.4712C56.4876 25.1154 56.4721 24.7595 56.476 24.3994C56.4798 24.1379 56.4953 23.8848 56.8167 23.872C57.1189 23.8591 57.2079 24.0735 57.2079 24.3523C57.2079 24.8882 57.2389 25.4284 57.1769 25.9558C57.084 26.749 56.6463 27.1391 55.8989 27.0749C55.1631 27.0105 54.8998 26.5261 54.9075 25.78C54.9075 25.5699 54.9037 25.3555 54.9037 25.0553Z" fill="white"/>
<path d="M73.8341 25.3386C73.8071 25.896 73.9659 26.5949 73.292 26.9636C72.5406 27.3752 71.7623 26.9594 71.6152 26.0247C71.5338 25.5058 71.5532 24.9613 71.5454 24.4297C71.5415 24.1853 71.5338 23.8936 71.8629 23.8894C72.2192 23.8894 72.258 24.1853 72.2619 24.4853C72.2696 24.9485 72.2619 25.4115 72.2774 25.8745C72.2851 26.1961 72.4206 26.432 72.742 26.4277C73.0635 26.4233 73.1874 26.1747 73.1991 25.8574C73.2146 25.4329 73.1991 25.0042 73.2184 24.5754C73.2301 24.3139 73.1216 23.9365 73.505 23.9065C73.9078 23.8765 73.8226 24.2624 73.8381 24.5239C73.8459 24.7726 73.8341 25.0213 73.8341 25.3386Z" fill="white"/>
<path d="M75.785 24.6226C75.9515 25.1199 76.3814 25.0985 76.6448 25.3258C76.9507 25.5915 77.125 25.9003 77.0127 26.3376C76.8887 26.8135 76.5596 27.0193 76.1451 27.0622C75.7231 27.1051 75.2971 27.1051 74.964 26.7449C74.9175 26.6935 74.9253 26.5305 74.964 26.4534C75.084 26.2005 75.2661 26.2861 75.4636 26.3505C75.696 26.4276 76.029 26.5777 76.1258 26.2218C76.2265 25.8574 75.847 25.8017 75.634 25.6859C75.146 25.42 74.7898 25.0514 75.0569 24.4253C75.3707 23.6835 75.998 23.795 76.5828 23.9108C76.7377 23.9408 76.8965 24.048 76.8732 24.2667C76.85 24.5068 76.668 24.5068 76.5092 24.5068C76.2808 24.5068 76.0561 24.4211 75.785 24.6226Z" fill="white"/>
<path d="M46.96 25.3258C46.96 23.8165 47.142 23.6365 48.4238 23.868C48.6175 23.9023 48.8383 23.8937 48.8383 24.1853C48.8344 24.4726 48.6175 24.4683 48.4238 24.5112C48.1953 24.5626 47.8235 24.3568 47.7694 24.747C47.688 25.2958 48.1489 25.06 48.3812 25.1457C48.5555 25.21 48.6679 25.3044 48.633 25.5188C48.5981 25.7459 48.4277 25.7545 48.2651 25.7803C48.0598 25.8145 47.7461 25.7159 47.7539 26.0889C47.7578 26.5349 48.1141 26.372 48.3426 26.4191C48.5477 26.4577 48.8615 26.342 48.8538 26.7192C48.8499 27.0365 48.571 27.0365 48.3426 27.0709C47.1071 27.2423 46.96 27.058 46.96 25.3258Z" fill="white"/>
<path d="M87.491 24.6782C87.611 25.1241 88.0603 25.0769 88.3042 25.3299C88.5715 25.6043 88.8386 25.8701 88.707 26.3289C88.5754 26.792 88.2617 27.0192 87.8434 27.0664C87.4213 27.1136 86.9952 27.0964 86.6544 26.7619C86.6079 26.7148 86.6079 26.5561 86.6428 26.4746C86.7513 26.2217 86.9294 26.2689 87.1308 26.3461C87.3631 26.4319 87.6924 26.5819 87.8047 26.2389C87.9247 25.8658 87.5452 25.8101 87.3284 25.6987C86.8403 25.4371 86.4918 25.0726 86.7319 24.4423C87.003 23.7306 87.5955 23.8035 88.1532 23.8807C88.343 23.9064 88.5637 23.9879 88.5482 24.2494C88.5289 24.5452 88.2926 24.4981 88.1028 24.5024C87.8977 24.5067 87.6536 24.3737 87.491 24.6782Z" fill="white"/>
<path d="M92.7732 25.3087C92.7732 23.8466 92.9514 23.6708 94.2022 23.8766C94.3959 23.9066 94.6205 23.8981 94.6321 24.181C94.6438 24.4683 94.423 24.4683 94.2255 24.5112C93.9738 24.5627 93.5555 24.3311 93.5284 24.8242C93.5052 25.2616 93.8924 25.1029 94.121 25.1458C94.2952 25.1801 94.4385 25.2487 94.4346 25.4631C94.4269 25.6775 94.2836 25.7418 94.1093 25.776C93.8808 25.8146 93.5129 25.6731 93.5284 26.119C93.5439 26.5478 93.9079 26.3721 94.1326 26.4321C94.3456 26.4878 94.7483 26.2606 94.7096 26.728C94.6825 27.0538 94.3379 27.0452 94.0706 27.0666C92.8622 27.1653 92.7693 27.0452 92.7732 25.3087Z" fill="white"/>
<path d="M90.3032 24.7251C90.6556 24.918 90.8803 25.0424 91.1049 25.1667C91.5076 25.3939 91.7904 25.7156 91.7168 26.26C91.6587 26.6974 91.3953 26.9589 91.0197 27.0404C90.5666 27.1391 90.1173 27.1133 89.7223 26.8003C89.5907 26.6974 89.61 26.543 89.6758 26.423C89.7417 26.2986 89.8578 26.23 90.0051 26.2815C90.2994 26.3844 90.7409 26.6503 90.857 26.2644C91.0197 25.7327 90.4039 25.8098 90.1483 25.5997C89.6991 25.231 89.4705 24.8323 89.8231 24.2535C90.0747 23.8418 91.1049 23.6747 91.4108 23.9919C91.4728 24.0562 91.5231 24.1677 91.5231 24.2577C91.527 24.4292 91.4031 24.4936 91.2637 24.5064C90.9964 24.5236 90.706 24.3863 90.3032 24.7251Z" fill="white"/>
<path d="M96.5943 24.6436C96.7686 25.0638 97.094 25.0938 97.3301 25.2611C97.7019 25.5226 97.8647 25.8785 97.7639 26.3502C97.671 26.7832 97.3766 27.0018 96.9971 27.0576C96.5749 27.1176 96.1529 27.1091 95.7966 26.7918C95.6726 26.6803 95.7152 26.5388 95.7927 26.4144C95.9089 26.23 96.056 26.2858 96.2225 26.3373C96.482 26.4188 96.8461 26.6203 96.9467 26.1915C97.0242 25.8527 96.6369 25.7885 96.4162 25.677C95.8352 25.3897 95.5913 24.8795 95.9127 24.305C96.2729 23.6532 96.9158 23.7818 97.4929 23.9662C97.5974 24.0006 97.7174 24.112 97.6749 24.2921C97.6323 24.4593 97.516 24.5108 97.3844 24.515C97.1326 24.5279 96.8732 24.4079 96.5943 24.6436Z" fill="white"/>
<path d="M85.7609 26.5605C85.18 27.298 84.572 27.1178 84.053 26.9592C83.5651 26.8134 83.782 26.2346 83.7432 25.8358C83.72 25.5872 83.7394 25.3342 83.7394 25.0855C83.7432 23.885 84.0569 23.6149 85.1413 23.8764C85.3078 23.915 85.4859 23.9493 85.4975 24.1594C85.5169 24.4467 85.3116 24.4767 85.1064 24.5067C84.8431 24.541 84.4248 24.391 84.4326 24.8711C84.4364 25.2913 84.8353 25.0855 85.0561 25.1541C85.1994 25.2013 85.2884 25.2742 85.2961 25.4328C85.3039 25.5872 85.2304 25.6858 85.0986 25.7501C84.8702 25.8658 84.3822 25.5914 84.4403 26.106C84.4946 26.599 84.9631 26.359 85.2536 26.4275C85.3736 26.4576 85.4937 26.4919 85.7609 26.5605Z" fill="white"/>
<path d="M61.2992 27.0625C60.6564 27.1569 60.3465 26.8567 60.3891 26.0978C60.4201 25.5661 60.3891 25.026 60.3969 24.4899C60.4007 24.2113 60.3659 23.864 60.7609 23.8896C61.1056 23.9111 61.1404 24.2155 61.1443 24.5157C61.1482 24.9101 61.1637 25.3004 61.1443 25.6948C61.1211 26.1578 61.214 26.4622 61.7213 26.4195C61.8917 26.4066 62.1629 26.3465 62.1783 26.651C62.1938 26.9725 61.9421 27.0368 61.7059 27.0625C61.5781 27.0711 61.4502 27.0625 61.2992 27.0625Z" fill="white"/>
<path d="M59.1784 25.4631C59.1784 25.7804 59.1823 26.1019 59.1784 26.4192C59.1745 26.7022 59.1978 27.0195 58.826 27.041C58.4504 27.0624 58.431 26.7622 58.431 26.4664C58.4271 25.7933 58.4271 25.1201 58.431 24.4469C58.431 24.1511 58.4542 23.851 58.8299 23.8767C59.2055 23.9024 59.1745 24.2196 59.1823 24.5027C59.1862 24.8243 59.1784 25.1458 59.1784 25.4631Z" fill="white"/>
<path d="M78.1197 25.3047C78.3365 24.9188 77.713 23.9412 78.5263 23.9454C79.1924 23.9498 78.7742 24.8674 78.8555 25.3689C78.9175 25.7463 78.8671 26.145 78.8632 26.5353C78.8593 26.801 78.8167 27.0368 78.5069 27.0454C78.2049 27.0541 78.1235 26.8439 78.1197 26.5653C78.1158 26.1794 78.1197 25.7892 78.1197 25.3047Z" fill="white"/>
</g>
<defs>
<clipPath id="clip0_3_2403">
<rect width="130" height="32.5" fill="white" transform="translate(0 0.330078)"/>
</clipPath>
</defs>
</svg>
