<svg width="41" height="41" viewBox="0 0 41 41" fill="none" xmlns="http://www.w3.org/2000/svg">
<mask id="mask0_30_138" style="mask-type:luminance" maskUnits="userSpaceOnUse" x="0" y="0" width="41" height="41">
<path d="M40.0261 0.663818H0.026123V40.6638H40.0261V0.663818Z" fill="white"/>
</mask>
<g mask="url(#mask0_30_138)">
<path d="M36.2223 23.4001H27.9059C27.6436 23.3972 27.389 23.4891 27.1891 23.659C26.9892 23.8289 26.8575 24.0654 26.8181 24.3248C26.5897 25.9592 25.7777 27.4559 24.5321 28.5386C23.2865 29.6212 21.6914 30.2168 20.041 30.2153L22.2928 40.5006C26.2498 39.9837 29.9065 38.1147 32.6434 35.2103C35.3802 32.306 37.0289 28.5448 37.3101 24.5641C37.3206 24.415 37.3002 24.2653 37.2503 24.1244C37.2003 23.9835 37.1218 23.8544 37.0198 23.7452C36.9177 23.636 36.7942 23.549 36.657 23.4896C36.5198 23.4302 36.3718 23.3998 36.2223 23.4001ZM21.8305 23.1391L33.7965 12.8537C33.9122 12.7516 34.0049 12.6261 34.0684 12.4854C34.1319 12.3448 34.1648 12.1922 34.1648 12.0379C34.1648 11.8835 34.1319 11.731 34.0684 11.5903C34.0049 11.4496 33.9122 11.3241 33.7965 11.222L21.8305 0.920353C21.6723 0.786866 21.4794 0.701262 21.2743 0.673588C21.0692 0.645915 20.8605 0.67732 20.6726 0.764118C20.4847 0.850916 20.3255 0.989506 20.2136 1.16362C20.1018 1.33773 20.0419 1.54014 20.041 1.7471V22.3123C20.0419 22.5193 20.1018 22.7217 20.2136 22.8958C20.3255 23.0699 20.4847 23.2085 20.6726 23.2953C20.8605 23.3821 21.0692 23.4135 21.2743 23.3858C21.4794 23.3581 21.6723 23.2725 21.8305 23.1391Z" fill="#2684FF"/>
<path d="M2.90234 25.6465C3.4557 29.8008 5.49815 33.6131 8.65028 36.375C11.8024 39.137 15.8499 40.661 20.0409 40.6638V30.2153C18.2319 30.2153 16.4968 29.4978 15.2161 28.2202C13.9354 26.9426 13.2137 25.2091 13.2094 23.4001L2.90234 25.6465Z" fill="url(#paint0_linear_30_138)"/>
<path d="M2.73926 23.2369V23.4001H13.2095C13.2138 21.5911 13.9355 19.8576 15.2162 18.58C16.4969 17.3024 18.232 16.5849 20.041 16.5849L17.7947 6.29956C13.6666 6.83747 9.87123 8.84663 7.10552 11.9581C4.33981 15.0695 2.78948 19.0743 2.73926 23.2369Z" fill="url(#paint1_linear_30_138)"/>
</g>
<defs>
<linearGradient id="paint0_linear_30_138" x1="11.4744" y1="6.43022" x2="11.4744" y2="29.9978" gradientUnits="userSpaceOnUse">
<stop stop-color="#0052CC"/>
<stop offset="1" stop-color="#2684FF"/>
</linearGradient>
<linearGradient id="paint1_linear_30_138" x1="11.3929" y1="6.4301" x2="11.3929" y2="29.9977" gradientUnits="userSpaceOnUse">
<stop stop-color="#0052CC"/>
<stop offset="1" stop-color="#2684FF"/>
</linearGradient>
</defs>
</svg>
