<svg width="41" height="41" viewBox="0 0 41 41" fill="none" xmlns="http://www.w3.org/2000/svg">
<g clip-path="url(#clip0_30_152)">
<mask id="mask0_30_152" style="mask-type:luminance" maskUnits="userSpaceOnUse" x="0" y="0" width="41" height="41">
<path d="M40.3623 0.663818H0.362305V40.6638H40.3623V0.663818Z" fill="white"/>
</mask>
<g mask="url(#mask0_30_152)">
<path d="M20.4403 29.6701C15.4741 29.6701 11.4328 25.6295 11.4328 20.6701C11.4328 15.7107 15.4747 11.6551 20.4403 11.6551C24.5403 11.6551 28.0066 14.4089 29.0928 18.1632H32.5778C31.4178 12.5245 26.4172 8.27136 20.4403 8.27136C13.6078 8.27136 8.04907 13.8301 8.04907 20.6632C8.04907 27.4964 13.6078 33.0545 20.4403 33.0545C26.4172 33.0545 31.4178 28.8026 32.5778 23.1632H29.0872C28.0009 26.917 24.5347 29.6632 20.4347 29.6632" fill="#435363"/>
<path d="M14.3684 26.7351C15.1647 27.5343 16.1112 28.1682 17.1533 28.6005C18.1954 29.0327 19.3127 29.2548 20.4409 29.2539V25.6639C19.7841 25.6645 19.1337 25.5354 18.527 25.284C17.9202 25.0326 17.3691 24.6638 16.9053 24.1989L14.3684 26.7351Z" fill="#435363"/>
<path d="M11.8499 20.6638C11.8499 21.8931 12.1124 23.0625 12.5786 24.1213L15.8636 22.6763C15.5839 22.0422 15.4398 21.3567 15.4405 20.6638C15.4405 19.3377 15.9673 18.0659 16.9049 17.1282C17.8426 16.1905 19.1144 15.6638 20.4405 15.6638V12.0725C15.703 12.0719 11.8499 15.9263 11.8499 20.6638Z" fill="#F38B00"/>
<path d="M23.5548 12.6514L22.2517 15.9995C23.3111 16.4124 24.1986 17.1732 24.7686 18.157H28.6586C27.8911 15.6414 25.9923 13.6089 23.5548 12.6514Z" fill="#435363"/>
<path d="M22.2536 25.3201L23.5554 28.6682C24.766 28.1941 25.8538 27.4527 26.7377 26.4992C27.6216 25.5458 28.2786 24.405 28.6598 23.162H24.7698C24.2036 24.1401 23.3174 24.912 22.2536 25.3201Z" fill="#F38B00"/>
<path d="M4.54595 25.4688L4.3847 24.9013L4.37532 24.8663L4.24532 24.3351L4.22157 24.2257L4.12595 23.7644L4.0897 23.5582L4.0272 23.1876L3.98345 22.8751C3.88426 22.1438 3.83415 21.4068 3.83345 20.6688H0.439697C0.439676 21.4737 0.488306 22.2779 0.585322 23.0769L0.591572 23.1282L0.680947 23.7719L0.710321 23.9494L0.804072 24.4744L0.866571 24.7513L0.956572 25.1669L1.04595 25.5294L1.12845 25.8526L1.2997 26.4557H1.30095C1.53532 27.2307 1.81345 27.9869 2.13532 28.7182L5.2447 27.3507C4.9772 26.7444 4.74595 26.1163 4.5572 25.4732L4.54595 25.4688Z" fill="#435363"/>
<path d="M20.4403 37.2713C15.8616 37.2713 11.7109 35.407 8.70407 32.3995L6.30095 34.8026C9.92032 38.4226 14.9184 40.6638 20.4403 40.6638C30.6391 40.6638 39.0528 33.0295 40.2841 23.1638H36.8603C35.6497 31.1388 28.7478 37.2713 20.4403 37.2713ZM20.4403 4.05572C24.0203 4.05161 27.5047 5.2111 30.3684 7.35947L32.4009 4.63447C28.9493 2.05052 24.752 0.657123 20.4403 0.663843C11.9541 0.663843 4.70282 5.95009 1.79907 13.4095L4.96407 14.6407C7.3797 8.45134 13.3997 4.05572 20.4403 4.05572Z" fill="#F38B00"/>
<path d="M36.8605 18.1639H40.2843C39.9266 15.2898 38.945 12.5287 37.408 10.0739L34.5249 11.8726C35.7262 13.7876 36.5212 15.9289 36.8605 18.1639Z" fill="#435363"/>
<path d="M33.0029 18.1638H36.4385C35.5422 12.4032 31.5966 7.64004 26.3104 5.57629L25.0835 8.73129C29.1035 10.2938 32.1454 13.8425 33.0029 18.1638Z" fill="#F38B00"/>
<path d="M20.4403 7.85505V4.47192C13.5822 4.47192 7.70781 8.75755 5.35156 14.7919L8.50406 16.0188C10.3684 11.245 15.0159 7.85505 20.4403 7.85505Z" fill="#435363"/>
<path d="M7.63288 20.6638H4.24976C4.24976 27.4676 8.46851 33.3013 14.4285 35.6932L15.6785 32.5532C10.9704 30.6601 7.63288 26.0451 7.63288 20.6638Z" fill="#F38B00"/>
<path d="M20.4404 33.4638V36.8475C28.5186 36.8475 35.2329 30.9006 36.4386 23.1556H33.0023C31.8373 29.0263 26.6479 33.4638 20.4404 33.4638Z" fill="#435363"/>
</g>
<path d="M7.643 25.644C6.671 25.644 5.789 25.482 4.997 25.158C4.217 24.822 3.545 24.342 2.981 23.718C2.441 23.106 2.033 22.398 1.757 21.594C1.493 20.79 1.361 19.95 1.361 19.074C1.361 18.078 1.523 17.172 1.847 16.356C2.171 15.54 2.615 14.844 3.179 14.268C3.767 13.68 4.457 13.224 5.249 12.9C6.053 12.576 6.923 12.414 7.859 12.414C8.363 12.414 8.843 12.456 9.299 12.54C9.767 12.624 10.223 12.744 10.667 12.9C11.111 13.044 11.549 13.206 11.981 13.386V14.79L10.721 14.646C10.361 14.49 9.941 14.358 9.461 14.25C8.993 14.142 8.501 14.088 7.985 14.088C7.049 14.088 6.233 14.298 5.537 14.718C4.841 15.126 4.307 15.702 3.935 16.446C3.563 17.19 3.377 18.06 3.377 19.056C3.377 19.992 3.545 20.832 3.881 21.576C4.217 22.308 4.721 22.89 5.393 23.322C6.077 23.754 6.911 23.97 7.895 23.97C8.447 23.97 8.963 23.886 9.443 23.718C9.923 23.55 10.391 23.262 10.847 22.854C10.907 22.806 10.961 22.77 11.009 22.746C11.069 22.722 11.129 22.71 11.189 22.71C11.297 22.71 11.387 22.752 11.459 22.836L12.233 23.682C11.753 24.258 11.129 24.732 10.361 25.104C9.605 25.464 8.699 25.644 7.643 25.644ZM10.415 14.34L11.981 14.79V16.41H11.117C10.997 16.41 10.901 16.38 10.829 16.32C10.757 16.26 10.709 16.17 10.685 16.05L10.415 14.34ZM14.734 25.5V12.198H16.534V17.49C16.918 17.106 17.338 16.794 17.794 16.554C18.262 16.314 18.796 16.194 19.396 16.194C20.068 16.194 20.626 16.338 21.07 16.626C21.526 16.914 21.874 17.322 22.114 17.85C22.354 18.378 22.474 18.984 22.474 19.668V25.5H20.656V19.668C20.656 19.02 20.506 18.516 20.206 18.156C19.918 17.796 19.468 17.616 18.856 17.616C18.412 17.616 17.992 17.724 17.596 17.94C17.212 18.144 16.858 18.432 16.534 18.804V25.5H14.734ZM21.952 25.5L22.168 23.97L23.428 24.24C23.536 24.264 23.62 24.312 23.68 24.384C23.74 24.456 23.77 24.552 23.77 24.672V25.5H21.952ZM13.42 25.5V24.672C13.42 24.552 13.45 24.456 13.51 24.384C13.57 24.312 13.66 24.264 13.78 24.24L15.022 23.97L15.238 25.5H13.42ZM15.238 12.198L15.022 13.728L13.78 13.458C13.66 13.434 13.57 13.386 13.51 13.314C13.45 13.242 13.42 13.146 13.42 13.026V12.198H15.238ZM16.012 25.5L16.228 23.97L17.488 24.24C17.596 24.264 17.68 24.312 17.74 24.384C17.8 24.456 17.83 24.552 17.83 24.672V25.5H16.012ZM29.029 25.626C28.141 25.626 27.361 25.428 26.689 25.032C26.029 24.624 25.513 24.054 25.141 23.322C24.781 22.59 24.601 21.726 24.601 20.73C24.601 19.878 24.775 19.11 25.123 18.426C25.483 17.73 25.987 17.184 26.635 16.788C27.295 16.392 28.063 16.194 28.939 16.194C29.707 16.194 30.379 16.362 30.955 16.698C31.531 17.034 31.981 17.508 32.305 18.12C32.629 18.732 32.791 19.464 32.791 20.316C32.791 20.592 32.761 20.778 32.701 20.874C32.641 20.97 32.521 21.018 32.341 21.018H26.401C26.401 21.054 26.401 21.09 26.401 21.126C26.401 21.162 26.401 21.198 26.401 21.234C26.473 22.194 26.749 22.932 27.229 23.448C27.709 23.964 28.357 24.222 29.173 24.222C29.533 24.222 29.887 24.15 30.235 24.006C30.595 23.862 30.913 23.724 31.189 23.592C31.477 23.448 31.687 23.376 31.819 23.376C31.963 23.376 32.077 23.424 32.161 23.52L32.665 24.186C32.401 24.522 32.065 24.798 31.657 25.014C31.249 25.23 30.817 25.386 30.361 25.482C29.905 25.578 29.461 25.626 29.029 25.626ZM26.455 19.902H31.171C31.171 19.206 30.979 18.636 30.595 18.192C30.211 17.736 29.671 17.508 28.975 17.508C28.231 17.508 27.649 17.718 27.229 18.138C26.809 18.558 26.551 19.146 26.455 19.902ZM35.2678 25.5V17.796L34.3318 17.688C34.1998 17.652 34.0858 17.604 33.9898 17.544C33.8938 17.472 33.8458 17.37 33.8458 17.238V16.482H35.2678V15.672C35.2678 14.628 35.5558 13.818 36.1318 13.242C36.7198 12.654 37.5118 12.36 38.5078 12.36C38.7118 12.36 38.9098 12.378 39.1018 12.414C39.2938 12.438 39.4798 12.48 39.6598 12.54L39.6238 13.44C39.6118 13.56 39.5698 13.638 39.4978 13.674C39.4378 13.71 39.3598 13.728 39.2638 13.728C39.1918 13.728 39.1198 13.728 39.0478 13.728C38.9758 13.728 38.8978 13.728 38.8138 13.728C38.2258 13.728 37.7818 13.884 37.4818 14.196C37.1818 14.508 37.0318 15.018 37.0318 15.726V16.482H39.5878V17.778H37.0858V25.5H35.2678ZM33.9538 25.5V24.672C33.9538 24.552 33.9838 24.456 34.0438 24.384C34.1158 24.312 34.2058 24.264 34.3138 24.24L35.5738 23.97L35.7718 25.5H33.9538ZM36.5818 25.5L36.7798 23.97L38.0398 24.24C38.1598 24.264 38.2498 24.312 38.3098 24.384C38.3698 24.456 38.3998 24.552 38.3998 24.672V25.5H36.5818Z" fill="#070707"/>
</g>
<defs>
<clipPath id="clip0_30_152">
<rect width="41" height="41" fill="white"/>
</clipPath>
</defs>
</svg>
