<svg width="41" height="41" viewBox="0 0 41 41" fill="none" xmlns="http://www.w3.org/2000/svg">
<g clip-path="url(#clip0_30_106)">
<mask id="mask0_30_106" style="mask-type:luminance" maskUnits="userSpaceOnUse" x="0" y="0" width="41" height="41">
<path d="M40.3623 0.663818H0.362305V40.6638H40.3623V0.663818Z" fill="white"/>
</mask>
<g mask="url(#mask0_30_106)">
<path d="M20.0648 25.4256C22.695 25.4256 24.8273 23.2933 24.8273 20.663C24.8273 18.0328 22.695 15.9005 20.0648 15.9005C17.4345 15.9005 15.3022 18.0328 15.3022 20.663C15.3022 23.2933 17.4345 25.4256 20.0648 25.4256Z" fill="#161616"/>
<path d="M20.0649 0.663963C10.7457 0.663963 2.91627 7.03843 0.695498 15.6633C0.674758 15.7407 0.663627 15.8204 0.662354 15.9006C0.662354 16.4239 1.08801 16.8531 1.61486 16.8531H9.67976C9.8623 16.8537 10.0411 16.8013 10.1944 16.7022C10.3477 16.6031 10.4689 16.4615 10.5433 16.2948C10.5433 16.2948 10.5555 16.2722 10.5607 16.2599C12.2233 12.6732 15.8536 10.1838 20.0684 10.1838C25.8549 10.1838 30.5459 14.873 30.5459 20.6596C30.5459 26.4462 25.8567 31.1354 20.0701 31.1354C15.8571 31.1354 12.2268 28.646 10.5625 25.0593C10.5572 25.0471 10.545 25.0244 10.545 25.0244C10.3915 24.6859 10.0531 24.4661 9.6815 24.4661H1.6166C1.08976 24.4661 0.664097 24.8918 0.664097 25.4186C0.665004 25.4988 0.676141 25.5786 0.697241 25.6559C2.91801 34.2808 10.7491 40.6553 20.0666 40.6553C31.1129 40.6535 40.0832 31.7006 40.0832 20.6561C40.0832 9.61159 31.1286 0.656982 20.0841 0.656982L20.0649 0.663963Z" fill="#161616"/>
</g>
</g>
<defs>
<clipPath id="clip0_30_106">
<rect width="41" height="41" fill="white"/>
</clipPath>
</defs>
</svg>
