<svg width="41" height="41" viewBox="0 0 41 41" fill="none" xmlns="http://www.w3.org/2000/svg">
<g clip-path="url(#clip0_30_115)">
<mask id="mask0_30_115" style="mask-type:luminance" maskUnits="userSpaceOnUse" x="0" y="0" width="41" height="41">
<path d="M40.668 0.663818H0.667969V40.6638H40.668V0.663818Z" fill="white"/>
</mask>
<g mask="url(#mask0_30_115)">
<path d="M40.668 21.6263C40.668 18.2788 38.588 15.3388 35.4605 14.2051C35.5956 13.4972 35.6634 12.7782 35.663 12.0576C35.663 5.80756 30.5917 0.747559 24.3692 0.747559C20.7192 0.747559 17.3367 2.48881 15.2067 5.43006C14.1567 4.61731 12.8658 4.17749 11.538 4.18006C8.22548 4.18006 5.53798 6.86756 5.53798 10.1801C5.53798 10.9076 5.67298 11.6176 5.91048 12.2763C4.3799 12.8307 3.05641 13.8416 2.11884 15.1724C1.18128 16.5032 0.674848 18.0897 0.667982 19.7176C0.664958 21.3449 1.16535 22.9333 2.10056 24.2651C3.03577 25.5968 4.36001 26.6067 5.89173 27.1563C5.75576 27.864 5.68795 28.5832 5.68923 29.3038C5.69221 32.2935 6.8812 35.16 8.99526 37.274C11.1093 39.3881 13.9757 40.5771 16.9655 40.5801C20.6155 40.5801 23.998 38.8213 26.1117 35.8801C27.1617 36.7088 28.4442 37.1651 29.7805 37.1651C33.093 37.1651 35.7805 34.4776 35.7805 31.1651C35.7805 30.4376 35.6455 29.7276 35.408 29.0688C36.9408 28.5158 38.2671 27.5057 39.2077 26.175C40.1483 24.8443 40.658 23.2558 40.668 21.6263Z" fill="white"/>
<path d="M16.3904 17.9075L25.1479 21.8975L33.9729 14.155C34.1033 13.5155 34.1658 12.8639 34.1591 12.2113C34.1555 9.59371 33.114 7.0844 31.2631 5.2335C29.4122 3.3826 26.9029 2.34116 24.2854 2.33752C22.6832 2.33893 21.1055 2.73064 19.6887 3.47878C18.2719 4.22691 17.0588 5.30894 16.1541 6.63127L14.6829 14.2563L16.3904 17.9075Z" fill="#FED10A"/>
<path d="M7.3305 27.1726C7.19961 27.8235 7.13677 28.4862 7.143 29.1501C7.143 34.6126 11.5892 39.0401 17.0505 39.0401C18.6638 39.0401 20.2526 38.6458 21.6787 37.8916C23.1048 37.1373 24.3249 36.046 25.233 34.7126L26.6868 27.1214L24.743 23.4026L15.9517 19.3964L7.3305 27.1726Z" fill="#24BBB1"/>
<path d="M7.27798 12.0263L13.278 13.4463L14.5967 6.63376C13.7842 6.00876 12.7717 5.67126 11.7217 5.67126C10.4676 5.67292 9.26538 6.17175 8.3785 7.0584C7.49161 7.94505 6.99246 9.14719 6.99048 10.4013C6.99048 10.9588 7.09048 11.5175 7.27798 12.0238" fill="#EF5098"/>
<path d="M6.75551 13.4613C4.08426 14.3401 2.20801 16.9113 2.20801 19.7338C2.20801 22.4901 3.91551 24.9413 6.46801 25.9213L14.8868 18.3138L13.3493 15.0176L6.75551 13.4613Z" fill="#17A8E0"/>
<path d="M26.7554 34.7138C27.5758 35.3427 28.5791 35.6867 29.6129 35.6938C30.868 35.6928 32.0715 35.1937 32.959 34.3062C33.8466 33.4186 34.3456 32.2152 34.3466 30.96C34.3476 30.4007 34.2503 29.8456 34.0591 29.32L28.0741 27.9163L26.7554 34.7138Z" fill="#93C83E"/>
<path d="M27.9717 26.3438L34.5655 27.8813C35.8854 27.4394 37.0338 26.5953 37.8494 25.4674C38.665 24.3394 39.1069 22.9844 39.113 21.5925C39.1112 20.2535 38.703 18.9466 37.9423 17.8446C37.1817 16.7427 36.1044 15.8976 34.853 15.4213L26.2305 22.9788L27.9717 26.3438Z" fill="#0779A1"/>
</g>
</g>
<defs>
<clipPath id="clip0_30_115">
<rect width="41" height="41" fill="white"/>
</clipPath>
</defs>
</svg>
