<svg width="41" height="41" viewBox="0 0 41 41" fill="none" xmlns="http://www.w3.org/2000/svg">
<path d="M32.5218 15.9629C31.8793 13.6688 30.5893 11.6488 28.8577 10.1046L25.026 13.9363C26.4235 15.0738 27.366 16.7479 27.5377 18.6429V19.8996C27.5593 19.8996 27.5793 19.8929 27.601 19.8929C29.536 19.8929 31.111 21.4679 31.111 23.4029C31.111 25.3379 29.536 26.9138 27.601 26.9138C27.5793 26.9138 27.5593 26.9079 27.5377 26.9071V26.9138H21.9827H20.6943V32.3304H27.5377V32.3271C27.5593 32.3271 27.5793 32.3304 27.601 32.3304C32.5235 32.3304 36.5277 28.3254 36.5277 23.4038C36.5277 20.2996 34.9327 17.5629 32.5218 15.9629Z" fill="url(#paint0_linear_30_96)"/>
<path opacity="0.5" d="M16.9942 21.9888L20.9275 18.0555C20.9242 18.0513 20.9209 18.048 20.9184 18.0447L16.9875 21.9755C16.9892 21.9797 16.9917 21.9838 16.9942 21.9888Z" fill="#FFE082"/>
<path opacity="0.5" d="M16.9942 21.9888L20.9275 18.0555C20.9242 18.0513 20.9209 18.048 20.9184 18.0447L16.9875 21.9755C16.9892 21.9797 16.9917 21.9838 16.9942 21.9888Z" fill="#90CAF9"/>
<path d="M20.6943 6.97717C13.9168 6.97717 8.40259 12.4913 8.40259 19.2688C8.40259 19.463 8.42259 19.6522 8.43175 19.8438H13.8484C13.8326 19.6538 13.8193 19.463 13.8193 19.2688C13.8193 15.478 16.9034 12.3938 20.6943 12.3938C22.3351 12.3938 23.8426 12.9738 25.0259 13.9363L28.8576 10.1047C26.6843 8.16634 23.8284 6.97717 20.6943 6.97717Z" fill="url(#paint1_linear_30_96)"/>
<path opacity="0.5" d="M13.7877 26.9139H13.786C13.2768 26.9139 12.796 26.7997 12.3593 26.603L8.43433 30.528C9.92849 31.6539 11.7785 32.3305 13.786 32.3305H13.7877H20.6943V26.9139H13.7877Z" fill="#90CAF9"/>
<path d="M13.7877 26.9139H13.786C13.2768 26.9139 12.796 26.7997 12.3593 26.603L8.43433 30.528C9.92849 31.6539 11.7785 32.3305 13.786 32.3305H13.7877H20.6943V26.9139H13.7877Z" fill="url(#paint2_linear_30_96)"/>
<path d="M10.2778 23.4055C10.2778 21.4721 11.8528 19.8971 13.7861 19.8971C15.2053 19.8971 16.4344 20.7496 16.9869 21.9755L20.9177 18.0446C19.2836 15.8763 16.6969 14.4805 13.7852 14.4805C8.86942 14.4805 4.86108 18.4805 4.86108 23.4055C4.86108 26.3146 6.27025 28.8971 8.43442 30.528L12.3594 26.603C11.1361 26.0546 10.2778 24.8296 10.2778 23.4055Z" fill="url(#paint3_linear_30_96)"/>
<defs>
<linearGradient id="paint0_linear_30_96" x1="39.8193" y1="20.4554" x2="21.0693" y2="21.7054" gradientUnits="userSpaceOnUse">
<stop stop-color="#2AA4F4"/>
<stop offset="1" stop-color="#007AD9"/>
</linearGradient>
<linearGradient id="paint1_linear_30_96" x1="21.3901" y1="8.67051" x2="16.0509" y2="16.738" gradientUnits="userSpaceOnUse">
<stop stop-color="#F7572F"/>
<stop offset="0.523" stop-color="#F7552D"/>
<stop offset="0.712" stop-color="#F75026"/>
<stop offset="0.846" stop-color="#F7461B"/>
<stop offset="0.954" stop-color="#F7390A"/>
<stop offset="1" stop-color="#F73100"/>
</linearGradient>
<linearGradient id="paint2_linear_30_96" x1="26.7818" y1="34.2864" x2="7.82349" y2="25.8489" gradientUnits="userSpaceOnUse">
<stop stop-color="#4CAF50"/>
<stop offset="0.486" stop-color="#4AAE50"/>
<stop offset="0.661" stop-color="#43A94E"/>
<stop offset="0.786" stop-color="#38A14C"/>
<stop offset="0.887" stop-color="#279648"/>
<stop offset="0.972" stop-color="#118844"/>
<stop offset="1" stop-color="#088242"/>
</linearGradient>
<linearGradient id="paint3_linear_30_96" x1="14.9944" y1="24.5738" x2="6.76525" y2="16.553" gradientUnits="userSpaceOnUse">
<stop stop-color="#FFD747"/>
<stop offset="0.482" stop-color="#FFD645"/>
<stop offset="0.655" stop-color="#FED43E"/>
<stop offset="0.779" stop-color="#FCCF33"/>
<stop offset="0.879" stop-color="#FAC922"/>
<stop offset="0.964" stop-color="#F7C10C"/>
<stop offset="1" stop-color="#F5BC00"/>
</linearGradient>
</defs>
</svg>
