<svg width="41" height="41" viewBox="0 0 41 41" fill="none" xmlns="http://www.w3.org/2000/svg">
<mask id="mask0_30_172" style="mask-type:luminance" maskUnits="userSpaceOnUse" x="0" y="0" width="41" height="41">
<path d="M40.668 0.663818H0.667969V40.6638H40.668V0.663818Z" fill="white"/>
</mask>
<g mask="url(#mask0_30_172)">
<path d="M20.543 1.25877C20.1853 1.27979 19.8355 1.37245 19.5143 1.53127L5.58305 8.17627C4.85555 8.52252 4.3268 9.18127 4.14555 9.96627L0.735547 24.88C0.573047 25.58 0.704297 26.3138 1.11055 26.9138C1.15805 26.9863 1.20805 27.0563 1.26055 27.1238L10.8855 39.0913C11.3943 39.7163 12.158 40.075 12.963 40.0713H28.4005C29.208 40.0725 29.973 39.6963 30.4805 39.08L40.1005 27.11C40.6055 26.485 40.7943 25.66 40.6005 24.8775L37.168 9.95127C36.9868 9.16627 36.4555 8.50752 35.7305 8.16127L21.8218 1.53252C21.421 1.33485 20.9771 1.24073 20.5305 1.25877H20.543Z" fill="#326CE5"/>
<path d="M20.6704 6.34131C20.1904 6.37506 19.8266 6.78631 19.8516 7.26631V7.50131C19.8741 7.76756 19.9141 8.03131 19.9666 8.29256C20.0433 8.79284 20.0709 9.29941 20.0491 9.80506C20.0016 9.97131 19.9066 10.1213 19.7766 10.2363L19.7579 10.5888C19.2516 10.6313 18.7491 10.7088 18.2541 10.8213C16.1716 11.2913 14.2754 12.3713 12.8116 13.9276L12.5116 13.7151C12.3466 13.7651 12.1691 13.7463 12.0179 13.6651C11.6121 13.3648 11.2366 13.0257 10.8966 12.6526C10.7258 12.4485 10.5435 12.2544 10.3504 12.0713L10.1654 11.9238C10.0004 11.7913 9.79787 11.7151 9.58662 11.7051C9.46056 11.6984 9.3347 11.7216 9.21934 11.7729C9.10397 11.8242 9.00238 11.902 8.92287 12.0001C8.64037 12.3963 8.73287 12.9451 9.12787 13.2288L9.30037 13.3663C9.52242 13.514 9.7528 13.6488 9.99037 13.7701C10.4329 14.0163 10.8504 14.3051 11.2379 14.6451C11.337 14.7864 11.3946 14.9527 11.4041 15.1251L11.6766 15.3751C10.2054 17.5826 9.60162 20.2563 9.97912 22.8826L9.62912 22.9826C9.53787 23.1276 9.41662 23.2513 9.27162 23.3426C8.78331 23.473 8.28344 23.5554 7.77912 23.5888C7.51147 23.5942 7.24436 23.6151 6.97912 23.6513L6.75787 23.7013H6.73287C6.57933 23.7226 6.43472 23.7861 6.31513 23.8847C6.19554 23.9834 6.10567 24.1133 6.05553 24.2599C6.00538 24.4066 5.99693 24.5643 6.03111 24.7155C6.06529 24.8667 6.14076 25.0055 6.24912 25.1163C6.35849 25.2266 6.49638 25.3043 6.64737 25.3407C6.79836 25.3771 6.9565 25.3708 7.10412 25.3226H7.12037L7.34537 25.2976C7.59912 25.2226 7.84912 25.1301 8.09287 25.0251C8.56162 24.8376 9.04787 24.6938 9.54537 24.6001C9.71787 24.6101 9.88287 24.6688 10.0229 24.7688L10.3979 24.7063C11.2104 27.2276 12.9179 29.3638 15.1979 30.7101L15.0454 31.0288C15.1154 31.1751 15.1416 31.3376 15.1204 31.4988C14.9141 31.9763 14.6616 32.4338 14.3666 32.8638C14.2048 33.0771 14.0554 33.2996 13.9191 33.5301L13.8129 33.7551C13.7358 33.8888 13.6971 34.0412 13.7012 34.1955C13.7053 34.3498 13.752 34.5 13.836 34.6294C13.9201 34.7589 14.0383 34.8626 14.1776 34.9291C14.3169 34.9956 14.4719 35.0223 14.6254 35.0063C14.7793 34.989 14.9253 34.9294 15.0473 34.834C15.1694 34.7387 15.2626 34.6114 15.3166 34.4663L15.4204 34.2538C15.5154 34.0038 15.5954 33.7488 15.6604 33.4913C15.8816 32.9451 16.0016 32.3588 16.3041 31.9963C16.403 31.9034 16.5276 31.8424 16.6616 31.8213L16.8491 31.4801C19.3207 32.43 22.0555 32.4367 24.5316 31.4988L24.6979 31.8176C24.8679 31.8426 25.0204 31.9363 25.1229 32.0738C25.3579 32.5213 25.5479 32.9901 25.6929 33.4738C25.759 33.7328 25.8399 33.9878 25.9354 34.2376L26.0391 34.4501C26.0937 34.5946 26.1872 34.7213 26.3092 34.816C26.4313 34.9107 26.5772 34.9698 26.7308 34.9868C26.8844 35.0037 27.0397 34.9779 27.1795 34.912C27.3192 34.8462 27.4381 34.743 27.5229 34.6138C27.6068 34.4839 27.6531 34.3332 27.6567 34.1785C27.6602 34.0238 27.6208 33.8712 27.5429 33.7376L27.4341 33.5126C27.2979 33.2829 27.1484 33.0613 26.9866 32.8488C26.6991 32.4338 26.4516 31.9913 26.2366 31.5276C26.2166 31.4428 26.2137 31.3548 26.2283 31.2689C26.2429 31.183 26.2747 31.101 26.3216 31.0276C26.2683 30.9185 26.2219 30.8062 26.1829 30.6913C28.4579 29.3351 30.1579 27.1913 30.9616 24.6663L31.3166 24.7288C31.4441 24.6126 31.6116 24.5513 31.7829 24.5563C32.2791 24.6513 32.7654 24.8063 33.2354 24.9813C33.4791 25.0938 33.7291 25.1888 33.9829 25.2688C34.0429 25.2851 34.1304 25.2988 34.1979 25.3151H34.2141C34.3617 25.3627 34.5195 25.3685 34.6701 25.3317C34.8208 25.2949 34.9582 25.2171 35.0672 25.1068C35.1762 24.9965 35.2524 24.8581 35.2874 24.7071C35.3224 24.5561 35.3148 24.3983 35.2654 24.2513C35.2148 24.1045 35.1245 23.9746 35.0044 23.8761C34.8843 23.7777 34.7393 23.7146 34.5854 23.6938L34.3429 23.6363C34.0776 23.6001 33.8105 23.5792 33.5429 23.5738C33.0379 23.5413 32.5379 23.4588 32.0504 23.3276C31.9004 23.2438 31.7754 23.1188 31.6904 22.9676L31.3529 22.8676C31.7127 20.2425 31.0962 17.5768 29.6204 15.3763L29.9154 15.1038C29.9029 14.9326 29.9591 14.7626 30.0704 14.6313C30.4541 14.3013 30.8704 14.0101 31.3079 13.7613C31.5454 13.6401 31.7758 13.5052 31.9979 13.3576L32.1804 13.2101C32.3147 13.1267 32.4228 13.0069 32.4919 12.8647C32.5611 12.7225 32.5885 12.5636 32.5711 12.4064C32.5537 12.2492 32.4922 12.1001 32.3936 11.9765C32.295 11.8528 32.1635 11.7596 32.0141 11.7076C31.8649 11.6556 31.704 11.6469 31.5501 11.6826C31.3961 11.7182 31.2554 11.7966 31.1441 11.9088L30.9591 12.0563C30.7661 12.2395 30.5837 12.4335 30.4129 12.6376C30.0829 13.0151 29.7179 13.3588 29.3216 13.6663C29.1617 13.7314 28.9868 13.7505 28.8166 13.7213L28.5004 13.9463C26.6754 12.0338 24.2166 10.8463 21.5816 10.6088C21.5816 10.4838 21.5654 10.2963 21.5629 10.2376C21.4216 10.1401 21.3229 9.99131 21.2904 9.82256C21.273 9.31775 21.3048 8.81245 21.3854 8.31381C21.4391 8.05131 21.4766 7.78881 21.5004 7.52256V7.27256C21.5254 6.79256 21.1629 6.38131 20.6816 6.34756L20.6704 6.34131ZM19.6279 12.7988L19.3779 17.1651H19.3591C19.3466 17.4351 19.1879 17.6651 18.9441 17.7951C18.7004 17.9251 18.4116 17.8863 18.1941 17.7276L14.6129 15.1901C15.7527 14.0705 17.1827 13.2916 18.7416 12.9413C19.0341 12.8788 19.3291 12.8313 19.6254 12.7988H19.6279ZM21.7129 12.7988C23.5941 13.0326 25.3454 13.8776 26.7004 15.2038L23.1529 17.7251C22.9341 17.9001 22.6341 17.9351 22.3804 17.8151C22.1266 17.6951 21.9641 17.4401 21.9604 17.1601L21.7129 12.7988ZM13.3129 16.8326L16.5879 19.7551V19.7738C16.7916 19.9513 16.8804 20.2276 16.8204 20.4913C16.7604 20.7551 16.5579 20.9638 16.2991 21.0351V21.0476L12.0966 22.2563C11.8887 20.3629 12.317 18.4542 13.3141 16.8313L13.3129 16.8326ZM28.0041 16.8326C28.9991 18.4513 29.4391 20.3501 29.2566 22.2413L25.0479 21.0288V21.0126C24.7854 20.9413 24.5854 20.7326 24.5266 20.4688C24.4679 20.2051 24.5554 19.9313 24.7591 19.7513L28.0091 16.8426L28.0041 16.8326ZM19.9991 19.9826H21.3391L22.1579 21.0226L21.8604 22.3226L20.6566 22.9013L19.4504 22.3226L19.1666 21.0226L19.9991 19.9826ZM24.2916 23.5301C24.3479 23.5238 24.4166 23.5238 24.4604 23.5301L28.7941 24.2613C28.1691 26.0613 26.9354 27.5988 25.3254 28.6276L23.6504 24.5726C23.6043 24.4638 23.5851 24.3455 23.5943 24.2277C23.6034 24.11 23.6408 23.9961 23.7031 23.8958C23.7655 23.7954 23.851 23.7115 23.9526 23.6512C24.0541 23.5908 24.1687 23.5557 24.2866 23.5488L24.2916 23.5301ZM17.0129 23.5488C17.2579 23.5526 17.4841 23.6788 17.6179 23.8838C17.7516 24.0888 17.7729 24.3463 17.6766 24.5713V24.5876L16.0116 28.6101C14.4179 27.5888 13.2079 26.0701 12.5641 24.2888L16.8604 23.5601C16.9079 23.5551 16.9566 23.5551 17.0054 23.5601L17.0129 23.5488ZM20.6429 25.2988C20.7794 25.2945 20.9145 25.3282 21.033 25.3962C21.1516 25.4642 21.2489 25.5638 21.3141 25.6838H21.3304L23.4479 29.5051L22.6016 29.7551C21.0441 30.1113 19.4179 30.0276 17.9041 29.5126L20.0291 25.6913C20.1579 25.4663 20.3954 25.3288 20.6541 25.3226L20.6429 25.2988Z" fill="white" stroke="white" stroke-width="0.11"/>
</g>
</svg>
