<svg width="41" height="41" viewBox="0 0 41 41" fill="none" xmlns="http://www.w3.org/2000/svg">
<mask id="mask0_30_129" style="mask-type:luminance" maskUnits="userSpaceOnUse" x="0" y="0" width="41" height="41">
<path d="M40.9736 0.663818H0.973633V40.6638H40.9736V0.663818Z" fill="white"/>
</mask>
<g mask="url(#mask0_30_129)">
<path d="M40.6798 16.3794C38.8029 7.75445 28.4611 2.6832 17.5761 5.0482C6.69106 7.4132 -0.607685 16.3263 1.26731 24.9476C3.14231 33.5688 13.4861 38.6463 24.3686 36.2788C35.2511 33.9113 42.5548 25.0119 40.6811 16.3788L40.6798 16.3794ZM20.9748 28.6138C19.4025 28.6137 17.8656 28.1474 16.5583 27.2738C15.251 26.4003 14.2321 25.1587 13.6304 23.7061C13.0288 22.2535 12.8713 20.6551 13.178 19.113C13.4848 17.5709 14.2418 16.1544 15.3536 15.0426C16.4654 13.9308 17.8819 13.1738 19.424 12.8671C20.9661 12.5603 22.5645 12.7178 24.0171 13.3195C25.4697 13.9211 26.7113 14.94 27.5848 16.2473C28.4584 17.5546 28.9247 19.0915 28.9248 20.6638C28.9248 25.0544 25.3654 28.6138 20.9748 28.6138Z" fill="#008C99"/>
<path d="M22.7318 9.53381C16.4281 9.53506 11.3193 14.6463 11.3193 20.9501C11.3193 27.2538 16.4306 32.3626 22.7343 32.3626C29.0381 32.3626 34.1487 27.2513 34.1487 20.9482C34.1487 17.9207 32.9456 15.0107 30.805 12.8763C28.6643 10.7419 25.7593 9.53256 22.7318 9.53381ZM20.9725 27.6013C19.5991 27.6013 18.2566 27.1941 17.1147 26.4311C15.9728 25.6681 15.0828 24.5836 14.5572 23.3148C14.0317 22.046 13.8942 20.6499 14.1621 19.3029C14.43 17.9559 15.0913 16.7187 16.0625 15.7476C17.0336 14.7765 18.2708 14.1151 19.6178 13.8472C20.9648 13.5793 22.3609 13.7168 23.6297 14.2423C24.8985 14.7679 25.983 15.6579 26.746 16.7998C27.509 17.9417 27.9162 19.2842 27.9162 20.6576C27.9162 24.4913 24.8087 27.6001 20.975 27.5951L20.9725 27.6013Z" fill="#70CCD3"/>
</g>
</svg>
