<svg width="41" height="41" viewBox="0 0 41 41" fill="none" xmlns="http://www.w3.org/2000/svg">
<g clip-path="url(#clip0_30_87)">
<mask id="mask0_30_87" style="mask-type:luminance" maskUnits="userSpaceOnUse" x="0" y="1" width="41" height="40">
<path d="M40.2827 1.13232H0.776855V40.1762H40.2827V1.13232Z" fill="white"/>
</mask>
<g mask="url(#mask0_30_87)">
<path d="M26.7775 24.6205C26.8252 25.9419 27.5321 25.9321 28.3728 25.9012C29.5052 25.8805 30.1268 25.5335 30.6951 25.807C30.6861 25.7754 30.5086 25.2449 29.7244 25.3372C29.8154 25.1409 29.8542 24.8753 29.8266 24.5103C29.7233 23.1897 28.9549 22.1408 28.1121 22.1706C27.2713 22.1993 26.7309 23.2959 26.7775 24.6205ZM28.0329 23.0093C28.0893 23.0083 28.1456 23.0182 28.1981 23.0389C28.2507 23.0595 28.2987 23.0904 28.3393 23.1296C28.3799 23.1688 28.4125 23.2158 28.4349 23.2676C28.4573 23.3195 28.4693 23.3752 28.4701 23.4317C28.4721 23.5456 28.429 23.6557 28.35 23.7379C28.271 23.82 28.1627 23.8675 28.0487 23.87C27.9344 23.8717 27.824 23.828 27.7418 23.7484C27.6596 23.6689 27.6124 23.56 27.6105 23.4456C27.6095 23.3892 27.6197 23.3332 27.6404 23.2807C27.6612 23.2283 27.692 23.1805 27.7313 23.1399C27.7704 23.0994 27.8173 23.067 27.869 23.0446C27.9208 23.0222 27.9765 23.0102 28.0329 23.0093ZM15.2342 26.1393C15.3215 26.1413 15.4127 26.1393 15.5058 26.1372C15.5873 26.1372 15.6686 26.1353 15.7538 26.1324C16.5976 26.1244 17.2967 26.2036 17.2857 24.8811C17.2719 23.5587 16.6848 22.4878 15.8412 22.4968C14.9993 22.5046 14.1842 23.5892 14.2328 24.9109C14.2476 25.2559 14.2983 25.5038 14.3794 25.6832C13.6458 25.8686 13.4427 26.3217 13.4307 26.3504C13.8927 26.1016 14.4153 26.1372 15.2342 26.1393ZM15.959 23.3286C16.197 23.3206 16.3942 23.509 16.4023 23.747C16.4049 23.861 16.3624 23.9715 16.2837 24.0543C16.2051 24.1369 16.0969 24.1852 15.9828 24.1883C15.9263 24.1899 15.87 24.1805 15.8171 24.1603C15.7642 24.1402 15.7158 24.1098 15.6748 24.0708C15.6337 24.032 15.6007 23.9853 15.5777 23.9337C15.5547 23.8821 15.5421 23.8263 15.5407 23.7698C15.5389 23.7133 15.5485 23.657 15.5686 23.6042C15.5887 23.5514 15.6191 23.5031 15.658 23.4621C15.6969 23.4211 15.7436 23.3882 15.7952 23.3652C15.8468 23.3423 15.9026 23.33 15.959 23.3286ZM17.9391 9.23547H20.3048V8.25995H20.8372V12.7669H20.0332V15.2882H24.1747V12.7669H23.3697V8.25995H23.9031V9.23547H26.2709V5.89539H17.9391V9.23547Z" fill="#403E42"/>
<path d="M40.1294 15.6756C40.1144 15.3901 40.0872 15.1053 40.0481 14.822C40.0282 14.6793 40.0073 14.5366 39.9777 14.3967C39.9499 14.252 39.9222 14.1181 39.8755 13.9605L39.8457 13.8494L39.7675 13.787C39.3162 13.434 38.8315 13.1664 38.3387 12.9305C37.9312 12.7382 37.5177 12.5706 37.1003 12.4169C35.9332 9.18079 33.9304 6.31164 31.294 4.314C28.5702 2.24786 25.3666 1.1543 22.031 1.1543C18.6937 1.1543 15.491 2.24786 12.7663 4.314C10.6912 5.88637 9.01049 8.00005 7.8196 10.4063H7.81389C7.48936 11.0596 7.20237 11.7309 6.95433 12.4169C6.53581 12.5706 6.12239 12.7382 5.71483 12.9304C5.22101 13.1665 4.73722 13.434 4.28598 13.787L4.20667 13.8494L4.17703 13.9605C4.13563 14.1042 4.10117 14.2497 4.0738 14.3967C4.04602 14.5366 4.02333 14.6793 4.00435 14.822C3.97564 15.0252 3.95682 15.2316 3.94 15.4377H3.94694C3.93977 15.5173 3.93411 15.5969 3.92997 15.6767C3.9009 16.2482 3.91751 16.8211 3.97965 17.3898C4.0403 17.9602 4.1464 18.5248 4.29694 19.0782C4.3759 19.3568 4.46824 19.6315 4.57364 19.9012C4.62611 20.0369 4.68366 20.1718 4.74801 20.3076C4.77981 20.375 4.81453 20.4415 4.84926 20.5098L4.90574 20.61C4.9275 20.6477 4.94246 20.6745 4.97517 20.7229L5.03166 20.8123L5.12286 20.8589C5.21901 20.9085 5.29941 20.9452 5.38675 20.9869L5.64045 21.1017C5.68705 21.1206 5.73274 21.1404 5.78118 21.1603C4.6241 22.2289 3.36685 23.618 2.27921 25.3352L0.905762 27.4995L2.8343 25.807C2.8681 25.7783 4.48413 24.3794 7.18118 22.7922L7.21883 23.1024L7.31698 23.8847L7.8108 27.897C7.82161 27.9733 7.86127 28.0418 7.92485 28.0853L8.93719 28.7962C8.95494 28.8526 8.97176 28.9094 8.98873 28.9678C9.01249 29.0481 9.03425 29.1273 9.0591 29.2076L9.29011 29.9046C9.79672 31.48 10.5146 32.9007 11.3881 34.149C11.3464 34.1618 11.3039 34.1736 11.2622 34.1857C10.7358 33.9418 8.89644 33.0891 8.2787 32.8104L6.98674 32.2306L7.75123 33.4232C7.80679 33.5095 9.12546 35.5658 10.2014 36.9517C11.2097 38.2455 12.5888 39.5661 15.1906 39.5661C15.5175 39.5647 15.8442 39.5462 16.1692 39.5106C16.9457 39.4203 17.5286 39.351 17.9718 39.2935C20.7025 40.2988 23.7147 40.3581 26.5733 39.2765C27.3223 38.9923 28.0421 38.6368 28.723 38.2149C28.7369 38.2128 28.7497 38.2086 28.7616 38.2059C29.8245 37.9501 31.0311 37.6615 31.6272 37.495C31.7222 37.4692 31.8422 37.4404 31.9662 37.4108C32.7962 37.2214 34.1831 36.8981 34.9219 35.419C35.6665 33.9259 36.8822 31.6396 36.8941 31.617L37.4632 30.553L36.3577 31.0339C36.2972 31.0597 34.8952 31.6712 34.1663 32.0532C34.1416 32.0679 34.1098 32.0809 34.0811 32.0948C34.6741 30.8862 34.9696 29.9234 35.0756 29.5537L35.4752 27.905L36.6263 25.3302C36.6263 25.3302 36.9495 22.5157 36.9566 22.5176L37.0695 21.4408C37.1707 21.3982 37.7855 21.3556 37.9053 21.3081C38.077 21.2405 38.2484 21.1742 38.42 21.0998L38.6727 20.9848C38.7621 20.9431 38.8414 20.9064 38.9376 20.8567L39.0286 20.8103L39.0863 20.7212C39.118 20.6726 39.1357 20.6447 39.1547 20.608L39.2102 20.5079C39.2489 20.4395 39.2816 20.373 39.3122 20.3057C39.3752 20.172 39.4341 20.0364 39.4888 19.8991C39.5927 19.6291 39.6844 19.3545 39.7635 19.0762C39.9142 18.5181 40.0232 17.956 40.0808 17.3878C40.1442 16.8208 40.1581 16.2478 40.1294 15.6756ZM13.86 22.6226C13.8847 22.6056 14.9189 21.9276 16.6075 21.1017C18.4478 20.9623 20.2927 20.8925 22.1383 20.8926C22.6221 20.8926 23.0969 20.8995 23.5659 20.9075C23.2388 21.1712 22.8937 21.42 22.5347 21.6352L21.342 22.3569C20.5894 22.4481 19.9371 22.6354 19.9013 22.6454C19.8794 22.6515 19.8584 22.6605 19.839 22.6722C19.7803 22.706 19.7357 22.7613 19.716 22.8269L18.4963 26.8432L11.9872 28.2896L9.93564 26.853L9.33873 22.0217C10.5028 21.8067 12.0614 21.5597 13.9313 21.3506C13.7265 21.593 13.5333 21.8451 13.3524 22.1061L12.2389 23.7043L13.86 22.6226ZM22.645 39.4312C21.571 39.5027 20.4804 39.3767 19.4126 39.0842C19.5018 39.0664 19.5662 39.0565 19.6456 39.0476C19.7328 39.0356 21.6494 38.7838 22.511 37.503L22.5923 37.5049L22.8065 37.5029C22.9484 37.5029 23.0772 37.491 23.215 37.4852C23.5422 37.4583 23.8586 37.4108 24.1729 37.3473C24.2066 37.38 24.2383 37.4127 24.273 37.4485C24.9204 38.0899 25.7245 38.4575 26.6079 38.5221C25.1217 39.1259 23.7228 39.3599 22.645 39.4312ZM22.7422 37.0816C22.9035 36.7217 23.0257 36.4411 23.1178 36.2299C23.3473 36.4858 23.5814 36.7378 23.82 36.9854C23.6086 37.0171 23.4003 37.044 23.1951 37.0608C23.0604 37.0667 22.9195 37.0816 22.7906 37.0816H22.7422ZM19.5484 28.7913L20.1303 28.6605C20.1772 28.6499 20.2206 28.6272 20.2557 28.5944C20.291 28.5617 20.3168 28.5201 20.3306 28.474L21.5463 24.4755C21.7565 24.4477 21.9409 24.433 22.1005 24.433C22.2552 24.433 22.4427 24.4479 22.6519 24.4755L23.9032 28.593C23.9349 28.698 24.025 28.7745 24.1322 28.7864L24.5962 28.8388L24.7152 28.8518L32.7089 29.7609C32.7753 29.7688 32.8407 29.75 32.8951 29.7123L33.6985 29.1511L34.441 28.6316L34.7157 28.4384C34.6709 28.6297 34.6215 28.8199 34.5699 29.0075C34.494 29.2486 34.4143 29.4885 34.331 29.7271C34.0027 30.6612 33.635 31.5087 33.2344 32.2741C33.1175 32.2818 33.0004 32.2858 32.8833 32.286C32.4946 32.286 32.0999 32.2543 31.6626 32.2136C30.9034 32.1433 29.7006 32.0054 29.3218 31.9629C28.9916 31.7001 27.8702 30.8108 26.939 30.0762C26.9036 30.0484 26.8718 30.0186 26.8391 29.9928C26.6754 29.854 26.4891 29.6974 26.1113 29.6974C25.7662 29.6974 25.2646 29.8223 24.0519 30.188C24.6835 29.7163 24.6884 29.1086 24.6884 29.1086C24.6884 29.1086 23.7901 29.9453 22.3405 30.1297C20.8948 30.3161 19.7577 29.4267 19.7577 29.4267C19.8051 29.5815 19.8726 29.9313 20.2009 30.2279C19.8151 30.1831 19.3987 30.1514 18.9613 30.1514C18.8047 30.1514 18.644 30.1554 18.4904 30.1634C17.5999 30.2111 16.3469 31.5554 15.4672 32.9126C15.035 33.0495 13.6836 33.4788 12.1209 33.9378C11.1979 32.6608 10.5722 31.3649 10.2181 30.5312C10.0119 30.0454 9.89688 29.7152 9.87111 29.637V29.635C9.84241 29.5557 9.81156 29.4715 9.78482 29.3871L10.1597 29.6489V29.6508L11.0867 30.3012L11.3961 30.5164C11.4427 30.5491 11.4992 30.5658 11.5528 30.5658C11.5725 30.5658 11.5924 30.5639 11.6132 30.5599L19.5484 28.7913ZM24.4801 22.8269C24.4666 22.7835 24.4425 22.744 24.4099 22.7121C24.3774 22.6803 24.3375 22.657 24.2937 22.6444C24.2531 22.6316 23.4489 22.4026 22.5953 22.3302L22.7519 22.3182C22.8868 22.3083 25.1286 22.0347 27.8068 21.1107C30.7723 21.3378 33.1937 21.7018 34.8495 22.003L34.2636 26.1134L32.1952 27.5599L25.6937 26.8213L24.4801 22.8269ZM38.7532 17.2897C38.6806 17.8191 38.4408 18.8502 38.4408 18.8502L38.2534 18.881C38.1552 18.8542 37.241 18.6172 35.6665 18.3258C35.7171 18.3149 35.7657 18.304 35.8132 18.2931C36.1399 18.2131 36.4607 18.1103 36.7731 17.9858C36.9277 17.9194 37.0823 17.8489 37.2282 17.7655C37.3729 17.6813 37.5148 17.5881 37.6257 17.4622C36.0492 17.9777 32.7912 17.7438 29.8949 17.4444C27.2485 17.1707 24.5922 16.9943 21.9231 16.9883C19.2548 16.9943 16.6017 17.1718 13.9523 17.4444C11.056 17.7438 7.79892 17.9777 6.22239 17.4622C6.3335 17.5872 6.4761 17.6813 6.62192 17.7655C6.76668 17.8489 6.92038 17.9183 7.07501 17.9858C7.38788 18.11 7.70889 18.2127 8.0358 18.2931C8.15077 18.3199 8.2679 18.3455 8.38487 18.3664C6.94815 18.6391 6.11637 18.8553 6.02301 18.881C6.02301 18.881 5.69183 18.9346 5.61946 18.6807C5.47579 18.1731 5.37949 17.8182 5.30712 17.2897C5.23793 16.7625 5.20483 16.2312 5.20804 15.6995C5.20897 15.6123 5.20697 15.4377 5.20697 15.4377C5.2119 15.2593 5.21992 15.0808 5.23675 14.9023C5.24662 14.7705 5.7315 14.3483 6.14801 14.1082C6.59816 13.8465 7.07115 13.6106 7.55293 13.3915C8.02978 13.1654 9.57561 12.8372 10.5077 12.6687C11.4398 12.4982 14.7731 12.0562 15.0231 11.9627C15.272 11.8677 16.7125 10.7572 16.9644 10.665C16.4351 10.7522 9.11959 11.8695 8.79043 11.9737C11.1651 5.76448 15.8262 2.74055 22.0301 2.74055C28.2321 2.74055 32.8943 5.59581 35.2708 11.8062C32.1338 10.9724 27.7889 10.5837 27.2594 10.4955C27.5113 10.5877 28.9361 11.59 29.2008 11.6237C31.3702 11.9053 34.791 12.6638 35.0389 12.7619C35.5307 12.9611 36.0234 13.1664 36.5013 13.3915C36.9843 13.6106 37.4563 13.8465 37.9064 14.1082C38.3228 14.3492 38.8068 14.7705 38.8185 14.9025C38.8414 15.1682 38.8513 15.4328 38.8542 15.6987C38.8583 16.2299 38.8215 16.7634 38.7532 17.2897Z" fill="#403E42"/>
</g>
</g>
<defs>
<clipPath id="clip0_30_87">
<rect width="41" height="40.02" fill="white" transform="translate(0.00415039 0.484375)"/>
</clipPath>
</defs>
</svg>
