<svg width="244" height="216" viewBox="0 0 244 216" fill="none" xmlns="http://www.w3.org/2000/svg">
<g clip-path="url(#clip0_34_152)">
<g clip-path="url(#clip1_34_152)">
<g clip-path="url(#clip2_34_152)">
<path d="M135.079 77.7067C134.973 77.7067 134.87 77.6613 134.79 77.5736L133.46 76.0984C133.301 75.9229 133.301 75.6398 133.46 75.4643C133.62 75.2887 133.88 75.2915 134.037 75.467L135.367 76.9422C135.527 77.1177 135.524 77.4009 135.365 77.5764C135.287 77.6614 135.182 77.7067 135.079 77.7067Z" fill="#D6F1FF"/>
<path d="M139.742 82.877C139.636 82.877 139.533 82.8317 139.453 82.7411L138.123 81.2661C137.962 81.0905 137.966 80.8073 138.125 80.6318C138.282 80.4592 138.542 80.4592 138.7 80.6347L140.03 82.1126C140.19 82.2882 140.187 82.5713 140.028 82.744C139.95 82.8317 139.845 82.877 139.742 82.877Z" fill="#D6F1FF"/>
<path d="M133.748 82.877C133.645 82.877 133.54 82.8317 133.46 82.744C133.301 82.5713 133.301 82.2882 133.46 82.1126L134.79 80.6347C134.948 80.4592 135.205 80.4592 135.365 80.6318C135.524 80.8073 135.527 81.0905 135.367 81.2661L134.037 82.7411C133.957 82.8317 133.851 82.877 133.748 82.877Z" fill="#D6F1FF"/>
<path d="M138.411 77.7067C138.308 77.7067 138.203 77.6614 138.125 77.5764C137.966 77.4009 137.962 77.1177 138.123 76.9422L139.453 75.467C139.61 75.2915 139.868 75.2887 140.028 75.4643C140.187 75.6398 140.19 75.9229 140.03 76.0984L138.7 77.5736C138.619 77.6613 138.516 77.7067 138.411 77.7067Z" fill="#D6F1FF"/>
<path d="M148.246 96.2432C147.134 96.2432 146.232 97.2455 146.232 98.4771C146.232 99.7116 147.134 100.711 148.246 100.711C149.355 100.711 150.259 99.7116 150.259 98.4771C150.259 97.2455 149.355 96.2432 148.246 96.2432ZM148.246 101.609C146.689 101.609 145.419 100.204 145.419 98.4771C145.419 96.7529 146.689 95.3457 148.246 95.3457C149.804 95.3457 151.073 96.7529 151.073 98.4771C151.073 100.204 149.804 101.609 148.246 101.609Z" fill="#D6F1FF"/>
<path d="M217.934 45.3722C217.844 45.3722 217.754 45.3411 217.679 45.2731C217.504 45.1174 217.473 44.837 217.615 44.6445C221.762 38.9479 224.353 32.0791 225.114 24.7743C225.137 24.528 225.341 24.3524 225.565 24.3807C225.789 24.409 225.949 24.6299 225.923 24.8762C225.143 32.3481 222.492 39.3754 218.251 45.2023C218.171 45.3128 218.052 45.3722 217.934 45.3722Z" fill="#F1CE53"/>
<path d="M122.553 16.963C122.507 16.963 122.457 16.9545 122.409 16.9347C120.269 16.0371 118.019 15.2897 115.722 14.7177C115.504 14.6639 115.364 14.4232 115.416 14.1825C115.467 13.9391 115.684 13.7891 115.903 13.8457C118.235 14.4261 120.521 15.1849 122.7 16.0994C122.908 16.1872 123.013 16.4449 122.933 16.677C122.872 16.8553 122.717 16.963 122.553 16.963Z" fill="#F1CE53"/>
<path d="M88.252 15.1875C88.0667 15.1875 87.8994 15.0488 87.8556 14.8421C87.8041 14.6014 87.9405 14.3608 88.1594 14.3041C96.3183 12.2147 104.292 11.7815 111.856 13.0103C112.077 13.047 112.232 13.2764 112.198 13.5199C112.165 13.7633 111.956 13.9333 111.737 13.8964C104.274 12.6846 96.4032 13.115 88.3447 15.1762C88.3139 15.1847 88.283 15.1875 88.252 15.1875Z" fill="#F1CE53"/>
<path d="M49.8319 40.5288C49.7186 40.5288 49.6052 40.4778 49.5255 40.3731C49.3787 40.1891 49.3967 39.9031 49.5666 39.7417C51.768 37.6437 54.0747 35.6504 56.4227 33.8185C56.6081 33.6742 56.8604 33.7223 56.9917 33.9233C57.1205 34.1272 57.0767 34.4046 56.8938 34.5462C54.5665 36.364 52.2802 38.3402 50.0996 40.4184C50.0224 40.492 49.9271 40.5288 49.8319 40.5288Z" fill="#F1CE53"/>
<path d="M21.2294 108.971C21.0183 108.971 20.8407 108.796 20.8226 108.561C20.3927 102.408 20.7918 96.0008 22.0121 89.5227C22.0585 89.2792 22.2721 89.1235 22.4936 89.1744C22.715 89.2254 22.8566 89.4633 22.8102 89.7039C21.6053 96.1027 21.2088 102.422 21.6336 108.49C21.6517 108.739 21.4843 108.951 21.2603 108.971C21.25 108.971 21.2397 108.971 21.2294 108.971Z" fill="#F1CE53"/>
<path d="M160.128 36.1127C160.115 36.1127 160.107 36.1127 160.097 36.1127C159.874 36.0957 159.704 35.8777 159.721 35.6313C159.737 35.3992 159.752 35.167 159.76 34.9349C160.214 23.8869 153.337 14.167 143.406 11.8227L136.491 10.1918C136.272 10.138 136.13 9.90019 136.18 9.65954C136.226 9.41887 136.442 9.26315 136.661 9.31411L143.579 10.9478C148.509 12.1115 152.945 15.1636 156.061 19.5437C159.199 23.9521 160.801 29.4308 160.571 34.9745C160.564 35.218 160.55 35.4587 160.533 35.6993C160.518 35.9343 160.34 36.1127 160.128 36.1127Z" fill="#F1CE53"/>
<path d="M167.509 32.215C167.499 32.215 167.491 32.215 167.48 32.215C167.254 32.1952 167.086 31.9829 167.102 31.7365L167.246 29.5167C167.676 22.832 166.469 16.1302 163.749 10.142C163.65 9.92112 163.732 9.65214 163.935 9.54172C164.133 9.43131 164.378 9.51907 164.479 9.74275C167.262 15.8754 168.497 22.7357 168.057 29.579L167.913 31.7988C167.9 32.0338 167.72 32.215 167.509 32.215Z" fill="#F1CE53"/>
<path d="M75.5978 30.389L66.3576 29.1488C65.2171 28.996 64.1023 29.5906 63.5024 30.675L60.449 36.1791L58.1087 29.7378C57.7071 28.6365 56.7983 27.8635 55.7375 27.722L47.2362 26.5809C45.6271 26.3628 44.4789 24.7405 44.6746 22.9567L46.8603 2.95624C47.056 1.16967 48.5183 -0.101592 50.1274 0.113588L78.4916 3.92456C80.1007 4.13974 81.249 5.76209 81.0533 7.54867L78.8676 27.5492C78.6719 29.3329 77.2094 30.607 75.5978 30.389Z" fill="#F1CE53"/>
<path d="M66.789 17.0098C65.9085 16.8909 65.0769 17.256 64.4951 17.9044L59.4309 14.9174C59.4438 14.8382 59.4695 14.7673 59.4773 14.6881C59.4927 14.5408 59.4876 14.3993 59.485 14.2548L65.2417 12.2107C65.6742 12.91 66.3565 13.4168 67.1753 13.5272C68.6917 13.7367 70.0743 12.5362 70.2622 10.8573C70.4475 9.17828 69.3662 7.64371 67.8524 7.43701C66.3359 7.23033 64.9534 8.42799 64.7654 10.107C64.75 10.2542 64.7551 10.3986 64.7577 10.5402L59.0035 12.5844C58.5685 11.885 57.8862 11.3782 57.0674 11.2679C55.5536 11.0611 54.1684 12.2588 53.9832 13.9378C53.7951 15.6168 54.8765 17.1541 56.3929 17.3579C57.2734 17.4797 58.105 17.1145 58.6868 16.4633L63.7511 19.4532C63.7382 19.5297 63.7125 19.6033 63.7047 19.6797C63.5194 21.3616 64.6006 22.8961 66.1145 23.1027C67.6284 23.3066 69.0135 22.109 69.1989 20.43C69.3868 18.7511 68.3054 17.2164 66.789 17.0098Z" fill="#070707"/>
<path d="M44.3276 49.5992L38.3572 52.6485C37.6208 53.0251 37.1497 53.8406 37.1523 54.7381L37.1548 59.2994L33.5968 56.3887C32.9892 55.8933 32.1833 55.7998 31.4985 56.1509L26.0069 58.9539C24.9667 59.4862 23.7361 58.9822 23.2546 57.8299L17.8867 44.9076C17.4078 43.7553 17.8635 42.3906 18.9036 41.8584L37.2244 32.5037C38.2645 31.9742 39.4977 32.4781 39.9766 33.6304L45.3446 46.5499C45.8234 47.7022 45.3677 49.0698 44.3276 49.5992Z" fill="#F1CE53"/>
<path d="M33.5352 41.6711C32.925 41.3823 32.2505 41.3908 31.6378 41.6966C31.1795 41.926 30.8268 42.294 30.5847 42.7952C30.4637 43.0471 30.3736 43.3274 30.3169 43.6275C30.0776 43.4746 29.8278 43.3643 29.578 43.2963C29.0812 43.1632 28.5972 43.2114 28.1389 43.4407C27.5261 43.7464 27.0704 44.2985 26.8619 44.9951C26.6534 45.6859 26.6997 46.4645 26.9932 47.1866C27.2944 47.9312 27.8196 48.4861 28.6486 48.9391C29.3876 49.3412 30.3427 49.6498 31.4472 50.0066C31.8257 50.1283 32.253 50.267 32.701 50.417C32.8195 50.4567 32.9456 50.4482 33.059 50.3916C33.1722 50.335 33.2623 50.2358 33.3138 50.1113C33.5095 49.6413 33.7 49.1939 33.8673 48.8004C34.3617 47.648 34.7864 46.6514 35.0079 45.7708C35.2525 44.7856 35.2267 43.9815 34.9255 43.234C34.632 42.5121 34.1402 41.9571 33.5352 41.6711Z" fill="#070707"/>
<path d="M161.453 44.1934C161.453 44.1934 162.386 44.6464 163.819 44.4794C165.032 44.3378 172.8 41.7528 176.008 30.4077C176.008 30.4077 192.343 33.4287 200.644 32.7095C208.942 31.9904 213.405 31.2571 213.405 31.2571C213.405 31.2571 208.424 59.6638 190.139 58.2255C190.139 58.2255 184.807 57.8631 184.776 57.8603C184.025 57.7866 174.308 56.8467 170.82 56.5692C167.189 56.2803 157.465 57.8631 150.334 55.2753C143.203 52.6903 139.572 48.8085 127.513 42.6277C125.749 41.7245 120.603 40.0455 120.603 40.0455C119.261 42.8712 118.512 46.4755 118.239 51.3822C116.563 81.2527 111.102 88.3169 106.406 87.9261C106.406 87.9261 103.603 87.561 103.474 87.544C102.176 87.3882 94.4449 86.4935 83.4721 86.0433C83.4618 86.0433 82.1925 86.015 82.1848 86.015H82.1899C82.7461 93.3368 85.0297 102.077 90.2483 110.902C102.024 130.81 104.151 161.68 96.1853 160.559C96.1853 160.559 86.7444 159.757 76.7627 159.782C76.7267 159.782 17.1226 159.151 17.1226 159.151C17.1226 159.151 -3.16246 109.973 34.2256 116.078C34.671 116.149 35.2065 116.183 35.6493 116.212C35.6493 116.212 31.1567 105.076 28.7623 91.0067C27.2407 82.0794 29.926 68.7637 42.8015 68.6194C50.6282 68.5316 68.2975 70.3662 68.2975 70.3662C68.2975 70.3662 69.402 68.7779 69.4278 68.7326C70.0714 67.6227 76.6906 58.3274 82.1255 42.993C87.7381 27.1517 112.519 34.2952 125.749 33.1796C125.865 33.171 130.877 32.7577 130.877 32.7577C139.277 32.1376 150.676 38.0041 161.44 44.1821L161.453 44.1934Z" fill="white"/>
<path d="M77.2288 159.334C86.9401 159.334 96.1262 160.1 96.2189 160.109C97.3465 160.268 98.2322 159.735 98.9453 158.487C100.82 155.197 101.044 147.567 99.5298 138.565C97.864 128.655 94.3574 118.661 89.9112 111.147C84.0411 101.22 82.2543 92.0752 81.7935 86.1238C81.7858 86.0898 81.7807 86.053 81.7807 86.0133C81.778 85.7726 81.9506 85.5745 82.1694 85.5631C82.1797 85.5631 82.1899 85.5631 82.2002 85.5631L82.8439 85.5801C83.1658 85.5858 83.4824 85.5915 83.4876 85.5915C94.4141 86.0417 102.094 86.9251 103.523 87.0978C103.649 87.1119 106.455 87.48 106.455 87.48C107.668 87.5791 108.839 87.109 109.921 86.0728C112.797 83.3123 116.507 75.0477 117.835 51.3523C118.113 46.3775 118.878 42.7166 120.242 39.8371C120.332 39.6475 120.531 39.554 120.719 39.6163C120.929 39.6843 125.917 41.3094 127.687 42.2212C133.259 45.0751 137.098 47.4818 140.185 49.4128C143.803 51.6778 146.658 53.4673 150.465 54.8489C155.511 56.6807 161.843 56.3948 166.466 56.1881C168.258 56.1061 169.803 56.038 170.853 56.1202C174.435 56.4033 184.393 57.3687 184.815 57.4113C184.89 57.414 188.347 57.652 190.168 57.7765C197.582 58.3626 203.675 54.0817 208.277 45.061C211.14 39.4465 212.499 33.6536 212.886 31.7877C211.423 32.0058 207.217 32.589 200.678 33.1552C193.098 33.8121 178.71 31.3432 176.291 30.91C173.096 41.6973 165.694 44.7071 163.866 44.9222C162.342 45.1034 161.333 44.6193 161.291 44.5995C161.276 44.5882 161.255 44.5796 161.243 44.5683C150.324 38.3055 139.096 32.589 130.906 33.2034C130.911 33.2034 125.898 33.6139 125.783 33.6224C122.353 33.914 118.177 33.6536 113.754 33.3789C101.013 32.589 86.5693 31.6915 82.5066 43.1555C79.3039 52.1959 75.1666 60.6503 70.2078 68.2864C69.9968 68.6176 69.8423 68.8555 69.7728 68.9716C69.7625 68.9913 69.7367 69.0339 68.622 70.6336C68.5395 70.7582 68.4005 70.8232 68.2615 70.8091C68.0865 70.7921 50.5201 68.9745 42.8093 69.0651C38.2934 69.116 34.761 70.8062 32.31 74.0906C28.7006 78.9265 28.3195 85.9567 29.1639 90.92C31.5248 104.779 35.9789 115.915 36.0226 116.029C36.0819 116.17 36.0664 116.334 35.9865 116.464C35.9068 116.591 35.7728 116.671 35.6287 116.654L35.5618 116.652C35.1163 116.623 34.6092 116.589 34.1689 116.518C24.939 115.012 18.5103 116.801 15.0656 121.833C7.55036 132.806 16.3219 155.987 17.3904 158.705C21.7002 158.75 76.5979 159.334 76.7679 159.334C76.9224 159.334 77.0769 159.334 77.2288 159.334ZM96.5973 161.033C96.4454 161.033 96.2935 161.024 96.1365 161.001C96.0618 160.995 86.6131 160.214 76.7653 160.229C76.7293 160.229 27.0734 159.704 17.1201 159.6C16.963 159.597 16.8188 159.492 16.7545 159.337C16.7262 159.271 14.0743 152.796 12.4652 144.94C10.2871 134.319 10.9437 126.363 14.4168 121.292C18.0546 115.98 24.7408 114.075 34.2874 115.632C34.5139 115.669 34.7662 115.697 35.0186 115.717C34.0221 113.089 30.41 103.098 28.3659 91.0871C27.4854 85.9227 27.8946 78.5981 31.6819 73.5215C34.2925 70.0249 38.0334 68.2242 42.8015 68.1703C50.0798 68.091 66.0319 69.6822 68.1148 69.8946C68.5164 69.3142 69.0519 68.544 69.0957 68.4761C69.1677 68.3515 69.3171 68.1194 69.5462 67.7683C74.4636 60.1887 78.5701 51.7996 81.7497 42.8299C86.0261 30.76 100.781 31.6745 113.801 32.4842C118.195 32.7561 122.345 33.0165 125.721 32.7305C125.837 32.7221 130.85 32.3086 130.85 32.3086C139.245 31.6858 150.607 37.456 161.631 43.784C161.633 43.784 161.637 43.7869 161.639 43.7897C161.773 43.8463 162.594 44.1719 163.781 44.0304C163.863 44.0218 172.218 42.3174 175.621 30.2758C175.681 30.0606 175.876 29.9304 176.077 29.9644C176.239 29.9955 192.462 32.9684 200.613 32.2606C208.801 31.5527 213.306 30.8194 213.35 30.8137C213.48 30.7911 213.61 30.842 213.702 30.9468C213.792 31.0515 213.833 31.1989 213.808 31.3404C213.797 31.4111 212.51 38.5942 208.988 45.4999C204.56 54.1779 198.515 58.7221 191.443 58.7221C191.002 58.7221 190.56 58.7051 190.114 58.6712C187.683 58.5042 184.774 58.306 184.746 58.3031C184.643 58.2947 174.37 57.298 170.794 57.0149C169.79 56.9356 168.265 57.0036 166.499 57.0829C161.814 57.2951 155.395 57.5811 150.211 55.6983C146.326 54.2912 143.439 52.4819 139.783 50.1914C136.71 48.266 132.886 45.8707 127.345 43.031C125.881 42.2807 121.967 40.9613 120.811 40.5818C119.596 43.2942 118.906 46.7512 118.649 51.4088C117.567 70.6789 114.81 82.5705 110.454 86.7467C109.205 87.9471 107.83 88.4936 106.378 88.3718C106.36 88.369 103.559 88.0038 103.433 87.9868C102.009 87.8169 94.3574 86.9335 83.4592 86.4891L82.8284 86.4721C82.7641 86.4721 82.6998 86.4721 82.6379 86.4692C83.1426 92.3216 84.9499 101.118 90.5934 110.657C100.189 126.878 103.819 151.621 99.6353 158.963C98.8578 160.327 97.815 161.033 96.5973 161.033Z" fill="#D20000"/>
<path d="M46.3722 117.592C43.2234 117.592 40.2111 117.413 37.6057 116.965C37.3843 116.929 37.2324 116.697 37.2658 116.453C37.3019 116.209 37.5105 116.045 37.7318 116.082C50.3165 118.242 72.6148 114.035 72.8388 113.993C73.0576 113.948 73.2688 114.111 73.3074 114.355C73.346 114.598 73.1967 114.831 72.9753 114.873C72.7977 114.907 58.5808 117.592 46.3722 117.592Z" fill="black"/>
<path d="M70.1218 70.874C69.4498 70.874 68.7933 70.8456 68.1445 70.7976C67.9205 70.7777 67.7532 70.5654 67.7686 70.3163C67.784 70.0727 67.9772 69.8802 68.2037 69.9028C72.807 70.2624 77.9897 69.3083 84.0502 66.9838C84.2614 66.8989 84.493 67.0234 84.5677 67.2556C84.6424 67.4906 84.5291 67.7454 84.318 67.8275C78.9989 69.8689 74.3287 70.874 70.1218 70.874Z" fill="#D20000"/>
<path d="M96.6069 161.037C95.5488 161.037 94.2075 160.502 92.5365 158.962C87.0089 153.871 85.0625 143.247 83.3479 133.872C81.3423 122.929 79.6095 113.479 73.1319 114.835C71.1006 115.256 69.5018 116.506 68.3741 118.542C64.9551 124.72 66.4406 136.905 68.7526 145.464C68.817 145.7 68.6933 145.951 68.4771 146.019C68.2608 146.092 68.0368 145.957 67.9724 145.719C65.5009 136.565 64.126 124.496 67.679 118.074C68.9303 115.815 70.7145 114.427 72.9801 113.954C80.2481 112.432 82.1429 122.759 84.1434 133.697C85.8349 142.924 87.7504 153.386 93.0592 158.276C95.2321 160.278 96.9725 160.672 98.2315 159.442C100.567 157.16 101.177 149.604 99.7865 140.186C98.2418 129.73 94.6425 119.147 89.9131 111.152C79.7408 93.9511 80.4155 76.3826 84.146 69.4006C85.1321 67.5546 86.3163 66.5862 87.4724 66.6741C90.8141 66.9289 94.1328 72.3112 97.3407 77.5124C98.9344 80.1002 100.443 82.5436 101.779 84.0272C102.593 84.9276 105.484 87.7646 108.579 86.4565C112.178 84.9304 116.709 77.603 117.834 51.3622C117.845 51.1159 118.04 50.9233 118.259 50.9375C118.486 50.9488 118.658 51.1583 118.648 51.4047C117.726 72.8605 114.438 84.9333 108.87 87.2918C105.317 88.7952 102.104 85.6553 101.203 84.6586C99.8123 83.1155 98.283 80.6381 96.6662 78.0163C93.7131 73.2258 90.3636 67.7924 87.4157 67.5659C86.5789 67.5064 85.6676 68.3162 84.8463 69.8535C81.2238 76.6375 80.611 93.784 90.5953 110.661C95.3841 118.759 99.0271 129.467 100.59 140.043C102.047 149.904 101.349 157.597 98.7722 160.111C98.2546 160.618 97.5415 161.037 96.6069 161.037Z" fill="#D20000"/>
<path d="M120.703 40.3481C120.623 40.3481 120.544 40.3226 120.474 40.2688C120.289 40.1301 120.24 39.8526 120.368 39.6488C120.368 39.6459 120.397 39.5922 120.433 39.5129C120.608 39.1646 120.804 38.7767 120.911 38.6012C122.714 35.682 125.468 32.6469 132.247 32.2675C132.48 32.2618 132.664 32.4487 132.675 32.6949C132.685 32.9413 132.515 33.1508 132.289 33.165C125.867 33.5217 123.275 36.3673 121.586 39.1051C121.488 39.2609 121.257 39.7252 121.146 39.9489C121.087 40.0621 121.045 40.1414 121.041 40.1527C120.961 40.2802 120.832 40.3481 120.703 40.3481Z" fill="#D20000"/>
<path d="M192.984 58.6344C191.709 58.6344 187.634 58.306 183.785 56.7884C179.789 55.2113 174.217 52.0006 168.319 48.6059C165.922 47.227 163.441 45.7972 161.1 44.5061C160.899 44.3956 160.819 44.1267 160.92 43.903C161.02 43.685 161.265 43.5944 161.463 43.7049C163.812 45.0016 166.293 46.4314 168.695 47.8131C174.57 51.1937 180.119 54.3874 184.06 55.9446C187.896 57.4594 191.951 57.7595 193.069 57.7369C193.069 57.7369 193.071 57.7369 193.074 57.7369C193.295 57.7369 193.475 57.9351 193.481 58.1786C193.483 58.4249 193.303 58.6287 193.077 58.6316C193.048 58.6316 193.018 58.6344 192.984 58.6344Z" fill="#D20000"/>
<path d="M69.7667 68.976C69.7641 68.9846 69.7616 68.993 69.7589 69.0014C69.7641 68.9901 69.7667 68.9817 69.7667 68.976ZM69.3805 69.2818C69.3392 69.2818 69.2955 69.2733 69.2543 69.2591C69.0407 69.1827 68.9248 68.9278 68.9943 68.6929C69.0329 68.5683 69.1154 68.4381 69.5479 67.7727C74.4652 60.1961 78.5717 51.8068 81.7488 42.8343C86.0277 30.7644 100.783 31.6817 113.8 32.4915C118.349 32.7746 122.644 33.0407 126.083 32.7038C126.302 32.6868 126.503 32.8652 126.524 33.1116C126.544 33.3578 126.377 33.5759 126.153 33.5957C122.656 33.9382 118.334 33.6693 113.756 33.3861C101.014 32.5934 86.5709 31.6959 82.5082 43.16C79.3055 52.2004 75.1655 60.6576 70.2096 68.2937C69.9984 68.6193 69.8002 68.925 69.7564 69.0071C69.692 69.1771 69.5427 69.2818 69.3805 69.2818Z" fill="#D20000"/>
<path d="M103.667 88.0173C103.651 88.0173 103.636 88.0173 103.621 88.0146C103.541 88.0032 95.3432 86.9783 83.4307 86.4884C83.2067 86.4799 83.0316 86.2733 83.0393 86.0241C83.0471 85.7778 83.235 85.5824 83.4616 85.5937C95.4076 86.0835 103.631 87.1142 103.713 87.1255C103.937 87.1538 104.097 87.3746 104.071 87.621C104.048 87.8475 103.87 88.0173 103.667 88.0173Z" fill="black"/>
<path d="M44.4034 126.238C33.6854 126.238 21.5051 125.582 20.7353 125.539C20.5113 125.528 20.3388 125.319 20.3491 125.072C20.3619 124.823 20.5525 124.633 20.7764 124.644C21.0622 124.662 49.3054 126.184 57.9508 124.649C58.1721 124.61 58.3833 124.778 58.4168 125.021C58.4529 125.265 58.3036 125.496 58.0821 125.536C55.1059 126.062 49.9489 126.238 44.4034 126.238Z" fill="black"/>
<path d="M51.1162 133.894C50.8949 133.894 50.712 133.696 50.7095 133.452C50.7069 133.207 50.8871 133.003 51.1111 132.997C53.1991 132.965 54.924 132.909 56.2346 132.833C56.4586 132.824 56.6516 133.008 56.6645 133.255C56.6748 133.501 56.5048 133.713 56.2809 133.728C54.9575 133.803 53.2223 133.86 51.1214 133.894C51.1214 133.894 51.1189 133.894 51.1162 133.894Z" fill="black"/>
<path d="M45.3575 133.927C33.4887 133.905 18.2575 133.438 18.1056 133.435C17.8816 133.426 17.7039 133.22 17.7091 132.973C17.7168 132.727 17.9151 132.523 18.1287 132.538C18.2807 132.543 33.5015 133.01 45.3601 133.03C45.5841 133.03 45.7668 133.231 45.7643 133.478C45.7643 133.727 45.5841 133.927 45.3575 133.927Z" fill="black"/>
<path d="M57.1338 141.713H18.9966C18.7701 141.713 18.5898 141.512 18.5898 141.266C18.5898 141.017 18.7701 140.818 18.9966 140.818H57.1338C57.3604 140.818 57.5406 141.017 57.5406 141.266C57.5406 141.512 57.3604 141.713 57.1338 141.713Z" fill="black"/>
<path d="M46.0291 72.0007L61.9683 73.3541C64.6227 73.5778 67.2874 73.6175 69.9469 73.4645L75.0858 73.1757C76.2418 73.1078 77.1454 74.2657 76.9189 75.5228C76.3499 78.6827 75.6239 84.3793 76.4786 89.7701C76.6718 90.9961 75.8169 92.1116 74.6971 92.0862L35.5249 91.2566C34.6572 91.2368 33.9261 90.529 33.8024 89.5776C33.5708 87.8137 33.3699 84.8521 33.9852 81.7462C35.203 75.6333 40.3985 71.5222 46.0291 72.0007Z" fill="#76C4FF"/>
<path d="M48.435 97.6093C47.6548 97.6093 46.867 97.5839 46.0921 97.53L34.9648 96.7712C34.7408 96.7542 34.5709 96.5447 34.5837 96.2955C34.5992 96.0492 34.7922 95.8652 35.0162 95.8765L46.141 96.6353C46.9803 96.6948 47.8299 96.7202 48.6718 96.7146L57.0624 96.6523H57.0649C57.2889 96.6523 57.4691 96.8504 57.4718 97.0968C57.4743 97.3432 57.2915 97.547 57.0675 97.547L48.6769 97.6093C48.5972 97.6093 48.5147 97.6093 48.435 97.6093Z" fill="black"/>
<path d="M45.3292 111.336C44.1887 111.336 43.0404 111.268 41.9076 111.135L39.0472 110.798C38.8232 110.77 38.6611 110.548 38.6868 110.303C38.7099 110.059 38.9108 109.88 39.1322 109.907L41.9951 110.246C43.2799 110.396 44.5877 110.458 45.8776 110.435L47.5305 110.401C47.7596 110.41 47.9398 110.594 47.9449 110.84C47.9476 111.089 47.7698 111.293 47.5433 111.299L45.893 111.33C45.7051 111.333 45.5172 111.336 45.3292 111.336Z" fill="black"/>
<path d="M55.8668 105.017C50.8489 105.017 45.8207 104.745 40.8441 104.204L36.941 103.782C36.717 103.757 36.5549 103.539 36.5755 103.293C36.5986 103.046 36.7994 102.865 37.0209 102.891L40.9239 103.312C48.4108 104.125 56.0186 104.326 63.5312 103.907L79.4937 103.018C79.7151 103.01 79.9082 103.196 79.921 103.443C79.9313 103.692 79.7589 103.899 79.5349 103.913L63.5725 104.802C61.0108 104.943 58.4413 105.017 55.8668 105.017Z" fill="black"/>
<path d="M109.335 77.3205C109.328 77.3205 109.32 77.3205 109.312 77.3205L98.4165 76.6382C98.19 76.6241 98.0201 76.4117 98.0329 76.1653C98.0459 75.9191 98.2389 75.735 98.4629 75.7434L109.358 76.4258C109.582 76.44 109.755 76.6524 109.742 76.8986C109.729 77.1364 109.549 77.3205 109.335 77.3205Z" fill="black"/>
<path d="M110.567 70.0167C110.562 70.0167 110.554 70.0167 110.549 70.0167L94.3804 69.2352C94.1564 69.2239 93.9813 69.0144 93.9916 68.768C93.9993 68.5218 94.1976 68.3293 94.4139 68.3406L110.585 69.1192C110.809 69.1305 110.984 69.34 110.974 69.5864C110.963 69.827 110.783 70.0167 110.567 70.0167Z" fill="black"/>
<path d="M111.506 61.9598C111.501 61.9598 111.498 61.9598 111.493 61.9598L78.8008 60.7933C78.5768 60.7847 78.4017 60.5752 78.4094 60.329C78.4172 60.0826 78.6077 59.8872 78.8291 59.8958L111.519 61.0651C111.745 61.0736 111.92 61.2802 111.912 61.5266C111.907 61.7701 111.725 61.9598 111.506 61.9598Z" fill="black"/>
<path d="M112.672 54.167C112.662 54.167 112.652 54.1642 112.641 54.1642C105.363 53.5243 83.1393 53.7736 82.9153 53.7763H82.9127C82.6887 53.7763 82.5059 53.5809 82.5059 53.3347C82.5034 53.0855 82.6836 52.8845 82.9076 52.8816C83.1316 52.8788 105.389 52.6297 112.706 53.2724C112.93 53.2922 113.097 53.5073 113.076 53.7566C113.061 53.9887 112.883 54.167 112.672 54.167Z" fill="black"/>
<path d="M86.9974 46.5762H113.235C113.588 46.5762 113.894 46.3128 113.974 45.9334C114.296 44.4526 115.248 40.7351 117.169 38.2576C117.583 37.7226 117.274 36.8958 116.636 36.8618C111.901 36.6014 98.946 36.0493 93.1919 37.3177C92.7361 37.4196 92.2984 37.6036 91.902 37.8669C90.5117 38.7928 87.1957 41.3806 86.256 45.5257C86.1375 46.058 86.5006 46.5762 86.9974 46.5762Z" fill="#76C4FF"/>
<path d="M197.79 38.9761C188.707 38.9761 179.168 37.2999 179.042 37.2773C178.821 37.2377 178.671 37.0055 178.707 36.7619C178.743 36.5184 178.949 36.3515 179.173 36.3911C179.341 36.4222 195.981 39.3441 206.106 37.433C206.328 37.3905 206.536 37.5547 206.575 37.7982C206.613 38.0417 206.466 38.2739 206.242 38.3164C203.706 38.7949 200.774 38.9761 197.79 38.9761Z" fill="black"/>
<path d="M199.574 45.6523C187.971 45.6523 174.845 43.1465 174.703 43.1182C174.482 43.0758 174.336 42.8436 174.374 42.6002C174.413 42.3566 174.624 42.1953 174.845 42.2377C175 42.2689 190.412 45.2078 202.527 44.6982C202.759 44.6925 202.942 44.8821 202.95 45.1285C202.957 45.3776 202.785 45.5844 202.558 45.5928C201.583 45.6353 200.583 45.6523 199.574 45.6523Z" fill="black"/>
<path d="M195.257 52.4355C189.927 52.4355 183.488 51.1727 183.169 51.1075C182.947 51.0651 182.8 50.8301 182.839 50.5894C182.88 50.3459 183.094 50.1845 183.313 50.227C183.405 50.244 192.633 52.056 198.047 51.3906C198.269 51.3623 198.472 51.5407 198.495 51.7871C198.521 52.0333 198.361 52.2542 198.137 52.2825C197.251 52.3902 196.274 52.4355 195.257 52.4355Z" fill="black"/>
<path d="M40.7569 214.004H144.013C144.927 214.004 145.665 213.189 145.665 212.183V208.16H39.104V212.183C39.104 213.189 39.8454 214.004 40.7569 214.004Z" fill="#484444"/>
<path d="M30.9958 214.927H93.1177L73.3784 150.569C72.1993 148.558 70.1422 147.335 67.928 147.335H15.4144C13.0329 147.335 11.4984 149.898 12.276 152.157C12.5849 153.058 12.917 153.946 13.1899 154.858L30.9958 214.927Z" fill="#606060"/>
<path d="M54.2071 180.21C54.9794 183.044 53.8003 185.943 51.5759 186.686C49.3515 187.429 46.9236 185.737 46.1538 182.9C45.3814 180.069 46.5607 177.166 48.785 176.425C51.0095 175.68 53.4373 177.376 54.2071 180.21Z" fill="#CADDFF"/>
<path d="M83.6734 214.804H40.2197C39.9932 214.804 39.813 214.603 39.813 214.356C39.813 214.107 39.9932 213.906 40.2197 213.906H83.6734C83.9001 213.906 84.0803 214.107 84.0803 214.356C84.0803 214.603 83.9001 214.804 83.6734 214.804Z" fill="#CADDFF"/>
<path d="M35.4712 214.804H30.4199C30.1959 214.804 30.0132 214.603 30.0132 214.356C30.0132 214.107 30.1959 213.906 30.4199 213.906H35.4712C35.6978 213.906 35.8781 214.107 35.8781 214.356C35.8781 214.603 35.6978 214.804 35.4712 214.804Z" fill="#CADDFF"/>
<path d="M209.142 120.661C209.142 120.661 223.827 121.666 229.769 130.465C233.708 136.304 233.343 148.272 231.252 165.739C229.872 177.259 227.336 182.996 224.887 190.074C218.735 207.892 209.288 212.767 199.402 213.764C187.067 215.006 143.5 214.326 133.191 214.14C132.007 214.12 130.934 213.373 130.396 212.204L129.731 210.757C129.028 209.228 128.838 204.486 129.144 201.957C129.335 200.374 130.161 198.942 131.433 198.188C131.721 198.016 132.01 197.896 132.275 197.874L152.911 195.273C152.911 195.273 172.899 167.046 163.821 153.445C160.552 148.55 145.451 158.98 132.265 156.893C121.096 155.121 109.027 133.634 105.592 127.091C104.9 125.772 104.66 124.223 104.93 122.728C105.353 120.412 106.346 117.113 108.679 115.703C110.625 114.526 114.263 112.524 117.693 116.482C117.693 116.482 126.299 130.782 136.66 131.131C147.022 131.479 158.427 115.98 191.905 118.643L209.142 120.661Z" fill="#00D280"/>
<path d="M152.629 195.289C152.421 195.289 152.243 195.113 152.222 194.881C152.205 194.632 152.369 194.417 152.593 194.394C172.709 192.46 206.915 184.088 209.978 149.735C209.998 149.488 210.199 149.311 210.424 149.334C210.644 149.359 210.81 149.576 210.787 149.823C209.314 166.31 200.625 178.697 184.953 186.642C175.999 191.18 165.137 194.088 152.662 195.286C152.652 195.289 152.639 195.289 152.629 195.289Z" fill="#CADDFF"/>
<path d="M111.648 128.547C108.589 128.547 106.612 124.96 106.529 124.806C106.414 124.595 106.475 124.319 106.671 124.192C106.862 124.065 107.114 124.136 107.227 124.348C107.245 124.382 109.055 127.652 111.648 127.652C111.668 127.652 111.684 127.652 111.702 127.652C113.718 127.616 115.723 125.653 117.662 121.817C117.773 121.599 118.02 121.522 118.215 121.642C118.411 121.763 118.481 122.036 118.372 122.253C116.282 126.389 114.04 128.507 111.712 128.547C111.691 128.547 111.668 128.547 111.648 128.547Z" fill="black"/>
<path d="M139.679 208.031C139.635 208.031 139.589 208.022 139.543 208.003C139.332 207.921 139.222 207.664 139.299 207.431C139.754 206.041 139.713 204.795 139.178 203.733C137.967 201.338 134.641 200.537 134.608 200.528C134.389 200.478 134.247 200.24 134.293 199.996C134.339 199.756 134.553 199.602 134.775 199.65C134.927 199.688 138.492 200.542 139.886 203.294C140.545 204.594 140.604 206.086 140.063 207.737C140.004 207.918 139.847 208.031 139.679 208.031Z" fill="black"/>
<path d="M134.064 204.487C133.531 203.719 132.761 203.184 131.899 203.028C131.28 202.918 130.66 202.731 130.062 202.524L121.79 199.654C120.254 199.18 118.675 199.378 117.301 200.211C113.148 202.725 104.634 208.393 105.983 211.791C107.437 215.457 114.996 212.026 117.658 210.676C118.266 210.37 118.948 210.336 119.602 210.59C121.23 211.225 124.427 212.408 126.27 212.697C127.795 212.938 129.166 212.134 130.282 211.163C130.789 210.719 131.391 210.443 132.069 210.3C133.109 210.076 134.017 209.39 134.517 208.354L134.529 208.332C135.081 207.193 134.978 205.8 134.265 204.778L134.064 204.487Z" fill="#FFAF97"/>
<path d="M120.153 199.85C119.231 199.85 118.32 200.102 117.498 200.6C109.669 205.349 105.504 209.463 106.358 211.611C106.564 212.136 106.927 212.501 107.463 212.725C110.091 213.826 115.804 211.122 117.491 210.27C118.194 209.912 118.992 209.876 119.738 210.168C121.433 210.827 124.539 211.975 126.33 212.251C127.496 212.435 128.706 211.962 130.032 210.811C130.569 210.34 131.229 210.021 131.996 209.856C132.943 209.652 133.731 209.029 134.161 208.143C134.161 208.143 134.174 208.118 134.174 208.114C134.648 207.135 134.558 205.931 133.945 205.048L133.744 204.757C133.258 204.06 132.58 203.605 131.836 203.471C131.278 203.37 130.678 203.206 129.944 202.951L121.672 200.079C121.172 199.927 120.66 199.85 120.153 199.85ZM108.974 213.873C108.307 213.873 107.694 213.78 107.172 213.56C106.433 213.251 105.908 212.716 105.612 211.971C104.239 208.517 111.106 203.455 117.105 199.816C118.567 198.93 120.271 198.718 121.904 199.221L130.186 202.095C130.884 202.339 131.45 202.491 131.968 202.586C132.918 202.758 133.778 203.336 134.388 204.214C134.39 204.214 134.39 204.214 134.39 204.214L134.591 204.502C135.397 205.663 135.515 207.249 134.892 208.54C134.89 208.542 134.877 208.567 134.877 208.567C134.334 209.69 133.34 210.482 132.148 210.734C131.504 210.872 130.976 211.128 130.536 211.513C129.027 212.826 127.616 213.359 126.216 213.137C124.357 212.849 121.191 211.683 119.468 211.011C118.914 210.796 118.348 210.818 117.831 211.082C115.987 212.016 111.945 213.871 108.974 213.873Z" fill="#070707"/>
<path d="M86.4199 94.626C86.6747 93.8078 87.4394 93.3264 88.204 93.5048C90.3409 94.006 101.345 96.5825 103.397 97.078C105.451 97.5734 105.533 100.003 106.7 102.228C107.717 104.162 111.218 111.251 115.029 116.192C116.177 117.678 116.339 119.813 115.443 121.503C114.931 122.472 114.279 123.426 113.504 123.987C111.452 125.479 109.926 127.269 105.631 115.968C105.631 115.968 103.675 114.94 101.79 112.568C101.79 112.568 95.0987 121.254 93.3866 103.615C93.2347 102.047 93.8912 100.521 95.1347 99.7479C95.2326 99.6884 95.3382 99.6261 95.4463 99.5638L87.4291 96.8316C86.5898 96.5456 86.134 95.5462 86.4199 94.626Z" fill="#FFAF97"/>
<path d="M101.789 112.118C101.908 112.118 102.018 112.175 102.096 112.274C103.895 114.542 105.788 115.556 105.806 115.567C105.896 115.615 105.968 115.697 106.007 115.796C108.123 121.365 109.709 124.157 111.001 124.585C111.64 124.794 112.18 124.426 113.012 123.811C113.102 123.747 113.19 123.681 113.282 123.613C113.9 123.163 114.51 122.379 115.092 121.277C115.901 119.746 115.751 117.821 114.719 116.482C111.297 112.05 108.123 105.892 106.769 103.262C106.599 102.936 106.46 102.664 106.349 102.452C105.981 101.753 105.723 101.056 105.476 100.379C104.948 98.944 104.531 97.8114 103.308 97.5142C101.084 96.9791 88.2497 93.9722 88.1184 93.9439C87.5571 93.8108 86.9906 94.1675 86.8027 94.7706C86.6997 95.1019 86.7229 95.4558 86.8671 95.7673C87.0087 96.0759 87.2507 96.3024 87.5494 96.4043L95.5666 99.1365C95.7237 99.1903 95.8369 99.3432 95.8524 99.5244C95.8653 99.7085 95.7778 99.8811 95.631 99.9633C95.528 100.023 95.4277 100.079 95.335 100.139C94.2588 100.807 93.6537 102.152 93.7901 103.568C94.5625 111.5 96.308 113.704 97.6392 114.154C99.516 114.791 101.46 112.302 101.478 112.277C101.555 112.177 101.668 112.121 101.787 112.118H101.789ZM111.362 125.539C111.169 125.539 110.973 125.511 110.77 125.443C109.196 124.925 107.562 122.184 105.314 116.294C104.848 116.023 103.329 115.066 101.784 113.228C101.074 114.001 99.2869 115.649 97.3997 115.012C95.1238 114.238 93.6382 110.422 92.9843 103.664C92.8324 102.104 93.404 100.612 94.4673 99.6999L87.3073 97.2593C86.7976 97.0838 86.3831 96.6988 86.1411 96.1749C85.8965 95.6455 85.8578 95.0424 86.0329 94.4818C86.3548 93.4484 87.3254 92.8397 88.2883 93.0662C88.417 93.0974 101.254 96.1013 103.483 96.6421C105.126 97.0385 105.662 98.4967 106.231 100.045C106.467 100.691 106.715 101.359 107.052 102.005C107.165 102.217 107.307 102.492 107.474 102.82C108.821 105.428 111.969 111.534 115.337 115.901C116.593 117.529 116.779 119.87 115.795 121.727C115.151 122.948 114.456 123.834 113.73 124.361C113.64 124.426 113.553 124.492 113.468 124.553C112.811 125.04 112.139 125.539 111.362 125.539Z" fill="black"/>
<path d="M103.32 109.031C103.253 109.031 103.184 109.013 103.122 108.974C102.594 108.648 101.613 107.909 101.217 107.606C99.0311 105.942 97.8133 104.288 97.283 103.45C96.8994 102.847 96.7063 102.17 96.7243 101.491C96.7551 100.18 97.5636 99.8825 97.906 99.755C99.2294 99.2624 101.328 100.602 101.562 100.757C101.755 100.882 101.819 101.157 101.704 101.369C101.588 101.581 101.338 101.652 101.145 101.525C100.596 101.165 98.9899 100.296 98.166 100.604C97.8365 100.726 97.5533 100.831 97.5379 101.516C97.525 102 97.6692 102.493 97.9498 102.935C98.4492 103.725 99.6 105.285 101.673 106.864C102.067 107.165 103.024 107.887 103.521 108.192C103.717 108.314 103.786 108.589 103.676 108.804C103.601 108.948 103.462 109.031 103.32 109.031Z" fill="black"/>
<path d="M101.879 113.117C101.774 113.117 101.668 113.07 101.588 112.979C99.7836 110.941 99.8892 108.755 99.8943 108.664C99.9098 108.418 100.103 108.231 100.327 108.245C100.551 108.262 100.721 108.474 100.708 108.721C100.703 108.797 100.628 110.615 102.17 112.356C102.327 112.535 102.325 112.818 102.162 112.988C102.085 113.072 101.982 113.117 101.879 113.117Z" fill="black"/>
<path d="M206.931 119.835L209.097 100.775L194.025 105.902L192.503 117.066C192.136 120.064 194.158 122.168 194.158 122.168C196.628 125.019 200.66 125.365 203.894 123.697L204.64 123.314C205.893 122.666 206.759 121.353 206.931 119.835Z" fill="#FFAF97"/>
<path d="M194.389 106.25L192.904 117.136C192.571 119.871 194.421 121.828 194.438 121.848C196.642 124.393 200.453 124.982 203.72 123.3L204.469 122.912C205.604 122.328 206.372 121.159 206.529 119.783L208.614 101.414L194.389 106.25ZM199.832 125.168C197.548 125.168 195.394 124.246 193.865 122.482C193.792 122.405 191.709 120.202 192.101 117.011L193.622 105.839C193.649 105.669 193.756 105.528 193.905 105.479L208.977 100.352C209.105 100.309 209.252 100.341 209.358 100.437C209.463 100.536 209.518 100.686 209.499 100.836L207.334 119.896C207.144 121.578 206.202 123.008 204.814 123.725L204.065 124.11C202.682 124.82 201.233 125.168 199.832 125.168Z" fill="black"/>
<path d="M193.276 72.8988C197.009 73.3745 191.706 76.6758 206.065 74.9062C211.785 74.2012 207.934 80.6765 209.416 80.4981C214.897 79.8384 214.71 79.8554 217.143 81.0842C218.752 81.8968 219.313 85.5379 218.595 88.038C217.647 91.3393 214.977 91.7244 211.617 98.4374C209.257 103.154 209.163 106.275 207.225 106.657C205.264 107.042 204.331 104.052 202.158 104.296C199.352 104.607 199.079 109.822 196.139 111.442C194.286 112.461 190.362 112.345 184.747 107.877C183.835 107.152 183.521 105.81 184 104.686C184.613 103.248 185.395 101.436 186.276 99.7738C190.469 91.8489 193.506 90.4587 192.86 88.0719C191.868 84.4138 185.792 85.235 185.269 82.2847C184.726 79.224 188.163 72.2477 193.276 72.8988Z" fill="#711C03"/>
<path d="M203.885 89.9797L202.487 91.9559C201.828 92.8846 201.23 93.8614 200.693 94.8835C199.684 96.7975 197.93 100.079 196.823 101.832C195.194 104.408 187.616 99.4193 187.616 99.4193L187.398 97.5931L186.519 96.9872C186.349 96.8711 186.2 96.7126 186.108 96.5201C185.871 96.0302 185.959 95.4611 186.282 95.0902C188.052 93.0658 191.802 88.4762 193.585 84.0508C193.585 84.0508 199.877 83.493 203.885 89.9797Z" fill="#FFAF97"/>
<path d="M203.481 89.964C203.327 89.7998 203.182 89.6468 203.054 89.4883C202.915 89.3241 202.835 89.1684 202.647 88.9588C202.312 88.5653 201.995 88.1548 201.617 87.815C200.909 87.0761 200.09 86.473 199.23 85.969C198.37 85.4594 197.446 85.0855 196.496 84.8393C196.259 84.7713 196.017 84.7288 195.778 84.6722C195.539 84.6298 195.296 84.5901 195.054 84.559C194.576 84.4996 194.071 84.4711 193.618 84.491L193.955 84.2277C192.846 86.875 191.298 89.2108 189.653 91.4221C188.819 92.5207 187.961 93.5909 187.07 94.6329L186.738 95.0236L186.569 95.219L186.486 95.3123C186.466 95.3379 186.445 95.3605 186.43 95.3888C186.283 95.5955 186.218 95.8787 186.283 96.1363C186.352 96.408 186.504 96.5609 186.764 96.6997C187.05 96.8611 187.338 97.0281 187.613 97.2151C187.716 97.2858 187.783 97.4019 187.797 97.5265V97.5349L188.024 99.3584L187.827 99.0271C189.45 100.052 191.166 100.981 192.928 101.615C193.37 101.768 193.815 101.901 194.259 101.986C194.702 102.074 195.149 102.116 195.551 102.062C195.965 102.011 196.277 101.836 196.47 101.544C196.738 101.119 196.995 100.686 197.253 100.247C198.27 98.4863 199.238 96.677 200.201 94.8707C200.68 93.9505 201.215 93.0473 201.795 92.195C201.936 91.9828 202.098 91.7534 202.23 91.5722C202.364 91.3881 202.498 91.2098 202.632 91.0314C202.905 90.6747 203.188 90.3235 203.481 89.964ZM204.295 89.9951C204.001 90.4623 203.697 90.9408 203.383 91.4108L202.469 92.7444C201.913 93.5767 201.414 94.4375 200.948 95.3463C199.99 97.1669 199.017 98.9789 197.987 100.763C197.729 101.21 197.467 101.655 197.189 102.093C197.005 102.36 196.764 102.62 196.485 102.75C196.355 102.838 196.213 102.872 196.074 102.931C195.937 102.957 195.799 103.002 195.662 103.014C195.116 103.084 194.601 103.019 194.107 102.923C193.613 102.824 193.134 102.679 192.668 102.512C191.736 102.176 190.839 101.759 189.967 101.301C189.094 100.839 188.244 100.349 187.403 99.8057C187.292 99.7321 187.223 99.6075 187.208 99.4773L186.998 97.6482L187.183 97.9654C186.911 97.7756 186.651 97.5632 186.391 97.351C186.254 97.2462 186.08 97.0876 185.964 96.8979C185.843 96.7054 185.763 96.4959 185.721 96.2778C185.634 95.8389 185.724 95.3633 185.971 95.0066C186.002 94.9613 186.036 94.9217 186.069 94.8791L186.154 94.7801L186.319 94.5876L186.648 94.1968C187.523 93.1634 188.358 92.0875 189.151 90.9776C189.947 89.8705 190.698 88.7239 191.386 87.5404C192.076 86.3596 192.709 85.1394 193.217 83.8682L193.219 83.8596C193.28 83.7067 193.412 83.6133 193.553 83.6048C194.109 83.568 194.62 83.6048 195.145 83.6642C195.402 83.6982 195.662 83.735 195.919 83.7831C196.174 83.8399 196.434 83.8851 196.686 83.9559C197.704 84.2192 198.692 84.6156 199.616 85.1564C200.539 85.6944 201.418 86.337 202.181 87.1269C202.582 87.4979 202.92 87.9396 203.272 88.3643C203.442 88.5484 203.637 88.8626 203.811 89.1372C203.985 89.4232 204.145 89.712 204.295 89.9951Z" fill="#E79F8A"/>
<path d="M201.202 97.2916C201.202 97.2916 204.562 92.5405 206.187 94.6924C207.813 96.8414 203.998 101.969 201.202 97.2916Z" fill="#FFAF97"/>
</g>
</g>
</g>
<defs>
<clipPath id="clip0_34_152">
<rect width="243" height="215" fill="white" transform="translate(0.5 0.0898438)"/>
</clipPath>
<clipPath id="clip1_34_152">
<rect width="243" height="215" fill="white" transform="translate(0.5 0.0898438)"/>
</clipPath>
<clipPath id="clip2_34_152">
<rect width="221.582" height="215" fill="white" transform="translate(11.209 0.0898438)"/>
</clipPath>
</defs>
</svg>
