<svg width="69" height="15" viewBox="0 0 69 15" fill="none" xmlns="http://www.w3.org/2000/svg">
<path d="M1.11341 14L6.26141 1.058H8.25941L13.4074 14H11.8954C11.7154 14 11.5714 13.958 11.4634 13.874C11.3554 13.79 11.2774 13.682 11.2294 13.55L7.68341 4.19C7.61141 4.01 7.53941 3.818 7.46741 3.614C7.39541 3.398 7.32941 3.158 7.26941 2.894C7.19741 3.158 7.12541 3.398 7.05341 3.614C6.98141 3.83 6.91541 4.028 6.85541 4.208L3.30941 13.55C3.26141 13.658 3.17741 13.76 3.05741 13.856C2.94941 13.952 2.81141 14 2.64341 14H1.11341ZM2.53541 14V12.848H3.68741V14H2.53541ZM4.13741 10.256L4.56941 8.852H9.96941L10.4014 10.256H4.13741ZM10.8154 14V12.848H12.0214V14H10.8154ZM0.591408 14V13.172C0.591408 13.052 0.621408 12.956 0.681408 12.884C0.741408 12.812 0.831408 12.764 0.951408 12.74L2.21141 12.47L2.40941 14H0.591408ZM2.84141 14L3.05741 12.47L4.29941 12.74C4.41941 12.764 4.50941 12.812 4.56941 12.884C4.62941 12.956 4.65941 13.052 4.65941 13.172V14H2.84141ZM9.86141 14V13.172C9.86141 13.052 9.89141 12.956 9.95141 12.884C10.0114 12.812 10.1014 12.764 10.2214 12.74L11.4814 12.47L11.6794 14H9.86141ZM12.1114 14L12.3274 12.47L13.5874 12.74C13.6954 12.764 13.7794 12.812 13.8394 12.884C13.8994 12.956 13.9294 13.052 13.9294 13.172V14H12.1114ZM15.9747 14V4.838H17.0547C17.3067 4.838 17.4627 4.958 17.5227 5.198L17.6487 6.116C18.0447 5.684 18.4827 5.342 18.9627 5.09C19.4427 4.826 20.0007 4.694 20.6367 4.694C21.3087 4.694 21.8667 4.838 22.3107 5.126C22.7667 5.414 23.1147 5.822 23.3547 6.35C23.5947 6.878 23.7147 7.484 23.7147 8.168V14H21.8967V8.168C21.8967 7.52 21.7467 7.016 21.4467 6.656C21.1587 6.296 20.7087 6.116 20.0967 6.116C19.6527 6.116 19.2327 6.224 18.8367 6.44C18.4527 6.644 18.0987 6.932 17.7747 7.304V14H15.9747ZM14.6607 14V13.172C14.6607 13.052 14.6907 12.956 14.7507 12.884C14.8107 12.812 14.9007 12.764 15.0207 12.74L16.2627 12.47L16.4787 14H14.6607ZM17.2527 14L17.4687 12.47L18.7287 12.74C18.8367 12.764 18.9207 12.812 18.9807 12.884C19.0407 12.956 19.0707 13.052 19.0707 13.172V14H17.2527ZM23.1927 14L23.4087 12.47L24.6687 12.74C24.7767 12.764 24.8607 12.812 24.9207 12.884C24.9807 12.956 25.0107 13.052 25.0107 13.172V14H23.1927ZM16.4787 4.838L16.2627 6.368L15.0207 6.098C14.9007 6.074 14.8107 6.026 14.7507 5.954C14.6907 5.882 14.6607 5.786 14.6607 5.666V4.838H16.4787ZM29.2976 14.126C28.5656 14.126 27.9416 13.934 27.4256 13.55C26.9096 13.154 26.5136 12.608 26.2376 11.912C25.9736 11.204 25.8416 10.382 25.8416 9.446C25.8416 8.558 25.9976 7.754 26.3096 7.034C26.6336 6.314 27.0896 5.744 27.6776 5.324C28.2776 4.892 28.9856 4.676 29.8016 4.676C30.3536 4.676 30.8216 4.766 31.2056 4.946C31.5896 5.126 31.9316 5.378 32.2316 5.702V0.698H34.0496V14H32.9516C32.6996 14 32.5436 13.88 32.4836 13.64L32.3216 12.596C31.9376 13.064 31.4936 13.436 30.9896 13.712C30.4976 13.988 29.9336 14.126 29.2976 14.126ZM29.8916 12.686C30.3956 12.686 30.8336 12.578 31.2056 12.362C31.5776 12.134 31.9196 11.81 32.2316 11.39V7.052C31.9556 6.692 31.6496 6.44 31.3136 6.296C30.9896 6.14 30.6236 6.062 30.2156 6.062C29.6756 6.062 29.2196 6.194 28.8476 6.458C28.4756 6.722 28.1936 7.106 28.0016 7.61C27.8096 8.114 27.7136 8.726 27.7136 9.446C27.7136 10.502 27.8876 11.306 28.2356 11.858C28.5836 12.41 29.1356 12.686 29.8916 12.686ZM32.7536 0.698L32.5376 2.228L31.2776 1.958C31.1696 1.934 31.0856 1.886 31.0256 1.814C30.9656 1.742 30.9356 1.646 30.9356 1.526V0.698H32.7536ZM33.5276 14L33.7436 12.47L35.0036 12.74C35.1116 12.764 35.1956 12.812 35.2556 12.884C35.3156 12.956 35.3456 13.052 35.3456 13.172V14H33.5276ZM37.5079 14V4.838H38.5339C38.7379 4.838 38.8759 4.874 38.9479 4.946C39.0319 5.018 39.0799 5.144 39.0919 5.324L39.2179 6.656C39.5299 6.032 39.9079 5.546 40.3519 5.198C40.8079 4.85 41.3419 4.676 41.9539 4.676C42.1939 4.676 42.4099 4.706 42.6019 4.766C42.8059 4.826 42.9919 4.904 43.1599 5L42.9259 6.35C42.9139 6.422 42.8779 6.482 42.8179 6.53C42.7579 6.566 42.6919 6.584 42.6199 6.584C42.5359 6.584 42.3799 6.56 42.1519 6.512C41.9239 6.464 41.7199 6.44 41.5399 6.44C41.0119 6.44 40.5679 6.59 40.2079 6.89C39.8479 7.19 39.5479 7.628 39.3079 8.204V14H37.5079ZM38.7859 14L39.0019 12.47L40.2619 12.74C40.3699 12.764 40.4539 12.812 40.5139 12.884C40.5739 12.956 40.6039 13.052 40.6039 13.172V14H38.7859ZM36.1939 14V13.172C36.1939 13.052 36.2239 12.956 36.2839 12.884C36.3439 12.812 36.4339 12.764 36.5539 12.74L37.7959 12.47L38.0119 14H36.1939ZM38.0119 4.838L37.7959 6.368L36.5539 6.098C36.4339 6.074 36.3439 6.026 36.2839 5.954C36.2239 5.882 36.1939 5.786 36.1939 5.666V4.838H38.0119ZM48.3755 4.694C49.2875 4.694 50.0675 4.892 50.7155 5.288C51.3755 5.672 51.8795 6.218 52.2275 6.926C52.5875 7.634 52.7675 8.462 52.7675 9.41C52.7675 10.346 52.5875 11.174 52.2275 11.894C51.8795 12.602 51.3755 13.154 50.7155 13.55C50.0675 13.934 49.2875 14.126 48.3755 14.126C47.4755 14.126 46.6895 13.934 46.0175 13.55C45.3575 13.154 44.8415 12.602 44.4695 11.894C44.1095 11.174 43.9295 10.346 43.9295 9.41C43.9295 8.462 44.1095 7.634 44.4695 6.926C44.8415 6.218 45.3575 5.672 46.0175 5.288C46.6895 4.892 47.4755 4.694 48.3755 4.694ZM48.3755 12.74C49.2275 12.74 49.8635 12.452 50.2835 11.876C50.7035 11.3 50.9135 10.484 50.9135 9.428C50.9135 8.708 50.8175 8.102 50.6255 7.61C50.4455 7.118 50.1635 6.746 49.7795 6.494C49.4075 6.23 48.9395 6.098 48.3755 6.098C47.7875 6.098 47.3015 6.23 46.9175 6.494C46.5335 6.758 46.2515 7.142 46.0715 7.646C45.8915 8.138 45.8015 8.732 45.8015 9.428C45.8015 10.448 46.0115 11.258 46.4315 11.858C46.8515 12.446 47.4995 12.74 48.3755 12.74ZM55.1563 14V4.838H56.9563V14H55.1563ZM53.8423 14V13.172C53.8423 13.052 53.8723 12.956 53.9323 12.884C53.9923 12.812 54.0823 12.764 54.2023 12.74L55.4443 12.47L55.6603 14H53.8423ZM56.4343 14L56.6503 12.47L57.9103 12.74C58.0183 12.764 58.1023 12.812 58.1623 12.884C58.2223 12.956 58.2523 13.052 58.2523 13.172V14H56.4343ZM55.6603 4.838L55.4443 6.368L54.2023 6.098C54.0823 6.074 53.9923 6.026 53.9323 5.954C53.8723 5.882 53.8423 5.786 53.8423 5.666V4.838H55.6603ZM56.0383 3.236C55.7143 3.236 55.4263 3.116 55.1743 2.876C54.9343 2.636 54.8143 2.354 54.8143 2.03C54.8143 1.694 54.9343 1.406 55.1743 1.166C55.4263 0.913999 55.7143 0.788 56.0383 0.788C56.3743 0.788 56.6623 0.913999 56.9023 1.166C57.1543 1.406 57.2803 1.694 57.2803 2.03C57.2803 2.354 57.1543 2.636 56.9023 2.876C56.6623 3.116 56.3743 3.236 56.0383 3.236ZM62.5378 14.126C61.8058 14.126 61.1818 13.934 60.6658 13.55C60.1498 13.154 59.7538 12.608 59.4778 11.912C59.2138 11.204 59.0818 10.382 59.0818 9.446C59.0818 8.558 59.2378 7.754 59.5498 7.034C59.8738 6.314 60.3298 5.744 60.9178 5.324C61.5178 4.892 62.2258 4.676 63.0418 4.676C63.5938 4.676 64.0618 4.766 64.4458 4.946C64.8298 5.126 65.1718 5.378 65.4718 5.702V0.698H67.2898V14H66.1918C65.9398 14 65.7838 13.88 65.7238 13.64L65.5618 12.596C65.1778 13.064 64.7338 13.436 64.2298 13.712C63.7378 13.988 63.1738 14.126 62.5378 14.126ZM63.1318 12.686C63.6358 12.686 64.0738 12.578 64.4458 12.362C64.8178 12.134 65.1598 11.81 65.4718 11.39V7.052C65.1958 6.692 64.8898 6.44 64.5538 6.296C64.2298 6.14 63.8638 6.062 63.4558 6.062C62.9158 6.062 62.4598 6.194 62.0878 6.458C61.7158 6.722 61.4338 7.106 61.2418 7.61C61.0498 8.114 60.9538 8.726 60.9538 9.446C60.9538 10.502 61.1278 11.306 61.4758 11.858C61.8238 12.41 62.3758 12.686 63.1318 12.686ZM65.9938 0.698L65.7778 2.228L64.5178 1.958C64.4098 1.934 64.3258 1.886 64.2658 1.814C64.2058 1.742 64.1758 1.646 64.1758 1.526V0.698H65.9938ZM66.7678 14L66.9838 12.47L68.2438 12.74C68.3518 12.764 68.4358 12.812 68.4958 12.884C68.5558 12.956 68.5858 13.052 68.5858 13.172V14H66.7678Z" fill="#070707"/>
</svg>
