<svg width="41" height="53" viewBox="0 0 41 53" fill="none" xmlns="http://www.w3.org/2000/svg">
<g clip-path="url(#clip0_30_52)">
<g clip-path="url(#clip1_30_52)">
<g clip-path="url(#clip2_30_52)">
<mask id="mask0_30_52" style="mask-type:luminance" maskUnits="userSpaceOnUse" x="0" y="0" width="42" height="52">
<path d="M41.0123 0.424683H0.770752V51.6747H41.0123V0.424683Z" fill="white"/>
</mask>
<g mask="url(#mask0_30_52)">
<path d="M18.814 0.424683H27.189V38.8099C22.8991 39.6213 19.7411 39.9406 16.3243 39.9406C6.09537 39.9298 0.770752 35.3601 0.770752 26.5836C0.770752 18.1273 6.4187 12.6392 15.1709 12.6392C16.529 12.6392 17.5638 12.7461 18.814 13.0664V0.424683ZM19.1075 19.9837C18.1266 19.6634 17.3184 19.5567 16.2835 19.5567C12.0476 19.5567 9.60093 22.1404 9.60093 26.6686C9.60093 31.0772 11.94 33.5115 16.2297 33.5115C17.1566 33.5115 17.9111 33.4594 19.1075 33.2991V19.9837Z" fill="#2BA977"/>
<path d="M40.8847 13.6698V32.8887C40.8847 39.5074 40.389 42.6902 38.9337 45.4343C37.5756 48.0726 35.7865 49.7361 32.0894 51.5735L24.3181 47.9114C28.0152 46.1932 29.8043 44.6751 30.9469 42.3582C32.1432 39.989 32.5204 37.2448 32.5204 30.0272V13.67L40.8847 13.6698ZM31.6765 0.424683H40.0515V8.93435H31.6765V0.424683Z" fill="#2BA977"/>
</g>
</g>
</g>
</g>
<defs>
<clipPath id="clip0_30_52">
<rect width="41" height="52.53" fill="white"/>
</clipPath>
<clipPath id="clip1_30_52">
<rect width="41" height="52.53" fill="white"/>
</clipPath>
<clipPath id="clip2_30_52">
<rect width="41" height="52.5312" fill="white" transform="translate(0 -0.000610352)"/>
</clipPath>
</defs>
</svg>
