<svg width="44" height="14" viewBox="0 0 44 14" fill="none" xmlns="http://www.w3.org/2000/svg">
<path d="M1.59781 13.77V0.828019H9.62581V2.41202H3.57781V6.71402H8.72581V8.29802H3.57781V13.77H1.59781ZM8.07781 1.96202L9.62581 2.41202V4.03202H8.77981C8.65981 4.03202 8.56381 4.00202 8.49181 3.94202C8.41981 3.88202 8.37181 3.79202 8.34781 3.67202L8.07781 1.96202ZM2.10181 0.828019L1.88581 2.35802L0.643807 2.08802C0.523807 2.06402 0.433807 2.01602 0.373807 1.94402C0.313807 1.87202 0.283807 1.77602 0.283807 1.65602V0.828019H2.10181ZM0.283807 13.77V12.942C0.283807 12.822 0.313807 12.726 0.373807 12.654C0.433807 12.582 0.523807 12.534 0.643807 12.51L1.88581 12.24L2.10181 13.77H0.283807ZM3.05581 13.77L3.27181 12.24L4.53181 12.51C4.63981 12.534 4.72381 12.582 4.78381 12.654C4.85581 12.726 4.89181 12.822 4.89181 12.942V13.77H3.05581ZM12.284 13.77V0.468019H14.084V13.77H12.284ZM10.97 13.77V12.942C10.97 12.822 11 12.726 11.06 12.654C11.12 12.582 11.21 12.534 11.33 12.51L12.572 12.24L12.788 13.77H10.97ZM13.562 13.77L13.778 12.24L15.038 12.51C15.146 12.534 15.23 12.582 15.29 12.654C15.35 12.726 15.38 12.822 15.38 12.942V13.77H13.562ZM12.788 0.468019L12.572 1.99802L11.33 1.72802C11.21 1.70402 11.12 1.65602 11.06 1.58402C11 1.51202 10.97 1.41602 10.97 1.29602V0.468019H12.788ZM18.9259 13.914C18.4339 13.914 17.9899 13.824 17.5939 13.644C17.1979 13.452 16.8859 13.176 16.6579 12.816C16.4299 12.444 16.3159 11.994 16.3159 11.466C16.3159 11.106 16.4119 10.758 16.6039 10.422C16.8079 10.086 17.1259 9.78602 17.5579 9.52202C18.0019 9.27002 18.5779 9.06002 19.2859 8.89202C19.9939 8.71202 20.8699 8.61002 21.9139 8.58602V7.93802C21.9139 7.25402 21.7639 6.74402 21.4639 6.40802C21.1759 6.06002 20.7559 5.88602 20.2039 5.88602C19.8799 5.88602 19.5499 5.96402 19.2139 6.12002C18.8899 6.27602 18.5899 6.43202 18.3139 6.58802C18.0379 6.73202 17.8099 6.80402 17.6299 6.80402C17.4979 6.80402 17.3899 6.77402 17.3059 6.71402C17.2219 6.64202 17.1499 6.56402 17.0899 6.48002L16.7659 5.90402C17.2819 5.41202 17.8399 5.04602 18.4399 4.80602C19.0399 4.56602 19.6999 4.44602 20.4199 4.44602C21.1159 4.44602 21.7039 4.59002 22.1839 4.87802C22.6639 5.16602 23.0299 5.57402 23.2819 6.10202C23.5459 6.63002 23.6779 7.24202 23.6779 7.93802V13.77H22.8679C22.6999 13.77 22.5619 13.746 22.4539 13.698C22.3579 13.638 22.2859 13.524 22.2379 13.356L22.0579 12.564C21.5779 12.996 21.0979 13.332 20.6179 13.572C20.1499 13.8 19.5859 13.914 18.9259 13.914ZM19.4659 12.654C19.9699 12.654 20.4139 12.558 20.7979 12.366C21.1819 12.162 21.5539 11.874 21.9139 11.502V9.72002C21.3139 9.73202 20.7739 9.77402 20.2939 9.84602C19.8259 9.91802 19.4239 10.02 19.0879 10.152C18.7519 10.284 18.4939 10.452 18.3139 10.656C18.1459 10.848 18.0619 11.088 18.0619 11.376C18.0619 11.832 18.1939 12.162 18.4579 12.366C18.7219 12.558 19.0579 12.654 19.4659 12.654ZM23.1559 13.77L23.3719 12.24L24.6319 12.51C24.7399 12.534 24.8239 12.582 24.8839 12.654C24.9559 12.726 24.9919 12.822 24.9919 12.942V13.77H23.1559ZM28.8492 13.914C28.3812 13.914 27.8772 13.866 27.3372 13.77C26.8092 13.674 26.3532 13.554 25.9692 13.41V12.024L26.8512 12.15C27.0072 12.258 27.2592 12.366 27.6072 12.474C27.9552 12.582 28.3512 12.636 28.7952 12.636C29.4312 12.636 29.8992 12.51 30.1992 12.258C30.4992 11.994 30.6492 11.67 30.6492 11.286C30.6492 10.95 30.5412 10.692 30.3252 10.512C30.1092 10.32 29.8212 10.17 29.4612 10.062C29.1012 9.94202 28.7232 9.81602 28.3272 9.68402C27.8952 9.54002 27.4992 9.37202 27.1392 9.18002C26.7912 8.97602 26.5092 8.71802 26.2932 8.40602C26.0892 8.09402 25.9872 7.69802 25.9872 7.21802C25.9872 6.67802 26.1252 6.20402 26.4012 5.79602C26.6892 5.37602 27.0792 5.05202 27.5712 4.82402C28.0752 4.58402 28.6452 4.46402 29.2812 4.46402C29.6772 4.46402 30.0912 4.51802 30.5232 4.62602C30.9552 4.72202 31.4112 4.85402 31.8912 5.02202V6.12002L30.8832 6.06602C30.6432 5.99402 30.3912 5.93402 30.1272 5.88602C29.8752 5.82602 29.6232 5.79602 29.3712 5.79602C29.0352 5.79602 28.7412 5.85002 28.4892 5.95802C28.2372 6.05402 28.0392 6.19202 27.8952 6.37202C27.7512 6.55202 27.6792 6.75602 27.6792 6.98402C27.6792 7.30802 27.8052 7.56602 28.0572 7.75802C28.3092 7.93802 28.6212 8.08802 28.9932 8.20802C29.3652 8.32802 29.7132 8.44202 30.0372 8.55002C30.4332 8.67002 30.8052 8.82602 31.1532 9.01802C31.5012 9.21002 31.7832 9.46202 31.9992 9.77402C32.2272 10.086 32.3412 10.494 32.3412 10.998C32.3412 11.562 32.1972 12.066 31.9092 12.51C31.6212 12.942 31.2132 13.284 30.6852 13.536C30.1692 13.788 29.5572 13.914 28.8492 13.914ZM30.5952 5.70602L31.8912 5.99402V7.39802H31.2252C31.0932 7.39802 30.9912 7.36802 30.9192 7.30802C30.8592 7.23602 30.8172 7.14602 30.7932 7.03802L30.5952 5.70602ZM27.2652 12.654L25.9692 12.366V10.962H26.6352C26.7792 10.962 26.8812 10.998 26.9412 11.07C27.0132 11.13 27.0552 11.214 27.0672 11.322L27.2652 12.654ZM34.784 13.77V0.468019H36.584V8.24402H36.998C37.118 8.24402 37.22 8.22602 37.304 8.19002C37.4 8.14202 37.49 8.07002 37.574 7.97402L40.256 4.95002C40.352 4.84202 40.448 4.75802 40.544 4.69802C40.64 4.63802 40.772 4.60802 40.94 4.60802H42.578L39.374 8.15402C39.278 8.25002 39.188 8.34602 39.104 8.44202C39.02 8.52602 38.918 8.59802 38.798 8.65802C39.014 8.81402 39.206 9.01802 39.374 9.27002L42.776 13.77H41.156C41.012 13.77 40.892 13.74 40.796 13.68C40.7 13.62 40.604 13.536 40.508 13.428L37.7 9.77402C37.616 9.63002 37.526 9.54002 37.43 9.50402C37.346 9.46802 37.214 9.45002 37.034 9.45002H36.584V13.77H34.784ZM40.688 6.19202L40.04 5.45402V4.60802H42.29L41.012 6.13802L40.688 6.19202ZM41.3 13.77L40.4 12.006L41.516 12.24L41.3 13.77ZM33.47 13.77V12.942C33.47 12.822 33.5 12.726 33.56 12.654C33.62 12.582 33.71 12.534 33.83 12.51L35.072 12.24L35.288 13.77H33.47ZM36.062 13.77L36.278 12.24L37.538 12.51C37.646 12.534 37.73 12.582 37.79 12.654C37.85 12.726 37.88 12.822 37.88 12.942V13.77H36.062ZM35.288 0.468019L35.072 1.99802L33.83 1.72802C33.71 1.70402 33.62 1.65602 33.56 1.58402C33.5 1.51202 33.47 1.41602 33.47 1.29602V0.468019H35.288ZM42.614 4.60802V5.43602C42.614 5.55602 42.578 5.65202 42.506 5.72402C42.446 5.79602 42.362 5.84402 42.254 5.86802L40.994 6.13802L40.778 4.60802H42.614ZM40.49 4.60802L40.274 6.13802L39.032 5.86802C38.912 5.84402 38.822 5.79602 38.762 5.72402C38.702 5.65202 38.672 5.55602 38.672 5.43602V4.60802H40.49ZM41.3 13.77L41.498 12.24L42.758 12.51C42.878 12.534 42.968 12.582 43.028 12.654C43.088 12.726 43.118 12.822 43.118 12.942V13.77H41.3Z" fill="#070707"/>
</svg>
