<svg width="41" height="42" viewBox="0 0 41 42" fill="none" xmlns="http://www.w3.org/2000/svg">
<g clip-path="url(#clip0_30_76)">
<g clip-path="url(#clip1_30_76)">
<mask id="mask0_30_76" style="mask-type:luminance" maskUnits="userSpaceOnUse" x="0" y="1" width="41" height="41">
<path d="M40.3887 1.10193H0.388672V41.1019H40.3887V1.10193Z" fill="white"/>
</mask>
<g mask="url(#mask0_30_76)">
<path d="M12.3423 34.6932C10.8173 33.4932 9.19227 32.3457 8.08227 30.7282C5.74477 27.8745 3.94477 24.572 2.71477 21.0995C1.97102 18.842 1.71477 16.4207 0.757267 14.2495C-0.245233 12.6745 0.929768 10.9495 2.65727 10.4495C3.42602 10.302 4.77727 9.57447 3.14477 10.0945C1.68227 11.167 1.54102 9.11947 3.04102 8.98947C4.06602 8.85197 4.44102 8.01447 4.09102 7.26197C2.99102 6.54447 6.75602 5.75822 4.86102 4.68697C2.88852 2.56197 7.62102 2.15197 6.45352 4.56947C6.17602 6.42697 9.76102 4.22697 8.92852 6.37447C9.77477 7.40572 12.096 6.60947 12.0373 8.05572C13.2698 8.14072 13.6923 9.17697 14.8498 9.25572C16.0498 9.79697 18.221 10.2232 18.6285 11.5745C17.441 12.5157 14.6873 9.63072 14.5535 12.237C14.9135 16.087 14.821 20.0519 16.2285 23.7182C16.8948 25.937 18.5098 27.6844 19.966 29.4132C21.3623 31.1057 23.2535 32.2982 25.1785 33.3007C26.8685 34.0982 28.691 34.6257 30.5323 34.9582C31.2785 34.3869 32.5985 32.2632 33.7623 33.1582C33.8185 34.1657 31.4498 35.2632 33.6498 35.152C34.9435 34.7619 35.8398 36.152 36.9035 34.8969C37.8848 36.0594 40.9785 34.1557 40.2823 36.5294C39.3385 37.1382 37.9623 36.7707 37.0173 37.6082C35.4585 36.8294 34.2173 38.3045 32.4923 38.1182C30.576 38.462 28.6273 38.5994 26.6848 38.602C23.4973 38.352 20.2435 38.2444 17.2123 37.1344C15.5035 36.6382 13.8373 35.6657 12.3373 34.6919L12.3423 34.6932ZM15.0335 35.8595C16.701 36.5794 18.3335 37.3395 20.1585 37.5694C23.0585 37.972 26.0523 38.5945 28.9623 38.027C27.6448 37.432 26.2835 38.2582 24.971 37.602C23.396 37.9395 21.721 37.5144 20.096 37.3057C18.2773 36.4957 16.3135 35.9382 14.611 34.8857C12.4823 34.1082 15.711 35.8832 16.286 36.027C17.616 36.782 14.8235 35.652 14.4285 35.3269C13.3135 34.7019 13.1723 34.832 14.3185 35.467L15.0185 35.8595H15.0335ZM11.8585 33.6169C13.4748 34.2169 11.851 32.4794 11.1123 32.5794C10.7848 32.0107 9.85852 31.6507 10.5123 31.3457C9.33727 31.7532 9.28227 29.7957 8.73102 30.0757C7.48852 29.6832 8.24727 28.2932 6.76852 27.4382C6.63352 26.5382 5.29852 25.7595 4.87352 24.4032C4.68602 23.7082 3.36477 21.7157 4.17602 23.5707C4.86602 25.3582 6.08102 26.887 7.09352 28.4145C7.87852 29.8695 8.80602 31.3895 10.236 32.2982C10.7185 32.7607 11.1835 33.4694 11.8635 33.6144L11.8585 33.6169ZM7.20352 28.5045C7.49852 29.032 7.25977 28.2607 7.20352 28.5045ZM13.7948 34.3332C14.1523 34.1732 13.2798 34.1307 13.7948 34.3332ZM14.6698 34.6532C14.5785 34.2119 14.2698 34.9007 14.6698 34.6532ZM15.7698 35.1107C16.2923 34.6132 14.9635 34.7982 15.7698 35.1107ZM17.6523 36.1607C17.9698 35.692 16.636 35.9857 17.6523 36.1607ZM14.0398 33.642C14.8523 33.117 12.9898 33.6345 14.0398 33.642ZM14.8648 34.0545C14.8398 33.777 14.571 34.1795 14.8648 34.0545ZM18.981 36.6245C19.6435 37.0419 22.846 37.5395 20.841 36.7957C20.5035 36.8657 17.1223 35.8382 18.981 36.6245ZM12.446 31.5345C12.3835 31.257 11.4185 31.227 12.446 31.5345ZM14.3623 32.652C14.8623 32.3019 13.3273 32.3832 14.3623 32.652ZM15.9873 33.652C16.7035 33.382 14.8273 33.3807 15.9873 33.652ZM11.6635 30.6832C12.4385 31.2782 14.796 30.7582 12.851 30.3282C11.9673 29.857 9.97602 29.5345 11.3335 30.6119L11.6623 30.6832H11.6635ZM17.0635 33.9794C17.3885 33.4295 15.706 33.6645 17.0635 33.9794ZM15.4223 32.6757C17.3223 33.2132 13.826 31.4757 14.9535 32.4757L15.2035 32.5882L15.4223 32.6732V32.6757ZM18.7123 34.5757C20.5123 34.5932 17.0873 34.3257 18.7123 34.5757ZM10.971 29.642C10.901 29.307 10.5273 29.6695 10.971 29.642ZM21.7548 36.2819C21.8023 35.6769 21.1673 36.7319 21.7548 36.2819ZM14.0423 31.5195C13.9335 31.2007 13.4798 31.5069 14.0423 31.5195ZM11.1423 29.4319C12.1748 29.3694 9.72977 28.9769 11.1423 29.4319ZM7.70852 27.2145C7.57977 26.7194 6.58602 26.3244 7.70852 27.2145ZM16.7235 32.9357C16.636 32.9819 16.536 32.7194 16.7235 32.9357ZM22.3335 36.3795C22.316 36.0494 22.0285 36.5045 22.3335 36.3795ZM16.2273 32.4232C16.3273 31.9982 15.346 32.2944 16.2273 32.4232ZM12.0473 29.7732C12.816 29.692 10.816 29.2545 12.0473 29.7732ZM19.1173 34.1669C20.3148 33.6919 17.951 33.9357 19.1173 34.1669ZM15.4398 31.6707C16.8185 31.8482 13.7985 30.7332 15.136 31.5707L15.4398 31.6707ZM20.2335 34.6182C21.521 33.8495 21.096 36.422 22.4185 34.8357C23.7223 33.8832 21.2935 36.0132 22.8985 35.0057C24.061 34.2282 25.7773 35.3745 26.861 35.747C27.641 35.7094 28.3985 36.422 29.1985 35.9882C30.736 35.5732 26.1885 35.3732 27.381 34.6382C25.9735 35.0482 24.9335 34.1507 24.2398 33.2482C22.6598 32.8832 20.8348 32.0757 20.046 30.6782C19.7248 30.1532 20.5085 30.7532 19.7685 29.8945C18.8185 29.0482 18.3435 28.0869 17.7035 27.0569C16.941 26.6507 16.8498 25.452 16.7735 27.017C16.7798 26.0295 15.8523 25.3632 15.6235 25.6394C15.6198 24.6894 16.6173 25.1644 15.9185 24.4619C15.7685 23.4745 15.2735 22.4495 15.126 21.3345C14.8948 20.797 15.0935 19.647 14.3385 20.8632C14.0635 22.147 14.2473 19.2857 14.676 20.2282C15.2385 19.2657 14.4735 19.3782 14.4435 19.512C14.8098 18.6995 14.676 17.547 14.3473 17.987C14.5423 17.1245 14.656 14.8182 14.056 15.227C14.4185 14.327 14.746 11.1057 13.166 12.3332C12.526 12.342 11.4185 12.5657 10.8948 12.8257C12.536 13.7307 10.7298 13.1532 10.0598 13.0082C9.97227 13.8457 9.30977 13.4832 8.48477 13.492C9.80727 13.6545 7.84102 14.842 7.08477 14.382C6.09977 14.852 7.93477 16.027 7.10352 16.3907C7.20602 16.937 5.59477 16.1932 5.72102 17.4582C4.76602 17.0557 5.58977 18.9582 6.06852 18.3145C7.69352 18.7545 7.21227 19.757 7.25352 20.7107C6.98852 21.2657 5.94602 19.4057 7.02102 19.492C6.17102 18.1132 6.08352 18.992 5.37727 19.6345C5.21477 19.6807 7.17727 20.547 5.94477 20.972C7.02852 21.1395 7.05977 22.0882 7.27977 22.687C7.92977 23.3657 7.79602 21.937 8.57602 22.7532C8.08227 22.0282 5.96352 20.707 7.66977 21.1282C7.66102 20.3982 7.36102 19.8082 7.88477 19.822C8.40352 18.8845 7.34227 22.1345 8.50977 20.942C8.83227 20.8007 8.91352 20.0045 9.49352 21.017C10.336 21.847 9.79852 22.447 8.60852 21.687C8.82102 22.4095 10.1998 22.667 9.93977 23.7957C10.2148 24.7895 10.5985 24.4232 10.9335 24.3657C11.1835 25.3307 11.346 24.6207 11.3585 24.162C12.561 24.4195 12.2785 25.1307 12.656 25.627C13.4848 26.002 11.4685 23.092 12.8935 24.752C14.3898 26.102 13.456 26.6682 12.1123 26.452C12.9623 26.3832 13.2373 27.602 14.2998 27.5582C15.2698 28.0207 15.9248 29.7919 14.2548 29.0532C13.676 28.5307 11.6223 27.8857 13.2998 28.8782C14.8473 29.5957 16.0773 30.0232 17.5698 30.9244C18.6373 31.6744 19.0985 32.5594 19.5035 32.7332C18.606 33.162 16.7985 32.3907 18.1285 32.1544C17.291 32.0019 16.3485 31.5795 17.151 32.6219C17.8335 33.1919 19.5673 33.132 19.8785 33.197C19.616 33.777 19.1623 33.8219 19.8885 33.8682C19.0785 34.3007 20.1485 34.3682 20.2235 34.6144L20.2335 34.6182ZM18.576 29.9382C18.0823 29.422 17.9548 28.457 18.4885 29.297C18.7635 29.4069 19.3635 30.8757 18.576 29.9382ZM23.976 33.3519C24.2835 33.3319 23.9848 33.5857 23.976 33.3519ZM17.801 28.6582C17.9785 29.2582 17.781 27.8782 17.801 28.6582ZM17.2635 27.937C18.0448 28.2744 16.6423 26.737 17.2635 27.937ZM10.761 23.437C11.126 23.3395 10.941 24.0594 10.761 23.437ZM15.936 26.242C16.186 26.947 16.161 25.4007 15.936 26.242ZM12.2798 23.6994C12.8173 24.1344 12.0223 23.2369 12.2798 23.6994ZM15.4173 24.7045C14.8298 23.3882 15.8348 23.9857 15.5485 24.9195L15.4173 24.7045ZM10.0073 21.097C9.75727 20.6645 9.31102 19.397 9.45102 19.0095C9.57602 19.6395 10.791 21.722 10.046 19.8845C9.22352 18.3345 11.0298 20.387 11.216 20.7745C11.3035 21.1582 10.7085 20.6695 11.111 21.572C10.376 20.5445 10.6773 22.1395 10.0085 21.1095L10.0073 21.097ZM8.33602 19.9445C8.71852 20.632 8.40477 18.9395 8.33602 19.9445ZM9.08852 20.2045C9.69602 21.2607 9.44727 19.447 9.08852 20.2045ZM7.26352 18.8295C6.64102 18.2107 6.19102 17.642 7.29352 18.4457C7.71852 18.462 6.34977 17.1495 7.39602 18.0282C8.49602 18.2282 7.93852 19.832 7.26477 18.8282L7.26352 18.8295ZM8.21352 18.8045C8.57602 18.4457 8.40602 19.157 8.21352 18.8045ZM8.79852 18.992C9.46352 19.4232 8.24852 17.9645 8.79852 18.992ZM7.63602 17.882C5.82602 16.2695 9.91102 18.7232 7.93102 18.182L7.63602 17.882ZM12.821 20.8945C12.0373 20.4257 12.6123 17.5895 12.8798 19.5282C13.6423 19.282 12.8373 20.5307 13.4048 20.5182C13.3173 21.3057 13.061 21.5907 12.821 20.8945ZM14.7385 22.0282C14.901 22.6132 14.8135 21.1732 14.7385 22.0282ZM14.406 21.6982C14.4935 21.3332 14.4135 22.1282 14.406 21.6982ZM8.00352 17.352C6.84102 15.7482 11.3823 18.9745 8.74852 17.7582C8.47352 17.6857 8.14227 17.6607 8.00352 17.352ZM11.6973 19.3095C11.9423 19.5345 11.5873 17.9595 11.6973 19.3095ZM14.501 21.1095C14.7173 20.3407 14.5173 21.6182 14.501 21.1095ZM8.18227 16.7395C8.87352 16.592 11.0573 17.952 9.05102 17.127C8.82977 16.882 8.35602 16.9932 8.18227 16.7395ZM14.1148 19.697C14.1898 18.3157 14.5273 18.872 14.1173 19.897L14.1148 19.697ZM8.69602 16.2595C8.97852 15.847 7.94852 14.3932 8.84352 15.7382C9.21852 16.0457 9.96477 16.2532 9.31852 16.3832C10.3373 17.2832 9.06852 16.627 8.69727 16.2582L8.69602 16.2595ZM13.821 19.267C14.0148 17.692 13.9923 20.1882 13.821 19.267ZM8.10852 14.807C8.32352 14.7145 8.22102 15.0945 8.10852 14.807ZM9.44602 15.6032C10.081 16.4082 9.78977 14.8807 9.44602 15.6032ZM13.2173 17.7007C13.2885 18.1045 13.2148 17.4257 13.2173 17.7007ZM12.9985 17.2182C13.4985 17.902 12.476 15.927 12.9985 17.2182ZM12.6773 16.3707C12.9773 17.0407 12.5898 15.837 12.6773 16.3707ZM13.1998 15.5207C12.8398 14.8882 13.6535 12.7332 13.7448 14.0707C13.366 15.1132 13.636 15.6957 13.8985 14.2957C14.386 13.1957 13.7948 16.467 13.1998 15.5207ZM13.7373 12.3132C13.8935 12.1207 13.7723 12.5445 13.7373 12.3132ZM12.8385 30.002C12.866 30.1195 12.626 29.8145 12.8385 30.002ZM14.6885 30.937C15.7173 31.2019 15.7135 30.777 14.7823 30.6495C14.2823 30.1845 12.7048 29.6907 14.1173 30.5919C14.2098 30.8419 14.5048 30.8245 14.6885 30.937ZM11.0385 28.5119C11.6048 28.937 13.1723 29.7095 11.846 28.6745C12.2935 28.1545 10.9898 27.877 11.421 27.5295C10.321 26.8544 10.5523 26.9045 11.3235 26.9382C10.001 26.347 11.5148 26.392 11.4435 26.0882C10.9335 25.9882 8.91102 25.1882 10.101 26.1532C8.89102 25.537 9.81352 26.3832 9.44727 26.2944C8.19727 25.9569 10.5473 27.2369 9.25102 26.9194C9.95977 27.4819 11.161 28.3607 9.55102 27.5144C9.33852 27.8194 10.7035 28.2832 11.051 28.5144L11.0385 28.5119ZM12.9723 29.6245C15.3223 30.382 11.8185 28.6995 12.9723 29.6245ZM22.8723 35.6219C22.9023 35.1544 22.551 36.0219 22.8723 35.6219ZM23.8898 36.0507C24.4323 35.5257 23.9123 36.8882 24.7898 35.922C24.7985 35.2307 24.7648 34.822 23.7823 35.662C23.511 35.812 23.391 36.4495 23.891 36.0494L23.8898 36.0507ZM7.73602 25.902C7.56977 25.2469 6.56852 25.2495 7.73602 25.902ZM8.82352 26.6144C8.41977 25.9457 7.38352 26.0082 8.82352 26.6144ZM15.006 30.3432C15.6098 30.8807 17.7785 30.7369 15.7385 30.4095C15.4385 29.9632 13.8223 30.072 15.006 30.3432ZM23.5035 35.5932C24.4323 34.8132 22.6035 35.9407 23.5035 35.5932ZM25.436 36.9207C25.4423 36.6707 25.036 37.0295 25.436 36.9207ZM25.4398 36.5707C26.4685 35.4832 24.4435 36.6332 25.4398 36.5707ZM5.06352 23.6644C4.18852 22.4144 4.51852 21.852 3.67352 20.8307C3.51352 20.0495 2.22352 18.277 3.00602 20.1557C3.72352 21.2557 3.93602 22.9557 5.06352 23.6682V23.6644ZM25.1135 36.222C27.0073 34.9995 24.3385 35.6895 25.1135 36.222ZM26.5585 36.7882C27.5085 35.9757 25.9585 36.6182 26.5585 36.7882ZM7.41352 24.5207C7.68477 24.117 6.71352 24.4682 7.41352 24.5207ZM26.2573 36.402C27.1748 35.8107 26.0448 35.902 26.091 36.4557L26.2573 36.402ZM13.8048 28.5519C13.7735 28.1519 13.3198 28.5857 13.8048 28.5519ZM14.5735 28.9944C14.3285 28.4994 14.1985 29.0719 14.5735 28.9944ZM27.7298 36.8007C28.9048 35.9507 27.0173 36.6382 27.4835 36.9632L27.7298 36.8007ZM27.2798 36.5832C28.2385 35.7807 26.2673 36.9382 27.2798 36.5832ZM29.5798 38.1145C30.2223 37.6845 28.7985 37.977 29.5798 38.1145ZM8.00477 24.227C8.86727 24.4195 11.4485 26.3495 9.92602 24.3607C9.14602 24.1295 9.61352 22.2232 8.81727 22.5607C9.35102 23.4532 9.25477 23.8332 8.13477 23.2707C6.72602 22.5832 7.34352 23.6107 7.61852 23.8957C7.24352 23.9832 8.11477 24.2207 8.00602 24.2282L8.00477 24.227ZM4.07977 21.127C4.23352 20.4895 2.65852 17.6145 3.33602 19.687C3.57977 20.1207 3.55477 20.9432 4.07977 21.127ZM11.2873 25.5707C11.266 25.5182 10.8423 25.1995 11.2873 25.5707ZM12.3798 25.8257C12.3798 25.1507 11.1723 25.5507 12.3798 25.8257ZM21.851 31.7957C21.6698 31.3332 21.1385 31.7857 21.851 31.7957ZM22.306 32.1282C22.2385 31.8694 22.056 32.1782 22.306 32.1282ZM26.0598 34.4932C26.4223 34.2269 25.6098 34.4582 26.0598 34.4932ZM6.03852 21.6295C7.07102 21.2295 4.93227 21.3445 6.03852 21.6295ZM21.0135 31.0644C21.001 30.3957 20.3548 31.2307 21.0135 31.0644ZM5.62977 20.677C6.29227 20.452 5.01727 20.5295 5.62977 20.677ZM7.55477 21.6095C7.54227 21.3895 7.35102 21.6932 7.55477 21.6095ZM31.0398 36.0095C31.8923 35.837 33.8373 36.4432 34.1523 35.7845C33.1148 35.7595 30.5685 35.0532 30.4485 35.9519L30.6735 35.9895L31.0398 36.012V36.0095ZM8.16727 21.7645C8.18227 21.087 7.63977 21.7395 8.16727 21.7645ZM3.10477 18.252C2.87477 16.962 2.22977 18.057 3.10477 18.252ZM4.31102 18.5557C4.32602 18.1407 3.20602 18.1832 4.31102 18.5557ZM5.00102 18.8932C4.84602 19.097 4.80102 18.7307 5.00102 18.8932ZM9.34227 21.6769C9.54727 21.4894 8.85852 21.5395 9.34227 21.6769ZM4.54227 18.127C4.42477 17.152 3.14227 17.9807 4.54227 18.127ZM2.06727 16.5207C2.03227 16.0707 1.82602 16.6907 2.06727 16.5207ZM2.43602 16.2432C2.37602 15.7095 2.11977 16.3107 2.43602 16.2432ZM4.46977 17.4557C5.32977 17.1182 2.90352 16.7557 4.29477 17.3932L4.46977 17.4557ZM31.6923 34.277C32.2423 33.772 30.9923 34.1207 31.6923 34.277ZM34.9798 35.9807C35.201 35.3307 34.4235 36.0682 34.9798 35.9807ZM4.67602 16.3957C4.76727 15.7645 3.99352 16.5207 4.67602 16.3957ZM1.78102 14.4582C1.62852 13.5645 1.65102 12.002 3.13602 12.5295C1.15227 12.9245 4.51102 14.997 4.08602 13.3595C4.92102 13.4007 5.71852 12.8657 5.27977 13.6757C6.92602 13.497 8.06352 12.0695 9.65352 12.2707C10.9035 12.1057 12.2435 11.9832 13.5785 11.4832C14.6748 11.4045 15.7285 10.2245 15.1285 9.52447C13.6335 9.39947 12.0685 9.58447 10.416 9.91447C8.58477 10.2945 6.92227 11.0182 5.07477 11.327C3.27477 11.5695 5.43727 11.9932 4.92102 12.0895C3.98352 12.4145 6.04227 12.6345 4.79977 12.9795C4.03227 12.8332 3.23352 12.5695 3.56227 11.7607C1.83727 11.9857 0.321017 12.7007 1.68477 14.4557L1.78477 14.457L1.78102 14.4582ZM5.94102 12.352C6.34477 10.862 8.10727 13.577 6.60352 12.552C6.42477 12.417 6.12852 12.3082 5.94102 12.352ZM6.01977 11.6295C6.60352 11.1957 6.32977 11.8732 6.01977 11.6295ZM6.76102 11.642C6.81477 10.957 8.45852 12.017 7.03227 11.8882L6.76102 11.642ZM7.77352 11.2345C8.14477 10.8007 7.88102 11.6182 7.77352 11.2345ZM8.03352 11.0595C8.65102 10.3182 11.5248 10.5845 9.40852 10.987C8.84602 10.562 8.41227 11.237 8.03352 11.0595ZM11.7835 10.4807C13.6485 11.1995 11.691 8.45572 11.7835 10.4807ZM12.8485 10.4745C13.236 9.45447 14.361 10.0645 13.0298 10.2695C13.0585 10.3782 12.9898 10.797 12.8485 10.4745ZM4.25727 15.8832C5.41977 15.1707 3.02352 15.2657 4.25727 15.8832ZM5.11727 16.1332C5.52477 15.6995 4.24227 15.9582 5.11727 16.1332ZM2.58477 14.3145C3.24727 13.802 1.79727 14.1207 2.58477 14.3145ZM36.9223 35.7957C36.941 35.2032 36.4148 36.062 36.9223 35.7957ZM33.4348 33.4145C33.5348 32.7332 32.9848 33.4732 33.4348 33.4145ZM37.8848 36.027C38.8135 36.0307 40.6998 35.7394 38.6785 35.7394C38.361 35.7894 36.8285 35.777 37.8848 36.027ZM5.87602 15.6932C6.62852 15.6432 7.05102 14.8645 5.72977 14.9082C3.67977 14.6957 7.53727 15.6107 5.47977 15.3482C5.20227 15.532 5.87227 15.7432 5.88852 15.692L5.87602 15.6932ZM6.53852 16.0282C6.45977 15.5457 6.30602 16.2845 6.53852 16.0282ZM7.32602 13.9332C7.65102 13.5282 6.87602 13.8245 7.32602 13.9332ZM4.82602 9.75322C6.16852 9.29697 8.00352 8.78447 8.63852 9.97822C7.99352 9.20322 8.37852 8.43822 8.98852 9.57322C9.85102 10.7207 10.281 9.05072 9.72102 8.66572C10.3585 9.45822 11.0835 9.83322 10.1485 8.71572C11.1673 7.49072 8.11102 8.87572 7.41602 8.86197C7.08227 9.01197 3.96602 9.65697 4.82852 9.75322H4.82602ZM5.61352 8.24697C6.37852 7.66947 8.26102 8.59072 7.05352 7.67197C6.93477 7.56822 4.40977 8.36822 5.61352 8.24697ZM8.40352 8.36197C9.29852 8.38447 8.01602 7.15822 9.08352 7.71447C8.90852 7.14197 7.84102 7.03572 7.31852 6.80572C7.02352 7.32822 7.91852 8.36822 8.40227 8.36197H8.40352ZM6.10352 5.82947C6.41352 5.40947 5.55977 6.04197 6.10352 5.82947ZM7.23852 6.10197C8.68227 5.91072 6.87102 5.48072 6.94727 6.08697L7.23852 6.10197ZM5.10852 4.43947C4.09227 3.11197 7.02102 4.66197 5.98727 3.27322C5.11727 2.58197 4.28352 4.05322 5.10852 4.43947ZM18.151 11.4645C18.6173 10.6395 16.226 10.352 17.8385 11.172C17.986 11.222 17.9535 11.522 18.151 11.4645Z" fill="black"/>
</g>
</g>
</g>
<defs>
<clipPath id="clip0_30_76">
<rect width="41" height="41" fill="white" transform="translate(0 0.77002)"/>
</clipPath>
<clipPath id="clip1_30_76">
<rect width="41" height="41" fill="white" transform="translate(0 0.77002)"/>
</clipPath>
</defs>
</svg>
