<svg width="41" height="41" viewBox="0 0 41 41" fill="none" xmlns="http://www.w3.org/2000/svg">
<g clip-path="url(#clip0_30_43)">
<g clip-path="url(#clip1_30_43)">
<g clip-path="url(#clip2_30_43)">
<mask id="mask0_30_43" style="mask-type:luminance" maskUnits="userSpaceOnUse" x="0" y="0" width="41" height="41">
<path d="M40.6113 0.27002H0.611328V40.27H40.6113V0.27002Z" fill="white"/>
</mask>
<g mask="url(#mask0_30_43)">
<path d="M19.3029 0.301282C19.2169 0.309093 18.9435 0.336434 18.6975 0.355964C13.0222 0.867633 7.70634 3.92983 4.33948 8.63641C2.46466 11.2533 1.26556 14.2218 0.812482 17.366C0.652342 18.4636 0.632812 18.7877 0.632812 20.2759C0.632812 21.764 0.652342 22.0882 0.812482 23.1857C1.89831 30.6889 7.23764 36.993 14.4791 39.3287C15.7759 39.7466 17.1429 40.0318 18.6975 40.2036C19.3029 40.27 21.9198 40.27 22.5252 40.2036C25.2085 39.9068 27.4818 39.2428 29.7237 38.0984C30.0674 37.9226 30.1338 37.8757 30.087 37.8367C30.0557 37.8132 28.591 35.8486 26.8334 33.4738L23.6384 29.1578L19.6349 23.2326C17.432 19.9751 15.6196 17.3113 15.604 17.3113C15.5884 17.3074 15.5728 19.94 15.5649 23.1545C15.5532 28.7829 15.5493 29.0094 15.479 29.1422C15.3775 29.3336 15.2993 29.4117 15.1353 29.4976C15.0103 29.5601 14.9009 29.5718 14.3112 29.5718H13.6354L13.4558 29.4586C13.3386 29.3844 13.2527 29.2867 13.1941 29.1734L13.1121 28.9977L13.1199 21.1664L13.1316 13.3312L13.2527 13.1789C13.3152 13.0969 13.448 12.9914 13.5417 12.9407C13.7018 12.8625 13.7643 12.8547 14.4401 12.8547C15.2369 12.8547 15.3697 12.886 15.5767 13.1125C15.6353 13.175 17.803 16.4403 20.3965 20.3735C22.99 24.3067 26.5365 29.6773 28.2785 32.3138L31.4423 37.1063L31.6024 37.0008C33.0203 36.079 34.5201 34.7667 35.7075 33.3996C38.2346 30.4975 39.8634 26.9588 40.4102 23.1857C40.5703 22.0882 40.5898 21.764 40.5898 20.2759C40.5898 18.7877 40.5703 18.4636 40.4102 17.366C39.3243 9.86285 33.985 3.55878 26.7435 1.22307C25.4663 0.809045 24.1071 0.523917 22.5838 0.352058C22.2088 0.312999 19.627 0.270035 19.3029 0.301282ZM27.4818 12.386C27.6692 12.4798 27.8216 12.6594 27.8762 12.8469C27.9075 12.9485 27.9153 15.1201 27.9075 20.0142L27.8958 27.0369L26.6576 25.1387L25.4155 23.2404V18.1355C25.4155 14.835 25.4312 12.9797 25.4546 12.8899C25.5171 12.6711 25.6538 12.4993 25.8413 12.3977C26.0014 12.3157 26.06 12.3079 26.6732 12.3079C27.2513 12.3079 27.3529 12.3157 27.4818 12.386Z" fill="black"/>
<path d="M31.247 37.1921C31.1103 37.278 31.0674 37.3366 31.1885 37.2702C31.2744 37.2195 31.415 37.114 31.3916 37.1101C31.3798 37.1101 31.3134 37.1491 31.247 37.1921ZM30.9775 37.3679C30.9072 37.4226 30.9072 37.4265 30.9932 37.3835C31.04 37.3601 31.0791 37.3327 31.0791 37.3249C31.0791 37.2937 31.0596 37.3015 30.9775 37.3679ZM30.7822 37.4851C30.7119 37.5397 30.7119 37.5436 30.7979 37.5007C30.8447 37.4772 30.8838 37.4499 30.8838 37.4421C30.8838 37.4108 30.8643 37.4187 30.7822 37.4851ZM30.587 37.6022C30.5166 37.6569 30.5166 37.6608 30.6026 37.6179C30.6494 37.5944 30.6885 37.5671 30.6885 37.5593C30.6885 37.528 30.669 37.5358 30.587 37.6022ZM30.2901 37.7585C30.1417 37.8366 30.1495 37.8678 30.2979 37.7936C30.3643 37.7585 30.4151 37.7233 30.4151 37.7155C30.4151 37.6882 30.4112 37.6921 30.2901 37.7585Z" fill="black"/>
</g>
</g>
</g>
</g>
<defs>
<clipPath id="clip0_30_43">
<rect width="41" height="40" fill="white" transform="translate(0 0.27002)"/>
</clipPath>
<clipPath id="clip1_30_43">
<rect width="41" height="40" fill="white" transform="translate(0 0.27002)"/>
</clipPath>
<clipPath id="clip2_30_43">
<rect width="41" height="40" fill="white" transform="translate(0 0.27002)"/>
</clipPath>
</defs>
</svg>
