<svg width="41" height="50" viewBox="0 0 41 50" fill="none" xmlns="http://www.w3.org/2000/svg">
<g clip-path="url(#clip0_30_61)">
<g clip-path="url(#clip1_30_61)">
<path d="M36.7168 8.86739C32.5626 3.01193 24.3569 1.27632 18.4248 4.99905L8.00704 11.5392C7.30621 11.9731 6.65239 12.4776 6.05753 13.0446C5.46193 13.6116 4.92828 14.2382 4.46479 14.9141C4.0013 15.59 3.61019 16.3113 3.29747 17.0667C2.98551 17.8223 2.75388 18.6077 2.60633 19.4104C2.48319 20.0833 2.41601 20.7659 2.40706 21.4498C2.39735 22.1344 2.44587 22.8184 2.5511 23.4943C2.65634 24.1709 2.8183 24.8379 3.03475 25.488C3.2512 26.1382 3.52213 26.7691 3.84456 27.3751C3.62275 27.7073 3.41799 28.0501 3.23104 28.4025C3.04371 28.7548 2.87503 29.1166 2.725 29.4858C2.57499 29.855 2.44437 30.2315 2.33316 30.6139C2.22196 30.9963 2.1309 31.3839 2.05925 31.7752C1.76153 33.4204 1.80086 35.1078 2.17494 36.7378C2.36153 37.5504 2.62947 38.3433 2.97579 39.1037C3.3221 39.8641 3.74379 40.5892 4.2364 41.2673C8.39067 47.1227 16.5955 48.8583 22.5276 45.1357L32.9454 38.6227C33.6463 38.1881 34.2985 37.6828 34.8934 37.1151C35.4882 36.5477 36.0216 35.9213 36.4854 35.2456C36.949 34.5706 37.34 33.8491 37.6527 33.0938C37.9654 32.3392 38.1975 31.5538 38.3461 30.7514C38.4692 30.0785 38.5357 29.3968 38.5446 28.7129C38.5536 28.0289 38.505 27.3449 38.399 26.6691C38.2939 25.9932 38.1319 25.327 37.9147 24.6768C37.6974 24.0274 37.4266 23.3965 37.1042 22.7904C37.3258 22.4588 37.531 22.1154 37.7184 21.7631C37.905 21.4108 38.0744 21.049 38.2244 20.6798C38.3744 20.3106 38.5059 19.934 38.6178 19.5517C38.729 19.17 38.8216 18.7824 38.8939 18.3911C39.0418 17.5704 39.1059 16.7371 39.0865 15.904C39.0671 15.0707 38.9634 14.2419 38.7767 13.4285C38.5902 12.6159 38.3222 11.8231 37.9759 11.0626C37.63 10.3021 37.2082 9.57731 36.7168 8.89901" fill="#FF3E00"/>
<path d="M17.4068 41.8336C16.5915 42.0422 15.7486 42.1271 14.9072 42.0851C14.0661 42.0425 13.2361 41.8748 12.4465 41.5857C11.6568 41.2971 10.9164 40.8917 10.2507 40.3833C9.58555 39.8746 9.00292 39.269 8.52284 38.5874C8.22654 38.1792 7.97278 37.7439 7.76528 37.2865C7.55719 36.8293 7.39592 36.3529 7.28388 35.8642C7.17267 35.375 7.10997 34.8764 7.09878 34.3756C7.08759 33.8748 7.12714 33.374 7.2167 32.8806C7.23088 32.8004 7.2473 32.7202 7.26521 32.6408C7.28238 32.5606 7.30179 32.4812 7.32268 32.4025C7.34283 32.3231 7.36523 32.2443 7.38912 32.1657C7.41225 32.0877 7.43763 32.0098 7.46375 31.9325L7.66004 31.342L8.19519 31.7355C8.50194 31.9561 8.8184 32.1643 9.14307 32.3584C9.46774 32.5533 9.80063 32.7342 10.141 32.9003C10.4806 33.0673 10.8284 33.2203 11.1814 33.3578C11.5344 33.496 11.8934 33.6189 12.2577 33.727L12.6569 33.841L12.6211 34.2344C12.6018 34.5022 12.6302 34.7713 12.7047 35.0294C12.7414 35.1588 12.7898 35.2839 12.8488 35.4045C12.9078 35.5251 12.9771 35.6406 13.0563 35.7495C13.2013 35.9547 13.3772 36.137 13.578 36.2899C13.778 36.443 14.0011 36.565 14.2393 36.6518C14.4773 36.7385 14.7266 36.7886 14.9804 36.8011C15.2334 36.8143 15.4871 36.7886 15.7328 36.7253C15.7895 36.7106 15.8447 36.6937 15.8999 36.6746C15.9551 36.6555 16.0097 36.6348 16.0626 36.6113C16.1164 36.5885 16.1686 36.5636 16.2209 36.5363C16.2724 36.5099 16.3223 36.4812 16.3717 36.4503L26.7737 29.9094C26.9013 29.8306 27.0201 29.7389 27.1283 29.6358C27.2365 29.5322 27.3328 29.4181 27.4171 29.2953C27.5015 29.1725 27.5717 29.0409 27.6283 28.9033C27.6843 28.7658 27.7261 28.6232 27.753 28.4775C27.7791 28.3282 27.7903 28.1775 27.7865 28.0259C27.7828 27.8752 27.7634 27.7252 27.7291 27.5773C27.6955 27.4303 27.6463 27.2868 27.5828 27.1486C27.5202 27.011 27.4425 26.8802 27.3529 26.7573C27.2081 26.5522 27.0327 26.3705 26.832 26.2176C26.6312 26.0645 26.408 25.9425 26.1707 25.8557C25.9327 25.769 25.6829 25.7183 25.4295 25.7057C25.1758 25.6933 24.922 25.7189 24.6765 25.7814C24.6205 25.7961 24.5645 25.8131 24.5093 25.8322C24.4541 25.8513 24.4003 25.872 24.3465 25.8948C24.2929 25.9183 24.2405 25.9432 24.189 25.9705C24.1375 25.9969 24.0868 26.0263 24.0376 26.0572L20.043 28.5563C19.8803 28.6577 19.7132 28.7533 19.5429 28.843C19.372 28.932 19.1989 29.0151 19.0219 29.0916C18.845 29.1681 18.6653 29.2379 18.4832 29.3004C18.301 29.3637 18.1167 29.4196 17.93 29.4689C17.1158 29.6763 16.2746 29.7601 15.4349 29.7174C14.5953 29.6748 13.7676 29.5064 12.9794 29.2188C12.1912 28.9306 11.4523 28.5253 10.7881 28.0178C10.1238 27.5104 9.54163 26.9066 9.06172 26.2264C8.76691 25.8182 8.51389 25.3821 8.30714 24.9246C8.09966 24.4672 7.93918 23.9907 7.82797 23.5024C7.71677 23.0133 7.65557 22.5147 7.64511 22.0139C7.63392 21.5138 7.67348 21.013 7.76378 20.5203C7.94025 19.5501 8.32002 18.6269 8.87886 17.8094C9.43809 16.992 10.1644 16.2987 11.0112 15.7738L21.4454 9.23364C21.6074 9.13215 21.773 9.03655 21.9425 8.94682C22.1119 8.85784 22.2851 8.77474 22.4605 8.69825C22.6362 8.62174 22.8151 8.55206 22.9964 8.48939C23.1771 8.42614 23.3606 8.36951 23.5464 8.32024C24.3615 8.11212 25.2041 8.0268 26.0445 8.06873C26.8857 8.11138 27.7149 8.27906 28.5045 8.56808C29.2943 8.85637 30.0338 9.26233 30.6996 9.7705C31.3645 10.2795 31.947 10.8853 32.4268 11.5671C32.7223 11.9746 32.9768 12.4099 33.185 12.8674C33.3933 13.3248 33.5545 13.8006 33.6671 14.2897C33.7792 14.7787 33.8419 15.2773 33.853 15.7783C33.8649 16.2791 33.8262 16.7799 33.7366 17.2733C33.7209 17.3542 33.7045 17.4351 33.6858 17.5153C33.6679 17.5954 33.6486 17.6756 33.6276 17.7551C33.6075 17.8351 33.585 17.9146 33.562 17.9933C33.5388 18.0727 33.515 18.1514 33.4888 18.2293L33.2895 18.82L32.7582 18.4265C32.4507 18.2036 32.1334 17.9948 31.808 17.7985C31.4826 17.6028 31.1482 17.4204 30.8072 17.252C30.1243 16.9164 29.4139 16.6378 28.6837 16.4195L28.2836 16.3055L28.3203 15.912C28.3314 15.7774 28.3306 15.6421 28.318 15.5083C28.306 15.3744 28.2814 15.2413 28.2456 15.1112C28.209 14.9818 28.1619 14.8545 28.103 14.7331C28.0448 14.6111 27.9754 14.4948 27.8963 14.3846C27.7506 14.183 27.5747 14.0044 27.3746 13.8551C27.1747 13.705 26.9527 13.586 26.7163 13.502C26.2412 13.3322 25.7248 13.3094 25.2362 13.4365C25.1795 13.4513 25.1235 13.4683 25.0691 13.4866C25.0139 13.5058 24.9594 13.5271 24.9056 13.5499C24.8526 13.5727 24.7996 13.5984 24.7481 13.6249C24.6966 13.652 24.6458 13.6807 24.5966 13.7116L14.175 20.2407C14.0482 20.3195 13.9295 20.4114 13.8221 20.5144C13.7146 20.6173 13.6175 20.7313 13.5333 20.8533C13.4496 20.9762 13.3788 21.107 13.322 21.2439C13.2653 21.3814 13.2235 21.5233 13.1966 21.669C13.1705 21.8183 13.1593 21.9697 13.163 22.1212C13.172 22.4245 13.2412 22.723 13.3667 23C13.43 23.138 13.5068 23.2694 13.5958 23.3928C13.7399 23.5957 13.9146 23.7766 14.1139 23.9282C14.3127 24.0804 14.534 24.2019 14.7699 24.2885C15.2444 24.4624 15.7612 24.4903 16.2522 24.3687C16.3082 24.3533 16.3642 24.3364 16.4194 24.3172C16.4739 24.2981 16.5284 24.2768 16.5821 24.2539C16.6356 24.231 16.6881 24.206 16.7396 24.1789C16.7911 24.1525 16.8418 24.1238 16.8912 24.0929L20.8856 21.5983C21.0492 21.4953 21.2156 21.3983 21.3864 21.3085C21.5566 21.2181 21.7306 21.135 21.9082 21.0578C22.0853 20.9813 22.2653 20.9116 22.4479 20.849C22.6307 20.7857 22.8158 20.7298 23.0031 20.6812C23.8181 20.4724 24.6601 20.3871 25.5012 20.4283C26.3424 20.4702 27.1715 20.6378 27.9612 20.9262C28.7502 21.2145 29.4906 21.6197 30.1555 22.1285C30.8213 22.6368 31.4035 23.2421 31.8834 23.9237C32.179 24.3319 32.4327 24.7673 32.6409 25.2248C32.8492 25.6819 33.0107 26.1584 33.1231 26.647C33.2351 27.1354 33.2978 27.634 33.3097 28.1348C33.3217 28.6363 33.2821 29.1373 33.1932 29.63C33.1052 30.1138 32.9664 30.5872 32.779 31.0427C32.5917 31.4983 32.3566 31.9333 32.0774 32.3407C31.799 32.7482 31.4781 33.1262 31.1198 33.4681C30.7616 33.8101 30.3682 34.1145 29.9458 34.3763L19.5236 40.9166C19.3601 41.0187 19.1929 41.115 19.0227 41.2048C18.8518 41.2945 18.6779 41.3776 18.5003 41.4541C18.3234 41.5313 18.1435 41.6011 17.9607 41.6644C17.7786 41.7276 17.5935 41.7843 17.4068 41.8336Z" fill="white"/>
</g>
</g>
<defs>
<clipPath id="clip0_30_61">
<rect width="41" height="49.44" fill="white" transform="translate(0 0.550049)"/>
</clipPath>
<clipPath id="clip1_30_61">
<rect width="41" height="49.44" fill="white" transform="translate(0 0.550049)"/>
</clipPath>
</defs>
</svg>
